<?xml version="1.0" encoding="utf-8"?>
<!-- Generator: Adobe Illustrator 16.0.0, SVG Export Plug-In . SVG Version: 6.00 Build 0)  -->
<!DOCTYPE svg PUBLIC "-//W3C//DTD SVG 1.1//EN" "http://www.w3.org/Graphics/SVG/1.1/DTD/svg11.dtd">
<svg version="1.1" id="Layer_1" xmlns="http://www.w3.org/2000/svg" xmlns:xlink="http://www.w3.org/1999/xlink" x="0px" y="0px"
	 width="266.893px" height="266.893px" viewBox="0 0 266.893 266.893" enable-background="new 0 0 266.893 266.893"
	 xml:space="preserve">
<path d="M266.893,246.362c0,11.339-9.191,20.53-20.53,20.53H20.53c-11.339,0-20.53-9.191-20.53-20.53V20.53C0,9.191,9.191,0,20.53,0
	h225.832c11.339,0,20.53,9.191,20.53,20.53V246.362z"/>
<g>
	<path fill-rule="evenodd" clip-rule="evenodd" fill="#FFFFFF" d="M133.448,35.914c-55.223,0-100.002,44.77-100.002,100.002
		c0,44.183,28.652,81.665,68.387,94.891c4.996,0.925,6.834-2.171,6.834-4.813c0-2.384-0.094-10.263-0.136-18.617
		c-27.822,6.048-33.692-11.799-33.692-11.799c-4.548-11.56-11.104-14.632-11.104-14.632c-9.073-6.207,0.686-6.081,0.686-6.081
		c10.039,0.705,15.327,10.308,15.327,10.308c8.921,15.286,23.395,10.867,29.103,8.313c0.896-6.462,3.487-10.877,6.35-13.374
		c-22.214-2.526-45.563-11.104-45.563-49.42c0-10.917,3.907-19.837,10.305-26.842c-1.038-2.52-4.463-12.689,0.967-26.465
		c0,0,8.4-2.686,27.509,10.251c7.976-2.216,16.53-3.327,25.03-3.365c8.496,0.039,17.058,1.149,25.049,3.365
		c19.09-12.938,27.473-10.251,27.473-10.251c5.443,13.775,2.021,23.945,0.983,26.465c6.41,7.004,10.292,15.924,10.292,26.842
		c0,38.41-23.395,46.865-45.663,49.343c3.587,3.102,6.783,9.188,6.783,18.517c0,13.38-0.117,24.15-0.117,27.443
		c0,2.661,1.802,5.779,6.87,4.8c39.711-13.238,68.328-50.712,68.328-94.878C233.446,80.684,188.674,35.914,133.448,35.914z"/>
	<path fill="#FFFFFF" d="M71.323,179.494c-0.22,0.498-1.003,0.646-1.715,0.304c-0.728-0.327-1.132-1.003-0.898-1.501
		c0.217-0.511,0.999-0.653,1.724-0.313C71.158,178.31,71.572,178.995,71.323,179.494L71.323,179.494z M70.091,178.582"/>
	<path fill="#FFFFFF" d="M75.372,184.012c-0.475,0.44-1.41,0.236-2.04-0.462c-0.657-0.699-0.776-1.631-0.295-2.08
		c0.492-0.439,1.397-0.232,2.051,0.463C75.744,182.638,75.87,183.563,75.372,184.012L75.372,184.012z M74.418,182.986"/>
	<path fill="#FFFFFF" d="M79.315,189.77c-0.611,0.427-1.614,0.028-2.235-0.86c-0.611-0.89-0.611-1.957,0.017-2.384
		c0.617-0.427,1.607-0.042,2.234,0.838C79.942,188.269,79.942,189.336,79.315,189.77L79.315,189.77z M79.315,189.77"/>
	<path fill="#FFFFFF" d="M84.717,195.335c-0.547,0.605-1.715,0.44-2.568-0.385c-0.877-0.805-1.119-1.95-0.569-2.555
		c0.557-0.604,1.73-0.434,2.591,0.385C85.036,193.586,85.302,194.737,84.717,195.335L84.717,195.335z M84.717,195.335"/>
	<path fill="#FFFFFF" d="M92.168,198.566c-0.242,0.783-1.364,1.139-2.496,0.806c-1.133-0.343-1.873-1.262-1.644-2.051
		c0.233-0.789,1.365-1.161,2.504-0.806C91.664,196.858,92.404,197.768,92.168,198.566L92.168,198.566z M92.168,198.566"/>
	<path fill="#FFFFFF" d="M100.354,199.165c0.025,0.824-0.935,1.507-2.122,1.523c-1.196,0.025-2.163-0.641-2.177-1.452
		c0-0.835,0.938-1.511,2.135-1.53C99.378,197.684,100.354,198.347,100.354,199.165L100.354,199.165z M100.354,199.165"/>
	<path fill="#FFFFFF" d="M107.968,197.868c0.143,0.805-0.683,1.63-1.862,1.85c-1.161,0.214-2.235-0.284-2.384-1.08
		c-0.146-0.825,0.695-1.652,1.856-1.866C106.759,196.567,107.819,197.05,107.968,197.868L107.968,197.868z M107.968,197.868"/>
</g>
</svg>
