<?xml version="1.0" encoding="UTF-8" standalone="no"?>
<!-- Created with Inkscape (http://www.inkscape.org/) -->

<svg
   xmlns:dc="http://purl.org/dc/elements/1.1/"
   xmlns:cc="http://creativecommons.org/ns#"
   xmlns:rdf="http://www.w3.org/1999/02/22-rdf-syntax-ns#"
   xmlns:svg="http://www.w3.org/2000/svg"
   xmlns="http://www.w3.org/2000/svg"
   xmlns:sodipodi="http://sodipodi.sourceforge.net/DTD/sodipodi-0.dtd"
   xmlns:inkscape="http://www.inkscape.org/namespaces/inkscape"
   id="svg2"
   version="1.1"
   inkscape:version="0.48.4 r9939"
   width="200"
   height="200"
   xml:space="preserve"
   sodipodi:docname="google-plus-icon-logo.eps"><metadata
     id="metadata8"><rdf:RDF><cc:Work
         rdf:about=""><dc:format>image/svg+xml</dc:format><dc:type
           rdf:resource="http://purl.org/dc/dcmitype/StillImage" /><dc:title></dc:title></cc:Work></rdf:RDF></metadata><defs
     id="defs6" /><sodipodi:namedview
     pagecolor="#ffffff"
     bordercolor="#666666"
     borderopacity="1"
     objecttolerance="10"
     gridtolerance="10"
     guidetolerance="10"
     inkscape:pageopacity="0"
     inkscape:pageshadow="2"
     inkscape:window-width="1680"
     inkscape:window-height="1026"
     id="namedview4"
     showgrid="false"
     inkscape:zoom="0.2909629"
     inkscape:cx="-372.39914"
     inkscape:cy="405.54999"
     inkscape:window-x="0"
     inkscape:window-y="24"
     inkscape:window-maximized="1"
     inkscape:current-layer="g10" /><g
     id="g10"
     inkscape:groupmode="layer"
     inkscape:label="ink_ext_XXXXXX"
     transform="matrix(1.25,0,0,-1.25,0,200.00002)"><g
       id="g3043"
       transform="matrix(0.9623963,0,0,0.9623963,-1.093499,-271.16905)"><path
         d="m 113.359,377.415 c -0.027,-2.753 -0.055,-5.52 -0.069,-8.274 -2.767,-0.027 -5.521,-0.041 -8.274,-0.055 0,-2.754 0,-5.493 0,-8.246 2.753,-0.014 5.521,-0.028 8.274,-0.056 0.028,-2.753 0.028,-5.507 0.055,-8.274 2.74,0 5.493,0.014 8.247,0 0.014,2.767 0.027,5.521 0.055,8.288 2.753,0.014 5.521,0.028 8.274,0.042 0,2.753 0,5.492 0,8.246 -2.753,0.014 -5.521,0.028 -8.274,0.055 -0.014,2.754 -0.041,5.521 -0.055,8.274 -2.754,0 -5.493,0 -8.233,0 z M 38.7277,364.963 c -0.2492,-12.093 8.0801,-23.632 19.5364,-27.396 10.7922,-3.625 24.0609,-0.913 31.2418,8.33 5.2437,6.475 6.4336,15.109 5.8664,23.175 -9.2422,0.083 -18.4848,0.055 -27.7133,0.042 -0.0141,-3.293 0,-6.573 0.0137,-9.866 5.5343,-0.152 11.0687,-0.083 16.6031,-0.193 -1.3973,-4.788 -4.5797,-9.243 -9.4086,-10.972 -9.3254,-4.11 -21.2242,1.259 -24.1574,11.041 -3.5422,9.367 2.255,20.671 11.8297,23.397 5.9355,2.089 12.0511,-0.263 17.1289,-3.349 2.5738,2.408 4.9808,4.981 7.3468,7.582 -5.7695,4.829 -13.1855,7.79 -20.8093,7.14 -14.9567,-0.18 -28.0457,-13.988 -27.4782,-28.931 z M 5.96367,447.246 c 1.99258,0.788 4.17853,0.678 6.26793,0.761 48.4817,-0.056 96.9634,0 145.4444,-0.028 5.382,0.664 10.253,-4.234 9.616,-9.602 0.111,-48.938 0.042,-97.89 0.042,-146.842 0.622,-5.424 -4.234,-10.28 -9.658,-9.755 -48.938,-0.013 -97.8901,-0.013 -146.828,0 -5.42378,-0.525 -10.280422,4.331 -9.65777,9.769 0,48.938 -0.08281,97.89 0.0418,146.828 -0.304686,3.597 1.61875,7.084 4.73164,8.869"
         style="fill:#de3a3a;fill-opacity:1;fill-rule:nonzero;stroke:none"
         id="path44"
         inkscape:connector-curvature="0" /><path
         d="m 38.7277,364.963 c -0.5675,14.943 12.5215,28.751 27.4782,28.931 7.6238,0.65 15.0398,-2.311 20.8093,-7.14 -2.366,-2.601 -4.773,-5.174 -7.3468,-7.582 -5.0778,3.086 -11.1934,5.438 -17.1289,3.349 -9.5747,-2.726 -15.3719,-14.03 -11.8297,-23.397 2.9332,-9.782 14.832,-15.151 24.1574,-11.041 4.8289,1.729 8.0113,6.184 9.4086,10.972 -5.5344,0.11 -11.0688,0.041 -16.6031,0.193 -0.0137,3.293 -0.0278,6.573 -0.0137,9.866 9.2285,0.013 18.4711,0.041 27.7133,-0.042 0.5672,-8.066 -0.6227,-16.7 -5.8664,-23.175 -7.1809,-9.243 -20.4496,-11.955 -31.2418,-8.33 -11.4563,3.764 -19.7856,15.303 -19.5364,27.396"
         style="fill:#ffffff;fill-opacity:1;fill-rule:nonzero;stroke:none"
         id="path46"
         inkscape:connector-curvature="0" /><path
         d="m 113.359,377.415 c 2.74,0 5.479,0 8.233,0 0.014,-2.753 0.041,-5.52 0.055,-8.274 2.753,-0.027 5.521,-0.041 8.274,-0.055 0,-2.754 0,-5.493 0,-8.246 -2.753,-0.014 -5.521,-0.028 -8.274,-0.042 -0.028,-2.767 -0.041,-5.521 -0.055,-8.288 -2.754,0.014 -5.507,0 -8.247,0 -0.027,2.767 -0.027,5.521 -0.055,8.274 -2.753,0.028 -5.521,0.042 -8.274,0.056 0,2.753 0,5.492 0,8.246 2.753,0.014 5.507,0.028 8.274,0.055 0.014,2.754 0.042,5.521 0.069,8.274"
         style="fill:#ffffff;fill-opacity:1;fill-rule:nonzero;stroke:none"
         id="path48"
         inkscape:connector-curvature="0" /></g></g></svg>