<?xml version="1.0" encoding="UTF-8"?>
<!-- Generator: Adobe Illustrator 16.0.0, SVG Export Plug-In . SVG Version: 6.00 Build 0)  -->
<!DOCTYPE svg PUBLIC "-//W3C//DTD SVG 1.1//EN" "http://www.w3.org/Graphics/SVG/1.1/DTD/svg11.dtd">
<svg version="1.1" id="Layer_1" xmlns="http://www.w3.org/2000/svg" xmlns:xlink="http://www.w3.org/1999/xlink" x="0px" y="0px" width="400px" height="400px" viewBox="0 0 400 400" enable-background="new 0 0 400 400" xml:space="preserve">
<g>
	<path fill="#FFFFFF" stroke="#010101" stroke-width="0.2892" d="M276.123,32.261"/>
	<g>
		<path fill="#622D91" d="M230.055,44.977c3.864,0,8.427,0.855,13.804,3.102c0,0,16.947,31.828,18.658,57.131    c0,0-7.589,52.19-11.709,68.532c0,0,90.542,0,113.634,0c33.684,0,22.126,42.92-11.581,42.92c33.707,0,22.138,42.984-11.558,42.984    c33.695,0,22.114,42.92-11.593,42.92c33.707,0,22.114,42.937-11.569,42.937c-17.657,0-90.402,0-140.879,0    c-10.865,0-20.759-12.384-28.767-12.384c-13.246,0-21.573,0-21.573,0s-41.028-32.654-7.659-113.181    c0,0,27.969-16.307,39.218-25.886c11.255-9.55,57.257-83.96,57.257-93.254c0-9.3-1.06-49.542-1.06-49.542    S219.532,44.977,230.055,44.977 M230.055,29.619L230.055,29.619c-13.327,0-23.15,6.57-27.524,12.157    c-2.17,2.875-3.3,6.303-3.247,9.882c0,0.372,0.931,36.361,1.042,47.604c-4.667,13.467-43.094,75.23-51.882,83.128    c-8.316,7.105-29.482,19.886-36.938,24.256c-2.88,1.682-5.197,4.307-6.454,7.408c-37.362,90.158,10.219,129.481,12.262,131.123    c2.776,2.188,6.082,3.363,9.608,3.363h20.456c1.181,0.547,3.462,2.002,5.005,3.003c6.134,3.923,14.52,9.323,24.879,9.323h140.879    c28.225,0,47.186-21.813,47.186-42.146c0-4.667-0.954-9.031-2.759-13c9.079-8.131,14.305-19.234,14.305-29.913    c0-4.674-0.919-9.032-2.712-13.007c9.056-8.143,14.281-19.229,14.281-29.978c0-4.604-0.931-9.021-2.735-12.937    c9.067-8.143,14.328-19.24,14.328-29.995c0-8.98-3.573-17.046-9.986-22.807c-4.435-3.929-12.513-8.683-25.606-8.683h-94.872    c3.876-21.469,7.985-49.385,8.194-50.957c0.128-1.1,0.198-2.177,0.104-3.282c-1.932-28.249-19.67-61.88-20.438-63.266    c-1.664-3.137-4.318-5.616-7.589-7.024C243.032,31.097,236.397,29.619,230.055,29.619L230.055,29.619z"/>
		<path fill="#622D91" d="M122.173,199.354v157.521H27.767L15.371,199.354H122.173 M122.173,183.95H15.371    c-4.249,0-8.363,1.792-11.255,4.993c-2.951,3.125-4.376,7.333-4.027,11.587l12.355,157.578c0.629,7.95,7.263,14.177,15.323,14.177    h94.406c8.497,0,15.364-6.902,15.364-15.41V199.354C137.537,190.835,130.669,183.95,122.173,183.95L122.173,183.95z"/>
		<g>
			<polygon fill="#7B2A90" points="27.304,357.375 14.83,198.854 122.673,198.854 122.673,357.375    "/>
			<path fill="#622D91" d="M122.173,199.354v157.521H27.767L15.371,199.354H122.173 M123.173,198.354h-1H15.371H14.29l0.084,1.079     l12.396,157.52l0.073,0.922h0.924h94.406h1v-1V199.354V198.354L123.173,198.354z"/>
		</g>
	</g>
</g>
</svg>