<?xml version="1.0" encoding="utf-8"?>
<!-- Generator: Adobe Illustrator 16.0.0, SVG Export Plug-In . SVG Version: 6.00 Build 0)  -->
<!DOCTYPE svg PUBLIC "-//W3C//DTD SVG 1.1//EN" "http://www.w3.org/Graphics/SVG/1.1/DTD/svg11.dtd">
<svg version="1.1" id="Layer_1" xmlns="http://www.w3.org/2000/svg" xmlns:xlink="http://www.w3.org/1999/xlink" x="0px" y="0px"
	 width="266.893px" height="266.894px" viewBox="0 0 266.893 266.894" enable-background="new 0 0 266.893 266.894"
	 xml:space="preserve">
<path fill="#5FA9DD" d="M266.893,254.259c0,6.977-5.657,12.635-12.635,12.635H12.635C5.657,266.894,0,261.235,0,254.259V12.635
	C0,5.657,5.657,0,12.635,0h241.624c6.978,0,12.635,5.657,12.635,12.635V254.259z"/>
<path fill="#FFFFFF" d="M233.447,71.413c-7.37,3.278-15.277,5.471-23.578,6.468c8.486-5.078,14.991-13.132,18.057-22.705
	c-7.923,4.694-16.702,8.108-26.069,9.961c-7.477-7.98-18.148-12.965-29.943-12.965c-22.664,0-41.041,18.377-41.041,41.038
	c0,3.214,0.375,6.347,1.063,9.342c-34.087-1.694-64.333-18.04-84.571-42.872c-3.517,6.063-5.559,13.117-5.559,20.637
	c0,14.228,7.25,26.809,18.255,34.144c-6.727-0.204-13.046-2.058-18.565-5.116c-0.004,0.162-0.005,0.326-0.005,0.52
	c0,19.872,14.138,36.45,32.917,40.241c-3.453,0.923-7.082,1.41-10.831,1.41c-2.639,0-5.197-0.226-7.717-0.736
	c5.229,16.335,20.388,28.18,38.339,28.49c-14.036,11.029-31.735,17.561-50.954,17.561c-3.309,0-6.591-0.195-9.796-0.569
	c18.157,11.685,39.72,18.462,62.901,18.462c75.469,0,116.735-62.532,116.735-116.764c0-1.767-0.027-3.525-0.099-5.285
	C220.996,86.879,227.934,79.651,233.447,71.413z"/>
</svg>
