<?xml version="1.0" encoding="utf-8"?>
<!-- Generator: Adobe Illustrator 16.0.0, SVG Export Plug-In . SVG Version: 6.00 Build 0)  -->
<!DOCTYPE svg PUBLIC "-//W3C//DTD SVG 1.1//EN" "http://www.w3.org/Graphics/SVG/1.1/DTD/svg11.dtd">
<svg version="1.1" xmlns="http://www.w3.org/2000/svg" xmlns:xlink="http://www.w3.org/1999/xlink" x="0px" y="0px"
	 width="1190.551px" height="424px" viewBox="0 0 1190.551 424" enable-background="new 0 0 1190.551 424" xml:space="preserve">
<g id="Camada_1">
	<polygon fill-rule="evenodd" clip-rule="evenodd" points="453.79,251.307 570.326,251.307 570.435,251.307 570.435,251.415 
		570.435,276.485 570.435,276.593 570.326,276.593 425.827,276.593 425.719,276.593 425.719,276.485 425.719,49.116 425.719,49.008 
		425.827,49.008 564.001,49.008 564.109,49.008 564.109,49.116 564.109,74.186 564.109,74.294 564.001,74.294 453.79,74.294 
		453.79,147.546 551.814,147.546 551.922,147.546 551.922,147.654 551.922,172.725 551.922,172.832 551.814,172.832 453.79,172.832 
			"/>
	<polygon fill-rule="evenodd" clip-rule="evenodd" points="633.216,49.116 633.216,251.307 744.123,251.307 744.23,251.307 
		744.23,251.415 744.23,276.485 744.23,276.593 744.123,276.593 605.252,276.593 605.145,276.593 605.145,276.485 605.145,49.116 
		605.145,49.008 605.252,49.008 633.107,49.008 633.216,49.008 	"/>
	<polygon fill-rule="evenodd" clip-rule="evenodd" points="801.905,49.116 801.905,251.307 912.813,251.307 912.921,251.307 
		912.921,251.415 912.921,276.485 912.921,276.593 912.813,276.593 773.941,276.593 773.834,276.593 773.834,276.485 
		773.834,49.116 773.834,49.008 773.941,49.008 801.797,49.008 801.905,49.008 	"/>
	<path fill-rule="evenodd" clip-rule="evenodd" d="M1098.047,162.969c0-7.373-0.489-14.299-1.461-20.784
		c-0.972-6.483-2.425-12.527-4.353-18.138c-1.929-5.612-4.221-10.763-6.874-15.45c-2.654-4.688-5.672-8.917-9.052-12.684l0,0
		c-3.406-3.766-7.108-7.072-11.11-9.918c-4.001-2.847-8.304-5.232-12.912-7.157l0,0c-4.591-1.929-9.366-3.383-14.323-4.353
		c-4.935-0.965-10.051-1.451-15.348-1.451c-5.276,0-10.398,0.487-15.347,1.455c-4.958,0.97-9.74,2.423-14.324,4.349h-0.001
		c-4.607,1.925-8.91,4.311-12.911,7.157c-4.002,2.846-7.704,6.152-11.111,9.918h0.001c-3.38,3.767-6.397,7.995-9.052,12.684
		c-2.653,4.688-4.945,9.838-6.874,15.45c-1.928,5.61-3.382,11.654-4.354,18.138c-0.971,6.485-1.46,13.411-1.46,20.784
		c0,7.371,0.489,14.283,1.468,20.754c0.978,6.471,2.445,12.502,4.401,18.111c1.95,5.565,4.262,10.674,6.928,15.331
		c2.681,4.685,5.72,8.912,9.11,12.69h-0.001c3.407,3.766,7.108,7.058,11.11,9.884c4.002,2.824,8.305,5.183,12.912,7.079l0.001,0.001
		c4.58,1.925,9.357,3.361,14.331,4.317c4.973,0.956,10.143,1.431,15.508,1.431c5.299,0,10.431-0.479,15.371-1.44
		c4.904-0.956,9.623-2.39,14.131-4.308l0.001-0.001c4.553-1.896,8.813-4.255,12.786-7.079c3.974-2.825,7.662-6.118,11.068-9.884l0,0
		c3.38-3.767,6.397-7.981,9.052-12.648c2.653-4.667,4.945-9.789,6.874-15.373c1.928-5.61,3.381-11.641,4.353-18.11
		C1097.558,177.252,1098.047,170.341,1098.047,162.969L1098.047,162.969z M1124.786,162.969c0,8.303-0.603,16.26-1.8,23.882
		c-1.196,7.622-2.989,14.909-5.369,21.872c-2.382,6.942-5.283,13.409-8.704,19.393c-3.415,5.975-7.348,11.468-11.797,16.471
		c-4.454,5.037-9.356,9.514-14.705,13.437c-5.35,3.924-11.148,7.296-17.395,10.121c-6.273,2.825-12.912,4.938-19.922,6.344
		s-14.39,2.105-22.145,2.105c-8.036,0-15.641-0.699-22.823-2.104c-7.184-1.405-13.948-3.519-20.308-6.345
		c-6.344-2.832-12.21-6.212-17.591-10.147c-5.356-3.917-10.232-8.386-14.62-13.41c-4.395-5.005-8.271-10.498-11.63-16.471
		c-3.364-5.983-6.209-12.45-8.535-19.394l0,0c-2.325-6.966-4.075-14.252-5.244-21.871c-1.169-7.62-1.757-15.577-1.757-23.882
		c0-16.723,2.408-32.05,7.225-45.979c2.41-6.971,5.326-13.466,8.746-19.478c3.415-6.001,7.333-11.521,11.755-16.553v-0.001
		c4.427-5.009,9.314-9.472,14.67-13.388c5.356-3.916,11.184-7.288,17.485-10.113c6.264-2.821,12.918-4.932,19.954-6.338
		c7.062-1.41,14.51-2.112,22.337-2.112c7.98,0,15.542,0.699,22.683,2.105c7.142,1.405,13.864,3.518,20.167,6.345
		c6.331,2.825,12.172,6.197,17.527,10.113c5.356,3.916,10.231,8.38,14.629,13.389c4.394,5.031,8.271,10.553,11.63,16.555
		c3.363,6.01,6.209,12.505,8.535,19.477c2.329,6.979,4.081,14.308,5.25,21.983C1124.2,146.624,1124.786,154.622,1124.786,162.969z"
		/>
	<path fill-rule="evenodd" clip-rule="evenodd" d="M435.231,374.992h-9.404h-0.108v-0.108V298.19v-0.108h0.108h21.276
		c1.589,0,3.115,0.05,4.582,0.145c1.466,0.096,2.875,0.238,4.23,0.425h0c1.353,0.195,2.648,0.441,3.891,0.738
		c1.243,0.298,2.427,0.646,3.555,1.048l0,0.001c2.301,0.825,4.328,1.857,6.076,3.092c1.751,1.238,3.225,2.681,4.417,4.325
		c1.19,1.642,2.082,3.476,2.675,5.497c0.595,2.027,0.891,4.243,0.891,6.644c0,1.961-0.193,3.809-0.581,5.538
		c-0.386,1.721-0.967,3.325-1.743,4.809h0c-0.777,1.495-1.733,2.863-2.864,4.109c-1.129,1.243-2.434,2.365-3.911,3.368
		c-1.476,1.003-3.108,1.877-4.902,2.628c-1.792,0.751-3.747,1.38-5.869,1.89c-2.111,0.511-4.364,0.893-6.758,1.147
		c-2.395,0.255-4.932,0.383-7.608,0.383c-1.273,0-2.58-0.029-3.914-0.089c-1.293-0.057-2.606-0.142-3.932-0.254v31.358v0.108
		H435.231L435.231,374.992z M435.339,334.757c0.588,0.063,1.201,0.124,1.835,0.178c0.665,0.057,1.34,0.105,2.02,0.145
		c0.688,0.039,1.354,0.068,1.998,0.088c0.642,0.02,1.274,0.029,1.895,0.029c2.185,0,4.207-0.088,6.065-0.26
		c1.874-0.173,3.588-0.433,5.138-0.775c1.542-0.341,2.945-0.762,4.203-1.26c1.251-0.495,2.36-1.068,3.322-1.72l0,0.001
		c0.97-0.66,1.806-1.388,2.508-2.185h0.001c0.7-0.794,1.268-1.657,1.704-2.587c0.438-0.941,0.763-1.947,0.979-3.015
		c0.216-1.068,0.324-2.202,0.324-3.4c0-1.475-0.179-2.817-0.535-4.028c-0.356-1.214-0.89-2.297-1.599-3.247l0,0
		c-0.708-0.939-1.565-1.768-2.57-2.484c-1.01-0.72-2.169-1.329-3.475-1.825c-0.817-0.301-1.698-0.56-2.639-0.772
		c-0.944-0.215-1.952-0.386-3.018-0.513s-2.22-0.22-3.458-0.281c-1.237-0.061-2.564-0.09-3.975-0.09h-10.726V334.757z"/>
	<path fill-rule="evenodd" clip-rule="evenodd" d="M499.144,343.281v31.603v0.108h-0.108h-9.404h-0.108v-0.108V298.19v-0.108h0.108
		h19.925c1.683,0,3.242,0.03,4.676,0.091c1.432,0.062,2.738,0.155,3.916,0.282c1.18,0.128,2.311,0.29,3.39,0.487
		c1.079,0.195,2.104,0.427,3.073,0.69l0,0c2.689,0.726,5.063,1.712,7.119,2.957c2.061,1.248,3.801,2.755,5.22,4.518
		c1.426,1.749,2.494,3.724,3.206,5.916c0.713,2.199,1.07,4.618,1.07,7.247c0,1.563-0.124,3.037-0.372,4.429
		c-0.249,1.392-0.624,2.701-1.125,3.932c-0.504,1.233-1.108,2.39-1.815,3.466c-0.699,1.064-1.5,2.05-2.402,2.951
		c-0.906,0.905-1.9,1.727-2.983,2.464c-1.083,0.738-2.254,1.393-3.514,1.962l0,0c-1.259,0.58-2.587,1.081-3.98,1.503
		c-1.367,0.413-2.801,0.752-4.302,1.015v0.111l22.707,32.721l0.118,0.169h-0.207h-9.404h-0.054l-0.033-0.044l-23.594-31.667H499.144
		L499.144,343.281z M499.144,306.755v27.854h9.139c1.432,0,2.758-0.024,3.978-0.073c1.224-0.048,2.345-0.122,3.359-0.219l0-0.001
		c0.992-0.087,1.935-0.216,2.825-0.382c0.921-0.173,1.79-0.385,2.599-0.631l0,0c1.617-0.497,3.049-1.139,4.294-1.927
		c1.243-0.785,2.302-1.718,3.177-2.795c0.872-1.075,1.527-2.319,1.963-3.729c0.438-1.414,0.657-2.995,0.657-4.738h0
		c-0.019-1.633-0.238-3.105-0.656-4.419c-0.417-1.31-1.033-2.463-1.847-3.461h0c-0.818-0.991-1.792-1.848-2.925-2.563
		c-1.127-0.714-2.414-1.29-3.86-1.727c-0.697-0.209-1.463-0.393-2.299-0.545c-0.807-0.146-1.68-0.267-2.616-0.352h-0.001
		c-0.947-0.098-2.028-0.171-3.241-0.22c-1.209-0.049-2.556-0.073-4.036-0.073H499.144z"/>
	<path fill-rule="evenodd" clip-rule="evenodd" d="M613.296,336.594c0-2.483-0.166-4.816-0.495-7
		c-0.328-2.183-0.82-4.218-1.473-6.105c-0.653-1.89-1.429-3.623-2.326-5.2c-0.898-1.576-1.92-2.999-3.063-4.266h0.001
		c-1.151-1.266-2.404-2.378-3.757-3.335c-1.354-0.957-2.809-1.76-4.367-2.406l0,0c-1.549-0.647-3.161-1.136-4.833-1.462
		c-1.672-0.326-3.408-0.491-5.204-0.491c-1.785,0-3.519,0.164-5.192,0.49c-1.677,0.326-3.295,0.814-4.846,1.463l0,0
		c-1.559,0.646-3.014,1.449-4.366,2.406c-1.354,0.957-2.606,2.069-3.757,3.335h0c-1.143,1.267-2.165,2.689-3.062,4.266
		c-0.898,1.577-1.673,3.311-2.326,5.2c-0.652,1.888-1.145,3.923-1.474,6.105c-0.329,2.184-0.495,4.517-0.495,7
		c0,2.482,0.166,4.811,0.498,6.99c0.331,2.179,0.828,4.209,1.489,6.097c0.66,1.873,1.443,3.592,2.344,5.159
		c0.907,1.576,1.936,2.999,3.082,4.269h0c1.151,1.266,2.404,2.373,3.757,3.323s2.808,1.743,4.366,2.381h0.001
		c1.549,0.647,3.166,1.131,4.847,1.452s3.431,0.481,5.247,0.481c1.793,0,3.53-0.161,5.201-0.484
		c1.659-0.321,3.254-0.804,4.779-1.449l0,0c1.54-0.638,2.98-1.431,4.324-2.381s2.592-2.058,3.743-3.323h-0.001
		c1.144-1.267,2.164-2.685,3.063-4.254c0.898-1.57,1.674-3.295,2.326-5.174l0,0c0.652-1.888,1.145-3.918,1.473-6.096v-0.001
		C613.13,341.405,613.296,339.076,613.296,336.594L613.296,336.594z M622.509,336.594c0,2.804-0.205,5.491-0.611,8.067
		c-0.406,2.575-1.016,5.037-1.824,7.389v0.001c-0.809,2.345-1.795,4.531-2.958,6.554c-1.161,2.02-2.498,3.876-4.01,5.567
		c-1.516,1.703-3.182,3.217-5,4.542c-1.818,1.327-3.79,2.467-5.913,3.422c-2.132,0.955-4.39,1.669-6.774,2.145
		c-2.383,0.475-4.891,0.712-7.525,0.712c-2.731,0-5.315-0.236-7.755-0.711c-2.441-0.476-4.742-1.189-6.904-2.146
		c-2.157-0.957-4.151-2.101-5.98-3.431c-1.821-1.324-3.479-2.835-4.971-4.534c-1.494-1.691-2.813-3.549-3.954-5.567
		c-1.143-2.021-2.11-4.207-2.901-6.554c-0.79-2.354-1.385-4.816-1.782-7.39s-0.597-5.261-0.597-8.066
		c0-2.822,0.205-5.528,0.614-8.118s1.023-5.062,1.841-7.414c0.819-2.355,1.81-4.551,2.972-6.582
		c1.161-2.028,2.493-3.895,3.996-5.595l0-0.001c1.505-1.693,3.167-3.202,4.987-4.526c1.821-1.323,3.801-2.464,5.944-3.419
		c2.13-0.953,4.393-1.667,6.785-2.143c2.4-0.477,4.931-0.714,7.591-0.714c2.711,0,5.281,0.236,7.708,0.712
		c2.427,0.475,4.713,1.189,6.856,2.145c2.152,0.955,4.138,2.096,5.959,3.419c1.82,1.324,3.478,2.833,4.973,4.527
		c1.494,1.701,2.813,3.567,3.954,5.596l0,0c1.144,2.031,2.11,4.227,2.901,6.582c0.791,2.358,1.387,4.835,1.784,7.427
		C622.311,331.073,622.509,333.774,622.509,336.594z"/>
	<path fill-rule="evenodd" clip-rule="evenodd" d="M646.969,374.992h-9.404h-0.107v-0.108V298.19v-0.108h0.107h21.276
		c1.589,0,3.114,0.05,4.582,0.145c1.466,0.096,2.875,0.238,4.229,0.425h0.001c1.352,0.195,2.648,0.441,3.892,0.738
		c1.242,0.298,2.427,0.646,3.554,1.048v0.001c2.302,0.825,4.329,1.857,6.076,3.092c1.751,1.238,3.226,2.681,4.418,4.325
		c1.19,1.642,2.082,3.476,2.675,5.497c0.595,2.027,0.892,4.243,0.892,6.644c0,1.96-0.193,3.808-0.581,5.538
		c-0.387,1.721-0.967,3.325-1.743,4.809l0,0c-0.777,1.495-1.733,2.863-2.864,4.109c-1.129,1.243-2.434,2.365-3.91,3.368
		c-1.476,1.003-3.109,1.878-4.902,2.628c-1.792,0.751-3.747,1.38-5.869,1.89c-2.111,0.511-4.364,0.893-6.758,1.147
		c-2.396,0.255-4.932,0.383-7.608,0.383c-1.274,0-2.58-0.029-3.914-0.089c-1.293-0.057-2.605-0.142-3.932-0.254v31.358v0.108
		H646.969L646.969,374.992z M647.077,334.757c0.588,0.063,1.201,0.124,1.835,0.178c0.665,0.057,1.341,0.105,2.021,0.145
		c0.688,0.039,1.354,0.068,1.997,0.088c0.643,0.02,1.274,0.029,1.896,0.029c2.193,0,4.224-0.088,6.088-0.262
		c1.865-0.173,3.57-0.432,5.114-0.773c1.544-0.341,2.945-0.762,4.203-1.26c1.251-0.495,2.36-1.068,3.322-1.72v0.001
		c0.972-0.66,1.807-1.388,2.509-2.185h0.001c0.7-0.794,1.268-1.657,1.704-2.587c0.438-0.941,0.764-1.947,0.979-3.015
		c0.216-1.068,0.323-2.202,0.323-3.4c0-1.475-0.179-2.818-0.534-4.029c-0.356-1.213-0.891-2.296-1.6-3.246
		c-0.707-0.939-1.564-1.768-2.57-2.484c-1.009-0.72-2.169-1.329-3.474-1.825c-0.817-0.301-1.698-0.56-2.64-0.772
		c-0.943-0.215-1.951-0.386-3.018-0.513c-1.065-0.127-2.22-0.22-3.457-0.281c-1.237-0.061-2.563-0.09-3.975-0.09h-10.726V334.757z"
		/>
	<path fill-rule="evenodd" clip-rule="evenodd" d="M685.197,374.844l31.209-76.694l0.027-0.067h0.073h8.11h0.072l0.027,0.067
		l31.327,76.694l0.061,0.148h-0.16h-10.168h-0.074l-0.026-0.069l-8.985-22.951h-32.218l-9.024,22.951l-0.027,0.069h-0.073h-10.051
		h-0.16L685.197,374.844L685.197,374.844z M720.578,310.16c-1.709,4.735-3.376,9.247-4.997,13.532
		c-1.651,4.366-3.263,8.519-4.832,12.454v0.001l-2.898,7.152h25.364l-2.898-7.173l0,0c-1.577-3.974-3.17-8.13-4.781-12.47
		c-1.604-4.32-3.228-8.819-4.873-13.497H720.578z"/>
	<path fill-rule="evenodd" clip-rule="evenodd" d="M811.172,343.771h-16.86h-0.108v-0.107v-8.144v-0.107h0.108h26.08h0.107v0.107
		v35.727v0.065l-0.059,0.029c-0.393,0.2-0.876,0.405-1.449,0.613v0.001c-0.571,0.207-1.233,0.421-1.986,0.638l-0.002,0.001
		c-0.755,0.209-1.56,0.412-2.412,0.609l0,0c-0.86,0.198-1.772,0.392-2.739,0.58h-0.001c-0.989,0.185-2.021,0.355-3.088,0.505
		c-1,0.14-2.037,0.263-3.109,0.363c-1.113,0.114-2.212,0.199-3.301,0.256c-1.092,0.057-2.176,0.085-3.258,0.085
		c-3.186,0-6.193-0.218-9.014-0.653c-2.815-0.435-5.444-1.087-7.878-1.955l0,0c-2.445-0.869-4.692-1.918-6.741-3.148
		c-2.05-1.229-3.902-2.639-5.56-4.228c-1.657-1.59-3.11-3.35-4.362-5.28c-1.252-1.928-2.305-4.028-3.162-6.299
		c-0.855-2.268-1.498-4.669-1.927-7.198c-0.428-2.53-0.643-5.191-0.643-7.978c0-3.03,0.233-5.922,0.699-8.674
		c0.466-2.751,1.166-5.365,2.099-7.842l0,0c0.941-2.466,2.089-4.76,3.445-6.875c1.356-2.116,2.924-4.055,4.703-5.813l0.001-0.001
		c1.78-1.749,3.741-3.3,5.888-4.651c2.146-1.353,4.479-2.506,7-3.461c2.506-0.951,5.146-1.665,7.913-2.14
		c2.778-0.477,5.685-0.714,8.715-0.714c1.635,0,3.271,0.057,4.905,0.189c0.814,0.065,1.614,0.146,2.396,0.238
		c0.782,0.092,1.543,0.196,2.28,0.309l0.002,0.001c0.747,0.124,1.474,0.258,2.173,0.401c0.682,0.141,1.335,0.29,1.955,0.449h0.001
		c0.626,0.169,1.207,0.34,1.74,0.513c0.529,0.172,1.012,0.348,1.443,0.529l0.066,0.027v0.071v7.899v0.146l-0.141-0.044
		c-1.124-0.354-2.336-0.683-3.633-0.982c-1.262-0.291-2.604-0.556-4.021-0.787c-1.445-0.234-2.89-0.413-4.335-0.533
		c-1.442-0.12-2.883-0.182-4.321-0.182c-2.112,0-4.172,0.16-6.179,0.478c-2.007,0.316-3.966,0.792-5.879,1.422
		c-1.92,0.629-3.722,1.423-5.406,2.38c-1.686,0.958-3.255,2.08-4.711,3.367c-1.456,1.286-2.766,2.732-3.928,4.34
		s-2.18,3.379-3.05,5.314c-0.869,1.933-1.521,4.036-1.957,6.306c-0.435,2.272-0.652,4.714-0.652,7.319
		c0,2.552,0.18,4.933,0.54,7.137c0.358,2.201,0.898,4.23,1.616,6.078c0.717,1.847,1.585,3.534,2.602,5.063
		c1.019,1.532,2.188,2.905,3.502,4.116c1.322,1.211,2.782,2.262,4.379,3.155c1.597,0.895,3.332,1.632,5.203,2.214l0,0
		c1.887,0.574,3.879,1.008,5.978,1.297c2.087,0.287,4.279,0.433,6.575,0.433c1.063,0,2.119-0.028,3.169-0.085
		c1.053-0.057,2.1-0.142,3.141-0.254h0.001c1.014-0.101,1.97-0.229,2.871-0.379c0.915-0.151,1.773-0.328,2.573-0.522V343.771z"/>
	<path fill-rule="evenodd" clip-rule="evenodd" d="M829.905,374.844l31.209-76.694l0.027-0.067h0.072h8.111h0.072l0.027,0.067
		l31.326,76.694l0.061,0.148h-0.159h-10.169h-0.073l-0.026-0.069l-8.985-22.951H849.18l-9.024,22.951l-0.026,0.069h-0.073h-10.051
		h-0.16L829.905,374.844L829.905,374.844z M865.286,310.16c-1.709,4.735-3.376,9.247-4.997,13.532
		c-1.651,4.366-3.264,8.519-4.833,12.454v0.001l-2.897,7.152h25.364l-2.898-7.173l0,0c-1.577-3.974-3.17-8.13-4.781-12.47
		c-1.605-4.32-3.229-8.819-4.873-13.497H865.286z"/>
	<path fill-rule="evenodd" clip-rule="evenodd" d="M947.916,340.88c2.349,3.385,4.687,6.815,7.013,10.296
		c2.313,3.461,4.615,6.97,6.906,10.524h0.159c-0.242-3.702-0.427-7.451-0.551-11.242c-0.123-3.785-0.187-7.605-0.187-11.454V298.19
		v-0.108h0.108h9.462h0.108v0.108v76.693v0.108h-0.108h-9.403h-0.056l-0.032-0.046l-30.093-42.751l-0.001-0.001
		c-2.591-3.722-5.05-7.325-7.374-10.81c-2.305-3.454-4.475-6.791-6.506-10.011h-0.178c0.242,3.479,0.427,7.253,0.55,11.318
		c0.124,4.065,0.187,8.414,0.187,13.042v39.149v0.108h-0.107h-9.404h-0.108v-0.108V298.19v-0.108h0.108h9.286h0.056l0.033,0.046
		L947.916,340.88L947.916,340.88z"/>
	<path fill-rule="evenodd" clip-rule="evenodd" d="M1048.602,336.185c0,2.245-0.138,4.423-0.415,6.532s-0.695,4.151-1.255,6.123l0,0
		c-0.548,1.965-1.242,3.833-2.077,5.602c-0.842,1.785-1.829,3.473-2.954,5.061c-1.118,1.578-2.38,3.05-3.78,4.413
		c-1.404,1.367-2.949,2.626-4.632,3.775c-1.67,1.149-3.489,2.171-5.449,3.062c-1.958,0.891-4.06,1.65-6.298,2.278
		c-1.284,0.362-2.623,0.672-4.013,0.926c-1.393,0.256-2.838,0.457-4.333,0.604c-1.492,0.147-3.047,0.255-4.663,0.326
		c-1.62,0.07-3.303,0.105-5.045,0.105H986.31h-0.107v-0.108V298.19v-0.108h0.107h17.555c1.742,0,3.424,0.035,5.044,0.105
		c1.616,0.071,3.172,0.179,4.664,0.326s2.936,0.344,4.323,0.596c1.39,0.253,2.727,0.563,4.003,0.935
		c2.248,0.628,4.35,1.384,6.308,2.264c1.959,0.881,3.777,1.888,5.458,3.017c1.683,1.13,3.224,2.365,4.618,3.703
		c1.391,1.334,2.637,2.771,3.735,4.311c1.102,1.552,2.065,3.191,2.89,4.924c0.825,1.731,1.514,3.559,2.063,5.483v0.001
		c0.54,1.933,0.948,3.936,1.221,6.007C1048.464,331.825,1048.602,333.97,1048.602,336.185L1048.602,336.185z M1039.099,336.185
		c0-3.67-0.405-6.993-1.216-9.969c-0.81-2.974-2.023-5.601-3.642-7.88c-1.62-2.28-3.592-4.231-5.915-5.847
		c-2.322-1.614-4.995-2.896-8.018-3.841h-0.001c-1.16-0.37-2.386-0.678-3.678-0.927c-1.294-0.249-2.652-0.439-4.076-0.576l0,0
		c-1.443-0.127-2.97-0.225-4.58-0.291c-1.611-0.065-3.314-0.1-5.109-0.1h-7.042v59.564h7.042c1.795,0,3.498-0.034,5.109-0.1
		c1.61-0.065,3.137-0.164,4.58-0.291l0,0c1.424-0.136,2.782-0.332,4.076-0.583c1.292-0.251,2.519-0.559,3.679-0.92
		c3.021-0.944,5.692-2.249,8.013-3.908c2.324-1.661,4.298-3.681,5.918-6.052c1.619-2.378,2.834-5.088,3.644-8.132
		C1038.693,343.287,1039.099,339.904,1039.099,336.185z"/>
	<path fill-rule="evenodd" clip-rule="evenodd" d="M1053.879,374.844l31.209-76.694l0.027-0.067h0.073h8.11h0.072l0.027,0.067
		l31.327,76.694l0.061,0.148h-0.16h-10.168h-0.074l-0.026-0.069l-8.985-22.951h-32.218l-9.024,22.951l-0.027,0.069h-0.073h-10.05
		h-0.161L1053.879,374.844L1053.879,374.844z M1089.26,310.16c-1.709,4.735-3.376,9.247-4.997,13.532
		c-1.651,4.366-3.263,8.519-4.833,12.454v0.001l-2.897,7.152h25.364l-2.898-7.173l0,0c-1.577-3.974-3.17-8.13-4.781-12.47
		c-1.604-4.32-3.228-8.819-4.873-13.497H1089.26z"/>
	<polygon fill-rule="evenodd" clip-rule="evenodd" fill="#81499C" points="170.358,122.482 65.765,374.991 65.765,79.158 	"/>
	<polygon fill-rule="evenodd" clip-rule="evenodd" fill="#62BB46" points="287.156,301.518 391.749,49.008 391.749,344.841 	"/>
	<polygon fill-rule="evenodd" clip-rule="evenodd" fill="#F58220" points="318.275,153.601 65.766,49.008 361.599,49.008 	"/>
	<polygon fill-rule="evenodd" clip-rule="evenodd" fill="#00AEEF" points="139.24,270.398 391.75,374.991 95.916,374.991 	"/>
	
		<rect x="168.402" y="151.645" transform="matrix(0.9239 0.3827 -0.3827 0.9239 98.5427 -71.4046)" fill-rule="evenodd" clip-rule="evenodd" width="120.711" height="120.71"/>
</g>
<g id="Principal_Linhas-guia">
</g>
</svg>
