<?xml version="1.0" encoding="utf-8"?>
<!-- Generator: Adobe Illustrator 16.0.0, SVG Export Plug-In . SVG Version: 6.00 Build 0)  -->
<!DOCTYPE svg PUBLIC "-//W3C//DTD SVG 1.1//EN" "http://www.w3.org/Graphics/SVG/1.1/DTD/svg11.dtd">
<svg version="1.1" id="Layer_1" xmlns="http://www.w3.org/2000/svg" xmlns:xlink="http://www.w3.org/1999/xlink" x="0px" y="0px"
	 width="330px" height="400px" viewBox="0 0 330 400" enable-background="new 0 0 330 400" xml:space="preserve">
<polygon points="331.154,300 165,400 -1.154,300 -1.153,100 165,0 331.154,100 "/>
<title>Layer 1</title>
<g>
	<g id="layer1_1_" transform="translate(-256.6798,-531.7963)">
		<path id="text5540_1_" fill="#6D1943" stroke="#6D1943" stroke-width="5" stroke-miterlimit="10" d="M355.12,834.122h-18.174
			c2.644-12.411,3.965-23.646,3.965-33.705V680.468c0-12.484,1.102-21.771,3.305-27.868c2.276-6.093,6.645-11.454,13.107-16.08
			c6.536-4.7,14.686-7.05,24.453-7.05c11.602,0,21.332,3.083,29.188,9.252c7.931,6.095,11.896,14.798,11.896,26.104
			c0,13.218-6.278,24.05-18.835,32.494c18.725,8.812,28.087,22.652,28.087,41.525c0,10.28-2.497,19.495-7.49,27.646
			c-4.919,8.076-10.647,13.842-17.183,17.293c-6.461,3.45-14.208,5.176-23.24,5.176c-10.28,0-18.651-3.854-25.113-11.565v20.487
			C359.086,811.983,357.763,824.062,355.12,834.122 M359.086,767.483c5.728,9.473,13.731,14.21,24.012,14.21
			c9.913,0,17.183-3.598,21.809-10.795c4.626-7.269,6.939-16.08,6.939-26.435c0-7.931-1.542-16.009-4.626-24.232
			c-3.01-8.299-6.902-14.612-11.675-18.945c-4.406,1.102-8.371,1.652-11.896,1.652c-7.416,0-11.125-1.946-11.125-5.838
			c0-3.524,3.121-5.288,9.363-5.288c3.892,0,8.738,0.883,14.539,2.645c5.213-8.812,7.82-18.395,7.82-28.749
			c0-9.252-2.056-16.338-6.168-21.257c-4.039-4.92-9.326-7.38-15.861-7.38c-5.213,0-9.693,1.469-13.438,4.405
			c-3.671,2.938-6.205,6.463-7.6,10.575c-1.396,4.038-2.093,10.684-2.093,19.936V767.483"/>
	</g>
	<g id="layer1_4_" transform="translate(-256.6798,-531.7963)">
		<path id="text5540_4_" fill="#8C2863" stroke="#8C2863" stroke-width="5" stroke-miterlimit="10" d="M373.695,834.122h-18.174
			c2.643-12.411,3.965-23.646,3.965-33.705V680.468c0-12.484,1.102-21.771,3.305-27.868c2.276-6.093,6.645-11.454,13.107-16.08
			c6.536-4.7,14.687-7.05,24.453-7.05c11.602,0,21.332,3.083,29.188,9.252c7.931,6.095,11.896,14.798,11.896,26.104
			c0,13.218-6.278,24.05-18.835,32.494c18.725,8.812,28.087,22.652,28.087,41.525c0,10.28-2.497,19.495-7.49,27.646
			c-4.919,8.076-10.647,13.842-17.183,17.293c-6.462,3.45-14.209,5.176-23.241,5.176c-10.28,0-18.651-3.854-25.113-11.565v20.487
			C377.661,811.983,376.339,824.062,373.695,834.122 M377.661,767.483c5.728,9.473,13.732,14.21,24.012,14.21
			c9.913,0,17.183-3.598,21.809-10.795c4.626-7.269,6.939-16.08,6.939-26.435c0-7.931-1.542-16.009-4.626-24.232
			c-3.01-8.299-6.902-14.612-11.676-18.945c-4.406,1.102-8.371,1.652-11.896,1.652c-7.416,0-11.125-1.946-11.125-5.838
			c0-3.524,3.121-5.288,9.362-5.288c3.892,0,8.738,0.883,14.539,2.645c5.213-8.812,7.82-18.395,7.82-28.749
			c0-9.252-2.056-16.338-6.168-21.257c-4.039-4.92-9.326-7.38-15.861-7.38c-5.213,0-9.693,1.469-13.438,4.405
			c-3.671,2.938-6.205,6.463-7.6,10.575c-1.395,4.038-2.093,10.684-2.093,19.936V767.483"/>
	</g>
	<g id="layer1_2_" transform="translate(-256.6798,-531.7963)">
		<path id="text5540_2_" fill="#BF5E93" stroke="#BF5E93" stroke-width="5" stroke-miterlimit="10" d="M392.271,834.122h-18.174
			c2.644-12.411,3.965-23.646,3.965-33.705V680.468c0-12.484,1.101-21.771,3.304-27.868c2.276-6.093,6.645-11.454,13.107-16.08
			c6.535-4.7,14.686-7.05,24.453-7.05c11.602,0,21.332,3.083,29.188,9.252c7.93,6.095,11.896,14.798,11.896,26.104
			c0,13.218-6.278,24.05-18.834,32.494c18.725,8.812,28.087,22.652,28.087,41.525c0,10.28-2.497,19.495-7.49,27.646
			c-4.92,8.076-10.647,13.842-17.183,17.293c-6.462,3.45-14.209,5.176-23.241,5.176c-10.28,0-18.651-3.854-25.113-11.565v20.487
			C396.236,811.983,394.914,824.062,392.271,834.122 M396.236,767.483c5.728,9.473,13.732,14.21,24.012,14.21
			c9.913,0,17.183-3.598,21.809-10.795c4.626-7.269,6.939-16.08,6.939-26.435c0-7.931-1.542-16.009-4.626-24.232
			c-3.01-8.299-6.902-14.612-11.676-18.945c-4.406,1.102-8.371,1.652-11.895,1.652c-7.417,0-11.125-1.946-11.125-5.838
			c0-3.524,3.121-5.288,9.362-5.288c3.892,0,8.738,0.883,14.54,2.645c5.213-8.812,7.82-18.395,7.82-28.749
			c0-9.252-2.056-16.338-6.168-21.257c-4.039-4.92-9.326-7.38-15.861-7.38c-5.213,0-9.693,1.469-13.438,4.405
			c-3.671,2.938-6.205,6.463-7.6,10.575c-1.395,4.038-2.093,10.684-2.093,19.936V767.483"/>
	</g>
	<g id="layer1_3_" transform="translate(-256.6798,-531.7963)">
		<path id="text5540_3_" fill="#D381B2" stroke="#D381B2" stroke-width="5" stroke-miterlimit="10" d="M409.988,834.122h-18.174
			c2.644-12.411,3.965-23.646,3.965-33.705V680.468c0-12.484,1.101-21.771,3.304-27.868c2.276-6.093,6.646-11.454,13.107-16.08
			c6.535-4.7,14.686-7.05,24.453-7.05c11.602,0,21.332,3.083,29.188,9.252c7.93,6.095,11.896,14.798,11.896,26.104
			c0,13.218-6.278,24.05-18.834,32.494c18.725,8.812,28.087,22.652,28.087,41.525c0,10.28-2.496,19.495-7.49,27.646
			c-4.92,8.076-10.647,13.842-17.183,17.293c-6.461,3.45-14.209,5.176-23.241,5.176c-10.28,0-18.651-3.854-25.113-11.565v20.487
			C413.954,811.983,412.632,824.062,409.988,834.122 M413.954,767.483c5.728,9.473,13.732,14.21,24.012,14.21
			c9.913,0,17.183-3.598,21.809-10.795c4.626-7.269,6.939-16.08,6.939-26.435c0-7.931-1.542-16.009-4.626-24.232
			c-3.01-8.299-6.902-14.612-11.676-18.945c-4.405,1.102-8.371,1.652-11.895,1.652c-7.417,0-11.125-1.946-11.125-5.838
			c0-3.524,3.121-5.288,9.362-5.288c3.892,0,8.738,0.883,14.54,2.645c5.213-8.812,7.82-18.395,7.82-28.749
			c0-9.252-2.056-16.338-6.168-21.257c-4.039-4.92-9.326-7.38-15.861-7.38c-5.213,0-9.693,1.469-13.438,4.405
			c-3.671,2.938-6.205,6.463-7.6,10.575c-1.395,4.038-2.093,10.684-2.093,19.936V767.483"/>
	</g>
	<g id="layer1" transform="translate(-256.6798,-531.7963)">
		<path id="text5540" fill="#FFFFFF" stroke="#FFFFFF" stroke-width="5" stroke-miterlimit="10" d="M429.422,834.122h-18.174
			c2.644-12.411,3.965-23.646,3.965-33.705V680.468c0-12.484,1.102-21.771,3.305-27.868c2.276-6.093,6.645-11.454,13.107-16.08
			c6.536-4.7,14.686-7.05,24.453-7.05c11.602,0,21.332,3.083,29.188,9.252c7.931,6.095,11.896,14.798,11.896,26.104
			c0,13.218-6.278,24.05-18.835,32.494c18.725,8.812,28.087,22.652,28.087,41.525c0,10.28-2.497,19.495-7.49,27.646
			c-4.919,8.076-10.647,13.842-17.183,17.293c-6.461,3.45-14.208,5.176-23.24,5.176c-10.28,0-18.651-3.854-25.113-11.565v20.487
			C433.387,811.983,432.065,824.062,429.422,834.122 M433.387,767.483c5.728,9.473,13.732,14.21,24.012,14.21
			c9.913,0,17.183-3.598,21.809-10.795c4.626-7.269,6.939-16.08,6.939-26.435c0-7.931-1.542-16.009-4.626-24.232
			c-3.01-8.299-6.902-14.612-11.675-18.945c-4.406,1.102-8.371,1.652-11.896,1.652c-7.416,0-11.125-1.946-11.125-5.838
			c0-3.524,3.121-5.288,9.362-5.288c3.892,0,8.738,0.883,14.539,2.645c5.213-8.812,7.82-18.395,7.82-28.749
			c0-9.252-2.056-16.338-6.168-21.257c-4.039-4.92-9.326-7.38-15.861-7.38c-5.214,0-9.693,1.469-13.438,4.405
			c-3.671,2.938-6.205,6.463-7.6,10.575c-1.396,4.038-2.093,10.684-2.093,19.936V767.483"/>
	</g>
</g>
</svg>
