<?xml version="1.0" encoding="utf-8"?>
<!-- Generator: Adobe Illustrator 16.0.0, SVG Export Plug-In . SVG Version: 6.00 Build 0)  -->
<!DOCTYPE svg PUBLIC "-//W3C//DTD SVG 1.1//EN" "http://www.w3.org/Graphics/SVG/1.1/DTD/svg11.dtd">
<svg version="1.1" id="Layer_1" xmlns="http://www.w3.org/2000/svg" xmlns:xlink="http://www.w3.org/1999/xlink" x="0px" y="0px"
	 width="330px" height="400px" viewBox="0 0 330 400" enable-background="new 0 0 330 400" xml:space="preserve">
<polygon points="331.154,300 165,400 -1.154,300 -1.153,100 165,0 331.154,100 "/>
<title>Layer 1</title>
<g>
	<g>
		<rect x="98.633" y="152.402" fill="#0098FF" width="131.503" height="47.416"/>
		<circle fill="#0098FF" cx="98.633" cy="167.405" r="32.413"/>
		<circle fill="#0098FF" cx="230.136" cy="167.405" r="32.413"/>
		<circle fill="#0098FF" cx="124.378" cy="127.399" r="32.413"/>
		<circle fill="#0098FF" cx="203.65" cy="127.399" r="32.413"/>
		<circle fill="#0098FF" cx="164.385" cy="107.951" r="32.413"/>
		<rect x="98.633" y="137.585" fill="#0098FF" width="131.503" height="32.599"/>
	</g>
	<g>
		<rect x="98.633" y="182.037" fill="#29B3FF" width="131.503" height="47.415"/>
		<circle fill="#29B3FF" cx="98.633" cy="197.04" r="32.413"/>
		<circle fill="#29B3FF" cx="230.136" cy="197.04" r="32.413"/>
		<circle fill="#29B3FF" cx="124.378" cy="157.033" r="32.413"/>
		<circle fill="#29B3FF" cx="203.65" cy="157.033" r="32.413"/>
		<circle fill="#29B3FF" cx="164.385" cy="137.585" r="32.413"/>
		<rect x="98.633" y="167.22" fill="#29B3FF" width="131.503" height="32.599"/>
	</g>
	<g>
		<rect x="98.633" y="219.08" fill="#5FCEFF" width="131.503" height="47.415"/>
		<circle fill="#5FCEFF" cx="98.633" cy="234.083" r="32.413"/>
		<circle fill="#5FCEFF" cx="230.136" cy="234.083" r="32.413"/>
		<circle fill="#5FCEFF" cx="124.378" cy="194.076" r="32.413"/>
		<circle fill="#5FCEFF" cx="203.65" cy="194.076" r="32.413"/>
		<circle fill="#5FCEFF" cx="164.385" cy="174.629" r="32.413"/>
		<rect x="98.633" y="204.264" fill="#5FCEFF" width="131.503" height="32.598"/>
	</g>
	<g>
		<rect x="98.633" y="256.123" fill="#FFFFFF" width="131.503" height="47.415"/>
		<circle fill="#FFFFFF" cx="98.633" cy="271.126" r="32.413"/>
		<circle fill="#FFFFFF" cx="230.136" cy="271.126" r="32.413"/>
		<circle fill="#FFFFFF" cx="124.378" cy="231.119" r="32.413"/>
		<circle fill="#FFFFFF" cx="203.65" cy="231.119" r="32.413"/>
		<circle fill="#FFFFFF" cx="164.385" cy="211.672" r="32.413"/>
		<rect x="98.633" y="241.306" fill="#FFFFFF" width="131.503" height="32.599"/>
	</g>
</g>
</svg>
