<?xml version="1.0" encoding="utf-8"?>
<!-- Generator: Adobe Illustrator 16.0.0, SVG Export Plug-In . SVG Version: 6.00 Build 0)  -->
<!DOCTYPE svg PUBLIC "-//W3C//DTD SVG 1.1//EN" "http://www.w3.org/Graphics/SVG/1.1/DTD/svg11.dtd">
<svg version="1.1" id="Layer_1" xmlns="http://www.w3.org/2000/svg" xmlns:xlink="http://www.w3.org/1999/xlink" x="0px" y="0px"
	 width="792.086px" height="161.776px" viewBox="0 0 792.086 161.776" enable-background="new 0 0 792.086 161.776"
	 xml:space="preserve">
<path fill-rule="evenodd" clip-rule="evenodd" fill="#0A090A" d="M792.48,55.44c-1.358,0.986-2.216,2.432-3.313,3.655
	c-1.86,2.073-3.608,4.246-5.435,6.35c-0.463,0.533-0.534,0.997-0.337,1.689c2.173,7.619,2.472,15.324,0.729,23.054
	c-1.688,7.49-6.43,12.252-13.62,14.69c-4.361,1.479-8.861,2.273-13.442,2.63c-0.872,0.067-1.283,0.326-1.428,1.293
	c-0.409,2.735-0.461,2.611,2.334,2.823c6.393,0.484,12.736,1.252,18.813,3.521c5.37,2.006,8.764,5.705,9.896,11.32
	c1.233,6.117,0.914,12.168-1.585,17.945c-2.773,6.413-8.001,10.022-14.457,12.084c-4.69,1.499-9.538,2.191-14.423,2.612
	c-4.45,0.384-8.913,0.495-13.382,0.507c-9.973,0.026-19.772-1.35-29.485-3.478c-1.711-0.374-3.405-0.82-5.114-1.204
	c-0.55-0.123-0.751-0.287-0.635-0.938c1.36-7.641,2.683-15.288,3.995-22.937c0.114-0.661,0.336-0.7,0.937-0.501
	c7.757,2.572,15.766,3.814,23.892,4.3c4.852,0.289,9.717,0.282,14.576,0.03c0.793-0.041,1.111-0.339,1.061-1.175
	c-0.072-1.195-0.084-2.403,0.003-3.598c0.065-0.898-0.291-1.02-1.078-1.012c-5.187,0.053-10.368-0.034-15.522-0.7
	c-2.392-0.309-4.682-0.996-6.853-2.006c-2.63-1.224-4.188-3.461-2.8-6.966c1.478-3.729,2.661-7.575,4.018-11.354
	c0.28-0.78,0.128-0.973-0.686-1.133c-3.805-0.749-7.459-1.942-10.854-3.876c-5.467-3.112-9.163-7.614-10.681-13.747
	c-1.697-6.86-2.112-13.788-0.322-20.696c1.913-7.382,6.545-12.507,13.464-15.608c5.939-2.661,12.256-3.595,18.676-4.061
	c4.588-0.333,9.178-0.337,13.766-0.101c2.261,0.117,4.515,0.387,6.766,0.644c0.698,0.08,1.24,0.015,1.83-0.445
	c4.206-3.279,8.457-6.501,12.662-9.781c0.554-0.431,0.837-0.485,1.368,0.032c4.291,4.176,8.608,8.322,12.933,12.463
	c1.221,1.169,2.488,2.289,3.734,3.432C792.48,55.28,792.48,55.36,792.48,55.44z"/>
<path fill-rule="evenodd" clip-rule="evenodd" fill="#EA272A" d="M270.601,132.719c-6.24,0-12.48-0.036-18.719,0.034
	c-1.092,0.013-1.38-0.39-1.547-1.327c-1.91-10.706-3.837-21.41-5.809-32.106c-0.104-0.564,0.295-1.601-0.864-1.631
	c-1.219-0.031-0.783,1.062-0.895,1.608c-2.207,10.778-4.363,21.568-6.49,32.363c-0.163,0.824-0.427,1.083-1.292,1.081
	c-12.159-0.033-24.318-0.026-36.477-0.011c-0.671,0-1.073-0.074-1.231-0.872c-5.27-26.509-10.553-53.016-15.89-79.511
	c-0.245-1.216,0.11-1.248,1.089-1.245c9.879,0.029,19.758,0.028,29.637,0c0.893-0.002,1.166,0.2,1.295,1.156
	c1.825,13.531,3.716,27.052,5.592,40.576c0.268,1.933,0.572,3.86,0.798,5.798c0.066,0.563,0.154,0.896,0.812,0.863
	c0.576-0.029,1.02,0.027,1.188-0.789c1.396-6.792,2.853-13.57,4.292-20.354c1.868-8.808,3.744-17.614,5.592-26.426
	c0.13-0.622,0.354-0.824,1.005-0.822c7.639,0.024,15.278,0.021,22.917,0.005c0.634-0.001,0.856,0.165,0.982,0.84
	c2.343,12.531,4.729,25.053,7.1,37.578c0.563,2.977,1.117,5.956,1.647,8.938c0.116,0.657,0.261,1.075,1.092,1.047
	c0.772-0.026,0.872-0.385,0.974-1.023c2.212-13.801,4.449-27.597,6.683-41.394c0.273-1.691,0.58-3.377,0.826-5.072
	c0.092-0.638,0.264-0.927,1.015-0.924c10.079,0.031,20.158,0.034,30.237-0.002c0.938-0.003,0.931,0.364,0.792,1.052
	c-1.72,8.519-3.433,17.038-5.14,25.559c-3.561,17.786-7.135,35.57-10.638,53.367c-0.253,1.287-0.621,1.7-1.976,1.682
	C283,132.671,276.8,132.719,270.601,132.719z"/>
<path fill-rule="evenodd" clip-rule="evenodd" fill="#E14196" d="M556.289,132.719c-0.488,0-0.878,0-1.267,0
	c-10.918,0-21.837-0.014-32.755,0.024c-0.953,0.003-1.367-0.271-1.714-1.173c-3.891-10.127-7.836-20.232-11.763-30.346
	c-0.164-0.424-0.307-0.873-0.879-0.793c-0.678,0.096-0.455,0.662-0.455,1.053c-0.012,9.958-0.025,19.916,0.016,29.875
	c0.004,1.084-0.263,1.392-1.375,1.387c-10.038-0.046-20.077-0.049-30.115,0.003c-1.106,0.005-1.284-0.328-1.283-1.336
	c0.025-34.475,0.026-68.949-0.003-103.423c-0.001-1.083,0.276-1.321,1.359-1.395c8.905-0.604,17.806-1.298,26.707-1.97
	c1.311-0.099,2.623-0.19,3.927-0.352c0.626-0.078,0.791,0.159,0.761,0.709c-0.017,0.319-0.002,0.64-0.002,0.959
	c0,16.917,0,33.834,0.002,50.751c0,0.357-0.01,0.725,0.063,1.07c0.064,0.304,0.378,0.214,0.605,0.231
	c0.51,0.039,0.538-0.414,0.669-0.71c1.371-3.099,2.727-6.206,4.082-9.313c2.326-5.336,4.661-10.668,6.96-16.016
	c0.278-0.648,0.627-0.855,1.326-0.854c11.077,0.022,22.155,0.028,33.233-0.004c1.099-0.003,1.081,0.298,0.669,1.137
	c-4.05,8.238-8.076,16.487-12.099,24.738c-1.994,4.089-3.958,8.193-5.961,12.278c-0.249,0.51-0.281,0.904-0.032,1.44
	c4.348,9.364,8.668,18.741,12.998,28.114c2.008,4.346,4.025,8.688,6.032,13.035C556.11,132.089,556.171,132.359,556.289,132.719z"/>
<path fill-rule="evenodd" clip-rule="evenodd" fill="#5A3795" d="M400.68,93.405c-0.021,5.809-0.768,13.031-3.347,19.964
	c-3.939,10.59-11.588,16.992-22.406,19.801c-5.354,1.391-10.804,1.905-16.328,1.972c-6.642,0.08-13.206-0.405-19.613-2.242
	c-5.809-1.665-11.037-4.389-15.133-8.936c-4.181-4.64-6.61-10.183-8.01-16.211c-0.987-4.246-1.418-8.554-1.58-12.911
	c-0.26-7.016,0.241-13.941,2.097-20.727c1.516-5.54,4.018-10.59,8.019-14.776c3.486-3.647,7.767-6.078,12.516-7.702
	c5.092-1.741,10.354-2.533,15.716-2.796c6.314-0.31,12.597-0.145,18.818,1.079c7.169,1.41,13.78,3.982,18.98,9.37
	c4.658,4.825,7.22,10.735,8.699,17.173C400.272,81.533,400.682,86.686,400.68,93.405z"/>
<path fill-rule="evenodd" clip-rule="evenodd" fill="#4475B8" d="M174.103,92.555c-0.031,6.692-0.769,13.879-3.333,20.782
	c-3.939,10.603-11.578,17.021-22.409,19.83c-5.161,1.338-10.417,1.878-15.741,1.965c-6.442,0.105-12.821-0.307-19.081-1.936
	c-6.014-1.565-11.46-4.188-15.796-8.757c-4.198-4.425-6.699-9.771-8.193-15.62c-1.139-4.458-1.651-8.997-1.826-13.6
	c-0.289-7.582,0.244-15.048,2.46-22.347c3.392-11.17,10.6-18.493,21.847-21.779c4.58-1.339,9.26-1.993,14.021-2.241
	c6.681-0.349,13.314-0.105,19.873,1.293c7.386,1.575,14.058,4.511,19.076,10.405c4.528,5.32,6.821,11.646,8.045,18.425
	C173.819,83.266,174.095,87.596,174.103,92.555z"/>
<path fill-rule="evenodd" clip-rule="evenodd" fill="#9B9B9C" d="M614.881,91.837c0-13.12,0.014-26.24-0.025-39.36
	c-0.003-1.097,0.28-1.397,1.382-1.383c4.68,0.063,9.359,0.04,14.039,0.013c0.728-0.004,1.269,0.164,1.796,0.706
	c2.203,2.265,4.491,4.448,6.667,6.739c0.591,0.623,0.939,0.553,1.547,0.134c4.499-3.1,9.334-5.554,14.529-7.245
	c4.376-1.425,8.86-2.293,13.476-2.583c5.511-0.346,10.939-0.12,16.159,1.816c5.385,1.998,9.483,5.391,11.256,11.088
	c0.487,1.566,0.768,3.181,0.769,4.825c0.007,21.56-0.009,43.12,0.037,64.68c0.003,1.266-0.371,1.483-1.533,1.478
	c-9.88-0.046-19.76-0.046-29.64,0.001c-1.167,0.005-1.534-0.221-1.53-1.481c0.048-18.04,0.02-36.08,0.062-54.119
	c0.003-1.215-0.288-1.557-1.512-1.518c-3.03,0.098-6.079-0.114-9.075,0.482c-1.795,0.357-3.622,0.728-4.769,2.417
	c-0.754,1.109-0.936,2.354-0.936,3.649c-0.001,16.32-0.001,32.64-0.001,48.96c0,1.583-0.001,1.583-1.627,1.583
	c-9.919,0.001-19.84-0.016-29.759,0.024c-1.031,0.004-1.342-0.219-1.338-1.306C614.896,118.237,614.881,105.038,614.881,91.837z"/>
<path fill-rule="evenodd" clip-rule="evenodd" fill="#30AB4A" d="M39.599,84.433c0,6.838,0.022,13.677-0.025,20.515
	c-0.006,0.922,0.299,1.212,1.144,1.353c11.961,1.985,23.731,1.272,35.267-2.53c1.142-0.376,1.224,0.107,1.295,0.939
	c0.514,5.986,1.034,11.971,1.555,17.957c0.21,2.418,0.385,4.841,0.665,7.252c0.092,0.794-0.117,1.123-0.853,1.403
	c-4.838,1.844-9.856,2.895-14.991,3.362c-9.399,0.856-18.774,0.716-28.081-1.006c-6.152-1.138-11.917-3.247-16.824-7.259
	c-5.119-4.186-8.368-9.655-10.572-15.803c-1.966-5.482-2.724-11.2-3.246-16.961c-0.364-4.016-0.488-8.048-0.455-12.072
	c0.064-7.936,0.436-15.858,2.242-23.634c1.585-6.823,4.406-13.06,9.212-18.227c3.456-3.715,7.79-6.156,12.551-7.862
	c6.366-2.282,12.967-3.141,19.689-3.431c9.225-0.398,18.29,0.65,27.251,2.755c1.081,0.254,2.119,0.685,3.194,0.97
	c0.854,0.227,0.966,0.706,0.804,1.5c-1.11,5.468-2.183,10.944-3.266,16.418c-0.426,2.151-0.875,4.298-1.255,6.457
	c-0.136,0.774-0.238,1.12-1.23,0.909c-6.563-1.395-13.196-2.266-19.921-2.11c-3.222,0.075-6.445,0.224-9.574,1.205
	c-2.846,0.892-4.189,2.87-4.454,5.714c-0.088,0.952-0.114,1.913-0.116,2.87C39.595,71.557,39.599,77.995,39.599,84.433z"/>
<path fill-rule="evenodd" clip-rule="evenodd" fill="#FBD904" d="M413.662,91.859c0-13.119,0.011-26.239-0.021-39.358
	c-0.003-1.033,0.179-1.43,1.342-1.412c4.679,0.076,9.359,0.045,14.039,0.017c0.693-0.004,1.187,0.184,1.674,0.687
	c2.506,2.583,5.067,5.111,7.562,7.704c0.557,0.579,0.926,0.534,1.469,0.057c6.458-5.686,14.066-8.954,22.414-10.693
	c0.844-0.176,1.024,0.034,1.073,0.833c0.453,7.477,0.948,14.951,1.418,22.427c0.137,2.189,0.185,4.385,0.372,6.568
	c0.072,0.842-0.2,0.925-0.948,1.018c-5.403,0.673-10.691,1.768-15.497,4.521c-1.615,0.925-2.37,2.078-2.355,4.111
	c0.104,14.359,0.044,28.719,0.078,43.078c0.002,1.028-0.218,1.336-1.302,1.33c-9.999-0.047-19.999-0.05-29.998,0.003
	c-1.165,0.007-1.342-0.382-1.34-1.412C413.673,118.178,413.662,105.018,413.662,91.859z"/>
<path fill-rule="evenodd" clip-rule="evenodd" fill="#515151" d="M598.712,91.915c0,13.157-0.016,26.315,0.027,39.474
	c0.004,1.121-0.312,1.36-1.383,1.355c-10.038-0.041-20.077-0.039-30.115-0.002c-0.981,0.004-1.259-0.221-1.257-1.236
	c0.03-25.036,0.03-50.072-0.001-75.108c-0.001-0.99,0.341-1.255,1.236-1.366c10.166-1.253,20.329-2.526,30.487-3.835
	c1.063-0.137,1.015,0.386,1.014,1.124C598.708,65.518,598.712,78.716,598.712,91.915z"/>
<path fill-rule="evenodd" clip-rule="evenodd" fill="#515151" d="M600.717,35.852c0.04,1.684-0.159,3.346-0.531,4.983
	c-0.842,3.704-3.168,5.969-6.821,6.893c-2.402,0.608-4.852,0.849-7.324,1.012c-4.075,0.27-8.124,0.1-12.148-0.525
	c-3.625-0.563-6.923-1.711-8.514-5.484c-0.516-1.224-0.83-2.494-0.973-3.806c-0.317-2.916-0.276-5.808,0.52-8.664
	c0.967-3.47,3.236-5.572,6.669-6.495c3.883-1.044,7.848-1.184,11.84-1.134c3.235,0.04,6.433,0.275,9.59,1.051
	c4.307,1.059,6.605,3.888,7.356,8.123C600.616,33.139,600.76,34.49,600.717,35.852z"/>
<path fill-rule="evenodd" clip-rule="evenodd" fill="#FFFFFF" d="M753.12,76.989c-0.095,1.7,0.167,3.777-0.133,5.842
	c-0.326,2.24-1.582,3.684-3.784,4.226c-3.874,0.953-7.829,0.766-11.77,0.79c-0.445,0.003-0.521-0.208-0.514-0.584
	c0.071-3.866-0.203-7.741,0.158-11.598c0.201-2.146,1.331-3.683,3.521-4.327c2.629-0.772,5.331-0.802,8.028-0.888
	c1.236-0.039,2.476,0.025,3.712-0.02c0.625-0.022,0.811,0.17,0.796,0.8C753.093,73.025,753.12,74.823,753.12,76.989z"/>
<path fill-rule="evenodd" clip-rule="evenodd" fill="#FFFFFF" d="M365.52,89.397c0,5.076,0.003,10.153-0.001,15.229
	c-0.003,3.672-1.346,5.349-4.894,6.107c-3.511,0.752-7.073,0.428-10.617,0.5c-0.53,0.011-0.709-0.222-0.683-0.718
	c0.021-0.398,0.003-0.8,0.003-1.199c0-9.834,0-19.667,0-29.501c0-0.319-0.017-0.641,0.006-0.959
	c0.258-3.561,1.412-4.928,4.926-5.706c3.504-0.776,7.071-0.487,10.617-0.547c0.923-0.016,0.631,0.642,0.632,1.083
	C365.525,78.923,365.52,84.16,365.52,89.397z"/>
<path fill-rule="evenodd" clip-rule="evenodd" fill="#FFFFFF" d="M138.96,89.386c0,4.998,0.001,9.997-0.002,14.995
	c0,0.438-0.006,0.881-0.063,1.314c-0.397,3.029-1.516,4.257-4.485,4.967c-3.064,0.732-6.184,0.602-9.295,0.604
	c-2.382,0.003-2.382,0.001-2.382-2.399c0-9.678,0-19.355,0.002-29.032c0-0.399-0.012-0.803,0.037-1.197
	c0.448-3.646,1.52-4.844,5.148-5.559c3.433-0.677,6.92-0.49,10.392-0.509c0.901-0.005,0.639,0.645,0.64,1.101
	C138.965,78.909,138.96,84.147,138.96,89.386z"/>
</svg>
