<?xml version="1.0" encoding="utf-8"?>
<!-- Generator: Adobe Illustrator 22.0.1, SVG Export Plug-In . SVG Version: 6.00 Build 0)  -->
<svg version="1.1" id="Camada_1" xmlns="http://www.w3.org/2000/svg" xmlns:xlink="http://www.w3.org/1999/xlink" x="0px" y="0px"
	 viewBox="0 0 640 360" style="enable-background:new 0 0 640 360;" xml:space="preserve">
<style type="text/css">
	.st0{fill:url(#SVGID_1_);}
	.st1{fill:#211915;}
</style>
<g>
	
		<linearGradient id="SVGID_1_" gradientUnits="userSpaceOnUse" x1="134.2511" y1="106.4347" x2="134.2511" y2="257.5403" gradientTransform="matrix(1 0 0 -1 0 362)">
		<stop  offset="0" style="stop-color:#92BD94"/>
		<stop  offset="0.2" style="stop-color:#6B99CA"/>
		<stop  offset="0.4" style="stop-color:#9B7AA3"/>
		<stop  offset="0.6" style="stop-color:#CF6784"/>
		<stop  offset="0.8" style="stop-color:#DD9C3E"/>
		<stop  offset="1" style="stop-color:#F2D201"/>
	</linearGradient>
	<path class="st0" d="M194.8,139.5l-56.7-34c-2.4-1.5-5.4-1.5-7.8,0l-56.7,34c-2.3,1.4-3.7,3.9-3.7,6.5v68c0,2.7,1.4,5.1,3.7,6.5
		l56.7,33.9c1.2,0.7,2.6,1.1,3.9,1.1s2.7-0.4,3.9-1.1l56.6-34c2.3-1.4,3.7-3.9,3.7-6.5v-67.9C198.6,143.3,197.1,140.9,194.8,139.5z
		 M181.4,204.9c0,2-1,3.8-2.7,4.8l-41.6,24.9c-0.9,0.6-1.9,0.8-2.9,0.8c-1,0-2-0.3-2.9-0.8l-41.5-24.9c-1.7-1-2.7-2.8-2.7-4.8v-49.8
		c0-2,1-3.8,2.7-4.8l41.6-24.9c1.8-1.1,4-1.1,5.7,0l41.6,24.9c1.7,1,2.7,2.8,2.7,4.8L181.4,204.9L181.4,204.9z"/>
	<g>
		<path class="st1" d="M280.2,178h-44v42.6h50.4v3.4h-53.8v-91.5h53.8v3.4h-50.5v38.7h44V178z"/>
		<path class="st1" d="M306,224v-64.6h-11.8V156H306v-11.2c0-6.4,1.6-11.4,4.7-14.9c3.1-3.5,7.5-5.3,13.1-5.3c1.4,0,2.8,0.1,4.1,0.3
			s2.7,0.5,3.9,0.8l-0.5,3.3c-1.4-0.4-2.5-0.6-3.6-0.7c-1-0.2-2.3-0.2-3.9-0.2c-4.5,0-8.1,1.5-10.6,4.5c-2.6,3-3.8,7.1-3.8,12.3V156
			h18v3.5h-18v64.6L306,224L306,224z"/>
		<path class="st1" d="M346.6,224v-64.6h-11.8V156h11.8v-11.2c0-6.4,1.6-11.4,4.7-14.9c3.1-3.5,7.5-5.3,13.1-5.3
			c1.4,0,2.8,0.1,4.1,0.3c1.4,0.2,2.7,0.5,3.9,0.8l-0.5,3.3c-1.4-0.4-2.5-0.6-3.6-0.7c-1-0.2-2.3-0.2-3.9-0.2
			c-4.5,0-8.1,1.5-10.6,4.5c-2.6,3-3.8,7.1-3.8,12.3V156h18v3.5h-18v64.6L346.6,224L346.6,224z"/>
		<path class="st1" d="M376.7,188.7c0-10,2.8-18.1,8.3-24.5s12.7-9.5,21.5-9.5c8.9,0,16,3.2,21.6,9.5c5.5,6.3,8.3,14.5,8.3,24.5v2.6
			c0,10-2.8,18.2-8.3,24.5c-5.5,6.3-12.6,9.5-21.4,9.5c-8.9,0-16-3.2-21.6-9.5c-5.5-6.3-8.3-14.5-8.3-24.5V188.7z M380.1,191.3
			c0,8.6,2.4,15.8,7.2,21.7c4.8,5.9,11.2,8.9,19.3,8.9c8,0,14.4-3,19.1-8.9c4.8-5.9,7.2-13.2,7.2-21.7v-2.6c0-8.4-2.4-15.5-7.3-21.6
			c-4.8-6-11.2-9-19.2-9c-8,0-14.4,3-19.2,9c-4.8,6-7.2,13.2-7.2,21.6L380.1,191.3L380.1,191.3z"/>
		<path class="st1" d="M482.6,158.4l-4.4-0.4c-6.1,0-11,2-14.8,5.9s-6.2,9.1-7.4,15.5v44.6h-3.4V156h2.8l0.6,11.8v2.3
			c1.9-4.9,4.7-8.7,8.4-11.3c3.7-2.7,8.3-4.1,13.8-4.1c1,0,1.9,0.1,2.7,0.2c0.8,0.2,1.5,0.3,2.1,0.5L482.6,158.4z"/>
		<path class="st1" d="M499.8,134.6h-3.4V126h3.4V134.6z M499.8,224h-3.4V156h3.4V224z"/>
		<path class="st1" d="M564.9,211.4c-2.4,4.1-5.8,7.5-10.5,10c-4.6,2.6-10.3,3.9-16.9,3.9c-6.3,0-11.3-1.7-14.9-5.2
			c-3.6-3.5-5.4-8.1-5.4-14c0-5.7,2.7-10.5,8.1-14.4s12.1-5.8,20.2-5.8h19.4v-9.9c0-5.6-1.8-10.1-5.4-13.2
			c-3.6-3.2-8.7-4.7-15.3-4.7c-6.1,0-11.1,1.5-14.9,4.5c-3.7,3-5.6,6.8-5.6,11.5l-2.8-0.1l-0.1-0.3c-0.3-5.3,1.8-9.8,6.1-13.4
			c4.4-3.7,10.1-5.5,17.3-5.5c7.3,0,13.1,1.9,17.5,5.5c4.4,3.7,6.6,9,6.6,16v34.1c0,2.4,0.2,4.7,0.4,7c0.3,2.3,0.7,4.5,1.4,6.7h-3.8
			c-0.6-3-0.9-5.2-1.1-6.7c-0.2-1.5-0.3-3.1-0.3-4.8L564.9,211.4L564.9,211.4z M537.4,222c6.7,0,12.4-1.5,17.1-4.5
			c4.7-3,8.1-7.3,10.3-12.7v-15.3h-19.2c-7.1,0-13,1.6-17.8,4.9c-4.8,3.3-7.3,7.3-7.3,12c0,4.6,1.6,8.3,4.6,11.2
			C528.2,220.6,532.3,222,537.4,222z"/>
	</g>
</g>
</svg>
