<?xml version="1.0" encoding="utf-8"?>
<!-- Generator: Adobe Illustrator 16.0.0, SVG Export Plug-In . SVG Version: 6.00 Build 0)  -->
<!DOCTYPE svg PUBLIC "-//W3C//DTD SVG 1.1//EN" "http://www.w3.org/Graphics/SVG/1.1/DTD/svg11.dtd">
<svg version="1.1" id="Layer_1" xmlns="http://www.w3.org/2000/svg" xmlns:xlink="http://www.w3.org/1999/xlink" x="0px" y="0px"
	 width="1899.506px" height="349.313px" viewBox="0 0 1899.506 349.313" enable-background="new 0 0 1899.506 349.313"
	 xml:space="preserve">
<g>
	<g>
		<path fill="#FFFFFF" d="M524.883,126.706c6.137,0,11.313,4.988,11.313,11.126c0,6.327-5.176,11.315-11.313,11.315h-55.82v33.566
			h44.694c6.138,0,11.126,4.986,11.126,11.125c0,6.136-4.988,11.124-11.126,11.124h-44.694v44.881
			c0,6.141-5.176,11.125-11.317,11.125c-6.138,0-11.122-4.984-11.122-11.125V137.832c0-6.138,4.984-11.126,11.122-11.126H524.883z"
			/>
		<path fill="#FFFFFF" d="M570.911,133.805c1.728-4.222,5.946-7.099,10.359-7.099c4.602,0,8.82,2.877,10.547,7.099l44.69,111.82
			c0.579,1.341,0.771,2.684,0.771,4.219c0,5.564-4.605,11.125-11.126,11.125c-4.413,0-8.632-2.684-10.359-7.096l-8.44-20.908
			h-51.977l-8.44,20.908c-1.728,4.412-5.946,7.096-10.355,7.096c-6.716,0-11.126-5.369-11.126-11.125
			c0-1.342,0.192-2.878,0.767-4.219L570.911,133.805z M560.168,115.773c-0.766-1.534-1.149-3.262-1.149-4.986
			c0-4.028,2.111-7.861,6.138-9.974l22.439-11.317c1.536-0.765,3.072-1.151,4.796-1.151c4.223,0,8.249,2.303,10.168,6.138
			c0.767,1.536,1.15,3.264,1.15,4.988c0,4.22-2.303,8.246-6.139,10.168l-22.438,11.121c-1.536,0.769-3.26,1.151-4.988,1.151
			C566.118,121.911,562.087,119.609,560.168,115.773z M564.39,210.718h33.949l-17.069-42.773L564.39,210.718z"/>
		<path fill="#FFFFFF" d="M742.186,218.964c0,25.896-21.293,42.005-39.318,42.005h-39.132c-6.138,0-11.122-4.984-11.122-11.125
			V137.832c0-6.138,4.984-11.126,11.122-11.126h30.883c0.958,0,9.206,0.385,17.451,4.411c12.278,6.14,18.8,17.264,18.8,32.033
			c0,8.059-2.111,15.345-5.946,21.098C736.049,191.537,742.186,203.812,742.186,218.964z M675.053,177.15h16.688
			c2.877,0,16.876-0.574,16.876-14c0-12.854-8.822-14.003-12.463-14.003c-0.961,0-1.536,0-1.536,0h-19.565V177.15z M719.744,218.964
			c0-7.097-4.41-19.563-18.222-19.563h-26.469v39.131h26.469c0.191,0,5.371-0.195,9.973-2.689
			C718.977,231.624,719.744,224.144,719.744,218.964z"/>
		<path fill="#FFFFFF" d="M842.491,243.899c1.156,1.919,1.727,3.837,1.727,5.944c0,3.646-1.915,7.292-5.367,9.399
			c-1.728,1.151-3.835,1.726-5.754,1.726c-3.836,0-7.482-1.916-9.594-5.18l-24.741-39.509h-18.796v33.563
			c0,6.141-5.184,11.125-11.316,11.125c-6.139,0-11.126-4.984-11.126-11.125V137.832c0-6.138,4.987-11.126,11.126-11.126h30.496
			c1.148,0,11.316,0.191,21.863,5.371c14.965,7.48,23.209,21.292,23.209,39.321c0,1.149-0.191,11.507-5.367,21.866
			c-4.029,7.863-9.784,13.808-16.88,17.643L842.491,243.899z M779.965,193.839h19.18c9.589,0,15.727-3.262,19.369-10.165
			c3.073-5.755,3.265-11.893,3.265-12.275c0-9.592-3.452-15.729-10.743-19.372c-5.754-2.879-11.891-2.879-11.891-2.879h-19.18
			V193.839z"/>
		<path fill="#FFFFFF" d="M859.558,249.844V137.832c0-6.138,4.984-11.126,11.122-11.126c6.141,0,11.125,4.988,11.125,11.126v112.012
			c0,6.141-4.984,11.125-11.125,11.125C864.542,260.969,859.558,255.984,859.558,249.844z"/>
		<path fill="#FFFFFF" d="M1000.917,237.76c2.877,5.371,0.766,12.084-4.605,15.156c-9.781,5.178-20.715,8.053-32.032,8.053
			c-37.017,0-67.13-30.113-67.13-67.13c0-37.02,30.113-67.133,67.13-67.133c11.317,0,22.251,2.877,32.032,8.057
			c5.371,3.069,7.482,9.781,4.605,15.152c-3.069,5.563-9.785,7.48-15.348,4.604c-6.329-3.646-13.808-5.371-21.29-5.371
			c-24.55,0-44.69,19.946-44.69,44.691c0,24.74,20.141,44.692,44.69,44.692c7.482,0,14.961-1.729,21.29-5.373
			C991.131,230.281,997.847,232.2,1000.917,237.76z"/>
		<path fill="#FFFFFF" d="M1128.651,245.625c0.571,1.341,0.767,2.877,0.767,4.219c0,5.756-4.413,11.125-11.126,11.125
			c-4.413,0-8.631-2.684-10.355-7.096l-8.443-20.908h-51.978l-8.437,20.908c-1.728,4.412-5.949,7.096-10.359,7.096
			c-6.521,0-11.125-5.561-11.125-11.125c0-1.535,0.191-2.878,0.77-4.219l44.687-111.82c1.728-4.222,5.946-7.099,10.551-7.099
			c4.41,0,8.632,2.877,10.359,7.099L1128.651,245.625z M1090.478,210.718l-16.877-42.773l-17.071,42.773H1090.478z"/>
	</g>
	<g>
		<path fill="#FFFFFF" d="M1172.478,260.969c-2.05,0-3.832-0.765-5.368-2.301c-1.532-1.532-2.299-3.325-2.299-5.371V134.385
			c0-2.045,0.767-3.836,2.299-5.369c1.536-1.532,3.318-2.303,5.368-2.303H1207c0.13,0,1.63,0.096,4.507,0.288
			c2.878,0.191,6.431,0.897,10.646,2.11c4.222,1.217,8.758,3.163,13.619,5.851c4.858,2.684,9.333,6.522,13.425,11.507
			c4.092,4.986,7.511,11.315,10.262,18.985c2.747,7.674,4.124,17.139,4.124,28.387c0,11.252-1.377,20.715-4.124,28.388
			c-2.751,7.672-6.17,13.999-10.262,18.986c-4.092,4.986-8.566,8.822-13.425,11.506c-4.861,2.689-9.397,4.641-13.619,5.85
			c-4.215,1.219-7.768,1.92-10.646,2.113c-2.877,0.191-4.377,0.285-4.507,0.285H1172.478z M1180.726,245.24H1207
			c0.256,0,1.022-0.063,2.302-0.189c1.276-0.125,2.878-0.416,4.797-0.86c1.916-0.448,4.092-1.151,6.521-2.115
			c2.43-0.958,4.92-2.203,7.479-3.739c6.265-4.216,11.126-10.097,14.578-17.643c3.451-7.543,5.18-16.493,5.18-26.853
			c0-10.74-1.797-19.882-5.372-27.425c-3.582-7.544-8.7-13.425-15.344-17.646c-2.302-1.534-4.67-2.715-7.099-3.548
			c-2.429-0.829-4.598-1.438-6.517-1.821c-1.92-0.384-4.096-0.701-6.524-0.958h-26.274V245.24z"/>
		<path fill="#FFFFFF" d="M1359.864,247.544c1.536,1.535,2.302,3.452,2.302,5.753c0,2.046-0.766,3.839-2.302,5.371
			c-1.536,1.536-3.391,2.301-5.563,2.301h-65.214c-2.176,0-4.026-0.765-5.559-2.301c-1.536-1.532-2.307-3.325-2.307-5.371V134.385
			c0-2.045,0.771-3.836,2.307-5.369c1.532-1.532,3.383-2.303,5.559-2.303h65.214c2.173,0,4.027,0.771,5.563,2.303
			c1.536,1.533,2.302,3.324,2.302,5.369c0,2.301-0.766,4.221-2.302,5.755s-3.391,2.303-5.563,2.303h-57.352v43.727h45.46
			c2.173,0,3.99,0.739,5.465,2.207c1.472,1.473,2.205,3.291,2.205,5.465c0,2.176-0.733,3.998-2.205,5.469
			c-1.475,1.47-3.292,2.203-5.465,2.203h-45.46v43.728h57.352C1356.473,245.24,1358.328,246.008,1359.864,247.544z"/>
	</g>
	<g>
		<path fill="#FFFFFF" d="M1403.137,249.844V137.832c0-6.138,4.988-11.126,11.125-11.126c6.138,0,11.126,4.988,11.126,11.126
			v112.012c0,6.141-4.988,11.125-11.126,11.125C1408.125,260.969,1403.137,255.984,1403.137,249.844z"/>
		<path fill="#FFFFFF" d="M1451.854,260.969c-6.138,0-11.122-4.984-11.122-11.125V137.832c0-6.138,4.984-11.126,11.122-11.126h32.61
			c0.763,0,56.962-0.191,56.962,67.133c0,67.323-56.199,67.13-56.962,67.13H1451.854z M1463.171,238.531h21.293
			c0.571,0,9.206-0.195,17.834-5.756c11.126-7.098,16.688-20.334,16.688-38.937c0-18.988-5.754-32.222-17.454-39.32
			c-8.44-5.18-16.877-5.371-17.068-5.371h-21.293V238.531z"/>
		<path fill="#FFFFFF" d="M1640.776,249.844c0,6.141-4.988,11.125-11.317,11.125h-61.375c-6.329,0-11.32-4.984-11.32-11.125V137.832
			c0-6.138,4.991-11.126,11.32-11.126h61.375c6.329,0,11.317,4.988,11.317,11.126c0,6.327-4.988,11.315-11.317,11.315h-50.253
			v33.566h39.128c6.138,0,11.125,4.986,11.125,11.125c0,6.136-4.987,11.124-11.125,11.124h-39.128v33.568h50.253
			C1635.788,238.531,1640.776,243.514,1640.776,249.844z"/>
		<path fill="#FFFFFF" d="M1656.113,249.844V137.832c0-6.138,4.987-11.126,11.125-11.126s11.126,4.988,11.126,11.126v112.012
			c0,6.141-4.988,11.125-11.126,11.125S1656.113,255.984,1656.113,249.844z"/>
		<path fill="#FFFFFF" d="M1804.757,245.625c0.579,1.341,0.771,2.877,0.771,4.219c0,5.756-4.41,11.125-11.126,11.125
			c-4.409,0-8.632-2.684-10.355-7.096l-8.444-20.908h-51.977l-8.437,20.908c-1.728,4.412-5.946,7.096-10.359,7.096
			c-6.521,0-11.126-5.561-11.126-11.125c0-1.535,0.191-2.878,0.767-4.219l44.69-111.82c1.731-4.222,5.949-7.099,10.551-7.099
			c4.41,0,8.632,2.877,10.355,7.099L1804.757,245.625z M1766.591,210.718l-16.88-42.773l-17.068,42.773H1766.591z"/>
		<path fill="#FFFFFF" d="M1899.506,216.28v1.917c0,11.126-4.414,21.675-12.088,29.347c-8.436,8.44-19.944,13.044-32.603,13.044
			h-1.536c-16.302-0.577-30.5-9.781-37.212-24.169c-0.767-1.534-0.958-3.261-0.958-4.795c0-4.218,2.303-8.248,6.521-10.166
			c1.536-0.767,3.072-0.96,4.604-0.96c4.223,0,8.434,2.303,10.359,6.522c3.069,6.713,9.586,10.933,17.451,11.126h0.962
			c6.712,0,12.271-2.112,16.302-6.14c3.835-3.837,5.945-8.631,5.945-13.81v-0.768c-0.578-8.821-17.263-16.687-24.55-18.798
			l-0.77-0.383c-19.754-7.096-29.729-19.563-29.729-36.827v-1.534c0.383-9.781,4.8-18.603,13.045-24.741
			c6.903-5.371,16.301-8.632,26.277-8.632h1.725c8.057,0.191,16.305,3.454,23.018,8.439c2.877,2.303,4.413,5.563,4.413,8.823
			c0,2.301-0.767,4.795-2.307,6.713c-2.299,2.879-5.559,4.411-9.011,4.411c-2.307,0-4.605-0.576-6.712-2.107
			c-2.881-2.304-6.716-3.646-10.168-3.837h-1.153c-9.397,0-16.688,4.793-16.876,11.699v0.766c0,9.401,7.287,12.852,14.769,15.922
			C1864.98,179.07,1898.353,189.811,1899.506,216.28z"/>
	</g>
</g>
<g>
	<g>
		<path fill="none" d="M175.271,251.095c0-0.059-0.004-0.113-0.008-0.173c-0.004-24.774-0.004-49.549-0.008-74.326
			c0.004,24.777,0.004,49.552,0.008,74.327C175.268,250.981,175.271,251.036,175.271,251.095z"/>
		<path fill="#EB4736" d="M349.638,272.27c0,0.986-0.057,1.98-0.092,2.968c-0.146,0.09-0.318,0.164-0.451,0.278
			c-27.26,23.077-54.527,46.149-81.751,69.267c-1.686,1.439-3.684,2.572-4.893,4.528h-0.541c-0.025-1.258-0.082-2.525-0.082-3.783
			c0-54.695,0-109.388-0.008-164.075c0-1.086-0.049-2.172-0.074-3.247c0.113-0.224,0.225-0.452,0.336-0.677
			c9.363-7.479,18.727-14.952,28.072-22.451c8.574-6.88,17.066-13.866,25.697-20.672c4.521-3.569,9.314-5.312,14.298-5.312
			c3.439,0,6.971,0.832,10.553,2.475c5.885,2.704,8.992,7.3,8.982,14.096C349.597,187.87,349.638,230.066,349.638,272.27z"/>
		<path fill="#5B69B0" d="M175.912,251.925c-0.056-0.019-0.652-50.552-0.656-75.329C175.106,176.162,0.848,321.854,0.492,322.745
			c0.02,3.963,0.037,7.93,0.057,11.891c1.639,7.543,6.631,12.579,13.809,14.506c1.202,0.323,31.397,0.09,45.297,0.09
			C62.512,345.579,175.912,251.925,175.912,251.925z"/>
		<path fill="#7A5EA7" d="M261.82,181.447c0-1.081-0.049-2.164-0.076-3.245c-9.219,7.75-18.453,15.489-27.662,23.257
			c-12.442,10.495-24.869,21.007-37.297,31.523c-6.453,5.462-12.887,10.94-19.332,16.414c-0.68,0.58-1.258,1.306-2.189,1.525
			c0.004,0.06,0.008,0.114,0.008,0.173c0,0.095-0.008,0.189-0.023,0.283c0.008,32.645,0.014,65.29,0.02,97.936
			c28.881,0,57.762,0,86.645,0c-0.029-1.261-0.084-2.522-0.084-3.787C261.824,290.834,261.826,236.14,261.82,181.447z"/>
		<path fill="#E5B14E" d="M87.957,177.726c-0.032,0.158-87.466,73.252-87.604,73.369c0-5.434,0.429-136.672,0.429-145.864v-0.385
			C2.4,96.788,9.156,91.109,18.686,90.944c7.833-0.14,15.668-0.189,23.502-0.189c9.297,0,18.584,0.072,27.883,0.15
			c4.586,0.039,8.77,1.741,12.389,4.726c3.83,3.154,5.541,7.23,5.531,12.092c-0.015,3.6-0.221,7.2-0.221,10.802
			C87.743,137.636,87.893,177.109,87.957,177.726z"/>
		<path fill="#E5B14E" d="M0.979,249.704c1.15-0.779,2.268-1.62,3.354-2.482c-1.176,0.963-2.358,1.866-3.551,2.695
			c-0.141,0.1-0.29,0.197-0.429,0.299c0.139-0.117,0.288-0.233,0.429-0.348C0.846,249.812,0.912,249.763,0.979,249.704z"/>
		<path fill="#D4CC56" d="M87.871,248.894c-11.459,9.758-86.635,73.27-86.987,74.153H0.826c0,0,0,0-0.01,0c-0.006,0-0.006,0-0.016,0
			c-0.041,0-0.074,0-0.106-0.008H0.644c-0.04-0.008-0.091-0.015-0.13-0.024c-0.008,0-0.016-0.007-0.025-0.007
			c-0.008,0-0.008,0-0.017,0v-72.569c0.14-0.116,86.225-72.794,87.317-73.057C87.773,195.945,87.83,244.222,87.871,248.894z"/>
		<path fill="#554F9F" d="M59.928,349.313c38.448,0,76.896,0,115.344,0c-0.006-32.646-0.012-65.291-0.021-97.936
			C170.354,255.446,62.785,345.661,59.928,349.313z"/>
		<path fill="#DE5CA1" d="M349.669,332.682c-0.008,9.751-10.576,16.629-20.732,16.629h-66.486c1.209-1.956,3.207-3.089,4.893-4.528
			c27.225-23.117,54.492-46.189,81.751-69.267c0.133-0.114,0.305-0.188,0.451-0.278
			C349.582,288.036,349.685,313.733,349.669,332.682z"/>
		<path fill="#66A2D7" d="M177.453,249.396c6.445-5.474,12.879-10.952,19.332-16.414c12.428-10.517,24.854-21.028,37.297-31.523
			c9.209-7.768,18.443-15.507,27.662-23.257c0.115-0.225,0.229-0.446,0.338-0.674c-0.049-0.986-0.15-1.972-0.146-2.962
			c0.002-9.819-0.008-19.639,0.057-29.462c0.027-4.029-1.342-7.461-4.285-10.118c-4.225-3.814-9.744-5.739-15.256-5.739
			c-5.022,0-10.041,1.598-14.081,4.819c-8.519,6.79-16.96,13.671-25.466,20.479c-9.201,7.371-18.431,14.704-27.648,22.051
			c0.004,24.777,0.004,49.552,0.008,74.326C176.195,250.702,176.773,249.977,177.453,249.396z"/>
		<path fill="#67B765" d="M175.256,176.596c-9.388,7.885-86.883,71.926-87.385,72.298c-0.041-4.672,0.054-71.89,0.086-72.048
			c10.918-8.72,21.834-17.444,32.742-26.183c6.896-5.522,13.762-11.086,20.674-16.594c3.987-3.166,9.068-4.761,14.147-4.761
			c4.745,0,9.497,1.392,13.358,4.169c3.231,2.325,5.705,5.353,5.705,9.384C174.584,154.228,175.001,165.739,175.256,176.596z"/>
	</g>
	<g>
		<path fill="#E5B14E" d="M70.779,0H17.225C7.712,0,0,7.713,0,17.226v39.271c0,9.513,7.712,17.226,17.225,17.226h53.555
			c9.514,0,17.225-7.713,17.225-17.226V17.226C88.004,7.713,80.293,0,70.779,0z"/>
	</g>
</g>
</svg>
