<?xml version="1.0" encoding="utf-8"?>
<!-- Generator: Adobe Illustrator 19.1.0, SVG Export Plug-In . SVG Version: 6.00 Build 0)  -->
<svg version="1.1" id="Layer_1" xmlns="http://www.w3.org/2000/svg" xmlns:xlink="http://www.w3.org/1999/xlink" x="0px" y="0px"
	 viewBox="100 216.5 231.7 233.5" style="enable-background:new 100 216.5 231.7 233.5;" xml:space="preserve">
<style type="text/css">
	.st0{fill:#FFFFFF;}
</style>
<g>
	<path class="st0" d="M127,450c-3.1,0-11.2-0.1-12.2-0.1c-3.1,0-5.8-1.2-8.2-2.9c-3.4-2.5-5.4-5.9-6.1-10c-0.3-1.5-0.1-3.1-0.1-4.6
		c0-6.5,0-13.1,0-19.6c0-12.7-0.1-25.5-0.1-38.2c0-13.1,0-26.2,0.1-39.3c0-12.9,0.1-25.8,0.1-38.6c0-1.9,0.1-3.8,0-5.7
		c-0.1-4.2,1.7-7.6,4.7-10.3c3.2-3,7.1-4.1,11.4-4.1c8.2,0,16.4-0.1,24.6-0.1c2.8,0,5.5,0,8.3,0.1c6.1,0.1,12.2,4.3,14.2,9.8
		c0.8,2.3,0.9,4.6,0.8,7c0,1.2-0.1,23-0.1,32.7c0,0.3,0,0.5,0,1c0.4-0.3,0.6-0.4,0.8-0.6c7.6-6.1,15.1-12.1,22.7-18.2
		c1.8-1.4,3.5-2.9,5.3-4.1c7.3-4.9,17.7-3.7,23.6,2.5c2,2.1,3,4.7,3,7.6c0,4,0.1,8.1,0.2,12.1c0,0.1,0,0.3,0,0.6
		c0.3-0.2,0.5-0.4,0.8-0.6c8.9-7.1,17.8-14.3,26.7-21.4c7.1-5.6,17.4-5.2,24.1,0.8c2.7,2.4,4,5.5,4,9.1c0,3.8,0,7.6-0.1,11.4
		c0,0.3,0,0.6,0,1.1c0.4-0.3,0.7-0.5,1-0.7c8.8-7.1,17.7-14.2,26.5-21.3c3-2.4,6.4-4.1,10.2-4.4c5.7-0.4,10.9,1.1,15,5.2
		c2.5,2.5,3.4,5.6,3.4,9.1c0,4.3,0,8.7,0,13c0,22.6,0,45.3,0,67.9c0,12.5-0.1,25.1,0.1,37.6c0.1,6.5-3.1,10.9-8.6,13.9
		c-2.3,1.2-4.8,1.9-7.5,2.1c-0.3,0-0.5,0.1-0.8,0.1c-60.3,0-120.6,0-181,0 M275.6,436.9c0.3-0.2,0.5-0.4,0.7-0.5
		c15.5-13.1,31-26.3,46.5-39.4c0.5-0.4,0.6-0.8,0.6-1.4c0-10.9,0-21.8,0-32.7c0-15.7,0-31.5,0-47.2c0-2.4-1-4.2-3.2-5.2
		c-4.2-2-8.1-1.7-11.8,1.3c-4.5,3.7-9.1,7.3-13.6,10.9c-6.2,5-12.5,10-18.7,15c-0.3,0.2-0.5,0.6-0.5,1c0,32.5,0,64.9,0,97.4
		C275.6,436.3,275.6,436.5,275.6,436.9z M267.3,345.3c-14.4,12.2-45.1,39-46.4,40.1c-0.5,0.4-0.7,0.8-0.7,1.4c0,18,0,36,0,54
		c0,0.8,0.2,1,1,1c15.1,0,30.1,0,45.2,0c0.3,0,0.6,0,0.9,0C267.3,409.6,267.3,377.5,267.3,345.3z M212,344.3
		c-0.4,0.3-0.7,0.5-0.9,0.7c-13.8,11.5-27.7,22.9-41.4,34.4c-19.9,16.7-39.8,33.6-59.7,50.4c-1,0.9-1.7,1.7-1.4,3.1
		c0.1,0.6-0.1,1.3,0,2c0.1,0.9,0.2,1.9,0.6,2.6c1.3,2.6,3.3,4.2,6.4,4.1c1.6,0,3.3,0.1,4.9,0.1c4.9,0,9.7,0,14.6-0.1
		c1.7,0,3.3,0,5,0c0.3,0,0.8-0.2,1-0.4c4.3-3.6,8.5-7.3,12.8-10.9c13.4-11.3,26.7-22.6,40.1-33.9c5.8-4.9,11.6-9.7,17.4-14.6
		c0.2-0.2,0.5-0.4,0.5-0.7c0.1-0.8,0.1-1.6,0.1-2.4c0-11.2,0-22.3,0-33.5C212,345,212,344.7,212,344.3z M108.6,373.7
		c0.3-0.2,0.5-0.4,0.7-0.5c4.4-3.7,8.8-7.4,13.2-11.1c11-9.2,22.1-18.5,33.2-27.7c0.5-0.4,0.6-0.8,0.6-1.4c0-8-0.1-15.9-0.1-23.9
		c0-5.9,0.1-11.8,0.1-17.7c0-1.4-0.3-2.7-1.2-3.7c-1.6-1.8-3.6-2.8-6-2.9c-5.7-0.1-27.4-0.1-32.5,0c-1.2,0-2.5,0.2-3.6,0.6
		c-2.7,0.9-4.2,3.1-4.2,6c0,1.7,0,3.5,0,5.2c0,13-0.1,25.9-0.1,38.9c0,7.7,0,15.5,0,23.2c0,4.2,0,8.4,0,12.6
		C108.6,372,108.6,372.8,108.6,373.7z M108.6,419.8c0.4-0.3,0.6-0.4,0.8-0.6c15.4-13,30.9-26,46.3-39c0.4-0.3,0.5-0.6,0.5-1.1
		c0-11,0-22.1,0-33.1c0-0.2,0-0.4-0.1-0.8c-0.3,0.3-0.5,0.4-0.8,0.6c-3.6,3-7.2,6.1-10.9,9.1c-11.8,9.8-23.5,19.7-35.3,29.5
		c-0.4,0.4-0.6,0.7-0.6,1.3c0,11,0,22.1,0,33.1C108.6,419.1,108.6,419.3,108.6,419.8z M220.5,373.7c0.1,0,0.1,0.1,0.2,0.1
		c0.9-0.8,1.9-1.6,2.8-2.4c14.5-12.2,28.9-24.4,43.4-36.6c0.2-0.2,0.4-0.6,0.4-1c0-6.2,0.1-12.4,0.1-18.6c0-1.5-0.6-2.7-1.7-3.6
		c-3.7-3-9.4-3.1-13.1-0.1c-10.6,8.5-21.2,17-31.8,25.5c-0.3,0.2-0.5,0.7-0.5,1.1c0,2.3,0,4.5,0,6.8c0.1,8.6,0.1,17.3,0.2,25.9
		C220.5,371.8,220.5,372.8,220.5,373.7z M164.4,372.8c0.3-0.2,0.5-0.3,0.6-0.5c3.6-2.9,7.1-5.9,10.7-8.8
		c11.8-9.8,23.6-19.6,35.4-29.3c0.6-0.5,0.9-1.1,0.8-1.9c-0.1-5.8-0.3-11.7-0.3-17.5c0-1.4-0.5-2.4-1.6-3.2c-3.7-3-9.4-2.9-13.2,0.1
		c-10.5,8.4-21,16.9-31.6,25.3c-0.6,0.5-0.8,1-0.8,1.7c0,11,0,22,0,33C164.4,372,164.4,372.3,164.4,372.8z M153.5,441.4
		c0.1,0.1,0.1,0.2,0.2,0.3c19.4,0,38.9,0,58.3,0c0-16.3,0-32.5,0-49C192.4,409,172.9,425.2,153.5,441.4z M283.1,441.5
		c0,0.1,0.1,0.1,0.1,0.2c0.1,0,0.3,0,0.4,0c10.2,0,20.4,0,30.6,0c2.5,0,4.8-0.7,6.8-2.2c1.7-1.3,2.6-2.9,2.5-5
		c-0.1-8.1,0-16.1,0-24.2c0-0.9,0-1.8,0-2.7c-0.1,0-0.2,0-0.2-0.1C309.8,418.8,296.4,430.1,283.1,441.5z"/>
	<path class="st0" d="M150.8,216.5c0.8,0.2,1.7,0.3,2.5,0.5c6.6,1.8,11.1,7.5,11.2,14.5c0.1,8.6,0.1,17.2,0,25.8
		c-0.1,8-6.6,14.5-14.6,14.6c-10.6,0.1-21.2,0.1-31.7,0.1c-2.3,0-4.6,0.1-6.9-0.5c-5.8-1.5-10.3-6.6-11.1-12.6
		c0-0.2-0.1-0.4-0.2-0.6c0-9.4,0-18.7,0-28.1c0.1-0.2,0.1-0.3,0.2-0.5c0.8-6.2,5.4-11.2,11.4-12.7c0.7-0.2,1.4-0.3,2.1-0.5
		C126,216.5,138.4,216.5,150.8,216.5z M132.3,263.6C132.3,263.6,132.3,263.7,132.3,263.6c5.6,0,11.1,0,16.7,0c4.2,0,7.2-2.9,7.3-7
		c0.1-8.3,0.1-16.5,0-24.8c0-3.9-3-7-6.7-7c-11.5,0-23,0-34.5,0c-3.6,0-6.7,3.1-6.7,6.7c0,8.5,0,17,0,25.5c0,3.6,3,6.6,6.6,6.7
		C120.7,263.7,126.5,263.6,132.3,263.6z"/>
</g>
</svg>
