<?xml version="1.0" encoding="utf-8"?>
<!-- Generator: Adobe Illustrator 19.1.0, SVG Export Plug-In . SVG Version: 6.00 Build 0)  -->
<svg version="1.1" id="Camada_1" xmlns="http://www.w3.org/2000/svg" xmlns:xlink="http://www.w3.org/1999/xlink" x="0px" y="0px"
	 viewBox="0 0 349.7 349.3" style="enable-background:new 0 0 349.7 349.3;" xml:space="preserve">
<style type="text/css">
	.st0{fill:none;}
	.st1{fill:#E94937;}
	.st2{fill:#5C6AB0;}
	.st3{fill:#7A5FA6;}
	.st4{fill:#E4B14E;}
	.st5{fill:#D4CC57;}
	.st6{fill:#56509D;}
	.st7{fill:#DB5E9E;}
	.st8{fill:#67A2D8;}
	.st9{fill:#67B766;}
</style>
<g>
	<g>
		<path class="st0" d="M175.3,251.1c0-0.1,0-0.1,0-0.2c0-24.8,0-49.5,0-74.3c0,24.8,0,49.6,0,74.3C175.3,251,175.3,251,175.3,251.1z
			"/>
		<path class="st1" d="M349.6,272.3c0,1-0.1,2-0.1,3c-0.1,0.1-0.3,0.2-0.5,0.3c-27.3,23.1-54.5,46.1-81.8,69.3
			c-1.7,1.4-3.7,2.6-4.9,4.5h-0.5c0-1.3-0.1-2.5-0.1-3.8c0-54.7,0-109.4,0-164.1c0-1.1,0-2.2-0.1-3.2c0.1-0.2,0.2-0.5,0.3-0.7
			c9.4-7.5,18.7-15,28.1-22.5c8.6-6.9,17.1-13.9,25.7-20.7c4.5-3.6,9.3-5.3,14.3-5.3c3.4,0,7,0.8,10.6,2.5c5.9,2.7,9,7.3,9,14.1
			C349.6,187.9,349.6,230.1,349.6,272.3z"/>
		<path class="st2" d="M175.9,251.9c-0.1,0-0.7-50.6-0.7-75.3C175.1,176.2,0.8,321.9,0.5,322.7c0,4,0,7.9,0.1,11.9
			c1.6,7.5,6.6,12.6,13.8,14.5c1.2,0.3,31.4,0.1,45.3,0.1C62.5,345.6,175.9,251.9,175.9,251.9z"/>
		<path class="st3" d="M261.8,181.4c0-1.1,0-2.2-0.1-3.2c-9.2,7.8-18.5,15.5-27.7,23.3c-12.4,10.5-24.9,21-37.3,31.5
			c-6.5,5.5-12.9,10.9-19.3,16.4c-0.7,0.6-1.3,1.3-2.2,1.5c0,0.1,0,0.1,0,0.2c0,0.1,0,0.2,0,0.3c0,32.6,0,65.3,0,97.9
			c28.9,0,57.8,0,86.6,0c0-1.3-0.1-2.5-0.1-3.8C261.8,290.8,261.8,236.1,261.8,181.4z"/>
		<path class="st4" d="M88,177.7c0,0.2-87.5,73.3-87.6,73.4c0-5.4,0.4-136.7,0.4-145.9v-0.4c1.6-8.1,8.4-13.7,17.9-13.9
			c7.8-0.1,15.7-0.2,23.5-0.2c9.3,0,18.6,0.1,27.9,0.2c4.6,0,8.8,1.7,12.4,4.7c3.8,3.2,5.5,7.2,5.5,12.1c0,3.6-0.2,7.2-0.2,10.8
			C87.7,137.6,87.9,177.1,88,177.7z"/>
		<path class="st4" d="M1,249.7c1.1-0.8,2.3-1.6,3.4-2.5c-1.2,1-2.4,1.9-3.6,2.7c-0.1,0.1-0.3,0.2-0.4,0.3c0.1-0.1,0.3-0.2,0.4-0.3
			C0.8,249.8,0.9,249.8,1,249.7z"/>
		<path class="st5" d="M87.9,248.9c-11.5,9.8-86.6,73.3-87,74.2H0.8c0,0,0,0,0,0c0,0,0,0,0,0c0,0-0.1,0-0.1,0H0.6c0,0-0.1,0-0.1,0
			c0,0,0,0,0,0c0,0,0,0,0,0v-72.6c0.1-0.1,86.2-72.8,87.3-73.1C87.8,195.9,87.8,244.2,87.9,248.9z"/>
		<path class="st6" d="M59.9,349.3c38.4,0,76.9,0,115.3,0c0-32.6,0-65.3,0-97.9C170.4,255.4,62.8,345.7,59.9,349.3z"/>
		<path class="st7" d="M349.7,332.7c0,9.8-10.6,16.6-20.7,16.6h-66.5c1.2-2,3.2-3.1,4.9-4.5c27.2-23.1,54.5-46.2,81.8-69.3
			c0.1-0.1,0.3-0.2,0.5-0.3C349.6,288,349.7,313.7,349.7,332.7z"/>
		<path class="st8" d="M177.5,249.4c6.4-5.5,12.9-11,19.3-16.4c12.4-10.5,24.9-21,37.3-31.5c9.2-7.8,18.4-15.5,27.7-23.3
			c0.1-0.2,0.2-0.4,0.3-0.7c0-1-0.1-2-0.1-3c0-9.8,0-19.6,0.1-29.5c0-4-1.3-7.5-4.3-10.1c-4.2-3.8-9.7-5.7-15.3-5.7
			c-5,0-10,1.6-14.1,4.8c-8.5,6.8-17,13.7-25.5,20.5c-9.2,7.4-18.4,14.7-27.6,22.1c0,24.8,0,49.6,0,74.3
			C176.2,250.7,176.8,250,177.5,249.4z"/>
		<path class="st9" d="M175.3,176.6c-9.4,7.9-86.9,71.9-87.4,72.3c0-4.7,0.1-71.9,0.1-72c10.9-8.7,21.8-17.4,32.7-26.2
			c6.9-5.5,13.8-11.1,20.7-16.6c4-3.2,9.1-4.8,14.1-4.8c4.7,0,9.5,1.4,13.4,4.2c3.2,2.3,5.7,5.4,5.7,9.4
			C174.6,154.2,175,165.7,175.3,176.6z"/>
	</g>
	<g>
		<path class="st4" d="M70.8,0H17.2C7.7,0,0,7.7,0,17.2v39.3C0,66,7.7,73.7,17.2,73.7h53.6C80.3,73.7,88,66,88,56.5V17.2
			C88,7.7,80.3,0,70.8,0z"/>
	</g>
</g>
</svg>
