<?xml version="1.0" encoding="utf-8"?>
<!-- Generator: Adobe Illustrator 16.0.0, SVG Export Plug-In . SVG Version: 6.00 Build 0)  -->
<!DOCTYPE svg PUBLIC "-//W3C//DTD SVG 1.1//EN" "http://www.w3.org/Graphics/SVG/1.1/DTD/svg11.dtd">
<svg version="1.1" id="Layer_1" xmlns="http://www.w3.org/2000/svg" xmlns:xlink="http://www.w3.org/1999/xlink" x="0px" y="0px"
	 width="633.52px" height="273.259px" viewBox="-346.723 -1.499 633.52 273.259"
	 enable-background="new -346.723 -1.499 633.52 273.259" xml:space="preserve">
<g>
	<path fill="#FCD900" d="M-159.133,121.212c-1.851-2.582-16.592-19.822-18.238-21.337l-1.724-1.583l-4.248,2.099
		c-2.341,1.149-4.33,2.007-4.439,1.9c-0.448-0.468-0.433-81.653,0.016-83.377c3.024-11.451,14.693-20.338,26.795-20.413
		c12.833-0.1,24.585,7.246,27.683,17.29c1.257,4.066,1.308,5.88,1.308,47.988v43.742l-4.248-1.9
		c-2.341-1.048-4.647-1.905-5.129-1.905c-0.985,0-3.93,3.356-10.763,12.2c-2.581,3.341-5.003,6.18-5.397,6.305
		C-157.908,122.345-158.641,121.896-159.133,121.212L-159.133,121.212z M-156.243,68.343c0.215-1.299,0.392-3.299,0.392-4.456
		l0.016-2.091h-4.28c-4.097,0-4.247,0.05-3.866,1.451c0.219,0.799,0.385,2.814,0.394,4.463c0.008,2.814,0.123,3.04,1.782,3.232
		C-157.834,71.398-156.662,70.858-156.243,68.343L-156.243,68.343z M-167.145,65.313c-0.383-4.533-0.283-5.698,0.542-6.614
		c0.907-1,0.723-2.315-2.125-14.641c-2.656-11.519-2.989-13.675-2.232-14.458c0.732-0.767,1.2-0.783,2.657-0.117
		c3.165,1.45,9.803,1.625,14.399,0.399c6.855-1.833,7.045-1.858,7.472-0.725c0.226,0.575-1.123,6.629-3.007,13.449
		c-3.225,11.752-3.414,12.843-3.456,20.306c-0.025,5.53,0.174,7.912,0.691,7.912c1.083,0,1.517-1.599,1.517-5.48
		c0-5.113,1.88-10.219,6.402-17.389c2.232-3.532,4.738-7.746,5.57-9.345c5.397-10.359,4.248-23.302-2.63-29.632
		c-9.029-8.329-23.571-9.536-33.265-2.765c-6.846,4.781-10.511,11.643-10.552,19.789c-0.025,3.798,0.317,5.239,2.092,8.979
		c1.156,2.45,3.155,5.914,4.431,7.697c1.29,1.781,3.59,5.863,5.128,9.086c2.216,4.639,2.94,7.03,3.498,11.644
		c0.858,7.079,0.967,7.42,2.274,7.42C-166.813,70.825-166.746,70.15-167.145,65.313L-167.145,65.313z M-157.335,57.767
		c0.601-0.917,7.182-24.554,6.938-24.877c-0.092-0.109-1.934,0.149-4.106,0.574c-2.167,0.432-5.963,0.633-8.445,0.449
		c-2.48-0.174-4.498-0.1-4.498,0.149c0,0.867,5.247,23.486,5.562,24.003C-161.384,58.882-157.899,58.649-157.335,57.767
		L-157.335,57.767z"/>
	<path fill="#2EAB4A" d="M-221.956,265.477c-0.6-3.448-1.324-7.395-1.606-8.761c-0.483-2.299-0.399-2.515,1.199-3.1
		c0.941-0.349,7.664-3.012,14.933-5.91c16.414-6.546,15.965-5.313,6.504-18.341l-6.663-9.176l6.765-7.28
		c13.383-14.341,14.757-15.973,14.556-17.456c-0.149-1.032-2.297-2.566-8.585-6.046c-4.606-2.566-8.668-4.765-9.004-4.882
		c-0.583-0.198,11.195-14.023,11.894-13.975c0.183,0.018,4.13,5.597,8.771,12.41c4.638,6.811,8.902,12.492,9.468,12.594
		c0.575,0.1,5.597-1.717,11.177-4.048c5.563-2.334,10.261-4.098,10.437-3.915c0.174,0.168,1.258,6.531,2.424,14.126
		c1.159,7.613,2.281,14.392,2.496,15.091c0.493,1.532,3.116,2.065,10.212,2.081h4.997v25.653c0,19.122-0.192,25.868-0.766,26.449
		c-0.59,0.602-11.343,0.768-44.441,0.768h-43.664L-221.956,265.477z"/>
	<path fill="#4374B8" d="M-271.15,271.139l-35.022-0.331l9.62-10.362c5.298-5.694,9.944-10.959,10.353-11.708
		c0.791-1.483,0.542-1.898-8.386-14.326l-4.372-6.079l13.65-5.348c7.512-2.947,14.092-5.813,14.641-6.346
		c0.866-0.867,0.765-2.148-0.89-11.943c-1.024-6.029-1.725-11.109-1.542-11.278c0.167-0.165,7.08,0.168,15.341,0.749
		c13.516,0.984,15.109,1.001,15.758,0.1c0.4-0.549,2-5.612,3.548-11.241c1.566-5.63,2.914-10.346,3.014-10.462
		c0.103-0.133,6.663,3.53,14.577,8.129c7.926,4.58,17.504,10.011,21.286,12.061l6.897,3.747l-10.28,11.027
		c-6.419,6.912-10.269,11.544-10.269,12.376c-0.008,0.75,2.892,5.379,6.44,10.292c4.415,6.133,6.195,9.098,5.647,9.38
		c-0.451,0.232-6.614,2.681-13.7,5.429c-7.096,2.748-13.316,5.398-13.835,5.864c-0.791,0.749-0.715,1.998,0.532,9.427
		c0.801,4.714,1.617,9.228,1.81,10.01c0.339,1.433,0.237,1.451-4.725,1.302C-233.839,271.539-251.887,271.324-271.15,271.139
		L-271.15,271.139z"/>
	<path fill="#EB2227" d="M-346.314,269.673c-0.217-0.797-0.392-5.729-0.392-10.976l-0.018-9.493l11.127-5.548
		c11.394-5.697,13.375-6.947,13.375-8.396c0-0.433-3.473-4.832-7.729-9.726c-4.248-4.898-7.729-9.096-7.729-9.296
		c-0.007-0.234,4.206-5.865,9.362-12.577c7.186-9.328,9.335-12.561,9.194-13.793c-0.167-1.415-1.458-2.166-10.828-6.28
		c-5.863-2.563-10.834-4.745-11.068-4.83c-0.225-0.1,1.058-7.196,2.856-15.773c3.906-18.605,4.065-17.807-3.514-17.49l-5.047,0.202
		v-17.255l3.065,0.383c1.682,0.217,6.879,0.582,11.526,0.825c9.829,0.491,8.912,1.083,11.202-7.171
		c0.791-2.848,1.632-5.529,1.874-5.963c0.284-0.533,4.615,3.614,12.309,11.761c6.547,6.921,12.109,12.576,12.393,12.576
		s0.517-4.514,0.517-10.063c0-9.328,0.083-10.026,1.124-9.577c3.739,1.6,4.073,1.4,11.103-6.579c3.697-4.197,6.829-7.78,6.978-7.954
		c0.517-0.641,8.33,8.72,13.375,16.032c4.882,7.079,5.299,7.496,7.346,7.496c1.907-0.017,2.782,0.65,7.046,5.313
		c2.683,2.933,5.105,5.331,5.372,5.331c0.274,0,0.575-3.531,0.674-7.855l0.174-7.86l3.549-1.44c3.237-1.308,3.586-1.35,3.986-0.359
		c0.233,0.591,1.209,6.445,2.143,13.001c1.473,10.36,2.604,16.57,3.087,16.855c0.068,0.05,5.372,0.418,11.776,0.8l11.644,0.733
		l-3.755,12.21c-2.066,6.712-3.841,12.291-3.94,12.408c-0.115,0.083-5.479-2.863-11.941-6.58
		c-6.473-3.713-12.293-6.745-12.944-6.745c-0.647,0-1.479,0.366-1.831,0.798c-0.352,0.435-2.049,5.848-3.766,12.011l-3.098,11.211
		l-4.23-0.4c-11.535-1.034-27.034-1.883-27.983-1.516c-1.449,0.565-1.366,2.23,0.824,14.642c1.025,5.846,1.824,10.66,1.758,10.71
		c-0.05,0.051-6.53,2.582-14.392,5.681c-7.861,3.081-14.64,6.013-15.074,6.528c-0.426,0.516-0.632,1.466-0.466,2.099
		c0.166,0.632,3.272,5.28,6.896,10.309l6.613,9.146l-1.832,2.183c-1.017,1.2-5.896,6.564-10.861,11.926l-9.028,9.746h-16.205
		l-16.208,0.033L-346.314,269.673z"/>
	<path fill="#505050" d="M-336.079,124.311c-1.415-0.117-4.397-0.384-6.613-0.584l-4.03-0.384V105.98
		c0-16.25,0.083-17.358,1.158-17.358c1.341,0,22.062,21.563,22.062,22.962c0,0.498-0.783,3.664-1.732,7.029l-1.731,6.129
		l-3.265-0.117C-332.032,124.569-334.662,124.427-336.079,124.311L-336.079,124.311z"/>
	<path fill="#9C9C9C" d="M-292.388,115.266c-1.432-0.982-1.449-1.266-1.449-13.825c0-12.226,0.05-12.818,1.232-12.818
		c1.192,0,13.917,12.951,13.917,14.167c0,0.699-11.235,13.574-11.818,13.524C-290.738,116.298-291.589,115.831-292.388,115.266
		L-292.388,115.266z"/>
	<path fill="#593594" d="M-144.861,199.049c-2.332-15.858-2.694-17.407-4.245-17.99c-0.56-0.217-5.904,1.666-12.027,4.214
		c-6.063,2.532-11.084,4.547-11.157,4.447c-0.07-0.1-3.998-5.83-8.713-12.758c-4.713-6.912-8.896-12.776-9.276-13.025
		c-1.675-1.133-3.065-0.133-8.729,6.295c-3.298,3.732-6.153,6.647-6.346,6.446c-0.183-0.183,1.35-5.863,3.432-12.627
		c3.431-11.176,3.674-12.358,2.748-13.275c-0.767-0.773-3.216-1.164-9.962-1.566c-4.914-0.307-10.26-0.559-11.878-0.583
		l-2.931-0.032l-2.13-14.342c-2.624-17.739-2.508-17.223-4.181-17.989c-1.076-0.483-2.367-0.201-5.782,1.332
		c-2.422,1.099-4.515,1.982-4.664,1.982c-0.14,0-0.267-6.961-0.267-15.474c0-14.741,0.067-15.483,1.216-15.483
		c0.765,0,10.442,9.695,25.91,25.959c13.583,14.275,24.925,26.053,25.227,26.169c0.291,0.117,0.531-7.045,0.531-15.924v-16.155
		l4.101-2.282c2.238-1.258,4.347-2.282,4.66-2.266c0.327,0,4.939,5.365,10.263,11.887c5.321,6.536,10.062,12.042,10.528,12.233
		c1.642,0.682,3.307-1,9.877-9.96c3.639-4.965,6.988-9.03,7.444-9.03c0.449,0,2.717,0.942,5.031,2.074l4.197,2.073v100.325h-10.728
		L-144.861,199.049z"/>
	<path fill="#E13F96" d="M-346.723,212.374c0-26.684,0.133-30.932,0.917-30.3c0.499,0.419,5.088,2.565,10.194,4.765
		c5.113,2.216,9.345,4.281,9.427,4.63c0.076,0.367-3.723,5.663-8.427,11.795c-4.698,6.145-8.753,11.709-9.012,12.392
		c-0.516,1.416-0.333,1.667,8.745,12.109c3.165,3.648,5.638,6.747,5.497,6.862c-0.134,0.133-4.097,2.147-8.795,4.497l-8.546,4.282
		V212.374z"/>
	<path fill="#E13F96" d="M-346.515,164.07l0.109-13.227l2.748-0.191c1.506-0.109,2.748-0.042,2.748,0.131
		c0,0.561-5.213,25.18-5.479,25.861C-346.523,176.995-346.58,171.349-346.515,164.07L-346.515,164.07z"/>
</g>
<g>
	<path fill="none" stroke="#686868" stroke-width="5" stroke-miterlimit="10" d="M-131.981,265
		C-7.5,265-45.478-59.813,34.069,19.733"/>
	<g>
		
			<rect x="200.951" y="134.276" transform="matrix(0.7071 -0.7071 0.7071 0.7071 -76.7505 206.2258)" fill="#C4C4C4" stroke="#686868" stroke-width="5" stroke-miterlimit="10" width="19.246" height="122.974"/>
		
			<rect x="65.672" y="-1.003" transform="matrix(0.7071 -0.7071 0.7071 0.7071 -20.7155 70.958)" fill="#0881C4" stroke="#054866" stroke-width="5" stroke-miterlimit="10" width="19.245" height="122.974"/>
		
			<rect x="122.597" y="95.649" transform="matrix(0.7071 -0.7071 0.7071 0.7071 -46.4048 132.9761)" fill="#0881C4" stroke="#054866" stroke-width="5" stroke-miterlimit="10" width="29.433" height="53.71"/>
		
			<rect x="140.86" y="139.343" transform="matrix(0.7071 -0.7071 0.7071 0.7071 -56.5485 157.4668)" fill="#0881C4" stroke="#054866" stroke-width="5" stroke-miterlimit="10" width="41.885" height="15.299"/>
		<polygon fill="#C4C4C4" stroke="#686868" stroke-width="5" stroke-miterlimit="10" points="254.561,239.75 260.49,233.819 
			268.535,247.796 276.581,261.771 262.606,253.725 248.63,245.68 		"/>
	</g>
</g>
</svg>
