<?xml version="1.0" encoding="utf-8"?>
<!-- Generator: Adobe Illustrator 16.0.0, SVG Export Plug-In . SVG Version: 6.00 Build 0)  -->
<!DOCTYPE svg PUBLIC "-//W3C//DTD SVG 1.1//EN" "http://www.w3.org/Graphics/SVG/1.1/DTD/svg11.dtd">
<svg version="1.1" id="Layer_1" xmlns="http://www.w3.org/2000/svg" xmlns:xlink="http://www.w3.org/1999/xlink" x="0px" y="0px"
	 width="330px" height="399.999px" viewBox="0 0 330 399.999" enable-background="new 0 0 330 399.999" xml:space="preserve">
<polygon fill="#FFFFFF" points="330,300.001 165,399.999 0,300.001 0.001,100 165,0 330,100 "/>
<g>
	<path fill="none" d="M334.619,299.988"/>
</g>
<g>
	<path fill="none" d="M1.326,100.011"/>
</g>
<g>
	<path fill="none" d="M1.326,299.988"/>
</g>
<g>
	<path fill="none" d="M334.62,100.011"/>
</g>
<g>
	<polygon fill="#ED1C24" points="165,199.999 49.501,130 165,60 280.499,130 	"/>
	<polygon fill="#DDDB22" points="165,199.999 165,269.999 165,339.999 107.25,304.997 49.5,269.999 107.25,234.999 	"/>
	<polygon fill="#4167B1" points="165.001,199.999 165.001,269.999 165,339.999 222.75,304.997 280.5,269.999 222.75,234.999 	"/>
	<polygon fill="#0EA94B" points="49.5,129.999 107.25,165 165,200 107.25,234.999 49.5,269.999 49.5,200 	"/>
	<polygon fill="#6E1944" points="280.5,129.911 222.75,164.912 165,199.912 222.751,234.911 280.5,269.911 280.5,199.912 	"/>
</g>
</svg>
