<?xml version="1.0" encoding="utf-8"?>
<!-- Generator: Adobe Illustrator 16.0.0, SVG Export Plug-In . SVG Version: 6.00 Build 0)  -->
<!DOCTYPE svg PUBLIC "-//W3C//DTD SVG 1.1//EN" "http://www.w3.org/Graphics/SVG/1.1/DTD/svg11.dtd">
<svg version="1.1" id="Layer_1" xmlns="http://www.w3.org/2000/svg" xmlns:xlink="http://www.w3.org/1999/xlink" x="0px" y="0px"
	 width="330px" height="400px" viewBox="0 0 330 400" enable-background="new 0 0 330 400" xml:space="preserve">
<polygon points="330,300 165,400 0,300 0.001,100 165,0 330,100 "/>
<title>Layer 1</title>
<polygon fill="#EC1C24" stroke="#EC1C24" stroke-miterlimit="10" points="275,266.462 165.001,332.923 55,266.462 55.001,133.539 
	165.001,67.077 275,133.539 "/>
<path d="M162.024,100.926c1.36,0,2.72,0,4.08,0c0.843,0.22,1.747,0.134,2.562,0.482c0.993,0.425,1.734,1.14,2.237,2.085
	c0.239,0.45,0.531,0.8,1.047,0.902c2.733,0.543,4.273,2.493,5.571,4.727c0.261,0.449,0.477,0.924,0.713,1.387
	c0.18,0.353,0.438,0.503,0.852,0.534c1.689,0.129,2.484,0.74,2.902,2.464c0.512,2.106,0.676,4.268,0.469,6.431
	c-0.083,0.87,0.041,1.652,0.365,2.45c1.849,4.557,4.154,8.836,7.644,12.368c4.214,4.265,9.419,6.517,15.29,7.333
	c2.058,0.287,4.128,0.475,6.208,0.503c1.447,0.021,2.755,0.532,3.956,1.265c4.58,2.799,8.81,6.096,13.098,9.309
	c0.463,0.348,0.779,0.806,0.938,1.36c1.76,6.189,3.843,12.294,4.977,18.651c0.156,0.873,0.244,1.754,0.048,2.622
	c-0.246,1.091-0.865,1.854-1.948,2.07c1.699,0.345,2.829,1.571,3.657,3.077c1.47,2.674,2.089,5.628,2.419,8.613
	c0.83,7.525,0.602,15.08,0.441,22.63c-0.045,2.117-0.025,4.232-0.105,6.352c-0.23,6.108-0.561,12.213-1.246,18.283
	c-1.359,12.03-1.246,24.098-1.197,36.168c0.014,3.285-0.748,4.363-3.83,5.562c-2.199,0.855-4.494,1.067-6.826,1.048
	c-0.478,0-0.954,0.001-1.432,0c-0.482,0-0.964,0.001-1.445,0c-0.485,0-0.971,0.001-1.456,0c-2.7,0.015-5.351-0.239-7.808-1.492
	c-1.047-0.533-2.021-1.155-2.543-2.273c-0.298-0.639-0.82-0.812-1.471-0.801c-1.361,0.023-2.717,0.003-4.06-0.279
	c-1.995-0.42-2.708-1.286-2.692-3.32c0.012-1.471,0.515-2.825,1.026-4.168c1.724-4.526,3.765-8.917,5.936-13.237
	c2.513-5,3.705-10.263,3.856-15.821c0.049-1.834,0.322-3.665,0.212-5.504c-0.241-4.065-0.345-8.135-0.635-12.199
	c-0.329-4.62-0.726-9.234-1.07-13.854c-0.288-3.861-0.599-7.722-0.856-11.585c-0.17-2.547-0.074-5.106-0.078-7.66
	c0.035-0.534-0.076-1.079-0.008-1.332c0,0.225,0,0.729,0,1.235c0.17,10.901-0.768,21.715-2.672,32.44
	c-1.059,5.961-2.561,11.808-5.451,17.197c-1.085,2.023-2.391,3.874-4.275,5.261c-1.055,0.773-2.209,1.278-3.484,1.528
	c-1.237,0.241-1.239,0.243-0.653,1.441c1.708,3.492,3.263,7.047,4.108,10.858c0.414,1.866,0.807,3.744,0.464,5.695
	c-0.69,3.922-3.016,6.128-7.011,6.537c-0.676,0.068-1.354,0.108-2.25,0.29c1.439,0.677,2.771,1.14,4.049,1.717
	c1.129,0.511,2.271,1,3.304,1.694c0.462,0.311,0.956,0.695,0.888,1.329c-0.074,0.691-0.668,0.943-1.242,1.157
	c-1.03,0.384-2.131,0.416-3.194,0.471c-5.457,0.282-10.87,0.138-16.077-1.859c-5.15-1.976-8.315-6.602-8.484-12.38
	c-0.095-3.227,0.404-6.375,0.98-9.524c0.223-1.218,0.498-2.428,0.467-3.682c-0.02-0.82-0.327-1.264-1.213-1.262
	c-3.959,0.009-7.918-0.019-11.877,0.018c-1.119,0.011-1.475,0.404-1.574,1.533c-0.107,1.211,0.145,2.389,0.336,3.572
	c0.506,3.116,1.142,6.213,1.097,9.396c-0.018,1.25-0.172,2.473-0.442,3.684c-1.096,4.912-4.307,7.831-8.965,9.239
	c-5.051,1.526-10.226,1.702-15.439,1.037c-0.357-0.045-0.708-0.138-1.051-0.247c-0.578-0.185-1.185-0.361-1.289-1.086
	c-0.101-0.687,0.328-1.143,0.815-1.504c1.258-0.936,2.649-1.642,4.088-2.253c0.699-0.297,1.394-0.601,2.079-0.998
	c-0.335-0.309-0.748-0.243-1.117-0.295c-4.269-0.595-6.576-3.188-6.729-7.509c-0.07-1.983,0.266-3.904,0.717-5.814
	c0.824-3.476,2.066-6.81,3.5-10.071c0.334-0.758,0.381-1.074-0.639-1.164c-2.092-0.184-3.582-1.464-4.827-3.05
	c-2.062-2.627-3.249-5.684-4.228-8.824c-2.13-6.83-3.119-13.879-3.861-20.965c-0.62-5.92-0.998-11.857-1.123-17.811
	c-0.021-1.079,0.206-2.147,0.125-3.229c0-0.839,0-1.678,0-2.516c0-0.56,0-1.119,0-1.679c0.008-0.642-0.016-1.286,0.002-1.668
	c-0.094,0.364,0.033,1.012-0.01,1.642c0,0.562,0.001,1.124,0,1.687c0,0.852,0.001,1.703,0.001,2.555
	c-0.11,5.224-0.273,10.44-0.662,15.656c-0.415,5.573-0.909,11.14-1.297,16.715c-0.298,4.262-0.634,8.52-0.687,12.792
	c-0.089,7.111,1.295,13.857,4.577,20.245c2.208,4.296,4.116,8.753,5.632,13.359c0.287,0.874,0.555,1.753,0.578,2.686
	c0.051,1.902-0.826,3.011-2.676,3.396c-1.182,0.246-2.375,0.341-3.576,0.277c-0.918-0.048-1.539,0.228-2.062,1.077
	c-1.367,2.226-3.753,2.724-6.062,3.222c-1.279,0.275-2.613,0.29-3.932,0.275c-0.489,0-0.979,0.001-1.467,0
	c-0.564,0-1.128,0.001-1.691,0c-0.504,0-1.008,0.001-1.511,0c-2.372,0.006-4.708-0.198-6.921-1.148
	c-3.032-1.303-3.503-2.655-3.476-4.949c0.074-6.235-0.017-12.472,0.041-18.707c0.035-3.771-0.505-7.49-0.829-11.229
	c-0.496-5.689-1.055-11.375-1.615-17.059c-0.524-5.327-0.907-10.658-0.919-16.013c0-0.427-0.001-0.854,0-1.28
	c0-0.48-0.001-0.961,0-1.441c-0.063-0.655,0.137-1.327-0.124-1.97c0-2.72,0-5.44,0-8.16c0.26-0.461,0.061-0.961,0.124-1.438
	c-0.062-0.479,0.136-0.979-0.124-1.441c0-0.24,0-0.48,0-0.72c0.289-2.445,0.244-4.925,0.867-7.336
	c0.623-2.412,1.256-4.814,2.951-6.741c1.022-1.163,2.193-2.121,3.356-2.122c-1.054-0.104-1.813-0.903-1.958-2.513
	c-0.146-1.624,0.215-3.187,0.573-4.742c1.214-5.262,2.821-10.416,4.302-15.605c0.234-0.823,0.618-1.54,1.336-2.073
	c3.688-2.742,7.25-5.655,11.17-8.078c2.17-1.341,4.396-2.226,7.062-2.292c4.669-0.116,9.208-1.033,13.298-3.511
	c5.133-3.109,8.354-7.779,10.883-13.069c1.164-2.434,1.807-4.889,1.551-7.609c-0.178-1.873,0.026-3.758,0.686-5.553
	c0.514-1.4,1.139-1.857,2.606-1.747c0.739,0.056,0.979-0.322,1.218-0.874c0.704-1.632,1.57-3.205,3.002-4.274
	c1.799-1.344,3.917-2.229,5.358-4.092C159.874,101.001,161.074,101.173,162.024,100.926z"/>
<path fill-rule="evenodd" clip-rule="evenodd" fill="#3E3E3E" d="M90.984,205.806c0.477,0.604,0.16,1.293,0.211,1.943
	c-0.08,0.084-0.15,0.076-0.211-0.023C90.984,207.085,90.984,206.445,90.984,205.806z"/>
<path fill-rule="evenodd" clip-rule="evenodd" fill="#838383" d="M106.33,279.519c0.57,0,1.139,0,1.709,0
	c0.067,0.051,0.088,0.099,0.061,0.143c-0.025,0.043-0.051,0.064-0.075,0.064c-0.56,0-1.12,0-1.68,0
	c-0.074-0.041-0.101-0.086-0.081-0.134C106.285,279.543,106.307,279.519,106.33,279.519z"/>
<path fill-rule="evenodd" clip-rule="evenodd" fill="#BCBCBC" d="M226.359,279.528c0,0.066-0.004,0.132-0.015,0.197
	c-0.48,0-0.96,0-1.44,0c-0.082-0.053-0.106-0.099-0.073-0.14c0.03-0.038,0.061-0.058,0.093-0.058
	C225.402,279.528,225.881,279.528,226.359,279.528z"/>
<path fill-rule="evenodd" clip-rule="evenodd" fill="#7F7F7F" d="M224.924,279.528c-0.002,0.066-0.009,0.132-0.02,0.197
	c-0.48,0-0.96,0-1.439,0c-0.072-0.038-0.098-0.079-0.08-0.125c0.02-0.048,0.039-0.072,0.062-0.072
	C223.938,279.528,224.432,279.528,224.924,279.528z"/>
<path fill-rule="evenodd" clip-rule="evenodd" fill="#BCBCBC" d="M223.446,279.528c0.002,0.066,0.009,0.132,0.019,0.197
	c-0.48,0-0.961,0-1.44,0c-0.011-0.065-0.015-0.131-0.015-0.197C222.488,279.528,222.967,279.528,223.446,279.528z"/>
<path fill-rule="evenodd" clip-rule="evenodd" fill="#C1C1C1" d="M108.024,279.726c-0.004-0.07,0.001-0.139,0.015-0.207
	c0.479,0,0.957,0,1.437,0.001c-0.015,0.067-0.019,0.137-0.011,0.206C108.984,279.726,108.504,279.726,108.024,279.726z"/>
<path fill-rule="evenodd" clip-rule="evenodd" fill="#C1C1C1" d="M106.33,279.519c0.014,0.068,0.02,0.137,0.015,0.207
	c-0.479,0-0.96,0-1.44,0c0.008-0.069,0.004-0.139-0.01-0.206C105.373,279.519,105.852,279.519,106.33,279.519z"/>
<path fill-rule="evenodd" clip-rule="evenodd" fill="#7F7F7F" d="M90.984,207.726c0.07,0.007,0.141,0.014,0.211,0.023
	c-0.004,0.478-0.009,0.956-0.014,1.435c-0.074,0.086-0.141,0.08-0.197-0.019C90.984,208.686,90.984,208.205,90.984,207.726z"/>
<path fill-rule="evenodd" clip-rule="evenodd" fill="#3D3D3D" d="M91.174,196.17c0.008,0.501,0.244,1.031-0.189,1.476
	c0-0.48,0-0.96,0-1.44C91.033,196.118,91.097,196.106,91.174,196.17z"/>
<path fill-rule="evenodd" clip-rule="evenodd" fill="#797979" d="M91.174,196.17c-0.066-0.003-0.129,0.009-0.189,0.035
	c0-0.479,0-0.96,0-1.439C91.453,195.179,91.17,195.693,91.174,196.17z"/>
<path fill-rule="evenodd" clip-rule="evenodd" fill="#BBBBBB" d="M90.984,209.165c0.064,0.022,0.131,0.028,0.197,0.019
	c-0.002,0.399-0.004,0.799-0.006,1.198l-0.099,0.023l-0.093-0.04C90.984,209.966,90.984,209.565,90.984,209.165z"/>
<path fill-rule="evenodd" clip-rule="evenodd" fill="#FEFEFE" d="M165.587,190.205c10.919,0,21.841,0.097,32.759-0.06
	c3.23-0.046,4.855,1.736,6.15,4.121c1.064,1.959,1.207,4.189,1.253,6.402c0.146,7.104-1.395,13.962-3.034,20.804
	c-0.473,1.977-1.125,3.914-1.535,5.901c-0.273,1.331-1.03,2.115-2.164,2.657c-2.475,1.184-5.129,1.741-7.809,2.168
	c-12.256,1.951-24.591,2.023-36.943,1.447c-6.586-0.307-13.156-0.817-19.543-2.627c-0.65-0.184-1.28-0.438-1.912-0.681
	c-1.575-0.604-2.55-1.562-2.992-3.364c-1.741-7.1-3.51-14.188-4.143-21.494c-0.307-3.541-0.451-7.093,0.551-10.581
	c0.598-2.08,1.798-3.599,3.773-4.531c0.443-0.21,0.851-0.153,1.27-0.154C142.708,190.203,154.147,190.205,165.587,190.205z"/>
<path fill-rule="evenodd" clip-rule="evenodd" fill="#FEFEFE" d="M184.556,186.724c-5.315,0-10.632-0.021-15.948,0.021
	c-0.878,0.007-1.131-0.182-1.127-1.103c0.041-8.194,0.042-16.388,0.002-24.582c-0.006-1.088,0.402-1.698,1.348-2.127
	c1.995-0.905,4.123-1.237,6.264-1.464c7.178-0.761,14.337-0.747,21.485,0.444c3.919,0.653,6.12,2.772,6.626,6.746
	c0.828,6.497,0.969,12.969-0.377,19.417c-0.088,0.426-0.256,0.835-0.39,1.251c-0.321,0.999-0.95,1.426-2.055,1.416
	C195.108,186.698,189.832,186.724,184.556,186.724z"/>
<path fill-rule="evenodd" clip-rule="evenodd" fill="#FEFEFE" d="M146.725,186.724c-5.238,0-10.477-0.027-15.713,0.022
	c-1.098,0.011-1.705-0.39-2.074-1.377c-0.723-1.931-0.979-3.954-1.154-5.978c-0.434-5.028-0.371-10.052,0.438-15.047
	c0.604-3.728,2.383-5.751,6.668-6.439c8.145-1.308,16.293-1.34,24.435,0.061c0.157,0.027,0.315,0.054,0.472,0.089
	c3.752,0.855,3.949,1.101,3.949,4.883c0,7.517-0.018,15.033,0.023,22.55c0.005,0.956-0.17,1.276-1.211,1.265
	C157.279,186.691,152.002,186.724,146.725,186.724z"/>
<path fill-rule="evenodd" clip-rule="evenodd" fill="#FEFEFE" d="M164.986,131.16c2.301-0.078,4.857,0.148,7.385,0.88
	c1.449,0.419,2.316,1.277,2.898,2.591c0.761,1.717,1.029,3.507,0.96,5.368c-0.028,0.758-0.083,1.527,0.011,2.275
	c0.266,2.109-0.715,3.408-2.459,4.466c-4.839,2.937-9.867,3.005-15.076,1.263c-2.049-0.686-3.967-1.642-5.82-2.741
	c-0.34-0.201-0.672-0.37-0.67-0.882c0.014-3.113,0.011-6.216,0.877-9.259c0.453-1.589,1.42-2.5,2.945-2.985
	C158.859,131.237,161.764,131.16,164.986,131.16z"/>
<path fill-rule="evenodd" clip-rule="evenodd" fill="#FEFEFE" d="M172.966,130.268c-2.266-0.204-4.45-0.924-6.735-1.03
	c-2.814-0.133-5.57,0.226-8.312,0.812c-0.659,0.141-1.341,0.236-2.014,0.244c-1.032,0.013-1.285-0.381-0.952-1.35
	c0.116-0.338,0.242-0.678,0.412-0.99c0.9-1.657,1.352-3.417,1.126-5.298c-0.104-0.862,0.287-1.113,1.031-1.372
	c3.171-1.102,6.377-1.781,9.742-1.185c1.705,0.302,3.23,1.114,4.819,1.747c0.38,0.151,0.599,0.379,0.495,0.809
	c-0.471,1.953,0.412,3.584,1.236,5.229c0.125,0.25,0.27,0.491,0.383,0.745C174.818,130.03,174.527,130.415,172.966,130.268z"/>
<path fill-rule="evenodd" clip-rule="evenodd" fill="#FEFEFE" d="M164.275,114.729c-0.647,0.027-1.269-0.27-1.863-0.725
	c-1.201-0.92-2.279-2.012-3.691-2.643c-1.001-0.446-2.065-0.582-3.131-0.742c-0.284-0.043-0.735,0.072-0.798-0.35
	c-0.071-0.485,0.425-0.555,0.728-0.642c2.009-0.58,4.076-0.784,6.156-0.801c3.554-0.028,7.119-0.203,10.639,0.486
	c0.709,0.139,1.885,0.101,1.867,0.888c-0.014,0.682-1.184,0.478-1.852,0.543c-2.139,0.211-3.84,1.238-5.34,2.694
	C166.264,114.145,165.481,114.759,164.275,114.729z"/>
<path fill-rule="evenodd" clip-rule="evenodd" fill="#FDFCFC" d="M172.598,114.592c0.699,0.096,1.226,0.539,1.811,0.877
	c0.336,0.193,0.594,0.86,1.155,0.189c0.207-0.247,0.364,0.11,0.399,0.356c0.126,0.887-0.102,1.646-0.744,2.295
	c-1.273,1.286-3.14,1.668-4.816,1.005c-0.924-0.365-1.852-0.78-2.816-0.962c-1.018-0.192-1.285-0.87-1.381-1.674
	c-0.031-0.263-0.4-1.407,0.73-0.649c0.27,0.18,0.447-0.252,0.686-0.367c0.625-0.303,1.043-1.104,1.92-0.814
	c0.071,0.347-0.152,0.604-0.273,0.891c-0.348,0.832-0.258,1.565,0.518,2.108c0.676,0.473,1.902,0.393,2.449-0.169
	c0.648-0.664,0.652-1.407,0.168-2.173c-0.148-0.233-0.349-0.439-0.373-0.736C172.141,114.46,172.344,114.442,172.598,114.592z"/>
<path fill-rule="evenodd" clip-rule="evenodd" fill="#FDFCFC" d="M159.391,114.598c0.566,0.098,1.006,0.452,1.482,0.732
	c0.168,0.101,0.434,0.33,0.489,0.287c0.612-0.472,1.032-0.51,1.128,0.402c0.103,0.954,0.053,1.937-0.982,2.312
	c-1.452,0.526-2.95,0.948-4.455,1.3c-1.814,0.423-4.239-1.494-4.144-3.197c0.02-0.344-0.022-0.871,0.55-0.349
	c0.408,0.373,0.535-0.084,0.75-0.241c0.703-0.514,1.349-1.123,2.252-1.281c0.226-0.096,0.313,0.028,0.356,0.223
	c-0.044,0.249-0.235,0.404-0.375,0.594c-0.674,0.911-0.667,1.656,0.013,2.34c0.674,0.676,1.749,0.722,2.49,0.104
	c0.719-0.598,0.824-1.459,0.273-2.344c-0.145-0.233-0.369-0.421-0.387-0.722C158.951,114.472,159.143,114.438,159.391,114.598z"/>
<path fill-rule="evenodd" clip-rule="evenodd" fill="#EA2426" d="M172.121,114.79c1.099,1.021,1.285,2.105,0.52,3.014
	c-0.746,0.885-2.256,1.023-3.143,0.289c-1.006-0.832-0.99-1.945,0.043-3.245c0.406-0.527,1.07-0.229,1.562-0.486
	C171.404,114.594,171.894,114.382,172.121,114.79z"/>
<path fill-rule="evenodd" clip-rule="evenodd" fill="#EA2527" d="M158.924,114.785c0.928,0.598,1.26,1.447,0.902,2.479
	c-0.326,0.941-1.135,1.37-2.066,1.35c-0.981-0.022-1.771-0.495-2.061-1.527c-0.289-1.036,0.134-1.779,1.01-2.315
	c0.232-0.229,0.49-0.354,0.816-0.199c0.108-0.077,0.217-0.153,0.324-0.23C158.165,114.593,158.673,114.377,158.924,114.785z"/>
<path fill-rule="evenodd" clip-rule="evenodd" fill="#C0C0C0" d="M119.751,189.977c-0.072,0.001-0.144-0.004-0.216-0.015
	c-0.121-0.875-0.018-1.747,0.043-2.619c0.059-0.125,0.115-0.125,0.172,0C119.751,188.221,119.751,189.099,119.751,189.977z"/>
<path fill-rule="evenodd" clip-rule="evenodd" fill="#3D3D3D" d="M119.596,185.683c0-0.653,0-1.306,0-1.959c0.046,0,0.092,0,0.138,0
	c0,0.653,0,1.306,0,1.959C119.688,185.683,119.642,185.683,119.596,185.683z"/>
<path fill-rule="evenodd" clip-rule="evenodd" fill="#3C3C3C" d="M211.844,183.295c0.078,0.594,0.202,1.141-0.057,1.827
	C211.675,184.39,211.656,183.817,211.844,183.295z"/>
<path fill-rule="evenodd" clip-rule="evenodd" fill="#C2C2C2" d="M211.914,187.335l-0.09-0.017l-0.09,0.017c0-0.589,0-1.179,0-1.768
	C212.025,186.144,211.928,186.742,211.914,187.335z"/>
<path fill-rule="evenodd" clip-rule="evenodd" fill="#7A7A7A" d="M119.596,185.683c0.046-0.003,0.092-0.003,0.138,0
	c0.006,0.554,0.012,1.107,0.017,1.66l-0.086-0.008l-0.086,0.008C119.584,186.789,119.59,186.236,119.596,185.683z"/>
<path fill-rule="evenodd" clip-rule="evenodd" fill="#D5BDBD" d="M172.121,114.79c-0.318-0.192-0.781-0.042-1.018-0.429
	c0.521-0.075,1.036-0.109,1.494,0.23C172.438,114.657,172.279,114.724,172.121,114.79z"/>
<path fill-rule="evenodd" clip-rule="evenodd" fill="#D8C2C2" d="M158.924,114.785c-0.34-0.192-0.822-0.038-1.074-0.444
	c0.539-0.063,1.072-0.103,1.541,0.257C159.234,114.66,159.079,114.723,158.924,114.785z"/>
<path fill-rule="evenodd" clip-rule="evenodd" fill="#E1BDBD" d="M157.525,114.571c-0.271,0.066-0.544,0.133-0.816,0.199
	c-0.082-0.069-0.165-0.139-0.248-0.207C156.818,114.33,157.174,114.132,157.525,114.571z"/>
<path fill-rule="evenodd" clip-rule="evenodd" d="M164.482,143.805c-2.613,0.072-5.176-0.204-7.625-1.173
	c-0.589-0.232-1.16-0.542-1.686-0.896c-2.393-1.608-2.4-4.146-0.01-5.74c1.845-1.229,3.968-1.661,6.119-1.864
	c3.074-0.291,6.143-0.221,9.143,0.641c1.157,0.332,2.27,0.778,3.2,1.562c1.847,1.556,1.794,3.707-0.14,5.166
	c-1.88,1.418-4.105,1.87-6.376,2.144C166.24,143.75,165.358,143.755,164.482,143.805z"/>
<path fill-rule="evenodd" clip-rule="evenodd" d="M164.311,126.39c-0.092,0.508-0.121,0.723-0.17,0.934
	c-0.4,1.732-1.122,1.985-2.588,0.959c-1.294-0.906-2.334-2.186-3.924-2.663c-0.391-0.117-0.373-0.428-0.307-0.781
	c0.249-1.321,1.321-2.342,2.719-2.155c2.91,0.388,5.795,0.284,8.704,0.068c1.487-0.11,2.354,0.76,2.413,2.064
	c0.014,0.288,0.055,0.563-0.284,0.699c-1.479,0.594-2.512,1.807-3.764,2.715c-1.563,1.133-2.095,0.93-2.562-1.01
	C164.504,127.037,164.445,126.857,164.311,126.39z"/>
<path fill-rule="evenodd" clip-rule="evenodd" fill="#070101" d="M170.881,115.35c0.711,0.096,1.234,0.396,1.216,1.198
	c-0.019,0.791-0.524,1.152-1.253,1.137c-0.678-0.015-1.138-0.399-1.162-1.114C169.654,115.775,170.17,115.456,170.881,115.35z"/>
<path fill-rule="evenodd" clip-rule="evenodd" fill="#070101" d="M159.106,116.599c-0.163,0.695-0.563,1.144-1.308,1.116
	c-0.74-0.028-1.189-0.466-1.17-1.206c0.021-0.758,0.545-1.146,1.256-1.119C158.598,115.416,159.018,115.869,159.106,116.599z"/>
<path fill-rule="evenodd" clip-rule="evenodd" fill="#FDFDFD" d="M162.271,137.893c-0.474-0.071-1.145,0.197-1.37-0.412
	c-0.247-0.67-0.186-1.422-0.014-2.127c0.031-0.13,0.297-0.251,0.473-0.287c0.311-0.063,0.635-0.062,0.953-0.079
	c2.035-0.106,1.986-0.112,1.686,1.938C163.826,138.101,163.007,137.838,162.271,137.893z"/>
<path fill-rule="evenodd" clip-rule="evenodd" fill="#FDFDFD" d="M166.668,137.886c-1.527,0-1.559-0.001-1.502-1.753
	c0.014-0.417-0.42-1.401,0.586-1.117c0.848,0.239,2.375-0.773,2.492,1.029C168.355,137.757,168.168,137.887,166.668,137.886z"/>
<path fill-rule="evenodd" clip-rule="evenodd" fill="#F6F6F6" d="M156.468,136.419c-0.098,1.077-0.178,2.06-0.278,3.04
	c-0.061,0.591-0.308,0.782-0.835,0.362c-0.507-0.403-1.12-0.856-0.948-1.525C154.655,137.334,155.434,136.767,156.468,136.419z"/>
<path fill-rule="evenodd" clip-rule="evenodd" fill="#FCFCFC" d="M159.633,135.412c-0.238,0.838,0.703,1.975-0.625,2.425
	c-0.533,0.182-1.512,0.425-1.621-0.771C157.278,135.892,157.606,135.622,159.633,135.412z"/>
<path fill-rule="evenodd" clip-rule="evenodd" fill="#F2F2F2" d="M169.234,136.414c0.164-0.298-0.264-1,0.393-0.855
	c0.574,0.126,1.594-0.094,1.595,0.926c0.001,0.59,0.212,1.487-1.01,1.434C169.021,137.866,169.377,137.031,169.234,136.414z"/>
<path fill-rule="evenodd" clip-rule="evenodd" fill="#F9F9F9" d="M172.438,136.703c1.884,1.067,1.899,2.043,0,3.373
	C172.438,138.937,172.438,137.858,172.438,136.703z"/>
</svg>
