<?xml version="1.0" encoding="UTF-8" standalone="no"?>
<!-- Created with Inkscape (http://www.inkscape.org/) -->

<svg
   xmlns:dc="http://purl.org/dc/elements/1.1/"
   xmlns:cc="http://creativecommons.org/ns#"
   xmlns:rdf="http://www.w3.org/1999/02/22-rdf-syntax-ns#"
   xmlns:svg="http://www.w3.org/2000/svg"
   xmlns="http://www.w3.org/2000/svg"
   xmlns:sodipodi="http://sodipodi.sourceforge.net/DTD/sodipodi-0.dtd"
   xmlns:inkscape="http://www.inkscape.org/namespaces/inkscape"
   id="svg2"
   version="1.1"
   inkscape:version="0.48.4 r9939"
   width="200"
   height="200"
   xml:space="preserve"
   sodipodi:docname="foursquare-logomark-white.eps"><metadata
     id="metadata8"><rdf:RDF><cc:Work
         rdf:about=""><dc:format>image/svg+xml</dc:format><dc:type
           rdf:resource="http://purl.org/dc/dcmitype/StillImage" /><dc:title></dc:title></cc:Work></rdf:RDF></metadata><defs
     id="defs6" /><sodipodi:namedview
     pagecolor="#ffffff"
     bordercolor="#666666"
     borderopacity="1"
     objecttolerance="10"
     gridtolerance="10"
     guidetolerance="10"
     inkscape:pageopacity="0"
     inkscape:pageshadow="2"
     inkscape:window-width="1680"
     inkscape:window-height="1026"
     id="namedview4"
     showgrid="false"
     inkscape:zoom="1.4357414"
     inkscape:cx="-39.867139"
     inkscape:cy="235.75523"
     inkscape:window-x="0"
     inkscape:window-y="24"
     inkscape:window-maximized="1"
     inkscape:current-layer="g10" /><g
     id="g10"
     inkscape:groupmode="layer"
     inkscape:label="ink_ext_XXXXXX"
     transform="matrix(1.25,0,0,-1.25,0,200)"
     style="display:inline"><rect
       transform="scale(1,-1)"
       y="-160"
       x="0"
       height="160"
       width="160"
       id="rect2991"
       style="fill:#f94877;fill-opacity:1;fill-rule:evenodd;stroke:none"
       ry="5.5720339" /><path
       inkscape:connector-curvature="0"
       id="path14"
       style="fill:#ffffff;fill-opacity:1;fill-rule:nonzero;stroke:none"
       d="m 91.094323,125.52297 -2.865545,-14.93486 c -0.342491,-1.61449 -2.374848,-3.31272 -4.259812,-3.31272 -1.884127,0 -26.595523,0 -26.595523,0 -2.991996,0 -5.133957,-2.03988 -5.133957,-5.02936 l 0,-3.256618 c 0,-2.991995 2.154521,-5.112268 5.14903,-5.112268 0,0 20.452427,0 22.563489,0 2.112736,0 4.186954,-2.31706 3.729738,-4.57299 -0.458889,-2.25928 -2.603449,-13.451842 -2.861365,-14.686992 -0.258754,-1.236826 -1.67478,-3.349562 -4.186952,-3.349562 -2.116924,0 -18.417568,0 -18.417568,0 -3.354587,0 -4.368667,-0.437957 -6.612539,-3.227304 C 49.35769,65.249273 29.176912,41.01427 29.176912,41.01427 c -0.204407,-0.234218 -0.403957,-0.166557 -0.403957,0.0896 l 0,84.64101 c 0,1.90925 1.660043,4.14927 4.149354,4.14927 0,0 52.647745,0 54.78561,0 2.016439,0 3.900562,-1.89501 3.386404,-4.37118 z M 93.499315,66.9609 c 0.762021,3.082434 9.310945,46.84698 12.165615,60.73175 M 95.126369,144 c 0,0 -58.848971,0 -68.26861,0 -9.421648,0 -12.191233,-7.08433 -12.191233,-11.54595 0,-4.46496 0,-108.469541 0,-108.469541 0,-5.026018 2.701253,-6.890217 4.218019,-7.504861 1.518775,-0.615566 5.706984,-1.133743 8.216895,1.76279 0,0 32.23066,37.398617 32.784175,37.952132 0.83739,0.83739 0.83739,0.83739 1.67478,0.83739 1.674782,0 14.09747,0 20.8527,0 8.762463,0 10.170947,6.248608 11.08622,9.92894 0.762021,3.082434 9.310945,46.84698 12.165615,60.73175 C 107.84382,138.28815 105.1516,144 95.126369,144" /></g></svg>