<?xml version="1.0" encoding="utf-8"?>
<!-- Generator: Adobe Illustrator 19.1.0, SVG Export Plug-In . SVG Version: 6.00 Build 0)  -->
<svg version="1.1" id="Camada_1" xmlns="http://www.w3.org/2000/svg" xmlns:xlink="http://www.w3.org/1999/xlink" x="0px" y="0px"
	 viewBox="0 0 800 800" style="enable-background:new 0 0 800 800;" xml:space="preserve">
<style type="text/css">
	.st0{fill:#3799CF;}
	.st1{fill:#A06397;}
	.st2{fill:#F4982C;}
	.st3{fill:#E72D60;}
	.st4{fill:#FFCF00;}
	.st5{fill:#78C193;}
	.st6{fill:#FFFFFF;}
</style>
<rect y="1" width="800" height="800"/>
<g>
	<polygon class="st0" points="400,310 475,355 550,400 475,445 400,490 400,400 	"/>
	<polygon class="st1" points="550,220 475.1,265 400,310 475,355 550,400 550,310 	"/>
	<polygon class="st2" points="400,130 325,175 250,220 325,265 400,310 400,220 	"/>
	<polygon class="st3" points="400,130 475,175 550,220 475,265 400,310 400,220 	"/>
	<polygon class="st4" points="400,310 325,355 250,400 325,445 400,490 400,400 	"/>
	<polygon class="st5" points="250,220 325,265 400,310 325,355 250,400 250,310 	"/>
</g>
<g>
	<path class="st6" d="M164.5,566.1h24.1v106.9h-24.1v-45.3h-40.4v45.3H100V566.1h24.1v40.9h40.4V566.1z"/>
	<path class="st6" d="M255,675.1c-7.5,0-14-1.1-19.4-3.2c-5.5-2.1-9.9-5-13.5-8.8c-3.5-3.8-6.2-8.2-7.9-13.4
		c-1.7-5.2-2.5-10.9-2.5-17.2v-66.5h24.1v64.5c0,4.3,0.5,8,1.5,11c1,3,2.3,5.5,4,7.4c1.7,1.9,3.8,3.3,6.2,4.1
		c2.4,0.8,5.1,1.2,7.9,1.2c5.9,0,10.6-1.8,14.3-5.4c3.6-3.6,5.5-9.7,5.5-18.4v-64.5h24.1v66.5c0,6.3-0.9,12-2.6,17.3
		c-1.7,5.2-4.4,9.7-8,13.5c-3.6,3.8-8.2,6.7-13.7,8.7C269.2,674.1,262.6,675.1,255,675.1z"/>
	<path class="st6" d="M357.8,674.3c-5.9,0-11.7-0.2-17.5-0.5c-5.8-0.4-11.8-1.2-18.1-2.5V567.6c4.9-0.9,10.3-1.6,16.2-2.1
		c5.9-0.5,11.3-0.7,16.3-0.7c6.8,0,13,0.5,18.7,1.5c5.7,1,10.6,2.6,14.7,5c4.1,2.4,7.3,5.5,9.6,9.3c2.3,3.9,3.5,8.6,3.5,14.3
		c0,8.5-4.1,15.3-12.3,20.2c6.8,2.6,11.4,6.1,13.9,10.5c2.5,4.4,3.7,9.4,3.7,15c0,11.2-4.1,19.6-12.3,25.3
		C386.1,671.5,374,674.3,357.8,674.3z M345.6,608h11.7c7.4,0,12.7-0.9,15.9-2.9c3.2-1.9,4.8-5,4.8-9.2c0-4.3-1.6-7.3-4.9-9.1
		c-3.3-1.7-8.1-2.6-14.5-2.6c-2.1,0-4.3,0-6.6,0.1c-2.4,0.1-4.5,0.2-6.3,0.4V608z M345.6,626.4V654c1.7,0.2,3.6,0.4,5.7,0.5
		c2.1,0.1,4.3,0.2,6.8,0.2c7.2,0,13-1,17.4-3.1c4.4-2.1,6.6-5.9,6.6-11.4c0-4.9-1.9-8.5-5.6-10.6c-3.7-2.1-9-3.2-15.9-3.2H345.6z"/>
	<path class="st6" d="M494.9,564.8c15.9,0,28.2,2.8,36.7,8.4c8.5,5.6,12.8,14.8,12.8,27.5c0,12.9-4.3,22.1-13,27.8
		c-8.6,5.7-21,8.6-37,8.6h-7.6v35.8h-24.1V567.6c5.2-1,10.8-1.7,16.7-2.2C485.3,565,490.5,564.8,494.9,564.8z M496.5,585.3
		c-1.7,0-3.5,0.1-5.2,0.2c-1.7,0.1-3.2,0.2-4.4,0.3v30.8h7.6c8.3,0,14.6-1.1,18.8-3.4c4.2-2.3,6.3-6.5,6.3-12.6c0-3-0.5-5.4-1.6-7.4
		c-1.1-2-2.6-3.5-4.6-4.7c-2-1.2-4.4-2-7.3-2.5C503.1,585.6,499.9,585.3,496.5,585.3z"/>
	<path class="st6" d="M609.5,612.2c-2.1-0.5-4.5-1.1-7.2-1.6c-2.8-0.6-5.8-0.8-8.9-0.8c-1.4,0-3.2,0.1-5.2,0.4
		c-2,0.3-3.5,0.5-4.5,0.8v62h-23v-76.8c4.1-1.4,9-2.8,14.6-4.1c5.6-1.3,11.8-1.9,18.7-1.9c1.2,0,2.7,0.1,4.5,0.2
		c1.7,0.2,3.5,0.4,5.2,0.6c1.7,0.3,3.5,0.6,5.2,0.9c1.7,0.4,3.2,0.8,4.5,1.3L609.5,612.2z"/>
	<path class="st6" d="M700,632.2c0,6.4-0.9,12.2-2.8,17.5c-1.9,5.3-4.5,9.8-8,13.6c-3.5,3.8-7.7,6.7-12.6,8.7
		c-4.9,2.1-10.4,3.1-16.4,3.1c-6,0-11.4-1-16.3-3.1c-4.9-2.1-9.1-5-12.6-8.7c-3.5-3.8-6.2-8.3-8.2-13.6c-2-5.3-2.9-11.1-2.9-17.5
		c0-6.4,1-12.2,3-17.4c2-5.2,4.8-9.7,8.3-13.4c3.5-3.7,7.8-6.6,12.6-8.6c4.9-2.1,10.2-3.1,16-3.1c5.9,0,11.2,1,16.1,3.1
		c4.9,2.1,9.1,4.9,12.6,8.6c3.5,3.7,6.2,8.2,8.2,13.4C699,620,700,625.8,700,632.2z M676.6,632.2c0-7.1-1.4-12.7-4.2-16.7
		c-2.8-4.1-6.9-6.1-12.1-6.1c-5.2,0-9.3,2-12.2,6.1c-2.9,4.1-4.3,9.6-4.3,16.7c0,7.1,1.4,12.7,4.3,16.9c2.9,4.2,6.9,6.2,12.2,6.2
		c5.2,0,9.3-2.1,12.1-6.2C675.1,644.9,676.6,639.3,676.6,632.2z"/>
</g>
</svg>
