<?xml version="1.0" encoding="utf-8"?>
<!-- Generator: Adobe Illustrator 19.1.0, SVG Export Plug-In . SVG Version: 6.00 Build 0)  -->
<svg version="1.1" id="Layer_1" xmlns="http://www.w3.org/2000/svg" xmlns:xlink="http://www.w3.org/1999/xlink" x="0px" y="0px"
	 viewBox="645 222.7 1050 349.3" style="enable-background:new 645 222.7 1050 349.3;" xml:space="preserve">
<style type="text/css">
	.st0{fill:#FFFFFF;}
	.st1{fill-rule:evenodd;clip-rule:evenodd;fill:#FFFFFF;}
</style>
<g>
	<path class="st0" d="M1101.9,483.7c-6.3,0-11.3-5-11.3-11.1v-112c0-6.1,5-11.1,11.3-11.1c6.1,0,11.1,5,11.1,11.1v100.7h39.1
		c6.1,0,11.3,5,11.3,11.3c0,6.1-5.2,11.1-11.3,11.1H1101.9z"/>
	<path class="st0" d="M1288,468.3c0.6,1.3,0.8,2.9,0.8,4.2c0,5.8-4.4,11.1-11.1,11.1c-4.4,0-8.6-2.7-10.4-7.1l-8.4-20.9h-52
		l-8.4,20.9c-1.7,4.4-5.9,7.1-10.4,7.1c-6.5,0-11.1-5.6-11.1-11.1c0-1.5,0.2-2.9,0.8-4.2l44.7-111.8c1.7-4.2,5.9-7.1,10.6-7.1
		c4.4,0,8.6,2.9,10.4,7.1L1288,468.3z M1249.8,433.4l-16.9-42.8l-17.1,42.8H1249.8z"/>
	<path class="st0" d="M1391.7,441.7c0,25.9-21.3,42-39.3,42h-39.1c-6.1,0-11.1-5-11.1-11.1v-112c0-6.1,5-11.1,11.1-11.1h30.9
		c1,0,9.2,0.4,17.5,4.4c12.3,6.1,18.8,17.3,18.8,32c0,8.1-2.1,15.3-5.9,21.1C1385.6,414.2,1391.7,426.5,1391.7,441.7z M1324.6,399.8
		h16.7c2.9,0,16.9-0.6,16.9-14c0-12.8-8.8-14-12.5-14c-1,0-1.5,0-1.5,0h-19.6V399.8z M1369.3,441.7c0-7.1-4.4-19.6-18.2-19.6h-26.5
		v39.1h26.5c0.2,0,5.4-0.2,10-2.7C1368.5,454.3,1369.3,446.8,1369.3,441.7z"/>
</g>
<g>
	<path class="st1" d="M685.4,572c-4.6,0-16.8-0.2-18.3-0.2c-4.7,0.1-8.6-1.8-12.3-4.4c-5.1-3.7-8.1-8.8-9.1-15
		c-0.4-2.2-0.1-4.6-0.1-6.9c0-9.8,0-19.6,0-29.4c0-19-0.1-38.1-0.1-57.1c0-19.6,0.1-39.2,0.1-58.7c0.1-19.3,0.1-38.5,0.2-57.8
		c0-2.8,0.1-5.7,0-8.5c-0.1-6.3,2.5-11.3,7-15.5c4.8-4.4,10.6-6.1,17.1-6.1c12.3,0,24.5-0.1,36.8-0.1c4.1,0,8.3,0.1,12.4,0.2
		c9.1,0.2,18.2,6.5,21.2,14.6c1.2,3.4,1.4,6.9,1.2,10.4c-0.1,1.8-0.2,34.4-0.1,49c0,0.4,0,0.7,0,1.4c0.5-0.4,0.9-0.6,1.2-0.9
		c11.3-9.1,22.6-18.1,33.9-27.2c2.6-2.1,5.2-4.3,8-6.2c10.9-7.3,26.5-5.6,35.4,3.7c3,3.2,4.5,7,4.5,11.4c0.1,6,0.2,12.1,0.3,18.1
		c0,0.2,0,0.4,0.1,0.9c0.5-0.3,0.8-0.6,1.2-0.9c13.3-10.7,26.6-21.4,39.9-32c10.6-8.4,26.1-7.8,36.1,1.2c4,3.6,6,8.3,6,13.6
		c0.1,5.7,0,11.4-0.1,17.1c0,0.4,0,0.9,0,1.7c0.6-0.5,1-0.8,1.4-1.1c13.2-10.6,26.4-21.2,39.6-31.8c4.5-3.6,9.5-6.2,15.3-6.6
		c8.6-0.7,16.2,1.6,22.4,7.8c3.7,3.7,5.1,8.4,5.1,13.6c0,6.5,0,13,0,19.5c0,33.9,0,67.8,0,101.6c0,18.8-0.1,37.5,0.1,56.3
		c0.1,9.8-4.6,16.3-12.9,20.7c-3.5,1.8-7.2,2.8-11.2,3.1c-0.4,0-0.8,0.1-1.2,0.2c-90.2,0-180.5,0-270.7,0 M907.7,552.4
		c0.5-0.3,0.7-0.5,1-0.8c23.2-19.7,46.4-39.3,69.6-59c0.7-0.6,0.9-1.2,0.9-2c0-16.3,0-32.6,0-48.9c0-23.5,0-47.1,0-70.6
		c0-3.6-1.4-6.2-4.7-7.8c-6.3-3-12.2-2.5-17.7,1.9c-6.8,5.5-13.6,10.9-20.4,16.4c-9.3,7.5-18.7,14.9-28,22.5c-0.4,0.3-0.8,1-0.8,1.4
		c0,48.6,0,97.1,0,145.7C907.7,551.4,907.7,551.8,907.7,552.4z M895.3,415.3c-21.6,18.3-67.5,58.4-69.4,59.9c-0.7,0.5-1,1.1-1,2
		c0,27,0,53.9,0,80.9c0,1.2,0.3,1.5,1.5,1.5c22.5,0,45,0,67.6,0c0.4,0,0.9,0,1.4-0.1C895.3,511.5,895.3,463.6,895.3,415.3z
		 M812.6,413.8c-0.6,0.5-1,0.8-1.4,1.1c-20.7,17.2-41.4,34.3-62,51.5c-29.8,25-59.5,50.3-89.3,75.3c-1.5,1.3-2.5,2.5-2.1,4.6
		c0.2,1-0.1,2,0.1,3c0.2,1.3,0.3,2.8,0.9,4c1.9,3.8,4.9,6.2,9.5,6.1c2.4,0,4.9,0.1,7.3,0.1c7.3,0,14.5-0.1,21.8-0.1
		c2.5,0,5,0,7.5-0.1c0.5,0,1.1-0.2,1.5-0.6c6.4-5.4,12.7-10.9,19.1-16.3c20-16.9,40-33.8,60-50.7c8.6-7.3,17.3-14.6,26-21.8
		c0.3-0.3,0.8-0.6,0.8-1c0.2-1.2,0.2-2.4,0.2-3.6c0-16.7,0-33.4,0-50.1C812.6,414.9,812.6,414.5,812.6,413.8z M657.8,457.8
		c0.4-0.3,0.7-0.5,1-0.7c6.6-5.5,13.1-11.1,19.7-16.6c16.5-13.8,33.1-27.7,49.6-41.5c0.7-0.6,0.9-1.1,0.9-2
		c0-11.9-0.1-23.9-0.1-35.8c0-8.8,0.1-17.7,0.2-26.5c0-2-0.4-4-1.8-5.5c-2.4-2.6-5.3-4.3-8.9-4.3c-8.5-0.1-40.9-0.1-48.6,0
		c-1.8,0-3.7,0.3-5.4,0.9c-4.1,1.4-6.3,4.7-6.3,9c0,2.6,0,5.2-0.1,7.8c-0.1,19.4-0.1,38.8-0.2,58.1c0,11.6,0,23.2-0.1,34.7
		c0,6.3,0,12.5,0,18.8C657.8,455.4,657.8,456.5,657.8,457.8z M657.8,526.8c0.6-0.4,0.9-0.7,1.1-0.9c23.1-19.5,46.2-38.9,69.3-58.4
		c0.5-0.5,0.8-0.9,0.8-1.6c0-16.5,0-33-0.1-49.6c0-0.3-0.1-0.6-0.1-1.1c-0.5,0.4-0.8,0.6-1.1,0.9c-5.4,4.5-10.8,9.1-16.3,13.6
		c-17.6,14.7-35.2,29.4-52.8,44.1c-0.7,0.5-0.9,1.1-0.9,1.9c0,16.5,0,33,0,49.6C657.8,525.7,657.8,526.1,657.8,526.8z M825.3,457.9
		c0.1,0,0.2,0.1,0.3,0.1c1.4-1.2,2.8-2.4,4.2-3.5c21.6-18.3,43.3-36.5,64.9-54.8c0.4-0.3,0.7-0.9,0.7-1.4c0.1-9.3,0.1-18.6,0.1-27.9
		c0-2.2-0.8-4-2.5-5.4c-5.5-4.6-14-4.6-19.6-0.1c-15.9,12.7-31.7,25.4-47.6,38.2c-0.4,0.3-0.8,1.1-0.8,1.6c0,3.4,0,6.8,0.1,10.2
		c0.1,12.9,0.2,25.8,0.3,38.8C825.3,455,825.3,456.4,825.3,457.9z M741.4,456.5c0.5-0.3,0.7-0.5,1-0.7c5.3-4.4,10.7-8.8,16-13.2
		c17.6-14.6,35.3-29.3,53-43.9c1-0.8,1.3-1.6,1.3-2.8c-0.2-8.7-0.4-17.5-0.5-26.2c0-2.1-0.8-3.6-2.4-4.8c-5.6-4.4-14.1-4.4-19.8,0.2
		c-15.8,12.6-31.5,25.2-47.3,37.8c-0.9,0.7-1.2,1.5-1.2,2.6c0,16.5,0,33,0,49.4C741.4,455.3,741.4,455.8,741.4,456.5z M725,559.1
		c0.1,0.1,0.2,0.3,0.2,0.4c29.1,0,58.1,0,87.2,0c0-24.4,0-48.6,0-73.2C783.2,510.7,754.1,534.9,725,559.1z M918.8,559.3
		c0,0.1,0.1,0.2,0.1,0.3c0.2,0,0.4,0,0.7,0c15.3,0,30.5,0,45.8,0c3.7,0,7.2-1,10.2-3.3c2.5-1.9,3.8-4.3,3.8-7.5
		c-0.1-12.1-0.1-24.2-0.1-36.2c0-1.4,0-2.7,0-4.1c-0.1,0-0.2-0.1-0.3-0.1C958.9,525.3,938.9,542.3,918.8,559.3z"/>
	<path class="st1" d="M720.9,222.7c1.3,0.3,2.5,0.5,3.8,0.8c9.9,2.7,16.6,11.2,16.8,21.7c0.2,12.8,0.2,25.7,0,38.5
		c-0.2,11.9-9.9,21.6-21.8,21.8c-15.8,0.2-31.7,0.1-47.5,0.1c-3.5,0-6.9,0.1-10.4-0.8c-8.7-2.3-15.4-9.9-16.6-18.8
		c0-0.3-0.2-0.6-0.2-0.9c0-14,0-28,0-42c0.1-0.2,0.2-0.5,0.2-0.7c1.2-9.3,8-16.8,17.1-19c1-0.2,2.1-0.5,3.1-0.7
		C683.9,222.7,702.4,222.7,720.9,222.7z M693.3,293.2C693.3,293.2,693.3,293.2,693.3,293.2c8.3,0,16.7,0.1,25,0
		c6.4,0,10.8-4.3,10.9-10.5c0.1-12.3,0.1-24.7,0-37c0-5.9-4.5-10.5-10.1-10.5c-17.2,0-34.4,0-51.6,0c-5.4,0-10.1,4.6-10.1,10
		c-0.1,12.7-0.1,25.4,0,38.1c0,5.4,4.5,9.9,9.9,10C676,293.2,684.6,293.2,693.3,293.2z"/>
</g>
</svg>
