<?xml version="1.0" encoding="utf-8"?>
<!-- Generator: Adobe Illustrator 19.1.0, SVG Export Plug-In . SVG Version: 6.00 Build 0)  -->
<svg version="1.1" xmlns="http://www.w3.org/2000/svg" xmlns:xlink="http://www.w3.org/1999/xlink" x="0px" y="0px"
	 viewBox="0 0 800 800" style="enable-background:new 0 0 800 800;" xml:space="preserve">
<style type="text/css">
	.st0{fill:#4E9CCC;}
	.st1{fill:#414042;}
	.st2{opacity:0.1;fill:#FFFFFF;}
	.st3{fill:#F1F3EE;}
	.st4{fill:#8E182F;}
	.st5{fill:#D61D46;}
	.st6{fill:#E4345B;}
	.st7{opacity:0.8;fill:#FFFFFF;}
	.st8{opacity:0.9;}
	.st9{fill:#FFFFFF;}
</style>
<g id="background">
	<rect width="800" height="800"/>
	<circle class="st0" cx="400" cy="400" r="329.2"/>
</g>
<g id="object">
	<g>
		<g>
			<polygon class="st1" points="306.7,616.3 244.2,616.3 244.2,419.1 306.8,419.2 			"/>
			<polygon class="st2" points="270,616.3 244.2,616.3 244.2,419.1 270.1,419.2 			"/>
			<path class="st3" d="M220.4,358.2c0,7.3-5.9,13.1-13.1,13.1l-35,0c-7.3,0-13.1-5.9-13.1-13.2l0-30.8c0-7.3,5.9-13.1,13.1-13.1
				l35,0c7.3,0,13.1,5.9,13.1,13.1L220.4,358.2z"/>
			<g>
				<g>
					<path class="st4" d="M523.4,344.2c0,90.8-8.7,164.4-19.5,164.4c-10.7,0-19.4-73.6-19.4-164.4c0-90.8,8.7-164.4,19.5-164.4
						C514.7,179.8,523.4,253.4,523.4,344.2z"/>
				</g>
			</g>
			<path class="st5" d="M316,617.3c0,1.6-1.3,2.9-2.9,2.9l-75.2,0c-1.6,0-2.9-1.3-2.9-2.9l0-9.6c0-1.6,1.3-2.9,2.9-2.9l75.2,0
				c1.6,0,2.9,1.3,2.9,2.9V617.3z"/>
			<path class="st5" d="M316,436c0,1.6-1.3,2.9-2.9,2.9l-75.2,0c-1.6,0-2.9-1.3-2.9-2.9l0-9.6c0-1.6,1.3-2.9,2.9-2.9l75.2,0
				c1.6,0,2.9,1.3,2.9,2.9L316,436z"/>
			<path class="st3" d="M502.1,180.5c0,0-86,74-153.4,74c-36,0-30.1,0-30.1,0l0,172.6c0,0,3.8,0,26.7,0
				c74.9,0,156.9,81.5,156.9,81.5s-13.5-83.9-13.5-167.8C488.6,256.9,502.1,180.5,502.1,180.5z"/>
			<path class="st6" d="M245.2,254.4c-38.1,0-69,30.9-69.1,69l0,34.5c0,38.1,30.9,69.1,69,69.1l74.5,0l0-172.6L245.2,254.4z"/>
			<path class="st1" d="M531.8,340.9c0-23.1-18.1-42-41-43.2c-3.1,28.5-4.4,57.8-1.7,86.5C512.8,383.8,531.8,364.6,531.8,340.9z"/>
			<path class="st2" d="M319.7,313.3l0-58.8c0,0,0,0-0.1,0c-0.6,0-0.9,0-1.2,0c-0.3,0-0.4,0-0.4,0l-73,0
				c-34.7,0-63.3,25.5-68.3,58.8c-0.1,0.3-0.1,0.7-0.2,1l-4.5,0c-7.3,0-13.1,5.9-13.1,13.1l0,17l160.7,0L319.7,313.3z"/>
			<path class="st7" d="M488.6,340.8c0-9.3,0.2-18.5,0.5-27.5c2.4-72.4,13.1-132.9,13.1-132.9s-86,74-153.4,74
				c-18.7,0-26.1,0-28.9,0l0,58.8l0,31.1l168.8,0C488.6,343.2,488.6,342,488.6,340.8z"/>
			<path class="st6" d="M504,225.2c0.5,4.3,1.1,9,1.6,14.3c2.9,29.1,4.5,66.3,4.5,104.6c0,38.3-1.6,75.5-4.5,104.6
				c-0.5,5.3-1.1,10.1-1.6,14.3c-0.5-4.3-1.1-9-1.6-14.3c-2.9-29.1-4.5-66.3-4.5-104.6c0-38.3,1.6-75.5,4.5-104.6
				C502.9,234.2,503.4,229.5,504,225.2 M505.5,180.3c-0.5-0.4-1-0.5-1.6-0.5c-10.7,0-19.4,73.6-19.5,164.4
				c0,86.3,7.8,157.1,17.8,163.9c0.5,0.3,1,0.5,1.6,0.5c10.7,0,19.4-73.6,19.5-164.4C523.4,257.9,515.5,187.1,505.5,180.3
				L505.5,180.3z"/>
			<path class="st1" d="M531.8,340.9c0-18.5-11.6-34.2-27.8-40.4c1.1,27.2,0.9,53.9-0.2,80.9C520.2,375.2,531.8,359.4,531.8,340.9z"
				/>
			<path class="st2" d="M531.8,343.5c0-0.2,0-0.4,0-0.6c0-0.7,0-1.3,0.1-2c0-0.7,0-1.3-0.1-2c0-0.2,0-0.4,0-0.6
				c0-0.5-0.1-0.9-0.1-1.4c0-0.2,0-0.5-0.1-0.7c0-0.4-0.1-0.9-0.2-1.3c0-0.2,0-0.4-0.1-0.6c-0.1-0.6-0.2-1.3-0.3-1.9
				c0-0.1,0-0.1,0-0.2c-0.1-0.6-0.2-1.1-0.4-1.7c-0.1-0.2-0.1-0.4-0.2-0.7c-0.1-0.4-0.2-0.8-0.3-1.2c-0.1-0.2-0.1-0.5-0.2-0.7
				c-0.1-0.4-0.2-0.7-0.4-1.1c-0.1-0.2-0.2-0.5-0.2-0.7c-0.2-0.5-0.4-1-0.5-1.4c-0.1-0.3-0.2-0.5-0.3-0.8c-0.2-0.4-0.3-0.8-0.5-1.1
				c-0.1-0.3-0.2-0.5-0.4-0.8c-0.1-0.3-0.3-0.6-0.4-0.9c-0.1-0.3-0.3-0.6-0.4-0.8c-0.1-0.3-0.3-0.5-0.4-0.8
				c-0.2-0.3-0.3-0.6-0.5-0.8c-0.1-0.2-0.3-0.4-0.4-0.7c-0.4-0.6-0.7-1.1-1.1-1.7c-0.1-0.2-0.2-0.3-0.3-0.5
				c-0.2-0.3-0.4-0.6-0.7-0.9c-0.1-0.2-0.2-0.3-0.4-0.5c-0.2-0.3-0.5-0.6-0.7-0.9c-0.1-0.1-0.2-0.3-0.3-0.4c-1-1.1-2-2.2-3-3.3
				c0,0,0,0,0,0c-0.3-0.3-0.7-0.7-1.1-1c-0.1-0.1-0.1-0.1-0.2-0.2c-0.4-0.3-0.7-0.6-1.1-1c0,0-0.1-0.1-0.1-0.1
				c-1.6-1.4-3.3-2.6-5.1-3.7c0,0,0,0,0,0c-6-3.7-12.9-6-20.4-6.4c-1.7,15.4-2.8,31.1-3.1,46.7l43.9,0
				C531.7,344.1,531.7,343.8,531.8,343.5z"/>
			<rect x="306.8" y="487.3" class="st3" width="15.8" height="39"/>
			<path class="st6" d="M509.1,425.9c-0.6,8.4-1.2,16.3-2,23.7c-1,10.3-2.1,18.5-3.2,25.1c-1-6.6-2.1-14.8-3.2-25.1
				c-2.9-29.3-4.6-66.8-4.6-105.5c0-38.7,1.6-76.2,4.6-105.5c1-10.3,2.1-18.5,3.2-25.1c0.3,1.9,0.6,4,0.9,6.3
				c1.6-6.5,4.1-12.7,8.9-17.4c-2.9-14.4-6.3-22.7-9.9-22.7c-10.7,0-19.4,73.6-19.5,164.4c0,90.8,8.7,164.4,19.4,164.4
				c6.7,0,12.5-28.3,16.1-71.5L509.1,425.9z"/>
		</g>
		<g class="st8">
			<path class="st9" d="M539,283.8c0,0,0.5,0.3,1.4,0.8c0.9,0.5,2.3,1.2,4,2.3c0.8,0.5,1.8,1.1,2.8,1.8c1,0.7,2,1.5,3.1,2.3
				c1.1,0.9,2.2,1.9,3.4,2.9c1.2,1,2.3,2.3,3.5,3.5c1.2,1.3,2.4,2.6,3.6,4.1c1.1,1.5,2.4,3,3.5,4.7c2.3,3.3,4.3,7.1,6.1,11.1
				c0.4,1,0.8,2.1,1.3,3.1c0.4,1,0.7,2.1,1.1,3.2c0.8,2.2,1.3,4.4,1.8,6.7c1,4.6,1.4,9.3,1.5,14.1l-0.1,3.5c0,1-0.2,2.3-0.3,3.5
				c-0.2,2.5-0.7,4.8-1.1,7.1c-0.5,2.3-1,4.5-1.8,6.7c-0.4,1.1-0.7,2.2-1.1,3.2c-0.4,1.1-0.8,2.1-1.3,3.1c-1.8,4-3.8,7.8-6.1,11.1
				c-1.1,1.7-2.3,3.2-3.5,4.7c-1.2,1.4-2.4,2.8-3.6,4.1c-1.2,1.2-2.4,2.4-3.5,3.5c-1.2,1-2.3,2-3.4,2.9c-1.1,0.8-2.1,1.6-3.1,2.3
				c-1,0.7-1.9,1.3-2.8,1.8c-1.6,1.1-3.1,1.8-4,2.3c-0.9,0.5-1.4,0.7-1.4,0.7s0.4-0.4,1-1.2c0.7-0.8,1.7-1.9,2.9-3.5
				c0.6-0.7,1.3-1.6,2-2.5c0.7-0.9,1.4-1.9,2.2-3c0.8-1.1,1.6-2.2,2.4-3.4c0.8-1.2,1.6-2.5,2.5-3.9c0.8-1.4,1.7-2.8,2.5-4.3
				c0.8-1.5,1.7-3,2.4-4.7c1.6-3.2,2.9-6.8,4.2-10.4c1.2-3.7,2.1-7.6,2.8-11.5c0.3-2,0.6-4,0.7-5.9c0.1-1,0.2-1.9,0.2-3l0.1-3.1
				c0-4.1-0.4-8.1-0.9-12.1c-0.7-4-1.6-7.8-2.8-11.5c-1.2-3.7-2.5-7.2-4.1-10.4c-0.7-1.7-1.6-3.2-2.4-4.7c-0.8-1.5-1.7-2.9-2.5-4.3
				c-0.9-1.3-1.7-2.7-2.5-3.9c-0.9-1.2-1.7-2.4-2.4-3.4c-0.8-1.1-1.5-2.1-2.2-3c-0.7-0.9-1.4-1.7-2-2.5c-1.2-1.5-2.2-2.7-2.9-3.5
				C539.4,284.3,539,283.8,539,283.8z"/>
			<path class="st9" d="M539,249.8c0,0,0.9,0.3,2.5,1c0.8,0.3,1.8,0.7,3,1.2c0.6,0.2,1.2,0.5,1.9,0.8c0.7,0.3,1.4,0.7,2.1,1
				c1.5,0.7,3.2,1.6,5,2.5c1.7,1,3.6,2.1,5.6,3.3c1,0.6,2,1.3,3,2c1,0.7,2.1,1.4,3.2,2.2c1.1,0.7,2.1,1.6,3.2,2.4
				c1.1,0.9,2.2,1.8,3.3,2.7c1.2,0.9,2.2,2,3.3,3c1.1,1,2.2,2.1,3.4,3.2c1.1,1.1,2.2,2.3,3.3,3.5c0.6,0.6,1.1,1.2,1.7,1.8
				c0.5,0.6,1,1.3,1.6,1.9c1,1.3,2.1,2.6,3.2,4c1,1.4,2,2.9,3,4.3c0.5,0.7,1,1.5,1.5,2.2c0.4,0.8,0.9,1.5,1.4,2.3
				c0.9,1.6,1.8,3.1,2.7,4.8c1.6,3.3,3.3,6.7,4.6,10.3c1.5,3.5,2.5,7.3,3.5,11c0.8,3.8,1.8,7.6,2.1,11.6c0.2,2,0.5,3.9,0.6,5.9
				l0.2,6.2c-0.1,7.2-1.1,15.8-2.9,23.2c-1.1,3.7-2.1,7.5-3.6,11c-1.3,3.6-3,7-4.6,10.3c-0.9,1.6-1.8,3.2-2.7,4.8
				c-0.5,0.8-0.9,1.6-1.4,2.3c-0.5,0.7-1,1.5-1.5,2.2c-1,1.5-2,2.9-3,4.3c-1.1,1.3-2.1,2.7-3.2,4c-0.5,0.7-1,1.3-1.6,1.9
				c-0.6,0.6-1.1,1.2-1.7,1.8c-1.1,1.2-2.2,2.4-3.3,3.5c-1.1,1.1-2.3,2.1-3.4,3.2c-0.5,0.5-1.1,1-1.6,1.5c-0.5,0.5-1.1,1-1.7,1.4
				c-1.1,0.9-2.2,1.8-3.3,2.7c-1.1,0.9-2.1,1.7-3.2,2.4c-1.1,0.7-2.1,1.5-3.2,2.2c-1,0.7-2,1.4-3,2c-2,1.2-3.9,2.3-5.6,3.3
				c-1.8,0.9-3.5,1.7-4.9,2.4c-0.7,0.4-1.5,0.7-2.1,1c-0.7,0.3-1.3,0.5-1.9,0.8c-1.2,0.5-2.2,0.9-3,1.2c-1.6,0.6-2.5,1-2.5,1
				s0.8-0.5,2.2-1.5c0.7-0.5,1.6-1.1,2.7-1.8c0.5-0.4,1.1-0.7,1.7-1.2c0.6-0.4,1.2-0.9,1.9-1.4c1.3-1,2.7-2.1,4.3-3.2
				c1.5-1.3,3.1-2.6,4.9-4.1c1.7-1.4,3.4-3.1,5.3-4.8c0.9-0.8,1.8-1.8,2.7-2.7c0.9-0.9,1.8-1.9,2.8-2.9c1-1,1.8-2.1,2.8-3.1
				c0.9-1.1,1.9-2.2,2.8-3.3c0.9-1.2,1.8-2.4,2.7-3.6c0.5-0.6,0.9-1.2,1.4-1.8c0.4-0.6,0.9-1.3,1.3-1.9c0.9-1.3,1.7-2.6,2.6-3.9
				c0.8-1.4,1.6-2.8,2.4-4.2c0.4-0.7,0.8-1.4,1.2-2.1c0.4-0.7,0.7-1.5,1.1-2.2c0.7-1.5,1.5-2.9,2.2-4.5c2.7-6.1,4.9-12.7,6.5-19.4
				c1.4-7,2.2-13.3,2.3-21.2c0,0.4,0,0.1,0,0.1l0-0.1l0-0.2l0-0.3l0-0.7l0-1.3l-0.1-2.6c0-1.8-0.3-3.5-0.5-5.3
				c-0.3-3.5-1-6.9-1.6-10.4c-1.6-6.8-3.8-13.3-6.5-19.4c-0.7-1.5-1.5-3-2.2-4.5c-0.4-0.7-0.7-1.5-1.1-2.2c-0.4-0.7-0.8-1.4-1.2-2.1
				c-0.8-1.4-1.6-2.8-2.4-4.2c-0.9-1.3-1.8-2.6-2.6-3.9c-0.4-0.6-0.8-1.3-1.3-1.9c-0.5-0.6-0.9-1.2-1.4-1.8
				c-0.9-1.2-1.8-2.4-2.7-3.6c-0.9-1.1-1.9-2.2-2.8-3.3c-0.9-1.1-1.8-2.2-2.8-3.1c-1-1-1.9-2-2.8-2.9c-0.9-0.9-1.8-1.9-2.7-2.7
				c-1.9-1.7-3.6-3.4-5.3-4.8c-1.7-1.4-3.4-2.8-4.9-4.1c-1.6-1.2-3-2.2-4.3-3.2c-0.7-0.5-1.3-1-1.9-1.4c-0.6-0.4-1.2-0.8-1.7-1.2
				c-1.1-0.7-2-1.3-2.7-1.8C539.8,250.3,539,249.8,539,249.8z"/>
			<path class="st9" d="M539,217.6c0,0,1.3,0.4,3.7,1.1c1.2,0.3,2.7,0.8,4.4,1.4c0.9,0.3,1.8,0.6,2.8,0.9c1,0.4,2,0.8,3.1,1.2
				c2.2,0.8,4.6,1.9,7.2,3c2.6,1.2,5.3,2.5,8.2,4.1c5.8,3.1,12.1,6.9,18.7,11.7c3.3,2.4,6.5,5.1,9.8,8c3.3,2.9,6.5,6.1,9.7,9.5
				c6.4,6.8,12.4,14.8,17.6,23.7c5.1,8.9,9.4,18.8,12.3,29.3c1.4,5.2,2.6,10.6,3.3,16.1c0.7,5.5,1.1,11,1.2,16.5l0,0.3l0,0.4l0,0.5
				l0,1l0,2c0,0.7,0,1.3-0.1,2l-0.1,2.1c-0.1,2.8-0.5,5.6-0.8,8.3c-0.7,5.5-1.8,10.8-3.2,16.1c-1.4,5.2-3.2,10.3-5.2,15.3
				c-2.1,4.9-4.4,9.6-6.9,14.1c-5.1,8.9-11.1,16.9-17.4,23.8c-3.1,3.5-6.4,6.6-9.7,9.6c-3.3,2.9-6.5,5.6-9.8,8
				c-6.5,4.9-12.8,8.7-18.6,11.8c-2.9,1.6-5.6,2.9-8.2,4.1c-2.6,1.1-4.9,2.2-7.1,3c-1.1,0.4-2.1,0.8-3.1,1.2c-1,0.3-1.9,0.7-2.8,1
				c-1.7,0.6-3.2,1.1-4.4,1.4c-2.4,0.7-3.7,1.1-3.7,1.1s1.2-0.6,3.4-1.7c1.1-0.5,2.5-1.2,4.1-2.1c0.8-0.4,1.6-0.9,2.6-1.3
				c0.9-0.5,1.9-1,2.9-1.6c2-1.1,4.2-2.4,6.6-3.8c2.3-1.5,4.9-3,7.5-4.9c5.2-3.6,10.9-8,16.7-13.2c5.8-5.2,11.7-11.2,17.2-18.1
				c5.6-6.8,10.7-14.6,15.1-23.1c2.2-4.3,4.2-8.7,5.9-13.2c1.7-4.6,3.2-9.3,4.5-14.1c1.2-4.8,2.1-9.8,2.7-14.8
				c0.3-2.5,0.6-5,0.7-7.5l0.1-1.8c0-0.6,0-1.3,0-2l0-2l0-1l0-0.5l0-0.4c0-5.1-0.4-10.1-1-15.1c-0.7-5-1.6-9.9-2.8-14.7
				c-1.3-4.8-2.8-9.5-4.5-14.1c-1.8-4.6-3.8-8.9-6-13.2c-2.3-4.2-4.7-8.3-7.2-12.1c-2.6-3.8-5.3-7.5-8.1-10.9
				c-5.6-6.9-11.5-12.8-17.3-18c-5.8-5.1-11.5-9.5-16.8-13.1c-2.6-1.8-5.2-3.3-7.5-4.8c-2.4-1.4-4.6-2.7-6.6-3.8
				c-1-0.6-2-1.1-2.9-1.6c-0.9-0.5-1.8-0.9-2.6-1.3c-1.6-0.8-3-1.5-4.1-2C540.2,218.2,539,217.6,539,217.6z"/>
		</g>
	</g>
</g>
</svg>
