<?xml version="1.0" encoding="utf-8"?>
<!-- Generator: Adobe Illustrator 19.1.0, SVG Export Plug-In . SVG Version: 6.00 Build 0)  -->
<svg version="1.1" xmlns="http://www.w3.org/2000/svg" xmlns:xlink="http://www.w3.org/1999/xlink" x="0px" y="0px"
	 viewBox="0 0 1080 1080" style="enable-background:new 0 0 1080 1080;" xml:space="preserve">
<style type="text/css">
	.st0{fill:#4E9CCC;}
	.st1{fill:#414042;}
	.st2{opacity:0.1;fill:#FFFFFF;}
	.st3{fill:#F1F3EE;}
	.st4{fill:#8E182F;}
	.st5{fill:#D61D46;}
	.st6{fill:#E4345B;}
	.st7{opacity:0.8;fill:#FFFFFF;}
	.st8{opacity:0.9;}
	.st9{fill:#FFFFFF;}
</style>
<g id="background">
	<rect width="1080" height="1080"/>
</g>
<g id="object">
	<g>
		<circle class="st0" cx="540" cy="540" r="329.2"/>
		<g>
			<g>
				<polygon class="st1" points="446.7,756.3 384.2,756.3 384.2,559.1 446.8,559.2 				"/>
				<polygon class="st2" points="410,756.3 384.2,756.3 384.2,559.1 410.1,559.2 				"/>
				<path class="st3" d="M360.4,498.2c0,7.3-5.9,13.1-13.1,13.1l-35,0c-7.3,0-13.1-5.9-13.1-13.2l0-30.8c0-7.3,5.9-13.1,13.1-13.1
					l35,0c7.3,0,13.1,5.9,13.1,13.1L360.4,498.2z"/>
				<g>
					<g>
						<path class="st4" d="M663.4,484.2c0,90.8-8.7,164.4-19.5,164.4c-10.7,0-19.4-73.6-19.4-164.4c0-90.8,8.7-164.4,19.5-164.4
							C654.7,319.8,663.4,393.4,663.4,484.2z"/>
					</g>
				</g>
				<path class="st5" d="M456,757.3c0,1.6-1.3,2.9-2.9,2.9l-75.2,0c-1.6,0-2.9-1.3-2.9-2.9l0-9.6c0-1.6,1.3-2.9,2.9-2.9l75.2,0
					c1.6,0,2.9,1.3,2.9,2.9V757.3z"/>
				<path class="st5" d="M456,576c0,1.6-1.3,2.9-2.9,2.9l-75.2,0c-1.6,0-2.9-1.3-2.9-2.9l0-9.6c0-1.6,1.3-2.9,2.9-2.9l75.2,0
					c1.6,0,2.9,1.3,2.9,2.9L456,576z"/>
				<path class="st3" d="M642.1,320.5c0,0-86,74-153.4,74c-36,0-30.1,0-30.1,0l0,172.6c0,0,3.8,0,26.7,0
					c74.9,0,156.9,81.5,156.9,81.5s-13.5-83.9-13.5-167.8C628.6,396.9,642.1,320.5,642.1,320.5z"/>
				<path class="st6" d="M385.2,394.4c-38.1,0-69,30.9-69.1,69l0,34.5c0,38.1,30.9,69.1,69,69.1l74.5,0l0-172.6L385.2,394.4z"/>
				<path class="st1" d="M671.8,480.9c0-23.1-18.1-42-41-43.2c-3.1,28.5-4.4,57.8-1.7,86.5C652.8,523.8,671.8,504.6,671.8,480.9z"/>
				<path class="st2" d="M459.7,453.3l0-58.8c0,0,0,0-0.1,0c-0.6,0-0.9,0-1.2,0c-0.3,0-0.4,0-0.4,0l-73,0
					c-34.7,0-63.3,25.5-68.3,58.8c-0.1,0.3-0.1,0.7-0.2,1l-4.5,0c-7.3,0-13.1,5.9-13.1,13.1l0,17l160.7,0L459.7,453.3z"/>
				<path class="st7" d="M628.6,480.8c0-9.3,0.2-18.5,0.5-27.5c2.4-72.4,13.1-132.9,13.1-132.9s-86,74-153.4,74
					c-18.7,0-26.1,0-28.9,0l0,58.8l0,31.1l168.8,0C628.6,483.2,628.6,482,628.6,480.8z"/>
				<path class="st6" d="M644,365.2c0.5,4.3,1.1,9,1.6,14.3c2.9,29.1,4.5,66.3,4.5,104.6c0,38.3-1.6,75.5-4.5,104.6
					c-0.5,5.3-1.1,10.1-1.6,14.3c-0.5-4.3-1.1-9-1.6-14.3c-2.9-29.1-4.5-66.3-4.5-104.6c0-38.3,1.6-75.5,4.5-104.6
					C642.9,374.2,643.4,369.5,644,365.2 M645.5,320.3c-0.5-0.4-1-0.5-1.6-0.5c-10.7,0-19.4,73.6-19.5,164.4
					c0,86.3,7.8,157.1,17.8,163.9c0.5,0.3,1,0.5,1.6,0.5c10.7,0,19.4-73.6,19.5-164.4C663.4,397.9,655.5,327.1,645.5,320.3
					L645.5,320.3z"/>
				<path class="st1" d="M671.8,480.9c0-18.5-11.6-34.2-27.8-40.4c1.1,27.2,0.9,53.9-0.2,80.9C660.2,515.2,671.8,499.4,671.8,480.9z
					"/>
				<path class="st2" d="M671.8,483.5c0-0.2,0-0.4,0-0.6c0-0.7,0-1.3,0.1-2c0-0.7,0-1.3-0.1-2c0-0.2,0-0.4,0-0.6
					c0-0.5-0.1-0.9-0.1-1.4c0-0.2,0-0.5-0.1-0.7c0-0.4-0.1-0.9-0.2-1.3c0-0.2,0-0.4-0.1-0.6c-0.1-0.6-0.2-1.3-0.3-1.9
					c0-0.1,0-0.1,0-0.2c-0.1-0.6-0.2-1.1-0.4-1.7c-0.1-0.2-0.1-0.4-0.2-0.7c-0.1-0.4-0.2-0.8-0.3-1.2c-0.1-0.2-0.1-0.5-0.2-0.7
					c-0.1-0.4-0.2-0.7-0.4-1.1c-0.1-0.2-0.2-0.5-0.2-0.7c-0.2-0.5-0.4-1-0.5-1.4c-0.1-0.3-0.2-0.5-0.3-0.8c-0.2-0.4-0.3-0.8-0.5-1.1
					c-0.1-0.3-0.2-0.5-0.4-0.8c-0.1-0.3-0.3-0.6-0.4-0.9c-0.1-0.3-0.3-0.6-0.4-0.8c-0.1-0.3-0.3-0.5-0.4-0.8
					c-0.2-0.3-0.3-0.6-0.5-0.8c-0.1-0.2-0.3-0.4-0.4-0.7c-0.4-0.6-0.7-1.1-1.1-1.7c-0.1-0.2-0.2-0.3-0.3-0.5
					c-0.2-0.3-0.4-0.6-0.7-0.9c-0.1-0.2-0.2-0.3-0.4-0.5c-0.2-0.3-0.5-0.6-0.7-0.9c-0.1-0.1-0.2-0.3-0.3-0.4c-1-1.1-2-2.2-3-3.3
					c0,0,0,0,0,0c-0.3-0.3-0.7-0.7-1.1-1c-0.1-0.1-0.1-0.1-0.2-0.2c-0.4-0.3-0.7-0.6-1.1-1c0,0-0.1-0.1-0.1-0.1
					c-1.6-1.4-3.3-2.6-5.1-3.7c0,0,0,0,0,0c-6-3.7-12.9-6-20.4-6.4c-1.7,15.4-2.8,31.1-3.1,46.7l43.9,0
					C671.7,484.1,671.7,483.8,671.8,483.5z"/>
				<rect x="446.8" y="627.3" class="st3" width="15.8" height="39"/>
				<path class="st6" d="M649.1,565.9c-0.6,8.4-1.2,16.3-2,23.7c-1,10.3-2.1,18.5-3.2,25.1c-1-6.6-2.1-14.8-3.2-25.1
					c-2.9-29.3-4.6-66.8-4.6-105.5c0-38.7,1.6-76.2,4.6-105.5c1-10.3,2.1-18.5,3.2-25.1c0.3,1.9,0.6,4,0.9,6.3
					c1.6-6.5,4.1-12.7,8.9-17.4c-2.9-14.4-6.3-22.7-9.9-22.7c-10.7,0-19.4,73.6-19.5,164.4c0,90.8,8.7,164.4,19.4,164.4
					c6.7,0,12.5-28.3,16.1-71.5L649.1,565.9z"/>
			</g>
			<g class="st8">
				<path class="st9" d="M679,423.8c0,0,0.5,0.3,1.4,0.8c0.9,0.5,2.3,1.2,4,2.3c0.8,0.5,1.8,1.1,2.8,1.8c1,0.7,2,1.5,3.1,2.3
					c1.1,0.9,2.2,1.9,3.4,2.9c1.2,1,2.3,2.3,3.5,3.5c1.2,1.3,2.4,2.6,3.6,4.1c1.1,1.5,2.4,3,3.5,4.7c2.3,3.3,4.3,7.1,6.1,11.1
					c0.4,1,0.8,2.1,1.3,3.1c0.4,1,0.7,2.1,1.1,3.2c0.8,2.2,1.3,4.4,1.8,6.7c1,4.6,1.4,9.3,1.5,14.1l-0.1,3.5c0,1-0.2,2.3-0.3,3.5
					c-0.2,2.5-0.7,4.8-1.1,7.1c-0.5,2.3-1,4.5-1.8,6.7c-0.4,1.1-0.7,2.2-1.1,3.2c-0.4,1.1-0.8,2.1-1.3,3.1c-1.8,4-3.8,7.8-6.1,11.1
					c-1.1,1.7-2.3,3.2-3.5,4.7c-1.2,1.4-2.4,2.8-3.6,4.1c-1.2,1.2-2.4,2.4-3.5,3.5c-1.2,1-2.3,2-3.4,2.9c-1.1,0.8-2.1,1.6-3.1,2.3
					c-1,0.7-1.9,1.3-2.8,1.8c-1.6,1.1-3.1,1.8-4,2.3c-0.9,0.5-1.4,0.7-1.4,0.7s0.4-0.4,1-1.2c0.7-0.8,1.7-1.9,2.9-3.5
					c0.6-0.7,1.3-1.6,2-2.5c0.7-0.9,1.4-1.9,2.2-3c0.8-1.1,1.6-2.2,2.4-3.4c0.8-1.2,1.6-2.5,2.5-3.9c0.8-1.4,1.7-2.8,2.5-4.3
					c0.8-1.5,1.7-3,2.4-4.7c1.6-3.2,2.9-6.8,4.2-10.4c1.2-3.7,2.1-7.6,2.8-11.5c0.3-2,0.6-4,0.7-5.9c0.1-1,0.2-1.9,0.2-3l0.1-3.1
					c0-4.1-0.4-8.1-0.9-12.1c-0.7-4-1.6-7.8-2.8-11.5c-1.2-3.7-2.5-7.2-4.1-10.4c-0.7-1.7-1.6-3.2-2.4-4.7c-0.8-1.5-1.7-2.9-2.5-4.3
					c-0.9-1.3-1.7-2.7-2.5-3.9c-0.9-1.2-1.7-2.4-2.4-3.4c-0.8-1.1-1.5-2.1-2.2-3c-0.7-0.9-1.4-1.7-2-2.5c-1.2-1.5-2.2-2.7-2.9-3.5
					C679.4,424.3,679,423.8,679,423.8z"/>
				<path class="st9" d="M679,389.8c0,0,0.9,0.3,2.5,1c0.8,0.3,1.8,0.7,3,1.2c0.6,0.2,1.2,0.5,1.9,0.8c0.7,0.3,1.4,0.7,2.1,1
					c1.5,0.7,3.2,1.6,5,2.5c1.7,1,3.6,2.1,5.6,3.3c1,0.6,2,1.3,3,2c1,0.7,2.1,1.4,3.2,2.2c1.1,0.7,2.1,1.6,3.2,2.4
					c1.1,0.9,2.2,1.8,3.3,2.7c1.2,0.9,2.2,2,3.3,3c1.1,1,2.2,2.1,3.4,3.2c1.1,1.1,2.2,2.3,3.3,3.5c0.6,0.6,1.1,1.2,1.7,1.8
					c0.5,0.6,1,1.3,1.6,1.9c1,1.3,2.1,2.6,3.2,4c1,1.4,2,2.9,3,4.3c0.5,0.7,1,1.5,1.5,2.2c0.4,0.8,0.9,1.5,1.4,2.3
					c0.9,1.6,1.8,3.1,2.7,4.8c1.6,3.3,3.3,6.7,4.6,10.3c1.5,3.5,2.5,7.3,3.5,11c0.8,3.8,1.8,7.6,2.1,11.6c0.2,2,0.5,3.9,0.6,5.9
					l0.2,6.2c-0.1,7.2-1.1,15.8-2.9,23.2c-1.1,3.7-2.1,7.5-3.6,11c-1.3,3.6-3,7-4.6,10.3c-0.9,1.6-1.8,3.2-2.7,4.8
					c-0.5,0.8-0.9,1.6-1.4,2.3c-0.5,0.7-1,1.5-1.5,2.2c-1,1.5-2,2.9-3,4.3c-1.1,1.3-2.1,2.7-3.2,4c-0.5,0.7-1,1.3-1.6,1.9
					c-0.6,0.6-1.1,1.2-1.7,1.8c-1.1,1.2-2.2,2.4-3.3,3.5c-1.1,1.1-2.3,2.1-3.4,3.2c-0.5,0.5-1.1,1-1.6,1.5c-0.5,0.5-1.1,1-1.7,1.4
					c-1.1,0.9-2.2,1.8-3.3,2.7c-1.1,0.9-2.1,1.7-3.2,2.4c-1.1,0.7-2.1,1.5-3.2,2.2c-1,0.7-2,1.4-3,2c-2,1.2-3.9,2.3-5.6,3.3
					c-1.8,0.9-3.5,1.7-4.9,2.4c-0.7,0.4-1.5,0.7-2.1,1c-0.7,0.3-1.3,0.5-1.9,0.8c-1.2,0.5-2.2,0.9-3,1.2c-1.6,0.6-2.5,1-2.5,1
					s0.8-0.5,2.2-1.5c0.7-0.5,1.6-1.1,2.7-1.8c0.5-0.4,1.1-0.7,1.7-1.2c0.6-0.4,1.2-0.9,1.9-1.4c1.3-1,2.7-2.1,4.3-3.2
					c1.5-1.3,3.1-2.6,4.9-4.1c1.7-1.4,3.4-3.1,5.3-4.8c0.9-0.8,1.8-1.8,2.7-2.7c0.9-0.9,1.8-1.9,2.8-2.9c1-1,1.8-2.1,2.8-3.1
					c0.9-1.1,1.9-2.2,2.8-3.3c0.9-1.2,1.8-2.4,2.7-3.6c0.5-0.6,0.9-1.2,1.4-1.8c0.4-0.6,0.9-1.3,1.3-1.9c0.9-1.3,1.7-2.6,2.6-3.9
					c0.8-1.4,1.6-2.8,2.4-4.2c0.4-0.7,0.8-1.4,1.2-2.1c0.4-0.7,0.7-1.5,1.1-2.2c0.7-1.5,1.5-2.9,2.2-4.5c2.7-6.1,4.9-12.7,6.5-19.4
					c1.4-7,2.2-13.3,2.3-21.2c0,0.4,0,0.1,0,0.1l0-0.1l0-0.2l0-0.3l0-0.7l0-1.3l-0.1-2.6c0-1.8-0.3-3.5-0.5-5.3
					c-0.3-3.5-1-6.9-1.6-10.4c-1.6-6.8-3.8-13.3-6.5-19.4c-0.7-1.5-1.5-3-2.2-4.5c-0.4-0.7-0.7-1.5-1.1-2.2
					c-0.4-0.7-0.8-1.4-1.2-2.1c-0.8-1.4-1.6-2.8-2.4-4.2c-0.9-1.3-1.8-2.6-2.6-3.9c-0.4-0.6-0.8-1.3-1.3-1.9
					c-0.5-0.6-0.9-1.2-1.4-1.8c-0.9-1.2-1.8-2.4-2.7-3.6c-0.9-1.1-1.9-2.2-2.8-3.3c-0.9-1.1-1.8-2.2-2.8-3.1c-1-1-1.9-2-2.8-2.9
					c-0.9-0.9-1.8-1.9-2.7-2.7c-1.9-1.7-3.6-3.4-5.3-4.8c-1.7-1.4-3.4-2.8-4.9-4.1c-1.6-1.2-3-2.2-4.3-3.2c-0.7-0.5-1.3-1-1.9-1.4
					c-0.6-0.4-1.2-0.8-1.7-1.2c-1.1-0.7-2-1.3-2.7-1.8C679.8,390.3,679,389.8,679,389.8z"/>
				<path class="st9" d="M679,357.6c0,0,1.3,0.4,3.7,1.1c1.2,0.3,2.7,0.8,4.4,1.4c0.9,0.3,1.8,0.6,2.8,0.9c1,0.4,2,0.8,3.1,1.2
					c2.2,0.8,4.6,1.9,7.2,3c2.6,1.2,5.3,2.5,8.2,4.1c5.8,3.1,12.1,6.9,18.7,11.7c3.3,2.4,6.5,5.1,9.8,8c3.3,2.9,6.5,6.1,9.7,9.5
					c6.4,6.8,12.4,14.8,17.6,23.7c5.1,8.9,9.4,18.8,12.3,29.3c1.4,5.2,2.6,10.6,3.3,16.1c0.7,5.5,1.1,11,1.2,16.5l0,0.3l0,0.4l0,0.5
					l0,1l0,2c0,0.7,0,1.3-0.1,2l-0.1,2.1c-0.1,2.8-0.5,5.6-0.8,8.3c-0.7,5.5-1.8,10.8-3.2,16.1c-1.4,5.2-3.2,10.3-5.2,15.3
					c-2.1,4.9-4.4,9.6-6.9,14.1c-5.1,8.9-11.1,16.9-17.4,23.8c-3.1,3.5-6.4,6.6-9.7,9.6c-3.3,2.9-6.5,5.6-9.8,8
					c-6.5,4.9-12.8,8.7-18.6,11.8c-2.9,1.6-5.6,2.9-8.2,4.1c-2.6,1.1-4.9,2.2-7.1,3c-1.1,0.4-2.1,0.8-3.1,1.2c-1,0.3-1.9,0.7-2.8,1
					c-1.7,0.6-3.2,1.1-4.4,1.4c-2.4,0.7-3.7,1.1-3.7,1.1s1.2-0.6,3.4-1.7c1.1-0.5,2.5-1.2,4.1-2.1c0.8-0.4,1.6-0.9,2.6-1.3
					c0.9-0.5,1.9-1,2.9-1.6c2-1.1,4.2-2.4,6.6-3.8c2.3-1.5,4.9-3,7.5-4.9c5.2-3.6,10.9-8,16.7-13.2c5.8-5.2,11.7-11.2,17.2-18.1
					c5.6-6.8,10.7-14.6,15.1-23.1c2.2-4.3,4.2-8.7,5.9-13.2c1.7-4.6,3.2-9.3,4.5-14.1c1.2-4.8,2.1-9.8,2.7-14.8
					c0.3-2.5,0.6-5,0.7-7.5l0.1-1.8c0-0.6,0-1.3,0-2l0-2l0-1l0-0.5l0-0.4c0-5.1-0.4-10.1-1-15.1c-0.7-5-1.6-9.9-2.8-14.7
					c-1.3-4.8-2.8-9.5-4.5-14.1c-1.8-4.6-3.8-8.9-6-13.2c-2.3-4.2-4.7-8.3-7.2-12.1c-2.6-3.8-5.3-7.5-8.1-10.9
					c-5.6-6.9-11.5-12.8-17.3-18c-5.8-5.1-11.5-9.5-16.8-13.1c-2.6-1.8-5.2-3.3-7.5-4.8c-2.4-1.4-4.6-2.7-6.6-3.8
					c-1-0.6-2-1.1-2.9-1.6c-0.9-0.5-1.8-0.9-2.6-1.3c-1.6-0.8-3-1.5-4.1-2C680.2,358.2,679,357.6,679,357.6z"/>
			</g>
		</g>
	</g>
	<g>
		<path class="st9" d="M320,129.8h-14.6L276.8,83v46.8h-14.6V58.7h14.6l28.6,46.9V58.7H320V129.8z"/>
		<path class="st9" d="M391.2,95.8c0,7-1.2,13.1-3.7,18.4c-2.5,5.3-6,9.3-10.6,12.2c-4.6,2.9-9.9,4.3-15.8,4.3
			c-5.9,0-11.1-1.4-15.8-4.2c-4.6-2.8-8.2-6.9-10.7-12.1c-2.5-5.3-3.8-11.3-3.9-18.1v-3.5c0-7,1.3-13.2,3.8-18.5
			c2.5-5.3,6.1-9.4,10.7-12.3c4.6-2.8,9.9-4.3,15.8-4.3c5.9,0,11.2,1.4,15.8,4.3c4.6,2.8,8.2,6.9,10.7,12.3
			c2.5,5.3,3.8,11.5,3.8,18.4V95.8z M376.3,92.6c0-7.5-1.3-13.1-4-17c-2.7-3.9-6.5-5.8-11.4-5.8c-4.9,0-8.7,1.9-11.4,5.7
			c-2.7,3.8-4,9.4-4.1,16.8v3.5c0,7.3,1.3,12.9,4,16.9c2.7,4,6.5,6,11.5,6c4.9,0,8.7-1.9,11.3-5.8s4-9.5,4-16.9V92.6z"/>
		<path class="st9" d="M427,112.1l16.1-53.5h16.3l-24.8,71.1h-15.3l-24.7-71.1H411L427,112.1z"/>
		<path class="st9" d="M502.6,115.1h-25.7l-4.9,14.6h-15.6l26.5-71.1h13.6l26.6,71.1h-15.6L502.6,115.1z M480.9,103.3h17.8
			l-8.9-26.6L480.9,103.3z"/>
		<path class="st9" d="M554.6,129.8V58.7h21.9c6.3,0,11.8,1.4,16.8,4.2c4.9,2.8,8.8,6.8,11.5,12c2.8,5.2,4.2,11.1,4.2,17.7v3.3
			c0,6.6-1.4,12.5-4.1,17.6c-2.7,5.1-6.6,9.1-11.5,12c-4.9,2.8-10.5,4.3-16.7,4.3H554.6z M569.3,70.5V118h7.1
			c5.7,0,10.1-1.9,13.1-5.6c3-3.7,4.6-9.1,4.6-16.1v-3.8c0-7.2-1.5-12.7-4.5-16.4c-3-3.7-7.4-5.6-13.1-5.6H569.3z"/>
		<path class="st9" d="M658.8,115.1h-25.7l-4.9,14.6h-15.6l26.5-71.1h13.6l26.6,71.1h-15.6L658.8,115.1z M637,103.3h17.8l-8.9-26.6
			L637,103.3z"/>
		<path class="st9" d="M733.6,70.5h-21.8v59.2h-14.6V70.5h-21.5V58.7h57.9V70.5z"/>
		<path class="st9" d="M776.2,115.1h-25.7l-4.9,14.6H730l26.5-71.1h13.6l26.6,71.1h-15.6L776.2,115.1z M754.5,103.3h17.8l-8.9-26.6
			L754.5,103.3z"/>
		<path class="st9" d="M810.9,115.7c2.4,0,4.3,0.7,5.7,2.1c1.4,1.4,2.2,3.2,2.2,5.4c0,2.1-0.7,3.9-2.2,5.3c-1.4,1.4-3.4,2.1-5.7,2.1
			c-2.3,0-4.2-0.7-5.7-2.1c-1.4-1.4-2.2-3.2-2.2-5.3s0.7-3.9,2.2-5.3C806.7,116.4,808.6,115.7,810.9,115.7z M816.8,107.9H805
			l-1.7-49.3h15L816.8,107.9z"/>
	</g>
	<g>
		<path class="st9" d="M221.1,1023.8h-48.7v-9.7l23-24.5c3.2-3.5,5.5-6.5,7-9c1.5-2.6,2.3-5,2.3-7.3c0-3.2-0.8-5.6-2.4-7.4
			c-1.6-1.8-3.9-2.7-6.8-2.7c-3.2,0-5.7,1.1-7.5,3.3c-1.8,2.2-2.8,5.1-2.8,8.7h-14.2c0-4.3,1-8.3,3.1-11.9c2.1-3.6,5-6.4,8.8-8.4
			c3.8-2,8.1-3.1,12.8-3.1c7.3,0,13,1.8,17.1,5.3s6.1,8.5,6.1,14.9c0,3.5-0.9,7.1-2.7,10.7c-1.8,3.6-4.9,7.9-9.4,12.7l-16.2,17h30.6
			V1023.8z"/>
		<path class="st9" d="M277.5,994.4c0,9.8-2,17.4-6.1,22.6c-4.1,5.2-10,7.8-17.9,7.8c-7.7,0-13.7-2.6-17.8-7.7
			c-4.1-5.1-6.2-12.4-6.3-22V982c0-9.9,2.1-17.5,6.2-22.6c4.1-5.1,10.1-7.7,17.8-7.7c7.7,0,13.7,2.5,17.8,7.6s6.2,12.4,6.3,21.9
			V994.4z M263.4,980c0-5.9-0.8-10.2-2.4-12.9s-4.1-4-7.5-4c-3.3,0-5.8,1.3-7.3,3.8c-1.6,2.6-2.4,6.6-2.5,12v17.3
			c0,5.8,0.8,10.1,2.4,12.9c1.6,2.8,4.1,4.2,7.6,4.2c3.5,0,5.9-1.4,7.5-4.1c1.5-2.7,2.3-6.8,2.4-12.4V980z"/>
		<path class="st9" d="M313.5,1023.8v-71.1h21.9c6.3,0,11.8,1.4,16.8,4.2s8.8,6.8,11.5,12c2.8,5.2,4.2,11.1,4.2,17.7v3.3
			c0,6.6-1.4,12.5-4.1,17.6c-2.7,5.1-6.6,9.1-11.5,12c-4.9,2.8-10.5,4.3-16.7,4.3H313.5z M328.1,964.5v47.5h7.1
			c5.7,0,10.1-1.9,13.1-5.6c3-3.7,4.6-9.1,4.6-16.1v-3.8c0-7.2-1.5-12.7-4.5-16.4c-3-3.7-7.4-5.6-13.1-5.6H328.1z"/>
		<path class="st9" d="M421.3,992.9h-28.1v19.1h33v11.8h-47.7v-71.1H426v11.9h-32.9v16.9h28.1V992.9z"/>
		<path class="st9" d="M518,989.8c0,7-1.2,13.1-3.7,18.4c-2.5,5.3-6,9.3-10.6,12.2c-4.6,2.9-9.9,4.3-15.8,4.3
			c-5.9,0-11.1-1.4-15.8-4.2c-4.6-2.8-8.2-6.9-10.7-12.1s-3.8-11.3-3.9-18.1v-3.5c0-7,1.3-13.2,3.8-18.5c2.5-5.3,6.1-9.4,10.7-12.3
			c4.6-2.8,9.9-4.3,15.8-4.3c5.9,0,11.2,1.4,15.8,4.3c4.6,2.8,8.2,6.9,10.7,12.3c2.5,5.3,3.8,11.5,3.8,18.4V989.8z M503.2,986.6
			c0-7.5-1.3-13.1-4-17c-2.7-3.9-6.5-5.8-11.4-5.8c-4.9,0-8.7,1.9-11.4,5.7c-2.7,3.8-4,9.4-4.1,16.8v3.5c0,7.3,1.3,12.9,4,16.9
			c2.7,4,6.5,6,11.5,6c4.9,0,8.7-1.9,11.3-5.8s4-9.5,4-16.9V986.6z"/>
		<path class="st9" d="M582.5,952.7v46.8c0,7.8-2.4,13.9-7.3,18.5c-4.9,4.5-11.5,6.8-19.9,6.8c-8.3,0-14.9-2.2-19.8-6.6
			s-7.4-10.4-7.5-18.1v-47.4h14.6v46.9c0,4.7,1.1,8,3.3,10.2c2.2,2.1,5.3,3.2,9.3,3.2c8.2,0,12.4-4.3,12.5-13v-47.3H582.5z"/>
		<path class="st9" d="M648,964.5h-21.8v59.2h-14.6v-59.2h-21.5v-11.9H648V964.5z"/>
		<path class="st9" d="M710.2,952.7v46.8c0,7.8-2.4,13.9-7.3,18.5c-4.9,4.5-11.5,6.8-19.9,6.8c-8.3,0-14.9-2.2-19.8-6.6
			s-7.4-10.4-7.5-18.1v-47.4h14.6v46.9c0,4.7,1.1,8,3.3,10.2c2.2,2.1,5.3,3.2,9.3,3.2c8.2,0,12.4-4.3,12.5-13v-47.3H710.2z"/>
		<path class="st9" d="M722.2,1023.8v-71.1h24.9c8.6,0,15.2,1.7,19.6,5c4.5,3.3,6.7,8.1,6.7,14.5c0,3.5-0.9,6.6-2.7,9.2
			c-1.8,2.7-4.3,4.6-7.5,5.8c3.6,0.9,6.5,2.8,8.6,5.5c2.1,2.8,3.1,6.2,3.1,10.2c0,6.8-2.2,12-6.5,15.5c-4.4,3.5-10.6,5.3-18.7,5.4
			H722.2z M736.8,982.5h10.8c7.4-0.1,11.1-3.1,11.1-8.8c0-3.2-0.9-5.5-2.8-7c-1.9-1.4-4.8-2.1-8.9-2.1h-10.3V982.5z M736.8,992.8
			v19.2h12.5c3.5,0,6.1-0.8,8.1-2.5c1.9-1.6,2.9-3.9,2.9-6.8c0-6.5-3.4-9.8-10.1-9.9H736.8z"/>
		<path class="st9" d="M812.3,997.7h-11.7v26H786v-71.1h26.4c8.4,0,14.9,1.9,19.4,5.6c4.6,3.7,6.8,9,6.8,15.9c0,4.9-1,8.9-3.1,12.1
			s-5.3,5.8-9.5,7.7l15.4,29.1v0.7h-15.7L812.3,997.7z M800.6,985.9h11.8c3.7,0,6.5-0.9,8.5-2.8c2-1.9,3-4.5,3-7.7
			c0-3.4-1-6-2.9-7.9c-1.9-1.9-4.8-2.9-8.8-2.9h-11.8V985.9z"/>
		<path class="st9" d="M908.2,989.8c0,7-1.2,13.1-3.7,18.4c-2.5,5.3-6,9.3-10.6,12.2c-4.6,2.9-9.9,4.3-15.8,4.3
			c-5.9,0-11.1-1.4-15.8-4.2c-4.6-2.8-8.2-6.9-10.7-12.1s-3.8-11.3-3.9-18.1v-3.5c0-7,1.3-13.2,3.8-18.5c2.5-5.3,6.1-9.4,10.7-12.3
			c4.6-2.8,9.9-4.3,15.8-4.3c5.9,0,11.2,1.4,15.8,4.3c4.6,2.8,8.2,6.9,10.7,12.3c2.5,5.3,3.8,11.5,3.8,18.4V989.8z M893.4,986.6
			c0-7.5-1.3-13.1-4-17c-2.7-3.9-6.5-5.8-11.4-5.8c-4.9,0-8.7,1.9-11.4,5.7c-2.7,3.8-4,9.4-4.1,16.8v3.5c0,7.3,1.3,12.9,4,16.9
			c2.7,4,6.5,6,11.5,6c4.9,0,8.7-1.9,11.3-5.8s4-9.5,4-16.9V986.6z"/>
	</g>
</g>
</svg>
