<?xml version="1.0" encoding="utf-8"?>
<!-- Generator: Adobe Illustrator 19.1.0, SVG Export Plug-In . SVG Version: 6.00 Build 0)  -->
<svg version="1.1" xmlns="http://www.w3.org/2000/svg" xmlns:xlink="http://www.w3.org/1999/xlink" x="0px" y="0px"
	 viewBox="0 0 800 800" style="enable-background:new 0 0 800 800;" xml:space="preserve">
<style type="text/css">
	.st0{display:none;fill:url(#SVGID_1_);}
	.st1{fill:#3234A4;stroke:#3234A4;stroke-miterlimit:10;}
	.st2{fill:#F05A24;}
	.st3{fill:#F6921E;}
	.st4{fill:#FAAF3B;}
	.st5{fill:#B0DAFF;}
	.st6{fill:#E5E5E5;}
	.st7{fill:#CBCBCB;}
	.st8{fill:#424242;}
	.st9{fill:#00468C;}
	.st10{fill:#FFFFFF;}
	.st11{fill:#FF0000;}
	.st12{opacity:0.2;fill:#666666;}
</style>
<g id="Background">
	<radialGradient id="SVGID_1_" cx="400" cy="400" r="563.46" gradientUnits="userSpaceOnUse">
		<stop  offset="0" style="stop-color:#FFFFFF;stop-opacity:0"/>
		<stop  offset="0.129" style="stop-color:#FBFBFB;stop-opacity:3.869819e-002"/>
		<stop  offset="0.2617" style="stop-color:#EFEFEF;stop-opacity:7.850212e-002"/>
		<stop  offset="0.3961" style="stop-color:#DADADA;stop-opacity:0.1188"/>
		<stop  offset="0.5317" style="stop-color:#BDBEBD;stop-opacity:0.1595"/>
		<stop  offset="0.6683" style="stop-color:#989998;stop-opacity:0.2005"/>
		<stop  offset="0.8057" style="stop-color:#6B6C6A;stop-opacity:0.2417"/>
		<stop  offset="0.9413" style="stop-color:#363735;stop-opacity:0.2824"/>
		<stop  offset="1" style="stop-color:#1D1E1C;stop-opacity:0.3"/>
	</radialGradient>
	<rect class="st0" width="800" height="800"/>
</g>
<g id="Objects">
	<rect class="st1" width="800" height="800"/>
	<g>
		<rect x="376.9" y="340.7" class="st2" width="46.1" height="170.6"/>
		<rect x="384.4" y="340.7" class="st3" width="31.1" height="170.6"/>
		<path class="st2" d="M555.8,555.1c0-26.3-19.9-48-45.5-50.8c-8.1-10.1-20.6-16.6-34.7-16.6c-18.6,0-34.5,11.4-41.1,27.7
			c-5.9-3.3-12.7-5.2-19.9-5.2c-9.8,0-18.7,3.4-25.8,9.2c-10.8-22.4-33.7-37.8-60.2-37.8c-36.9,0-66.9,30-66.9,66.9
			c0,13.7,4.1,26.5,11.2,37.1c-12.3,8.8-20.4,23.2-20.4,39.5c0,14.7,6.6,27.9,17,36.8c-15.3,11.6-25.1,29.9-25.1,50.5
			c0,35,28.4,63.3,63.3,63.3c33.4,0,60.7-25.8,63.1-58.5c0.7-0.2,1.4-0.5,2.1-0.7c3.8,9,12.7,15.3,23.1,15.3c0.1,0,0.3,0,0.4,0
			c-0.3,2.2-0.4,4.4-0.4,6.6c0,29.2,23.7,52.9,52.9,52.9c24.3,0,44.8-16.4,50.9-38.8c22.2-9.8,37.7-31.9,37.7-57.7
			c0-17.1-6.8-32.6-17.9-44c6.3-6.2,10.2-14.9,10.2-24.5c0-8.8-3.3-16.8-8.7-22.8C541.2,596.7,555.8,577.6,555.8,555.1z"/>
		<path class="st3" d="M462.9,781.2c-16.1,16.1-41.5,17.1-58.8,3.2c-11.2,1.2-22.8-2.4-31.3-11c-11.4-11.4-14.1-28.1-8.2-42
			c-5.6-1.6-10.9-4.6-15.3-9c-6-6-9.3-13.5-10.1-21.3c-20.3,7-43.7,2.5-59.8-13.7c-22.6-22.6-22.6-59.1,0-81.7
			c8.4-8.4,18.7-13.6,29.5-15.8c-2.2-12.9,1.7-26.6,11.7-36.6c9-9,21.1-13,32.8-12.1c-2.3-16.4,2.9-33.6,15.5-46.2
			c21.4-21.4,56-21.4,77.3,0c20.4,20.4,21.3,52.8,2.8,74.3c0.3,0.6,0.6,1.2,0.9,1.8c7.8-3.2,17.1-1.6,23.5,4.7
			c0.1,0.1,0.2,0.2,0.3,0.3c1.2-1.5,2.4-2.9,3.8-4.3c17.8-17.8,46.7-17.8,64.5,0c14.8,14.8,17.3,37.4,7.4,54.8
			c7.6,19.5,3.5,42.5-12.3,58.2c-10.4,10.4-24.1,15.7-37.8,15.9c0,7.7-2.9,15.3-8.7,21.2c-5.4,5.4-12.2,8.2-19.3,8.6
			C479.4,746.9,476.6,767.4,462.9,781.2z"/>
		<path class="st4" d="M276.5,606.8c-5.2-17.6,3.8-36.1,20.4-43c3.4-8.4,10.5-15.3,19.9-18c12.5-3.7,25.4,0.8,33.1,10.4
			c3.3-3.4,7.5-6,12.3-7.4c6.6-1.9,13.2-1.4,19.1,1c2.8-17.1,15.1-32,32.9-37.3c24.7-7.3,50.8,6.8,58.1,31.5
			c2.7,9.2,2.5,18.5-0.1,27.1c10,3.4,18.3,11.5,21.5,22.4c2.9,9.9,1.1,20-4,28c12.5,4.7,22.8,15,26.9,28.8
			c6.9,23.4-6.4,48.1-29.8,55c-22.3,6.6-45.8-5.2-53.9-26.7c-0.5,0-1.1,0-1.6-0.1c-0.7,6.8-5.5,12.8-12.4,14.9c-0.1,0-0.2,0-0.3,0.1
			c0.6,1.4,1.2,2.9,1.6,4.4c5.8,19.6-5.4,40.1-24.9,45.9c-16.3,4.8-33.3-2.1-41.8-15.9c-16.8-2.1-31.6-13.9-36.7-31.2
			c-3.4-11.5-1.9-23.2,3.2-33c-5.5-2.9-9.8-8-11.7-14.4c-1.7-5.9-1.1-11.9,1.3-17C294.5,631.7,281,621.8,276.5,606.8z"/>
		<rect x="391.2" y="340.7" class="st4" width="17.6" height="198"/>
	</g>
	<g>
		<path class="st5" d="M662.6,711.9c-5.6,0-10.7,1.8-14.9,4.8c-1-19.9-17.4-35.8-37.6-35.8c-6.4,0-12.4,1.6-17.7,4.4
			c2.4-6.2,3.8-13,3.8-20.1c0-30.5-24.7-55.2-55.2-55.2c-18.3,0-34.5,8.9-44.6,22.6l-10.6,10.2c-2-2.1-4.2-3.9-6.6-5.5l-12.3-5.3
			c-2.9-0.7-5.9-1.1-9.1-1.1c-6.9,0-13.4,1.8-19,5c-2.4-11-10.3-19.9-20.6-23.8l-6.3-1.7c-1.8-0.3-3.5-0.4-5.4-0.4
			c-1.2,0-2.3,0.1-3.4,0.2l-6.2,1.3c-0.4,0.1-0.9,0.3-1.3,0.4c-10.9-17.3-28.8-29.8-49.8-33.5l-10.4-1.1c-0.8,0-1.6,0-2.3,0
			c-1.5,0-3,0.1-4.5,0.1l-11,1.5c-29.8,6.4-52.9,30.7-57.5,61.1c-1.2-0.1-2.4-0.1-3.6-0.1c-24.8,0-45.5,17.8-50,41.3
			c-7.5,1.3-13.9,5.8-17.9,12.2c-6.9-4.8-15.7-7.8-25.3-7.8c-22.2,0-40.3,15.6-40.3,34.8c0,19.2,18,34.8,40.3,34.8
			c3.2,0,6.3-0.3,9.3-0.9c22.6,15.4,122.6,27.1,242.6,27.1c108.1,0,200-9.5,233.7-22.6c4,2.6,8.7,4,13.7,4
			c14.1,0,25.5-11.4,25.5-25.5C688,723.3,676.6,711.9,662.6,711.9z M299.7,717.9c0.1-0.2,0.3-0.4,0.4-0.6c0.4,0.2,0.7,0.4,1.1,0.5
			C300.7,717.8,300.2,717.8,299.7,717.9z"/>
		<path class="st6" d="M70.7,800h653.8c3.1-4.7,4.8-9.8,4.8-15.2c0-21.7-27.7-39.2-61.9-39.2c-5.7,0-11.3,0.5-16.6,1.4
			c-3.8-21.5-22.4-37.8-44.7-37.8c-2.8,0-5.5,0.3-8.1,0.7c-10-21.5-33.1-36.5-60-36.5c-22.9,0-43,10.9-54.7,27.3
			c-5.7-3.8-12.6-6-20-6c-14.6,0-27.1,8.6-32.6,20.8c-17.8-18.9-44.5-30.9-74.5-30.9c-37.3,0-69.6,18.7-85.9,46
			c-6.2-4-13.4-6.3-21.2-6.3c-11.7,0-22.3,5.3-29.8,13.8c-13.9-13.8-36.6-22.8-62.3-22.8c-42.3,0-76.5,24.3-76.5,54.4
			c0,6.5,1.6,12.8,4.6,18.6C78.5,791.7,73.6,795.7,70.7,800z"/>
	</g>
	<g>
		<g>
			<rect x="373.1" y="315.7" class="st6" width="53.9" height="27.1"/>
			<rect x="408.4" y="315.7" class="st7" width="18.5" height="27.1"/>
			<path class="st8" d="M355.2,235.2c0,0-67.9,55.3-14.8,120c0,0,0-40.4,35.1-40.4C410.6,314.8,355.2,235.2,355.2,235.2z"/>
			<path class="st9" d="M444.8,235.2c0,0,67.9,55.3,14.8,120c0,0,0-40.4-35.1-40.4C389.4,314.8,444.8,235.2,444.8,235.2z"/>
			<path class="st8" d="M444.8,235.2c0,0,67.9,55.3,14.8,120c0,0,0-40.4-35.1-40.4C389.4,314.8,444.8,235.2,444.8,235.2z"/>
			<path class="st10" d="M428.2,330.6c17.1-28.8,28.6-82.1,28.6-138.2c0-83.3-42.2-141.1-56.8-141.1c-14.6,0-56.8,57.9-56.8,141.1
				c0,56.1,11.5,109.3,28.6,138.2H428.2z"/>
			<path class="st8" d="M402.2,236.5c0.3,0.4,0.6,1,1,1.6c0.4,0.6,0.8,1.4,1.3,2.2c1.8,3.3,3.9,8,5.5,13.6c0.8,2.8,1.6,5.9,2.1,9.1
				c0.6,3.2,0.9,6.6,0.9,10.1c0,1.8-0.2,3.5-0.4,5.4c-0.2,1.8-0.6,3.6-0.9,5.5c-0.7,3.7-2.5,18.7-2.9,22.4
				c-0.4,3.7-0.9,7.3-1.4,10.8c-0.5,3.5-1,6.9-1.5,10.1c-0.5,3.2-1,6.3-1.4,9.1c-0.4,2.8-0.9,5.4-1.3,7.7c-0.4,2.3-0.7,4.3-1,5.9
				c-0.6,3.3-1,5.2-1,5.2L400,363l-1.2-7.8c0,0-0.4-1.9-1-5.2c-0.3-1.6-0.7-3.6-1-5.9c-0.4-2.3-0.8-4.9-1.3-7.7
				c-0.4-2.8-0.9-5.9-1.4-9.1c-0.5-3.2-0.9-6.6-1.5-10.1c-0.5-3.5-1-7.2-1.4-10.8c-0.5-3.7-2.3-18.7-2.9-22.4
				c-0.3-1.8-0.6-3.7-0.9-5.5c-0.2-1.8-0.4-3.6-0.4-5.4c-0.1-3.5,0.3-6.9,0.9-10.1c0.5-3.2,1.3-6.3,2.1-9.1
				c1.6-5.6,3.7-10.3,5.5-13.6c0.4-0.8,0.9-1.6,1.3-2.2c0.4-0.6,0.7-1.2,1-1.6c0.6-0.9,1.3-1.3,2.2-1.3
				C400.9,235.2,401.6,235.6,402.2,236.5z"/>
			<path class="st11" d="M438.2,99.9c-13.2-30.5-30-48.6-38.2-48.6c-8.2,0-25,18.1-38.2,48.6c0,0,7.7,6.4,38.2,6.4
				C430.4,106.3,438.2,99.9,438.2,99.9z"/>
			<path d="M400,147.2c-11.1,0-20,9-20,20c0,11.1,9,20,20,20c11.1,0,20-9,20-20C420,156.2,411.1,147.2,400,147.2z"/>
			<path class="st8" d="M400,140.3c-14.9,0-26.9,12.1-26.9,26.9c0,14.9,12.1,26.9,26.9,26.9c14.9,0,26.9-12.1,26.9-26.9
				C426.9,152.4,414.9,140.3,400,140.3z M400,187.3c-11.1,0-20-9-20-20c0-11.1,9-20,20-20c11.1,0,20,9,20,20
				C420,178.3,411.1,187.3,400,187.3z"/>
			<path class="st12" d="M428.2,330.6c17.1-28.8,28.6-82.1,28.6-138.2c0-83.3-42.2-141.1-56.8-141.1c0,0,38.2,57.9,38.2,141.1
				c0,56.1-29.8,138.2-29.8,138.2H428.2z"/>
		</g>
	</g>
</g>
</svg>
