<?xml version="1.0" encoding="utf-8"?>
<!-- Generator: Adobe Illustrator 19.1.0, SVG Export Plug-In . SVG Version: 6.00 Build 0)  -->
<svg version="1.1" id="Layer_1" xmlns="http://www.w3.org/2000/svg" xmlns:xlink="http://www.w3.org/1999/xlink" x="0px" y="0px"
	 viewBox="0 0 1562 524.28" enable-background="new 0 0 1562 524.28" xml:space="preserve">
<g>
	<g>
		<g>
			<path fill="#77C159" d="M132.227,201.398l0.035,147.555c-0.01,13.422,10.845,24.255,24.26,24.258l16.519,0.007l0.019,50.379
				c-0.003,12.541,10.193,22.739,22.72,22.739c12.564,0,22.742-10.206,22.746-22.755l-0.013-50.369l30.696-0.006l0.013,50.377
				c-0.003,12.535,10.199,22.749,22.729,22.728c12.563,0.008,22.747-10.198,22.745-22.749l-0.014-50.363l16.576-0.013
				c13.383,0.005,24.268-10.844,24.271-24.266l-0.025-147.558L132.227,201.398z"/>
			<path fill="#77C159" d="M284.02,111.603l15.869-28.981c0.847-1.514,0.291-3.443-1.244-4.298c-1.548-0.819-3.46-0.263-4.278,1.262
				l-16.029,29.283c-13.491-6.001-28.582-9.37-44.553-9.352c-15.929-0.014-31.016,3.341-44.448,9.308L173.291,79.62
				c-0.835-1.542-2.754-2.099-4.27-1.259c-1.544,0.831-2.108,2.763-1.253,4.274l15.877,28.959
				c-31.195,16.089-52.271,46.724-52.254,81.896l204.81-0.021C336.207,158.301,315.168,127.731,284.02,111.603z M187.202,156.385
				c-4.716-0.01-8.559-3.844-8.56-8.581c0.002-4.718,3.835-8.597,8.567-8.596c4.748-0.004,8.59,3.878,8.596,8.594
				C195.808,152.535,191.958,156.382,187.202,156.385z M280.459,156.369c-4.734,0.005-8.589-3.834-8.588-8.585
				c0.016-4.704,3.848-8.588,8.592-8.604c4.709,0.014,8.572,3.896,8.568,8.609C289.042,152.53,285.193,156.37,280.459,156.369z"/>
			<path fill="#77C159" d="M100.666,197.105c-12.556-0.006-22.732,10.19-22.735,22.735l0.017,95.213
				c0.003,12.588,10.184,22.745,22.74,22.743c12.565,0.001,22.742-10.162,22.729-22.742l0.002-95.227
				C123.414,207.286,113.223,197.096,100.666,197.105z"/>
			<path fill="#77C159" d="M389.744,219.806c-0.002-12.557-10.18-22.734-22.736-22.732c-12.555-0.01-22.732,10.186-22.729,22.743
				l0.016,95.215c-0.001,12.57,10.172,22.729,22.736,22.733c12.555-0.002,22.727-10.163,22.729-22.743L389.744,219.806z"/>
		</g>
	</g>
	<g id="layer1" transform="translate(-179.26877,-230.52878)">
		<g id="flowRoot2998" transform="matrix(7.7439837,0,0,7.7439837,-594.90188,-3797.1703)">
			<path id="path3007" fill="#77C159" d="M162.609,557.513c0-1.458,0.244-2.819,0.732-4.082
				c0.488-1.263,1.172-2.363,2.051-3.301s1.93-1.673,3.154-2.207c1.224-0.534,2.565-0.801,4.023-0.801
				c1.107,0,2.113,0.163,3.018,0.488c0.905,0.326,1.781,0.859,2.627,1.602v-1.699h4.961v20h-4.961v-1.699
				c-0.846,0.742-1.722,1.276-2.627,1.602c-0.905,0.326-1.911,0.488-3.018,0.488c-1.458,0-2.799-0.267-4.023-0.801
				c-1.224-0.534-2.275-1.27-3.154-2.207s-1.563-2.038-2.051-3.301S162.609,558.971,162.609,557.513z M173.214,563.235
				c0.391,0,0.801-0.042,1.23-0.127c0.43-0.085,0.863-0.228,1.299-0.43c0.436-0.202,0.863-0.472,1.279-0.811
				c0.417-0.339,0.814-0.755,1.191-1.25v-6.211c-0.378-0.495-0.775-0.908-1.191-1.24c-0.417-0.332-0.843-0.602-1.279-0.811
				c-0.436-0.208-0.869-0.355-1.299-0.439c-0.43-0.085-0.84-0.127-1.23-0.127c-0.768,0-1.488,0.143-2.158,0.43
				c-0.671,0.286-1.253,0.687-1.748,1.201c-0.495,0.514-0.882,1.12-1.162,1.816c-0.28,0.697-0.42,1.455-0.42,2.275
				s0.14,1.579,0.42,2.275c0.28,0.697,0.667,1.302,1.162,1.816c0.495,0.514,1.077,0.915,1.748,1.201
				C171.727,563.092,172.446,563.235,173.214,563.235z"/>
			<path id="path3027" fill="#77C159" d="M195.577,552.059
				c-2.351,0.017-4.393,1.655-4.393,4.086v11.367h-4.961v-11.23c0.028-4.683,4.083-9.097,9.283-9.16h0.139
				c5.199,0.063,9.255,4.477,9.283,9.16v11.23h-4.961v-11.367c0-2.431-2.042-4.069-4.393-4.086"/>
			<path id="path3011" fill="#77C159" d="M207.275,557.513c0-1.458,0.244-2.819,0.732-4.082
				c0.488-1.263,1.172-2.363,2.051-3.301s1.93-1.673,3.154-2.207c1.224-0.534,2.565-0.801,4.023-0.801
				c1.107,0,2.116,0.163,3.027,0.488c0.911,0.326,1.784,0.853,2.617,1.582v-7.676h4.961v25.996h-4.961v-1.68
				c-0.833,0.742-1.706,1.273-2.617,1.592c-0.911,0.319-1.921,0.479-3.027,0.479c-1.458,0-2.799-0.267-4.023-0.801
				c-1.224-0.534-2.275-1.27-3.154-2.207c-0.879-0.938-1.563-2.038-2.051-3.301S207.275,558.971,207.275,557.513L207.275,557.513z
				 M217.881,563.235c0.391,0,0.801-0.042,1.23-0.127c0.43-0.085,0.863-0.228,1.299-0.43c0.436-0.202,0.863-0.472,1.279-0.811
				c0.417-0.339,0.814-0.755,1.191-1.25v-6.211c-0.378-0.495-0.775-0.908-1.191-1.24c-0.417-0.332-0.843-0.602-1.279-0.811
				c-0.436-0.208-0.869-0.355-1.299-0.439c-0.43-0.085-0.84-0.127-1.23-0.127c-0.768,0-1.488,0.143-2.158,0.43
				c-0.671,0.286-1.253,0.687-1.748,1.201c-0.495,0.514-0.882,1.12-1.162,1.816c-0.28,0.697-0.42,1.455-0.42,2.275
				c0,0.82,0.14,1.579,0.42,2.275c0.28,0.697,0.667,1.302,1.162,1.816c0.495,0.514,1.077,0.915,1.748,1.201
				C216.393,563.092,217.112,563.235,217.881,563.235z"/>
			<path id="path3015" fill="#77C159" d="M251.073,563.235c0.742,0,1.442-0.14,2.1-0.42
				c0.658-0.28,1.23-0.674,1.719-1.182c0.488-0.508,0.872-1.11,1.152-1.807c0.28-0.697,0.42-1.468,0.42-2.314
				c0-0.833-0.143-1.598-0.43-2.295s-0.677-1.299-1.172-1.807c-0.495-0.508-1.068-0.905-1.719-1.191
				c-0.651-0.286-1.341-0.43-2.07-0.43c-0.742,0-1.442,0.143-2.1,0.43c-0.658,0.286-1.23,0.684-1.719,1.191
				c-0.488,0.508-0.876,1.11-1.162,1.807c-0.286,0.697-0.43,1.462-0.43,2.295c0,0.846,0.14,1.618,0.42,2.314
				c0.28,0.697,0.664,1.299,1.152,1.807c0.488,0.508,1.061,0.902,1.719,1.182C249.612,563.095,250.318,563.235,251.073,563.235
				L251.073,563.235z M251.073,567.903c-1.445,0-2.806-0.26-4.082-0.781c-1.276-0.521-2.393-1.247-3.35-2.178
				s-1.712-2.031-2.266-3.301c-0.553-1.27-0.83-2.646-0.83-4.131c0-1.445,0.277-2.799,0.83-4.063
				c0.553-1.263,1.305-2.363,2.256-3.301s2.067-1.676,3.35-2.217c1.283-0.54,2.646-0.811,4.092-0.811
				c1.445,0,2.806,0.27,4.082,0.811c1.276,0.54,2.389,1.279,3.34,2.217s1.702,2.038,2.256,3.301c0.553,1.263,0.83,2.617,0.83,4.063
				c0,1.484-0.277,2.861-0.83,4.131c-0.553,1.27-1.309,2.37-2.266,3.301s-2.07,1.657-3.34,2.178
				C253.876,567.643,252.519,567.903,251.073,567.903z"/>
			<path id="path3023" fill="#77C159" d="M266.285,545.947c-0.402,0-0.782-0.078-1.14-0.236
				c-0.358-0.157-0.672-0.37-0.942-0.641c-0.27-0.27-0.484-0.584-0.641-0.942c-0.157-0.358-0.236-0.738-0.236-1.14
				s0.079-0.785,0.236-1.149c0.157-0.364,0.371-0.681,0.641-0.951c0.27-0.27,0.584-0.484,0.942-0.641
				c0.358-0.157,0.738-0.235,1.14-0.236c0.402,0,0.785,0.078,1.149,0.236s0.681,0.371,0.951,0.641
				c0.27,0.27,0.484,0.587,0.641,0.951c0.157,0.364,0.236,0.747,0.236,1.149c0,0.402-0.079,0.782-0.236,1.14
				c-0.157,0.358-0.371,0.672-0.641,0.942c-0.27,0.27-0.587,0.484-0.951,0.641C267.07,545.868,266.686,545.947,266.285,545.947z"/>
			<path id="path3017" fill="#77C159" d="M263.804,547.513h4.961v20h-4.961V547.513z"/>
			<path id="path3019" fill="#77C159" d="M271.046,557.513c0-1.458,0.244-2.819,0.732-4.082
				c0.488-1.263,1.172-2.363,2.051-3.301s1.93-1.673,3.154-2.207c1.224-0.534,2.565-0.801,4.023-0.801
				c1.107,0,2.116,0.163,3.027,0.488c0.911,0.326,1.784,0.853,2.617,1.582v-7.676h4.961v25.996h-4.961v-1.68
				c-0.833,0.742-1.706,1.273-2.617,1.592c-0.911,0.319-1.921,0.479-3.027,0.479c-1.458,0-2.799-0.267-4.023-0.801
				s-2.275-1.27-3.154-2.207s-1.563-2.038-2.051-3.301S271.046,558.971,271.046,557.513z M281.651,563.235
				c0.391,0,0.801-0.042,1.23-0.127c0.43-0.085,0.863-0.228,1.299-0.43c0.436-0.202,0.863-0.472,1.279-0.811
				c0.417-0.339,0.814-0.755,1.191-1.25v-6.211c-0.378-0.495-0.775-0.908-1.191-1.24c-0.417-0.332-0.843-0.602-1.279-0.811
				c-0.436-0.208-0.869-0.355-1.299-0.439c-0.43-0.085-0.84-0.127-1.23-0.127c-0.768,0-1.488,0.143-2.158,0.43
				c-0.671,0.286-1.253,0.687-1.748,1.201c-0.495,0.514-0.882,1.12-1.162,1.816s-0.42,1.455-0.42,2.275s0.14,1.579,0.42,2.275
				c0.28,0.697,0.667,1.302,1.162,1.816s1.077,0.915,1.748,1.201C280.164,563.092,280.883,563.235,281.651,563.235z"/>
			<path id="path3030" fill="#77C159" d="M240.073,551.999
				c-3.325,0-4.791,1.715-4.791,4.146v11.367h-4.961v-11.23c0.028-4.683,2.733-9.287,9.752-9.287"/>
		</g>
	</g>
</g>
<g>
</g>
<g>
</g>
</svg>
