<?xml version="1.0" encoding="utf-8"?>
<!-- Generator: Adobe Illustrator 19.1.0, SVG Export Plug-In . SVG Version: 6.00 Build 0)  -->
<svg version="1.1"
	 id="Layer_1" xmlns:sodipodi="http://sodipodi.sourceforge.net/DTD/sodipodi-0.dtd" xmlns:inkscape="http://www.inkscape.org/namespaces/inkscape" xmlns:svg="http://www.w3.org/2000/svg" xmlns:rdf="http://www.w3.org/1999/02/22-rdf-syntax-ns#" xmlns:cc="http://creativecommons.org/ns#" xmlns:dc="http://purl.org/dc/elements/1.1/" inkscape:version="0.48.4 r9939" sodipodi:docname="anything.svg"
	 xmlns="http://www.w3.org/2000/svg" xmlns:xlink="http://www.w3.org/1999/xlink" x="0px" y="0px" viewBox="-145 197 880 400"
	 style="enable-background:new -145 197 880 400;" xml:space="preserve">
<style type="text/css">
	.st0{clip-path:url(#SVGID_2_);fill:none;}
	.st1{clip-path:url(#SVGID_2_);}
	.st2{fill:none;stroke:#000000;stroke-width:1.3489;stroke-miterlimit:10;}
	.st3{fill:none;stroke:#000000;stroke-width:1.3489;stroke-miterlimit:10;stroke-dasharray:2.7125,2.7125;}
	.st4{fill:none;stroke:#000000;stroke-width:1.3489;stroke-miterlimit:10;stroke-dasharray:3.2952,3.2952;}
	.st5{clip-path:url(#SVGID_4_);fill:#171617;stroke:#000000;stroke-width:1.1789;stroke-miterlimit:10;}
	.st6{clip-path:url(#SVGID_6_);fill:#171617;stroke:#000000;stroke-width:1.1789;stroke-miterlimit:10;}
	.st7{clip-path:url(#SVGID_8_);}
	.st8{fill:#FFFFFF;}
	.st9{clip-path:url(#SVGID_10_);fill:none;stroke:#000000;stroke-width:1.1789;stroke-miterlimit:10;}
	.st10{clip-path:url(#SVGID_12_);fill:none;stroke:#000000;stroke-width:1.1789;stroke-miterlimit:10;}
	.st11{clip-path:url(#SVGID_14_);fill:none;stroke:#000000;stroke-width:1.1789;stroke-miterlimit:10;}
	.st12{clip-path:url(#SVGID_16_);fill:none;stroke:#000000;stroke-width:1.1789;stroke-miterlimit:10;}
	.st13{fill:none;stroke:#000000;stroke-width:1.3195;stroke-miterlimit:10;}
	.st14{fill:none;stroke:#000000;stroke-width:1.3195;stroke-miterlimit:10;stroke-dasharray:2.6502,2.6502;}
	.st15{fill:none;stroke:#000000;stroke-width:1.3195;stroke-miterlimit:10;stroke-dasharray:1.53,1.53;}
	.st16{clip-path:url(#SVGID_18_);}
	.st17{fill:#171617;stroke:#000000;stroke-width:1.1388;stroke-miterlimit:10;}
	.st18{fill:none;stroke:#000000;stroke-width:1.1388;stroke-miterlimit:10;}
	.st19{fill:none;stroke:#000000;stroke-width:1.3195;stroke-miterlimit:10;stroke-dasharray:3.1364,3.1364;}
	.st20{clip-path:url(#SVGID_20_);}
	.st21{fill:#FFCE09;stroke:#F89839;stroke-width:1.5509;stroke-miterlimit:10;}
	.st22{fill:#FFCE09;}
	.st23{fill:none;stroke:#F89839;stroke-width:1.5509;stroke-miterlimit:10;}
	.st24{clip-path:url(#SVGID_22_);fill:#FFFFFF;stroke:#000000;stroke-width:0.9126;stroke-miterlimit:10;}
	.st25{clip-path:url(#SVGID_24_);}
	.st26{clip-path:url(#SVGID_26_);}
	.st27{fill:none;stroke:#000000;stroke-width:1.0374;stroke-miterlimit:10;}
	.st28{fill:none;stroke:#000000;stroke-width:1.0374;stroke-miterlimit:10;stroke-dasharray:1.1336,1.1336;}
	.st29{fill:none;stroke:#000000;stroke-width:1.0374;stroke-miterlimit:10;stroke-dasharray:2.0369,2.0369;}
	.st30{clip-path:url(#SVGID_28_);}
	.st31{fill:#171617;stroke:#000000;stroke-width:1.1242;stroke-miterlimit:10;}
	.st32{fill:none;stroke:#000000;stroke-width:1.1242;stroke-miterlimit:10;}
	.st33{clip-path:url(#SVGID_30_);}
	.st34{fill:none;stroke:#3399CC;stroke-width:1.1138;stroke-miterlimit:10;}
	.st35{fill:none;stroke:#3399CC;stroke-width:1.1138;stroke-miterlimit:10;stroke-dasharray:2.2253,2.2253;}
	.st36{fill:none;stroke:#3399CC;stroke-width:1.1138;stroke-miterlimit:10;stroke-dasharray:2.1467,2.1467;}
	.st37{clip-path:url(#SVGID_32_);}
	.st38{fill:#3399CC;stroke:#1E314B;stroke-width:1.7807;stroke-miterlimit:10;}
	.st39{fill:none;stroke:#1E314B;stroke-width:1.7807;stroke-miterlimit:10;}
	.st40{clip-path:url(#SVGID_34_);fill:#FFFFFF;stroke:#000000;stroke-width:0.8903;stroke-miterlimit:10;}
	.st41{clip-path:url(#SVGID_36_);}
	.st42{fill:none;stroke:#000000;stroke-miterlimit:10;}
	.st43{fill:none;stroke:#000000;stroke-miterlimit:10;stroke-dasharray:0.8537,0.8537;}
	.st44{fill:none;stroke:#000000;stroke-miterlimit:10;stroke-dasharray:1.0298,1.0298;}
	.st45{fill:none;stroke:#000000;stroke-miterlimit:10;stroke-dasharray:1.0147,1.0147;}
	.st46{fill:none;stroke:#000000;stroke-miterlimit:10;stroke-dasharray:0.9642,0.9642;}
	.st47{fill:none;stroke:#000000;stroke-miterlimit:10;stroke-dasharray:1.024,1.024;}
	.st48{fill:none;stroke:#000000;stroke-miterlimit:10;stroke-dasharray:0.965,0.965;}
	.st49{fill:none;stroke:#000000;stroke-miterlimit:10;stroke-dasharray:0.9547,0.9547;}
	.st50{clip-path:url(#SVGID_38_);}
	.st51{clip-path:url(#SVGID_40_);}
	.st52{fill:#FFFFFF;stroke:#000000;stroke-width:0.9736;stroke-miterlimit:10;}
	.st53{fill:#010101;stroke:#FFFFFF;stroke-width:0.4013;stroke-miterlimit:10;}
	.st54{fill:#3399CC;}
	.st55{fill:#996699;}
	.st56{fill:#F89839;}
	.st57{fill:#EE3968;}
	.st58{fill:#6EC498;}
	.st59{fill:none;stroke:#FFFFFF;stroke-width:1.2037;stroke-miterlimit:10;}
	.st60{fill:none;stroke:#FFFFFF;stroke-width:1.2037;stroke-miterlimit:10;stroke-dasharray:2.7321,2.7321;}
	.st61{fill:none;stroke:#FFFFFF;stroke-width:1.2037;stroke-miterlimit:10;stroke-dasharray:2.9305,2.9305;}
</style>
<sodipodi:namedview  guidetolerance="10" gridtolerance="10" inkscape:zoom="1.2929953" inkscape:cx="219.77233" inkscape:cy="290.58832" fit-margin-top="0" fit-margin-left="0" showgrid="false" bordercolor="#666666" pagecolor="#ffffff" borderopacity="1" objecttolerance="10" id="namedview249" inkscape:pageshadow="2" inkscape:window-width="1680" inkscape:window-y="24" inkscape:window-maximized="1" inkscape:current-layer="Layer_1" fit-margin-right="0" inkscape:window-height="1026" fit-margin-bottom="0" inkscape:pageopacity="0" inkscape:window-x="0">
	</sodipodi:namedview>
<g>
	<defs>
		<rect id="SVGID_1_" x="-145" y="197" width="880" height="400"/>
	</defs>
	<clipPath id="SVGID_2_">
		<use xlink:href="#SVGID_1_"  style="overflow:visible;"/>
	</clipPath>
	<rect x="-5" y="197" class="st0" width="600" height="400"/>
	<g class="st1">
		<g>
			<polyline class="st2" points="179.2,397.9 179.2,398.9 177.5,398.9 			"/>
			<line class="st3" x1="174" y1="398.9" x2="-152.4" y2="398.9"/>
			<polyline class="st2" points="-154.1,398.9 -156,398.9 -156,397.9 			"/>
			<line class="st4" x1="-156" y1="395.4" x2="-156" y2="391.6"/>
			<polyline class="st2" points="-156,390.4 -156,389.4 -154.1,389.4 			"/>
			<line class="st3" x1="-150.6" y1="389.4" x2="175.7" y2="389.4"/>
			<polyline class="st2" points="177.5,389.4 179.2,389.4 179.2,390.4 			"/>
			<line class="st4" x1="179.2" y1="392.9" x2="179.2" y2="396.6"/>
		</g>
	</g>
	<g class="st1">
		<defs>
			<rect id="SVGID_3_" x="-5" y="197" width="600" height="400"/>
		</defs>
		<clipPath id="SVGID_4_">
			<use xlink:href="#SVGID_3_"  style="overflow:visible;"/>
		</clipPath>
		<polygon class="st5" points="163.3,398.9 166.1,401.2 178.5,401.2 178.5,387.1 166.1,387.1 163.3,389.4 		"/>
	</g>
	<g class="st1">
		<defs>
			<rect id="SVGID_5_" x="-5" y="197" width="600" height="400"/>
		</defs>
		<clipPath id="SVGID_6_">
			<use xlink:href="#SVGID_5_"  style="overflow:visible;"/>
		</clipPath>
		<polygon class="st6" points="227,411.1 191.8,411.1 178.5,407.3 178.5,381 191.7,377.2 227,377.2 		"/>
	</g>
	<g class="st1">
		<defs>
			<rect id="SVGID_7_" x="-5" y="197" width="600" height="400"/>
		</defs>
		<clipPath id="SVGID_8_">
			<use xlink:href="#SVGID_7_"  style="overflow:visible;"/>
		</clipPath>
		<g class="st7">
			<path class="st8" d="M198.7,386.1v1.5H192v-1.5h2.8v-2.5H192v-1.5h6.6v1.5h-2.5v2.5H198.7z"/>
			<path class="st8" d="M195.4,394.9c-0.6,0-1.1-0.1-1.5-0.3c-0.4-0.2-0.8-0.4-1.1-0.8c-0.3-0.3-0.5-0.7-0.6-1.2s-0.2-1-0.2-1.6
				c0-0.3,0-0.6,0-0.9c0-0.4,0.1-0.7,0.1-1.1h6.5c0.1,0.3,0.1,0.7,0.1,1.1s0,0.7,0,1c0,0.6-0.1,1.1-0.2,1.5
				c-0.1,0.5-0.3,0.9-0.6,1.2c-0.3,0.3-0.6,0.6-1.1,0.8C196.5,394.8,196,394.9,195.4,394.9z M193.2,390.6c0,0.1,0,0.2,0,0.2
				c0,0.1,0,0.2,0,0.3c0,0.7,0.2,1.3,0.6,1.7c0.4,0.4,0.9,0.5,1.6,0.5c0.7,0,1.2-0.2,1.6-0.5c0.4-0.3,0.5-0.9,0.5-1.6
				c0-0.1,0-0.2,0-0.3c0-0.1,0-0.2,0-0.3L193.2,390.6L193.2,390.6z"/>
			<path class="st8" d="M198.7,397.9c-0.2,0.1-0.5,0.2-0.8,0.4c-0.3,0.2-0.6,0.3-1,0.5s-0.7,0.3-1.1,0.5c-0.4,0.2-0.7,0.3-1.1,0.5
				c0.3,0.1,0.7,0.3,1.1,0.4c0.4,0.2,0.7,0.3,1.1,0.5c0.4,0.2,0.7,0.3,1,0.5c0.3,0.1,0.6,0.3,0.8,0.4v1.4c-0.4,0.1-0.9,0.1-1.5,0.2
				c-0.5,0.1-1.1,0.1-1.7,0.1c-0.6,0-1.2,0.1-1.8,0.1s-1.2,0.1-1.7,0.1V402c0.6,0,1.3,0,2.1-0.1c0.8,0,1.5-0.1,2.3-0.1
				c-0.3-0.1-0.6-0.2-0.9-0.4c-0.3-0.1-0.7-0.3-1-0.4s-0.6-0.3-0.9-0.4c-0.3-0.1-0.6-0.2-0.8-0.3v-1c0.2-0.1,0.5-0.2,0.8-0.3
				c0.3-0.1,0.6-0.3,0.9-0.4c0.3-0.1,0.7-0.3,1-0.4s0.6-0.3,0.9-0.4c-0.8-0.1-1.5-0.1-2.3-0.1s-1.5-0.1-2.1-0.1v-1.5
				c0.5,0,1.1,0.1,1.7,0.1c0.6,0,1.2,0.1,1.8,0.1s1.2,0.1,1.7,0.1s1,0.1,1.5,0.2V397.9z"/>
			<path class="st8" d="M198.7,404.7v1.5H192v-1.5H198.7z"/>
		</g>
	</g>
	<g class="st1">
		<defs>
			<rect id="SVGID_9_" x="-5" y="197" width="600" height="400"/>
		</defs>
		<clipPath id="SVGID_10_">
			<use xlink:href="#SVGID_9_"  style="overflow:visible;"/>
		</clipPath>
		<line class="st9" x1="175.7" y1="387.1" x2="175.7" y2="401.2"/>
	</g>
	<g class="st1">
		<defs>
			<rect id="SVGID_11_" x="-5" y="197" width="600" height="400"/>
		</defs>
		<clipPath id="SVGID_12_">
			<use xlink:href="#SVGID_11_"  style="overflow:visible;"/>
		</clipPath>
		<line class="st10" x1="172.8" y1="387.1" x2="172.8" y2="401.2"/>
	</g>
	<g class="st1">
		<defs>
			<rect id="SVGID_13_" x="-5" y="197" width="600" height="400"/>
		</defs>
		<clipPath id="SVGID_14_">
			<use xlink:href="#SVGID_13_"  style="overflow:visible;"/>
		</clipPath>
		<line class="st11" x1="169.9" y1="387.1" x2="169.9" y2="401.2"/>
	</g>
	<g class="st1">
		<defs>
			<rect id="SVGID_15_" x="-5" y="197" width="600" height="400"/>
		</defs>
		<clipPath id="SVGID_16_">
			<use xlink:href="#SVGID_15_"  style="overflow:visible;"/>
		</clipPath>
		<line class="st12" x1="167" y1="387.1" x2="167" y2="401.2"/>
	</g>
	<rect x="-5" y="197" class="st0" width="600" height="400"/>
	<g class="st1">
		<g>
			<polyline class="st13" points="742,427.9 742,428.9 740.3,428.9 			"/>
			<line class="st14" x1="736.9" y1="428.9" x2="400.1" y2="428.9"/>
			<polyline class="st13" points="398.4,428.9 396.7,428.9 396.7,427.9 			"/>
			<line class="st15" x1="396.7" y1="426.7" x2="396.7" y2="425"/>
			<polyline class="st13" points="396.7,424.4 396.7,423.4 398.4,423.4 			"/>
			<line class="st14" x1="401.8" y1="423.4" x2="738.6" y2="423.4"/>
			<polyline class="st13" points="740.3,423.4 742,423.4 742,424.4 			"/>
			<line class="st15" x1="742" y1="425.6" x2="742" y2="427.3"/>
		</g>
	</g>
	<g class="st1">
		<defs>
			<rect id="SVGID_17_" x="-5" y="197" width="600" height="400"/>
		</defs>
		<clipPath id="SVGID_18_">
			<use xlink:href="#SVGID_17_"  style="overflow:visible;"/>
		</clipPath>
		<g class="st16">
			<polygon class="st17" points="412.7,422.5 412.7,429.8 400.8,431.6 380.5,431.6 380.5,420.6 400.8,420.6 			"/>
			<line class="st18" x1="400.8" y1="420.6" x2="400.8" y2="431.6"/>
			<line class="st18" x1="403.3" y1="421" x2="403.3" y2="431.3"/>
			<line class="st18" x1="405.5" y1="421.4" x2="405.5" y2="430.9"/>
			<line class="st18" x1="407.6" y1="421.7" x2="407.7" y2="430.6"/>
			<line class="st18" x1="409.5" y1="422" x2="409.5" y2="430.3"/>
			<line class="st18" x1="411.2" y1="422.2" x2="411.2" y2="430.1"/>
		</g>
	</g>
	<rect x="-5" y="197" class="st0" width="600" height="400"/>
	<g class="st1">
		<g>
			<polyline class="st13" points="742,374.7 742,375.7 740.3,375.7 			"/>
			<line class="st14" x1="736.9" y1="375.7" x2="400.1" y2="375.7"/>
			<polyline class="st13" points="398.4,375.7 396.7,375.7 396.7,374.7 			"/>
			<line class="st19" x1="396.7" y1="372.3" x2="396.7" y2="368.7"/>
			<polyline class="st13" points="396.7,367.5 396.7,366.5 398.4,366.5 			"/>
			<line class="st14" x1="401.8" y1="366.5" x2="738.6" y2="366.5"/>
			<polyline class="st13" points="740.3,366.5 742,366.5 742,367.5 			"/>
			<line class="st19" x1="742" y1="369.9" x2="742" y2="373.5"/>
		</g>
	</g>
	<g class="st1">
		<defs>
			<rect id="SVGID_19_" x="-5" y="197" width="600" height="400"/>
		</defs>
		<clipPath id="SVGID_20_">
			<use xlink:href="#SVGID_19_"  style="overflow:visible;"/>
		</clipPath>
		<g class="st20">
			<polygon class="st21" points="395.2,364.2 395.2,378 387.4,379.8 376.4,379.8 376.4,362.4 387.5,362.4 			"/>
			<rect x="396" y="365" class="st22" width="17.3" height="12.2"/>
			<line class="st23" x1="397.5" y1="363.9" x2="397.5" y2="378.1"/>
			<line class="st23" x1="399.4" y1="363.9" x2="399.4" y2="378.1"/>
			<line class="st23" x1="401.2" y1="363.9" x2="401.2" y2="378.1"/>
			<line class="st23" x1="403.1" y1="363.9" x2="403.1" y2="378.1"/>
			<line class="st23" x1="404.9" y1="363.9" x2="404.9" y2="378.1"/>
			<line class="st23" x1="406.8" y1="363.9" x2="406.8" y2="378.1"/>
			<line class="st23" x1="408.6" y1="363.9" x2="408.6" y2="378.1"/>
			<line class="st23" x1="410.5" y1="363.9" x2="410.5" y2="378.1"/>
		</g>
	</g>
	<g class="st1">
		<defs>
			<rect id="SVGID_21_" x="-5" y="197" width="600" height="400"/>
		</defs>
		<clipPath id="SVGID_22_">
			<use xlink:href="#SVGID_21_"  style="overflow:visible;"/>
		</clipPath>
		<rect x="278.8" y="234.3" class="st24" width="62.1" height="41.4"/>
	</g>
	<g class="st1">
		<defs>
			<rect id="SVGID_23_" x="-5" y="197" width="600" height="400"/>
		</defs>
		<clipPath id="SVGID_24_">
			<use xlink:href="#SVGID_23_"  style="overflow:visible;"/>
		</clipPath>
		<g class="st25">
			<path d="M293,258.9v-11.4h7.7v2.2h-5.1v2.2h4.6v2.1h-4.6v2.7h5.5v2.2L293,258.9L293,258.9z"/>
			<path d="M306,247.5c0.2,0.4,0.4,0.8,0.7,1.3c0.3,0.5,0.5,1.1,0.8,1.7c0.3,0.6,0.6,1.3,0.8,1.9s0.5,1.3,0.8,1.8
				c0.2-0.6,0.5-1.2,0.8-1.8s0.6-1.3,0.8-1.9c0.3-0.6,0.5-1.2,0.8-1.7s0.5-1,0.7-1.3h2.3c0.1,0.8,0.2,1.6,0.3,2.5
				c0.1,0.9,0.2,1.9,0.2,2.9c0.1,1,0.1,2,0.2,3s0.1,2,0.2,2.9h-2.5c0-1.1-0.1-2.3-0.1-3.6c-0.1-1.3-0.1-2.6-0.2-3.9
				c-0.2,0.5-0.4,1-0.7,1.5c-0.2,0.6-0.5,1.1-0.7,1.7c-0.2,0.6-0.5,1.1-0.7,1.6c-0.2,0.5-0.4,0.9-0.6,1.3h-1.8
				c-0.2-0.4-0.3-0.8-0.6-1.3c-0.2-0.5-0.4-1-0.7-1.6c-0.2-0.6-0.5-1.1-0.7-1.7c-0.2-0.6-0.5-1.1-0.7-1.5c-0.1,1.3-0.2,2.6-0.2,3.9
				c-0.1,1.3-0.1,2.5-0.1,3.6h-2.5c0-0.9,0.1-1.9,0.2-2.9s0.1-2,0.2-3s0.2-2,0.2-2.9c0.1-0.9,0.2-1.8,0.3-2.5L306,247.5L306,247.5z"
				/>
			<path d="M322.9,259.1c-1.9,0-3.3-0.5-4.2-1.5c-1-1-1.5-2.5-1.5-4.4c0-0.9,0.1-1.8,0.4-2.5s0.7-1.4,1.2-1.9s1.1-0.9,1.8-1.2
				c0.7-0.3,1.5-0.4,2.3-0.4c0.5,0,0.9,0,1.3,0.1s0.7,0.2,1,0.2c0.3,0.1,0.5,0.2,0.7,0.3s0.3,0.2,0.4,0.2l-0.7,2.1
				c-0.4-0.2-0.8-0.3-1.2-0.5c-0.5-0.1-1-0.2-1.6-0.2c-0.4,0-0.8,0.1-1.2,0.2c-0.4,0.1-0.7,0.3-1,0.6s-0.5,0.7-0.7,1.1
				s-0.3,1-0.3,1.7c0,0.5,0.1,1,0.2,1.5s0.3,0.8,0.6,1.2c0.3,0.3,0.6,0.6,1,0.8s0.9,0.3,1.5,0.3c0.4,0,0.7,0,1-0.1
				c0.3,0,0.6-0.1,0.8-0.2c0.2-0.1,0.4-0.1,0.6-0.2s0.3-0.1,0.5-0.2l0.7,2.1c-0.4,0.2-0.9,0.4-1.5,0.6
				C324.5,259,323.7,259.1,322.9,259.1z"/>
		</g>
	</g>
	<g class="st1">
		<defs>
			<rect id="SVGID_25_" x="-5" y="197" width="600" height="400"/>
		</defs>
		<clipPath id="SVGID_26_">
			<use xlink:href="#SVGID_25_"  style="overflow:visible;"/>
		</clipPath>
		<g class="st26">
			<g>
				<polyline class="st27" points="258,252.8 258,253.8 257,253.8 				"/>
				<line class="st28" x1="255.9" y1="253.8" x2="254.2" y2="253.8"/>
				<polyline class="st27" points="253.6,253.8 252.6,253.8 252.6,252.8 				"/>
				<line class="st29" x1="252.6" y1="250.7" x2="252.6" y2="194.7"/>
				<polyline class="st27" points="252.6,193.7 252.6,192.7 253.6,192.7 				"/>
				<line class="st28" x1="254.7" y1="192.7" x2="256.4" y2="192.7"/>
				<polyline class="st27" points="257,192.7 258,192.7 258,193.7 				"/>
				<line class="st29" x1="258" y1="195.7" x2="258" y2="251.8"/>
			</g>
		</g>
	</g>
	<g class="st1">
		<defs>
			<rect id="SVGID_27_" x="-5" y="197" width="600" height="400"/>
		</defs>
		<clipPath id="SVGID_28_">
			<use xlink:href="#SVGID_27_"  style="overflow:visible;"/>
		</clipPath>
		<g class="st30">
			<polygon class="st31" points="252.5,236.7 250,251.3 260.6,251.3 258,236.7 			"/>
			<polygon class="st31" points="249.1,275.8 261.4,275.8 261.4,255 260.6,251.3 250,251.3 249.1,255 			"/>
			<path class="st31" d="M249.1,254.8"/>
			<line class="st32" x1="260.6" y1="248.6" x2="250" y2="248.6"/>
			<line class="st32" x1="260" y1="245.9" x2="250.6" y2="245.9"/>
			<line class="st32" x1="259.3" y1="243.1" x2="251.3" y2="243.1"/>
			<line class="st32" x1="258.9" y1="240.4" x2="251.7" y2="240.4"/>
			<rect x="252.2" y="231.9" class="st31" width="6.1" height="6.4"/>
		</g>
	</g>
	<g class="st1">
		<defs>
			<rect id="SVGID_29_" x="-5" y="197" width="600" height="400"/>
		</defs>
		<clipPath id="SVGID_30_">
			<use xlink:href="#SVGID_29_"  style="overflow:visible;"/>
		</clipPath>
		<g class="st33">
			<g>
				<g>
					<polyline class="st34" points="269.1,607.6 269.1,608.7 268,608.7 					"/>
					<line class="st35" x1="265.7" y1="608.7" x2="262.4" y2="608.7"/>
					<polyline class="st34" points="261.3,608.7 260.2,608.7 260.2,607.6 					"/>
					<line class="st36" x1="260.2" y1="605.4" x2="260.2" y2="550.7"/>
					<polyline class="st34" points="260.2,549.6 260.2,548.5 261.3,548.5 					"/>
					<line class="st35" x1="263.5" y1="548.5" x2="266.8" y2="548.5"/>
					<polyline class="st34" points="268,548.5 269.1,548.5 269.1,549.6 					"/>
					<line class="st36" x1="269.1" y1="551.7" x2="269.1" y2="606.5"/>
				</g>
			</g>
		</g>
	</g>
	<g class="st1">
		<defs>
			<rect id="SVGID_31_" x="-5" y="197" width="600" height="400"/>
		</defs>
		<clipPath id="SVGID_32_">
			<use xlink:href="#SVGID_31_"  style="overflow:visible;"/>
		</clipPath>
		<g class="st37">
			<polygon class="st38" points="258.8,560 253.5,545.8 275.7,545.8 270.4,560 			"/>
			<polygon class="st38" points="251.7,521.8 277.5,521.8 277.5,542.1 275.7,545.8 253.5,545.8 251.7,542.1 			"/>
			<path class="st38" d="M251.7,542.3"/>
			<line class="st39" x1="275.7" y1="548.4" x2="253.5" y2="548.4"/>
			<line class="st39" x1="274.4" y1="551" x2="254.8" y2="551"/>
			<line class="st39" x1="273.1" y1="553.7" x2="256.1" y2="553.7"/>
			<line class="st39" x1="272.2" y1="556.4" x2="257" y2="556.4"/>
			<rect x="258.1" y="558.5" class="st38" width="12.8" height="6.2"/>
		</g>
	</g>
	<g class="st1">
		<defs>
			<rect id="SVGID_33_" x="-5" y="197" width="600" height="400"/>
		</defs>
		<clipPath id="SVGID_34_">
			<use xlink:href="#SVGID_33_"  style="overflow:visible;"/>
		</clipPath>
		<polygon class="st40" points="335.5,551.9 304.5,551.9 308,517.7 332,517.7 		"/>
	</g>
	<g class="st1">
		<defs>
			<rect id="SVGID_35_" x="-5" y="197" width="600" height="400"/>
		</defs>
		<clipPath id="SVGID_36_">
			<use xlink:href="#SVGID_35_"  style="overflow:visible;"/>
		</clipPath>
		<g class="st41">
			<g>
				<g>
					<g>
						<g>
							<path class="st42" d="M302.1,572c-0.1-0.1-0.2-0.2-0.4-0.4l0.4-0.4"/>
							<line class="st43" x1="302.7" y1="570.7" x2="303.6" y2="569.8"/>
							<path class="st42" d="M303.9,569.5l0.4-0.4c0.1,0.1,0.2,0.2,0.4,0.3"/>
							<path class="st44" d="M305.4,570.2c8.5,7.4,21.3,7.3,29.7-0.3"/>
							<path class="st42" d="M335.4,569.5c0.1-0.1,0.2-0.2,0.4-0.3l0.4,0.4"/>
							<line class="st43" x1="336.7" y1="570.1" x2="337.6" y2="571"/>
							<path class="st42" d="M337.9,571.3l0.4,0.4c-0.1,0.1-0.2,0.2-0.4,0.4"/>
							<path class="st45" d="M337.2,572.7c-4.9,4.3-11,6.5-17.2,6.5c-6.3,0-12.6-2.3-17.5-6.9"/>
						</g>
					</g>
					<g>
						<g>
							<path class="st42" d="M306.5,567.6c-0.1-0.1-0.2-0.2-0.4-0.3l0.4-0.4"/>
							<line class="st43" x1="307.1" y1="566.3" x2="308" y2="565.4"/>
							<path class="st42" d="M308.3,565.1l0.4-0.4c0.1,0.1,0.2,0.2,0.4,0.3"/>
							<path class="st46" d="M309.8,565.7c6,5,14.9,4.9,20.8-0.3"/>
							<path class="st42" d="M331,565.1c0.1-0.1,0.2-0.2,0.4-0.3l0.4,0.4"/>
							<line class="st43" x1="332.3" y1="565.7" x2="333.2" y2="566.6"/>
							<path class="st42" d="M333.5,566.9l0.4,0.4c-0.1,0.1-0.2,0.2-0.4,0.3"/>
							<path class="st47" d="M332.7,568.3c-3.6,3.1-8.2,4.7-12.7,4.7c-4.7,0-9.4-1.7-13.1-5"/>
						</g>
					</g>
					<g>
						<g>
							<path class="st42" d="M311.7,562.8c-0.1-0.1-0.2-0.2-0.4-0.3l0.4-0.4"/>
							<line class="st43" x1="312.3" y1="561.5" x2="313.2" y2="560.6"/>
							<path class="st42" d="M313.6,560.3l0.4-0.4c0.1,0.1,0.2,0.2,0.4,0.3"/>
							<path class="st48" d="M315,560.9c1.4,1,3.2,1.6,5,1.6c2,0,3.8-0.7,5.4-1.9"/>
							<path class="st42" d="M325.7,560.3c0.1-0.1,0.2-0.2,0.4-0.3l0.4,0.4"/>
							<line class="st43" x1="327.1" y1="560.9" x2="328" y2="561.8"/>
							<path class="st42" d="M328.3,562.1l0.4,0.4c-0.1,0.1-0.2,0.2-0.4,0.3"/>
							<path class="st49" d="M327.5,563.4c-2.1,1.7-4.8,2.6-7.5,2.6c-2.9,0-5.7-1-7.9-2.9"/>
						</g>
					</g>
				</g>
			</g>
		</g>
	</g>
	<g class="st1">
		<defs>
			<rect id="SVGID_37_" x="-5" y="197" width="600" height="400"/>
		</defs>
		<clipPath id="SVGID_38_">
			<use xlink:href="#SVGID_37_"  style="overflow:visible;"/>
		</clipPath>
		<g class="st50">
			<path d="M314.1,539.3c0.1,0.2,0.1,0.5,0.2,0.8s0.2,0.6,0.3,0.9s0.2,0.7,0.3,1c0.1,0.3,0.2,0.6,0.3,0.9c0.1-0.3,0.2-0.6,0.2-1
				c0.1-0.4,0.2-0.7,0.2-1.1c0.1-0.4,0.1-0.8,0.2-1.1c0.1-0.4,0.1-0.7,0.2-1.1h1.4c-0.2,1-0.4,2.1-0.7,3.1c-0.3,1.1-0.6,2.1-0.9,3
				h-1.3c-0.2-0.6-0.4-1.2-0.6-1.8s-0.4-1.3-0.6-1.9c-0.2,0.6-0.4,1.3-0.6,1.9c-0.2,0.6-0.4,1.2-0.6,1.8H311c-0.3-1-0.6-2-0.9-3
				c-0.3-1.1-0.5-2.1-0.7-3.1h1.5c0.1,0.3,0.1,0.7,0.2,1.1c0.1,0.4,0.1,0.8,0.2,1.1c0.1,0.4,0.2,0.7,0.2,1.1s0.2,0.7,0.2,1
				c0.1-0.3,0.2-0.6,0.3-0.9c0.1-0.3,0.2-0.7,0.3-1c0.1-0.3,0.2-0.6,0.3-0.9s0.2-0.6,0.2-0.8H314.1z"/>
			<path d="M319.8,538.8c0,0.2-0.1,0.4-0.2,0.6c-0.2,0.1-0.3,0.2-0.6,0.2c-0.2,0-0.4-0.1-0.6-0.2c-0.2-0.1-0.2-0.3-0.2-0.6
				s0.1-0.4,0.2-0.6c0.2-0.1,0.3-0.2,0.6-0.2c0.2,0,0.4,0.1,0.6,0.2C319.7,538.3,319.8,538.5,319.8,538.8z M319.7,544.8h-1.3v-4.7
				h1.3V544.8z"/>
			<path d="M320.5,541.6h2.6v1.2h-2.6V541.6z"/>
			<path d="M324,544.8v-6.2h4.1v1.2h-2.7v1.3h2.4v1.2h-2.4v2.5H324z"/>
			<path d="M330.5,538.8c0,0.2-0.1,0.4-0.2,0.6c-0.2,0.1-0.3,0.2-0.6,0.2c-0.2,0-0.4-0.1-0.6-0.2c-0.2-0.1-0.2-0.3-0.2-0.6
				s0.1-0.4,0.2-0.6c0.2-0.1,0.3-0.2,0.6-0.2c0.2,0,0.4,0.1,0.6,0.2C330.4,538.3,330.5,538.5,330.5,538.8z M330.4,544.8H329v-4.7
				h1.3v4.7H330.4z"/>
		</g>
	</g>
	<g class="st1">
		<defs>
			<rect id="SVGID_39_" x="-5" y="197" width="600" height="400"/>
		</defs>
		<clipPath id="SVGID_40_">
			<use xlink:href="#SVGID_39_"  style="overflow:visible;"/>
		</clipPath>
		<g class="st51">
			<rect x="210" y="287.7" class="st52" width="170.4" height="218.3"/>
			<g>
				<g>
					<g>
						<path class="st53" d="M294.5,378.9"/>
					</g>
					<g>
						<path class="st53" d="M294.5,378.9"/>
					</g>
					<g>
						<path class="st53" d="M294.5,378.9"/>
					</g>
					<g>
						<path class="st53" d="M294.5,378.9"/>
					</g>
				</g>
				<polyline class="st54" points="344.7,407.7 319.6,422.7 294.5,437.8 294.5,407.7 294.5,377.6 				"/>
				<polyline class="st55" points="344.7,407.7 344.7,377.6 344.7,347.5 319.6,362.6 294.5,377.6 				"/>
				<polyline class="st56" points="294.6,317.4 269.5,332.5 244.4,347.5 269.5,362.6 294.6,377.6 				"/>
				<polyline class="st57" points="294.5,317.4 319.6,332.5 344.7,347.5 319.6,362.6 294.5,377.6 				"/>
				<polyline class="st22" points="244.4,407.7 269.5,422.7 294.6,437.8 294.6,407.7 294.6,377.6 				"/>
				<polyline class="st58" points="244.4,407.7 244.4,377.6 244.4,347.5 269.5,362.6 294.5,377.6 				"/>
				<g>
					<g>
						<g>
							<line class="st59" x1="294.6" y1="317.4" x2="294.6" y2="318.8"/>
							<line class="st60" x1="294.6" y1="321.6" x2="294.5" y2="374.8"/>
							<line class="st59" x1="294.5" y1="376.2" x2="294.5" y2="377.6"/>
						</g>
					</g>
					<g>
						<g>
							<line class="st59" x1="294.5" y1="377.6" x2="295.7" y2="378.3"/>
							<line class="st61" x1="298.3" y1="379.8" x2="342.2" y2="406.2"/>
							<line class="st59" x1="343.5" y1="407" x2="344.7" y2="407.7"/>
						</g>
					</g>
					<g>
						<g>
							<line class="st59" x1="294.5" y1="377.6" x2="293.3" y2="378.3"/>
							<line class="st61" x1="290.8" y1="379.8" x2="246.9" y2="406.2"/>
							<line class="st59" x1="245.6" y1="407" x2="244.4" y2="407.7"/>
						</g>
					</g>
				</g>
				<g>
					<line class="st59" x1="294.6" y1="437.8" x2="294.5" y2="377.6"/>
					<line class="st59" x1="294.5" y1="377.6" x2="344.7" y2="347.5"/>
					<line class="st59" x1="294.5" y1="377.6" x2="244.4" y2="347.5"/>
				</g>
			</g>
			<rect x="219.8" y="511.9" class="st52" width="150.2" height="12.2"/>
			<rect x="219.8" y="269.9" class="st52" width="150.2" height="12.2"/>
			<rect x="206.7" y="277.6" width="176.5" height="10.5"/>
			<rect x="206.7" y="505.7" width="176.5" height="10.5"/>
			<g>
				<path d="M280.6,450.2h3.9v17.3h-3.9v-7.4H274v7.4h-3.9v-17.3h3.9v6.6h6.6V450.2z"/>
				<path d="M295.3,467.9c-1.2,0-2.3-0.2-3.2-0.5c-0.9-0.3-1.6-0.8-2.2-1.4s-1-1.3-1.3-2.2c-0.3-0.8-0.4-1.8-0.4-2.8v-10.8h3.9v10.5
					c0,0.7,0.1,1.3,0.2,1.8c0.2,0.5,0.4,0.9,0.7,1.2c0.3,0.3,0.6,0.5,1,0.7c0.4,0.1,0.8,0.2,1.3,0.2c1,0,1.7-0.3,2.3-0.9
					c0.6-0.6,0.9-1.6,0.9-3v-10.5h3.9V461c0,1-0.1,2-0.4,2.8c-0.3,0.9-0.7,1.6-1.3,2.2c-0.6,0.6-1.3,1.1-2.2,1.4
					S296.5,467.9,295.3,467.9z"/>
				<path d="M312,467.8c-1,0-1.9,0-2.8-0.1s-1.9-0.2-2.9-0.4v-16.8c0.8-0.1,1.7-0.3,2.6-0.3c1-0.1,1.8-0.1,2.7-0.1
					c1.1,0,2.1,0.1,3,0.2c0.9,0.2,1.7,0.4,2.4,0.8c0.7,0.4,1.2,0.9,1.6,1.5s0.6,1.4,0.6,2.3c0,1.4-0.7,2.5-2,3.3
					c1.1,0.4,1.9,1,2.3,1.7s0.6,1.5,0.6,2.4c0,1.8-0.7,3.2-2,4.1C316.6,467.3,314.6,467.8,312,467.8z M310,457h1.9
					c1.2,0,2.1-0.2,2.6-0.5s0.8-0.8,0.8-1.5s-0.3-1.2-0.8-1.5s-1.3-0.4-2.4-0.4c-0.3,0-0.7,0-1.1,0s-0.7,0-1,0.1V457z M310,460v4.5
					c0.3,0,0.6,0.1,0.9,0.1s0.7,0,1.1,0c1.2,0,2.1-0.2,2.8-0.5c0.7-0.3,1.1-1,1.1-1.9c0-0.8-0.3-1.4-0.9-1.7
					c-0.6-0.3-1.5-0.5-2.6-0.5H310z"/>
			</g>
			<rect x="215.2" y="377.6" width="6.3" height="33.5"/>
			<rect x="369.6" y="377.6" width="6.3" height="33.5"/>
		</g>
	</g>
</g>
</svg>
