<?xml version="1.0" encoding="UTF-8" standalone="no"?>
<!-- Generator: Adobe Illustrator 16.0.0, SVG Export Plug-In . SVG Version: 6.00 Build 0)  -->

<svg
   xmlns:dc="http://purl.org/dc/elements/1.1/"
   xmlns:cc="http://creativecommons.org/ns#"
   xmlns:rdf="http://www.w3.org/1999/02/22-rdf-syntax-ns#"
   xmlns:svg="http://www.w3.org/2000/svg"
   xmlns="http://www.w3.org/2000/svg"
   xmlns:sodipodi="http://sodipodi.sourceforge.net/DTD/sodipodi-0.dtd"
   xmlns:inkscape="http://www.inkscape.org/namespaces/inkscape"
   version="1.1"
   id="Layer_1"
   x="0px"
   y="0px"
   width="600"
   height="400"
   viewBox="-32.5 0 600.00001 400"
   enable-background="new -32.5 0 350 250"
   xml:space="preserve"
   inkscape:version="0.48.4 r9939"
   sodipodi:docname="anything.svg"><metadata
     id="metadata253"><rdf:RDF><cc:Work
         rdf:about=""><dc:format>image/svg+xml</dc:format><dc:type
           rdf:resource="http://purl.org/dc/dcmitype/StillImage" /></cc:Work></rdf:RDF></metadata><defs
     id="defs251" /><sodipodi:namedview
     pagecolor="#ffffff"
     bordercolor="#666666"
     borderopacity="1"
     objecttolerance="10"
     gridtolerance="10"
     guidetolerance="10"
     inkscape:pageopacity="0"
     inkscape:pageshadow="2"
     inkscape:window-width="1680"
     inkscape:window-height="1026"
     id="namedview249"
     showgrid="false"
     inkscape:zoom="1.2929953"
     inkscape:cx="219.77233"
     inkscape:cy="290.58832"
     inkscape:window-x="0"
     inkscape:window-y="24"
     inkscape:window-maximized="1"
     inkscape:current-layer="Layer_1"
     fit-margin-top="0"
     fit-margin-left="0"
     fit-margin-right="0"
     fit-margin-bottom="0" /><line
     style="fill:none;stroke:#171718;stroke-width:6.58722496;stroke-miterlimit:10;stroke-dasharray:6.58722469"
     stroke-miterlimit="10"
     x1="378.70267"
     y1="229.24171"
     x2="583.82886"
     y2="229.24171"
     id="line39" /><line
     style="fill:none;stroke:#ffce0c;stroke-width:10.57940292;stroke-miterlimit:10;stroke-dasharray:10.57940264"
     stroke-miterlimit="10"
     x1="376.1326"
     y1="169.72772"
     x2="613.03448"
     y2="169.72772"
     id="line57" /><line
     style="fill:none;stroke:#3399cc;stroke-width:8.18295288;stroke-miterlimit:10;stroke-dasharray:8.18295294"
     stroke-miterlimit="10"
     x1="136.58069"
     y1="196.00824"
     x2="-90.842278"
     y2="196.00824"
     id="line107" /><g
     id="g3972"
     transform="matrix(1.2441037,0,0,1.2441037,-35.534041,-42.929097)"><g
       transform="matrix(0,1.5953618,-1.5953618,0,466.52139,-28.535574)"
       id="g3"><g
         id="g5"><line
           id="line7"
           y2="160.60201"
           x2="211.845"
           y1="160.60201"
           x1="317.5"
           stroke-miterlimit="10"
           style="fill:none;stroke:#ef3c68;stroke-width:5;stroke-miterlimit:10;stroke-dasharray:7" /></g><g
         id="g9"><polygon
           id="polygon11"
           points="218.288,163.844 210.317,166.844 210.317,154.359 218.288,157.359 "
           style="fill:#ef3c68" /><polygon
           id="polygon13"
           points="208.288,153.359 210.317,154.359 210.317,166.844 208.288,167.844 196.89,167.844 196.89,153.359 "
           stroke-miterlimit="10"
           style="fill:#ef3c68;stroke:#a61e2f;stroke-width:0.86900002;stroke-miterlimit:10" /><path
           id="path15"
           d="M 208.401,167.844"
           stroke-miterlimit="10"
           inkscape:connector-curvature="0"
           style="fill:#ffce0e;stroke:#f8993a;stroke-width:0.86900002;stroke-miterlimit:10" /><line
           id="line17"
           y2="166.85899"
           x2="211.776"
           y1="154.35899"
           x1="211.776"
           stroke-miterlimit="10"
           style="fill:none;stroke:#a61e2f;stroke-width:0.88010001;stroke-miterlimit:10" /><line
           id="line19"
           y2="166.10899"
           x2="213.276"
           y1="155.10899"
           x1="213.276"
           stroke-miterlimit="10"
           style="fill:none;stroke:#a61e2f;stroke-width:0.903;stroke-miterlimit:10" /><line
           id="line21"
           y2="165.35899"
           x2="214.776"
           y1="155.85899"
           x1="214.776"
           stroke-miterlimit="10"
           style="fill:none;stroke:#a61e2f;stroke-width:0.93610001;stroke-miterlimit:10" /><line
           id="line23"
           y2="164.85899"
           x2="216.276"
           y1="156.35899"
           x1="216.276"
           stroke-miterlimit="10"
           style="fill:none;stroke:#a61e2f;stroke-width:0.8854;stroke-miterlimit:10" /><rect
           id="rect25"
           height="7.1859999"
           width="3.4860001"
           y="157.047"
           x="217.45599"
           style="fill:#a61e2f" /></g></g><g
       transform="matrix(0,1.5953618,-1.5953618,0,466.52139,-28.535574)"
       id="g27"><rect
         id="rect29"
         height="34"
         width="22.667"
         stroke-miterlimit="10"
         y="116.667"
         x="56.5"
         style="fill:#171617;stroke:#000000;stroke-miterlimit:10" /><g
         id="g31"><path
           id="path33"
           d="m 69.976,142.896 h -6.237 v -4.213 h 1.179 v 2.809 h 1.225 v -2.493 h 1.151 v 2.493 h 1.503 v -3.016 h 1.18 v 4.42 z"
           inkscape:connector-curvature="0"
           style="fill:#ffffff" /><path
           id="path35"
           d="m 63.738,135.786 c 0.198,-0.108 0.442,-0.233 0.733,-0.374 0.291,-0.142 0.605,-0.289 0.945,-0.442 0.339,-0.153 0.686,-0.306 1.039,-0.456 0.353,-0.15 0.688,-0.291 0.999,-0.424 -0.312,-0.133 -0.646,-0.273 -0.999,-0.424 -0.353,-0.151 -0.7,-0.303 -1.039,-0.456 -0.34,-0.153 -0.654,-0.301 -0.945,-0.442 -0.291,-0.141 -0.535,-0.266 -0.733,-0.375 v -1.277 c 0.413,-0.061 0.878,-0.115 1.39,-0.166 0.514,-0.052 1.048,-0.097 1.603,-0.136 0.556,-0.039 1.112,-0.075 1.669,-0.108 0.559,-0.032 1.084,-0.061 1.576,-0.085 v 1.368 c -0.606,0.018 -1.267,0.042 -1.98,0.072 -0.714,0.029 -1.434,0.074 -2.16,0.135 0.252,0.108 0.531,0.229 0.837,0.361 0.306,0.132 0.612,0.264 0.919,0.393 0.305,0.129 0.598,0.254 0.877,0.375 0.279,0.119 0.518,0.223 0.715,0.307 v 0.98 c -0.197,0.084 -0.436,0.188 -0.715,0.307 -0.279,0.121 -0.572,0.246 -0.877,0.375 -0.307,0.13 -0.613,0.261 -0.919,0.393 -0.306,0.133 -0.585,0.254 -0.837,0.361 0.727,0.061 1.446,0.105 2.16,0.135 0.714,0.031 1.374,0.055 1.98,0.072 v 1.368 c -0.492,-0.024 -1.018,-0.052 -1.576,-0.085 -0.557,-0.033 -1.113,-0.069 -1.669,-0.108 -0.555,-0.039 -1.089,-0.084 -1.603,-0.136 -0.512,-0.051 -0.977,-0.105 -1.39,-0.166 v -1.342 z"
           inkscape:connector-curvature="0"
           style="fill:#ffffff" /><path
           id="path37"
           d="m 70.101,126.525 c 0,1.014 -0.281,1.787 -0.846,2.317 -0.563,0.531 -1.365,0.796 -2.402,0.796 -0.517,0 -0.977,-0.08 -1.382,-0.242 -0.405,-0.162 -0.747,-0.385 -1.026,-0.666 -0.279,-0.282 -0.49,-0.618 -0.635,-1.008 -0.144,-0.391 -0.215,-0.813 -0.215,-1.27 0,-0.264 0.02,-0.504 0.059,-0.72 0.039,-0.216 0.084,-0.405 0.135,-0.567 0.051,-0.162 0.104,-0.297 0.157,-0.404 0.054,-0.108 0.096,-0.186 0.126,-0.234 l 1.134,0.404 c -0.103,0.193 -0.188,0.416 -0.261,0.672 -0.072,0.254 -0.108,0.544 -0.108,0.867 0,0.217 0.036,0.428 0.108,0.635 0.072,0.207 0.188,0.391 0.346,0.549 0.16,0.16 0.365,0.287 0.617,0.383 0.252,0.096 0.559,0.145 0.918,0.145 0.288,0 0.557,-0.031 0.805,-0.095 0.25,-0.063 0.465,-0.165 0.645,-0.306 0.18,-0.141 0.322,-0.326 0.428,-0.554 0.104,-0.228 0.156,-0.505 0.156,-0.828 0,-0.204 -0.012,-0.388 -0.035,-0.549 -0.023,-0.162 -0.053,-0.306 -0.086,-0.433 -0.033,-0.125 -0.07,-0.236 -0.112,-0.332 -0.042,-0.097 -0.081,-0.184 -0.116,-0.262 l 1.125,-0.387 c 0.119,0.197 0.228,0.477 0.323,0.837 0.095,0.362 0.142,0.778 0.142,1.252 z"
           inkscape:connector-curvature="0"
           style="fill:#ffffff" /></g></g><g
       transform="matrix(0,1.5953618,-1.5953618,0,466.52139,-28.535574)"
       id="g41"><polygon
         id="polygon43"
         points="153.021,81.215 156.971,81.215 157.971,87.632 157.971,98.639 152.021,98.639 152.021,87.632 "
         stroke-miterlimit="10"
         style="fill:#171718;stroke:#000000;stroke-width:0.61589998;stroke-miterlimit:10" /><line
         id="line45"
         y2="87.632004"
         x2="157.97099"
         y1="87.632004"
         x1="152.021"
         stroke-miterlimit="10"
         style="fill:none;stroke:#000000;stroke-width:0.61589998;stroke-miterlimit:10" /><line
         id="line47"
         y2="86.309998"
         x2="157.76401"
         y1="86.314003"
         x1="152.22701"
         stroke-miterlimit="10"
         style="fill:none;stroke:#000000;stroke-width:0.61589998;stroke-miterlimit:10" /><line
         id="line49"
         y2="85.103996"
         x2="157.575"
         y1="85.073997"
         x1="152.41901"
         stroke-miterlimit="10"
         style="fill:none;stroke:#000000;stroke-width:0.61589998;stroke-miterlimit:10" /><line
         id="line51"
         y2="83.925003"
         x2="157.39301"
         y1="83.938004"
         x1="152.59801"
         stroke-miterlimit="10"
         style="fill:none;stroke:#000000;stroke-width:0.61589998;stroke-miterlimit:10" /><line
         id="line53"
         y2="82.93"
         x2="157.23599"
         y1="82.932999"
         x1="152.75301"
         stroke-miterlimit="10"
         style="fill:none;stroke:#000000;stroke-width:0.61589998;stroke-miterlimit:10" /><line
         id="line55"
         y2="82.032997"
         x2="157.11301"
         y1="82.032997"
         x1="152.867"
         stroke-miterlimit="10"
         style="fill:none;stroke:#000000;stroke-width:0.61589998;stroke-miterlimit:10" /></g><g
       transform="matrix(0,1.5953618,-1.5953618,0,466.52139,-28.535574)"
       id="g59"><polygon
         id="polygon61"
         points="121.492,90.653 128.939,90.653 129.939,94.911 129.939,100.834 120.492,100.834 120.492,94.827 "
         stroke-miterlimit="10"
         style="fill:#ffce0c;stroke:#f8983a;stroke-width:0.83880001;stroke-miterlimit:10" /><rect
         id="rect63"
         height="9.3330002"
         width="6.5830002"
         y="80.911003"
         x="121.924"
         style="fill:#ffce0c" /><line
         id="line65"
         y2="89.411003"
         x2="128.994"
         y1="89.411003"
         x1="121.327"
         stroke-miterlimit="10"
         style="fill:none;stroke:#f8983a;stroke-width:0.83880001;stroke-miterlimit:10" /><line
         id="line67"
         y2="88.411003"
         x2="128.994"
         y1="88.411003"
         x1="121.327"
         stroke-miterlimit="10"
         style="fill:none;stroke:#f8983a;stroke-width:0.83880001;stroke-miterlimit:10" /><line
         id="line69"
         y2="87.411003"
         x2="128.994"
         y1="87.411003"
         x1="121.327"
         stroke-miterlimit="10"
         style="fill:none;stroke:#f8983a;stroke-width:0.83880001;stroke-miterlimit:10" /><line
         id="line71"
         y2="86.411003"
         x2="128.994"
         y1="86.411003"
         x1="121.327"
         stroke-miterlimit="10"
         style="fill:none;stroke:#f8983a;stroke-width:0.83880001;stroke-miterlimit:10" /><line
         id="line73"
         y2="85.411003"
         x2="128.994"
         y1="85.411003"
         x1="121.327"
         stroke-miterlimit="10"
         style="fill:none;stroke:#f8983a;stroke-width:0.83880001;stroke-miterlimit:10" /><line
         id="line75"
         y2="84.411003"
         x2="128.994"
         y1="84.411003"
         x1="121.327"
         stroke-miterlimit="10"
         style="fill:none;stroke:#f8983a;stroke-width:0.83880001;stroke-miterlimit:10" /><line
         id="line77"
         y2="83.411003"
         x2="128.994"
         y1="83.411003"
         x1="121.327"
         stroke-miterlimit="10"
         style="fill:none;stroke:#f8983a;stroke-width:0.83880001;stroke-miterlimit:10" /><line
         id="line79"
         y2="82.411003"
         x2="128.994"
         y1="82.411003"
         x1="121.327"
         stroke-miterlimit="10"
         style="fill:none;stroke:#f8983a;stroke-width:0.83880001;stroke-miterlimit:10" /></g><g
       transform="matrix(0,1.5953618,-1.5953618,0,466.52139,-28.535574)"
       id="g81"><polygon
         id="polygon83"
         points="140.824,205.74 142.013,204.302 142.013,197.807 134.636,197.807 134.636,204.302 135.84,205.74 "
         style="fill:#3399cc" /><g
         id="g85"><polygon
           id="polygon87"
           points="147.197,172.459 147.197,190.876 145.197,197.807 131.451,197.807 129.451,190.898 129.451,172.459 "
           stroke-miterlimit="10"
           style="fill:#3399cc;stroke:#1d304b;stroke-miterlimit:10" /><g
           id="g89"><path
             id="path91"
             d="m 134.104,187.285 h 0.78 v 3.465 h -0.78 v -1.47 h -1.31 v 1.47 h -0.78 v -3.465 h 0.78 v 1.324 h 1.31 v -1.324 z"
             inkscape:connector-curvature="0"
             style="fill:#ffffff" /><path
             id="path93"
             d="m 138.719,189.014 c 0,0.301 -0.047,0.563 -0.141,0.785 -0.093,0.225 -0.225,0.408 -0.396,0.557 -0.172,0.146 -0.381,0.256 -0.628,0.328 -0.247,0.073 -0.523,0.11 -0.83,0.11 -0.14,0 -0.304,-0.006 -0.489,-0.019 -0.188,-0.012 -0.371,-0.034 -0.551,-0.071 v -3.375 c 0.18,-0.033 0.367,-0.056 0.563,-0.067 0.196,-0.011 0.363,-0.018 0.502,-0.018 0.297,0 0.566,0.033 0.809,0.1 0.241,0.067 0.449,0.172 0.622,0.315 0.173,0.143 0.307,0.325 0.399,0.55 0.093,0.225 0.14,0.493 0.14,0.805 z m -2.255,1.101 c 0.036,0.003 0.079,0.006 0.128,0.007 0.048,0.002 0.105,0.003 0.172,0.003 0.391,0 0.68,-0.1 0.867,-0.295 0.188,-0.196 0.283,-0.469 0.283,-0.814 0,-0.363 -0.09,-0.639 -0.271,-0.824 -0.18,-0.188 -0.465,-0.28 -0.854,-0.28 -0.054,0 -0.109,0.001 -0.166,0.002 -0.057,0.002 -0.109,0.006 -0.159,0.013 v 2.188 l 0,0 z"
             inkscape:connector-curvature="0"
             style="fill:#ffffff" /><path
             id="path95"
             d="m 140.289,187.285 c 0.061,0.109 0.129,0.246 0.207,0.406 0.08,0.162 0.162,0.338 0.246,0.525 0.086,0.188 0.17,0.381 0.254,0.577 0.084,0.197 0.162,0.382 0.236,0.556 0.072,-0.174 0.152,-0.357 0.234,-0.556 0.084,-0.196 0.17,-0.39 0.254,-0.577 0.086,-0.188 0.168,-0.363 0.246,-0.525 0.078,-0.16 0.148,-0.297 0.209,-0.406 h 0.709 c 0.033,0.229 0.064,0.486 0.092,0.771 0.029,0.285 0.055,0.582 0.076,0.891 0.021,0.309 0.041,0.617 0.062,0.928 0.018,0.311 0.033,0.602 0.047,0.875 h -0.76 c -0.01,-0.337 -0.023,-0.703 -0.041,-1.1 -0.016,-0.397 -0.041,-0.797 -0.074,-1.2 -0.061,0.14 -0.127,0.295 -0.201,0.465 -0.072,0.17 -0.146,0.34 -0.219,0.51 -0.07,0.17 -0.141,0.333 -0.207,0.487 -0.066,0.154 -0.125,0.288 -0.172,0.396 h -0.545 c -0.047,-0.108 -0.104,-0.242 -0.17,-0.396 -0.068,-0.154 -0.137,-0.317 -0.209,-0.487 -0.072,-0.17 -0.145,-0.34 -0.219,-0.51 -0.072,-0.17 -0.14,-0.325 -0.2,-0.465 -0.033,0.403 -0.058,0.803 -0.075,1.2 -0.016,0.396 -0.029,0.763 -0.039,1.1 h -0.761 c 0.014,-0.273 0.029,-0.564 0.048,-0.875 0.018,-0.311 0.038,-0.619 0.061,-0.928 0.021,-0.309 0.046,-0.604 0.074,-0.891 0.028,-0.285 0.059,-0.543 0.093,-0.771 h 0.744 z"
             inkscape:connector-curvature="0"
             style="fill:#ffffff" /><path
             id="path97"
             d="m 143.855,187.285 h 0.778 v 3.465 h -0.778 v -3.465 z"
             inkscape:connector-curvature="0"
             style="fill:#ffffff" /></g></g><line
         id="line99"
         y2="199.302"
         x2="142.013"
         y1="199.302"
         x1="134.636"
         stroke-miterlimit="10"
         style="fill:none;stroke:#1d304b;stroke-miterlimit:10" /><line
         id="line101"
         y2="200.802"
         x2="142.013"
         y1="200.802"
         x1="134.636"
         stroke-miterlimit="10"
         style="fill:none;stroke:#1d304b;stroke-miterlimit:10" /><line
         id="line103"
         y2="202.302"
         x2="142.013"
         y1="202.302"
         x1="134.636"
         stroke-miterlimit="10"
         style="fill:none;stroke:#1d304b;stroke-miterlimit:10" /><line
         id="line105"
         y2="203.802"
         x2="142.013"
         y1="203.802"
         x1="134.636"
         stroke-miterlimit="10"
         style="fill:none;stroke:#1d304b;stroke-miterlimit:10" /></g><polyline
       transform="matrix(0,1.5953618,-1.5953618,0,466.52139,-28.535574)"
       id="polyline109"
       points="60.861,160.886   37.625,160.886 -32.5,160.742 "
       stroke-miterlimit="10"
       style="fill:none;stroke:#996699;stroke-width:2;stroke-miterlimit:10;stroke-dasharray:2" /><polygon
       transform="matrix(0,1.5953618,-1.5953618,0,466.52139,-28.535574)"
       id="polygon111"
       points="201.611,143.014 201.611,129.585 220.793,127.585 220.793,145.014 "
       stroke-miterlimit="10"
       style="fill:#6fc499;stroke:#569975;stroke-miterlimit:10" /><g
       transform="matrix(0,1.5953618,-1.5953618,0,466.52139,-28.535574)"
       id="g113"><g
         id="g115"><path
           id="path117"
           d="m 230.963,126.906 c 5.189,5.191 5.189,13.595 0,18.785"
           stroke-miterlimit="10"
           inkscape:connector-curvature="0"
           style="fill:none;stroke:#569975;stroke-width:2;stroke-miterlimit:10;stroke-dasharray:1" /><path
           id="path119"
           d="m 228.506,129.363 c 3.832,3.834 3.832,10.037 0,13.873"
           stroke-miterlimit="10"
           inkscape:connector-curvature="0"
           style="fill:none;stroke:#569975;stroke-width:2;stroke-miterlimit:10;stroke-dasharray:1" /><path
           id="path121"
           d="m 225.857,132.24 c 2.246,2.242 2.246,5.877 0,8.121"
           stroke-miterlimit="10"
           inkscape:connector-curvature="0"
           style="fill:none;stroke:#569975;stroke-width:2;stroke-miterlimit:10;stroke-dasharray:1" /></g></g><g
       transform="matrix(0,1.5953618,-1.5953618,0,466.52139,-28.535574)"
       id="g123"><polygon
         id="polygon125"
         points="69.743,157.965 61.772,159.361 61.772,162.376 69.743,163.771 "
         style="fill:#996699" /><polygon
         id="polygon127"
         points="83.171,164.236 83.171,157.5 71.772,157.5 69.743,157.965 69.743,163.771 71.772,164.236 "
         stroke-miterlimit="10"
         style="fill:#996699;stroke:#664666;stroke-width:0.75;stroke-miterlimit:10" /><path
         id="path129"
         d="M 71.659,164.236"
         stroke-miterlimit="10"
         inkscape:connector-curvature="0"
         style="fill:#ffce0c;stroke:#f8983a;stroke-width:0.59259999;stroke-miterlimit:10" /><line
         id="line131"
         y2="163.78"
         x2="68.283997"
         y1="157.965"
         x1="68.283997"
         stroke-miterlimit="10"
         style="fill:none;stroke:#664666;stroke-width:0.75;stroke-miterlimit:10" /><line
         id="line133"
         y2="163.42999"
         x2="66.783997"
         y1="158.314"
         x1="66.783997"
         stroke-miterlimit="10"
         style="fill:none;stroke:#664666;stroke-width:0.75;stroke-miterlimit:10" /><line
         id="line135"
         y2="163.082"
         x2="65.283997"
         y1="158.664"
         x1="65.283997"
         stroke-miterlimit="10"
         style="fill:none;stroke:#664666;stroke-width:0.75;stroke-miterlimit:10" /><line
         id="line137"
         y2="162.85001"
         x2="63.784"
         y1="158.895"
         x1="63.784"
         stroke-miterlimit="10"
         style="fill:none;stroke:#664666;stroke-width:0.75;stroke-miterlimit:10" /><rect
         id="rect139"
         height="3.342"
         width="3.4860001"
         y="159.215"
         x="59.118"
         style="fill:#664666" /></g><g
       transform="matrix(0,1.5953618,-1.5953618,0,466.52139,-28.535574)"
       id="g141"><rect
         id="rect143"
         height="85.844002"
         width="109.966"
         stroke-miterlimit="10"
         y="97.75"
         x="83.629997"
         style="fill:#ffffff;stroke:#000000;stroke-width:0.50849998;stroke-miterlimit:10" /><g
         id="g145"><g
           id="g147"><g
             id="g149"><path
               id="path151"
               d="M 129.542,141.023"
               stroke-miterlimit="10"
               inkscape:connector-curvature="0"
               style="fill:#010101;stroke:#ffffff;stroke-width:0.20209999;stroke-miterlimit:10" /></g><g
             id="g153"><path
               id="path155"
               d="M 129.542,141.023"
               stroke-miterlimit="10"
               inkscape:connector-curvature="0"
               style="fill:#010101;stroke:#ffffff;stroke-width:0.20209999;stroke-miterlimit:10" /></g><g
             id="g157"><path
               id="path159"
               d="M 129.542,141.023"
               stroke-miterlimit="10"
               inkscape:connector-curvature="0"
               style="fill:#010101;stroke:#ffffff;stroke-width:0.20209999;stroke-miterlimit:10" /></g><g
             id="g161"><path
               id="path163"
               d="M 129.542,141.023"
               stroke-miterlimit="10"
               inkscape:connector-curvature="0"
               style="fill:#010101;stroke:#ffffff;stroke-width:0.20209999;stroke-miterlimit:10" /></g></g><polyline
           id="polyline165"
           points="144.07,115.754 151.65,128.389 159.23,141.021 144.07,141.021 128.91,141.021   "
           style="fill:#3399cc" /><polyline
           id="polyline167"
           points="144.07,115.754 128.91,115.754 113.749,115.754 121.33,128.375 128.91,141.021   "
           style="fill:#996699" /><polyline
           id="polyline169"
           points="98.587,141.02 106.168,153.656 113.749,166.292 121.33,153.655 128.91,141.02   "
           style="fill:#f8983a" /><polyline
           id="polyline171"
           points="98.587,141.021 106.168,128.389 113.749,115.754 121.33,128.389 128.91,141.021   "
           style="fill:#ef3a68" /><polyline
           id="polyline173"
           points="144.07,166.292 151.65,153.655 159.23,141.02 144.07,141.02 128.91,141.02   "
           style="fill:#ffce0c" /><polyline
           id="polyline175"
           points="144.07,166.29 128.91,166.29 113.749,166.29 121.33,153.656 128.91,141.021   "
           style="fill:#6fc499" /><g
           id="g177"><g
             id="g179"><g
               id="g181"><line
                 id="line183"
                 y2="141.01801"
                 x2="99.294998"
                 y1="141.01801"
                 x1="98.586998"
                 stroke-miterlimit="10"
                 style="fill:none;stroke:#ffffff;stroke-width:0.60640001;stroke-miterlimit:10" /><line
                 id="line185"
                 y2="141.02299"
                 x2="127.514"
                 y1="141.01801"
                 x1="100.671"
                 stroke-miterlimit="10"
                 style="fill:none;stroke:#ffffff;stroke-width:0.60640001;stroke-miterlimit:10;stroke-dasharray:1.3765, 1.3765" /><line
                 id="line187"
                 y2="141.02299"
                 x2="128.91"
                 y1="141.02299"
                 x1="128.202"
                 stroke-miterlimit="10"
                 style="fill:none;stroke:#ffffff;stroke-width:0.60640001;stroke-miterlimit:10" /></g></g><g
             id="g189"><g
               id="g191"><line
                 id="line193"
                 y2="140.41701"
                 x2="129.27299"
                 y1="141.02299"
                 x1="128.91"
                 stroke-miterlimit="10"
                 style="fill:none;stroke:#ffffff;stroke-width:0.60640001;stroke-miterlimit:10" /><line
                 id="line195"
                 y2="116.994"
                 x2="143.326"
                 y1="139.14999"
                 x1="130.033"
                 stroke-miterlimit="10"
                 style="fill:none;stroke:#ffffff;stroke-width:0.60640001;stroke-miterlimit:10;stroke-dasharray:1.4764, 1.4764" /><line
                 id="line197"
                 y2="115.754"
                 x2="144.07001"
                 y1="116.361"
                 x1="143.70599"
                 stroke-miterlimit="10"
                 style="fill:none;stroke:#ffffff;stroke-width:0.60640001;stroke-miterlimit:10" /></g></g><g
             id="g199"><g
               id="g201"><line
                 id="line203"
                 y2="141.629"
                 x2="129.27299"
                 y1="141.02299"
                 x1="128.91"
                 stroke-miterlimit="10"
                 style="fill:none;stroke:#ffffff;stroke-width:0.60640001;stroke-miterlimit:10" /><line
                 id="line205"
                 y2="165.052"
                 x2="143.326"
                 y1="142.896"
                 x1="130.033"
                 stroke-miterlimit="10"
                 style="fill:none;stroke:#ffffff;stroke-width:0.60640001;stroke-miterlimit:10;stroke-dasharray:1.4764, 1.4764" /><line
                 id="line207"
                 y2="166.29201"
                 x2="144.07001"
                 y1="165.686"
                 x1="143.70599"
                 stroke-miterlimit="10"
                 style="fill:none;stroke:#ffffff;stroke-width:0.60640001;stroke-miterlimit:10" /></g></g></g><g
           id="g209"><line
             id="line211"
             y2="141.02299"
             x2="128.91"
             y1="141.01801"
             x1="159.23"
             stroke-miterlimit="10"
             style="fill:none;stroke:#ffffff;stroke-width:0.60640001;stroke-miterlimit:10" /><line
             id="line213"
             y2="115.754"
             x2="113.749"
             y1="141.02299"
             x1="128.91"
             stroke-miterlimit="10"
             style="fill:none;stroke:#ffffff;stroke-width:0.60640001;stroke-miterlimit:10" /><line
             id="line215"
             y2="166.29201"
             x2="113.749"
             y1="141.02299"
             x1="128.91"
             stroke-miterlimit="10"
             style="fill:none;stroke:#ffffff;stroke-width:0.60640001;stroke-miterlimit:10" /></g></g><rect
         id="rect217"
         height="75.683998"
         width="6.1680002"
         stroke-miterlimit="10"
         y="103.006"
         x="196.56599"
         style="fill:#ffffff;stroke:#000000;stroke-width:0.50849998;stroke-miterlimit:10" /><rect
         id="rect219"
         height="75.683998"
         width="6.1669998"
         stroke-miterlimit="10"
         y="103.006"
         x="74.633003"
         style="fill:#ffffff;stroke:#000000;stroke-width:0.50849998;stroke-miterlimit:10" /><line
         id="line221"
         y2="96.321999"
         x2="81.146004"
         y1="185.26401"
         x1="81.146004"
         stroke-miterlimit="10"
         style="fill:none;stroke:#000000;stroke-width:5.26919985;stroke-miterlimit:10" /><line
         id="line223"
         y2="96.321999"
         x2="196.082"
         y1="185.26401"
         x1="196.082"
         stroke-miterlimit="10"
         style="fill:none;stroke:#000000;stroke-width:5.26919985;stroke-miterlimit:10" /><g
         id="g225"><path
           id="path227"
           d="M 165.484,148.068 V 146.1 h 8.74 v 1.969 h -3.707 v 3.305 h 3.707 v 1.968 h -8.74 v -1.968 h 3.343 v -3.305 h -3.343 z"
           inkscape:connector-curvature="0" /><path
           id="path229"
           d="m 174.402,140.663 c 0,0.614 -0.088,1.144 -0.26,1.59 -0.172,0.445 -0.412,0.813 -0.719,1.104 -0.307,0.291 -0.673,0.504 -1.098,0.644 -0.426,0.14 -0.895,0.208 -1.406,0.208 h -5.438 v -1.968 h 5.272 c 0.354,0 0.654,-0.04 0.901,-0.12 0.248,-0.08 0.449,-0.189 0.605,-0.328 0.155,-0.139 0.268,-0.307 0.334,-0.504 0.067,-0.198 0.102,-0.414 0.102,-0.65 0,-0.479 -0.146,-0.867 -0.441,-1.166 -0.294,-0.299 -0.795,-0.447 -1.501,-0.447 h -5.272 v -1.969 h 5.438 c 0.514,0 0.982,0.071 1.413,0.215 0.429,0.144 0.796,0.361 1.104,0.655 0.307,0.296 0.543,0.669 0.713,1.123 0.169,0.452 0.253,0.991 0.253,1.613 z"
           inkscape:connector-curvature="0" /><path
           id="path231"
           d="m 174.338,132.25 c 0,0.479 -0.016,0.957 -0.044,1.432 -0.028,0.477 -0.099,0.971 -0.208,1.482 h -8.477 c -0.075,-0.404 -0.133,-0.846 -0.17,-1.325 -0.039,-0.479 -0.058,-0.925 -0.058,-1.337 0,-0.555 0.04,-1.064 0.119,-1.532 0.08,-0.467 0.217,-0.868 0.41,-1.204 0.192,-0.336 0.448,-0.6 0.763,-0.789 0.314,-0.188 0.705,-0.283 1.167,-0.283 0.698,0 1.249,0.337 1.652,1.01 0.211,-0.555 0.497,-0.934 0.858,-1.137 0.36,-0.2 0.77,-0.303 1.224,-0.303 0.916,0 1.604,0.336 2.067,1.004 0.466,0.668 0.697,1.662 0.697,2.982 z m -5.423,0.996 v -0.958 c 0,-0.604 -0.077,-1.039 -0.233,-1.3 -0.154,-0.26 -0.404,-0.391 -0.75,-0.391 -0.354,0 -0.602,0.135 -0.744,0.402 -0.144,0.27 -0.215,0.665 -0.215,1.186 0,0.17 0.002,0.351 0.006,0.543 0.006,0.193 0.017,0.365 0.033,0.518 h 1.903 z m 1.501,0 h 2.258 c 0.018,-0.143 0.03,-0.298 0.038,-0.467 0.009,-0.168 0.013,-0.354 0.013,-0.555 0,-0.589 -0.084,-1.063 -0.252,-1.426 -0.168,-0.361 -0.479,-0.543 -0.934,-0.543 -0.404,0 -0.691,0.151 -0.864,0.454 -0.172,0.304 -0.259,0.735 -0.259,1.3 v 1.237 l 0,0 z"
           inkscape:connector-curvature="0" /></g><rect
         id="rect233"
         height="3.154"
         width="16.854"
         y="177.84"
         x="128.908" /><rect
         id="rect235"
         height="3.152"
         width="16.854"
         y="100.056"
         x="128.908" /></g><g
       transform="matrix(0,1.5953618,-1.5953618,0,466.52139,-28.535574)"
       id="g237"><path
         id="path239"
         d="m 215.325,139.581 c 0.137,-0.04 0.291,-0.084 0.462,-0.132 0.172,-0.049 0.35,-0.1 0.533,-0.155 0.183,-0.055 0.365,-0.11 0.55,-0.167 0.185,-0.057 0.354,-0.111 0.51,-0.165 -0.17,-0.044 -0.354,-0.088 -0.555,-0.133 -0.2,-0.046 -0.407,-0.088 -0.62,-0.128 -0.214,-0.041 -0.426,-0.08 -0.639,-0.118 -0.211,-0.038 -0.416,-0.075 -0.611,-0.108 v -0.811 c 0.58,0.117 1.168,0.253 1.766,0.404 0.596,0.154 1.162,0.317 1.699,0.496 v 0.713 c -0.32,0.117 -0.656,0.229 -1.008,0.34 -0.352,0.109 -0.704,0.219 -1.059,0.324 0.354,0.106 0.707,0.215 1.059,0.32 0.352,0.106 0.688,0.219 1.008,0.336 v 0.713 c -0.537,0.178 -1.104,0.342 -1.699,0.494 -0.598,0.151 -1.186,0.286 -1.766,0.403 v -0.844 c 0.195,-0.034 0.4,-0.07 0.611,-0.111 0.213,-0.04 0.425,-0.082 0.639,-0.125 0.213,-0.044 0.42,-0.088 0.62,-0.134 0.2,-0.045 0.385,-0.092 0.555,-0.139 -0.163,-0.061 -0.337,-0.119 -0.521,-0.176 -0.184,-0.057 -0.366,-0.111 -0.551,-0.164 -0.183,-0.055 -0.358,-0.104 -0.529,-0.147 -0.17,-0.044 -0.321,-0.086 -0.454,-0.123 v -0.663 z"
         inkscape:connector-curvature="0"
         style="fill:#ffffff" /><path
         id="path241"
         d="m 215.029,136.404 c 0.138,0 0.244,0.045 0.322,0.133 0.078,0.088 0.117,0.193 0.117,0.313 0,0.12 -0.039,0.226 -0.117,0.313 -0.078,0.087 -0.186,0.133 -0.322,0.133 -0.135,0 -0.243,-0.045 -0.322,-0.133 -0.078,-0.088 -0.117,-0.192 -0.117,-0.313 0,-0.119 0.039,-0.225 0.117,-0.313 0.079,-0.088 0.188,-0.133 0.322,-0.133 z m 3.391,0.071 v 0.744 h -2.63 v -0.744 h 2.63 z"
         inkscape:connector-curvature="0"
         style="fill:#ffffff" /><path
         id="path243"
         d="m 216.59,136 v -1.45 h 0.676 V 136 h -0.676 z"
         inkscape:connector-curvature="0"
         style="fill:#ffffff" /><path
         id="path245"
         d="m 218.42,134.025 h -3.465 v -2.32 h 0.654 v 1.539 h 0.726 v -1.369 h 0.655 v 1.369 h 1.43 v 0.781 z"
         inkscape:connector-curvature="0"
         style="fill:#ffffff" /><path
         id="path247"
         d="m 215.029,130.389 c 0.138,0 0.244,0.045 0.322,0.133 0.078,0.088 0.117,0.192 0.117,0.313 0,0.121 -0.039,0.225 -0.117,0.313 -0.078,0.09 -0.186,0.134 -0.322,0.134 -0.135,0 -0.243,-0.044 -0.322,-0.134 -0.078,-0.088 -0.117,-0.19 -0.117,-0.313 0,-0.119 0.039,-0.225 0.117,-0.313 0.079,-0.088 0.188,-0.133 0.322,-0.133 z m 3.391,0.069 v 0.746 h -2.63 v -0.746 h 2.63 z"
         inkscape:connector-curvature="0"
         style="fill:#ffffff" /></g></g></svg>