<?xml version="1.0" encoding="utf-8"?>
<!-- Generator: Adobe Illustrator 16.0.0, SVG Export Plug-In . SVG Version: 6.00 Build 0)  -->
<!DOCTYPE svg PUBLIC "-//W3C//DTD SVG 1.1//EN" "http://www.w3.org/Graphics/SVG/1.1/DTD/svg11.dtd">
<svg version="1.1" id="Layer_1" xmlns="http://www.w3.org/2000/svg" xmlns:xlink="http://www.w3.org/1999/xlink" x="0px" y="0px"
	 width="1144.583px" height="453.5px" viewBox="-247.083 -53.5 1144.583 453.5"
	 enable-background="new -247.083 -53.5 1144.583 453.5" xml:space="preserve">
<g>
	<g>
		<line fill="none" stroke="#3499CD" stroke-width="5" stroke-miterlimit="10" x1="111.804" y1="198.46" x2="233.867" y2="198.46"/>
		<g>
			<polygon fill="#3499CD" points="225.559,200.96 226.996,202.148 233.492,202.148 233.492,194.771 226.996,194.771 
				225.559,195.976 			"/>
			<g>
				<polygon fill="#3499CD" stroke="#1E314B" stroke-miterlimit="10" points="258.84,207.333 240.422,207.333 233.492,205.333 
					233.492,191.587 240.401,189.587 258.84,189.587 				"/>
				<g>
					<path fill="#FFFFFF" d="M244.014,194.239v0.78h-3.465v-0.78h1.471v-1.31h-1.471v-0.78h3.465v0.78h-1.324v1.31H244.014z"/>
					<path fill="#FFFFFF" d="M242.285,198.854c-0.301,0-0.563-0.047-0.785-0.141c-0.225-0.093-0.408-0.225-0.557-0.396
						c-0.146-0.172-0.256-0.381-0.328-0.628c-0.074-0.247-0.111-0.523-0.111-0.83c0-0.14,0.006-0.304,0.018-0.489
						c0.012-0.188,0.035-0.371,0.072-0.551h3.375c0.033,0.18,0.057,0.367,0.068,0.563s0.018,0.363,0.018,0.502
						c0,0.297-0.033,0.566-0.1,0.809c-0.068,0.241-0.172,0.449-0.316,0.622c-0.143,0.173-0.326,0.307-0.549,0.399
						C242.865,198.808,242.598,198.854,242.285,198.854z M241.184,196.6c-0.002,0.036-0.006,0.079-0.006,0.128
						c-0.002,0.048-0.004,0.105-0.004,0.172c0,0.391,0.1,0.68,0.295,0.867c0.197,0.188,0.469,0.283,0.816,0.283
						c0.363,0,0.637-0.09,0.824-0.271c0.188-0.18,0.279-0.465,0.279-0.854c0-0.054,0-0.109-0.002-0.166s-0.006-0.109-0.012-0.159
						H241.184z"/>
					<path fill="#FFFFFF" d="M244.014,200.425c-0.109,0.061-0.246,0.129-0.406,0.207c-0.162,0.08-0.338,0.162-0.525,0.246
						c-0.189,0.086-0.381,0.17-0.578,0.254s-0.381,0.162-0.555,0.236c0.174,0.072,0.357,0.152,0.555,0.234
						c0.197,0.084,0.389,0.17,0.578,0.254c0.188,0.086,0.363,0.168,0.525,0.246c0.16,0.078,0.297,0.148,0.406,0.209v0.709
						c-0.229,0.033-0.486,0.064-0.771,0.092c-0.285,0.029-0.582,0.055-0.891,0.076s-0.617,0.041-0.928,0.061
						c-0.309,0.018-0.602,0.033-0.875,0.047v-0.76c0.338-0.01,0.703-0.023,1.1-0.041c0.398-0.016,0.797-0.041,1.201-0.074
						c-0.141-0.061-0.295-0.127-0.465-0.201c-0.17-0.072-0.34-0.146-0.51-0.219c-0.17-0.07-0.334-0.141-0.488-0.207
						s-0.287-0.125-0.396-0.172v-0.545c0.109-0.047,0.242-0.104,0.396-0.17c0.154-0.068,0.318-0.137,0.488-0.209
						s0.34-0.145,0.51-0.219c0.17-0.072,0.324-0.14,0.465-0.2c-0.404-0.033-0.803-0.058-1.201-0.075
						c-0.396-0.016-0.762-0.029-1.1-0.039v-0.761c0.273,0.014,0.566,0.029,0.875,0.048c0.311,0.018,0.619,0.038,0.928,0.061
						c0.309,0.021,0.605,0.046,0.891,0.074s0.543,0.059,0.771,0.093V200.425z"/>
					<path fill="#FFFFFF" d="M244.014,203.991v0.779h-3.465v-0.779H244.014z"/>
				</g>
			</g>
			<line fill="none" stroke="#1E314B" stroke-miterlimit="10" x1="231.996" y1="194.771" x2="231.996" y2="202.148"/>
			<line fill="none" stroke="#1E314B" stroke-miterlimit="10" x1="230.496" y1="194.771" x2="230.496" y2="202.148"/>
			<line fill="none" stroke="#1E314B" stroke-miterlimit="10" x1="228.996" y1="194.771" x2="228.996" y2="202.148"/>
			<line fill="none" stroke="#1E314B" stroke-miterlimit="10" x1="227.496" y1="194.771" x2="227.496" y2="202.148"/>
		</g>
	</g>
	<g>
		<g>
			<polyline fill="none" stroke="#FFCE0C" stroke-width="5" stroke-miterlimit="10" points="279.699,400 279.698,318.435 
				279.698,276.071 			"/>
		</g>
		<g>
			<polygon fill="#FFCE0C" points="276.456,282.515 273.456,274.544 285.941,274.544 282.941,282.515 			"/>
			<polygon fill="#FFCE0C" stroke="#F89939" stroke-width="0.869" stroke-miterlimit="10" points="272.456,261.116 286.941,261.116 
				286.941,272.515 285.941,274.544 273.456,274.544 272.456,272.515 			"/>
			<path fill="#FFCE0C" stroke="#F89939" stroke-width="0.869" stroke-miterlimit="10" d="M272.456,272.628"/>
			
				<line fill="none" stroke="#F89939" stroke-width="0.8801" stroke-miterlimit="10" x1="285.941" y1="276.003" x2="273.441" y2="276.003"/>
			
				<line fill="none" stroke="#F89939" stroke-width="0.903" stroke-miterlimit="10" x1="285.191" y1="277.503" x2="274.191" y2="277.503"/>
			
				<line fill="none" stroke="#F89939" stroke-width="0.9361" stroke-miterlimit="10" x1="284.441" y1="279.003" x2="274.941" y2="279.003"/>
			
				<line fill="none" stroke="#F89939" stroke-width="0.8854" stroke-miterlimit="10" x1="283.941" y1="280.503" x2="275.441" y2="280.503"/>
			<rect x="276.068" y="281.683" fill="#F89939" width="7.186" height="3.486"/>
		</g>
	</g>
	<g>
		<polygon fill="#6FC498" stroke="#579975" stroke-miterlimit="10" points="317.855,284.733 300.427,284.733 302.427,265.552 
			315.855,265.552 		"/>
		<g>
			<g>
				<g>
					<path fill="none" stroke="#579975" stroke-width="2" stroke-miterlimit="10" d="M318.697,295.156
						c-5.281,5.28-13.83,5.28-19.113,0"/>
					<path fill="none" stroke="#579975" stroke-width="2" stroke-miterlimit="10" d="M316.198,292.656
						c-3.902,3.899-10.215,3.899-14.115,0"/>
					<path fill="none" stroke="#579975" stroke-width="2" stroke-miterlimit="10" d="M313.271,289.964
						c-2.281,2.283-5.979,2.283-8.262,0"/>
				</g>
			</g>
		</g>
	</g>
	<g>
		<path fill="#FFFFFF" d="M305.839,277.675c0.039,0.137,0.084,0.291,0.131,0.462c0.049,0.172,0.1,0.35,0.156,0.533
			c0.055,0.183,0.109,0.366,0.166,0.55s0.111,0.354,0.166,0.51c0.043-0.17,0.088-0.354,0.133-0.555s0.088-0.407,0.127-0.62
			c0.041-0.214,0.08-0.426,0.119-0.638c0.037-0.212,0.074-0.416,0.107-0.612h0.811c-0.117,0.58-0.252,1.168-0.404,1.765
			c-0.154,0.597-0.318,1.163-0.496,1.7h-0.713c-0.117-0.32-0.23-0.656-0.34-1.008s-0.219-0.704-0.324-1.058
			c-0.107,0.354-0.215,0.706-0.32,1.058c-0.107,0.352-0.219,0.688-0.336,1.008h-0.713c-0.178-0.537-0.342-1.104-0.494-1.7
			s-0.287-1.185-0.404-1.765h0.844c0.035,0.196,0.07,0.4,0.111,0.612s0.082,0.424,0.125,0.638c0.045,0.213,0.088,0.42,0.135,0.62
			c0.045,0.2,0.09,0.385,0.137,0.555c0.061-0.163,0.119-0.337,0.176-0.52c0.057-0.184,0.111-0.367,0.166-0.551
			c0.053-0.183,0.102-0.359,0.146-0.529s0.086-0.322,0.123-0.455H305.839z"/>
		<path fill="#FFFFFF" d="M309.015,277.38c0,0.137-0.045,0.244-0.133,0.322s-0.193,0.117-0.313,0.117s-0.225-0.039-0.313-0.117
			s-0.133-0.186-0.133-0.322s0.045-0.244,0.133-0.323c0.088-0.078,0.193-0.117,0.313-0.117s0.225,0.039,0.313,0.117
			C308.97,277.136,309.015,277.243,309.015,277.38z M308.945,280.77H308.2v-2.63h0.744V280.77z"/>
		<path fill="#FFFFFF" d="M309.419,278.939h1.451v0.675h-1.451V278.939z"/>
		<path fill="#FFFFFF" d="M311.394,280.77v-3.465h2.32v0.655h-1.539v0.725h1.369v0.655h-1.369v1.43H311.394z"/>
		<path fill="#FFFFFF" d="M315.031,277.38c0,0.137-0.045,0.244-0.133,0.322s-0.193,0.117-0.313,0.117
			c-0.121,0-0.225-0.039-0.313-0.117s-0.133-0.186-0.133-0.322s0.045-0.244,0.133-0.323c0.088-0.078,0.191-0.117,0.313-0.117
			c0.119,0,0.225,0.039,0.313,0.117C314.986,277.136,315.031,277.243,315.031,277.38z M314.96,280.77h-0.746v-2.63h0.746V280.77z"/>
	</g>
	<g>
		
			<rect x="250.038" y="142.378" fill="#FFFFFF" stroke="#EF4069" stroke-width="0.5395" stroke-miterlimit="10" width="91.076" height="116.668"/>
		<g>
			<g>
				<g>
					<path fill="#010101" stroke="#FFFFFF" stroke-width="0.2145" stroke-miterlimit="10" d="M295.204,191.088"/>
				</g>
				<g>
					<path fill="#010101" stroke="#FFFFFF" stroke-width="0.2145" stroke-miterlimit="10" d="M295.204,191.088"/>
				</g>
				<g>
					<path fill="#010101" stroke="#FFFFFF" stroke-width="0.2145" stroke-miterlimit="10" d="M295.204,191.088"/>
				</g>
				<g>
					<path fill="#010101" stroke="#FFFFFF" stroke-width="0.2145" stroke-miterlimit="10" d="M295.204,191.088"/>
				</g>
			</g>
			<polyline fill="#3499CD" points="322.013,206.502 308.609,214.544 295.206,222.587 295.206,206.502 295.206,190.418 			"/>
			<polyline fill="#996699" points="322.013,206.502 322.013,190.418 322.013,174.332 308.624,182.375 295.206,190.418 			"/>
			<polyline fill="#F89939" points="295.208,158.247 281.802,166.29 268.396,174.332 281.802,182.375 295.208,190.418 			"/>
			<polyline fill="#EF3B68" points="295.206,158.247 308.609,166.29 322.013,174.332 308.609,182.375 295.206,190.418 			"/>
			<polyline fill="#FFCE0C" points="268.396,206.502 281.802,214.544 295.208,222.587 295.208,206.502 295.208,190.418 			"/>
			<polyline fill="#6FC498" points="268.398,206.502 268.398,190.418 268.398,174.332 281.802,182.375 295.206,190.418 			"/>
			<g>
				<g>
					<g>
						
							<line fill="none" stroke="#FFFFFF" stroke-width="0.6434" stroke-miterlimit="10" x1="295.21" y1="158.247" x2="295.21" y2="158.998"/>
						
							<line fill="none" stroke="#FFFFFF" stroke-width="0.6434" stroke-miterlimit="10" stroke-dasharray="1.4605,1.4605" x1="295.21" y1="160.458" x2="295.204" y2="188.938"/>
						
							<line fill="none" stroke="#FFFFFF" stroke-width="0.6434" stroke-miterlimit="10" x1="295.204" y1="189.667" x2="295.204" y2="190.418"/>
					</g>
				</g>
				<g>
					<g>
						
							<line fill="none" stroke="#FFFFFF" stroke-width="0.6434" stroke-miterlimit="10" x1="295.204" y1="190.418" x2="295.849" y2="190.804"/>
						
							<line fill="none" stroke="#FFFFFF" stroke-width="0.6434" stroke-miterlimit="10" stroke-dasharray="1.5664,1.5664" x1="297.193" y1="191.61" x2="320.698" y2="205.713"/>
						
							<line fill="none" stroke="#FFFFFF" stroke-width="0.6434" stroke-miterlimit="10" x1="321.37" y1="206.116" x2="322.013" y2="206.502"/>
					</g>
				</g>
				<g>
					<g>
						
							<line fill="none" stroke="#FFFFFF" stroke-width="0.6434" stroke-miterlimit="10" x1="295.204" y1="190.418" x2="294.562" y2="190.804"/>
						
							<line fill="none" stroke="#FFFFFF" stroke-width="0.6434" stroke-miterlimit="10" stroke-dasharray="1.5664,1.5664" x1="293.218" y1="191.61" x2="269.712" y2="205.713"/>
						
							<line fill="none" stroke="#FFFFFF" stroke-width="0.6434" stroke-miterlimit="10" x1="269.04" y1="206.116" x2="268.396" y2="206.502"/>
					</g>
				</g>
			</g>
			<g>
				
					<line fill="none" stroke="#FFFFFF" stroke-width="0.6434" stroke-miterlimit="10" x1="295.21" y1="222.587" x2="295.204" y2="190.418"/>
				
					<line fill="none" stroke="#FFFFFF" stroke-width="0.6434" stroke-miterlimit="10" x1="295.204" y1="190.418" x2="322.013" y2="174.332"/>
				
					<line fill="none" stroke="#FFFFFF" stroke-width="0.6434" stroke-miterlimit="10" x1="295.204" y1="190.418" x2="268.396" y2="174.332"/>
			</g>
		</g>
		
			<rect x="255.243" y="262.198" fill="#FFFFFF" stroke="#EF4069" stroke-width="0.5395" stroke-miterlimit="10" width="80.295" height="6.543"/>
		
			<rect x="255.243" y="132.833" fill="#FFFFFF" stroke="#EF4069" stroke-width="0.5395" stroke-miterlimit="10" width="80.295" height="6.543"/>
		
			<line fill="none" stroke="#EF3B68" stroke-width="5.5904" stroke-miterlimit="10" x1="248.267" y1="139.742" x2="342.63" y2="139.742"/>
		
			<line fill="none" stroke="#EF3B68" stroke-width="5.5904" stroke-miterlimit="10" x1="248.267" y1="261.684" x2="342.63" y2="261.684"/>
		<g>
			<path d="M287.73,229.22h2.088v9.275h-2.088v-3.936h-3.506v3.936h-2.088v-9.275h2.088v3.547h3.506V229.22z"/>
			<path d="M295.585,238.683c-0.65,0-1.213-0.092-1.686-0.275c-0.473-0.182-0.863-0.438-1.172-0.762
				c-0.307-0.326-0.535-0.715-0.682-1.164c-0.146-0.451-0.221-0.949-0.221-1.492v-5.77h2.088v5.594c0,0.375,0.041,0.695,0.127,0.957
				c0.084,0.264,0.201,0.479,0.348,0.643c0.146,0.166,0.326,0.283,0.535,0.355c0.209,0.07,0.439,0.107,0.689,0.107
				c0.508,0,0.922-0.156,1.238-0.469s0.475-0.844,0.475-1.594v-5.594h2.088v5.77c0,0.543-0.076,1.043-0.229,1.498
				c-0.15,0.455-0.383,0.846-0.695,1.172c-0.313,0.324-0.709,0.576-1.191,0.756C296.818,238.593,296.245,238.683,295.585,238.683z"
				/>
			<path d="M304.511,238.614c-0.508,0-1.014-0.016-1.52-0.047c-0.504-0.031-1.027-0.104-1.572-0.221v-8.992
				c0.43-0.08,0.896-0.141,1.406-0.182c0.508-0.039,0.98-0.059,1.418-0.059c0.59,0,1.131,0.041,1.627,0.127
				c0.494,0.084,0.92,0.229,1.277,0.434s0.635,0.477,0.836,0.811s0.301,0.748,0.301,1.238c0,0.74-0.355,1.324-1.07,1.752
				c0.59,0.225,0.99,0.527,1.205,0.91c0.215,0.385,0.32,0.816,0.32,1.299c0,0.973-0.354,1.703-1.063,2.195
				C306.968,238.37,305.911,238.614,304.511,238.614z M303.454,232.86h1.018c0.643,0,1.102-0.082,1.377-0.248
				c0.277-0.164,0.416-0.43,0.416-0.795c0-0.375-0.143-0.639-0.428-0.791c-0.287-0.15-0.705-0.227-1.26-0.227
				c-0.178,0-0.369,0.002-0.574,0.006c-0.205,0.006-0.389,0.016-0.549,0.033V232.86z M303.454,234.452v2.396
				c0.152,0.018,0.316,0.031,0.494,0.041c0.18,0.008,0.375,0.012,0.59,0.012c0.625,0,1.129-0.088,1.512-0.268
				c0.383-0.178,0.576-0.508,0.576-0.99c0-0.428-0.16-0.732-0.482-0.916c-0.32-0.184-0.781-0.275-1.379-0.275H303.454z"/>
		</g>
		<rect x="252.796" y="190.416" fill="#EF3B68" width="3.348" height="17.88"/>
		<rect x="335.323" y="190.416" fill="#EF3B68" width="3.346" height="17.88"/>
	</g>
	<g>
		<g>
			<path fill="none" d="M255.116,269.752"/>
		</g>
		<g>
			<path fill="none" d="M255.116,256.324"/>
		</g>
		<g>
			<path fill="none" d="M277.648,248.038"/>
		</g>
		<g>
			<path fill="none" d="M272.814,263.24"/>
		</g>
		<g>
			<path fill="none" d="M268.986,255.582"/>
		</g>
		<g>
			<path fill="none" d="M235.952,263.24"/>
		</g>
		<g>
			<path fill="none" d="M239.781,255.582"/>
		</g>
	</g>
</g>
<g>
	<g>
		<path fill="#231F20" d="M485.355,268.368c-14.396,2.821-27.983-0.008-27.983-0.008s-4.843-1.438-6.009-2.334
			c-1.166-0.897-6.165-3.187-6.838-3.522c-0.673-0.337-1.593-1.952-1.593-1.952c-11.523-2.604-21.168,4.837-21.302,5.24
			s-0.584,2.69-0.584,2.69c-9.423,16.815-14.097,46.143-14.097,46.143c-2.158,20.269-1.076,35.518,8.063,35.342
			c9.137-0.177,11.122-0.896,23.503-12.014c12.38-11.118,27.269-11.292,33.027-10.931c5.759,0.36,19.176-1.788,33.881,12.029
			c14.705,13.816,22.599,11.127,25.469,9.872c2.869-1.254,11.125-13.449,2.885-46.1c-8.242-32.65-11.649-34.085-11.649-34.085
			c0.001-0.359-0.627-2.96-0.627-2.96c-10.492-8.255-21.075-5.209-21.075-5.209s-1.616,1.973-1.929,2.376
			c-0.314,0.403-3.724,1.568-6.817,3.182C488.584,267.741,485.355,268.368,485.355,268.368z"/>
		<path fill="#656766" d="M421.046,268.482c0,0,0.45-2.287,0.584-2.69s9.778-7.845,21.302-5.24c0,0,0.92,1.615,1.593,1.952
			C444.525,262.504,432.485,259.876,421.046,268.482z"/>
		<path fill="#656766" d="M522.127,268.739c0.284,0.22-0.627-2.96-0.627-2.96c-10.492-8.255-21.075-5.209-21.075-5.209
			s-1.616,1.973-1.929,2.376C498.496,262.946,510.918,260.023,522.127,268.739z"/>
		<path fill="#414142" d="M460.594,285.312c0,1.449-1.25,2.624-2.792,2.623h-1.009c-1.543-0.001-2.791-1.175-2.791-2.624l0,0
			c0-1.449,1.251-2.623,2.793-2.623l1.009,0.001C459.345,282.688,460.594,283.863,460.594,285.312L460.594,285.312z"/>
		<path fill="#414142" d="M489.088,285.321c0,1.449-1.252,2.623-2.793,2.622h-1.01c-1.542,0-2.791-1.175-2.79-2.624l0,0
			c0-1.449,1.251-2.624,2.793-2.623h1.008C487.838,282.697,489.088,283.872,489.088,285.321L489.088,285.321z"/>
		<g>
			<ellipse fill="#FFCE0C" cx="510.42" cy="274.245" rx="4.59" ry="4.624"/>
			<ellipse fill="#EF3B68" cx="500.101" cy="284.589" rx="4.591" ry="4.624"/>
			<ellipse fill="#6FC498" cx="510.478" cy="295.038" rx="4.591" ry="4.625"/>
			<ellipse fill="#3499CD" cx="520.732" cy="284.596" rx="4.591" ry="4.624"/>
		</g>
		<g>
			<ellipse fill="#414142" cx="431.926" cy="284.396" rx="13.467" ry="13.555"/>
			<ellipse fill="#656766" stroke="#231F20" stroke-width="1.0733" cx="431.804" cy="284.361" rx="9.283" ry="8.881"/>
			<g>
				<circle fill="#231F20" cx="431.87" cy="278.756" r="0.519"/>
				<circle fill="#231F20" cx="426.532" cy="284.046" r="0.518"/>
				<circle fill="#231F20" cx="431.866" cy="289.294" r="0.519"/>
				<circle fill="#231F20" cx="437.071" cy="284.049" r="0.519"/>
			</g>
		</g>
		<g>
			<ellipse fill="#414142" cx="490.147" cy="308.408" rx="13.467" ry="13.554"/>
			<path fill="#656766" stroke="#231F20" stroke-width="1.0733" d="M499.309,308.377c-0.002,4.904-4.157,8.878-9.287,8.877
				c-5.127-0.002-8.785-3.945-8.784-8.849c0.003-4.905,3.665-8.912,8.791-8.909C495.155,299.496,499.31,303.473,499.309,308.377z"/>
			<g>
				<circle fill="#231F20" cx="490.616" cy="302.9" r="0.519"/>
				<path fill="#231F20" d="M485.796,308.19c0,0.286-0.232,0.518-0.518,0.516c-0.287,0-0.519-0.229-0.521-0.516
					c0.002-0.285,0.233-0.517,0.519-0.516C485.564,307.676,485.797,307.906,485.796,308.19z"/>
				<circle fill="#231F20" cx="490.613" cy="313.44" r="0.519"/>
				<circle fill="#231F20" cx="495.816" cy="308.194" r="0.517"/>
			</g>
		</g>
		<g>
			<ellipse fill="#414142" cx="451.124" cy="307.544" rx="14.483" ry="14.404"/>
			<path fill="#656766" stroke="#231F20" stroke-width="1.0733" d="M461.964,307.61c-0.002,5.985-5.001,10.835-11.164,10.832
				c-6.165,0-10.563-4.812-10.561-10.797c0.001-5.984,4.403-10.875,10.568-10.873C456.971,296.773,461.966,301.626,461.964,307.61z"
				/>
			<path fill="none" stroke="#231F20" stroke-width="1.0733" d="M440.677,304.545c0,0,5.202,0.091,5.921-0.94
				c0.717-1.029,1.246-2.361,0.977-6.353c0,0,3.645-1.404,6.918,0.212c0,0-0.45,3.676,0.4,5.156c0.854,1.48,0.942,1.708,6.593,1.933
				c0,0,1.119,3.452-0.228,6.77c0,0-1.927-0.181-4.662,0.313c-2.737,0.493-2.155,5.739-2.11,6.234c0,0-2.916,1.389-6.906-0.003
				c0,0,0.54-4.35-1.074-5.742c0,0-0.403-0.896-5.605-0.853C440.9,311.271,439.511,308.76,440.677,304.545z"/>
		</g>
	</g>
	<g>
		<polygon fill="#3499CD" points="471.672,281.391 474.684,283.197 477.694,285.004 474.683,286.812 471.672,288.618 
			471.672,285.004 		"/>
		<polygon fill="#996699" points="477.694,277.776 474.686,279.583 471.672,281.391 474.683,283.197 477.694,285.004 
			477.694,281.391 		"/>
		<polygon fill="#F89939" points="471.672,274.162 468.659,275.97 465.648,277.776 468.659,279.583 471.672,281.391 
			471.672,277.776 		"/>
		<polygon fill="#EF3B68" points="471.672,274.162 474.683,275.97 477.694,277.776 474.683,279.583 471.672,281.391 
			471.672,277.776 		"/>
		<polygon fill="#FFCE0C" points="471.672,281.391 468.659,283.197 465.648,285.004 468.659,286.812 471.672,288.618 
			471.672,285.004 		"/>
		<polygon fill="#6FC498" points="465.649,277.776 468.659,279.583 471.672,281.391 468.659,283.197 465.649,285.004 
			465.649,281.391 		"/>
	</g>
</g>
<g>
	<path d="M486.329,232.806c0,1.824-1.479,3.304-3.303,3.304h-31.655c-1.824,0-3.303-1.479-3.303-3.304v-63.394
		c0-1.824,1.479-3.303,3.303-3.303h31.655c1.824,0,3.303,1.479,3.303,3.303V232.806z"/>
	<rect x="450.5" y="172.5" fill="#3499CD" width="34" height="54"/>
	<circle fill="#FFFFFF" cx="467.156" cy="231.178" r="2.817"/>
	<path fill="#FFFFFF" d="M474.5,169.888c0,0.338-0.34,0.612-0.76,0.612h-13.48c-0.42,0-0.76-0.274-0.76-0.612v-0.776
		c0-0.338,0.34-0.612,0.76-0.612h13.48c0.42,0,0.76,0.274,0.76,0.612V169.888z"/>
</g>
<g>
	<path d="M522.651,134.927c0,3.912-3.172,7.083-7.084,7.083h-98.984c-3.912,0-7.083-3.172-7.083-7.083V-0.906
		c0-3.912,3.171-7.083,7.083-7.083h98.984c3.912,0,7.084,3.172,7.084,7.083V134.927z"/>
	<g>
		<g>
			<g>
				<rect x="417.5" y="-0.5" fill="#3499CD" width="98" height="123"/>
				<circle fill="#FFFFFF" cx="467.723" cy="132.505" r="6.144"/>
			</g>
		</g>
	</g>
</g>
<g>
	<g>
		<g>
			<defs>
				<polyline id="SVGID_1_" points="-225.684,317.922 -225.684,64.78 121.754,64.78 121.754,317.922 				"/>
			</defs>
			<clipPath id="SVGID_2_">
				<use xlink:href="#SVGID_1_"  overflow="visible"/>
			</clipPath>
			<path clip-path="url(#SVGID_2_)" d="M-21.815,271.508h137.943c3.354,0,5.918-2.719,5.918-6.055v-8.793
				c0-0.107,0.031-0.186,0.031-0.293V75.068c0-5.669-4.604-10.288-10.273-10.288l0,0h-327.195c-5.672,0-10.293,4.619-10.293,10.288
				v181.299v0.014v9.072c0,3.336,2.722,6.055,6.055,6.055h133.93"/>
			<path clip-path="url(#SVGID_2_)" fill="#3499CD" d="M111.804,257.496h-327.195V75.872c0-0.804,0.648-1.453,1.452-1.453h324.274
				c0.803,0,1.469,0.649,1.469,1.453V257.496z"/>
			<path clip-path="url(#SVGID_2_)" d="M111.804,257.496"/>
		</g>
	</g>
	<rect x="97.013" y="262.768" fill="#FFFFFF" width="13.906" height="5.348"/>
	
		<line fill="none" stroke="#000000" stroke-width="4.0114" stroke-linecap="round" stroke-miterlimit="10" x1="-51.965" y1="69.148" x2="-161.588" y2="21.813"/>
	
		<line fill="none" stroke="#000000" stroke-width="4.0114" stroke-linecap="round" stroke-miterlimit="10" x1="-51.965" y1="69.148" x2="57.658" y2="21.813"/>
	<circle cx="-161.589" cy="21.813" r="4.163"/>
	<circle cx="56.364" cy="21.813" r="4.163"/>
	<g>
		
			<line fill="none" stroke="#000000" stroke-width="16.0457" stroke-miterlimit="10" x1="-3.826" y1="265.439" x2="-3.826" y2="306.625"/>
		
			<line fill="none" stroke="#000000" stroke-width="16.0457" stroke-miterlimit="10" x1="-100.102" y1="265.439" x2="-100.102" y2="306.625"/>
		
			<line fill="none" stroke="#000000" stroke-width="8.0228" stroke-miterlimit="10" x1="-148.239" y1="306.625" x2="44.31" y2="306.625"/>
	</g>
	<rect x="-187.379" y="71.663" fill="none" width="95" height="19.688"/>
</g>
<g>
	<path fill="none" d="M-163.776,348.922"/>
</g>
<g>
	<path fill="none" d="M-163.775,148.944"/>
</g>
<rect x="-207.002" y="101.942" fill="none" width="95" height="19.688"/>
<path id="rect3330_4_" fill="#3499CD" d="M484.6,79.814h-3.502c-3.174,0-5.748-2.574-5.748-5.75v-3.501
	c0-3.176,2.574-5.75,5.748-5.75h3.502c3.175,0,5.75,2.574,5.75,5.75v3.501C490.35,77.24,487.775,79.814,484.6,79.814z"/>
<g>
	<g>
		<g>
			<path fill-rule="evenodd" clip-rule="evenodd" d="M840.315,236.291c0,4.907-3.979,8.885-8.885,8.885H618.188
				c-4.906,0-8.885-3.978-8.885-8.885V109.85c0-4.907,3.979-8.885,8.885-8.885H831.43c4.906,0,8.885,3.978,8.885,8.885V236.291z"/>
			<polygon fill-rule="evenodd" clip-rule="evenodd" fill="#C2C1C1" points="609.223,237.779 573.08,295.339 875.172,294.817 
				840.395,237.43 			"/>
			<path fill-rule="evenodd" clip-rule="evenodd" fill="#676767" d="M875.508,295.096L875.508,295.096
				c0,3.241-3.428,5.869-7.654,5.869h-286.77c-4.227,0-7.654-2.628-7.654-5.869l0,0"/>
			<rect x="622.182" y="112.561" fill-rule="evenodd" clip-rule="evenodd" fill="#3499CD" width="205.371" height="114.361"/>
		</g>
		<g>
			<g opacity="0.15">
				<polygon fill="#090909" points="624.333,254.645 617.265,254.645 620.465,247.468 627.301,247.468 				"/>
				<polygon fill="#090909" points="629.784,263.7 613.228,263.7 616.428,256.523 632.463,256.523 				"/>
				<polygon fill="#090909" points="626.473,273.61 609.194,273.61 612.381,266.435 629.139,266.435 				"/>
				<polygon fill="#090909" points="632.813,254.645 625.744,254.645 628.666,247.468 635.502,247.468 				"/>
				<polygon fill="#090909" points="641.292,254.645 634.226,254.645 636.869,247.468 643.703,247.468 				"/>
				<polygon fill="#090909" points="649.772,254.645 642.705,254.645 645.071,247.468 651.905,247.468 				"/>
				<polygon fill="#090909" points="658.253,254.645 651.185,254.645 653.272,247.468 660.108,247.468 				"/>
				<polygon fill="#090909" points="666.733,254.645 659.664,254.645 661.473,247.468 668.309,247.468 				"/>
				<polygon fill="#090909" points="675.212,254.645 668.144,254.645 669.674,247.468 676.51,247.468 				"/>
				<polygon fill="#090909" points="683.692,254.645 676.625,254.645 677.877,247.468 684.711,247.468 				"/>
				<polygon fill="#090909" points="692.173,254.645 685.105,254.645 686.078,247.468 692.914,247.468 				"/>
				<polygon fill="#090909" points="700.653,254.645 693.584,254.645 694.28,247.468 701.115,247.468 				"/>
				<polygon fill="#090909" points="709.132,254.645 702.066,254.645 702.483,247.468 709.317,247.468 				"/>
				<polygon fill="#090909" points="717.612,254.645 710.545,254.645 710.684,247.468 717.518,247.468 				"/>
				<polygon fill="#090909" points="726.091,254.645 719.025,254.645 718.885,247.468 725.719,247.468 				"/>
				<polygon fill="#090909" points="734.573,254.645 727.504,254.645 727.086,247.468 733.922,247.468 				"/>
				<polygon fill="#090909" points="743.052,254.645 735.984,254.645 735.287,247.468 742.123,247.468 				"/>
				<polygon fill="#090909" points="751.531,254.645 744.465,254.645 743.49,247.468 750.324,247.468 				"/>
				<polygon fill="#090909" points="760.011,254.645 752.945,254.645 751.692,247.468 758.526,247.468 				"/>
				<polygon fill="#090909" points="768.49,254.645 761.424,254.645 759.893,247.468 766.727,247.468 				"/>
				<polygon fill="#090909" points="776.972,254.645 769.904,254.645 768.094,247.468 774.93,247.468 				"/>
				<polygon fill="#090909" points="785.451,254.645 778.385,254.645 776.297,247.468 783.131,247.468 				"/>
				<polygon fill="#090909" points="793.933,254.645 786.865,254.645 784.498,247.468 791.334,247.468 				"/>
				<polygon fill="#090909" points="802.41,254.645 795.344,254.645 792.699,247.468 799.533,247.468 				"/>
				<polygon fill="#090909" points="810.892,254.645 803.825,254.645 800.903,247.468 807.737,247.468 				"/>
				<polygon fill="#090909" points="819.371,254.645 812.305,254.645 809.104,247.468 815.938,247.468 				"/>
				<polygon fill="#090909" points="827.851,254.645 820.784,254.645 817.305,247.468 824.139,247.468 				"/>
				<polygon fill="#090909" points="612.674,282.838 604.695,282.838 607.895,275.661 615.642,275.661 				"/>
				<polygon fill="#090909" points="622.247,282.838 614.268,282.838 617.19,275.661 624.937,275.661 				"/>
				<polygon fill="#090909" points="631.82,282.838 623.843,282.838 626.486,275.661 634.231,275.661 				"/>
				<polygon fill="#090909" points="641.393,282.838 633.415,282.838 635.781,275.661 643.526,275.661 				"/>
				<polygon fill="#090909" points="650.967,282.838 642.989,282.838 645.074,275.661 652.823,275.661 				"/>
				<polygon fill="#090909" points="660.54,282.838 652.561,282.838 654.369,275.661 662.116,275.661 				"/>
				<polygon fill="#090909" points="784.594,282.838 662.532,282.838 664.051,275.661 782.564,275.661 				"/>
				<polygon fill="#090909" points="794.566,282.838 786.589,282.838 784.5,275.661 792.245,275.661 				"/>
				<polygon fill="#090909" points="804.141,282.838 796.161,282.838 793.795,275.661 801.542,275.661 				"/>
				<polygon fill="#090909" points="813.711,282.838 805.735,282.838 803.09,275.661 810.834,275.661 				"/>
				<polygon fill="#090909" points="823.286,282.838 815.31,282.838 812.386,275.661 820.131,275.661 				"/>
				<polygon fill="#090909" points="832.86,282.838 824.882,282.838 821.681,275.661 829.426,275.661 				"/>
				<polygon fill="#090909" points="842.432,282.838 834.455,282.838 830.975,275.661 838.72,275.661 				"/>
				<polygon fill="#090909" points="638.249,263.7 630.891,263.7 633.534,256.523 640.66,256.523 				"/>
				<polygon fill="#090909" points="647.08,263.7 639.722,263.7 642.086,256.523 649.213,256.523 				"/>
				<polygon fill="#090909" points="655.913,263.7 648.552,263.7 650.639,256.523 657.768,256.523 				"/>
				<polygon fill="#090909" points="664.743,263.7 657.383,263.7 659.192,256.523 666.32,256.523 				"/>
				<polygon fill="#090909" points="673.574,263.7 666.213,263.7 667.743,256.523 674.872,256.523 				"/>
				<polygon fill="#090909" points="682.405,263.7 675.046,263.7 676.298,256.523 683.424,256.523 				"/>
				<polygon fill="#090909" points="691.238,263.7 683.877,263.7 684.85,256.523 691.979,256.523 				"/>
				<polygon fill="#090909" points="700.069,263.7 692.707,263.7 693.403,256.523 700.531,256.523 				"/>
				<polygon fill="#090909" points="708.899,263.7 701.54,263.7 701.957,256.523 709.083,256.523 				"/>
				<polygon fill="#090909" points="717.73,263.7 710.371,263.7 710.509,256.523 717.636,256.523 				"/>
				<polygon fill="#090909" points="726.56,263.7 719.201,263.7 719.062,256.523 726.189,256.523 				"/>
				<polygon fill="#090909" points="735.393,263.7 728.032,263.7 727.614,256.523 734.742,256.523 				"/>
				<polygon fill="#090909" points="744.224,263.7 736.863,263.7 736.166,256.523 743.295,256.523 				"/>
				<polygon fill="#090909" points="753.054,263.7 745.696,263.7 744.721,256.523 751.847,256.523 				"/>
				<polygon fill="#090909" points="761.885,263.7 754.527,263.7 753.273,256.523 760.4,256.523 				"/>
				<polygon fill="#090909" points="770.715,263.7 763.357,263.7 761.825,256.523 768.952,256.523 				"/>
				<polygon fill="#090909" points="779.548,263.7 772.188,263.7 770.378,256.523 777.506,256.523 				"/>
				<polygon fill="#090909" points="788.379,263.7 781.021,263.7 778.932,256.523 786.059,256.523 				"/>
				<polygon fill="#090909" points="797.211,263.7 789.851,263.7 787.485,256.523 794.614,256.523 				"/>
				<polygon fill="#090909" points="806.04,263.7 798.682,263.7 796.036,256.523 803.163,256.523 				"/>
				<polygon fill="#090909" points="814.873,263.7 807.514,263.7 804.591,256.523 811.718,256.523 				"/>
				<polygon fill="#090909" points="823.703,263.7 816.345,263.7 813.144,256.523 820.27,256.523 				"/>
				<polygon fill="#090909" points="837.395,273.098 829.733,273.098 821.696,256.523 828.823,256.523 				"/>
				<polygon fill="#090909" points="634.92,273.61 627.241,273.61 629.884,266.435 637.331,266.435 				"/>
				<polygon fill="#090909" points="644.135,273.61 636.456,273.61 638.821,266.435 646.268,266.435 				"/>
				<polygon fill="#090909" points="653.352,273.61 645.671,273.61 647.757,266.435 655.206,266.435 				"/>
				<polygon fill="#090909" points="662.567,273.61 654.886,273.61 656.694,266.435 664.143,266.435 				"/>
				<polygon fill="#090909" points="671.781,273.61 664.101,273.61 665.631,266.435 673.079,266.435 				"/>
				<polygon fill="#090909" points="680.997,273.61 673.319,273.61 674.57,266.435 682.017,266.435 				"/>
				<polygon fill="#090909" points="690.214,273.61 682.533,273.61 683.506,266.435 690.955,266.435 				"/>
				<polygon fill="#090909" points="699.429,273.61 691.748,273.61 692.443,266.435 699.892,266.435 				"/>
				<polygon fill="#090909" points="708.644,273.61 700.965,273.61 701.382,266.435 708.828,266.435 				"/>
				<polygon fill="#090909" points="717.859,273.61 710.18,273.61 710.319,266.435 717.765,266.435 				"/>
				<polygon fill="#090909" points="727.073,273.61 719.395,273.61 719.255,266.435 726.701,266.435 				"/>
				<polygon fill="#090909" points="736.291,273.61 728.61,273.61 728.192,266.435 735.641,266.435 				"/>
				<polygon fill="#090909" points="745.506,273.61 737.824,273.61 737.128,266.435 744.577,266.435 				"/>
				<polygon fill="#090909" points="754.721,273.61 747.042,273.61 746.067,266.435 753.514,266.435 				"/>
				<polygon fill="#090909" points="763.936,273.61 756.257,273.61 755.004,266.435 762.45,266.435 				"/>
				<polygon fill="#090909" points="773.151,273.61 765.472,273.61 763.941,266.435 771.387,266.435 				"/>
				<polygon fill="#090909" points="782.367,273.61 774.687,273.61 772.877,266.435 780.326,266.435 				"/>
				<polygon fill="#090909" points="791.582,273.61 783.904,273.61 781.816,266.435 789.263,266.435 				"/>
				<polygon fill="#090909" points="800.8,273.61 793.119,273.61 790.752,266.435 798.201,266.435 				"/>
				<polygon fill="#090909" points="810.013,273.61 802.334,273.61 799.69,266.435 807.136,266.435 				"/>
				<polygon fill="#090909" points="819.23,273.61 811.551,273.61 808.628,266.435 816.075,266.435 				"/>
				<polygon fill="#090909" points="828.445,273.61 820.766,273.61 817.565,266.435 825.012,266.435 				"/>
			</g>
			<g>
				<g>
					<polygon points="624.333,254.114 617.265,254.114 620.465,246.938 627.301,246.938 					"/>
					<polygon points="629.784,263.17 613.228,263.17 616.428,255.993 632.463,255.993 					"/>
					<polygon points="626.473,273.08 609.194,273.08 612.381,265.904 629.139,265.904 					"/>
					<polygon points="632.813,254.114 625.744,254.114 628.666,246.938 635.502,246.938 					"/>
					<polygon points="641.292,254.114 634.226,254.114 636.869,246.938 643.703,246.938 					"/>
					<polygon points="649.772,254.114 642.705,254.114 645.071,246.938 651.905,246.938 					"/>
					<polygon points="658.253,254.114 651.185,254.114 653.272,246.938 660.108,246.938 					"/>
					<polygon points="666.733,254.114 659.664,254.114 661.473,246.938 668.309,246.938 					"/>
					<polygon points="675.212,254.114 668.144,254.114 669.674,246.938 676.51,246.938 					"/>
					<polygon points="683.692,254.114 676.625,254.114 677.877,246.938 684.711,246.938 					"/>
					<polygon points="692.173,254.114 685.105,254.114 686.078,246.938 692.914,246.938 					"/>
					<polygon points="700.653,254.114 693.584,254.114 694.28,246.938 701.115,246.938 					"/>
					<polygon points="709.132,254.114 702.066,254.114 702.483,246.938 709.317,246.938 					"/>
					<polygon points="717.612,254.114 710.545,254.114 710.684,246.938 717.518,246.938 					"/>
					<polygon points="726.091,254.114 719.025,254.114 718.885,246.938 725.719,246.938 					"/>
					<polygon points="734.573,254.114 727.504,254.114 727.086,246.938 733.922,246.938 					"/>
					<polygon points="743.052,254.114 735.984,254.114 735.287,246.938 742.123,246.938 					"/>
					<polygon points="751.531,254.114 744.465,254.114 743.49,246.938 750.324,246.938 					"/>
					<polygon points="760.011,254.114 752.945,254.114 751.692,246.938 758.526,246.938 					"/>
					<polygon points="768.49,254.114 761.424,254.114 759.893,246.938 766.727,246.938 					"/>
					<polygon points="776.972,254.114 769.904,254.114 768.094,246.938 774.93,246.938 					"/>
					<polygon points="785.451,254.114 778.385,254.114 776.297,246.938 783.131,246.938 					"/>
					<polygon points="793.933,254.114 786.865,254.114 784.498,246.938 791.334,246.938 					"/>
					<polygon points="802.41,254.114 795.344,254.114 792.699,246.938 799.533,246.938 					"/>
					<polygon points="810.892,254.114 803.825,254.114 800.903,246.938 807.737,246.938 					"/>
					<polygon points="819.371,254.114 812.305,254.114 809.104,246.938 815.938,246.938 					"/>
					<polygon points="827.851,254.114 820.784,254.114 817.305,246.938 824.139,246.938 					"/>
					<polygon points="612.674,282.308 604.695,282.308 607.895,275.131 615.642,275.131 					"/>
					<polygon points="622.247,282.308 614.268,282.308 617.19,275.131 624.937,275.131 					"/>
					<polygon points="631.82,282.308 623.843,282.308 626.486,275.131 634.231,275.131 					"/>
					<polygon points="641.393,282.308 633.415,282.308 635.781,275.131 643.526,275.131 					"/>
					<polygon points="650.967,282.308 642.989,282.308 645.074,275.131 652.823,275.131 					"/>
					<polygon points="660.54,282.308 652.561,282.308 654.369,275.131 662.116,275.131 					"/>
					<polygon points="784.594,282.308 662.532,282.308 664.051,275.131 782.564,275.131 					"/>
					<polygon points="794.566,282.308 786.589,282.308 784.5,275.131 792.245,275.131 					"/>
					<polygon points="804.141,282.308 796.161,282.308 793.795,275.131 801.542,275.131 					"/>
					<polygon points="813.711,282.308 805.735,282.308 803.09,275.131 810.834,275.131 					"/>
					<polygon points="823.286,282.308 815.31,282.308 812.386,275.131 820.131,275.131 					"/>
					<polygon points="832.86,282.308 824.882,282.308 821.681,275.131 829.426,275.131 					"/>
					<polygon points="842.432,282.308 834.455,282.308 830.975,275.131 838.72,275.131 					"/>
					<polygon points="638.249,263.17 630.891,263.17 633.534,255.993 640.66,255.993 					"/>
					<polygon points="647.08,263.17 639.722,263.17 642.086,255.993 649.213,255.993 					"/>
					<polygon points="655.913,263.17 648.552,263.17 650.639,255.993 657.768,255.993 					"/>
					<polygon points="664.743,263.17 657.383,263.17 659.192,255.993 666.32,255.993 					"/>
					<polygon points="673.574,263.17 666.213,263.17 667.743,255.993 674.872,255.993 					"/>
					<polygon points="682.405,263.17 675.046,263.17 676.298,255.993 683.424,255.993 					"/>
					<polygon points="691.238,263.17 683.877,263.17 684.85,255.993 691.979,255.993 					"/>
					<polygon points="700.069,263.17 692.707,263.17 693.403,255.993 700.531,255.993 					"/>
					<polygon points="708.899,263.17 701.54,263.17 701.957,255.993 709.083,255.993 					"/>
					<polygon points="717.73,263.17 710.371,263.17 710.509,255.993 717.636,255.993 					"/>
					<polygon points="726.56,263.17 719.201,263.17 719.062,255.993 726.189,255.993 					"/>
					<polygon points="735.393,263.17 728.032,263.17 727.614,255.993 734.742,255.993 					"/>
					<polygon points="744.224,263.17 736.863,263.17 736.166,255.993 743.295,255.993 					"/>
					<polygon points="753.054,263.17 745.696,263.17 744.721,255.993 751.847,255.993 					"/>
					<polygon points="761.885,263.17 754.527,263.17 753.273,255.993 760.4,255.993 					"/>
					<polygon points="770.715,263.17 763.357,263.17 761.825,255.993 768.952,255.993 					"/>
					<polygon points="779.548,263.17 772.188,263.17 770.378,255.993 777.506,255.993 					"/>
					<polygon points="788.379,263.17 781.021,263.17 778.932,255.993 786.059,255.993 					"/>
					<polygon points="797.211,263.17 789.851,263.17 787.485,255.993 794.614,255.993 					"/>
					<polygon points="806.04,263.17 798.682,263.17 796.036,255.993 803.163,255.993 					"/>
					<polygon points="814.873,263.17 807.514,263.17 804.591,255.993 811.718,255.993 					"/>
					<polygon points="823.703,263.17 816.345,263.17 813.144,255.993 820.27,255.993 					"/>
					<polygon points="837.395,272.567 829.733,272.567 821.696,255.993 828.823,255.993 					"/>
					<polygon points="634.92,273.08 627.241,273.08 629.884,265.904 637.331,265.904 					"/>
					<polygon points="644.135,273.08 636.456,273.08 638.821,265.904 646.268,265.904 					"/>
					<polygon points="653.352,273.08 645.671,273.08 647.757,265.904 655.206,265.904 					"/>
					<polygon points="662.567,273.08 654.886,273.08 656.694,265.904 664.143,265.904 					"/>
					<polygon points="671.781,273.08 664.101,273.08 665.631,265.904 673.079,265.904 					"/>
					<polygon points="680.997,273.08 673.319,273.08 674.57,265.904 682.017,265.904 					"/>
					<polygon points="690.214,273.08 682.533,273.08 683.506,265.904 690.955,265.904 					"/>
					<polygon points="699.429,273.08 691.748,273.08 692.443,265.904 699.892,265.904 					"/>
					<polygon points="708.644,273.08 700.965,273.08 701.382,265.904 708.828,265.904 					"/>
					<polygon points="717.859,273.08 710.18,273.08 710.319,265.904 717.765,265.904 					"/>
					<polygon points="727.073,273.08 719.395,273.08 719.255,265.904 726.701,265.904 					"/>
					<polygon points="736.291,273.08 728.61,273.08 728.192,265.904 735.641,265.904 					"/>
					<polygon points="745.506,273.08 737.824,273.08 737.128,265.904 744.577,265.904 					"/>
					<polygon points="754.721,273.08 747.042,273.08 746.067,265.904 753.514,265.904 					"/>
					<polygon points="763.936,273.08 756.257,273.08 755.004,265.904 762.45,265.904 					"/>
					<polygon points="773.151,273.08 765.472,273.08 763.941,265.904 771.387,265.904 					"/>
					<polygon points="782.367,273.08 774.687,273.08 772.877,265.904 780.326,265.904 					"/>
					<polygon points="791.582,273.08 783.904,273.08 781.816,265.904 789.263,265.904 					"/>
					<polygon points="800.8,273.08 793.119,273.08 790.752,265.904 798.201,265.904 					"/>
					<polygon points="810.013,273.08 802.334,273.08 799.69,265.904 807.136,265.904 					"/>
					<polygon points="819.23,273.08 811.551,273.08 808.628,265.904 816.075,265.904 					"/>
					<polygon points="828.445,273.08 820.766,273.08 817.565,265.904 825.012,265.904 					"/>
				</g>
			</g>
		</g>
	</g>
	
		<line fill="none" stroke="#FFFFFF" stroke-width="3" stroke-miterlimit="10" x1="693.196" y1="232.179" x2="755.391" y2="232.179"/>
</g>
</svg>
