<?xml version="1.0" encoding="utf-8"?>
<!-- Generator: Adobe Illustrator 16.0.0, SVG Export Plug-In . SVG Version: 6.00 Build 0)  -->
<!DOCTYPE svg PUBLIC "-//W3C//DTD SVG 1.1//EN" "http://www.w3.org/Graphics/SVG/1.1/DTD/svg11.dtd">
<svg version="1.1" id="Layer_1" xmlns="http://www.w3.org/2000/svg" xmlns:xlink="http://www.w3.org/1999/xlink" x="0px" y="0px"
	 width="400px" height="250px" viewBox="0 0 400 250" enable-background="new 0 0 400 250" xml:space="preserve">
<polygon fill="#996699" points="68.676,60.835 40.329,77.841 11.982,60.835 11.982,26.82 40.329,9.812 68.676,26.82 "/>
<polygon fill="#F89839" points="68.676,140.836 40.329,157.841 11.982,140.836 11.982,106.82 40.329,89.812 68.676,106.82 "/>
<polygon fill="#3399CC" points="68.676,220.836 40.329,237.841 11.982,220.836 11.982,186.82 40.329,169.813 68.676,186.82 "/>
<polygon fill="#6EC498" points="148.676,220.836 120.329,237.841 91.982,220.836 91.982,186.82 120.329,169.813 148.676,186.82 "/>
<polygon fill="#EE3968" points="228.676,220.836 200.329,237.841 171.982,220.836 171.982,186.82 200.329,169.813 228.676,186.82 
	"/>
<polygon fill="#3399CC" points="308.676,220.836 280.329,237.841 251.982,220.836 251.982,186.82 280.329,169.813 308.676,186.82 
	"/>
<polygon fill="#EE3968" points="388.676,220.836 360.328,237.841 331.982,220.836 331.982,186.82 360.328,169.813 388.676,186.82 
	"/>
<polygon fill="#996699" points="388.676,140.836 360.328,157.841 331.982,140.836 331.982,106.82 360.328,89.813 388.676,106.82 "/>
<polygon fill="#FFCE09" points="388.676,60.836 360.328,77.841 331.982,60.836 331.982,26.82 360.328,9.813 388.676,26.82 "/>
<polygon fill="#6EC498" points="228.676,60.836 200.329,77.841 171.982,60.836 171.982,26.82 200.329,9.813 228.676,26.82 "/>
<polygon fill="#3399CC" points="148.676,60.836 120.329,77.841 91.982,60.836 91.982,26.82 120.329,9.813 148.676,26.82 "/>
<polygon fill="#FFCE09" points="148.676,140.836 120.329,157.841 91.982,140.836 91.982,106.82 120.329,89.813 148.676,106.82 "/>
<polygon fill="#6EC498" points="308.676,140.836 280.329,157.841 251.982,140.836 251.982,106.82 280.329,89.813 308.676,106.82 "/>
<g>
	<g>
		<path id="path3305" fill="none" stroke="#9FD2A2" stroke-width="3.1133" d="M117.257,189.201
			c-12.598-1.333-23.383,18.619-4.42,29.938"/>
	</g>
	<g>
		<path id="path3307" fill="none" stroke="#CFE8D0" stroke-width="3.1133" d="M123.067,194.287
			c-9.206-4.594-17.443,2.438-16.646,10.248c0.822,8.041,8.255,14.604,24.998,11.597"/>
	</g>
	<g>
		<path id="path3309" fill="none" stroke="#FFFFFF" stroke-width="3.1133" d="M124.146,200.514
			c-3.056-5.505-10.197-4.724-12.754-0.666c-2.004,3.178-2.349,10.92,8.673,12.786c5.077,0.73,12.823-0.093,18.791-0.78"/>
	</g>
</g>
<g>
	<g>
		<path fill="#3399CC" d="M42.063,186.673c0.382,0.146,0.79,0.125,1.187,0.187c7.366,1.132,13.238,6.714,14.566,14.045
			c1.06,5.845-0.449,11.035-4.548,15.354c-3.687,3.885-8.302,5.649-13.642,5.391c-8.064-0.395-14.827-6.435-16.233-14.418
			c-0.077-0.438-0.127-0.879-0.19-1.317c-0.011-0.063,0.02-0.144-0.072-0.168c0-0.979,0-1.96,0-2.94
			c0.082-0.039,0.054-0.115,0.06-0.179c0.204-2.387,0.849-4.653,2.018-6.743c2.729-4.882,6.844-7.888,12.354-8.939
			c0.584-0.112,1.179-0.182,1.769-0.27C40.241,186.673,41.15,186.673,42.063,186.673z M52.57,202.021
			c-0.493-0.502-0.98-1.01-1.48-1.508c-0.363-0.363-0.833-0.384-1.157-0.066c-0.314,0.309-0.311,0.806,0.039,1.158
			c1.008,1.021,2.026,2.031,3.043,3.045c0.254,0.254,0.556,0.358,0.901,0.207c0.342-0.149,0.466-0.424,0.466-0.791
			c0-2.364-0.586-4.573-1.741-6.62c-2.778-4.931-8.145-7.654-13.78-6.925c-3.212,0.416-5.957,1.81-8.202,4.152
			c-1.604,1.676-2.711,3.637-3.318,5.875c-0.157,0.579,0.216,1.061,0.783,1.033c0.395-0.02,0.602-0.229,0.754-0.752
			c1.674-5.813,7.274-9.514,13.27-8.771c5.035,0.623,9.193,4.346,10.357,9.277c0.052,0.225,0.167,0.45,0.065,0.689L52.57,202.021
			L52.57,202.021z M28.641,206.282c0.549,0.555,1.032,1.047,1.523,1.532c0.358,0.354,0.838,0.358,1.154,0.031
			c0.312-0.322,0.299-0.777-0.047-1.123c-1.011-1.02-2.026-2.033-3.043-3.045c-0.279-0.279-0.581-0.34-0.899-0.193
			c-0.326,0.15-0.46,0.41-0.457,0.767c0.007,0.788,0.081,1.565,0.213,2.342c1.144,6.663,7.146,11.552,13.896,11.332
			c3.49-0.112,6.518-1.345,9.067-3.717c1.884-1.754,3.171-3.883,3.859-6.366c0.124-0.449-0.015-0.82-0.363-0.994
			c-0.488-0.246-0.982,0.021-1.153,0.631c-1.57,5.6-7.088,9.643-13.278,8.785c-5.018-0.692-8.36-3.563-10.089-8.313
			C28.842,207.445,28.699,206.921,28.641,206.282z"/>
		<path fill="#FFFFFF" d="M52.57,202.025c0.102-0.238-0.014-0.465-0.065-0.688c-1.164-4.933-5.322-8.653-10.357-9.276
			c-5.994-0.742-11.596,2.959-13.27,8.771c-0.152,0.524-0.359,0.731-0.754,0.752c-0.567,0.026-0.94-0.454-0.783-1.033
			c0.607-2.237,1.714-4.2,3.318-5.875c2.245-2.344,4.989-3.737,8.202-4.153c5.636-0.729,11.001,1.996,13.78,6.926
			c1.155,2.047,1.741,4.256,1.741,6.619c0,0.369-0.124,0.643-0.466,0.793c-0.346,0.15-0.647,0.046-0.901-0.207
			c-1.018-1.014-2.035-2.025-3.043-3.047c-0.35-0.353-0.354-0.85-0.039-1.157c0.323-0.316,0.794-0.296,1.157,0.065
			c0.5,0.499,0.987,1.008,1.48,1.51c0.002-0.025,0.079,0.011,0.038-0.049C52.595,201.993,52.582,202.009,52.57,202.025z"/>
		<path fill="#FFFFFF" d="M28.641,206.282c0.059,0.639,0.201,1.163,0.385,1.669c1.729,4.75,5.071,7.619,10.09,8.313
			c6.188,0.856,11.708-3.187,13.277-8.785c0.171-0.608,0.665-0.877,1.153-0.631c0.349,0.174,0.487,0.545,0.363,0.994
			c-0.688,2.483-1.976,4.612-3.859,6.366c-2.55,2.372-5.577,3.604-9.067,3.717c-6.752,0.22-12.753-4.669-13.896-11.332
			c-0.132-0.774-0.206-1.554-0.213-2.342c-0.003-0.354,0.131-0.615,0.457-0.767c0.318-0.146,0.62-0.086,0.899,0.193
			c1.018,1.012,2.033,2.025,3.043,3.045c0.347,0.346,0.358,0.801,0.047,1.123c-0.316,0.327-0.796,0.321-1.154-0.031
			C29.673,207.329,29.19,206.837,28.641,206.282z"/>
	</g>
</g>
<g>
	<g>
		<g>
			<g>
				<path fill="none" stroke="#FFFFFF" stroke-width="2.327" d="M345.302,120.828c7.771-7.771,20.352-7.771,28.123,0"/>
				<path fill="none" stroke="#FFFFFF" stroke-width="2.327" d="M348.979,124.506c5.74-5.737,15.028-5.737,20.769,0"/>
				<path fill="none" stroke="#FFFFFF" stroke-width="2.327" d="M353.285,128.469c3.358-3.36,8.797-3.36,12.155,0"/>
			</g>
			<circle fill="#FFFFFF" cx="359.365" cy="132.431" r="2.569"/>
		</g>
	</g>
</g>
<g id="text3006">
	<path id="path3011" fill="#010101" d="M181.637,124.653c0.058,5.921,2.729,8.91,8.016,8.968c4.159,0,7.641-2.932,10.441-8.794
		c-2.513-5.604-6.109-8.463-10.788-8.578C184.251,116.334,181.694,119.136,181.637,124.653 M214.694,116.249
		c-4.68,0.115-8.274,2.975-10.789,8.578c2.803,5.862,6.283,8.794,10.442,8.794c5.285-0.059,7.957-3.047,8.015-8.968
		C222.305,119.136,219.748,116.334,214.694,116.249 M201.956,128.031v1.213h-0.13c-3.408,5.461-7.684,8.189-12.824,8.189h-0.606
		c-4.044-0.435-6.945-1.979-8.708-4.636c-1.763-2.688-2.644-5.187-2.643-7.496c-0.001-0.203,0.014-0.42,0.043-0.65
		c0-0.115,0-0.246,0-0.391c0-3.35,1.11-6.122,3.336-8.317c2.253-2.224,5.329-3.351,9.229-3.379c4.534,0,8.637,2.454,12.305,7.365
		c3.696-4.911,7.828-7.365,12.392-7.365c3.898,0.028,6.96,1.155,9.186,3.379c2.253,2.195,3.379,4.968,3.379,8.317
		c0,0.146,0,0.275,0,0.391c0.028,0.23,0.044,0.447,0.044,0.65c0,2.31-0.881,4.808-2.645,7.496c-1.762,2.656-4.664,4.201-8.708,4.636
		h-0.605c-5.143,0-9.432-2.729-12.867-8.189h-0.087L201.956,128.031"/>
</g>
<g>
	<polygon fill="#EE3968" points="308.676,60.837 280.329,77.841 251.982,60.837 251.982,26.821 280.329,9.813 308.676,26.821 	"/>
	<g>
		<g>
			<path fill="#FFFFFF" d="M284.726,40.592c-0.802,0.712-1.88,1.978-2.942,1.86c0,0,1.136,0.369,1.492,1.063
				c-0.075-0.172-0.248-0.62-0.108-0.924c0,0,0.594,0.463,1.739,0.1c1.145-0.364,1.015-1.855,1.015-1.855s0.229-0.123,0.325,0.67
				c0,0,0.278-0.852,0.083-1.402C286.131,39.553,285.525,39.879,284.726,40.592z"/>
			<path fill="#FFFFFF" d="M283.616,41.837c0.969,0.405,1.069-0.582,1.069-0.582l0.229-0.302c0.089,1.687-1.376,1.204-1.376,1.204
				L283.616,41.837z"/>
			<path fill="#FFFFFF" d="M285.307,42.067c-0.504,0.848-1.919,0.521-2.097,0.308l0.119-0.109c0,0,0.653,0.495,1.419-0.022
				c0.766-0.518,0.391-1.409,0.391-1.409l0.219-0.094C285.357,40.74,285.763,41.212,285.307,42.067z"/>
		</g>
		<path fill="#FFFFFF" d="M283.275,43.516c0.021,0.045,0.033,0.071,0.033,0.071C283.299,43.564,283.287,43.54,283.275,43.516z"/>
		<path fill="#FFFFFF" d="M281.826,42.011c1.243,0.033,2.005-1.263,2.005-1.263c-0.564,0.396-1.244,0.688-1.891,0.493
			c-0.646-0.196-0.919-0.622-0.919-0.622v0.023C281.022,40.643,280.583,41.978,281.826,42.011z"/>
		<path fill="#FFFFFF" d="M281.367,43.638c0.301,0.004,0.478,0.22,1.048,0.707c0.568,0.488,1.631,0.46,1.631,0.46
			c-0.886-0.163-1.239-0.847-1.723-1.081C281.841,43.49,281.367,43.638,281.367,43.638z"/>
		<path fill="#FFFFFF" d="M283.698,48.15c0.145-0.783-0.283-1.125-1.07-0.754c-0.787,0.37-1.864,1.329-1.864,1.329
			c0.428,0.701,0.158,1.227,0.158,1.227c0.297-0.07,0.449-0.401,0.449-0.401c1.535,0.357,1.49-1.787,1.628-1.75
			c0.614,0.235-0.063,1.788-0.063,1.788S283.554,48.933,283.698,48.15z"/>
		<path fill="#FFFFFF" d="M281.263,46.775c0,0,2.117-0.88,2.743,0.957c0.625,1.836-0.677,2.551-0.677,2.551s1.353-0.459,1.875-1.671
			c0.522-1.212,1.838-1.313,1.161-2.628c0,0-0.816,2.042-3.61-0.677C282.755,45.307,281.67,45.486,281.263,46.775z"/>
		<path fill="#FFFFFF" d="M280.327,43.997c0.272-0.746,0.493-0.968,1.239-1.24c-0.746-0.273-0.967-0.495-1.239-1.24
			c-0.271,0.746-0.494,0.967-1.24,1.24C279.833,43.029,280.056,43.25,280.327,43.997z"/>
		<path fill="#FFFFFF" d="M282.51,44.734c0,0-1.071-1.098-1.556,0.995C280.954,45.729,281.249,44.695,282.51,44.734z"/>
		<g>
			<path fill="#FFFFFF" d="M292.979,44.112c0.431,0,0.732,0.354,0.732,0.354c-0.218-1.049-0.704-2.052-1.188-2.855
				c0.624-0.327,0.93-1.446,0.688-2.676c-0.249-1.272-0.996-2.215-1.723-2.222c0.01-0.694-0.011-1.171-0.011-1.171
				c0.307-0.051,0.58,0.16,0.58,0.16c-0.688-3.503-4.632-5.684-4.632-5.684c0.192-0.135,0.384-0.105,0.384-0.105
				c-2.249-2.048-4.708-1.822-4.708-1.822c0.034-0.326,0.612-0.637,0.612-0.637c-2.118,0.202-2.969,0.634-3.26,0.833
				c-0.076-0.067-0.121-0.107-0.121-0.107s-0.047,0.041-0.129,0.111c-0.283-0.196-1.134-0.634-3.265-0.837
				c0,0,0.578,0.311,0.611,0.637c0,0-2.459-0.226-4.707,1.822c0,0,0.191-0.029,0.383,0.105c0,0-3.942,2.182-4.631,5.684
				c0,0,0.273-0.211,0.58-0.16c0,0-0.021,0.477-0.012,1.171c-0.728,0.007-1.474,0.949-1.722,2.222
				c-0.241,1.23,0.063,2.349,0.688,2.676c-0.482,0.804-0.969,1.807-1.188,2.855c0,0,0.304-0.354,0.732-0.354
				c0,0-1.607,2.114-1.014,5.156c0,0,0.19-0.545,0.508-0.611c0,0,0.151,2.938,1.846,4.104c0,0-0.076-0.322-0.02-0.571
				c0,0,3.293,2.443,3.407,3.324c0,0,0.152-0.396,0.052-0.83c0,0,2.192,2.769,2.026,3.713c0,0,0.336-0.216,0.451-0.661
				c0,0,0.604,0.886,1.627,1.412c0,0,0.078-0.311-0.014-0.574c0,0,1.037,0.98,1.918,1.144c0,0-0.015-0.32-0.176-0.488
				c0,0,1.928,0.604,2.036,0.973c0.109-0.369,2.038-0.973,2.038-0.973c-0.163,0.168-0.177,0.488-0.177,0.488
				c0.88-0.163,1.919-1.144,1.919-1.144c-0.092,0.263-0.016,0.574-0.016,0.574c1.023-0.526,1.627-1.412,1.627-1.412
				c0.115,0.445,0.452,0.661,0.452,0.661c-0.166-0.944,2.026-3.713,2.026-3.713c-0.102,0.434,0.053,0.83,0.053,0.83
				c0.113-0.881,3.405-3.324,3.405-3.324c0.059,0.249-0.019,0.571-0.019,0.571c1.693-1.167,1.846-4.104,1.846-4.104
				c0.315,0.066,0.508,0.611,0.508,0.611C294.585,46.226,292.979,44.112,292.979,44.112z"/>
			<path fill="#FFFFFF" d="M291.361,39.031c-0.003,0.001-0.005,0.001-0.008,0.002c0.072-0.611,0.109-1.234,0.126-1.782
				c0.544,0.279,1.017,0.979,1.188,1.86c0.169,0.86,0.008,1.669-0.371,2.138c-0.561-0.868-1.062-1.427-1.062-1.427
				s0.192-0.609,0.728-0.504C291.963,39.318,291.715,38.963,291.361,39.031z"/>
			<path fill="#FFFFFF" d="M280.052,29.133c0.182,0.072,0.277,0.125,0.277,0.125s0.1-0.055,0.284-0.128
				c0.564,0.686,1.903,1.661,3.681,2.476c2.255,1.035,3.201,2.215,3.201,2.215c-2.798-1.301-5.367-0.954-5.367-0.954
				c3.33,0.268,5.02,2.579,5.02,2.579c-1.607-1.366-4.545-0.833-4.545-0.833c1.768,0.173,2.104,1.172,2.104,1.172
				c-2.796,0.113-4.371,2.568-4.371,2.568s-1.576-2.454-4.373-2.568c0,0,0.336-0.999,2.104-1.172c0,0-2.938-0.533-4.545,0.833
				c0,0,1.689-2.312,5.021-2.579c0,0-2.57-0.347-5.367,0.954c0,0,0.945-1.18,3.201-2.215
				C278.147,30.792,279.485,29.819,280.052,29.133z"/>
			<path fill="#FFFFFF" d="M286.567,41.92c0,0-0.249,0.756-0.946,0.995c0,0,1.229,0.057,1.811-0.769
				c0.037,0.728-0.088,1.246-0.156,1.469c-1.625,1.504-3.515,0.531-3.515,0.531c0.936,0.973,2.1,1.189,3.151,0.529
				c0.499-0.313,0.76-0.751,0.896-1.126c0.008,0.392-0.142,0.629-0.142,0.629c1.131,0.922,1.001,2.57-0.144,4.12
				c-1.145,1.55-2.47,1.279-2.47,1.279c0.351,1.144,0.108,1.841,0.108,1.841c-0.238,0.556-0.53,0.997-0.854,1.349
				c-0.039,0.035-0.083,0.075-0.135,0.119c0.004-0.003,0.008-0.005,0.011-0.008c-0.005,0.005-0.012,0.01-0.019,0.015
				c0.003-0.002,0.006-0.004,0.008-0.007c-0.524,0.354-1.652,0.708-3.855,0.708c-2.139,0-3.266-0.332-3.809-0.676
				c-0.385-0.373-0.729-0.861-1.002-1.5c0,0-0.242-0.697,0.108-1.841c0,0-1.327,0.271-2.471-1.279
				c-1.145-1.55-1.272-3.198-0.143-4.12c0,0-0.144-0.226-0.144-0.6c0.142,0.367,0.4,0.792,0.885,1.097
				c1.054,0.66,2.218,0.443,3.152-0.529c0,0-1.877,0.966-3.498-0.518c-0.067-0.213-0.197-0.732-0.162-1.468
				c0.586,0.81,1.799,0.754,1.799,0.754c-0.696-0.239-0.944-0.995-0.944-0.995c-0.06,0.183,0.047,0.345,0.047,0.345
				c-0.527-0.237-0.742-0.551-0.813-0.836c0.08-0.438,0.224-0.922,0.457-1.444c0.988-2.201,2.826-2.283,6.554,0.471
				c3.337-2.726,5.563-2.672,6.552-0.471c0.229,0.512,0.371,0.988,0.452,1.417c-0.064,0.293-0.275,0.618-0.819,0.863
				C286.519,42.264,286.625,42.102,286.567,41.92z"/>
			<path fill="#FFFFFF" d="M267.989,39.111c0.173-0.881,0.646-1.581,1.189-1.86c0.016,0.548,0.053,1.171,0.125,1.782
				c-0.002-0.001-0.004-0.001-0.008-0.002c-0.354-0.067-0.604,0.287-0.604,0.287c0.537-0.105,0.729,0.504,0.729,0.504
				s-0.5,0.559-1.062,1.427C267.981,40.78,267.821,39.971,267.989,39.111z"/>
			<path fill="#FFFFFF" d="M273.644,52.311c-0.981-1.008-0.754-3.112-0.754-3.112c-0.637,0.842-0.459,2.462-0.459,2.462
				c-1.861-2.016-1.684-4.248-1.684-4.248c-0.854,1.519-0.396,3.598-0.396,3.598c-1.557-2.232-0.865-4.813-0.865-4.813
				c-0.967,1.062-1.053,3.205-1.053,3.205c-0.516-1.033-0.096-2.086-0.096-2.086c-0.486,0.259-0.582,1.129-0.582,1.129
				c-1.228-2.87,1.645-6.009,1.645-6.009l-1.358,0.816c0.715-1.684,1.914-2.864,1.914-2.864l0.557,0.843
				c-1.131-5.225-0.203-6.554-0.203-6.554c-0.324-0.029-0.641,0.22-0.641,0.22c1.283-3.617,6-5.081,6-5.081
				c-0.498-0.287-1.336-0.188-1.336-0.188c2.256-1.108,4.074-0.952,5.096-0.694c-0.494,0.394-1.117,0.856-1.664,1.169
				c-1.127,0.641-5.033,2.354-5.875,4.876c0,0,0.621-0.689,1.56-0.695c0,0-0.88,0.868-0.804,2.452c0,0,1.109-1.137,2.652-1.274
				c0,0-0.549,0.542-0.541,1.01c0,0,2.356-0.57,4.561,1.666c-1.133-0.564-3.039-1.228-4.78-0.49c0,0,0.559-0.062,0.729,0.087
				c0,0-2.297,0.844-2.66,4.223c0,0-0.26-0.263-0.244-0.771c0,0-0.588,1.624-0.207,2.477c0,0-0.987,1.689-0.711,3.313
				c0,0,0.121-0.377,0.33-0.45c0,0-0.061,1.729,1.316,2.805c0,0-0.172-0.337-0.104-0.55c0,0,0.296,0.686,1.101,1.284
				C273.554,50.966,273.644,52.311,273.644,52.311z"/>
			<path fill="#FFFFFF" d="M275.595,56.152c0.498-0.651,0.014-1.429,0.014-1.429c-0.383,0.854-1.213,0.624-1.213,0.624
				c0.613-0.331,0.556-1.313,0.556-1.313c-0.834-0.049-0.798-3.035-0.769-3.9c0.207,0.145,0.445,0.281,0.719,0.4
				c0,0-0.368,2.002,2.068,4.512C276.815,55.941,275.595,56.152,275.595,56.152z"/>
			<path fill="#FFFFFF" d="M280.335,55.847c-1.385,0-3.26-0.361-4.388-3.198c0,0,1.031,1.911,4.388,1.911
				c3.354,0,4.385-1.911,4.385-1.911C283.593,55.486,281.718,55.847,280.335,55.847z"/>
			<path fill="#FFFFFF" d="M286.261,55.347c0,0-0.829,0.23-1.211-0.624c0,0-0.485,0.777,0.013,1.429c0,0-1.212-0.208-1.374-1.097
				c2.449-2.514,2.079-4.521,2.079-4.521c0.27-0.117,0.503-0.251,0.707-0.393c0.028,0.875,0.063,3.844-0.769,3.893
				C285.706,54.034,285.649,55.016,286.261,55.347z"/>
			<path fill="#FFFFFF" d="M292.901,48.446c0,0-0.095-0.87-0.584-1.129c0,0,0.421,1.053-0.096,2.086c0,0-0.086-2.144-1.053-3.205
				c0,0,0.692,2.58-0.864,4.813c0,0,0.46-2.079-0.396-3.598c0,0,0.18,2.232-1.684,4.248c0,0,0.179-1.62-0.459-2.463
				c0,0,0.229,2.104-0.753,3.113c0,0,0.09-1.339-0.438-2.241c0.813-0.6,1.107-1.291,1.107-1.291c0.069,0.214-0.103,0.55-0.103,0.55
				c1.377-1.074,1.314-2.805,1.314-2.805c0.209,0.074,0.33,0.451,0.33,0.451c0.277-1.624-0.711-3.313-0.711-3.313
				c0.381-0.852-0.207-2.476-0.207-2.476c0.017,0.508-0.243,0.771-0.243,0.771c-0.364-3.378-2.66-4.223-2.66-4.223
				c0.169-0.148,0.729-0.087,0.729-0.087c-1.693-0.716-3.539-0.11-4.685,0.442c2.179-2.18,4.464-1.617,4.464-1.617
				c0.008-0.469-0.542-1.011-0.542-1.011c1.544,0.138,2.652,1.274,2.652,1.274c0.076-1.584-0.803-2.451-0.803-2.451
				c0.938,0.005,1.558,0.694,1.558,0.694c-0.84-2.521-4.748-4.235-5.874-4.876c-0.548-0.313-1.172-0.776-1.666-1.171
				c1.021-0.256,2.837-0.408,5.089,0.696c0,0-0.841-0.099-1.338,0.188c0,0,4.719,1.464,5.999,5.08c0,0-0.314-0.248-0.641-0.22
				c0,0,0.928,1.33-0.201,6.554l0.556-0.842c0,0,1.199,1.18,1.913,2.864l-1.357-0.816C291.256,42.437,294.126,45.576,292.901,48.446
				z"/>
		</g>
		<path fill="#FFFFFF" d="M277.382,43.516c-0.012,0.023-0.023,0.048-0.033,0.071C277.349,43.587,277.362,43.561,277.382,43.516z"/>
		<g>
			<path fill="#FFFFFF" d="M277.382,43.516c0.356-0.694,1.492-1.063,1.492-1.063c-1.063,0.117-2.144-1.148-2.941-1.86
				c-0.801-0.713-1.406-1.038-1.604-0.488c-0.197,0.551,0.082,1.402,0.082,1.402c0.096-0.793,0.325-0.67,0.325-0.67
				s-0.131,1.491,1.015,1.855c1.146,0.364,1.739-0.099,1.739-0.099C277.628,42.896,277.458,43.344,277.382,43.516z"/>
			<path fill="#FFFFFF" d="M275.743,40.954l0.227,0.302c0,0,0.104,0.987,1.07,0.582l0.078,0.32
				C277.118,42.158,275.653,42.64,275.743,40.954z"/>
			<path fill="#FFFFFF" d="M275.351,42.067c-0.457-0.854-0.051-1.327-0.051-1.327l0.219,0.094c0,0-0.375,0.891,0.392,1.409
				c0.766,0.517,1.418,0.022,1.418,0.022l0.118,0.109C277.269,42.587,275.854,42.915,275.351,42.067z"/>
		</g>
		<path fill="#FFFFFF" d="M278.831,42.011c1.244-0.033,0.803-1.367,0.803-1.367V40.62c0,0-0.271,0.426-0.918,0.622
			c-0.646,0.195-1.324-0.096-1.889-0.493C276.827,40.749,277.587,42.044,278.831,42.011z"/>
		<path fill="#FFFFFF" d="M278.243,44.345c0.567-0.487,0.745-0.703,1.047-0.707c0,0-0.476-0.148-0.957,0.086
			c-0.482,0.234-0.838,0.918-1.724,1.081C276.61,44.805,277.673,44.833,278.243,44.345z"/>
		<path fill="#FFFFFF" d="M278.03,47.396c-0.786-0.371-1.215-0.029-1.069,0.754c0.145,0.783,0.76,1.438,0.76,1.438
			s-0.678-1.553-0.061-1.788c0.137-0.037,0.092,2.107,1.627,1.75c0,0,0.151,0.331,0.448,0.401c0,0-0.268-0.525,0.16-1.227
			C279.896,48.725,278.817,47.766,278.03,47.396z"/>
		<path fill="#FFFFFF" d="M276.651,47.732c0.625-1.837,2.744-0.957,2.744-0.957c-0.408-1.289-1.492-1.468-1.492-1.468
			c-2.795,2.719-3.61,0.677-3.61,0.677c-0.676,1.314,0.637,1.416,1.16,2.628c0.522,1.212,1.875,1.671,1.875,1.671
			S276.026,49.568,276.651,47.732z"/>
		<path fill="#FFFFFF" d="M280.323,46.45c-0.192,0.364-0.352,0.473-0.881,0.605c0.529,0.134,0.688,0.242,0.881,0.605
			c0.193-0.363,0.351-0.472,0.882-0.605C280.673,46.922,280.517,46.814,280.323,46.45z"/>
		<path fill="#FFFFFF" d="M278.147,44.734c1.263-0.039,1.558,0.995,1.558,0.995C279.218,43.636,278.147,44.734,278.147,44.734z"/>
		<path fill="#FFFFFF" d="M284.726,40.592c-0.802,0.712-1.88,1.978-2.942,1.86c0,0,1.136,0.369,1.492,1.063
			c-0.075-0.172-0.248-0.62-0.108-0.924c0,0,0.594,0.463,1.739,0.1c1.145-0.364,1.015-1.855,1.015-1.855s0.229-0.123,0.325,0.67
			c0,0,0.278-0.852,0.083-1.402C286.131,39.553,285.525,39.879,284.726,40.592z M283.616,41.837
			c0.969,0.405,1.069-0.582,1.069-0.582l0.229-0.302c0.089,1.687-1.376,1.204-1.376,1.204L283.616,41.837z M285.307,42.067
			c-0.504,0.848-1.919,0.521-2.097,0.308l0.119-0.109c0,0,0.653,0.495,1.419-0.022c0.766-0.518,0.391-1.409,0.391-1.409l0.219-0.094
			C285.357,40.74,285.763,41.212,285.307,42.067z M283.275,43.516c0.021,0.045,0.033,0.071,0.033,0.071
			C283.299,43.564,283.287,43.54,283.275,43.516z M281.826,42.011c1.243,0.033,2.005-1.263,2.005-1.263
			c-0.564,0.396-1.244,0.688-1.891,0.493c-0.646-0.196-0.919-0.622-0.919-0.622v0.023C281.022,40.643,280.583,41.978,281.826,42.011
			z M281.367,43.638c0.301,0.004,0.478,0.22,1.048,0.707c0.568,0.488,1.631,0.46,1.631,0.46c-0.886-0.163-1.239-0.847-1.723-1.081
			C281.841,43.49,281.367,43.638,281.367,43.638z M283.698,48.15c0.145-0.783-0.283-1.125-1.07-0.754
			c-0.787,0.37-1.864,1.329-1.864,1.329c0.428,0.701,0.158,1.227,0.158,1.227c0.297-0.07,0.449-0.401,0.449-0.401
			c1.535,0.357,1.49-1.787,1.628-1.75c0.614,0.235-0.063,1.788-0.063,1.788S283.554,48.933,283.698,48.15z M281.263,46.775
			c0,0,2.117-0.88,2.743,0.957c0.625,1.836-0.677,2.551-0.677,2.551s1.353-0.459,1.875-1.671c0.522-1.212,1.838-1.313,1.161-2.628
			c0,0-0.816,2.042-3.61-0.677C282.755,45.307,281.67,45.486,281.263,46.775z M280.327,43.997c0.272-0.746,0.493-0.968,1.239-1.24
			c-0.746-0.273-0.967-0.495-1.239-1.24c-0.271,0.746-0.494,0.967-1.24,1.24C279.833,43.029,280.056,43.25,280.327,43.997z
			 M282.51,44.734c0,0-1.071-1.098-1.556,0.995C280.954,45.729,281.249,44.695,282.51,44.734z M292.979,44.112
			c0.431,0,0.732,0.354,0.732,0.354c-0.218-1.049-0.704-2.052-1.188-2.855c0.624-0.327,0.93-1.446,0.688-2.676
			c-0.249-1.272-0.996-2.215-1.723-2.222c0.01-0.694-0.011-1.171-0.011-1.171c0.307-0.051,0.58,0.16,0.58,0.16
			c-0.688-3.503-4.632-5.684-4.632-5.684c0.192-0.135,0.384-0.105,0.384-0.105c-2.249-2.048-4.708-1.822-4.708-1.822
			c0.034-0.326,0.612-0.637,0.612-0.637c-2.118,0.202-2.969,0.634-3.26,0.833c-0.076-0.067-0.121-0.107-0.121-0.107
			s-0.047,0.041-0.129,0.111c-0.283-0.196-1.134-0.634-3.265-0.837c0,0,0.578,0.311,0.611,0.637c0,0-2.459-0.226-4.707,1.822
			c0,0,0.191-0.029,0.383,0.105c0,0-3.942,2.182-4.631,5.684c0,0,0.273-0.211,0.58-0.16c0,0-0.021,0.477-0.012,1.171
			c-0.728,0.007-1.474,0.949-1.722,2.222c-0.241,1.23,0.063,2.349,0.688,2.676c-0.482,0.804-0.969,1.807-1.188,2.855
			c0,0,0.304-0.354,0.732-0.354c0,0-1.607,2.114-1.014,5.156c0,0,0.19-0.545,0.508-0.611c0,0,0.151,2.938,1.846,4.104
			c0,0-0.076-0.322-0.02-0.571c0,0,3.293,2.443,3.407,3.324c0,0,0.152-0.396,0.052-0.83c0,0,2.192,2.769,2.026,3.713
			c0,0,0.336-0.216,0.451-0.661c0,0,0.604,0.886,1.627,1.412c0,0,0.078-0.311-0.014-0.574c0,0,1.037,0.98,1.918,1.144
			c0,0-0.015-0.32-0.176-0.488c0,0,1.928,0.604,2.036,0.973c0.109-0.369,2.038-0.973,2.038-0.973
			c-0.163,0.168-0.177,0.488-0.177,0.488c0.88-0.163,1.919-1.144,1.919-1.144c-0.092,0.263-0.016,0.574-0.016,0.574
			c1.023-0.526,1.627-1.412,1.627-1.412c0.115,0.445,0.452,0.661,0.452,0.661c-0.166-0.944,2.026-3.713,2.026-3.713
			c-0.102,0.434,0.053,0.83,0.053,0.83c0.113-0.881,3.405-3.324,3.405-3.324c0.059,0.249-0.019,0.571-0.019,0.571
			c1.693-1.167,1.846-4.104,1.846-4.104c0.315,0.066,0.508,0.611,0.508,0.611C294.585,46.226,292.979,44.112,292.979,44.112z
			 M291.361,39.031c-0.003,0.001-0.005,0.001-0.008,0.002c0.072-0.611,0.109-1.234,0.126-1.782c0.544,0.279,1.017,0.979,1.188,1.86
			c0.169,0.86,0.008,1.669-0.371,2.138c-0.561-0.868-1.062-1.427-1.062-1.427s0.192-0.609,0.728-0.504
			C291.963,39.318,291.715,38.963,291.361,39.031z M280.052,29.133c0.182,0.072,0.277,0.125,0.277,0.125s0.1-0.055,0.284-0.128
			c0.564,0.686,1.903,1.661,3.681,2.476c2.255,1.035,3.201,2.215,3.201,2.215c-2.798-1.301-5.367-0.954-5.367-0.954
			c3.33,0.268,5.02,2.579,5.02,2.579c-1.607-1.366-4.545-0.833-4.545-0.833c1.768,0.173,2.104,1.172,2.104,1.172
			c-2.796,0.113-4.371,2.568-4.371,2.568s-1.576-2.454-4.373-2.568c0,0,0.336-0.999,2.104-1.172c0,0-2.938-0.533-4.545,0.833
			c0,0,1.689-2.312,5.021-2.579c0,0-2.57-0.347-5.367,0.954c0,0,0.945-1.18,3.201-2.215
			C278.147,30.792,279.485,29.819,280.052,29.133z M286.567,41.92c0,0-0.249,0.756-0.946,0.995c0,0,1.229,0.057,1.811-0.769
			c0.037,0.728-0.088,1.246-0.156,1.469c-1.625,1.504-3.515,0.531-3.515,0.531c0.936,0.973,2.1,1.189,3.151,0.529
			c0.499-0.313,0.76-0.751,0.896-1.126c0.008,0.392-0.142,0.629-0.142,0.629c1.131,0.922,1.001,2.57-0.144,4.12
			c-1.145,1.55-2.47,1.279-2.47,1.279c0.351,1.144,0.108,1.841,0.108,1.841c-0.238,0.556-0.53,0.997-0.854,1.349
			c-0.039,0.035-0.083,0.075-0.135,0.119c0.004-0.003,0.008-0.005,0.011-0.008c-0.005,0.005-0.012,0.01-0.019,0.015
			c0.003-0.002,0.006-0.004,0.008-0.007c-0.524,0.354-1.652,0.708-3.855,0.708c-2.139,0-3.266-0.332-3.809-0.676
			c-0.385-0.373-0.729-0.861-1.002-1.5c0,0-0.242-0.697,0.108-1.841c0,0-1.327,0.271-2.471-1.279
			c-1.145-1.55-1.272-3.198-0.143-4.12c0,0-0.144-0.226-0.144-0.6c0.142,0.367,0.4,0.792,0.885,1.097
			c1.054,0.66,2.218,0.443,3.152-0.529c0,0-1.877,0.966-3.498-0.518c-0.067-0.213-0.197-0.732-0.162-1.468
			c0.586,0.81,1.799,0.754,1.799,0.754c-0.696-0.239-0.944-0.995-0.944-0.995c-0.06,0.183,0.047,0.345,0.047,0.345
			c-0.527-0.237-0.742-0.551-0.813-0.836c0.08-0.438,0.224-0.922,0.457-1.444c0.988-2.201,2.826-2.283,6.554,0.471
			c3.337-2.726,5.563-2.672,6.552-0.471c0.229,0.512,0.371,0.988,0.452,1.417c-0.064,0.293-0.275,0.618-0.819,0.863
			C286.519,42.264,286.625,42.102,286.567,41.92z M267.989,39.111c0.173-0.881,0.646-1.581,1.189-1.86
			c0.016,0.548,0.053,1.171,0.125,1.782c-0.002-0.001-0.004-0.001-0.008-0.002c-0.354-0.067-0.604,0.287-0.604,0.287
			c0.537-0.105,0.729,0.504,0.729,0.504s-0.5,0.559-1.062,1.427C267.981,40.78,267.821,39.971,267.989,39.111z M273.644,52.311
			c-0.981-1.008-0.754-3.112-0.754-3.112c-0.637,0.842-0.459,2.462-0.459,2.462c-1.861-2.016-1.684-4.248-1.684-4.248
			c-0.854,1.519-0.396,3.598-0.396,3.598c-1.557-2.232-0.865-4.813-0.865-4.813c-0.967,1.062-1.053,3.205-1.053,3.205
			c-0.516-1.033-0.096-2.086-0.096-2.086c-0.486,0.259-0.582,1.129-0.582,1.129c-1.228-2.87,1.645-6.009,1.645-6.009l-1.358,0.816
			c0.715-1.684,1.914-2.864,1.914-2.864l0.557,0.843c-1.131-5.225-0.203-6.554-0.203-6.554c-0.324-0.029-0.641,0.22-0.641,0.22
			c1.283-3.617,6-5.081,6-5.081c-0.498-0.287-1.336-0.188-1.336-0.188c2.256-1.108,4.074-0.952,5.096-0.694
			c-0.494,0.394-1.117,0.856-1.664,1.169c-1.127,0.641-5.033,2.354-5.875,4.876c0,0,0.621-0.689,1.56-0.695
			c0,0-0.88,0.868-0.804,2.452c0,0,1.109-1.137,2.652-1.274c0,0-0.549,0.542-0.541,1.01c0,0,2.356-0.57,4.561,1.666
			c-1.133-0.564-3.039-1.228-4.78-0.49c0,0,0.559-0.062,0.729,0.087c0,0-2.297,0.844-2.66,4.223c0,0-0.26-0.263-0.244-0.771
			c0,0-0.588,1.624-0.207,2.477c0,0-0.987,1.689-0.711,3.313c0,0,0.121-0.377,0.33-0.45c0,0-0.061,1.729,1.316,2.805
			c0,0-0.172-0.337-0.104-0.55c0,0,0.296,0.686,1.101,1.284C273.554,50.966,273.644,52.311,273.644,52.311z M275.595,56.152
			c0.498-0.651,0.014-1.429,0.014-1.429c-0.383,0.854-1.213,0.624-1.213,0.624c0.613-0.331,0.556-1.313,0.556-1.313
			c-0.834-0.049-0.798-3.035-0.769-3.9c0.207,0.145,0.445,0.281,0.719,0.4c0,0-0.368,2.002,2.068,4.512
			C276.815,55.941,275.595,56.152,275.595,56.152z M280.335,55.847c-1.385,0-3.26-0.361-4.388-3.198c0,0,1.031,1.911,4.388,1.911
			c3.354,0,4.385-1.911,4.385-1.911C283.593,55.486,281.718,55.847,280.335,55.847z M286.261,55.347c0,0-0.829,0.23-1.211-0.624
			c0,0-0.485,0.777,0.013,1.429c0,0-1.212-0.208-1.374-1.097c2.449-2.514,2.079-4.521,2.079-4.521
			c0.27-0.117,0.503-0.251,0.707-0.393c0.028,0.875,0.063,3.844-0.769,3.893C285.706,54.034,285.649,55.016,286.261,55.347z
			 M292.901,48.446c0,0-0.095-0.87-0.584-1.129c0,0,0.421,1.053-0.096,2.086c0,0-0.086-2.144-1.053-3.205
			c0,0,0.692,2.58-0.864,4.813c0,0,0.46-2.079-0.396-3.598c0,0,0.18,2.232-1.684,4.248c0,0,0.179-1.62-0.459-2.463
			c0,0,0.229,2.104-0.753,3.113c0,0,0.09-1.339-0.438-2.241c0.813-0.6,1.107-1.291,1.107-1.291c0.069,0.214-0.103,0.55-0.103,0.55
			c1.377-1.074,1.314-2.805,1.314-2.805c0.209,0.074,0.33,0.451,0.33,0.451c0.277-1.624-0.711-3.313-0.711-3.313
			c0.381-0.852-0.207-2.476-0.207-2.476c0.017,0.508-0.243,0.771-0.243,0.771c-0.364-3.378-2.66-4.223-2.66-4.223
			c0.169-0.148,0.729-0.087,0.729-0.087c-1.693-0.716-3.539-0.11-4.685,0.442c2.179-2.18,4.464-1.617,4.464-1.617
			c0.008-0.469-0.542-1.011-0.542-1.011c1.544,0.138,2.652,1.274,2.652,1.274c0.076-1.584-0.803-2.451-0.803-2.451
			c0.938,0.005,1.558,0.694,1.558,0.694c-0.84-2.521-4.748-4.235-5.874-4.876c-0.548-0.313-1.172-0.776-1.666-1.171
			c1.021-0.256,2.837-0.408,5.089,0.696c0,0-0.841-0.099-1.338,0.188c0,0,4.719,1.464,5.999,5.08c0,0-0.314-0.248-0.641-0.22
			c0,0,0.928,1.33-0.201,6.554l0.556-0.842c0,0,1.199,1.18,1.913,2.864l-1.357-0.816C291.256,42.437,294.126,45.576,292.901,48.446z
			 M277.382,43.516c-0.012,0.023-0.023,0.048-0.033,0.071C277.349,43.587,277.362,43.561,277.382,43.516z M277.382,43.516
			c0.356-0.694,1.492-1.063,1.492-1.063c-1.063,0.117-2.144-1.148-2.941-1.86c-0.801-0.713-1.406-1.038-1.604-0.488
			c-0.197,0.551,0.082,1.402,0.082,1.402c0.096-0.793,0.325-0.67,0.325-0.67s-0.131,1.491,1.015,1.855
			c1.146,0.364,1.739-0.099,1.739-0.099C277.628,42.896,277.458,43.344,277.382,43.516z M275.743,40.954l0.227,0.302
			c0,0,0.104,0.987,1.07,0.582l0.078,0.32C277.118,42.158,275.653,42.64,275.743,40.954z M275.351,42.067
			c-0.457-0.854-0.051-1.327-0.051-1.327l0.219,0.094c0,0-0.375,0.891,0.392,1.409c0.766,0.517,1.418,0.022,1.418,0.022l0.118,0.109
			C277.269,42.587,275.854,42.915,275.351,42.067z M278.831,42.011c1.244-0.033,0.803-1.367,0.803-1.367V40.62
			c0,0-0.271,0.426-0.918,0.622c-0.646,0.195-1.324-0.096-1.889-0.493C276.827,40.749,277.587,42.044,278.831,42.011z
			 M278.243,44.345c0.567-0.487,0.745-0.703,1.047-0.707c0,0-0.476-0.148-0.957,0.086c-0.482,0.234-0.838,0.918-1.724,1.081
			C276.61,44.805,277.673,44.833,278.243,44.345z M278.03,47.396c-0.786-0.371-1.215-0.029-1.069,0.754
			c0.145,0.783,0.76,1.438,0.76,1.438s-0.678-1.553-0.061-1.788c0.137-0.037,0.092,2.107,1.627,1.75c0,0,0.151,0.331,0.448,0.401
			c0,0-0.268-0.525,0.16-1.227C279.896,48.725,278.817,47.766,278.03,47.396z M276.651,47.732c0.625-1.837,2.744-0.957,2.744-0.957
			c-0.408-1.289-1.492-1.468-1.492-1.468c-2.795,2.719-3.61,0.677-3.61,0.677c-0.676,1.314,0.637,1.416,1.16,2.628
			c0.522,1.212,1.875,1.671,1.875,1.671S276.026,49.568,276.651,47.732z M280.323,46.45c-0.192,0.364-0.352,0.473-0.881,0.605
			c0.529,0.134,0.688,0.242,0.881,0.605c0.193-0.363,0.351-0.472,0.882-0.605C280.673,46.922,280.517,46.814,280.323,46.45z
			 M278.147,44.734c1.263-0.039,1.558,0.995,1.558,0.995C279.218,43.636,278.147,44.734,278.147,44.734z"/>
	</g>
</g>
<g>
	<g>
		<rect x="110.917" y="46.451" fill="#FFFFFF" width="19.111" height="6.892"/>
		<circle fill="#FFFFFF" cx="110.917" cy="48.631" r="4.711"/>
		<circle fill="#FFFFFF" cx="130.03" cy="48.631" r="4.71"/>
		<circle fill="#FFFFFF" cx="114.659" cy="42.817" r="4.711"/>
		<circle fill="#FFFFFF" cx="126.18" cy="42.817" r="4.711"/>
		<circle fill="#FFFFFF" cx="120.474" cy="39.991" r="4.711"/>
		<rect x="110.917" y="44.297" fill="#FFFFFF" width="19.111" height="4.738"/>
	</g>
</g>
<g>
	<g id="layer1" transform="translate(-256.6798,-531.7963)">
		<path id="text5540" fill="#FFFFFF" stroke="#FFFFFF" stroke-width="0.8392" stroke-miterlimit="10" d="M292.186,593.398h-2.98
			c0.433-2.037,0.649-3.879,0.649-5.529v-19.676c0-2.047,0.181-3.57,0.542-4.571c0.373-0.999,1.09-1.878,2.149-2.638
			c1.071-0.771,2.409-1.156,4.011-1.156c1.904,0,3.5,0.506,4.788,1.518c1.301,1,1.951,2.428,1.951,4.282
			c0,2.168-1.029,3.945-3.09,5.33c3.071,1.445,4.606,3.716,4.606,6.812c0,1.686-0.409,3.198-1.229,4.535
			c-0.808,1.324-1.746,2.27-2.818,2.836c-1.06,0.566-2.33,0.85-3.813,0.85c-1.687,0-3.061-0.632-4.119-1.896v3.36
			C292.835,589.766,292.618,591.747,292.186,593.398 M292.835,582.467c0.939,1.555,2.253,2.331,3.938,2.331
			c1.626,0,2.818-0.591,3.577-1.771c0.758-1.192,1.138-2.639,1.138-4.336c0-1.302-0.253-2.627-0.759-3.975
			c-0.493-1.362-1.132-2.398-1.915-3.108c-0.723,0.181-1.373,0.271-1.95,0.271c-1.217,0-1.825-0.318-1.825-0.957
			c0-0.578,0.513-0.867,1.535-0.867c0.64,0,1.434,0.145,2.386,0.434c0.854-1.445,1.282-3.018,1.282-4.716
			c0-1.518-0.337-2.681-1.012-3.487c-0.662-0.807-1.53-1.21-2.603-1.21c-0.854,0-1.59,0.241-2.204,0.723
			c-0.604,0.481-1.019,1.061-1.246,1.734c-0.229,0.662-0.344,1.753-0.344,3.271L292.835,582.467"/>
	</g>
</g>
<g>
	<polygon fill="#FFFFFF" points="186.481,26.731 200.329,35.125 214.176,43.516 200.329,51.909 186.481,60.301 186.481,43.516 	"/>
</g>
<g>
	<polygon fill="#FFFFFF" points="54.274,132.219 40.329,140.611 26.384,132.219 26.384,115.434 40.329,107.042 54.274,115.434 	"/>
</g>
<g>
	<g>
		<path fill="#FFFFFF" d="M280.282,205.772c0,0-0.078-0.388-0.135-1.041c-0.05-0.66-0.126-1.582-0.141-2.621
			c-0.085-2.104,0.028-4.834-0.27-7.16c-0.068-0.576-0.179-1.126-0.315-1.612c-0.154-0.478-0.306-0.922-0.522-1.289
			c-0.414-0.729-1.064-1.302-1.878-1.69c-0.804-0.375-1.651-0.577-2.26-0.674c-0.305-0.041-0.557-0.078-0.728-0.078
			c-0.173-0.006-0.27,0.015-0.27,0.015c0.001,0.007,0.04-0.097,0.174-0.229c0.133-0.127,0.338-0.328,0.637-0.502
			c0.585-0.379,1.517-0.808,2.81-0.882c0.643-0.024,1.379,0.052,2.14,0.321c0.759,0.268,1.529,0.74,2.166,1.384
			c0.642,0.644,1.122,1.427,1.464,2.238c0.355,0.812,0.528,1.649,0.652,2.467c0.095,0.819,0.117,1.617,0.065,2.388
			c-0.056,0.764-0.153,1.506-0.315,2.195c-0.291,1.395-0.769,2.609-1.237,3.62c-0.254,0.505-0.499,0.958-0.729,1.351
			c-0.226,0.396-0.473,0.706-0.658,0.978C280.548,205.479,280.282,205.772,280.282,205.772z"/>
	</g>
	<g>
		<g>
			<path fill="#FFFFFF" d="M279.034,204.359c0,0,0.237-0.314,0.69-0.791c0.46-0.475,1.101-1.143,1.868-1.842
				c1.519-1.459,3.639-3.183,5.184-4.947c0.387-0.435,0.726-0.881,0.998-1.305c0.255-0.434,0.487-0.841,0.618-1.246
				c0.271-0.793,0.271-1.662,0.021-2.527c-0.252-0.85-0.663-1.619-0.993-2.139c-0.171-0.256-0.313-0.47-0.424-0.597
				c-0.109-0.133-0.188-0.192-0.188-0.192c-0.004,0.006,0.098-0.032,0.287-0.021c0.184,0.015,0.47,0.035,0.797,0.144
				c0.672,0.188,1.61,0.601,2.522,1.52c0.444,0.464,0.876,1.064,1.179,1.814c0.301,0.744,0.459,1.636,0.399,2.539
				c-0.058,0.904-0.325,1.785-0.706,2.58c-0.372,0.805-0.886,1.488-1.414,2.123c-0.552,0.614-1.135,1.16-1.744,1.633
				c-0.608,0.465-1.229,0.883-1.854,1.219c-1.235,0.706-2.463,1.154-3.53,1.473c-0.547,0.145-1.049,0.262-1.495,0.35
				c-0.444,0.093-0.843,0.113-1.168,0.153C279.429,204.364,279.034,204.359,279.034,204.359z"/>
			<path fill="#FFFFFF" d="M279.629,201.816c0,0,0.317,0.231,0.801,0.678c0.482,0.453,1.161,1.082,1.873,1.839
				c1.482,1.495,3.241,3.586,5.031,5.103c0.438,0.379,0.892,0.711,1.319,0.978c0.438,0.248,0.85,0.474,1.258,0.599
				c0.797,0.258,1.665,0.241,2.526-0.021c0.847-0.265,1.609-0.688,2.123-1.026c0.252-0.176,0.463-0.318,0.589-0.434
				c0.131-0.111,0.189-0.191,0.189-0.191c-0.005-0.004,0.035,0.098,0.025,0.286c-0.013,0.185-0.027,0.472-0.131,0.8
				c-0.177,0.674-0.573,1.619-1.479,2.547c-0.457,0.452-1.052,0.894-1.796,1.207c-0.74,0.313-1.628,0.485-2.532,0.44
				c-0.906-0.043-1.79-0.296-2.591-0.664c-0.812-0.358-1.503-0.861-2.146-1.38c-0.623-0.541-1.179-1.114-1.66-1.719
				c-0.475-0.601-0.902-1.215-1.249-1.832c-0.726-1.226-1.192-2.444-1.528-3.508c-0.154-0.543-0.278-1.043-0.373-1.488
				c-0.102-0.443-0.128-0.84-0.174-1.165C279.63,202.211,279.629,201.816,279.629,201.816z"/>
			<path fill="#FFFFFF" d="M281.46,205.133c0,0-0.324-0.225-0.818-0.656c-0.494-0.439-1.188-1.052-1.92-1.789
				c-1.521-1.455-3.334-3.5-5.163-4.97c-0.45-0.366-0.911-0.688-1.347-0.94c-0.442-0.237-0.86-0.452-1.271-0.566
				c-0.804-0.236-1.67-0.197-2.524,0.087c-0.839,0.287-1.591,0.729-2.097,1.082c-0.245,0.183-0.453,0.331-0.575,0.449
				c-0.129,0.114-0.186,0.196-0.186,0.196c0.005,0.004-0.037-0.098-0.034-0.286c0.009-0.185,0.017-0.472,0.109-0.804
				c0.159-0.679,0.532-1.634,1.411-2.584c0.445-0.465,1.028-0.92,1.764-1.254c0.731-0.332,1.614-0.527,2.521-0.507
				c0.906,0.019,1.798,0.249,2.606,0.597c0.819,0.338,1.525,0.82,2.183,1.322c0.638,0.524,1.208,1.083,1.705,1.674
				c0.489,0.588,0.935,1.19,1.297,1.801c0.757,1.205,1.257,2.412,1.62,3.466c0.168,0.539,0.306,1.034,0.411,1.479
				c0.112,0.439,0.149,0.836,0.204,1.159C281.448,204.738,281.46,205.133,281.46,205.133z"/>
			<path fill="#FFFFFF" d="M282,203.465c0,0-0.252,0.303-0.728,0.758c-0.48,0.453-1.15,1.092-1.951,1.756
				c-1.584,1.387-3.779,3.012-5.404,4.703c-0.405,0.416-0.765,0.846-1.057,1.258c-0.274,0.42-0.525,0.816-0.676,1.217
				c-0.307,0.779-0.345,1.646-0.137,2.522c0.212,0.861,0.587,1.648,0.893,2.183c0.16,0.264,0.29,0.482,0.397,0.615
				c0.103,0.139,0.179,0.2,0.179,0.2c0.005-0.005-0.1,0.028-0.287,0.009c-0.184-0.023-0.469-0.058-0.791-0.18
				c-0.661-0.219-1.58-0.674-2.448-1.634c-0.425-0.483-0.826-1.104-1.095-1.867c-0.267-0.758-0.384-1.655-0.281-2.555
				c0.098-0.901,0.405-1.769,0.822-2.544c0.408-0.787,0.952-1.447,1.511-2.057c0.578-0.59,1.186-1.107,1.816-1.551
				c0.63-0.438,1.271-0.826,1.908-1.134c1.267-0.647,2.513-1.039,3.594-1.31c0.553-0.119,1.061-0.213,1.51-0.279
				c0.449-0.072,0.848-0.074,1.175-0.1C281.606,203.441,282,203.465,282,203.465z"/>
		</g>
	</g>
	<g>
		<g>
			<path fill="#FFFFFF" d="M279.073,203.533c0,0,0.391-0.063,1.047-0.09c0.66-0.022,1.585-0.061,2.624-0.03
				c2.104,0.004,4.826,0.233,7.165,0.034c0.577-0.045,1.133-0.131,1.623-0.247c0.483-0.134,0.936-0.267,1.312-0.468
				c0.745-0.383,1.346-1.01,1.769-1.806c0.408-0.786,0.646-1.626,0.771-2.229c0.053-0.302,0.101-0.554,0.106-0.724
				c0.015-0.172-0.002-0.27-0.002-0.27c-0.007,0.001,0.095,0.044,0.223,0.184c0.122,0.139,0.313,0.353,0.476,0.656
				c0.354,0.602,0.742,1.549,0.762,2.844c-0.002,0.645-0.108,1.377-0.41,2.125c-0.302,0.745-0.806,1.496-1.476,2.105
				c-0.669,0.611-1.473,1.061-2.298,1.367c-0.826,0.32-1.671,0.457-2.492,0.548c-0.823,0.062-1.621,0.049-2.389-0.035
				c-0.761-0.087-1.498-0.217-2.182-0.408c-1.379-0.35-2.573-0.878-3.563-1.39c-0.494-0.274-0.938-0.539-1.319-0.786
				c-0.385-0.241-0.685-0.502-0.946-0.699C279.354,203.811,279.073,203.533,279.073,203.533z"/>
			<path fill="#FFFFFF" d="M281.267,202.113c0,0,0.067,0.389,0.106,1.044c0.032,0.661,0.085,1.584,0.071,2.623
				c0.03,2.104-0.153,4.831,0.082,7.166c0.055,0.577,0.149,1.131,0.273,1.618c0.143,0.482,0.282,0.932,0.489,1.304
				c0.396,0.739,1.03,1.33,1.834,1.739c0.793,0.396,1.637,0.619,2.24,0.732c0.304,0.049,0.556,0.092,0.726,0.096
				c0.172,0.013,0.27-0.006,0.27-0.006c-0.001-0.007-0.042,0.094-0.18,0.226c-0.137,0.124-0.347,0.319-0.648,0.485
				c-0.596,0.362-1.536,0.768-2.831,0.808c-0.645,0.009-1.378-0.087-2.132-0.376c-0.75-0.288-1.51-0.78-2.129-1.44
				c-0.623-0.657-1.084-1.455-1.404-2.274c-0.334-0.82-0.485-1.664-0.589-2.482c-0.072-0.822-0.074-1.621-0.003-2.391
				c0.074-0.762,0.192-1.5,0.372-2.187c0.327-1.385,0.836-2.589,1.332-3.586c0.268-0.498,0.523-0.944,0.766-1.332
				c0.234-0.389,0.49-0.692,0.684-0.959C280.994,202.398,281.267,202.113,281.267,202.113z"/>
			<path fill="#FFFFFF" d="M281.044,204.088c0,0-0.39,0.064-1.045,0.102c-0.661,0.03-1.584,0.078-2.623,0.062
				c-2.105,0.021-4.831-0.178-7.166,0.049c-0.578,0.052-1.131,0.144-1.621,0.267c-0.482,0.14-0.931,0.276-1.305,0.482
				c-0.74,0.393-1.334,1.024-1.748,1.825c-0.399,0.791-0.628,1.634-0.744,2.237c-0.049,0.304-0.094,0.555-0.1,0.726
				c-0.012,0.171,0.006,0.269,0.006,0.269c0.007,0-0.095-0.043-0.225-0.181c-0.123-0.138-0.317-0.349-0.481-0.651
				c-0.36-0.597-0.761-1.539-0.795-2.834c-0.007-0.645,0.094-1.377,0.387-2.129c0.292-0.75,0.787-1.506,1.45-2.123
				c0.66-0.619,1.46-1.078,2.281-1.395c0.822-0.331,1.665-0.479,2.485-0.577c0.822-0.069,1.621-0.067,2.389,0.009
				c0.763,0.077,1.501,0.199,2.187,0.383c1.383,0.334,2.584,0.849,3.58,1.349c0.496,0.269,0.94,0.528,1.327,0.771
				c0.388,0.237,0.69,0.496,0.956,0.688C280.761,203.813,281.044,204.088,281.044,204.088z"/>
			<path fill="#FFFFFF" d="M280.282,205.772c0,0-0.078-0.388-0.135-1.041c-0.05-0.66-0.126-1.582-0.141-2.621
				c-0.085-2.104,0.028-4.834-0.27-7.16c-0.068-0.576-0.179-1.126-0.315-1.612c-0.154-0.478-0.306-0.922-0.522-1.289
				c-0.414-0.729-1.064-1.303-1.878-1.69c-0.804-0.375-1.651-0.577-2.26-0.674c-0.305-0.041-0.557-0.078-0.728-0.078
				c-0.173-0.006-0.27,0.015-0.27,0.015c0.001,0.007,0.04-0.097,0.174-0.229c0.133-0.127,0.338-0.328,0.637-0.502
				c0.585-0.379,1.517-0.808,2.81-0.882c0.643-0.024,1.379,0.052,2.14,0.32c0.759,0.269,1.529,0.739,2.166,1.385
				c0.642,0.644,1.122,1.427,1.464,2.238c0.355,0.812,0.528,1.649,0.652,2.466c0.095,0.82,0.117,1.618,0.065,2.389
				c-0.056,0.764-0.153,1.506-0.315,2.195c-0.291,1.395-0.769,2.609-1.237,3.62c-0.254,0.505-0.499,0.958-0.729,1.351
				c-0.226,0.396-0.473,0.706-0.658,0.978C280.548,205.479,280.282,205.772,280.282,205.772z"/>
		</g>
	</g>
</g>
<polygon fill="#EE3968" points="228.39,220.732 200.329,237.74 172.268,220.732 172.268,186.719 200.329,169.713 228.39,186.719 "/>
<g>
	<polygon fill="#6EC498" points="308.141,140.833 280.08,157.84 252.019,140.833 252.02,106.82 280.08,89.813 308.141,106.82 	"/>
</g>
<g>
	<polygon fill="#EE3968" points="388.676,220.418 360.327,237.422 331.982,220.418 331.982,186.402 360.327,169.395 
		388.676,186.402 	"/>
	<g>
		<polyline fill="none" stroke="#FFFFFF" stroke-width="3.9587" points="353.15,211.287 353.15,192.408 371.479,192.408 
			371.479,211.287 		"/>
		<circle fill="#FFFFFF" stroke="#FFFFFF" stroke-width="3.9587" stroke-linecap="square" cx="351.163" cy="212.201" r="2.207"/>
		<path fill="#FFFFFF" stroke="#FFFFFF" stroke-width="3.9587" stroke-linecap="square" d="M369.493,209.994
			c1.218,0,2.205,0.988,2.205,2.207c0,1.221-0.987,2.207-2.205,2.207c-1.221,0-2.209-0.986-2.209-2.207
			C367.284,210.982,368.273,209.994,369.493,209.994z"/>
	</g>
</g>
<g>
	<polygon fill="#F89839" points="388.676,61.005 360.329,78.011 331.982,61.005 331.982,26.99 360.329,9.982 388.676,26.99 	"/>
	<g>
		<polygon fill="#F48E30" points="360.327,41.367 345.329,50.341 360.327,59.313 375.329,50.341 		"/>
		<polygon fill="#F3A156" points="360.327,37.136 345.329,46.11 360.327,55.082 375.329,46.11 		"/>
		<polygon fill="#F3B47A" points="360.327,32.908 345.329,41.881 360.327,50.854 375.329,41.881 		"/>
		<polygon fill="#FFFFFF" points="360.327,28.679 345.329,37.648 360.327,46.623 375.329,37.648 		"/>
	</g>
</g>
</svg>
