<?xml version="1.0" encoding="utf-8"?>
<!-- Generator: Adobe Illustrator 16.0.0, SVG Export Plug-In . SVG Version: 6.00 Build 0)  -->
<!DOCTYPE svg PUBLIC "-//W3C//DTD SVG 1.1//EN" "http://www.w3.org/Graphics/SVG/1.1/DTD/svg11.dtd">
<svg version="1.1" id="Layer_1" xmlns="http://www.w3.org/2000/svg" xmlns:xlink="http://www.w3.org/1999/xlink" x="0px" y="0px"
	 width="430.479px" height="131.994px" viewBox="0 0 430.479 131.994" enable-background="new 0 0 430.479 131.994"
	 xml:space="preserve">
<g>
	<polygon fill="#6EC498" points="167.501,82.944 139.155,99.949 110.808,82.944 110.808,48.928 139.155,31.92 167.501,48.928 	"/>
	<g>
		<g>
			<path id="path3305" fill="none" stroke="#9FD2A2" stroke-width="3.1133" d="M136.083,51.309
				c-12.598-1.333-23.383,18.62-4.42,29.937"/>
		</g>
		<g>
			<path id="path3307" fill="none" stroke="#CFE8D0" stroke-width="3.1133" d="M141.893,56.395
				c-9.206-4.594-17.444,2.438-16.646,10.248c0.822,8.041,8.255,14.604,24.998,11.597"/>
		</g>
		<g>
			<path id="path3309" fill="none" stroke="#FFFFFF" stroke-width="3.1133" d="M142.972,62.621
				c-3.056-5.504-10.198-4.723-12.754-0.666c-2.004,3.179-2.349,10.921,8.673,12.787c5.077,0.73,12.823-0.093,18.791-0.78"/>
		</g>
	</g>
</g>
<g>
	<polygon fill="#3399CC" points="90.973,82.944 62.626,99.948 34.28,82.944 34.28,48.928 62.626,31.92 90.973,48.928 	"/>
	<g>
		<g>
			<path fill-rule="evenodd" clip-rule="evenodd" fill="#3399CC" d="M64.36,48.78c0.382,0.146,0.79,0.125,1.186,0.188
				c7.366,1.131,13.239,6.713,14.567,14.043c1.059,5.846-0.45,11.037-4.548,15.355c-3.687,3.883-8.302,5.648-13.642,5.391
				c-8.064-0.395-14.827-6.436-16.233-14.42c-0.077-0.438-0.127-0.879-0.191-1.316c-0.01-0.063,0.02-0.143-0.072-0.168
				c0-0.98,0-1.961,0-2.941c0.082-0.039,0.054-0.115,0.06-0.178c0.204-2.387,0.848-4.654,2.017-6.744
				c2.73-4.881,6.844-7.887,12.355-8.939c0.584-0.113,1.178-0.182,1.768-0.27C62.538,48.78,63.448,48.78,64.36,48.78z
				 M74.867,64.129c-0.494-0.502-0.981-1.01-1.481-1.508c-0.363-0.363-0.833-0.383-1.157-0.066
				c-0.315,0.309-0.311,0.805,0.039,1.158c1.008,1.02,2.026,2.031,3.043,3.045c0.254,0.254,0.556,0.359,0.901,0.207
				c0.342-0.15,0.466-0.424,0.466-0.791c0-2.365-0.586-4.574-1.741-6.621c-2.778-4.93-8.145-7.654-13.78-6.924
				c-3.212,0.416-5.957,1.809-8.203,4.152c-1.604,1.676-2.71,3.637-3.318,5.875c-0.157,0.58,0.216,1.061,0.783,1.033
				c0.395-0.02,0.602-0.227,0.754-0.752c1.674-5.811,7.275-9.514,13.27-8.771c5.035,0.623,9.193,4.346,10.357,9.277
				c0.052,0.225,0.167,0.451,0.066,0.689V64.129z M50.938,68.389c0.549,0.555,1.032,1.047,1.523,1.533
				c0.359,0.354,0.838,0.359,1.155,0.031c0.311-0.322,0.298-0.777-0.047-1.123c-1.011-1.02-2.027-2.033-3.043-3.045
				c-0.28-0.279-0.581-0.34-0.9-0.193c-0.326,0.15-0.46,0.41-0.457,0.766c0.007,0.789,0.081,1.566,0.213,2.342
				c1.144,6.664,7.146,11.551,13.897,11.332c3.49-0.113,6.517-1.344,9.067-3.717c1.884-1.754,3.171-3.883,3.859-6.365
				c0.124-0.449-0.014-0.82-0.363-0.996c-0.488-0.244-0.982,0.023-1.153,0.631c-1.57,5.6-7.088,9.643-13.278,8.787
				c-5.018-0.693-8.361-3.563-10.089-8.313C51.139,69.553,50.996,69.028,50.938,68.389z"/>
			<path fill-rule="evenodd" clip-rule="evenodd" fill="#FFFFFF" d="M74.867,64.133c0.101-0.238-0.014-0.465-0.066-0.689
				c-1.164-4.932-5.322-8.654-10.357-9.277c-5.994-0.742-11.596,2.961-13.27,8.771c-0.152,0.525-0.359,0.732-0.754,0.752
				c-0.567,0.027-0.94-0.453-0.783-1.033c0.608-2.238,1.714-4.199,3.318-5.875c2.246-2.344,4.99-3.736,8.203-4.152
				c5.635-0.73,11.001,1.994,13.78,6.924c1.155,2.047,1.741,4.256,1.741,6.621c0,0.367-0.124,0.641-0.466,0.791
				c-0.345,0.152-0.647,0.047-0.901-0.207c-1.018-1.014-2.035-2.025-3.043-3.045c-0.35-0.354-0.354-0.85-0.039-1.158
				c0.323-0.316,0.794-0.297,1.157,0.066c0.5,0.498,0.987,1.006,1.481,1.508c0.002-0.025,0.079,0.012,0.038-0.047
				C74.892,64.1,74.879,64.116,74.867,64.133z"/>
			<path fill-rule="evenodd" clip-rule="evenodd" fill="#FFFFFF" d="M50.938,68.389c0.058,0.639,0.201,1.164,0.385,1.67
				c1.728,4.75,5.071,7.619,10.089,8.313c6.189,0.855,11.708-3.188,13.278-8.787c0.171-0.607,0.665-0.875,1.153-0.631
				c0.349,0.176,0.487,0.547,0.363,0.996c-0.688,2.482-1.975,4.611-3.859,6.365c-2.55,2.373-5.577,3.604-9.067,3.717
				C56.527,80.25,50.526,75.364,49.382,68.7c-0.132-0.775-0.206-1.553-0.213-2.342c-0.003-0.355,0.131-0.615,0.457-0.766
				c0.319-0.146,0.62-0.086,0.9,0.193c1.017,1.012,2.033,2.025,3.043,3.045c0.346,0.346,0.358,0.801,0.047,1.123
				c-0.317,0.328-0.796,0.322-1.155-0.031C51.97,69.436,51.487,68.944,50.938,68.389z"/>
		</g>
	</g>
</g>
<g>
	<polygon fill="#996699" points="244.029,82.526 215.683,99.53 187.336,82.526 187.336,48.51 215.683,31.502 244.029,48.51 	"/>
	<g>
		<g>
			<g>
				<g>
					<path fill="none" stroke="#FFFFFF" stroke-width="2.4823" d="M200.683,62.24c8.29-8.29,21.71-8.29,29.999,0"/>
					<path fill="none" stroke="#FFFFFF" stroke-width="2.4823" d="M204.605,66.163c6.123-6.121,16.031-6.121,22.154,0"/>
					<path fill="none" stroke="#FFFFFF" stroke-width="2.4823" d="M209.199,70.39c3.583-3.586,9.385-3.586,12.967,0"/>
				</g>
				<circle fill="#FFFFFF" cx="215.684" cy="74.616" r="2.741"/>
			</g>
		</g>
	</g>
</g>
<g>
	<polygon fill="#EE3968" points="320.558,83.291 292.21,100.295 263.864,83.291 263.864,49.275 292.21,32.267 320.558,49.275 	"/>
	<g>
		<polyline fill="none" stroke="#FFFFFF" stroke-width="3.9587" points="285.032,74.16 285.032,55.282 303.361,55.282 
			303.361,74.16 		"/>
		<circle fill="#FFFFFF" stroke="#FFFFFF" stroke-width="3.9587" stroke-linecap="square" cx="283.046" cy="75.074" r="2.207"/>
		<path fill="#FFFFFF" stroke="#FFFFFF" stroke-width="3.9587" stroke-linecap="square" d="M301.376,72.867
			c1.217,0,2.205,0.989,2.205,2.207c0,1.221-0.988,2.207-2.205,2.207c-1.221,0-2.209-0.986-2.209-2.207
			C299.167,73.856,300.155,72.867,301.376,72.867z"/>
	</g>
</g>
<g>
	<polygon fill="#F89839" points="397.086,83.487 368.74,100.492 340.393,83.487 340.393,49.471 368.74,32.463 397.086,49.471 	"/>
	<g>
		<polygon fill="#F48E30" points="368.738,63.848 353.74,72.822 368.738,81.794 383.74,72.822 		"/>
		<polygon fill="#F3A156" points="368.738,59.617 353.74,68.591 368.738,77.563 383.74,68.591 		"/>
		<polygon fill="#F3B47A" points="368.738,55.389 353.74,64.362 368.738,73.334 383.74,64.362 		"/>
		<polygon fill="#FFFFFF" points="368.738,51.16 353.74,60.129 368.738,69.104 383.74,60.129 		"/>
	</g>
</g>
</svg>
