<?xml version="1.0" encoding="utf-8"?>
<!-- Generator: Adobe Illustrator 19.1.0, SVG Export Plug-In . SVG Version: 6.00 Build 0)  -->
<svg version="1.1" id="Camada_1" xmlns="http://www.w3.org/2000/svg" xmlns:xlink="http://www.w3.org/1999/xlink" x="0px" y="0px"
	 viewBox="0 0 640 360" style="enable-background:new 0 0 640 360;" xml:space="preserve">
<style type="text/css">
	.st0{fill:none;stroke:#000000;stroke-width:2;stroke-miterlimit:10;}
</style>
<g>
	<g>
		<rect x="512.5" y="120.4" class="st0" width="57.5" height="141.8"/>
		<g>
			<circle class="st0" cx="541.2" cy="152.1" r="18.2"/>
			<circle class="st0" cx="541.2" cy="152.1" r="8.5"/>
		</g>
		<circle class="st0" cx="541.2" cy="241.4" r="7.3"/>
		<g>
			<circle class="st0" cx="541.2" cy="196.7" r="18.2"/>
			<circle class="st0" cx="541.2" cy="196.7" r="8.5"/>
		</g>
	</g>
	<g>
		<rect x="70" y="120.4" class="st0" width="57.5" height="141.8"/>
		<g>
			<circle class="st0" cx="98.8" cy="152.1" r="18.2"/>
			<circle class="st0" cx="98.8" cy="152.1" r="8.5"/>
		</g>
		<circle class="st0" cx="98.8" cy="241.4" r="7.3"/>
		<g>
			<circle class="st0" cx="98.8" cy="196.7" r="18.2"/>
			<circle class="st0" cx="98.8" cy="196.7" r="8.5"/>
		</g>
	</g>
	<g>
		<polygon class="st0" points="176.2,71.2 463.8,71.2 463.8,249 320,259.4 176.2,249 		"/>
		<line class="st0" x1="320" y1="259.6" x2="463.8" y2="288.4"/>
		<line class="st0" x1="320" y1="259.6" x2="176.2" y2="288.4"/>
		<line class="st0" x1="319" y1="259" x2="319" y2="289"/>
	</g>
</g>
<g>
</g>
<g>
</g>
<g>
</g>
<g>
</g>
<g>
</g>
<g>
</g>
<g>
</g>
<g>
</g>
<g>
</g>
<g>
</g>
<g>
</g>
<g>
</g>
<g>
</g>
<g>
</g>
<g>
</g>
</svg>
