<?xml version="1.0" encoding="utf-8"?>
<!-- Generator: Adobe Illustrator 19.1.0, SVG Export Plug-In . SVG Version: 6.00 Build 0)  -->
<svg version="1.1" id="Camada_1" xmlns="http://www.w3.org/2000/svg" xmlns:xlink="http://www.w3.org/1999/xlink" x="0px" y="0px"
	 viewBox="0 0 640 360" style="enable-background:new 0 0 640 360;" xml:space="preserve">
<style type="text/css">
	.st0{fill:none;stroke:#000000;stroke-width:2;stroke-miterlimit:10;}
	.st1{fill:none;stroke:#000000;stroke-width:1.9026;stroke-miterlimit:10;}
</style>
<g>
	<g>
		<g>
			<path class="st0" d="M180.2,246.8c9.5-7.3,19.1-14.6,28.6-21.9"/>
			<path class="st0" d="M168.2,228.8c10.4-6,20.8-11.9,31.2-17.9"/>
			<path class="st0" d="M158.8,209.6c11.1-4.6,22.2-9.1,33.3-13.7"/>
			<path class="st0" d="M152.1,189.6c11.6-3.1,23.2-6.2,34.8-9.3"/>
			<path class="st0" d="M148,169.1c11.9-1.6,23.8-3.2,35.7-4.8"/>
			<path class="st0" d="M146.6,148.3c12-0.1,24-0.1,36-0.2"/>
			<path class="st0" d="M147.8,127.4c11.9,1.5,23.8,2.9,35.7,4.4"/>
			<path class="st0" d="M151.6,106.8c11.6,3,23.3,5.9,34.9,8.9"/>
			<path class="st0" d="M158.1,86.8c11.2,4.4,22.3,8.9,33.5,13.3"/>
			<path class="st0" d="M167.3,67.6c10.5,5.8,21,11.7,31.5,17.5"/>
			<path class="st0" d="M179.1,49.4c9.6,7.2,19.2,14.4,28.9,21.5"/>
			<path class="st0" d="M193.5,32.6c8.6,8.4,17.1,16.8,25.7,25.2"/>
		</g>
	</g>
	<g>
		<g>
			<path class="st0" d="M431.2,224.9c9.5,7.3,19.1,14.6,28.6,21.9"/>
			<path class="st0" d="M440.6,210.9c10.4,6,20.8,11.9,31.2,17.9"/>
			<path class="st0" d="M447.9,195.9c11.1,4.6,22.2,9.1,33.3,13.7"/>
			<path class="st0" d="M453.1,180.3c11.6,3.1,23.2,6.2,34.8,9.3"/>
			<path class="st0" d="M456.3,164.3c11.9,1.6,23.8,3.2,35.7,4.8"/>
			<path class="st0" d="M457.4,148.1c12,0.1,24,0.1,36,0.2"/>
			<path class="st0" d="M456.5,131.8c11.9-1.5,23.8-2.9,35.7-4.4"/>
			<path class="st0" d="M453.5,115.7c11.6-3,23.3-5.9,34.9-8.9"/>
			<path class="st0" d="M448.4,100.1c11.2-4.4,22.3-8.9,33.5-13.3"/>
			<path class="st0" d="M441.3,85.1c10.5-5.8,21-11.7,31.5-17.5"/>
			<path class="st0" d="M432.1,70.9c9.6-7.2,19.2-14.4,28.9-21.5"/>
			<path class="st0" d="M420.8,57.8c8.6-8.4,17.1-16.8,25.7-25.2"/>
		</g>
	</g>
	<g>
		<g>
			<path class="st1" d="M293.4,262.7l2.6,5.9c-1.7,1.1-3.5,2.1-4.5,3.8c0.4,2.1,4,2.9,4.5,5c-1.4,1.3-3.5,1.8-4.8,3.5
				c1.1,1.4,2.7,3.7,4.4,4.5c-1.8,0.9-2.2,1.7-3.2,3.9c0.9,0.7,2.6,2.6,4.3,4c2.2,2.1,7.5,7.5,7.5,7.5c0.1,1.3,26.1,2.7,33.4-0.1
				c3.5-2.5,4.6-4.3,7.8-7.7c1.1-0.9,2.7-4.2,3.4-5.2c-1.3-1.9-1.2-1.9-2.6-2.9c0.9-1.3,3.6-2,4.1-4.3l-4.1-3.3c0.5-2,3.5-3,4-5
				c-0.5-1.7-2.9-2.6-4.1-3.8l1.5-5.6H293.4z M293.4,262.7"/>
			<path class="st1" d="M292.7,273.3c16.9,3.1,39.3,3.8,55.6-0.8"/>
			<path class="st1" d="M293,288.6c15.9,3.1,36.9,3.8,55.4-0.4"/>
			<path class="st1" d="M292.8,281.4c15.9,3.1,36.9,3.8,55.4-0.4"/>
		</g>
		<path class="st0" d="M319.7,89.3c-35.4,0-66.1,29.7-64.1,66.2c-1.1,9.5,11,32.4,21.6,45.2c14.4,26,15.8,29.1,16.8,57.4
			c0.7,3.4,2.5,4.4,4.2,4.8c18.6,3.6,33,1.6,44.1,0.2c2.7-0.9,4.3-2.6,4.1-4.9c1.1-38.5,7-36.2,24.6-65.8
			c9.8-13.4,13.4-33.1,13.5-42.2C385.5,99.3,338.8,89.9,319.7,89.3L319.7,89.3z"/>
		<path class="st0" d="M309.1,222.4l-16.1-70.3c21.7,9.4,38.5,3.6,53.9-1.9l-19.5,71.9C321.3,223.3,315.8,223.9,309.1,222.4
			L309.1,222.4z"/>
		<path class="st0" d="M303.5,228.2l2.5,34.6c9.6,2.1,19.7,1.7,27.9-0.6l2.2-34.3C325.5,229.7,314.8,230.3,303.5,228.2L303.5,228.2z
			 M303.5,228.2"/>
	</g>
</g>
</svg>
