<?xml version="1.0" encoding="utf-8"?>
<!-- Generator: Adobe Illustrator 16.0.0, SVG Export Plug-In . SVG Version: 6.00 Build 0)  -->
<!DOCTYPE svg PUBLIC "-//W3C//DTD SVG 1.1//EN" "http://www.w3.org/Graphics/SVG/1.1/DTD/svg11.dtd">
<svg version="1.1" id="Layer_1" xmlns="http://www.w3.org/2000/svg" xmlns:xlink="http://www.w3.org/1999/xlink" x="0px" y="0px"
	 width="720px" height="320px" viewBox="0 0 720 320" enable-background="new 0 0 720 320" xml:space="preserve">
<g>
	<g>
		<polygon points="243.72,210 160.643,260 77.567,210 77.567,110 160.643,60 243.72,110 		"/>
		<g>
			<g id="layer1_9_" transform="translate(-256.6798,-531.7963)">
				<path id="text5540_9_" fill="#6D1943" stroke="#6D1943" stroke-width="2.5" stroke-miterlimit="10" d="M384.043,742.958h-9.087
					c1.32-6.205,1.981-11.822,1.981-16.853V666.13c0-6.241,0.551-10.885,1.651-13.935c1.139-3.046,3.321-5.727,6.555-8.039
					c3.268-2.351,7.343-3.525,12.226-3.525c5.803,0,10.666,1.542,14.596,4.626c3.965,3.047,5.946,7.398,5.946,13.052
					c0,6.609-3.139,12.025-9.417,16.247c9.362,4.405,14.045,11.325,14.045,20.764c0,5.14-1.249,9.746-3.745,13.822
					c-2.46,4.039-5.323,6.922-8.593,8.646c-3.229,1.727-7.104,2.588-11.619,2.588c-5.141,0-9.325-1.926-12.558-5.781v10.242
					C386.026,731.89,385.365,737.929,384.043,742.958 M386.026,709.64c2.863,4.734,6.865,7.104,12.006,7.104
					c4.957,0,8.593-1.799,10.904-5.396c2.313-3.638,3.47-8.041,3.47-13.22c0-3.965-0.771-8.002-2.313-12.114
					c-1.505-4.147-3.449-7.306-5.837-9.474c-2.203,0.552-4.187,0.826-5.948,0.826c-3.708,0-5.563-0.974-5.563-2.92
					c0-1.762,1.561-2.644,4.682-2.644c1.945,0,4.369,0.44,7.271,1.321c2.605-4.405,3.91-9.196,3.91-14.375
					c0-4.625-1.027-8.168-3.084-10.627c-2.021-2.46-4.663-3.69-7.932-3.69c-2.605,0-4.848,0.734-6.719,2.203
					c-1.836,1.469-3.104,3.231-3.801,5.288c-0.697,2.019-1.047,5.342-1.047,9.968V709.64"/>
			</g>
			<g id="layer1_8_" transform="translate(-256.6798,-531.7963)">
				<path id="text5540_8_" fill="#8C2863" stroke="#8C2863" stroke-width="2.5" stroke-miterlimit="10" d="M393.33,742.958h-9.088
					c1.322-6.205,1.982-11.822,1.982-16.853V666.13c0-6.241,0.551-10.885,1.651-13.935c1.14-3.046,3.322-5.727,6.554-8.039
					c3.269-2.351,7.345-3.525,12.228-3.525c5.802,0,10.666,1.542,14.595,4.626c3.966,3.047,5.947,7.398,5.947,13.052
					c0,6.609-3.14,12.025-9.418,16.247c9.362,4.405,14.044,11.325,14.044,20.764c0,5.14-1.248,9.746-3.744,13.822
					c-2.461,4.039-5.323,6.922-8.592,8.646c-3.23,1.727-7.104,2.588-11.62,2.588c-5.141,0-9.325-1.926-12.557-5.781v10.242
					C395.314,731.89,394.653,737.929,393.33,742.958 M395.314,709.64c2.862,4.734,6.864,7.104,12.006,7.104
					c4.956,0,8.591-1.799,10.903-5.396c2.313-3.638,3.47-8.041,3.47-13.22c0-3.965-0.771-8.002-2.313-12.114
					c-1.505-4.147-3.451-7.306-5.838-9.474c-2.203,0.552-4.187,0.826-5.947,0.826c-3.708,0-5.563-0.974-5.563-2.92
					c0-1.762,1.562-2.644,4.682-2.644c1.945,0,4.369,0.44,7.271,1.321c2.606-4.405,3.91-9.196,3.91-14.375
					c0-4.625-1.027-8.168-3.084-10.627c-2.02-2.46-4.662-3.69-7.931-3.69c-2.606,0-4.848,0.734-6.721,2.203
					c-1.835,1.469-3.103,3.231-3.8,5.288c-0.696,2.019-1.046,5.342-1.046,9.968L395.314,709.64"/>
			</g>
			<g id="layer1_7_" transform="translate(-256.6798,-531.7963)">
				<path id="text5540_7_" fill="#BF5E93" stroke="#BF5E93" stroke-width="2.5" stroke-miterlimit="10" d="M402.619,742.958h-9.087
					c1.321-6.205,1.981-11.822,1.981-16.853V666.13c0-6.241,0.552-10.885,1.652-13.935c1.138-3.046,3.321-5.727,6.554-8.039
					c3.269-2.351,7.344-3.525,12.228-3.525c5.8,0,10.665,1.542,14.595,4.626c3.965,3.047,5.946,7.398,5.946,13.052
					c0,6.609-3.14,12.025-9.417,16.247c9.361,4.405,14.044,11.325,14.044,20.764c0,5.14-1.249,9.746-3.745,13.822
					c-2.46,4.039-5.323,6.922-8.592,8.646c-3.229,1.727-7.104,2.588-11.62,2.588c-5.141,0-9.324-1.926-12.558-5.781v10.242
					C404.601,731.89,403.94,737.929,402.619,742.958 M404.601,709.64c2.863,4.734,6.865,7.104,12.006,7.104
					c4.956,0,8.592-1.799,10.903-5.396c2.313-3.638,3.471-8.041,3.471-13.22c0-3.965-0.771-8.002-2.313-12.114
					c-1.505-4.147-3.451-7.306-5.838-9.474c-2.202,0.552-4.186,0.826-5.947,0.826c-3.708,0-5.563-0.974-5.563-2.92
					c0-1.762,1.562-2.644,4.683-2.644c1.944,0,4.369,0.44,7.271,1.321c2.605-4.405,3.909-9.196,3.909-14.375
					c0-4.625-1.027-8.168-3.084-10.627c-2.02-2.46-4.662-3.69-7.931-3.69c-2.605,0-4.848,0.734-6.72,2.203
					c-1.836,1.469-3.104,3.231-3.8,5.288c-0.698,2.019-1.047,5.342-1.047,9.968V709.64"/>
			</g>
			<g id="layer1_6_" transform="translate(-256.6798,-531.7963)">
				<path id="text5540_6_" fill="#D381B2" stroke="#D381B2" stroke-width="2.5" stroke-miterlimit="10" d="M411.477,742.958h-9.088
					c1.322-6.205,1.983-11.822,1.983-16.853V666.13c0-6.241,0.55-10.885,1.65-13.935c1.139-3.046,3.322-5.727,6.554-8.039
					c3.269-2.351,7.344-3.525,12.228-3.525c5.802,0,10.666,1.542,14.595,4.626c3.966,3.047,5.947,7.398,5.947,13.052
					c0,6.609-3.141,12.025-9.417,16.247c9.362,4.405,14.043,11.325,14.043,20.764c0,5.14-1.248,9.746-3.744,13.822
					c-2.46,4.039-5.323,6.922-8.592,8.646c-3.23,1.727-7.104,2.588-11.621,2.588c-5.14,0-9.324-1.926-12.556-5.781v10.242
					C413.46,731.89,412.798,737.929,411.477,742.958 M413.46,709.64c2.862,4.734,6.864,7.104,12.005,7.104
					c4.957,0,8.592-1.799,10.904-5.396c2.313-3.638,3.471-8.041,3.471-13.22c0-3.965-0.771-8.002-2.313-12.114
					c-1.505-4.147-3.451-7.306-5.838-9.474c-2.203,0.552-4.187,0.826-5.947,0.826c-3.709,0-5.563-0.974-5.563-2.92
					c0-1.762,1.561-2.644,4.682-2.644c1.945,0,4.369,0.44,7.271,1.321c2.606-4.405,3.91-9.196,3.91-14.375
					c0-4.625-1.027-8.168-3.084-10.627c-2.021-2.46-4.663-3.69-7.932-3.69c-2.605,0-4.847,0.734-6.72,2.203
					c-1.835,1.469-3.102,3.231-3.8,5.288c-0.696,2.019-1.046,5.342-1.046,9.968V709.64"/>
			</g>
			<g id="layer1_5_" transform="translate(-256.6798,-531.7963)">
				<path id="text5540_5_" fill="#FFFFFF" stroke="#FFFFFF" stroke-width="2.5" stroke-miterlimit="10" d="M421.194,742.958h-9.087
					c1.32-6.205,1.981-11.822,1.981-16.853V666.13c0-6.241,0.551-10.885,1.651-13.935c1.139-3.046,3.322-5.727,6.555-8.039
					c3.269-2.351,7.343-3.525,12.227-3.525c5.802,0,10.666,1.542,14.595,4.626c3.966,3.047,5.948,7.398,5.948,13.052
					c0,6.609-3.141,12.025-9.418,16.247c9.361,4.405,14.044,11.325,14.044,20.764c0,5.14-1.248,9.746-3.745,13.822
					c-2.46,4.039-5.322,6.922-8.592,8.646c-3.229,1.727-7.104,2.588-11.62,2.588c-5.141,0-9.325-1.926-12.558-5.781v10.242
					C423.175,731.89,422.514,737.929,421.194,742.958 M423.175,709.64c2.864,4.734,6.866,7.104,12.006,7.104
					c4.957,0,8.593-1.799,10.904-5.396c2.313-3.638,3.47-8.041,3.47-13.22c0-3.965-0.771-8.002-2.313-12.114
					c-1.505-4.147-3.449-7.306-5.837-9.474c-2.203,0.552-4.187,0.826-5.947,0.826c-3.708,0-5.563-0.974-5.563-2.92
					c0-1.762,1.562-2.644,4.682-2.644c1.945,0,4.369,0.44,7.271,1.321c2.605-4.405,3.91-9.196,3.91-14.375
					c0-4.625-1.027-8.168-3.084-10.627c-2.021-2.46-4.663-3.69-7.932-3.69c-2.605,0-4.847,0.734-6.719,2.203
					c-1.836,1.469-3.104,3.231-3.801,5.288c-0.697,2.019-1.047,5.342-1.047,9.968L423.175,709.64"/>
			</g>
		</g>
	</g>
	<g>
		<path d="M281.606,145.984v-44.354h29.951v8.385h-19.968v8.703h17.729v8.192h-17.729V137.6h21.439v8.383h-31.423V145.984z"/>
		<path d="M334.341,96.32c1.792,0,3.434,0.182,4.928,0.544c1.493,0.363,2.646,0.715,3.456,1.056l-1.855,7.616
			c-0.854-0.384-1.781-0.672-2.783-0.864c-1.003-0.191-1.933-0.288-2.784-0.288c-1.152,0-2.123,0.16-2.912,0.48
			c-0.79,0.32-1.408,0.758-1.855,1.312c-0.447,0.556-0.769,1.217-0.96,1.984c-0.191,0.768-0.288,1.6-0.288,2.496v1.664h11.775v7.936
			h-11.775v25.729h-9.536v-35.455c0-4.354,1.227-7.809,3.681-10.368C325.882,97.601,329.519,96.32,334.341,96.32z M361.156,96.32
			c1.792,0,3.436,0.182,4.93,0.544c1.491,0.363,2.645,0.715,3.455,1.056l-1.855,7.616c-0.854-0.384-1.782-0.672-2.784-0.864
			c-1.003-0.191-1.931-0.288-2.784-0.288c-1.15,0-2.123,0.16-2.912,0.48c-0.788,0.32-1.406,0.758-1.854,1.312
			c-0.448,0.556-0.769,1.217-0.96,1.984c-0.191,0.768-0.288,1.6-0.288,2.496v1.664h11.776v7.936h-11.776v25.729h-9.536v-35.455
			c0-4.354,1.228-7.809,3.681-10.368S356.335,96.32,361.156,96.32z"/>
		<path d="M404.548,129.088c0,2.646-0.385,5.067-1.151,7.266c-0.769,2.196-1.878,4.073-3.328,5.631
			c-1.451,1.559-3.189,2.764-5.216,3.617c-2.027,0.853-4.3,1.278-6.816,1.278c-2.475,0-4.726-0.427-6.752-1.278
			c-2.026-0.854-3.766-2.06-5.216-3.617c-1.451-1.558-2.582-3.435-3.393-5.631c-0.812-2.197-1.217-4.619-1.217-7.266
			c0-2.645,0.416-5.056,1.248-7.23c0.832-2.177,1.984-4.032,3.456-5.568c1.473-1.536,3.222-2.729,5.248-3.584
			c2.026-0.853,4.234-1.28,6.624-1.28c2.433,0,4.661,0.428,6.688,1.28c2.025,0.854,3.766,2.048,5.217,3.584
			c1.449,1.536,2.581,3.392,3.392,5.568C404.142,124.032,404.548,126.443,404.548,129.088z M394.821,129.088
			c0-2.943-0.587-5.258-1.76-6.943c-1.175-1.686-2.849-2.527-5.024-2.527c-2.175,0-3.861,0.843-5.056,2.527
			c-1.195,1.687-1.792,4-1.792,6.943c0,2.944,0.597,5.28,1.792,7.008c1.193,1.729,2.88,2.594,5.056,2.594
			c2.177,0,3.851-0.864,5.024-2.594C394.234,134.368,394.821,132.032,394.821,129.088z"/>
		<path d="M432.196,120.77c-0.854-0.215-1.854-0.438-3.008-0.673c-1.151-0.233-2.39-0.352-3.712-0.352
			c-0.598,0-1.313,0.054-2.145,0.16c-0.831,0.106-1.462,0.224-1.889,0.352v25.729h-9.535v-31.871
			c1.705-0.598,3.723-1.162,6.048-1.696c2.324-0.533,4.917-0.8,7.775-0.8c0.513,0,1.13,0.032,1.856,0.096
			c0.725,0.064,1.449,0.15,2.176,0.256c0.725,0.107,1.45,0.235,2.176,0.385s1.345,0.331,1.856,0.544L432.196,120.77z"/>
		<path d="M449.348,102.592c0,1.75-0.566,3.126-1.696,4.128c-1.131,1.003-2.464,1.505-4,1.505s-2.87-0.502-4-1.505
			c-1.131-1.002-1.696-2.378-1.696-4.128c0-1.749,0.565-3.125,1.696-4.128c1.13-1.002,2.464-1.504,4-1.504s2.869,0.502,4,1.504
			C448.781,99.467,449.348,100.843,449.348,102.592z M448.45,145.984h-9.535V112.32h9.535V145.984z"/>
		<path d="M469.507,111.424c2.814,0,5.162,0.32,7.04,0.96c1.877,0.641,3.381,1.559,4.512,2.752c1.13,1.195,1.93,2.646,2.4,4.354
			c0.469,1.706,0.703,3.604,0.703,5.696v19.84c-1.365,0.299-3.265,0.649-5.695,1.056c-2.434,0.405-5.376,0.608-8.832,0.608
			c-2.176,0-4.15-0.192-5.92-0.576c-1.771-0.385-3.296-1.014-4.576-1.889c-1.28-0.873-2.262-2.017-2.944-3.425
			c-0.683-1.407-1.022-3.136-1.022-5.184c0-1.962,0.394-3.626,1.184-4.992c0.789-1.365,1.845-2.453,3.168-3.265
			c1.322-0.811,2.837-1.396,4.544-1.76c1.706-0.361,3.479-0.545,5.313-0.545c1.235,0,2.336,0.055,3.296,0.16
			c0.96,0.107,1.737,0.246,2.336,0.416v-0.896c0-1.62-0.491-2.922-1.473-3.903c-0.981-0.98-2.688-1.472-5.119-1.472
			c-1.622,0-3.224,0.118-4.801,0.352c-1.579,0.235-2.943,0.566-4.097,0.992l-1.216-7.68c0.554-0.17,1.248-0.353,2.08-0.544
			c0.832-0.192,1.737-0.362,2.72-0.513c0.981-0.148,2.017-0.276,3.104-0.384C467.299,111.479,468.397,111.424,469.507,111.424z
			 M470.275,139.328c0.938,0,1.834-0.021,2.688-0.064c0.853-0.041,1.535-0.104,2.048-0.19v-7.232
			c-0.384-0.085-0.96-0.17-1.729-0.256c-0.768-0.085-1.472-0.128-2.11-0.128c-0.896,0-1.739,0.054-2.528,0.16
			c-0.79,0.105-1.483,0.31-2.08,0.607c-0.598,0.299-1.066,0.703-1.408,1.217c-0.342,0.512-0.512,1.15-0.512,1.92
			c0,1.494,0.501,2.527,1.504,3.104C467.149,139.04,468.525,139.328,470.275,139.328z"/>
		<path d="M523.586,146.561c-2.434,0-4.854-0.074-7.266-0.225c-2.411-0.148-4.918-0.501-7.52-1.056v-43.008
			c2.048-0.385,4.288-0.672,6.72-0.864c2.433-0.192,4.693-0.288,6.784-0.288c2.815,0,5.408,0.203,7.775,0.608
			s4.404,1.099,6.111,2.08c1.706,0.981,3.04,2.271,4,3.871c0.96,1.601,1.44,3.574,1.44,5.921c0,3.542-1.707,6.336-5.12,8.384
			c2.815,1.065,4.735,2.518,5.76,4.352c1.024,1.835,1.536,3.904,1.536,6.208c0,4.651-1.696,8.149-5.088,10.496
			C535.329,145.387,530.282,146.561,523.586,146.561z M518.53,119.04h4.864c3.072,0,5.27-0.394,6.592-1.184
			c1.322-0.789,1.984-2.059,1.984-3.809c0-1.792-0.684-3.05-2.048-3.775c-1.366-0.726-3.371-1.088-6.018-1.088
			c-0.854,0-1.771,0.011-2.752,0.031c-0.98,0.022-1.854,0.075-2.624,0.16L518.53,119.04L518.53,119.04z M518.53,126.656v11.455
			c0.727,0.087,1.516,0.149,2.368,0.191c0.854,0.043,1.792,0.064,2.816,0.064c2.984,0,5.396-0.426,7.23-1.28
			c1.834-0.853,2.752-2.433,2.752-4.735c0-2.049-0.768-3.51-2.304-4.385c-1.536-0.874-3.734-1.312-6.592-1.312L518.53,126.656
			L518.53,126.656z"/>
		<path d="M549.57,129.408c0-2.986,0.458-5.6,1.376-7.84c0.917-2.24,2.122-4.106,3.616-5.602c1.493-1.492,3.21-2.624,5.152-3.392
			c1.939-0.768,3.936-1.152,5.982-1.152c4.778,0,8.555,1.462,11.328,4.385c2.773,2.923,4.16,7.222,4.16,12.896
			c0,0.555-0.022,1.163-0.064,1.823c-0.043,0.662-0.086,1.248-0.128,1.761h-21.632c0.213,1.963,1.13,3.521,2.752,4.672
			c1.621,1.151,3.797,1.729,6.528,1.729c1.749,0,3.466-0.16,5.15-0.48c1.686-0.32,3.063-0.714,4.13-1.184l1.278,7.744
			c-0.512,0.256-1.193,0.512-2.048,0.768c-0.854,0.256-1.803,0.48-2.848,0.672c-1.046,0.191-2.166,0.354-3.36,0.48
			c-1.195,0.127-2.39,0.19-3.584,0.19c-3.03,0-5.664-0.446-7.904-1.344c-2.238-0.896-4.096-2.122-5.566-3.681
			c-1.473-1.558-2.562-3.401-3.266-5.535C549.922,134.188,549.57,131.883,549.57,129.408z M571.97,125.76
			c-0.043-0.81-0.184-1.6-0.416-2.367c-0.235-0.769-0.6-1.449-1.088-2.049c-0.491-0.597-1.11-1.088-1.856-1.472
			c-0.747-0.384-1.675-0.576-2.784-0.576c-1.065,0-1.982,0.183-2.752,0.544c-0.768,0.363-1.407,0.844-1.92,1.44
			c-0.512,0.598-0.907,1.29-1.184,2.079c-0.278,0.791-0.48,1.591-0.608,2.399L571.97,125.76L571.97,125.76z"/>
		<path d="M588.226,103.937l9.536-1.536v9.92h11.456v7.936h-11.456v11.841c0,2.006,0.352,3.605,1.056,4.801
			c0.704,1.194,2.122,1.791,4.256,1.791c1.024,0,2.08-0.097,3.168-0.287c1.089-0.192,2.08-0.459,2.978-0.801l1.344,7.424
			c-1.152,0.471-2.432,0.875-3.84,1.217c-1.408,0.341-3.137,0.512-5.186,0.512c-2.603,0-4.758-0.352-6.464-1.056
			c-1.707-0.704-3.071-1.687-4.096-2.944s-1.739-2.784-2.146-4.576c-0.405-1.792-0.606-3.775-0.606-5.951V103.937z"/>
		<path d="M627.778,111.424c2.815,0,5.162,0.32,7.04,0.96c1.877,0.641,3.381,1.559,4.512,2.752c1.131,1.195,1.931,2.646,2.4,4.354
			c0.469,1.706,0.704,3.604,0.704,5.696v19.84c-1.366,0.299-3.265,0.649-5.696,1.056c-2.433,0.405-5.376,0.608-8.832,0.608
			c-2.176,0-4.149-0.192-5.92-0.576c-1.771-0.385-3.296-1.014-4.576-1.889c-1.279-0.873-2.262-2.017-2.943-3.425
			c-0.684-1.407-1.023-3.136-1.023-5.184c0-1.962,0.395-3.626,1.185-4.992c0.789-1.365,1.845-2.453,3.168-3.265
			c1.322-0.811,2.837-1.396,4.544-1.76c1.706-0.361,3.478-0.545,5.313-0.545c1.236,0,2.336,0.055,3.296,0.16
			c0.961,0.107,1.738,0.246,2.336,0.416v-0.896c0-1.62-0.49-2.922-1.472-3.903c-0.981-0.98-2.688-1.472-5.12-1.472
			c-1.622,0-3.223,0.118-4.8,0.352c-1.579,0.235-2.944,0.566-4.097,0.992l-1.216-7.68c0.554-0.17,1.248-0.353,2.08-0.544
			c0.831-0.192,1.737-0.362,2.72-0.513c0.98-0.148,2.017-0.276,3.104-0.384C625.57,111.479,626.666,111.424,627.778,111.424z
			 M628.545,139.328c0.938,0,1.834-0.021,2.688-0.064c0.854-0.041,1.536-0.104,2.048-0.19v-7.232
			c-0.384-0.085-0.96-0.17-1.729-0.256c-0.769-0.085-1.473-0.128-2.111-0.128c-0.896,0-1.739,0.054-2.528,0.16
			c-0.79,0.105-1.482,0.31-2.08,0.607c-0.598,0.299-1.065,0.703-1.407,1.217c-0.343,0.512-0.513,1.15-0.513,1.92
			c0,1.494,0.501,2.527,1.504,3.104C625.419,139.04,626.795,139.328,628.545,139.328z"/>
		<path d="M293.701,215.168c1.407,0,2.569-0.117,3.487-0.352c0.917-0.234,1.652-0.556,2.208-0.961
			c0.555-0.404,0.938-0.886,1.151-1.439c0.213-0.555,0.32-1.174,0.32-1.855c0-1.451-0.684-2.655-2.049-3.617
			c-1.365-0.959-3.712-1.993-7.04-3.104c-1.45-0.512-2.901-1.098-4.353-1.76s-2.752-1.494-3.903-2.496s-2.091-2.219-2.815-3.648
			c-0.727-1.428-1.088-3.168-1.088-5.215c0-2.049,0.384-3.895,1.151-5.537c0.769-1.643,1.855-3.039,3.265-4.19
			c1.407-1.152,3.113-2.037,5.119-2.656c2.006-0.618,4.267-0.928,6.784-0.928c2.985,0,5.567,0.319,7.744,0.959
			c2.176,0.641,3.968,1.345,5.376,2.112l-2.881,7.871c-1.237-0.639-2.613-1.205-4.128-1.694c-1.515-0.49-3.339-0.736-5.472-0.736
			c-2.391,0-4.107,0.33-5.152,0.992c-1.046,0.662-1.567,1.676-1.567,3.039c0,0.813,0.191,1.494,0.576,2.049
			c0.384,0.556,0.928,1.058,1.632,1.504c0.704,0.447,1.515,0.854,2.433,1.218c0.917,0.36,1.93,0.733,3.04,1.118
			c2.304,0.854,4.31,1.695,6.016,2.527s3.125,1.803,4.257,2.912c1.13,1.11,1.974,2.411,2.527,3.903
			c0.555,1.494,0.832,3.308,0.832,5.439c0,4.139-1.451,7.352-4.353,9.633c-2.901,2.283-7.274,3.424-13.119,3.424
			c-1.964,0-3.734-0.117-5.313-0.352c-1.578-0.236-2.976-0.523-4.191-0.865c-1.216-0.34-2.262-0.703-3.136-1.088
			c-0.875-0.383-1.61-0.746-2.208-1.088l2.815-7.936c1.322,0.727,2.954,1.377,4.896,1.95
			C288.506,214.879,290.885,215.168,293.701,215.168z"/>
		<path d="M316.613,206.207c0-2.984,0.458-5.6,1.376-7.84c0.917-2.238,2.122-4.105,3.616-5.6c1.493-1.492,3.21-2.623,5.152-3.394
			c1.939-0.769,3.936-1.149,5.983-1.149c4.777,0,8.554,1.461,11.327,4.383c2.773,2.924,4.16,7.223,4.16,12.896
			c0,0.556-0.021,1.162-0.063,1.824c-0.043,0.662-0.086,1.248-0.128,1.76h-21.633c0.214,1.963,1.131,3.521,2.753,4.672
			c1.62,1.152,3.797,1.729,6.527,1.729c1.749,0,3.466-0.16,5.151-0.48c1.685-0.32,3.062-0.715,4.129-1.184l1.279,7.744
			c-0.513,0.256-1.194,0.512-2.049,0.768c-0.854,0.256-1.803,0.48-2.848,0.672c-1.046,0.191-2.166,0.352-3.359,0.48
			c-1.195,0.127-2.391,0.191-3.585,0.191c-3.029,0-5.663-0.447-7.902-1.345c-2.24-0.896-4.098-2.123-5.568-3.68
			c-1.473-1.558-2.561-3.402-3.265-5.537C316.964,210.986,316.613,208.684,316.613,206.207z M339.013,202.561
			c-0.043-0.811-0.183-1.602-0.416-2.369c-0.235-0.768-0.599-1.448-1.088-2.047c-0.491-0.598-1.11-1.088-1.856-1.473
			c-0.747-0.385-1.675-0.576-2.783-0.576c-1.066,0-1.983,0.182-2.752,0.545s-1.408,0.842-1.921,1.439
			c-0.512,0.597-0.905,1.291-1.184,2.08s-0.479,1.59-0.608,2.4H339.013L339.013,202.561z"/>
		<path d="M375.876,197.568c-0.854-0.213-1.855-0.438-3.009-0.672c-1.15-0.234-2.39-0.354-3.712-0.354
			c-0.598,0-1.312,0.056-2.144,0.16c-0.832,0.106-1.462,0.225-1.89,0.354v25.727h-9.534v-31.871
			c1.705-0.598,3.722-1.162,6.048-1.695c2.324-0.533,4.917-0.801,7.774-0.801c0.514,0,1.13,0.031,1.856,0.096
			c0.725,0.064,1.45,0.15,2.176,0.256c0.726,0.107,1.45,0.236,2.176,0.385c0.727,0.15,1.346,0.33,1.856,0.543L375.876,197.568z"/>
		<path d="M393.78,222.783c-2.184-4.266-4.399-9.258-6.647-14.975c-2.248-5.72-4.379-11.947-6.393-18.689h10.112
			c0.428,1.664,0.932,3.469,1.511,5.408c0.578,1.942,1.179,3.904,1.801,5.889c0.62,1.984,1.241,3.914,1.863,5.791
			c0.622,1.879,1.233,3.584,1.833,5.121c0.557-1.537,1.156-3.242,1.798-5.121c0.644-1.877,1.274-3.807,1.896-5.791
			s1.221-3.945,1.799-5.889c0.578-1.939,1.082-3.744,1.51-5.408h9.862c-2.012,6.742-4.141,12.971-6.387,18.689
			c-2.246,5.717-4.461,10.709-6.645,14.975H393.78z"/>
		<path d="M430.211,179.393c0,1.75-0.566,3.125-1.696,4.127c-1.131,1.004-2.464,1.504-4,1.504s-2.87-0.5-4-1.504
			c-1.131-1.002-1.696-2.377-1.696-4.127s0.565-3.125,1.696-4.129c1.13-1.002,2.464-1.504,4-1.504s2.869,0.502,4,1.504
			C429.645,176.268,430.211,177.643,430.211,179.393z M429.315,222.783h-9.535v-33.664h9.535V222.783z"/>
		<path d="M436.674,205.951c0-2.432,0.395-4.725,1.185-6.879c0.788-2.154,1.93-4.033,3.424-5.633
			c1.493-1.601,3.307-2.869,5.439-3.808s4.564-1.407,7.296-1.407c1.792,0,3.435,0.159,4.929,0.479
			c1.492,0.32,2.943,0.779,4.353,1.377l-1.984,7.615c-0.896-0.34-1.878-0.639-2.943-0.896c-1.066-0.258-2.262-0.385-3.584-0.385
			c-2.815,0-4.918,0.875-6.304,2.623c-1.388,1.75-2.08,4.055-2.08,6.912c0,3.03,0.649,5.377,1.951,7.041s3.573,2.495,6.816,2.495
			c1.151,0,2.389-0.106,3.712-0.319c1.321-0.213,2.538-0.556,3.647-1.022l1.345,7.807c-1.11,0.471-2.496,0.875-4.16,1.217
			c-1.664,0.34-3.499,0.512-5.504,0.512c-3.072,0-5.719-0.459-7.937-1.377c-2.22-0.916-4.044-2.164-5.473-3.742
			c-1.431-1.578-2.476-3.444-3.136-5.602C437.004,210.807,436.674,208.469,436.674,205.951z"/>
		<path d="M467.073,206.207c0-2.984,0.458-5.6,1.376-7.84c0.917-2.238,2.122-4.105,3.616-5.6c1.493-1.492,3.21-2.623,5.152-3.394
			c1.939-0.769,3.936-1.149,5.982-1.149c4.778,0,8.555,1.461,11.328,4.383c2.773,2.924,4.16,7.223,4.16,12.896
			c0,0.556-0.021,1.162-0.063,1.824c-0.043,0.662-0.087,1.248-0.129,1.76h-21.632c0.213,1.963,1.13,3.521,2.752,4.672
			c1.621,1.152,3.798,1.729,6.528,1.729c1.749,0,3.466-0.16,5.151-0.48c1.685-0.32,3.062-0.715,4.129-1.184l1.278,7.744
			c-0.512,0.256-1.193,0.512-2.048,0.768c-0.854,0.256-1.803,0.48-2.848,0.672c-1.046,0.191-2.166,0.352-3.36,0.48
			c-1.194,0.127-2.39,0.191-3.584,0.191c-3.029,0-5.664-0.447-7.903-1.345c-2.239-0.896-4.097-2.123-5.567-3.68
			c-1.473-1.558-2.561-3.402-3.265-5.537C467.427,210.986,467.073,208.684,467.073,206.207z M489.475,202.561
			c-0.043-0.811-0.184-1.602-0.416-2.369c-0.235-0.768-0.599-1.448-1.088-2.047c-0.491-0.598-1.11-1.088-1.856-1.473
			c-0.747-0.385-1.675-0.576-2.784-0.576c-1.065,0-1.982,0.182-2.752,0.545c-0.768,0.363-1.407,0.842-1.92,1.439
			c-0.512,0.597-0.906,1.291-1.184,2.08c-0.278,0.789-0.48,1.59-0.608,2.4H489.475L489.475,202.561z"/>
	</g>
</g>
</svg>
