<?xml version="1.0" encoding="utf-8"?>
<!-- Generator: Adobe Illustrator 16.0.0, SVG Export Plug-In . SVG Version: 6.00 Build 0)  -->
<!DOCTYPE svg PUBLIC "-//W3C//DTD SVG 1.1//EN" "http://www.w3.org/Graphics/SVG/1.1/DTD/svg11.dtd">
<svg version="1.1" id="Layer_1" xmlns="http://www.w3.org/2000/svg" xmlns:xlink="http://www.w3.org/1999/xlink" x="0px" y="0px"
	 width="211.158px" height="243.598px" viewBox="194.421 78.201 211.158 243.598"
	 enable-background="new 194.421 78.201 211.158 243.598" xml:space="preserve">
<g>
	<g>
		
			<line fill="none" stroke="#171617" stroke-width="3" stroke-miterlimit="10" x1="347.527" y1="209.783" x2="405.579" y2="209.783"/>
		<g>
			<polygon fill="#171617" stroke="#000000" stroke-width="0.6159" stroke-miterlimit="10" points="356.191,207.811 356.191,211.76 
				349.774,212.76 338.768,212.76 338.768,206.811 349.774,206.811 			"/>
			
				<line fill="none" stroke="#000000" stroke-width="0.6159" stroke-miterlimit="10" x1="349.774" y1="206.811" x2="349.774" y2="212.76"/>
			
				<line fill="none" stroke="#000000" stroke-width="0.6159" stroke-miterlimit="10" x1="351.093" y1="207.016" x2="351.097" y2="212.553"/>
			
				<line fill="none" stroke="#000000" stroke-width="0.6159" stroke-miterlimit="10" x1="352.333" y1="207.209" x2="352.303" y2="212.365"/>
			
				<line fill="none" stroke="#000000" stroke-width="0.6159" stroke-miterlimit="10" x1="353.469" y1="207.387" x2="353.481" y2="212.182"/>
			
				<line fill="none" stroke="#000000" stroke-width="0.6159" stroke-miterlimit="10" x1="354.474" y1="207.543" x2="354.477" y2="212.027"/>
			
				<line fill="none" stroke="#000000" stroke-width="0.6159" stroke-miterlimit="10" x1="355.374" y1="207.656" x2="355.374" y2="211.902"/>
		</g>
	</g>
	<g>
		
			<line fill="none" stroke="#FFCE09" stroke-width="5" stroke-miterlimit="10" x1="347.527" y1="180.005" x2="405.579" y2="180.005"/>
		<g>
			<polygon fill="#FFCE09" stroke="#F89939" stroke-width="0.8388" stroke-miterlimit="10" points="346.754,176.282 
				346.754,183.729 342.496,184.729 336.572,184.729 336.572,175.282 342.58,175.282 			"/>
			<rect x="347.163" y="176.714" fill="#FFCE09" width="9.333" height="6.583"/>
			
				<line fill="none" stroke="#F89939" stroke-width="0.8388" stroke-miterlimit="10" x1="347.996" y1="176.117" x2="347.996" y2="183.784"/>
			
				<line fill="none" stroke="#F89939" stroke-width="0.8388" stroke-miterlimit="10" x1="348.996" y1="176.117" x2="348.996" y2="183.784"/>
			
				<line fill="none" stroke="#F89939" stroke-width="0.8388" stroke-miterlimit="10" x1="349.996" y1="176.117" x2="349.996" y2="183.784"/>
			
				<line fill="none" stroke="#F89939" stroke-width="0.8388" stroke-miterlimit="10" x1="350.996" y1="176.117" x2="350.996" y2="183.784"/>
			
				<line fill="none" stroke="#F89939" stroke-width="0.8388" stroke-miterlimit="10" x1="351.996" y1="176.117" x2="351.996" y2="183.784"/>
			
				<line fill="none" stroke="#F89939" stroke-width="0.8388" stroke-miterlimit="10" x1="352.996" y1="176.117" x2="352.996" y2="183.784"/>
			
				<line fill="none" stroke="#F89939" stroke-width="0.8388" stroke-miterlimit="10" x1="353.996" y1="176.117" x2="353.996" y2="183.784"/>
			
				<line fill="none" stroke="#F89939" stroke-width="0.8388" stroke-miterlimit="10" x1="354.996" y1="176.117" x2="354.996" y2="183.784"/>
		</g>
	</g>
	<g>
		
			<line fill="none" stroke="#3499CD" stroke-width="5" stroke-miterlimit="10" x1="194.421" y1="195.144" x2="246.792" y2="195.144"/>
		<g>
			<polygon fill="#3499CD" points="238.483,197.644 239.921,198.833 246.416,198.833 246.416,191.456 239.921,191.456 
				238.483,192.66 			"/>
			<g>
				<polygon fill="#3499CD" stroke="#1D304B" stroke-miterlimit="10" points="271.764,204.018 253.347,204.018 246.416,202.018 
					246.416,188.271 253.325,186.271 271.764,186.271 				"/>
				<g>
					<path fill="#FFFFFF" d="M256.938,190.924v0.78h-3.465v-0.78h1.47v-1.31h-1.47v-0.78h3.465v0.78h-1.325v1.31H256.938z"/>
					<path fill="#FFFFFF" d="M255.209,195.539c-0.301,0-0.563-0.047-0.785-0.14c-0.224-0.094-0.408-0.227-0.556-0.398
						c-0.146-0.172-0.256-0.381-0.329-0.627s-0.11-0.523-0.11-0.83c0-0.141,0.006-0.303,0.018-0.49
						c0.012-0.187,0.035-0.37,0.072-0.55h3.375c0.033,0.18,0.056,0.368,0.067,0.563c0.012,0.195,0.018,0.362,0.018,0.503
						c0,0.297-0.033,0.565-0.1,0.807c-0.067,0.242-0.172,0.449-0.315,0.623s-0.326,0.307-0.55,0.4
						C255.79,195.492,255.521,195.539,255.209,195.539z M254.108,193.284c-0.003,0.037-0.006,0.079-0.007,0.127
						c-0.002,0.049-0.003,0.105-0.003,0.173c0,0.39,0.099,0.679,0.295,0.868c0.196,0.188,0.469,0.281,0.815,0.281
						c0.363,0,0.638-0.09,0.824-0.27c0.188-0.18,0.28-0.465,0.28-0.855c0-0.053-0.001-0.107-0.002-0.164
						c-0.002-0.057-0.006-0.11-0.013-0.16H254.108z"/>
					<path fill="#FFFFFF" d="M256.938,197.108c-0.109,0.061-0.246,0.13-0.407,0.209c-0.162,0.078-0.337,0.16-0.525,0.244
						c-0.188,0.086-0.381,0.17-0.577,0.254c-0.197,0.084-0.382,0.162-0.555,0.236c0.173,0.072,0.357,0.152,0.555,0.234
						c0.196,0.084,0.389,0.17,0.577,0.255c0.188,0.086,0.363,0.168,0.525,0.246c0.161,0.078,0.298,0.148,0.407,0.209v0.709
						c-0.229,0.033-0.487,0.064-0.772,0.092c-0.285,0.029-0.582,0.055-0.89,0.076c-0.309,0.021-0.618,0.041-0.928,0.061
						c-0.31,0.018-0.602,0.033-0.875,0.047v-0.76c0.337-0.01,0.703-0.023,1.1-0.041c0.397-0.016,0.797-0.041,1.2-0.074
						c-0.14-0.061-0.295-0.127-0.465-0.201c-0.17-0.072-0.34-0.146-0.51-0.219c-0.17-0.07-0.333-0.141-0.487-0.208
						c-0.155-0.066-0.288-0.125-0.397-0.172v-0.545c0.109-0.047,0.242-0.104,0.397-0.17c0.154-0.066,0.317-0.137,0.487-0.209
						c0.17-0.07,0.34-0.144,0.51-0.217c0.17-0.074,0.325-0.141,0.465-0.201c-0.403-0.033-0.803-0.059-1.2-0.074
						c-0.396-0.018-0.763-0.031-1.1-0.041v-0.76c0.273,0.014,0.565,0.029,0.875,0.048s0.619,0.038,0.928,0.06
						c0.308,0.021,0.604,0.047,0.89,0.075s0.543,0.06,0.772,0.093V197.108z"/>
					<path fill="#FFFFFF" d="M256.938,200.676v0.779h-3.465v-0.779H256.938z"/>
				</g>
			</g>
			<line fill="none" stroke="#1D304B" stroke-miterlimit="10" x1="244.921" y1="191.456" x2="244.921" y2="198.833"/>
			<line fill="none" stroke="#1D304B" stroke-miterlimit="10" x1="243.421" y1="191.456" x2="243.421" y2="198.833"/>
			<line fill="none" stroke="#1D304B" stroke-miterlimit="10" x1="241.921" y1="191.456" x2="241.921" y2="198.833"/>
			<line fill="none" stroke="#1D304B" stroke-miterlimit="10" x1="240.421" y1="191.456" x2="240.421" y2="198.833"/>
		</g>
	</g>
	<g>
		<rect x="292.457" y="118.885" fill="#171617" stroke="#000000" stroke-miterlimit="10" width="34" height="22.667"/>
		<g>
			<path fill="#FFFFFF" d="M300.227,132.36v-6.237h4.213v1.179h-2.809v1.224h2.493v1.152h-2.493v1.503h3.016v1.179H300.227z"/>
			<path fill="#FFFFFF" d="M307.337,126.124c0.108,0.198,0.233,0.442,0.374,0.733c0.142,0.291,0.289,0.606,0.442,0.945
				c0.153,0.339,0.306,0.686,0.456,1.04s0.291,0.687,0.424,0.999c0.133-0.312,0.273-0.645,0.424-0.999s0.303-0.7,0.456-1.04
				c0.153-0.339,0.301-0.654,0.442-0.945c0.141-0.291,0.266-0.536,0.375-0.733h1.277c0.061,0.414,0.115,0.877,0.166,1.39
				c0.052,0.513,0.097,1.047,0.136,1.602c0.039,0.555,0.075,1.112,0.108,1.669c0.032,0.558,0.061,1.083,0.085,1.575h-1.368
				c-0.018-0.606-0.042-1.266-0.072-1.98c-0.029-0.714-0.074-1.434-0.135-2.16c-0.108,0.252-0.229,0.531-0.361,0.837
				c-0.132,0.306-0.264,0.612-0.393,0.918c-0.129,0.306-0.254,0.598-0.375,0.877c-0.119,0.279-0.223,0.517-0.307,0.715h-0.98
				c-0.084-0.198-0.188-0.437-0.307-0.715c-0.121-0.279-0.246-0.572-0.375-0.877c-0.13-0.306-0.261-0.612-0.393-0.918
				c-0.133-0.306-0.254-0.585-0.361-0.837c-0.061,0.726-0.105,1.446-0.135,2.16c-0.031,0.714-0.055,1.374-0.072,1.98h-1.368
				c0.024-0.492,0.052-1.017,0.085-1.575c0.033-0.558,0.069-1.114,0.108-1.669c0.039-0.555,0.084-1.089,0.136-1.602
				c0.051-0.513,0.105-0.977,0.166-1.39H307.337z"/>
			<path fill="#FFFFFF" d="M316.598,132.486c-1.014,0-1.787-0.282-2.317-0.846c-0.531-0.563-0.796-1.365-0.796-2.403
				c0-0.516,0.08-0.977,0.242-1.381c0.162-0.405,0.385-0.747,0.666-1.026c0.282-0.279,0.618-0.491,1.008-0.635
				c0.391-0.144,0.813-0.216,1.27-0.216c0.264,0,0.504,0.02,0.72,0.059s0.405,0.084,0.567,0.135
				c0.162,0.051,0.297,0.104,0.404,0.158c0.108,0.054,0.186,0.096,0.234,0.126l-0.404,1.134c-0.193-0.102-0.416-0.189-0.672-0.261
				c-0.254-0.072-0.544-0.108-0.867-0.108c-0.217,0-0.428,0.036-0.635,0.108c-0.207,0.072-0.391,0.188-0.549,0.346
				c-0.16,0.159-0.287,0.365-0.383,0.617s-0.145,0.558-0.145,0.918c0,0.288,0.031,0.557,0.095,0.805
				c0.063,0.25,0.165,0.464,0.306,0.644c0.141,0.18,0.326,0.323,0.554,0.428s0.505,0.157,0.828,0.157
				c0.204,0,0.388-0.012,0.549-0.036c0.162-0.024,0.306-0.053,0.433-0.085c0.125-0.033,0.236-0.071,0.332-0.113
				c0.097-0.042,0.184-0.081,0.262-0.117l0.387,1.125c-0.197,0.12-0.477,0.228-0.837,0.324
				C317.488,132.438,317.072,132.486,316.598,132.486z"/>
		</g>
	</g>
	<g>
		
			<line fill="none" stroke="#996699" stroke-width="3" stroke-miterlimit="10" x1="282.091" y1="129.597" x2="282.091" y2="78.201"/>
		<g>
			<polygon fill="#996699" points="280.583,120.225 279.188,128.196 284.994,128.196 283.599,120.225 			"/>
			<polygon fill="#996699" stroke="#654566" stroke-width="0.75" stroke-miterlimit="10" points="278.723,141.624 285.459,141.624 
				285.459,130.225 284.994,128.196 279.188,128.196 278.723,130.225 			"/>
			<path fill="#FFCE0C" stroke="#F89939" stroke-width="0.5926" stroke-miterlimit="10" d="M278.723,130.112"/>
			
				<line fill="none" stroke="#654566" stroke-width="0.75" stroke-miterlimit="10" x1="284.994" y1="126.737" x2="279.18" y2="126.737"/>
			
				<line fill="none" stroke="#654566" stroke-width="0.75" stroke-miterlimit="10" x1="284.645" y1="125.237" x2="279.529" y2="125.237"/>
			
				<line fill="none" stroke="#654566" stroke-width="0.75" stroke-miterlimit="10" x1="284.296" y1="123.737" x2="279.878" y2="123.737"/>
			
				<line fill="none" stroke="#654566" stroke-width="0.75" stroke-miterlimit="10" x1="284.064" y1="122.237" x2="280.11" y2="122.237"/>
			<rect x="280.402" y="117.57" fill="#654566" width="3.342" height="3.486"/>
		</g>
	</g>
	<g>
		<g>
			<polygon fill="#6FC498" stroke="#579975" stroke-miterlimit="10" points="322.083,271.977 304.655,271.977 306.655,252.795 
				320.083,252.795 			"/>
			<g>
				<g>
					<g>
						<path fill="none" stroke="#579975" stroke-width="2" stroke-miterlimit="10" d="M322.926,282.4
							c-5.282,5.279-13.831,5.279-19.113,0"/>
						<path fill="none" stroke="#579975" stroke-width="2" stroke-miterlimit="10" d="M320.427,279.9
							c-3.901,3.898-10.214,3.898-14.115,0"/>
						<path fill="none" stroke="#579975" stroke-width="2" stroke-miterlimit="10" d="M317.5,277.207
							c-2.282,2.283-5.979,2.283-8.263,0"/>
					</g>
				</g>
			</g>
		</g>
		<g>
			<path fill="#FFFFFF" d="M310.067,264.918c0.04,0.137,0.084,0.291,0.132,0.463c0.049,0.172,0.1,0.35,0.155,0.533
				c0.055,0.182,0.11,0.365,0.167,0.549s0.111,0.354,0.165,0.51c0.044-0.17,0.088-0.354,0.133-0.555
				c0.046-0.199,0.088-0.406,0.128-0.619c0.041-0.215,0.08-0.426,0.118-0.639c0.038-0.211,0.075-0.416,0.108-0.611h0.811
				c-0.117,0.58-0.253,1.168-0.405,1.764c-0.153,0.598-0.317,1.164-0.495,1.701h-0.714c-0.116-0.32-0.229-0.656-0.339-1.008
				c-0.11-0.352-0.219-0.705-0.324-1.059c-0.107,0.354-0.215,0.707-0.321,1.059s-0.218,0.688-0.335,1.008h-0.713
				c-0.178-0.537-0.343-1.104-0.494-1.701c-0.152-0.596-0.287-1.184-0.404-1.764h0.844c0.034,0.195,0.07,0.4,0.111,0.611
				c0.04,0.213,0.082,0.424,0.125,0.639c0.044,0.213,0.088,0.42,0.134,0.619c0.045,0.201,0.091,0.385,0.138,0.555
				c0.061-0.162,0.119-0.336,0.176-0.52s0.111-0.367,0.165-0.551c0.054-0.182,0.103-0.359,0.147-0.529s0.086-0.322,0.123-0.455
				H310.067z"/>
			<path fill="#FFFFFF" d="M313.244,264.623c0,0.137-0.045,0.244-0.133,0.322s-0.193,0.117-0.313,0.117
				c-0.12,0-0.225-0.039-0.313-0.117s-0.133-0.186-0.133-0.322s0.045-0.244,0.133-0.322s0.192-0.117,0.313-0.117
				c0.119,0,0.225,0.039,0.313,0.117S313.244,264.486,313.244,264.623z M313.174,268.014h-0.745v-2.631h0.745V268.014z"/>
			<path fill="#FFFFFF" d="M313.648,266.184h1.45v0.674h-1.45V266.184z"/>
			<path fill="#FFFFFF" d="M315.623,268.014v-3.465h2.32v0.654h-1.539v0.725h1.369v0.656h-1.369v1.43H315.623z"/>
			<path fill="#FFFFFF" d="M319.259,264.623c0,0.137-0.044,0.244-0.132,0.322c-0.089,0.078-0.193,0.117-0.313,0.117
				c-0.121,0-0.225-0.039-0.313-0.117c-0.089-0.078-0.133-0.186-0.133-0.322s0.044-0.244,0.133-0.322
				c0.088-0.078,0.191-0.117,0.313-0.117c0.119,0,0.224,0.039,0.313,0.117C319.215,264.379,319.259,264.486,319.259,264.623z
				 M319.189,268.014h-0.746v-2.631h0.746V268.014z"/>
		</g>
	</g>
	<g>
		<g>
			
				<line fill="none" stroke="#EF3B68" stroke-width="5" stroke-miterlimit="10" x1="290.795" y1="321.799" x2="290.795" y2="263.578"/>
		</g>
		<g>
			<polygon fill="#EF3B68" points="287.553,270.021 284.553,262.051 297.037,262.051 294.037,270.021 			"/>
			<polygon fill="#EF3B68" stroke="#A61E2E" stroke-width="0.869" stroke-miterlimit="10" points="283.553,248.623 298.037,248.623 
				298.037,260.021 297.037,262.051 284.553,262.051 283.553,260.021 			"/>
			<path fill="#FFCE0C" stroke="#F89939" stroke-width="0.869" stroke-miterlimit="10" d="M283.553,260.135"/>
			
				<line fill="none" stroke="#A61E2E" stroke-width="0.8801" stroke-miterlimit="10" x1="297.037" y1="263.51" x2="284.537" y2="263.51"/>
			
				<line fill="none" stroke="#A61E2E" stroke-width="0.903" stroke-miterlimit="10" x1="296.287" y1="265.01" x2="285.287" y2="265.01"/>
			
				<line fill="none" stroke="#A61E2E" stroke-width="0.9361" stroke-miterlimit="10" x1="295.537" y1="266.51" x2="286.037" y2="266.51"/>
			
				<line fill="none" stroke="#A61E2E" stroke-width="0.8854" stroke-miterlimit="10" x1="295.037" y1="268.01" x2="286.537" y2="268.01"/>
			<rect x="287.164" y="269.189" fill="#A61E2E" width="7.186" height="3.486"/>
		</g>
	</g>
	<g>
		<g>
			
				<rect x="262.576" y="146.933" fill="#FFFFFF" stroke="#996699" stroke-width="0.4404" stroke-miterlimit="10" width="77.064" height="98.72"/>
			
				<rect x="266.982" y="248.318" fill="#FFFFFF" stroke="#996699" stroke-width="0.4404" stroke-miterlimit="10" width="67.941" height="5.537"/>
			
				<rect x="266.982" y="138.855" fill="#FFFFFF" stroke="#996699" stroke-width="0.4404" stroke-miterlimit="10" width="67.941" height="5.536"/>
			
				<line fill="none" stroke="#996699" stroke-width="4.4148" stroke-miterlimit="10" x1="261.078" y1="144.702" x2="340.924" y2="144.702"/>
			
				<line fill="none" stroke="#996699" stroke-width="4.4148" stroke-miterlimit="10" x1="261.078" y1="247.883" x2="340.924" y2="247.883"/>
			<g>
				<path d="M289.986,228.363c-0.43,0-0.857-0.014-1.285-0.039c-0.426-0.027-0.869-0.09-1.33-0.188v-7.609
					c0.363-0.068,0.76-0.119,1.189-0.154c0.43-0.033,0.83-0.051,1.199-0.051c0.5,0,0.957,0.037,1.377,0.107
					c0.418,0.072,0.779,0.195,1.082,0.369c0.301,0.174,0.537,0.402,0.707,0.686s0.254,0.631,0.254,1.047
					c0,0.627-0.301,1.121-0.904,1.482c0.498,0.189,0.838,0.447,1.018,0.771c0.182,0.324,0.271,0.689,0.271,1.098
					c0,0.822-0.299,1.441-0.898,1.857C292.064,228.156,291.172,228.363,289.986,228.363z M289.092,223.494h0.861
					c0.543,0,0.932-0.07,1.166-0.209c0.234-0.141,0.352-0.365,0.352-0.674c0-0.318-0.121-0.541-0.363-0.67
					c-0.24-0.127-0.596-0.191-1.064-0.191c-0.15,0-0.313,0.002-0.486,0.006s-0.328,0.014-0.465,0.027V223.494z M289.092,224.842
					v2.025c0.129,0.016,0.268,0.027,0.42,0.035c0.15,0.008,0.316,0.012,0.498,0.012c0.527,0,0.955-0.076,1.279-0.227
					c0.324-0.152,0.486-0.432,0.486-0.838c0-0.363-0.135-0.621-0.406-0.775c-0.271-0.156-0.662-0.232-1.166-0.232H289.092z"/>
				<path d="M294.98,228.262v-7.848h5.299v1.482h-3.531v1.541h3.137v1.449h-3.137v1.891h3.793v1.484H294.98z"/>
				<path d="M307.664,220.414v1.506h-2.367v6.342h-1.768v-6.342h-2.365v-1.506H307.664z"/>
				<path d="M313.133,228.262c-0.088-0.273-0.182-0.553-0.283-0.84c-0.1-0.289-0.199-0.574-0.299-0.859h-3.066
					c-0.098,0.287-0.197,0.572-0.297,0.861c-0.1,0.287-0.193,0.566-0.279,0.838h-1.834c0.295-0.846,0.576-1.627,0.842-2.346
					c0.264-0.717,0.523-1.393,0.777-2.025c0.254-0.635,0.504-1.236,0.75-1.807s0.502-1.127,0.766-1.67h1.676
					c0.258,0.543,0.512,1.1,0.762,1.67s0.502,1.172,0.756,1.807c0.254,0.633,0.514,1.309,0.779,2.025
					c0.266,0.719,0.547,1.5,0.842,2.346H313.133z M311.01,222.191c-0.039,0.113-0.098,0.27-0.174,0.465
					c-0.076,0.197-0.162,0.424-0.258,0.68c-0.098,0.258-0.207,0.541-0.326,0.85s-0.242,0.633-0.365,0.973h2.244
					c-0.119-0.34-0.236-0.666-0.35-0.975c-0.111-0.311-0.219-0.594-0.32-0.852s-0.189-0.484-0.266-0.68
					S311.057,222.303,311.01,222.191z"/>
			</g>
			<rect x="264.912" y="187.579" fill="#996699" width="2.83" height="15.13"/>
			<rect x="334.742" y="187.579" fill="#996699" width="2.83" height="15.13"/>
		</g>
		<g>
			<polygon fill="#010101" points="323.484,201.166 300.801,214.818 278.117,201.166 278.117,173.862 300.801,160.21 
				323.484,173.862 			"/>
			<g>
				<g id="layer1_20_" transform="translate(-256.6798,-531.7963)">
					<path id="text5540_20_" fill="#6E1944" stroke="#6E1944" stroke-width="0.6826" stroke-miterlimit="10" d="M548.393,733.281
						h-2.48c0.361-1.693,0.542-3.226,0.542-4.601v-16.377c0-1.703,0.148-2.972,0.45-3.805c0.312-0.831,0.908-1.563,1.79-2.194
						c0.892-0.644,2.004-0.964,3.339-0.964c1.584,0,2.912,0.42,3.984,1.263c1.083,0.833,1.624,2.021,1.624,3.565
						c0,1.804-0.856,3.282-2.571,4.436c2.557,1.203,3.835,3.093,3.835,5.67c0,1.403-0.341,2.662-1.022,3.773
						c-0.673,1.104-1.453,1.891-2.347,2.362c-0.882,0.471-1.939,0.707-3.173,0.707c-1.404,0-2.547-0.527-3.429-1.578v2.797
						C548.934,730.258,548.754,731.908,548.393,733.281 M548.934,724.183c0.782,1.293,1.876,1.94,3.278,1.94
						c1.353,0,2.348-0.492,2.978-1.474c0.631-0.993,0.947-2.195,0.947-3.608c0-1.084-0.211-2.187-0.631-3.309
						c-0.412-1.133-0.943-1.995-1.595-2.588c-0.602,0.151-1.144,0.227-1.623,0.227c-1.014,0-1.521-0.267-1.521-0.797
						c0-0.482,0.427-0.724,1.28-0.724c0.531,0,1.192,0.121,1.985,0.362c0.712-1.204,1.067-2.512,1.067-3.927
						c0-1.262-0.281-2.229-0.843-2.901c-0.551-0.672-1.273-1.008-2.165-1.008c-0.712,0-1.325,0.2-1.835,0.601
						c-0.501,0.401-0.848,0.884-1.038,1.444c-0.19,0.551-0.286,1.458-0.286,2.721L548.934,724.183"/>
				</g>
				<g id="layer1_19_" transform="translate(-256.6798,-531.7963)">
					<path id="text5540_19_" fill="#8E2965" stroke="#8E2965" stroke-width="0.6826" stroke-miterlimit="10" d="M550.928,733.281
						h-2.479c0.361-1.693,0.541-3.226,0.541-4.601v-16.377c0-1.703,0.149-2.972,0.451-3.805c0.311-0.831,0.907-1.563,1.79-2.194
						c0.892-0.644,2.006-0.964,3.338-0.964c1.585,0,2.912,0.42,3.987,1.263c1.082,0.833,1.624,2.021,1.624,3.565
						c0,1.804-0.858,3.282-2.571,4.436c2.556,1.203,3.833,3.093,3.833,5.67c0,1.403-0.338,2.662-1.021,3.773
						c-0.673,1.104-1.452,1.891-2.347,2.362c-0.882,0.471-1.938,0.707-3.172,0.707c-1.404,0-2.546-0.527-3.429-1.578v2.797
						C551.471,730.258,551.29,731.908,550.928,733.281 M551.471,724.183c0.781,1.293,1.875,1.94,3.276,1.94
						c1.354,0,2.348-0.492,2.979-1.474c0.631-0.993,0.947-2.195,0.947-3.608c0-1.084-0.211-2.187-0.632-3.309
						c-0.412-1.133-0.941-1.995-1.595-2.588c-0.602,0.151-1.143,0.227-1.624,0.227c-1.011,0-1.519-0.267-1.519-0.797
						c0-0.482,0.426-0.724,1.277-0.724c0.533,0,1.194,0.121,1.985,0.362c0.712-1.204,1.067-2.512,1.067-3.927
						c0-1.262-0.28-2.229-0.841-2.901c-0.553-0.672-1.274-1.008-2.166-1.008c-0.712,0-1.323,0.2-1.835,0.601
						c-0.502,0.401-0.848,0.884-1.038,1.444c-0.19,0.551-0.285,1.458-0.285,2.721L551.471,724.183"/>
				</g>
				<g id="layer1_18_" transform="translate(-256.6798,-531.7963)">
					<path id="text5540_18_" fill="#C15F94" stroke="#C15F94" stroke-width="0.6826" stroke-miterlimit="10" d="M553.466,733.281
						h-2.482c0.362-1.693,0.542-3.226,0.542-4.601v-16.377c0-1.703,0.149-2.972,0.452-3.805c0.31-0.831,0.906-1.563,1.788-2.194
						c0.893-0.644,2.006-0.964,3.339-0.964c1.584,0,2.913,0.42,3.986,1.263c1.083,0.833,1.624,2.021,1.624,3.565
						c0,1.804-0.856,3.282-2.57,4.436c2.555,1.203,3.835,3.093,3.835,5.67c0,1.403-0.342,2.662-1.023,3.773
						c-0.671,1.104-1.453,1.891-2.347,2.362c-0.883,0.471-1.939,0.707-3.174,0.707c-1.402,0-2.546-0.527-3.427-1.578v2.797
						C554.007,730.258,553.826,731.908,553.466,733.281 M554.007,724.183c0.781,1.293,1.874,1.94,3.277,1.94
						c1.353,0,2.347-0.492,2.979-1.474c0.632-0.993,0.947-2.195,0.947-3.608c0-1.084-0.212-2.187-0.632-3.309
						c-0.413-1.133-0.942-1.995-1.596-2.588c-0.601,0.151-1.143,0.227-1.623,0.227c-1.012,0-1.52-0.267-1.52-0.797
						c0-0.482,0.427-0.724,1.278-0.724c0.533,0,1.193,0.121,1.985,0.362c0.712-1.204,1.067-2.512,1.067-3.927
						c0-1.262-0.28-2.229-0.842-2.901c-0.552-0.672-1.274-1.008-2.167-1.008c-0.71,0-1.324,0.2-1.834,0.601
						c-0.501,0.401-0.848,0.884-1.037,1.444c-0.191,0.551-0.287,1.458-0.287,2.721v13.041"/>
				</g>
				<g id="layer1_17_" transform="translate(-256.6798,-531.7963)">
					<path id="text5540_17_" fill="#D380B1" stroke="#D380B1" stroke-width="0.6826" stroke-miterlimit="10" d="M555.885,733.281
						h-2.482c0.361-1.693,0.542-3.226,0.542-4.601v-16.377c0-1.703,0.149-2.972,0.451-3.805c0.311-0.831,0.907-1.563,1.789-2.194
						c0.893-0.644,2.006-0.964,3.34-0.964c1.584,0,2.911,0.42,3.984,1.263c1.083,0.833,1.624,2.021,1.624,3.565
						c0,1.804-0.856,3.282-2.571,4.436c2.556,1.203,3.835,3.093,3.835,5.67c0,1.403-0.341,2.662-1.022,3.773
						c-0.671,1.104-1.453,1.891-2.348,2.362c-0.882,0.471-1.938,0.707-3.173,0.707c-1.403,0-2.545-0.527-3.428-1.578v2.797
						C556.426,730.258,556.245,731.908,555.885,733.281 M556.426,724.183c0.781,1.293,1.874,1.94,3.277,1.94
						c1.354,0,2.348-0.492,2.979-1.474c0.631-0.993,0.948-2.195,0.948-3.608c0-1.084-0.213-2.187-0.633-3.309
						c-0.412-1.133-0.941-1.995-1.595-2.588c-0.601,0.151-1.142,0.227-1.623,0.227c-1.013,0-1.519-0.267-1.519-0.797
						c0-0.482,0.425-0.724,1.277-0.724c0.532,0,1.193,0.121,1.985,0.362c0.711-1.204,1.067-2.512,1.067-3.927
						c0-1.262-0.28-2.229-0.842-2.901c-0.552-0.672-1.273-1.008-2.167-1.008c-0.711,0-1.321,0.2-1.833,0.601
						c-0.501,0.401-0.847,0.884-1.038,1.444c-0.19,0.551-0.285,1.458-0.285,2.721V724.183"/>
				</g>
				<g id="layer1_16_" transform="translate(-256.6798,-531.7963)">
					<path id="text5540_16_" fill="#FFFFFF" stroke="#FFFFFF" stroke-width="0.6826" stroke-miterlimit="10" d="M558.537,733.281
						h-2.482c0.362-1.693,0.542-3.226,0.542-4.601v-16.377c0-1.703,0.149-2.972,0.452-3.805c0.31-0.831,0.906-1.563,1.788-2.194
						c0.893-0.644,2.005-0.964,3.339-0.964c1.585,0,2.913,0.42,3.984,1.263c1.083,0.833,1.626,2.021,1.626,3.565
						c0,1.804-0.858,3.282-2.572,4.436c2.555,1.203,3.835,3.093,3.835,5.67c0,1.403-0.342,2.662-1.023,3.773
						c-0.671,1.104-1.453,1.891-2.345,2.362c-0.884,0.471-1.94,0.707-3.173,0.707c-1.404,0-2.548-0.527-3.43-1.578v2.797
						C559.078,730.258,558.899,731.908,558.537,733.281 M559.078,724.183c0.782,1.293,1.876,1.94,3.279,1.94
						c1.353,0,2.345-0.492,2.977-1.474c0.632-0.993,0.947-2.195,0.947-3.608c0-1.084-0.211-2.187-0.632-3.309
						c-0.411-1.133-0.942-1.995-1.593-2.588c-0.604,0.151-1.144,0.227-1.625,0.227c-1.013,0-1.52-0.267-1.52-0.797
						c0-0.482,0.427-0.724,1.28-0.724c0.53,0,1.191,0.121,1.983,0.362c0.712-1.204,1.067-2.512,1.067-3.927
						c0-1.262-0.28-2.229-0.843-2.901c-0.55-0.672-1.273-1.008-2.164-1.008c-0.711,0-1.324,0.2-1.836,0.601
						c-0.499,0.401-0.848,0.884-1.037,1.444c-0.191,0.551-0.287,1.458-0.287,2.721v13.041"/>
				</g>
			</g>
		</g>
	</g>
</g>
<g>
	<path fill="none" d="M276.625,179.002"/>
</g>
<g>
	<path fill="none" d="M276.625,207.772"/>
</g>
</svg>
