<?xml version="1.0" encoding="utf-8"?>
<!-- Generator: Adobe Illustrator 16.0.0, SVG Export Plug-In . SVG Version: 6.00 Build 0)  -->
<!DOCTYPE svg PUBLIC "-//W3C//DTD SVG 1.1//EN" "http://www.w3.org/Graphics/SVG/1.1/DTD/svg11.dtd">
<svg version="1.1" id="Layer_1" xmlns="http://www.w3.org/2000/svg" xmlns:xlink="http://www.w3.org/1999/xlink" x="0px" y="0px"
	 width="451.158px" height="243.598px" viewBox="73.42 82.972 451.158 243.598"
	 enable-background="new 73.42 82.972 451.158 243.598" xml:space="preserve">
<g>
	
		<line fill="none" stroke="#171617" stroke-width="3" stroke-miterlimit="10" x1="466.527" y1="214.555" x2="524.578" y2="214.555"/>
	<g>
		<polygon fill="#171617" stroke="#000000" stroke-width="0.6159" stroke-miterlimit="10" points="475.191,212.582 475.191,216.531 
			468.773,217.531 457.768,217.531 457.768,211.582 468.773,211.582 		"/>
		
			<line fill="none" stroke="#000000" stroke-width="0.6159" stroke-miterlimit="10" x1="468.773" y1="211.582" x2="468.773" y2="217.531"/>
		
			<line fill="none" stroke="#000000" stroke-width="0.6159" stroke-miterlimit="10" x1="470.092" y1="211.787" x2="470.096" y2="217.325"/>
		
			<line fill="none" stroke="#000000" stroke-width="0.6159" stroke-miterlimit="10" x1="471.332" y1="211.98" x2="471.303" y2="217.137"/>
		
			<line fill="none" stroke="#000000" stroke-width="0.6159" stroke-miterlimit="10" x1="472.469" y1="212.158" x2="472.48" y2="216.953"/>
		
			<line fill="none" stroke="#000000" stroke-width="0.6159" stroke-miterlimit="10" x1="473.473" y1="212.314" x2="473.477" y2="216.799"/>
		
			<line fill="none" stroke="#000000" stroke-width="0.6159" stroke-miterlimit="10" x1="474.373" y1="212.429" x2="474.373" y2="216.675"/>
	</g>
</g>
<g>
	
		<line fill="none" stroke="#FFCE09" stroke-width="5" stroke-miterlimit="10" x1="466.527" y1="184.777" x2="524.578" y2="184.777"/>
	<g>
		<polygon fill="#FFCE09" stroke="#F89939" stroke-width="0.8388" stroke-miterlimit="10" points="465.754,181.053 465.754,188.5 
			461.496,189.5 455.572,189.5 455.572,180.053 461.58,180.053 		"/>
		<rect x="466.162" y="181.485" fill="#FFCE09" width="9.334" height="6.583"/>
		
			<line fill="none" stroke="#F89939" stroke-width="0.8388" stroke-miterlimit="10" x1="466.996" y1="180.889" x2="466.996" y2="188.556"/>
		
			<line fill="none" stroke="#F89939" stroke-width="0.8388" stroke-miterlimit="10" x1="467.996" y1="180.889" x2="467.996" y2="188.556"/>
		
			<line fill="none" stroke="#F89939" stroke-width="0.8388" stroke-miterlimit="10" x1="468.996" y1="180.889" x2="468.996" y2="188.556"/>
		
			<line fill="none" stroke="#F89939" stroke-width="0.8388" stroke-miterlimit="10" x1="469.996" y1="180.889" x2="469.996" y2="188.556"/>
		
			<line fill="none" stroke="#F89939" stroke-width="0.8388" stroke-miterlimit="10" x1="470.996" y1="180.889" x2="470.996" y2="188.556"/>
		
			<line fill="none" stroke="#F89939" stroke-width="0.8388" stroke-miterlimit="10" x1="471.996" y1="180.889" x2="471.996" y2="188.556"/>
		
			<line fill="none" stroke="#F89939" stroke-width="0.8388" stroke-miterlimit="10" x1="472.996" y1="180.889" x2="472.996" y2="188.556"/>
		
			<line fill="none" stroke="#F89939" stroke-width="0.8388" stroke-miterlimit="10" x1="473.996" y1="180.889" x2="473.996" y2="188.556"/>
	</g>
</g>
<g>
	<rect x="411.457" y="123.657" fill="#171617" stroke="#000000" stroke-miterlimit="10" width="34" height="22.667"/>
	<g>
		<path fill="#FFFFFF" d="M419.227,137.132v-6.237h4.213v1.179h-2.809v1.224h2.492v1.152h-2.492v1.503h3.016v1.179H419.227z"/>
		<path fill="#FFFFFF" d="M426.336,130.895c0.109,0.198,0.234,0.442,0.375,0.733s0.289,0.606,0.441,0.945
			c0.154,0.339,0.307,0.686,0.457,1.04s0.291,0.687,0.424,0.999c0.133-0.312,0.273-0.645,0.424-0.999s0.303-0.7,0.455-1.04
			c0.154-0.339,0.301-0.654,0.443-0.945c0.141-0.291,0.266-0.536,0.375-0.733h1.277c0.061,0.414,0.115,0.877,0.166,1.39
			c0.051,0.513,0.096,1.047,0.135,1.602c0.039,0.555,0.076,1.112,0.109,1.669c0.031,0.558,0.061,1.083,0.084,1.575h-1.367
			c-0.018-0.606-0.043-1.266-0.072-1.98s-0.074-1.434-0.135-2.16c-0.109,0.252-0.229,0.531-0.361,0.837
			c-0.133,0.306-0.264,0.612-0.393,0.918c-0.129,0.306-0.254,0.598-0.375,0.877c-0.119,0.279-0.223,0.517-0.307,0.715h-0.98
			c-0.084-0.198-0.188-0.437-0.307-0.715c-0.121-0.279-0.246-0.572-0.375-0.877c-0.131-0.306-0.262-0.612-0.393-0.918
			c-0.133-0.306-0.254-0.585-0.361-0.837c-0.061,0.726-0.105,1.446-0.135,2.16c-0.031,0.714-0.055,1.374-0.072,1.98H424.5
			c0.025-0.492,0.053-1.017,0.086-1.575c0.033-0.558,0.068-1.114,0.107-1.669c0.039-0.555,0.084-1.089,0.137-1.602
			c0.051-0.513,0.105-0.977,0.166-1.39H426.336z"/>
		<path fill="#FFFFFF" d="M435.598,137.258c-1.014,0-1.787-0.282-2.318-0.846c-0.531-0.563-0.795-1.365-0.795-2.403
			c0-0.516,0.08-0.977,0.242-1.381c0.162-0.405,0.385-0.747,0.666-1.026c0.281-0.279,0.617-0.491,1.008-0.635
			s0.813-0.216,1.27-0.216c0.264,0,0.504,0.02,0.719,0.059c0.217,0.039,0.406,0.084,0.568,0.135
			c0.162,0.051,0.297,0.104,0.404,0.158c0.107,0.054,0.186,0.096,0.234,0.126l-0.404,1.134c-0.193-0.102-0.416-0.189-0.672-0.261
			c-0.254-0.072-0.545-0.108-0.867-0.108c-0.217,0-0.428,0.036-0.635,0.108c-0.207,0.072-0.391,0.188-0.549,0.346
			c-0.16,0.159-0.287,0.365-0.383,0.617s-0.145,0.558-0.145,0.918c0,0.288,0.031,0.557,0.094,0.805
			c0.064,0.25,0.166,0.464,0.307,0.644c0.141,0.18,0.326,0.323,0.553,0.428c0.229,0.105,0.506,0.157,0.828,0.157
			c0.205,0,0.389-0.012,0.549-0.036c0.162-0.024,0.307-0.053,0.434-0.085c0.125-0.033,0.236-0.071,0.332-0.113
			s0.184-0.081,0.262-0.117l0.387,1.125c-0.197,0.12-0.477,0.228-0.838,0.324C436.488,137.21,436.072,137.258,435.598,137.258z"/>
	</g>
</g>
<g>
	<line fill="none" stroke="#996699" stroke-width="3" stroke-miterlimit="10" x1="401.09" y1="134.369" x2="401.09" y2="82.972"/>
	<g>
		<polygon fill="#996699" points="399.582,124.997 398.188,132.967 403.994,132.967 402.598,124.997 		"/>
		<polygon fill="#996699" stroke="#654566" stroke-width="0.75" stroke-miterlimit="10" points="397.723,146.395 404.459,146.395 
			404.459,134.996 403.994,132.967 398.188,132.967 397.723,134.996 		"/>
		<path fill="#FFCE0C" stroke="#F89939" stroke-width="0.5926" stroke-miterlimit="10" d="M397.723,134.883"/>
		
			<line fill="none" stroke="#654566" stroke-width="0.75" stroke-miterlimit="10" x1="403.994" y1="131.508" x2="398.18" y2="131.508"/>
		
			<line fill="none" stroke="#654566" stroke-width="0.75" stroke-miterlimit="10" x1="403.645" y1="130.008" x2="398.529" y2="130.008"/>
		
			<line fill="none" stroke="#654566" stroke-width="0.75" stroke-miterlimit="10" x1="403.295" y1="128.508" x2="398.877" y2="128.508"/>
		
			<line fill="none" stroke="#654566" stroke-width="0.75" stroke-miterlimit="10" x1="403.064" y1="127.008" x2="399.109" y2="127.008"/>
		<rect x="399.402" y="122.342" fill="#654566" width="3.342" height="3.486"/>
	</g>
</g>
<g>
	<g>
		<polygon fill="#6FC498" stroke="#579975" stroke-miterlimit="10" points="441.082,276.749 423.654,276.749 425.654,257.567 
			439.082,257.567 		"/>
		<g>
			<g>
				<g>
					<path fill="none" stroke="#579975" stroke-width="2" stroke-miterlimit="10" d="M441.926,287.172
						c-5.283,5.28-13.832,5.28-19.113,0"/>
					<path fill="none" stroke="#579975" stroke-width="2" stroke-miterlimit="10" d="M439.426,284.672
						c-3.9,3.899-10.213,3.899-14.115,0"/>
					<path fill="none" stroke="#579975" stroke-width="2" stroke-miterlimit="10" d="M436.5,281.979
						c-2.283,2.283-5.98,2.283-8.264,0"/>
				</g>
			</g>
		</g>
	</g>
	<g>
		<path fill="#FFFFFF" d="M429.066,269.69c0.041,0.137,0.084,0.291,0.133,0.462c0.049,0.172,0.1,0.35,0.154,0.533
			c0.055,0.183,0.111,0.366,0.168,0.55s0.111,0.354,0.164,0.51c0.045-0.17,0.088-0.354,0.133-0.555
			c0.047-0.2,0.088-0.407,0.129-0.62c0.041-0.214,0.08-0.426,0.117-0.638c0.039-0.212,0.076-0.416,0.109-0.612h0.811
			c-0.117,0.58-0.254,1.168-0.406,1.765s-0.316,1.163-0.494,1.7h-0.715c-0.115-0.32-0.229-0.656-0.338-1.008
			c-0.111-0.352-0.219-0.704-0.324-1.058c-0.107,0.354-0.215,0.706-0.322,1.058c-0.105,0.352-0.217,0.688-0.334,1.008h-0.713
			c-0.178-0.537-0.344-1.104-0.494-1.7c-0.152-0.597-0.287-1.185-0.404-1.765h0.844c0.033,0.196,0.07,0.4,0.111,0.612
			c0.039,0.212,0.082,0.424,0.125,0.638c0.043,0.213,0.088,0.42,0.133,0.62s0.092,0.385,0.139,0.555
			c0.061-0.163,0.119-0.337,0.176-0.52c0.057-0.184,0.111-0.367,0.164-0.551c0.055-0.183,0.104-0.359,0.148-0.529
			s0.086-0.322,0.123-0.455H429.066z"/>
		<path fill="#FFFFFF" d="M432.244,269.396c0,0.137-0.045,0.244-0.133,0.322s-0.193,0.117-0.313,0.117
			c-0.121,0-0.225-0.039-0.313-0.117s-0.133-0.186-0.133-0.322s0.045-0.244,0.133-0.323c0.088-0.078,0.191-0.117,0.313-0.117
			c0.119,0,0.225,0.039,0.313,0.117C432.199,269.151,432.244,269.259,432.244,269.396z M432.174,272.785h-0.746v-2.63h0.746V272.785
			z"/>
		<path fill="#FFFFFF" d="M432.648,270.955h1.449v0.675h-1.449V270.955z"/>
		<path fill="#FFFFFF" d="M434.623,272.785v-3.465h2.32v0.655h-1.539v0.725h1.369v0.655h-1.369v1.43H434.623z"/>
		<path fill="#FFFFFF" d="M438.258,269.396c0,0.137-0.043,0.244-0.131,0.322c-0.09,0.078-0.193,0.117-0.313,0.117
			c-0.121,0-0.225-0.039-0.313-0.117c-0.09-0.078-0.133-0.186-0.133-0.322s0.043-0.244,0.133-0.323
			c0.088-0.078,0.191-0.117,0.313-0.117c0.119,0,0.223,0.039,0.313,0.117C438.215,269.151,438.258,269.259,438.258,269.396z
			 M438.189,272.785h-0.746v-2.63h0.746V272.785z"/>
	</g>
</g>
<g>
	<g>
		<line fill="none" stroke="#EF3B68" stroke-width="5" stroke-miterlimit="10" x1="409.795" y1="326.57" x2="409.795" y2="268.35"/>
	</g>
	<g>
		<polygon fill="#EF3B68" points="406.553,274.793 403.553,266.822 416.037,266.822 413.037,274.793 		"/>
		<polygon fill="#EF3B68" stroke="#A61E2E" stroke-width="0.869" stroke-miterlimit="10" points="402.553,253.395 417.037,253.395 
			417.037,264.793 416.037,266.822 403.553,266.822 402.553,264.793 		"/>
		<path fill="#FFCE0C" stroke="#F89939" stroke-width="0.869" stroke-miterlimit="10" d="M402.553,264.906"/>
		
			<line fill="none" stroke="#A61E2E" stroke-width="0.8801" stroke-miterlimit="10" x1="416.037" y1="268.281" x2="403.537" y2="268.281"/>
		
			<line fill="none" stroke="#A61E2E" stroke-width="0.903" stroke-miterlimit="10" x1="415.287" y1="269.781" x2="404.287" y2="269.781"/>
		
			<line fill="none" stroke="#A61E2E" stroke-width="0.9361" stroke-miterlimit="10" x1="414.537" y1="271.281" x2="405.037" y2="271.281"/>
		
			<line fill="none" stroke="#A61E2E" stroke-width="0.8854" stroke-miterlimit="10" x1="414.037" y1="272.781" x2="405.537" y2="272.781"/>
		<rect x="406.164" y="273.961" fill="#A61E2E" width="7.186" height="3.486"/>
	</g>
</g>
<g>
	<g>
		
			<rect x="381.576" y="151.704" fill="#FFFFFF" stroke="#996699" stroke-width="0.4404" stroke-miterlimit="10" width="77.064" height="98.72"/>
		
			<rect x="385.982" y="253.09" fill="#FFFFFF" stroke="#996699" stroke-width="0.4404" stroke-miterlimit="10" width="67.941" height="5.537"/>
		
			<rect x="385.982" y="143.627" fill="#FFFFFF" stroke="#996699" stroke-width="0.4404" stroke-miterlimit="10" width="67.941" height="5.536"/>
		
			<line fill="none" stroke="#996699" stroke-width="4.4148" stroke-miterlimit="10" x1="380.078" y1="149.474" x2="459.924" y2="149.474"/>
		
			<line fill="none" stroke="#996699" stroke-width="4.4148" stroke-miterlimit="10" x1="380.078" y1="252.655" x2="459.924" y2="252.655"/>
		<g>
			<path d="M408.986,233.135c-0.43,0-0.857-0.014-1.285-0.039c-0.426-0.027-0.869-0.09-1.33-0.188v-7.609
				c0.363-0.068,0.76-0.119,1.189-0.153s0.83-0.051,1.199-0.051c0.5,0,0.957,0.036,1.377,0.107c0.418,0.071,0.779,0.194,1.082,0.368
				c0.301,0.174,0.537,0.402,0.707,0.686s0.254,0.632,0.254,1.047c0,0.627-0.301,1.121-0.904,1.483
				c0.498,0.188,0.838,0.446,1.018,0.771c0.182,0.324,0.271,0.69,0.271,1.098c0,0.823-0.299,1.442-0.898,1.857
				C411.064,232.928,410.172,233.135,408.986,233.135z M408.092,228.266h0.861c0.543,0,0.932-0.07,1.166-0.209
				c0.234-0.141,0.352-0.365,0.352-0.674c0-0.318-0.121-0.541-0.363-0.669c-0.24-0.128-0.596-0.192-1.064-0.192
				c-0.15,0-0.313,0.002-0.486,0.006s-0.328,0.014-0.465,0.028V228.266z M408.092,229.613v2.026c0.129,0.016,0.268,0.026,0.42,0.034
				c0.15,0.008,0.316,0.012,0.498,0.012c0.527,0,0.955-0.076,1.279-0.227c0.324-0.151,0.486-0.431,0.486-0.838
				c0-0.363-0.135-0.621-0.406-0.775c-0.271-0.155-0.662-0.232-1.166-0.232H408.092z"/>
			<path d="M413.98,233.033v-7.848h5.299v1.483h-3.531v1.54h3.137v1.449h-3.137v1.891h3.793v1.484H413.98z"/>
			<path d="M426.664,225.186v1.506h-2.367v6.342h-1.768v-6.342h-2.365v-1.506H426.664z"/>
			<path d="M432.133,233.033c-0.088-0.273-0.182-0.553-0.283-0.84c-0.1-0.288-0.199-0.574-0.299-0.859h-3.066
				c-0.098,0.287-0.197,0.573-0.297,0.861c-0.1,0.287-0.193,0.566-0.279,0.838h-1.834c0.295-0.846,0.576-1.627,0.842-2.345
				c0.264-0.717,0.523-1.393,0.777-2.026c0.254-0.635,0.504-1.236,0.75-1.807s0.502-1.127,0.766-1.67h1.676
				c0.258,0.543,0.512,1.1,0.762,1.67s0.502,1.172,0.756,1.807c0.254,0.634,0.514,1.31,0.779,2.026
				c0.266,0.718,0.547,1.499,0.842,2.345H432.133z M430.01,226.963c-0.039,0.114-0.098,0.27-0.174,0.465
				c-0.076,0.197-0.162,0.424-0.258,0.681c-0.098,0.257-0.207,0.54-0.326,0.849c-0.119,0.31-0.242,0.634-0.365,0.973h2.244
				c-0.119-0.34-0.236-0.665-0.35-0.975c-0.111-0.311-0.219-0.594-0.32-0.852c-0.102-0.257-0.189-0.483-0.266-0.68
				C430.119,227.229,430.057,227.074,430.01,226.963z"/>
		</g>
		<rect x="383.912" y="192.351" fill="#996699" width="2.83" height="15.13"/>
		<rect x="453.742" y="192.351" fill="#996699" width="2.83" height="15.13"/>
	</g>
	<g>
		<polygon fill="#010101" points="442.484,205.938 419.801,219.591 397.117,205.938 397.117,178.634 419.801,164.981 
			442.484,178.634 		"/>
		<g>
			<g id="layer1_30_" transform="translate(-256.6798,-531.7963)">
				<path id="text5540_30_" fill="#6E1944" stroke="#6E1944" stroke-width="0.6826" stroke-miterlimit="10" d="M667.393,738.052
					h-2.48c0.361-1.693,0.541-3.227,0.541-4.602v-16.377c0-1.703,0.148-2.972,0.451-3.805c0.311-0.831,0.908-1.563,1.789-2.194
					c0.893-0.644,2.004-0.964,3.34-0.964c1.584,0,2.912,0.42,3.984,1.263c1.082,0.833,1.623,2.021,1.623,3.565
					c0,1.804-0.855,3.282-2.57,4.436c2.557,1.203,3.834,3.093,3.834,5.67c0,1.403-0.34,2.662-1.021,3.773
					c-0.674,1.104-1.453,1.891-2.348,2.362c-0.881,0.471-1.939,0.706-3.172,0.706c-1.404,0-2.547-0.526-3.43-1.578v2.797
					C667.934,735.03,667.754,736.679,667.393,738.052 M667.934,728.955c0.781,1.293,1.875,1.94,3.277,1.94
					c1.354,0,2.348-0.492,2.979-1.475c0.631-0.993,0.947-2.195,0.947-3.608c0-1.084-0.211-2.187-0.631-3.309
					c-0.412-1.133-0.943-1.995-1.596-2.588c-0.602,0.151-1.143,0.227-1.623,0.227c-1.014,0-1.521-0.267-1.521-0.797
					c0-0.482,0.428-0.724,1.281-0.724c0.531,0,1.191,0.121,1.984,0.362c0.713-1.204,1.068-2.512,1.068-3.927
					c0-1.262-0.281-2.229-0.844-2.901c-0.551-0.672-1.273-1.008-2.164-1.008c-0.713,0-1.326,0.2-1.836,0.601
					c-0.5,0.401-0.848,0.884-1.037,1.444c-0.191,0.551-0.287,1.458-0.287,2.721v13.041"/>
			</g>
			<g id="layer1_29_" transform="translate(-256.6798,-531.7963)">
				<path id="text5540_29_" fill="#8E2965" stroke="#8E2965" stroke-width="0.6826" stroke-miterlimit="10" d="M669.928,738.052
					h-2.48c0.361-1.693,0.541-3.227,0.541-4.602v-16.377c0-1.703,0.15-2.972,0.451-3.805c0.311-0.831,0.908-1.563,1.791-2.194
					c0.891-0.644,2.006-0.964,3.338-0.964c1.584,0,2.912,0.42,3.986,1.263c1.082,0.833,1.625,2.021,1.625,3.565
					c0,1.804-0.859,3.282-2.572,4.436c2.557,1.203,3.834,3.093,3.834,5.67c0,1.403-0.338,2.662-1.021,3.773
					c-0.674,1.104-1.453,1.891-2.348,2.362c-0.881,0.471-1.938,0.706-3.172,0.706c-1.404,0-2.545-0.526-3.428-1.578v2.797
					C670.471,735.03,670.289,736.679,669.928,738.052 M670.471,728.955c0.781,1.293,1.875,1.94,3.275,1.94
					c1.355,0,2.348-0.492,2.98-1.475c0.631-0.993,0.947-2.195,0.947-3.608c0-1.084-0.211-2.187-0.633-3.309
					c-0.412-1.133-0.941-1.995-1.594-2.588c-0.602,0.151-1.143,0.227-1.625,0.227c-1.01,0-1.518-0.267-1.518-0.797
					c0-0.482,0.426-0.724,1.277-0.724c0.533,0,1.193,0.121,1.984,0.362c0.713-1.204,1.068-2.512,1.068-3.927
					c0-1.262-0.281-2.229-0.842-2.901c-0.553-0.672-1.273-1.008-2.166-1.008c-0.711,0-1.322,0.2-1.834,0.601
					c-0.502,0.401-0.848,0.884-1.039,1.444c-0.189,0.551-0.285,1.458-0.285,2.721v13.041"/>
			</g>
			<g id="layer1_28_" transform="translate(-256.6798,-531.7963)">
				<path id="text5540_28_" fill="#C15F94" stroke="#C15F94" stroke-width="0.6826" stroke-miterlimit="10" d="M672.465,738.052
					h-2.482c0.363-1.693,0.543-3.227,0.543-4.602v-16.377c0-1.703,0.148-2.972,0.451-3.805c0.311-0.831,0.906-1.563,1.789-2.194
					c0.893-0.644,2.006-0.964,3.338-0.964c1.584,0,2.914,0.42,3.986,1.263c1.084,0.833,1.625,2.021,1.625,3.565
					c0,1.804-0.857,3.282-2.57,4.436c2.555,1.203,3.834,3.093,3.834,5.67c0,1.403-0.342,2.662-1.023,3.773
					c-0.67,1.104-1.453,1.891-2.346,2.362c-0.883,0.471-1.939,0.706-3.174,0.706c-1.402,0-2.547-0.526-3.428-1.578v2.797
					C673.006,735.03,672.826,736.679,672.465,738.052 M673.006,728.955c0.781,1.293,1.875,1.94,3.277,1.94
					c1.354,0,2.348-0.492,2.979-1.475c0.633-0.993,0.947-2.195,0.947-3.608c0-1.084-0.211-2.187-0.631-3.309
					c-0.414-1.133-0.943-1.995-1.596-2.588c-0.602,0.151-1.143,0.227-1.623,0.227c-1.012,0-1.52-0.267-1.52-0.797
					c0-0.482,0.426-0.724,1.277-0.724c0.533,0,1.193,0.121,1.986,0.362c0.711-1.204,1.066-2.512,1.066-3.927
					c0-1.262-0.279-2.229-0.842-2.901c-0.551-0.672-1.273-1.008-2.166-1.008c-0.711,0-1.324,0.2-1.834,0.601
					c-0.502,0.401-0.848,0.884-1.037,1.444c-0.191,0.551-0.287,1.458-0.287,2.721v13.041"/>
			</g>
			<g id="layer1_27_" transform="translate(-256.6798,-531.7963)">
				<path id="text5540_27_" fill="#D380B1" stroke="#D380B1" stroke-width="0.6826" stroke-miterlimit="10" d="M674.885,738.052
					h-2.482c0.361-1.693,0.541-3.227,0.541-4.602v-16.377c0-1.703,0.15-2.972,0.451-3.805c0.311-0.831,0.908-1.563,1.789-2.194
					c0.893-0.644,2.006-0.964,3.34-0.964c1.584,0,2.912,0.42,3.984,1.263c1.084,0.833,1.625,2.021,1.625,3.565
					c0,1.804-0.857,3.282-2.572,4.436c2.557,1.203,3.836,3.093,3.836,5.67c0,1.403-0.342,2.662-1.023,3.773
					c-0.67,1.104-1.453,1.891-2.348,2.362c-0.881,0.471-1.938,0.706-3.172,0.706c-1.404,0-2.545-0.526-3.428-1.578v2.797
					C675.426,735.03,675.244,736.679,674.885,738.052 M675.426,728.955c0.781,1.293,1.873,1.94,3.277,1.94
					c1.354,0,2.348-0.492,2.979-1.475c0.631-0.993,0.947-2.195,0.947-3.608c0-1.084-0.213-2.187-0.633-3.309
					c-0.412-1.133-0.941-1.995-1.594-2.588c-0.602,0.151-1.143,0.227-1.623,0.227c-1.014,0-1.52-0.267-1.52-0.797
					c0-0.482,0.426-0.724,1.277-0.724c0.533,0,1.193,0.121,1.986,0.362c0.711-1.204,1.066-2.512,1.066-3.927
					c0-1.262-0.279-2.229-0.842-2.901c-0.551-0.672-1.273-1.008-2.166-1.008c-0.711,0-1.322,0.2-1.834,0.601
					c-0.5,0.401-0.846,0.884-1.037,1.444c-0.191,0.551-0.285,1.458-0.285,2.721V728.955"/>
			</g>
			<g id="layer1_26_" transform="translate(-256.6798,-531.7963)">
				<path id="text5540_26_" fill="#FFFFFF" stroke="#FFFFFF" stroke-width="0.6826" stroke-miterlimit="10" d="M677.537,738.052
					h-2.482c0.361-1.693,0.541-3.227,0.541-4.602v-16.377c0-1.703,0.15-2.972,0.453-3.805c0.309-0.831,0.906-1.563,1.787-2.194
					c0.893-0.644,2.006-0.964,3.34-0.964c1.584,0,2.912,0.42,3.984,1.263c1.082,0.833,1.625,2.021,1.625,3.565
					c0,1.804-0.857,3.282-2.572,4.436c2.555,1.203,3.836,3.093,3.836,5.67c0,1.403-0.342,2.662-1.023,3.773
					c-0.672,1.104-1.453,1.891-2.346,2.362c-0.883,0.471-1.939,0.706-3.172,0.706c-1.404,0-2.549-0.526-3.43-1.578v2.797
					C678.078,735.03,677.899,736.679,677.537,738.052 M678.078,728.955c0.781,1.293,1.875,1.94,3.279,1.94
					c1.352,0,2.344-0.492,2.977-1.475c0.631-0.993,0.947-2.195,0.947-3.608c0-1.084-0.211-2.187-0.633-3.309
					c-0.41-1.133-0.941-1.995-1.592-2.588c-0.604,0.151-1.145,0.227-1.625,0.227c-1.014,0-1.52-0.267-1.52-0.797
					c0-0.482,0.426-0.724,1.279-0.724c0.531,0,1.191,0.121,1.984,0.362c0.711-1.204,1.066-2.512,1.066-3.927
					c0-1.262-0.279-2.229-0.842-2.901c-0.551-0.672-1.273-1.008-2.164-1.008c-0.711,0-1.324,0.2-1.836,0.601
					c-0.5,0.401-0.848,0.884-1.037,1.444c-0.191,0.551-0.287,1.458-0.287,2.721v13.041"/>
			</g>
		</g>
	</g>
</g>
<g>
	<rect x="291.457" y="123.657" fill="#171617" stroke="#000000" stroke-miterlimit="10" width="34" height="22.667"/>
	<g>
		<path fill="#FFFFFF" d="M299.226,137.132v-6.237h4.213v1.179h-2.809v1.224h2.492v1.152h-2.492v1.503h3.016v1.179H299.226z"/>
		<path fill="#FFFFFF" d="M306.336,130.895c0.109,0.198,0.234,0.442,0.375,0.733s0.289,0.606,0.441,0.945
			c0.154,0.339,0.307,0.686,0.457,1.04s0.291,0.687,0.424,0.999c0.133-0.312,0.273-0.645,0.424-0.999s0.303-0.7,0.455-1.04
			c0.154-0.339,0.301-0.654,0.443-0.945c0.141-0.291,0.266-0.536,0.375-0.733h1.277c0.061,0.414,0.115,0.877,0.166,1.39
			c0.051,0.513,0.096,1.047,0.135,1.602c0.039,0.555,0.076,1.112,0.109,1.669c0.031,0.558,0.061,1.083,0.084,1.575h-1.367
			c-0.018-0.606-0.043-1.266-0.072-1.98s-0.074-1.434-0.135-2.16c-0.109,0.252-0.229,0.531-0.361,0.837
			c-0.133,0.306-0.264,0.612-0.393,0.918c-0.129,0.306-0.254,0.598-0.375,0.877c-0.119,0.279-0.223,0.517-0.307,0.715h-0.98
			c-0.084-0.198-0.188-0.437-0.307-0.715c-0.121-0.279-0.246-0.572-0.375-0.877c-0.131-0.306-0.262-0.612-0.393-0.918
			c-0.133-0.306-0.254-0.585-0.361-0.837c-0.061,0.726-0.105,1.446-0.135,2.16c-0.031,0.714-0.055,1.374-0.072,1.98H304.5
			c0.025-0.492,0.053-1.017,0.086-1.575c0.033-0.558,0.068-1.114,0.107-1.669c0.039-0.555,0.084-1.089,0.137-1.602
			c0.051-0.513,0.105-0.977,0.166-1.39H306.336z"/>
		<path fill="#FFFFFF" d="M315.598,137.258c-1.014,0-1.787-0.282-2.318-0.846c-0.531-0.563-0.795-1.365-0.795-2.403
			c0-0.516,0.08-0.977,0.242-1.381c0.162-0.405,0.385-0.747,0.666-1.026c0.281-0.279,0.617-0.491,1.008-0.635
			s0.813-0.216,1.27-0.216c0.264,0,0.504,0.02,0.719,0.059c0.217,0.039,0.406,0.084,0.568,0.135
			c0.162,0.051,0.297,0.104,0.404,0.158c0.107,0.054,0.186,0.096,0.234,0.126l-0.404,1.134c-0.193-0.102-0.416-0.189-0.672-0.261
			c-0.254-0.072-0.545-0.108-0.867-0.108c-0.217,0-0.428,0.036-0.635,0.108c-0.207,0.072-0.391,0.188-0.549,0.346
			c-0.16,0.159-0.287,0.365-0.383,0.617s-0.145,0.558-0.145,0.918c0,0.288,0.031,0.557,0.094,0.805
			c0.064,0.25,0.166,0.464,0.307,0.644c0.141,0.18,0.326,0.323,0.553,0.428c0.229,0.105,0.506,0.157,0.828,0.157
			c0.205,0,0.389-0.012,0.549-0.036c0.162-0.024,0.307-0.053,0.434-0.085c0.125-0.033,0.236-0.071,0.332-0.113
			s0.184-0.081,0.262-0.117l0.387,1.125c-0.197,0.12-0.477,0.228-0.838,0.324C316.488,137.21,316.072,137.258,315.598,137.258z"/>
	</g>
</g>
<g>
	<line fill="none" stroke="#996699" stroke-width="3" stroke-miterlimit="10" x1="281.09" y1="134.369" x2="281.09" y2="82.972"/>
	<g>
		<polygon fill="#996699" points="279.583,124.997 278.187,132.967 283.994,132.967 282.598,124.997 		"/>
		<polygon fill="#996699" stroke="#654566" stroke-width="0.75" stroke-miterlimit="10" points="277.722,146.395 284.458,146.395 
			284.458,134.996 283.994,132.967 278.187,132.967 277.722,134.996 		"/>
		<path fill="#FFCE0C" stroke="#F89939" stroke-width="0.5926" stroke-miterlimit="10" d="M277.722,134.883"/>
		
			<line fill="none" stroke="#654566" stroke-width="0.75" stroke-miterlimit="10" x1="283.994" y1="131.508" x2="278.179" y2="131.508"/>
		
			<line fill="none" stroke="#654566" stroke-width="0.75" stroke-miterlimit="10" x1="283.644" y1="130.008" x2="278.529" y2="130.008"/>
		
			<line fill="none" stroke="#654566" stroke-width="0.75" stroke-miterlimit="10" x1="283.295" y1="128.508" x2="278.877" y2="128.508"/>
		
			<line fill="none" stroke="#654566" stroke-width="0.75" stroke-miterlimit="10" x1="283.064" y1="127.008" x2="279.11" y2="127.008"/>
		<rect x="279.402" y="122.342" fill="#654566" width="3.342" height="3.486"/>
	</g>
</g>
<g>
	<g>
		<polygon fill="#6FC498" stroke="#579975" stroke-miterlimit="10" points="321.082,276.749 303.654,276.749 305.654,257.567 
			319.082,257.567 		"/>
		<g>
			<g>
				<g>
					<path fill="none" stroke="#579975" stroke-width="2" stroke-miterlimit="10" d="M321.926,287.172
						c-5.283,5.28-13.832,5.28-19.113,0"/>
					<path fill="none" stroke="#579975" stroke-width="2" stroke-miterlimit="10" d="M319.426,284.672
						c-3.9,3.899-10.213,3.899-14.115,0"/>
					<path fill="none" stroke="#579975" stroke-width="2" stroke-miterlimit="10" d="M316.5,281.98c-2.283,2.283-5.98,2.283-8.264,0
						"/>
				</g>
			</g>
		</g>
	</g>
	<g>
		<path fill="#FFFFFF" d="M309.066,269.69c0.041,0.137,0.084,0.291,0.133,0.462c0.049,0.172,0.1,0.35,0.154,0.533
			c0.055,0.183,0.111,0.366,0.168,0.55s0.111,0.354,0.164,0.51c0.045-0.17,0.088-0.354,0.133-0.555
			c0.047-0.2,0.088-0.407,0.129-0.62c0.041-0.214,0.08-0.426,0.117-0.638c0.039-0.212,0.076-0.416,0.109-0.612h0.811
			c-0.117,0.58-0.254,1.168-0.406,1.765s-0.316,1.163-0.494,1.7h-0.715c-0.115-0.32-0.229-0.656-0.338-1.008
			c-0.111-0.352-0.219-0.704-0.324-1.058c-0.107,0.354-0.215,0.706-0.322,1.058c-0.105,0.352-0.217,0.688-0.334,1.008h-0.713
			c-0.178-0.537-0.344-1.104-0.494-1.7c-0.152-0.597-0.287-1.185-0.404-1.765h0.844c0.033,0.196,0.07,0.4,0.111,0.612
			c0.039,0.212,0.082,0.424,0.125,0.638c0.043,0.213,0.088,0.42,0.133,0.62s0.092,0.385,0.139,0.555
			c0.061-0.163,0.119-0.337,0.176-0.52c0.057-0.184,0.111-0.367,0.164-0.551c0.055-0.183,0.104-0.359,0.148-0.529
			s0.086-0.322,0.123-0.455H309.066z"/>
		<path fill="#FFFFFF" d="M312.244,269.396c0,0.137-0.045,0.244-0.133,0.322s-0.193,0.117-0.313,0.117
			c-0.121,0-0.225-0.039-0.313-0.117s-0.133-0.186-0.133-0.322s0.045-0.244,0.133-0.323c0.088-0.078,0.191-0.117,0.313-0.117
			c0.119,0,0.225,0.039,0.313,0.117C312.199,269.151,312.244,269.259,312.244,269.396z M312.174,272.785h-0.746v-2.63h0.746V272.785
			z"/>
		<path fill="#FFFFFF" d="M312.648,270.955h1.449v0.675h-1.449V270.955z"/>
		<path fill="#FFFFFF" d="M314.623,272.785v-3.465h2.32v0.655h-1.539v0.725h1.369v0.655h-1.369v1.43H314.623z"/>
		<path fill="#FFFFFF" d="M318.258,269.396c0,0.137-0.043,0.244-0.131,0.322c-0.09,0.078-0.193,0.117-0.313,0.117
			c-0.121,0-0.225-0.039-0.313-0.117c-0.09-0.078-0.133-0.186-0.133-0.322s0.043-0.244,0.133-0.323
			c0.088-0.078,0.191-0.117,0.313-0.117c0.119,0,0.223,0.039,0.313,0.117C318.215,269.151,318.258,269.259,318.258,269.396z
			 M318.189,272.785h-0.746v-2.63h0.746V272.785z"/>
	</g>
</g>
<g>
	<g>
		<line fill="none" stroke="#EF3B68" stroke-width="5" stroke-miterlimit="10" x1="289.794" y1="326.57" x2="289.794" y2="268.35"/>
	</g>
	<g>
		<polygon fill="#EF3B68" points="286.552,274.793 283.552,266.822 296.037,266.822 293.037,274.793 		"/>
		<polygon fill="#EF3B68" stroke="#A61E2E" stroke-width="0.869" stroke-miterlimit="10" points="282.552,253.395 297.037,253.395 
			297.037,264.793 296.037,266.822 283.552,266.822 282.552,264.793 		"/>
		<path fill="#FFCE0C" stroke="#F89939" stroke-width="0.869" stroke-miterlimit="10" d="M282.552,264.906"/>
		
			<line fill="none" stroke="#A61E2E" stroke-width="0.8801" stroke-miterlimit="10" x1="296.037" y1="268.281" x2="283.537" y2="268.281"/>
		
			<line fill="none" stroke="#A61E2E" stroke-width="0.903" stroke-miterlimit="10" x1="295.287" y1="269.781" x2="284.287" y2="269.781"/>
		
			<line fill="none" stroke="#A61E2E" stroke-width="0.9361" stroke-miterlimit="10" x1="294.537" y1="271.281" x2="285.037" y2="271.281"/>
		
			<line fill="none" stroke="#A61E2E" stroke-width="0.8854" stroke-miterlimit="10" x1="294.037" y1="272.781" x2="285.537" y2="272.781"/>
		<rect x="286.164" y="273.961" fill="#A61E2E" width="7.186" height="3.486"/>
	</g>
</g>
<g>
	<g>
		
			<rect x="261.576" y="151.704" fill="#FFFFFF" stroke="#996699" stroke-width="0.4404" stroke-miterlimit="10" width="77.065" height="98.72"/>
		
			<rect x="265.982" y="253.09" fill="#FFFFFF" stroke="#996699" stroke-width="0.4404" stroke-miterlimit="10" width="67.942" height="5.537"/>
		
			<rect x="265.982" y="143.627" fill="#FFFFFF" stroke="#996699" stroke-width="0.4404" stroke-miterlimit="10" width="67.942" height="5.536"/>
		
			<line fill="none" stroke="#996699" stroke-width="4.4148" stroke-miterlimit="10" x1="260.078" y1="149.474" x2="339.924" y2="149.474"/>
		
			<line fill="none" stroke="#996699" stroke-width="4.4148" stroke-miterlimit="10" x1="260.078" y1="252.655" x2="339.924" y2="252.655"/>
		<g>
			<path d="M288.986,233.135c-0.43,0-0.857-0.014-1.285-0.039c-0.426-0.027-0.869-0.09-1.33-0.188v-7.609
				c0.363-0.068,0.76-0.119,1.189-0.153s0.83-0.051,1.199-0.051c0.5,0,0.957,0.036,1.377,0.107c0.418,0.071,0.779,0.194,1.082,0.368
				c0.301,0.174,0.537,0.402,0.707,0.686s0.254,0.632,0.254,1.047c0,0.627-0.301,1.121-0.904,1.483
				c0.498,0.188,0.838,0.446,1.018,0.771c0.182,0.324,0.271,0.69,0.271,1.098c0,0.823-0.299,1.442-0.898,1.857
				C291.064,232.928,290.171,233.135,288.986,233.135z M288.091,228.266h0.861c0.543,0,0.932-0.07,1.166-0.209
				c0.234-0.141,0.352-0.365,0.352-0.674c0-0.318-0.121-0.541-0.363-0.669c-0.24-0.128-0.596-0.192-1.064-0.192
				c-0.15,0-0.313,0.002-0.486,0.006s-0.328,0.014-0.465,0.028V228.266z M288.091,229.613v2.026c0.129,0.016,0.268,0.026,0.42,0.034
				c0.15,0.008,0.316,0.012,0.498,0.012c0.527,0,0.955-0.076,1.279-0.227c0.324-0.151,0.486-0.431,0.486-0.838
				c0-0.363-0.135-0.621-0.406-0.775c-0.271-0.155-0.662-0.232-1.166-0.232H288.091z"/>
			<path d="M293.98,233.033v-7.848h5.299v1.483h-3.531v1.54h3.137v1.449h-3.137v1.891h3.793v1.484H293.98z"/>
			<path d="M306.664,225.186v1.506h-2.367v6.342h-1.768v-6.342h-2.366v-1.506H306.664z"/>
			<path d="M312.133,233.033c-0.088-0.273-0.182-0.553-0.283-0.84c-0.1-0.288-0.199-0.574-0.299-0.859h-3.066
				c-0.098,0.287-0.197,0.573-0.297,0.861c-0.1,0.287-0.193,0.566-0.279,0.838h-1.834c0.295-0.846,0.576-1.627,0.842-2.345
				c0.264-0.717,0.523-1.393,0.777-2.026c0.254-0.635,0.504-1.236,0.75-1.807s0.502-1.127,0.766-1.67h1.676
				c0.258,0.543,0.512,1.1,0.762,1.67s0.502,1.172,0.756,1.807c0.254,0.634,0.514,1.31,0.779,2.026
				c0.266,0.718,0.547,1.499,0.842,2.345H312.133z M310.01,226.963c-0.039,0.114-0.098,0.27-0.174,0.465
				c-0.076,0.197-0.162,0.424-0.258,0.681c-0.098,0.257-0.207,0.54-0.326,0.849c-0.119,0.31-0.242,0.634-0.365,0.973h2.244
				c-0.119-0.34-0.236-0.665-0.35-0.975c-0.111-0.311-0.219-0.594-0.32-0.852c-0.102-0.257-0.189-0.483-0.266-0.68
				C310.119,227.229,310.057,227.074,310.01,226.963z"/>
		</g>
		<rect x="263.912" y="192.351" fill="#996699" width="2.83" height="15.13"/>
		<rect x="333.742" y="192.351" fill="#996699" width="2.83" height="15.13"/>
	</g>
	<g>
		<polygon fill="#010101" points="322.484,205.939 299.8,219.591 277.117,205.939 277.117,178.634 299.8,164.982 322.484,178.634 		
			"/>
		<g>
			<g id="layer1_25_" transform="translate(-256.6798,-531.7963)">
				<path id="text5540_25_" fill="#6E1944" stroke="#6E1944" stroke-width="0.6826" stroke-miterlimit="10" d="M547.392,738.052
					h-2.48c0.361-1.693,0.542-3.227,0.542-4.602v-16.377c0-1.703,0.148-2.972,0.45-3.805c0.312-0.831,0.908-1.563,1.79-2.194
					c0.892-0.644,2.004-0.964,3.339-0.964c1.584,0,2.912,0.42,3.984,1.263c1.083,0.833,1.624,2.021,1.624,3.565
					c0,1.804-0.856,3.282-2.571,4.436c2.557,1.203,3.834,3.093,3.834,5.67c0,1.403-0.34,2.662-1.022,3.773
					c-0.673,1.104-1.453,1.891-2.347,2.362c-0.882,0.471-1.939,0.706-3.173,0.706c-1.404,0-2.547-0.526-3.429-1.578v2.797
					C547.933,735.03,547.754,736.679,547.392,738.052 M547.933,728.955c0.782,1.293,1.876,1.94,3.278,1.94
					c1.353,0,2.348-0.492,2.978-1.475c0.631-0.993,0.947-2.195,0.947-3.608c0-1.084-0.211-2.187-0.631-3.309
					c-0.412-1.133-0.943-1.995-1.595-2.588c-0.602,0.151-1.144,0.227-1.623,0.227c-1.014,0-1.521-0.267-1.521-0.797
					c0-0.482,0.427-0.724,1.28-0.724c0.531,0,1.192,0.121,1.985,0.362c0.712-1.204,1.067-2.512,1.067-3.927
					c0-1.262-0.281-2.229-0.843-2.901c-0.551-0.672-1.273-1.008-2.165-1.008c-0.712,0-1.325,0.2-1.835,0.601
					c-0.501,0.401-0.848,0.884-1.038,1.444c-0.19,0.551-0.286,1.458-0.286,2.721L547.933,728.955"/>
			</g>
			<g id="layer1_24_" transform="translate(-256.6798,-531.7963)">
				<path id="text5540_24_" fill="#8E2965" stroke="#8E2965" stroke-width="0.6826" stroke-miterlimit="10" d="M549.927,738.052
					h-2.479c0.361-1.693,0.541-3.227,0.541-4.602v-16.377c0-1.703,0.149-2.972,0.451-3.805c0.311-0.831,0.907-1.563,1.79-2.194
					c0.892-0.644,2.006-0.964,3.338-0.964c1.585,0,2.912,0.42,3.987,1.263c1.082,0.833,1.625,2.021,1.625,3.565
					c0,1.804-0.859,3.282-2.572,4.436c2.556,1.203,3.833,3.093,3.833,5.67c0,1.403-0.338,2.662-1.021,3.773
					c-0.674,1.104-1.453,1.891-2.347,2.362c-0.882,0.471-1.938,0.706-3.172,0.706c-1.404,0-2.546-0.526-3.429-1.578v2.797
					C550.47,735.03,550.29,736.679,549.927,738.052 M550.47,728.955c0.781,1.293,1.875,1.94,3.276,1.94
					c1.354,0,2.348-0.492,2.979-1.475c0.631-0.993,0.948-2.195,0.948-3.608c0-1.084-0.211-2.187-0.632-3.309
					c-0.412-1.133-0.941-1.995-1.595-2.588c-0.602,0.151-1.143,0.227-1.624,0.227c-1.011,0-1.519-0.267-1.519-0.797
					c0-0.482,0.426-0.724,1.277-0.724c0.533,0,1.194,0.121,1.985,0.362c0.712-1.204,1.067-2.512,1.067-3.927
					c0-1.262-0.28-2.229-0.841-2.901c-0.553-0.672-1.274-1.008-2.166-1.008c-0.712,0-1.323,0.2-1.835,0.601
					c-0.502,0.401-0.848,0.884-1.038,1.444c-0.19,0.551-0.285,1.458-0.285,2.721L550.47,728.955"/>
			</g>
			<g id="layer1_23_" transform="translate(-256.6798,-531.7963)">
				<path id="text5540_23_" fill="#C15F94" stroke="#C15F94" stroke-width="0.6826" stroke-miterlimit="10" d="M552.465,738.052
					h-2.482c0.362-1.693,0.542-3.227,0.542-4.602v-16.377c0-1.703,0.149-2.972,0.452-3.805c0.31-0.831,0.906-1.563,1.788-2.194
					c0.893-0.644,2.006-0.964,3.339-0.964c1.583,0,2.914,0.42,3.986,1.263c1.084,0.833,1.625,2.021,1.625,3.565
					c0,1.804-0.857,3.282-2.57,4.436c2.555,1.203,3.834,3.093,3.834,5.67c0,1.403-0.342,2.662-1.023,3.773
					c-0.67,1.104-1.453,1.891-2.346,2.362c-0.883,0.471-1.939,0.706-3.174,0.706c-1.402,0-2.546-0.526-3.427-1.578v2.797
					C553.006,735.03,552.826,736.679,552.465,738.052 M553.006,728.955c0.781,1.293,1.874,1.94,3.277,1.94
					c1.353,0,2.347-0.492,2.978-1.475c0.633-0.993,0.947-2.195,0.947-3.608c0-1.084-0.211-2.187-0.631-3.309
					c-0.414-1.133-0.943-1.995-1.596-2.588c-0.602,0.151-1.143,0.227-1.624,0.227c-1.012,0-1.52-0.267-1.52-0.797
					c0-0.482,0.427-0.724,1.278-0.724c0.533,0,1.193,0.121,1.986,0.362c0.711-1.204,1.066-2.512,1.066-3.927
					c0-1.262-0.279-2.229-0.842-2.901c-0.551-0.672-1.274-1.008-2.167-1.008c-0.71,0-1.324,0.2-1.834,0.601
					c-0.501,0.401-0.848,0.884-1.037,1.444c-0.191,0.551-0.287,1.458-0.287,2.721v13.041"/>
			</g>
			<g id="layer1_22_" transform="translate(-256.6798,-531.7963)">
				<path id="text5540_22_" fill="#D380B1" stroke="#D380B1" stroke-width="0.6826" stroke-miterlimit="10" d="M554.884,738.052
					h-2.482c0.361-1.693,0.542-3.227,0.542-4.602v-16.377c0-1.703,0.149-2.972,0.451-3.805c0.311-0.831,0.907-1.563,1.789-2.194
					c0.893-0.644,2.005-0.964,3.339-0.964c1.584,0,2.912,0.42,3.984,1.263c1.084,0.833,1.625,2.021,1.625,3.565
					c0,1.804-0.857,3.282-2.572,4.436c2.557,1.203,3.836,3.093,3.836,5.67c0,1.403-0.342,2.662-1.023,3.773
					c-0.67,1.104-1.453,1.891-2.348,2.362c-0.881,0.471-1.938,0.706-3.172,0.706c-1.404,0-2.545-0.526-3.428-1.578v2.797
					C555.425,735.03,555.245,736.679,554.884,738.052 M555.425,728.955c0.781,1.293,1.874,1.94,3.278,1.94
					c1.354,0,2.348-0.492,2.979-1.475c0.631-0.993,0.947-2.195,0.947-3.608c0-1.084-0.213-2.187-0.633-3.309
					c-0.412-1.133-0.941-1.995-1.594-2.588c-0.602,0.151-1.143,0.227-1.623,0.227c-1.014,0-1.52-0.267-1.52-0.797
					c0-0.482,0.426-0.724,1.277-0.724c0.533,0,1.193,0.121,1.986,0.362c0.711-1.204,1.066-2.512,1.066-3.927
					c0-1.262-0.279-2.229-0.842-2.901c-0.551-0.672-1.273-1.008-2.166-1.008c-0.711,0-1.322,0.2-1.833,0.601
					c-0.501,0.401-0.847,0.884-1.038,1.444c-0.19,0.551-0.285,1.458-0.285,2.721V728.955"/>
			</g>
			<g id="layer1_21_" transform="translate(-256.6798,-531.7963)">
				<path id="text5540_21_" fill="#FFFFFF" stroke="#FFFFFF" stroke-width="0.6826" stroke-miterlimit="10" d="M557.537,738.052
					h-2.483c0.362-1.693,0.542-3.227,0.542-4.602v-16.377c0-1.703,0.149-2.972,0.452-3.805c0.31-0.831,0.906-1.563,1.788-2.194
					c0.893-0.644,2.006-0.964,3.34-0.964c1.584,0,2.912,0.42,3.984,1.263c1.082,0.833,1.625,2.021,1.625,3.565
					c0,1.804-0.857,3.282-2.572,4.436c2.555,1.203,3.836,3.093,3.836,5.67c0,1.403-0.342,2.662-1.023,3.773
					c-0.672,1.104-1.453,1.891-2.346,2.362c-0.883,0.471-1.939,0.706-3.172,0.706c-1.404,0-2.549-0.526-3.43-1.578v2.797
					C558.078,735.03,557.899,736.679,557.537,738.052 M558.078,728.955c0.781,1.293,1.875,1.94,3.279,1.94
					c1.352,0,2.344-0.492,2.977-1.475c0.631-0.993,0.947-2.195,0.947-3.608c0-1.084-0.211-2.187-0.633-3.309
					c-0.41-1.133-0.941-1.995-1.592-2.588c-0.604,0.151-1.145,0.227-1.625,0.227c-1.014,0-1.52-0.267-1.52-0.797
					c0-0.482,0.426-0.724,1.279-0.724c0.531,0,1.191,0.121,1.984,0.362c0.711-1.204,1.066-2.512,1.066-3.927
					c0-1.262-0.279-2.229-0.842-2.901c-0.551-0.672-1.273-1.008-2.164-1.008c-0.711,0-1.324,0.2-1.836,0.601
					c-0.5,0.401-0.848,0.884-1.037,1.444c-0.191,0.551-0.287,1.458-0.287,2.721v13.041"/>
			</g>
		</g>
	</g>
</g>
<g>
	<line fill="none" stroke="#3499CD" stroke-width="5" stroke-miterlimit="10" x1="73.42" y1="199.916" x2="125.792" y2="199.916"/>
	<g>
		<polygon fill="#3499CD" points="117.483,202.416 118.92,203.604 125.416,203.604 125.416,196.227 118.92,196.227 117.483,197.431 
					"/>
		<g>
			<polygon fill="#3499CD" stroke="#1D304B" stroke-miterlimit="10" points="150.763,208.789 132.346,208.789 125.416,206.789 
				125.416,193.043 132.325,191.043 150.763,191.043 			"/>
			<g>
				<path fill="#FFFFFF" d="M135.938,195.695v0.78h-3.465v-0.78h1.47v-1.31h-1.47v-0.78h3.465v0.78h-1.325v1.31H135.938z"/>
				<path fill="#FFFFFF" d="M134.208,200.311c-0.301,0-0.563-0.047-0.785-0.141c-0.224-0.094-0.408-0.226-0.556-0.397
					c-0.146-0.172-0.256-0.381-0.329-0.628c-0.073-0.246-0.11-0.523-0.11-0.83c0-0.14,0.006-0.303,0.018-0.489
					s0.035-0.37,0.072-0.55h3.375c0.033,0.18,0.056,0.368,0.067,0.563s0.018,0.362,0.018,0.502c0,0.297-0.033,0.566-0.1,0.808
					c-0.067,0.241-0.172,0.449-0.315,0.622c-0.144,0.174-0.326,0.307-0.55,0.4S134.521,200.311,134.208,200.311z M133.108,198.055
					c-0.003,0.037-0.006,0.08-0.007,0.128c-0.002,0.048-0.003,0.105-0.003,0.173c0,0.39,0.099,0.679,0.295,0.867
					c0.196,0.188,0.469,0.282,0.815,0.282c0.363,0,0.638-0.09,0.824-0.271c0.188-0.18,0.28-0.465,0.28-0.854
					c0-0.054-0.001-0.108-0.002-0.165c-0.002-0.057-0.006-0.109-0.013-0.16H133.108z"/>
				<path fill="#FFFFFF" d="M135.938,201.88c-0.109,0.061-0.246,0.13-0.407,0.208c-0.162,0.079-0.337,0.161-0.525,0.245
					c-0.188,0.086-0.381,0.17-0.577,0.254c-0.197,0.084-0.382,0.162-0.555,0.236c0.173,0.072,0.357,0.152,0.555,0.234
					c0.196,0.084,0.389,0.17,0.577,0.255c0.188,0.086,0.363,0.168,0.525,0.246c0.161,0.078,0.298,0.148,0.407,0.209v0.709
					c-0.229,0.033-0.487,0.064-0.772,0.092c-0.285,0.029-0.582,0.055-0.89,0.076c-0.309,0.021-0.618,0.041-0.928,0.061
					c-0.31,0.018-0.602,0.033-0.875,0.047v-0.76c0.337-0.01,0.703-0.023,1.1-0.041c0.397-0.016,0.797-0.041,1.2-0.074
					c-0.14-0.061-0.295-0.127-0.465-0.201c-0.17-0.072-0.34-0.146-0.51-0.219c-0.17-0.07-0.333-0.141-0.487-0.208
					c-0.155-0.066-0.288-0.125-0.397-0.172v-0.545c0.109-0.047,0.242-0.104,0.397-0.17c0.154-0.067,0.317-0.137,0.487-0.209
					c0.17-0.071,0.34-0.144,0.51-0.218c0.17-0.073,0.325-0.141,0.465-0.201c-0.403-0.033-0.803-0.058-1.2-0.074
					c-0.396-0.017-0.763-0.03-1.1-0.04v-0.761c0.273,0.014,0.565,0.029,0.875,0.049c0.31,0.018,0.619,0.037,0.928,0.06
					c0.308,0.021,0.604,0.046,0.89,0.075c0.285,0.027,0.543,0.059,0.772,0.092V201.88z"/>
				<path fill="#FFFFFF" d="M135.938,205.447v0.779h-3.465v-0.779H135.938z"/>
			</g>
		</g>
		<line fill="none" stroke="#1D304B" stroke-miterlimit="10" x1="123.92" y1="196.227" x2="123.92" y2="203.604"/>
		<line fill="none" stroke="#1D304B" stroke-miterlimit="10" x1="122.42" y1="196.227" x2="122.42" y2="203.604"/>
		<line fill="none" stroke="#1D304B" stroke-miterlimit="10" x1="120.92" y1="196.227" x2="120.92" y2="203.604"/>
		<line fill="none" stroke="#1D304B" stroke-miterlimit="10" x1="119.42" y1="196.227" x2="119.42" y2="203.604"/>
	</g>
</g>
<g>
	<rect x="171.457" y="123.657" fill="#171617" stroke="#000000" stroke-miterlimit="10" width="34" height="22.667"/>
	<g>
		<path fill="#FFFFFF" d="M179.226,137.132v-6.237h4.213v1.179h-2.809v1.224h2.493v1.152h-2.493v1.503h3.016v1.179H179.226z"/>
		<path fill="#FFFFFF" d="M186.336,130.895c0.108,0.198,0.233,0.442,0.374,0.733c0.142,0.291,0.289,0.606,0.442,0.945
			c0.153,0.339,0.306,0.686,0.456,1.04s0.291,0.687,0.424,0.999c0.133-0.312,0.273-0.645,0.424-0.999s0.303-0.7,0.456-1.04
			c0.153-0.339,0.301-0.654,0.442-0.945c0.141-0.291,0.266-0.536,0.375-0.733h1.277c0.061,0.414,0.115,0.877,0.166,1.39
			c0.052,0.513,0.097,1.047,0.136,1.602c0.039,0.555,0.075,1.112,0.108,1.669c0.032,0.558,0.061,1.083,0.085,1.575h-1.368
			c-0.018-0.606-0.042-1.266-0.072-1.98c-0.029-0.714-0.074-1.434-0.135-2.16c-0.108,0.252-0.229,0.531-0.361,0.837
			c-0.132,0.306-0.264,0.612-0.393,0.918c-0.129,0.306-0.254,0.598-0.375,0.877c-0.119,0.279-0.223,0.517-0.307,0.715h-0.98
			c-0.084-0.198-0.188-0.437-0.307-0.715c-0.121-0.279-0.246-0.572-0.375-0.877c-0.13-0.306-0.261-0.612-0.393-0.918
			c-0.133-0.306-0.254-0.585-0.361-0.837c-0.061,0.726-0.105,1.446-0.135,2.16c-0.031,0.714-0.055,1.374-0.072,1.98H184.5
			c0.024-0.492,0.052-1.017,0.085-1.575c0.033-0.558,0.069-1.114,0.108-1.669c0.039-0.555,0.084-1.089,0.136-1.602
			c0.051-0.513,0.105-0.977,0.166-1.39H186.336z"/>
		<path fill="#FFFFFF" d="M195.597,137.258c-1.014,0-1.787-0.282-2.317-0.846c-0.531-0.563-0.796-1.365-0.796-2.403
			c0-0.516,0.08-0.977,0.242-1.381c0.162-0.405,0.385-0.747,0.666-1.026c0.282-0.279,0.618-0.491,1.008-0.635
			c0.391-0.144,0.813-0.216,1.27-0.216c0.264,0,0.504,0.02,0.72,0.059s0.405,0.084,0.567,0.135c0.162,0.051,0.297,0.104,0.404,0.158
			c0.108,0.054,0.186,0.096,0.234,0.126l-0.404,1.134c-0.193-0.102-0.416-0.189-0.672-0.261c-0.254-0.072-0.544-0.108-0.867-0.108
			c-0.217,0-0.428,0.036-0.635,0.108c-0.207,0.072-0.391,0.188-0.549,0.346c-0.16,0.159-0.287,0.365-0.383,0.617
			s-0.145,0.558-0.145,0.918c0,0.288,0.031,0.557,0.095,0.805c0.063,0.25,0.165,0.464,0.306,0.644
			c0.141,0.18,0.326,0.323,0.554,0.428s0.505,0.157,0.828,0.157c0.204,0,0.388-0.012,0.549-0.036
			c0.162-0.024,0.306-0.053,0.433-0.085c0.125-0.033,0.236-0.071,0.332-0.113c0.097-0.042,0.184-0.081,0.262-0.117l0.387,1.125
			c-0.197,0.12-0.477,0.228-0.837,0.324C196.488,137.21,196.072,137.258,195.597,137.258z"/>
	</g>
</g>
<g>
	<line fill="none" stroke="#996699" stroke-width="3" stroke-miterlimit="10" x1="161.09" y1="134.369" x2="161.09" y2="82.972"/>
	<g>
		<polygon fill="#996699" points="159.583,124.997 158.187,132.967 163.994,132.967 162.598,124.997 		"/>
		<polygon fill="#996699" stroke="#654566" stroke-width="0.75" stroke-miterlimit="10" points="157.722,146.395 164.458,146.395 
			164.458,134.996 163.994,132.967 158.187,132.967 157.722,134.996 		"/>
		<path fill="#FFCE0C" stroke="#F89939" stroke-width="0.5926" stroke-miterlimit="10" d="M157.722,134.883"/>
		
			<line fill="none" stroke="#654566" stroke-width="0.75" stroke-miterlimit="10" x1="163.994" y1="131.508" x2="158.179" y2="131.508"/>
		
			<line fill="none" stroke="#654566" stroke-width="0.75" stroke-miterlimit="10" x1="163.644" y1="130.008" x2="158.529" y2="130.008"/>
		
			<line fill="none" stroke="#654566" stroke-width="0.75" stroke-miterlimit="10" x1="163.295" y1="128.508" x2="158.877" y2="128.508"/>
		
			<line fill="none" stroke="#654566" stroke-width="0.75" stroke-miterlimit="10" x1="163.064" y1="127.008" x2="159.11" y2="127.008"/>
		<rect x="159.402" y="122.342" fill="#654566" width="3.342" height="3.486"/>
	</g>
</g>
<g>
	<g>
		<polygon fill="#6FC498" stroke="#579975" stroke-miterlimit="10" points="201.083,276.749 183.655,276.749 185.655,257.567 
			199.083,257.567 		"/>
		<g>
			<g>
				<g>
					<path fill="none" stroke="#579975" stroke-width="2" stroke-miterlimit="10" d="M201.925,287.172
						c-5.282,5.28-13.831,5.28-19.113,0"/>
					<path fill="none" stroke="#579975" stroke-width="2" stroke-miterlimit="10" d="M199.426,284.672
						c-3.901,3.899-10.214,3.899-14.115,0"/>
					<path fill="none" stroke="#579975" stroke-width="2" stroke-miterlimit="10" d="M196.5,281.98
						c-2.282,2.283-5.979,2.283-8.263,0"/>
				</g>
			</g>
		</g>
	</g>
	<g>
		<path fill="#FFFFFF" d="M189.067,269.69c0.04,0.137,0.084,0.291,0.132,0.462c0.049,0.172,0.1,0.35,0.155,0.533
			c0.055,0.183,0.11,0.366,0.167,0.55s0.111,0.354,0.165,0.51c0.044-0.17,0.088-0.354,0.133-0.555c0.046-0.2,0.088-0.407,0.128-0.62
			c0.041-0.214,0.08-0.426,0.118-0.638s0.075-0.416,0.108-0.612h0.811c-0.117,0.58-0.253,1.168-0.405,1.765
			c-0.153,0.597-0.317,1.163-0.495,1.7h-0.714c-0.116-0.32-0.229-0.656-0.339-1.008c-0.11-0.352-0.219-0.704-0.324-1.058
			c-0.107,0.354-0.215,0.706-0.321,1.058s-0.218,0.688-0.335,1.008h-0.713c-0.178-0.537-0.343-1.104-0.494-1.7
			c-0.152-0.597-0.287-1.185-0.404-1.765h0.844c0.034,0.196,0.07,0.4,0.111,0.612c0.04,0.212,0.082,0.424,0.125,0.638
			c0.044,0.213,0.088,0.42,0.134,0.62c0.045,0.2,0.091,0.385,0.138,0.555c0.061-0.163,0.119-0.337,0.176-0.52
			c0.057-0.184,0.111-0.367,0.165-0.551c0.054-0.183,0.103-0.359,0.147-0.529s0.086-0.322,0.123-0.455H189.067z"/>
		<path fill="#FFFFFF" d="M192.244,269.396c0,0.137-0.045,0.244-0.133,0.322s-0.193,0.117-0.313,0.117
			c-0.12,0-0.225-0.039-0.313-0.117s-0.133-0.186-0.133-0.322s0.045-0.244,0.133-0.323c0.088-0.078,0.192-0.117,0.313-0.117
			c0.119,0,0.225,0.039,0.313,0.117C192.199,269.151,192.244,269.259,192.244,269.396z M192.173,272.785h-0.745v-2.63h0.745V272.785
			z"/>
		<path fill="#FFFFFF" d="M192.648,270.955h1.45v0.675h-1.45V270.955z"/>
		<path fill="#FFFFFF" d="M194.623,272.785v-3.465h2.32v0.655h-1.539v0.725h1.369v0.655h-1.369v1.43H194.623z"/>
		<path fill="#FFFFFF" d="M198.258,269.396c0,0.137-0.044,0.244-0.132,0.322c-0.089,0.078-0.193,0.117-0.313,0.117
			c-0.121,0-0.225-0.039-0.313-0.117c-0.089-0.078-0.133-0.186-0.133-0.322s0.044-0.244,0.133-0.323
			c0.088-0.078,0.191-0.117,0.313-0.117c0.119,0,0.224,0.039,0.313,0.117C198.214,269.151,198.258,269.259,198.258,269.396z
			 M198.189,272.785h-0.746v-2.63h0.746V272.785z"/>
	</g>
</g>
<g>
	<g>
		<line fill="none" stroke="#EF3B68" stroke-width="5" stroke-miterlimit="10" x1="169.794" y1="326.57" x2="169.794" y2="268.35"/>
	</g>
	<g>
		<polygon fill="#EF3B68" points="166.552,274.793 163.552,266.822 176.037,266.822 173.037,274.793 		"/>
		<polygon fill="#EF3B68" stroke="#A61E2E" stroke-width="0.869" stroke-miterlimit="10" points="162.552,253.395 177.037,253.395 
			177.037,264.793 176.037,266.822 163.552,266.822 162.552,264.793 		"/>
		<path fill="#FFCE0C" stroke="#F89939" stroke-width="0.869" stroke-miterlimit="10" d="M162.552,264.906"/>
		
			<line fill="none" stroke="#A61E2E" stroke-width="0.8801" stroke-miterlimit="10" x1="176.037" y1="268.281" x2="163.537" y2="268.281"/>
		
			<line fill="none" stroke="#A61E2E" stroke-width="0.903" stroke-miterlimit="10" x1="175.287" y1="269.781" x2="164.287" y2="269.781"/>
		
			<line fill="none" stroke="#A61E2E" stroke-width="0.9361" stroke-miterlimit="10" x1="174.537" y1="271.281" x2="165.037" y2="271.281"/>
		
			<line fill="none" stroke="#A61E2E" stroke-width="0.8854" stroke-miterlimit="10" x1="174.037" y1="272.781" x2="165.537" y2="272.781"/>
		<rect x="166.164" y="273.961" fill="#A61E2E" width="7.186" height="3.486"/>
	</g>
</g>
<g>
	<g>
		
			<rect x="141.576" y="151.704" fill="#FFFFFF" stroke="#996699" stroke-width="0.4404" stroke-miterlimit="10" width="77.064" height="98.72"/>
		
			<rect x="145.982" y="253.09" fill="#FFFFFF" stroke="#996699" stroke-width="0.4404" stroke-miterlimit="10" width="67.941" height="5.537"/>
		
			<rect x="145.982" y="143.627" fill="#FFFFFF" stroke="#996699" stroke-width="0.4404" stroke-miterlimit="10" width="67.941" height="5.536"/>
		
			<line fill="none" stroke="#996699" stroke-width="4.4148" stroke-miterlimit="10" x1="140.078" y1="149.474" x2="219.923" y2="149.474"/>
		
			<line fill="none" stroke="#996699" stroke-width="4.4148" stroke-miterlimit="10" x1="140.078" y1="252.655" x2="219.923" y2="252.655"/>
		<g>
			<path d="M168.986,233.135c-0.43,0-0.857-0.014-1.285-0.039c-0.426-0.027-0.869-0.09-1.33-0.188v-7.609
				c0.363-0.068,0.76-0.119,1.189-0.153s0.83-0.051,1.199-0.051c0.5,0,0.957,0.036,1.377,0.107c0.418,0.071,0.779,0.194,1.082,0.368
				c0.301,0.174,0.537,0.402,0.707,0.686s0.254,0.632,0.254,1.047c0,0.627-0.301,1.121-0.904,1.483
				c0.498,0.188,0.838,0.446,1.018,0.771c0.182,0.324,0.271,0.69,0.271,1.098c0,0.823-0.299,1.442-0.898,1.857
				C171.064,232.928,170.171,233.135,168.986,233.135z M168.091,228.266h0.861c0.543,0,0.932-0.07,1.166-0.209
				c0.234-0.141,0.352-0.365,0.352-0.674c0-0.318-0.121-0.541-0.363-0.669c-0.24-0.128-0.596-0.192-1.064-0.192
				c-0.15,0-0.313,0.002-0.486,0.006s-0.328,0.014-0.465,0.028V228.266z M168.091,229.613v2.026c0.129,0.016,0.268,0.026,0.42,0.034
				c0.15,0.008,0.316,0.012,0.498,0.012c0.527,0,0.955-0.076,1.279-0.227c0.324-0.151,0.486-0.431,0.486-0.838
				c0-0.363-0.135-0.621-0.406-0.775c-0.271-0.155-0.662-0.232-1.166-0.232H168.091z"/>
			<path d="M173.98,233.033v-7.848h5.299v1.483h-3.531v1.54h3.137v1.449h-3.137v1.891h3.793v1.484H173.98z"/>
			<path d="M186.664,225.186v1.506h-2.367v6.342h-1.768v-6.342h-2.365v-1.506H186.664z"/>
			<path d="M192.132,233.033c-0.088-0.273-0.182-0.553-0.283-0.84c-0.1-0.288-0.199-0.574-0.299-0.859h-3.066
				c-0.098,0.287-0.197,0.573-0.297,0.861c-0.1,0.287-0.193,0.566-0.279,0.838h-1.834c0.295-0.846,0.576-1.627,0.842-2.345
				c0.264-0.717,0.523-1.393,0.777-2.026c0.254-0.635,0.504-1.236,0.75-1.807s0.502-1.127,0.766-1.67h1.676
				c0.258,0.543,0.512,1.1,0.762,1.67s0.502,1.172,0.756,1.807c0.254,0.634,0.514,1.31,0.779,2.026
				c0.266,0.718,0.547,1.499,0.842,2.345H192.132z M190.009,226.963c-0.039,0.114-0.098,0.27-0.174,0.465
				c-0.076,0.197-0.162,0.424-0.258,0.681c-0.098,0.257-0.207,0.54-0.326,0.849c-0.119,0.31-0.242,0.634-0.365,0.973h2.244
				c-0.119-0.34-0.236-0.665-0.35-0.975c-0.111-0.311-0.219-0.594-0.32-0.852c-0.102-0.257-0.189-0.483-0.266-0.68
				C190.119,227.229,190.056,227.074,190.009,226.963z"/>
		</g>
		<rect x="143.912" y="192.351" fill="#996699" width="2.83" height="15.13"/>
		<rect x="213.742" y="192.351" fill="#996699" width="2.83" height="15.13"/>
	</g>
	<g>
		<polygon fill="#010101" points="202.484,205.939 179.8,219.591 157.117,205.939 157.117,178.634 179.8,164.982 202.484,178.634 		
			"/>
		<g>
			<g id="layer1_20_" transform="translate(-256.6798,-531.7963)">
				<path id="text5540_20_" fill="#6E1944" stroke="#6E1944" stroke-width="0.6826" stroke-miterlimit="10" d="M427.392,738.052
					h-2.48c0.361-1.693,0.542-3.227,0.542-4.602v-16.377c0-1.703,0.148-2.972,0.45-3.805c0.312-0.831,0.908-1.563,1.79-2.194
					c0.892-0.644,2.004-0.964,3.339-0.964c1.584,0,2.912,0.42,3.984,1.263c1.083,0.833,1.624,2.021,1.624,3.565
					c0,1.804-0.856,3.282-2.571,4.436c2.557,1.203,3.835,3.093,3.835,5.67c0,1.403-0.341,2.662-1.022,3.773
					c-0.673,1.104-1.453,1.891-2.347,2.362c-0.882,0.471-1.939,0.706-3.173,0.706c-1.404,0-2.547-0.526-3.429-1.578v2.797
					C427.933,735.03,427.754,736.679,427.392,738.052 M427.933,728.955c0.782,1.293,1.876,1.94,3.278,1.94
					c1.353,0,2.348-0.492,2.978-1.475c0.631-0.993,0.947-2.195,0.947-3.608c0-1.084-0.211-2.187-0.631-3.309
					c-0.412-1.133-0.943-1.995-1.595-2.588c-0.602,0.151-1.144,0.227-1.623,0.227c-1.014,0-1.521-0.267-1.521-0.797
					c0-0.482,0.427-0.724,1.28-0.724c0.531,0,1.192,0.121,1.985,0.362c0.712-1.204,1.067-2.512,1.067-3.927
					c0-1.262-0.281-2.229-0.843-2.901c-0.551-0.672-1.273-1.008-2.165-1.008c-0.712,0-1.325,0.2-1.835,0.601
					c-0.501,0.401-0.848,0.884-1.038,1.444c-0.19,0.551-0.286,1.458-0.286,2.721L427.933,728.955"/>
			</g>
			<g id="layer1_19_" transform="translate(-256.6798,-531.7963)">
				<path id="text5540_19_" fill="#8E2965" stroke="#8E2965" stroke-width="0.6826" stroke-miterlimit="10" d="M429.927,738.052
					h-2.479c0.361-1.693,0.541-3.227,0.541-4.602v-16.377c0-1.703,0.149-2.972,0.451-3.805c0.311-0.831,0.907-1.563,1.79-2.194
					c0.892-0.644,2.006-0.964,3.338-0.964c1.585,0,2.912,0.42,3.987,1.263c1.082,0.833,1.624,2.021,1.624,3.565
					c0,1.804-0.858,3.282-2.571,4.436c2.556,1.203,3.833,3.093,3.833,5.67c0,1.403-0.338,2.662-1.021,3.773
					c-0.673,1.104-1.452,1.891-2.347,2.362c-0.882,0.471-1.938,0.706-3.172,0.706c-1.404,0-2.546-0.526-3.429-1.578v2.797
					C430.47,735.03,430.29,736.679,429.927,738.052 M430.47,728.955c0.781,1.293,1.875,1.94,3.276,1.94
					c1.354,0,2.348-0.492,2.979-1.475c0.631-0.993,0.947-2.195,0.947-3.608c0-1.084-0.211-2.187-0.632-3.309
					c-0.412-1.133-0.941-1.995-1.595-2.588c-0.602,0.151-1.143,0.227-1.624,0.227c-1.011,0-1.519-0.267-1.519-0.797
					c0-0.482,0.426-0.724,1.277-0.724c0.533,0,1.194,0.121,1.985,0.362c0.712-1.204,1.067-2.512,1.067-3.927
					c0-1.262-0.28-2.229-0.841-2.901c-0.553-0.672-1.274-1.008-2.166-1.008c-0.712,0-1.323,0.2-1.835,0.601
					c-0.502,0.401-0.848,0.884-1.038,1.444c-0.19,0.551-0.285,1.458-0.285,2.721L430.47,728.955"/>
			</g>
			<g id="layer1_18_" transform="translate(-256.6798,-531.7963)">
				<path id="text5540_18_" fill="#C15F94" stroke="#C15F94" stroke-width="0.6826" stroke-miterlimit="10" d="M432.465,738.052
					h-2.482c0.362-1.693,0.542-3.227,0.542-4.602v-16.377c0-1.703,0.149-2.972,0.452-3.805c0.31-0.831,0.906-1.563,1.788-2.194
					c0.893-0.644,2.006-0.964,3.339-0.964c1.584,0,2.913,0.42,3.986,1.263c1.083,0.833,1.624,2.021,1.624,3.565
					c0,1.804-0.856,3.282-2.57,4.436c2.555,1.203,3.835,3.093,3.835,5.67c0,1.403-0.342,2.662-1.023,3.773
					c-0.671,1.104-1.453,1.891-2.347,2.362c-0.883,0.471-1.939,0.706-3.174,0.706c-1.402,0-2.546-0.526-3.427-1.578v2.797
					C433.006,735.03,432.826,736.679,432.465,738.052 M433.006,728.955c0.781,1.293,1.874,1.94,3.277,1.94
					c1.353,0,2.347-0.492,2.979-1.475c0.632-0.993,0.947-2.195,0.947-3.608c0-1.084-0.212-2.187-0.632-3.309
					c-0.413-1.133-0.942-1.995-1.596-2.588c-0.601,0.151-1.143,0.227-1.623,0.227c-1.012,0-1.52-0.267-1.52-0.797
					c0-0.482,0.427-0.724,1.278-0.724c0.533,0,1.193,0.121,1.985,0.362c0.712-1.204,1.067-2.512,1.067-3.927
					c0-1.262-0.28-2.229-0.842-2.901c-0.552-0.672-1.274-1.008-2.167-1.008c-0.71,0-1.324,0.2-1.834,0.601
					c-0.501,0.401-0.848,0.884-1.037,1.444c-0.191,0.551-0.287,1.458-0.287,2.721v13.041"/>
			</g>
			<g id="layer1_17_" transform="translate(-256.6798,-531.7963)">
				<path id="text5540_17_" fill="#D380B1" stroke="#D380B1" stroke-width="0.6826" stroke-miterlimit="10" d="M434.884,738.052
					h-2.482c0.361-1.693,0.542-3.227,0.542-4.602v-16.377c0-1.703,0.149-2.972,0.451-3.805c0.311-0.831,0.907-1.563,1.789-2.194
					c0.893-0.644,2.006-0.964,3.34-0.964c1.584,0,2.911,0.42,3.984,1.263c1.083,0.833,1.624,2.021,1.624,3.565
					c0,1.804-0.856,3.282-2.571,4.436c2.556,1.203,3.835,3.093,3.835,5.67c0,1.403-0.341,2.662-1.022,3.773
					c-0.671,1.104-1.453,1.891-2.348,2.362c-0.882,0.471-1.938,0.706-3.173,0.706c-1.403,0-2.545-0.526-3.428-1.578v2.797
					C435.425,735.03,435.245,736.679,434.884,738.052 M435.425,728.955c0.781,1.293,1.874,1.94,3.277,1.94
					c1.354,0,2.348-0.492,2.979-1.475c0.631-0.993,0.948-2.195,0.948-3.608c0-1.084-0.213-2.187-0.633-3.309
					c-0.412-1.133-0.941-1.995-1.595-2.588c-0.601,0.151-1.142,0.227-1.623,0.227c-1.013,0-1.519-0.267-1.519-0.797
					c0-0.482,0.425-0.724,1.277-0.724c0.532,0,1.193,0.121,1.985,0.362c0.711-1.204,1.067-2.512,1.067-3.927
					c0-1.262-0.28-2.229-0.842-2.901c-0.552-0.672-1.273-1.008-2.167-1.008c-0.711,0-1.321,0.2-1.833,0.601
					c-0.501,0.401-0.847,0.884-1.038,1.444c-0.19,0.551-0.285,1.458-0.285,2.721V728.955"/>
			</g>
			<g id="layer1_16_" transform="translate(-256.6798,-531.7963)">
				<path id="text5540_16_" fill="#FFFFFF" stroke="#FFFFFF" stroke-width="0.6826" stroke-miterlimit="10" d="M437.537,738.052
					h-2.482c0.362-1.693,0.542-3.227,0.542-4.602v-16.377c0-1.703,0.149-2.972,0.452-3.805c0.31-0.831,0.906-1.563,1.788-2.194
					c0.893-0.644,2.005-0.964,3.339-0.964c1.585,0,2.913,0.42,3.984,1.263c1.083,0.833,1.626,2.021,1.626,3.565
					c0,1.804-0.858,3.282-2.572,4.436c2.555,1.203,3.835,3.093,3.835,5.67c0,1.403-0.342,2.662-1.023,3.773
					c-0.671,1.104-1.453,1.891-2.345,2.362c-0.884,0.471-1.94,0.706-3.173,0.706c-1.404,0-2.548-0.526-3.43-1.578v2.797
					C438.078,735.03,437.898,736.679,437.537,738.052 M438.078,728.955c0.782,1.293,1.876,1.94,3.279,1.94
					c1.353,0,2.345-0.492,2.977-1.475c0.632-0.993,0.947-2.195,0.947-3.608c0-1.084-0.211-2.187-0.632-3.309
					c-0.411-1.133-0.942-1.995-1.593-2.588c-0.604,0.151-1.144,0.227-1.625,0.227c-1.013,0-1.52-0.267-1.52-0.797
					c0-0.482,0.427-0.724,1.28-0.724c0.53,0,1.191,0.121,1.983,0.362c0.712-1.204,1.067-2.512,1.067-3.927
					c0-1.262-0.28-2.229-0.843-2.901c-0.55-0.672-1.273-1.008-2.164-1.008c-0.711,0-1.324,0.2-1.836,0.601
					c-0.499,0.401-0.848,0.884-1.037,1.444c-0.191,0.551-0.287,1.458-0.287,2.721v13.041"/>
			</g>
		</g>
	</g>
</g>
<g>
	<path fill="none" d="M163.9,179.002"/>
</g>
</svg>
