<?xml version="1.0" encoding="utf-8"?>
<!-- Generator: Adobe Illustrator 16.0.0, SVG Export Plug-In . SVG Version: 6.00 Build 0)  -->
<!DOCTYPE svg PUBLIC "-//W3C//DTD SVG 1.1//EN" "http://www.w3.org/Graphics/SVG/1.1/DTD/svg11.dtd">
<svg version="1.1" id="Layer_1" xmlns="http://www.w3.org/2000/svg" xmlns:xlink="http://www.w3.org/1999/xlink" x="0px" y="0px"
	 width="213.332px" height="256px" viewBox="0 0 213.332 256" enable-background="new 0 0 213.332 256" xml:space="preserve">
<polygon fill="#3399CC" points="213.332,192.001 106.666,256 0,192.001 0,63.997 106.666,0 213.332,63.997 "/>
<path fill-rule="evenodd" clip-rule="evenodd" fill="#FFFFFF" d="M110.583,64c1.393,0.535,2.888,0.455,4.335,0.677
	c26.929,4.137,48.402,24.553,53.252,51.372c3.872,21.372-1.645,40.354-16.621,56.152c-13.482,14.21-30.355,20.663-49.875,19.708
	c-29.48-1.436-54.198-23.53-59.339-52.734c-0.28-1.597-0.465-3.21-0.701-4.814c-0.034-0.226,0.073-0.52-0.267-0.615
	c0-3.585,0-7.165,0-10.75c0.3-0.142,0.199-0.425,0.219-0.657c0.749-8.731,3.104-17.016,7.369-24.655
	c9.98-17.859,25.021-28.851,45.167-32.707c2.14-0.41,4.311-0.656,6.466-0.976C103.919,64,107.25,64,110.583,64z"/>
<g>
	<path fill="#3399CC" d="M127.352,101.259l0.097,0.711l-1.071,0.221l-0.145,1.513h1.283l1.707-0.166l0.878-1.039l-0.936-0.363
		l-0.512-0.587l-0.771-1.24l-0.366-1.751l-1.446,0.289l-0.406,0.625v0.692l0.695,0.469L127.352,101.259z M127.352,101.259"/>
	<path fill="#3399CC" d="M126.127,101.848l0.077-0.953l-0.85-0.368l-1.187,0.272l-0.877,1.415v0.902h1.022L126.127,101.848z
		 M126.127,101.848"/>
	<path fill="#3399CC" d="M101.735,105.876l-0.261,0.666h-1.264v0.652h0.299c0,0,0.019,0.135,0.039,0.317l0.78-0.064l0.483-0.298
		l0.125-0.606l0.627-0.05l0.241-0.51l-0.569-0.115L101.735,105.876z M101.735,105.876"/>
	<g>
		<defs>
			<rect id="SVGID_1_" x="57.367" y="80" width="96" height="96"/>
		</defs>
		<clipPath id="SVGID_2_">
			<use xlink:href="#SVGID_1_"  overflow="visible"/>
		</clipPath>
		<path clip-path="url(#SVGID_2_)" fill="#3399CC" d="M98.475,107.053l-0.048,0.644l0.916-0.079l0.096-0.643l-0.549-0.433
			L98.475,107.053z M98.475,107.053"/>
		<path clip-path="url(#SVGID_2_)" fill="#3399CC" d="M153.404,127.36c-0.01-1.404-0.088-2.801-0.223-4.165
			c-0.443-4.56-1.533-8.938-3.174-13.045c-0.125-0.298-0.24-0.616-0.365-0.914c-2.18-5.147-5.257-9.835-9.01-13.882
			c-0.24-0.262-0.491-0.52-0.742-0.782c-0.713-0.729-1.438-1.451-2.199-2.136c-8.535-7.751-19.878-12.485-32.301-12.485
			c-12.529,0-23.959,4.82-32.514,12.688c-1.997,1.837-3.829,3.84-5.488,5.974c-6.279,8.101-10.021,18.24-10.021,29.235
			c0,26.419,21.547,47.901,48.023,47.901c18.635,0,34.8-10.641,42.766-26.139c1.698-3.309,3.029-6.84,3.917-10.544
			c0.231-0.942,0.424-1.885,0.598-2.848c0.482-2.712,0.742-5.513,0.742-8.371C153.413,127.688,153.404,127.522,153.404,127.36
			L153.404,127.36z M144.366,108.216l0.28-0.317c0.366,0.711,0.703,1.433,1.031,2.155l-0.453-0.01l-0.858,0.116V108.216z
			 M137.421,99.856l0.01-2.146c0.752,0.797,1.484,1.626,2.18,2.473l-0.868,1.287l-3.019-0.027l-0.193-0.625L137.421,99.856z
			 M79.493,94.536v-0.077h0.964l0.078-0.328h1.581v0.682l-0.453,0.596h-2.17V94.536z M81.036,96.672c0,0,0.955-0.164,1.042-0.164
			c0.077,0,0,0.959,0,0.959l-2.17,0.138l-0.415-0.491L81.036,96.672z M147.423,115.691h-3.511l-2.142-1.59l-2.257,0.212v1.378H138.8
			l-0.771-0.548l-3.896-0.991v-2.523l-4.948,0.387l-1.533,0.825h-1.968l-0.965-0.106l-2.385,1.33v2.48l-4.868,3.502l0.405,1.502
			h0.994l-0.261,1.424l-0.694,0.258l-0.039,3.725l4.205,4.791h1.843l0.106-0.299h3.299l0.944-0.875h1.871l1.022,1.02l2.787,0.298
			l-0.366,3.685l3.096,5.445l-1.63,3.107l0.106,1.463l1.282,1.27v3.521l1.679,2.251v2.925h1.456
			c-8.082,9.909-20.398,16.259-34.182,16.259c-24.306,0-44.069-19.722-44.069-43.967c0-6.096,1.254-11.919,3.512-17.198v-1.378
			l1.582-1.903c0.549-1.029,1.128-2.039,1.755-3.023l0.077,0.798l-1.832,2.225c-0.569,1.066-1.101,2.155-1.573,3.281v2.5
			l1.823,0.877v3.483l1.756,2.982l1.437,0.221l0.183-1.02l-1.688-2.597l-0.327-2.521h0.983l0.415,2.595l2.44,3.543l-0.637,1.145
			l1.553,2.366l3.848,0.94v-0.615l1.534,0.221l-0.145,1.09l1.215,0.219l1.861,0.51l2.633,3.001l3.376,0.253l0.327,2.741
			l-2.305,1.606l-0.106,2.443l-0.337,1.501l3.337,4.166l0.26,1.424c0,0,1.206,0.327,1.351,0.327c0.144,0,2.71,1.933,2.71,1.933
			v7.533l0.917,0.25l-0.627,3.473l1.543,2.05l-0.28,3.435l2.026,3.568l2.614,2.271l2.623,0.048l0.251-0.836l-1.92-1.627l0.106-0.798
			l0.347-0.991l0.067-1.001l-1.301-0.037l-0.656-0.818l1.081-1.049l0.145-0.779l-1.206-0.347l0.068-0.73l1.726-0.26l2.624-1.251
			l0.877-1.606l2.749-3.512l-0.627-2.741l0.84-1.463l2.526,0.078l1.708-1.339l0.55-5.291l1.881-2.396l0.337-1.529l-1.727-0.558
			l-1.138-1.857l-3.877-0.038l-3.077-1.164l-0.145-2.192l-1.032-1.79l-2.778-0.038l-1.61-2.522l-1.428-0.703l-0.077,0.772
			l-2.594,0.151l-0.955-1.318l-2.711-0.545l-2.237,2.566l-3.511-0.587l-0.261-3.952l-2.565-0.443l1.032-1.934l-0.299-1.116
			l-3.366,2.251l-2.122-0.262l-0.752-1.654l0.454-1.701l1.177-2.155l2.691-1.358h5.199l-0.02,1.58l1.871,0.873l-0.145-2.701
			l1.341-1.356l2.719-1.782l0.193-1.25l2.71-2.816l2.875-1.591l-0.251-0.211l1.948-1.828l0.714,0.185l0.328,0.411l0.742-0.817
			l0.184-0.086l-0.81-0.116l-0.83-0.267v-0.789l0.444-0.359h0.955l0.443,0.193l0.386,0.772l0.463-0.078v-0.069l0.135,0.05
			l1.351-0.202l0.193-0.667l0.771,0.193v0.721l-0.714,0.493l0.106,0.779l2.44,0.75l0.009,0.026l0.559-0.045l0.039-1.061
			l-1.938-0.873l-0.106-0.51l1.611-0.548l0.067-1.539l-1.687-1.02l-0.106-2.59l-2.305,1.125h-0.839l0.212-1.972l-3.135-0.739
			l-1.302,0.981v2.992l-2.334,0.731l-0.936,1.953l-1.022,0.161v-2.492l-2.189-0.309l-1.1-0.711l-0.443-1.614l3.925-2.292l1.93-0.587
			l0.192,1.292l1.071-0.049l0.077-0.656l1.119-0.151l0.02-0.233l-0.482-0.202l-0.106-0.681l1.379-0.116l0.83-0.868l0.048-0.056h0.01
			l0.25-0.262l2.894-0.363l1.283,1.085l-3.357,1.782l4.263,1.007l0.56-1.421h1.862l0.665-1.244l-1.321-0.337v-1.565l-4.138-1.828
			l-2.855,0.325l-1.611,0.846l0.106,2.04l-1.688-0.248l-0.261-1.135l1.62-1.462l-2.932-0.146l-0.839,0.261l-0.366,0.979l1.099,0.186
			l-0.222,1.097l-1.871,0.115l-0.29,0.722l-2.71,0.076c0,0-0.067-1.529-0.183-1.529c-0.106,0,2.122-0.041,2.122-0.041l1.62-1.575
			l-0.887-0.434l-1.167,1.136l-1.949-0.116l-1.167-1.606H85.27l-2.604,1.934h2.382l0.222,0.702l-0.617,0.565l2.633,0.08l0.405,0.95
			l-2.971-0.115l-0.145-0.729l-1.861-0.407l-0.994-0.546l-2.218,0.019c7.272-5.281,16.213-8.407,25.888-8.407
			c11.149,0,21.325,4.156,29.1,10.976l-0.521,0.931l-2.035,0.801l-0.858,0.924l0.193,1.084l1.051,0.146l0.637,1.576l1.804-0.731
			l0.299,2.109h-0.54l-1.485-0.221l-1.648,0.277l-1.592,2.251l-2.286,0.358l-0.328,1.943l0.965,0.231l-0.28,1.25l-2.267-0.452
			l-2.073,0.452l-0.435,1.143l0.357,2.427l1.215,0.565l2.045-0.01l1.38-0.123l0.424-1.099l2.16-2.79l1.418,0.291l1.398-1.26
			l0.261,0.979l3.443,2.321l-0.425,0.555l-1.553-0.074l0.598,0.837l0.955,0.212l1.119-0.465l-0.02-1.346l0.492-0.248l-0.396-0.424
			l-2.295-1.272l-0.608-1.701h1.91l0.607,0.604l1.649,1.414l0.067,1.705l1.697,1.807l0.637-2.473l1.177-0.645l0.222,2.032
			l1.158,1.258l2.295-0.036c0.443,1.135,0.839,2.297,1.186,3.483L147.423,115.691z M83.563,101.713l1.148-0.551l1.042,0.253
			l-0.356,1.392l-1.129,0.359L83.563,101.713z M89.688,105.003v0.905h-2.643l-0.984-0.27l0.251-0.635l1.264-0.519h1.726v0.519
			H89.688z M90.893,106.264v0.875l-0.656,0.424l-0.829,0.151v-1.45H90.893z M90.151,105.908v-1.042l0.906,0.818L90.151,105.908z
			 M90.565,108.015v0.854l-0.627,0.628h-1.407l0.221-0.955l0.666-0.056l0.135-0.33L90.565,108.015z M87.074,106.264h1.457
			l-1.862,2.604l-0.771-0.414l0.164-1.095L87.074,106.264z M93.034,107.714v0.859h-1.398l-0.386-0.558v-0.791h0.116L93.034,107.714z
			 M91.742,106.542l0.405-0.414l0.676,0.414l-0.541,0.443L91.742,106.542z M148.137,117.902l0.145-0.151
			c0.058,0.237,0.115,0.49,0.173,0.748L148.137,117.902z M148.137,117.902"/>
	</g>
	<path fill="#3399CC" d="M64.833,109.272v1.378c0.481-1.126,1.013-2.215,1.582-3.281L64.833,109.272z M64.833,109.272"/>
</g>
<g>
</g>
<g>
</g>
<g>
</g>
<g>
</g>
<g>
</g>
<g>
</g>
</svg>
