<?xml version="1.0" encoding="utf-8"?>
<!-- Generator: Adobe Illustrator 19.1.0, SVG Export Plug-In . SVG Version: 6.00 Build 0)  -->
<svg version="1.1" id="Camada_1" xmlns="http://www.w3.org/2000/svg" xmlns:xlink="http://www.w3.org/1999/xlink" x="0px" y="0px"
	 viewBox="0 0 800 500" enable-background="new 0 0 800 500" xml:space="preserve">
<g>
	<g>
		<path id="path14" fill="#FF6801" d="M596.059,462.947H203.941
			c-8.623,0-15.685-6.98-15.685-15.502v-93.013c0-8.522,7.062-15.502,15.685-15.502h392.118c8.623,0,15.685,6.98,15.685,15.502
			v93.013C611.743,455.968,604.681,462.947,596.059,462.947z"/>
		<g id="layer1" transform="translate(-29.834384,-461.18859)">
			<g id="g3032" transform="matrix(3.543307,0,0,3.543307,-22.898933,43.106264)">
				<g id="Camada_x0020_1">
					<path id="path2993" fill="none" d="M91.385,234.905c-6.157,6.798-12.37,3.235-12.943-3.928
						c-0.542-6.784,6.934-11.759,12.943-4.569v-4.829c-9.686-3.405-17.674-0.023-18.645,8.497c-0.21,9.512,8.945,13.639,18.651,9.71
						L91.385,234.905L91.385,234.905z"/>
					<path id="path2995" fill="none" d="M104.039,240.568c-1.261-0.273-1.458-1.243-2.33-2.84c-0.355-0.65-0.636-1.31-0.931-1.961
						c-0.509-1.12-0.884-2.214-0.467-3.187c1.255-1.363,2.29-2.353,2.334-3.61c0.079-2.253-1.994-4.293-5.482-2.974v14.549H92.76
						v-16.628h8.803c4.524-0.123,7.608,5.086,3.246,8.449c-0.809,0.582-1.292,2.061,0.098,2.671c0.503,0.17,0.956,1.177,1.431,2.143
						c0.607,1.234,1.211,2.536,1.583,3.395L104.039,240.568L104.039,240.568z"/>
					<path id="path2997" fill="none" d="M112.246,240.514l-3.974,0l5.074-14.305c0.6-1.228,1.374-1.992,2.323-2.292h4.982
						l5.899,16.597h-4.585l-1.803-5.318h-6.174L112.246,240.514L112.246,240.514z"/>
					<polygon id="polygon2999" fill="none" points="114.722,232.689 119.429,232.689 117.136,226.24 					"/>
					<path id="path3001" fill="none" d="M140.406,235.908c-4.51,5.446-9.799,2.563-10.253-3.112
						c-0.357-4.469,3.688-8.065,7.942-5.896c0.861,0.439,1.988,1.471,2.311,2.277v-3.826c-7.673-2.697-14.001-0.018-14.77,6.731
						c-0.167,7.535,7.086,10.804,14.774,7.692L140.406,235.908L140.406,235.908z"/>
					<polygon id="polygon3003" fill="none" points="142.017,240.575 142.017,223.947 146.357,223.947 146.357,240.575 					"/>
					<path id="path3005" fill="none" d="M147.554,233.475c-0.761-1.08-0.575-1.905,0.403-2.976l4.757-6.49h4.768l-5.636,7.02
						c-0.435,0.356-0.49,1.044,0.09,1.636l5.623,7.895c-1.742-0.01-3.484-0.02-5.227-0.031
						C150.74,238.178,149.147,235.826,147.554,233.475L147.554,233.475z"/>
					<polygon id="polygon3007" fill="none" points="168.869,240.56 168.93,238.176 163.428,238.176 163.367,223.993
						159.027,223.993 159.027,240.56 					"/>
					<polygon id="polygon3009" fill="none" points="182.807,240.498 182.807,237.687 174.737,237.687 174.737,231.39
						182.318,231.451 182.318,228.333 174.737,228.333 174.799,223.26 182.318,223.26 182.318,220.264 170.091,220.264
						170.091,240.498 					"/>
					<path id="path3011" fill="#FFFFFF" d="M97.162,240.545v-14.549c3.488-1.319,5.561,0.722,5.482,2.974
						c-0.044,1.257-1.078,2.247-2.334,3.61c-0.416,0.973-0.041,2.067,0.467,3.187c0.296,0.651,0.576,1.311,0.931,1.961
						c0.872,1.597,1.069,2.566,2.33,2.84l3.882,0.007c-0.372-0.859-0.976-2.161-1.583-3.395c-0.475-0.966-0.928-1.972-1.431-2.143
						c-1.39-0.61-0.907-2.089-0.098-2.671c4.362-3.363,1.278-8.572-3.246-8.449H92.76v16.628L97.162,240.545L97.162,240.545z"/>
					<path id="path3013" fill="#FFFFFF" d="M78.442,230.978c-0.542-6.784,6.934-11.759,12.943-4.569v-4.829
						c-9.686-3.405-17.674-0.023-18.645,8.497c-0.21,9.512,8.945,13.639,18.651,9.71l-0.006-4.88
						C85.228,241.704,79.014,238.141,78.442,230.978L78.442,230.978z"/>
					<path id="path3015" fill="#FFFFFF" d="M113.346,226.21l-5.074,14.305l3.974,0l1.742-5.318h6.174l1.803,5.318h4.585
						l-5.899-16.597h-4.982C114.72,224.218,113.946,224.982,113.346,226.21L113.346,226.21z M114.722,232.689l2.415-6.449
						l2.292,6.449H114.722z"/>
					<path id="path3017" fill="#FFFFFF" d="M140.406,225.351c-7.673-2.697-14.001-0.018-14.77,6.731
						c-0.167,7.535,7.086,10.804,14.775,7.692l-0.004-3.866c-4.51,5.446-9.799,2.563-10.253-3.112
						c-0.357-4.469,3.688-8.065,7.942-5.896c0.861,0.439,1.988,1.471,2.311,2.277L140.406,225.351L140.406,225.351z"/>
					<polygon id="polygon3019" fill="#FFFFFF" points="142.017,223.947 142.017,240.575 146.357,240.575 146.357,223.947 					"/>
					<path id="path3021" fill="#FFFFFF" d="M147.957,230.499c-0.978,1.071-1.164,1.897-0.403,2.976l4.778,7.054l5.227,0.031
						l-5.623-7.895c-0.58-0.592-0.525-1.28-0.09-1.636l5.636-7.02h-4.768L147.957,230.499L147.957,230.499z"/>
					<polygon id="polygon3023" fill="#FFFFFF" points="163.428,238.176 163.367,223.993 159.027,223.993 159.027,240.56
						168.869,240.56 168.93,238.176 					"/>
					<polygon id="polygon3025" fill="#FFFFFF" points="174.737,237.687 174.737,231.39 182.318,231.451 182.318,228.333
						174.737,228.333 174.799,223.26 182.318,223.26 182.318,220.264 170.091,220.264 170.091,240.498 182.807,240.498
						182.807,237.687 					"/>
				</g>
			</g>
		</g>
	</g>
	<g id="g12" transform="matrix(1.0023923,0,0,0.99072975,-0.29664807,0)">
		<path id="path14_1_" d="M594.932,162.577H203.751c-8.602,0-15.647-7.045-15.647-15.647V53.047
			c0-8.602,7.045-15.647,15.647-15.647h391.182c8.602,0,15.647,7.045,15.647,15.647v93.884
			C610.58,155.532,603.534,162.577,594.932,162.577z"/>
		<path id="path46" fill="#FFFFFF" d="M401.329,90.85c-7.35,0-13.355,5.594-13.355,13.312
			c0,7.655,6.005,13.308,13.355,13.308c7.366,0,13.371-5.653,13.371-13.308C414.699,96.444,408.695,90.85,401.329,90.85z
			 M401.329,112.228c-4.033,0-7.503-3.329-7.503-8.066c0-4.8,3.47-8.07,7.503-8.07s7.519,3.27,7.519,8.07
			C408.847,108.9,405.362,112.228,401.329,112.228z M372.189,90.85c-7.366,0-13.355,5.594-13.355,13.312
			c0,7.655,5.989,13.308,13.355,13.308c7.362,0,13.355-5.653,13.355-13.308C385.544,96.444,379.552,90.85,372.189,90.85z
			 M372.189,112.228c-4.037,0-7.519-3.329-7.519-8.066c0-4.8,3.482-8.07,7.519-8.07c4.033,0,7.503,3.27,7.503,8.07
			C379.692,108.9,376.223,112.228,372.189,112.228z M337.515,94.93v5.656h13.508c-0.395,3.161-1.451,5.484-3.071,7.104
			c-1.972,1.956-5.042,4.127-10.437,4.127c-8.313,0-14.822-6.709-14.822-15.021s6.509-15.021,14.822-15.021
			c4.495,0,7.765,1.756,10.179,4.033l3.986-3.986c-3.376-3.223-7.867-5.7-14.165-5.7c-11.399,0-20.979,9.275-20.979,20.674
			s9.58,20.674,20.979,20.674c6.161,0,10.789-2.019,14.427-5.805c3.728-3.728,4.89-8.97,4.89-13.202c0-1.314-0.11-2.523-0.305-3.532
			C356.527,94.93,337.515,94.93,337.515,94.93z M479.303,99.316c-1.099-2.977-4.491-8.465-11.399-8.465
			c-6.846,0-12.545,5.394-12.545,13.312c0,7.456,5.641,13.308,13.202,13.308c6.114,0,9.643-3.728,11.094-5.899l-4.538-3.024
			c-1.514,2.214-3.575,3.681-6.556,3.681c-2.961,0-5.085-1.357-6.447-4.033l17.803-7.366
			C479.917,100.829,479.303,99.316,479.303,99.316z M461.152,103.748c-0.153-5.132,3.986-7.761,6.951-7.761
			c2.324,0,4.295,1.162,4.952,2.824C473.056,98.811,461.152,103.748,461.152,103.748z M446.682,116.661h5.852V77.542h-5.852V116.661
			z M437.098,93.816h-0.196c-1.314-1.557-3.822-2.965-6.998-2.965c-6.666,0-12.76,5.852-12.76,13.355
			c0,7.46,6.095,13.265,12.76,13.265c3.176,0,5.684-1.42,6.998-3.024h0.196v1.909c0,5.089-2.719,7.824-7.104,7.824
			c-3.575,0-5.793-2.582-6.709-4.753l-5.089,2.124c1.467,3.528,5.351,7.871,11.798,7.871c6.861,0,12.651-4.037,12.651-13.86V91.66
			h-5.547V93.816z M430.405,112.228c-4.033,0-7.409-3.376-7.409-8.023c0-4.69,3.376-8.113,7.409-8.113
			c3.974,0,7.108,3.423,7.108,8.113C437.513,108.853,434.38,112.228,430.405,112.228z M506.701,77.542h-13.996v39.118h5.836v-14.822
			h8.16c6.482,0,12.839-4.69,12.839-12.15C519.54,82.233,513.167,77.542,506.701,77.542z M506.854,96.397h-8.313V82.984h8.313
			c4.358,0,6.846,3.618,6.846,6.705C513.7,92.716,511.212,96.397,506.854,96.397z M542.933,90.776
			c-4.217,0-8.602,1.862-10.405,5.989l5.179,2.171c1.115-2.171,3.165-2.875,5.332-2.875c3.028,0,6.099,1.819,6.145,5.031v0.411
			c-1.056-0.61-3.317-1.514-6.099-1.514c-5.578,0-11.262,3.071-11.262,8.802c0,5.242,4.569,8.618,9.705,8.618
			c3.927,0,6.095-1.772,7.456-3.834h0.199v3.024h5.637v-15.006C554.821,94.657,549.641,90.776,542.933,90.776z M542.228,112.213
			c-1.909,0-4.569-0.947-4.569-3.313c0-3.028,3.317-4.19,6.188-4.19c2.57,0,3.775,0.567,5.336,1.314
			C548.726,109.647,545.608,112.213,542.228,112.213z M575.358,91.633l-6.709,16.958h-0.2l-6.936-16.958h-6.294l10.421,23.698
			l-5.946,13.187h6.099l16.058-36.885C581.851,91.633,575.358,91.633,575.358,91.633z M522.748,116.661h5.852V77.542h-5.852V116.661
			z"/>
		<g id="g48">

				<linearGradient id="path64_1_" gradientUnits="userSpaceOnUse" x1="265.4379" y1="-492.5612" x2="212.9181" y2="-440.0414" gradientTransform="matrix(1.0024 0 0 -0.9907 -9.7514 -352.6712)">
				<stop  offset="0" style="stop-color:#00A0FF"/>
				<stop  offset="0.0066" style="stop-color:#00A1FF"/>
				<stop  offset="0.2601" style="stop-color:#00BEFF"/>
				<stop  offset="0.5122" style="stop-color:#00D2FF"/>
				<stop  offset="0.7604" style="stop-color:#00DFFF"/>
				<stop  offset="1" style="stop-color:#00E3FF"/>
			</linearGradient>
			<path id="path64" fill="url(#path64_1_)" d="M220.759,60.991
				c-0.919,0.962-1.451,2.461-1.451,4.401V134.6c0,1.94,0.532,3.438,1.451,4.401l0.227,0.211l38.782-38.766v-0.915l-38.782-38.766
				L220.759,60.991z"/>
		</g>
		<g id="g66">

				<linearGradient id="path78_1_" gradientUnits="userSpaceOnUse" x1="303.013" y1="-456.8951" x2="227.2899" y2="-456.8951" gradientTransform="matrix(1.0024 0 0 -0.9907 -9.7514 -352.6712)">
				<stop  offset="0" style="stop-color:#FFE000"/>
				<stop  offset="0.4087" style="stop-color:#FFBD00"/>
				<stop  offset="0.7754" style="stop-color:#FFA500"/>
				<stop  offset="1" style="stop-color:#FF9C00"/>
			</linearGradient>
			<path id="path78" fill="url(#path78_1_)" d="M272.681,113.375l-12.913-12.929v-0.915
				l12.929-12.929l0.289,0.168l15.311,8.712c4.37,2.472,4.37,6.541,0,9.028l-15.311,8.696
				C272.986,113.206,272.681,113.375,272.681,113.375z"/>
		</g>
		<g id="g80">

				<linearGradient id="path88_1_" gradientUnits="userSpaceOnUse" x1="248.8406" y1="-476.0004" x2="177.6195" y2="-404.7794" gradientTransform="matrix(1.0024 0 0 -0.9907 -9.7514 -352.6712)">
				<stop  offset="0" style="stop-color:#FF3A44"/>
				<stop  offset="1" style="stop-color:#C31162"/>
			</linearGradient>
			<path id="path88" fill="url(#path88_1_)" d="M272.986,113.206l-13.218-13.218l-39.009,39.013
				c1.451,1.526,3.818,1.709,6.509,0.184L272.986,113.206"/>
		</g>
		<g id="g90">

				<linearGradient id="path104_1_" gradientUnits="userSpaceOnUse" x1="194.12" y1="-493.1619" x2="225.9234" y2="-461.3588" gradientTransform="matrix(1.0024 0 0 -0.9907 -9.7514 -352.6712)">
				<stop  offset="0" style="stop-color:#32A071"/>
				<stop  offset="0.0685" style="stop-color:#2DA771"/>
				<stop  offset="0.4762" style="stop-color:#15CF74"/>
				<stop  offset="0.8009" style="stop-color:#06E775"/>
				<stop  offset="1" style="stop-color:#00F076"/>
			</linearGradient>
			<path id="path104" fill="url(#path104_1_)" d="M272.986,86.77l-45.717-25.978
				c-2.691-1.51-5.058-1.326-6.509,0.199l39.009,38.997L272.986,86.77z"/>
		</g>
	</g>
	<g>
		<path id="path14_3_" d="M596.059,312.009H203.941c-8.623,0-15.685-6.98-15.685-15.502v-93.013
			c0-8.522,7.062-15.502,15.685-15.502h392.118c8.623,0,15.685,6.98,15.685,15.502v93.013
			C611.743,305.029,604.681,312.009,596.059,312.009z"/>
		<g id="g10" transform="matrix(1.3333 0 0 -1.3333 0 746.67)">
			<g id="g12_1_" transform="scale(.14213)">
				<path id="path14_2_" fill="#DB202C" d="M2353.055,2825.872h-61.548v-344.187c55.934-1.925,111.636-4.747,167.105-8.445v60.641
					c-35.089,2.341-70.279,4.325-105.557,5.967V2825.872z M2842.144,2825.838h-67.598L2730,2722.553l-40.062,103.285h-66.581
					l71.554-184.565l-78.131-181.058c21.606-2.108,43.162-4.357,64.688-6.734l45.424,105.278l44.995-116.051
					c23.439-3.013,46.809-6.157,70.149-9.487l0.09,0.039L2762,2640.03L2842.144,2825.838z M2080.273,2484.69l61.546,0.014v140.009
					h83.427v60.641h-83.427v79.299h110.261v61.186h-171.81L2080.273,2484.69z M1850.453,2764.648h64.409v-283.565
					c20.48,0.773,41.001,1.41,61.544,1.948v281.622h64.411v61.19h-190.366L1850.453,2764.648z M1640.046,2463.453
					c56.723,5.154,113.709,9.402,170.952,12.699v60.646c-36.574-2.113-73.049-4.615-109.414-7.475v91.808
					c23.861,0.238,55.279,0.966,83.112,0.62v60.646c-22.236,0.054-57.976-0.311-83.112-0.633v82.881h109.414v61.186h-170.952
					V2463.453z M1519.311,2603.641l-80.152,222.196h-58.491v-392.63c20.476,2.914,40.989,5.706,61.544,8.383v213.516l71.269-204.746
					c22.418,2.6,44.875,5.063,67.374,7.377v368.104h-61.548L1519.311,2603.641z M2509.388,2469.582
					c20.549-1.572,41.059-3.259,61.548-5.083v361.338h-61.548V2469.582"/>
			</g>
		</g>
	</g>
</g>
<g>
</g>
<g>
</g>
<g>
</g>
<g>
</g>
<g>
</g>
<g>
</g>
</svg>
