<?xml version="1.0" encoding="utf-8"?>
<!-- Generator: Adobe Illustrator 16.0.0, SVG Export Plug-In . SVG Version: 6.00 Build 0)  -->
<!DOCTYPE svg PUBLIC "-//W3C//DTD SVG 1.1//EN" "http://www.w3.org/Graphics/SVG/1.1/DTD/svg11.dtd">
<svg version="1.1" id="Layer_1" xmlns="http://www.w3.org/2000/svg" xmlns:xlink="http://www.w3.org/1999/xlink" x="0px" y="0px"
	 width="761.585px" height="356.242px" viewBox="0 0 761.585 356.242" enable-background="new 0 0 761.585 356.242"
	 xml:space="preserve">
<line fill="none" stroke="#3499CD" stroke-width="4" stroke-miterlimit="10" stroke-dasharray="4" x1="363.637" y1="200" x2="300.985" y2="200"/>
<line fill="none" stroke="#6FC498" stroke-width="4" stroke-miterlimit="10" stroke-dasharray="4" x1="261.911" y1="145" x2="261.911" y2="0"/>
<line fill="none" stroke="#6FC498" stroke-width="4" stroke-miterlimit="10" stroke-dasharray="4" x1="440.366" y1="199.576" x2="496.834" y2="199.576"/>
<g>
	<g>
		<rect x="52" y="145" fill="none" stroke="#996699" stroke-width="4" stroke-linecap="square" width="39.639" height="50"/>
	</g>
	<line fill="none" stroke="#996699" stroke-width="4" stroke-linecap="square" x1="62.488" y1="154.681" x2="81.153" y2="154.681"/>
	<line fill="none" stroke="#996699" stroke-width="4" stroke-linecap="square" x1="62.488" y1="164.681" x2="81.153" y2="164.681"/>
	<line fill="none" stroke="#996699" stroke-width="4" stroke-linecap="square" x1="62.488" y1="174.681" x2="81.153" y2="174.681"/>
	<g>
		<rect x="102" y="145" fill="none" stroke="#996699" stroke-width="4" stroke-linecap="square" width="39.639" height="50"/>
	</g>
	
		<line fill="none" stroke="#996699" stroke-width="4" stroke-linecap="square" x1="112.488" y1="154.681" x2="131.153" y2="154.681"/>
	
		<line fill="none" stroke="#996699" stroke-width="4" stroke-linecap="square" x1="112.488" y1="164.681" x2="131.153" y2="164.681"/>
	
		<line fill="none" stroke="#996699" stroke-width="4" stroke-linecap="square" x1="112.488" y1="174.681" x2="131.153" y2="174.681"/>
	<g>
		<rect x="102" y="205" fill="none" stroke="#996699" stroke-width="4" stroke-linecap="square" width="39.639" height="50"/>
	</g>
	
		<line fill="none" stroke="#996699" stroke-width="4" stroke-linecap="square" x1="112.488" y1="214.682" x2="131.153" y2="214.682"/>
	
		<line fill="none" stroke="#996699" stroke-width="4" stroke-linecap="square" x1="112.488" y1="224.682" x2="131.153" y2="224.682"/>
	
		<line fill="none" stroke="#996699" stroke-width="4" stroke-linecap="square" x1="112.488" y1="234.682" x2="131.153" y2="234.682"/>
	<g>
		<rect x="52" y="205" fill="none" stroke="#996699" stroke-width="4" stroke-linecap="square" width="39.639" height="50"/>
	</g>
	<line fill="none" stroke="#996699" stroke-width="4" stroke-linecap="square" x1="62.488" y1="214.682" x2="81.153" y2="214.682"/>
	<line fill="none" stroke="#996699" stroke-width="4" stroke-linecap="square" x1="62.488" y1="224.682" x2="81.153" y2="224.682"/>
	<line fill="none" stroke="#996699" stroke-width="4" stroke-linecap="square" x1="62.488" y1="234.682" x2="81.153" y2="234.682"/>
</g>
<line fill="none" stroke="#EF3B68" stroke-width="4" stroke-miterlimit="10" stroke-dasharray="4" x1="402.897" y1="73.666" x2="402.897" y2="149"/>
<line fill="none" stroke="#996699" stroke-width="4" stroke-miterlimit="10" stroke-dasharray="4" x1="226.319" y1="200" x2="150.985" y2="200"/>
<g>
	<rect x="337.563" y="28.999" fill="none" width="130.668" height="37.667"/>
	<path fill="#EF3B68" d="M362.12,36.063c0.358,1.23,0.756,2.618,1.189,4.163c0.436,1.545,0.898,3.143,1.394,4.792
		c0.494,1.65,0.996,3.3,1.505,4.95c0.509,1.65,1.004,3.181,1.483,4.59c0.392-1.53,0.791-3.195,1.196-4.995
		c0.407-1.8,0.791-3.66,1.153-5.58c0.361-1.919,0.715-3.832,1.063-5.737c0.347-1.905,0.671-3.742,0.973-5.513h7.292
		c-1.056,5.22-2.271,10.515-3.645,15.885c-1.374,5.37-2.859,10.47-4.459,15.3h-6.421c-1.049-2.88-2.065-5.902-3.055-9.067
		s-1.961-6.337-2.919-9.518c-0.961,3.18-1.923,6.353-2.884,9.518s-1.968,6.188-3.02,9.067h-6.416c-1.598-4.83-3.081-9.93-4.451-15.3
		c-1.371-5.37-2.583-10.665-3.638-15.885h7.604c0.301,1.771,0.633,3.608,0.994,5.513c0.361,1.905,0.738,3.818,1.132,5.737
		c0.392,1.92,0.791,3.78,1.197,5.58s0.821,3.464,1.243,4.995c0.541-1.47,1.066-3.029,1.578-4.68c0.511-1.649,1.007-3.3,1.487-4.95
		c0.48-1.649,0.925-3.24,1.33-4.77c0.404-1.53,0.773-2.895,1.104-4.095H362.12z"/>
	<path fill="#EF3B68" d="M405.995,36.063c0.358,1.23,0.756,2.618,1.189,4.163c0.436,1.545,0.898,3.143,1.394,4.792
		c0.494,1.65,0.996,3.3,1.505,4.95c0.509,1.65,1.004,3.181,1.483,4.59c0.392-1.53,0.791-3.195,1.196-4.995
		c0.407-1.8,0.791-3.66,1.153-5.58c0.361-1.919,0.715-3.832,1.063-5.737c0.347-1.905,0.671-3.742,0.973-5.513h7.292
		c-1.056,5.22-2.271,10.515-3.645,15.885c-1.374,5.37-2.859,10.47-4.459,15.3h-6.421c-1.049-2.88-2.065-5.902-3.055-9.067
		s-1.961-6.337-2.919-9.518c-0.961,3.18-1.923,6.353-2.884,9.518s-1.968,6.188-3.02,9.067h-6.416c-1.598-4.83-3.081-9.93-4.451-15.3
		c-1.371-5.37-2.583-10.665-3.638-15.885h7.604c0.301,1.771,0.633,3.608,0.994,5.513c0.361,1.905,0.738,3.818,1.132,5.737
		c0.392,1.92,0.791,3.78,1.197,5.58s0.821,3.464,1.243,4.995c0.541-1.47,1.066-3.029,1.578-4.68c0.511-1.649,1.007-3.3,1.487-4.95
		c0.48-1.649,0.925-3.24,1.33-4.77c0.404-1.53,0.773-2.895,1.104-4.095H405.995z"/>
	<path fill="#EF3B68" d="M449.87,36.063c0.358,1.23,0.756,2.618,1.189,4.163c0.436,1.545,0.898,3.143,1.394,4.792
		c0.494,1.65,0.996,3.3,1.505,4.95c0.509,1.65,1.004,3.181,1.483,4.59c0.392-1.53,0.791-3.195,1.196-4.995
		c0.407-1.8,0.791-3.66,1.153-5.58c0.361-1.919,0.715-3.832,1.063-5.737c0.347-1.905,0.671-3.742,0.973-5.513h7.292
		c-1.056,5.22-2.271,10.515-3.645,15.885c-1.374,5.37-2.859,10.47-4.459,15.3h-6.421c-1.049-2.88-2.065-5.902-3.055-9.067
		s-1.961-6.337-2.919-9.518c-0.961,3.18-1.923,6.353-2.884,9.518s-1.968,6.188-3.02,9.067h-6.416c-1.598-4.83-3.081-9.93-4.451-15.3
		c-1.371-5.37-2.583-10.665-3.638-15.885h7.604c0.301,1.771,0.633,3.608,0.994,5.513c0.361,1.905,0.738,3.818,1.132,5.737
		c0.392,1.92,0.791,3.78,1.197,5.58s0.821,3.464,1.243,4.995c0.541-1.47,1.066-3.029,1.578-4.68c0.511-1.649,1.007-3.3,1.487-4.95
		c0.48-1.649,0.925-3.24,1.33-4.77c0.404-1.53,0.773-2.895,1.104-4.095H449.87z"/>
</g>
<g>
	<path fill="none" d="M287.572,207.098"/>
</g>
<g>
	<path fill="none" d="M239.625,178.328"/>
</g>
<g>
	<path fill="none" d="M239.625,207.098"/>
</g>
<g>
	<path fill="none" d="M287.572,178.328"/>
</g>
<line fill="none" stroke="#6FC498" stroke-width="4" stroke-miterlimit="10" stroke-dasharray="4" x1="531.69" y1="143.248" x2="531.69" y2="67.914"/>
<g>
	
		<rect x="661.899" y="209.012" fill="none" stroke="#EF3B68" stroke-width="4" stroke-miterlimit="10" width="17.107" height="10.687"/>
	
		<rect x="678.635" y="209.012" fill="none" stroke="#EF3B68" stroke-width="4" stroke-miterlimit="10" width="17.106" height="10.687"/>
	
		<rect x="695.37" y="209.012" fill="none" stroke="#EF3B68" stroke-width="4" stroke-miterlimit="10" width="17.106" height="10.687"/>
	
		<rect x="712.104" y="209.012" fill="none" stroke="#EF3B68" stroke-width="4" stroke-miterlimit="10" width="17.107" height="10.687"/>
	
		<rect x="673.057" y="220.168" fill="none" stroke="#EF3B68" stroke-width="4" stroke-miterlimit="10" width="17.106" height="10.686"/>
	
		<rect x="689.792" y="220.168" fill="none" stroke="#EF3B68" stroke-width="4" stroke-miterlimit="10" width="17.106" height="10.686"/>
	
		<rect x="706.526" y="220.168" fill="none" stroke="#EF3B68" stroke-width="4" stroke-miterlimit="10" width="17.107" height="10.686"/>
	
		<rect x="723.262" y="220.168" fill="none" stroke="#EF3B68" stroke-width="4" stroke-miterlimit="10" width="17.106" height="10.686"/>
	
		<rect x="717.684" y="231.324" fill="none" stroke="#EF3B68" stroke-width="4" stroke-miterlimit="10" width="17.105" height="10.686"/>
	
		<rect x="700.948" y="231.324" fill="none" stroke="#EF3B68" stroke-width="4" stroke-miterlimit="10" width="17.107" height="10.686"/>
	
		<rect x="684.213" y="231.324" fill="none" stroke="#EF3B68" stroke-width="4" stroke-miterlimit="10" width="17.106" height="10.686"/>
	
		<rect x="667.479" y="231.324" fill="none" stroke="#EF3B68" stroke-width="4" stroke-miterlimit="10" width="17.106" height="10.686"/>
	
		<rect x="673.057" y="242.48" fill="none" stroke="#EF3B68" stroke-width="4" stroke-miterlimit="10" width="17.106" height="10.688"/>
	
		<rect x="689.792" y="242.48" fill="none" stroke="#EF3B68" stroke-width="4" stroke-miterlimit="10" width="17.106" height="10.688"/>
	
		<rect x="706.526" y="242.48" fill="none" stroke="#EF3B68" stroke-width="4" stroke-miterlimit="10" width="17.107" height="10.688"/>
	
		<rect x="723.262" y="242.48" fill="none" stroke="#EF3B68" stroke-width="4" stroke-miterlimit="10" width="17.106" height="10.688"/>
</g>
<g>
	<path fill="none" stroke="#EF3B68" stroke-width="4" stroke-miterlimit="10" d="M719.658,181.862
		c-7.205,17.394-31.844,17.394-39.049,0c0-12.844,0-25.689,0-38.533c13.017,0,26.032,0,39.049,0
		C719.658,156.173,719.658,169.018,719.658,181.862z"/>
</g>
<line fill="none" stroke="#EF3B68" stroke-width="5" stroke-miterlimit="10" x1="700.134" y1="152.599" x2="700.134" y2="172.591"/>
<line fill="none" stroke="#EF3B68" stroke-width="4" stroke-miterlimit="10" x1="710.13" y1="162.595" x2="690.138" y2="162.595"/>
<line fill="none" stroke="#EF3B68" stroke-width="4" stroke-miterlimit="10" stroke-dasharray="4" x1="653.022" y1="198.248" x2="577.688" y2="198.248"/>
<g>
	<g>
		<rect x="499.688" y="34.118" fill="none" stroke="#6FC498" stroke-width="4" stroke-miterlimit="10" width="64" height="24.466"/>
		
			<rect x="511.296" y="7.915" fill="none" stroke="#6FC498" stroke-width="4" stroke-miterlimit="10" width="40.783" height="25.028"/>
		<line fill="none" stroke="#6FC498" stroke-width="4" stroke-miterlimit="10" x1="517.567" y1="16.248" x2="545.81" y2="16.248"/>
		<line fill="none" stroke="#6FC498" stroke-width="4" stroke-miterlimit="10" x1="517.567" y1="24.248" x2="545.81" y2="24.248"/>
	</g>
	<line fill="none" stroke="#6FC498" stroke-width="4" stroke-miterlimit="10" x1="505.786" y1="41.581" x2="512.688" y2="41.581"/>
</g>
<g>
	<g>
		<g>
			
				<line fill="none" stroke="#3499CD" stroke-width="5" stroke-miterlimit="10" x1="261.686" y1="356.242" x2="261.686" y2="267.846"/>
			<polygon fill="#3499CD" points="258.443,274.115 255.443,266.145 267.928,266.145 264.928,274.115 			"/>
			<polyline fill="#3499CD" stroke="#1E314B" stroke-miterlimit="10" points="268.928,252.717 268.928,264.115 267.928,266.145 
				255.443,266.145 254.443,264.115 254.443,252.717 			"/>
			<path fill="#FFCE0C" stroke="#F89939" stroke-width="0.869" stroke-miterlimit="10" d="M254.443,264.229"/>
			<line fill="none" stroke="#1E314B" stroke-miterlimit="10" x1="267.928" y1="267.604" x2="255.428" y2="267.604"/>
			<line fill="none" stroke="#1E314B" stroke-miterlimit="10" x1="267.178" y1="269.104" x2="256.178" y2="269.104"/>
			<line fill="none" stroke="#1E314B" stroke-miterlimit="10" x1="266.428" y1="270.604" x2="256.928" y2="270.604"/>
			<line fill="none" stroke="#1E314B" stroke-miterlimit="10" x1="265.928" y1="272.104" x2="257.428" y2="272.104"/>
			<rect x="258.055" y="273.283" fill="#1E314B" width="7.186" height="3.486"/>
		</g>
		<g>
			
				<rect x="223.501" y="151.376" fill="#FFFFFF" stroke="#000000" stroke-width="0.4404" stroke-miterlimit="10" width="77.064" height="98.719"/>
			<g>
				<g>
					<g>
						<path fill="#010101" stroke="#FFFFFF" stroke-width="0.1815" stroke-miterlimit="10" d="M261.718,192.592"/>
					</g>
					<g>
						<path fill="#010101" stroke="#FFFFFF" stroke-width="0.1815" stroke-miterlimit="10" d="M261.718,192.592"/>
					</g>
					<g>
						<path fill="#010101" stroke="#FFFFFF" stroke-width="0.1815" stroke-miterlimit="10" d="M261.718,192.592"/>
					</g>
					<g>
						<path fill="#010101" stroke="#FFFFFF" stroke-width="0.1815" stroke-miterlimit="10" d="M261.718,192.592"/>
					</g>
				</g>
				<polyline fill="#3499CD" points="284.403,205.635 273.062,212.439 261.72,219.244 261.72,205.635 261.72,192.025 				"/>
				<polyline fill="#996699" points="284.403,205.635 284.403,192.025 284.403,178.415 273.075,185.219 261.72,192.025 				"/>
				<polyline fill="#F89939" points="261.722,164.803 250.378,171.609 239.036,178.415 250.38,185.219 261.722,192.025 				"/>
				<polyline fill="#EF3B68" points="261.72,164.803 273.062,171.609 284.403,178.415 273.062,185.219 261.72,192.025 				"/>
				<polyline fill="#FFCE0C" points="239.036,205.635 250.38,212.439 261.722,219.244 261.722,205.635 261.722,192.025 				"/>
				<polyline fill="#6FC498" points="239.036,205.635 239.036,192.025 239.036,178.415 250.378,185.219 261.72,192.025 				"/>
				<g>
					<g>
						<g>
							
								<line fill="none" stroke="#FFFFFF" stroke-width="0.5444" stroke-miterlimit="10" x1="261.724" y1="164.803" x2="261.724" y2="165.438"/>
							
								<line fill="none" stroke="#FFFFFF" stroke-width="0.5444" stroke-miterlimit="10" stroke-dasharray="1.2358,1.2358" x1="261.723" y1="166.674" x2="261.718" y2="190.772"/>
							
								<line fill="none" stroke="#FFFFFF" stroke-width="0.5444" stroke-miterlimit="10" x1="261.718" y1="191.39" x2="261.718" y2="192.025"/>
						</g>
					</g>
					<g>
						<g>
							
								<line fill="none" stroke="#FFFFFF" stroke-width="0.5444" stroke-miterlimit="10" x1="261.718" y1="192.025" x2="262.262" y2="192.352"/>
							
								<line fill="none" stroke="#FFFFFF" stroke-width="0.5444" stroke-miterlimit="10" stroke-dasharray="1.3255,1.3255" x1="263.399" y1="193.034" x2="283.291" y2="204.967"/>
							
								<line fill="none" stroke="#FFFFFF" stroke-width="0.5444" stroke-miterlimit="10" x1="283.859" y1="205.308" x2="284.403" y2="205.635"/>
						</g>
					</g>
					<g>
						<g>
							
								<line fill="none" stroke="#FFFFFF" stroke-width="0.5444" stroke-miterlimit="10" x1="261.718" y1="192.025" x2="261.173" y2="192.352"/>
							
								<line fill="none" stroke="#FFFFFF" stroke-width="0.5444" stroke-miterlimit="10" stroke-dasharray="1.3253,1.3253" x1="260.037" y1="193.034" x2="240.149" y2="204.967"/>
							
								<line fill="none" stroke="#FFFFFF" stroke-width="0.5444" stroke-miterlimit="10" x1="239.581" y1="205.308" x2="239.036" y2="205.635"/>
						</g>
					</g>
				</g>
				<g>
					
						<line fill="none" stroke="#FFFFFF" stroke-width="0.5444" stroke-miterlimit="10" x1="261.724" y1="219.244" x2="261.718" y2="192.025"/>
					
						<line fill="none" stroke="#FFFFFF" stroke-width="0.5444" stroke-miterlimit="10" x1="261.718" y1="192.025" x2="284.403" y2="178.415"/>
					
						<line fill="none" stroke="#FFFFFF" stroke-width="0.5444" stroke-miterlimit="10" x1="261.718" y1="192.025" x2="239.036" y2="178.415"/>
				</g>
			</g>
			
				<rect x="227.905" y="252.762" fill="#FFFFFF" stroke="#000000" stroke-width="0.4404" stroke-miterlimit="10" width="67.943" height="5.537"/>
			
				<rect x="227.905" y="143.299" fill="#FFFFFF" stroke="#000000" stroke-width="0.4404" stroke-miterlimit="10" width="67.943" height="5.536"/>
			
				<line fill="none" stroke="#000000" stroke-width="4.4148" stroke-miterlimit="10" x1="222.003" y1="149.146" x2="301.849" y2="149.146"/>
			
				<line fill="none" stroke="#000000" stroke-width="4.4148" stroke-miterlimit="10" x1="222.003" y1="252.328" x2="301.849" y2="252.328"/>
			<g>
				<path d="M255.396,224.857h1.766v7.848h-1.766v-3.33h-2.967v3.33h-1.766v-7.848h1.766v3h2.967V224.857z"/>
				<path d="M262.042,232.863c-0.551,0-1.025-0.078-1.426-0.232s-0.73-0.369-0.992-0.645c-0.26-0.275-0.451-0.604-0.576-0.986
					c-0.125-0.381-0.188-0.801-0.188-1.262v-4.881h1.768v4.732c0,0.318,0.035,0.588,0.107,0.811c0.07,0.223,0.17,0.404,0.293,0.543
					c0.125,0.141,0.275,0.24,0.453,0.301s0.373,0.09,0.584,0.09c0.43,0,0.779-0.131,1.047-0.396
					c0.268-0.264,0.402-0.713,0.402-1.348v-4.732h1.766v4.881c0,0.461-0.063,0.883-0.191,1.268s-0.324,0.715-0.59,0.992
					c-0.264,0.275-0.6,0.488-1.008,0.639C263.085,232.787,262.601,232.863,262.042,232.863z"/>
				<path d="M269.595,232.807c-0.43,0-0.857-0.014-1.285-0.039c-0.426-0.027-0.869-0.09-1.33-0.188v-7.609
					c0.363-0.068,0.76-0.119,1.189-0.152c0.43-0.035,0.83-0.051,1.199-0.051c0.5,0,0.957,0.035,1.377,0.107
					c0.418,0.07,0.779,0.193,1.082,0.367c0.301,0.174,0.537,0.402,0.707,0.686s0.254,0.633,0.254,1.047
					c0,0.627-0.301,1.121-0.904,1.484c0.498,0.188,0.838,0.445,1.018,0.77c0.182,0.324,0.271,0.691,0.271,1.098
					c0,0.824-0.299,1.443-0.898,1.857C271.673,232.6,270.78,232.807,269.595,232.807z M268.7,229.285v2.027
					c0.129,0.016,0.268,0.025,0.42,0.033c0.15,0.008,0.316,0.012,0.498,0.012c0.527,0,0.955-0.076,1.279-0.227
					s0.486-0.43,0.486-0.838c0-0.363-0.135-0.621-0.406-0.775s-0.662-0.232-1.166-0.232H268.7z M268.7,227.938h0.861
					c0.543,0,0.932-0.07,1.166-0.209c0.234-0.141,0.352-0.365,0.352-0.674c0-0.318-0.121-0.541-0.363-0.668
					c-0.24-0.129-0.596-0.193-1.064-0.193c-0.15,0-0.313,0.002-0.486,0.006s-0.328,0.014-0.465,0.029V227.938z"/>
			</g>
			<rect x="225.835" y="192.023" width="2.832" height="15.129"/>
			<rect x="295.665" y="192.023" width="2.832" height="15.129"/>
		</g>
	</g>
	<g>
		<g>
			
				<line fill="none" stroke="#3499CD" stroke-width="5" stroke-miterlimit="10" x1="397.23" y1="356.242" x2="397.23" y2="267.846"/>
			<polygon fill="#3499CD" points="393.988,274.115 390.988,266.145 403.473,266.145 400.473,274.115 			"/>
			<polyline fill="#3499CD" stroke="#1E314B" stroke-miterlimit="10" points="404.473,252.717 404.473,264.115 403.473,266.145 
				390.988,266.145 389.988,264.115 389.988,252.717 			"/>
			<path fill="#FFCE0C" stroke="#F89939" stroke-width="0.869" stroke-miterlimit="10" d="M389.988,264.229"/>
			<line fill="none" stroke="#1E314B" stroke-miterlimit="10" x1="403.473" y1="267.604" x2="390.973" y2="267.604"/>
			<line fill="none" stroke="#1E314B" stroke-miterlimit="10" x1="402.723" y1="269.104" x2="391.723" y2="269.104"/>
			<line fill="none" stroke="#1E314B" stroke-miterlimit="10" x1="401.973" y1="270.604" x2="392.473" y2="270.604"/>
			<line fill="none" stroke="#1E314B" stroke-miterlimit="10" x1="401.473" y1="272.104" x2="392.973" y2="272.104"/>
			<rect x="393.6" y="273.283" fill="#1E314B" width="7.186" height="3.486"/>
		</g>
		<g>
			
				<rect x="359.046" y="151.376" fill="#FFFFFF" stroke="#000000" stroke-width="0.4404" stroke-miterlimit="10" width="77.064" height="98.719"/>
			<g>
				<g>
					<g>
						<path fill="#010101" stroke="#FFFFFF" stroke-width="0.1815" stroke-miterlimit="10" d="M397.263,192.592"/>
					</g>
					<g>
						<path fill="#010101" stroke="#FFFFFF" stroke-width="0.1815" stroke-miterlimit="10" d="M397.263,192.592"/>
					</g>
					<g>
						<path fill="#010101" stroke="#FFFFFF" stroke-width="0.1815" stroke-miterlimit="10" d="M397.263,192.592"/>
					</g>
					<g>
						<path fill="#010101" stroke="#FFFFFF" stroke-width="0.1815" stroke-miterlimit="10" d="M397.263,192.592"/>
					</g>
				</g>
				<polyline fill="#3499CD" points="419.948,205.635 408.606,212.439 397.265,219.244 397.265,205.635 397.265,192.025 				"/>
				<polyline fill="#996699" points="419.948,205.635 419.948,192.025 419.948,178.415 408.62,185.219 397.265,192.025 				"/>
				<polyline fill="#F89939" points="397.267,164.803 385.923,171.609 374.581,178.415 385.925,185.219 397.267,192.025 				"/>
				<polyline fill="#EF3B68" points="397.265,164.803 408.606,171.609 419.948,178.415 408.606,185.219 397.265,192.025 				"/>
				<polyline fill="#FFCE0C" points="374.581,205.635 385.925,212.439 397.267,219.244 397.267,205.635 397.267,192.025 				"/>
				<polyline fill="#6FC498" points="374.581,205.635 374.581,192.025 374.581,178.415 385.923,185.219 397.265,192.025 				"/>
				<g>
					<g>
						<g>
							
								<line fill="none" stroke="#FFFFFF" stroke-width="0.5444" stroke-miterlimit="10" x1="397.269" y1="164.803" x2="397.269" y2="165.438"/>
							
								<line fill="none" stroke="#FFFFFF" stroke-width="0.5444" stroke-miterlimit="10" stroke-dasharray="1.2358,1.2358" x1="397.269" y1="166.674" x2="397.263" y2="190.772"/>
							
								<line fill="none" stroke="#FFFFFF" stroke-width="0.5444" stroke-miterlimit="10" x1="397.263" y1="191.39" x2="397.263" y2="192.025"/>
						</g>
					</g>
					<g>
						<g>
							
								<line fill="none" stroke="#FFFFFF" stroke-width="0.5444" stroke-miterlimit="10" x1="397.263" y1="192.025" x2="397.808" y2="192.352"/>
							
								<line fill="none" stroke="#FFFFFF" stroke-width="0.5444" stroke-miterlimit="10" stroke-dasharray="1.3255,1.3255" x1="398.944" y1="193.034" x2="418.835" y2="204.967"/>
							
								<line fill="none" stroke="#FFFFFF" stroke-width="0.5444" stroke-miterlimit="10" x1="419.403" y1="205.308" x2="419.948" y2="205.635"/>
						</g>
					</g>
					<g>
						<g>
							
								<line fill="none" stroke="#FFFFFF" stroke-width="0.5444" stroke-miterlimit="10" x1="397.263" y1="192.025" x2="396.718" y2="192.352"/>
							
								<line fill="none" stroke="#FFFFFF" stroke-width="0.5444" stroke-miterlimit="10" stroke-dasharray="1.3253,1.3253" x1="395.582" y1="193.034" x2="375.694" y2="204.967"/>
							
								<line fill="none" stroke="#FFFFFF" stroke-width="0.5444" stroke-miterlimit="10" x1="375.126" y1="205.308" x2="374.581" y2="205.635"/>
						</g>
					</g>
				</g>
				<g>
					
						<line fill="none" stroke="#FFFFFF" stroke-width="0.5444" stroke-miterlimit="10" x1="397.269" y1="219.244" x2="397.263" y2="192.025"/>
					
						<line fill="none" stroke="#FFFFFF" stroke-width="0.5444" stroke-miterlimit="10" x1="397.263" y1="192.025" x2="419.948" y2="178.415"/>
					
						<line fill="none" stroke="#FFFFFF" stroke-width="0.5444" stroke-miterlimit="10" x1="397.263" y1="192.025" x2="374.581" y2="178.415"/>
				</g>
			</g>
			
				<rect x="363.45" y="252.762" fill="#FFFFFF" stroke="#000000" stroke-width="0.4404" stroke-miterlimit="10" width="67.943" height="5.537"/>
			
				<rect x="363.45" y="143.299" fill="#FFFFFF" stroke="#000000" stroke-width="0.4404" stroke-miterlimit="10" width="67.943" height="5.536"/>
			
				<line fill="none" stroke="#000000" stroke-width="4.4148" stroke-miterlimit="10" x1="357.548" y1="149.146" x2="437.394" y2="149.146"/>
			
				<line fill="none" stroke="#000000" stroke-width="4.4148" stroke-miterlimit="10" x1="357.548" y1="252.328" x2="437.394" y2="252.328"/>
			<g>
				<path d="M390.94,224.857h1.766v7.848h-1.766v-3.33h-2.967v3.33h-1.766v-7.848h1.766v3h2.967V224.857z"/>
				<path d="M397.587,232.863c-0.551,0-1.025-0.078-1.426-0.232s-0.73-0.369-0.992-0.645c-0.26-0.275-0.451-0.604-0.576-0.986
					c-0.125-0.381-0.188-0.801-0.188-1.262v-4.881h1.768v4.732c0,0.318,0.035,0.588,0.107,0.811c0.07,0.223,0.17,0.404,0.293,0.543
					c0.125,0.141,0.275,0.24,0.453,0.301s0.373,0.09,0.584,0.09c0.43,0,0.779-0.131,1.047-0.396
					c0.268-0.264,0.402-0.713,0.402-1.348v-4.732h1.766v4.881c0,0.461-0.063,0.883-0.191,1.268s-0.324,0.715-0.59,0.992
					c-0.264,0.275-0.6,0.488-1.008,0.639C398.63,232.787,398.146,232.863,397.587,232.863z"/>
				<path d="M405.14,232.807c-0.43,0-0.857-0.014-1.285-0.039c-0.426-0.027-0.869-0.09-1.33-0.188v-7.609
					c0.363-0.068,0.76-0.119,1.189-0.152c0.43-0.035,0.83-0.051,1.199-0.051c0.5,0,0.957,0.035,1.377,0.107
					c0.418,0.07,0.779,0.193,1.082,0.367c0.301,0.174,0.537,0.402,0.707,0.686s0.254,0.633,0.254,1.047
					c0,0.627-0.301,1.121-0.904,1.484c0.498,0.188,0.838,0.445,1.018,0.77c0.182,0.324,0.271,0.691,0.271,1.098
					c0,0.824-0.299,1.443-0.898,1.857C407.218,232.6,406.325,232.807,405.14,232.807z M404.245,229.285v2.027
					c0.129,0.016,0.268,0.025,0.42,0.033c0.15,0.008,0.316,0.012,0.498,0.012c0.527,0,0.955-0.076,1.279-0.227
					s0.486-0.43,0.486-0.838c0-0.363-0.135-0.621-0.406-0.775s-0.662-0.232-1.166-0.232H404.245z M404.245,227.938h0.861
					c0.543,0,0.932-0.07,1.166-0.209c0.234-0.141,0.352-0.365,0.352-0.674c0-0.318-0.121-0.541-0.363-0.668
					c-0.24-0.129-0.596-0.193-1.064-0.193c-0.15,0-0.313,0.002-0.486,0.006s-0.328,0.014-0.465,0.029V227.938z"/>
			</g>
			<rect x="361.38" y="192.023" width="2.832" height="15.129"/>
			<rect x="431.21" y="192.023" width="2.832" height="15.129"/>
		</g>
	</g>
	<g>
		<g>
			
				<line fill="none" stroke="#3499CD" stroke-width="5" stroke-miterlimit="10" x1="532.775" y1="356.242" x2="532.775" y2="267.846"/>
			<polygon fill="#3499CD" points="529.533,274.115 526.533,266.145 539.018,266.145 536.018,274.115 			"/>
			<polyline fill="#3499CD" stroke="#1E314B" stroke-miterlimit="10" points="540.018,252.717 540.018,264.115 539.018,266.145 
				526.533,266.145 525.533,264.115 525.533,252.717 			"/>
			<path fill="#FFCE0C" stroke="#F89939" stroke-width="0.869" stroke-miterlimit="10" d="M525.533,264.229"/>
			<line fill="none" stroke="#1E314B" stroke-miterlimit="10" x1="539.018" y1="267.604" x2="526.518" y2="267.604"/>
			<line fill="none" stroke="#1E314B" stroke-miterlimit="10" x1="538.268" y1="269.104" x2="527.268" y2="269.104"/>
			<line fill="none" stroke="#1E314B" stroke-miterlimit="10" x1="537.518" y1="270.604" x2="528.018" y2="270.604"/>
			<line fill="none" stroke="#1E314B" stroke-miterlimit="10" x1="537.018" y1="272.104" x2="528.518" y2="272.104"/>
			<rect x="529.145" y="273.283" fill="#1E314B" width="7.186" height="3.486"/>
		</g>
		<g>
			
				<rect x="494.591" y="151.376" fill="#FFFFFF" stroke="#000000" stroke-width="0.4404" stroke-miterlimit="10" width="77.064" height="98.719"/>
			<g>
				<g>
					<g>
						<path fill="#010101" stroke="#FFFFFF" stroke-width="0.1815" stroke-miterlimit="10" d="M532.808,192.592"/>
					</g>
					<g>
						<path fill="#010101" stroke="#FFFFFF" stroke-width="0.1815" stroke-miterlimit="10" d="M532.808,192.592"/>
					</g>
					<g>
						<path fill="#010101" stroke="#FFFFFF" stroke-width="0.1815" stroke-miterlimit="10" d="M532.808,192.592"/>
					</g>
					<g>
						<path fill="#010101" stroke="#FFFFFF" stroke-width="0.1815" stroke-miterlimit="10" d="M532.808,192.592"/>
					</g>
				</g>
				<polyline fill="#3499CD" points="555.493,205.635 544.151,212.439 532.81,219.244 532.81,205.635 532.81,192.025 				"/>
				<polyline fill="#996699" points="555.493,205.635 555.493,192.025 555.493,178.415 544.165,185.219 532.81,192.025 				"/>
				<polyline fill="#F89939" points="532.812,164.803 521.468,171.609 510.126,178.415 521.47,185.219 532.812,192.025 				"/>
				<polyline fill="#EF3B68" points="532.81,164.803 544.151,171.609 555.493,178.415 544.151,185.219 532.81,192.025 				"/>
				<polyline fill="#FFCE0C" points="510.126,205.635 521.47,212.439 532.812,219.244 532.812,205.635 532.812,192.025 				"/>
				<polyline fill="#6FC498" points="510.126,205.635 510.126,192.025 510.126,178.415 521.468,185.219 532.81,192.025 				"/>
				<g>
					<g>
						<g>
							
								<line fill="none" stroke="#FFFFFF" stroke-width="0.5444" stroke-miterlimit="10" x1="532.813" y1="164.803" x2="532.813" y2="165.438"/>
							
								<line fill="none" stroke="#FFFFFF" stroke-width="0.5444" stroke-miterlimit="10" stroke-dasharray="1.2358,1.2358" x1="532.813" y1="166.674" x2="532.808" y2="190.772"/>
							
								<line fill="none" stroke="#FFFFFF" stroke-width="0.5444" stroke-miterlimit="10" x1="532.808" y1="191.39" x2="532.808" y2="192.025"/>
						</g>
					</g>
					<g>
						<g>
							
								<line fill="none" stroke="#FFFFFF" stroke-width="0.5444" stroke-miterlimit="10" x1="532.808" y1="192.025" x2="533.353" y2="192.352"/>
							
								<line fill="none" stroke="#FFFFFF" stroke-width="0.5444" stroke-miterlimit="10" stroke-dasharray="1.3255,1.3255" x1="534.489" y1="193.034" x2="554.38" y2="204.967"/>
							
								<line fill="none" stroke="#FFFFFF" stroke-width="0.5444" stroke-miterlimit="10" x1="554.948" y1="205.308" x2="555.493" y2="205.635"/>
						</g>
					</g>
					<g>
						<g>
							
								<line fill="none" stroke="#FFFFFF" stroke-width="0.5444" stroke-miterlimit="10" x1="532.808" y1="192.025" x2="532.263" y2="192.352"/>
							
								<line fill="none" stroke="#FFFFFF" stroke-width="0.5444" stroke-miterlimit="10" stroke-dasharray="1.3253,1.3253" x1="531.127" y1="193.034" x2="511.239" y2="204.967"/>
							
								<line fill="none" stroke="#FFFFFF" stroke-width="0.5444" stroke-miterlimit="10" x1="510.671" y1="205.308" x2="510.126" y2="205.635"/>
						</g>
					</g>
				</g>
				<g>
					
						<line fill="none" stroke="#FFFFFF" stroke-width="0.5444" stroke-miterlimit="10" x1="532.813" y1="219.244" x2="532.808" y2="192.025"/>
					
						<line fill="none" stroke="#FFFFFF" stroke-width="0.5444" stroke-miterlimit="10" x1="532.808" y1="192.025" x2="555.493" y2="178.415"/>
					
						<line fill="none" stroke="#FFFFFF" stroke-width="0.5444" stroke-miterlimit="10" x1="532.808" y1="192.025" x2="510.126" y2="178.415"/>
				</g>
			</g>
			
				<rect x="498.995" y="252.762" fill="#FFFFFF" stroke="#000000" stroke-width="0.4404" stroke-miterlimit="10" width="67.943" height="5.537"/>
			
				<rect x="498.995" y="143.299" fill="#FFFFFF" stroke="#000000" stroke-width="0.4404" stroke-miterlimit="10" width="67.943" height="5.536"/>
			
				<line fill="none" stroke="#000000" stroke-width="4.4148" stroke-miterlimit="10" x1="493.093" y1="149.146" x2="572.938" y2="149.146"/>
			
				<line fill="none" stroke="#000000" stroke-width="4.4148" stroke-miterlimit="10" x1="493.093" y1="252.328" x2="572.938" y2="252.328"/>
			<g>
				<path d="M526.485,224.857h1.766v7.848h-1.766v-3.33h-2.967v3.33h-1.766v-7.848h1.766v3h2.967V224.857z"/>
				<path d="M533.132,232.863c-0.551,0-1.025-0.078-1.426-0.232s-0.73-0.369-0.992-0.645c-0.26-0.275-0.451-0.604-0.576-0.986
					c-0.125-0.381-0.188-0.801-0.188-1.262v-4.881h1.768v4.732c0,0.318,0.035,0.588,0.107,0.811c0.07,0.223,0.17,0.404,0.293,0.543
					c0.125,0.141,0.275,0.24,0.453,0.301s0.373,0.09,0.584,0.09c0.43,0,0.779-0.131,1.047-0.396
					c0.268-0.264,0.402-0.713,0.402-1.348v-4.732h1.766v4.881c0,0.461-0.063,0.883-0.191,1.268s-0.324,0.715-0.59,0.992
					c-0.264,0.275-0.6,0.488-1.008,0.639C534.175,232.787,533.69,232.863,533.132,232.863z"/>
				<path d="M540.685,232.807c-0.43,0-0.857-0.014-1.285-0.039c-0.426-0.027-0.869-0.09-1.33-0.188v-7.609
					c0.363-0.068,0.76-0.119,1.189-0.152c0.43-0.035,0.83-0.051,1.199-0.051c0.5,0,0.957,0.035,1.377,0.107
					c0.418,0.07,0.779,0.193,1.082,0.367c0.301,0.174,0.537,0.402,0.707,0.686s0.254,0.633,0.254,1.047
					c0,0.627-0.301,1.121-0.904,1.484c0.498,0.188,0.838,0.445,1.018,0.77c0.182,0.324,0.271,0.691,0.271,1.098
					c0,0.824-0.299,1.443-0.898,1.857C542.763,232.6,541.87,232.807,540.685,232.807z M539.79,229.285v2.027
					c0.129,0.016,0.268,0.025,0.42,0.033c0.15,0.008,0.316,0.012,0.498,0.012c0.527,0,0.955-0.076,1.279-0.227
					s0.486-0.43,0.486-0.838c0-0.363-0.135-0.621-0.406-0.775s-0.662-0.232-1.166-0.232H539.79z M539.79,227.938h0.861
					c0.543,0,0.932-0.07,1.166-0.209c0.234-0.141,0.352-0.365,0.352-0.674c0-0.318-0.121-0.541-0.363-0.668
					c-0.24-0.129-0.596-0.193-1.064-0.193c-0.15,0-0.313,0.002-0.486,0.006s-0.328,0.014-0.465,0.029V227.938z"/>
			</g>
			<rect x="496.925" y="192.023" width="2.832" height="15.129"/>
			<rect x="566.755" y="192.023" width="2.832" height="15.129"/>
		</g>
	</g>
</g>
</svg>
