<?xml version="1.0" encoding="utf-8"?>
<!-- Generator: Adobe Illustrator 16.0.0, SVG Export Plug-In . SVG Version: 6.00 Build 0)  -->
<!DOCTYPE svg PUBLIC "-//W3C//DTD SVG 1.1//EN" "http://www.w3.org/Graphics/SVG/1.1/DTD/svg11.dtd">
<svg version="1.1" id="Layer_1" xmlns="http://www.w3.org/2000/svg" xmlns:xlink="http://www.w3.org/1999/xlink" x="0px" y="0px"
	 width="330px" height="400px" viewBox="0 0 330 400" enable-background="new 0 0 330 400" xml:space="preserve">
<polygon fill="#458399" points="330,300 165,400 0,300 0.001,100 165,0 330,100 "/>
<title>Layer 1</title>
<polygon fill="#458399" points="275,266.462 165.001,332.923 55,266.462 55.001,133.539 165.001,67.077 275,133.539 "/>
<g>
	<g>
		<path id="rect3330_2_" fill="#458399" d="M186.007,110h-42.014c-38.104,0-68.992,30.887-68.992,68.991v42.017
			c0,38.102,30.888,68.992,68.992,68.992h42.014c38.104,0,68.992-30.891,68.992-68.992v-42.017
			C254.999,140.887,224.111,110,186.007,110z"/>
	</g>
	<g>
		<rect x="117.832" y="208.421" fill="#FFFFFF" width="94.336" height="34.017"/>
		<path fill="#FFFFFF" d="M188.917,219.184c0,12.844,10.412,23.254,23.251,23.254c12.846,0,23.257-10.41,23.257-23.254
			c0-12.84-10.411-23.25-23.257-23.25C199.329,195.934,188.917,206.344,188.917,219.184z"/>
		<path fill="#FFFFFF" d="M94.581,219.184c0,12.844,10.411,23.254,23.251,23.254c12.845,0,23.251-10.41,23.251-23.254
			c0-12.84-10.406-23.25-23.251-23.25C104.992,195.934,94.581,206.344,94.581,219.184z"/>
		<path fill="#FFFFFF" d="M170.449,190.487c0,12.84,10.41,23.251,23.251,23.251c12.846,0,23.257-10.411,23.257-23.251
			c0-12.842-10.411-23.254-23.257-23.254C180.859,167.233,170.449,177.645,170.449,190.487z"/>
		<circle fill="#FFFFFF" cx="136.833" cy="190.487" r="23.251"/>
		<path fill="#FFFFFF" d="M141.746,176.535c0,12.839,10.411,23.25,23.257,23.25c12.84,0,23.251-10.411,23.251-23.25
			c0-12.843-10.411-23.254-23.251-23.254C152.157,153.281,141.746,163.693,141.746,176.535z"/>
		<rect x="117.832" y="197.791" fill="#FFFFFF" width="94.336" height="23.387"/>
	</g>
</g>
</svg>
