<?xml version="1.0" encoding="utf-8"?>
<!-- Generator: Adobe Illustrator 16.0.0, SVG Export Plug-In . SVG Version: 6.00 Build 0)  -->
<!DOCTYPE svg PUBLIC "-//W3C//DTD SVG 1.1//EN" "http://www.w3.org/Graphics/SVG/1.1/DTD/svg11.dtd">
<svg version="1.1" id="Layer_1" xmlns="http://www.w3.org/2000/svg" xmlns:xlink="http://www.w3.org/1999/xlink" x="0px" y="0px"
	 width="524px" height="277.662px" viewBox="38.5 47.5 524 277.662" enable-background="new 38.5 47.5 524 277.662"
	 xml:space="preserve">
<line fill="none" stroke="#996699" stroke-width="4" stroke-dasharray="4" x1="128.366" y1="199.147" x2="191.637" y2="199.147"/>
<line fill="none" stroke="#996699" stroke-width="4" stroke-dasharray="4" x1="268.366" y1="199.147" x2="331.637" y2="199.147"/>
<line fill="none" stroke="#996699" stroke-width="4" stroke-dasharray="4" x1="408.366" y1="199.147" x2="471.637" y2="199.147"/>
<g>
	<g>
		<g>
			<line fill="none" stroke="#FFCE0C" stroke-width="5" stroke-miterlimit="10" x1="89.99" y1="325.162" x2="89.99" y2="266.941"/>
		</g>
		<g>
			<polygon fill="#FFCE0C" points="86.748,273.385 83.748,265.414 96.232,265.414 93.232,273.385 			"/>
			<polygon fill="#FFCE0C" stroke="#F89939" stroke-width="0.869" stroke-miterlimit="10" points="82.748,251.986 97.232,251.986 
				97.232,263.385 96.232,265.414 83.748,265.414 82.748,263.385 			"/>
			<path fill="#FFCE0C" stroke="#F89939" stroke-width="0.869" stroke-miterlimit="10" d="M82.748,263.498"/>
			
				<line fill="none" stroke="#F89939" stroke-width="0.8801" stroke-miterlimit="10" x1="96.232" y1="266.873" x2="83.732" y2="266.873"/>
			
				<line fill="none" stroke="#F89939" stroke-width="0.903" stroke-miterlimit="10" x1="95.482" y1="268.373" x2="84.482" y2="268.373"/>
			
				<line fill="none" stroke="#F89939" stroke-width="0.9361" stroke-miterlimit="10" x1="94.732" y1="269.873" x2="85.232" y2="269.873"/>
			
				<line fill="none" stroke="#F89939" stroke-width="0.8854" stroke-miterlimit="10" x1="94.232" y1="271.373" x2="85.732" y2="271.373"/>
			<rect x="86.359" y="272.553" fill="#F89939" width="7.186" height="3.486"/>
		</g>
	</g>
	<g>
		<g>
			
				<rect x="51.771" y="150.295" fill="#FFFFFF" stroke="#3499CD" stroke-width="0.4404" stroke-miterlimit="10" width="77.064" height="98.72"/>
			
				<rect x="56.178" y="251.682" fill="#FFFFFF" stroke="#3499CD" stroke-width="0.4404" stroke-miterlimit="10" width="67.941" height="5.537"/>
			
				<rect x="56.178" y="142.218" fill="#FFFFFF" stroke="#3499CD" stroke-width="0.4404" stroke-miterlimit="10" width="67.941" height="5.536"/>
			
				<line fill="none" stroke="#3499CD" stroke-width="4.4148" stroke-miterlimit="10" x1="50.273" y1="148.065" x2="130.119" y2="148.065"/>
			
				<line fill="none" stroke="#3499CD" stroke-width="4.4148" stroke-miterlimit="10" x1="50.273" y1="251.246" x2="130.119" y2="251.246"/>
			<g>
				<path d="M75.084,231.783c-1.276,0-2.248-0.355-2.916-1.064s-1.002-1.717-1.002-3.023c0-0.65,0.102-1.229,0.306-1.738
					s0.482-0.939,0.838-1.291c0.354-0.352,0.777-0.617,1.269-0.799c0.49-0.182,1.022-0.271,1.597-0.271
					c0.332,0,0.634,0.025,0.905,0.074c0.272,0.049,0.51,0.105,0.714,0.17c0.203,0.064,0.373,0.129,0.51,0.197
					c0.136,0.068,0.233,0.121,0.294,0.158l-0.51,1.428c-0.241-0.129-0.522-0.238-0.844-0.328c-0.32-0.092-0.685-0.137-1.093-0.137
					c-0.271,0-0.537,0.045-0.798,0.137c-0.261,0.09-0.491,0.236-0.69,0.436c-0.2,0.199-0.361,0.459-0.481,0.775
					C73.061,226.822,73,227.207,73,227.66c0,0.363,0.04,0.701,0.119,1.014c0.079,0.314,0.208,0.584,0.385,0.811
					c0.178,0.227,0.41,0.406,0.696,0.537c0.287,0.133,0.635,0.199,1.042,0.199c0.257,0,0.487-0.016,0.691-0.045
					c0.203-0.031,0.385-0.066,0.543-0.109c0.158-0.041,0.298-0.088,0.419-0.141s0.23-0.102,0.328-0.146l0.487,1.414
					c-0.249,0.152-0.601,0.287-1.053,0.408C76.205,231.723,75.68,231.783,75.084,231.783z"/>
				<path d="M84.086,230.107v1.518h-5.242v-7.848h1.767v6.33H84.086z"/>
				<path d="M92.466,227.695c0,0.672-0.101,1.262-0.301,1.771c-0.199,0.51-0.474,0.936-0.82,1.279
					c-0.348,0.344-0.761,0.604-1.24,0.775c-0.479,0.174-0.995,0.262-1.546,0.262c-0.536,0-1.042-0.088-1.518-0.262
					c-0.476-0.172-0.891-0.432-1.245-0.775c-0.355-0.344-0.634-0.77-0.838-1.279s-0.306-1.1-0.306-1.771s0.105-1.264,0.316-1.773
					c0.212-0.508,0.497-0.938,0.855-1.285c0.358-0.346,0.773-0.607,1.245-0.781s0.969-0.26,1.489-0.26
					c0.536,0,1.042,0.086,1.518,0.26s0.891,0.436,1.246,0.781c0.354,0.348,0.634,0.777,0.838,1.285
					C92.363,226.432,92.466,227.023,92.466,227.695z M86.476,227.695c0,0.385,0.047,0.732,0.142,1.041
					c0.094,0.311,0.229,0.576,0.407,0.799s0.395,0.395,0.651,0.516s0.551,0.18,0.883,0.18c0.325,0,0.617-0.059,0.878-0.18
					s0.479-0.293,0.656-0.516c0.178-0.223,0.313-0.488,0.408-0.799c0.094-0.309,0.142-0.656,0.142-1.041s-0.048-0.734-0.142-1.047
					c-0.095-0.314-0.23-0.582-0.408-0.805c-0.177-0.223-0.396-0.395-0.656-0.516s-0.553-0.182-0.878-0.182
					c-0.332,0-0.626,0.063-0.883,0.188s-0.474,0.299-0.651,0.521s-0.313,0.49-0.407,0.803
					C86.522,226.973,86.476,227.318,86.476,227.695z"/>
				<path d="M97.006,231.783c-0.551,0-1.026-0.078-1.427-0.232s-0.73-0.369-0.991-0.646c-0.26-0.275-0.452-0.604-0.577-0.984
					s-0.187-0.803-0.187-1.262v-4.881h1.767v4.732c0,0.318,0.035,0.588,0.107,0.811c0.071,0.223,0.17,0.404,0.294,0.543
					c0.125,0.141,0.275,0.24,0.453,0.301s0.372,0.09,0.583,0.09c0.431,0,0.779-0.131,1.048-0.396
					c0.268-0.264,0.401-0.713,0.401-1.348v-4.732h1.767v4.881c0,0.459-0.063,0.883-0.192,1.268c-0.128,0.385-0.324,0.715-0.589,0.99
					c-0.264,0.275-0.6,0.49-1.008,0.641C98.048,231.707,97.564,231.783,97.006,231.783z"/>
				<path d="M108.816,227.695c0,0.68-0.105,1.271-0.317,1.777c-0.211,0.506-0.511,0.926-0.899,1.258
					c-0.39,0.332-0.863,0.58-1.422,0.746s-1.185,0.25-1.879,0.25c-0.317,0-0.688-0.014-1.11-0.039
					c-0.423-0.027-0.838-0.082-1.245-0.166v-7.643c0.407-0.076,0.832-0.127,1.273-0.152c0.441-0.027,0.821-0.041,1.138-0.041
					c0.672,0,1.282,0.076,1.829,0.227c0.548,0.152,1.018,0.389,1.41,0.715c0.393,0.324,0.694,0.738,0.905,1.244
					C108.711,226.377,108.816,226.986,108.816,227.695z M103.71,230.186c0.083,0.008,0.179,0.014,0.288,0.018
					s0.24,0.006,0.391,0.006c0.884,0,1.538-0.223,1.965-0.668s0.64-1.061,0.64-1.846c0-0.822-0.203-1.445-0.611-1.869
					c-0.407-0.422-1.053-0.635-1.937-0.635c-0.12,0-0.245,0.002-0.373,0.006c-0.129,0.004-0.249,0.014-0.362,0.029V230.186z"/>
			</g>
			<rect x="54.107" y="190.942" fill="#3499CD" width="2.83" height="15.13"/>
			<rect x="123.938" y="190.942" fill="#3499CD" width="2.83" height="15.13"/>
		</g>
		<g>
			<polygon fill="#020202" points="112.68,204.709 89.995,218.359 67.312,204.709 67.312,177.4 89.995,163.747 112.68,177.4 			"/>
			<g>
				<g>
					<rect x="80.934" y="184.554" fill="#498ECC" width="17.955" height="6.474"/>
					<circle fill="#498ECC" cx="80.935" cy="186.604" r="4.425"/>
					<circle fill="#498ECC" cx="98.888" cy="186.604" r="4.425"/>
					<circle fill="#498ECC" cx="84.449" cy="181.142" r="4.425"/>
					<circle fill="#498ECC" cx="95.273" cy="181.142" r="4.425"/>
					<circle fill="#498ECC" cx="89.912" cy="178.486" r="4.425"/>
					<rect x="80.934" y="182.531" fill="#498ECC" width="17.955" height="4.451"/>
				</g>
				<g>
					<rect x="80.934" y="188.602" fill="#51ADE1" width="17.955" height="6.473"/>
					<circle fill="#51ADE1" cx="80.935" cy="190.649" r="4.426"/>
					<circle fill="#51ADE1" cx="98.888" cy="190.649" r="4.426"/>
					<circle fill="#51ADE1" cx="84.449" cy="185.187" r="4.425"/>
					<circle fill="#51ADE1" cx="95.273" cy="185.187" r="4.425"/>
					<circle fill="#51ADE1" cx="89.912" cy="182.531" r="4.426"/>
					<rect x="80.934" y="186.578" fill="#51ADE1" width="17.955" height="4.449"/>
				</g>
				<g>
					<rect x="80.934" y="193.659" fill="#6EC9F2" width="17.955" height="6.472"/>
					<circle fill="#6EC9F2" cx="80.935" cy="195.706" r="4.425"/>
					<circle fill="#6EC9F2" cx="98.888" cy="195.706" r="4.425"/>
					<circle fill="#6EC9F2" cx="84.449" cy="190.245" r="4.426"/>
					<circle fill="#6EC9F2" cx="95.273" cy="190.245" r="4.426"/>
					<circle fill="#6EC9F2" cx="89.912" cy="187.59" r="4.426"/>
					<rect x="80.934" y="191.634" fill="#6EC9F2" width="17.955" height="4.452"/>
				</g>
				<g>
					<rect x="80.934" y="198.717" fill="#FFFFFF" width="17.955" height="6.471"/>
					<circle fill="#FFFFFF" cx="80.935" cy="200.765" r="4.425"/>
					<circle fill="#FFFFFF" cx="98.888" cy="200.765" r="4.425"/>
					<circle fill="#FFFFFF" cx="84.449" cy="195.303" r="4.426"/>
					<circle fill="#FFFFFF" cx="95.273" cy="195.303" r="4.426"/>
					<circle fill="#FFFFFF" cx="89.912" cy="192.647" r="4.425"/>
					<rect x="80.934" y="196.693" fill="#FFFFFF" width="17.955" height="4.449"/>
				</g>
			</g>
		</g>
	</g>
</g>
<g>
	<g>
		<g>
			
				<line fill="none" stroke="#FFCE0C" stroke-width="5" stroke-miterlimit="10" x1="229.99" y1="325.162" x2="229.99" y2="266.941"/>
		</g>
		<g>
			<polygon fill="#FFCE0C" points="226.748,273.385 223.748,265.414 236.232,265.414 233.232,273.385 			"/>
			<polygon fill="#FFCE0C" stroke="#F89939" stroke-width="0.869" stroke-miterlimit="10" points="222.748,251.986 237.232,251.986 
				237.232,263.385 236.232,265.414 223.748,265.414 222.748,263.385 			"/>
			<path fill="#FFCE0C" stroke="#F89939" stroke-width="0.869" stroke-miterlimit="10" d="M222.748,263.498"/>
			
				<line fill="none" stroke="#F89939" stroke-width="0.8801" stroke-miterlimit="10" x1="236.232" y1="266.873" x2="223.732" y2="266.873"/>
			
				<line fill="none" stroke="#F89939" stroke-width="0.903" stroke-miterlimit="10" x1="235.482" y1="268.373" x2="224.482" y2="268.373"/>
			
				<line fill="none" stroke="#F89939" stroke-width="0.9361" stroke-miterlimit="10" x1="234.732" y1="269.873" x2="225.232" y2="269.873"/>
			
				<line fill="none" stroke="#F89939" stroke-width="0.8854" stroke-miterlimit="10" x1="234.232" y1="271.373" x2="225.732" y2="271.373"/>
			<rect x="226.359" y="272.553" fill="#F89939" width="7.186" height="3.486"/>
		</g>
	</g>
	<g>
		<g>
			
				<rect x="191.771" y="150.295" fill="#FFFFFF" stroke="#3499CD" stroke-width="0.4404" stroke-miterlimit="10" width="77.064" height="98.72"/>
			
				<rect x="196.178" y="251.682" fill="#FFFFFF" stroke="#3499CD" stroke-width="0.4404" stroke-miterlimit="10" width="67.941" height="5.537"/>
			
				<rect x="196.178" y="142.218" fill="#FFFFFF" stroke="#3499CD" stroke-width="0.4404" stroke-miterlimit="10" width="67.941" height="5.536"/>
			
				<line fill="none" stroke="#3499CD" stroke-width="4.4148" stroke-miterlimit="10" x1="190.273" y1="148.065" x2="270.119" y2="148.065"/>
			
				<line fill="none" stroke="#3499CD" stroke-width="4.4148" stroke-miterlimit="10" x1="190.273" y1="251.246" x2="270.119" y2="251.246"/>
			<g>
				<path d="M215.084,231.783c-1.276,0-2.248-0.355-2.916-1.064s-1.002-1.717-1.002-3.023c0-0.65,0.102-1.229,0.306-1.738
					s0.482-0.939,0.838-1.291c0.354-0.352,0.777-0.617,1.269-0.799c0.49-0.182,1.022-0.271,1.597-0.271
					c0.332,0,0.634,0.025,0.905,0.074c0.272,0.049,0.51,0.105,0.714,0.17c0.203,0.064,0.373,0.129,0.51,0.197
					c0.136,0.068,0.233,0.121,0.294,0.158l-0.51,1.428c-0.241-0.129-0.522-0.238-0.844-0.328c-0.32-0.092-0.685-0.137-1.093-0.137
					c-0.271,0-0.537,0.045-0.798,0.137c-0.261,0.09-0.491,0.236-0.69,0.436c-0.2,0.199-0.361,0.459-0.481,0.775
					c-0.121,0.316-0.182,0.701-0.182,1.154c0,0.363,0.04,0.701,0.119,1.014c0.079,0.314,0.208,0.584,0.385,0.811
					c0.178,0.227,0.41,0.406,0.696,0.537c0.287,0.133,0.635,0.199,1.042,0.199c0.257,0,0.487-0.016,0.691-0.045
					c0.203-0.031,0.385-0.066,0.543-0.109c0.158-0.041,0.298-0.088,0.419-0.141s0.23-0.102,0.328-0.146l0.487,1.414
					c-0.249,0.152-0.601,0.287-1.053,0.408C216.205,231.723,215.68,231.783,215.084,231.783z"/>
				<path d="M224.086,230.107v1.518h-5.242v-7.848h1.767v6.33H224.086z"/>
				<path d="M232.466,227.695c0,0.672-0.101,1.262-0.301,1.771c-0.199,0.51-0.474,0.936-0.82,1.279
					c-0.348,0.344-0.761,0.604-1.24,0.775c-0.479,0.174-0.995,0.262-1.546,0.262c-0.536,0-1.042-0.088-1.518-0.262
					c-0.476-0.172-0.891-0.432-1.245-0.775c-0.355-0.344-0.634-0.77-0.838-1.279s-0.306-1.1-0.306-1.771s0.105-1.264,0.316-1.773
					c0.212-0.508,0.497-0.938,0.855-1.285c0.358-0.346,0.773-0.607,1.245-0.781s0.969-0.26,1.489-0.26
					c0.536,0,1.042,0.086,1.518,0.26s0.891,0.436,1.246,0.781c0.354,0.348,0.634,0.777,0.838,1.285
					C232.363,226.432,232.466,227.023,232.466,227.695z M226.476,227.695c0,0.385,0.047,0.732,0.142,1.041
					c0.094,0.311,0.229,0.576,0.407,0.799s0.395,0.395,0.651,0.516s0.551,0.18,0.883,0.18c0.325,0,0.617-0.059,0.878-0.18
					s0.479-0.293,0.656-0.516c0.178-0.223,0.313-0.488,0.408-0.799c0.094-0.309,0.142-0.656,0.142-1.041s-0.048-0.734-0.142-1.047
					c-0.095-0.314-0.23-0.582-0.408-0.805c-0.177-0.223-0.396-0.395-0.656-0.516s-0.553-0.182-0.878-0.182
					c-0.332,0-0.626,0.063-0.883,0.188s-0.474,0.299-0.651,0.521s-0.313,0.49-0.407,0.803
					C226.522,226.973,226.476,227.318,226.476,227.695z"/>
				<path d="M237.006,231.783c-0.551,0-1.026-0.078-1.427-0.232s-0.73-0.369-0.991-0.646c-0.26-0.275-0.452-0.604-0.577-0.984
					s-0.187-0.803-0.187-1.262v-4.881h1.767v4.732c0,0.318,0.035,0.588,0.107,0.811c0.071,0.223,0.17,0.404,0.294,0.543
					c0.125,0.141,0.275,0.24,0.453,0.301s0.372,0.09,0.583,0.09c0.431,0,0.779-0.131,1.048-0.396
					c0.268-0.264,0.401-0.713,0.401-1.348v-4.732h1.767v4.881c0,0.459-0.063,0.883-0.192,1.268c-0.128,0.385-0.324,0.715-0.589,0.99
					c-0.264,0.275-0.6,0.49-1.008,0.641C238.048,231.707,237.564,231.783,237.006,231.783z"/>
				<path d="M248.816,227.695c0,0.68-0.105,1.271-0.317,1.777c-0.211,0.506-0.511,0.926-0.899,1.258
					c-0.39,0.332-0.863,0.58-1.422,0.746s-1.185,0.25-1.879,0.25c-0.317,0-0.688-0.014-1.11-0.039
					c-0.423-0.027-0.838-0.082-1.245-0.166v-7.643c0.407-0.076,0.832-0.127,1.273-0.152c0.441-0.027,0.821-0.041,1.138-0.041
					c0.672,0,1.282,0.076,1.829,0.227c0.548,0.152,1.018,0.389,1.41,0.715c0.393,0.324,0.694,0.738,0.905,1.244
					C248.711,226.377,248.816,226.986,248.816,227.695z M243.71,230.186c0.083,0.008,0.179,0.014,0.288,0.018
					s0.24,0.006,0.391,0.006c0.884,0,1.538-0.223,1.965-0.668s0.64-1.061,0.64-1.846c0-0.822-0.203-1.445-0.611-1.869
					c-0.407-0.422-1.053-0.635-1.937-0.635c-0.12,0-0.245,0.002-0.373,0.006c-0.129,0.004-0.249,0.014-0.362,0.029V230.186z"/>
			</g>
			<rect x="194.107" y="190.942" fill="#3499CD" width="2.83" height="15.13"/>
			<rect x="263.938" y="190.942" fill="#3499CD" width="2.83" height="15.13"/>
		</g>
		<g>
			<polygon fill="#020202" points="252.68,204.709 229.995,218.359 207.312,204.709 207.312,177.4 229.995,163.747 252.68,177.4 			
				"/>
			<g>
				<g>
					<rect x="220.934" y="184.554" fill="#498ECC" width="17.955" height="6.474"/>
					<circle fill="#498ECC" cx="220.935" cy="186.604" r="4.425"/>
					<circle fill="#498ECC" cx="238.888" cy="186.604" r="4.425"/>
					<circle fill="#498ECC" cx="224.449" cy="181.142" r="4.425"/>
					<circle fill="#498ECC" cx="235.273" cy="181.142" r="4.425"/>
					<circle fill="#498ECC" cx="229.912" cy="178.486" r="4.425"/>
					<rect x="220.934" y="182.531" fill="#498ECC" width="17.955" height="4.451"/>
				</g>
				<g>
					<rect x="220.934" y="188.602" fill="#51ADE1" width="17.955" height="6.473"/>
					<circle fill="#51ADE1" cx="220.935" cy="190.649" r="4.426"/>
					<circle fill="#51ADE1" cx="238.888" cy="190.649" r="4.426"/>
					<circle fill="#51ADE1" cx="224.449" cy="185.187" r="4.425"/>
					<circle fill="#51ADE1" cx="235.273" cy="185.187" r="4.425"/>
					<circle fill="#51ADE1" cx="229.912" cy="182.531" r="4.426"/>
					<rect x="220.934" y="186.578" fill="#51ADE1" width="17.955" height="4.449"/>
				</g>
				<g>
					<rect x="220.934" y="193.659" fill="#6EC9F2" width="17.955" height="6.472"/>
					<circle fill="#6EC9F2" cx="220.935" cy="195.706" r="4.425"/>
					<circle fill="#6EC9F2" cx="238.888" cy="195.706" r="4.425"/>
					<circle fill="#6EC9F2" cx="224.449" cy="190.245" r="4.426"/>
					<circle fill="#6EC9F2" cx="235.273" cy="190.245" r="4.426"/>
					<circle fill="#6EC9F2" cx="229.912" cy="187.59" r="4.426"/>
					<rect x="220.934" y="191.634" fill="#6EC9F2" width="17.955" height="4.452"/>
				</g>
				<g>
					<rect x="220.934" y="198.717" fill="#FFFFFF" width="17.955" height="6.471"/>
					<circle fill="#FFFFFF" cx="220.935" cy="200.765" r="4.425"/>
					<circle fill="#FFFFFF" cx="238.888" cy="200.765" r="4.425"/>
					<circle fill="#FFFFFF" cx="224.449" cy="195.303" r="4.426"/>
					<circle fill="#FFFFFF" cx="235.273" cy="195.303" r="4.426"/>
					<circle fill="#FFFFFF" cx="229.912" cy="192.647" r="4.425"/>
					<rect x="220.934" y="196.693" fill="#FFFFFF" width="17.955" height="4.449"/>
				</g>
			</g>
		</g>
	</g>
</g>
<g>
	<g>
		<g>
			
				<line fill="none" stroke="#FFCE0C" stroke-width="5" stroke-miterlimit="10" x1="369.99" y1="325.162" x2="369.99" y2="266.941"/>
		</g>
		<g>
			<polygon fill="#FFCE0C" points="366.748,273.385 363.748,265.414 376.232,265.414 373.232,273.385 			"/>
			<polygon fill="#FFCE0C" stroke="#F89939" stroke-width="0.869" stroke-miterlimit="10" points="362.748,251.986 377.232,251.986 
				377.232,263.385 376.232,265.414 363.748,265.414 362.748,263.385 			"/>
			<path fill="#FFCE0C" stroke="#F89939" stroke-width="0.869" stroke-miterlimit="10" d="M362.748,263.498"/>
			
				<line fill="none" stroke="#F89939" stroke-width="0.8801" stroke-miterlimit="10" x1="376.232" y1="266.873" x2="363.732" y2="266.873"/>
			
				<line fill="none" stroke="#F89939" stroke-width="0.903" stroke-miterlimit="10" x1="375.482" y1="268.373" x2="364.482" y2="268.373"/>
			
				<line fill="none" stroke="#F89939" stroke-width="0.9361" stroke-miterlimit="10" x1="374.732" y1="269.873" x2="365.232" y2="269.873"/>
			
				<line fill="none" stroke="#F89939" stroke-width="0.8854" stroke-miterlimit="10" x1="374.232" y1="271.373" x2="365.732" y2="271.373"/>
			<rect x="366.359" y="272.553" fill="#F89939" width="7.186" height="3.486"/>
		</g>
	</g>
	<g>
		<g>
			
				<rect x="331.771" y="150.295" fill="#FFFFFF" stroke="#3499CD" stroke-width="0.4404" stroke-miterlimit="10" width="77.064" height="98.72"/>
			
				<rect x="336.178" y="251.682" fill="#FFFFFF" stroke="#3499CD" stroke-width="0.4404" stroke-miterlimit="10" width="67.941" height="5.537"/>
			
				<rect x="336.178" y="142.218" fill="#FFFFFF" stroke="#3499CD" stroke-width="0.4404" stroke-miterlimit="10" width="67.941" height="5.536"/>
			
				<line fill="none" stroke="#3499CD" stroke-width="4.4148" stroke-miterlimit="10" x1="330.273" y1="148.065" x2="410.119" y2="148.065"/>
			
				<line fill="none" stroke="#3499CD" stroke-width="4.4148" stroke-miterlimit="10" x1="330.273" y1="251.246" x2="410.119" y2="251.246"/>
			<g>
				<path d="M355.084,231.783c-1.276,0-2.248-0.355-2.916-1.064s-1.002-1.717-1.002-3.023c0-0.65,0.102-1.229,0.306-1.738
					s0.482-0.939,0.838-1.291c0.354-0.352,0.777-0.617,1.269-0.799c0.49-0.182,1.022-0.271,1.597-0.271
					c0.332,0,0.634,0.025,0.905,0.074c0.272,0.049,0.51,0.105,0.714,0.17c0.203,0.064,0.373,0.129,0.51,0.197
					c0.136,0.068,0.233,0.121,0.294,0.158l-0.51,1.428c-0.241-0.129-0.522-0.238-0.844-0.328c-0.32-0.092-0.685-0.137-1.093-0.137
					c-0.271,0-0.537,0.045-0.798,0.137c-0.261,0.09-0.491,0.236-0.69,0.436c-0.2,0.199-0.361,0.459-0.481,0.775
					c-0.121,0.316-0.182,0.701-0.182,1.154c0,0.363,0.04,0.701,0.119,1.014c0.079,0.314,0.208,0.584,0.385,0.811
					c0.178,0.227,0.41,0.406,0.696,0.537c0.287,0.133,0.635,0.199,1.042,0.199c0.257,0,0.487-0.016,0.691-0.045
					c0.203-0.031,0.385-0.066,0.543-0.109c0.158-0.041,0.298-0.088,0.419-0.141s0.23-0.102,0.328-0.146l0.487,1.414
					c-0.249,0.152-0.601,0.287-1.053,0.408C356.205,231.723,355.68,231.783,355.084,231.783z"/>
				<path d="M364.086,230.107v1.518h-5.242v-7.848h1.767v6.33H364.086z"/>
				<path d="M372.466,227.695c0,0.672-0.101,1.262-0.301,1.771c-0.199,0.51-0.474,0.936-0.82,1.279
					c-0.348,0.344-0.761,0.604-1.24,0.775c-0.479,0.174-0.995,0.262-1.546,0.262c-0.536,0-1.042-0.088-1.518-0.262
					c-0.476-0.172-0.891-0.432-1.245-0.775c-0.355-0.344-0.634-0.77-0.838-1.279s-0.306-1.1-0.306-1.771s0.105-1.264,0.316-1.773
					c0.212-0.508,0.497-0.938,0.855-1.285c0.358-0.346,0.773-0.607,1.245-0.781s0.969-0.26,1.489-0.26
					c0.536,0,1.042,0.086,1.518,0.26s0.891,0.436,1.246,0.781c0.354,0.348,0.634,0.777,0.838,1.285
					C372.363,226.432,372.466,227.023,372.466,227.695z M366.476,227.695c0,0.385,0.047,0.732,0.142,1.041
					c0.094,0.311,0.229,0.576,0.407,0.799s0.395,0.395,0.651,0.516s0.551,0.18,0.883,0.18c0.325,0,0.617-0.059,0.878-0.18
					s0.479-0.293,0.656-0.516c0.178-0.223,0.313-0.488,0.408-0.799c0.094-0.309,0.142-0.656,0.142-1.041s-0.048-0.734-0.142-1.047
					c-0.095-0.314-0.23-0.582-0.408-0.805c-0.177-0.223-0.396-0.395-0.656-0.516s-0.553-0.182-0.878-0.182
					c-0.332,0-0.626,0.063-0.883,0.188s-0.474,0.299-0.651,0.521s-0.313,0.49-0.407,0.803
					C366.522,226.973,366.476,227.318,366.476,227.695z"/>
				<path d="M377.006,231.783c-0.551,0-1.026-0.078-1.427-0.232s-0.73-0.369-0.991-0.646c-0.26-0.275-0.452-0.604-0.577-0.984
					s-0.187-0.803-0.187-1.262v-4.881h1.767v4.732c0,0.318,0.035,0.588,0.107,0.811c0.071,0.223,0.17,0.404,0.294,0.543
					c0.125,0.141,0.275,0.24,0.453,0.301s0.372,0.09,0.583,0.09c0.431,0,0.779-0.131,1.048-0.396
					c0.268-0.264,0.401-0.713,0.401-1.348v-4.732h1.767v4.881c0,0.459-0.063,0.883-0.192,1.268c-0.128,0.385-0.324,0.715-0.589,0.99
					c-0.264,0.275-0.6,0.49-1.008,0.641C378.048,231.707,377.564,231.783,377.006,231.783z"/>
				<path d="M388.816,227.695c0,0.68-0.105,1.271-0.317,1.777c-0.211,0.506-0.511,0.926-0.899,1.258
					c-0.39,0.332-0.863,0.58-1.422,0.746s-1.185,0.25-1.879,0.25c-0.317,0-0.688-0.014-1.11-0.039
					c-0.423-0.027-0.838-0.082-1.245-0.166v-7.643c0.407-0.076,0.832-0.127,1.273-0.152c0.441-0.027,0.821-0.041,1.138-0.041
					c0.672,0,1.282,0.076,1.829,0.227c0.548,0.152,1.018,0.389,1.41,0.715c0.393,0.324,0.694,0.738,0.905,1.244
					C388.711,226.377,388.816,226.986,388.816,227.695z M383.71,230.186c0.083,0.008,0.179,0.014,0.288,0.018
					s0.24,0.006,0.391,0.006c0.884,0,1.538-0.223,1.965-0.668s0.64-1.061,0.64-1.846c0-0.822-0.203-1.445-0.611-1.869
					c-0.407-0.422-1.053-0.635-1.937-0.635c-0.12,0-0.245,0.002-0.373,0.006c-0.129,0.004-0.249,0.014-0.362,0.029V230.186z"/>
			</g>
			<rect x="334.107" y="190.942" fill="#3499CD" width="2.83" height="15.13"/>
			<rect x="403.938" y="190.942" fill="#3499CD" width="2.83" height="15.13"/>
		</g>
		<g>
			<polygon fill="#020202" points="392.68,204.709 369.995,218.359 347.312,204.709 347.312,177.4 369.995,163.747 392.68,177.4 			
				"/>
			<g>
				<g>
					<rect x="360.934" y="184.554" fill="#498ECC" width="17.955" height="6.474"/>
					<circle fill="#498ECC" cx="360.935" cy="186.604" r="4.425"/>
					<circle fill="#498ECC" cx="378.888" cy="186.604" r="4.425"/>
					<circle fill="#498ECC" cx="364.449" cy="181.142" r="4.425"/>
					<circle fill="#498ECC" cx="375.273" cy="181.142" r="4.425"/>
					<circle fill="#498ECC" cx="369.912" cy="178.486" r="4.425"/>
					<rect x="360.934" y="182.531" fill="#498ECC" width="17.955" height="4.451"/>
				</g>
				<g>
					<rect x="360.934" y="188.602" fill="#51ADE1" width="17.955" height="6.473"/>
					<circle fill="#51ADE1" cx="360.935" cy="190.649" r="4.426"/>
					<circle fill="#51ADE1" cx="378.888" cy="190.649" r="4.426"/>
					<circle fill="#51ADE1" cx="364.449" cy="185.187" r="4.425"/>
					<circle fill="#51ADE1" cx="375.273" cy="185.187" r="4.425"/>
					<circle fill="#51ADE1" cx="369.912" cy="182.531" r="4.426"/>
					<rect x="360.934" y="186.578" fill="#51ADE1" width="17.955" height="4.449"/>
				</g>
				<g>
					<rect x="360.934" y="193.659" fill="#6EC9F2" width="17.955" height="6.472"/>
					<circle fill="#6EC9F2" cx="360.935" cy="195.706" r="4.425"/>
					<circle fill="#6EC9F2" cx="378.888" cy="195.706" r="4.425"/>
					<circle fill="#6EC9F2" cx="364.449" cy="190.245" r="4.426"/>
					<circle fill="#6EC9F2" cx="375.273" cy="190.245" r="4.426"/>
					<circle fill="#6EC9F2" cx="369.912" cy="187.59" r="4.426"/>
					<rect x="360.934" y="191.634" fill="#6EC9F2" width="17.955" height="4.452"/>
				</g>
				<g>
					<rect x="360.934" y="198.717" fill="#FFFFFF" width="17.955" height="6.471"/>
					<circle fill="#FFFFFF" cx="360.935" cy="200.765" r="4.425"/>
					<circle fill="#FFFFFF" cx="378.888" cy="200.765" r="4.425"/>
					<circle fill="#FFFFFF" cx="364.449" cy="195.303" r="4.426"/>
					<circle fill="#FFFFFF" cx="375.273" cy="195.303" r="4.426"/>
					<circle fill="#FFFFFF" cx="369.912" cy="192.647" r="4.425"/>
					<rect x="360.934" y="196.693" fill="#FFFFFF" width="17.955" height="4.449"/>
				</g>
			</g>
		</g>
	</g>
</g>
<g>
	<g>
		<g>
			
				<line fill="none" stroke="#FFCE0C" stroke-width="5" stroke-miterlimit="10" x1="509.99" y1="325.162" x2="509.99" y2="266.941"/>
		</g>
		<g>
			<polygon fill="#FFCE0C" points="506.748,273.385 503.748,265.414 516.232,265.414 513.232,273.385 			"/>
			<polygon fill="#FFCE0C" stroke="#F89939" stroke-width="0.869" stroke-miterlimit="10" points="502.748,251.986 517.232,251.986 
				517.232,263.385 516.232,265.414 503.748,265.414 502.748,263.385 			"/>
			<path fill="#FFCE0C" stroke="#F89939" stroke-width="0.869" stroke-miterlimit="10" d="M502.748,263.498"/>
			
				<line fill="none" stroke="#F89939" stroke-width="0.8801" stroke-miterlimit="10" x1="516.232" y1="266.873" x2="503.732" y2="266.873"/>
			
				<line fill="none" stroke="#F89939" stroke-width="0.903" stroke-miterlimit="10" x1="515.482" y1="268.373" x2="504.482" y2="268.373"/>
			
				<line fill="none" stroke="#F89939" stroke-width="0.9361" stroke-miterlimit="10" x1="514.732" y1="269.873" x2="505.232" y2="269.873"/>
			
				<line fill="none" stroke="#F89939" stroke-width="0.8854" stroke-miterlimit="10" x1="514.232" y1="271.373" x2="505.732" y2="271.373"/>
			<rect x="506.359" y="272.553" fill="#F89939" width="7.186" height="3.486"/>
		</g>
	</g>
	<g>
		<g>
			
				<rect x="471.771" y="150.295" fill="#FFFFFF" stroke="#3499CD" stroke-width="0.4404" stroke-miterlimit="10" width="77.064" height="98.72"/>
			
				<rect x="476.178" y="251.682" fill="#FFFFFF" stroke="#3499CD" stroke-width="0.4404" stroke-miterlimit="10" width="67.941" height="5.537"/>
			
				<rect x="476.178" y="142.218" fill="#FFFFFF" stroke="#3499CD" stroke-width="0.4404" stroke-miterlimit="10" width="67.941" height="5.536"/>
			
				<line fill="none" stroke="#3499CD" stroke-width="4.4148" stroke-miterlimit="10" x1="470.273" y1="148.065" x2="550.119" y2="148.065"/>
			
				<line fill="none" stroke="#3499CD" stroke-width="4.4148" stroke-miterlimit="10" x1="470.273" y1="251.246" x2="550.119" y2="251.246"/>
			<g>
				<path d="M495.084,231.783c-1.276,0-2.248-0.355-2.916-1.064s-1.002-1.717-1.002-3.023c0-0.65,0.102-1.229,0.306-1.738
					s0.482-0.939,0.838-1.291c0.354-0.352,0.777-0.617,1.269-0.799c0.49-0.182,1.022-0.271,1.597-0.271
					c0.332,0,0.634,0.025,0.905,0.074c0.272,0.049,0.51,0.105,0.714,0.17c0.203,0.064,0.373,0.129,0.51,0.197
					c0.136,0.068,0.233,0.121,0.294,0.158l-0.51,1.428c-0.241-0.129-0.522-0.238-0.844-0.328c-0.32-0.092-0.685-0.137-1.093-0.137
					c-0.271,0-0.537,0.045-0.798,0.137c-0.261,0.09-0.491,0.236-0.69,0.436c-0.2,0.199-0.361,0.459-0.481,0.775
					c-0.121,0.316-0.182,0.701-0.182,1.154c0,0.363,0.04,0.701,0.119,1.014c0.079,0.314,0.208,0.584,0.385,0.811
					c0.178,0.227,0.41,0.406,0.696,0.537c0.287,0.133,0.635,0.199,1.042,0.199c0.257,0,0.487-0.016,0.691-0.045
					c0.203-0.031,0.385-0.066,0.543-0.109c0.158-0.041,0.298-0.088,0.419-0.141s0.23-0.102,0.328-0.146l0.487,1.414
					c-0.249,0.152-0.601,0.287-1.053,0.408C496.205,231.723,495.68,231.783,495.084,231.783z"/>
				<path d="M504.086,230.107v1.518h-5.242v-7.848h1.767v6.33H504.086z"/>
				<path d="M512.466,227.695c0,0.672-0.101,1.262-0.301,1.771c-0.199,0.51-0.474,0.936-0.82,1.279
					c-0.348,0.344-0.761,0.604-1.24,0.775c-0.479,0.174-0.995,0.262-1.546,0.262c-0.536,0-1.042-0.088-1.518-0.262
					c-0.476-0.172-0.891-0.432-1.245-0.775c-0.355-0.344-0.634-0.77-0.838-1.279s-0.306-1.1-0.306-1.771s0.105-1.264,0.316-1.773
					c0.212-0.508,0.497-0.938,0.855-1.285c0.358-0.346,0.773-0.607,1.245-0.781s0.969-0.26,1.489-0.26
					c0.536,0,1.042,0.086,1.518,0.26s0.891,0.436,1.246,0.781c0.354,0.348,0.634,0.777,0.838,1.285
					C512.363,226.432,512.466,227.023,512.466,227.695z M506.476,227.695c0,0.385,0.047,0.732,0.142,1.041
					c0.094,0.311,0.229,0.576,0.407,0.799s0.395,0.395,0.651,0.516s0.551,0.18,0.883,0.18c0.325,0,0.617-0.059,0.878-0.18
					s0.479-0.293,0.656-0.516c0.178-0.223,0.313-0.488,0.408-0.799c0.094-0.309,0.142-0.656,0.142-1.041s-0.048-0.734-0.142-1.047
					c-0.095-0.314-0.23-0.582-0.408-0.805c-0.177-0.223-0.396-0.395-0.656-0.516s-0.553-0.182-0.878-0.182
					c-0.332,0-0.626,0.063-0.883,0.188s-0.474,0.299-0.651,0.521s-0.313,0.49-0.407,0.803
					C506.522,226.973,506.476,227.318,506.476,227.695z"/>
				<path d="M517.006,231.783c-0.551,0-1.026-0.078-1.427-0.232s-0.73-0.369-0.991-0.646c-0.26-0.275-0.452-0.604-0.577-0.984
					s-0.187-0.803-0.187-1.262v-4.881h1.767v4.732c0,0.318,0.035,0.588,0.107,0.811c0.071,0.223,0.17,0.404,0.294,0.543
					c0.125,0.141,0.275,0.24,0.453,0.301s0.372,0.09,0.583,0.09c0.431,0,0.779-0.131,1.048-0.396
					c0.268-0.264,0.401-0.713,0.401-1.348v-4.732h1.767v4.881c0,0.459-0.063,0.883-0.192,1.268c-0.128,0.385-0.324,0.715-0.589,0.99
					c-0.264,0.275-0.6,0.49-1.008,0.641C518.048,231.707,517.564,231.783,517.006,231.783z"/>
				<path d="M528.816,227.695c0,0.68-0.105,1.271-0.317,1.777c-0.211,0.506-0.511,0.926-0.899,1.258
					c-0.39,0.332-0.863,0.58-1.422,0.746s-1.185,0.25-1.879,0.25c-0.317,0-0.688-0.014-1.11-0.039
					c-0.423-0.027-0.838-0.082-1.245-0.166v-7.643c0.407-0.076,0.832-0.127,1.273-0.152c0.441-0.027,0.821-0.041,1.138-0.041
					c0.672,0,1.282,0.076,1.829,0.227c0.548,0.152,1.018,0.389,1.41,0.715c0.393,0.324,0.694,0.738,0.905,1.244
					C528.711,226.377,528.816,226.986,528.816,227.695z M523.71,230.186c0.083,0.008,0.179,0.014,0.288,0.018
					s0.24,0.006,0.391,0.006c0.884,0,1.538-0.223,1.965-0.668s0.64-1.061,0.64-1.846c0-0.822-0.203-1.445-0.611-1.869
					c-0.407-0.422-1.053-0.635-1.937-0.635c-0.12,0-0.245,0.002-0.373,0.006c-0.129,0.004-0.249,0.014-0.362,0.029V230.186z"/>
			</g>
			<rect x="474.107" y="190.942" fill="#3499CD" width="2.83" height="15.13"/>
			<rect x="543.938" y="190.942" fill="#3499CD" width="2.83" height="15.13"/>
		</g>
		<g>
			<polygon fill="#020202" points="532.68,204.709 509.995,218.359 487.312,204.709 487.312,177.4 509.995,163.747 532.68,177.4 			
				"/>
			<g>
				<g>
					<rect x="500.934" y="184.554" fill="#498ECC" width="17.955" height="6.474"/>
					<circle fill="#498ECC" cx="500.935" cy="186.604" r="4.425"/>
					<circle fill="#498ECC" cx="518.888" cy="186.604" r="4.425"/>
					<circle fill="#498ECC" cx="504.449" cy="181.142" r="4.425"/>
					<circle fill="#498ECC" cx="515.273" cy="181.142" r="4.425"/>
					<circle fill="#498ECC" cx="509.912" cy="178.486" r="4.425"/>
					<rect x="500.934" y="182.531" fill="#498ECC" width="17.955" height="4.451"/>
				</g>
				<g>
					<rect x="500.934" y="188.602" fill="#51ADE1" width="17.955" height="6.473"/>
					<circle fill="#51ADE1" cx="500.935" cy="190.649" r="4.426"/>
					<circle fill="#51ADE1" cx="518.888" cy="190.649" r="4.426"/>
					<circle fill="#51ADE1" cx="504.449" cy="185.187" r="4.425"/>
					<circle fill="#51ADE1" cx="515.273" cy="185.187" r="4.425"/>
					<circle fill="#51ADE1" cx="509.912" cy="182.531" r="4.426"/>
					<rect x="500.934" y="186.578" fill="#51ADE1" width="17.955" height="4.449"/>
				</g>
				<g>
					<rect x="500.934" y="193.659" fill="#6EC9F2" width="17.955" height="6.472"/>
					<circle fill="#6EC9F2" cx="500.935" cy="195.706" r="4.425"/>
					<circle fill="#6EC9F2" cx="518.888" cy="195.706" r="4.425"/>
					<circle fill="#6EC9F2" cx="504.449" cy="190.245" r="4.426"/>
					<circle fill="#6EC9F2" cx="515.273" cy="190.245" r="4.426"/>
					<circle fill="#6EC9F2" cx="509.912" cy="187.59" r="4.426"/>
					<rect x="500.934" y="191.634" fill="#6EC9F2" width="17.955" height="4.452"/>
				</g>
				<g>
					<rect x="500.934" y="198.717" fill="#FFFFFF" width="17.955" height="6.471"/>
					<circle fill="#FFFFFF" cx="500.935" cy="200.765" r="4.425"/>
					<circle fill="#FFFFFF" cx="518.888" cy="200.765" r="4.425"/>
					<circle fill="#FFFFFF" cx="504.449" cy="195.303" r="4.426"/>
					<circle fill="#FFFFFF" cx="515.273" cy="195.303" r="4.426"/>
					<circle fill="#FFFFFF" cx="509.912" cy="192.647" r="4.425"/>
					<rect x="500.934" y="196.693" fill="#FFFFFF" width="17.955" height="4.449"/>
				</g>
			</g>
		</g>
	</g>
</g>
<g>
	
		<rect x="149.924" y="163.826" fill="none" stroke="#996699" stroke-width="3" stroke-linecap="square" width="19.82" height="25.001"/>
</g>
<g>
	
		<rect x="289.092" y="163.826" fill="none" stroke="#996699" stroke-width="3" stroke-linecap="square" width="19.82" height="25.001"/>
</g>
<g>
	
		<rect x="429.092" y="163.826" fill="none" stroke="#996699" stroke-width="3" stroke-linecap="square" width="19.82" height="25.001"/>
</g>
<line fill="none" stroke="#996699" stroke-width="3" stroke-linecap="square" x1="155.168" y1="168.667" x2="164.501" y2="168.667"/>
<line fill="none" stroke="#996699" stroke-width="3" stroke-linecap="square" x1="155.168" y1="173.667" x2="164.501" y2="173.667"/>
<line fill="none" stroke="#996699" stroke-width="3" stroke-linecap="square" x1="155.168" y1="178.667" x2="164.501" y2="178.667"/>
<line fill="none" stroke="#996699" stroke-width="3" stroke-linecap="square" x1="294.168" y1="168.667" x2="303.501" y2="168.667"/>
<line fill="none" stroke="#996699" stroke-width="3" stroke-linecap="square" x1="294.168" y1="173.667" x2="303.501" y2="173.667"/>
<line fill="none" stroke="#996699" stroke-width="3" stroke-linecap="square" x1="294.168" y1="178.667" x2="303.501" y2="178.667"/>
<line fill="none" stroke="#996699" stroke-width="3" stroke-linecap="square" x1="434.168" y1="168.667" x2="443.501" y2="168.667"/>
<line fill="none" stroke="#996699" stroke-width="3" stroke-linecap="square" x1="434.168" y1="173.667" x2="443.501" y2="173.667"/>
<line fill="none" stroke="#996699" stroke-width="3" stroke-linecap="square" x1="434.168" y1="178.667" x2="443.501" y2="178.667"/>
</svg>
