<?xml version="1.0" encoding="utf-8"?>
<!-- Generator: Adobe Illustrator 19.1.0, SVG Export Plug-In . SVG Version: 6.00 Build 0)  -->
<svg version="1.1"
	 id="Layer_1" sodipodi:docname="cloud.svg" inkscape:version="0.48.4 r9939" xmlns:rdf="http://www.w3.org/1999/02/22-rdf-syntax-ns#" xmlns:cc="http://creativecommons.org/ns#" xmlns:sodipodi="http://sodipodi.sourceforge.net/DTD/sodipodi-0.dtd" xmlns:svg="http://www.w3.org/2000/svg" xmlns:inkscape="http://www.inkscape.org/namespaces/inkscape" xmlns:dc="http://purl.org/dc/elements/1.1/"
	 xmlns="http://www.w3.org/2000/svg" xmlns:xlink="http://www.w3.org/1999/xlink" x="0px" y="0px" viewBox="14 197 640 400"
	 style="enable-background:new 14 197 640 400;" xml:space="preserve">
<style type="text/css">
	.st0{fill:none;stroke:#000000;stroke-width:2;stroke-miterlimit:10;}
	.st1{fill:#FFFFFF;stroke:#000000;stroke-width:2;stroke-miterlimit:10;}
</style>
<sodipodi:namedview  inkscape:current-layer="Layer_1" inkscape:window-maximized="1" inkscape:window-y="24" inkscape:window-x="0" inkscape:window-height="1026" inkscape:window-width="1680" inkscape:pageopacity="0" inkscape:pageshadow="2" borderopacity="1" id="namedview73" bordercolor="#666666" pagecolor="#ffffff" objecttolerance="10" inkscape:zoom="0.59" inkscape:cx="-70.59322" guidetolerance="10" showgrid="false" gridtolerance="10" inkscape:cy="200">
	</sodipodi:namedview>
<title  id="title5">Layer 1</title>
<polygon id="polygon3" class="st0" points="334,197 500.2,297 500.2,497 334,597 167.8,497 167.8,297 "/>
<path class="st1" d="M431.5,364.4c0-16.2-11.9-29.7-27.5-32c0.6-2.5,1-5.2,1-8c0-17.9-14.5-32.4-32.4-32.4c-3.1,0-6.2,0.5-9,1.3
	c-4.7-12.1-16.5-20.7-30.2-20.7c-13.9,0-25.7,8.7-30.3,20.9c-3.1-1-6.3-1.5-9.7-1.5c-17.9,0-32.4,14.5-32.4,32.4
	c0,2.8,0.4,5.5,1,8.1c-15.2,2.7-26.8,15.9-26.8,31.9c0,17.9,14.5,32.4,32.4,32.4h131.5l0,0C417,396.8,431.5,382.3,431.5,364.4z"/>
<path class="st1" d="M404.1,362c0.6-2.5,1-5.2,1-8c0-17.9-14.5-32.4-32.4-32.4c-3.1,0-6.2,0.5-9,1.3c-4.7-12.1-16.5-20.7-30.2-20.7
	c-13.9,0-25.7,8.7-30.3,20.9c-3.1-1-6.3-1.5-9.7-1.5c-17.9,0-32.4,14.5-32.4,32.4c0,2.8,0.4,5.5,1,8.1
	c-15.2,2.7-26.8,15.9-26.8,31.9c0,17.9,14.5,32.4,32.4,32.4c0,0,0,0,0,0h131.4c0,0,0,0,0,0c17.9,0,32.4-14.5,32.4-32.4
	C431.5,377.8,419.6,364.4,404.1,362z"/>
<path class="st1" d="M404.1,399c0.6-2.5,1-5.2,1-8c0-17.9-14.5-32.4-32.4-32.4c-3.1,0-6.2,0.5-9,1.3c-4.7-12.1-16.5-20.7-30.2-20.7
	c-13.9,0-25.7,8.7-30.3,20.9c-3.1-1-6.3-1.5-9.7-1.5c-17.9,0-32.4,14.5-32.4,32.4c0,2.8,0.4,5.5,1,8.1
	c-15.2,2.7-26.8,15.9-26.8,31.9c0,17.9,14.5,32.4,32.4,32.4c0,0,0,0,0,0h131.4c0,0,0,0,0,0c17.9,0,32.4-14.5,32.4-32.4
	C431.5,414.9,419.6,401.4,404.1,399z"/>
<path class="st1" d="M404.1,436.1c0.6-2.5,1-5.2,1-8c0-17.9-14.5-32.4-32.4-32.4c-3.1,0-6.2,0.5-9,1.3
	c-4.7-12.1-16.5-20.7-30.2-20.7c-13.9,0-25.7,8.7-30.3,20.9c-3.1-1-6.3-1.5-9.7-1.5c-17.9,0-32.4,14.5-32.4,32.4
	c0,2.8,0.4,5.5,1,8.1c-15.2,2.7-26.8,15.9-26.8,31.9c0,17.9,14.5,32.4,32.4,32.4c0,0,0,0,0,0h131.4c0,0,0,0,0,0
	c17.9,0,32.4-14.5,32.4-32.4C431.5,451.9,419.6,438.5,404.1,436.1z"/>
</svg>
