<?xml version="1.0" encoding="utf-8"?>
<!-- Generator: Adobe Illustrator 16.0.0, SVG Export Plug-In . SVG Version: 6.00 Build 0)  -->
<!DOCTYPE svg PUBLIC "-//W3C//DTD SVG 1.1//EN" "http://www.w3.org/Graphics/SVG/1.1/DTD/svg11.dtd">
<svg version="1.1" id="Layer_1" xmlns="http://www.w3.org/2000/svg" xmlns:xlink="http://www.w3.org/1999/xlink" x="0px" y="0px"
	 width="700px" height="430px" viewBox="0 0 700 430" enable-background="new 0 0 700 430" xml:space="preserve">
<g>
	
		<line fill="none" stroke="#6FC498" stroke-width="4" stroke-miterlimit="10" stroke-dasharray="4" x1="140.966" y1="126.891" x2="192.437" y2="126.891"/>
	
		<line fill="none" stroke="#6FC498" stroke-width="4" stroke-miterlimit="10" stroke-dasharray="4" x1="270.966" y1="301.891" x2="322.437" y2="301.891"/>
	
		<line fill="none" stroke="#6FC498" stroke-width="4" stroke-miterlimit="10" stroke-dasharray="4" x1="525.966" y1="301.891" x2="577.438" y2="301.891"/>
	
		<line fill="none" stroke="#6FC498" stroke-width="4" stroke-miterlimit="10" stroke-dasharray="4" x1="230.711" y1="180.175" x2="230.711" y2="249.825"/>
	
		<line fill="none" stroke="#6FC498" stroke-width="4" stroke-miterlimit="10" stroke-dasharray="4" x1="487.711" y1="182.943" x2="487.711" y2="247.057"/>
	
		<line fill="none" stroke="#6FC498" stroke-width="4" stroke-miterlimit="10" stroke-dasharray="4" x1="397.966" y1="301.891" x2="449.438" y2="301.891"/>
	
		<line fill="none" stroke="#6FC498" stroke-width="4" stroke-miterlimit="10" stroke-dasharray="4" x1="140.966" y1="301.891" x2="192.438" y2="301.891"/>
	
		<line fill="none" stroke="#6FC498" stroke-width="4" stroke-miterlimit="10" stroke-dasharray="4" x1="270.966" y1="126.891" x2="322.437" y2="126.891"/>
	
		<line fill="none" stroke="#6FC498" stroke-width="4" stroke-miterlimit="10" stroke-dasharray="4" x1="524.966" y1="126.891" x2="576.438" y2="126.891"/>
</g>
<g>
	<line fill="none" stroke="#3499CD" stroke-width="5" stroke-miterlimit="10" x1="616.222" y1="430" x2="616.222" y2="371.604"/>
	<polygon fill="#3499CD" points="612.979,377.872 609.979,369.901 622.464,369.901 619.464,377.872 	"/>
	<polyline fill="#3499CD" stroke="#1E314B" stroke-miterlimit="10" points="623.464,356.474 623.464,367.872 622.464,369.901 
		609.979,369.901 608.979,367.872 608.979,356.474 	"/>
	<path fill="#FFCE0C" stroke="#F89939" stroke-width="0.869" stroke-miterlimit="10" d="M608.979,367.985"/>
	<line fill="none" stroke="#1E314B" stroke-miterlimit="10" x1="622.464" y1="371.36" x2="609.964" y2="371.36"/>
	<line fill="none" stroke="#1E314B" stroke-miterlimit="10" x1="621.714" y1="372.86" x2="610.714" y2="372.86"/>
	<line fill="none" stroke="#1E314B" stroke-miterlimit="10" x1="620.964" y1="374.36" x2="611.464" y2="374.36"/>
	<line fill="none" stroke="#1E314B" stroke-miterlimit="10" x1="620.464" y1="375.86" x2="611.964" y2="375.86"/>
	<rect x="612.591" y="377.04" fill="#1E314B" width="7.186" height="3.486"/>
</g>
<g>
	<line fill="none" stroke="#3499CD" stroke-width="5" stroke-miterlimit="10" x1="486.222" y1="430" x2="486.222" y2="371.604"/>
	<polygon fill="#3499CD" points="482.979,377.872 479.979,369.901 492.464,369.901 489.464,377.872 	"/>
	<polyline fill="#3499CD" stroke="#1E314B" stroke-miterlimit="10" points="493.464,356.474 493.464,367.872 492.464,369.901 
		479.979,369.901 478.979,367.872 478.979,356.474 	"/>
	<path fill="#FFCE0C" stroke="#F89939" stroke-width="0.869" stroke-miterlimit="10" d="M478.979,367.985"/>
	<line fill="none" stroke="#1E314B" stroke-miterlimit="10" x1="492.464" y1="371.36" x2="479.964" y2="371.36"/>
	<line fill="none" stroke="#1E314B" stroke-miterlimit="10" x1="491.714" y1="372.86" x2="480.714" y2="372.86"/>
	<line fill="none" stroke="#1E314B" stroke-miterlimit="10" x1="490.964" y1="374.36" x2="481.464" y2="374.36"/>
	<line fill="none" stroke="#1E314B" stroke-miterlimit="10" x1="490.464" y1="375.86" x2="481.964" y2="375.86"/>
	<rect x="482.591" y="377.04" fill="#1E314B" width="7.186" height="3.486"/>
</g>
<g>
	<line fill="none" stroke="#3499CD" stroke-width="5" stroke-miterlimit="10" x1="356.222" y1="430" x2="356.222" y2="371.604"/>
	<polygon fill="#3499CD" points="352.979,377.872 349.979,369.901 362.464,369.901 359.464,377.872 	"/>
	<polyline fill="#3499CD" stroke="#1E314B" stroke-miterlimit="10" points="363.464,356.474 363.464,367.872 362.464,369.901 
		349.979,369.901 348.979,367.872 348.979,356.474 	"/>
	<path fill="#FFCE0C" stroke="#F89939" stroke-width="0.869" stroke-miterlimit="10" d="M348.979,367.985"/>
	<line fill="none" stroke="#1E314B" stroke-miterlimit="10" x1="362.464" y1="371.36" x2="349.964" y2="371.36"/>
	<line fill="none" stroke="#1E314B" stroke-miterlimit="10" x1="361.714" y1="372.86" x2="350.714" y2="372.86"/>
	<line fill="none" stroke="#1E314B" stroke-miterlimit="10" x1="360.964" y1="374.36" x2="351.464" y2="374.36"/>
	<line fill="none" stroke="#1E314B" stroke-miterlimit="10" x1="360.464" y1="375.86" x2="351.964" y2="375.86"/>
	<rect x="352.591" y="377.04" fill="#1E314B" width="7.186" height="3.486"/>
</g>
<g>
	<line fill="none" stroke="#3499CD" stroke-width="5" stroke-miterlimit="10" x1="96.222" y1="430" x2="96.222" y2="371.604"/>
	<polygon fill="#3499CD" points="92.979,377.872 89.979,369.901 102.464,369.901 99.464,377.872 	"/>
	<polyline fill="#3499CD" stroke="#1E314B" stroke-miterlimit="10" points="103.464,356.474 103.464,367.872 102.464,369.901 
		89.979,369.901 88.979,367.872 88.979,356.474 	"/>
	<path fill="#FFCE0C" stroke="#F89939" stroke-width="0.869" stroke-miterlimit="10" d="M88.979,367.985"/>
	<line fill="none" stroke="#1E314B" stroke-miterlimit="10" x1="102.464" y1="371.36" x2="89.964" y2="371.36"/>
	<line fill="none" stroke="#1E314B" stroke-miterlimit="10" x1="101.714" y1="372.86" x2="90.714" y2="372.86"/>
	<line fill="none" stroke="#1E314B" stroke-miterlimit="10" x1="100.964" y1="374.36" x2="91.464" y2="374.36"/>
	<line fill="none" stroke="#1E314B" stroke-miterlimit="10" x1="100.464" y1="375.86" x2="91.964" y2="375.86"/>
	<rect x="92.591" y="377.04" fill="#1E314B" width="7.186" height="3.486"/>
</g>
<g>
	
		<rect x="57.998" y="255.134" fill="#FFFFFF" stroke="#000000" stroke-width="0.4404" stroke-miterlimit="10" width="77.064" height="98.72"/>
	<g>
		<g>
			<g>
				<path fill="#010101" stroke="#FFFFFF" stroke-width="0.1815" stroke-miterlimit="10" d="M96.216,296.35"/>
			</g>
			<g>
				<path fill="#010101" stroke="#FFFFFF" stroke-width="0.1815" stroke-miterlimit="10" d="M96.216,296.35"/>
			</g>
			<g>
				<path fill="#010101" stroke="#FFFFFF" stroke-width="0.1815" stroke-miterlimit="10" d="M96.216,296.35"/>
			</g>
			<g>
				<path fill="#010101" stroke="#FFFFFF" stroke-width="0.1815" stroke-miterlimit="10" d="M96.216,296.35"/>
			</g>
		</g>
		<polyline fill="#3499CD" points="118.901,309.393 107.56,316.197 96.218,323.002 96.218,309.393 96.218,295.782 		"/>
		<polyline fill="#996699" points="118.901,309.393 118.901,295.782 118.901,282.172 107.572,288.977 96.218,295.782 		"/>
		<polyline fill="#F89939" points="96.22,268.561 84.875,275.366 73.533,282.172 84.877,288.977 96.22,295.782 		"/>
		<polyline fill="#EF3B68" points="96.218,268.561 107.559,275.366 118.901,282.172 107.56,288.977 96.218,295.782 		"/>
		<polyline fill="#FFCE0C" points="73.533,309.393 84.877,316.197 96.22,323.002 96.22,309.393 96.22,295.782 		"/>
		<polyline fill="#6FC498" points="73.534,309.393 73.534,295.782 73.534,282.172 84.875,288.977 96.218,295.782 		"/>
		<g>
			<g>
				<g>
					
						<line fill="none" stroke="#FFFFFF" stroke-width="0.5444" stroke-miterlimit="10" x1="96.222" y1="268.561" x2="96.222" y2="269.195"/>
					
						<line fill="none" stroke="#FFFFFF" stroke-width="0.5444" stroke-miterlimit="10" stroke-dasharray="1.2358,1.2358" x1="96.221" y1="270.432" x2="96.216" y2="294.529"/>
					
						<line fill="none" stroke="#FFFFFF" stroke-width="0.5444" stroke-miterlimit="10" x1="96.216" y1="295.146" x2="96.216" y2="295.782"/>
				</g>
			</g>
			<g>
				<g>
					
						<line fill="none" stroke="#FFFFFF" stroke-width="0.5444" stroke-miterlimit="10" x1="96.216" y1="295.782" x2="96.76" y2="296.109"/>
					
						<line fill="none" stroke="#FFFFFF" stroke-width="0.5444" stroke-miterlimit="10" stroke-dasharray="1.3255,1.3255" x1="97.897" y1="296.791" x2="117.789" y2="308.725"/>
					
						<line fill="none" stroke="#FFFFFF" stroke-width="0.5444" stroke-miterlimit="10" x1="118.357" y1="309.066" x2="118.901" y2="309.393"/>
				</g>
			</g>
			<g>
				<g>
					
						<line fill="none" stroke="#FFFFFF" stroke-width="0.5444" stroke-miterlimit="10" x1="96.216" y1="295.782" x2="95.671" y2="296.109"/>
					
						<line fill="none" stroke="#FFFFFF" stroke-width="0.5444" stroke-miterlimit="10" stroke-dasharray="1.3254,1.3254" x1="94.535" y1="296.791" x2="74.646" y2="308.725"/>
					
						<line fill="none" stroke="#FFFFFF" stroke-width="0.5444" stroke-miterlimit="10" x1="74.078" y1="309.066" x2="73.533" y2="309.393"/>
				</g>
			</g>
		</g>
		<g>
			
				<line fill="none" stroke="#FFFFFF" stroke-width="0.5444" stroke-miterlimit="10" x1="96.222" y1="323.002" x2="96.216" y2="295.782"/>
			
				<line fill="none" stroke="#FFFFFF" stroke-width="0.5444" stroke-miterlimit="10" x1="96.216" y1="295.782" x2="118.901" y2="282.172"/>
			
				<line fill="none" stroke="#FFFFFF" stroke-width="0.5444" stroke-miterlimit="10" x1="96.216" y1="295.782" x2="73.533" y2="282.172"/>
		</g>
	</g>
	
		<rect x="62.403" y="356.52" fill="#FFFFFF" stroke="#000000" stroke-width="0.4404" stroke-miterlimit="10" width="67.942" height="5.537"/>
	
		<rect x="62.403" y="247.057" fill="#FFFFFF" stroke="#000000" stroke-width="0.4404" stroke-miterlimit="10" width="67.942" height="5.536"/>
	
		<line fill="none" stroke="#000000" stroke-width="4.4148" stroke-miterlimit="10" x1="56.5" y1="252.903" x2="136.346" y2="252.903"/>
	
		<line fill="none" stroke="#000000" stroke-width="4.4148" stroke-miterlimit="10" x1="56.5" y1="356.085" x2="136.346" y2="356.085"/>
	<g>
		<path d="M89.894,328.615h1.766v7.848h-1.766v-3.33h-2.967v3.33H85.16v-7.848h1.767v3h2.967V328.615z"/>
		<path d="M96.54,336.621c-0.551,0-1.026-0.078-1.427-0.232s-0.73-0.369-0.991-0.646c-0.26-0.275-0.452-0.604-0.577-0.985
			c-0.125-0.381-0.187-0.802-0.187-1.262v-4.881h1.767v4.732c0,0.318,0.035,0.588,0.107,0.811c0.071,0.223,0.17,0.404,0.294,0.543
			c0.125,0.141,0.275,0.24,0.453,0.301s0.372,0.09,0.583,0.09c0.431,0,0.779-0.131,1.048-0.396c0.268-0.264,0.401-0.713,0.401-1.348
			v-4.732h1.767v4.881c0,0.46-0.063,0.883-0.192,1.268c-0.128,0.385-0.324,0.715-0.589,0.991c-0.264,0.275-0.6,0.489-1.008,0.64
			C97.582,336.545,97.099,336.621,96.54,336.621z"/>
		<path d="M104.093,336.564c-0.43,0-0.858-0.014-1.285-0.039c-0.427-0.027-0.87-0.09-1.33-0.188v-7.609
			c0.362-0.068,0.759-0.119,1.188-0.153c0.431-0.034,0.83-0.051,1.2-0.051c0.499,0,0.957,0.036,1.376,0.107s0.779,0.194,1.082,0.368
			c0.302,0.174,0.537,0.402,0.707,0.686s0.255,0.632,0.255,1.047c0,0.627-0.302,1.121-0.905,1.483
			c0.498,0.188,0.838,0.446,1.019,0.771c0.182,0.324,0.271,0.69,0.271,1.098c0,0.823-0.3,1.442-0.899,1.857
			C106.171,336.357,105.278,336.564,104.093,336.564z M103.198,333.043v2.026c0.129,0.016,0.268,0.026,0.419,0.034
			s0.317,0.012,0.498,0.012c0.528,0,0.955-0.076,1.28-0.227c0.324-0.151,0.486-0.431,0.486-0.838c0-0.363-0.136-0.621-0.407-0.775
			c-0.271-0.155-0.661-0.232-1.166-0.232H103.198z M103.198,331.695h0.86c0.544,0,0.933-0.07,1.167-0.209
			c0.233-0.141,0.351-0.365,0.351-0.674c0-0.318-0.121-0.541-0.362-0.669s-0.597-0.192-1.064-0.192
			c-0.151,0-0.313,0.002-0.486,0.006c-0.174,0.004-0.329,0.014-0.465,0.028V331.695z"/>
	</g>
	<rect x="60.333" y="295.78" width="2.831" height="15.13"/>
	<rect x="130.163" y="295.78" width="2.831" height="15.13"/>
</g>
<g>
	<g>
		<line fill="none" stroke="#3499CD" stroke-width="5" stroke-miterlimit="10" x1="226.222" y1="430" x2="226.222" y2="371.604"/>
		<polygon fill="#3499CD" points="222.979,377.872 219.979,369.901 232.464,369.901 229.464,377.872 		"/>
		<polyline fill="#3499CD" stroke="#1E314B" stroke-miterlimit="10" points="233.464,356.474 233.464,367.872 232.464,369.901 
			219.979,369.901 218.979,367.872 218.979,356.474 		"/>
		<path fill="#FFCE0C" stroke="#F89939" stroke-width="0.869" stroke-miterlimit="10" d="M218.979,367.985"/>
		<line fill="none" stroke="#1E314B" stroke-miterlimit="10" x1="232.464" y1="371.36" x2="219.964" y2="371.36"/>
		<line fill="none" stroke="#1E314B" stroke-miterlimit="10" x1="231.714" y1="372.86" x2="220.714" y2="372.86"/>
		<line fill="none" stroke="#1E314B" stroke-miterlimit="10" x1="230.964" y1="374.36" x2="221.464" y2="374.36"/>
		<line fill="none" stroke="#1E314B" stroke-miterlimit="10" x1="230.464" y1="375.86" x2="221.964" y2="375.86"/>
		<rect x="222.591" y="377.04" fill="#1E314B" width="7.186" height="3.486"/>
	</g>
	<g>
		
			<rect x="188.037" y="255.134" fill="#FFFFFF" stroke="#000000" stroke-width="0.4404" stroke-miterlimit="10" width="77.064" height="98.72"/>
		<g>
			<g>
				<g>
					<path fill="#010101" stroke="#FFFFFF" stroke-width="0.1815" stroke-miterlimit="10" d="M226.254,296.35"/>
				</g>
				<g>
					<path fill="#010101" stroke="#FFFFFF" stroke-width="0.1815" stroke-miterlimit="10" d="M226.254,296.35"/>
				</g>
				<g>
					<path fill="#010101" stroke="#FFFFFF" stroke-width="0.1815" stroke-miterlimit="10" d="M226.254,296.35"/>
				</g>
				<g>
					<path fill="#010101" stroke="#FFFFFF" stroke-width="0.1815" stroke-miterlimit="10" d="M226.254,296.35"/>
				</g>
			</g>
			<polyline fill="#3499CD" points="248.94,309.393 237.598,316.197 226.256,323.002 226.256,309.393 226.256,295.782 			"/>
			<polyline fill="#996699" points="248.94,309.393 248.94,295.782 248.94,282.172 237.611,288.977 226.256,295.782 			"/>
			<polyline fill="#F89939" points="226.258,268.561 214.914,275.366 203.572,282.172 214.916,288.977 226.258,295.782 			"/>
			<polyline fill="#EF3B68" points="226.256,268.561 237.597,275.366 248.94,282.172 237.598,288.977 226.256,295.782 			"/>
			<polyline fill="#FFCE0C" points="203.572,309.393 214.916,316.197 226.258,323.002 226.258,309.393 226.258,295.782 			"/>
			<polyline fill="#6FC498" points="203.573,309.393 203.573,295.782 203.573,282.172 214.914,288.977 226.256,295.782 			"/>
			<g>
				<g>
					<g>
						
							<line fill="none" stroke="#FFFFFF" stroke-width="0.5444" stroke-miterlimit="10" x1="226.26" y1="268.561" x2="226.26" y2="269.195"/>
						
							<line fill="none" stroke="#FFFFFF" stroke-width="0.5444" stroke-miterlimit="10" stroke-dasharray="1.2358,1.2358" x1="226.26" y1="270.432" x2="226.255" y2="294.529"/>
						
							<line fill="none" stroke="#FFFFFF" stroke-width="0.5444" stroke-miterlimit="10" x1="226.254" y1="295.146" x2="226.254" y2="295.782"/>
					</g>
				</g>
				<g>
					<g>
						
							<line fill="none" stroke="#FFFFFF" stroke-width="0.5444" stroke-miterlimit="10" x1="226.254" y1="295.782" x2="226.799" y2="296.109"/>
						
							<line fill="none" stroke="#FFFFFF" stroke-width="0.5444" stroke-miterlimit="10" stroke-dasharray="1.3255,1.3255" x1="227.936" y1="296.791" x2="247.827" y2="308.725"/>
						
							<line fill="none" stroke="#FFFFFF" stroke-width="0.5444" stroke-miterlimit="10" x1="248.396" y1="309.066" x2="248.94" y2="309.393"/>
					</g>
				</g>
				<g>
					<g>
						
							<line fill="none" stroke="#FFFFFF" stroke-width="0.5444" stroke-miterlimit="10" x1="226.254" y1="295.782" x2="225.71" y2="296.109"/>
						
							<line fill="none" stroke="#FFFFFF" stroke-width="0.5444" stroke-miterlimit="10" stroke-dasharray="1.3254,1.3254" x1="224.573" y1="296.791" x2="204.685" y2="308.725"/>
						
							<line fill="none" stroke="#FFFFFF" stroke-width="0.5444" stroke-miterlimit="10" x1="204.116" y1="309.066" x2="203.572" y2="309.393"/>
					</g>
				</g>
			</g>
			<g>
				
					<line fill="none" stroke="#FFFFFF" stroke-width="0.5444" stroke-miterlimit="10" x1="226.26" y1="323.002" x2="226.254" y2="295.782"/>
				
					<line fill="none" stroke="#FFFFFF" stroke-width="0.5444" stroke-miterlimit="10" x1="226.254" y1="295.782" x2="248.94" y2="282.172"/>
				
					<line fill="none" stroke="#FFFFFF" stroke-width="0.5444" stroke-miterlimit="10" x1="226.254" y1="295.782" x2="203.572" y2="282.172"/>
			</g>
		</g>
		
			<rect x="192.442" y="356.52" fill="#FFFFFF" stroke="#000000" stroke-width="0.4404" stroke-miterlimit="10" width="67.942" height="5.537"/>
		
			<rect x="192.442" y="247.057" fill="#FFFFFF" stroke="#000000" stroke-width="0.4404" stroke-miterlimit="10" width="67.942" height="5.536"/>
		
			<line fill="none" stroke="#000000" stroke-width="4.4148" stroke-miterlimit="10" x1="186.539" y1="252.903" x2="266.384" y2="252.903"/>
		
			<line fill="none" stroke="#000000" stroke-width="4.4148" stroke-miterlimit="10" x1="186.539" y1="356.085" x2="266.384" y2="356.085"/>
		<g>
			<path d="M219.932,328.615h1.766v7.848h-1.766v-3.33h-2.967v3.33h-1.767v-7.848h1.767v3h2.967V328.615z"/>
			<path d="M226.579,336.621c-0.551,0-1.026-0.078-1.427-0.232s-0.73-0.369-0.991-0.646c-0.26-0.275-0.452-0.604-0.577-0.985
				c-0.125-0.381-0.187-0.802-0.187-1.262v-4.881h1.767v4.732c0,0.318,0.035,0.588,0.107,0.811c0.071,0.223,0.17,0.404,0.294,0.543
				c0.125,0.141,0.275,0.24,0.453,0.301s0.372,0.09,0.583,0.09c0.431,0,0.779-0.131,1.048-0.396
				c0.268-0.264,0.401-0.713,0.401-1.348v-4.732h1.767v4.881c0,0.46-0.063,0.883-0.192,1.268c-0.128,0.385-0.324,0.715-0.589,0.991
				c-0.264,0.275-0.6,0.489-1.008,0.64C227.621,336.545,227.137,336.621,226.579,336.621z"/>
			<path d="M234.131,336.564c-0.43,0-0.858-0.014-1.285-0.039c-0.427-0.027-0.87-0.09-1.33-0.188v-7.609
				c0.362-0.068,0.759-0.119,1.188-0.153c0.431-0.034,0.83-0.051,1.2-0.051c0.499,0,0.957,0.036,1.376,0.107
				s0.779,0.194,1.082,0.368c0.302,0.174,0.537,0.402,0.707,0.686s0.255,0.632,0.255,1.047c0,0.627-0.302,1.121-0.905,1.483
				c0.498,0.188,0.838,0.446,1.019,0.771c0.182,0.324,0.271,0.69,0.271,1.098c0,0.823-0.3,1.442-0.899,1.857
				C236.209,336.357,235.317,336.564,234.131,336.564z M233.237,333.043v2.026c0.129,0.016,0.268,0.026,0.419,0.034
				s0.317,0.012,0.498,0.012c0.528,0,0.955-0.076,1.28-0.227c0.324-0.151,0.486-0.431,0.486-0.838c0-0.363-0.136-0.621-0.407-0.775
				c-0.271-0.155-0.661-0.232-1.166-0.232H233.237z M233.237,331.695h0.86c0.544,0,0.933-0.07,1.167-0.209
				c0.233-0.141,0.351-0.365,0.351-0.674c0-0.318-0.121-0.541-0.362-0.669s-0.597-0.192-1.064-0.192
				c-0.151,0-0.313,0.002-0.486,0.006c-0.174,0.004-0.329,0.014-0.465,0.028V331.695z"/>
		</g>
		<rect x="190.372" y="295.78" width="2.831" height="15.13"/>
		<rect x="260.202" y="295.78" width="2.831" height="15.13"/>
	</g>
</g>
<g>
	
		<rect x="318.075" y="255.134" fill="#FFFFFF" stroke="#000000" stroke-width="0.4404" stroke-miterlimit="10" width="77.064" height="98.72"/>
	<g>
		<g>
			<g>
				<path fill="#010101" stroke="#FFFFFF" stroke-width="0.1815" stroke-miterlimit="10" d="M356.294,296.35"/>
			</g>
			<g>
				<path fill="#010101" stroke="#FFFFFF" stroke-width="0.1815" stroke-miterlimit="10" d="M356.294,296.35"/>
			</g>
			<g>
				<path fill="#010101" stroke="#FFFFFF" stroke-width="0.1815" stroke-miterlimit="10" d="M356.294,296.35"/>
			</g>
			<g>
				<path fill="#010101" stroke="#FFFFFF" stroke-width="0.1815" stroke-miterlimit="10" d="M356.294,296.35"/>
			</g>
		</g>
		<polyline fill="#3499CD" points="378.979,309.393 367.638,316.197 356.296,323.002 356.296,309.393 356.296,295.782 		"/>
		<polyline fill="#996699" points="378.979,309.393 378.979,295.782 378.979,282.172 367.649,288.977 356.296,295.782 		"/>
		<polyline fill="#F89939" points="356.298,268.561 344.952,275.366 333.61,282.172 344.954,288.977 356.298,295.782 		"/>
		<polyline fill="#EF3B68" points="356.296,268.561 367.636,275.366 378.979,282.172 367.638,288.977 356.296,295.782 		"/>
		<polyline fill="#FFCE0C" points="333.61,309.393 344.954,316.197 356.298,323.002 356.298,309.393 356.298,295.782 		"/>
		<polyline fill="#6FC498" points="333.611,309.393 333.611,295.782 333.611,282.172 344.952,288.977 356.296,295.782 		"/>
		<g>
			<g>
				<g>
					
						<line fill="none" stroke="#FFFFFF" stroke-width="0.5444" stroke-miterlimit="10" x1="356.3" y1="268.561" x2="356.3" y2="269.195"/>
					
						<line fill="none" stroke="#FFFFFF" stroke-width="0.5444" stroke-miterlimit="10" stroke-dasharray="1.2358,1.2358" x1="356.299" y1="270.432" x2="356.294" y2="294.529"/>
					
						<line fill="none" stroke="#FFFFFF" stroke-width="0.5444" stroke-miterlimit="10" x1="356.294" y1="295.146" x2="356.294" y2="295.782"/>
				</g>
			</g>
			<g>
				<g>
					
						<line fill="none" stroke="#FFFFFF" stroke-width="0.5444" stroke-miterlimit="10" x1="356.294" y1="295.782" x2="356.838" y2="296.109"/>
					
						<line fill="none" stroke="#FFFFFF" stroke-width="0.5444" stroke-miterlimit="10" stroke-dasharray="1.3255,1.3255" x1="357.976" y1="296.791" x2="377.866" y2="308.725"/>
					
						<line fill="none" stroke="#FFFFFF" stroke-width="0.5444" stroke-miterlimit="10" x1="378.435" y1="309.066" x2="378.979" y2="309.393"/>
				</g>
			</g>
			<g>
				<g>
					
						<line fill="none" stroke="#FFFFFF" stroke-width="0.5444" stroke-miterlimit="10" x1="356.294" y1="295.782" x2="355.75" y2="296.109"/>
					
						<line fill="none" stroke="#FFFFFF" stroke-width="0.5444" stroke-miterlimit="10" stroke-dasharray="1.3254,1.3254" x1="354.613" y1="296.791" x2="334.723" y2="308.725"/>
					
						<line fill="none" stroke="#FFFFFF" stroke-width="0.5444" stroke-miterlimit="10" x1="334.155" y1="309.066" x2="333.61" y2="309.393"/>
				</g>
			</g>
		</g>
		<g>
			
				<line fill="none" stroke="#FFFFFF" stroke-width="0.5444" stroke-miterlimit="10" x1="356.3" y1="323.002" x2="356.294" y2="295.782"/>
			
				<line fill="none" stroke="#FFFFFF" stroke-width="0.5444" stroke-miterlimit="10" x1="356.294" y1="295.782" x2="378.979" y2="282.172"/>
			
				<line fill="none" stroke="#FFFFFF" stroke-width="0.5444" stroke-miterlimit="10" x1="356.294" y1="295.782" x2="333.61" y2="282.172"/>
		</g>
	</g>
	
		<rect x="322.48" y="356.52" fill="#FFFFFF" stroke="#000000" stroke-width="0.4404" stroke-miterlimit="10" width="67.942" height="5.537"/>
	
		<rect x="322.48" y="247.057" fill="#FFFFFF" stroke="#000000" stroke-width="0.4404" stroke-miterlimit="10" width="67.942" height="5.536"/>
	
		<line fill="none" stroke="#000000" stroke-width="4.4148" stroke-miterlimit="10" x1="316.577" y1="252.903" x2="396.423" y2="252.903"/>
	
		<line fill="none" stroke="#000000" stroke-width="4.4148" stroke-miterlimit="10" x1="316.577" y1="356.085" x2="396.423" y2="356.085"/>
	<g>
		<path d="M349.971,328.615h1.766v7.848h-1.766v-3.33h-2.967v3.33h-1.767v-7.848h1.767v3h2.967V328.615z"/>
		<path d="M356.618,336.621c-0.551,0-1.026-0.078-1.427-0.232s-0.73-0.369-0.991-0.646c-0.26-0.275-0.452-0.604-0.577-0.985
			c-0.125-0.381-0.187-0.802-0.187-1.262v-4.881h1.767v4.732c0,0.318,0.035,0.588,0.107,0.811c0.071,0.223,0.17,0.404,0.294,0.543
			c0.125,0.141,0.275,0.24,0.453,0.301s0.372,0.09,0.583,0.09c0.43,0,0.78-0.131,1.047-0.396c0.268-0.264,0.402-0.713,0.402-1.348
			v-4.732h1.766v4.881c0,0.46-0.063,0.883-0.191,1.268s-0.324,0.715-0.59,0.991c-0.264,0.275-0.6,0.489-1.008,0.64
			C357.66,336.545,357.176,336.621,356.618,336.621z"/>
		<path d="M364.17,336.564c-0.43,0-0.857-0.014-1.285-0.039c-0.426-0.027-0.869-0.09-1.33-0.188v-7.609
			c0.363-0.068,0.76-0.119,1.189-0.153s0.83-0.051,1.199-0.051c0.5,0,0.957,0.036,1.377,0.107c0.418,0.071,0.779,0.194,1.082,0.368
			c0.301,0.174,0.537,0.402,0.707,0.686s0.254,0.632,0.254,1.047c0,0.627-0.301,1.121-0.904,1.483
			c0.498,0.188,0.838,0.446,1.018,0.771c0.182,0.324,0.271,0.69,0.271,1.098c0,0.823-0.299,1.442-0.898,1.857
			C366.248,336.357,365.355,336.564,364.17,336.564z M363.275,333.043v2.026c0.129,0.016,0.268,0.026,0.42,0.034
			c0.15,0.008,0.316,0.012,0.498,0.012c0.527,0,0.955-0.076,1.279-0.227c0.324-0.151,0.486-0.431,0.486-0.838
			c0-0.363-0.135-0.621-0.406-0.775c-0.271-0.155-0.662-0.232-1.166-0.232H363.275z M363.275,331.695h0.861
			c0.543,0,0.932-0.07,1.166-0.209c0.234-0.141,0.352-0.365,0.352-0.674c0-0.318-0.121-0.541-0.363-0.669
			c-0.24-0.128-0.596-0.192-1.064-0.192c-0.15,0-0.313,0.002-0.486,0.006s-0.328,0.014-0.465,0.028V331.695z"/>
	</g>
	<rect x="320.41" y="295.78" width="2.831" height="15.13"/>
	<rect x="390.241" y="295.78" width="2.83" height="15.13"/>
</g>
<g>
	
		<rect x="448.113" y="255.134" fill="#FFFFFF" stroke="#000000" stroke-width="0.4404" stroke-miterlimit="10" width="77.064" height="98.72"/>
	<g>
		<g>
			<g>
				<path fill="#010101" stroke="#FFFFFF" stroke-width="0.1815" stroke-miterlimit="10" d="M486.332,296.35"/>
			</g>
			<g>
				<path fill="#010101" stroke="#FFFFFF" stroke-width="0.1815" stroke-miterlimit="10" d="M486.332,296.35"/>
			</g>
			<g>
				<path fill="#010101" stroke="#FFFFFF" stroke-width="0.1815" stroke-miterlimit="10" d="M486.332,296.35"/>
			</g>
			<g>
				<path fill="#010101" stroke="#FFFFFF" stroke-width="0.1815" stroke-miterlimit="10" d="M486.332,296.35"/>
			</g>
		</g>
		<polyline fill="#3499CD" points="509.018,309.393 497.676,316.197 486.334,323.002 486.334,309.393 486.334,295.782 		"/>
		<polyline fill="#996699" points="509.018,309.393 509.018,295.782 509.018,282.172 497.688,288.977 486.334,295.782 		"/>
		<polyline fill="#F89939" points="486.336,268.561 474.99,275.366 463.648,282.172 474.992,288.977 486.336,295.782 		"/>
		<polyline fill="#EF3B68" points="486.334,268.561 497.674,275.366 509.018,282.172 497.676,288.977 486.334,295.782 		"/>
		<polyline fill="#FFCE0C" points="463.648,309.393 474.992,316.197 486.336,323.002 486.336,309.393 486.336,295.782 		"/>
		<polyline fill="#6FC498" points="463.65,309.393 463.65,295.782 463.65,282.172 474.99,288.977 486.334,295.782 		"/>
		<g>
			<g>
				<g>
					
						<line fill="none" stroke="#FFFFFF" stroke-width="0.5444" stroke-miterlimit="10" x1="486.338" y1="268.561" x2="486.338" y2="269.195"/>
					
						<line fill="none" stroke="#FFFFFF" stroke-width="0.5444" stroke-miterlimit="10" stroke-dasharray="1.2358,1.2358" x1="486.338" y1="270.432" x2="486.332" y2="294.529"/>
					
						<line fill="none" stroke="#FFFFFF" stroke-width="0.5444" stroke-miterlimit="10" x1="486.332" y1="295.146" x2="486.332" y2="295.782"/>
				</g>
			</g>
			<g>
				<g>
					
						<line fill="none" stroke="#FFFFFF" stroke-width="0.5444" stroke-miterlimit="10" x1="486.332" y1="295.782" x2="486.877" y2="296.109"/>
					
						<line fill="none" stroke="#FFFFFF" stroke-width="0.5444" stroke-miterlimit="10" stroke-dasharray="1.3255,1.3255" x1="488.014" y1="296.791" x2="507.904" y2="308.725"/>
					
						<line fill="none" stroke="#FFFFFF" stroke-width="0.5444" stroke-miterlimit="10" x1="508.473" y1="309.066" x2="509.018" y2="309.393"/>
				</g>
			</g>
			<g>
				<g>
					
						<line fill="none" stroke="#FFFFFF" stroke-width="0.5444" stroke-miterlimit="10" x1="486.332" y1="295.782" x2="485.787" y2="296.109"/>
					
						<line fill="none" stroke="#FFFFFF" stroke-width="0.5444" stroke-miterlimit="10" stroke-dasharray="1.3254,1.3254" x1="484.65" y1="296.791" x2="464.762" y2="308.725"/>
					
						<line fill="none" stroke="#FFFFFF" stroke-width="0.5444" stroke-miterlimit="10" x1="464.193" y1="309.066" x2="463.648" y2="309.393"/>
				</g>
			</g>
		</g>
		<g>
			
				<line fill="none" stroke="#FFFFFF" stroke-width="0.5444" stroke-miterlimit="10" x1="486.338" y1="323.002" x2="486.332" y2="295.782"/>
			
				<line fill="none" stroke="#FFFFFF" stroke-width="0.5444" stroke-miterlimit="10" x1="486.332" y1="295.782" x2="509.018" y2="282.172"/>
			
				<line fill="none" stroke="#FFFFFF" stroke-width="0.5444" stroke-miterlimit="10" x1="486.332" y1="295.782" x2="463.648" y2="282.172"/>
		</g>
	</g>
	
		<rect x="452.52" y="356.52" fill="#FFFFFF" stroke="#000000" stroke-width="0.4404" stroke-miterlimit="10" width="67.941" height="5.537"/>
	
		<rect x="452.52" y="247.057" fill="#FFFFFF" stroke="#000000" stroke-width="0.4404" stroke-miterlimit="10" width="67.941" height="5.536"/>
	
		<line fill="none" stroke="#000000" stroke-width="4.4148" stroke-miterlimit="10" x1="446.615" y1="252.903" x2="526.461" y2="252.903"/>
	
		<line fill="none" stroke="#000000" stroke-width="4.4148" stroke-miterlimit="10" x1="446.615" y1="356.085" x2="526.461" y2="356.085"/>
	<g>
		<path d="M480.01,328.615h1.766v7.848h-1.766v-3.33h-2.967v3.33h-1.767v-7.848h1.767v3h2.967V328.615z"/>
		<path d="M486.656,336.621c-0.551,0-1.026-0.078-1.427-0.232s-0.73-0.369-0.991-0.646c-0.26-0.275-0.452-0.604-0.577-0.985
			c-0.125-0.381-0.187-0.802-0.187-1.262v-4.881h1.767v4.732c0,0.318,0.035,0.588,0.107,0.811c0.071,0.223,0.17,0.404,0.294,0.543
			c0.125,0.141,0.275,0.24,0.453,0.301s0.372,0.09,0.583,0.09c0.431,0,0.779-0.131,1.048-0.396c0.268-0.264,0.401-0.713,0.401-1.348
			v-4.732h1.767v4.881c0,0.46-0.063,0.883-0.192,1.268c-0.128,0.385-0.324,0.715-0.589,0.991c-0.264,0.275-0.6,0.489-1.008,0.64
			C487.698,336.545,487.215,336.621,486.656,336.621z"/>
		<path d="M494.209,336.564c-0.43,0-0.858-0.014-1.285-0.039c-0.427-0.027-0.87-0.09-1.33-0.188v-7.609
			c0.362-0.068,0.759-0.119,1.188-0.153c0.431-0.034,0.83-0.051,1.2-0.051c0.499,0,0.957,0.036,1.376,0.107s0.779,0.194,1.082,0.368
			c0.302,0.174,0.537,0.402,0.707,0.686s0.255,0.632,0.255,1.047c0,0.627-0.302,1.121-0.905,1.483
			c0.498,0.188,0.838,0.446,1.019,0.771c0.182,0.324,0.271,0.69,0.271,1.098c0,0.823-0.3,1.442-0.899,1.857
			C496.287,336.357,495.395,336.564,494.209,336.564z M493.314,333.043v2.026c0.129,0.016,0.268,0.026,0.419,0.034
			s0.317,0.012,0.498,0.012c0.528,0,0.955-0.076,1.28-0.227c0.324-0.151,0.486-0.431,0.486-0.838c0-0.363-0.136-0.621-0.407-0.775
			c-0.271-0.155-0.661-0.232-1.166-0.232H493.314z M493.314,331.695h0.86c0.544,0,0.933-0.07,1.167-0.209
			c0.233-0.141,0.351-0.365,0.351-0.674c0-0.318-0.121-0.541-0.362-0.669s-0.597-0.192-1.064-0.192
			c-0.151,0-0.313,0.002-0.486,0.006c-0.174,0.004-0.329,0.014-0.465,0.028V331.695z"/>
	</g>
	<rect x="450.449" y="295.78" width="2.83" height="15.13"/>
	<rect x="520.279" y="295.78" width="2.83" height="15.13"/>
</g>
<g>
	
		<rect x="578.152" y="255.134" fill="#FFFFFF" stroke="#000000" stroke-width="0.4404" stroke-miterlimit="10" width="77.064" height="98.72"/>
	<g>
		<g>
			<g>
				<path fill="#010101" stroke="#FFFFFF" stroke-width="0.1815" stroke-miterlimit="10" d="M616.371,296.35"/>
			</g>
			<g>
				<path fill="#010101" stroke="#FFFFFF" stroke-width="0.1815" stroke-miterlimit="10" d="M616.371,296.35"/>
			</g>
			<g>
				<path fill="#010101" stroke="#FFFFFF" stroke-width="0.1815" stroke-miterlimit="10" d="M616.371,296.35"/>
			</g>
			<g>
				<path fill="#010101" stroke="#FFFFFF" stroke-width="0.1815" stroke-miterlimit="10" d="M616.371,296.35"/>
			</g>
		</g>
		<polyline fill="#3499CD" points="639.057,309.393 627.715,316.197 616.373,323.002 616.373,309.393 616.373,295.782 		"/>
		<polyline fill="#996699" points="639.057,309.393 639.057,295.782 639.057,282.172 627.727,288.977 616.373,295.782 		"/>
		<polyline fill="#F89939" points="616.375,268.561 605.029,275.366 593.688,282.172 605.031,288.977 616.375,295.782 		"/>
		<polyline fill="#EF3B68" points="616.373,268.561 627.713,275.366 639.057,282.172 627.715,288.977 616.373,295.782 		"/>
		<polyline fill="#FFCE0C" points="593.688,309.393 605.031,316.197 616.375,323.002 616.375,309.393 616.375,295.782 		"/>
		<polyline fill="#6FC498" points="593.689,309.393 593.689,295.782 593.689,282.172 605.029,288.977 616.373,295.782 		"/>
		<g>
			<g>
				<g>
					
						<line fill="none" stroke="#FFFFFF" stroke-width="0.5444" stroke-miterlimit="10" x1="616.377" y1="268.561" x2="616.377" y2="269.195"/>
					
						<line fill="none" stroke="#FFFFFF" stroke-width="0.5444" stroke-miterlimit="10" stroke-dasharray="1.2358,1.2358" x1="616.377" y1="270.432" x2="616.371" y2="294.529"/>
					
						<line fill="none" stroke="#FFFFFF" stroke-width="0.5444" stroke-miterlimit="10" x1="616.371" y1="295.146" x2="616.371" y2="295.782"/>
				</g>
			</g>
			<g>
				<g>
					
						<line fill="none" stroke="#FFFFFF" stroke-width="0.5444" stroke-miterlimit="10" x1="616.371" y1="295.782" x2="616.916" y2="296.109"/>
					
						<line fill="none" stroke="#FFFFFF" stroke-width="0.5444" stroke-miterlimit="10" stroke-dasharray="1.3255,1.3255" x1="618.053" y1="296.791" x2="637.943" y2="308.725"/>
					
						<line fill="none" stroke="#FFFFFF" stroke-width="0.5444" stroke-miterlimit="10" x1="638.512" y1="309.066" x2="639.057" y2="309.393"/>
				</g>
			</g>
			<g>
				<g>
					
						<line fill="none" stroke="#FFFFFF" stroke-width="0.5444" stroke-miterlimit="10" x1="616.371" y1="295.782" x2="615.826" y2="296.109"/>
					
						<line fill="none" stroke="#FFFFFF" stroke-width="0.5444" stroke-miterlimit="10" stroke-dasharray="1.3254,1.3254" x1="614.689" y1="296.791" x2="594.801" y2="308.725"/>
					
						<line fill="none" stroke="#FFFFFF" stroke-width="0.5444" stroke-miterlimit="10" x1="594.232" y1="309.066" x2="593.688" y2="309.393"/>
				</g>
			</g>
		</g>
		<g>
			
				<line fill="none" stroke="#FFFFFF" stroke-width="0.5444" stroke-miterlimit="10" x1="616.377" y1="323.002" x2="616.371" y2="295.782"/>
			
				<line fill="none" stroke="#FFFFFF" stroke-width="0.5444" stroke-miterlimit="10" x1="616.371" y1="295.782" x2="639.057" y2="282.172"/>
			
				<line fill="none" stroke="#FFFFFF" stroke-width="0.5444" stroke-miterlimit="10" x1="616.371" y1="295.782" x2="593.688" y2="282.172"/>
		</g>
	</g>
	
		<rect x="582.559" y="356.52" fill="#FFFFFF" stroke="#000000" stroke-width="0.4404" stroke-miterlimit="10" width="67.941" height="5.537"/>
	
		<rect x="582.559" y="247.057" fill="#FFFFFF" stroke="#000000" stroke-width="0.4404" stroke-miterlimit="10" width="67.941" height="5.536"/>
	
		<line fill="none" stroke="#000000" stroke-width="4.4148" stroke-miterlimit="10" x1="576.654" y1="252.903" x2="656.5" y2="252.903"/>
	
		<line fill="none" stroke="#000000" stroke-width="4.4148" stroke-miterlimit="10" x1="576.654" y1="356.085" x2="656.5" y2="356.085"/>
	<g>
		<path d="M610.049,328.615h1.766v7.848h-1.766v-3.33h-2.967v3.33h-1.768v-7.848h1.768v3h2.967V328.615z"/>
		<path d="M616.695,336.621c-0.551,0-1.027-0.078-1.428-0.232s-0.73-0.369-0.99-0.646c-0.26-0.275-0.453-0.604-0.578-0.985
			c-0.125-0.381-0.186-0.802-0.186-1.262v-4.881h1.766v4.732c0,0.318,0.035,0.588,0.107,0.811s0.17,0.404,0.295,0.543
			c0.125,0.141,0.275,0.24,0.453,0.301s0.371,0.09,0.582,0.09c0.432,0,0.779-0.131,1.049-0.396c0.268-0.264,0.4-0.713,0.4-1.348
			v-4.732h1.768v4.881c0,0.46-0.064,0.883-0.193,1.268c-0.127,0.385-0.324,0.715-0.588,0.991c-0.264,0.275-0.6,0.489-1.008,0.64
			S617.254,336.621,616.695,336.621z"/>
		<path d="M624.248,336.564c-0.43,0-0.859-0.014-1.285-0.039c-0.428-0.027-0.871-0.09-1.33-0.188v-7.609
			c0.361-0.068,0.758-0.119,1.188-0.153c0.432-0.034,0.83-0.051,1.201-0.051c0.498,0,0.957,0.036,1.375,0.107
			c0.42,0.071,0.779,0.194,1.082,0.368s0.537,0.402,0.707,0.686s0.256,0.632,0.256,1.047c0,0.627-0.303,1.121-0.906,1.483
			c0.498,0.188,0.838,0.446,1.02,0.771s0.271,0.69,0.271,1.098c0,0.823-0.301,1.442-0.9,1.857
			C626.326,336.357,625.434,336.564,624.248,336.564z M623.354,333.043v2.026c0.129,0.016,0.268,0.026,0.418,0.034
			c0.152,0.008,0.318,0.012,0.498,0.012c0.529,0,0.955-0.076,1.281-0.227c0.324-0.151,0.486-0.431,0.486-0.838
			c0-0.363-0.137-0.621-0.408-0.775c-0.271-0.155-0.66-0.232-1.166-0.232H623.354z M623.354,331.695h0.859
			c0.545,0,0.934-0.07,1.168-0.209c0.232-0.141,0.35-0.365,0.35-0.674c0-0.318-0.121-0.541-0.361-0.669
			c-0.242-0.128-0.598-0.192-1.064-0.192c-0.152,0-0.314,0.002-0.486,0.006c-0.174,0.004-0.33,0.014-0.465,0.028V331.695z"/>
	</g>
	<rect x="580.488" y="295.78" width="2.83" height="15.13"/>
	<rect x="650.318" y="295.78" width="2.83" height="15.13"/>
</g>
<g>
	<line fill="none" stroke="#3499CD" stroke-width="5" stroke-miterlimit="10" x1="96.778" y1="0" x2="96.778" y2="58.396"/>
	<polygon fill="#3499CD" points="100.021,52.128 103.021,60.099 90.536,60.099 93.536,52.128 	"/>
	<polyline fill="#3499CD" stroke="#1E314B" stroke-miterlimit="10" points="89.536,73.526 89.536,62.128 90.536,60.099 
		103.021,60.099 104.021,62.128 104.021,73.526 	"/>
	<path fill="#FFCE0C" stroke="#F89939" stroke-width="0.869" stroke-miterlimit="10" d="M104.021,62.015"/>
	<line fill="none" stroke="#1E314B" stroke-miterlimit="10" x1="90.536" y1="58.64" x2="103.036" y2="58.64"/>
	<line fill="none" stroke="#1E314B" stroke-miterlimit="10" x1="91.286" y1="57.14" x2="102.286" y2="57.14"/>
	<line fill="none" stroke="#1E314B" stroke-miterlimit="10" x1="92.036" y1="55.64" x2="101.536" y2="55.64"/>
	<line fill="none" stroke="#1E314B" stroke-miterlimit="10" x1="92.536" y1="54.14" x2="101.036" y2="54.14"/>
	<rect x="93.224" y="49.474" fill="#1E314B" width="7.186" height="3.486"/>
</g>
<g>
	<line fill="none" stroke="#3499CD" stroke-width="5" stroke-miterlimit="10" x1="226.778" y1="0" x2="226.778" y2="58.396"/>
	<polygon fill="#3499CD" points="230.021,52.128 233.021,60.099 220.536,60.099 223.536,52.128 	"/>
	<polyline fill="#3499CD" stroke="#1E314B" stroke-miterlimit="10" points="219.536,73.526 219.536,62.128 220.536,60.099 
		233.021,60.099 234.021,62.128 234.021,73.526 	"/>
	<path fill="#FFCE0C" stroke="#F89939" stroke-width="0.869" stroke-miterlimit="10" d="M234.021,62.015"/>
	<line fill="none" stroke="#1E314B" stroke-miterlimit="10" x1="220.536" y1="58.64" x2="233.036" y2="58.64"/>
	<line fill="none" stroke="#1E314B" stroke-miterlimit="10" x1="221.286" y1="57.14" x2="232.286" y2="57.14"/>
	<line fill="none" stroke="#1E314B" stroke-miterlimit="10" x1="222.036" y1="55.64" x2="231.536" y2="55.64"/>
	<line fill="none" stroke="#1E314B" stroke-miterlimit="10" x1="222.536" y1="54.14" x2="231.036" y2="54.14"/>
	<rect x="223.224" y="49.474" fill="#1E314B" width="7.186" height="3.486"/>
</g>
<g>
	<line fill="none" stroke="#3499CD" stroke-width="5" stroke-miterlimit="10" x1="356.778" y1="0" x2="356.778" y2="58.396"/>
	<polygon fill="#3499CD" points="360.021,52.128 363.021,60.099 350.536,60.099 353.536,52.128 	"/>
	<polyline fill="#3499CD" stroke="#1E314B" stroke-miterlimit="10" points="349.536,73.526 349.536,62.128 350.536,60.099 
		363.021,60.099 364.021,62.128 364.021,73.526 	"/>
	<path fill="#FFCE0C" stroke="#F89939" stroke-width="0.869" stroke-miterlimit="10" d="M364.021,62.015"/>
	<line fill="none" stroke="#1E314B" stroke-miterlimit="10" x1="350.536" y1="58.64" x2="363.036" y2="58.64"/>
	<line fill="none" stroke="#1E314B" stroke-miterlimit="10" x1="351.286" y1="57.14" x2="362.286" y2="57.14"/>
	<line fill="none" stroke="#1E314B" stroke-miterlimit="10" x1="352.036" y1="55.64" x2="361.536" y2="55.64"/>
	<line fill="none" stroke="#1E314B" stroke-miterlimit="10" x1="352.536" y1="54.14" x2="361.036" y2="54.14"/>
	<rect x="353.224" y="49.474" fill="#1E314B" width="7.186" height="3.486"/>
</g>
<g>
	<line fill="none" stroke="#3499CD" stroke-width="5" stroke-miterlimit="10" x1="486.778" y1="0" x2="486.778" y2="58.396"/>
	<polygon fill="#3499CD" points="490.021,52.128 493.021,60.099 480.536,60.099 483.536,52.128 	"/>
	<polyline fill="#3499CD" stroke="#1E314B" stroke-miterlimit="10" points="479.536,73.526 479.536,62.128 480.536,60.099 
		493.021,60.099 494.021,62.128 494.021,73.526 	"/>
	<path fill="#FFCE0C" stroke="#F89939" stroke-width="0.869" stroke-miterlimit="10" d="M494.021,62.015"/>
	<line fill="none" stroke="#1E314B" stroke-miterlimit="10" x1="480.536" y1="58.64" x2="493.036" y2="58.64"/>
	<line fill="none" stroke="#1E314B" stroke-miterlimit="10" x1="481.286" y1="57.14" x2="492.286" y2="57.14"/>
	<line fill="none" stroke="#1E314B" stroke-miterlimit="10" x1="482.036" y1="55.64" x2="491.536" y2="55.64"/>
	<line fill="none" stroke="#1E314B" stroke-miterlimit="10" x1="482.536" y1="54.14" x2="491.036" y2="54.14"/>
	<rect x="483.224" y="49.474" fill="#1E314B" width="7.186" height="3.486"/>
</g>
<g>
	<line fill="none" stroke="#3499CD" stroke-width="5" stroke-miterlimit="10" x1="616.778" y1="0" x2="616.778" y2="58.396"/>
	<polygon fill="#3499CD" points="620.021,52.128 623.021,60.099 610.536,60.099 613.536,52.128 	"/>
	<polyline fill="#3499CD" stroke="#1E314B" stroke-miterlimit="10" points="609.536,73.526 609.536,62.128 610.536,60.099 
		623.021,60.099 624.021,62.128 624.021,73.526 	"/>
	<path fill="#FFCE0C" stroke="#F89939" stroke-width="0.869" stroke-miterlimit="10" d="M624.021,62.015"/>
	<line fill="none" stroke="#1E314B" stroke-miterlimit="10" x1="610.536" y1="58.64" x2="623.036" y2="58.64"/>
	<line fill="none" stroke="#1E314B" stroke-miterlimit="10" x1="611.286" y1="57.14" x2="622.286" y2="57.14"/>
	<line fill="none" stroke="#1E314B" stroke-miterlimit="10" x1="612.036" y1="55.64" x2="621.536" y2="55.64"/>
	<line fill="none" stroke="#1E314B" stroke-miterlimit="10" x1="612.536" y1="54.14" x2="621.036" y2="54.14"/>
	<rect x="613.224" y="49.474" fill="#1E314B" width="7.186" height="3.486"/>
</g>
<g>
	
		<rect x="577.938" y="76.146" fill="#FFFFFF" stroke="#000000" stroke-width="0.4404" stroke-miterlimit="10" width="77.064" height="98.72"/>
	<g>
		<g>
			<g>
				<path fill="#010101" stroke="#FFFFFF" stroke-width="0.1815" stroke-miterlimit="10" d="M616.784,133.65"/>
			</g>
			<g>
				<path fill="#010101" stroke="#FFFFFF" stroke-width="0.1815" stroke-miterlimit="10" d="M616.784,133.65"/>
			</g>
			<g>
				<path fill="#010101" stroke="#FFFFFF" stroke-width="0.1815" stroke-miterlimit="10" d="M616.784,133.65"/>
			</g>
			<g>
				<path fill="#010101" stroke="#FFFFFF" stroke-width="0.1815" stroke-miterlimit="10" d="M616.784,133.65"/>
			</g>
		</g>
		<polyline fill="#3499CD" points="594.099,120.607 605.44,113.803 616.782,106.998 616.782,120.607 616.782,134.218 		"/>
		<polyline fill="#996699" points="594.099,120.607 594.099,134.218 594.099,147.828 605.428,141.023 616.782,134.218 		"/>
		<polyline fill="#F89939" points="616.78,161.439 628.125,154.634 639.467,147.828 628.123,141.023 616.78,134.218 		"/>
		<polyline fill="#EF3B68" points="616.782,161.439 605.441,154.634 594.099,147.828 605.44,141.023 616.782,134.218 		"/>
		<polyline fill="#FFCE0C" points="639.467,120.607 628.123,113.803 616.78,106.998 616.78,120.607 616.78,134.218 		"/>
		<polyline fill="#6FC498" points="639.466,120.607 639.466,134.218 639.466,147.828 628.125,141.023 616.782,134.218 		"/>
		<g>
			<g>
				<g>
					
						<line fill="none" stroke="#FFFFFF" stroke-width="0.5444" stroke-miterlimit="10" x1="616.778" y1="161.439" x2="616.778" y2="160.805"/>
					
						<line fill="none" stroke="#FFFFFF" stroke-width="0.5444" stroke-miterlimit="10" stroke-dasharray="1.2358,1.2358" x1="616.778" y1="159.568" x2="616.784" y2="135.471"/>
					
						<line fill="none" stroke="#FFFFFF" stroke-width="0.5444" stroke-miterlimit="10" x1="616.784" y1="134.853" x2="616.784" y2="134.218"/>
				</g>
			</g>
			<g>
				<g>
					
						<line fill="none" stroke="#FFFFFF" stroke-width="0.5444" stroke-miterlimit="10" x1="616.784" y1="134.218" x2="616.239" y2="133.891"/>
					
						<line fill="none" stroke="#FFFFFF" stroke-width="0.5444" stroke-miterlimit="10" stroke-dasharray="1.3255,1.3255" x1="615.103" y1="133.209" x2="595.212" y2="121.275"/>
					
						<line fill="none" stroke="#FFFFFF" stroke-width="0.5444" stroke-miterlimit="10" x1="594.644" y1="120.934" x2="594.099" y2="120.607"/>
				</g>
			</g>
			<g>
				<g>
					
						<line fill="none" stroke="#FFFFFF" stroke-width="0.5444" stroke-miterlimit="10" x1="616.784" y1="134.218" x2="617.329" y2="133.891"/>
					
						<line fill="none" stroke="#FFFFFF" stroke-width="0.5444" stroke-miterlimit="10" stroke-dasharray="1.3254,1.3254" x1="618.465" y1="133.209" x2="638.354" y2="121.275"/>
					
						<line fill="none" stroke="#FFFFFF" stroke-width="0.5444" stroke-miterlimit="10" x1="638.922" y1="120.934" x2="639.467" y2="120.607"/>
				</g>
			</g>
		</g>
		<g>
			
				<line fill="none" stroke="#FFFFFF" stroke-width="0.5444" stroke-miterlimit="10" x1="616.778" y1="106.998" x2="616.784" y2="134.218"/>
			
				<line fill="none" stroke="#FFFFFF" stroke-width="0.5444" stroke-miterlimit="10" x1="616.784" y1="134.218" x2="594.099" y2="147.828"/>
			
				<line fill="none" stroke="#FFFFFF" stroke-width="0.5444" stroke-miterlimit="10" x1="616.784" y1="134.218" x2="639.467" y2="147.828"/>
		</g>
	</g>
	
		<rect x="582.654" y="67.943" fill="#FFFFFF" stroke="#000000" stroke-width="0.4404" stroke-miterlimit="10" width="67.942" height="5.537"/>
	
		<rect x="582.654" y="177.407" fill="#FFFFFF" stroke="#000000" stroke-width="0.4404" stroke-miterlimit="10" width="67.942" height="5.536"/>
	
		<line fill="none" stroke="#000000" stroke-width="4.4148" stroke-miterlimit="10" x1="656.5" y1="177.097" x2="576.654" y2="177.097"/>
	
		<line fill="none" stroke="#000000" stroke-width="4.4148" stroke-miterlimit="10" x1="656.5" y1="73.915" x2="576.654" y2="73.915"/>
	<g>
		<path d="M623.106,101.385h-1.766v-7.848h1.766v3.33h2.967v-3.33h1.767v7.848h-1.767v-3h-2.967V101.385z"/>
		<path d="M616.46,93.379c0.551,0,1.026,0.078,1.427,0.232s0.73,0.369,0.991,0.646c0.26,0.275,0.452,0.604,0.577,0.985
			c0.125,0.381,0.187,0.802,0.187,1.262v4.881h-1.767v-4.732c0-0.318-0.035-0.588-0.107-0.811c-0.071-0.223-0.17-0.404-0.294-0.543
			c-0.125-0.141-0.275-0.24-0.453-0.301s-0.372-0.09-0.583-0.09c-0.431,0-0.779,0.131-1.048,0.396
			c-0.268,0.264-0.401,0.713-0.401,1.348v4.732h-1.767v-4.881c0-0.46,0.063-0.883,0.192-1.268c0.128-0.385,0.324-0.715,0.589-0.991
			c0.264-0.275,0.6-0.489,1.008-0.64C615.418,93.455,615.901,93.379,616.46,93.379z"/>
		<path d="M608.907,93.436c0.43,0,0.858,0.014,1.285,0.039c0.427,0.027,0.87,0.09,1.33,0.188v7.609
			c-0.362,0.068-0.759,0.119-1.188,0.153c-0.431,0.034-0.83,0.051-1.2,0.051c-0.499,0-0.957-0.036-1.376-0.107
			s-0.779-0.194-1.082-0.368c-0.302-0.174-0.537-0.402-0.707-0.686s-0.255-0.632-0.255-1.047c0-0.627,0.302-1.121,0.905-1.483
			c-0.498-0.188-0.838-0.446-1.019-0.771c-0.182-0.324-0.271-0.69-0.271-1.098c0-0.823,0.3-1.442,0.899-1.857
			C606.829,93.643,607.722,93.436,608.907,93.436z M609.802,96.957v-2.026c-0.129-0.016-0.268-0.026-0.419-0.034
			s-0.317-0.012-0.498-0.012c-0.528,0-0.955,0.076-1.28,0.227c-0.324,0.151-0.486,0.431-0.486,0.838
			c0,0.363,0.136,0.621,0.407,0.775c0.271,0.155,0.661,0.232,1.166,0.232H609.802z M609.802,98.305h-0.86
			c-0.544,0-0.933,0.07-1.167,0.209c-0.233,0.141-0.351,0.365-0.351,0.674c0,0.318,0.121,0.541,0.362,0.669s0.597,0.192,1.064,0.192
			c0.151,0,0.313-0.002,0.486-0.006c0.174-0.004,0.329-0.014,0.465-0.028V98.305z"/>
	</g>
	<rect x="649.836" y="119.09" width="2.831" height="15.13"/>
	<rect x="580.006" y="119.09" width="2.831" height="15.13"/>
</g>
<g>
	
		<rect x="447.898" y="76.146" fill="#FFFFFF" stroke="#000000" stroke-width="0.4404" stroke-miterlimit="10" width="77.064" height="98.72"/>
	<g>
		<g>
			<g>
				<path fill="#010101" stroke="#FFFFFF" stroke-width="0.1815" stroke-miterlimit="10" d="M486.746,133.65"/>
			</g>
			<g>
				<path fill="#010101" stroke="#FFFFFF" stroke-width="0.1815" stroke-miterlimit="10" d="M486.746,133.65"/>
			</g>
			<g>
				<path fill="#010101" stroke="#FFFFFF" stroke-width="0.1815" stroke-miterlimit="10" d="M486.746,133.65"/>
			</g>
			<g>
				<path fill="#010101" stroke="#FFFFFF" stroke-width="0.1815" stroke-miterlimit="10" d="M486.746,133.65"/>
			</g>
		</g>
		<polyline fill="#3499CD" points="464.061,120.607 475.402,113.803 486.744,106.998 486.744,120.607 486.744,134.218 		"/>
		<polyline fill="#996699" points="464.061,120.607 464.061,134.218 464.061,147.828 475.389,141.023 486.744,134.218 		"/>
		<polyline fill="#F89939" points="486.742,161.439 498.086,154.634 509.428,147.828 498.084,141.023 486.742,134.218 		"/>
		<polyline fill="#EF3B68" points="486.744,161.439 475.402,154.634 464.061,147.828 475.402,141.023 486.744,134.218 		"/>
		<polyline fill="#FFCE0C" points="509.428,120.607 498.084,113.803 486.742,106.998 486.742,120.607 486.742,134.218 		"/>
		<polyline fill="#6FC498" points="509.428,120.607 509.428,134.218 509.428,147.828 498.086,141.023 486.744,134.218 		"/>
		<g>
			<g>
				<g>
					
						<line fill="none" stroke="#FFFFFF" stroke-width="0.5444" stroke-miterlimit="10" x1="486.74" y1="161.439" x2="486.74" y2="160.805"/>
					
						<line fill="none" stroke="#FFFFFF" stroke-width="0.5444" stroke-miterlimit="10" stroke-dasharray="1.2358,1.2358" x1="486.74" y1="159.568" x2="486.746" y2="135.471"/>
					
						<line fill="none" stroke="#FFFFFF" stroke-width="0.5444" stroke-miterlimit="10" x1="486.746" y1="134.853" x2="486.746" y2="134.218"/>
				</g>
			</g>
			<g>
				<g>
					
						<line fill="none" stroke="#FFFFFF" stroke-width="0.5444" stroke-miterlimit="10" x1="486.746" y1="134.218" x2="486.201" y2="133.891"/>
					
						<line fill="none" stroke="#FFFFFF" stroke-width="0.5444" stroke-miterlimit="10" stroke-dasharray="1.3255,1.3255" x1="485.064" y1="133.209" x2="465.174" y2="121.275"/>
					
						<line fill="none" stroke="#FFFFFF" stroke-width="0.5444" stroke-miterlimit="10" x1="464.605" y1="120.934" x2="464.061" y2="120.607"/>
				</g>
			</g>
			<g>
				<g>
					
						<line fill="none" stroke="#FFFFFF" stroke-width="0.5444" stroke-miterlimit="10" x1="486.746" y1="134.218" x2="487.291" y2="133.891"/>
					
						<line fill="none" stroke="#FFFFFF" stroke-width="0.5444" stroke-miterlimit="10" stroke-dasharray="1.3253,1.3253" x1="488.427" y1="133.209" x2="508.314" y2="121.275"/>
					
						<line fill="none" stroke="#FFFFFF" stroke-width="0.5444" stroke-miterlimit="10" x1="508.883" y1="120.934" x2="509.428" y2="120.607"/>
				</g>
			</g>
		</g>
		<g>
			
				<line fill="none" stroke="#FFFFFF" stroke-width="0.5444" stroke-miterlimit="10" x1="486.74" y1="106.998" x2="486.746" y2="134.218"/>
			
				<line fill="none" stroke="#FFFFFF" stroke-width="0.5444" stroke-miterlimit="10" x1="486.746" y1="134.218" x2="464.061" y2="147.828"/>
			
				<line fill="none" stroke="#FFFFFF" stroke-width="0.5444" stroke-miterlimit="10" x1="486.746" y1="134.218" x2="509.428" y2="147.828"/>
		</g>
	</g>
	
		<rect x="452.615" y="67.943" fill="#FFFFFF" stroke="#000000" stroke-width="0.4404" stroke-miterlimit="10" width="67.943" height="5.537"/>
	
		<rect x="452.615" y="177.407" fill="#FFFFFF" stroke="#000000" stroke-width="0.4404" stroke-miterlimit="10" width="67.943" height="5.536"/>
	
		<line fill="none" stroke="#000000" stroke-width="4.4148" stroke-miterlimit="10" x1="526.461" y1="177.097" x2="446.615" y2="177.097"/>
	
		<line fill="none" stroke="#000000" stroke-width="4.4148" stroke-miterlimit="10" x1="526.461" y1="73.915" x2="446.615" y2="73.915"/>
	<g>
		<path d="M493.068,101.385h-1.766v-7.848h1.766v3.33h2.967v-3.33h1.766v7.848h-1.766v-3h-2.967V101.385z"/>
		<path d="M486.422,93.379c0.551,0,1.025,0.078,1.426,0.232s0.73,0.369,0.992,0.646c0.26,0.275,0.451,0.604,0.576,0.985
			c0.125,0.381,0.188,0.802,0.188,1.262v4.881h-1.768v-4.732c0-0.318-0.035-0.588-0.107-0.811c-0.07-0.223-0.17-0.404-0.293-0.543
			c-0.125-0.141-0.275-0.24-0.453-0.301s-0.373-0.09-0.584-0.09c-0.43,0-0.779,0.131-1.047,0.396
			c-0.268,0.264-0.402,0.713-0.402,1.348v4.732h-1.766v-4.881c0-0.46,0.063-0.883,0.191-1.268s0.324-0.715,0.59-0.991
			c0.264-0.275,0.6-0.489,1.008-0.64C485.379,93.455,485.863,93.379,486.422,93.379z"/>
		<path d="M478.869,93.436c0.43,0,0.857,0.014,1.285,0.039c0.426,0.027,0.869,0.09,1.33,0.188v7.609
			c-0.363,0.068-0.76,0.119-1.189,0.153s-0.83,0.051-1.199,0.051c-0.5,0-0.957-0.036-1.377-0.107
			c-0.418-0.071-0.779-0.194-1.082-0.368c-0.301-0.174-0.537-0.402-0.707-0.686s-0.254-0.632-0.254-1.047
			c0-0.627,0.301-1.121,0.904-1.483c-0.498-0.188-0.838-0.446-1.018-0.771c-0.182-0.324-0.271-0.69-0.271-1.098
			c0-0.823,0.299-1.442,0.898-1.857C476.791,93.643,477.684,93.436,478.869,93.436z M479.764,96.957v-2.026
			c-0.129-0.016-0.268-0.026-0.42-0.034c-0.15-0.008-0.316-0.012-0.498-0.012c-0.527,0-0.955,0.076-1.279,0.227
			c-0.324,0.151-0.486,0.431-0.486,0.838c0,0.363,0.135,0.621,0.406,0.775c0.271,0.155,0.662,0.232,1.166,0.232H479.764z
			 M479.764,98.305h-0.861c-0.543,0-0.932,0.07-1.166,0.209c-0.234,0.141-0.352,0.365-0.352,0.674c0,0.318,0.121,0.541,0.363,0.669
			c0.24,0.128,0.596,0.192,1.064,0.192c0.15,0,0.313-0.002,0.486-0.006s0.328-0.014,0.465-0.028V98.305z"/>
	</g>
	<rect x="519.797" y="119.09" width="2.832" height="15.13"/>
	<rect x="449.967" y="119.09" width="2.832" height="15.13"/>
</g>
<g>
	
		<rect x="317.86" y="76.146" fill="#FFFFFF" stroke="#000000" stroke-width="0.4404" stroke-miterlimit="10" width="77.064" height="98.72"/>
	<g>
		<g>
			<g>
				<path fill="#010101" stroke="#FFFFFF" stroke-width="0.1815" stroke-miterlimit="10" d="M356.706,133.65"/>
			</g>
			<g>
				<path fill="#010101" stroke="#FFFFFF" stroke-width="0.1815" stroke-miterlimit="10" d="M356.706,133.65"/>
			</g>
			<g>
				<path fill="#010101" stroke="#FFFFFF" stroke-width="0.1815" stroke-miterlimit="10" d="M356.706,133.65"/>
			</g>
			<g>
				<path fill="#010101" stroke="#FFFFFF" stroke-width="0.1815" stroke-miterlimit="10" d="M356.706,133.65"/>
			</g>
		</g>
		<polyline fill="#3499CD" points="334.021,120.607 345.362,113.803 356.704,106.998 356.704,120.607 356.704,134.218 		"/>
		<polyline fill="#996699" points="334.021,120.607 334.021,134.218 334.021,147.828 345.351,141.023 356.704,134.218 		"/>
		<polyline fill="#F89939" points="356.702,161.439 368.048,154.634 379.39,147.828 368.046,141.023 356.702,134.218 		"/>
		<polyline fill="#EF3B68" points="356.704,161.439 345.364,154.634 334.021,147.828 345.362,141.023 356.704,134.218 		"/>
		<polyline fill="#FFCE0C" points="379.39,120.607 368.046,113.803 356.702,106.998 356.702,120.607 356.702,134.218 		"/>
		<polyline fill="#6FC498" points="379.389,120.607 379.389,134.218 379.389,147.828 368.048,141.023 356.704,134.218 		"/>
		<g>
			<g>
				<g>
					
						<line fill="none" stroke="#FFFFFF" stroke-width="0.5444" stroke-miterlimit="10" x1="356.7" y1="161.439" x2="356.7" y2="160.805"/>
					
						<line fill="none" stroke="#FFFFFF" stroke-width="0.5444" stroke-miterlimit="10" stroke-dasharray="1.2358,1.2358" x1="356.701" y1="159.568" x2="356.706" y2="135.471"/>
					
						<line fill="none" stroke="#FFFFFF" stroke-width="0.5444" stroke-miterlimit="10" x1="356.706" y1="134.853" x2="356.706" y2="134.218"/>
				</g>
			</g>
			<g>
				<g>
					
						<line fill="none" stroke="#FFFFFF" stroke-width="0.5444" stroke-miterlimit="10" x1="356.706" y1="134.218" x2="356.162" y2="133.891"/>
					
						<line fill="none" stroke="#FFFFFF" stroke-width="0.5444" stroke-miterlimit="10" stroke-dasharray="1.3255,1.3255" x1="355.025" y1="133.209" x2="335.133" y2="121.275"/>
					
						<line fill="none" stroke="#FFFFFF" stroke-width="0.5444" stroke-miterlimit="10" x1="334.565" y1="120.934" x2="334.021" y2="120.607"/>
				</g>
			</g>
			<g>
				<g>
					
						<line fill="none" stroke="#FFFFFF" stroke-width="0.5444" stroke-miterlimit="10" x1="356.706" y1="134.218" x2="357.25" y2="133.891"/>
					
						<line fill="none" stroke="#FFFFFF" stroke-width="0.5444" stroke-miterlimit="10" stroke-dasharray="1.3254,1.3254" x1="358.388" y1="133.209" x2="378.276" y2="121.275"/>
					
						<line fill="none" stroke="#FFFFFF" stroke-width="0.5444" stroke-miterlimit="10" x1="378.845" y1="120.934" x2="379.39" y2="120.607"/>
				</g>
			</g>
		</g>
		<g>
			
				<line fill="none" stroke="#FFFFFF" stroke-width="0.5444" stroke-miterlimit="10" x1="356.7" y1="106.998" x2="356.706" y2="134.218"/>
			
				<line fill="none" stroke="#FFFFFF" stroke-width="0.5444" stroke-miterlimit="10" x1="356.706" y1="134.218" x2="334.021" y2="147.828"/>
			
				<line fill="none" stroke="#FFFFFF" stroke-width="0.5444" stroke-miterlimit="10" x1="356.706" y1="134.218" x2="379.39" y2="147.828"/>
		</g>
	</g>
	
		<rect x="322.577" y="67.943" fill="#FFFFFF" stroke="#000000" stroke-width="0.4404" stroke-miterlimit="10" width="67.942" height="5.537"/>
	
		<rect x="322.577" y="177.407" fill="#FFFFFF" stroke="#000000" stroke-width="0.4404" stroke-miterlimit="10" width="67.942" height="5.536"/>
	
		<line fill="none" stroke="#000000" stroke-width="4.4148" stroke-miterlimit="10" x1="396.423" y1="177.097" x2="316.577" y2="177.097"/>
	
		<line fill="none" stroke="#000000" stroke-width="4.4148" stroke-miterlimit="10" x1="396.423" y1="73.915" x2="316.577" y2="73.915"/>
	<g>
		<path d="M363.029,101.385h-1.766v-7.848h1.766v3.33h2.967v-3.33h1.766v7.848h-1.766v-3h-2.967V101.385z"/>
		<path d="M356.382,93.379c0.551,0,1.026,0.078,1.426,0.232c0.4,0.154,0.73,0.369,0.992,0.646c0.26,0.275,0.451,0.604,0.576,0.985
			c0.125,0.381,0.188,0.802,0.188,1.262v4.881h-1.768v-4.732c0-0.318-0.035-0.588-0.107-0.811c-0.07-0.223-0.17-0.404-0.293-0.543
			c-0.125-0.141-0.275-0.24-0.453-0.301s-0.372-0.09-0.583-0.09c-0.43,0-0.78,0.131-1.047,0.396
			c-0.268,0.264-0.402,0.713-0.402,1.348v4.732h-1.766v-4.881c0-0.46,0.063-0.883,0.191-1.268s0.324-0.715,0.59-0.991
			c0.264-0.275,0.6-0.489,1.008-0.64C355.34,93.455,355.824,93.379,356.382,93.379z"/>
		<path d="M348.83,93.436c0.43,0,0.857,0.014,1.285,0.039c0.426,0.027,0.869,0.09,1.33,0.188v7.609
			c-0.363,0.068-0.76,0.119-1.189,0.153s-0.83,0.051-1.199,0.051c-0.5,0-0.957-0.036-1.377-0.107
			c-0.418-0.071-0.779-0.194-1.082-0.368c-0.301-0.174-0.537-0.402-0.707-0.686s-0.254-0.632-0.254-1.047
			c0-0.627,0.301-1.121,0.904-1.483c-0.498-0.188-0.838-0.446-1.018-0.771c-0.182-0.324-0.271-0.69-0.271-1.098
			c0-0.823,0.299-1.442,0.898-1.857C346.752,93.643,347.645,93.436,348.83,93.436z M349.725,96.957v-2.026
			c-0.129-0.016-0.268-0.026-0.42-0.034c-0.15-0.008-0.316-0.012-0.498-0.012c-0.527,0-0.955,0.076-1.279,0.227
			c-0.324,0.151-0.486,0.431-0.486,0.838c0,0.363,0.135,0.621,0.406,0.775c0.271,0.155,0.662,0.232,1.166,0.232H349.725z
			 M349.725,98.305h-0.861c-0.543,0-0.932,0.07-1.166,0.209c-0.234,0.141-0.352,0.365-0.352,0.674c0,0.318,0.121,0.541,0.363,0.669
			c0.24,0.128,0.596,0.192,1.064,0.192c0.15,0,0.313-0.002,0.486-0.006s0.328-0.014,0.465-0.028V98.305z"/>
	</g>
	<rect x="389.759" y="119.09" width="2.831" height="15.13"/>
	<rect x="319.929" y="119.09" width="2.83" height="15.13"/>
</g>
<g>
	
		<rect x="187.822" y="76.146" fill="#FFFFFF" stroke="#000000" stroke-width="0.4404" stroke-miterlimit="10" width="77.064" height="98.72"/>
	<g>
		<g>
			<g>
				<path fill="#010101" stroke="#FFFFFF" stroke-width="0.1815" stroke-miterlimit="10" d="M226.668,133.65"/>
			</g>
			<g>
				<path fill="#010101" stroke="#FFFFFF" stroke-width="0.1815" stroke-miterlimit="10" d="M226.668,133.65"/>
			</g>
			<g>
				<path fill="#010101" stroke="#FFFFFF" stroke-width="0.1815" stroke-miterlimit="10" d="M226.668,133.65"/>
			</g>
			<g>
				<path fill="#010101" stroke="#FFFFFF" stroke-width="0.1815" stroke-miterlimit="10" d="M226.668,133.65"/>
			</g>
		</g>
		<polyline fill="#3499CD" points="203.982,120.607 215.324,113.803 226.666,106.998 226.666,120.607 226.666,134.218 		"/>
		<polyline fill="#996699" points="203.982,120.607 203.982,134.218 203.982,147.828 215.313,141.023 226.666,134.218 		"/>
		<polyline fill="#F89939" points="226.664,161.439 238.01,154.634 249.352,147.828 238.008,141.023 226.664,134.218 		"/>
		<polyline fill="#EF3B68" points="226.666,161.439 215.326,154.634 203.982,147.828 215.324,141.023 226.666,134.218 		"/>
		<polyline fill="#FFCE0C" points="249.352,120.607 238.008,113.803 226.664,106.998 226.664,120.607 226.664,134.218 		"/>
		<polyline fill="#6FC498" points="249.35,120.607 249.35,134.218 249.35,147.828 238.01,141.023 226.666,134.218 		"/>
		<g>
			<g>
				<g>
					
						<line fill="none" stroke="#FFFFFF" stroke-width="0.5444" stroke-miterlimit="10" x1="226.662" y1="161.439" x2="226.662" y2="160.805"/>
					
						<line fill="none" stroke="#FFFFFF" stroke-width="0.5444" stroke-miterlimit="10" stroke-dasharray="1.2358,1.2358" x1="226.663" y1="159.568" x2="226.667" y2="135.471"/>
					
						<line fill="none" stroke="#FFFFFF" stroke-width="0.5444" stroke-miterlimit="10" x1="226.668" y1="134.853" x2="226.668" y2="134.218"/>
				</g>
			</g>
			<g>
				<g>
					
						<line fill="none" stroke="#FFFFFF" stroke-width="0.5444" stroke-miterlimit="10" x1="226.668" y1="134.218" x2="226.124" y2="133.891"/>
					
						<line fill="none" stroke="#FFFFFF" stroke-width="0.5444" stroke-miterlimit="10" stroke-dasharray="1.3255,1.3255" x1="224.987" y1="133.209" x2="205.095" y2="121.275"/>
					
						<line fill="none" stroke="#FFFFFF" stroke-width="0.5444" stroke-miterlimit="10" x1="204.527" y1="120.934" x2="203.982" y2="120.607"/>
				</g>
			</g>
			<g>
				<g>
					
						<line fill="none" stroke="#FFFFFF" stroke-width="0.5444" stroke-miterlimit="10" x1="226.668" y1="134.218" x2="227.212" y2="133.891"/>
					
						<line fill="none" stroke="#FFFFFF" stroke-width="0.5444" stroke-miterlimit="10" stroke-dasharray="1.3254,1.3254" x1="228.349" y1="133.209" x2="248.239" y2="121.275"/>
					
						<line fill="none" stroke="#FFFFFF" stroke-width="0.5444" stroke-miterlimit="10" x1="248.807" y1="120.934" x2="249.352" y2="120.607"/>
				</g>
			</g>
		</g>
		<g>
			
				<line fill="none" stroke="#FFFFFF" stroke-width="0.5444" stroke-miterlimit="10" x1="226.662" y1="106.998" x2="226.668" y2="134.218"/>
			
				<line fill="none" stroke="#FFFFFF" stroke-width="0.5444" stroke-miterlimit="10" x1="226.668" y1="134.218" x2="203.982" y2="147.828"/>
			
				<line fill="none" stroke="#FFFFFF" stroke-width="0.5444" stroke-miterlimit="10" x1="226.668" y1="134.218" x2="249.352" y2="147.828"/>
		</g>
	</g>
	
		<rect x="192.539" y="67.943" fill="#FFFFFF" stroke="#000000" stroke-width="0.4404" stroke-miterlimit="10" width="67.941" height="5.537"/>
	
		<rect x="192.539" y="177.407" fill="#FFFFFF" stroke="#000000" stroke-width="0.4404" stroke-miterlimit="10" width="67.941" height="5.536"/>
	
		<line fill="none" stroke="#000000" stroke-width="4.4148" stroke-miterlimit="10" x1="266.385" y1="177.097" x2="186.539" y2="177.097"/>
	
		<line fill="none" stroke="#000000" stroke-width="4.4148" stroke-miterlimit="10" x1="266.385" y1="73.915" x2="186.539" y2="73.915"/>
	<g>
		<path d="M232.99,101.385h-1.766v-7.848h1.766v3.33h2.967v-3.33h1.767v7.848h-1.767v-3h-2.967V101.385z"/>
		<path d="M226.344,93.379c0.551,0,1.026,0.078,1.427,0.232s0.73,0.369,0.991,0.646c0.26,0.275,0.452,0.604,0.577,0.985
			c0.125,0.381,0.187,0.802,0.187,1.262v4.881h-1.767v-4.732c0-0.318-0.035-0.588-0.107-0.811c-0.071-0.223-0.17-0.404-0.294-0.543
			c-0.125-0.141-0.275-0.24-0.453-0.301s-0.372-0.09-0.583-0.09c-0.431,0-0.779,0.131-1.048,0.396
			c-0.268,0.264-0.401,0.713-0.401,1.348v4.732h-1.767v-4.881c0-0.46,0.063-0.883,0.192-1.268c0.128-0.385,0.324-0.715,0.589-0.991
			c0.264-0.275,0.6-0.489,1.008-0.64C225.302,93.455,225.785,93.379,226.344,93.379z"/>
		<path d="M218.791,93.436c0.43,0,0.858,0.014,1.285,0.039c0.427,0.027,0.87,0.09,1.33,0.188v7.609
			c-0.362,0.068-0.759,0.119-1.188,0.153c-0.431,0.034-0.83,0.051-1.2,0.051c-0.499,0-0.957-0.036-1.376-0.107
			s-0.779-0.194-1.082-0.368c-0.302-0.174-0.537-0.402-0.707-0.686s-0.255-0.632-0.255-1.047c0-0.627,0.302-1.121,0.905-1.483
			c-0.498-0.188-0.838-0.446-1.019-0.771c-0.182-0.324-0.271-0.69-0.271-1.098c0-0.823,0.3-1.442,0.899-1.857
			C216.713,93.643,217.605,93.436,218.791,93.436z M219.686,96.957v-2.026c-0.129-0.016-0.268-0.026-0.419-0.034
			s-0.317-0.012-0.498-0.012c-0.528,0-0.955,0.076-1.28,0.227c-0.324,0.151-0.486,0.431-0.486,0.838
			c0,0.363,0.136,0.621,0.407,0.775c0.271,0.155,0.661,0.232,1.166,0.232H219.686z M219.686,98.305h-0.86
			c-0.544,0-0.933,0.07-1.167,0.209c-0.233,0.141-0.351,0.365-0.351,0.674c0,0.318,0.121,0.541,0.362,0.669s0.597,0.192,1.064,0.192
			c0.151,0,0.313-0.002,0.486-0.006c0.174-0.004,0.329-0.014,0.465-0.028V98.305z"/>
	</g>
	<rect x="259.721" y="119.09" width="2.83" height="15.13"/>
	<rect x="189.891" y="119.09" width="2.83" height="15.13"/>
</g>
<g>
	
		<rect x="57.783" y="76.146" fill="#FFFFFF" stroke="#000000" stroke-width="0.4404" stroke-miterlimit="10" width="77.064" height="98.72"/>
	<g>
		<g>
			<g>
				<path fill="#010101" stroke="#FFFFFF" stroke-width="0.1815" stroke-miterlimit="10" d="M96.629,133.65"/>
			</g>
			<g>
				<path fill="#010101" stroke="#FFFFFF" stroke-width="0.1815" stroke-miterlimit="10" d="M96.629,133.65"/>
			</g>
			<g>
				<path fill="#010101" stroke="#FFFFFF" stroke-width="0.1815" stroke-miterlimit="10" d="M96.629,133.65"/>
			</g>
			<g>
				<path fill="#010101" stroke="#FFFFFF" stroke-width="0.1815" stroke-miterlimit="10" d="M96.629,133.65"/>
			</g>
		</g>
		<polyline fill="#3499CD" points="73.943,120.607 85.285,113.803 96.627,106.998 96.627,120.607 96.627,134.218 		"/>
		<polyline fill="#996699" points="73.943,120.607 73.943,134.218 73.943,147.828 85.273,141.023 96.627,134.218 		"/>
		<polyline fill="#F89939" points="96.625,161.439 107.971,154.634 119.313,147.828 107.969,141.023 96.625,134.218 		"/>
		<polyline fill="#EF3B68" points="96.627,161.439 85.287,154.634 73.943,147.828 85.285,141.023 96.627,134.218 		"/>
		<polyline fill="#FFCE0C" points="119.313,120.607 107.969,113.803 96.625,106.998 96.625,120.607 96.625,134.218 		"/>
		<polyline fill="#6FC498" points="119.311,120.607 119.311,134.218 119.311,147.828 107.971,141.023 96.627,134.218 		"/>
		<g>
			<g>
				<g>
					
						<line fill="none" stroke="#FFFFFF" stroke-width="0.5444" stroke-miterlimit="10" x1="96.623" y1="161.439" x2="96.623" y2="160.805"/>
					
						<line fill="none" stroke="#FFFFFF" stroke-width="0.5444" stroke-miterlimit="10" stroke-dasharray="1.2358,1.2358" x1="96.624" y1="159.568" x2="96.628" y2="135.471"/>
					
						<line fill="none" stroke="#FFFFFF" stroke-width="0.5444" stroke-miterlimit="10" x1="96.629" y1="134.853" x2="96.629" y2="134.218"/>
				</g>
			</g>
			<g>
				<g>
					
						<line fill="none" stroke="#FFFFFF" stroke-width="0.5444" stroke-miterlimit="10" x1="96.629" y1="134.218" x2="96.084" y2="133.891"/>
					
						<line fill="none" stroke="#FFFFFF" stroke-width="0.5444" stroke-miterlimit="10" stroke-dasharray="1.3255,1.3255" x1="94.948" y1="133.209" x2="75.056" y2="121.275"/>
					
						<line fill="none" stroke="#FFFFFF" stroke-width="0.5444" stroke-miterlimit="10" x1="74.488" y1="120.934" x2="73.943" y2="120.607"/>
				</g>
			</g>
			<g>
				<g>
					
						<line fill="none" stroke="#FFFFFF" stroke-width="0.5444" stroke-miterlimit="10" x1="96.629" y1="134.218" x2="97.173" y2="133.891"/>
					
						<line fill="none" stroke="#FFFFFF" stroke-width="0.5444" stroke-miterlimit="10" stroke-dasharray="1.3254,1.3254" x1="98.31" y1="133.209" x2="118.2" y2="121.275"/>
					
						<line fill="none" stroke="#FFFFFF" stroke-width="0.5444" stroke-miterlimit="10" x1="118.768" y1="120.934" x2="119.313" y2="120.607"/>
				</g>
			</g>
		</g>
		<g>
			
				<line fill="none" stroke="#FFFFFF" stroke-width="0.5444" stroke-miterlimit="10" x1="96.623" y1="106.998" x2="96.629" y2="134.218"/>
			
				<line fill="none" stroke="#FFFFFF" stroke-width="0.5444" stroke-miterlimit="10" x1="96.629" y1="134.218" x2="73.943" y2="147.828"/>
			
				<line fill="none" stroke="#FFFFFF" stroke-width="0.5444" stroke-miterlimit="10" x1="96.629" y1="134.218" x2="119.313" y2="147.828"/>
		</g>
	</g>
	
		<rect x="62.5" y="67.943" fill="#FFFFFF" stroke="#000000" stroke-width="0.4404" stroke-miterlimit="10" width="67.941" height="5.537"/>
	
		<rect x="62.5" y="177.407" fill="#FFFFFF" stroke="#000000" stroke-width="0.4404" stroke-miterlimit="10" width="67.941" height="5.536"/>
	
		<line fill="none" stroke="#000000" stroke-width="4.4148" stroke-miterlimit="10" x1="136.346" y1="177.097" x2="56.5" y2="177.097"/>
	
		<line fill="none" stroke="#000000" stroke-width="4.4148" stroke-miterlimit="10" x1="136.346" y1="73.915" x2="56.5" y2="73.915"/>
	<g>
		<path d="M102.951,101.385h-1.766v-7.848h1.766v3.33h2.967v-3.33h1.768v7.848h-1.768v-3h-2.967V101.385z"/>
		<path d="M96.305,93.379c0.551,0,1.027,0.078,1.428,0.232s0.73,0.369,0.99,0.646c0.26,0.275,0.453,0.604,0.578,0.985
			c0.125,0.381,0.186,0.802,0.186,1.262v4.881h-1.766v-4.732c0-0.318-0.035-0.588-0.107-0.811s-0.17-0.404-0.295-0.543
			c-0.125-0.141-0.275-0.24-0.453-0.301s-0.371-0.09-0.582-0.09c-0.432,0-0.779,0.131-1.049,0.396c-0.268,0.264-0.4,0.713-0.4,1.348
			v4.732h-1.768v-4.881c0-0.46,0.064-0.883,0.193-1.268c0.127-0.385,0.324-0.715,0.588-0.991c0.264-0.275,0.6-0.489,1.008-0.64
			S95.746,93.379,96.305,93.379z"/>
		<path d="M88.752,93.436c0.43,0,0.859,0.014,1.285,0.039c0.428,0.027,0.871,0.09,1.33,0.188v7.609
			c-0.361,0.068-0.758,0.119-1.188,0.153c-0.432,0.034-0.83,0.051-1.201,0.051c-0.498,0-0.957-0.036-1.375-0.107
			c-0.42-0.071-0.779-0.194-1.082-0.368s-0.537-0.402-0.707-0.686s-0.256-0.632-0.256-1.047c0-0.627,0.303-1.121,0.906-1.483
			c-0.498-0.188-0.838-0.446-1.02-0.771s-0.271-0.69-0.271-1.098c0-0.823,0.301-1.442,0.9-1.857
			C86.674,93.643,87.566,93.436,88.752,93.436z M89.646,96.957v-2.026c-0.129-0.016-0.268-0.026-0.418-0.034
			c-0.152-0.008-0.318-0.012-0.498-0.012c-0.529,0-0.955,0.076-1.281,0.227c-0.324,0.151-0.486,0.431-0.486,0.838
			c0,0.363,0.137,0.621,0.408,0.775c0.271,0.155,0.66,0.232,1.166,0.232H89.646z M89.646,98.305h-0.859
			c-0.545,0-0.934,0.07-1.168,0.209c-0.232,0.141-0.35,0.365-0.35,0.674c0,0.318,0.121,0.541,0.361,0.669
			c0.242,0.128,0.598,0.192,1.064,0.192c0.152,0,0.314-0.002,0.486-0.006c0.174-0.004,0.33-0.014,0.465-0.028V98.305z"/>
	</g>
	<rect x="129.682" y="119.09" width="2.83" height="15.13"/>
	<rect x="59.852" y="119.09" width="2.83" height="15.13"/>
</g>
</svg>
