<?xml version="1.0" encoding="utf-8"?>
<!-- Generator: Adobe Illustrator 16.0.0, SVG Export Plug-In . SVG Version: 6.00 Build 0)  -->
<!DOCTYPE svg PUBLIC "-//W3C//DTD SVG 1.1//EN" "http://www.w3.org/Graphics/SVG/1.1/DTD/svg11.dtd">
<svg version="1.1" id="Layer_1" xmlns="http://www.w3.org/2000/svg" xmlns:xlink="http://www.w3.org/1999/xlink" x="0px" y="0px"
	 width="600px" height="400px" viewBox="0 0 600 400" enable-background="new 0 0 600 400" xml:space="preserve">
<g>
	
		<line fill="none" stroke="#996699" stroke-width="4" stroke-miterlimit="10" stroke-dasharray="4" x1="81.966" y1="125.891" x2="133.437" y2="125.891"/>
	
		<line fill="none" stroke="#996699" stroke-width="4" stroke-miterlimit="10" stroke-dasharray="4" x1="211.966" y1="272.891" x2="263.437" y2="272.891"/>
	
		<line fill="none" stroke="#996699" stroke-width="4" stroke-miterlimit="10" stroke-dasharray="4" x1="466.966" y1="272.891" x2="518.438" y2="272.891"/>
	
		<line fill="none" stroke="#6FC498" stroke-width="4" stroke-miterlimit="10" stroke-dasharray="4" x1="171.711" y1="179.744" x2="171.711" y2="227.572"/>
	
		<line fill="none" stroke="#6FC498" stroke-width="4" stroke-miterlimit="10" stroke-dasharray="4" x1="428.711" y1="179.744" x2="428.711" y2="227.572"/>
	
		<line fill="none" stroke="#EF3B68" stroke-width="4" stroke-miterlimit="10" stroke-dasharray="4" x1="338.966" y1="272.891" x2="390.438" y2="272.891"/>
	
		<line fill="none" stroke="#3499CD" stroke-width="4" stroke-miterlimit="10" stroke-dasharray="4" x1="81.966" y1="272.891" x2="133.438" y2="272.891"/>
	
		<line fill="none" stroke="#EF3B68" stroke-width="4" stroke-miterlimit="10" stroke-dasharray="4" x1="211.966" y1="125.891" x2="263.437" y2="125.891"/>
	
		<line fill="none" stroke="#3499CD" stroke-width="4" stroke-miterlimit="10" stroke-dasharray="4" x1="465.966" y1="125.891" x2="517.438" y2="125.891"/>
</g>
<g>
	<g>
		<line fill="none" stroke="#EF3B68" stroke-width="5" stroke-miterlimit="10" x1="559.871" y1="400" x2="559.871" y2="341.779"/>
	</g>
	<g>
		<polygon fill="#EF3B68" points="556.629,348.223 553.629,340.252 566.113,340.252 563.113,348.223 		"/>
		<polygon fill="#EF3B68" stroke="#A61E2E" stroke-width="0.869" stroke-miterlimit="10" points="552.629,326.824 567.113,326.824 
			567.113,338.223 566.113,340.252 553.629,340.252 552.629,338.223 		"/>
		<path fill="#FFCE0C" stroke="#F89939" stroke-width="0.869" stroke-miterlimit="10" d="M552.629,338.336"/>
		
			<line fill="none" stroke="#A61E2E" stroke-width="0.8801" stroke-miterlimit="10" x1="566.113" y1="341.711" x2="553.613" y2="341.711"/>
		
			<line fill="none" stroke="#A61E2E" stroke-width="0.903" stroke-miterlimit="10" x1="565.363" y1="343.211" x2="554.363" y2="343.211"/>
		
			<line fill="none" stroke="#A61E2E" stroke-width="0.9361" stroke-miterlimit="10" x1="564.613" y1="344.711" x2="555.113" y2="344.711"/>
		
			<line fill="none" stroke="#A61E2E" stroke-width="0.8854" stroke-miterlimit="10" x1="564.113" y1="346.211" x2="555.613" y2="346.211"/>
		<rect x="556.24" y="347.391" fill="#A61E2E" width="7.186" height="3.486"/>
	</g>
</g>
<g>
	<g>
		
			<rect x="521.652" y="225.134" fill="#FFFFFF" stroke="#996699" stroke-width="0.4404" stroke-miterlimit="10" width="77.064" height="98.72"/>
		
			<rect x="526.059" y="326.52" fill="#FFFFFF" stroke="#996699" stroke-width="0.4404" stroke-miterlimit="10" width="67.941" height="5.537"/>
		
			<rect x="526.059" y="217.057" fill="#FFFFFF" stroke="#996699" stroke-width="0.4404" stroke-miterlimit="10" width="67.941" height="5.536"/>
		
			<line fill="none" stroke="#996699" stroke-width="4.4148" stroke-miterlimit="10" x1="520.154" y1="222.903" x2="600" y2="222.903"/>
		
			<line fill="none" stroke="#996699" stroke-width="4.4148" stroke-miterlimit="10" x1="520.154" y1="326.085" x2="600" y2="326.085"/>
		<g>
			<path d="M549.063,306.564c-0.43,0-0.857-0.014-1.285-0.039c-0.426-0.027-0.869-0.09-1.33-0.188v-7.609
				c0.363-0.068,0.76-0.119,1.189-0.153s0.83-0.051,1.199-0.051c0.5,0,0.957,0.036,1.377,0.107c0.418,0.071,0.779,0.194,1.082,0.368
				c0.301,0.174,0.537,0.402,0.707,0.686s0.254,0.632,0.254,1.047c0,0.627-0.301,1.121-0.904,1.483
				c0.498,0.188,0.838,0.446,1.018,0.771c0.182,0.324,0.271,0.69,0.271,1.098c0,0.823-0.299,1.442-0.898,1.857
				C551.141,306.357,550.248,306.564,549.063,306.564z M548.168,301.695h0.861c0.543,0,0.932-0.07,1.166-0.209
				c0.234-0.141,0.352-0.365,0.352-0.674c0-0.318-0.121-0.541-0.363-0.669c-0.24-0.128-0.596-0.192-1.064-0.192
				c-0.15,0-0.313,0.002-0.486,0.006s-0.328,0.014-0.465,0.028V301.695z M548.168,303.043v2.026c0.129,0.016,0.268,0.026,0.42,0.034
				c0.15,0.008,0.316,0.012,0.498,0.012c0.527,0,0.955-0.076,1.279-0.227c0.324-0.151,0.486-0.431,0.486-0.838
				c0-0.363-0.135-0.621-0.406-0.775c-0.271-0.155-0.662-0.232-1.166-0.232H548.168z"/>
			<path d="M554.057,306.463v-7.848h5.299v1.483h-3.531v1.54h3.137v1.449h-3.137v1.891h3.793v1.484H554.057z"/>
			<path d="M566.74,298.615v1.506h-2.367v6.342h-1.768v-6.342h-2.365v-1.506H566.74z"/>
			<path d="M572.209,306.463c-0.088-0.273-0.182-0.553-0.283-0.84c-0.1-0.288-0.199-0.574-0.299-0.859h-3.066
				c-0.098,0.287-0.197,0.573-0.297,0.861c-0.1,0.287-0.193,0.566-0.279,0.838h-1.834c0.295-0.846,0.576-1.627,0.842-2.345
				c0.264-0.717,0.523-1.393,0.777-2.026c0.254-0.635,0.504-1.236,0.75-1.807s0.502-1.127,0.766-1.67h1.676
				c0.258,0.543,0.512,1.1,0.762,1.67s0.502,1.172,0.756,1.807c0.254,0.634,0.514,1.31,0.779,2.026
				c0.266,0.718,0.547,1.499,0.842,2.345H572.209z M570.086,300.393c-0.039,0.114-0.098,0.27-0.174,0.465
				c-0.076,0.197-0.162,0.424-0.258,0.681c-0.098,0.257-0.207,0.54-0.326,0.849c-0.119,0.31-0.242,0.634-0.365,0.973h2.244
				c-0.119-0.34-0.236-0.665-0.35-0.975c-0.111-0.311-0.219-0.594-0.32-0.852c-0.102-0.257-0.189-0.483-0.266-0.68
				C570.195,300.658,570.133,300.504,570.086,300.393z"/>
		</g>
		<rect x="523.988" y="265.78" fill="#996699" width="2.83" height="15.13"/>
		<rect x="593.818" y="265.78" fill="#996699" width="2.83" height="15.13"/>
	</g>
	<g>
		<polygon fill="#010101" points="582.561,279.368 559.877,293.021 537.193,279.368 537.193,252.063 559.877,238.411 
			582.561,252.063 		"/>
		<g>
			<g id="layer1_10_" transform="translate(-256.6798,-531.7963)">
				<path id="text5540_10_" fill="#6E1944" stroke="#6E1944" stroke-width="0.6826" stroke-miterlimit="10" d="M807.469,811.482
					h-2.48c0.361-1.693,0.542-3.227,0.542-4.602v-16.377c0-1.703,0.148-2.972,0.45-3.805c0.312-0.831,0.908-1.563,1.79-2.194
					c0.892-0.644,2.004-0.964,3.339-0.964c1.584,0,2.912,0.42,3.984,1.263c1.083,0.833,1.624,2.021,1.624,3.565
					c0,1.804-0.856,3.282-2.571,4.436c2.557,1.203,3.835,3.093,3.835,5.67c0,1.403-0.341,2.662-1.022,3.773
					c-0.673,1.104-1.453,1.891-2.347,2.362c-0.882,0.471-1.939,0.706-3.173,0.706c-1.404,0-2.547-0.526-3.429-1.578v2.797
					C808.01,808.459,807.83,810.109,807.469,811.482 M808.01,802.384c0.782,1.293,1.876,1.94,3.278,1.94
					c1.353,0,2.348-0.492,2.978-1.475c0.631-0.993,0.947-2.195,0.947-3.608c0-1.084-0.211-2.187-0.631-3.309
					c-0.412-1.133-0.943-1.995-1.595-2.588c-0.602,0.151-1.144,0.227-1.623,0.227c-1.014,0-1.521-0.267-1.521-0.797
					c0-0.482,0.427-0.724,1.28-0.724c0.531,0,1.192,0.121,1.985,0.362c0.712-1.204,1.067-2.512,1.067-3.927
					c0-1.262-0.281-2.229-0.843-2.901c-0.551-0.672-1.273-1.008-2.165-1.008c-0.712,0-1.325,0.2-1.835,0.601
					c-0.501,0.401-0.848,0.884-1.038,1.444c-0.19,0.551-0.286,1.458-0.286,2.721L808.01,802.384"/>
			</g>
			<g id="layer1_4_" transform="translate(-256.6798,-531.7963)">
				<path id="text5540_4_" fill="#8E2965" stroke="#8E2965" stroke-width="0.6826" stroke-miterlimit="10" d="M810.004,811.482
					h-2.479c0.361-1.693,0.541-3.227,0.541-4.602v-16.377c0-1.703,0.149-2.972,0.451-3.805c0.311-0.831,0.907-1.563,1.79-2.194
					c0.892-0.644,2.006-0.964,3.338-0.964c1.585,0,2.912,0.42,3.987,1.263c1.082,0.833,1.624,2.021,1.624,3.565
					c0,1.804-0.858,3.282-2.571,4.436c2.556,1.203,3.833,3.093,3.833,5.67c0,1.403-0.338,2.662-1.021,3.773
					c-0.673,1.104-1.452,1.891-2.347,2.362c-0.882,0.471-1.938,0.706-3.172,0.706c-1.404,0-2.546-0.526-3.429-1.578v2.797
					C810.547,808.459,810.366,810.109,810.004,811.482 M810.547,802.384c0.781,1.293,1.875,1.94,3.276,1.94
					c1.354,0,2.348-0.492,2.979-1.475c0.631-0.993,0.947-2.195,0.947-3.608c0-1.084-0.211-2.187-0.632-3.309
					c-0.412-1.133-0.941-1.995-1.595-2.588c-0.602,0.151-1.143,0.227-1.624,0.227c-1.011,0-1.519-0.267-1.519-0.797
					c0-0.482,0.426-0.724,1.277-0.724c0.533,0,1.194,0.121,1.985,0.362c0.712-1.204,1.067-2.512,1.067-3.927
					c0-1.262-0.28-2.229-0.841-2.901c-0.553-0.672-1.274-1.008-2.166-1.008c-0.712,0-1.323,0.2-1.835,0.601
					c-0.502,0.401-0.848,0.884-1.038,1.444c-0.19,0.551-0.285,1.458-0.285,2.721L810.547,802.384"/>
			</g>
			<g id="layer1_3_" transform="translate(-256.6798,-531.7963)">
				<path id="text5540_3_" fill="#C15F94" stroke="#C15F94" stroke-width="0.6826" stroke-miterlimit="10" d="M812.542,811.482
					h-2.482c0.362-1.693,0.542-3.227,0.542-4.602v-16.377c0-1.703,0.149-2.972,0.452-3.805c0.31-0.831,0.906-1.563,1.788-2.194
					c0.893-0.644,2.006-0.964,3.339-0.964c1.584,0,2.913,0.42,3.986,1.263c1.083,0.833,1.624,2.021,1.624,3.565
					c0,1.804-0.856,3.282-2.57,4.436c2.555,1.203,3.835,3.093,3.835,5.67c0,1.403-0.342,2.662-1.023,3.773
					c-0.671,1.104-1.453,1.891-2.347,2.362c-0.883,0.471-1.939,0.706-3.174,0.706c-1.402,0-2.546-0.526-3.427-1.578v2.797
					C813.083,808.459,812.902,810.109,812.542,811.482 M813.083,802.384c0.781,1.293,1.874,1.94,3.277,1.94
					c1.353,0,2.347-0.492,2.979-1.475c0.632-0.993,0.947-2.195,0.947-3.608c0-1.084-0.212-2.187-0.632-3.309
					c-0.413-1.133-0.942-1.995-1.596-2.588c-0.601,0.151-1.143,0.227-1.623,0.227c-1.012,0-1.52-0.267-1.52-0.797
					c0-0.482,0.427-0.724,1.278-0.724c0.533,0,1.193,0.121,1.985,0.362c0.712-1.204,1.067-2.512,1.067-3.927
					c0-1.262-0.28-2.229-0.842-2.901c-0.552-0.672-1.274-1.008-2.167-1.008c-0.71,0-1.324,0.2-1.834,0.601
					c-0.501,0.401-0.848,0.884-1.037,1.444c-0.191,0.551-0.287,1.458-0.287,2.721v13.041"/>
			</g>
			<g id="layer1_2_" transform="translate(-256.6798,-531.7963)">
				<path id="text5540_2_" fill="#D380B1" stroke="#D380B1" stroke-width="0.6826" stroke-miterlimit="10" d="M814.961,811.482
					h-2.482c0.361-1.693,0.542-3.227,0.542-4.602v-16.377c0-1.703,0.149-2.972,0.451-3.805c0.311-0.831,0.907-1.563,1.789-2.194
					c0.893-0.644,2.006-0.964,3.34-0.964c1.584,0,2.911,0.42,3.984,1.263c1.083,0.833,1.624,2.021,1.624,3.565
					c0,1.804-0.856,3.282-2.571,4.436c2.556,1.203,3.835,3.093,3.835,5.67c0,1.403-0.341,2.662-1.022,3.773
					c-0.671,1.104-1.453,1.891-2.348,2.362c-0.882,0.471-1.938,0.706-3.173,0.706c-1.403,0-2.545-0.526-3.428-1.578v2.797
					C815.502,808.459,815.321,810.109,814.961,811.482 M815.502,802.384c0.781,1.293,1.874,1.94,3.277,1.94
					c1.354,0,2.348-0.492,2.979-1.475c0.631-0.993,0.948-2.195,0.948-3.608c0-1.084-0.213-2.187-0.633-3.309
					c-0.412-1.133-0.941-1.995-1.595-2.588c-0.601,0.151-1.142,0.227-1.623,0.227c-1.013,0-1.519-0.267-1.519-0.797
					c0-0.482,0.425-0.724,1.277-0.724c0.532,0,1.193,0.121,1.985,0.362c0.711-1.204,1.067-2.512,1.067-3.927
					c0-1.262-0.28-2.229-0.842-2.901c-0.552-0.672-1.273-1.008-2.167-1.008c-0.711,0-1.321,0.2-1.833,0.601
					c-0.501,0.401-0.847,0.884-1.038,1.444c-0.19,0.551-0.285,1.458-0.285,2.721V802.384"/>
			</g>
			<g id="layer1_1_" transform="translate(-256.6798,-531.7963)">
				<path id="text5540_1_" fill="#FFFFFF" stroke="#FFFFFF" stroke-width="0.6826" stroke-miterlimit="10" d="M817.613,811.482
					h-2.482c0.362-1.693,0.542-3.227,0.542-4.602v-16.377c0-1.703,0.149-2.972,0.452-3.805c0.31-0.831,0.906-1.563,1.788-2.194
					c0.893-0.644,2.005-0.964,3.339-0.964c1.585,0,2.913,0.42,3.984,1.263c1.083,0.833,1.626,2.021,1.626,3.565
					c0,1.804-0.858,3.282-2.572,4.436c2.555,1.203,3.835,3.093,3.835,5.67c0,1.403-0.342,2.662-1.023,3.773
					c-0.671,1.104-1.453,1.891-2.345,2.362c-0.884,0.471-1.94,0.706-3.173,0.706c-1.404,0-2.548-0.526-3.43-1.578v2.797
					C818.154,808.459,817.975,810.109,817.613,811.482 M818.154,802.384c0.782,1.293,1.876,1.94,3.279,1.94
					c1.353,0,2.345-0.492,2.977-1.475c0.632-0.993,0.947-2.195,0.947-3.608c0-1.084-0.211-2.187-0.632-3.309
					c-0.411-1.133-0.942-1.995-1.593-2.588c-0.604,0.151-1.144,0.227-1.625,0.227c-1.013,0-1.52-0.267-1.52-0.797
					c0-0.482,0.427-0.724,1.28-0.724c0.53,0,1.191,0.121,1.983,0.362c0.712-1.204,1.067-2.512,1.067-3.927
					c0-1.262-0.28-2.229-0.843-2.901c-0.55-0.672-1.273-1.008-2.164-1.008c-0.711,0-1.324,0.2-1.836,0.601
					c-0.499,0.401-0.848,0.884-1.037,1.444c-0.191,0.551-0.287,1.458-0.287,2.721v13.041"/>
			</g>
		</g>
	</g>
</g>
<g>
	<g>
		<line fill="none" stroke="#FFCE0C" stroke-width="5" stroke-miterlimit="10" x1="299.793" y1="400" x2="299.793" y2="341.779"/>
	</g>
	<g>
		<polygon fill="#FFCE0C" points="296.551,348.223 293.551,340.252 306.035,340.252 303.035,348.223 		"/>
		<polygon fill="#FFCE0C" stroke="#F89939" stroke-width="0.869" stroke-miterlimit="10" points="292.551,326.824 307.035,326.824 
			307.035,338.223 306.035,340.252 293.551,340.252 292.551,338.223 		"/>
		<path fill="#FFCE0C" stroke="#F89939" stroke-width="0.869" stroke-miterlimit="10" d="M292.551,338.336"/>
		
			<line fill="none" stroke="#F89939" stroke-width="0.8801" stroke-miterlimit="10" x1="306.035" y1="341.711" x2="293.536" y2="341.711"/>
		
			<line fill="none" stroke="#F89939" stroke-width="0.903" stroke-miterlimit="10" x1="305.285" y1="343.211" x2="294.286" y2="343.211"/>
		
			<line fill="none" stroke="#F89939" stroke-width="0.9361" stroke-miterlimit="10" x1="304.535" y1="344.711" x2="295.036" y2="344.711"/>
		
			<line fill="none" stroke="#F89939" stroke-width="0.8854" stroke-miterlimit="10" x1="304.035" y1="346.211" x2="295.536" y2="346.211"/>
		<rect x="296.163" y="347.391" fill="#F89939" width="7.185" height="3.486"/>
	</g>
</g>
<g>
	<g>
		<line fill="none" stroke="#FFCE0C" stroke-width="5" stroke-miterlimit="10" x1="169.717" y1="400" x2="169.755" y2="341.779"/>
	</g>
	<g>
		<polygon fill="#FFCE0C" points="166.513,348.223 163.513,340.252 175.997,340.252 172.997,348.223 		"/>
		<polygon fill="#FFCE0C" stroke="#F89939" stroke-width="0.869" stroke-miterlimit="10" points="162.513,326.824 176.997,326.824 
			176.997,338.223 175.997,340.252 163.513,340.252 162.513,338.223 		"/>
		<path fill="#FFCE0C" stroke="#F89939" stroke-width="0.869" stroke-miterlimit="10" d="M162.513,338.336"/>
		
			<line fill="none" stroke="#F89939" stroke-width="0.8801" stroke-miterlimit="10" x1="175.997" y1="341.711" x2="163.497" y2="341.711"/>
		
			<line fill="none" stroke="#F89939" stroke-width="0.903" stroke-miterlimit="10" x1="175.247" y1="343.211" x2="164.247" y2="343.211"/>
		
			<line fill="none" stroke="#F89939" stroke-width="0.9361" stroke-miterlimit="10" x1="174.497" y1="344.711" x2="164.997" y2="344.711"/>
		
			<line fill="none" stroke="#F89939" stroke-width="0.8854" stroke-miterlimit="10" x1="173.997" y1="346.211" x2="165.497" y2="346.211"/>
		<rect x="166.124" y="347.391" fill="#F89939" width="7.186" height="3.486"/>
	</g>
</g>
<g>
	<g>
		<line fill="none" stroke="#FFCE0C" stroke-width="5" stroke-miterlimit="10" x1="39.678" y1="400" x2="39.716" y2="341.779"/>
	</g>
	<g>
		<polygon fill="#FFCE0C" points="36.474,348.223 33.474,340.252 45.958,340.252 42.958,348.223 		"/>
		<polygon fill="#FFCE0C" stroke="#F89939" stroke-width="0.869" stroke-miterlimit="10" points="32.474,326.824 46.958,326.824 
			46.958,338.223 45.958,340.252 33.474,340.252 32.474,338.223 		"/>
		<path fill="#FFCE0C" stroke="#F89939" stroke-width="0.869" stroke-miterlimit="10" d="M32.474,338.336"/>
		
			<line fill="none" stroke="#F89939" stroke-width="0.8801" stroke-miterlimit="10" x1="45.958" y1="341.711" x2="33.458" y2="341.711"/>
		
			<line fill="none" stroke="#F89939" stroke-width="0.903" stroke-miterlimit="10" x1="45.208" y1="343.211" x2="34.208" y2="343.211"/>
		
			<line fill="none" stroke="#F89939" stroke-width="0.9361" stroke-miterlimit="10" x1="44.458" y1="344.711" x2="34.958" y2="344.711"/>
		
			<line fill="none" stroke="#F89939" stroke-width="0.8854" stroke-miterlimit="10" x1="43.958" y1="346.211" x2="35.458" y2="346.211"/>
		<rect x="36.085" y="347.391" fill="#F89939" width="7.186" height="3.486"/>
	</g>
</g>
<g>
	
		<rect x="1.498" y="225.134" fill="#FFFFFF" stroke="#3499CD" stroke-width="0.4404" stroke-miterlimit="10" width="77.064" height="98.72"/>
	<g>
		<g>
			<g>
				<path fill="#010101" stroke="#FFFFFF" stroke-width="0.1815" stroke-miterlimit="10" d="M39.716,266.35"/>
			</g>
			<g>
				<path fill="#010101" stroke="#FFFFFF" stroke-width="0.1815" stroke-miterlimit="10" d="M39.716,266.35"/>
			</g>
			<g>
				<path fill="#010101" stroke="#FFFFFF" stroke-width="0.1815" stroke-miterlimit="10" d="M39.716,266.35"/>
			</g>
			<g>
				<path fill="#010101" stroke="#FFFFFF" stroke-width="0.1815" stroke-miterlimit="10" d="M39.716,266.35"/>
			</g>
		</g>
		<polyline fill="#3499CD" points="62.401,279.393 51.06,286.197 39.718,293.002 39.718,279.393 39.718,265.782 		"/>
		<polyline fill="#996699" points="62.401,279.393 62.401,265.782 62.401,252.172 51.072,258.977 39.718,265.782 		"/>
		<polyline fill="#F89939" points="39.72,238.561 28.375,245.366 17.033,252.172 28.377,258.977 39.72,265.782 		"/>
		<polyline fill="#EF3B68" points="39.718,238.561 51.059,245.366 62.401,252.172 51.06,258.977 39.718,265.782 		"/>
		<polyline fill="#FFCE0C" points="17.033,279.393 28.377,286.197 39.72,293.002 39.72,279.393 39.72,265.782 		"/>
		<polyline fill="#6FC498" points="17.034,279.393 17.034,265.782 17.034,252.172 28.375,258.977 39.718,265.782 		"/>
		<g>
			<g>
				<g>
					
						<line fill="none" stroke="#FFFFFF" stroke-width="0.5444" stroke-miterlimit="10" x1="39.722" y1="238.561" x2="39.722" y2="239.195"/>
					
						<line fill="none" stroke="#FFFFFF" stroke-width="0.5444" stroke-miterlimit="10" stroke-dasharray="1.2358,1.2358" x1="39.721" y1="240.432" x2="39.716" y2="264.529"/>
					
						<line fill="none" stroke="#FFFFFF" stroke-width="0.5444" stroke-miterlimit="10" x1="39.716" y1="265.148" x2="39.716" y2="265.782"/>
				</g>
			</g>
			<g>
				<g>
					
						<line fill="none" stroke="#FFFFFF" stroke-width="0.5444" stroke-miterlimit="10" x1="39.716" y1="265.782" x2="40.26" y2="266.109"/>
					
						<line fill="none" stroke="#FFFFFF" stroke-width="0.5444" stroke-miterlimit="10" stroke-dasharray="1.3255,1.3255" x1="41.397" y1="266.791" x2="61.289" y2="278.725"/>
					
						<line fill="none" stroke="#FFFFFF" stroke-width="0.5444" stroke-miterlimit="10" x1="61.857" y1="279.065" x2="62.401" y2="279.393"/>
				</g>
			</g>
			<g>
				<g>
					
						<line fill="none" stroke="#FFFFFF" stroke-width="0.5444" stroke-miterlimit="10" x1="39.716" y1="265.782" x2="39.171" y2="266.109"/>
					
						<line fill="none" stroke="#FFFFFF" stroke-width="0.5444" stroke-miterlimit="10" stroke-dasharray="1.3254,1.3254" x1="38.035" y1="266.791" x2="18.146" y2="278.725"/>
					
						<line fill="none" stroke="#FFFFFF" stroke-width="0.5444" stroke-miterlimit="10" x1="17.578" y1="279.065" x2="17.033" y2="279.393"/>
				</g>
			</g>
		</g>
		<g>
			
				<line fill="none" stroke="#FFFFFF" stroke-width="0.5444" stroke-miterlimit="10" x1="39.722" y1="293.002" x2="39.716" y2="265.782"/>
			
				<line fill="none" stroke="#FFFFFF" stroke-width="0.5444" stroke-miterlimit="10" x1="39.716" y1="265.782" x2="62.401" y2="252.172"/>
			
				<line fill="none" stroke="#FFFFFF" stroke-width="0.5444" stroke-miterlimit="10" x1="39.716" y1="265.782" x2="17.033" y2="252.172"/>
		</g>
	</g>
	
		<rect x="5.903" y="326.52" fill="#FFFFFF" stroke="#3499CD" stroke-width="0.4404" stroke-miterlimit="10" width="67.942" height="5.537"/>
	
		<rect x="5.903" y="217.057" fill="#FFFFFF" stroke="#3499CD" stroke-width="0.4404" stroke-miterlimit="10" width="67.942" height="5.536"/>
	<line fill="none" stroke="#3499CD" stroke-width="4.4148" stroke-miterlimit="10" x1="0" y1="222.903" x2="79.846" y2="222.903"/>
	<line fill="none" stroke="#3499CD" stroke-width="4.4148" stroke-miterlimit="10" x1="0" y1="326.085" x2="79.846" y2="326.085"/>
	<g>
		<path d="M33.394,298.615h1.766v7.848h-1.766v-3.33h-2.967v3.33H28.66v-7.848h1.767v3h2.967V298.615z"/>
		<path d="M40.04,306.621c-0.551,0-1.026-0.078-1.427-0.232s-0.73-0.369-0.991-0.646c-0.26-0.275-0.452-0.604-0.577-0.985
			c-0.125-0.381-0.187-0.802-0.187-1.262v-4.881h1.767v4.732c0,0.318,0.035,0.588,0.107,0.811c0.071,0.223,0.17,0.404,0.294,0.543
			c0.125,0.141,0.275,0.24,0.453,0.301s0.372,0.09,0.583,0.09c0.431,0,0.779-0.131,1.048-0.396c0.268-0.264,0.401-0.713,0.401-1.348
			v-4.732h1.767v4.881c0,0.46-0.063,0.883-0.192,1.268c-0.128,0.385-0.324,0.715-0.589,0.991c-0.264,0.275-0.6,0.489-1.008,0.64
			C41.082,306.545,40.599,306.621,40.04,306.621z"/>
		<path d="M47.593,306.565c-0.43,0-0.858-0.014-1.285-0.039c-0.427-0.027-0.87-0.09-1.33-0.188v-7.609
			c0.362-0.068,0.759-0.119,1.188-0.153c0.431-0.034,0.83-0.051,1.2-0.051c0.499,0,0.957,0.036,1.376,0.107s0.779,0.194,1.082,0.368
			c0.302,0.174,0.537,0.402,0.707,0.686s0.255,0.632,0.255,1.047c0,0.627-0.302,1.121-0.905,1.483
			c0.498,0.188,0.838,0.446,1.019,0.771c0.182,0.324,0.271,0.69,0.271,1.098c0,0.823-0.3,1.442-0.899,1.857
			C49.671,306.357,48.778,306.565,47.593,306.565z M46.698,301.695h0.86c0.544,0,0.933-0.07,1.167-0.209
			c0.233-0.141,0.351-0.365,0.351-0.674c0-0.318-0.121-0.541-0.362-0.669s-0.597-0.192-1.064-0.192
			c-0.151,0-0.313,0.002-0.486,0.006c-0.174,0.004-0.329,0.014-0.465,0.028V301.695z M46.698,303.043v2.026
			c0.129,0.016,0.268,0.026,0.419,0.034s0.317,0.012,0.498,0.012c0.528,0,0.955-0.076,1.28-0.227
			c0.324-0.151,0.486-0.431,0.486-0.838c0-0.363-0.136-0.621-0.407-0.775c-0.271-0.155-0.661-0.232-1.166-0.232H46.698z"/>
	</g>
	<rect x="3.833" y="265.78" fill="#3499CD" width="2.831" height="15.13"/>
	<rect x="73.663" y="265.78" fill="#3499CD" width="2.831" height="15.13"/>
</g>
<g>
	
		<rect x="131.537" y="225.134" fill="#FFFFFF" stroke="#666766" stroke-width="0.4404" stroke-miterlimit="10" width="77.064" height="98.72"/>
	<g>
		<g>
			<g>
				<path fill="#010101" stroke="#FFFFFF" stroke-width="0.1815" stroke-miterlimit="10" d="M169.754,266.35"/>
			</g>
			<g>
				<path fill="#010101" stroke="#FFFFFF" stroke-width="0.1815" stroke-miterlimit="10" d="M169.754,266.35"/>
			</g>
			<g>
				<path fill="#010101" stroke="#FFFFFF" stroke-width="0.1815" stroke-miterlimit="10" d="M169.754,266.35"/>
			</g>
			<g>
				<path fill="#010101" stroke="#FFFFFF" stroke-width="0.1815" stroke-miterlimit="10" d="M169.754,266.35"/>
			</g>
		</g>
		<polyline fill="#3499CD" points="192.44,279.393 181.098,286.197 169.756,293.002 169.756,279.393 169.756,265.782 		"/>
		<polyline fill="#996699" points="192.44,279.393 192.44,265.782 192.44,252.172 181.111,258.977 169.756,265.782 		"/>
		<polyline fill="#F89939" points="169.758,238.561 158.414,245.366 147.072,252.172 158.416,258.977 169.758,265.782 		"/>
		<polyline fill="#EF3B68" points="169.756,238.561 181.097,245.366 192.44,252.172 181.098,258.977 169.756,265.782 		"/>
		<polyline fill="#FFCE0C" points="147.072,279.393 158.416,286.197 169.758,293.002 169.758,279.393 169.758,265.782 		"/>
		<polyline fill="#6FC498" points="147.073,279.393 147.073,265.782 147.073,252.172 158.414,258.977 169.756,265.782 		"/>
		<g>
			<g>
				<g>
					
						<line fill="none" stroke="#FFFFFF" stroke-width="0.5444" stroke-miterlimit="10" x1="169.76" y1="238.561" x2="169.76" y2="239.195"/>
					
						<line fill="none" stroke="#FFFFFF" stroke-width="0.5444" stroke-miterlimit="10" stroke-dasharray="1.2358,1.2358" x1="169.76" y1="240.432" x2="169.755" y2="264.529"/>
					
						<line fill="none" stroke="#FFFFFF" stroke-width="0.5444" stroke-miterlimit="10" x1="169.754" y1="265.148" x2="169.754" y2="265.782"/>
				</g>
			</g>
			<g>
				<g>
					
						<line fill="none" stroke="#FFFFFF" stroke-width="0.5444" stroke-miterlimit="10" x1="169.754" y1="265.782" x2="170.299" y2="266.109"/>
					
						<line fill="none" stroke="#FFFFFF" stroke-width="0.5444" stroke-miterlimit="10" stroke-dasharray="1.3255,1.3255" x1="171.436" y1="266.791" x2="191.327" y2="278.725"/>
					
						<line fill="none" stroke="#FFFFFF" stroke-width="0.5444" stroke-miterlimit="10" x1="191.896" y1="279.065" x2="192.44" y2="279.393"/>
				</g>
			</g>
			<g>
				<g>
					
						<line fill="none" stroke="#FFFFFF" stroke-width="0.5444" stroke-miterlimit="10" x1="169.754" y1="265.782" x2="169.21" y2="266.109"/>
					
						<line fill="none" stroke="#FFFFFF" stroke-width="0.5444" stroke-miterlimit="10" stroke-dasharray="1.3254,1.3254" x1="168.073" y1="266.791" x2="148.185" y2="278.725"/>
					
						<line fill="none" stroke="#FFFFFF" stroke-width="0.5444" stroke-miterlimit="10" x1="147.616" y1="279.065" x2="147.072" y2="279.393"/>
				</g>
			</g>
		</g>
		<g>
			
				<line fill="none" stroke="#FFFFFF" stroke-width="0.5444" stroke-miterlimit="10" x1="169.76" y1="293.002" x2="169.754" y2="265.782"/>
			
				<line fill="none" stroke="#FFFFFF" stroke-width="0.5444" stroke-miterlimit="10" x1="169.754" y1="265.782" x2="192.44" y2="252.172"/>
			
				<line fill="none" stroke="#FFFFFF" stroke-width="0.5444" stroke-miterlimit="10" x1="169.754" y1="265.782" x2="147.072" y2="252.172"/>
		</g>
	</g>
	
		<rect x="135.942" y="326.52" fill="#FFFFFF" stroke="#666766" stroke-width="0.4404" stroke-miterlimit="10" width="67.942" height="5.537"/>
	
		<rect x="135.942" y="217.057" fill="#FFFFFF" stroke="#666766" stroke-width="0.4404" stroke-miterlimit="10" width="67.942" height="5.536"/>
	
		<line fill="none" stroke="#666766" stroke-width="4.4148" stroke-miterlimit="10" x1="130.039" y1="222.903" x2="209.884" y2="222.903"/>
	
		<line fill="none" stroke="#666766" stroke-width="4.4148" stroke-miterlimit="10" x1="130.039" y1="326.085" x2="209.884" y2="326.085"/>
	<g>
		<path d="M163.432,298.615h1.766v7.848h-1.766v-3.33h-2.967v3.33h-1.767v-7.848h1.767v3h2.967V298.615z"/>
		<path d="M170.079,306.621c-0.551,0-1.026-0.078-1.427-0.232s-0.73-0.369-0.991-0.646c-0.26-0.275-0.452-0.604-0.577-0.985
			c-0.125-0.381-0.187-0.802-0.187-1.262v-4.881h1.767v4.732c0,0.318,0.035,0.588,0.107,0.811c0.071,0.223,0.17,0.404,0.294,0.543
			c0.125,0.141,0.275,0.24,0.453,0.301s0.372,0.09,0.583,0.09c0.431,0,0.779-0.131,1.048-0.396c0.268-0.264,0.401-0.713,0.401-1.348
			v-4.732h1.767v4.881c0,0.46-0.063,0.883-0.192,1.268c-0.128,0.385-0.324,0.715-0.589,0.991c-0.264,0.275-0.6,0.489-1.008,0.64
			C171.121,306.545,170.637,306.621,170.079,306.621z"/>
		<path d="M177.631,306.565c-0.43,0-0.858-0.014-1.285-0.039c-0.427-0.027-0.87-0.09-1.33-0.188v-7.609
			c0.362-0.068,0.759-0.119,1.188-0.153c0.431-0.034,0.83-0.051,1.2-0.051c0.499,0,0.957,0.036,1.376,0.107s0.779,0.194,1.082,0.368
			c0.302,0.174,0.537,0.402,0.707,0.686s0.255,0.632,0.255,1.047c0,0.627-0.302,1.121-0.905,1.483
			c0.498,0.188,0.838,0.446,1.019,0.771c0.182,0.324,0.271,0.69,0.271,1.098c0,0.823-0.3,1.442-0.899,1.857
			C179.709,306.357,178.817,306.565,177.631,306.565z M176.737,301.695h0.86c0.544,0,0.933-0.07,1.167-0.209
			c0.233-0.141,0.351-0.365,0.351-0.674c0-0.318-0.121-0.541-0.362-0.669s-0.597-0.192-1.064-0.192
			c-0.151,0-0.313,0.002-0.486,0.006c-0.174,0.004-0.329,0.014-0.465,0.028V301.695z M176.737,303.043v2.026
			c0.129,0.016,0.268,0.026,0.419,0.034s0.317,0.012,0.498,0.012c0.528,0,0.955-0.076,1.28-0.227
			c0.324-0.151,0.486-0.431,0.486-0.838c0-0.363-0.136-0.621-0.407-0.775c-0.271-0.155-0.661-0.232-1.166-0.232H176.737z"/>
	</g>
	<rect x="133.872" y="265.78" fill="#666766" width="2.831" height="15.13"/>
	<rect x="203.702" y="265.78" fill="#666766" width="2.831" height="15.13"/>
</g>
<g>
	
		<rect x="261.575" y="225.134" fill="#FFFFFF" stroke="#000000" stroke-width="0.4404" stroke-miterlimit="10" width="77.064" height="98.72"/>
	<g>
		<g>
			<g>
				<path fill="#010101" stroke="#FFFFFF" stroke-width="0.1815" stroke-miterlimit="10" d="M299.794,266.35"/>
			</g>
			<g>
				<path fill="#010101" stroke="#FFFFFF" stroke-width="0.1815" stroke-miterlimit="10" d="M299.794,266.35"/>
			</g>
			<g>
				<path fill="#010101" stroke="#FFFFFF" stroke-width="0.1815" stroke-miterlimit="10" d="M299.794,266.35"/>
			</g>
			<g>
				<path fill="#010101" stroke="#FFFFFF" stroke-width="0.1815" stroke-miterlimit="10" d="M299.794,266.35"/>
			</g>
		</g>
		<polyline fill="#3499CD" points="322.479,279.393 311.138,286.197 299.796,293.002 299.796,279.393 299.796,265.782 		"/>
		<polyline fill="#996699" points="322.479,279.393 322.479,265.782 322.479,252.172 311.149,258.977 299.796,265.782 		"/>
		<polyline fill="#F89939" points="299.798,238.561 288.452,245.366 277.11,252.172 288.454,258.977 299.798,265.782 		"/>
		<polyline fill="#EF3B68" points="299.796,238.561 311.136,245.366 322.479,252.172 311.138,258.977 299.796,265.782 		"/>
		<polyline fill="#FFCE0C" points="277.11,279.393 288.454,286.197 299.798,293.002 299.798,279.393 299.798,265.782 		"/>
		<polyline fill="#6FC498" points="277.111,279.393 277.111,265.782 277.111,252.172 288.452,258.977 299.796,265.782 		"/>
		<g>
			<g>
				<g>
					
						<line fill="none" stroke="#FFFFFF" stroke-width="0.5444" stroke-miterlimit="10" x1="299.8" y1="238.561" x2="299.8" y2="239.195"/>
					
						<line fill="none" stroke="#FFFFFF" stroke-width="0.5444" stroke-miterlimit="10" stroke-dasharray="1.2358,1.2358" x1="299.799" y1="240.432" x2="299.794" y2="264.529"/>
					
						<line fill="none" stroke="#FFFFFF" stroke-width="0.5444" stroke-miterlimit="10" x1="299.794" y1="265.148" x2="299.794" y2="265.782"/>
				</g>
			</g>
			<g>
				<g>
					
						<line fill="none" stroke="#FFFFFF" stroke-width="0.5444" stroke-miterlimit="10" x1="299.794" y1="265.782" x2="300.338" y2="266.109"/>
					
						<line fill="none" stroke="#FFFFFF" stroke-width="0.5444" stroke-miterlimit="10" stroke-dasharray="1.3255,1.3255" x1="301.476" y1="266.791" x2="321.366" y2="278.725"/>
					
						<line fill="none" stroke="#FFFFFF" stroke-width="0.5444" stroke-miterlimit="10" x1="321.935" y1="279.065" x2="322.479" y2="279.393"/>
				</g>
			</g>
			<g>
				<g>
					
						<line fill="none" stroke="#FFFFFF" stroke-width="0.5444" stroke-miterlimit="10" x1="299.794" y1="265.782" x2="299.25" y2="266.109"/>
					
						<line fill="none" stroke="#FFFFFF" stroke-width="0.5444" stroke-miterlimit="10" stroke-dasharray="1.3254,1.3254" x1="298.113" y1="266.791" x2="278.223" y2="278.725"/>
					
						<line fill="none" stroke="#FFFFFF" stroke-width="0.5444" stroke-miterlimit="10" x1="277.655" y1="279.065" x2="277.11" y2="279.393"/>
				</g>
			</g>
		</g>
		<g>
			
				<line fill="none" stroke="#FFFFFF" stroke-width="0.5444" stroke-miterlimit="10" x1="299.8" y1="293.002" x2="299.794" y2="265.782"/>
			
				<line fill="none" stroke="#FFFFFF" stroke-width="0.5444" stroke-miterlimit="10" x1="299.794" y1="265.782" x2="322.479" y2="252.172"/>
			
				<line fill="none" stroke="#FFFFFF" stroke-width="0.5444" stroke-miterlimit="10" x1="299.794" y1="265.782" x2="277.11" y2="252.172"/>
		</g>
	</g>
	
		<rect x="265.98" y="326.52" fill="#FFFFFF" stroke="#000000" stroke-width="0.4404" stroke-miterlimit="10" width="67.942" height="5.537"/>
	
		<rect x="265.98" y="217.057" fill="#FFFFFF" stroke="#000000" stroke-width="0.4404" stroke-miterlimit="10" width="67.942" height="5.536"/>
	
		<line fill="none" stroke="#000000" stroke-width="4.4148" stroke-miterlimit="10" x1="260.077" y1="222.903" x2="339.923" y2="222.903"/>
	
		<line fill="none" stroke="#000000" stroke-width="4.4148" stroke-miterlimit="10" x1="260.077" y1="326.085" x2="339.923" y2="326.085"/>
	<g>
		<path d="M293.471,298.615h1.766v7.848h-1.766v-3.33h-2.967v3.33h-1.767v-7.848h1.767v3h2.967V298.615z"/>
		<path d="M300.118,306.621c-0.551,0-1.026-0.078-1.427-0.232s-0.73-0.369-0.991-0.646c-0.26-0.275-0.452-0.604-0.577-0.985
			c-0.125-0.381-0.187-0.802-0.187-1.262v-4.881h1.767v4.732c0,0.318,0.035,0.588,0.107,0.811c0.071,0.223,0.17,0.404,0.294,0.543
			c0.125,0.141,0.275,0.24,0.453,0.301s0.372,0.09,0.583,0.09c0.43,0,0.78-0.131,1.047-0.396c0.268-0.264,0.402-0.713,0.402-1.348
			v-4.732h1.766v4.881c0,0.46-0.063,0.883-0.191,1.268s-0.324,0.715-0.59,0.991c-0.264,0.275-0.6,0.489-1.008,0.64
			C301.16,306.545,300.676,306.621,300.118,306.621z"/>
		<path d="M307.67,306.565c-0.43,0-0.857-0.014-1.285-0.039c-0.426-0.027-0.869-0.09-1.33-0.188v-7.609
			c0.363-0.068,0.76-0.119,1.189-0.153s0.83-0.051,1.199-0.051c0.5,0,0.957,0.036,1.377,0.107c0.418,0.071,0.779,0.194,1.082,0.368
			c0.301,0.174,0.537,0.402,0.707,0.686s0.254,0.632,0.254,1.047c0,0.627-0.301,1.121-0.904,1.483
			c0.498,0.188,0.838,0.446,1.018,0.771c0.182,0.324,0.271,0.69,0.271,1.098c0,0.823-0.299,1.442-0.898,1.857
			C309.748,306.357,308.855,306.565,307.67,306.565z M306.775,301.695h0.861c0.543,0,0.932-0.07,1.166-0.209
			c0.234-0.141,0.352-0.365,0.352-0.674c0-0.318-0.121-0.541-0.363-0.669c-0.24-0.128-0.596-0.192-1.064-0.192
			c-0.15,0-0.313,0.002-0.486,0.006s-0.328,0.014-0.465,0.028V301.695z M306.775,303.043v2.026c0.129,0.016,0.268,0.026,0.42,0.034
			c0.15,0.008,0.316,0.012,0.498,0.012c0.527,0,0.955-0.076,1.279-0.227c0.324-0.151,0.486-0.431,0.486-0.838
			c0-0.363-0.135-0.621-0.406-0.775c-0.271-0.155-0.662-0.232-1.166-0.232H306.775z"/>
	</g>
	<rect x="263.91" y="265.78" width="2.831" height="15.13"/>
	<rect x="333.741" y="265.78" width="2.83" height="15.13"/>
</g>
<g>
	<g>
		<line fill="none" stroke="#FFCE0C" stroke-width="5" stroke-miterlimit="10" x1="299.793" y1="0" x2="299.793" y2="58.221"/>
	</g>
	<g>
		<polygon fill="#FFCE0C" points="296.551,51.777 293.551,59.748 306.035,59.748 303.035,51.777 		"/>
		<polygon fill="#FFCE0C" stroke="#F89939" stroke-width="0.869" stroke-miterlimit="10" points="292.551,73.176 307.035,73.176 
			307.035,61.777 306.035,59.748 293.551,59.748 292.551,61.777 		"/>
		<path fill="#FFCE0C" stroke="#F89939" stroke-width="0.869" stroke-miterlimit="10" d="M292.551,61.664"/>
		
			<line fill="none" stroke="#F89939" stroke-width="0.8801" stroke-miterlimit="10" x1="306.035" y1="58.289" x2="293.536" y2="58.289"/>
		
			<line fill="none" stroke="#F89939" stroke-width="0.903" stroke-miterlimit="10" x1="305.285" y1="56.789" x2="294.286" y2="56.789"/>
		
			<line fill="none" stroke="#F89939" stroke-width="0.9361" stroke-miterlimit="10" x1="304.535" y1="55.289" x2="295.036" y2="55.289"/>
		
			<line fill="none" stroke="#F89939" stroke-width="0.8854" stroke-miterlimit="10" x1="304.035" y1="53.789" x2="295.536" y2="53.789"/>
		<rect x="296.163" y="49.123" fill="#F89939" width="7.185" height="3.486"/>
	</g>
</g>
<g>
	<g>
		<line fill="none" stroke="#FFCE0C" stroke-width="5" stroke-miterlimit="10" x1="429.832" y1="0" x2="429.832" y2="58.221"/>
	</g>
	<g>
		<polygon fill="#FFCE0C" points="426.59,51.777 423.59,59.748 436.074,59.748 433.074,51.777 		"/>
		<polygon fill="#FFCE0C" stroke="#F89939" stroke-width="0.869" stroke-miterlimit="10" points="422.59,73.176 437.074,73.176 
			437.074,61.777 436.074,59.748 423.59,59.748 422.59,61.777 		"/>
		<path fill="#FFCE0C" stroke="#F89939" stroke-width="0.869" stroke-miterlimit="10" d="M422.59,61.664"/>
		
			<line fill="none" stroke="#F89939" stroke-width="0.8801" stroke-miterlimit="10" x1="436.074" y1="58.289" x2="423.574" y2="58.289"/>
		
			<line fill="none" stroke="#F89939" stroke-width="0.903" stroke-miterlimit="10" x1="435.324" y1="56.789" x2="424.324" y2="56.789"/>
		
			<line fill="none" stroke="#F89939" stroke-width="0.9361" stroke-miterlimit="10" x1="434.574" y1="55.289" x2="425.074" y2="55.289"/>
		
			<line fill="none" stroke="#F89939" stroke-width="0.8854" stroke-miterlimit="10" x1="434.074" y1="53.789" x2="425.574" y2="53.789"/>
		<rect x="426.201" y="49.123" fill="#F89939" width="7.186" height="3.486"/>
	</g>
</g>
<g>
	<g>
		<line fill="none" stroke="#FFCE0C" stroke-width="5" stroke-miterlimit="10" x1="559.871" y1="0" x2="559.871" y2="58.221"/>
	</g>
	<g>
		<polygon fill="#FFCE0C" points="556.629,51.777 553.629,59.748 566.113,59.748 563.113,51.777 		"/>
		<polygon fill="#FFCE0C" stroke="#F89939" stroke-width="0.869" stroke-miterlimit="10" points="552.629,73.176 567.113,73.176 
			567.113,61.777 566.113,59.748 553.629,59.748 552.629,61.777 		"/>
		<path fill="#FFCE0C" stroke="#F89939" stroke-width="0.869" stroke-miterlimit="10" d="M552.629,61.664"/>
		
			<line fill="none" stroke="#F89939" stroke-width="0.8801" stroke-miterlimit="10" x1="566.113" y1="58.289" x2="553.613" y2="58.289"/>
		
			<line fill="none" stroke="#F89939" stroke-width="0.903" stroke-miterlimit="10" x1="565.363" y1="56.789" x2="554.363" y2="56.789"/>
		
			<line fill="none" stroke="#F89939" stroke-width="0.9361" stroke-miterlimit="10" x1="564.613" y1="55.289" x2="555.113" y2="55.289"/>
		
			<line fill="none" stroke="#F89939" stroke-width="0.8854" stroke-miterlimit="10" x1="564.113" y1="53.789" x2="555.613" y2="53.789"/>
		<rect x="556.24" y="49.123" fill="#F89939" width="7.186" height="3.486"/>
	</g>
</g>
<g>
	<g>
		<line fill="none" stroke="#FFCE0C" stroke-width="5" stroke-miterlimit="10" x1="169.717" y1="0" x2="169.755" y2="58.221"/>
	</g>
	<g>
		<polygon fill="#FFCE0C" points="166.513,51.777 163.513,59.748 175.997,59.748 172.997,51.777 		"/>
		<polygon fill="#FFCE0C" stroke="#F89939" stroke-width="0.869" stroke-miterlimit="10" points="162.513,73.176 176.997,73.176 
			176.997,61.777 175.997,59.748 163.513,59.748 162.513,61.777 		"/>
		<path fill="#FFCE0C" stroke="#F89939" stroke-width="0.869" stroke-miterlimit="10" d="M162.513,61.664"/>
		
			<line fill="none" stroke="#F89939" stroke-width="0.8801" stroke-miterlimit="10" x1="175.997" y1="58.289" x2="163.497" y2="58.289"/>
		
			<line fill="none" stroke="#F89939" stroke-width="0.903" stroke-miterlimit="10" x1="175.247" y1="56.789" x2="164.247" y2="56.789"/>
		
			<line fill="none" stroke="#F89939" stroke-width="0.9361" stroke-miterlimit="10" x1="174.497" y1="55.289" x2="164.997" y2="55.289"/>
		
			<line fill="none" stroke="#F89939" stroke-width="0.8854" stroke-miterlimit="10" x1="173.997" y1="53.789" x2="165.497" y2="53.789"/>
		<rect x="166.124" y="49.123" fill="#F89939" width="7.186" height="3.486"/>
	</g>
</g>
<g>
	<g>
		<line fill="none" stroke="#FFCE0C" stroke-width="5" stroke-miterlimit="10" x1="39.678" y1="0" x2="39.716" y2="58.221"/>
	</g>
	<g>
		<polygon fill="#FFCE0C" points="36.474,51.777 33.474,59.748 45.958,59.748 42.958,51.777 		"/>
		<polygon fill="#FFCE0C" stroke="#F89939" stroke-width="0.869" stroke-miterlimit="10" points="32.474,73.176 46.958,73.176 
			46.958,61.777 45.958,59.748 33.474,59.748 32.474,61.777 		"/>
		<path fill="#FFCE0C" stroke="#F89939" stroke-width="0.869" stroke-miterlimit="10" d="M32.474,61.664"/>
		
			<line fill="none" stroke="#F89939" stroke-width="0.8801" stroke-miterlimit="10" x1="45.958" y1="58.289" x2="33.458" y2="58.289"/>
		
			<line fill="none" stroke="#F89939" stroke-width="0.903" stroke-miterlimit="10" x1="45.208" y1="56.789" x2="34.208" y2="56.789"/>
		
			<line fill="none" stroke="#F89939" stroke-width="0.9361" stroke-miterlimit="10" x1="44.458" y1="55.289" x2="34.958" y2="55.289"/>
		
			<line fill="none" stroke="#F89939" stroke-width="0.8854" stroke-miterlimit="10" x1="43.958" y1="53.789" x2="35.458" y2="53.789"/>
		<rect x="36.085" y="49.123" fill="#F89939" width="7.186" height="3.486"/>
	</g>
</g>
<g>
	
		<rect x="1.498" y="76.147" fill="#FFFFFF" stroke="#996699" stroke-width="0.4404" stroke-miterlimit="10" width="77.064" height="98.72"/>
	<g>
		<g>
			<g>
				<path fill="#010101" stroke="#FFFFFF" stroke-width="0.1815" stroke-miterlimit="10" d="M39.716,133.65"/>
			</g>
			<g>
				<path fill="#010101" stroke="#FFFFFF" stroke-width="0.1815" stroke-miterlimit="10" d="M39.716,133.65"/>
			</g>
			<g>
				<path fill="#010101" stroke="#FFFFFF" stroke-width="0.1815" stroke-miterlimit="10" d="M39.716,133.65"/>
			</g>
			<g>
				<path fill="#010101" stroke="#FFFFFF" stroke-width="0.1815" stroke-miterlimit="10" d="M39.716,133.65"/>
			</g>
		</g>
		<polyline fill="#3499CD" points="62.401,120.607 51.06,113.803 39.718,106.998 39.718,120.607 39.718,134.218 		"/>
		<polyline fill="#996699" points="62.401,120.607 62.401,134.218 62.401,147.828 51.072,141.023 39.718,134.218 		"/>
		<polyline fill="#F89939" points="39.72,161.44 28.375,154.634 17.033,147.828 28.377,141.023 39.72,134.218 		"/>
		<polyline fill="#EF3B68" points="39.718,161.44 51.059,154.634 62.401,147.828 51.06,141.023 39.718,134.218 		"/>
		<polyline fill="#FFCE0C" points="17.033,120.607 28.377,113.803 39.72,106.998 39.72,120.607 39.72,134.218 		"/>
		<polyline fill="#6FC498" points="17.034,120.607 17.034,134.218 17.034,147.828 28.375,141.023 39.718,134.218 		"/>
		<g>
			<g>
				<g>
					
						<line fill="none" stroke="#FFFFFF" stroke-width="0.5444" stroke-miterlimit="10" x1="39.722" y1="161.44" x2="39.722" y2="160.805"/>
					
						<line fill="none" stroke="#FFFFFF" stroke-width="0.5444" stroke-miterlimit="10" stroke-dasharray="1.2358,1.2358" x1="39.721" y1="159.568" x2="39.716" y2="135.471"/>
					
						<line fill="none" stroke="#FFFFFF" stroke-width="0.5444" stroke-miterlimit="10" x1="39.716" y1="134.853" x2="39.716" y2="134.218"/>
				</g>
			</g>
			<g>
				<g>
					
						<line fill="none" stroke="#FFFFFF" stroke-width="0.5444" stroke-miterlimit="10" x1="39.716" y1="134.218" x2="40.26" y2="133.891"/>
					
						<line fill="none" stroke="#FFFFFF" stroke-width="0.5444" stroke-miterlimit="10" stroke-dasharray="1.3255,1.3255" x1="41.397" y1="133.209" x2="61.289" y2="121.275"/>
					
						<line fill="none" stroke="#FFFFFF" stroke-width="0.5444" stroke-miterlimit="10" x1="61.857" y1="120.934" x2="62.401" y2="120.607"/>
				</g>
			</g>
			<g>
				<g>
					
						<line fill="none" stroke="#FFFFFF" stroke-width="0.5444" stroke-miterlimit="10" x1="39.716" y1="134.218" x2="39.171" y2="133.891"/>
					
						<line fill="none" stroke="#FFFFFF" stroke-width="0.5444" stroke-miterlimit="10" stroke-dasharray="1.3254,1.3254" x1="38.035" y1="133.209" x2="18.146" y2="121.275"/>
					
						<line fill="none" stroke="#FFFFFF" stroke-width="0.5444" stroke-miterlimit="10" x1="17.578" y1="120.934" x2="17.033" y2="120.607"/>
				</g>
			</g>
		</g>
		<g>
			
				<line fill="none" stroke="#FFFFFF" stroke-width="0.5444" stroke-miterlimit="10" x1="39.722" y1="106.998" x2="39.716" y2="134.218"/>
			
				<line fill="none" stroke="#FFFFFF" stroke-width="0.5444" stroke-miterlimit="10" x1="39.716" y1="134.218" x2="62.401" y2="147.828"/>
			
				<line fill="none" stroke="#FFFFFF" stroke-width="0.5444" stroke-miterlimit="10" x1="39.716" y1="134.218" x2="17.033" y2="147.828"/>
		</g>
	</g>
	
		<rect x="5.903" y="67.943" fill="#FFFFFF" stroke="#996699" stroke-width="0.4404" stroke-miterlimit="10" width="67.942" height="5.537"/>
	
		<rect x="5.903" y="177.407" fill="#FFFFFF" stroke="#996699" stroke-width="0.4404" stroke-miterlimit="10" width="67.942" height="5.536"/>
	<line fill="none" stroke="#996699" stroke-width="4.4148" stroke-miterlimit="10" x1="0" y1="177.097" x2="79.846" y2="177.097"/>
	<line fill="none" stroke="#996699" stroke-width="4.4148" stroke-miterlimit="10" x1="0" y1="73.915" x2="79.846" y2="73.915"/>
	<g>
		<path d="M33.394,98.384h-2.967v3H28.66v-7.847h1.767v3.329h2.967v-3.329h1.766v7.847h-1.766V98.384z"/>
		<path d="M41.489,93.606c0.408,0.151,0.744,0.364,1.008,0.64c0.265,0.276,0.461,0.606,0.589,0.991
			c0.129,0.385,0.192,0.808,0.192,1.268v4.88h-1.767v-4.733c0-0.634-0.134-1.083-0.401-1.348c-0.269-0.265-0.617-0.396-1.048-0.396
			c-0.211,0-0.405,0.03-0.583,0.091c-0.178,0.06-0.328,0.16-0.453,0.3c-0.124,0.14-0.223,0.321-0.294,0.543
			c-0.072,0.223-0.107,0.493-0.107,0.81v4.733h-1.767v-4.88c0-0.46,0.062-0.881,0.187-1.263s0.317-0.709,0.577-0.985
			c0.261-0.276,0.591-0.491,0.991-0.646c0.4-0.155,0.876-0.232,1.427-0.232C40.599,93.379,41.082,93.455,41.489,93.606z"/>
		<path d="M50.271,94.059c0.6,0.415,0.899,1.034,0.899,1.857c0,0.408-0.09,0.774-0.271,1.099c-0.181,0.324-0.521,0.581-1.019,0.77
			c0.604,0.362,0.905,0.856,0.905,1.483c0,0.415-0.085,0.764-0.255,1.047s-0.405,0.511-0.707,0.685
			c-0.303,0.173-0.663,0.296-1.082,0.368c-0.419,0.071-0.877,0.107-1.376,0.107c-0.37,0-0.77-0.017-1.2-0.051
			c-0.43-0.034-0.826-0.085-1.188-0.153v-7.61c0.46-0.098,0.903-0.16,1.33-0.187c0.427-0.026,0.855-0.04,1.285-0.04
			C48.778,93.436,49.671,93.643,50.271,94.059z M47.809,96.958c0.505,0,0.895-0.078,1.166-0.232s0.407-0.413,0.407-0.775
			c0-0.408-0.162-0.687-0.486-0.838c-0.325-0.151-0.752-0.227-1.28-0.227c-0.181,0-0.347,0.003-0.498,0.011
			c-0.151,0.007-0.29,0.019-0.419,0.034v2.027H47.809z M46.698,100.015c0.136,0.015,0.291,0.024,0.465,0.028
			c0.173,0.004,0.335,0.006,0.486,0.006c0.468,0,0.823-0.064,1.064-0.192c0.241-0.128,0.362-0.351,0.362-0.668
			c0-0.31-0.117-0.534-0.351-0.674c-0.234-0.14-0.623-0.209-1.167-0.209h-0.86V100.015z"/>
	</g>
	<rect x="3.833" y="119.09" fill="#996699" width="2.831" height="15.13"/>
	<rect x="73.663" y="119.09" fill="#996699" width="2.831" height="15.13"/>
</g>
<g>
	
		<rect x="131.537" y="76.147" fill="#FFFFFF" stroke="#EF3B68" stroke-width="0.4404" stroke-miterlimit="10" width="77.064" height="98.72"/>
	<g>
		<g>
			<g>
				<path fill="#010101" stroke="#FFFFFF" stroke-width="0.1815" stroke-miterlimit="10" d="M169.754,133.65"/>
			</g>
			<g>
				<path fill="#010101" stroke="#FFFFFF" stroke-width="0.1815" stroke-miterlimit="10" d="M169.754,133.65"/>
			</g>
			<g>
				<path fill="#010101" stroke="#FFFFFF" stroke-width="0.1815" stroke-miterlimit="10" d="M169.754,133.65"/>
			</g>
			<g>
				<path fill="#010101" stroke="#FFFFFF" stroke-width="0.1815" stroke-miterlimit="10" d="M169.754,133.65"/>
			</g>
		</g>
		<polyline fill="#3499CD" points="192.44,120.607 181.098,113.803 169.756,106.998 169.756,120.607 169.756,134.218 		"/>
		<polyline fill="#996699" points="192.44,120.607 192.44,134.218 192.44,147.828 181.111,141.023 169.756,134.218 		"/>
		<polyline fill="#F89939" points="169.758,161.44 158.414,154.634 147.072,147.828 158.416,141.023 169.758,134.218 		"/>
		<polyline fill="#EF3B68" points="169.756,161.44 181.097,154.634 192.44,147.828 181.098,141.023 169.756,134.218 		"/>
		<polyline fill="#FFCE0C" points="147.072,120.607 158.416,113.803 169.758,106.998 169.758,120.607 169.758,134.218 		"/>
		<polyline fill="#6FC498" points="147.073,120.607 147.073,134.218 147.073,147.828 158.414,141.023 169.756,134.218 		"/>
		<g>
			<g>
				<g>
					
						<line fill="none" stroke="#FFFFFF" stroke-width="0.5444" stroke-miterlimit="10" x1="169.76" y1="161.44" x2="169.76" y2="160.805"/>
					
						<line fill="none" stroke="#FFFFFF" stroke-width="0.5444" stroke-miterlimit="10" stroke-dasharray="1.2358,1.2358" x1="169.76" y1="159.568" x2="169.755" y2="135.471"/>
					
						<line fill="none" stroke="#FFFFFF" stroke-width="0.5444" stroke-miterlimit="10" x1="169.754" y1="134.853" x2="169.754" y2="134.218"/>
				</g>
			</g>
			<g>
				<g>
					
						<line fill="none" stroke="#FFFFFF" stroke-width="0.5444" stroke-miterlimit="10" x1="169.754" y1="134.218" x2="170.299" y2="133.891"/>
					
						<line fill="none" stroke="#FFFFFF" stroke-width="0.5444" stroke-miterlimit="10" stroke-dasharray="1.3255,1.3255" x1="171.436" y1="133.209" x2="191.327" y2="121.275"/>
					
						<line fill="none" stroke="#FFFFFF" stroke-width="0.5444" stroke-miterlimit="10" x1="191.896" y1="120.934" x2="192.44" y2="120.607"/>
				</g>
			</g>
			<g>
				<g>
					
						<line fill="none" stroke="#FFFFFF" stroke-width="0.5444" stroke-miterlimit="10" x1="169.754" y1="134.218" x2="169.21" y2="133.891"/>
					
						<line fill="none" stroke="#FFFFFF" stroke-width="0.5444" stroke-miterlimit="10" stroke-dasharray="1.3254,1.3254" x1="168.073" y1="133.209" x2="148.185" y2="121.275"/>
					
						<line fill="none" stroke="#FFFFFF" stroke-width="0.5444" stroke-miterlimit="10" x1="147.616" y1="120.934" x2="147.072" y2="120.607"/>
				</g>
			</g>
		</g>
		<g>
			
				<line fill="none" stroke="#FFFFFF" stroke-width="0.5444" stroke-miterlimit="10" x1="169.76" y1="106.998" x2="169.754" y2="134.218"/>
			
				<line fill="none" stroke="#FFFFFF" stroke-width="0.5444" stroke-miterlimit="10" x1="169.754" y1="134.218" x2="192.44" y2="147.828"/>
			
				<line fill="none" stroke="#FFFFFF" stroke-width="0.5444" stroke-miterlimit="10" x1="169.754" y1="134.218" x2="147.072" y2="147.828"/>
		</g>
	</g>
	
		<rect x="135.942" y="67.943" fill="#FFFFFF" stroke="#EF3B68" stroke-width="0.4404" stroke-miterlimit="10" width="67.942" height="5.537"/>
	
		<rect x="135.942" y="177.407" fill="#FFFFFF" stroke="#EF3B68" stroke-width="0.4404" stroke-miterlimit="10" width="67.942" height="5.536"/>
	
		<line fill="none" stroke="#EF3B68" stroke-width="4.4148" stroke-miterlimit="10" x1="130.039" y1="177.097" x2="209.884" y2="177.097"/>
	
		<line fill="none" stroke="#EF3B68" stroke-width="4.4148" stroke-miterlimit="10" x1="130.039" y1="73.915" x2="209.884" y2="73.915"/>
	<g>
		<path d="M163.432,98.384h-2.967v3h-1.767v-7.847h1.767v3.329h2.967v-3.329h1.766v7.847h-1.766V98.384z"/>
		<path d="M171.528,93.606c0.408,0.151,0.744,0.364,1.008,0.64c0.265,0.276,0.461,0.606,0.589,0.991
			c0.129,0.385,0.192,0.808,0.192,1.268v4.88h-1.767v-4.733c0-0.634-0.134-1.083-0.401-1.348c-0.269-0.265-0.617-0.396-1.048-0.396
			c-0.211,0-0.405,0.03-0.583,0.091c-0.178,0.06-0.328,0.16-0.453,0.3c-0.124,0.14-0.223,0.321-0.294,0.543
			c-0.072,0.223-0.107,0.493-0.107,0.81v4.733h-1.767v-4.88c0-0.46,0.062-0.881,0.187-1.263s0.317-0.709,0.577-0.985
			c0.261-0.276,0.591-0.491,0.991-0.646c0.4-0.155,0.876-0.232,1.427-0.232C170.637,93.379,171.121,93.455,171.528,93.606z"/>
		<path d="M180.31,94.059c0.6,0.415,0.899,1.034,0.899,1.857c0,0.408-0.09,0.774-0.271,1.099c-0.181,0.324-0.521,0.581-1.019,0.77
			c0.604,0.362,0.905,0.856,0.905,1.483c0,0.415-0.085,0.764-0.255,1.047s-0.405,0.511-0.707,0.685
			c-0.303,0.173-0.663,0.296-1.082,0.368c-0.419,0.071-0.877,0.107-1.376,0.107c-0.37,0-0.77-0.017-1.2-0.051
			c-0.43-0.034-0.826-0.085-1.188-0.153v-7.61c0.46-0.098,0.903-0.16,1.33-0.187c0.427-0.026,0.855-0.04,1.285-0.04
			C178.817,93.436,179.709,93.643,180.31,94.059z M177.847,96.958c0.505,0,0.895-0.078,1.166-0.232s0.407-0.413,0.407-0.775
			c0-0.408-0.162-0.687-0.486-0.838c-0.325-0.151-0.752-0.227-1.28-0.227c-0.181,0-0.347,0.003-0.498,0.011
			c-0.151,0.007-0.29,0.019-0.419,0.034v2.027H177.847z M176.737,100.015c0.136,0.015,0.291,0.024,0.465,0.028
			c0.173,0.004,0.335,0.006,0.486,0.006c0.468,0,0.823-0.064,1.064-0.192c0.241-0.128,0.362-0.351,0.362-0.668
			c0-0.31-0.117-0.534-0.351-0.674c-0.234-0.14-0.623-0.209-1.167-0.209h-0.86V100.015z"/>
	</g>
	<rect x="133.872" y="119.09" fill="#EF3B68" width="2.831" height="15.13"/>
	<rect x="203.702" y="119.09" fill="#EF3B68" width="2.831" height="15.13"/>
</g>
<g>
	
		<rect x="261.575" y="76.147" fill="#FFFFFF" stroke="#F89839" stroke-width="0.4404" stroke-miterlimit="10" width="77.064" height="98.72"/>
	<g>
		<g>
			<g>
				<path fill="#010101" stroke="#FFFFFF" stroke-width="0.1815" stroke-miterlimit="10" d="M299.794,133.65"/>
			</g>
			<g>
				<path fill="#010101" stroke="#FFFFFF" stroke-width="0.1815" stroke-miterlimit="10" d="M299.794,133.65"/>
			</g>
			<g>
				<path fill="#010101" stroke="#FFFFFF" stroke-width="0.1815" stroke-miterlimit="10" d="M299.794,133.65"/>
			</g>
			<g>
				<path fill="#010101" stroke="#FFFFFF" stroke-width="0.1815" stroke-miterlimit="10" d="M299.794,133.65"/>
			</g>
		</g>
		<polyline fill="#3499CD" points="322.479,120.607 311.138,113.803 299.796,106.998 299.796,120.607 299.796,134.218 		"/>
		<polyline fill="#996699" points="322.479,120.607 322.479,134.218 322.479,147.828 311.149,141.023 299.796,134.218 		"/>
		<polyline fill="#F89939" points="299.798,161.44 288.452,154.634 277.11,147.828 288.454,141.023 299.798,134.218 		"/>
		<polyline fill="#EF3B68" points="299.796,161.44 311.136,154.634 322.479,147.828 311.138,141.023 299.796,134.218 		"/>
		<polyline fill="#FFCE0C" points="277.11,120.607 288.454,113.803 299.798,106.998 299.798,120.607 299.798,134.218 		"/>
		<polyline fill="#6FC498" points="277.111,120.607 277.111,134.218 277.111,147.828 288.452,141.023 299.796,134.218 		"/>
		<g>
			<g>
				<g>
					
						<line fill="none" stroke="#FFFFFF" stroke-width="0.5444" stroke-miterlimit="10" x1="299.8" y1="161.44" x2="299.8" y2="160.805"/>
					
						<line fill="none" stroke="#FFFFFF" stroke-width="0.5444" stroke-miterlimit="10" stroke-dasharray="1.2358,1.2358" x1="299.799" y1="159.568" x2="299.794" y2="135.471"/>
					
						<line fill="none" stroke="#FFFFFF" stroke-width="0.5444" stroke-miterlimit="10" x1="299.794" y1="134.853" x2="299.794" y2="134.218"/>
				</g>
			</g>
			<g>
				<g>
					
						<line fill="none" stroke="#FFFFFF" stroke-width="0.5444" stroke-miterlimit="10" x1="299.794" y1="134.218" x2="300.338" y2="133.891"/>
					
						<line fill="none" stroke="#FFFFFF" stroke-width="0.5444" stroke-miterlimit="10" stroke-dasharray="1.3255,1.3255" x1="301.476" y1="133.209" x2="321.366" y2="121.275"/>
					
						<line fill="none" stroke="#FFFFFF" stroke-width="0.5444" stroke-miterlimit="10" x1="321.935" y1="120.934" x2="322.479" y2="120.607"/>
				</g>
			</g>
			<g>
				<g>
					
						<line fill="none" stroke="#FFFFFF" stroke-width="0.5444" stroke-miterlimit="10" x1="299.794" y1="134.218" x2="299.25" y2="133.891"/>
					
						<line fill="none" stroke="#FFFFFF" stroke-width="0.5444" stroke-miterlimit="10" stroke-dasharray="1.3254,1.3254" x1="298.113" y1="133.209" x2="278.223" y2="121.275"/>
					
						<line fill="none" stroke="#FFFFFF" stroke-width="0.5444" stroke-miterlimit="10" x1="277.655" y1="120.934" x2="277.11" y2="120.607"/>
				</g>
			</g>
		</g>
		<g>
			
				<line fill="none" stroke="#FFFFFF" stroke-width="0.5444" stroke-miterlimit="10" x1="299.8" y1="106.998" x2="299.794" y2="134.218"/>
			
				<line fill="none" stroke="#FFFFFF" stroke-width="0.5444" stroke-miterlimit="10" x1="299.794" y1="134.218" x2="322.479" y2="147.828"/>
			
				<line fill="none" stroke="#FFFFFF" stroke-width="0.5444" stroke-miterlimit="10" x1="299.794" y1="134.218" x2="277.11" y2="147.828"/>
		</g>
	</g>
	
		<rect x="265.98" y="67.943" fill="#FFFFFF" stroke="#F89839" stroke-width="0.4404" stroke-miterlimit="10" width="67.942" height="5.537"/>
	
		<rect x="265.98" y="177.407" fill="#FFFFFF" stroke="#F89839" stroke-width="0.4404" stroke-miterlimit="10" width="67.942" height="5.536"/>
	
		<line fill="none" stroke="#F89839" stroke-width="4.4148" stroke-miterlimit="10" x1="260.077" y1="177.097" x2="339.923" y2="177.097"/>
	
		<line fill="none" stroke="#F89839" stroke-width="4.4148" stroke-miterlimit="10" x1="260.077" y1="73.915" x2="339.923" y2="73.915"/>
	<g>
		<path d="M293.471,98.384h-2.967v3h-1.767v-7.847h1.767v3.329h2.967v-3.329h1.766v7.847h-1.766V98.384z"/>
		<path d="M301.566,93.606c0.408,0.151,0.744,0.364,1.008,0.64c0.266,0.276,0.461,0.606,0.59,0.991
			c0.129,0.385,0.191,0.808,0.191,1.268v4.88h-1.766v-4.733c0-0.634-0.135-1.083-0.402-1.348c-0.268-0.265-0.617-0.396-1.047-0.396
			c-0.211,0-0.405,0.03-0.583,0.091c-0.178,0.06-0.328,0.16-0.453,0.3c-0.124,0.14-0.223,0.321-0.294,0.543
			c-0.072,0.223-0.107,0.493-0.107,0.81v4.733h-1.767v-4.88c0-0.46,0.062-0.881,0.187-1.263s0.317-0.709,0.577-0.985
			c0.261-0.276,0.591-0.491,0.991-0.646c0.4-0.155,0.876-0.232,1.427-0.232C300.676,93.379,301.16,93.455,301.566,93.606z"/>
		<path d="M310.35,94.059c0.6,0.415,0.898,1.034,0.898,1.857c0,0.408-0.09,0.774-0.271,1.099c-0.18,0.324-0.52,0.581-1.018,0.77
			c0.604,0.362,0.904,0.856,0.904,1.483c0,0.415-0.084,0.764-0.254,1.047s-0.406,0.511-0.707,0.685
			c-0.303,0.173-0.664,0.296-1.082,0.368c-0.42,0.071-0.877,0.107-1.377,0.107c-0.369,0-0.77-0.017-1.199-0.051
			c-0.43-0.034-0.826-0.085-1.189-0.153v-7.61c0.461-0.098,0.904-0.16,1.33-0.187c0.428-0.026,0.855-0.04,1.285-0.04
			C308.855,93.436,309.748,93.643,310.35,94.059z M307.887,96.958c0.504,0,0.895-0.078,1.166-0.232s0.406-0.413,0.406-0.775
			c0-0.408-0.162-0.687-0.486-0.838c-0.324-0.151-0.752-0.227-1.279-0.227c-0.182,0-0.348,0.003-0.498,0.011
			c-0.152,0.007-0.291,0.019-0.42,0.034v2.027H307.887z M306.775,100.015c0.137,0.015,0.291,0.024,0.465,0.028
			s0.336,0.006,0.486,0.006c0.469,0,0.824-0.064,1.064-0.192c0.242-0.128,0.363-0.351,0.363-0.668c0-0.31-0.117-0.534-0.352-0.674
			s-0.623-0.209-1.166-0.209h-0.861V100.015z"/>
	</g>
	<rect x="263.91" y="119.09" fill="#F89939" width="2.831" height="15.13"/>
	<rect x="333.741" y="119.09" fill="#F89939" width="2.83" height="15.13"/>
</g>
<g>
	
		<rect x="391.613" y="76.147" fill="#FFFFFF" stroke="#70C599" stroke-width="0.4404" stroke-miterlimit="10" width="77.064" height="98.72"/>
	<g>
		<g>
			<g>
				<path fill="#010101" stroke="#FFFFFF" stroke-width="0.1815" stroke-miterlimit="10" d="M429.832,133.65"/>
			</g>
			<g>
				<path fill="#010101" stroke="#FFFFFF" stroke-width="0.1815" stroke-miterlimit="10" d="M429.832,133.65"/>
			</g>
			<g>
				<path fill="#010101" stroke="#FFFFFF" stroke-width="0.1815" stroke-miterlimit="10" d="M429.832,133.65"/>
			</g>
			<g>
				<path fill="#010101" stroke="#FFFFFF" stroke-width="0.1815" stroke-miterlimit="10" d="M429.832,133.65"/>
			</g>
		</g>
		<polyline fill="#3499CD" points="452.518,120.607 441.176,113.803 429.834,106.998 429.834,120.607 429.834,134.218 		"/>
		<polyline fill="#996699" points="452.518,120.607 452.518,134.218 452.518,147.828 441.188,141.023 429.834,134.218 		"/>
		<polyline fill="#F89939" points="429.836,161.44 418.49,154.634 407.148,147.828 418.492,141.023 429.836,134.218 		"/>
		<polyline fill="#EF3B68" points="429.834,161.44 441.174,154.634 452.518,147.828 441.176,141.023 429.834,134.218 		"/>
		<polyline fill="#FFCE0C" points="407.148,120.607 418.492,113.803 429.836,106.998 429.836,120.607 429.836,134.218 		"/>
		<polyline fill="#6FC498" points="407.15,120.607 407.15,134.218 407.15,147.828 418.49,141.023 429.834,134.218 		"/>
		<g>
			<g>
				<g>
					
						<line fill="none" stroke="#FFFFFF" stroke-width="0.5444" stroke-miterlimit="10" x1="429.838" y1="161.44" x2="429.838" y2="160.805"/>
					
						<line fill="none" stroke="#FFFFFF" stroke-width="0.5444" stroke-miterlimit="10" stroke-dasharray="1.2358,1.2358" x1="429.838" y1="159.568" x2="429.832" y2="135.471"/>
					
						<line fill="none" stroke="#FFFFFF" stroke-width="0.5444" stroke-miterlimit="10" x1="429.832" y1="134.853" x2="429.832" y2="134.218"/>
				</g>
			</g>
			<g>
				<g>
					
						<line fill="none" stroke="#FFFFFF" stroke-width="0.5444" stroke-miterlimit="10" x1="429.832" y1="134.218" x2="430.377" y2="133.891"/>
					
						<line fill="none" stroke="#FFFFFF" stroke-width="0.5444" stroke-miterlimit="10" stroke-dasharray="1.3255,1.3255" x1="431.514" y1="133.209" x2="451.404" y2="121.275"/>
					
						<line fill="none" stroke="#FFFFFF" stroke-width="0.5444" stroke-miterlimit="10" x1="451.973" y1="120.934" x2="452.518" y2="120.607"/>
				</g>
			</g>
			<g>
				<g>
					
						<line fill="none" stroke="#FFFFFF" stroke-width="0.5444" stroke-miterlimit="10" x1="429.832" y1="134.218" x2="429.287" y2="133.891"/>
					
						<line fill="none" stroke="#FFFFFF" stroke-width="0.5444" stroke-miterlimit="10" stroke-dasharray="1.3254,1.3254" x1="428.15" y1="133.209" x2="408.262" y2="121.275"/>
					
						<line fill="none" stroke="#FFFFFF" stroke-width="0.5444" stroke-miterlimit="10" x1="407.693" y1="120.934" x2="407.148" y2="120.607"/>
				</g>
			</g>
		</g>
		<g>
			
				<line fill="none" stroke="#FFFFFF" stroke-width="0.5444" stroke-miterlimit="10" x1="429.838" y1="106.998" x2="429.832" y2="134.218"/>
			
				<line fill="none" stroke="#FFFFFF" stroke-width="0.5444" stroke-miterlimit="10" x1="429.832" y1="134.218" x2="452.518" y2="147.828"/>
			
				<line fill="none" stroke="#FFFFFF" stroke-width="0.5444" stroke-miterlimit="10" x1="429.832" y1="134.218" x2="407.148" y2="147.828"/>
		</g>
	</g>
	
		<rect x="396.02" y="67.943" fill="#FFFFFF" stroke="#70C599" stroke-width="0.4404" stroke-miterlimit="10" width="67.941" height="5.537"/>
	
		<rect x="396.02" y="177.407" fill="#FFFFFF" stroke="#70C599" stroke-width="0.4404" stroke-miterlimit="10" width="67.941" height="5.536"/>
	
		<line fill="none" stroke="#70C599" stroke-width="4.4148" stroke-miterlimit="10" x1="390.115" y1="177.097" x2="469.961" y2="177.097"/>
	
		<line fill="none" stroke="#70C599" stroke-width="4.4148" stroke-miterlimit="10" x1="390.115" y1="73.915" x2="469.961" y2="73.915"/>
	<g>
		<path d="M423.51,98.384h-2.967v3h-1.767v-7.847h1.767v3.329h2.967v-3.329h1.766v7.847h-1.766V98.384z"/>
		<path d="M431.605,93.606c0.408,0.151,0.744,0.364,1.008,0.64c0.265,0.276,0.461,0.606,0.589,0.991
			c0.129,0.385,0.192,0.808,0.192,1.268v4.88h-1.767v-4.733c0-0.634-0.134-1.083-0.401-1.348c-0.269-0.265-0.617-0.396-1.048-0.396
			c-0.211,0-0.405,0.03-0.583,0.091c-0.178,0.06-0.328,0.16-0.453,0.3c-0.124,0.14-0.223,0.321-0.294,0.543
			c-0.072,0.223-0.107,0.493-0.107,0.81v4.733h-1.767v-4.88c0-0.46,0.062-0.881,0.187-1.263s0.317-0.709,0.577-0.985
			c0.261-0.276,0.591-0.491,0.991-0.646c0.4-0.155,0.876-0.232,1.427-0.232C430.715,93.379,431.198,93.455,431.605,93.606z"/>
		<path d="M440.388,94.059c0.6,0.415,0.899,1.034,0.899,1.857c0,0.408-0.09,0.774-0.271,1.099c-0.181,0.324-0.521,0.581-1.019,0.77
			c0.604,0.362,0.905,0.856,0.905,1.483c0,0.415-0.085,0.764-0.255,1.047s-0.405,0.511-0.707,0.685
			c-0.303,0.173-0.663,0.296-1.082,0.368c-0.419,0.071-0.877,0.107-1.376,0.107c-0.37,0-0.77-0.017-1.2-0.051
			c-0.43-0.034-0.826-0.085-1.188-0.153v-7.61c0.46-0.098,0.903-0.16,1.33-0.187c0.427-0.026,0.855-0.04,1.285-0.04
			C438.895,93.436,439.787,93.643,440.388,94.059z M437.925,96.958c0.505,0,0.895-0.078,1.166-0.232s0.407-0.413,0.407-0.775
			c0-0.408-0.162-0.687-0.486-0.838c-0.325-0.151-0.752-0.227-1.28-0.227c-0.181,0-0.347,0.003-0.498,0.011
			c-0.151,0.007-0.29,0.019-0.419,0.034v2.027H437.925z M436.814,100.015c0.136,0.015,0.291,0.024,0.465,0.028
			c0.173,0.004,0.335,0.006,0.486,0.006c0.468,0,0.823-0.064,1.064-0.192c0.241-0.128,0.362-0.351,0.362-0.668
			c0-0.31-0.117-0.534-0.351-0.674c-0.234-0.14-0.623-0.209-1.167-0.209h-0.86V100.015z"/>
	</g>
	<rect x="393.949" y="119.09" fill="#6FC498" width="2.83" height="15.13"/>
	<rect x="463.779" y="119.09" fill="#6FC498" width="2.83" height="15.13"/>
</g>
<g>
	
		<rect x="521.652" y="76.147" fill="#FFFFFF" stroke="#FECE0F" stroke-width="0.4404" stroke-miterlimit="10" width="77.064" height="98.72"/>
	<g>
		<g>
			<g>
				<path fill="#010101" stroke="#FFFFFF" stroke-width="0.1815" stroke-miterlimit="10" d="M559.871,133.65"/>
			</g>
			<g>
				<path fill="#010101" stroke="#FFFFFF" stroke-width="0.1815" stroke-miterlimit="10" d="M559.871,133.65"/>
			</g>
			<g>
				<path fill="#010101" stroke="#FFFFFF" stroke-width="0.1815" stroke-miterlimit="10" d="M559.871,133.65"/>
			</g>
			<g>
				<path fill="#010101" stroke="#FFFFFF" stroke-width="0.1815" stroke-miterlimit="10" d="M559.871,133.65"/>
			</g>
		</g>
		<polyline fill="#3499CD" points="582.557,120.607 571.215,113.803 559.873,106.998 559.873,120.607 559.873,134.218 		"/>
		<polyline fill="#996699" points="582.557,120.607 582.557,134.218 582.557,147.828 571.227,141.023 559.873,134.218 		"/>
		<polyline fill="#F89939" points="559.875,161.44 548.529,154.634 537.188,147.828 548.531,141.023 559.875,134.218 		"/>
		<polyline fill="#EF3B68" points="559.873,161.44 571.213,154.634 582.557,147.828 571.215,141.023 559.873,134.218 		"/>
		<polyline fill="#FFCE0C" points="537.188,120.607 548.531,113.803 559.875,106.998 559.875,120.607 559.875,134.218 		"/>
		<polyline fill="#6FC498" points="537.189,120.607 537.189,134.218 537.189,147.828 548.529,141.023 559.873,134.218 		"/>
		<g>
			<g>
				<g>
					
						<line fill="none" stroke="#FFFFFF" stroke-width="0.5444" stroke-miterlimit="10" x1="559.877" y1="161.44" x2="559.877" y2="160.805"/>
					
						<line fill="none" stroke="#FFFFFF" stroke-width="0.5444" stroke-miterlimit="10" stroke-dasharray="1.2358,1.2358" x1="559.877" y1="159.568" x2="559.871" y2="135.471"/>
					
						<line fill="none" stroke="#FFFFFF" stroke-width="0.5444" stroke-miterlimit="10" x1="559.871" y1="134.853" x2="559.871" y2="134.218"/>
				</g>
			</g>
			<g>
				<g>
					
						<line fill="none" stroke="#FFFFFF" stroke-width="0.5444" stroke-miterlimit="10" x1="559.871" y1="134.218" x2="560.416" y2="133.891"/>
					
						<line fill="none" stroke="#FFFFFF" stroke-width="0.5444" stroke-miterlimit="10" stroke-dasharray="1.3255,1.3255" x1="561.553" y1="133.209" x2="581.443" y2="121.275"/>
					
						<line fill="none" stroke="#FFFFFF" stroke-width="0.5444" stroke-miterlimit="10" x1="582.012" y1="120.934" x2="582.557" y2="120.607"/>
				</g>
			</g>
			<g>
				<g>
					
						<line fill="none" stroke="#FFFFFF" stroke-width="0.5444" stroke-miterlimit="10" x1="559.871" y1="134.218" x2="559.326" y2="133.891"/>
					
						<line fill="none" stroke="#FFFFFF" stroke-width="0.5444" stroke-miterlimit="10" stroke-dasharray="1.3254,1.3254" x1="558.189" y1="133.209" x2="538.301" y2="121.275"/>
					
						<line fill="none" stroke="#FFFFFF" stroke-width="0.5444" stroke-miterlimit="10" x1="537.732" y1="120.934" x2="537.188" y2="120.607"/>
				</g>
			</g>
		</g>
		<g>
			
				<line fill="none" stroke="#FFFFFF" stroke-width="0.5444" stroke-miterlimit="10" x1="559.877" y1="106.998" x2="559.871" y2="134.218"/>
			
				<line fill="none" stroke="#FFFFFF" stroke-width="0.5444" stroke-miterlimit="10" x1="559.871" y1="134.218" x2="582.557" y2="147.828"/>
			
				<line fill="none" stroke="#FFFFFF" stroke-width="0.5444" stroke-miterlimit="10" x1="559.871" y1="134.218" x2="537.188" y2="147.828"/>
		</g>
	</g>
	
		<rect x="526.059" y="67.943" fill="#FFFFFF" stroke="#FECE0F" stroke-width="0.4404" stroke-miterlimit="10" width="67.941" height="5.537"/>
	
		<rect x="526.059" y="177.407" fill="#FFFFFF" stroke="#FECE0F" stroke-width="0.4404" stroke-miterlimit="10" width="67.941" height="5.536"/>
	
		<line fill="none" stroke="#FECE0F" stroke-width="4.4148" stroke-miterlimit="10" x1="520.154" y1="177.097" x2="600" y2="177.097"/>
	<line fill="none" stroke="#FECE0F" stroke-width="4.4148" stroke-miterlimit="10" x1="520.154" y1="73.915" x2="600" y2="73.915"/>
	<g>
		<path d="M553.549,98.384h-2.967v3h-1.768v-7.847h1.768v3.329h2.967v-3.329h1.766v7.847h-1.766V98.384z"/>
		<path d="M561.645,93.606c0.408,0.151,0.744,0.364,1.008,0.64c0.264,0.276,0.461,0.606,0.588,0.991
			c0.129,0.385,0.193,0.808,0.193,1.268v4.88h-1.768v-4.733c0-0.634-0.133-1.083-0.4-1.348c-0.27-0.265-0.617-0.396-1.049-0.396
			c-0.211,0-0.404,0.03-0.582,0.091c-0.178,0.06-0.328,0.16-0.453,0.3s-0.223,0.321-0.295,0.543s-0.107,0.493-0.107,0.81v4.733
			h-1.766v-4.88c0-0.46,0.061-0.881,0.186-1.263s0.318-0.709,0.578-0.985c0.26-0.276,0.59-0.491,0.99-0.646
			c0.4-0.155,0.877-0.232,1.428-0.232C560.754,93.379,561.236,93.455,561.645,93.606z"/>
		<path d="M570.426,94.059c0.6,0.415,0.9,1.034,0.9,1.857c0,0.408-0.09,0.774-0.271,1.099c-0.182,0.324-0.521,0.581-1.02,0.77
			c0.604,0.362,0.906,0.856,0.906,1.483c0,0.415-0.086,0.764-0.256,1.047s-0.404,0.511-0.707,0.685
			c-0.303,0.173-0.662,0.296-1.082,0.368c-0.418,0.071-0.877,0.107-1.375,0.107c-0.371,0-0.77-0.017-1.201-0.051
			c-0.43-0.034-0.826-0.085-1.188-0.153v-7.61c0.459-0.098,0.902-0.16,1.33-0.187c0.426-0.026,0.855-0.04,1.285-0.04
			C568.934,93.436,569.826,93.643,570.426,94.059z M567.963,96.958c0.506,0,0.895-0.078,1.166-0.232s0.408-0.413,0.408-0.775
			c0-0.408-0.162-0.687-0.486-0.838c-0.326-0.151-0.752-0.227-1.281-0.227c-0.18,0-0.346,0.003-0.498,0.011
			c-0.15,0.007-0.289,0.019-0.418,0.034v2.027H567.963z M566.854,100.015c0.135,0.015,0.291,0.024,0.465,0.028
			c0.172,0.004,0.334,0.006,0.486,0.006c0.467,0,0.822-0.064,1.064-0.192c0.24-0.128,0.361-0.351,0.361-0.668
			c0-0.31-0.117-0.534-0.35-0.674c-0.234-0.14-0.623-0.209-1.168-0.209h-0.859V100.015z"/>
	</g>
	<rect x="523.988" y="119.09" fill="#FFCE0C" width="2.83" height="15.13"/>
	<rect x="593.818" y="119.09" fill="#FFCE0C" width="2.83" height="15.13"/>
</g>
<g>
	<g>
		<g>
			<line fill="none" stroke="#FFCE0C" stroke-width="5" stroke-miterlimit="10" x1="429.832" y1="400" x2="429.832" y2="341.779"/>
		</g>
		<g>
			<polygon fill="#FFCE0C" points="426.59,348.223 423.59,340.252 436.074,340.252 433.074,348.223 			"/>
			<polygon fill="#FFCE0C" stroke="#F89939" stroke-width="0.869" stroke-miterlimit="10" points="422.59,326.824 437.074,326.824 
				437.074,338.223 436.074,340.252 423.59,340.252 422.59,338.223 			"/>
			<path fill="#FFCE0C" stroke="#F89939" stroke-width="0.869" stroke-miterlimit="10" d="M422.59,338.336"/>
			
				<line fill="none" stroke="#F89939" stroke-width="0.8801" stroke-miterlimit="10" x1="436.074" y1="341.711" x2="423.574" y2="341.711"/>
			
				<line fill="none" stroke="#F89939" stroke-width="0.903" stroke-miterlimit="10" x1="435.324" y1="343.211" x2="424.324" y2="343.211"/>
			
				<line fill="none" stroke="#F89939" stroke-width="0.9361" stroke-miterlimit="10" x1="434.574" y1="344.711" x2="425.074" y2="344.711"/>
			
				<line fill="none" stroke="#F89939" stroke-width="0.8854" stroke-miterlimit="10" x1="434.074" y1="346.211" x2="425.574" y2="346.211"/>
			<rect x="426.201" y="347.391" fill="#F89939" width="7.186" height="3.486"/>
		</g>
	</g>
	<g>
		<g>
			
				<rect x="391.613" y="225.134" fill="#FFFFFF" stroke="#3499CD" stroke-width="0.4404" stroke-miterlimit="10" width="77.064" height="98.72"/>
			
				<rect x="396.02" y="326.52" fill="#FFFFFF" stroke="#3499CD" stroke-width="0.4404" stroke-miterlimit="10" width="67.941" height="5.537"/>
			
				<rect x="396.02" y="217.057" fill="#FFFFFF" stroke="#3499CD" stroke-width="0.4404" stroke-miterlimit="10" width="67.941" height="5.536"/>
			
				<line fill="none" stroke="#3499CD" stroke-width="4.4148" stroke-miterlimit="10" x1="390.115" y1="222.903" x2="469.961" y2="222.903"/>
			
				<line fill="none" stroke="#3499CD" stroke-width="4.4148" stroke-miterlimit="10" x1="390.115" y1="326.085" x2="469.961" y2="326.085"/>
			<g>
				<path d="M414.926,306.621c-1.276,0-2.248-0.355-2.916-1.064s-1.002-1.717-1.002-3.023c0-0.649,0.102-1.229,0.306-1.738
					s0.482-0.939,0.838-1.291c0.354-0.352,0.777-0.617,1.269-0.799c0.49-0.181,1.022-0.271,1.597-0.271
					c0.332,0,0.634,0.025,0.905,0.074c0.272,0.049,0.51,0.105,0.714,0.17c0.203,0.064,0.373,0.13,0.51,0.197
					c0.136,0.068,0.233,0.121,0.294,0.159l-0.51,1.427c-0.241-0.129-0.522-0.238-0.844-0.328c-0.32-0.091-0.685-0.137-1.093-0.137
					c-0.271,0-0.537,0.046-0.798,0.137c-0.261,0.09-0.491,0.236-0.69,0.436c-0.2,0.2-0.361,0.459-0.481,0.775
					c-0.121,0.317-0.182,0.702-0.182,1.155c0,0.362,0.04,0.7,0.119,1.014s0.208,0.583,0.385,0.81
					c0.178,0.227,0.41,0.406,0.696,0.537c0.287,0.133,0.635,0.199,1.042,0.199c0.257,0,0.487-0.016,0.691-0.045
					c0.203-0.031,0.385-0.066,0.543-0.108s0.298-0.089,0.419-0.142s0.23-0.102,0.328-0.146l0.487,1.415
					c-0.249,0.151-0.601,0.286-1.053,0.407C416.047,306.561,415.521,306.621,414.926,306.621z"/>
				<path d="M423.928,304.945v1.518h-5.242v-7.848h1.767v6.33H423.928z"/>
				<path d="M432.308,302.533c0,0.672-0.101,1.262-0.301,1.771c-0.199,0.51-0.474,0.937-0.82,1.28
					c-0.348,0.343-0.761,0.603-1.24,0.775c-0.479,0.174-0.995,0.261-1.546,0.261c-0.536,0-1.042-0.087-1.518-0.261
					c-0.476-0.173-0.891-0.433-1.245-0.775c-0.355-0.344-0.634-0.771-0.838-1.28s-0.306-1.1-0.306-1.771s0.105-1.263,0.316-1.772
					c0.212-0.509,0.497-0.938,0.855-1.285s0.773-0.607,1.245-0.781s0.969-0.261,1.489-0.261c0.536,0,1.042,0.087,1.518,0.261
					s0.891,0.435,1.246,0.781c0.354,0.347,0.634,0.776,0.838,1.285C432.205,301.271,432.308,301.861,432.308,302.533z
					 M426.317,302.533c0,0.385,0.047,0.732,0.142,1.041c0.094,0.311,0.229,0.576,0.407,0.799s0.395,0.395,0.651,0.516
					s0.551,0.181,0.883,0.181c0.325,0,0.617-0.06,0.878-0.181s0.479-0.293,0.656-0.516c0.178-0.223,0.313-0.488,0.408-0.799
					c0.094-0.309,0.142-0.656,0.142-1.041s-0.048-0.734-0.142-1.047c-0.095-0.314-0.23-0.582-0.408-0.805
					c-0.177-0.223-0.396-0.395-0.656-0.516c-0.261-0.12-0.553-0.181-0.878-0.181c-0.332,0-0.626,0.062-0.883,0.187
					s-0.474,0.299-0.651,0.521s-0.313,0.49-0.407,0.804C426.364,301.811,426.317,302.156,426.317,302.533z"/>
				<path d="M436.848,306.621c-0.551,0-1.026-0.078-1.427-0.232s-0.73-0.369-0.991-0.646c-0.26-0.275-0.452-0.604-0.577-0.985
					c-0.125-0.381-0.187-0.802-0.187-1.262v-4.881h1.767v4.732c0,0.318,0.035,0.588,0.107,0.811c0.071,0.223,0.17,0.404,0.294,0.543
					c0.125,0.141,0.275,0.24,0.453,0.301s0.372,0.09,0.583,0.09c0.431,0,0.779-0.131,1.048-0.396
					c0.268-0.264,0.401-0.713,0.401-1.348v-4.732h1.767v4.881c0,0.46-0.063,0.883-0.192,1.268c-0.128,0.385-0.324,0.715-0.589,0.991
					c-0.264,0.275-0.6,0.489-1.008,0.64C437.89,306.545,437.406,306.621,436.848,306.621z"/>
				<path d="M448.658,302.533c0,0.68-0.105,1.271-0.317,1.777c-0.211,0.506-0.511,0.926-0.899,1.258
					c-0.39,0.332-0.863,0.581-1.422,0.747c-0.559,0.165-1.185,0.249-1.879,0.249c-0.317,0-0.688-0.014-1.11-0.039
					c-0.423-0.027-0.838-0.082-1.245-0.165v-7.644c0.407-0.075,0.832-0.126,1.273-0.152c0.441-0.027,0.821-0.04,1.138-0.04
					c0.672,0,1.282,0.075,1.829,0.227c0.548,0.151,1.018,0.389,1.41,0.714c0.393,0.324,0.694,0.739,0.905,1.245
					C448.553,301.216,448.658,301.824,448.658,302.533z M443.552,305.024c0.083,0.007,0.179,0.013,0.288,0.017
					s0.24,0.006,0.391,0.006c0.884,0,1.538-0.223,1.965-0.668s0.64-1.061,0.64-1.846c0-0.822-0.203-1.445-0.611-1.869
					c-0.407-0.422-1.053-0.634-1.937-0.634c-0.12,0-0.245,0.002-0.373,0.006c-0.129,0.004-0.249,0.013-0.362,0.028V305.024z"/>
			</g>
			<rect x="393.949" y="265.78" fill="#3499CD" width="2.83" height="15.13"/>
			<rect x="463.779" y="265.78" fill="#3499CD" width="2.83" height="15.13"/>
		</g>
		<g>
			<polygon fill="#020202" points="452.521,279.547 429.837,293.198 407.153,279.547 407.153,252.238 429.837,238.585 
				452.521,252.238 			"/>
			<g>
				<g>
					<rect x="420.775" y="259.393" fill="#498ECC" width="17.955" height="6.474"/>
					<circle fill="#498ECC" cx="420.776" cy="261.442" r="4.425"/>
					<circle fill="#498ECC" cx="438.729" cy="261.442" r="4.425"/>
					<circle fill="#498ECC" cx="424.291" cy="255.98" r="4.425"/>
					<circle fill="#498ECC" cx="435.115" cy="255.98" r="4.425"/>
					<circle fill="#498ECC" cx="429.754" cy="253.324" r="4.425"/>
					<rect x="420.775" y="257.369" fill="#498ECC" width="17.955" height="4.451"/>
				</g>
				<g>
					<rect x="420.775" y="263.44" fill="#51ADE1" width="17.955" height="6.473"/>
					<circle fill="#51ADE1" cx="420.776" cy="265.487" r="4.426"/>
					<circle fill="#51ADE1" cx="438.729" cy="265.487" r="4.426"/>
					<circle fill="#51ADE1" cx="424.291" cy="260.025" r="4.425"/>
					<circle fill="#51ADE1" cx="435.115" cy="260.025" r="4.425"/>
					<circle fill="#51ADE1" cx="429.754" cy="257.369" r="4.426"/>
					<rect x="420.775" y="261.416" fill="#51ADE1" width="17.955" height="4.449"/>
				</g>
				<g>
					<rect x="420.775" y="268.497" fill="#6EC9F2" width="17.955" height="6.473"/>
					<circle fill="#6EC9F2" cx="420.776" cy="270.544" r="4.425"/>
					<circle fill="#6EC9F2" cx="438.729" cy="270.544" r="4.425"/>
					<circle fill="#6EC9F2" cx="424.291" cy="265.083" r="4.426"/>
					<circle fill="#6EC9F2" cx="435.115" cy="265.083" r="4.426"/>
					<circle fill="#6EC9F2" cx="429.754" cy="262.428" r="4.426"/>
					<rect x="420.775" y="266.473" fill="#6EC9F2" width="17.955" height="4.451"/>
				</g>
				<g>
					<rect x="420.775" y="273.556" fill="#FFFFFF" width="17.955" height="6.471"/>
					<circle fill="#FFFFFF" cx="420.776" cy="275.603" r="4.425"/>
					<circle fill="#FFFFFF" cx="438.729" cy="275.603" r="4.425"/>
					<circle fill="#FFFFFF" cx="424.291" cy="270.142" r="4.426"/>
					<circle fill="#FFFFFF" cx="435.115" cy="270.142" r="4.426"/>
					<circle fill="#FFFFFF" cx="429.754" cy="267.486" r="4.425"/>
					<rect x="420.775" y="271.531" fill="#FFFFFF" width="17.955" height="4.449"/>
				</g>
			</g>
		</g>
	</g>
</g>
</svg>
