<?xml version="1.0" encoding="utf-8"?>
<!-- Generator: Adobe Illustrator 19.1.0, SVG Export Plug-In . SVG Version: 6.00 Build 0)  -->
<svg version="1.1" id="Layer_1" xmlns="http://www.w3.org/2000/svg" xmlns:xlink="http://www.w3.org/1999/xlink" x="0px" y="0px"
	 viewBox="-30 272 550 250" style="enable-background:new -30 272 550 250;" xml:space="preserve">
<style type="text/css">
	.st0{clip-path:url(#SVGID_2_);}
	.st1{fill:none;stroke:#000000;stroke-width:3;stroke-miterlimit:10;}
	.st2{fill:#171617;stroke:#000000;stroke-width:0.6159;stroke-miterlimit:10;}
	.st3{fill:#FFFFFF;stroke:#000000;stroke-width:0.5;stroke-miterlimit:10;}
	.st4{fill:none;stroke:#000000;stroke-width:2.2691;stroke-miterlimit:10;}
	.st5{fill:none;stroke:#000000;stroke-width:5;stroke-miterlimit:10;}
	.st6{fill:#FFFFFF;}
	.st7{fill:none;stroke:#171617;stroke-width:3;stroke-miterlimit:10;}
	.st8{fill:none;stroke:#000000;stroke-width:0.6159;stroke-miterlimit:10;}
	.st9{fill:#FFCE09;stroke:#F89839;stroke-width:0.8388;stroke-miterlimit:10;}
	.st10{fill:#FFCE09;}
	.st11{fill:none;stroke:#F89839;stroke-width:0.8388;stroke-miterlimit:10;}
	.st12{fill:none;stroke:#3399CC;stroke-width:5;stroke-miterlimit:10;}
	.st13{fill:#3399CC;}
	.st14{fill:#3399CC;stroke:#1E314B;stroke-miterlimit:10;}
	.st15{fill:#FFCE09;stroke:#F89839;stroke-width:0.869;stroke-miterlimit:10;}
	.st16{fill:none;stroke:#1E314B;stroke-miterlimit:10;}
	.st17{fill:#1E314B;}
	.st18{fill:none;stroke:#000000;stroke-width:0.5;stroke-miterlimit:10;}
	.st19{fill:#010101;stroke:#FFFFFF;stroke-width:0.2061;stroke-miterlimit:10;}
	.st20{fill:#996699;}
	.st21{fill:#F89839;}
	.st22{fill:#EE3968;}
	.st23{fill:#6EC498;}
	.st24{fill:none;stroke:#FFFFFF;stroke-width:0.6182;stroke-miterlimit:10;}
	.st25{fill:none;stroke:#FFFFFF;stroke-width:0.6182;stroke-miterlimit:10;stroke-dasharray:1.4031,1.4031;}
	.st26{fill:none;stroke:#FFFFFF;stroke-width:0.6182;stroke-miterlimit:10;stroke-dasharray:1.505,1.505;}
	.st27{fill:none;stroke:#000000;stroke-width:2.269;stroke-linecap:square;stroke-miterlimit:10;}
	.st28{fill:#FFFFFF;stroke:#000000;stroke-width:0.5734;stroke-miterlimit:10;}
	.st29{fill:none;stroke:#000000;stroke-width:0.5;stroke-linecap:square;stroke-miterlimit:10;}
</style>
<g>
	<defs>
		<rect id="SVGID_1_" x="-30" y="272" width="550" height="250"/>
	</defs>
	<clipPath id="SVGID_2_">
		<use xlink:href="#SVGID_1_"  style="overflow:visible;"/>
	</clipPath>
	<g class="st0">
		<line class="st1" x1="391.4" y1="322" x2="391.4" y2="270.6"/>
		<polygon class="st2" points="389.9,312.7 388.5,320.6 394.3,320.6 392.9,312.7 		"/>
		<polyline class="st2" points="394.8,334.1 394.8,322.7 394.3,320.6 388.5,320.6 388,322.7 388,334.1 		"/>
		<path class="st2" d="M388,322.6"/>
		<line class="st2" x1="394.3" y1="319.2" x2="388.5" y2="319.2"/>
		<line class="st2" x1="393.9" y1="317.7" x2="388.8" y2="317.7"/>
		<line class="st2" x1="393.6" y1="316.2" x2="389.2" y2="316.2"/>
		<line class="st2" x1="393.4" y1="314.7" x2="389.4" y2="314.7"/>
		<rect x="389.7" y="310" class="st2" width="3.3" height="3.5"/>
		<rect x="71.8" y="311.3" class="st3" width="34" height="22.7"/>
		<g>
			<path d="M79.5,324.8v-6.2h4.2v1.2h-2.8v1.2h2.5v1.2h-2.5v1.5h3v1.2H79.5z"/>
			<path d="M86.6,318.6c0.1,0.2,0.2,0.4,0.4,0.7c0.1,0.3,0.3,0.6,0.4,0.9c0.2,0.3,0.3,0.7,0.5,1s0.3,0.7,0.4,1
				c0.1-0.3,0.3-0.6,0.4-1s0.3-0.7,0.5-1c0.2-0.3,0.3-0.7,0.4-0.9c0.1-0.3,0.3-0.5,0.4-0.7h1.3c0.1,0.4,0.1,0.9,0.2,1.4
				c0.1,0.5,0.1,1,0.1,1.6c0,0.6,0.1,1.1,0.1,1.7c0,0.6,0.1,1.1,0.1,1.6h-1.4c0-0.6,0-1.3-0.1-2c0-0.7-0.1-1.4-0.1-2.2
				c-0.1,0.3-0.2,0.5-0.4,0.8c-0.1,0.3-0.3,0.6-0.4,0.9s-0.3,0.6-0.4,0.9c-0.1,0.3-0.2,0.5-0.3,0.7h-1c-0.1-0.2-0.2-0.4-0.3-0.7
				c-0.1-0.3-0.2-0.6-0.4-0.9c-0.1-0.3-0.3-0.6-0.4-0.9c-0.1-0.3-0.3-0.6-0.4-0.8c-0.1,0.7-0.1,1.4-0.1,2.2c0,0.7-0.1,1.4-0.1,2
				h-1.4c0-0.5,0.1-1,0.1-1.6c0-0.6,0.1-1.1,0.1-1.7c0-0.6,0.1-1.1,0.1-1.6s0.1-1,0.2-1.4H86.6z"/>
			<path d="M95.9,324.9c-1,0-1.8-0.3-2.3-0.8c-0.5-0.6-0.8-1.4-0.8-2.4c0-0.5,0.1-1,0.2-1.4c0.2-0.4,0.4-0.7,0.7-1
				c0.3-0.3,0.6-0.5,1-0.6c0.4-0.1,0.8-0.2,1.3-0.2c0.3,0,0.5,0,0.7,0.1s0.4,0.1,0.6,0.1s0.3,0.1,0.4,0.2c0.1,0.1,0.2,0.1,0.2,0.1
				l-0.4,1.1c-0.2-0.1-0.4-0.2-0.7-0.3c-0.3-0.1-0.5-0.1-0.9-0.1c-0.2,0-0.4,0-0.6,0.1s-0.4,0.2-0.5,0.3c-0.2,0.2-0.3,0.4-0.4,0.6
				c-0.1,0.3-0.1,0.6-0.1,0.9c0,0.3,0,0.6,0.1,0.8c0.1,0.3,0.2,0.5,0.3,0.6c0.1,0.2,0.3,0.3,0.6,0.4c0.2,0.1,0.5,0.2,0.8,0.2
				c0.2,0,0.4,0,0.5,0c0.2,0,0.3-0.1,0.4-0.1c0.1,0,0.2-0.1,0.3-0.1c0.1,0,0.2-0.1,0.3-0.1l0.4,1.1c-0.2,0.1-0.5,0.2-0.8,0.3
				C96.8,324.9,96.4,324.9,95.9,324.9z"/>
		</g>
		<rect x="291.8" y="311.3" class="st3" width="34" height="22.7"/>
		<g>
			<path d="M299.5,324.8v-6.2h4.2v1.2h-2.8v1.2h2.5v1.2h-2.5v1.5h3v1.2H299.5z"/>
			<path d="M306.6,318.6c0.1,0.2,0.2,0.4,0.4,0.7c0.1,0.3,0.3,0.6,0.4,0.9c0.2,0.3,0.3,0.7,0.5,1s0.3,0.7,0.4,1
				c0.1-0.3,0.3-0.6,0.4-1s0.3-0.7,0.5-1c0.2-0.3,0.3-0.7,0.4-0.9c0.1-0.3,0.3-0.5,0.4-0.7h1.3c0.1,0.4,0.1,0.9,0.2,1.4
				c0.1,0.5,0.1,1,0.1,1.6c0,0.6,0.1,1.1,0.1,1.7c0,0.6,0.1,1.1,0.1,1.6h-1.4c0-0.6,0-1.3-0.1-2c0-0.7-0.1-1.4-0.1-2.2
				c-0.1,0.3-0.2,0.5-0.4,0.8s-0.3,0.6-0.4,0.9s-0.3,0.6-0.4,0.9c-0.1,0.3-0.2,0.5-0.3,0.7h-1c-0.1-0.2-0.2-0.4-0.3-0.7
				c-0.1-0.3-0.2-0.6-0.4-0.9c-0.1-0.3-0.3-0.6-0.4-0.9c-0.1-0.3-0.3-0.6-0.4-0.8c-0.1,0.7-0.1,1.4-0.1,2.2c0,0.7-0.1,1.4-0.1,2
				h-1.4c0-0.5,0.1-1,0.1-1.6c0-0.6,0.1-1.1,0.1-1.7c0-0.6,0.1-1.1,0.1-1.6s0.1-1,0.2-1.4H306.6z"/>
			<path d="M315.9,324.9c-1,0-1.8-0.3-2.3-0.8c-0.5-0.6-0.8-1.4-0.8-2.4c0-0.5,0.1-1,0.2-1.4c0.2-0.4,0.4-0.7,0.7-1
				c0.3-0.3,0.6-0.5,1-0.6c0.4-0.1,0.8-0.2,1.3-0.2c0.3,0,0.5,0,0.7,0.1s0.4,0.1,0.6,0.1s0.3,0.1,0.4,0.2c0.1,0.1,0.2,0.1,0.2,0.1
				l-0.4,1.1c-0.2-0.1-0.4-0.2-0.7-0.3c-0.3-0.1-0.5-0.1-0.9-0.1c-0.2,0-0.4,0-0.6,0.1s-0.4,0.2-0.5,0.3c-0.2,0.2-0.3,0.4-0.4,0.6
				c-0.1,0.3-0.1,0.6-0.1,0.9c0,0.3,0,0.6,0.1,0.8c0.1,0.3,0.2,0.5,0.3,0.6c0.1,0.2,0.3,0.3,0.6,0.4c0.2,0.1,0.5,0.2,0.8,0.2
				c0.2,0,0.4,0,0.5,0c0.2,0,0.3-0.1,0.4-0.1c0.1,0,0.2-0.1,0.3-0.1c0.1,0,0.2-0.1,0.3-0.1l0.4,1.1c-0.2,0.1-0.5,0.2-0.8,0.3
				C316.8,324.9,316.4,324.9,315.9,324.9z"/>
		</g>
		<line class="st4" x1="169" y1="322" x2="169" y2="285.6"/>
		<g>
			<polygon class="st2" points="167.5,313.2 166.1,321.2 171.9,321.2 170.5,313.2 			"/>
			<polygon class="st2" points="165.6,334.6 172.4,334.6 172.4,323.2 171.9,321.2 166.1,321.2 165.6,323.2 			"/>
			<path class="st2" d="M165.6,323.1"/>
			<line class="st2" x1="171.9" y1="319.7" x2="166.1" y2="319.7"/>
			<line class="st2" x1="171.6" y1="318.2" x2="166.4" y2="318.2"/>
			<line class="st2" x1="171.2" y1="316.7" x2="166.8" y2="316.7"/>
			<line class="st2" x1="171" y1="315.2" x2="167" y2="315.2"/>
			<rect x="167.3" y="310.5" class="st2" width="3.3" height="3.5"/>
		</g>
		<line class="st5" x1="-30" y1="394.6" x2="22.4" y2="394.6"/>
		<polygon class="st2" points="14.1,397.1 15.5,398.3 22,398.3 22,391 15.5,391 14.1,392.2 		"/>
		<polygon class="st2" points="47.3,403.5 28.9,403.5 22,401.5 22,387.8 28.9,385.8 47.3,385.8 		"/>
		<g>
			<path class="st6" d="M32.5,390.4v0.8h-3.5v-0.8h1.5v-1.3h-1.5v-0.8h3.5v0.8h-1.3v1.3H32.5z"/>
			<path class="st6" d="M30.8,395c-0.3,0-0.6,0-0.8-0.1c-0.2-0.1-0.4-0.2-0.6-0.4c-0.1-0.2-0.3-0.4-0.3-0.6S29,393.3,29,393
				c0-0.1,0-0.3,0-0.5c0-0.2,0-0.4,0.1-0.5h3.4c0,0.2,0.1,0.4,0.1,0.6c0,0.2,0,0.4,0,0.5c0,0.3,0,0.6-0.1,0.8
				c-0.1,0.2-0.2,0.4-0.3,0.6s-0.3,0.3-0.5,0.4S31.1,395,30.8,395z M29.7,392.8c0,0,0,0.1,0,0.1c0,0,0,0.1,0,0.2
				c0,0.4,0.1,0.7,0.3,0.9c0.2,0.2,0.5,0.3,0.8,0.3c0.4,0,0.6-0.1,0.8-0.3c0.2-0.2,0.3-0.5,0.3-0.9c0-0.1,0-0.1,0-0.2
				c0-0.1,0-0.1,0-0.2L29.7,392.8L29.7,392.8z"/>
			<path class="st6" d="M32.5,396.6c-0.1,0.1-0.2,0.1-0.4,0.2c-0.2,0.1-0.3,0.2-0.5,0.2c-0.2,0.1-0.4,0.2-0.6,0.3
				c-0.2,0.1-0.4,0.2-0.6,0.2c0.2,0.1,0.4,0.2,0.6,0.2c0.2,0.1,0.4,0.2,0.6,0.3c0.2,0.1,0.4,0.2,0.5,0.2c0.2,0.1,0.3,0.1,0.4,0.2
				v0.7c-0.2,0-0.5,0.1-0.8,0.1c-0.3,0-0.6,0.1-0.9,0.1c-0.3,0-0.6,0-0.9,0.1c-0.3,0-0.6,0-0.9,0v-0.8c0.3,0,0.7,0,1.1,0
				c0.4,0,0.8,0,1.2-0.1c-0.1-0.1-0.3-0.1-0.5-0.2c-0.2-0.1-0.3-0.1-0.5-0.2c-0.2-0.1-0.3-0.1-0.5-0.2c-0.2-0.1-0.3-0.1-0.4-0.2
				v-0.5c0.1,0,0.2-0.1,0.4-0.2c0.2-0.1,0.3-0.1,0.5-0.2c0.2-0.1,0.3-0.1,0.5-0.2c0.2-0.1,0.3-0.1,0.5-0.2c-0.4,0-0.8-0.1-1.2-0.1
				c-0.4,0-0.8,0-1.1,0v-0.8c0.3,0,0.6,0,0.9,0c0.3,0,0.6,0,0.9,0.1c0.3,0,0.6,0,0.9,0.1s0.5,0.1,0.8,0.1V396.6z"/>
			<path class="st6" d="M32.5,400.2v0.8h-3.5v-0.8H32.5z"/>
		</g>
		<line class="st2" x1="20.5" y1="391" x2="20.5" y2="398.3"/>
		<line class="st2" x1="19" y1="391" x2="19" y2="398.3"/>
		<line class="st2" x1="17.5" y1="391" x2="17.5" y2="398.3"/>
		<line class="st2" x1="16" y1="391" x2="16" y2="398.3"/>
		<rect x="401.5" y="311.3" class="st3" width="34" height="22.7"/>
		<rect x="181.8" y="311.3" class="st3" width="34" height="22.7"/>
		<g>
			<path d="M189.5,324.8v-6.2h4.2v1.2h-2.8v1.2h2.5v1.2h-2.5v1.5h3v1.2H189.5z"/>
			<path d="M196.6,318.6c0.1,0.2,0.2,0.4,0.4,0.7c0.1,0.3,0.3,0.6,0.4,0.9c0.2,0.3,0.3,0.7,0.5,1s0.3,0.7,0.4,1
				c0.1-0.3,0.3-0.6,0.4-1s0.3-0.7,0.5-1c0.2-0.3,0.3-0.7,0.4-0.9c0.1-0.3,0.3-0.5,0.4-0.7h1.3c0.1,0.4,0.1,0.9,0.2,1.4
				c0.1,0.5,0.1,1,0.1,1.6c0,0.6,0.1,1.1,0.1,1.7c0,0.6,0.1,1.1,0.1,1.6h-1.4c0-0.6,0-1.3-0.1-2c0-0.7-0.1-1.4-0.1-2.2
				c-0.1,0.3-0.2,0.5-0.4,0.8c-0.1,0.3-0.3,0.6-0.4,0.9s-0.3,0.6-0.4,0.9c-0.1,0.3-0.2,0.5-0.3,0.7h-1c-0.1-0.2-0.2-0.4-0.3-0.7
				c-0.1-0.3-0.2-0.6-0.4-0.9c-0.1-0.3-0.3-0.6-0.4-0.9c-0.1-0.3-0.3-0.6-0.4-0.8c-0.1,0.7-0.1,1.4-0.1,2.2c0,0.7-0.1,1.4-0.1,2
				h-1.4c0-0.5,0.1-1,0.1-1.6c0-0.6,0.1-1.1,0.1-1.7c0-0.6,0.1-1.1,0.1-1.6s0.1-1,0.2-1.4H196.6z"/>
			<path d="M205.9,324.9c-1,0-1.8-0.3-2.3-0.8c-0.5-0.6-0.8-1.4-0.8-2.4c0-0.5,0.1-1,0.2-1.4c0.2-0.4,0.4-0.7,0.7-1
				c0.3-0.3,0.6-0.5,1-0.6c0.4-0.1,0.8-0.2,1.3-0.2c0.3,0,0.5,0,0.7,0.1s0.4,0.1,0.6,0.1s0.3,0.1,0.4,0.2c0.1,0.1,0.2,0.1,0.2,0.1
				l-0.4,1.1c-0.2-0.1-0.4-0.2-0.7-0.3c-0.3-0.1-0.5-0.1-0.9-0.1c-0.2,0-0.4,0-0.6,0.1s-0.4,0.2-0.5,0.3c-0.2,0.2-0.3,0.4-0.4,0.6
				c-0.1,0.3-0.1,0.6-0.1,0.9c0,0.3,0,0.6,0.1,0.8c0.1,0.3,0.2,0.5,0.3,0.6c0.1,0.2,0.3,0.3,0.6,0.4c0.2,0.1,0.5,0.2,0.8,0.2
				c0.2,0,0.4,0,0.5,0c0.2,0,0.3-0.1,0.4-0.1c0.1,0,0.2-0.1,0.3-0.1c0.1,0,0.2-0.1,0.3-0.1l0.4,1.1c-0.2,0.1-0.5,0.2-0.8,0.3
				C206.8,324.9,206.4,324.9,205.9,324.9z"/>
		</g>
		<g>
			<path d="M409.3,324.8v-6.2h4.2v1.2h-2.8v1.2h2.5v1.2h-2.5v1.5h3v1.2H409.3z"/>
			<path d="M416.4,318.6c0.1,0.2,0.2,0.4,0.4,0.7c0.1,0.3,0.3,0.6,0.4,0.9c0.2,0.3,0.3,0.7,0.5,1s0.3,0.7,0.4,1
				c0.1-0.3,0.3-0.6,0.4-1s0.3-0.7,0.5-1c0.2-0.3,0.3-0.7,0.4-0.9c0.1-0.3,0.3-0.5,0.4-0.7h1.3c0.1,0.4,0.1,0.9,0.2,1.4
				c0.1,0.5,0.1,1,0.1,1.6c0,0.6,0.1,1.1,0.1,1.7c0,0.6,0.1,1.1,0.1,1.6h-1.4c0-0.6,0-1.3-0.1-2c0-0.7-0.1-1.4-0.1-2.2
				c-0.1,0.3-0.2,0.5-0.4,0.8s-0.3,0.6-0.4,0.9s-0.3,0.6-0.4,0.9c-0.1,0.3-0.2,0.5-0.3,0.7h-1c-0.1-0.2-0.2-0.4-0.3-0.7
				c-0.1-0.3-0.2-0.6-0.4-0.9c-0.1-0.3-0.3-0.6-0.4-0.9c-0.1-0.3-0.3-0.6-0.4-0.8c-0.1,0.7-0.1,1.4-0.1,2.2c0,0.7-0.1,1.4-0.1,2
				h-1.4c0-0.5,0.1-1,0.1-1.6c0-0.6,0.1-1.1,0.1-1.7c0-0.6,0.1-1.1,0.1-1.6c0.1-0.5,0.1-1,0.2-1.4H416.4z"/>
			<path d="M425.7,324.9c-1,0-1.8-0.3-2.3-0.8c-0.5-0.6-0.8-1.4-0.8-2.4c0-0.5,0.1-1,0.2-1.4c0.2-0.4,0.4-0.7,0.7-1
				c0.3-0.3,0.6-0.5,1-0.6c0.4-0.1,0.8-0.2,1.3-0.2c0.3,0,0.5,0,0.7,0.1s0.4,0.1,0.6,0.1s0.3,0.1,0.4,0.2c0.1,0.1,0.2,0.1,0.2,0.1
				l-0.4,1.1c-0.2-0.1-0.4-0.2-0.7-0.3c-0.3-0.1-0.5-0.1-0.9-0.1c-0.2,0-0.4,0-0.6,0.1s-0.4,0.2-0.5,0.3c-0.2,0.2-0.3,0.4-0.4,0.6
				c-0.1,0.3-0.1,0.6-0.1,0.9c0,0.3,0,0.6,0.1,0.8c0.1,0.3,0.2,0.5,0.3,0.6c0.1,0.2,0.3,0.3,0.6,0.4c0.2,0.1,0.5,0.2,0.8,0.2
				c0.2,0,0.4,0,0.5,0c0.2,0,0.3-0.1,0.4-0.1c0.1,0,0.2-0.1,0.3-0.1c0.1,0,0.2-0.1,0.3-0.1l0.4,1.1c-0.2,0.1-0.5,0.2-0.8,0.3
				C426.6,324.9,426.1,324.9,425.7,324.9z"/>
		</g>
		<g>
			<rect x="309.2" y="459.6" class="st3" width="18" height="38"/>
		</g>
		<g>
			<path id="path1334_1_" d="M318.1,466.5l-1.2,2h0.8v10.2l-2.1-2c-0.1-0.2-0.2-0.4-0.2-0.6c0-0.9,0-1.5,0-1.7
				c0.4-0.1,0.7-0.5,0.7-0.9c0-0.6-0.4-1-1-1s-1,0.4-1,1c0,0.4,0.3,0.8,0.7,0.9v1.7c0,0.4,0.2,0.9,0.5,1.2c0,0,0,0,0,0
				c0,0,2.2,2.1,2.2,2.1c0.1,0.2,0.2,0.4,0.2,0.6v1.2c-0.8,0.2-1.3,0.8-1.3,1.6c0,0.9,0.7,1.7,1.7,1.7s1.7-0.7,1.7-1.7
				c0-0.8-0.6-1.5-1.3-1.6V480c0,0,0,0,0,0v-2.5c0-0.2,0.1-0.4,0.2-0.6c0,0,2.2-2.1,2.2-2.1c0,0,0,0,0,0c0.3-0.3,0.5-0.8,0.5-1.2
				l0-1.6h0.7v-2h-2v2h0.7c0,0,0,0.4,0,1.6c0,0.2-0.1,0.4-0.2,0.6l-2.1,2v-7.7h0.8L318.1,466.5z"/>
			<g>
				<path d="M314.9,493.5c-0.2,0-0.5,0-0.6-0.1c-0.2-0.1-0.3-0.2-0.4-0.3s-0.2-0.3-0.3-0.4c-0.1-0.2-0.1-0.4-0.1-0.6v-2.2h0.8v2.1
					c0,0.1,0,0.3,0,0.4c0,0.1,0.1,0.2,0.1,0.2s0.1,0.1,0.2,0.1c0.1,0,0.2,0,0.3,0c0.2,0,0.3-0.1,0.5-0.2c0.1-0.1,0.2-0.3,0.2-0.6
					v-2.1h0.8v2.2c0,0.2,0,0.4-0.1,0.6c-0.1,0.2-0.1,0.3-0.3,0.4s-0.3,0.2-0.4,0.3C315.4,493.4,315.2,493.5,314.9,493.5z"/>
				<path d="M318.1,492.8c0.1,0,0.2,0,0.3,0c0.1,0,0.1,0,0.2-0.1c0,0,0.1-0.1,0.1-0.1c0,0,0-0.1,0-0.1c0-0.1-0.1-0.2-0.2-0.3
					c-0.1-0.1-0.3-0.2-0.6-0.2c-0.1,0-0.2-0.1-0.3-0.1s-0.2-0.1-0.3-0.2s-0.2-0.2-0.2-0.3c-0.1-0.1-0.1-0.2-0.1-0.4
					c0-0.2,0-0.3,0.1-0.4s0.1-0.2,0.3-0.3c0.1-0.1,0.2-0.2,0.4-0.2c0.2,0,0.3-0.1,0.5-0.1c0.2,0,0.4,0,0.6,0.1
					c0.2,0.1,0.3,0.1,0.4,0.2l-0.2,0.6c-0.1,0-0.2-0.1-0.3-0.1c-0.1,0-0.3-0.1-0.4-0.1c-0.2,0-0.3,0-0.4,0.1
					c-0.1,0.1-0.1,0.1-0.1,0.2c0,0.1,0,0.1,0,0.2c0,0,0.1,0.1,0.1,0.1c0.1,0,0.1,0.1,0.2,0.1c0.1,0,0.1,0.1,0.2,0.1
					c0.2,0.1,0.3,0.1,0.5,0.2c0.1,0.1,0.2,0.1,0.3,0.2c0.1,0.1,0.2,0.2,0.2,0.3c0,0.1,0.1,0.3,0.1,0.4c0,0.3-0.1,0.6-0.3,0.8
					c-0.2,0.2-0.6,0.3-1,0.3c-0.2,0-0.3,0-0.4,0c-0.1,0-0.2,0-0.3-0.1c-0.1,0-0.2-0.1-0.2-0.1c-0.1,0-0.1-0.1-0.2-0.1l0.2-0.6
					c0.1,0.1,0.2,0.1,0.4,0.2C317.7,492.8,317.8,492.8,318.1,492.8z"/>
				<path d="M321.2,493.4c-0.2,0-0.4,0-0.6,0c-0.2,0-0.4,0-0.6-0.1V490c0.2,0,0.3-0.1,0.5-0.1c0.2,0,0.4,0,0.5,0c0.2,0,0.4,0,0.6,0
					c0.2,0,0.3,0.1,0.5,0.2c0.1,0.1,0.2,0.2,0.3,0.3s0.1,0.3,0.1,0.5c0,0.3-0.1,0.5-0.4,0.7c0.2,0.1,0.4,0.2,0.4,0.3
					c0.1,0.1,0.1,0.3,0.1,0.5c0,0.4-0.1,0.6-0.4,0.8C322.1,493.3,321.7,493.4,321.2,493.4z M320.8,491.3h0.4c0.2,0,0.4,0,0.5-0.1
					s0.2-0.2,0.2-0.3c0-0.1-0.1-0.2-0.2-0.3c-0.1-0.1-0.3-0.1-0.5-0.1c-0.1,0-0.1,0-0.2,0c-0.1,0-0.1,0-0.2,0L320.8,491.3
					L320.8,491.3z M320.8,491.9v0.9c0.1,0,0.1,0,0.2,0c0.1,0,0.1,0,0.2,0c0.2,0,0.4,0,0.6-0.1c0.1-0.1,0.2-0.2,0.2-0.4
					c0-0.2-0.1-0.3-0.2-0.3s-0.3-0.1-0.5-0.1L320.8,491.9L320.8,491.9z"/>
			</g>
		</g>
		<line class="st7" x1="461.9" y1="414.7" x2="520" y2="414.7"/>
		<g>
			<polygon class="st2" points="470.6,412.7 470.6,416.6 464.2,417.6 453.2,417.6 453.2,411.7 464.2,411.7 			"/>
			<line class="st8" x1="464.2" y1="411.7" x2="464.2" y2="417.6"/>
			<line class="st8" x1="465.5" y1="411.9" x2="465.5" y2="417.4"/>
			<line class="st8" x1="466.8" y1="412.1" x2="466.7" y2="417.2"/>
			<line class="st8" x1="467.9" y1="412.3" x2="467.9" y2="417.1"/>
			<line class="st8" x1="468.9" y1="412.4" x2="468.9" y2="416.9"/>
			<line class="st8" x1="469.8" y1="412.5" x2="469.8" y2="416.8"/>
		</g>
		<line class="st5" x1="461.9" y1="384.9" x2="520" y2="384.9"/>
		<g>
			<polygon class="st9" points="461.2,381.2 461.2,388.6 456.9,389.6 451,389.6 451,380.2 457,380.2 			"/>
			<rect x="461.6" y="381.6" class="st10" width="9.3" height="6.6"/>
			<line class="st11" x1="462.4" y1="381" x2="462.4" y2="388.7"/>
			<line class="st11" x1="463.4" y1="381" x2="463.4" y2="388.7"/>
			<line class="st11" x1="464.4" y1="381" x2="464.4" y2="388.7"/>
			<line class="st11" x1="465.4" y1="381" x2="465.4" y2="388.7"/>
			<line class="st11" x1="466.4" y1="381" x2="466.4" y2="388.7"/>
			<line class="st11" x1="467.4" y1="381" x2="467.4" y2="388.7"/>
			<line class="st11" x1="468.4" y1="381" x2="468.4" y2="388.7"/>
			<line class="st11" x1="469.4" y1="381" x2="469.4" y2="388.7"/>
		</g>
		<line class="st12" x1="387.4" y1="522" x2="387.4" y2="470.6"/>
		<g>
			<polygon class="st13" points="384.1,476.9 381.1,468.9 393.6,468.9 390.6,476.9 			"/>
			<polygon class="st14" points="380.1,455.5 394.6,455.5 394.6,466.9 393.6,468.9 381.1,468.9 380.1,466.9 			"/>
			<path class="st15" d="M380.1,467"/>
			<line class="st16" x1="393.6" y1="470.4" x2="381.1" y2="470.4"/>
			<line class="st16" x1="392.9" y1="471.9" x2="381.9" y2="471.9"/>
			<line class="st16" x1="392.1" y1="473.4" x2="382.6" y2="473.4"/>
			<line class="st16" x1="391.6" y1="474.9" x2="383.1" y2="474.9"/>
			<rect x="383.8" y="476" class="st17" width="7.2" height="3.5"/>
		</g>
		<g>
			<line class="st12" x1="69.4" y1="522" x2="69.4" y2="470.6"/>
		</g>
		<g>
			<polygon class="st14" points="66.1,477 63.1,469.1 75.6,469.1 72.6,477 			"/>
			<polygon class="st14" points="62.1,455.6 76.6,455.6 76.6,467 75.6,469.1 63.1,469.1 62.1,467 			"/>
			<path class="st14" d="M62.1,467.2"/>
			<line class="st14" x1="75.6" y1="470.5" x2="63.1" y2="470.5"/>
			<line class="st14" x1="74.9" y1="472" x2="63.9" y2="472"/>
			<line class="st14" x1="74.1" y1="473.5" x2="64.6" y2="473.5"/>
			<line class="st14" x1="73.6" y1="475" x2="65.1" y2="475"/>
			<rect x="65.8" y="476.2" class="st14" width="7.2" height="3.5"/>
		</g>
		<line class="st4" x1="279" y1="322" x2="279" y2="285.6"/>
		<g>
			<polygon class="st2" points="277.5,313.2 276.1,321.2 281.9,321.2 280.5,313.2 			"/>
			<polygon class="st2" points="275.6,334.6 282.4,334.6 282.4,323.2 281.9,321.2 276.1,321.2 275.6,323.2 			"/>
			<path class="st2" d="M275.6,323.1"/>
			<line class="st2" x1="281.9" y1="319.7" x2="276.1" y2="319.7"/>
			<line class="st2" x1="281.6" y1="318.2" x2="276.4" y2="318.2"/>
			<line class="st2" x1="281.2" y1="316.7" x2="276.8" y2="316.7"/>
			<line class="st2" x1="281" y1="315.2" x2="277" y2="315.2"/>
			<rect x="277.3" y="310.5" class="st2" width="3.3" height="3.5"/>
		</g>
		<line class="st1" x1="61.4" y1="322" x2="61.4" y2="270.6"/>
		<g>
			<polygon class="st2" points="59.9,312.7 58.5,320.6 64.3,320.6 62.9,312.7 			"/>
			<polygon class="st2" points="58,334.1 64.8,334.1 64.8,322.7 64.3,320.6 58.5,320.6 58,322.7 			"/>
			<path class="st2" d="M58,322.6"/>
			<line class="st2" x1="64.3" y1="319.2" x2="58.5" y2="319.2"/>
			<line class="st2" x1="63.9" y1="317.7" x2="58.8" y2="317.7"/>
			<line class="st2" x1="63.6" y1="316.2" x2="59.2" y2="316.2"/>
			<line class="st2" x1="63.4" y1="314.7" x2="59.4" y2="314.7"/>
			<rect x="59.7" y="310" class="st2" width="3.3" height="3.5"/>
		</g>
		<polygon class="st3" points="217.5,479.3 200.1,479.3 202.1,460.1 215.5,460.1 		"/>
		<g>
			<g>
				<g>
					<path class="st18" d="M208.8,494.6c-3.7,0-7.4-1.4-10.3-4.2l1.4-1.4c4.9,4.9,12.8,4.9,17.7,0l1.4,1.4
						C216.3,493.2,212.5,494.6,208.8,494.6z"/>
					<path class="st18" d="M208.8,491.1c-2.8,0-5.6-1.1-7.8-3.2l1.4-1.4c3.5,3.5,9.2,3.5,12.7,0l1.4,1.4
						C214.5,490,211.6,491.1,208.8,491.1z"/>
					<path class="st18" d="M208.8,487.2c-1.8,0-3.5-0.7-4.8-2l1.4-1.4c0.9,0.9,2.1,1.4,3.4,1.4s2.5-0.5,3.4-1.4l1.4,1.4
						C212.4,486.5,210.7,487.2,208.8,487.2z"/>
				</g>
			</g>
		</g>
		<rect x="36.4" y="340.9" class="st3" width="87.5" height="112.1"/>
		<g>
			<g>
				<g>
					<path class="st19" d="M79.8,387.7"/>
				</g>
				<g>
					<path class="st19" d="M79.8,387.7"/>
				</g>
				<g>
					<path class="st19" d="M79.8,387.7"/>
				</g>
				<g>
					<path class="st19" d="M79.8,387.7"/>
				</g>
			</g>
			<polyline class="st13" points="105.5,402.5 92.6,410.2 79.8,417.9 79.8,402.5 79.8,387 			"/>
			<polyline class="st20" points="105.5,402.5 105.5,387 105.5,371.6 92.7,379.3 79.8,387 			"/>
			<polyline class="st21" points="79.8,356.1 66.9,363.9 54,371.6 66.9,379.3 79.8,387 			"/>
			<polyline class="st22" points="79.8,356.1 92.6,363.9 105.5,371.6 92.6,379.3 79.8,387 			"/>
			<polyline class="st10" points="54,402.5 66.9,410.2 79.8,417.9 79.8,402.5 79.8,387 			"/>
			<polyline class="st23" points="54,402.5 54,387 54,371.6 66.9,379.3 79.8,387 			"/>
			<g>
				<g>
					<g>
						<line class="st24" x1="79.8" y1="356.1" x2="79.8" y2="356.9"/>
						<line class="st25" x1="79.8" y1="358.3" x2="79.8" y2="385.6"/>
						<line class="st24" x1="79.8" y1="386.3" x2="79.8" y2="387"/>
					</g>
				</g>
				<g>
					<g>
						<line class="st24" x1="79.8" y1="387" x2="80.4" y2="387.4"/>
						<line class="st26" x1="81.7" y1="388.2" x2="104.3" y2="401.7"/>
						<line class="st24" x1="104.9" y1="402.1" x2="105.5" y2="402.5"/>
					</g>
				</g>
				<g>
					<g>
						<line class="st24" x1="79.8" y1="387" x2="79.1" y2="387.4"/>
						<line class="st26" x1="77.9" y1="388.2" x2="55.3" y2="401.7"/>
						<line class="st24" x1="54.6" y1="402.1" x2="54" y2="402.5"/>
					</g>
				</g>
			</g>
			<g>
				<line class="st24" x1="79.8" y1="417.9" x2="79.8" y2="387"/>
				<line class="st24" x1="79.8" y1="387" x2="105.5" y2="371.6"/>
				<line class="st24" x1="79.8" y1="387" x2="54" y2="371.6"/>
			</g>
		</g>
		<rect x="41.4" y="456" class="st3" width="77.1" height="6.3"/>
		<rect x="41.4" y="331.7" class="st3" width="77.1" height="6.3"/>
		<rect x="34.7" y="335.7" width="90.7" height="5.4"/>
		<rect x="34.7" y="452.8" width="90.7" height="5.4"/>
		<g>
			<path d="M72.6,424.3h2v8.9h-2v-3.8h-3.4v3.8h-2v-8.9h2v3.4h3.4V424.3z"/>
			<path d="M80.1,433.4c-0.6,0-1.2-0.1-1.6-0.3c-0.5-0.2-0.8-0.4-1.1-0.7c-0.3-0.3-0.5-0.7-0.7-1.1c-0.1-0.4-0.2-0.9-0.2-1.4v-5.5h2
				v5.4c0,0.4,0,0.7,0.1,0.9c0.1,0.3,0.2,0.5,0.3,0.6c0.1,0.2,0.3,0.3,0.5,0.3c0.2,0.1,0.4,0.1,0.7,0.1c0.5,0,0.9-0.2,1.2-0.5
				s0.5-0.8,0.5-1.5v-5.4h2v5.5c0,0.5-0.1,1-0.2,1.4c-0.1,0.4-0.4,0.8-0.7,1.1c-0.3,0.3-0.7,0.6-1.1,0.7
				C81.3,433.3,80.8,433.4,80.1,433.4z"/>
			<path d="M88.7,433.3c-0.5,0-1,0-1.5,0c-0.5,0-1-0.1-1.5-0.2v-8.6c0.4-0.1,0.9-0.1,1.3-0.2c0.5,0,0.9-0.1,1.4-0.1
				c0.6,0,1.1,0,1.6,0.1c0.5,0.1,0.9,0.2,1.2,0.4c0.3,0.2,0.6,0.5,0.8,0.8s0.3,0.7,0.3,1.2c0,0.7-0.3,1.3-1,1.7
				c0.6,0.2,1,0.5,1.2,0.9c0.2,0.4,0.3,0.8,0.3,1.2c0,0.9-0.3,1.6-1,2.1C91.1,433.1,90.1,433.3,88.7,433.3z M87.7,427.8h1
				c0.6,0,1.1-0.1,1.3-0.2c0.3-0.2,0.4-0.4,0.4-0.8c0-0.4-0.1-0.6-0.4-0.8c-0.3-0.1-0.7-0.2-1.2-0.2c-0.2,0-0.4,0-0.6,0
				s-0.4,0-0.5,0C87.7,425.9,87.7,427.8,87.7,427.8z M87.7,429.3v2.3c0.1,0,0.3,0,0.5,0c0.2,0,0.4,0,0.6,0c0.6,0,1.1-0.1,1.5-0.3
				c0.4-0.2,0.6-0.5,0.6-1c0-0.4-0.2-0.7-0.5-0.9c-0.3-0.2-0.8-0.3-1.3-0.3H87.7z"/>
		</g>
		<rect x="39" y="387" width="3.2" height="17.2"/>
		<rect x="118.3" y="387" width="3.2" height="17.2"/>
		<rect x="146.4" y="340.9" class="st3" width="87.5" height="112.1"/>
		<g>
			<g>
				<g>
					<path class="st19" d="M189.8,387.7"/>
				</g>
				<g>
					<path class="st19" d="M189.8,387.7"/>
				</g>
				<g>
					<path class="st19" d="M189.8,387.7"/>
				</g>
				<g>
					<path class="st19" d="M189.8,387.7"/>
				</g>
			</g>
			<polyline class="st13" points="215.5,402.5 202.6,410.2 189.8,417.9 189.8,402.5 189.8,387 			"/>
			<polyline class="st20" points="215.5,402.5 215.5,387 215.5,371.6 202.7,379.3 189.8,387 			"/>
			<polyline class="st21" points="189.8,356.1 176.9,363.9 164,371.6 176.9,379.3 189.8,387 			"/>
			<polyline class="st22" points="189.8,356.1 202.6,363.9 215.5,371.6 202.6,379.3 189.8,387 			"/>
			<polyline class="st10" points="164,402.5 176.9,410.2 189.8,417.9 189.8,402.5 189.8,387 			"/>
			<polyline class="st23" points="164,402.5 164,387 164,371.6 176.9,379.3 189.8,387 			"/>
			<g>
				<g>
					<g>
						<line class="st24" x1="189.8" y1="356.1" x2="189.8" y2="356.9"/>
						<line class="st25" x1="189.8" y1="358.3" x2="189.8" y2="385.6"/>
						<line class="st24" x1="189.8" y1="386.3" x2="189.8" y2="387"/>
					</g>
				</g>
				<g>
					<g>
						<line class="st24" x1="189.8" y1="387" x2="190.4" y2="387.4"/>
						<line class="st26" x1="191.7" y1="388.2" x2="214.3" y2="401.7"/>
						<line class="st24" x1="214.9" y1="402.1" x2="215.5" y2="402.5"/>
					</g>
				</g>
				<g>
					<g>
						<line class="st24" x1="189.8" y1="387" x2="189.1" y2="387.4"/>
						<line class="st26" x1="187.9" y1="388.2" x2="165.3" y2="401.7"/>
						<line class="st24" x1="164.6" y1="402.1" x2="164" y2="402.5"/>
					</g>
				</g>
			</g>
			<g>
				<line class="st24" x1="189.8" y1="417.9" x2="189.8" y2="387"/>
				<line class="st24" x1="189.8" y1="387" x2="215.5" y2="371.6"/>
				<line class="st24" x1="189.8" y1="387" x2="164" y2="371.6"/>
			</g>
		</g>
		<rect x="151.4" y="456" class="st3" width="77.1" height="6.3"/>
		<rect x="151.4" y="331.7" class="st3" width="77.1" height="6.3"/>
		<rect x="144.7" y="335.8" width="90.7" height="5"/>
		<rect x="144.7" y="453" width="90.7" height="5"/>
		<g>
			<path d="M182.6,424.3h2v8.9h-2v-3.8h-3.4v3.8h-2v-8.9h2v3.4h3.4V424.3z"/>
			<path d="M190.1,433.4c-0.6,0-1.2-0.1-1.6-0.3c-0.5-0.2-0.8-0.4-1.1-0.7c-0.3-0.3-0.5-0.7-0.7-1.1c-0.1-0.4-0.2-0.9-0.2-1.4v-5.5
				h2v5.4c0,0.4,0,0.7,0.1,0.9c0.1,0.3,0.2,0.5,0.3,0.6c0.1,0.2,0.3,0.3,0.5,0.3c0.2,0.1,0.4,0.1,0.7,0.1c0.5,0,0.9-0.2,1.2-0.5
				s0.5-0.8,0.5-1.5v-5.4h2v5.5c0,0.5-0.1,1-0.2,1.4c-0.1,0.4-0.4,0.8-0.7,1.1c-0.3,0.3-0.7,0.6-1.1,0.7
				C191.3,433.3,190.8,433.4,190.1,433.4z"/>
			<path d="M198.7,433.3c-0.5,0-1,0-1.5,0c-0.5,0-1-0.1-1.5-0.2v-8.6c0.4-0.1,0.9-0.1,1.4-0.2c0.5,0,0.9-0.1,1.4-0.1
				c0.6,0,1.1,0,1.6,0.1c0.5,0.1,0.9,0.2,1.2,0.4c0.3,0.2,0.6,0.5,0.8,0.8s0.3,0.7,0.3,1.2c0,0.7-0.3,1.3-1,1.7
				c0.6,0.2,1,0.5,1.2,0.9c0.2,0.4,0.3,0.8,0.3,1.2c0,0.9-0.3,1.6-1,2.1C201.1,433.1,200.1,433.3,198.7,433.3z M197.7,427.8h1
				c0.6,0,1.1-0.1,1.3-0.2c0.3-0.2,0.4-0.4,0.4-0.8c0-0.4-0.1-0.6-0.4-0.8c-0.3-0.1-0.7-0.2-1.2-0.2c-0.2,0-0.4,0-0.6,0
				c-0.2,0-0.4,0-0.5,0L197.7,427.8L197.7,427.8z M197.7,429.3v2.3c0.1,0,0.3,0,0.5,0c0.2,0,0.4,0,0.6,0c0.6,0,1.1-0.1,1.5-0.3
				c0.4-0.2,0.6-0.5,0.6-1c0-0.4-0.2-0.7-0.5-0.9c-0.3-0.2-0.8-0.3-1.3-0.3H197.7z"/>
		</g>
		<rect x="149" y="387" width="3.2" height="17.2"/>
		<rect x="228.3" y="387" width="3.2" height="17.2"/>
		<rect x="256.4" y="340.9" class="st3" width="87.5" height="112.1"/>
		<g>
			<g>
				<g>
					<path class="st19" d="M299.8,387.7"/>
				</g>
				<g>
					<path class="st19" d="M299.8,387.7"/>
				</g>
				<g>
					<path class="st19" d="M299.8,387.7"/>
				</g>
				<g>
					<path class="st19" d="M299.8,387.7"/>
				</g>
			</g>
			<polyline class="st13" points="325.5,402.5 312.6,410.2 299.8,417.9 299.8,402.5 299.8,387 			"/>
			<polyline class="st20" points="325.5,402.5 325.5,387 325.5,371.6 312.7,379.3 299.8,387 			"/>
			<polyline class="st21" points="299.8,356.1 286.9,363.9 274,371.6 286.9,379.3 299.8,387 			"/>
			<polyline class="st22" points="299.8,356.1 312.6,363.9 325.5,371.6 312.6,379.3 299.8,387 			"/>
			<polyline class="st10" points="274,402.5 286.9,410.2 299.8,417.9 299.8,402.5 299.8,387 			"/>
			<polyline class="st23" points="274,402.5 274,387 274,371.6 286.9,379.3 299.8,387 			"/>
			<g>
				<g>
					<g>
						<line class="st24" x1="299.8" y1="356.1" x2="299.8" y2="356.9"/>
						<line class="st25" x1="299.8" y1="358.3" x2="299.8" y2="385.6"/>
						<line class="st24" x1="299.8" y1="386.3" x2="299.8" y2="387"/>
					</g>
				</g>
				<g>
					<g>
						<line class="st24" x1="299.8" y1="387" x2="300.4" y2="387.4"/>
						<line class="st26" x1="301.7" y1="388.2" x2="324.3" y2="401.7"/>
						<line class="st24" x1="324.9" y1="402.1" x2="325.5" y2="402.5"/>
					</g>
				</g>
				<g>
					<g>
						<line class="st24" x1="299.8" y1="387" x2="299.1" y2="387.4"/>
						<line class="st26" x1="297.9" y1="388.2" x2="275.3" y2="401.7"/>
						<line class="st24" x1="274.6" y1="402.1" x2="274" y2="402.5"/>
					</g>
				</g>
			</g>
			<g>
				<line class="st24" x1="299.8" y1="417.9" x2="299.8" y2="387"/>
				<line class="st24" x1="299.8" y1="387" x2="325.5" y2="371.6"/>
				<line class="st24" x1="299.8" y1="387" x2="274" y2="371.6"/>
			</g>
		</g>
		<rect x="261.4" y="456" class="st3" width="77.1" height="6.3"/>
		<rect x="261.4" y="331.7" class="st3" width="77.1" height="6.3"/>
		<rect x="254.7" y="335.8" width="90.7" height="5"/>
		<rect x="254.7" y="453" width="90.7" height="5"/>
		<g>
			<path d="M292.6,424.3h2v8.9h-2v-3.8h-3.4v3.8h-2v-8.9h2v3.4h3.4V424.3z"/>
			<path d="M300.1,433.4c-0.6,0-1.2-0.1-1.6-0.3c-0.5-0.2-0.8-0.4-1.1-0.7s-0.5-0.7-0.7-1.1c-0.1-0.4-0.2-0.9-0.2-1.4v-5.5h2v5.4
				c0,0.4,0,0.7,0.1,0.9c0.1,0.3,0.2,0.5,0.3,0.6c0.1,0.2,0.3,0.3,0.5,0.3c0.2,0.1,0.4,0.1,0.7,0.1c0.5,0,0.9-0.2,1.2-0.5
				s0.5-0.8,0.5-1.5v-5.4h2v5.5c0,0.5-0.1,1-0.2,1.4c-0.1,0.4-0.4,0.8-0.7,1.1s-0.7,0.6-1.1,0.7
				C301.3,433.3,300.8,433.4,300.1,433.4z"/>
			<path d="M308.7,433.3c-0.5,0-1,0-1.5,0c-0.5,0-1-0.1-1.5-0.2v-8.6c0.4-0.1,0.9-0.1,1.4-0.2c0.5,0,0.9-0.1,1.4-0.1
				c0.6,0,1.1,0,1.6,0.1c0.5,0.1,0.9,0.2,1.2,0.4c0.3,0.2,0.6,0.5,0.8,0.8c0.2,0.3,0.3,0.7,0.3,1.2c0,0.7-0.3,1.3-1,1.7
				c0.6,0.2,1,0.5,1.2,0.9c0.2,0.4,0.3,0.8,0.3,1.2c0,0.9-0.3,1.6-1,2.1C311.1,433.1,310.1,433.3,308.7,433.3z M307.7,427.8h1
				c0.6,0,1.1-0.1,1.3-0.2c0.3-0.2,0.4-0.4,0.4-0.8c0-0.4-0.1-0.6-0.4-0.8c-0.3-0.1-0.7-0.2-1.2-0.2c-0.2,0-0.4,0-0.6,0
				c-0.2,0-0.4,0-0.5,0L307.7,427.8L307.7,427.8z M307.7,429.3v2.3c0.1,0,0.3,0,0.5,0c0.2,0,0.4,0,0.6,0c0.6,0,1.1-0.1,1.5-0.3
				c0.4-0.2,0.6-0.5,0.6-1c0-0.4-0.2-0.7-0.5-0.9c-0.3-0.2-0.8-0.3-1.3-0.3H307.7z"/>
		</g>
		<rect x="259" y="387" width="3.2" height="17.2"/>
		<rect x="338.3" y="387" width="3.2" height="17.2"/>
		<rect x="366.4" y="340.9" class="st3" width="87.5" height="112.1"/>
		<g>
			<g>
				<g>
					<path class="st19" d="M409.8,387.7"/>
				</g>
				<g>
					<path class="st19" d="M409.8,387.7"/>
				</g>
				<g>
					<path class="st19" d="M409.8,387.7"/>
				</g>
				<g>
					<path class="st19" d="M409.8,387.7"/>
				</g>
			</g>
			<polyline class="st13" points="435.5,402.5 422.6,410.2 409.8,417.9 409.8,402.5 409.8,387 			"/>
			<polyline class="st20" points="435.5,402.5 435.5,387 435.5,371.6 422.7,379.3 409.8,387 			"/>
			<polyline class="st21" points="409.8,356.1 396.9,363.9 384,371.6 396.9,379.3 409.8,387 			"/>
			<polyline class="st22" points="409.8,356.1 422.6,363.9 435.5,371.6 422.6,379.3 409.8,387 			"/>
			<polyline class="st10" points="384,402.5 396.9,410.2 409.8,417.9 409.8,402.5 409.8,387 			"/>
			<polyline class="st23" points="384,402.5 384,387 384,371.6 396.9,379.3 409.8,387 			"/>
			<g>
				<g>
					<g>
						<line class="st24" x1="409.8" y1="356.1" x2="409.8" y2="356.9"/>
						<line class="st25" x1="409.8" y1="358.3" x2="409.8" y2="385.6"/>
						<line class="st24" x1="409.8" y1="386.3" x2="409.8" y2="387"/>
					</g>
				</g>
				<g>
					<g>
						<line class="st24" x1="409.8" y1="387" x2="410.4" y2="387.4"/>
						<line class="st26" x1="411.7" y1="388.2" x2="434.3" y2="401.7"/>
						<line class="st24" x1="434.9" y1="402.1" x2="435.5" y2="402.5"/>
					</g>
				</g>
				<g>
					<g>
						<line class="st24" x1="409.8" y1="387" x2="409.1" y2="387.4"/>
						<line class="st26" x1="407.9" y1="388.2" x2="385.3" y2="401.7"/>
						<line class="st24" x1="384.6" y1="402.1" x2="384" y2="402.5"/>
					</g>
				</g>
			</g>
			<g>
				<line class="st24" x1="409.8" y1="417.9" x2="409.8" y2="387"/>
				<line class="st24" x1="409.8" y1="387" x2="435.5" y2="371.6"/>
				<line class="st24" x1="409.8" y1="387" x2="384" y2="371.6"/>
			</g>
		</g>
		<rect x="371.4" y="456" class="st3" width="77.1" height="6.3"/>
		<rect x="371.4" y="331.7" class="st3" width="77.1" height="6.3"/>
		<rect x="364.7" y="335.8" width="90.7" height="5"/>
		<rect x="364.7" y="453" width="90.7" height="5"/>
		<g>
			<path d="M402.6,424.3h2v8.9h-2v-3.8h-3.4v3.8h-2v-8.9h2v3.4h3.4V424.3z"/>
			<path d="M410.1,433.4c-0.6,0-1.2-0.1-1.6-0.3c-0.5-0.2-0.8-0.4-1.1-0.7s-0.5-0.7-0.7-1.1c-0.1-0.4-0.2-0.9-0.2-1.4v-5.5h2v5.4
				c0,0.4,0,0.7,0.1,0.9c0.1,0.3,0.2,0.5,0.3,0.6c0.1,0.2,0.3,0.3,0.5,0.3c0.2,0.1,0.4,0.1,0.7,0.1c0.5,0,0.9-0.2,1.2-0.5
				s0.5-0.8,0.5-1.5v-5.4h2v5.5c0,0.5-0.1,1-0.2,1.4c-0.1,0.4-0.4,0.8-0.7,1.1s-0.7,0.6-1.1,0.7
				C411.3,433.3,410.8,433.4,410.1,433.4z"/>
			<path d="M418.7,433.3c-0.5,0-1,0-1.5,0c-0.5,0-1-0.1-1.5-0.2v-8.6c0.4-0.1,0.9-0.1,1.4-0.2c0.5,0,0.9-0.1,1.4-0.1
				c0.6,0,1.1,0,1.6,0.1c0.5,0.1,0.9,0.2,1.2,0.4c0.3,0.2,0.6,0.5,0.8,0.8c0.2,0.3,0.3,0.7,0.3,1.2c0,0.7-0.3,1.3-1,1.7
				c0.6,0.2,1,0.5,1.2,0.9c0.2,0.4,0.3,0.8,0.3,1.2c0,0.9-0.3,1.6-1,2.1C421.1,433.1,420.1,433.3,418.7,433.3z M417.7,427.8h1
				c0.6,0,1.1-0.1,1.3-0.2c0.3-0.2,0.4-0.4,0.4-0.8c0-0.4-0.1-0.6-0.4-0.8c-0.3-0.1-0.7-0.2-1.2-0.2c-0.2,0-0.4,0-0.6,0
				c-0.2,0-0.4,0-0.5,0L417.7,427.8L417.7,427.8z M417.7,429.3v2.3c0.1,0,0.3,0,0.5,0c0.2,0,0.4,0,0.6,0c0.6,0,1.1-0.1,1.5-0.3
				c0.4-0.2,0.6-0.5,0.6-1c0-0.4-0.2-0.7-0.5-0.9c-0.3-0.2-0.8-0.3-1.3-0.3H417.7z"/>
		</g>
		<rect x="369" y="387" width="3.2" height="17.2"/>
		<rect x="448.3" y="387" width="3.2" height="17.2"/>
		<g>
			<path d="M205.5,472.2c0,0.1,0.1,0.3,0.1,0.5c0,0.2,0.1,0.4,0.2,0.5c0.1,0.2,0.1,0.4,0.2,0.5c0.1,0.2,0.1,0.4,0.2,0.5
				c0-0.2,0.1-0.4,0.1-0.6c0-0.2,0.1-0.4,0.1-0.6c0-0.2,0.1-0.4,0.1-0.6c0-0.2,0.1-0.4,0.1-0.6h0.8c-0.1,0.6-0.3,1.2-0.4,1.8
				s-0.3,1.2-0.5,1.7h-0.7c-0.1-0.3-0.2-0.7-0.3-1c-0.1-0.4-0.2-0.7-0.3-1.1c-0.1,0.4-0.2,0.7-0.3,1.1c-0.1,0.4-0.2,0.7-0.3,1h-0.7
				c-0.2-0.5-0.3-1.1-0.5-1.7c-0.2-0.6-0.3-1.2-0.4-1.8h0.8c0,0.2,0.1,0.4,0.1,0.6c0,0.2,0.1,0.4,0.1,0.6c0,0.2,0.1,0.4,0.1,0.6
				c0,0.2,0.1,0.4,0.1,0.6c0.1-0.2,0.1-0.3,0.2-0.5c0.1-0.2,0.1-0.4,0.2-0.6c0.1-0.2,0.1-0.4,0.1-0.5c0-0.2,0.1-0.3,0.1-0.5H205.5z"
				/>
			<path d="M208.7,471.9c0,0.1,0,0.2-0.1,0.3s-0.2,0.1-0.3,0.1c-0.1,0-0.2,0-0.3-0.1s-0.1-0.2-0.1-0.3c0-0.1,0-0.2,0.1-0.3
				c0.1-0.1,0.2-0.1,0.3-0.1c0.1,0,0.2,0,0.3,0.1C208.7,471.7,208.7,471.8,208.7,471.9z M208.6,475.3h-0.7v-2.6h0.7V475.3z"/>
			<path d="M209.1,473.5h1.4v0.7h-1.4V473.5z"/>
			<path d="M211.1,475.3v-3.5h2.3v0.7h-1.5v0.7h1.4v0.7h-1.4v1.4H211.1z"/>
			<path d="M214.7,471.9c0,0.1,0,0.2-0.1,0.3s-0.2,0.1-0.3,0.1c-0.1,0-0.2,0-0.3-0.1s-0.1-0.2-0.1-0.3c0-0.1,0-0.2,0.1-0.3
				c0.1-0.1,0.2-0.1,0.3-0.1c0.1,0,0.2,0,0.3,0.1C214.7,471.7,214.7,471.8,214.7,471.9z M214.6,475.3h-0.7v-2.6h0.7V475.3z"/>
		</g>
		<line class="st27" x1="220" y1="285.6" x2="169" y2="285.6"/>
		<line class="st27" x1="279" y1="285.6" x2="270" y2="285.6"/>
		<rect x="220" y="276.6" class="st28" width="50" height="18"/>
		<g>
			<line class="st29" x1="223.3" y1="285.6" x2="233.9" y2="285.6"/>
			<line class="st29" x1="228.6" y1="291" x2="228.6" y2="280.3"/>
		</g>
		<line class="st29" x1="256.3" y1="285.6" x2="266.9" y2="285.6"/>
	</g>
</g>
</svg>
