<?xml version="1.0" encoding="utf-8"?>
<!-- Generator: Adobe Illustrator 16.0.0, SVG Export Plug-In . SVG Version: 6.00 Build 0)  -->
<!DOCTYPE svg PUBLIC "-//W3C//DTD SVG 1.1//EN" "http://www.w3.org/Graphics/SVG/1.1/DTD/svg11.dtd">
<svg version="1.1" id="Layer_1" xmlns="http://www.w3.org/2000/svg" xmlns:xlink="http://www.w3.org/1999/xlink" x="0px" y="0px"
	 width="595.275px" height="297.638px" viewBox="0 0 595.275 297.638" enable-background="new 0 0 595.275 297.638"
	 xml:space="preserve">
<g>
	<rect fill="#FFCE09" width="119.055" height="297.638"/>
	<g>
		
			<rect x="20.418" y="121.1" fill="#FFFFFF" stroke="#FFCE0C" stroke-width="3" stroke-miterlimit="10" width="79.219" height="48.97"/>
		<g>
			<rect x="26.426" y="135.714" fill="none" width="67.205" height="18.42"/>
			<path fill="#FFCE0C" d="M40.938,137.591h3.528v15.675h-3.528v-6.65h-5.926v6.65h-3.529v-15.675h3.529v5.994h5.926V137.591z"/>
			<path fill="#FFCE0C" d="M61.816,145.417c0,1.357-0.211,2.542-0.633,3.552c-0.422,1.011-1.021,1.848-1.798,2.511
				s-1.723,1.161-2.839,1.492c-1.116,0.332-2.367,0.498-3.755,0.498c-0.633,0-1.372-0.026-2.216-0.079
				c-0.845-0.054-1.674-0.162-2.489-0.327v-15.268c0.814-0.151,1.663-0.253,2.544-0.306c0.882-0.053,1.64-0.079,2.273-0.079
				c1.343,0,2.56,0.15,3.653,0.452c1.093,0.301,2.031,0.777,2.816,1.425c0.784,0.648,1.387,1.479,1.81,2.488
				C61.604,142.787,61.816,144,61.816,145.417z M51.614,150.394c0.166,0.015,0.358,0.026,0.577,0.033
				c0.218,0.008,0.478,0.013,0.781,0.013c1.764,0,3.072-0.445,3.924-1.335s1.277-2.119,1.277-3.688c0-1.644-0.407-2.887-1.221-3.732
				c-0.814-0.844-2.104-1.267-3.869-1.267c-0.241,0-0.49,0.004-0.746,0.012c-0.257,0.009-0.498,0.026-0.724,0.057L51.614,150.394
				L51.614,150.394z"/>
			<path fill="#FFCE0C" d="M68.917,137.591c0.272,0.498,0.585,1.112,0.941,1.844c0.355,0.731,0.726,1.523,1.111,2.375
				s0.767,1.723,1.145,2.612c0.378,0.89,0.733,1.727,1.067,2.51c0.333-0.783,0.688-1.62,1.065-2.51s0.76-1.761,1.145-2.612
				c0.386-0.852,0.756-1.644,1.112-2.375c0.355-0.731,0.669-1.347,0.94-1.844h3.212c0.15,1.041,0.291,2.205,0.419,3.495
				c0.128,1.289,0.241,2.631,0.339,4.025c0.098,1.396,0.188,2.794,0.271,4.196c0.083,1.401,0.154,2.722,0.215,3.958h-3.438
				c-0.044-1.523-0.105-3.182-0.181-4.977c-0.076-1.795-0.188-3.604-0.339-5.429c-0.272,0.634-0.575,1.335-0.908,2.104
				c-0.333,0.77-0.662,1.538-0.988,2.307c-0.324,0.77-0.638,1.505-0.941,2.205c-0.302,0.701-0.56,1.301-0.771,1.798h-2.465
				c-0.212-0.497-0.469-1.097-0.771-1.798c-0.303-0.701-0.617-1.436-0.942-2.205c-0.325-0.769-0.654-1.537-0.987-2.307
				c-0.333-0.769-0.635-1.47-0.908-2.104c-0.151,1.825-0.265,3.634-0.34,5.429s-0.136,3.453-0.181,4.977h-3.438
				c0.06-1.236,0.131-2.557,0.215-3.958c0.083-1.402,0.173-2.801,0.271-4.196c0.097-1.395,0.211-2.737,0.339-4.025
				c0.128-1.29,0.267-2.455,0.418-3.495H68.917z"/>
			<path fill="#FFCE0C" d="M85.044,137.591h3.529v15.675h-3.529V137.591z"/>
		</g>
		
			<line fill="none" stroke="#FFFFFF" stroke-width="4.2679" stroke-miterlimit="10" x1="60.028" y1="170.07" x2="60.028" y2="174.602"/>
		
			<line fill="none" stroke="#FFFFFF" stroke-width="4.1803" stroke-miterlimit="10" x1="97.888" y1="176.538" x2="21.888" y2="176.538"/>
	</g>
</g>
<g>
	<rect x="119.055" fill="#6EC498" width="119.055" height="297.638"/>
	<g>
		
			<rect x="148.861" y="100.152" fill="#FFFFFF" stroke="#6FC498" stroke-width="5" stroke-miterlimit="10" width="61.333" height="97.333"/>
		<circle fill="#FFFFFF" stroke="#6FC498" stroke-width="5" stroke-miterlimit="10" cx="179.527" cy="131.21" r="21.86"/>
		<circle fill="#FFFFFF" stroke="#6FC498" stroke-width="5" stroke-miterlimit="10" cx="179.527" cy="131.21" r="10.256"/>
		<circle fill="#FFFFFF" stroke="#6FC498" stroke-width="5" stroke-miterlimit="10" cx="179.527" cy="177.21" r="10.256"/>
	</g>
</g>
<g>
	<rect x="357.166" fill="#996699" width="119.055" height="297.638"/>
	<g>
		<g>
			<polygon fill="#FFFFFF" stroke="#996699" stroke-width="3" stroke-miterlimit="10" points="439.296,154.941 374.064,173.672 
				374.064,142.696 439.296,123.965 			"/>
			
				<line fill="#FFFFFF" stroke="#FFFFFF" stroke-width="3" stroke-miterlimit="10" x1="436.296" y1="152.941" x2="436.296" y2="171.672"/>
			<polygon fill="#FFFFFF" stroke="#996699" stroke-width="3" stroke-miterlimit="10" points="454.545,150.028 439.296,142.696 
				439.296,134.779 454.545,127.445 			"/>
		</g>
		
			<line fill="#FFFFFF" stroke="#996699" stroke-width="3" stroke-miterlimit="10" x1="378.512" y1="161.458" x2="401.385" y2="154.946"/>
		
			<line fill="#FFFFFF" stroke="#996699" stroke-width="3" stroke-miterlimit="10" x1="378.512" y1="166.542" x2="401.385" y2="160.029"/>
		
			<line fill="#FFFFFF" stroke="#996699" stroke-width="3" stroke-miterlimit="10" x1="378.512" y1="156.375" x2="401.385" y2="149.863"/>
	</g>
</g>
<g>
	<rect x="476.221" fill="#EE3968" width="119.055" height="297.638"/>
	<g>
		<g>
			
				<rect x="497.846" y="148.447" fill="#FFFFFF" stroke="#EF3A67" stroke-width="3" stroke-miterlimit="10" width="84.667" height="26.928"/>
			<g>
				
					<rect x="512.847" y="122.263" fill="#FFFFFF" stroke="#EF3A67" stroke-width="3" stroke-miterlimit="10" width="54.666" height="26.184"/>
				
					<line fill="#FFFFFF" stroke="#EF3A67" stroke-width="3" stroke-miterlimit="10" x1="520.513" y1="129.263" x2="559.847" y2="129.263"/>
				
					<line fill="#FFFFFF" stroke="#EF3A67" stroke-width="3" stroke-miterlimit="10" x1="520.513" y1="135.263" x2="559.847" y2="135.263"/>
				
					<line fill="#FFFFFF" stroke="#EF3A67" stroke-width="3" stroke-miterlimit="10" x1="520.513" y1="141.263" x2="559.847" y2="141.263"/>
			</g>
		</g>
		<rect x="501.888" y="152.765" fill="#EF3A67" width="4.133" height="3.093"/>
	</g>
</g>
<g>
	<rect x="238.11" fill="#3399CC" width="119.055" height="297.638"/>
	<g>
		<g>
			
				<rect x="264.42" y="110.29" fill="#FFFFFF" stroke="#3398CC" stroke-width="5" stroke-miterlimit="10" width="61.333" height="77.059"/>
			<circle fill="#FFFFFF" stroke="#3398CC" stroke-width="5" stroke-miterlimit="10" cx="295.086" cy="144.152" r="21.86"/>
		</g>
		<g>
			<polygon fill="#3398CC" stroke="#FFFFFF" stroke-width="2" stroke-miterlimit="10" points="290.537,172.821 301,155.483 
				271.173,172.821 			"/>
			<g>
				<circle fill="#3398CC" stroke="#FFFFFF" stroke-width="2" stroke-miterlimit="10" cx="271.811" cy="117.224" r="2.515"/>
				<circle fill="#3398CC" stroke="#FFFFFF" stroke-width="2" stroke-miterlimit="10" cx="318.81" cy="117.224" r="2.515"/>
				<circle fill="#3398CC" stroke="#FFFFFF" stroke-width="2" stroke-miterlimit="10" cx="295.086" cy="144.152" r="2.515"/>
				<circle fill="#3398CC" stroke="#FFFFFF" stroke-width="2" stroke-miterlimit="10" cx="271.811" cy="180.224" r="2.515"/>
				<circle fill="#3398CC" stroke="#FFFFFF" stroke-width="2" stroke-miterlimit="10" cx="318.81" cy="180.224" r="2.515"/>
			</g>
		</g>
	</g>
</g>
</svg>
