<?xml version="1.0" encoding="utf-8"?>
<!-- Generator: Adobe Illustrator 16.0.0, SVG Export Plug-In . SVG Version: 6.00 Build 0)  -->
<!DOCTYPE svg PUBLIC "-//W3C//DTD SVG 1.1//EN" "http://www.w3.org/Graphics/SVG/1.1/DTD/svg11.dtd">
<svg version="1.1" id="Layer_1" xmlns="http://www.w3.org/2000/svg" xmlns:xlink="http://www.w3.org/1999/xlink" x="0px" y="0px"
	 width="550px" height="250px" viewBox="0 0 550 250" enable-background="new 0 0 550 250" xml:space="preserve">
<line fill="none" stroke="#3399CC" stroke-width="5" stroke-miterlimit="10" x1="0" y1="122.641" x2="52.371" y2="122.641"/>
<g>
	<polygon fill="#3399CC" points="44.063,125.141 45.5,126.329 51.995,126.329 51.995,118.952 45.5,118.952 44.063,120.156 	"/>
	<g>
		<polygon fill="#3399CC" stroke="#1D304B" stroke-miterlimit="10" points="77.343,131.514 58.926,131.514 51.995,129.514 
			51.995,115.768 58.904,113.768 77.343,113.768 		"/>
		<g>
			<path fill="#FFFFFF" d="M62.518,118.42v0.78h-3.465v-0.78h1.47v-1.31h-1.47v-0.78h3.465v0.78h-1.325v1.31H62.518z"/>
			<path fill="#FFFFFF" d="M60.788,123.035c-0.301,0-0.563-0.047-0.785-0.14c-0.224-0.093-0.408-0.226-0.556-0.397
				c-0.146-0.172-0.256-0.381-0.329-0.627s-0.11-0.523-0.11-0.83c0-0.14,0.006-0.303,0.018-0.49c0.012-0.187,0.035-0.37,0.072-0.55
				h3.375c0.033,0.18,0.056,0.368,0.067,0.563c0.012,0.195,0.018,0.363,0.018,0.502c0,0.297-0.033,0.566-0.1,0.808
				c-0.067,0.242-0.172,0.449-0.315,0.623s-0.326,0.307-0.55,0.4S61.101,123.035,60.788,123.035z M59.688,120.78
				c-0.003,0.037-0.006,0.079-0.007,0.127c-0.002,0.048-0.003,0.105-0.003,0.172c0,0.39,0.099,0.679,0.295,0.868
				c0.196,0.188,0.469,0.282,0.815,0.282c0.363,0,0.638-0.09,0.824-0.27c0.188-0.18,0.28-0.465,0.28-0.855
				c0-0.053-0.001-0.108-0.002-0.165c-0.002-0.057-0.006-0.11-0.013-0.16H59.688z"/>
			<path fill="#FFFFFF" d="M62.518,124.605c-0.109,0.061-0.246,0.129-0.407,0.208c-0.162,0.079-0.337,0.161-0.525,0.245
				c-0.188,0.086-0.381,0.17-0.577,0.254c-0.197,0.084-0.382,0.162-0.555,0.236c0.173,0.072,0.357,0.152,0.555,0.234
				c0.196,0.084,0.389,0.17,0.577,0.254c0.188,0.086,0.363,0.168,0.525,0.246c0.161,0.078,0.298,0.148,0.407,0.209v0.709
				c-0.229,0.033-0.487,0.064-0.772,0.092c-0.285,0.029-0.582,0.055-0.89,0.076c-0.309,0.021-0.618,0.041-0.928,0.061
				c-0.31,0.018-0.602,0.033-0.875,0.047v-0.76c0.337-0.01,0.703-0.023,1.1-0.041c0.397-0.016,0.797-0.041,1.2-0.074
				c-0.14-0.061-0.295-0.127-0.465-0.201c-0.17-0.072-0.34-0.146-0.51-0.219c-0.17-0.07-0.333-0.141-0.487-0.208
				c-0.155-0.066-0.288-0.125-0.397-0.172v-0.545c0.109-0.047,0.242-0.104,0.397-0.17c0.154-0.067,0.317-0.137,0.487-0.209
				c0.17-0.071,0.34-0.144,0.51-0.218c0.17-0.073,0.325-0.14,0.465-0.201c-0.403-0.033-0.803-0.058-1.2-0.075
				c-0.396-0.017-0.763-0.03-1.1-0.04v-0.76c0.273,0.014,0.565,0.029,0.875,0.048c0.31,0.018,0.619,0.038,0.928,0.06
				c0.308,0.021,0.604,0.046,0.89,0.075s0.543,0.059,0.772,0.093V124.605z"/>
			<path fill="#FFFFFF" d="M62.518,128.172v0.779h-3.465v-0.779H62.518z"/>
		</g>
	</g>
	<line fill="none" stroke="#1D304B" stroke-miterlimit="10" x1="50.5" y1="118.952" x2="50.5" y2="126.329"/>
	<line fill="none" stroke="#1D304B" stroke-miterlimit="10" x1="49" y1="118.952" x2="49" y2="126.329"/>
	<line fill="none" stroke="#1D304B" stroke-miterlimit="10" x1="47.5" y1="118.952" x2="47.5" y2="126.329"/>
	<line fill="none" stroke="#1D304B" stroke-miterlimit="10" x1="46" y1="118.952" x2="46" y2="126.329"/>
</g>
<g>
	<rect x="431.53" y="39.333" fill="#171617" stroke="#000000" stroke-miterlimit="10" width="34" height="22.667"/>
	<rect x="211.751" y="39.333" fill="#171617" stroke="#000000" stroke-miterlimit="10" width="34" height="22.667"/>
	<g>
		<path fill="#FFFFFF" d="M219.522,52.808v-6.237h4.212v1.179h-2.808v1.224h2.493v1.152h-2.493v1.503h3.015v1.179H219.522z"/>
		<path fill="#FFFFFF" d="M226.632,46.571c0.108,0.198,0.233,0.442,0.375,0.733c0.141,0.291,0.289,0.606,0.442,0.945
			c0.154,0.339,0.306,0.686,0.456,1.04s0.292,0.687,0.424,0.999c0.132-0.312,0.274-0.645,0.424-0.999s0.302-0.7,0.456-1.04
			c0.153-0.339,0.301-0.654,0.442-0.945c0.141-0.291,0.266-0.536,0.375-0.733h1.278c0.06,0.414,0.116,0.877,0.167,1.39
			c0.051,0.513,0.096,1.047,0.135,1.602c0.039,0.555,0.075,1.112,0.108,1.669c0.033,0.558,0.062,1.083,0.085,1.575h-1.368
			c-0.018-0.606-0.042-1.266-0.072-1.98c-0.03-0.714-0.075-1.434-0.135-2.16c-0.108,0.252-0.229,0.531-0.361,0.837
			c-0.132,0.306-0.264,0.612-0.393,0.918c-0.129,0.306-0.254,0.598-0.375,0.877c-0.12,0.279-0.223,0.517-0.307,0.715h-0.981
			c-0.084-0.198-0.187-0.437-0.307-0.715c-0.121-0.279-0.246-0.572-0.375-0.877c-0.129-0.306-0.26-0.612-0.393-0.918
			c-0.132-0.306-0.253-0.585-0.361-0.837c-0.06,0.726-0.105,1.446-0.135,2.16c-0.03,0.714-0.054,1.374-0.072,1.98h-1.368
			c0.024-0.492,0.052-1.017,0.085-1.575c0.033-0.558,0.069-1.114,0.108-1.669c0.039-0.555,0.084-1.089,0.135-1.602
			c0.051-0.513,0.106-0.977,0.167-1.39H226.632z"/>
		<path fill="#FFFFFF" d="M235.893,52.934c-1.014,0-1.787-0.282-2.317-0.846c-0.531-0.563-0.796-1.365-0.796-2.403
			c0-0.516,0.081-0.977,0.243-1.381c0.162-0.405,0.384-0.747,0.666-1.026c0.282-0.279,0.618-0.491,1.008-0.635
			c0.39-0.144,0.813-0.216,1.269-0.216c0.264,0,0.504,0.02,0.72,0.059s0.405,0.084,0.567,0.135c0.162,0.051,0.297,0.104,0.405,0.158
			c0.108,0.054,0.186,0.096,0.234,0.126l-0.405,1.134c-0.192-0.102-0.416-0.189-0.671-0.261c-0.255-0.072-0.544-0.108-0.868-0.108
			c-0.216,0-0.428,0.036-0.635,0.108c-0.207,0.072-0.39,0.188-0.549,0.346c-0.159,0.159-0.287,0.365-0.383,0.617
			c-0.096,0.252-0.144,0.558-0.144,0.918c0,0.288,0.031,0.557,0.094,0.805c0.063,0.25,0.165,0.464,0.306,0.644
			c0.141,0.18,0.325,0.323,0.553,0.428s0.504,0.157,0.828,0.157c0.204,0,0.387-0.012,0.549-0.036
			c0.162-0.024,0.306-0.053,0.432-0.085c0.126-0.033,0.237-0.071,0.333-0.113s0.183-0.081,0.261-0.117l0.387,1.125
			c-0.198,0.12-0.477,0.228-0.837,0.324C236.784,52.886,236.367,52.934,235.893,52.934z"/>
	</g>
	<g>
		<path fill="#FFFFFF" d="M439.3,52.808v-6.237h4.213v1.179h-2.809v1.224h2.493v1.152h-2.493v1.503h3.016v1.179H439.3z"/>
		<path fill="#FFFFFF" d="M446.41,46.571c0.108,0.198,0.233,0.442,0.374,0.733c0.142,0.291,0.289,0.606,0.442,0.945
			c0.153,0.339,0.306,0.686,0.456,1.04s0.291,0.687,0.424,0.999c0.133-0.312,0.273-0.645,0.424-0.999s0.303-0.7,0.456-1.04
			c0.153-0.339,0.301-0.654,0.442-0.945c0.141-0.291,0.266-0.536,0.375-0.733h1.277c0.061,0.414,0.115,0.877,0.166,1.39
			c0.052,0.513,0.097,1.047,0.136,1.602c0.039,0.555,0.075,1.112,0.108,1.669c0.032,0.558,0.061,1.083,0.085,1.575h-1.368
			c-0.018-0.606-0.042-1.266-0.072-1.98c-0.029-0.714-0.074-1.434-0.135-2.16c-0.108,0.252-0.229,0.531-0.361,0.837
			c-0.132,0.306-0.264,0.612-0.393,0.918c-0.129,0.306-0.254,0.598-0.375,0.877c-0.119,0.279-0.223,0.517-0.307,0.715h-0.98
			c-0.084-0.198-0.188-0.437-0.307-0.715c-0.121-0.279-0.246-0.572-0.375-0.877c-0.13-0.306-0.261-0.612-0.393-0.918
			c-0.133-0.306-0.254-0.585-0.361-0.837c-0.061,0.726-0.105,1.446-0.135,2.16c-0.031,0.714-0.055,1.374-0.072,1.98h-1.368
			c0.024-0.492,0.052-1.017,0.085-1.575c0.033-0.558,0.069-1.114,0.108-1.669c0.039-0.555,0.084-1.089,0.136-1.602
			c0.051-0.513,0.105-0.977,0.166-1.39H446.41z"/>
		<path fill="#FFFFFF" d="M455.671,52.934c-1.014,0-1.787-0.282-2.317-0.846c-0.531-0.563-0.796-1.365-0.796-2.403
			c0-0.516,0.08-0.977,0.242-1.381c0.162-0.405,0.385-0.747,0.666-1.026c0.282-0.279,0.618-0.491,1.008-0.635
			c0.391-0.144,0.813-0.216,1.27-0.216c0.264,0,0.504,0.02,0.72,0.059s0.405,0.084,0.567,0.135c0.162,0.051,0.297,0.104,0.404,0.158
			c0.108,0.054,0.186,0.096,0.234,0.126l-0.404,1.134c-0.193-0.102-0.416-0.189-0.672-0.261c-0.254-0.072-0.544-0.108-0.867-0.108
			c-0.217,0-0.428,0.036-0.635,0.108c-0.207,0.072-0.391,0.188-0.549,0.346c-0.16,0.159-0.287,0.365-0.383,0.617
			s-0.145,0.558-0.145,0.918c0,0.288,0.031,0.557,0.095,0.805c0.063,0.25,0.165,0.464,0.306,0.644
			c0.141,0.18,0.326,0.323,0.554,0.428s0.505,0.157,0.828,0.157c0.204,0,0.388-0.012,0.549-0.036
			c0.162-0.024,0.306-0.053,0.433-0.085c0.125-0.033,0.236-0.071,0.332-0.113c0.097-0.042,0.184-0.081,0.262-0.117l0.387,1.125
			c-0.197,0.12-0.477,0.228-0.837,0.324C456.562,52.886,456.146,52.934,455.671,52.934z"/>
	</g>
</g>
<g>
	<rect x="229.667" y="187.648" fill="#EE3968" stroke="#9A2747" stroke-miterlimit="10" width="17.986" height="38.018"/>
	<g>
		<path id="path1334" fill="#FFFFFF" d="M238.623,194.454l-1.154,1.999h0.823v10.221l-2.103-1.99
			c-0.135-0.169-0.23-0.391-0.236-0.619c0-0.922,0-1.47,0-1.671c0.39-0.137,0.67-0.504,0.67-0.939c0-0.553-0.448-1.001-1-1.001
			s-1,0.448-1,1.001c0,0.436,0.281,0.803,0.67,0.939v1.651c0,0.447,0.245,0.918,0.533,1.216c-0.009-0.009-0.018-0.017,0,0
			c0.007,0.006,2.231,2.111,2.231,2.111c0.135,0.17,0.23,0.391,0.235,0.619v1.155c-0.764,0.154-1.34,0.828-1.34,1.637
			c0,0.922,0.748,1.671,1.67,1.671s1.67-0.749,1.67-1.671c0-0.809-0.576-1.483-1.341-1.637v-1.136c0-0.003,0.001-0.006,0-0.009
			v-2.513c0.006-0.228,0.101-0.448,0.236-0.616c0,0,2.223-2.105,2.231-2.111c0.018-0.018,0.008-0.009,0,0
			c0.287-0.299,0.533-0.769,0.533-1.216l0-1.593h0.67v-2h-2v2h0.669c0,0,0,0.419,0,1.612c-0.005,0.228-0.101,0.449-0.237,0.619
			l-2.103,1.989v-7.721h0.826L238.623,194.454z"/>
		<g>
			<path fill="#FFFFFF" d="M235.475,221.45c-0.243,0-0.453-0.034-0.63-0.103s-0.322-0.163-0.438-0.285s-0.2-0.267-0.255-0.436
				c-0.055-0.168-0.083-0.354-0.083-0.557v-2.155h0.78v2.09c0,0.14,0.016,0.259,0.048,0.357c0.031,0.099,0.075,0.179,0.13,0.24
				c0.055,0.062,0.122,0.105,0.2,0.133c0.079,0.026,0.165,0.039,0.258,0.039c0.19,0,0.344-0.058,0.462-0.175
				c0.118-0.116,0.177-0.314,0.177-0.595v-2.09h0.78v2.155c0,0.203-0.028,0.39-0.085,0.56s-0.144,0.315-0.26,0.438
				s-0.265,0.216-0.445,0.282C235.935,221.417,235.721,221.45,235.475,221.45z"/>
			<path fill="#FFFFFF" d="M238.6,220.785c0.11,0,0.201-0.01,0.272-0.027c0.071-0.019,0.129-0.044,0.172-0.075
				c0.043-0.032,0.073-0.069,0.09-0.112c0.017-0.044,0.025-0.092,0.025-0.146c0-0.113-0.053-0.207-0.16-0.282
				c-0.107-0.075-0.29-0.156-0.55-0.243c-0.113-0.039-0.227-0.085-0.34-0.137s-0.215-0.117-0.305-0.195
				c-0.09-0.078-0.163-0.173-0.22-0.285c-0.057-0.111-0.085-0.247-0.085-0.407s0.03-0.305,0.09-0.433s0.145-0.237,0.255-0.327
				c0.11-0.091,0.244-0.159,0.4-0.208c0.156-0.048,0.333-0.072,0.53-0.072c0.233,0,0.435,0.025,0.605,0.075s0.31,0.104,0.42,0.165
				l-0.225,0.614c-0.097-0.05-0.204-0.094-0.322-0.132c-0.119-0.038-0.261-0.058-0.428-0.058c-0.187,0-0.321,0.025-0.402,0.077
				s-0.123,0.131-0.123,0.237c0,0.063,0.015,0.117,0.045,0.16c0.03,0.044,0.073,0.083,0.127,0.118
				c0.055,0.034,0.119,0.066,0.19,0.095c0.071,0.028,0.15,0.058,0.237,0.087c0.18,0.067,0.336,0.133,0.47,0.198
				c0.133,0.064,0.244,0.141,0.332,0.228c0.088,0.086,0.154,0.188,0.198,0.305c0.043,0.117,0.065,0.259,0.065,0.425
				c0,0.323-0.113,0.574-0.34,0.753c-0.227,0.178-0.568,0.268-1.025,0.268c-0.154,0-0.292-0.01-0.415-0.027
				c-0.124-0.019-0.233-0.041-0.328-0.068c-0.095-0.026-0.177-0.055-0.245-0.085c-0.068-0.029-0.126-0.058-0.172-0.085l0.22-0.62
				c0.104,0.058,0.231,0.108,0.383,0.153C238.194,220.763,238.38,220.785,238.6,220.785z"/>
			<path fill="#FFFFFF" d="M241.72,221.425c-0.189,0-0.379-0.006-0.567-0.018c-0.188-0.012-0.384-0.039-0.587-0.082v-3.36
				c0.16-0.03,0.335-0.053,0.525-0.067c0.19-0.015,0.367-0.022,0.53-0.022c0.22,0,0.422,0.016,0.607,0.048
				c0.185,0.031,0.344,0.085,0.478,0.162c0.133,0.076,0.237,0.178,0.313,0.303s0.112,0.279,0.112,0.462
				c0,0.277-0.133,0.495-0.399,0.655c0.22,0.083,0.369,0.196,0.449,0.34s0.12,0.305,0.12,0.485c0,0.363-0.132,0.637-0.397,0.819
				C242.638,221.333,242.243,221.425,241.72,221.425z M241.325,219.274h0.38c0.239,0,0.411-0.03,0.515-0.092
				s0.155-0.161,0.155-0.298c0-0.14-0.054-0.238-0.16-0.295s-0.263-0.085-0.47-0.085c-0.067,0-0.139,0.001-0.215,0.003
				c-0.077,0.001-0.145,0.006-0.205,0.012V219.274z M241.325,219.87v0.895c0.057,0.007,0.118,0.012,0.185,0.016
				c0.066,0.003,0.14,0.005,0.219,0.005c0.234,0,0.422-0.033,0.565-0.101c0.144-0.066,0.215-0.189,0.215-0.37
				c0-0.159-0.06-0.273-0.18-0.342s-0.292-0.103-0.515-0.103H241.325z"/>
		</g>
	</g>
</g>
<g>
	<g>
		<rect x="339.157" y="187.648" fill="#3399CC" stroke="#1E314B" stroke-miterlimit="10" width="17.986" height="38.018"/>
	</g>
	<g>
		<path id="path1334_1_" fill="#FFFFFF" d="M348.089,194.454l-1.154,1.999h0.822v10.221l-2.103-1.99
			c-0.135-0.169-0.23-0.391-0.235-0.619c0-0.922,0-1.47-0.001-1.671c0.39-0.137,0.671-0.504,0.671-0.939
			c0-0.553-0.449-1.001-1.001-1.001s-1,0.448-1,1.001c0,0.436,0.28,0.803,0.67,0.939v1.651c0,0.447,0.245,0.918,0.533,1.216
			c-0.009-0.009-0.018-0.017,0,0c0.007,0.006,2.231,2.111,2.231,2.111c0.135,0.17,0.23,0.391,0.234,0.619v1.155
			c-0.764,0.154-1.34,0.828-1.34,1.637c0,0.922,0.748,1.671,1.671,1.671s1.671-0.749,1.671-1.671c0-0.809-0.576-1.483-1.342-1.637
			v-1.136c0-0.003,0.002-0.006,0-0.009v-2.513c0.006-0.228,0.102-0.448,0.236-0.616c0,0,2.224-2.105,2.231-2.111
			c0.018-0.018,0.009-0.009,0,0c0.287-0.299,0.533-0.769,0.533-1.216l-0.001-1.593h0.671v-2h-2v2h0.669c0,0,0,0.419,0,1.612
			c-0.005,0.228-0.101,0.449-0.236,0.619l-2.104,1.989v-7.721h0.826L348.089,194.454z"/>
		<g>
			<path fill="#FFFFFF" d="M344.94,221.45c-0.243,0-0.453-0.034-0.63-0.103s-0.322-0.163-0.438-0.285s-0.2-0.267-0.255-0.436
				c-0.055-0.168-0.082-0.354-0.082-0.557v-2.155h0.779v2.09c0,0.14,0.016,0.259,0.048,0.357c0.031,0.099,0.075,0.179,0.13,0.24
				s0.121,0.105,0.199,0.133c0.079,0.026,0.165,0.039,0.258,0.039c0.19,0,0.345-0.058,0.463-0.175
				c0.118-0.116,0.178-0.314,0.178-0.595v-2.09h0.779v2.155c0,0.203-0.027,0.39-0.084,0.56s-0.145,0.315-0.261,0.438
				s-0.265,0.216-0.444,0.282C345.4,221.417,345.187,221.45,344.94,221.45z"/>
			<path fill="#FFFFFF" d="M348.065,220.785c0.11,0,0.201-0.01,0.273-0.027c0.07-0.019,0.129-0.044,0.172-0.075
				c0.043-0.032,0.073-0.069,0.09-0.112c0.017-0.044,0.025-0.092,0.025-0.146c0-0.113-0.054-0.207-0.16-0.282
				c-0.107-0.075-0.29-0.156-0.551-0.243c-0.113-0.039-0.227-0.085-0.34-0.137s-0.215-0.117-0.305-0.195s-0.163-0.173-0.22-0.285
				c-0.057-0.111-0.085-0.247-0.085-0.407s0.029-0.305,0.09-0.433s0.145-0.237,0.255-0.327c0.11-0.091,0.243-0.159,0.4-0.208
				c0.156-0.048,0.333-0.072,0.53-0.072c0.232,0,0.435,0.025,0.604,0.075s0.31,0.104,0.42,0.165l-0.226,0.614
				c-0.096-0.05-0.203-0.094-0.322-0.132c-0.118-0.038-0.26-0.058-0.428-0.058c-0.186,0-0.32,0.025-0.402,0.077
				c-0.081,0.052-0.122,0.131-0.122,0.237c0,0.063,0.015,0.117,0.045,0.16c0.03,0.044,0.073,0.083,0.128,0.118
				c0.055,0.034,0.118,0.066,0.189,0.095c0.072,0.028,0.15,0.058,0.238,0.087c0.18,0.067,0.336,0.133,0.47,0.198
				c0.133,0.064,0.244,0.141,0.332,0.228c0.089,0.086,0.154,0.188,0.198,0.305c0.043,0.117,0.064,0.259,0.064,0.425
				c0,0.323-0.113,0.574-0.34,0.753c-0.227,0.178-0.568,0.268-1.025,0.268c-0.153,0-0.291-0.01-0.414-0.027
				c-0.124-0.019-0.233-0.041-0.328-0.068c-0.096-0.026-0.177-0.055-0.245-0.085c-0.068-0.029-0.126-0.058-0.173-0.085l0.221-0.62
				c0.104,0.058,0.23,0.108,0.383,0.153C347.659,220.763,347.846,220.785,348.065,220.785z"/>
			<path fill="#FFFFFF" d="M351.186,221.425c-0.189,0-0.379-0.006-0.567-0.018c-0.188-0.012-0.384-0.039-0.588-0.082v-3.36
				c0.16-0.03,0.336-0.053,0.525-0.067c0.19-0.015,0.367-0.022,0.53-0.022c0.22,0,0.422,0.016,0.607,0.048
				c0.185,0.031,0.344,0.085,0.478,0.162c0.133,0.076,0.237,0.178,0.313,0.303s0.112,0.279,0.112,0.462
				c0,0.277-0.133,0.495-0.399,0.655c0.22,0.083,0.369,0.196,0.449,0.34s0.12,0.305,0.12,0.485c0,0.363-0.132,0.637-0.397,0.819
				C352.104,221.333,351.709,221.425,351.186,221.425z M350.791,219.274h0.38c0.239,0,0.411-0.03,0.515-0.092
				s0.155-0.161,0.155-0.298c0-0.14-0.054-0.238-0.16-0.295s-0.263-0.085-0.47-0.085c-0.067,0-0.139,0.001-0.215,0.003
				c-0.077,0.001-0.146,0.006-0.205,0.012V219.274z M350.791,219.87v0.895c0.057,0.007,0.118,0.012,0.185,0.016
				c0.066,0.003,0.141,0.005,0.22,0.005c0.234,0,0.422-0.033,0.565-0.101c0.144-0.066,0.215-0.189,0.215-0.37
				c0-0.159-0.06-0.273-0.18-0.342s-0.292-0.103-0.515-0.103H350.791z"/>
		</g>
	</g>
</g>
<line fill="none" stroke="#171617" stroke-width="3" stroke-miterlimit="10" x1="491.948" y1="142.666" x2="550" y2="142.666"/>
<g>
	<polygon fill="#171617" stroke="#000000" stroke-width="0.6159" stroke-miterlimit="10" points="500.612,140.693 500.612,144.643 
		494.195,145.643 483.188,145.643 483.188,139.693 494.195,139.693 	"/>
	
		<line fill="none" stroke="#000000" stroke-width="0.6159" stroke-miterlimit="10" x1="494.195" y1="139.693" x2="494.195" y2="145.643"/>
	
		<line fill="none" stroke="#000000" stroke-width="0.6159" stroke-miterlimit="10" x1="495.514" y1="139.898" x2="495.518" y2="145.437"/>
	
		<line fill="none" stroke="#000000" stroke-width="0.6159" stroke-miterlimit="10" x1="496.754" y1="140.092" x2="496.724" y2="145.248"/>
	
		<line fill="none" stroke="#000000" stroke-width="0.6159" stroke-miterlimit="10" x1="497.89" y1="140.27" x2="497.902" y2="145.064"/>
	
		<line fill="none" stroke="#000000" stroke-width="0.6159" stroke-miterlimit="10" x1="498.895" y1="140.426" x2="498.897" y2="144.91"/>
	
		<line fill="none" stroke="#000000" stroke-width="0.6159" stroke-miterlimit="10" x1="499.795" y1="140.54" x2="499.795" y2="144.786"/>
</g>
<line fill="none" stroke="#FFCE09" stroke-width="5" stroke-miterlimit="10" x1="491.948" y1="112.888" x2="550" y2="112.888"/>
<g>
	<polygon fill="#FFCE09" stroke="#F89839" stroke-width="0.8388" stroke-miterlimit="10" points="491.175,109.165 491.175,116.612 
		486.917,117.612 480.993,117.612 480.993,108.165 487.001,108.165 	"/>
	<rect x="491.584" y="109.597" fill="#FFCE09" width="9.333" height="6.583"/>
	
		<line fill="none" stroke="#F89839" stroke-width="0.8388" stroke-miterlimit="10" x1="492.417" y1="109" x2="492.417" y2="116.667"/>
	
		<line fill="none" stroke="#F89839" stroke-width="0.8388" stroke-miterlimit="10" x1="493.417" y1="109" x2="493.417" y2="116.667"/>
	
		<line fill="none" stroke="#F89839" stroke-width="0.8388" stroke-miterlimit="10" x1="494.417" y1="109" x2="494.417" y2="116.667"/>
	
		<line fill="none" stroke="#F89839" stroke-width="0.8388" stroke-miterlimit="10" x1="495.417" y1="109" x2="495.417" y2="116.667"/>
	
		<line fill="none" stroke="#F89839" stroke-width="0.8388" stroke-miterlimit="10" x1="496.417" y1="109" x2="496.417" y2="116.667"/>
	
		<line fill="none" stroke="#F89839" stroke-width="0.8388" stroke-miterlimit="10" x1="497.417" y1="109" x2="497.417" y2="116.667"/>
	
		<line fill="none" stroke="#F89839" stroke-width="0.8388" stroke-miterlimit="10" x1="498.417" y1="109" x2="498.417" y2="116.667"/>
	
		<line fill="none" stroke="#F89839" stroke-width="0.8388" stroke-miterlimit="10" x1="499.417" y1="109" x2="499.417" y2="116.667"/>
</g>
<line fill="none" stroke="#3399CC" stroke-width="5" stroke-miterlimit="10" x1="417.386" y1="250" x2="417.386" y2="198.604"/>
<g>
	<polygon fill="#3399CC" points="414.144,204.872 411.144,196.901 423.628,196.901 420.628,204.872 	"/>
	<polygon fill="#3399CC" stroke="#1E314B" stroke-miterlimit="10" points="410.144,183.474 424.628,183.474 424.628,194.872 
		423.628,196.901 411.144,196.901 410.144,194.872 	"/>
	<path fill="#FFCE09" stroke="#F89839" stroke-width="0.869" stroke-miterlimit="10" d="M410.144,194.985"/>
	<line fill="none" stroke="#1E314B" stroke-miterlimit="10" x1="423.628" y1="198.36" x2="411.128" y2="198.36"/>
	<line fill="none" stroke="#1E314B" stroke-miterlimit="10" x1="422.878" y1="199.86" x2="411.878" y2="199.86"/>
	<line fill="none" stroke="#1E314B" stroke-miterlimit="10" x1="422.128" y1="201.36" x2="412.628" y2="201.36"/>
	<line fill="none" stroke="#1E314B" stroke-miterlimit="10" x1="421.628" y1="202.86" x2="413.128" y2="202.86"/>
	<rect x="413.755" y="204.04" fill="#1E314B" width="7.186" height="3.486"/>
</g>
<g>
	<line fill="none" stroke="#FFCE09" stroke-width="5" stroke-miterlimit="10" x1="99.386" y1="250" x2="99.386" y2="198.604"/>
</g>
<g>
	<polygon fill="#FFCE09" points="96.144,205.047 93.144,197.076 105.628,197.076 102.628,205.047 	"/>
	<polygon fill="#FFCE09" stroke="#F89839" stroke-width="0.869" stroke-miterlimit="10" points="92.144,183.648 106.628,183.648 
		106.628,195.047 105.628,197.076 93.144,197.076 92.144,195.047 	"/>
	<path fill="#FFCE09" stroke="#F89839" stroke-width="0.869" stroke-miterlimit="10" d="M92.144,195.16"/>
	
		<line fill="none" stroke="#F89839" stroke-width="0.8801" stroke-miterlimit="10" x1="105.628" y1="198.535" x2="93.128" y2="198.535"/>
	
		<line fill="none" stroke="#F89839" stroke-width="0.903" stroke-miterlimit="10" x1="104.878" y1="200.035" x2="93.878" y2="200.035"/>
	
		<line fill="none" stroke="#F89839" stroke-width="0.9361" stroke-miterlimit="10" x1="104.128" y1="201.535" x2="94.628" y2="201.535"/>
	
		<line fill="none" stroke="#F89839" stroke-width="0.8854" stroke-miterlimit="10" x1="103.628" y1="203.035" x2="95.128" y2="203.035"/>
	<rect x="95.755" y="204.215" fill="#F89839" width="7.186" height="3.486"/>
</g>
<line fill="none" stroke="#996699" stroke-width="3" stroke-miterlimit="10" x1="309" y1="50.045" x2="309" y2="-1.352"/>
<g>
	<polygon fill="#996699" points="307.503,41.188 306.107,49.158 311.914,49.158 310.519,41.188 	"/>
	<polygon fill="#996699" stroke="#654566" stroke-width="0.75" stroke-miterlimit="10" points="305.643,62.586 312.379,62.586 
		312.379,51.187 311.914,49.158 306.107,49.158 305.643,51.187 	"/>
	<path fill="#FFCE09" stroke="#F89839" stroke-width="0.5926" stroke-miterlimit="10" d="M305.643,51.074"/>
	<line fill="none" stroke="#654566" stroke-width="0.75" stroke-miterlimit="10" x1="311.914" y1="47.699" x2="306.1" y2="47.699"/>
	
		<line fill="none" stroke="#654566" stroke-width="0.75" stroke-miterlimit="10" x1="311.564" y1="46.199" x2="306.449" y2="46.199"/>
	
		<line fill="none" stroke="#654566" stroke-width="0.75" stroke-miterlimit="10" x1="311.216" y1="44.699" x2="306.798" y2="44.699"/>
	
		<line fill="none" stroke="#654566" stroke-width="0.75" stroke-miterlimit="10" x1="310.984" y1="43.199" x2="307.03" y2="43.199"/>
	<rect x="307.322" y="38.533" fill="#654566" width="3.342" height="3.486"/>
</g>
<line fill="none" stroke="#996699" stroke-width="3" stroke-miterlimit="10" x1="91.386" y1="50.045" x2="91.386" y2="-1.352"/>
<g>
	<polygon fill="#996699" points="89.878,40.673 88.482,48.644 94.289,48.644 92.894,40.673 	"/>
	<polygon fill="#996699" stroke="#654566" stroke-width="0.75" stroke-miterlimit="10" points="88.018,62.071 94.754,62.071 
		94.754,50.672 94.289,48.644 88.482,48.644 88.018,50.672 	"/>
	<path fill="#FFCE09" stroke="#F89839" stroke-width="0.5926" stroke-miterlimit="10" d="M88.018,50.56"/>
	<line fill="none" stroke="#654566" stroke-width="0.75" stroke-miterlimit="10" x1="94.289" y1="47.185" x2="88.475" y2="47.185"/>
	<line fill="none" stroke="#654566" stroke-width="0.75" stroke-miterlimit="10" x1="93.939" y1="45.685" x2="88.824" y2="45.685"/>
	<line fill="none" stroke="#654566" stroke-width="0.75" stroke-miterlimit="10" x1="93.591" y1="44.185" x2="89.173" y2="44.185"/>
	<line fill="none" stroke="#654566" stroke-width="0.75" stroke-miterlimit="10" x1="93.359" y1="42.685" x2="89.405" y2="42.685"/>
	<rect x="89.697" y="38.018" fill="#654566" width="3.342" height="3.486"/>
</g>
<g>
	<polygon fill="#6EC498" stroke="#579975" stroke-miterlimit="10" points="137.542,207.266 120.114,207.266 122.114,188.084 
		135.542,188.084 	"/>
	<g>
		<g>
			<g>
				<path fill="none" stroke="#579975" stroke-width="2" stroke-miterlimit="10" d="M138.385,217.688
					c-5.282,5.28-13.831,5.28-19.113,0"/>
				<path fill="none" stroke="#579975" stroke-width="2" stroke-miterlimit="10" d="M135.886,215.188
					c-3.901,3.899-10.214,3.899-14.115,0"/>
				<path fill="none" stroke="#579975" stroke-width="2" stroke-miterlimit="10" d="M132.959,212.496
					c-2.282,2.283-5.979,2.283-8.263,0"/>
			</g>
		</g>
	</g>
</g>
<g>
	
		<rect x="66.372" y="68.883" fill="#FFFFFF" stroke="#EF4069" stroke-width="0.5" stroke-miterlimit="10" width="87.503" height="112.091"/>
	<g>
		<g>
			<g>
				<path fill="#010101" stroke="#FFFFFF" stroke-width="0.2061" stroke-miterlimit="10" d="M109.766,115.682"/>
			</g>
			<g>
				<path fill="#010101" stroke="#FFFFFF" stroke-width="0.2061" stroke-miterlimit="10" d="M109.766,115.682"/>
			</g>
			<g>
				<path fill="#010101" stroke="#FFFFFF" stroke-width="0.2061" stroke-miterlimit="10" d="M109.766,115.682"/>
			</g>
			<g>
				<path fill="#010101" stroke="#FFFFFF" stroke-width="0.2061" stroke-miterlimit="10" d="M109.766,115.682"/>
			</g>
		</g>
		<polyline fill="#3399CC" points="135.523,130.492 122.645,138.218 109.767,145.945 109.767,130.492 109.767,115.038 		"/>
		<polyline fill="#996699" points="135.523,130.492 135.523,115.038 135.523,99.584 122.659,107.311 109.767,115.038 		"/>
		<polyline fill="#F89839" points="109.77,84.13 96.889,91.857 84.009,99.584 96.89,107.311 109.77,115.038 		"/>
		<polyline fill="#EE3968" points="109.767,84.13 122.644,91.857 135.523,99.584 122.645,107.311 109.767,115.038 		"/>
		<polyline fill="#FFCE09" points="84.009,130.492 96.89,138.218 109.77,145.945 109.77,130.492 109.77,115.038 		"/>
		<polyline fill="#6EC498" points="84.011,130.492 84.011,115.038 84.011,99.584 96.889,107.311 109.767,115.038 		"/>
		<g>
			<g>
				<g>
					
						<line fill="none" stroke="#FFFFFF" stroke-width="0.6182" stroke-miterlimit="10" x1="109.771" y1="84.13" x2="109.771" y2="84.851"/>
					
						<line fill="none" stroke="#FFFFFF" stroke-width="0.6182" stroke-miterlimit="10" stroke-dasharray="1.4031,1.4031" x1="109.771" y1="86.254" x2="109.766" y2="113.615"/>
					
						<line fill="none" stroke="#FFFFFF" stroke-width="0.6182" stroke-miterlimit="10" x1="109.766" y1="114.317" x2="109.766" y2="115.038"/>
				</g>
			</g>
			<g>
				<g>
					
						<line fill="none" stroke="#FFFFFF" stroke-width="0.6182" stroke-miterlimit="10" x1="109.766" y1="115.038" x2="110.384" y2="115.409"/>
					
						<line fill="none" stroke="#FFFFFF" stroke-width="0.6182" stroke-miterlimit="10" stroke-dasharray="1.505,1.505" x1="111.675" y1="116.184" x2="134.259" y2="129.733"/>
					
						<line fill="none" stroke="#FFFFFF" stroke-width="0.6182" stroke-miterlimit="10" x1="134.904" y1="130.121" x2="135.523" y2="130.492"/>
				</g>
			</g>
			<g>
				<g>
					
						<line fill="none" stroke="#FFFFFF" stroke-width="0.6182" stroke-miterlimit="10" x1="109.766" y1="115.038" x2="109.147" y2="115.409"/>
					
						<line fill="none" stroke="#FFFFFF" stroke-width="0.6182" stroke-miterlimit="10" stroke-dasharray="1.505,1.505" x1="107.857" y1="116.184" x2="85.273" y2="129.733"/>
					
						<line fill="none" stroke="#FFFFFF" stroke-width="0.6182" stroke-miterlimit="10" x1="84.628" y1="130.121" x2="84.009" y2="130.492"/>
				</g>
			</g>
		</g>
		<g>
			
				<line fill="none" stroke="#FFFFFF" stroke-width="0.6182" stroke-miterlimit="10" x1="109.771" y1="145.945" x2="109.766" y2="115.038"/>
			
				<line fill="none" stroke="#FFFFFF" stroke-width="0.6182" stroke-miterlimit="10" x1="109.766" y1="115.038" x2="135.523" y2="99.584"/>
			
				<line fill="none" stroke="#FFFFFF" stroke-width="0.6182" stroke-miterlimit="10" x1="109.766" y1="115.038" x2="84.009" y2="99.584"/>
		</g>
	</g>
	
		<rect x="71.372" y="184.002" fill="#FFFFFF" stroke="#EF4069" stroke-width="0.5" stroke-miterlimit="10" width="77.146" height="6.287"/>
	
		<rect x="71.372" y="59.712" fill="#FFFFFF" stroke="#EF4069" stroke-width="0.5" stroke-miterlimit="10" width="77.146" height="6.287"/>
	
		<line fill="none" stroke="#EE3968" stroke-width="5.3711" stroke-miterlimit="10" x1="64.669" y1="66.351" x2="155.331" y2="66.351"/>
	
		<line fill="none" stroke="#EE3968" stroke-width="5.3711" stroke-miterlimit="10" x1="64.669" y1="183.509" x2="155.331" y2="183.509"/>
	<g>
		<path d="M102.585,152.319h2.006v8.91h-2.006v-3.78h-3.369v3.78h-2.005v-8.91h2.005v3.407h3.369V152.319z"/>
		<path d="M110.133,161.41c-0.626,0-1.166-0.089-1.62-0.264c-0.455-0.176-0.83-0.42-1.125-0.733
			c-0.296-0.313-0.515-0.686-0.656-1.118c-0.142-0.434-0.212-0.911-0.212-1.434v-5.542h2.006v5.374c0,0.36,0.041,0.667,0.122,0.92
			c0.082,0.252,0.193,0.459,0.334,0.617s0.313,0.271,0.514,0.34c0.201,0.069,0.422,0.104,0.662,0.104c0.489,0,0.885-0.15,1.189-0.45
			s0.457-0.81,0.457-1.53v-5.374h2.006v5.542c0,0.522-0.073,1.002-0.219,1.439c-0.146,0.438-0.369,0.813-0.668,1.125
			c-0.3,0.313-0.682,0.555-1.145,0.727S110.767,161.41,110.133,161.41z"/>
		<path d="M118.708,161.346c-0.488,0-0.975-0.016-1.459-0.045c-0.484-0.031-0.988-0.102-1.511-0.213v-8.641
			c0.411-0.076,0.861-0.135,1.35-0.173c0.489-0.038,0.943-0.058,1.363-0.058c0.565,0,1.086,0.041,1.562,0.121
			c0.476,0.082,0.885,0.221,1.228,0.418c0.343,0.197,0.611,0.457,0.804,0.778s0.289,0.718,0.289,1.189
			c0,0.712-0.343,1.272-1.029,1.685c0.566,0.214,0.952,0.506,1.157,0.874c0.206,0.368,0.309,0.784,0.309,1.247
			c0,0.935-0.34,1.637-1.022,2.109C121.068,161.109,120.054,161.346,118.708,161.346z M117.693,155.816h0.977
			c0.617,0,1.059-0.079,1.325-0.238c0.266-0.158,0.398-0.413,0.398-0.765c0-0.36-0.137-0.612-0.412-0.759
			c-0.274-0.146-0.677-0.219-1.208-0.219c-0.171,0-0.356,0.002-0.553,0.007c-0.197,0.005-0.373,0.015-0.527,0.032V155.816z
			 M117.693,157.347v2.302c0.146,0.018,0.304,0.029,0.476,0.038s0.36,0.013,0.566,0.013c0.6,0,1.084-0.086,1.453-0.257
			c0.368-0.171,0.553-0.489,0.553-0.952c0-0.41-0.154-0.705-0.463-0.881c-0.309-0.175-0.75-0.263-1.324-0.263H117.693z"/>
	</g>
	<rect x="69.021" y="115.036" fill="#EE3968" width="3.215" height="17.179"/>
	<rect x="148.311" y="115.036" fill="#EE3968" width="3.214" height="17.179"/>
</g>
<g>
	
		<rect x="176.372" y="68.883" fill="#FFFFFF" stroke="#3399CC" stroke-width="0.5" stroke-miterlimit="10" width="87.502" height="112.091"/>
	<g>
		<g>
			<g>
				<path fill="#010101" stroke="#FFFFFF" stroke-width="0.2061" stroke-miterlimit="10" d="M219.766,115.682"/>
			</g>
			<g>
				<path fill="#010101" stroke="#FFFFFF" stroke-width="0.2061" stroke-miterlimit="10" d="M219.766,115.682"/>
			</g>
			<g>
				<path fill="#010101" stroke="#FFFFFF" stroke-width="0.2061" stroke-miterlimit="10" d="M219.766,115.682"/>
			</g>
			<g>
				<path fill="#010101" stroke="#FFFFFF" stroke-width="0.2061" stroke-miterlimit="10" d="M219.766,115.682"/>
			</g>
		</g>
		<polyline fill="#3399CC" points="245.523,130.492 232.645,138.218 219.767,145.945 219.767,130.492 219.767,115.038 		"/>
		<polyline fill="#996699" points="245.523,130.492 245.523,115.038 245.523,99.584 232.659,107.311 219.767,115.038 		"/>
		<polyline fill="#F89839" points="219.77,84.13 206.889,91.857 194.009,99.584 206.89,107.311 219.77,115.038 		"/>
		<polyline fill="#EE3968" points="219.767,84.13 232.644,91.857 245.523,99.584 232.645,107.311 219.767,115.038 		"/>
		<polyline fill="#FFCE09" points="194.009,130.492 206.89,138.218 219.77,145.945 219.77,130.492 219.77,115.038 		"/>
		<polyline fill="#6EC498" points="194.011,130.492 194.011,115.038 194.011,99.584 206.889,107.311 219.767,115.038 		"/>
		<g>
			<g>
				<g>
					
						<line fill="none" stroke="#FFFFFF" stroke-width="0.6182" stroke-miterlimit="10" x1="219.771" y1="84.13" x2="219.771" y2="84.851"/>
					
						<line fill="none" stroke="#FFFFFF" stroke-width="0.6182" stroke-miterlimit="10" stroke-dasharray="1.4031,1.4031" x1="219.771" y1="86.254" x2="219.766" y2="113.615"/>
					
						<line fill="none" stroke="#FFFFFF" stroke-width="0.6182" stroke-miterlimit="10" x1="219.766" y1="114.317" x2="219.766" y2="115.038"/>
				</g>
			</g>
			<g>
				<g>
					
						<line fill="none" stroke="#FFFFFF" stroke-width="0.6182" stroke-miterlimit="10" x1="219.766" y1="115.038" x2="220.384" y2="115.409"/>
					
						<line fill="none" stroke="#FFFFFF" stroke-width="0.6182" stroke-miterlimit="10" stroke-dasharray="1.505,1.505" x1="221.675" y1="116.184" x2="244.259" y2="129.733"/>
					
						<line fill="none" stroke="#FFFFFF" stroke-width="0.6182" stroke-miterlimit="10" x1="244.904" y1="130.121" x2="245.523" y2="130.492"/>
				</g>
			</g>
			<g>
				<g>
					
						<line fill="none" stroke="#FFFFFF" stroke-width="0.6182" stroke-miterlimit="10" x1="219.766" y1="115.038" x2="219.147" y2="115.409"/>
					
						<line fill="none" stroke="#FFFFFF" stroke-width="0.6182" stroke-miterlimit="10" stroke-dasharray="1.505,1.505" x1="217.857" y1="116.184" x2="195.273" y2="129.733"/>
					
						<line fill="none" stroke="#FFFFFF" stroke-width="0.6182" stroke-miterlimit="10" x1="194.628" y1="130.121" x2="194.009" y2="130.492"/>
				</g>
			</g>
		</g>
		<g>
			
				<line fill="none" stroke="#FFFFFF" stroke-width="0.6182" stroke-miterlimit="10" x1="219.771" y1="145.945" x2="219.766" y2="115.038"/>
			
				<line fill="none" stroke="#FFFFFF" stroke-width="0.6182" stroke-miterlimit="10" x1="219.766" y1="115.038" x2="245.523" y2="99.584"/>
			
				<line fill="none" stroke="#FFFFFF" stroke-width="0.6182" stroke-miterlimit="10" x1="219.766" y1="115.038" x2="194.009" y2="99.584"/>
		</g>
	</g>
	
		<rect x="181.372" y="184.002" fill="#FFFFFF" stroke="#3399CC" stroke-width="0.5" stroke-miterlimit="10" width="77.146" height="6.287"/>
	
		<rect x="181.372" y="59.712" fill="#FFFFFF" stroke="#3399CC" stroke-width="0.5" stroke-miterlimit="10" width="77.146" height="6.287"/>
	
		<line fill="none" stroke="#3399CC" stroke-width="5.0128" stroke-miterlimit="10" x1="174.669" y1="66.351" x2="265.331" y2="66.351"/>
	
		<line fill="none" stroke="#3399CC" stroke-width="5.0128" stroke-miterlimit="10" x1="174.669" y1="183.509" x2="265.331" y2="183.509"/>
	<g>
		<path d="M212.585,152.319h2.006v8.91h-2.006v-3.78h-3.369v3.78h-2.005v-8.91h2.005v3.407h3.369V152.319z"/>
		<path d="M220.133,161.41c-0.626,0-1.166-0.089-1.62-0.264c-0.455-0.176-0.83-0.42-1.125-0.733
			c-0.296-0.313-0.515-0.686-0.656-1.118c-0.142-0.434-0.212-0.911-0.212-1.434v-5.542h2.006v5.374c0,0.36,0.041,0.667,0.122,0.92
			c0.082,0.252,0.193,0.459,0.334,0.617s0.313,0.271,0.514,0.34c0.201,0.069,0.422,0.104,0.662,0.104c0.489,0,0.885-0.15,1.189-0.45
			s0.457-0.81,0.457-1.53v-5.374h2.006v5.542c0,0.522-0.073,1.002-0.219,1.439c-0.146,0.438-0.369,0.813-0.668,1.125
			c-0.3,0.313-0.682,0.555-1.145,0.727S220.767,161.41,220.133,161.41z"/>
		<path d="M228.708,161.346c-0.488,0-0.975-0.016-1.459-0.045c-0.484-0.031-0.988-0.102-1.511-0.213v-8.641
			c0.411-0.076,0.861-0.135,1.35-0.173c0.489-0.038,0.943-0.058,1.363-0.058c0.565,0,1.086,0.041,1.562,0.121
			c0.476,0.082,0.885,0.221,1.228,0.418c0.343,0.197,0.611,0.457,0.804,0.778s0.289,0.718,0.289,1.189
			c0,0.712-0.343,1.272-1.029,1.685c0.566,0.214,0.952,0.506,1.157,0.874c0.206,0.368,0.309,0.784,0.309,1.247
			c0,0.935-0.34,1.637-1.022,2.109C231.068,161.109,230.054,161.346,228.708,161.346z M227.693,155.816h0.977
			c0.617,0,1.059-0.079,1.325-0.238c0.266-0.158,0.398-0.413,0.398-0.765c0-0.36-0.137-0.612-0.412-0.759
			c-0.274-0.146-0.677-0.219-1.208-0.219c-0.171,0-0.356,0.002-0.553,0.007c-0.197,0.005-0.373,0.015-0.527,0.032V155.816z
			 M227.693,157.347v2.302c0.146,0.018,0.304,0.029,0.476,0.038s0.36,0.013,0.566,0.013c0.6,0,1.084-0.086,1.453-0.257
			c0.368-0.171,0.553-0.489,0.553-0.952c0-0.41-0.154-0.705-0.463-0.881c-0.309-0.175-0.75-0.263-1.324-0.263H227.693z"/>
	</g>
	<rect x="179.021" y="115.036" fill="#3399CC" width="3.215" height="17.179"/>
	<rect x="258.311" y="115.036" fill="#3399CC" width="3.213" height="17.179"/>
</g>
<g>
	
		<rect x="286.372" y="68.883" fill="#FFFFFF" stroke="#FFCE09" stroke-width="0.5" stroke-miterlimit="10" width="87.502" height="112.091"/>
	<g>
		<g>
			<g>
				<path fill="#010101" stroke="#FFFFFF" stroke-width="0.2061" stroke-miterlimit="10" d="M329.766,115.682"/>
			</g>
			<g>
				<path fill="#010101" stroke="#FFFFFF" stroke-width="0.2061" stroke-miterlimit="10" d="M329.766,115.682"/>
			</g>
			<g>
				<path fill="#010101" stroke="#FFFFFF" stroke-width="0.2061" stroke-miterlimit="10" d="M329.766,115.682"/>
			</g>
			<g>
				<path fill="#010101" stroke="#FFFFFF" stroke-width="0.2061" stroke-miterlimit="10" d="M329.766,115.682"/>
			</g>
		</g>
		<polyline fill="#3399CC" points="355.522,130.492 342.645,138.218 329.767,145.945 329.767,130.492 329.767,115.038 		"/>
		<polyline fill="#996699" points="355.522,130.492 355.522,115.038 355.522,99.584 342.659,107.311 329.767,115.038 		"/>
		<polyline fill="#F89839" points="329.77,84.13 316.889,91.857 304.009,99.584 316.89,107.311 329.77,115.038 		"/>
		<polyline fill="#EE3968" points="329.767,84.13 342.644,91.857 355.522,99.584 342.645,107.311 329.767,115.038 		"/>
		<polyline fill="#FFCE09" points="304.009,130.492 316.89,138.218 329.77,145.945 329.77,130.492 329.77,115.038 		"/>
		<polyline fill="#6EC498" points="304.011,130.492 304.011,115.038 304.011,99.584 316.889,107.311 329.767,115.038 		"/>
		<g>
			<g>
				<g>
					
						<line fill="none" stroke="#FFFFFF" stroke-width="0.6182" stroke-miterlimit="10" x1="329.771" y1="84.13" x2="329.771" y2="84.851"/>
					
						<line fill="none" stroke="#FFFFFF" stroke-width="0.6182" stroke-miterlimit="10" stroke-dasharray="1.4031,1.4031" x1="329.771" y1="86.254" x2="329.767" y2="113.615"/>
					
						<line fill="none" stroke="#FFFFFF" stroke-width="0.6182" stroke-miterlimit="10" x1="329.766" y1="114.317" x2="329.766" y2="115.038"/>
				</g>
			</g>
			<g>
				<g>
					
						<line fill="none" stroke="#FFFFFF" stroke-width="0.6182" stroke-miterlimit="10" x1="329.766" y1="115.038" x2="330.384" y2="115.409"/>
					
						<line fill="none" stroke="#FFFFFF" stroke-width="0.6182" stroke-miterlimit="10" stroke-dasharray="1.505,1.505" x1="331.675" y1="116.184" x2="354.259" y2="129.733"/>
					
						<line fill="none" stroke="#FFFFFF" stroke-width="0.6182" stroke-miterlimit="10" x1="354.904" y1="130.121" x2="355.522" y2="130.492"/>
				</g>
			</g>
			<g>
				<g>
					
						<line fill="none" stroke="#FFFFFF" stroke-width="0.6182" stroke-miterlimit="10" x1="329.766" y1="115.038" x2="329.147" y2="115.409"/>
					
						<line fill="none" stroke="#FFFFFF" stroke-width="0.6182" stroke-miterlimit="10" stroke-dasharray="1.505,1.505" x1="327.856" y1="116.184" x2="305.272" y2="129.733"/>
					
						<line fill="none" stroke="#FFFFFF" stroke-width="0.6182" stroke-miterlimit="10" x1="304.628" y1="130.121" x2="304.009" y2="130.492"/>
				</g>
			</g>
		</g>
		<g>
			
				<line fill="none" stroke="#FFFFFF" stroke-width="0.6182" stroke-miterlimit="10" x1="329.771" y1="145.945" x2="329.766" y2="115.038"/>
			
				<line fill="none" stroke="#FFFFFF" stroke-width="0.6182" stroke-miterlimit="10" x1="329.766" y1="115.038" x2="355.522" y2="99.584"/>
			
				<line fill="none" stroke="#FFFFFF" stroke-width="0.6182" stroke-miterlimit="10" x1="329.766" y1="115.038" x2="304.009" y2="99.584"/>
		</g>
	</g>
	
		<rect x="291.372" y="184.002" fill="#FFFFFF" stroke="#FFCE09" stroke-width="0.5" stroke-miterlimit="10" width="77.146" height="6.287"/>
	
		<rect x="291.372" y="59.712" fill="#FFFFFF" stroke="#FFCE09" stroke-width="0.5" stroke-miterlimit="10" width="77.146" height="6.287"/>
	
		<line fill="none" stroke="#FFCE09" stroke-width="5.0128" stroke-miterlimit="10" x1="284.669" y1="66.351" x2="375.331" y2="66.351"/>
	
		<line fill="none" stroke="#FFCE09" stroke-width="5.0128" stroke-miterlimit="10" x1="284.669" y1="183.509" x2="375.331" y2="183.509"/>
	<g>
		<path d="M322.585,152.319h2.006v8.91h-2.006v-3.78h-3.368v3.78h-2.006v-8.91h2.006v3.407h3.368V152.319z"/>
		<path d="M330.133,161.41c-0.626,0-1.166-0.089-1.62-0.264c-0.454-0.176-0.829-0.42-1.125-0.733s-0.515-0.686-0.655-1.118
			c-0.143-0.434-0.213-0.911-0.213-1.434v-5.542h2.006v5.374c0,0.36,0.041,0.667,0.122,0.92c0.081,0.252,0.192,0.459,0.335,0.617
			c0.141,0.158,0.313,0.271,0.514,0.34c0.201,0.069,0.422,0.104,0.662,0.104c0.488,0,0.885-0.15,1.189-0.45s0.457-0.81,0.457-1.53
			v-5.374h2.006v5.542c0,0.522-0.074,1.002-0.219,1.439c-0.146,0.438-0.369,0.813-0.669,1.125s-0.682,0.555-1.145,0.727
			S330.768,161.41,330.133,161.41z"/>
		<path d="M338.709,161.346c-0.488,0-0.976-0.016-1.459-0.045c-0.484-0.031-0.988-0.102-1.512-0.213v-8.641
			c0.412-0.076,0.861-0.135,1.35-0.173c0.489-0.038,0.943-0.058,1.363-0.058c0.566,0,1.087,0.041,1.563,0.121
			c0.476,0.082,0.885,0.221,1.229,0.418c0.342,0.197,0.61,0.457,0.803,0.778c0.193,0.321,0.289,0.718,0.289,1.189
			c0,0.712-0.342,1.272-1.028,1.685c0.565,0.214,0.952,0.506,1.157,0.874c0.206,0.368,0.309,0.784,0.309,1.247
			c0,0.935-0.34,1.637-1.021,2.109C341.068,161.109,340.055,161.346,338.709,161.346z M337.693,155.816h0.977
			c0.617,0,1.059-0.079,1.324-0.238c0.266-0.158,0.398-0.413,0.398-0.765c0-0.36-0.137-0.612-0.411-0.759
			c-0.274-0.146-0.677-0.219-1.208-0.219c-0.172,0-0.356,0.002-0.553,0.007c-0.197,0.005-0.373,0.015-0.527,0.032V155.816z
			 M337.693,157.347v2.302c0.145,0.018,0.304,0.029,0.475,0.038c0.172,0.009,0.361,0.013,0.566,0.013c0.6,0,1.084-0.086,1.453-0.257
			c0.368-0.171,0.553-0.489,0.553-0.952c0-0.41-0.154-0.705-0.463-0.881c-0.309-0.175-0.75-0.263-1.324-0.263H337.693z"/>
	</g>
	<rect x="289.021" y="115.036" fill="#FFCE09" width="3.215" height="17.179"/>
	<rect x="368.312" y="115.036" fill="#FFCE09" width="3.213" height="17.179"/>
</g>
<g>
	
		<rect x="396.372" y="68.883" fill="#FFFFFF" stroke="#6EC498" stroke-width="0.5" stroke-miterlimit="10" width="87.502" height="112.091"/>
	<g>
		<g>
			<g>
				<path fill="#010101" stroke="#FFFFFF" stroke-width="0.2061" stroke-miterlimit="10" d="M439.766,115.682"/>
			</g>
			<g>
				<path fill="#010101" stroke="#FFFFFF" stroke-width="0.2061" stroke-miterlimit="10" d="M439.766,115.682"/>
			</g>
			<g>
				<path fill="#010101" stroke="#FFFFFF" stroke-width="0.2061" stroke-miterlimit="10" d="M439.766,115.682"/>
			</g>
			<g>
				<path fill="#010101" stroke="#FFFFFF" stroke-width="0.2061" stroke-miterlimit="10" d="M439.766,115.682"/>
			</g>
		</g>
		<polyline fill="#3399CC" points="465.522,130.492 452.645,138.218 439.767,145.945 439.767,130.492 439.767,115.038 		"/>
		<polyline fill="#996699" points="465.522,130.492 465.522,115.038 465.522,99.584 452.659,107.311 439.767,115.038 		"/>
		<polyline fill="#F89839" points="439.77,84.13 426.889,91.857 414.009,99.584 426.89,107.311 439.77,115.038 		"/>
		<polyline fill="#EE3968" points="439.767,84.13 452.644,91.857 465.522,99.584 452.645,107.311 439.767,115.038 		"/>
		<polyline fill="#FFCE09" points="414.009,130.492 426.89,138.218 439.77,145.945 439.77,130.492 439.77,115.038 		"/>
		<polyline fill="#6EC498" points="414.011,130.492 414.011,115.038 414.011,99.584 426.889,107.311 439.767,115.038 		"/>
		<g>
			<g>
				<g>
					
						<line fill="none" stroke="#FFFFFF" stroke-width="0.6182" stroke-miterlimit="10" x1="439.771" y1="84.13" x2="439.771" y2="84.851"/>
					
						<line fill="none" stroke="#FFFFFF" stroke-width="0.6182" stroke-miterlimit="10" stroke-dasharray="1.4031,1.4031" x1="439.771" y1="86.254" x2="439.767" y2="113.615"/>
					
						<line fill="none" stroke="#FFFFFF" stroke-width="0.6182" stroke-miterlimit="10" x1="439.766" y1="114.317" x2="439.766" y2="115.038"/>
				</g>
			</g>
			<g>
				<g>
					
						<line fill="none" stroke="#FFFFFF" stroke-width="0.6182" stroke-miterlimit="10" x1="439.766" y1="115.038" x2="440.384" y2="115.409"/>
					
						<line fill="none" stroke="#FFFFFF" stroke-width="0.6182" stroke-miterlimit="10" stroke-dasharray="1.505,1.505" x1="441.675" y1="116.184" x2="464.259" y2="129.733"/>
					
						<line fill="none" stroke="#FFFFFF" stroke-width="0.6182" stroke-miterlimit="10" x1="464.904" y1="130.121" x2="465.522" y2="130.492"/>
				</g>
			</g>
			<g>
				<g>
					
						<line fill="none" stroke="#FFFFFF" stroke-width="0.6182" stroke-miterlimit="10" x1="439.766" y1="115.038" x2="439.147" y2="115.409"/>
					
						<line fill="none" stroke="#FFFFFF" stroke-width="0.6182" stroke-miterlimit="10" stroke-dasharray="1.505,1.505" x1="437.856" y1="116.184" x2="415.272" y2="129.733"/>
					
						<line fill="none" stroke="#FFFFFF" stroke-width="0.6182" stroke-miterlimit="10" x1="414.628" y1="130.121" x2="414.009" y2="130.492"/>
				</g>
			</g>
		</g>
		<g>
			
				<line fill="none" stroke="#FFFFFF" stroke-width="0.6182" stroke-miterlimit="10" x1="439.771" y1="145.945" x2="439.766" y2="115.038"/>
			
				<line fill="none" stroke="#FFFFFF" stroke-width="0.6182" stroke-miterlimit="10" x1="439.766" y1="115.038" x2="465.522" y2="99.584"/>
			
				<line fill="none" stroke="#FFFFFF" stroke-width="0.6182" stroke-miterlimit="10" x1="439.766" y1="115.038" x2="414.009" y2="99.584"/>
		</g>
	</g>
	
		<rect x="401.372" y="184.002" fill="#FFFFFF" stroke="#6EC498" stroke-width="0.5" stroke-miterlimit="10" width="77.146" height="6.287"/>
	
		<rect x="401.372" y="59.712" fill="#FFFFFF" stroke="#6EC498" stroke-width="0.5" stroke-miterlimit="10" width="77.146" height="6.287"/>
	
		<line fill="none" stroke="#6EC498" stroke-width="5.0128" stroke-miterlimit="10" x1="394.669" y1="66.351" x2="485.331" y2="66.351"/>
	
		<line fill="none" stroke="#6EC498" stroke-width="5.0128" stroke-miterlimit="10" x1="394.669" y1="183.509" x2="485.331" y2="183.509"/>
	<g>
		<path d="M432.585,152.319h2.006v8.91h-2.006v-3.78h-3.368v3.78h-2.006v-8.91h2.006v3.407h3.368V152.319z"/>
		<path d="M440.133,161.41c-0.626,0-1.166-0.089-1.62-0.264c-0.454-0.176-0.829-0.42-1.125-0.733s-0.515-0.686-0.655-1.118
			c-0.143-0.434-0.213-0.911-0.213-1.434v-5.542h2.006v5.374c0,0.36,0.041,0.667,0.122,0.92c0.081,0.252,0.192,0.459,0.335,0.617
			c0.141,0.158,0.313,0.271,0.514,0.34c0.201,0.069,0.422,0.104,0.662,0.104c0.488,0,0.885-0.15,1.189-0.45s0.457-0.81,0.457-1.53
			v-5.374h2.006v5.542c0,0.522-0.074,1.002-0.219,1.439c-0.146,0.438-0.369,0.813-0.669,1.125s-0.682,0.555-1.145,0.727
			S440.768,161.41,440.133,161.41z"/>
		<path d="M448.709,161.346c-0.488,0-0.976-0.016-1.459-0.045c-0.484-0.031-0.988-0.102-1.512-0.213v-8.641
			c0.412-0.076,0.861-0.135,1.35-0.173c0.489-0.038,0.943-0.058,1.363-0.058c0.566,0,1.087,0.041,1.563,0.121
			c0.476,0.082,0.885,0.221,1.229,0.418c0.342,0.197,0.61,0.457,0.803,0.778c0.193,0.321,0.289,0.718,0.289,1.189
			c0,0.712-0.342,1.272-1.028,1.685c0.565,0.214,0.952,0.506,1.157,0.874c0.206,0.368,0.309,0.784,0.309,1.247
			c0,0.935-0.34,1.637-1.021,2.109C451.068,161.109,450.055,161.346,448.709,161.346z M447.693,155.816h0.977
			c0.617,0,1.059-0.079,1.324-0.238c0.266-0.158,0.398-0.413,0.398-0.765c0-0.36-0.137-0.612-0.411-0.759
			c-0.274-0.146-0.677-0.219-1.208-0.219c-0.172,0-0.356,0.002-0.553,0.007c-0.197,0.005-0.373,0.015-0.527,0.032V155.816z
			 M447.693,157.347v2.302c0.145,0.018,0.304,0.029,0.475,0.038c0.172,0.009,0.361,0.013,0.566,0.013c0.6,0,1.084-0.086,1.453-0.257
			c0.368-0.171,0.553-0.489,0.553-0.952c0-0.41-0.154-0.705-0.463-0.881c-0.309-0.175-0.75-0.263-1.324-0.263H447.693z"/>
	</g>
	<rect x="399.021" y="115.036" fill="#6EC498" width="3.215" height="17.179"/>
	<rect x="478.312" y="115.036" fill="#6EC498" width="3.213" height="17.179"/>
</g>
<g>
	<path fill="#FFFFFF" d="M125.526,200.207c0.04,0.137,0.084,0.291,0.132,0.462c0.048,0.172,0.1,0.35,0.155,0.533
		c0.055,0.183,0.11,0.366,0.167,0.55s0.112,0.354,0.165,0.51c0.043-0.17,0.088-0.354,0.133-0.555c0.045-0.2,0.088-0.407,0.128-0.62
		c0.04-0.214,0.079-0.426,0.118-0.638s0.075-0.416,0.108-0.612h0.81c-0.117,0.58-0.252,1.168-0.405,1.765
		c-0.153,0.597-0.318,1.163-0.496,1.7h-0.713c-0.117-0.32-0.229-0.656-0.339-1.008s-0.218-0.704-0.324-1.058
		c-0.107,0.354-0.214,0.706-0.321,1.058c-0.106,0.352-0.218,0.688-0.335,1.008h-0.713c-0.178-0.537-0.343-1.104-0.495-1.7
		c-0.152-0.597-0.287-1.185-0.404-1.765h0.845c0.034,0.196,0.07,0.4,0.111,0.612c0.04,0.212,0.082,0.424,0.125,0.638
		c0.043,0.213,0.088,0.42,0.133,0.62c0.045,0.2,0.091,0.385,0.138,0.555c0.06-0.163,0.118-0.337,0.175-0.52
		c0.057-0.184,0.112-0.367,0.165-0.551c0.054-0.183,0.103-0.359,0.148-0.529s0.086-0.322,0.123-0.455H125.526z"/>
	<path fill="#FFFFFF" d="M128.703,199.912c0,0.137-0.044,0.244-0.132,0.322c-0.088,0.078-0.193,0.117-0.313,0.117
		c-0.12,0-0.225-0.039-0.313-0.117c-0.088-0.078-0.133-0.186-0.133-0.322s0.044-0.244,0.133-0.323
		c0.088-0.078,0.192-0.117,0.313-0.117c0.12,0,0.224,0.039,0.313,0.117C128.658,199.668,128.703,199.775,128.703,199.912z
		 M128.633,203.302h-0.745v-2.63h0.745V203.302z"/>
	<path fill="#FFFFFF" d="M129.107,201.472h1.45v0.675h-1.45V201.472z"/>
	<path fill="#FFFFFF" d="M131.083,203.302v-3.465h2.32v0.655h-1.54v0.725h1.37v0.655h-1.37v1.43H131.083z"/>
	<path fill="#FFFFFF" d="M134.718,199.912c0,0.137-0.044,0.244-0.132,0.322c-0.088,0.078-0.193,0.117-0.313,0.117
		c-0.12,0-0.225-0.039-0.313-0.117c-0.088-0.078-0.133-0.186-0.133-0.322s0.044-0.244,0.133-0.323
		c0.088-0.078,0.192-0.117,0.313-0.117c0.12,0,0.224,0.039,0.313,0.117C134.673,199.668,134.718,199.775,134.718,199.912z
		 M134.648,203.302h-0.745v-2.63h0.745V203.302z"/>
</g>
</svg>
