<?xml version="1.0" encoding="utf-8"?>
<!-- Generator: Adobe Illustrator 19.1.0, SVG Export Plug-In . SVG Version: 6.00 Build 0)  -->
<svg version="1.1" id="Layer_1" xmlns="http://www.w3.org/2000/svg" xmlns:xlink="http://www.w3.org/1999/xlink" x="0px" y="0px"
	 viewBox="-55 197 600 400" style="enable-background:new -55 197 600 400;" xml:space="preserve">
<style type="text/css">
	.st0{fill:none;stroke:#000000;stroke-width:1.2244;stroke-miterlimit:10;}
	.st1{fill:none;stroke:#000000;stroke-width:1.2244;stroke-linecap:square;}
	.st2{fill:none;stroke:#000000;stroke-width:1.2244;stroke-dasharray:4.5916;}
	.st3{fill:#FFFFFF;stroke:#000000;stroke-width:0.6283;stroke-miterlimit:10;}
	.st4{fill:#010101;stroke:#FFFFFF;stroke-width:0.2498;stroke-miterlimit:10;}
	.st5{fill:#3399CC;}
	.st6{fill:#996699;}
	.st7{fill:#F89839;}
	.st8{fill:#EE3968;}
	.st9{fill:#FFCE09;}
	.st10{fill:#6EC498;}
	.st11{fill:none;stroke:#FFFFFF;stroke-width:0.7494;stroke-miterlimit:10;}
	.st12{fill:none;stroke:#FFFFFF;stroke-width:0.7494;stroke-miterlimit:10;stroke-dasharray:1.7007,1.7007;}
	.st13{fill:none;stroke:#FFFFFF;stroke-width:0.7494;stroke-miterlimit:10;stroke-dasharray:1.8243,1.8243;}
</style>
<g>
	<path class="st0" d="M394.5,442.2h-2.8v-4.9h2.8V442.2z M386.8,442.2h-4.9v-4.9h4.9V442.2z M377,442.2h-4.9v-4.9h4.9V442.2z
		 M367.2,442.2h-4.9v-4.9h4.9V442.2z M357.4,442.2h-4.9v-4.9h4.9V442.2z M347.6,442.2h-4.9v-4.9h4.9V442.2z M337.8,442.2h-4.9v-4.9
		h4.9V442.2z M328,442.2h-4.9v-4.9h4.9V442.2z M318.2,442.2h-4.9v-4.9h4.9V442.2z M308.4,442.2h-4.9v-4.9h4.9V442.2z M298.6,442.2
		h-4.9v-4.9h4.9V442.2z"/>
	<path class="st0" d="M198.6,442.2h-2.8v-4.9h2.8V442.2z M190.9,442.2H186v-4.9h4.9V442.2z M181.1,442.2h-4.9v-4.9h4.9V442.2z
		 M171.3,442.2h-4.9v-4.9h4.9V442.2z M161.5,442.2h-4.9v-4.9h4.9V442.2z M151.7,442.2h-4.9v-4.9h4.9V442.2z M141.9,442.2H137v-4.9
		h4.9V442.2z M132.1,442.2h-4.9v-4.9h4.9V442.2z M122.3,442.2h-4.9v-4.9h4.9V442.2z M112.5,442.2h-4.9v-4.9h4.9V442.2z M102.7,442.2
		h-4.9v-4.9h4.9V442.2z"/>
	<g>
		<rect x="328.6" y="394.3" class="st1" width="24.2" height="30.6"/>
		<line class="st2" x1="332.5" y1="394.3" x2="332.5" y2="424.9"/>
		<line class="st2" x1="349.3" y1="394.3" x2="349.3" y2="424.9"/>
	</g>
	<g>
		<g>
			<path class="st0" d="M-19.6,306l-3.4-3.4c40.8-40.8,107.1-40.8,147.9,0l-3.4,3.4C82.5,267.1,19.3,267.1-19.6,306z"/>
			<path class="st0" d="M102.5,324.9c-28.4-28.4-74.8-28.4-103.2,0l-3.4-3.4c30.4-30.4,79.7-30.4,110.1,0L102.5,324.9z"/>
			<path class="st0" d="M80.4,345.2c-7.8-7.8-18.4-12.2-29.5-12.2s-21.6,4.3-29.5,12.2l-3.4-3.4c8.8-8.8,20.4-13.7,32.9-13.7
				s24.1,4.9,32.9,13.7L80.4,345.2z"/>
		</g>
	</g>
	<g>
		<g>
			<path class="st0" d="M175.1,306l-3.4-3.4c40.8-40.8,107.1-40.8,147.9,0l-3.4,3.4C277.2,267.1,214,267.1,175.1,306z"/>
			<path class="st0" d="M297.3,324.9c-28.4-28.4-74.8-28.4-103.2,0l-3.4-3.4c30.4-30.4,79.7-30.4,110.1,0L297.3,324.9z"/>
			<path class="st0" d="M275.1,345.2c-7.8-7.8-18.4-12.2-29.5-12.2s-21.6,4.3-29.5,12.2l-3.4-3.4c8.8-8.8,20.4-13.7,32.9-13.7
				c12.5,0,24.1,4.9,32.9,13.7L275.1,345.2z"/>
		</g>
	</g>
	<g>
		<g>
			<path class="st0" d="M368.5,306l-3.4-3.4c40.8-40.8,107.1-40.8,147.9,0l-3.4,3.4C470.7,267.1,407.5,267.1,368.5,306z"/>
			<path class="st0" d="M490.6,324.9c-28.4-28.4-74.8-28.4-103.2,0l-3.4-3.4c30.4-30.4,79.7-30.4,110.1,0L490.6,324.9z"/>
			<path class="st0" d="M468.6,345.2c-7.8-7.8-18.4-12.2-29.5-12.2c-11.1,0-21.6,4.3-29.5,12.2l-3.4-3.4
				c8.8-8.8,20.4-13.7,32.9-13.7c12.5,0,24.1,4.9,32.9,13.7L468.6,345.2z"/>
		</g>
	</g>
	<rect x="-4.3" y="374.8" class="st3" width="106" height="135.9"/>
	<g>
		<g>
			<g>
				<path class="st4" d="M48.2,431.5"/>
			</g>
			<g>
				<path class="st4" d="M48.2,431.5"/>
			</g>
			<g>
				<path class="st4" d="M48.2,431.5"/>
			</g>
			<g>
				<path class="st4" d="M48.2,431.5"/>
			</g>
		</g>
		<polyline class="st5" points="79.5,449.5 63.9,458.8 48.2,468.2 48.2,449.5 48.2,430.8 		"/>
		<polyline class="st6" points="79.5,449.5 79.5,430.8 79.5,412 63.9,421.4 48.2,430.8 		"/>
		<polyline class="st7" points="48.2,393.3 32.7,402.6 17,412 32.7,421.4 48.2,430.8 		"/>
		<polyline class="st8" points="48.2,393.3 63.9,402.6 79.5,412 63.9,421.4 48.2,430.8 		"/>
		<polyline class="st9" points="17,449.5 32.7,458.8 48.2,468.2 48.2,449.5 48.2,430.8 		"/>
		<polyline class="st10" points="17.1,449.5 17.1,430.8 17.1,412 32.7,421.4 48.2,430.8 		"/>
		<g>
			<g>
				<g>
					<line class="st11" x1="48.4" y1="393.3" x2="48.4" y2="394.2"/>
					<line class="st12" x1="48.4" y1="395.9" x2="48.2" y2="429.1"/>
					<line class="st11" x1="48.2" y1="429.9" x2="48.2" y2="430.8"/>
				</g>
			</g>
			<g>
				<g>
					<line class="st11" x1="48.2" y1="430.8" x2="49.1" y2="431.3"/>
					<line class="st13" x1="50.6" y1="432.1" x2="78" y2="448.5"/>
					<line class="st11" x1="78.7" y1="449" x2="79.5" y2="449.5"/>
				</g>
			</g>
			<g>
				<g>
					<line class="st11" x1="48.2" y1="430.8" x2="47.5" y2="431.3"/>
					<line class="st13" x1="46" y1="432.1" x2="18.6" y2="448.5"/>
					<line class="st11" x1="17.9" y1="449" x2="17" y2="449.5"/>
				</g>
			</g>
		</g>
		<g>
			<line class="st11" x1="48.4" y1="468.2" x2="48.2" y2="430.8"/>
			<line class="st11" x1="48.2" y1="430.8" x2="79.5" y2="412"/>
			<line class="st11" x1="48.2" y1="430.8" x2="17" y2="412"/>
		</g>
	</g>
	<rect x="1.7" y="514.4" class="st3" width="93.5" height="7.6"/>
	<rect x="1.7" y="363.7" class="st3" width="93.5" height="7.6"/>
	<rect x="-6.4" y="368.5" width="110" height="6.5"/>
	<rect x="-6.4" y="510.5" width="110" height="6.5"/>
	<g>
		<path d="M39.5,476H42v10.8h-2.4v-4.5h-4v4.5H33V476h2.4v4.2h4V476z"/>
		<path d="M48.7,487c-0.7,0-1.5-0.1-2-0.4c-0.5-0.2-1-0.5-1.3-0.9c-0.4-0.4-0.6-0.9-0.7-1.3c-0.1-0.5-0.2-1.1-0.2-1.7V476h2.4v6.5
			c0,0.5,0,0.9,0.1,1.1c0.1,0.4,0.2,0.6,0.4,0.7c0.1,0.2,0.4,0.4,0.6,0.4c0.2,0.1,0.5,0.1,0.9,0.1c0.6,0,1.1-0.1,1.5-0.5
			c0.4-0.4,0.6-1,0.6-1.8V476h2.4v6.7c0,0.6-0.1,1.2-0.2,1.7c-0.1,0.5-0.5,1-0.9,1.3c-0.4,0.4-0.9,0.6-1.3,0.9
			C50.4,486.9,49.5,487,48.7,487z"/>
		<path d="M59.1,486.9c-0.6,0-1.2,0-1.7,0c-0.6,0-1.2-0.1-1.8-0.2v-10.5c0.5-0.1,1.1-0.1,1.6-0.2c0.6,0,1.1-0.1,1.6-0.1
			c0.7,0,1.3,0,1.8,0.1c0.6,0.1,1.1,0.2,1.5,0.5c0.4,0.2,0.7,0.6,1,1c0.2,0.4,0.4,0.9,0.4,1.5c0,0.9-0.4,1.6-1.2,2.1
			c0.7,0.2,1.1,0.6,1.3,1.1c0.2,0.5,0.4,1,0.4,1.5c0,1.1-0.4,2-1.2,2.6C61.9,486.6,60.7,486.9,59.1,486.9z M57.9,480.2h1.2
			c0.7,0,1.2-0.1,1.6-0.2c0.4-0.2,0.5-0.5,0.5-1s-0.1-0.7-0.5-1c-0.4-0.1-0.9-0.2-1.5-0.2c-0.2,0-0.5,0-0.6,0c-0.2,0-0.5,0-0.6,0
			L57.9,480.2L57.9,480.2z M57.9,482.1v2.8c0.1,0,0.4,0,0.6,0s0.5,0,0.7,0c0.7,0,1.3-0.1,1.7-0.4c0.5-0.2,0.6-0.6,0.6-1.1
			s-0.2-0.9-0.6-1.1c-0.4-0.2-0.9-0.4-1.6-0.4h-1.5V482.1z"/>
	</g>
	<rect x="-1.1" y="430.8" width="3.9" height="20.8"/>
	<rect x="95" y="430.8" width="3.9" height="20.8"/>
	<rect x="191.6" y="374.8" class="st3" width="106" height="135.9"/>
	<g>
		<g>
			<g>
				<path class="st4" d="M244.1,431.5"/>
			</g>
			<g>
				<path class="st4" d="M244.1,431.5"/>
			</g>
			<g>
				<path class="st4" d="M244.1,431.5"/>
			</g>
			<g>
				<path class="st4" d="M244.1,431.5"/>
			</g>
		</g>
		<polyline class="st5" points="275.4,449.5 259.8,458.8 244.1,468.2 244.1,449.5 244.1,430.8 		"/>
		<polyline class="st6" points="275.4,449.5 275.4,430.8 275.4,412 259.8,421.4 244.1,430.8 		"/>
		<polyline class="st7" points="244.3,393.3 228.6,402.6 212.9,412 228.6,421.4 244.3,430.8 		"/>
		<polyline class="st8" points="244.1,393.3 259.8,402.6 275.4,412 259.8,421.4 244.1,430.8 		"/>
		<polyline class="st9" points="212.9,449.5 228.6,458.8 244.3,468.2 244.3,449.5 244.3,430.8 		"/>
		<polyline class="st10" points="213,449.5 213,430.8 213,412 228.6,421.4 244.1,430.8 		"/>
		<g>
			<g>
				<g>
					<line class="st11" x1="244.3" y1="393.3" x2="244.3" y2="394.2"/>
					<line class="st12" x1="244.3" y1="395.9" x2="244.1" y2="429.1"/>
					<line class="st11" x1="244.1" y1="429.9" x2="244.1" y2="430.8"/>
				</g>
			</g>
			<g>
				<g>
					<line class="st11" x1="244.1" y1="430.8" x2="245" y2="431.3"/>
					<line class="st13" x1="246.5" y1="432.1" x2="273.9" y2="448.5"/>
					<line class="st11" x1="274.6" y1="449" x2="275.4" y2="449.5"/>
				</g>
			</g>
			<g>
				<g>
					<line class="st11" x1="244.1" y1="430.8" x2="243.4" y2="431.3"/>
					<line class="st13" x1="241.9" y1="432.1" x2="214.5" y2="448.5"/>
					<line class="st11" x1="213.8" y1="449" x2="212.9" y2="449.5"/>
				</g>
			</g>
		</g>
		<g>
			<line class="st11" x1="244.3" y1="468.2" x2="244.1" y2="430.8"/>
			<line class="st11" x1="244.1" y1="430.8" x2="275.4" y2="412"/>
			<line class="st11" x1="244.1" y1="430.8" x2="212.9" y2="412"/>
		</g>
	</g>
	<rect x="197.6" y="514.4" class="st3" width="93.5" height="7.6"/>
	<rect x="197.6" y="363.7" class="st3" width="93.5" height="7.6"/>
	<rect x="189.5" y="368.5" width="110" height="6.5"/>
	<rect x="189.5" y="510.5" width="110" height="6.5"/>
	<g>
		<path d="M235.4,476h2.4v10.8h-2.4v-4.5h-4v4.5H229V476h2.4v4.2h4V476z"/>
		<path d="M244.6,487c-0.7,0-1.5-0.1-2-0.4c-0.5-0.2-1-0.5-1.3-0.9c-0.4-0.4-0.6-0.9-0.7-1.3c-0.1-0.5-0.2-1.1-0.2-1.7V476h2.4v6.5
			c0,0.5,0,0.9,0.1,1.1c0.1,0.4,0.2,0.6,0.4,0.7c0.1,0.2,0.4,0.4,0.6,0.4c0.2,0.1,0.5,0.1,0.9,0.1c0.6,0,1.1-0.1,1.5-0.5
			c0.4-0.4,0.6-1,0.6-1.8V476h2.4v6.7c0,0.6-0.1,1.2-0.2,1.7c-0.1,0.5-0.5,1-0.9,1.3s-0.9,0.6-1.3,0.9S245.4,487,244.6,487z"/>
		<path d="M255,486.9c-0.6,0-1.2,0-1.7,0c-0.6,0-1.2-0.1-1.8-0.2v-10.5c0.5-0.1,1.1-0.1,1.6-0.2c0.6,0,1.1-0.1,1.7-0.1
			c0.7,0,1.3,0,1.8,0.1c0.6,0.1,1.1,0.2,1.5,0.5c0.4,0.2,0.7,0.6,1,1c0.2,0.4,0.4,0.9,0.4,1.5c0,0.9-0.4,1.6-1.2,2.1
			c0.7,0.2,1.1,0.6,1.3,1.1c0.2,0.5,0.4,1,0.4,1.5c0,1.1-0.4,2-1.2,2.6C257.9,486.6,256.6,486.9,255,486.9z M253.8,480.2h1.2
			c0.7,0,1.2-0.1,1.6-0.2c0.4-0.2,0.5-0.5,0.5-1s-0.1-0.7-0.5-1c-0.4-0.1-0.9-0.2-1.5-0.2c-0.2,0-0.5,0-0.6,0c-0.2,0-0.5,0-0.6,0
			L253.8,480.2L253.8,480.2z M253.8,482.1v2.8c0.1,0,0.4,0,0.6,0c0.2,0,0.5,0,0.7,0c0.7,0,1.3-0.1,1.7-0.4c0.5-0.2,0.6-0.6,0.6-1.1
			s-0.2-0.9-0.6-1.1c-0.4-0.2-0.9-0.4-1.6-0.4h-1.5V482.1z"/>
	</g>
	<rect x="194.8" y="430.8" width="3.9" height="20.8"/>
	<rect x="290.9" y="430.8" width="3.9" height="20.8"/>
	<rect x="387.5" y="374.8" class="st3" width="106" height="135.9"/>
	<g>
		<g>
			<g>
				<path class="st4" d="M440.1,431.5"/>
			</g>
			<g>
				<path class="st4" d="M440.1,431.5"/>
			</g>
			<g>
				<path class="st4" d="M440.1,431.5"/>
			</g>
			<g>
				<path class="st4" d="M440.1,431.5"/>
			</g>
		</g>
		<polyline class="st5" points="471.3,449.5 455.7,458.8 440.1,468.2 440.1,449.5 440.1,430.8 		"/>
		<polyline class="st6" points="471.3,449.5 471.3,430.8 471.3,412 455.7,421.4 440.1,430.8 		"/>
		<polyline class="st7" points="440.2,393.3 424.5,402.6 408.8,412 424.5,421.4 440.2,430.8 		"/>
		<polyline class="st8" points="440.1,393.3 455.7,402.6 471.3,412 455.7,421.4 440.1,430.8 		"/>
		<polyline class="st9" points="408.8,449.5 424.5,458.8 440.2,468.2 440.2,449.5 440.2,430.8 		"/>
		<polyline class="st10" points="409,449.5 409,430.8 409,412 424.5,421.4 440.1,430.8 		"/>
		<g>
			<g>
				<g>
					<line class="st11" x1="440.2" y1="393.3" x2="440.2" y2="394.2"/>
					<line class="st12" x1="440.2" y1="395.9" x2="440.1" y2="429.1"/>
					<line class="st11" x1="440.1" y1="429.9" x2="440.1" y2="430.8"/>
				</g>
			</g>
			<g>
				<g>
					<line class="st11" x1="440.1" y1="430.8" x2="440.9" y2="431.3"/>
					<line class="st13" x1="442.4" y1="432.1" x2="469.8" y2="448.5"/>
					<line class="st11" x1="470.5" y1="449" x2="471.3" y2="449.5"/>
				</g>
			</g>
			<g>
				<g>
					<line class="st11" x1="440.1" y1="430.8" x2="439.3" y2="431.3"/>
					<line class="st13" x1="437.8" y1="432.1" x2="410.4" y2="448.5"/>
					<line class="st11" x1="409.7" y1="449" x2="408.8" y2="449.5"/>
				</g>
			</g>
		</g>
		<g>
			<line class="st11" x1="440.2" y1="468.2" x2="440.1" y2="430.8"/>
			<line class="st11" x1="440.1" y1="430.8" x2="471.3" y2="412"/>
			<line class="st11" x1="440.1" y1="430.8" x2="408.8" y2="412"/>
		</g>
	</g>
	<rect x="393.5" y="514.4" class="st3" width="93.5" height="7.6"/>
	<rect x="393.5" y="363.7" class="st3" width="93.5" height="7.6"/>
	<rect x="385.4" y="368.5" width="110" height="6.5"/>
	<rect x="385.4" y="510.5" width="110" height="6.5"/>
	<g>
		<path d="M431.4,476h2.4v10.8h-2.4v-4.5h-4v4.5h-2.4V476h2.4v4.2h4V476z"/>
		<path d="M440.5,487c-0.7,0-1.5-0.1-2-0.4c-0.5-0.2-1-0.5-1.3-0.9c-0.4-0.4-0.6-0.9-0.7-1.3c-0.1-0.5-0.2-1.1-0.2-1.7V476h2.4v6.5
			c0,0.5,0,0.9,0.1,1.1c0.1,0.4,0.2,0.6,0.4,0.7c0.1,0.2,0.4,0.4,0.6,0.4c0.2,0.1,0.5,0.1,0.9,0.1c0.6,0,1.1-0.1,1.5-0.5
			c0.4-0.4,0.6-1,0.6-1.8V476h2.4v6.7c0,0.6-0.1,1.2-0.2,1.7c-0.1,0.5-0.5,1-0.9,1.3c-0.4,0.4-0.9,0.6-1.3,0.9S441.3,487,440.5,487z
			"/>
		<path d="M451,486.9c-0.6,0-1.2,0-1.7,0c-0.6,0-1.2-0.1-1.8-0.2v-10.5c0.5-0.1,1.1-0.1,1.6-0.2c0.6,0,1.1-0.1,1.7-0.1
			c0.7,0,1.3,0,1.8,0.1c0.6,0.1,1.1,0.2,1.5,0.5c0.4,0.2,0.7,0.6,1,1c0.2,0.4,0.4,0.9,0.4,1.5c0,0.9-0.4,1.6-1.2,2.1
			c0.7,0.2,1.1,0.6,1.3,1.1c0.2,0.5,0.4,1,0.4,1.5c0,1.1-0.4,2-1.2,2.6C453.8,486.6,452.5,486.9,451,486.9z M449.7,480.2h1.2
			c0.7,0,1.2-0.1,1.6-0.2c0.4-0.2,0.5-0.5,0.5-1s-0.1-0.7-0.5-1c-0.4-0.1-0.9-0.2-1.5-0.2c-0.2,0-0.5,0-0.6,0c-0.2,0-0.5,0-0.6,0
			L449.7,480.2L449.7,480.2z M449.7,482.1v2.8c0.1,0,0.4,0,0.6,0s0.5,0,0.7,0c0.7,0,1.3-0.1,1.7-0.4c0.5-0.2,0.6-0.6,0.6-1.1
			s-0.2-0.9-0.6-1.1c-0.4-0.2-0.9-0.4-1.6-0.4h-1.5V482.1z"/>
	</g>
	<rect x="390.7" y="430.8" width="3.9" height="20.8"/>
	<rect x="486.8" y="430.8" width="3.9" height="20.8"/>
	<g>
		<polyline class="st1" points="137.2,421.5 137.2,398.3 159.8,398.3 159.8,421.5 		"/>
		<circle class="st1" cx="134.8" cy="422.6" r="2.7"/>
		<path class="st1" d="M157.3,419.9c1.5,0,2.7,1.2,2.7,2.7c0,1.5-1.2,2.7-2.7,2.7c-1.5,0-2.7-1.2-2.7-2.7
			C154.6,421.1,155.9,419.9,157.3,419.9z"/>
	</g>
</g>
</svg>
