<?xml version="1.0" encoding="utf-8"?>
<!-- Generator: Adobe Illustrator 16.0.0, SVG Export Plug-In . SVG Version: 6.00 Build 0)  -->
<!DOCTYPE svg PUBLIC "-//W3C//DTD SVG 1.1//EN" "http://www.w3.org/Graphics/SVG/1.1/DTD/svg11.dtd">
<svg version="1.1" id="Layer_1" xmlns="http://www.w3.org/2000/svg" xmlns:xlink="http://www.w3.org/1999/xlink" x="0px" y="0px"
	 width="550px" height="250px" viewBox="0 0 550 250" enable-background="new 0 0 550 250" xml:space="preserve">
<line fill="none" stroke="#996699" stroke-width="4" stroke-dasharray="4" x1="314.821" y1="165.127" x2="397.093" y2="165.127"/>
<line fill="none" stroke="#996699" stroke-width="4" stroke-dasharray="4" x1="154.822" y1="165.127" x2="237.092" y2="165.127"/>
<g>
	
		<rect x="343.296" y="128.043" fill="none" stroke="#996699" stroke-width="4" stroke-linecap="square" width="19.82" height="25.001"/>
	
		<line fill="none" stroke="#996699" stroke-width="4" stroke-dasharray="3.75" x1="346.487" y1="128.043" x2="346.487" y2="153.044"/>
	
		<line fill="none" stroke="#996699" stroke-width="4" stroke-dasharray="3.75" x1="360.237" y1="128.043" x2="360.237" y2="153.044"/>
</g>
<g>
	<g>
		<path fill="none" stroke="#6EC498" stroke-width="4" stroke-miterlimit="10" d="M57.519,54.446
			c32.606-32.594,85.368-32.593,117.963,0"/>
		<path fill="none" stroke="#6EC498" stroke-width="4" stroke-miterlimit="10" d="M72.948,69.876
			c24.074-24.066,63.03-24.066,87.115,0"/>
		<path fill="none" stroke="#6EC498" stroke-width="4" stroke-miterlimit="10" d="M91.018,86.498
			c14.079-14.097,36.897-14.097,50.988,0"/>
	</g>
</g>
<g>
	<g>
		<path fill="none" stroke="#6EC498" stroke-width="4" stroke-miterlimit="10" d="M216.519,54.446
			c32.607-32.594,85.367-32.594,117.963,0"/>
		<path fill="none" stroke="#6EC498" stroke-width="4" stroke-miterlimit="10" d="M231.948,69.876
			c24.074-24.066,63.03-24.066,87.116,0"/>
		<path fill="none" stroke="#6EC498" stroke-width="4" stroke-miterlimit="10" d="M250.018,86.498
			c14.079-14.097,36.897-14.097,50.988,0"/>
	</g>
</g>
<g>
	<g>
		<path fill="none" stroke="#6EC498" stroke-width="4" stroke-miterlimit="10" d="M374.519,54.446
			c32.607-32.594,85.367-32.594,117.963,0"/>
		<path fill="none" stroke="#6EC498" stroke-width="4" stroke-miterlimit="10" d="M389.948,69.876
			c24.073-24.066,63.029-24.066,87.115,0"/>
		<path fill="none" stroke="#6EC498" stroke-width="4" stroke-miterlimit="10" d="M408.018,86.498
			c14.079-14.097,36.897-14.097,50.988,0"/>
	</g>
</g>
<g>
	
		<rect x="71.387" y="112.093" fill="#FFFFFF" stroke="#EF4069" stroke-width="0.5131" stroke-miterlimit="10" width="86.626" height="110.967"/>
	<g>
		<g>
			<g>
				<path fill="#010101" stroke="#FFFFFF" stroke-width="0.204" stroke-miterlimit="10" d="M114.347,158.422"/>
			</g>
			<g>
				<path fill="#010101" stroke="#FFFFFF" stroke-width="0.204" stroke-miterlimit="10" d="M114.347,158.422"/>
			</g>
			<g>
				<path fill="#010101" stroke="#FFFFFF" stroke-width="0.204" stroke-miterlimit="10" d="M114.347,158.422"/>
			</g>
			<g>
				<path fill="#010101" stroke="#FFFFFF" stroke-width="0.204" stroke-miterlimit="10" d="M114.347,158.422"/>
			</g>
		</g>
		<polyline fill="#3399CC" points="139.845,173.084 127.096,180.732 114.348,188.383 114.348,173.084 114.348,157.785 		"/>
		<polyline fill="#996699" points="139.845,173.084 139.845,157.785 139.845,142.487 127.11,150.136 114.348,157.785 		"/>
		<polyline fill="#F89839" points="114.35,127.188 101.599,134.836 88.848,142.487 101.599,150.136 114.35,157.785 		"/>
		<polyline fill="#EE3968" points="114.348,127.188 127.095,134.836 139.845,142.487 127.096,150.136 114.348,157.785 		"/>
		<polyline fill="#FFCE09" points="88.848,173.084 101.599,180.732 114.35,188.383 114.35,173.084 114.35,157.785 		"/>
		<polyline fill="#6EC498" points="88.851,173.084 88.851,157.785 88.851,142.487 101.599,150.136 114.348,157.785 		"/>
		<g>
			<g>
				<g>
					
						<line fill="none" stroke="#FFFFFF" stroke-width="0.612" stroke-miterlimit="10" x1="114.352" y1="127.188" x2="114.352" y2="127.901"/>
					
						<line fill="none" stroke="#FFFFFF" stroke-width="0.612" stroke-miterlimit="10" stroke-dasharray="1.389,1.389" x1="114.351" y1="129.29" x2="114.347" y2="156.377"/>
					
						<line fill="none" stroke="#FFFFFF" stroke-width="0.612" stroke-miterlimit="10" x1="114.347" y1="157.071" x2="114.347" y2="157.785"/>
				</g>
			</g>
			<g>
				<g>
					
						<line fill="none" stroke="#FFFFFF" stroke-width="0.612" stroke-miterlimit="10" x1="114.347" y1="157.785" x2="114.959" y2="158.152"/>
					
						<line fill="none" stroke="#FFFFFF" stroke-width="0.612" stroke-miterlimit="10" stroke-dasharray="1.4899,1.4899" x1="116.236" y1="158.919" x2="138.594" y2="172.333"/>
					
						<line fill="none" stroke="#FFFFFF" stroke-width="0.612" stroke-miterlimit="10" x1="139.233" y1="172.717" x2="139.845" y2="173.084"/>
				</g>
			</g>
			<g>
				<g>
					
						<line fill="none" stroke="#FFFFFF" stroke-width="0.612" stroke-miterlimit="10" x1="114.347" y1="157.785" x2="113.734" y2="158.152"/>
					
						<line fill="none" stroke="#FFFFFF" stroke-width="0.612" stroke-miterlimit="10" stroke-dasharray="1.4899,1.4899" x1="112.457" y1="158.919" x2="90.099" y2="172.333"/>
					
						<line fill="none" stroke="#FFFFFF" stroke-width="0.612" stroke-miterlimit="10" x1="89.46" y1="172.717" x2="88.848" y2="173.084"/>
				</g>
			</g>
		</g>
		<g>
			
				<line fill="none" stroke="#FFFFFF" stroke-width="0.612" stroke-miterlimit="10" x1="114.352" y1="188.383" x2="114.347" y2="157.785"/>
			
				<line fill="none" stroke="#FFFFFF" stroke-width="0.612" stroke-miterlimit="10" x1="114.347" y1="157.785" x2="139.845" y2="142.487"/>
			
				<line fill="none" stroke="#FFFFFF" stroke-width="0.612" stroke-miterlimit="10" x1="114.347" y1="157.785" x2="88.848" y2="142.487"/>
		</g>
	</g>
	
		<rect x="76.338" y="226.058" fill="#FFFFFF" stroke="#EF4069" stroke-width="0.5131" stroke-miterlimit="10" width="76.372" height="6.224"/>
	
		<rect x="76.338" y="103.015" fill="#FFFFFF" stroke="#EF4069" stroke-width="0.5131" stroke-miterlimit="10" width="76.372" height="6.224"/>
	
		<line fill="none" stroke="#EE3968" stroke-width="5.3172" stroke-miterlimit="10" x1="69.702" y1="109.586" x2="159.455" y2="109.586"/>
	
		<line fill="none" stroke="#EE3968" stroke-width="5.3172" stroke-miterlimit="10" x1="69.702" y1="225.569" x2="159.455" y2="225.569"/>
	<g>
		<path d="M107.238,194.692h1.985v8.821h-1.985v-3.742h-3.335v3.742h-1.986v-8.821h1.986v3.373h3.335V194.692z"/>
		<path d="M114.71,203.691c-0.62,0-1.154-0.087-1.604-0.261c-0.449-0.174-0.82-0.415-1.113-0.726
			c-0.293-0.31-0.509-0.679-0.649-1.107c-0.14-0.428-0.21-0.901-0.21-1.419v-5.486h1.985v5.321c0,0.356,0.041,0.659,0.121,0.91
			c0.081,0.25,0.191,0.454,0.331,0.61c0.141,0.157,0.31,0.27,0.51,0.338c0.199,0.067,0.417,0.102,0.655,0.102
			c0.483,0,0.876-0.148,1.177-0.445c0.302-0.297,0.452-0.802,0.452-1.515v-5.321h1.985v5.486c0,0.518-0.071,0.993-0.216,1.426
			s-0.365,0.804-0.662,1.113c-0.297,0.311-0.675,0.55-1.133,0.72S115.338,203.691,114.71,203.691z"/>
		<path d="M123.199,203.628c-0.483,0-0.965-0.015-1.444-0.044c-0.479-0.03-0.979-0.1-1.496-0.21v-8.554
			c0.408-0.077,0.854-0.134,1.337-0.172s0.934-0.058,1.35-0.058c0.56,0,1.075,0.04,1.546,0.121c0.472,0.081,0.876,0.219,1.216,0.414
			s0.604,0.451,0.796,0.77c0.19,0.318,0.286,0.711,0.286,1.178c0,0.704-0.34,1.26-1.019,1.667c0.561,0.213,0.942,0.501,1.146,0.866
			c0.204,0.364,0.306,0.776,0.306,1.234c0,0.925-0.337,1.621-1.012,2.087C125.535,203.395,124.531,203.628,123.199,203.628z
			 M122.194,198.155h0.967c0.611,0,1.048-0.079,1.312-0.235c0.263-0.157,0.395-0.41,0.395-0.758c0-0.356-0.136-0.606-0.407-0.751
			s-0.671-0.217-1.196-0.217c-0.17,0-0.353,0.003-0.548,0.007s-0.369,0.015-0.521,0.031V198.155z M122.194,199.67v2.278
			c0.144,0.017,0.301,0.029,0.471,0.038s0.356,0.013,0.56,0.013c0.595,0,1.074-0.085,1.438-0.255
			c0.365-0.169,0.548-0.483,0.548-0.941c0-0.407-0.153-0.698-0.458-0.872c-0.306-0.174-0.743-0.261-1.312-0.261H122.194z"/>
	</g>
	<rect x="74.011" y="157.784" fill="#EE3968" width="3.183" height="17.007"/>
	<rect x="152.505" y="157.784" fill="#EE3968" width="3.182" height="17.007"/>
</g>
<g>
	
		<rect x="231.387" y="112.093" fill="#FFFFFF" stroke="#EF4069" stroke-width="0.5131" stroke-miterlimit="10" width="86.626" height="110.967"/>
	<g>
		<g>
			<g>
				<path fill="#010101" stroke="#FFFFFF" stroke-width="0.204" stroke-miterlimit="10" d="M274.347,158.422"/>
			</g>
			<g>
				<path fill="#010101" stroke="#FFFFFF" stroke-width="0.204" stroke-miterlimit="10" d="M274.347,158.422"/>
			</g>
			<g>
				<path fill="#010101" stroke="#FFFFFF" stroke-width="0.204" stroke-miterlimit="10" d="M274.347,158.422"/>
			</g>
			<g>
				<path fill="#010101" stroke="#FFFFFF" stroke-width="0.204" stroke-miterlimit="10" d="M274.347,158.422"/>
			</g>
		</g>
		<polyline fill="#3399CC" points="299.846,173.084 287.096,180.732 274.348,188.383 274.348,173.084 274.348,157.785 		"/>
		<polyline fill="#996699" points="299.846,173.084 299.846,157.785 299.846,142.487 287.11,150.136 274.348,157.785 		"/>
		<polyline fill="#F89839" points="274.35,127.188 261.599,134.836 248.848,142.487 261.599,150.136 274.35,157.785 		"/>
		<polyline fill="#EE3968" points="274.348,127.188 287.096,134.836 299.846,142.487 287.096,150.136 274.348,157.785 		"/>
		<polyline fill="#FFCE09" points="248.848,173.084 261.599,180.732 274.35,188.383 274.35,173.084 274.35,157.785 		"/>
		<polyline fill="#6EC498" points="248.851,173.084 248.851,157.785 248.851,142.487 261.599,150.136 274.348,157.785 		"/>
		<g>
			<g>
				<g>
					
						<line fill="none" stroke="#FFFFFF" stroke-width="0.612" stroke-miterlimit="10" x1="274.352" y1="127.188" x2="274.352" y2="127.901"/>
					
						<line fill="none" stroke="#FFFFFF" stroke-width="0.612" stroke-miterlimit="10" stroke-dasharray="1.389,1.389" x1="274.351" y1="129.29" x2="274.347" y2="156.377"/>
					
						<line fill="none" stroke="#FFFFFF" stroke-width="0.612" stroke-miterlimit="10" x1="274.347" y1="157.071" x2="274.347" y2="157.785"/>
				</g>
			</g>
			<g>
				<g>
					
						<line fill="none" stroke="#FFFFFF" stroke-width="0.612" stroke-miterlimit="10" x1="274.347" y1="157.785" x2="274.959" y2="158.152"/>
					
						<line fill="none" stroke="#FFFFFF" stroke-width="0.612" stroke-miterlimit="10" stroke-dasharray="1.4899,1.4899" x1="276.236" y1="158.919" x2="298.594" y2="172.333"/>
					
						<line fill="none" stroke="#FFFFFF" stroke-width="0.612" stroke-miterlimit="10" x1="299.232" y1="172.717" x2="299.846" y2="173.084"/>
				</g>
			</g>
			<g>
				<g>
					
						<line fill="none" stroke="#FFFFFF" stroke-width="0.612" stroke-miterlimit="10" x1="274.347" y1="157.785" x2="273.734" y2="158.152"/>
					
						<line fill="none" stroke="#FFFFFF" stroke-width="0.612" stroke-miterlimit="10" stroke-dasharray="1.4899,1.4899" x1="272.457" y1="158.919" x2="250.099" y2="172.333"/>
					
						<line fill="none" stroke="#FFFFFF" stroke-width="0.612" stroke-miterlimit="10" x1="249.46" y1="172.717" x2="248.848" y2="173.084"/>
				</g>
			</g>
		</g>
		<g>
			
				<line fill="none" stroke="#FFFFFF" stroke-width="0.612" stroke-miterlimit="10" x1="274.352" y1="188.383" x2="274.347" y2="157.785"/>
			
				<line fill="none" stroke="#FFFFFF" stroke-width="0.612" stroke-miterlimit="10" x1="274.347" y1="157.785" x2="299.846" y2="142.487"/>
			
				<line fill="none" stroke="#FFFFFF" stroke-width="0.612" stroke-miterlimit="10" x1="274.347" y1="157.785" x2="248.848" y2="142.487"/>
		</g>
	</g>
	
		<rect x="236.338" y="226.058" fill="#FFFFFF" stroke="#EF4069" stroke-width="0.5131" stroke-miterlimit="10" width="76.372" height="6.224"/>
	
		<rect x="236.338" y="103.015" fill="#FFFFFF" stroke="#EF4069" stroke-width="0.5131" stroke-miterlimit="10" width="76.372" height="6.224"/>
	
		<line fill="none" stroke="#EE3968" stroke-width="5.3172" stroke-miterlimit="10" x1="229.702" y1="109.586" x2="319.455" y2="109.586"/>
	
		<line fill="none" stroke="#EE3968" stroke-width="5.3172" stroke-miterlimit="10" x1="229.702" y1="225.569" x2="319.455" y2="225.569"/>
	<g>
		<path d="M267.238,194.692h1.985v8.821h-1.985v-3.742h-3.335v3.742h-1.986v-8.821h1.986v3.373h3.335V194.692z"/>
		<path d="M274.71,203.691c-0.62,0-1.154-0.087-1.604-0.261c-0.449-0.174-0.82-0.415-1.113-0.726
			c-0.293-0.31-0.509-0.679-0.649-1.107c-0.14-0.428-0.21-0.901-0.21-1.419v-5.486h1.985v5.321c0,0.356,0.041,0.659,0.121,0.91
			c0.081,0.25,0.191,0.454,0.331,0.61c0.141,0.157,0.31,0.27,0.51,0.338c0.199,0.067,0.417,0.102,0.655,0.102
			c0.483,0,0.876-0.148,1.177-0.445c0.302-0.297,0.452-0.802,0.452-1.515v-5.321h1.985v5.486c0,0.518-0.071,0.993-0.216,1.426
			s-0.365,0.804-0.662,1.113c-0.297,0.311-0.675,0.55-1.133,0.72S275.338,203.691,274.71,203.691z"/>
		<path d="M283.199,203.628c-0.483,0-0.965-0.015-1.444-0.044c-0.479-0.03-0.979-0.1-1.496-0.21v-8.554
			c0.408-0.077,0.854-0.134,1.337-0.172s0.934-0.058,1.35-0.058c0.56,0,1.075,0.04,1.546,0.121c0.472,0.081,0.876,0.219,1.216,0.414
			s0.604,0.451,0.796,0.77c0.19,0.318,0.286,0.711,0.286,1.178c0,0.704-0.34,1.26-1.019,1.667c0.561,0.213,0.942,0.501,1.146,0.866
			c0.204,0.364,0.306,0.776,0.306,1.234c0,0.925-0.337,1.621-1.012,2.087C285.535,203.395,284.531,203.628,283.199,203.628z
			 M282.194,198.155h0.967c0.611,0,1.048-0.079,1.312-0.235c0.263-0.157,0.395-0.41,0.395-0.758c0-0.356-0.136-0.606-0.407-0.751
			s-0.671-0.217-1.196-0.217c-0.17,0-0.353,0.003-0.548,0.007s-0.369,0.015-0.521,0.031V198.155z M282.194,199.67v2.278
			c0.144,0.017,0.301,0.029,0.471,0.038s0.356,0.013,0.56,0.013c0.595,0,1.074-0.085,1.438-0.255
			c0.365-0.169,0.548-0.483,0.548-0.941c0-0.407-0.153-0.698-0.458-0.872c-0.306-0.174-0.743-0.261-1.312-0.261H282.194z"/>
	</g>
	<rect x="234.011" y="157.784" fill="#EE3968" width="3.183" height="17.007"/>
	<rect x="312.506" y="157.784" fill="#EE3968" width="3.182" height="17.007"/>
</g>
<g>
	
		<rect x="391.387" y="112.093" fill="#FFFFFF" stroke="#EF4069" stroke-width="0.5131" stroke-miterlimit="10" width="86.627" height="110.967"/>
	<g>
		<g>
			<g>
				<path fill="#010101" stroke="#FFFFFF" stroke-width="0.204" stroke-miterlimit="10" d="M434.347,158.422"/>
			</g>
			<g>
				<path fill="#010101" stroke="#FFFFFF" stroke-width="0.204" stroke-miterlimit="10" d="M434.347,158.422"/>
			</g>
			<g>
				<path fill="#010101" stroke="#FFFFFF" stroke-width="0.204" stroke-miterlimit="10" d="M434.347,158.422"/>
			</g>
			<g>
				<path fill="#010101" stroke="#FFFFFF" stroke-width="0.204" stroke-miterlimit="10" d="M434.347,158.422"/>
			</g>
		</g>
		<polyline fill="#3399CC" points="459.846,173.084 447.096,180.732 434.348,188.383 434.348,173.084 434.348,157.785 		"/>
		<polyline fill="#996699" points="459.846,173.084 459.846,157.785 459.846,142.487 447.11,150.136 434.348,157.785 		"/>
		<polyline fill="#F89839" points="434.35,127.188 421.6,134.836 408.848,142.487 421.6,150.136 434.35,157.785 		"/>
		<polyline fill="#EE3968" points="434.348,127.188 447.096,134.836 459.846,142.487 447.096,150.136 434.348,157.785 		"/>
		<polyline fill="#FFCE09" points="408.848,173.084 421.6,180.732 434.35,188.383 434.35,173.084 434.35,157.785 		"/>
		<polyline fill="#6EC498" points="408.851,173.084 408.851,157.785 408.851,142.487 421.6,150.136 434.348,157.785 		"/>
		<g>
			<g>
				<g>
					
						<line fill="none" stroke="#FFFFFF" stroke-width="0.612" stroke-miterlimit="10" x1="434.352" y1="127.188" x2="434.352" y2="127.901"/>
					
						<line fill="none" stroke="#FFFFFF" stroke-width="0.612" stroke-miterlimit="10" stroke-dasharray="1.389,1.389" x1="434.352" y1="129.29" x2="434.347" y2="156.377"/>
					
						<line fill="none" stroke="#FFFFFF" stroke-width="0.612" stroke-miterlimit="10" x1="434.347" y1="157.071" x2="434.347" y2="157.785"/>
				</g>
			</g>
			<g>
				<g>
					
						<line fill="none" stroke="#FFFFFF" stroke-width="0.612" stroke-miterlimit="10" x1="434.347" y1="157.785" x2="434.959" y2="158.152"/>
					
						<line fill="none" stroke="#FFFFFF" stroke-width="0.612" stroke-miterlimit="10" stroke-dasharray="1.4899,1.4899" x1="436.236" y1="158.919" x2="458.594" y2="172.333"/>
					
						<line fill="none" stroke="#FFFFFF" stroke-width="0.612" stroke-miterlimit="10" x1="459.232" y1="172.717" x2="459.846" y2="173.084"/>
				</g>
			</g>
			<g>
				<g>
					
						<line fill="none" stroke="#FFFFFF" stroke-width="0.612" stroke-miterlimit="10" x1="434.347" y1="157.785" x2="433.734" y2="158.152"/>
					
						<line fill="none" stroke="#FFFFFF" stroke-width="0.612" stroke-miterlimit="10" stroke-dasharray="1.4899,1.4899" x1="432.457" y1="158.919" x2="410.1" y2="172.333"/>
					
						<line fill="none" stroke="#FFFFFF" stroke-width="0.612" stroke-miterlimit="10" x1="409.461" y1="172.717" x2="408.848" y2="173.084"/>
				</g>
			</g>
		</g>
		<g>
			
				<line fill="none" stroke="#FFFFFF" stroke-width="0.612" stroke-miterlimit="10" x1="434.352" y1="188.383" x2="434.347" y2="157.785"/>
			
				<line fill="none" stroke="#FFFFFF" stroke-width="0.612" stroke-miterlimit="10" x1="434.347" y1="157.785" x2="459.846" y2="142.487"/>
			
				<line fill="none" stroke="#FFFFFF" stroke-width="0.612" stroke-miterlimit="10" x1="434.347" y1="157.785" x2="408.848" y2="142.487"/>
		</g>
	</g>
	
		<rect x="396.338" y="226.058" fill="#FFFFFF" stroke="#EF4069" stroke-width="0.5131" stroke-miterlimit="10" width="76.372" height="6.224"/>
	
		<rect x="396.338" y="103.015" fill="#FFFFFF" stroke="#EF4069" stroke-width="0.5131" stroke-miterlimit="10" width="76.372" height="6.224"/>
	
		<line fill="none" stroke="#EE3968" stroke-width="5.3172" stroke-miterlimit="10" x1="389.701" y1="109.586" x2="479.455" y2="109.586"/>
	
		<line fill="none" stroke="#EE3968" stroke-width="5.3172" stroke-miterlimit="10" x1="389.701" y1="225.569" x2="479.455" y2="225.569"/>
	<g>
		<path d="M427.238,194.692h1.985v8.821h-1.985v-3.742h-3.335v3.742h-1.986v-8.821h1.986v3.373h3.335V194.692z"/>
		<path d="M434.71,203.691c-0.62,0-1.154-0.087-1.604-0.261c-0.449-0.174-0.82-0.415-1.113-0.726
			c-0.293-0.31-0.509-0.679-0.649-1.107c-0.14-0.428-0.21-0.901-0.21-1.419v-5.486h1.985v5.321c0,0.356,0.041,0.659,0.121,0.91
			c0.081,0.25,0.191,0.454,0.331,0.61c0.141,0.157,0.31,0.27,0.51,0.338c0.199,0.067,0.417,0.102,0.655,0.102
			c0.483,0,0.876-0.148,1.177-0.445c0.302-0.297,0.452-0.802,0.452-1.515v-5.321h1.985v5.486c0,0.518-0.071,0.993-0.216,1.426
			s-0.365,0.804-0.662,1.113c-0.297,0.311-0.675,0.55-1.133,0.72S435.338,203.691,434.71,203.691z"/>
		<path d="M443.199,203.628c-0.483,0-0.965-0.015-1.444-0.044c-0.479-0.03-0.979-0.1-1.496-0.21v-8.554
			c0.408-0.077,0.854-0.134,1.337-0.172s0.934-0.058,1.35-0.058c0.56,0,1.075,0.04,1.546,0.121c0.472,0.081,0.876,0.219,1.216,0.414
			s0.604,0.451,0.796,0.77c0.19,0.318,0.286,0.711,0.286,1.178c0,0.704-0.34,1.26-1.019,1.667c0.561,0.213,0.942,0.501,1.146,0.866
			c0.204,0.364,0.306,0.776,0.306,1.234c0,0.925-0.337,1.621-1.012,2.087C445.535,203.395,444.531,203.628,443.199,203.628z
			 M442.194,198.155h0.967c0.611,0,1.048-0.079,1.312-0.235c0.263-0.157,0.395-0.41,0.395-0.758c0-0.356-0.136-0.606-0.407-0.751
			s-0.671-0.217-1.196-0.217c-0.17,0-0.353,0.003-0.548,0.007s-0.369,0.015-0.521,0.031V198.155z M442.194,199.67v2.278
			c0.144,0.017,0.301,0.029,0.471,0.038s0.356,0.013,0.56,0.013c0.595,0,1.074-0.085,1.438-0.255
			c0.365-0.169,0.548-0.483,0.548-0.941c0-0.407-0.153-0.698-0.458-0.872c-0.306-0.174-0.743-0.261-1.312-0.261H442.194z"/>
	</g>
	<rect x="394.012" y="157.784" fill="#EE3968" width="3.183" height="17.007"/>
	<rect x="472.506" y="157.784" fill="#EE3968" width="3.182" height="17.007"/>
</g>
<g>
	<polyline fill="none" stroke="#996699" stroke-width="4" stroke-linecap="square" points="187.032,150.16 187.032,131.282 
		205.361,131.282 205.361,150.16 	"/>
	<circle fill="#996699" stroke="#996699" stroke-width="4" stroke-linecap="square" cx="185.046" cy="151.074" r="2.207"/>
	<path fill="#996699" stroke="#996699" stroke-width="4" stroke-linecap="square" d="M203.376,148.867
		c1.217,0,2.205,0.989,2.205,2.207c0,1.221-0.988,2.207-2.205,2.207c-1.221,0-2.209-0.986-2.209-2.207
		C201.167,149.856,202.155,148.867,203.376,148.867z"/>
</g>
</svg>
