<?xml version="1.0" encoding="utf-8"?>
<!-- Generator: Adobe Illustrator 19.1.0, SVG Export Plug-In . SVG Version: 6.00 Build 0)  -->
<svg version="1.1" id="Camada_1" xmlns="http://www.w3.org/2000/svg" xmlns:xlink="http://www.w3.org/1999/xlink" x="0px" y="0px"
	 viewBox="0 0 480 360" style="enable-background:new 0 0 480 360;" xml:space="preserve">
<style type="text/css">
	.st0{fill:#78C193;}
	.st1{fill:#E72D60;}
	.st2{fill:#FFFFFF;stroke:#000000;stroke-width:2;stroke-miterlimit:10;}
	.st3{fill:#3799CF;stroke:#000000;stroke-width:2;stroke-miterlimit:10;}
	.st4{fill:none;stroke:#000000;stroke-width:2;stroke-miterlimit:10;}
	.st5{fill:#E72D60;stroke:#000000;stroke-width:2;stroke-miterlimit:10;}
	.st6{fill:#A06397;stroke:#000000;stroke-width:2;stroke-miterlimit:10;}
	.st7{fill:#F4982C;stroke:#000000;stroke-width:2;stroke-miterlimit:10;}
	.st8{fill:none;stroke:#000000;stroke-width:2;stroke-miterlimit:10;stroke-dasharray:12.611,12.611;}
	.st9{fill:none;stroke:#000000;stroke-width:2;stroke-miterlimit:10;stroke-dasharray:11.9372,11.9372;}
	.st10{fill:none;stroke:#000000;stroke-width:2;stroke-miterlimit:10;stroke-dasharray:12.2656,12.2656;}
</style>
<g>
	<polygon class="st0" points="388.9,330 91.9,329 114.6,306.3 367.2,305.7 	"/>
	<rect x="128.6" y="70.7" class="st1" width="27.8" height="81.3"/>
	<rect x="187.1" y="70.7" class="st1" width="27.2" height="81.3"/>
	<rect x="242.2" y="70.7" class="st1" width="27.6" height="81.6"/>
	<rect x="299.6" y="70.7" class="st1" width="27.6" height="81.6"/>
	<g>
		<g>
			<polyline class="st2" points="367.2,157.3 367.2,305.7 116.3,305.7 116.3,157.3 			"/>
			<rect x="116.3" y="30" class="st2" width="250.9" height="40"/>
			<rect x="146.2" y="193.2" class="st3" width="191.2" height="112.5"/>
			<g>
				<polygon class="st1" points="383,152.2 354.7,152.2 354.7,70.8 367.2,70.8 				"/>
				<line class="st4" x1="355" y1="70" x2="355" y2="151"/>
				<line class="st4" x1="129" y1="151" x2="129" y2="70"/>
				<line class="st4" x1="116.3" y1="70" x2="100.4" y2="151.1"/>
				<line class="st4" x1="156" y1="70" x2="156" y2="151"/>
				<line class="st4" x1="186" y1="70" x2="186" y2="151"/>
				<line class="st4" x1="215" y1="70" x2="215" y2="151"/>
				<line class="st4" x1="242" y1="70" x2="242" y2="151"/>
				<line class="st4" x1="270" y1="70" x2="270" y2="151"/>
				<line class="st4" x1="300" y1="70" x2="300" y2="151"/>
				<line class="st4" x1="327" y1="70" x2="327" y2="151"/>
				<line class="st4" x1="367.2" y1="70" x2="383" y2="151.1"/>
				<line class="st4" x1="118" y1="70" x2="367" y2="70"/>
				<path class="st4" d="M128.7,151.1c0,0-6.3,6.3-14.1,6.3s-14.1-6.3-14.1-6.3"/>
				<path class="st5" d="M157.2,151.1c0,0-6.3,6.3-14.1,6.3c-7.8,0-14.1-6.3-14.1-6.3"/>
				<path class="st4" d="M184.7,151.1c0,0-6.3,6.3-14.1,6.3c-7.8,0-14.1-6.3-14.1-6.3"/>
				<path class="st5" d="M213.2,151.1c0,0-6.3,6.3-14.1,6.3c-7.8,0-14.1-6.3-14.1-6.3"/>
				<path class="st4" d="M241.7,151.1c0,0-6.3,6.3-14.1,6.3c-7.8,0-14.1-6.3-14.1-6.3"/>
				<path class="st5" d="M270.3,151.1c0,0-6.3,6.3-14.1,6.3c-7.8,0-14.1-6.3-14.1-6.3"/>
				<path class="st4" d="M298.8,151.1c0,0-6.3,6.3-14.1,6.3s-14.1-6.3-14.1-6.3"/>
				<path class="st5" d="M326.3,151.1c0,0-6.3,6.3-14.1,6.3c-7.8,0-14.1-6.3-14.1-6.3"/>
				<path class="st5" d="M383,151.1c0,0-6.3,6.3-14.1,6.3s-14.1-6.3-14.1-6.3"/>
				<path class="st4" d="M354.5,151.1c0,0-6.3,6.3-14.1,6.3c-7.8,0-14.1-6.3-14.1-6.3"/>
			</g>
			<line class="st4" x1="18" y1="330" x2="462" y2="330"/>
			<line class="st4" x1="115.4" y1="306.6" x2="92.7" y2="329.3"/>
			<line class="st4" x1="366.7" y1="306.6" x2="390" y2="330"/>
		</g>
		<rect x="99.4" y="239" class="st6" width="16" height="13.5"/>
		<rect x="99.4" y="214.4" class="st6" width="16" height="13.5"/>
		<line class="st4" x1="43" y1="222" x2="43" y2="330"/>
		<line class="st4" x1="100" y1="222" x2="43" y2="222"/>
		<line class="st4" x1="100" y1="246" x2="43" y2="246"/>
		<rect x="367.9" y="239" class="st6" width="16" height="13.5"/>
		<rect x="367.9" y="214.4" class="st6" width="16" height="13.5"/>
		<line class="st4" x1="442" y1="222" x2="442" y2="330"/>
		<line class="st4" x1="384" y1="222" x2="442" y2="222"/>
		<line class="st4" x1="384" y1="246" x2="442" y2="246"/>
	</g>
</g>
</svg>
