<?xml version="1.0" encoding="utf-8"?>
<!-- Generator: Adobe Illustrator 19.1.0, SVG Export Plug-In . SVG Version: 6.00 Build 0)  -->
<svg version="1.1" id="Camada_1" xmlns="http://www.w3.org/2000/svg" xmlns:xlink="http://www.w3.org/1999/xlink" x="0px" y="0px"
	 viewBox="-205 272 200 250" style="enable-background:new -205 272 200 250;" xml:space="preserve">
<style type="text/css">
	.st0{fill:none;stroke:#FFFFFF;stroke-miterlimit:10;}
</style>
<rect x="-205" y="272" width="200" height="250"/>
<polygon class="st0" points="-108.4,462.5 -150,487.5 -191.6,462.5 -191.6,412.5 -150,387.5 -108.4,412.5 "/>
<g>
	<g>
		<g>
			<g>
				<path class="st0" d="M-125,433.1c-13.8-13.8-36.3-13.8-50.1,0l-3.1-3.1c15.5-15.5,40.8-15.5,56.3,0L-125,433.1z"/>
				<path class="st0" d="M-132,440.1c-4.8-4.8-11.2-7.5-18-7.5s-13.2,2.7-18,7.5l-3.1-3.1c5.7-5.7,13.2-8.8,21.2-8.8
					s15.5,3.1,21.2,8.8L-132,440.1z"/>
				<path class="st0" d="M-140.1,447.6c-5.5-5.5-14.4-5.5-19.8,0l-3.1-3.1c7.2-7.2,18.9-7.2,26.1,0L-140.1,447.6z"/>
			</g>
			<path class="st0" d="M-145.2,453.5c0,2.7-2.2,4.9-4.9,4.9s-4.9-2.2-4.9-4.9c0-2.7,2.2-4.9,4.9-4.9S-145.2,450.8-145.2,453.5z"/>
		</g>
	</g>
</g>
<polygon class="st0" points="-18.4,462.5 -60,487.5 -101.6,462.5 -101.6,412.5 -60,387.5 -18.4,412.5 "/>
<g>
	<rect x="-81.8" y="449.5" class="st0" width="4.4" height="8"/>
	<rect x="-72" y="441.5" class="st0" width="4.4" height="16"/>
	<rect x="-62.2" y="433.5" class="st0" width="4.4" height="24"/>
	<rect x="-52.4" y="425.5" class="st0" width="4.4" height="32"/>
	<rect x="-42.7" y="417.5" class="st0" width="4.4" height="40"/>
</g>
<polygon class="st0" points="-63.4,381.5 -105,406.5 -146.6,381.5 -146.6,331.5 -105,306.5 -63.4,331.5 "/>
<path class="st0" d="M-83.1,338.5h-43.8v33.8h10v4.1h5v2.1h13.7v-2.1h5v-4.1h10L-83.1,338.5L-83.1,338.5z M-86.7,368.6h-10v0.1v3.5
	v0.5h-5v0.1v2h-6.4v-2v-0.1h-5v-0.5v-3.5v-0.1h-10v-26.5h36.5L-86.7,368.6L-86.7,368.6z"/>
</svg>
