<?xml version="1.0" encoding="utf-8"?>
<!-- Generator: Adobe Illustrator 16.0.0, SVG Export Plug-In . SVG Version: 6.00 Build 0)  -->
<!DOCTYPE svg PUBLIC "-//W3C//DTD SVG 1.1//EN" "http://www.w3.org/Graphics/SVG/1.1/DTD/svg11.dtd">
<svg version="1.1" id="Layer_1" xmlns="http://www.w3.org/2000/svg" xmlns:xlink="http://www.w3.org/1999/xlink" x="0px" y="0px"
	 width="200px" height="250px" viewBox="0 0 200 250" enable-background="new 0 0 200 250" xml:space="preserve">
<rect fill="#3399CC" width="200" height="250"/>
<g>
	<path fill="#41B4D8" stroke="#40B3D7" stroke-width="4.4834" stroke-miterlimit="10" d="M100.002,165.336
		c-10.426,0-18.879-8.447-18.879-18.873V48.561c0-10.426,8.453-18.877,18.879-18.877l0,0c10.424,0,18.875,8.453,18.875,18.877v97.9
		C118.877,156.889,110.424,165.336,100.002,165.336L100.002,165.336z"/>
	<circle fill="#41B4D8" stroke="#4669B2" stroke-width="4.4834" stroke-miterlimit="10" cx="100.002" cy="164.269" r="24.632"/>
	<g>
		
			<line fill="none" stroke="#4669B2" stroke-width="4.4834" stroke-miterlimit="10" x1="78.832" y1="125.001" x2="91.217" y2="125.001"/>
		
			<line fill="none" stroke="#4669B2" stroke-width="4.4834" stroke-miterlimit="10" x1="78.832" y1="110.721" x2="91.217" y2="110.721"/>
		
			<line fill="none" stroke="#4669B2" stroke-width="4.4834" stroke-miterlimit="10" x1="78.832" y1="96.44" x2="91.217" y2="96.44"/>
		
			<line fill="none" stroke="#4669B2" stroke-width="4.4834" stroke-miterlimit="10" x1="78.832" y1="82.159" x2="91.217" y2="82.159"/>
		
			<line fill="none" stroke="#4669B2" stroke-width="4.4834" stroke-miterlimit="10" x1="78.832" y1="67.879" x2="91.217" y2="67.879"/>
		
			<line fill="none" stroke="#4669B2" stroke-width="4.4834" stroke-miterlimit="10" x1="78.832" y1="53.602" x2="91.217" y2="53.602"/>
	</g>
	<rect x="78.891" y="136.066" fill="#41B4D8" width="42.219" height="22.951"/>
	<g>
		<polygon fill="#4669B2" points="103.568,188.902 100.002,220.316 96.43,188.902 		"/>
	</g>
	<g>
		<polygon fill="#4669B2" points="122.139,180.088 118.877,200.564 115.613,180.088 		"/>
	</g>
	<g>
		<polygon fill="#4669B2" points="85.012,180.088 81.75,200.564 78.488,180.088 		"/>
	</g>
	<g>
		<polygon fill="#4669B2" points="93.861,186.912 90.291,209.133 86.721,186.912 		"/>
	</g>
	<g>
		<polygon fill="#4669B2" points="113.855,186.912 110.283,209.133 106.715,186.912 		"/>
	</g>
</g>
</svg>
