<?xml version="1.0" encoding="utf-8"?>
<!-- Generator: Adobe Illustrator 16.0.0, SVG Export Plug-In . SVG Version: 6.00 Build 0)  -->
<!DOCTYPE svg PUBLIC "-//W3C//DTD SVG 1.1//EN" "http://www.w3.org/Graphics/SVG/1.1/DTD/svg11.dtd">
<svg version="1.1" id="Layer_1" xmlns="http://www.w3.org/2000/svg" xmlns:xlink="http://www.w3.org/1999/xlink" x="0px" y="0px"
	 width="550px" height="250px" viewBox="0 0 550 250" enable-background="new 0 0 550 250" xml:space="preserve">
<g>
	<g>
		<g>
			
				<rect x="22.304" y="43.006" fill="#C0C0C0" stroke="#654566" stroke-width="7.8043" stroke-miterlimit="10" width="119.764" height="162.876"/>
			
				<line fill="none" stroke="#996699" stroke-width="7.8043" stroke-miterlimit="10" x1="16.318" y1="38.817" x2="148.054" y2="38.817"/>
			
				<line fill="none" stroke="#996699" stroke-width="7.8043" stroke-miterlimit="10" x1="16.318" y1="210.074" x2="148.054" y2="210.074"/>
		</g>
		<g>
			<path fill="none" d="M121.385,135.52"/>
		</g>
		<g>
			<path fill="none" d="M46.546,135.52"/>
		</g>
		<g>
			<path fill="none" d="M66.773,148.215"/>
		</g>
		<g>
			<path fill="none" d="M97.6,148.215"/>
		</g>
		<g>
			<g>
				<g>
					<path fill="none" stroke="#A09F9F" stroke-width="3.8922" stroke-miterlimit="10" d="M66.774,101.386"/>
				</g>
				<g>
					<path fill="none" stroke="#A09F9F" stroke-width="3.8922" stroke-miterlimit="10" d="M97.6,101.386"/>
				</g>
				<path fill="none" stroke="#A09F9F" stroke-width="3.8922" stroke-miterlimit="10" d="M68.885,101.386
					c0,2.693-2.185,4.877-4.877,4.877H38.711c-2.694,0-4.877-2.183-4.877-4.877l0,0c0-2.693,2.182-4.877,4.877-4.877h25.297
					C66.7,96.509,68.885,98.693,68.885,101.386L68.885,101.386z"/>
				<path fill="none" stroke="#A09F9F" stroke-width="3.8922" stroke-miterlimit="10" d="M130.541,101.386
					c0,2.693-2.184,4.877-4.879,4.877h-25.295c-2.693,0-4.879-2.183-4.879-4.877l0,0c0-2.693,2.184-4.877,4.879-4.877h25.295
					C128.356,96.509,130.541,98.693,130.541,101.386L130.541,101.386z"/>
				<circle fill="none" stroke="#A09F9F" stroke-width="3.8922" stroke-miterlimit="10" cx="82.186" cy="101.386" r="4.877"/>
			</g>
			<g>
				<circle fill="none" stroke="#A09F9F" stroke-width="3.8922" stroke-miterlimit="10" cx="51.748" cy="124.8" r="4.878"/>
				<circle fill="none" stroke="#A09F9F" stroke-width="3.8922" stroke-miterlimit="10" cx="112.622" cy="124.8" r="4.878"/>
				<circle fill="none" stroke="#A09F9F" stroke-width="3.8922" stroke-miterlimit="10" cx="82.185" cy="124.8" r="4.878"/>
			</g>
			<path fill="none" stroke="#A09F9F" stroke-width="3.8922" stroke-miterlimit="10" d="M68.883,148.215
				c0,2.691-2.185,4.877-4.877,4.877H38.71c-2.694,0-4.878-2.186-4.878-4.877l0,0c0-2.693,2.182-4.879,4.878-4.879h25.296
				C66.698,143.336,68.883,145.521,68.883,148.215L68.883,148.215z"/>
			<path fill="none" stroke="#A09F9F" stroke-width="3.8922" stroke-miterlimit="10" d="M130.54,148.215
				c0,2.691-2.184,4.877-4.879,4.877h-25.295c-2.694,0-4.879-2.186-4.879-4.877l0,0c0-2.693,2.183-4.879,4.879-4.879h25.295
				C128.354,143.336,130.54,145.521,130.54,148.215L130.54,148.215z"/>
			<circle fill="none" stroke="#A09F9F" stroke-width="3.8922" stroke-miterlimit="10" cx="82.185" cy="148.214" r="4.878"/>
		</g>
	</g>
	<g>
		<path fill="#3399CC" stroke="#4468B1" stroke-width="6.3701" stroke-miterlimit="10" d="M235.088,169.984
			c-11.625,0-21.05-9.424-21.05-21.049V39.751c0-11.625,9.426-21.05,21.05-21.05l0,0c11.626,0,21.053,9.426,21.053,21.05v109.183
			C256.14,160.561,246.713,169.984,235.088,169.984L235.088,169.984z"/>
		<circle fill="#3399CC" stroke="#4468B1" stroke-width="6.3701" stroke-miterlimit="10" cx="235.088" cy="168.793" r="27.471"/>
		<g>
			<line fill="none" stroke="#4468B1" stroke-width="6.3701" stroke-miterlimit="10" x1="214.036" y1="125" x2="227.523" y2="125"/>
			
				<line fill="none" stroke="#4468B1" stroke-width="6.3701" stroke-miterlimit="10" x1="214.036" y1="109.074" x2="227.523" y2="109.074"/>
			
				<line fill="none" stroke="#4468B1" stroke-width="6.3701" stroke-miterlimit="10" x1="214.036" y1="93.149" x2="227.523" y2="93.149"/>
			
				<line fill="none" stroke="#4468B1" stroke-width="6.3701" stroke-miterlimit="10" x1="214.036" y1="77.224" x2="227.523" y2="77.224"/>
			
				<line fill="none" stroke="#4468B1" stroke-width="6.3701" stroke-miterlimit="10" x1="214.036" y1="61.298" x2="227.523" y2="61.298"/>
			
				<line fill="none" stroke="#4468B1" stroke-width="6.3701" stroke-miterlimit="10" x1="214.036" y1="45.373" x2="227.523" y2="45.373"/>
		</g>
		<rect x="217.2" y="137.342" fill="#3399CC" width="35.512" height="17.963"/>
		<g>
			<polygon fill="#4468B1" points="239.069,196.266 235.088,231.299 231.105,196.266 			"/>
		</g>
		<g>
			<polygon fill="#4468B1" points="259.779,186.436 256.14,209.271 252.502,186.436 			"/>
		</g>
		<g>
			<polygon fill="#4468B1" points="218.374,186.436 214.734,209.271 211.095,186.436 			"/>
		</g>
		<g>
			<polygon fill="#4468B1" points="228.243,194.047 224.26,218.826 220.279,194.047 			"/>
		</g>
		<g>
			<polygon fill="#4468B1" points="250.538,194.047 246.557,218.826 242.577,194.047 			"/>
		</g>
	</g>
	<g>
		<g>
			<path fill="#1C2C18" stroke="#6EC498" stroke-width="12.2466" d="M523.333,177.908c0,8.117-6.579,14.697-14.695,14.697H402.819
				c-8.116,0-14.696-6.58-14.696-14.697V72.089c0-8.113,6.582-14.694,14.696-14.694h105.818c8.116,0,14.695,6.583,14.695,14.694
				V177.908z"/>
			<g>
				<g>
					<g>
						<path fill="#25441E" d="M455.889,125.077c62.159,32.856,60.441-7.958,58.827-10.875"/>
						<path fill="#6EC498" d="M457.438,122.024c0,0,1.054,0.597,2.896,1.638c0.92,0.504,2.048,1.189,3.317,1.846
							c1.27,0.662,2.705,1.41,4.27,2.227c1.603,0.754,3.339,1.602,5.19,2.438c1.873,0.77,3.832,1.678,5.916,2.391
							c2.063,0.799,4.24,1.453,6.462,2.08c1.117,0.254,2.242,0.57,3.381,0.791c1.139,0.172,2.29,0.443,3.438,0.543
							c1.149,0.098,2.31,0.264,3.453,0.23c0.57-0.002,1.149,0.033,1.717,0.004l1.692-0.137c2.224-0.271,4.401-0.773,6.317-1.713
							c1.909-0.934,3.566-2.221,4.872-3.707c1.311-1.482,2.278-3.146,2.973-4.77c1.344-3.282,1.715-6.322,1.744-8.41
							c0.027-1.053-0.055-1.879-0.142-2.435c-0.084-0.559-0.219-0.836-0.219-0.836s0.161,0.263,0.293,0.819
							c0.136,0.553,0.292,1.38,0.357,2.443c0.156,2.117,0.068,5.223-1.034,8.79c-0.577,1.766-1.444,3.637-2.736,5.391
							c-1.284,1.758-3.012,3.373-5.079,4.619c-2.072,1.256-4.465,2.041-6.918,2.561l-1.863,0.318
							c-0.624,0.088-1.251,0.107-1.882,0.164c-1.265,0.145-2.52,0.082-3.784,0.082c-1.267,0-2.504-0.172-3.759-0.254
							c-1.243-0.129-2.458-0.354-3.682-0.523c-2.41-0.451-4.783-0.945-7.016-1.588c-2.271-0.563-4.376-1.318-6.411-1.951
							c-2.007-0.699-3.879-1.418-5.623-2.059c-1.721-0.713-3.302-1.365-4.702-1.947c-1.408-0.578-2.531-1.133-3.511-1.563
							c-1.928-0.875-3.028-1.377-3.028-1.377L457.438,122.024z"/>
					</g>
					<g>
						<path fill="#25441E" d="M455.838,124.952c-33.868,61.607,6.974,60.558,9.919,58.988"/>
						<path fill="#6EC498" d="M458.865,126.551c0,0-0.614,1.043-1.685,2.869c-0.521,0.91-1.223,2.029-1.897,3.287
							c-0.685,1.26-1.458,2.682-2.299,4.232c-0.78,1.588-1.654,3.309-2.524,5.148c-0.8,1.861-1.739,3.803-2.484,5.875
							c-0.833,2.053-1.523,4.217-2.186,6.428c-0.274,1.113-0.607,2.236-0.846,3.369c-0.19,1.135-0.48,2.279-0.598,3.428
							c-0.117,1.146-0.303,2.305-0.289,3.449c-0.009,0.568-0.052,1.148-0.031,1.715l0.109,1.693c0.232,2.23,0.7,4.414,1.61,6.344
							c0.901,1.922,2.161,3.602,3.626,4.932c1.464,1.332,3.108,2.324,4.722,3.047c3.262,1.396,6.293,1.814,8.382,1.879
							c1.054,0.043,1.88-0.027,2.438-0.104c0.562-0.072,0.839-0.203,0.839-0.203s-0.266,0.154-0.823,0.281
							c-0.554,0.125-1.384,0.27-2.446,0.318c-2.121,0.121-5.226-0.016-8.776-1.176c-1.757-0.604-3.609-1.502-5.347-2.82
							c-1.736-1.311-3.324-3.066-4.537-5.154c-1.22-2.092-1.968-4.494-2.446-6.957l-0.287-1.867
							c-0.079-0.625-0.092-1.254-0.137-1.887c-0.122-1.266-0.04-2.518-0.021-3.785c0.022-1.266,0.216-2.5,0.316-3.752
							c0.15-1.24,0.391-2.455,0.583-3.672c0.491-2.404,1.023-4.766,1.702-6.99c0.599-2.258,1.388-4.352,2.056-6.379
							c0.73-1.992,1.479-3.852,2.147-5.586c0.744-1.713,1.422-3.279,2.024-4.67c0.604-1.398,1.175-2.512,1.62-3.484
							c0.906-1.913,1.425-3.007,1.425-3.007L458.865,126.551z"/>
					</g>
					<g>
						<path fill="#25441E" d="M455.564,124.098c-62.16-32.859-60.445,7.959-58.824,10.875"/>
						<path fill="#6EC498" d="M454.013,127.15c0,0-1.053-0.596-2.896-1.637c-0.918-0.505-2.048-1.19-3.316-1.845
							c-1.27-0.663-2.704-1.411-4.271-2.229c-1.603-0.753-3.337-1.602-5.19-2.438c-1.872-0.77-3.83-1.677-5.914-2.39
							c-2.066-0.798-4.24-1.454-6.462-2.08c-1.119-0.257-2.243-0.569-3.383-0.791c-1.139-0.173-2.29-0.442-3.439-0.543
							c-1.147-0.098-2.308-0.265-3.451-0.232c-0.571,0.001-1.147-0.033-1.717-0.003l-1.69,0.137
							c-2.226,0.271-4.403,0.772-6.317,1.714c-1.911,0.934-3.568,2.218-4.872,3.707c-1.313,1.484-2.278,3.146-2.975,4.769
							c-1.342,3.283-1.713,6.322-1.739,8.412c-0.028,1.053,0.054,1.879,0.142,2.434c0.084,0.563,0.219,0.836,0.219,0.836
							s-0.159-0.262-0.293-0.818c-0.137-0.551-0.294-1.379-0.36-2.441c-0.155-2.119-0.068-5.225,1.032-8.792
							c0.579-1.768,1.444-3.635,2.736-5.391c1.285-1.758,3.016-3.374,5.081-4.622c2.071-1.252,4.463-2.04,6.917-2.56l1.863-0.315
							c0.622-0.089,1.252-0.109,1.881-0.167c1.265-0.142,2.521-0.079,3.786-0.082c1.267,0.001,2.504,0.174,3.758,0.257
							c1.242,0.127,2.459,0.352,3.683,0.523c2.41,0.452,4.781,0.945,7.016,1.588c2.27,0.561,4.374,1.315,6.411,1.951
							c2.007,0.699,3.878,1.417,5.621,2.057c1.723,0.714,3.302,1.369,4.704,1.947c1.407,0.58,2.531,1.134,3.51,1.564
							c1.929,0.876,3.03,1.376,3.03,1.376L454.013,127.15z"/>
					</g>
					<g>
						<path fill="#25441E" d="M455.987,124.976c33.155-61.996-7.672-60.477-10.601-58.875"/>
						<path fill="#6EC498" d="M452.943,123.411c0,0,0.601-1.05,1.65-2.888c0.51-0.916,1.2-2.044,1.86-3.309
							c0.669-1.267,1.424-2.698,2.247-4.259c0.762-1.6,1.617-3.329,2.463-5.178c0.778-1.869,1.695-3.822,2.419-5.902
							c0.809-2.062,1.472-4.234,2.108-6.455c0.264-1.116,0.582-2.239,0.809-3.377c0.177-1.138,0.453-2.288,0.557-3.436
							c0.104-1.149,0.275-2.307,0.25-3.45c0-0.572,0.037-1.151,0.01-1.717l-0.129-1.692c-0.26-2.227-0.751-4.406-1.683-6.324
							c-0.926-1.913-2.205-3.578-3.686-4.89c-1.477-1.319-3.136-2.292-4.756-2.996c-3.275-1.358-6.314-1.743-8.401-1.783
							c-1.054-0.032-1.88,0.046-2.437,0.128c-0.561,0.082-0.837,0.215-0.837,0.215s0.264-0.159,0.82-0.29
							c0.553-0.134,1.381-0.288,2.443-0.349c2.119-0.146,5.225-0.043,8.788,1.074c1.764,0.587,3.629,1.461,5.379,2.761
							c1.752,1.292,3.358,3.028,4.597,5.102c1.243,2.077,2.019,4.472,2.526,6.928l0.308,1.864c0.088,0.624,0.104,1.253,0.159,1.882
							c0.137,1.266,0.068,2.521,0.064,3.786c-0.007,1.266-0.186,2.502-0.274,3.757c-0.135,1.242-0.361,2.456-0.541,3.678
							c-0.464,2.408-0.969,4.778-1.621,7.009c-0.571,2.267-1.334,4.369-1.979,6.401c-0.71,2.002-1.435,3.871-2.084,5.611
							c-0.724,1.719-1.385,3.296-1.972,4.694c-0.586,1.404-1.143,2.525-1.58,3.503c-0.883,1.923-1.391,3.021-1.391,3.021
							L452.943,123.411z"/>
					</g>
					<circle fill="#25441E" stroke="#63BC46" stroke-width="4.28" cx="455.963" cy="124.675" r="13.928"/>
				</g>
				<g>
					<g>
						<path fill="#25441E" d="M455.895,124.941c67.189-20.72,37.113-48.366,33.908-49.287"/>
						<path fill="#6EC498" d="M454.834,121.687c0,0,1.167-0.324,3.207-0.89c1.007-0.292,2.29-0.608,3.648-1.042
							c1.369-0.429,2.912-0.915,4.595-1.446c1.668-0.6,3.493-1.227,5.396-1.944c1.867-0.782,3.894-1.524,5.871-2.494
							c2.027-0.896,4.028-1.973,6.042-3.099c0.972-0.61,1.989-1.183,2.951-1.832c0.928-0.684,1.93-1.306,2.816-2.047
							c0.882-0.744,1.819-1.447,2.604-2.276c0.402-0.407,0.836-0.792,1.216-1.212l1.1-1.292c1.382-1.765,2.564-3.659,3.255-5.676
							c0.69-2.011,0.953-4.093,0.824-6.065c-0.122-1.979-0.616-3.836-1.27-5.477c-1.371-3.271-3.259-5.682-4.717-7.179
							c-0.724-0.764-1.366-1.289-1.821-1.624c-0.454-0.336-0.745-0.436-0.745-0.436s0.299,0.075,0.788,0.372
							c0.486,0.294,1.182,0.768,1.979,1.473c1.608,1.388,3.743,3.646,5.485,6.947c0.841,1.658,1.55,3.593,1.878,5.748
							c0.333,2.15,0.254,4.513-0.327,6.858c-0.577,2.353-1.713,4.598-3.082,6.701l-1.092,1.542
							c-0.378,0.504-0.809,0.961-1.213,1.449c-0.794,0.995-1.724,1.839-2.618,2.734c-0.896,0.894-1.896,1.647-2.839,2.478
							c-0.97,0.788-1.986,1.49-2.974,2.234c-2.023,1.385-4.05,2.713-6.083,3.839c-2.002,1.208-4.022,2.163-5.914,3.152
							c-1.914,0.925-3.743,1.741-5.43,2.521c-1.721,0.714-3.302,1.368-4.701,1.95c-1.406,0.584-2.592,0.988-3.588,1.375
							c-1.982,0.746-3.116,1.172-3.116,1.172L454.834,121.687z"/>
					</g>
					<g>
						<path fill="#25441E" d="M455.767,124.884c19.621,67.517,47.761,37.894,48.726,34.698"/>
						<path fill="#6EC498" d="M459.041,123.874c0,0,0.303,1.171,0.837,3.22c0.276,1.01,0.569,2.299,0.983,3.664
							c0.407,1.375,0.866,2.928,1.368,4.619c0.573,1.676,1.171,3.512,1.856,5.426c0.75,1.879,1.461,3.918,2.397,5.91
							c0.864,2.041,1.907,4.057,3.002,6.092c0.593,0.982,1.147,2.006,1.783,2.98c0.669,0.938,1.274,1.951,2.002,2.846
							c0.729,0.893,1.416,1.846,2.233,2.643c0.4,0.41,0.775,0.848,1.193,1.234l1.273,1.119c1.74,1.41,3.616,2.629,5.623,3.348
							c2,0.723,4.076,1.018,6.053,0.922c1.979-0.09,3.846-0.551,5.495-1.184c3.293-1.316,5.733-3.166,7.254-4.6
							c0.775-0.711,1.312-1.346,1.652-1.795c0.346-0.451,0.447-0.738,0.447-0.738s-0.078,0.297-0.382,0.781
							c-0.303,0.482-0.789,1.17-1.507,1.957c-1.412,1.588-3.705,3.684-7.033,5.373c-1.673,0.816-3.617,1.492-5.777,1.785
							c-2.157,0.299-4.519,0.184-6.853-0.436c-2.343-0.617-4.57-1.787-6.65-3.191l-1.523-1.117c-0.498-0.389-0.95-0.822-1.429-1.236
							c-0.982-0.811-1.81-1.756-2.692-2.664c-0.879-0.91-1.615-1.918-2.43-2.877c-0.774-0.984-1.461-2.012-2.187-3.01
							c-1.352-2.047-2.647-4.096-3.737-6.146c-1.175-2.021-2.098-4.055-3.058-5.963c-0.893-1.93-1.679-3.771-2.433-5.473
							c-0.686-1.732-1.313-3.324-1.871-4.732c-0.562-1.412-0.946-2.605-1.318-3.609c-0.712-1.99-1.119-3.135-1.119-3.135
							L459.041,123.874z"/>
					</g>
					<g>
						<path fill="#25441E" d="M454.977,124.477c-67.192,20.717-37.116,48.367-33.911,49.285"/>
						<path fill="#6EC498" d="M456.04,127.732c0,0-1.166,0.322-3.206,0.889c-1.007,0.291-2.29,0.607-3.649,1.041
							c-1.368,0.43-2.911,0.916-4.596,1.445c-1.667,0.6-3.492,1.227-5.395,1.945c-1.868,0.779-3.894,1.521-5.872,2.492
							c-2.025,0.896-4.025,1.973-6.042,3.102c-0.972,0.607-1.988,1.18-2.951,1.83c-0.927,0.684-1.931,1.305-2.815,2.047
							c-0.882,0.744-1.82,1.447-2.604,2.275c-0.403,0.406-0.836,0.793-1.216,1.213l-1.1,1.291c-1.382,1.766-2.566,3.662-3.255,5.678
							c-0.69,2.01-0.954,4.09-0.826,6.064c0.122,1.979,0.616,3.836,1.27,5.479c1.37,3.27,3.259,5.68,4.717,7.178
							c0.724,0.766,1.366,1.291,1.819,1.623c0.456,0.336,0.745,0.438,0.745,0.438s-0.298-0.076-0.787-0.373
							c-0.488-0.293-1.182-0.768-1.981-1.473c-1.607-1.389-3.741-3.646-5.484-6.947c-0.841-1.658-1.549-3.592-1.876-5.748
							c-0.334-2.15-0.255-4.514,0.327-6.857c0.578-2.354,1.713-4.598,3.082-6.701l1.092-1.543c0.378-0.502,0.809-0.961,1.213-1.447
							c0.794-0.996,1.724-1.84,2.618-2.732c0.896-0.895,1.896-1.648,2.839-2.479c0.97-0.787,1.986-1.49,2.974-2.236
							c2.023-1.383,4.05-2.709,6.084-3.836c2.001-1.207,4.023-2.164,5.913-3.154c1.913-0.924,3.743-1.74,5.431-2.52
							c1.722-0.714,3.303-1.368,4.701-1.949c1.406-0.585,2.593-0.989,3.588-1.376c1.983-0.745,3.116-1.171,3.116-1.171
							L456.04,127.732z"/>
					</g>
					<g>
						<path fill="#25441E" d="M455.895,124.799c-20.395-67.281-48.187-37.337-49.127-34.137"/>
						<path fill="#6EC498" d="M452.635,125.846c0,0-0.317-1.167-0.877-3.211c-0.287-1.007-0.596-2.293-1.021-3.654
							c-0.425-1.37-0.901-2.915-1.423-4.601c-0.594-1.669-1.211-3.499-1.919-5.404c-0.772-1.872-1.506-3.901-2.467-5.882
							c-0.885-2.032-1.952-4.037-3.069-6.057c-0.605-0.974-1.174-1.996-1.818-2.959c-0.681-0.932-1.295-1.937-2.036-2.823
							c-0.738-0.886-1.438-1.828-2.264-2.616c-0.402-0.405-0.786-0.841-1.204-1.223l-1.287-1.104
							c-1.758-1.392-3.647-2.583-5.662-3.28c-2.009-0.699-4.089-0.972-6.065-0.853c-1.977,0.113-3.837,0.598-5.48,1.247
							c-3.276,1.354-5.697,3.229-7.202,4.682c-0.767,0.719-1.296,1.359-1.632,1.812c-0.341,0.453-0.44,0.744-0.44,0.744
							s0.076-0.297,0.375-0.786c0.297-0.485,0.772-1.177,1.482-1.974c1.396-1.6,3.666-3.726,6.975-5.452
							c1.663-0.833,3.6-1.532,5.756-1.85c2.153-0.325,4.514-0.233,6.855,0.356c2.351,0.59,4.59,1.735,6.687,3.112l1.537,1.101
							c0.502,0.381,0.958,0.811,1.443,1.219c0.992,0.8,1.832,1.732,2.721,2.631c0.892,0.9,1.641,1.901,2.464,2.849
							c0.784,0.973,1.48,1.994,2.22,2.985c1.377,2.03,2.693,4.062,3.81,6.101c1.2,2.007,2.144,4.034,3.126,5.928
							c0.914,1.917,1.723,3.752,2.497,5.441c0.705,1.727,1.352,3.309,1.923,4.712c0.579,1.407,0.979,2.595,1.359,3.594
							c0.737,1.986,1.155,3.12,1.155,3.12L452.635,125.846z"/>
					</g>
					<path fill="#25441E" stroke="#63BC46" stroke-width="4.28" d="M463.654,136.014c-6.301,4.412-14.988,2.881-19.4-3.418
						c-4.412-6.307-2.881-14.992,3.42-19.404c6.3-4.412,14.987-2.88,19.399,3.42C471.485,122.915,469.955,131.602,463.654,136.014z"
						/>
				</g>
			</g>
		</g>
		<g>
			<path fill="none" stroke="#EE3968" stroke-width="12.4726" stroke-miterlimit="10" d="M533.681,181.879
				c0,11.641-9.438,21.074-21.074,21.074H398.849c-11.636,0-21.073-9.436-21.073-21.074V68.13c0-11.644,9.438-21.083,21.073-21.083
				h113.758c11.638,0,21.074,9.439,21.074,21.083V181.879z"/>
			
				<line fill="none" stroke="#EE3968" stroke-width="12.4726" stroke-miterlimit="10" x1="377.775" y1="68.13" x2="533.681" y2="181.879"/>
			
				<line fill="none" stroke="#EE3968" stroke-width="12.4726" stroke-miterlimit="10" x1="533.681" y1="68.13" x2="377.775" y2="181.879"/>
		</g>
	</g>
	<g>
		<line fill="none" stroke="#FFFFFF" stroke-width="12.4726" stroke-miterlimit="10" x1="286.317" y1="125" x2="345.848" y2="125"/>
		
			<line fill="none" stroke="#FFFFFF" stroke-width="12.4726" stroke-miterlimit="10" x1="316.082" y1="154.762" x2="316.082" y2="95.236"/>
	</g>
</g>
</svg>
