<?xml version="1.0" encoding="utf-8"?>
<!-- Generator: Adobe Illustrator 16.0.0, SVG Export Plug-In . SVG Version: 6.00 Build 0)  -->
<!DOCTYPE svg PUBLIC "-//W3C//DTD SVG 1.1//EN" "http://www.w3.org/Graphics/SVG/1.1/DTD/svg11.dtd">
<svg version="1.1" id="Layer_1" xmlns="http://www.w3.org/2000/svg" xmlns:xlink="http://www.w3.org/1999/xlink" x="0px" y="0px"
	 width="550px" height="250px" viewBox="0 0 550 250" enable-background="new 0 0 550 250" xml:space="preserve">
<rect x="350" fill="#EE3968" width="200" height="250"/>
<g>
	<g>
		<path fill="#F06591" stroke="#F06590" stroke-width="7.8661" d="M493.422,158.984c0,5.213-4.225,9.439-9.438,9.439h-67.969
			c-5.213,0-9.439-4.227-9.439-9.439V91.016c0-5.211,4.229-9.439,9.439-9.439h67.971c5.213,0,9.438,4.229,9.438,9.439v67.969
			H493.422z"/>
		<g>
			<g>
				<g>
					<path fill="#A6284E" d="M450.104,125.049c39.928,21.105,38.822-5.111,37.787-6.984"/>
					<path fill="#721D35" d="M451.098,123.088c0,0,0.678,0.383,1.861,1.053c0.59,0.324,1.316,0.764,2.131,1.184
						c0.816,0.426,1.738,0.908,2.742,1.432c1.031,0.484,2.145,1.027,3.334,1.566c1.203,0.494,2.461,1.076,3.799,1.533
						c1.328,0.514,2.727,0.934,4.152,1.338c0.717,0.164,1.439,0.365,2.172,0.508c0.73,0.109,1.471,0.283,2.209,0.348
						s1.482,0.17,2.217,0.148c0.367,0,0.738,0.021,1.104,0.002l1.086-0.088c1.43-0.172,2.828-0.496,4.057-1.1
						c1.229-0.6,2.291-1.426,3.131-2.381c0.842-0.953,1.463-2.021,1.908-3.063c0.865-2.109,1.104-4.061,1.121-5.404
						c0.018-0.676-0.035-1.207-0.09-1.563c-0.055-0.36-0.141-0.537-0.141-0.537s0.102,0.169,0.188,0.526
						c0.086,0.354,0.188,0.886,0.23,1.57c0.1,1.36,0.043,3.354-0.664,5.646c-0.371,1.135-0.93,2.334-1.76,3.463
						c-0.824,1.129-1.934,2.166-3.264,2.967c-1.33,0.805-2.865,1.311-4.441,1.643l-1.195,0.205c-0.402,0.057-0.807,0.07-1.209,0.107
						c-0.814,0.09-1.619,0.051-2.434,0.051c-0.813,0-1.607-0.111-2.412-0.164c-0.799-0.082-1.58-0.225-2.367-0.336
						c-1.547-0.289-3.07-0.605-4.506-1.02c-1.457-0.359-2.809-0.846-4.117-1.254c-1.287-0.449-2.49-0.908-3.611-1.32
						c-1.105-0.459-2.121-0.879-3.021-1.25c-0.902-0.373-1.625-0.729-2.254-1.004c-1.238-0.564-1.945-0.885-1.945-0.885
						L451.098,123.088z"/>
				</g>
				<g>
					<path fill="#A6284E" d="M450.07,124.968c-21.752,39.571,4.479,38.897,6.373,37.888"/>
					<path fill="#721D35" d="M452.014,125.996c0,0-0.393,0.67-1.082,1.842c-0.334,0.584-0.785,1.305-1.219,2.111
						c-0.439,0.809-0.934,1.723-1.475,2.719c-0.502,1.021-1.064,2.127-1.621,3.309c-0.516,1.193-1.117,2.441-1.598,3.773
						c-0.533,1.318-0.977,2.707-1.402,4.129c-0.178,0.715-0.391,1.436-0.543,2.162c-0.123,0.73-0.309,1.465-0.385,2.203
						c-0.074,0.736-0.193,1.48-0.186,2.215c-0.004,0.365-0.033,0.738-0.021,1.102l0.07,1.088c0.15,1.432,0.451,2.836,1.035,4.074
						c0.58,1.234,1.389,2.313,2.33,3.168c0.939,0.855,1.998,1.494,3.033,1.957c2.094,0.896,4.043,1.166,5.385,1.207
						c0.676,0.027,1.207-0.018,1.564-0.066c0.359-0.047,0.539-0.131,0.539-0.131s-0.172,0.1-0.529,0.18
						c-0.355,0.082-0.889,0.174-1.572,0.205c-1.361,0.078-3.355-0.01-5.635-0.754c-1.129-0.389-2.32-0.965-3.436-1.813
						c-1.115-0.844-2.135-1.971-2.914-3.311c-0.783-1.344-1.266-2.887-1.572-4.469l-0.186-1.199
						c-0.051-0.402-0.057-0.807-0.088-1.211c-0.076-0.814-0.023-1.619-0.012-2.432c0.014-0.814,0.137-1.605,0.203-2.41
						c0.096-0.799,0.252-1.576,0.375-2.359c0.314-1.545,0.656-3.063,1.092-4.49c0.385-1.451,0.891-2.795,1.32-4.098
						c0.471-1.279,0.949-2.475,1.381-3.588c0.477-1.1,0.912-2.107,1.299-3c0.387-0.898,0.754-1.613,1.041-2.238
						c0.582-1.229,0.916-1.931,0.916-1.931L452.014,125.996z"/>
				</g>
				<g>
					<path fill="#A6284E" d="M449.895,124.42c-39.926-21.105-38.822,5.113-37.783,6.986"/>
					<path fill="#721D35" d="M448.898,126.381c0,0-0.676-0.381-1.859-1.051c-0.59-0.324-1.316-0.765-2.131-1.185
						c-0.816-0.426-1.738-0.907-2.742-1.433c-1.029-0.483-2.145-1.027-3.334-1.565c-1.203-0.494-2.461-1.077-3.799-1.534
						c-1.328-0.513-2.725-0.934-4.152-1.336c-0.717-0.165-1.439-0.367-2.172-0.508c-0.73-0.111-1.469-0.284-2.209-0.35
						c-0.736-0.063-1.482-0.168-2.217-0.148c-0.365,0.001-0.738-0.021-1.104-0.002l-1.086,0.088c-1.428,0.173-2.826,0.496-4.057,1.1
						c-1.227,0.601-2.291,1.426-3.129,2.381c-0.844,0.953-1.465,2.021-1.91,3.063c-0.863,2.108-1.102,4.062-1.119,5.403
						c-0.018,0.676,0.037,1.207,0.092,1.563c0.053,0.361,0.141,0.537,0.141,0.537s-0.104-0.168-0.189-0.525
						c-0.086-0.354-0.188-0.887-0.23-1.568c-0.1-1.361-0.045-3.355,0.664-5.646c0.371-1.136,0.928-2.336,1.758-3.463
						c0.824-1.129,1.936-2.166,3.264-2.968c1.33-0.805,2.865-1.31,4.441-1.644l1.197-0.204c0.4-0.058,0.803-0.071,1.209-0.107
						c0.813-0.091,1.617-0.051,2.432-0.052c0.813,0.001,1.607,0.111,2.414,0.165c0.799,0.082,1.578,0.226,2.363,0.336
						c1.549,0.29,3.072,0.606,4.506,1.021c1.459,0.359,2.811,0.844,4.119,1.252c1.289,0.449,2.49,0.91,3.611,1.321
						c1.105,0.458,2.121,0.878,3.02,1.25c0.904,0.373,1.627,0.728,2.256,1.005c1.238,0.562,1.945,0.883,1.945,0.883L448.898,126.381
						z"/>
				</g>
				<g>
					<path fill="#A6284E" d="M450.166,124.984c21.295-39.82-4.928-38.845-6.809-37.816"/>
					<path fill="#721D35" d="M448.211,123.979c0,0,0.385-0.675,1.061-1.854c0.326-0.588,0.771-1.313,1.193-2.125
						c0.43-0.815,0.916-1.734,1.445-2.737c0.488-1.027,1.039-2.138,1.582-3.326c0.5-1.2,1.088-2.455,1.553-3.792
						c0.52-1.324,0.945-2.719,1.355-4.145c0.168-0.717,0.373-1.439,0.518-2.17c0.115-0.73,0.291-1.469,0.359-2.207
						c0.064-0.737,0.176-1.481,0.158-2.215c0-0.367,0.025-0.74,0.008-1.104l-0.082-1.086c-0.168-1.43-0.484-2.83-1.082-4.063
						c-0.596-1.229-1.416-2.298-2.367-3.141c-0.949-0.848-2.014-1.473-3.055-1.923c-2.104-0.874-4.057-1.121-5.396-1.146
						c-0.676-0.021-1.207,0.029-1.564,0.083c-0.359,0.052-0.537,0.138-0.537,0.138s0.17-0.102,0.525-0.186
						c0.355-0.085,0.887-0.184,1.57-0.223c1.361-0.094,3.355-0.028,5.645,0.689c1.133,0.377,2.33,0.938,3.455,1.774
						c1.125,0.83,2.156,1.944,2.951,3.276c0.799,1.334,1.297,2.871,1.623,4.449l0.199,1.198c0.055,0.401,0.066,0.804,0.102,1.209
						c0.088,0.813,0.043,1.619,0.041,2.433c-0.004,0.813-0.119,1.606-0.176,2.412c-0.086,0.799-0.232,1.578-0.348,2.363
						c-0.297,1.547-0.621,3.069-1.041,4.502c-0.367,1.456-0.857,2.805-1.271,4.112c-0.457,1.286-0.922,2.485-1.34,3.604
						c-0.463,1.104-0.889,2.116-1.266,3.014c-0.375,0.902-0.734,1.623-1.016,2.25c-0.566,1.236-0.893,1.941-0.893,1.941
						L448.211,123.979z"/>
				</g>
			</g>
			<g>
				<g>
					<path fill="#A6284E" d="M450.107,124.963c43.156-13.309,23.838-31.067,21.779-31.658"/>
					<path fill="#721D35" d="M449.426,122.871c0,0,0.748-0.207,2.061-0.572c0.645-0.188,1.471-0.391,2.344-0.668
						c0.879-0.276,1.869-0.588,2.951-0.928c1.07-0.387,2.242-0.789,3.465-1.25c1.199-0.502,2.5-0.979,3.771-1.602
						c1.301-0.575,2.586-1.266,3.879-1.991c0.625-0.391,1.279-0.759,1.896-1.177c0.596-0.439,1.24-0.838,1.809-1.314
						c0.566-0.479,1.168-0.93,1.674-1.463c0.26-0.26,0.537-0.507,0.779-0.777l0.707-0.83c0.887-1.133,1.648-2.352,2.09-3.646
						c0.443-1.292,0.613-2.628,0.529-3.896c-0.078-1.27-0.395-2.463-0.814-3.517c-0.881-2.102-2.094-3.649-3.029-4.612
						c-0.465-0.489-0.877-0.828-1.17-1.041c-0.291-0.217-0.479-0.28-0.479-0.28s0.191,0.047,0.506,0.239
						c0.313,0.188,0.76,0.492,1.271,0.947c1.033,0.891,2.404,2.342,3.523,4.461c0.539,1.065,0.994,2.309,1.205,3.692
						c0.217,1.381,0.164,2.899-0.209,4.405c-0.371,1.511-1.102,2.953-1.979,4.304l-0.701,0.991c-0.244,0.324-0.52,0.617-0.779,0.93
						c-0.512,0.641-1.107,1.182-1.684,1.756c-0.574,0.575-1.215,1.059-1.822,1.59c-0.623,0.508-1.275,0.959-1.91,1.436
						c-1.299,0.89-2.602,1.742-3.906,2.465c-1.285,0.775-2.584,1.389-3.799,2.025c-1.229,0.594-2.404,1.119-3.486,1.619
						c-1.107,0.459-2.121,0.879-3.021,1.252c-0.902,0.375-1.664,0.635-2.305,0.885c-1.273,0.479-2,0.752-2,0.752L449.426,122.871z"
						/>
				</g>
				<g>
					<path fill="#A6284E" d="M450.027,124.924c12.602,43.369,30.674,24.34,31.297,22.289"/>
					<path fill="#721D35" d="M452.127,124.276c0,0,0.195,0.752,0.539,2.069c0.176,0.648,0.365,1.477,0.631,2.354
						c0.262,0.885,0.557,1.881,0.879,2.967c0.367,1.078,0.752,2.256,1.193,3.486c0.48,1.207,0.938,2.516,1.539,3.797
						c0.555,1.311,1.225,2.605,1.928,3.912c0.381,0.629,0.738,1.289,1.145,1.914c0.432,0.602,0.818,1.254,1.287,1.828
						s0.908,1.184,1.436,1.695c0.256,0.266,0.498,0.547,0.766,0.795l0.818,0.719c1.117,0.906,2.322,1.688,3.611,2.15
						c1.283,0.465,2.617,0.654,3.889,0.592c1.27-0.059,2.469-0.354,3.527-0.76c2.115-0.846,3.684-2.033,4.66-2.955
						c0.498-0.457,0.842-0.863,1.061-1.152c0.221-0.289,0.289-0.475,0.289-0.475s-0.051,0.191-0.248,0.502
						c-0.193,0.311-0.504,0.752-0.965,1.258c-0.908,1.02-2.381,2.365-4.52,3.451c-1.074,0.523-2.322,0.957-3.711,1.146
						c-1.385,0.191-2.902,0.117-4.402-0.281c-1.504-0.395-2.934-1.146-4.27-2.049l-0.98-0.717c-0.318-0.25-0.607-0.529-0.916-0.795
						c-0.631-0.521-1.164-1.127-1.729-1.711c-0.566-0.584-1.039-1.232-1.563-1.85c-0.496-0.631-0.938-1.291-1.402-1.932
						c-0.869-1.314-1.701-2.631-2.402-3.949c-0.754-1.297-1.346-2.604-1.963-3.83c-0.574-1.236-1.078-2.422-1.563-3.514
						c-0.439-1.113-0.846-2.135-1.201-3.039c-0.361-0.91-0.609-1.676-0.848-2.318c-0.457-1.281-0.719-2.014-0.719-2.014
						L452.127,124.276z"/>
				</g>
				<g>
					<path fill="#A6284E" d="M449.518,124.664c-43.156,13.307-23.84,31.066-21.779,31.658"/>
					<path fill="#721D35" d="M450.201,126.754c0,0-0.75,0.207-2.061,0.572c-0.646,0.188-1.471,0.391-2.344,0.668
						c-0.879,0.277-1.871,0.588-2.953,0.928c-1.07,0.387-2.242,0.789-3.465,1.25c-1.199,0.502-2.5,0.979-3.77,1.602
						c-1.303,0.576-2.588,1.268-3.881,1.99c-0.625,0.391-1.277,0.76-1.896,1.178c-0.596,0.438-1.24,0.838-1.809,1.314
						c-0.564,0.479-1.17,0.93-1.674,1.463c-0.258,0.26-0.537,0.508-0.779,0.777l-0.705,0.83c-0.889,1.133-1.65,2.352-2.094,3.646
						c-0.441,1.291-0.611,2.629-0.527,3.895c0.078,1.271,0.395,2.465,0.814,3.52c0.879,2.1,2.094,3.648,3.029,4.609
						c0.465,0.492,0.877,0.83,1.168,1.043c0.293,0.217,0.48,0.281,0.48,0.281s-0.193-0.049-0.508-0.24
						c-0.313-0.188-0.758-0.492-1.271-0.945c-1.033-0.893-2.404-2.342-3.523-4.463c-0.539-1.064-0.994-2.307-1.205-3.691
						c-0.215-1.381-0.164-2.898,0.209-4.404c0.373-1.512,1.102-2.953,1.98-4.305l0.701-0.99c0.244-0.324,0.52-0.617,0.779-0.93
						c0.512-0.641,1.107-1.182,1.684-1.756c0.574-0.574,1.215-1.061,1.822-1.592c0.621-0.506,1.275-0.957,1.908-1.436
						c1.303-0.889,2.604-1.742,3.908-2.465c1.287-0.777,2.584-1.391,3.799-2.025c1.229-0.594,2.404-1.119,3.488-1.619
						c1.105-0.459,2.121-0.879,3.02-1.252c0.902-0.375,1.664-0.636,2.305-0.884c1.273-0.479,2.002-0.752,2.002-0.752
						L450.201,126.754z"/>
				</g>
				<g>
					<path fill="#A6284E" d="M450.107,124.871c-13.1-43.215-30.951-23.982-31.555-21.926"/>
					<path fill="#721D35" d="M448.014,125.543c0,0-0.205-0.75-0.563-2.063c-0.186-0.647-0.383-1.474-0.658-2.347
						c-0.271-0.881-0.578-1.873-0.912-2.956c-0.381-1.072-0.779-2.247-1.234-3.472c-0.494-1.201-0.965-2.504-1.582-3.777
						c-0.568-1.305-1.254-2.592-1.973-3.891c-0.389-0.625-0.754-1.281-1.168-1.899c-0.436-0.599-0.832-1.244-1.307-1.814
						c-0.477-0.569-0.924-1.173-1.455-1.68c-0.258-0.261-0.504-0.54-0.773-0.785l-0.828-0.709c-1.129-0.894-2.342-1.659-3.637-2.106
						c-1.289-0.449-2.625-0.625-3.895-0.547c-1.27,0.072-2.465,0.383-3.521,0.799c-2.104,0.871-3.658,2.076-4.625,3.007
						c-0.492,0.463-0.832,0.874-1.049,1.165s-0.283,0.478-0.283,0.478s0.049-0.192,0.242-0.504c0.191-0.312,0.496-0.757,0.953-1.269
						c0.895-1.027,2.354-2.393,4.479-3.502c1.068-0.534,2.313-0.983,3.697-1.188c1.383-0.208,2.9-0.15,4.404,0.229
						c1.508,0.379,2.947,1.113,4.295,2l0.986,0.707c0.322,0.244,0.615,0.521,0.928,0.783c0.637,0.514,1.176,1.112,1.748,1.689
						c0.57,0.578,1.053,1.221,1.582,1.83c0.504,0.625,0.951,1.281,1.426,1.917c0.883,1.304,1.729,2.61,2.447,3.919
						c0.77,1.29,1.377,2.591,2.008,3.808c0.588,1.231,1.105,2.41,1.602,3.495c0.453,1.109,0.869,2.125,1.236,3.026
						c0.373,0.905,0.629,1.667,0.873,2.309c0.473,1.275,0.742,2.004,0.742,2.004L448.014,125.543z"/>
				</g>
			</g>
		</g>
	</g>
	<g>
		
			<line fill="none" stroke="#EF3B68" stroke-width="8.0113" stroke-miterlimit="10" x1="399.93" y1="88.472" x2="500.072" y2="161.533"/>
		
			<line fill="none" stroke="#EF3B68" stroke-width="8.0113" stroke-miterlimit="10" x1="500.072" y1="88.472" x2="399.93" y2="161.533"/>
	</g>
</g>
<rect fill="#3399CC" width="200" height="250"/>
<g>
	<path fill="#41B4D8" stroke="#40B3D7" stroke-width="4.4834" stroke-miterlimit="10" d="M100.002,165.336
		c-10.426,0-18.879-8.447-18.879-18.873V48.561c0-10.426,8.453-18.877,18.879-18.877l0,0c10.424,0,18.875,8.453,18.875,18.877v97.9
		C118.877,156.889,110.424,165.336,100.002,165.336L100.002,165.336z"/>
	<circle fill="#41B4D8" stroke="#4669B2" stroke-width="4.4834" stroke-miterlimit="10" cx="100.002" cy="164.269" r="24.632"/>
	<g>
		
			<line fill="none" stroke="#4669B2" stroke-width="4.4834" stroke-miterlimit="10" x1="78.832" y1="125.001" x2="91.217" y2="125.001"/>
		
			<line fill="none" stroke="#4669B2" stroke-width="4.4834" stroke-miterlimit="10" x1="78.832" y1="110.721" x2="91.217" y2="110.721"/>
		
			<line fill="none" stroke="#4669B2" stroke-width="4.4834" stroke-miterlimit="10" x1="78.832" y1="96.44" x2="91.217" y2="96.44"/>
		
			<line fill="none" stroke="#4669B2" stroke-width="4.4834" stroke-miterlimit="10" x1="78.832" y1="82.159" x2="91.217" y2="82.159"/>
		
			<line fill="none" stroke="#4669B2" stroke-width="4.4834" stroke-miterlimit="10" x1="78.832" y1="67.879" x2="91.217" y2="67.879"/>
		
			<line fill="none" stroke="#4669B2" stroke-width="4.4834" stroke-miterlimit="10" x1="78.832" y1="53.602" x2="91.217" y2="53.602"/>
	</g>
	<rect x="78.891" y="136.066" fill="#41B4D8" width="42.219" height="22.951"/>
	<g>
		<polygon fill="#4669B2" points="103.568,188.902 100.002,220.316 96.43,188.902 		"/>
	</g>
	<g>
		<polygon fill="#4669B2" points="122.139,180.088 118.877,200.564 115.613,180.088 		"/>
	</g>
	<g>
		<polygon fill="#4669B2" points="85.012,180.088 81.75,200.564 78.488,180.088 		"/>
	</g>
	<g>
		<polygon fill="#4669B2" points="93.861,186.912 90.291,209.133 86.721,186.912 		"/>
	</g>
	<g>
		<polygon fill="#4669B2" points="113.855,186.912 110.283,209.133 106.715,186.912 		"/>
	</g>
</g>
<g>
	<g>
		
			<rect x="229.907" y="67" fill="#FFFFFF" stroke="#EF4069" stroke-width="0.5357" stroke-miterlimit="10" width="90.44" height="115.852"/>
		
			<rect x="235.075" y="185.982" fill="#FFFFFF" stroke="#EF4069" stroke-width="0.5357" stroke-miterlimit="10" width="79.736" height="6.498"/>
		
			<rect x="235.075" y="57.52" fill="#FFFFFF" stroke="#EF4069" stroke-width="0.5357" stroke-miterlimit="10" width="79.736" height="6.499"/>
		
			<line fill="none" stroke="#EE3968" stroke-width="5.5514" stroke-miterlimit="10" x1="228.147" y1="64.381" x2="321.853" y2="64.381"/>
		
			<line fill="none" stroke="#EE3968" stroke-width="5.5514" stroke-miterlimit="10" x1="228.147" y1="185.473" x2="321.853" y2="185.473"/>
		<rect x="232.646" y="67" fill="#EE3968" width="3.324" height="115.852"/>
		<rect x="314.597" y="67" fill="#EE3968" width="3.322" height="115.852"/>
	</g>
	<g>
		<g>
			<path fill="#A5D6AB" stroke="#545554" stroke-width="0.7266" stroke-miterlimit="10" d="M300.171,131.883"/>
		</g>
		<g>
			<path fill="#A5D6AB" stroke="#545554" stroke-width="0.7266" stroke-miterlimit="10" d="M252.115,131.883"/>
		</g>
		<g>
			<path fill="#A5D6AB" stroke="#545554" stroke-width="0.7266" stroke-miterlimit="10" d="M265.102,140.033"/>
		</g>
		<g>
			<path fill="#A5D6AB" stroke="#545554" stroke-width="0.7266" stroke-miterlimit="10" d="M284.896,140.033"/>
		</g>
		<g>
			<g>
				<g>
					<path fill="#A5D6AB" stroke="#545554" stroke-width="0.7266" stroke-miterlimit="10" d="M265.104,109.967"/>
				</g>
				<g>
					<path fill="#A5D6AB" stroke="#545554" stroke-width="0.7266" stroke-miterlimit="10" d="M284.898,109.967"/>
				</g>
				<path fill="#A5D6AB" stroke="#545554" stroke-width="0.7266" stroke-miterlimit="10" d="M266.46,109.967
					c0,1.729-1.402,3.131-3.133,3.131h-16.242c-1.729,0-3.131-1.402-3.131-3.131l0,0c0-1.73,1.401-3.132,3.131-3.132h16.242
					C265.058,106.835,266.46,108.237,266.46,109.967L266.46,109.967z"/>
				<path fill="#A5D6AB" stroke="#545554" stroke-width="0.7266" stroke-miterlimit="10" d="M306.048,109.967
					c0,1.729-1.402,3.131-3.132,3.131h-16.241c-1.732,0-3.133-1.402-3.133-3.131l0,0c0-1.73,1.4-3.132,3.133-3.132h16.241
					C304.646,106.835,306.048,108.237,306.048,109.967L306.048,109.967z"/>
				<circle fill="#A5D6AB" stroke="#545554" stroke-width="0.7266" stroke-miterlimit="10" cx="275.002" cy="109.967" r="3.132"/>
			</g>
			<g>
				<circle fill="#A5D6AB" stroke="#545554" stroke-width="0.7266" stroke-miterlimit="10" cx="255.457" cy="125" r="3.132"/>
				<circle fill="#A5D6AB" stroke="#545554" stroke-width="0.7266" stroke-miterlimit="10" cx="294.544" cy="125" r="3.132"/>
				<circle fill="#A5D6AB" stroke="#545554" stroke-width="0.7266" stroke-miterlimit="10" cx="274.999" cy="125" r="3.132"/>
			</g>
			<path fill="#A5D6AB" stroke="#545554" stroke-width="0.7266" stroke-miterlimit="10" d="M266.46,140.033
				c0,1.729-1.404,3.133-3.133,3.133h-16.242c-1.729,0-3.131-1.404-3.131-3.133l0,0c0-1.729,1.401-3.131,3.131-3.131h16.242
				C265.056,136.902,266.46,138.305,266.46,140.033L266.46,140.033z"/>
			<path fill="#A5D6AB" stroke="#545554" stroke-width="0.7266" stroke-miterlimit="10" d="M306.048,140.033
				c0,1.729-1.402,3.133-3.132,3.133h-16.242c-1.731,0-3.132-1.404-3.132-3.133l0,0c0-1.729,1.4-3.131,3.132-3.131h16.242
				C304.646,136.902,306.048,138.305,306.048,140.033L306.048,140.033z"/>
			<circle fill="#A5D6AB" stroke="#545554" stroke-width="0.7266" stroke-miterlimit="10" cx="275" cy="140.033" r="3.132"/>
		</g>
	</g>
</g>
</svg>
