<?xml version="1.0" encoding="utf-8"?>
<!-- Generator: Adobe Illustrator 19.1.0, SVG Export Plug-In . SVG Version: 6.00 Build 0)  -->
<svg version="1.1" id="Layer_1" xmlns="http://www.w3.org/2000/svg" xmlns:xlink="http://www.w3.org/1999/xlink" x="0px" y="0px"
	 viewBox="-199 201 200.3 200" style="enable-background:new -199 201 200.3 200;" xml:space="preserve">
<style type="text/css">
	.st0{fill:none;stroke:#000000;stroke-width:2;stroke-miterlimit:10;}
</style>
<g>
	<rect x="-148.4" y="251.3" class="st0" width="100.2" height="100.2"/>
	<g>
		<line class="st0" x1="-49" y1="278.6" x2="-22.7" y2="278.6"/>
		<line class="st0" x1="-49" y1="302" x2="-22.7" y2="302"/>
		<line class="st0" x1="-49" y1="325.4" x2="-22.7" y2="325.4"/>
	</g>
	<g>
		<line class="st0" x1="-175" y1="278.6" x2="-148.7" y2="278.6"/>
		<line class="st0" x1="-175" y1="302" x2="-148.7" y2="302"/>
		<line class="st0" x1="-175" y1="325.4" x2="-148.7" y2="325.4"/>
	</g>
	<g>
		<line class="st0" x1="-74.9" y1="350.4" x2="-74.9" y2="376.7"/>
		<line class="st0" x1="-98.3" y1="350.4" x2="-98.3" y2="376.7"/>
		<line class="st0" x1="-121.8" y1="350.4" x2="-121.8" y2="376.7"/>
	</g>
	<g>
		<line class="st0" x1="-74.9" y1="225.3" x2="-74.9" y2="251.6"/>
		<line class="st0" x1="-98.3" y1="225.3" x2="-98.3" y2="251.6"/>
		<line class="st0" x1="-121.8" y1="225.3" x2="-121.8" y2="251.6"/>
	</g>
</g>
<g>
	<path d="M-103.5,280.7c1-0.4,1.9-0.8,2.7-1.3s1.6-1.3,2.3-2.2h1.2v17.3H-99v-14.9c-0.2,0.2-0.4,0.4-0.7,0.6c-0.3,0.2-0.6,0.4-1,0.6
		c-0.4,0.2-0.8,0.4-1.2,0.6c-0.4,0.2-0.8,0.3-1.2,0.5L-103.5,280.7z"/>
	<path d="M-108.6,316.3h1.7v7.7c-0.3,0.1-0.9,0.3-1.9,0.5c-0.9,0.2-2.1,0.3-3.4,0.3c-1.1,0-2.2-0.2-3.1-0.6c-1-0.4-1.8-1-2.5-1.7
		c-0.7-0.8-1.3-1.7-1.7-2.8s-0.6-2.4-0.6-3.9s0.2-2.7,0.7-3.9c0.4-1.1,1-2.1,1.8-2.8s1.6-1.3,2.6-1.7c1-0.4,2-0.6,3.2-0.6
		c1.3,0,2.3,0.1,3.2,0.4c0.8,0.3,1.4,0.5,1.8,0.8l-0.6,1.5c-0.5-0.3-1.1-0.6-1.9-0.8s-1.7-0.3-2.6-0.3c-0.9,0-1.7,0.2-2.4,0.5
		c-0.8,0.3-1.4,0.8-2,1.4c-0.6,0.6-1,1.4-1.3,2.4c-0.3,0.9-0.5,2-0.5,3.3c0,1.1,0.1,2.2,0.4,3.1c0.3,0.9,0.7,1.7,1.2,2.4
		s1.2,1.2,2,1.5c0.8,0.3,1.7,0.5,2.8,0.5c0.9,0,1.6,0,2.1-0.1c0.6-0.1,1-0.2,1.2-0.3V316.3z"/>
	<path d="M-91.9,307.2h1.7v17.3h-1.7v-8.3h-9.4v8.3h-1.7v-17.3h1.7v7.5h9.4V307.2z"/>
	<path d="M-77.8,312.9c-0.4,0.4-0.9,1-1.5,1.8c-0.6,0.8-1.3,1.6-2,2.6c-0.7,0.9-1.4,1.9-2.1,3c-0.7,1-1.3,2-1.8,2.9h7.6v1.4H-87
		v-1.2c0.4-0.8,1-1.7,1.6-2.7c0.6-1,1.3-2,2-2.9c0.7-1,1.4-1.9,2-2.7c0.7-0.8,1.2-1.5,1.6-2.1h-6.9v-1.4h8.8V312.9z"/>
</g>
</svg>
