<?xml version="1.0" encoding="utf-8"?>
<!-- Generator: Adobe Illustrator 16.0.0, SVG Export Plug-In . SVG Version: 6.00 Build 0)  -->
<!DOCTYPE svg PUBLIC "-//W3C//DTD SVG 1.1//EN" "http://www.w3.org/Graphics/SVG/1.1/DTD/svg11.dtd">
<svg version="1.1" id="Layer_2" xmlns="http://www.w3.org/2000/svg" xmlns:xlink="http://www.w3.org/1999/xlink" x="0px" y="0px"
	 width="400px" height="400px" viewBox="0 0 400 400" enable-background="new 0 0 400 400" xml:space="preserve">
<g>
	<polygon fill="#010101" points="200.003,0 33.504,100.006 33.5,300.019 193.346,396.029 199.88,400 206.656,396.029 366.5,300.019 
		366.5,100.006 	"/>
	<polygon fill="#EF3B68" points="200.002,200.014 83.452,130.012 200.002,60.004 316.55,130.012 	"/>
	<polygon fill="#FFCE0C" points="200.002,200.014 200.002,270.017 200.002,340.019 141.727,305.021 83.452,270.017 141.727,235.017 
			"/>
	<polygon fill="#3499CD" points="200.002,200.014 200.002,270.017 200.002,340.019 258.277,305.021 316.55,270.017 258.277,235.017 
			"/>
	<polygon fill="#6FC498" points="83.452,130.006 141.727,165.01 200.002,200.014 141.727,235.013 83.452,270.017 83.452,200.014 	
		"/>
	<polygon fill="#996699" points="316.55,129.92 258.273,164.924 200.002,199.928 258.273,234.926 316.55,269.929 316.55,199.928 	
		"/>
</g>
</svg>
