<?xml version="1.0" encoding="utf-8"?>
<!-- Generator: Adobe Illustrator 16.0.0, SVG Export Plug-In . SVG Version: 6.00 Build 0)  -->
<!DOCTYPE svg PUBLIC "-//W3C//DTD SVG 1.1//EN" "http://www.w3.org/Graphics/SVG/1.1/DTD/svg11.dtd">
<svg version="1.1" id="Layer_1" xmlns="http://www.w3.org/2000/svg" xmlns:xlink="http://www.w3.org/1999/xlink" x="0px" y="0px"
	 width="500px" height="500px" viewBox="0 0 500 500" enable-background="new 0 0 500 500" xml:space="preserve">
<g>
	
		<rect x="125.884" y="90.355" fill="#FFFFFF" stroke="#EF4069" stroke-width="1.4745" stroke-miterlimit="10" width="248.932" height="318.879"/>
	<g>
		<g>
			<g>
				<path fill="#010101" stroke="#FFFFFF" stroke-width="0.5862" stroke-miterlimit="10" d="M249.333,223.489"/>
			</g>
			<g>
				<path fill="#010101" stroke="#FFFFFF" stroke-width="0.5862" stroke-miterlimit="10" d="M249.333,223.489"/>
			</g>
			<g>
				<path fill="#010101" stroke="#FFFFFF" stroke-width="0.5862" stroke-miterlimit="10" d="M249.333,223.489"/>
			</g>
			<g>
				<path fill="#010101" stroke="#FFFFFF" stroke-width="0.5862" stroke-miterlimit="10" d="M249.333,223.489"/>
			</g>
		</g>
		<polyline fill="#3499CE" points="322.608,265.621 285.971,287.601 249.336,309.585 249.336,265.621 249.336,221.658 		"/>
		<polyline fill="#9A6799" points="322.608,265.621 322.608,221.658 322.608,177.693 286.013,199.676 249.336,221.658 		"/>
		<polyline fill="#F8993D" points="249.343,133.729 212.7,155.711 176.06,177.693 212.703,199.676 249.343,221.658 		"/>
		<polyline fill="#EF4069" points="249.336,133.729 285.968,155.711 322.608,177.693 285.971,199.676 249.336,221.658 		"/>
		<polyline fill="#FDCF12" points="176.06,265.621 212.703,287.601 249.343,309.585 249.343,265.621 249.343,221.658 		"/>
		<polyline fill="#72C59B" points="176.064,265.621 176.064,221.658 176.064,177.693 212.7,199.676 249.336,221.658 		"/>
		<g>
			<g>
				<g>
					
						<line fill="none" stroke="#FFFFFF" stroke-width="1.7586" stroke-miterlimit="10" x1="249.349" y1="133.729" x2="249.348" y2="135.781"/>
					
						<line fill="none" stroke="#FFFFFF" stroke-width="1.7586" stroke-miterlimit="10" stroke-dasharray="3.9917,3.9917" x1="249.348" y1="139.772" x2="249.334" y2="217.61"/>
					
						<line fill="none" stroke="#FFFFFF" stroke-width="1.7586" stroke-miterlimit="10" x1="249.334" y1="219.606" x2="249.333" y2="221.658"/>
				</g>
			</g>
			<g>
				<g>
					
						<line fill="none" stroke="#FFFFFF" stroke-width="1.7586" stroke-miterlimit="10" x1="249.333" y1="221.658" x2="251.093" y2="222.713"/>
					
						<line fill="none" stroke="#FFFFFF" stroke-width="1.7586" stroke-miterlimit="10" stroke-dasharray="4.2815,4.2815" x1="254.764" y1="224.916" x2="319.013" y2="263.464"/>
					
						<line fill="none" stroke="#FFFFFF" stroke-width="1.7586" stroke-miterlimit="10" x1="320.848" y1="264.565" x2="322.608" y2="265.621"/>
				</g>
			</g>
			<g>
				<g>
					
						<line fill="none" stroke="#FFFFFF" stroke-width="1.7586" stroke-miterlimit="10" x1="249.333" y1="221.658" x2="247.574" y2="222.713"/>
					
						<line fill="none" stroke="#FFFFFF" stroke-width="1.7586" stroke-miterlimit="10" stroke-dasharray="4.2814,4.2814" x1="243.903" y1="224.916" x2="179.654" y2="263.464"/>
					
						<line fill="none" stroke="#FFFFFF" stroke-width="1.7586" stroke-miterlimit="10" x1="177.819" y1="264.565" x2="176.06" y2="265.621"/>
				</g>
			</g>
		</g>
		<g>
			
				<line fill="none" stroke="#FFFFFF" stroke-width="1.7586" stroke-miterlimit="10" x1="249.349" y1="309.585" x2="249.333" y2="221.658"/>
			
				<line fill="none" stroke="#FFFFFF" stroke-width="1.7586" stroke-miterlimit="10" x1="249.333" y1="221.658" x2="322.608" y2="177.693"/>
			
				<line fill="none" stroke="#FFFFFF" stroke-width="1.7586" stroke-miterlimit="10" x1="249.333" y1="221.658" x2="176.06" y2="177.693"/>
		</g>
	</g>
	
		<rect x="140.108" y="417.85" fill="#FFFFFF" stroke="#EF4069" stroke-width="1.4745" stroke-miterlimit="10" width="219.467" height="17.885"/>
	
		<rect x="140.108" y="64.266" fill="#FFFFFF" stroke="#EF4069" stroke-width="1.4745" stroke-miterlimit="10" width="219.467" height="17.885"/>
	
		<line fill="none" stroke="#EF4069" stroke-width="15.2798" stroke-miterlimit="10" x1="121.041" y1="82.15" x2="378.959" y2="82.15"/>
	
		<line fill="none" stroke="#EF4069" stroke-width="15.2798" stroke-miterlimit="10" x1="121.041" y1="417.445" x2="378.959" y2="417.445"/>
	<g>
		<rect x="184.814" y="324.681" fill="none" width="129.04" height="33.526"/>
		<path d="M228.906,327.716h5.706v25.349h-5.706v-10.754h-9.583v10.754h-5.706v-25.349h5.706v9.693h9.583V327.716z"/>
		<path d="M250.376,353.576c-1.78,0-3.317-0.25-4.609-0.749c-1.293-0.5-2.359-1.195-3.201-2.085
			c-0.841-0.891-1.463-1.951-1.865-3.183s-0.604-2.591-0.604-4.078v-15.766h5.706v15.29c0,1.023,0.115,1.896,0.348,2.615
			c0.231,0.72,0.548,1.305,0.951,1.756s0.89,0.774,1.463,0.969c0.573,0.195,1.201,0.293,1.884,0.293c1.39,0,2.518-0.427,3.383-1.28
			c0.866-0.854,1.299-2.305,1.299-4.353v-15.29h5.706v15.766c0,1.487-0.207,2.853-0.622,4.097c-0.414,1.243-1.048,2.311-1.901,3.2
			c-0.854,0.891-1.938,1.579-3.256,2.066C253.742,353.332,252.181,353.576,250.376,353.576z"/>
		<path d="M274.774,353.394c-1.391,0-2.774-0.043-4.152-0.128c-1.378-0.086-2.811-0.286-4.298-0.604v-24.58
			c1.171-0.22,2.451-0.384,3.841-0.494c1.391-0.109,2.683-0.164,3.878-0.164c1.609,0,3.091,0.115,4.443,0.347
			c1.354,0.232,2.518,0.629,3.493,1.189c0.976,0.562,1.738,1.298,2.286,2.213c0.549,0.914,0.823,2.043,0.823,3.383
			c0,2.024-0.976,3.622-2.926,4.792c1.609,0.61,2.706,1.439,3.292,2.487c0.585,1.049,0.878,2.231,0.878,3.548
			c0,2.658-0.97,4.658-2.908,5.999C281.486,352.724,278.602,353.394,274.774,353.394z M271.884,337.665h2.779
			c1.756,0,3.012-0.225,3.768-0.677c0.756-0.45,1.134-1.176,1.134-2.176c0-1.024-0.39-1.743-1.17-2.158
			c-0.781-0.414-1.927-0.622-3.438-0.622c-0.488,0-1.013,0.007-1.573,0.019c-0.561,0.013-1.061,0.043-1.499,0.091V337.665z
			 M271.884,342.018v6.548c0.414,0.049,0.865,0.086,1.354,0.109c0.487,0.024,1.023,0.037,1.609,0.037
			c1.706,0,3.084-0.244,4.133-0.731c1.048-0.488,1.573-1.391,1.573-2.707c0-1.171-0.439-2.006-1.317-2.506
			c-0.878-0.499-2.134-0.75-3.768-0.75H271.884z"/>
	</g>
	<rect x="133.422" y="221.652" fill="#EF4069" width="9.146" height="48.872"/>
	<rect x="358.988" y="221.652" fill="#EF4069" width="9.143" height="48.872"/>
</g>
<g>
</g>
<g>
</g>
<g>
</g>
<g>
</g>
<g>
</g>
<g>
</g>
</svg>
