<?xml version="1.0" encoding="utf-8"?>
<!-- Generator: Adobe Illustrator 16.0.0, SVG Export Plug-In . SVG Version: 6.00 Build 0)  -->
<!DOCTYPE svg PUBLIC "-//W3C//DTD SVG 1.0//EN" "http://www.w3.org/TR/2001/REC-SVG-20010904/DTD/svg10.dtd">
<svg version="1.0" id="Layer_1" xmlns="http://www.w3.org/2000/svg" xmlns:xlink="http://www.w3.org/1999/xlink" x="0px" y="0px"
	 width="1920px" height="720px" viewBox="0 0 1920 720" enable-background="new 0 0 1920 720" xml:space="preserve">
<g>
	<g>
		<g>
			<polygon fill="#3399CC" points="358.762,357.003 448.778,411.003 538.753,465.003 448.758,519.003 358.762,573.003 
				358.762,465.003 			"/>
			<polygon fill="#996699" points="538.753,249.003 448.855,303.003 358.762,357.003 448.756,411.003 538.753,465.003 
				538.753,357.003 			"/>
			<polygon fill="#F89839" points="358.778,141.003 268.762,195.003 178.754,249.003 268.765,303.003 358.778,357.003 
				358.778,249.003 			"/>
			<polygon fill="#EE3968" points="358.762,141.003 448.75,195.003 538.753,249.003 448.758,303.003 358.762,357.003 
				358.762,249.003 			"/>
			<polygon fill="#FFCE09" points="358.778,357.003 268.762,411.003 178.753,465.003 268.765,519.003 358.778,573.003 
				358.778,465.003 			"/>
			<polygon fill="#6EC498" points="178.77,249.003 268.759,303.003 358.762,357.003 268.767,411.003 178.77,465.003 178.77,357.003 
							"/>
		</g>
		<g>
			<g>
				<path fill="#FFFFFF" d="M360.048,369.292c0,0-0.417-2.434-0.672-6.559c-0.167-2.058-0.167-4.573-0.312-7.362
					c-0.118-2.783-0.21-5.878-0.176-9.179c-0.108-3.349-0.061-6.925-0.03-10.649c-0.091-3.72,0.089-7.605-0.035-11.526
					c-0.035-1.963,0.061-3.963-0.073-5.928c-0.026-0.985-0.053-1.977-0.08-2.972c-0.025-0.992,0.007-1.999-0.098-2.968
					c-0.161-1.943-0.186-3.944-0.366-5.86c-0.099-0.953-0.217-1.905-0.292-2.86l-0.119-1.435c-0.042-0.476-0.147-0.917-0.215-1.378
					l-0.397-2.745l-0.094-0.688l-0.144-0.648l-0.277-1.294l-0.268-1.297c-0.088-0.432-0.146-0.881-0.285-1.266
					c-0.233-0.802-0.476-1.601-0.677-2.414c-1.005-3.096-2.131-5.909-3.585-8.317c-1.487-2.359-3.255-4.419-5.402-6.198
					c-2.135-1.778-4.636-3.253-7.236-4.418c-2.605-1.151-5.287-1.985-7.769-2.604c-2.491-0.646-4.788-1.015-6.721-1.279
					c-0.977-0.141-1.838-0.203-2.621-0.285c-0.757-0.044-1.441-0.093-1.973-0.093c-0.531,0.014-0.977-0.005-1.24,0.051
					c-0.294,0.046-0.446,0.069-0.446,0.069s0.083-0.127,0.244-0.374c0.17-0.274,0.462-0.61,0.883-1.032
					c0.84-0.824,2.182-1.949,4.053-3.06c1.867-1.145,4.261-2.339,7.203-3.304c2.939-0.947,6.432-1.784,10.455-1.935
					c4.009-0.144,8.581,0.339,13.308,1.997c4.715,1.633,9.514,4.534,13.53,8.497c3.982,3.987,7.035,8.856,9.244,13.923
					c0.512,1.264,0.986,2.552,1.471,3.842c0.5,1.291,0.756,2.572,1.124,3.873c0.783,2.609,1.123,5.178,1.536,7.761
					c0.084,0.645,0.206,1.299,0.257,1.935l0.139,1.901c0.097,1.268,0.15,2.536,0.222,3.8c0.11,1.275,0.019,2.489,0,3.727
					c-0.035,1.23-0.057,2.456-0.118,3.676c-0.339,4.822-0.921,9.506-1.913,13.869c-0.834,4.425-2.161,8.498-3.375,12.366
					c-1.328,3.824-2.814,7.341-4.216,10.562c-1.54,3.206-3.075,6.077-4.471,8.581c-0.707,1.261-1.389,2.381-2.09,3.408
					c-0.684,1.031-1.301,1.981-1.908,2.826C361.667,367.426,360.048,369.292,360.048,369.292z"/>
			</g>
			<g>
				<g>
					<path fill="#FFFFFF" d="M352.081,360.372c0,0,1.551-1.925,4.482-4.849c1.436-1.488,3.321-3.157,5.327-5.11
						c2.015-1.933,4.282-4.052,6.788-6.214c2.453-2.287,5.166-4.635,8.001-7.065c2.734-2.537,5.796-4.961,8.669-7.651
						c3.003-2.578,5.882-5.333,8.813-8.025c1.371-1.402,2.834-2.761,4.204-4.145c0.654-0.705,1.295-1.424,1.968-2.113
						c0.656-0.697,1.38-1.37,1.929-2.104c1.169-1.425,2.504-2.806,3.488-4.236c0.536-0.704,1.07-1.406,1.604-2.105
						c0.451-0.707,0.893-1.417,1.373-2.106c1.701-2.795,3.181-5.502,3.994-8.166c0.832-2.661,1.246-5.32,1.189-8.085
						c-0.05-2.756-0.583-5.593-1.429-8.305c-0.873-2.699-2.018-5.263-3.213-7.525c-1.178-2.288-2.439-4.244-3.534-5.862
						c-1.103-1.626-2.08-2.853-2.793-3.675c-0.366-0.386-0.651-0.73-0.869-0.889c-0.231-0.188-0.35-0.286-0.35-0.286
						s0.15-0.023,0.441-0.068c0.318-0.057,0.764-0.064,1.36-0.032c1.177,0.074,2.914,0.322,4.993,0.977
						c2.101,0.63,4.595,1.617,7.281,3.175c2.674,1.566,5.62,3.637,8.423,6.558c2.775,2.924,5.45,6.709,7.306,11.402
						c1.87,4.667,2.794,10.241,2.386,15.878c-0.379,5.667-2.163,11.122-4.554,16.085c-0.618,1.217-1.28,2.421-1.936,3.635
						c-0.687,1.165-1.455,2.244-2.204,3.363c-1.452,2.311-3.196,4.196-4.857,6.23c-0.834,1.028-1.752,1.883-2.64,2.797
						c-0.891,0.907-1.811,1.782-2.714,2.668c-0.899,0.896-1.871,1.631-2.813,2.434c-0.949,0.784-1.886,1.575-2.843,2.333
						c-3.859,2.901-7.766,5.549-11.701,7.681c-3.875,2.296-7.82,3.972-11.525,5.626c-3.757,1.516-7.373,2.743-10.727,3.811
						c-3.426,0.967-6.597,1.717-9.402,2.327c-1.415,0.305-2.708,0.53-3.944,0.688c-1.227,0.171-2.35,0.338-3.386,0.442
						C354.554,360.349,352.081,360.372,352.081,360.372z"/>
					<path fill="#FFFFFF" d="M355.875,344.294c0,0,1.962,1.505,4.958,4.364c1.523,1.398,3.235,3.249,5.24,5.2
						c1.982,1.967,4.156,4.18,6.378,6.63c2.36,2.389,4.758,5.052,7.273,7.812c2.599,2.676,5.113,5.656,7.874,8.459
						c1.362,1.421,2.653,2.959,4.09,4.315c0.69,0.708,1.385,1.42,2.083,2.136c0.695,0.712,1.355,1.479,2.092,2.121
						c1.441,1.326,2.825,2.779,4.26,4.076c0.723,0.637,1.458,1.26,2.165,1.914c0.708,0.658,1.415,1.319,2.161,1.855
						c1.451,1.156,2.879,2.404,4.337,3.363l1.083,0.778c0.362,0.25,0.707,0.564,1.073,0.753c0.72,0.438,1.445,0.864,2.15,1.331
						c2.856,1.621,5.62,3.001,8.343,3.79c2.717,0.77,5.429,1.13,8.222,1.031c2.785-0.092,5.631-0.653,8.345-1.52
						c2.698-0.897,5.258-2.052,7.515-3.259c2.285-1.189,4.229-2.463,5.844-3.565c1.62-1.111,2.837-2.097,3.656-2.815
						c0.382-0.368,0.726-0.656,0.881-0.876c0.186-0.233,0.282-0.354,0.282-0.354s0.025,0.15,0.073,0.44
						c0.061,0.319,0.07,0.764,0.043,1.361c-0.068,1.177-0.303,2.919-0.947,5.002c-0.621,2.104-1.593,4.608-3.139,7.302
						c-1.553,2.683-3.615,5.635-6.51,8.456c-2.904,2.79-6.656,5.48-11.298,7.386c-4.617,1.918-10.123,2.937-15.736,2.671
						c-5.624-0.271-11.115-1.858-16.147-4.102c-1.229-0.585-2.446-1.214-3.673-1.835c-1.222-0.626-2.29-1.386-3.435-2.097
						c-2.339-1.39-4.316-3.057-6.374-4.673c-1.045-0.808-1.967-1.681-2.887-2.555c-0.93-0.865-1.83-1.763-2.74-2.642
						c-0.946-0.863-1.698-1.82-2.527-2.74c-0.81-0.929-1.626-1.845-2.41-2.782c-3.025-3.776-5.782-7.614-8.021-11.495
						c-2.396-3.818-4.196-7.715-5.937-11.384c-1.629-3.713-2.932-7.31-4.096-10.63c-1.053-3.404-1.882-6.559-2.563-9.35
						c-0.339-1.408-0.603-2.695-0.788-3.927c-0.201-1.224-0.395-2.343-0.524-3.376C355.959,346.767,355.876,344.294,355.875,344.294
						z"/>
					<path fill="#FFFFFF" d="M367.565,365.257c0,0-2.001-1.453-5.07-4.233c-1.56-1.358-3.32-3.163-5.375-5.062
						c-2.033-1.915-4.264-4.07-6.551-6.462c-2.421-2.326-4.889-4.926-7.475-7.62c-2.668-2.606-5.26-5.521-8.093-8.252
						c-1.399-1.384-2.73-2.889-4.202-4.208c-0.708-0.689-1.421-1.384-2.138-2.081c-0.714-0.694-1.393-1.443-2.146-2.067
						c-1.476-1.288-2.897-2.704-4.366-3.966c-0.739-0.617-1.49-1.221-2.214-1.856c-0.725-0.639-1.448-1.283-2.209-1.8
						c-1.481-1.117-2.941-2.331-4.424-3.252l-1.103-0.749c-0.368-0.24-0.721-0.548-1.092-0.728
						c-0.732-0.418-1.468-0.826-2.185-1.274c-2.898-1.548-5.698-2.86-8.441-3.577c-2.737-0.701-5.457-0.992-8.246-0.823
						c-2.781,0.163-5.611,0.798-8.302,1.733c-2.672,0.968-5.203,2.187-7.427,3.453c-2.252,1.248-4.163,2.572-5.748,3.717
						c-1.591,1.154-2.781,2.172-3.581,2.912c-0.372,0.378-0.708,0.676-0.858,0.899c-0.18,0.237-0.272,0.36-0.272,0.36
						s-0.029-0.149-0.085-0.438c-0.069-0.317-0.09-0.762-0.08-1.36c0.037-1.178,0.225-2.926,0.814-5.025
						c0.565-2.12,1.472-4.649,2.948-7.383c1.482-2.723,3.468-5.728,6.29-8.624c2.832-2.865,6.515-5.652,11.108-7.676
						c4.568-2.035,10.047-3.192,15.665-3.069c5.63,0.126,11.159,1.575,16.246,3.688c1.244,0.554,2.477,1.15,3.719,1.74
						c1.235,0.595,2.324,1.326,3.487,2.008c2.374,1.328,4.392,2.944,6.491,4.506c1.066,0.781,2.008,1.631,2.951,2.479
						c0.953,0.841,1.875,1.714,2.808,2.57c0.969,0.838,1.744,1.775,2.597,2.674c0.833,0.907,1.674,1.801,2.481,2.718
						c3.122,3.696,5.978,7.461,8.319,11.283c2.495,3.755,4.396,7.603,6.232,11.225c1.726,3.67,3.122,7.231,4.373,10.521
						c1.143,3.376,2.054,6.508,2.808,9.28c0.376,1.398,0.673,2.679,0.891,3.905c0.233,1.218,0.456,2.331,0.613,3.361
						C367.417,362.787,367.565,365.257,367.565,365.257z"/>
					<path fill="#FFFFFF" d="M371.015,354.708c0,0-1.638,1.853-4.699,4.641c-1.502,1.421-3.462,3.002-5.556,4.862
						c-2.102,1.839-4.463,3.853-7.065,5.898c-2.556,2.173-5.373,4.396-8.317,6.693c-1.438,1.193-2.918,2.392-4.448,3.573
						c-0.752,0.605-1.553,1.173-2.296,1.801c-0.75,0.623-1.497,1.262-2.268,1.875c-3.119,2.439-6.122,5.06-9.175,7.615
						c-1.435,1.339-2.958,2.63-4.392,3.948c-0.687,0.675-1.36,1.364-2.063,2.022c-0.687,0.667-1.444,1.305-2.026,2.013
						c-1.232,1.371-2.633,2.688-3.682,4.074c-0.568,0.678-1.136,1.354-1.701,2.03c-0.483,0.685-0.957,1.375-1.469,2.042
						c-1.831,2.715-3.442,5.353-4.375,7.978c-0.957,2.62-1.496,5.258-1.57,8.021c-0.081,2.755,0.319,5.613,1.038,8.361
						c0.748,2.735,1.771,5.35,2.861,7.664c1.071,2.341,2.241,4.353,3.261,6.02c1.027,1.675,1.948,2.944,2.623,3.799
						c0.348,0.402,0.617,0.76,0.828,0.928c0.222,0.199,0.337,0.302,0.337,0.302s-0.151,0.017-0.444,0.048
						c-0.32,0.043-0.767,0.029-1.36-0.029c-1.172-0.129-2.896-0.455-4.943-1.205c-2.07-0.726-4.518-1.826-7.129-3.508
						c-2.6-1.688-5.446-3.896-8.113-6.943c-2.637-3.051-5.132-6.959-6.766-11.736c-1.648-4.752-2.308-10.364-1.635-15.975
						c0.641-5.645,2.682-11.006,5.3-15.852c0.674-1.188,1.391-2.359,2.101-3.541c0.742-1.129,1.558-2.174,2.357-3.256
						c1.556-2.242,3.387-4.043,5.139-6c0.88-0.989,1.837-1.798,2.767-2.671c0.931-0.865,1.89-1.697,2.833-2.541
						c0.94-0.852,1.944-1.543,2.922-2.301c0.984-0.74,1.956-1.488,2.947-2.2c3.989-2.722,8.012-5.188,12.041-7.138
						c2.001-1.019,3.971-2.003,5.961-2.778c1.971-0.827,3.914-1.595,5.81-2.314c3.823-1.343,7.491-2.405,10.891-3.318
						c3.467-0.81,6.669-1.414,9.5-1.896c1.427-0.24,2.729-0.406,3.971-0.508c1.234-0.115,2.363-0.23,3.403-0.288
						C368.542,354.619,371.015,354.708,371.015,354.708z"/>
				</g>
			</g>
			<g>
				<g>
					<path fill="#FFFFFF" d="M352.324,355.138c0,0,2.455-0.325,6.601-0.423c2.07-0.088,4.591,0.003,7.395-0.029
						c2.798-0.011,5.907,0.017,9.22,0.179c3.361,0.033,6.952,0.205,10.69,0.398c3.739,0.049,7.636,0.403,11.583,0.438
						c3.964,0.204,7.96,0.195,11.953,0.271c1.967-0.068,3.97-0.044,5.925-0.096c0.965-0.059,1.93-0.137,2.896-0.171
						c0.959-0.054,1.955-0.034,2.864-0.187c1.837-0.227,3.771-0.294,5.484-0.649c0.881-0.137,1.761-0.272,2.638-0.408
						c0.821-0.199,1.638-0.408,2.469-0.575c3.192-0.842,6.203-1.747,8.653-3.124c2.488-1.337,4.668-2.957,6.579-4.968
						c1.907-2.002,3.529-4.39,4.822-6.918c1.26-2.538,2.25-5.164,2.976-7.619c0.76-2.461,1.213-4.742,1.56-6.669
						c0.343-1.938,0.491-3.498,0.551-4.588c0.004-0.531,0.039-0.979-0.009-1.244c-0.037-0.296-0.055-0.449-0.055-0.449
						s0.125,0.088,0.366,0.257c0.271,0.181,0.595,0.486,1.003,0.924c0.792,0.874,1.873,2.266,2.908,4.189
						c1.064,1.922,2.171,4.378,3,7.38c0.82,2.999,1.459,6.556,1.417,10.619c-0.068,4.046-0.843,8.636-2.828,13.282
						c-1.958,4.639-5.217,9.24-9.437,12.964c-1.074,0.882-2.166,1.779-3.303,2.641c-1.162,0.76-2.348,1.504-3.563,2.233
						l-0.915,0.542c-0.308,0.171-0.619,0.305-0.93,0.459c-0.625,0.296-1.251,0.593-1.88,0.891c-1.268,0.58-2.553,1.174-3.837,1.571
						c-1.287,0.448-2.596,0.856-3.907,1.277c-1.298,0.348-2.6,0.606-3.913,0.892c-2.643,0.664-5.204,0.811-7.811,1.137
						c-1.313,0.167-2.565,0.145-3.84,0.195c-1.27,0.041-2.541,0.038-3.806,0.056c-1.268,0.023-2.48-0.112-3.716-0.183
						c-1.229-0.088-2.454-0.161-3.67-0.273c-4.8-0.563-9.46-1.341-13.788-2.511c-4.396-1.011-8.417-2.515-12.248-3.872
						c-3.775-1.49-7.248-3.097-10.42-4.635c-3.156-1.661-5.977-3.305-8.435-4.797c-1.238-0.754-2.334-1.481-3.34-2.22
						c-1.009-0.723-1.94-1.376-2.765-2.015C354.137,356.826,352.324,355.138,352.324,355.138z"/>
					<path fill="#FFFFFF" d="M366.326,346.167c0,0,0.354,2.443,0.5,6.574c0.114,2.061,0.047,4.575,0.119,7.367
						c0.045,2.786,0.055,5.882-0.065,9.181c0.02,3.35-0.122,6.924-0.25,10.646c-0.007,3.721-0.29,7.601-0.269,11.523
						c-0.016,1.963-0.165,3.96-0.083,5.928c0,0.985,0.001,1.977,0.001,2.974c0,0.992-0.061,1.997,0.019,2.969
						c0.109,1.946,0.083,3.948,0.211,5.867c0.074,0.956,0.167,1.91,0.217,2.868l0.081,1.437c0.029,0.478,0.122,0.921,0.179,1.384
						l0.325,2.755l0.076,0.689l0.126,0.651l0.243,1.302l0.234,1.303c0.078,0.434,0.122,0.885,0.251,1.272
						c0.212,0.809,0.434,1.612,0.614,2.432c0.923,3.12,1.974,5.962,3.364,8.407c1.424,2.396,3.137,4.5,5.235,6.334
						c2.088,1.833,4.549,3.371,7.119,4.603c2.574,1.219,5.233,2.122,7.699,2.805c2.474,0.71,4.76,1.138,6.686,1.452
						c0.973,0.165,1.832,0.251,2.613,0.353c0.756,0.064,1.438,0.13,1.97,0.144c0.531,0.001,0.976,0.03,1.241-0.019
						c0.295-0.038,0.448-0.058,0.448-0.058s-0.086,0.125-0.253,0.367c-0.177,0.271-0.478,0.599-0.91,1.009
						c-0.861,0.803-2.231,1.893-4.13,2.954c-1.896,1.097-4.32,2.229-7.285,3.117c-2.963,0.871-6.475,1.618-10.502,1.664
						c-4.011,0.041-8.57-0.56-13.252-2.34c-4.672-1.756-9.395-4.782-13.306-8.849c-3.877-4.092-6.8-9.04-8.875-14.164
						c-0.479-1.276-0.918-2.576-1.37-3.879c-0.464-1.304-0.688-2.591-1.021-3.901c-0.714-2.629-0.985-5.205-1.33-7.798
						c-0.067-0.646-0.172-1.305-0.206-1.94l-0.089-1.905c-0.063-1.269-0.083-2.539-0.123-3.804
						c-0.076-1.277,0.048-2.488,0.098-3.725c0.067-1.229,0.122-2.454,0.215-3.672c0.466-4.812,1.171-9.479,2.277-13.813
						c0.95-4.4,2.384-8.438,3.699-12.272c1.428-3.788,3.006-7.264,4.493-10.446c1.624-3.165,3.233-5.994,4.695-8.461
						c0.74-1.241,1.451-2.344,2.178-3.352c0.711-1.013,1.353-1.946,1.982-2.775C364.66,347.989,366.327,346.167,366.326,346.167z"/>
					<path fill="#FFFFFF" d="M364.908,358.653c0,0-2.451,0.354-6.596,0.499c-2.068,0.111-4.59,0.049-7.394,0.114
						c-2.797,0.042-5.906,0.05-9.221-0.073c-3.361,0.005-6.954-0.126-10.693-0.276c-3.739-0.006-7.64-0.315-11.587-0.305
						c-3.965-0.159-7.961-0.104-11.955-0.134c-1.967,0.09-3.969,0.09-5.924,0.163c-0.964,0.069-1.928,0.158-2.894,0.204
						c-0.958,0.064-1.954,0.057-2.861,0.219c-1.834,0.248-3.768,0.337-5.476,0.712c-0.88,0.146-1.758,0.293-2.633,0.438
						c-0.819,0.208-1.634,0.427-2.462,0.604c-3.182,0.877-6.183,1.816-8.615,3.222c-2.473,1.365-4.634,3.01-6.521,5.042
						c-1.883,2.023-3.478,4.43-4.741,6.973c-1.23,2.553-2.19,5.189-2.887,7.653c-0.731,2.47-1.158,4.756-1.483,6.687
						c-0.321,1.94-0.45,3.503-0.498,4.593c0.002,0.531-0.028,0.979,0.023,1.245c0.04,0.296,0.06,0.448,0.06,0.448
						s-0.126-0.086-0.369-0.253c-0.272-0.178-0.6-0.479-1.014-0.912c-0.802-0.865-1.898-2.243-2.956-4.155
						c-1.086-1.91-2.221-4.353-3.085-7.345c-0.854-2.989-1.535-6.538-1.539-10.601c0.021-4.048,0.742-8.646,2.673-13.314
						c1.905-4.662,5.11-9.3,9.287-13.073c1.063-0.893,2.146-1.804,3.273-2.678c1.153-0.772,2.33-1.53,3.537-2.273l0.909-0.553
						c0.305-0.174,0.615-0.312,0.924-0.469c0.622-0.304,1.245-0.608,1.87-0.913c1.261-0.595,2.539-1.203,3.819-1.614
						c1.282-0.463,2.586-0.887,3.893-1.322c1.294-0.361,2.593-0.636,3.902-0.937c2.635-0.693,5.194-0.868,7.797-1.226
						c1.311-0.182,2.563-0.173,3.837-0.238c1.27-0.056,2.54-0.067,3.805-0.099c1.267-0.039,2.481,0.083,3.718,0.14
						c1.23,0.073,2.456,0.133,3.673,0.231c4.806,0.509,9.475,1.232,13.814,2.353c4.407,0.96,8.445,2.418,12.291,3.731
						c3.792,1.448,7.282,3.014,10.472,4.516c3.175,1.625,6.014,3.236,8.489,4.699c1.247,0.741,2.351,1.455,3.365,2.182
						c1.018,0.711,1.956,1.354,2.788,1.983C363.076,356.986,364.908,358.653,364.908,358.653z"/>
					<path fill="#FFFFFF" d="M360.048,369.292c0,0-0.417-2.434-0.672-6.559c-0.167-2.058-0.167-4.573-0.312-7.362
						c-0.118-2.783-0.21-5.878-0.176-9.179c-0.108-3.349-0.061-6.925-0.03-10.649c-0.091-3.72,0.089-7.605-0.035-11.526
						c-0.035-1.963,0.061-3.963-0.073-5.928c-0.026-0.985-0.053-1.977-0.08-2.972c-0.025-0.992,0.007-1.999-0.098-2.968
						c-0.161-1.943-0.186-3.944-0.366-5.86c-0.099-0.953-0.217-1.905-0.292-2.86l-0.119-1.435c-0.042-0.476-0.147-0.917-0.215-1.378
						l-0.397-2.745l-0.094-0.688l-0.144-0.648l-0.277-1.294l-0.268-1.297c-0.088-0.432-0.146-0.881-0.285-1.266
						c-0.233-0.802-0.476-1.601-0.677-2.414c-1.005-3.096-2.131-5.909-3.585-8.317c-1.487-2.359-3.255-4.419-5.402-6.198
						c-2.135-1.778-4.636-3.253-7.236-4.418c-2.605-1.151-5.287-1.985-7.769-2.604c-2.491-0.646-4.788-1.015-6.721-1.279
						c-0.977-0.141-1.838-0.203-2.621-0.285c-0.757-0.044-1.441-0.093-1.973-0.093c-0.531,0.014-0.977-0.005-1.24,0.051
						c-0.294,0.046-0.446,0.069-0.446,0.069s0.083-0.127,0.244-0.374c0.17-0.274,0.462-0.61,0.883-1.032
						c0.84-0.824,2.182-1.949,4.053-3.06c1.867-1.145,4.261-2.339,7.203-3.304c2.939-0.947,6.432-1.784,10.455-1.935
						c4.009-0.144,8.581,0.339,13.308,1.997c4.715,1.633,9.514,4.534,13.53,8.497c3.982,3.987,7.035,8.856,9.244,13.923
						c0.512,1.264,0.986,2.552,1.471,3.842c0.5,1.291,0.756,2.572,1.124,3.873c0.783,2.609,1.123,5.178,1.536,7.761
						c0.084,0.645,0.206,1.299,0.257,1.935l0.139,1.901c0.097,1.268,0.15,2.536,0.222,3.8c0.11,1.275,0.019,2.489,0,3.727
						c-0.035,1.23-0.057,2.456-0.118,3.676c-0.339,4.822-0.921,9.506-1.913,13.869c-0.834,4.425-2.161,8.498-3.375,12.366
						c-1.328,3.824-2.814,7.341-4.216,10.562c-1.54,3.206-3.075,6.077-4.471,8.581c-0.707,1.261-1.389,2.381-2.09,3.408
						c-0.684,1.031-1.301,1.981-1.908,2.826C361.667,367.426,360.048,369.292,360.048,369.292z"/>
				</g>
			</g>
		</g>
	</g>
	<g>
		<path d="M605.659,451.397v-277.2h160v23.601h-132.8v96.399h118.399v23.2H632.859v110.4h143.2v23.6H605.659z"/>
		<path d="M902.056,140.997c11.199,0,20.331,0.869,27.399,2.601c7.063,1.737,11.663,3.269,13.8,4.6l-5.199,22.4
			c-2.938-1.331-7.27-2.731-13-4.2c-5.738-1.463-13-2.2-21.801-2.2c-18.399,0-31.537,4.669-39.399,14
			c-7.869,9.338-11.8,24.269-11.8,44.8v21.601h83.199v22h-83.199v184.8h-26v-229.2c0-26.931,6.199-47.2,18.6-60.8
			S876.187,140.997,902.056,140.997z M1052.456,140.997c11.2,0,20.331,0.869,27.4,2.601c7.063,1.737,11.662,3.269,13.8,4.6
			l-5.2,22.4c-2.938-1.331-7.269-2.731-13-4.2c-5.737-1.463-13-2.2-21.8-2.2c-18.4,0-31.537,4.669-39.4,14
			c-7.868,9.338-11.8,24.269-11.8,44.8v21.601h83.2v22h-83.2v184.8h-26v-229.2c0-26.931,6.2-47.2,18.601-60.8
			C1007.456,147.798,1026.587,140.997,1052.456,140.997z"/>
		<path d="M1303.256,348.197c0,16.269-2.338,31.069-7,44.4c-4.67,13.337-11.201,24.669-19.6,34c-8.4,9.337-18.338,16.6-29.8,21.8
			c-11.469,5.2-24.138,7.8-38,7.8c-13.869,0-26.538-2.6-38-7.8c-11.469-5.2-21.4-12.463-29.801-21.8
			c-8.399-9.331-14.938-20.663-19.6-34c-4.669-13.331-7-28.132-7-44.4c0-16.263,2.331-31.063,7-44.399
			c4.662-13.332,11.2-24.731,19.6-34.2c8.4-9.463,18.332-16.8,29.801-22c11.462-5.2,24.131-7.8,38-7.8c13.862,0,26.531,2.6,38,7.8
			c11.462,5.2,21.4,12.537,29.8,22c8.398,9.469,14.93,20.868,19.6,34.2C1300.918,317.135,1303.256,331.935,1303.256,348.197z
			 M1275.656,348.197c0-25.862-6-46.462-18-61.8c-12-15.331-28.269-23-48.8-23c-20.538,0-36.801,7.669-48.801,23
			c-12,15.338-18,35.938-18,61.8c0,25.869,6,46.4,18,61.601c12,15.199,28.263,22.8,48.801,22.8c20.531,0,36.8-7.601,48.8-22.8
			C1269.656,394.598,1275.656,374.066,1275.656,348.197z"/>
		<path d="M1430.049,240.598c8.531,0,16.602,0.669,24.201,2c7.6,1.337,12.861,2.669,15.799,4l-5.199,22.399
			c-2.137-1.063-6.469-2.199-13-3.399c-6.537-1.2-15.137-1.8-25.801-1.8c-11.199,0-20.199,0.8-27,2.399
			c-6.799,1.601-11.268,2.938-13.398,4v181.2h-26v-197.2c6.662-2.931,15.861-5.931,27.6-9
			C1398.98,242.135,1413.25,240.598,1430.049,240.598z"/>
		<path d="M1541.248,182.197c0,6.138-1.869,11-5.602,14.601c-3.736,3.6-8.268,5.399-13.6,5.399c-5.338,0-9.869-1.8-13.6-5.399
			c-3.738-3.601-5.6-8.463-5.6-14.601c0-6.131,1.861-11,5.6-14.6c3.73-3.601,8.262-5.4,13.6-5.4c5.332,0,9.863,1.8,13.6,5.4
			C1539.379,171.197,1541.248,176.066,1541.248,182.197z M1535.248,451.397h-26v-206.8h26V451.397z"/>
		<path d="M1666.848,239.798c13.6,0,25.131,1.938,34.6,5.8c9.463,3.868,17.131,9.2,23,16c5.861,6.8,10.131,14.868,12.799,24.2
			c2.664,9.337,4,19.469,4,30.399v130.4c-2.668,0.8-6.537,1.669-11.6,2.6c-5.068,0.938-10.938,1.938-17.6,3
			c-6.668,1.063-14.068,1.932-22.199,2.601c-8.139,0.662-16.469,1-25,1c-10.938,0-21-1.2-30.201-3.601
			c-9.199-2.399-17.199-6.2-24-11.399c-6.799-5.2-12.137-11.863-16-20c-3.869-8.132-5.799-18.063-5.799-29.801
			c0-11.199,2.131-20.8,6.398-28.8c4.264-8,10.264-14.6,18-19.8c7.732-5.2,16.932-9,27.602-11.4c10.662-2.399,22.262-3.6,34.799-3.6
			c3.732,0,7.662,0.2,11.801,0.6c4.131,0.4,8.131,0.938,12,1.601c3.861,0.669,7.199,1.337,10,2c2.799,0.669,4.73,1.269,5.799,1.8
			v-12.8c0-7.2-0.537-14.2-1.6-21c-1.068-6.8-3.4-12.932-7-18.4c-3.6-5.462-8.668-9.862-15.199-13.2c-6.537-3.331-15.139-5-25.801-5
			c-15.199,0-26.537,1.069-34,3.2c-7.469,2.138-12.938,3.869-16.4,5.2l-3.6-22.8c4.531-2.132,11.531-4.132,21-6
			C1642.109,240.735,1653.51,239.798,1666.848,239.798z M1669.246,432.598c10.133,0,19-0.331,26.602-1
			c7.6-0.663,14.063-1.531,19.398-2.601v-72.8c-2.938-1.331-7.6-2.731-14-4.2c-6.398-1.462-15.199-2.199-26.398-2.199
			c-6.4,0-13.07,0.469-20,1.399c-6.938,0.938-13.338,2.938-19.201,6c-5.869,3.069-10.668,7.269-14.4,12.601
			c-3.736,5.337-5.6,12.399-5.6,21.199c0,7.738,1.264,14.27,3.801,19.601c2.531,5.337,6.131,9.6,10.799,12.8
			c4.664,3.2,10.264,5.537,16.801,7C1653.578,431.866,1660.979,432.598,1669.246,432.598z"/>
	</g>
	<g>
		<path fill="#17B24B" d="M652.208,573.266c-4.467-7.933-9.3-15.766-14.5-23.5c-5.2-7.733-10.734-15.032-16.6-21.899v45.399h-15.4
			v-69.3h12.7c2.2,2.199,4.633,4.9,7.3,8.1c2.666,3.2,5.383,6.617,8.15,10.25c2.766,3.635,5.516,7.4,8.25,11.301
			c2.732,3.899,5.3,7.649,7.699,11.25v-40.9h15.5v69.3H652.208z"/>
		<path fill="#17B24B" d="M727.799,573.266c-0.771-2.407-1.6-4.882-2.487-7.419s-1.772-5.065-2.651-7.581h-27.066
			c-0.875,2.528-1.753,5.062-2.631,7.602c-0.88,2.54-1.698,5.008-2.456,7.398h-16.2c2.607-7.466,5.081-14.366,7.422-20.7
			c2.341-6.332,4.63-12.3,6.87-17.9c2.241-5.6,4.447-10.915,6.62-15.949c2.174-5.033,4.432-9.95,6.772-14.75h14.787
			c2.276,4.8,4.521,9.717,6.731,14.75c2.209,5.034,4.438,10.35,6.682,15.949c2.243,5.601,4.537,11.568,6.881,17.9
			c2.344,6.334,4.822,13.234,7.435,20.7H727.799z M709.057,519.665c-0.349,1.007-0.857,2.377-1.528,4.108
			c-0.67,1.733-1.433,3.734-2.289,6.005c-0.856,2.27-1.813,4.77-2.872,7.5c-1.058,2.729-2.133,5.592-3.225,8.588h19.817
			c-1.062-3.006-2.088-5.877-3.081-8.615c-0.994-2.736-1.939-5.242-2.833-7.514c-0.896-2.27-1.68-4.27-2.354-6.002
			C710.016,522.007,709.471,520.649,709.057,519.665z"/>
		<path fill="#17B24B" d="M799.907,573.266c-4.467-7.933-9.3-15.766-14.5-23.5c-5.2-7.733-10.734-15.032-16.6-21.899v45.399h-15.4
			v-69.3h12.7c2.2,2.199,4.633,4.9,7.3,8.1c2.666,3.2,5.383,6.617,8.15,10.25c2.766,3.635,5.516,7.4,8.25,11.301
			c2.732,3.899,5.3,7.649,7.699,11.25v-40.9h15.5v69.3H799.907z"/>
		<path fill="#17B24B" d="M895.006,538.565c0,5.935-0.885,11.15-2.65,15.65c-1.767,4.5-4.184,8.268-7.25,11.3
			c-3.066,3.034-6.717,5.317-10.949,6.851c-4.234,1.532-8.785,2.299-13.65,2.299c-4.734,0-9.2-0.767-13.4-2.299
			c-4.199-1.533-7.867-3.816-11-6.851c-3.134-3.032-5.6-6.8-7.399-11.3s-2.7-9.716-2.7-15.65c0-5.933,0.933-11.15,2.8-15.65
			c1.866-4.5,4.383-8.282,7.55-11.35c3.166-3.065,6.833-5.365,11-6.9c4.166-1.532,8.551-2.299,13.15-2.299
			c4.732,0,9.2,0.767,13.4,2.299c4.199,1.535,7.865,3.835,11,6.9c3.133,3.067,5.6,6.85,7.399,11.35S895.006,532.633,895.006,538.565
			z M842.106,538.565c0,3.4,0.416,6.467,1.25,9.2c0.833,2.734,2.033,5.085,3.601,7.05c1.565,1.967,3.482,3.484,5.75,4.551
			c2.266,1.066,4.865,1.6,7.8,1.6c2.865,0,5.45-0.533,7.75-1.6s4.232-2.584,5.8-4.551c1.565-1.965,2.766-4.315,3.601-7.05
			c0.832-2.733,1.25-5.8,1.25-9.2s-0.418-6.482-1.25-9.25c-0.835-2.766-2.035-5.133-3.601-7.1c-1.567-1.966-3.5-3.482-5.8-4.551
			c-2.3-1.064-4.885-1.6-7.75-1.6c-2.935,0-5.534,0.551-7.8,1.65c-2.268,1.1-4.185,2.635-5.75,4.6
			c-1.567,1.967-2.768,4.334-3.601,7.1C842.522,532.183,842.106,535.233,842.106,538.565z"/>
		<path fill="#17B24B" d="M939.605,574.665c-11.267,0-19.85-3.133-25.75-9.399c-5.899-6.266-8.85-15.165-8.85-26.7
			c0-5.732,0.9-10.85,2.7-15.35s4.266-8.301,7.399-11.4c3.133-3.1,6.866-5.449,11.2-7.05c4.333-1.601,9.033-2.399,14.101-2.399
			c2.933,0,5.6,0.217,8,0.649c2.399,0.435,4.5,0.935,6.3,1.5c1.8,0.567,3.3,1.149,4.5,1.75s2.065,1.067,2.6,1.399l-4.5,12.601
			c-2.134-1.133-4.617-2.101-7.45-2.899c-2.834-0.801-6.05-1.201-9.649-1.201c-2.4,0-4.75,0.4-7.05,1.201
			c-2.301,0.799-4.335,2.084-6.101,3.85c-1.767,1.768-3.185,4.05-4.25,6.85c-1.067,2.801-1.6,6.2-1.6,10.2
			c0,3.2,0.35,6.185,1.05,8.95c0.7,2.768,1.833,5.15,3.4,7.15c1.565,2,3.615,3.584,6.149,4.75c2.533,1.166,5.601,1.75,9.2,1.75
			c2.266,0,4.3-0.133,6.1-0.4c1.801-0.266,3.4-0.583,4.801-0.95c1.399-0.366,2.633-0.782,3.699-1.25
			c1.066-0.466,2.033-0.899,2.9-1.3l4.3,12.5c-2.2,1.334-5.3,2.534-9.3,3.6C949.505,574.132,944.871,574.665,939.605,574.665z"/>
		<path fill="#17B24B" d="M1036.306,538.565c0,5.935-0.885,11.15-2.65,15.65c-1.767,4.5-4.184,8.268-7.25,11.3
			c-3.066,3.034-6.717,5.317-10.949,6.851c-4.234,1.532-8.785,2.299-13.65,2.299c-4.734,0-9.2-0.767-13.4-2.299
			c-4.199-1.533-7.867-3.816-11-6.851c-3.134-3.032-5.6-6.8-7.399-11.3s-2.7-9.716-2.7-15.65c0-5.933,0.933-11.15,2.8-15.65
			c1.866-4.5,4.383-8.282,7.55-11.35c3.166-3.065,6.833-5.365,11-6.9c4.166-1.532,8.551-2.299,13.15-2.299
			c4.732,0,9.2,0.767,13.4,2.299c4.199,1.535,7.865,3.835,11,6.9c3.133,3.067,5.6,6.85,7.399,11.35
			S1036.306,532.633,1036.306,538.565z M983.406,538.565c0,3.4,0.416,6.467,1.25,9.2c0.833,2.734,2.033,5.085,3.601,7.05
			c1.565,1.967,3.482,3.484,5.75,4.551c2.266,1.066,4.865,1.6,7.8,1.6c2.865,0,5.45-0.533,7.75-1.6s4.232-2.584,5.8-4.551
			c1.565-1.965,2.766-4.315,3.601-7.05c0.832-2.733,1.25-5.8,1.25-9.2s-0.418-6.482-1.25-9.25c-0.835-2.766-2.035-5.133-3.601-7.1
			c-1.567-1.966-3.5-3.482-5.8-4.551c-2.3-1.064-4.885-1.6-7.75-1.6c-2.935,0-5.534,0.551-7.8,1.65c-2.268,1.1-4.185,2.635-5.75,4.6
			c-1.567,1.967-2.768,4.334-3.601,7.1C983.822,532.183,983.406,535.233,983.406,538.565z"/>
		<path fill="#17B24B" d="M1067.706,503.966c1.203,2.199,2.589,4.917,4.16,8.15c1.57,3.234,3.208,6.734,4.913,10.5
			c1.704,3.767,3.392,7.617,5.063,11.549c1.671,3.936,3.241,7.635,4.713,11.101c1.471-3.466,3.041-7.165,4.713-11.101
			c1.67-3.932,3.357-7.782,5.063-11.549c1.704-3.766,3.342-7.266,4.914-10.5c1.57-3.233,2.957-5.951,4.16-8.15h14.2
			c0.666,4.6,1.283,9.75,1.851,15.449c0.565,5.701,1.065,11.635,1.5,17.801c0.433,6.167,0.832,12.35,1.199,18.55
			c0.366,6.2,0.684,12.034,0.95,17.5h-15.2c-0.199-6.733-0.467-14.065-0.8-22c-0.334-7.933-0.834-15.933-1.5-24
			c-1.204,2.8-2.542,5.899-4.013,9.3c-1.472,3.4-2.926,6.801-4.363,10.2s-2.825,6.649-4.163,9.75
			c-1.337,3.101-2.475,5.75-3.411,7.95h-10.899c-0.938-2.2-2.073-4.85-3.411-7.95s-2.727-6.351-4.164-9.75s-2.893-6.8-4.362-10.2
			c-1.472-3.4-2.81-6.5-4.013-9.3c-0.667,8.067-1.167,16.067-1.5,24c-0.334,7.935-0.6,15.267-0.8,22h-15.2
			c0.266-5.466,0.583-11.3,0.95-17.5c0.365-6.2,0.766-12.383,1.2-18.55c0.433-6.166,0.933-12.1,1.5-17.801
			c0.565-5.699,1.183-10.85,1.85-15.449H1067.706z"/>
		<path fill="#17B24B" d="M1159.804,503.165c10.333,0,18.266,1.818,23.8,5.451c5.533,3.634,8.301,9.584,8.301,17.85
			c0,8.334-2.801,14.35-8.4,18.05s-13.6,5.55-24,5.55h-4.9v23.2h-15.6v-68.3c3.4-0.666,7-1.133,10.8-1.4
			C1153.604,503.3,1156.937,503.165,1159.804,503.165z M1160.804,516.466c-1.134,0-2.25,0.034-3.35,0.1
			c-1.101,0.067-2.05,0.135-2.851,0.2v20h4.9c5.4,0,9.466-0.733,12.2-2.2c2.732-1.465,4.1-4.199,4.1-8.199
			c0-1.934-0.35-3.533-1.05-4.801c-0.7-1.266-1.7-2.283-3-3.05c-1.3-0.766-2.885-1.3-4.75-1.601
			C1165.137,516.616,1163.07,516.466,1160.804,516.466z"/>
		<path fill="#17B24B" d="M1230.503,574.665c-4.867,0-9.066-0.684-12.6-2.049c-3.534-1.366-6.45-3.266-8.75-5.701
			c-2.3-2.432-4-5.332-5.1-8.699c-1.101-3.365-1.65-7.083-1.65-11.15v-43.1h15.6v41.8c0,2.8,0.316,5.185,0.95,7.149
			c0.633,1.968,1.5,3.568,2.601,4.801c1.1,1.234,2.433,2.117,4,2.65c1.565,0.533,3.282,0.799,5.149,0.799
			c3.8,0,6.883-1.165,9.25-3.5c2.366-2.332,3.55-6.299,3.55-11.899v-41.8h15.601v43.1c0,4.067-0.567,7.801-1.7,11.2
			c-1.135,3.399-2.867,6.317-5.2,8.75c-2.334,2.435-5.3,4.317-8.899,5.649C1239.704,573.999,1235.437,574.665,1230.503,574.665z"/>
		<path fill="#17B24B" d="M1325.502,503.966v13.3h-20.9v56h-15.6v-56h-20.9v-13.3H1325.502z"/>
		<path fill="#17B24B" d="M1373.795,573.266c-0.771-2.407-1.6-4.882-2.488-7.419c-0.887-2.537-1.771-5.065-2.65-7.581h-27.066
			c-0.875,2.528-1.754,5.062-2.631,7.602c-0.881,2.54-1.699,5.008-2.457,7.398h-16.199c2.607-7.466,5.08-14.366,7.422-20.7
			c2.34-6.332,4.629-12.3,6.869-17.9c2.242-5.6,4.447-10.915,6.621-15.949c2.174-5.033,4.432-9.95,6.771-14.75h14.787
			c2.277,4.8,4.521,9.717,6.732,14.75c2.209,5.034,4.438,10.35,6.682,15.949c2.242,5.601,4.537,11.568,6.881,17.9
			c2.344,6.334,4.822,13.234,7.434,20.7H1373.795z M1355.053,519.665c-0.35,1.007-0.857,2.377-1.529,4.108
			c-0.67,1.733-1.432,3.734-2.289,6.005c-0.855,2.27-1.813,4.77-2.871,7.5c-1.059,2.729-2.133,5.592-3.225,8.588h19.816
			c-1.061-3.006-2.088-5.877-3.08-8.615c-0.994-2.736-1.939-5.242-2.834-7.514c-0.895-2.27-1.68-4.27-2.354-6.002
			C1356.012,522.007,1355.467,520.649,1355.053,519.665z"/>
		<path fill="#17B24B" d="M1460.102,538.565c0,6-0.934,11.234-2.799,15.7c-1.867,4.468-4.518,8.167-7.951,11.101
			s-7.617,5.134-12.549,6.6c-4.936,1.465-10.469,2.199-16.602,2.199c-2.799,0-6.066-0.117-9.799-0.35
			c-3.734-0.234-7.4-0.715-11-1.449v-67.5c3.6-0.666,7.35-1.116,11.25-1.351c3.9-0.233,7.25-0.351,10.049-0.351
			c5.934,0,11.316,0.668,16.15,2c4.834,1.335,8.982,3.436,12.451,6.301c3.465,2.867,6.133,6.534,8,11
			C1459.168,526.933,1460.102,532.3,1460.102,538.565z M1415.002,560.565c0.732,0.067,1.582,0.117,2.551,0.15
			c0.965,0.034,2.115,0.05,3.449,0.05c7.801,0,13.582-1.966,17.35-5.899c3.766-3.934,5.65-9.366,5.65-16.301
			c0-7.266-1.801-12.766-5.4-16.5c-3.6-3.732-9.299-5.6-17.1-5.6c-1.066,0-2.168,0.018-3.301,0.05
			c-1.133,0.034-2.199,0.117-3.199,0.25V560.565z"/>
		<path fill="#17B24B" d="M1539.102,538.565c0,5.935-0.885,11.15-2.65,15.65s-4.184,8.268-7.25,11.3
			c-3.066,3.034-6.717,5.317-10.949,6.851c-4.234,1.532-8.785,2.299-13.65,2.299c-4.734,0-9.199-0.767-13.4-2.299
			c-4.199-1.533-7.867-3.816-11-6.851c-3.133-3.032-5.6-6.8-7.398-11.3c-1.801-4.5-2.701-9.716-2.701-15.65
			c0-5.933,0.934-11.15,2.801-15.65c1.865-4.5,4.383-8.282,7.549-11.35c3.166-3.065,6.834-5.365,11-6.9
			c4.166-1.532,8.551-2.299,13.15-2.299c4.732,0,9.201,0.767,13.4,2.299c4.199,1.535,7.865,3.835,11,6.9
			c3.133,3.067,5.6,6.85,7.4,11.35C1538.201,527.415,1539.102,532.633,1539.102,538.565z M1486.201,538.565
			c0,3.4,0.416,6.467,1.25,9.2c0.834,2.734,2.033,5.085,3.602,7.05c1.564,1.967,3.482,3.484,5.75,4.551
			c2.266,1.066,4.865,1.6,7.799,1.6c2.865,0,5.451-0.533,7.75-1.6c2.301-1.066,4.232-2.584,5.801-4.551
			c1.564-1.965,2.766-4.315,3.6-7.05c0.832-2.733,1.25-5.8,1.25-9.2s-0.418-6.482-1.25-9.25c-0.834-2.766-2.035-5.133-3.6-7.1
			c-1.568-1.966-3.5-3.482-5.801-4.551c-2.299-1.064-4.885-1.6-7.75-1.6c-2.934,0-5.533,0.551-7.799,1.65
			c-2.268,1.1-4.186,2.635-5.75,4.6c-1.568,1.967-2.768,4.334-3.602,7.1C1486.617,532.183,1486.201,535.233,1486.201,538.565z"/>
		<path fill="#17B24B" d="M1572.4,503.165c10.4,0,18.367,1.851,23.9,5.551c5.533,3.699,8.301,9.449,8.301,17.25
			c0,4.867-1.117,8.816-3.35,11.85c-2.234,3.035-5.451,5.418-9.65,7.15c1.4,1.734,2.865,3.717,4.4,5.949
			c1.531,2.234,3.049,4.568,4.549,7c1.5,2.436,2.951,4.968,4.35,7.601c1.4,2.634,2.701,5.218,3.9,7.75h-17.439
			c-1.271-2.266-2.561-4.565-3.865-6.899s-2.643-4.601-4.014-6.801c-1.371-2.199-2.729-4.283-4.066-6.25
			c-1.338-1.965-2.678-3.75-4.016-5.35h-7.699v25.3h-15.6v-68.3c3.4-0.666,6.916-1.133,10.549-1.4
			C1566.283,503.3,1569.533,503.165,1572.4,503.165z M1573.301,516.466c-1.135,0-2.15,0.034-3.049,0.1
			c-0.9,0.067-1.75,0.135-2.551,0.2v18.8h4.4c5.865,0,10.064-0.732,12.6-2.199c2.533-1.467,3.801-3.967,3.801-7.5
			c0-3.4-1.285-5.816-3.852-7.25S1578.301,516.466,1573.301,516.466z"/>
		<path fill="#17B24B" d="M1618.801,573.266v-69.3h46.799v13.1H1634.4v13.6h27.699v12.801H1634.4v16.699h33.5v13.101H1618.801z"/>
		<path fill="#17B24B" d="M1698.299,561.366c2.199,0,4.016-0.184,5.449-0.551c1.434-0.365,2.584-0.865,3.451-1.5
			c0.865-0.633,1.465-1.383,1.799-2.25c0.334-0.865,0.5-1.832,0.5-2.9c0-2.266-1.066-4.149-3.199-5.649
			c-2.135-1.5-5.801-3.116-11-4.851c-2.268-0.799-4.535-1.715-6.801-2.75c-2.266-1.032-4.299-2.332-6.1-3.899
			c-1.799-1.565-3.268-3.466-4.4-5.7c-1.133-2.232-1.699-4.949-1.699-8.15c0-3.199,0.6-6.082,1.801-8.649
			c1.199-2.565,2.898-4.75,5.1-6.55c2.199-1.801,4.865-3.184,8-4.15c3.133-0.965,6.666-1.449,10.6-1.449c4.666,0,8.699,0.5,12.1,1.5
			s6.201,2.1,8.4,3.299l-4.5,12.301c-1.934-1-4.084-1.883-6.449-2.65c-2.367-0.766-5.219-1.15-8.551-1.15
			c-3.734,0-6.418,0.518-8.051,1.551c-1.633,1.034-2.449,2.617-2.449,4.75c0,1.268,0.301,2.334,0.9,3.199
			c0.6,0.867,1.449,1.65,2.549,2.351c1.102,0.7,2.367,1.335,3.801,1.899c1.434,0.568,3.016,1.15,4.75,1.75
			c3.6,1.335,6.732,2.65,9.4,3.951c2.666,1.299,4.883,2.816,6.65,4.549c1.766,1.734,3.082,3.768,3.949,6.101
			c0.865,2.335,1.301,5.167,1.301,8.5c0,6.468-2.268,11.484-6.801,15.05c-4.535,3.567-11.367,5.35-20.5,5.35
			c-3.066,0-5.834-0.184-8.301-0.549c-2.467-0.367-4.648-0.818-6.549-1.351s-3.535-1.101-4.9-1.7
			c-1.367-0.6-2.518-1.166-3.449-1.699l4.398-12.4c2.066,1.135,4.617,2.15,7.65,3.05S1693.898,561.366,1698.299,561.366z"/>
	</g>
</g>
</svg>
