<?xml version="1.0" encoding="utf-8"?>
<!-- Generator: Adobe Illustrator 16.0.0, SVG Export Plug-In . SVG Version: 6.00 Build 0)  -->
<!DOCTYPE svg PUBLIC "-//W3C//DTD SVG 1.1//EN" "http://www.w3.org/Graphics/SVG/1.1/DTD/svg11.dtd">
<svg version="1.1" id="Layer_1" xmlns="http://www.w3.org/2000/svg" xmlns:xlink="http://www.w3.org/1999/xlink" x="0px" y="0px"
	 width="285px" height="250px" viewBox="0 0 285 250" enable-background="new 0 0 285 250" xml:space="preserve">
<rect width="285" height="250"/>
<g>
	<polygon fill="#3399CC" points="115.422,97.452 95.794,109.348 76.166,97.452 76.167,73.659 95.794,61.764 115.422,73.659 	"/>
	<g>
		<g>
			<path fill="#FFFFFF" d="M95.937,86.916c0,0-0.059-0.27-0.106-0.726c-0.05-0.457-0.087-1.102-0.08-1.862
				c-0.023-0.369-0.043-0.758-0.047-1.163c-0.011-0.404,0.026-0.82-0.012-1.25c-0.026-0.428-0.016-0.871-0.027-1.304
				c-0.061-0.416-0.055-0.856-0.112-1.26c-0.092-0.37-0.095-0.813-0.231-1.116c-0.064-0.156-0.082-0.356-0.155-0.491
				c-0.073-0.135-0.142-0.272-0.197-0.426c-0.169-0.232-0.325-0.488-0.556-0.674c-0.093-0.128-0.24-0.176-0.36-0.273
				c-0.12-0.104-0.262-0.161-0.402-0.227c-0.272-0.15-0.569-0.234-0.838-0.322c-0.271-0.063-0.524-0.132-0.737-0.158
				c-0.212-0.033-0.388-0.05-0.508-0.056c-0.124,0.005-0.19,0.008-0.19,0.008s0.028-0.052,0.121-0.158
				c0.095-0.084,0.236-0.232,0.446-0.35c0.205-0.132,0.47-0.275,0.797-0.383c0.327-0.1,0.716-0.226,1.168-0.225
				c0.447-0.034,0.966,0.039,1.493,0.221c0.255,0.112,0.546,0.206,0.789,0.382c0.245,0.172,0.497,0.367,0.73,0.58
				c0.201,0.23,0.393,0.482,0.584,0.742c0.195,0.258,0.286,0.54,0.42,0.824c0.303,0.574,0.331,1.142,0.472,1.726
				c0.063,0.57,0.052,1.12,0.048,1.67c-0.038,0.534-0.14,1.041-0.228,1.533c-0.072,0.494-0.253,0.949-0.396,1.379
				c-0.153,0.428-0.31,0.827-0.466,1.183c-0.363,0.669-0.708,1.216-0.974,1.592C96.119,86.709,95.937,86.916,95.937,86.916z"/>
		</g>
		<g>
			<g>
				<path fill="#FFFFFF" d="M95.063,85.929c0,0,0.163-0.223,0.473-0.56c0.309-0.342,0.767-0.796,1.341-1.295
					c0.261-0.262,0.54-0.535,0.84-0.806c0.295-0.276,0.631-0.524,0.929-0.837c0.303-0.303,0.642-0.589,0.958-0.885
					c0.271-0.321,0.604-0.609,0.869-0.919c0.216-0.314,0.546-0.61,0.683-0.913c0.074-0.151,0.212-0.297,0.265-0.441
					s0.11-0.287,0.188-0.43c0.062-0.281,0.15-0.567,0.136-0.863c0.035-0.154-0.027-0.296-0.034-0.451
					c-0.002-0.158-0.054-0.303-0.097-0.451c-0.068-0.304-0.202-0.582-0.313-0.841c-0.133-0.245-0.249-0.48-0.371-0.656
					c-0.116-0.181-0.22-0.324-0.294-0.417c-0.086-0.089-0.133-0.137-0.133-0.137s0.058-0.013,0.199-0.014
					c0.125,0.015,0.331,0.022,0.557,0.101c0.235,0.066,0.517,0.17,0.815,0.343c0.292,0.179,0.644,0.386,0.943,0.725
					c0.322,0.312,0.611,0.749,0.824,1.264c0.086,0.266,0.208,0.545,0.237,0.844c0.033,0.297,0.054,0.615,0.05,0.93
					c-0.039,0.304-0.101,0.615-0.168,0.93c-0.064,0.316-0.215,0.572-0.338,0.861c-0.229,0.606-0.636,1.004-0.979,1.497
					c-0.386,0.424-0.805,0.781-1.219,1.143c-0.425,0.325-0.872,0.585-1.299,0.845c-0.417,0.274-0.878,0.439-1.295,0.617
					c-0.422,0.17-0.824,0.316-1.195,0.436c-0.741,0.172-1.379,0.276-1.837,0.326C95.339,85.928,95.063,85.929,95.063,85.929z"/>
				<path fill="#FFFFFF" d="M95.479,84.149c0,0,0.225,0.159,0.568,0.464c0.346,0.304,0.808,0.754,1.316,1.319
					c0.266,0.257,0.543,0.531,0.819,0.827c0.281,0.291,0.535,0.622,0.853,0.915c0.308,0.297,0.599,0.632,0.9,0.942
					c0.326,0.267,0.619,0.595,0.933,0.854c0.317,0.211,0.619,0.536,0.924,0.667c0.152,0.072,0.301,0.208,0.445,0.259
					c0.146,0.05,0.289,0.104,0.433,0.181c0.282,0.057,0.569,0.141,0.865,0.122c0.155,0.032,0.295-0.032,0.45-0.041
					c0.158-0.004,0.302-0.059,0.449-0.104c0.303-0.072,0.578-0.211,0.836-0.327c0.243-0.137,0.476-0.257,0.65-0.381
					c0.179-0.12,0.32-0.226,0.413-0.302c0.088-0.088,0.135-0.135,0.135-0.135s0.014,0.058,0.018,0.199
					c-0.014,0.126-0.018,0.33-0.093,0.559c-0.062,0.236-0.161,0.52-0.33,0.82c-0.174,0.294-0.376,0.649-0.71,0.954
					c-0.307,0.327-0.739,0.624-1.251,0.844c-0.264,0.091-0.542,0.217-0.839,0.251c-0.297,0.038-0.614,0.064-0.93,0.064
					c-0.304-0.033-0.616-0.09-0.932-0.152c-0.318-0.06-0.575-0.206-0.866-0.324c-0.61-0.22-1.015-0.619-1.513-0.955
					c-0.431-0.379-0.794-0.792-1.162-1.2c-0.333-0.419-0.599-0.861-0.866-1.285c-0.281-0.412-0.454-0.87-0.638-1.284
					c-0.176-0.42-0.33-0.819-0.455-1.188c-0.184-0.739-0.298-1.375-0.356-1.832C95.484,84.426,95.479,84.149,95.479,84.149z"/>
				<path fill="#FFFFFF" d="M96.76,86.469c0,0-0.229-0.153-0.58-0.449c-0.354-0.294-0.827-0.732-1.35-1.285
					c-0.272-0.249-0.557-0.517-0.841-0.805c-0.288-0.283-0.55-0.608-0.876-0.892c-0.316-0.29-0.616-0.616-0.925-0.919
					c-0.333-0.257-0.634-0.578-0.955-0.829c-0.322-0.203-0.632-0.52-0.94-0.644c-0.154-0.068-0.306-0.2-0.452-0.246
					c-0.146-0.046-0.292-0.097-0.438-0.169c-0.283-0.05-0.572-0.125-0.868-0.1c-0.156-0.028-0.295,0.04-0.449,0.053
					c-0.158,0.009-0.3,0.066-0.446,0.116c-0.301,0.081-0.573,0.227-0.827,0.349c-0.239,0.144-0.469,0.269-0.64,0.398
					c-0.176,0.124-0.314,0.233-0.404,0.312c-0.086,0.09-0.131,0.138-0.131,0.138s-0.016-0.057-0.022-0.198
					c0.01-0.126,0.008-0.331,0.078-0.561c0.056-0.238,0.147-0.524,0.308-0.829c0.167-0.299,0.359-0.659,0.685-0.973
					c0.298-0.335,0.722-0.643,1.228-0.877c0.262-0.097,0.536-0.23,0.833-0.272c0.296-0.046,0.612-0.08,0.927-0.089
					c0.305,0.025,0.618,0.074,0.936,0.128c0.319,0.051,0.581,0.19,0.875,0.301c0.616,0.203,1.031,0.593,1.537,0.915
					c0.44,0.368,0.814,0.771,1.193,1.169c0.343,0.411,0.621,0.846,0.899,1.262c0.292,0.405,0.476,0.858,0.672,1.268
					c0.187,0.415,0.351,0.81,0.485,1.176c0.203,0.733,0.334,1.366,0.404,1.821C96.747,86.193,96.76,86.469,96.76,86.469z"/>
				<path fill="#FFFFFF" d="M97.138,85.302c0,0-0.172,0.215-0.499,0.538c-0.324,0.326-0.803,0.759-1.399,1.231
					c-0.272,0.249-0.563,0.51-0.875,0.767c-0.308,0.262-0.655,0.494-0.966,0.794c-0.316,0.289-0.668,0.56-0.997,0.84
					c-0.286,0.309-0.632,0.581-0.91,0.879c-0.23,0.303-0.574,0.584-0.724,0.88c-0.081,0.147-0.226,0.287-0.285,0.429
					c-0.06,0.142-0.123,0.281-0.208,0.421c-0.075,0.277-0.176,0.559-0.176,0.855c-0.042,0.152,0.014,0.297,0.014,0.452
					c-0.006,0.157,0.04,0.305,0.076,0.454c0.054,0.308,0.175,0.591,0.275,0.855c0.122,0.251,0.227,0.49,0.34,0.673
					c0.108,0.186,0.205,0.333,0.275,0.431c0.082,0.093,0.126,0.143,0.126,0.143s-0.058,0.011-0.199,0.005
					c-0.125-0.021-0.33-0.038-0.552-0.127c-0.232-0.077-0.509-0.193-0.798-0.38c-0.283-0.192-0.625-0.416-0.908-0.769
					c-0.308-0.326-0.577-0.775-0.765-1.301c-0.073-0.269-0.182-0.554-0.198-0.853c-0.02-0.299-0.026-0.617-0.007-0.933
					c0.053-0.301,0.129-0.608,0.211-0.92c0.079-0.313,0.241-0.562,0.377-0.845c0.257-0.596,0.681-0.975,1.047-1.45
					c0.405-0.406,0.84-0.743,1.271-1.086c0.439-0.306,0.897-0.544,1.336-0.784c0.43-0.255,0.897-0.398,1.322-0.558
					c0.429-0.149,0.837-0.278,1.213-0.38c0.749-0.138,1.391-0.213,1.851-0.242C96.862,85.29,97.138,85.302,97.138,85.302z"/>
			</g>
		</g>
		<g>
			<g>
				<path fill="#FFFFFF" d="M95.09,85.349c0,0,0.271-0.048,0.729-0.075c0.459-0.03,1.104-0.04,1.864-0.001
					c0.37-0.008,0.76-0.011,1.164,0.002c0.404,0.007,0.818,0.061,1.25,0.041c0.428-0.008,0.871,0.021,1.304,0.028
					c0.418-0.044,0.857-0.02,1.263-0.059c0.374-0.076,0.816-0.061,1.125-0.184c0.159-0.058,0.359-0.066,0.497-0.134
					c0.138-0.067,0.278-0.131,0.434-0.18c0.239-0.159,0.501-0.304,0.697-0.526c0.132-0.087,0.186-0.231,0.289-0.348
					c0.108-0.115,0.171-0.255,0.243-0.392c0.162-0.266,0.258-0.559,0.358-0.823c0.074-0.269,0.154-0.519,0.188-0.73
					c0.042-0.211,0.067-0.385,0.078-0.505c0-0.124,0-0.19,0-0.19s0.051,0.031,0.153,0.128c0.08,0.098,0.222,0.246,0.331,0.459
					c0.124,0.211,0.255,0.481,0.349,0.813c0.085,0.332,0.195,0.725,0.175,1.176c0.015,0.448-0.079,0.964-0.284,1.482
					c-0.123,0.251-0.229,0.537-0.415,0.771c-0.183,0.237-0.388,0.48-0.61,0.705c-0.238,0.191-0.499,0.372-0.766,0.552
					c-0.266,0.184-0.552,0.263-0.841,0.386c-0.586,0.277-1.155,0.281-1.744,0.397c-0.572,0.038-1.121,0.004-1.67-0.023
					c-0.532-0.061-1.033-0.184-1.521-0.293c-0.491-0.092-0.937-0.293-1.361-0.454c-0.421-0.171-0.813-0.344-1.163-0.516
					c-0.653-0.391-1.185-0.758-1.549-1.04C95.289,85.539,95.09,85.349,95.09,85.349z"/>
				<path fill="#FFFFFF" d="M96.624,84.356c0,0,0.052,0.271,0.087,0.729c0.039,0.458,0.058,1.104,0.032,1.863
					c0.014,0.369,0.023,0.76,0.017,1.163c0,0.405-0.047,0.819-0.021,1.251c0.016,0.428-0.007,0.871-0.006,1.304
					c0.05,0.418,0.033,0.857,0.08,1.263c0.082,0.372,0.073,0.815,0.202,1.122c0.06,0.157,0.072,0.358,0.142,0.494
					c0.07,0.138,0.135,0.276,0.187,0.431c0.163,0.237,0.312,0.496,0.538,0.688c0.089,0.131,0.235,0.183,0.353,0.283
					c0.117,0.106,0.258,0.167,0.396,0.236c0.269,0.158,0.563,0.249,0.829,0.345c0.27,0.069,0.521,0.146,0.733,0.177
					c0.212,0.038,0.387,0.06,0.506,0.069c0.124-0.003,0.19-0.004,0.19-0.004s-0.03,0.051-0.125,0.155
					c-0.097,0.081-0.242,0.227-0.454,0.338c-0.209,0.127-0.477,0.263-0.807,0.362c-0.33,0.091-0.721,0.207-1.173,0.194
					c-0.448,0.022-0.964-0.063-1.486-0.26c-0.252-0.119-0.541-0.221-0.778-0.402c-0.24-0.179-0.487-0.38-0.714-0.599
					c-0.195-0.235-0.381-0.492-0.565-0.757c-0.188-0.263-0.271-0.547-0.399-0.834c-0.287-0.582-0.301-1.15-0.426-1.737
					c-0.047-0.572-0.022-1.121-0.004-1.671c0.052-0.533,0.167-1.036,0.268-1.526c0.084-0.492,0.277-0.941,0.432-1.368
					c0.165-0.424,0.331-0.818,0.497-1.171c0.38-0.659,0.739-1.196,1.015-1.565C96.437,84.559,96.624,84.356,96.624,84.356z"/>
				<path fill="#FFFFFF" d="M96.469,85.738c0,0-0.271,0.051-0.729,0.083c-0.458,0.037-1.104,0.054-1.863,0.023
					c-0.37,0.012-0.76,0.02-1.164,0.011c-0.404-0.001-0.819-0.051-1.25-0.026c-0.428,0.014-0.871-0.011-1.304-0.013
					c-0.417,0.048-0.857,0.029-1.262,0.073c-0.373,0.08-0.816,0.069-1.123,0.196c-0.158,0.06-0.358,0.071-0.495,0.14
					c-0.138,0.069-0.277,0.134-0.432,0.185c-0.237,0.162-0.498,0.31-0.691,0.534c-0.131,0.089-0.183,0.234-0.284,0.352
					c-0.107,0.116-0.168,0.257-0.238,0.395c-0.159,0.268-0.252,0.562-0.348,0.827c-0.071,0.27-0.148,0.521-0.181,0.732
					c-0.039,0.211-0.062,0.386-0.071,0.506c0.001,0.124,0.002,0.19,0.002,0.19s-0.051-0.03-0.155-0.126
					c-0.081-0.098-0.225-0.243-0.336-0.456c-0.126-0.209-0.26-0.478-0.358-0.809c-0.09-0.33-0.204-0.723-0.189-1.174
					c-0.021-0.448,0.068-0.965,0.267-1.485c0.12-0.252,0.223-0.539,0.406-0.776c0.18-0.239,0.383-0.485,0.602-0.712
					c0.236-0.194,0.494-0.378,0.759-0.561c0.264-0.187,0.549-0.27,0.836-0.396c0.583-0.285,1.152-0.295,1.739-0.418
					c0.572-0.044,1.122-0.017,1.671,0.004c0.533,0.054,1.036,0.171,1.525,0.275c0.492,0.087,0.94,0.282,1.366,0.439
					c0.423,0.166,0.816,0.334,1.168,0.502c0.657,0.383,1.193,0.744,1.561,1.022C96.267,85.55,96.469,85.738,96.469,85.738z"/>
				<path fill="#FFFFFF" d="M95.937,86.916c0,0-0.059-0.27-0.106-0.726c-0.05-0.457-0.087-1.102-0.08-1.862
					c-0.023-0.369-0.043-0.758-0.047-1.163c-0.011-0.404,0.026-0.82-0.012-1.25c-0.026-0.428-0.016-0.871-0.027-1.304
					c-0.061-0.416-0.055-0.856-0.112-1.26c-0.092-0.37-0.095-0.813-0.231-1.116c-0.064-0.156-0.082-0.356-0.155-0.491
					c-0.073-0.135-0.142-0.272-0.197-0.426c-0.169-0.232-0.325-0.488-0.556-0.674c-0.093-0.128-0.24-0.176-0.36-0.273
					c-0.12-0.104-0.262-0.161-0.402-0.227c-0.272-0.15-0.569-0.234-0.838-0.322c-0.271-0.063-0.524-0.132-0.737-0.158
					c-0.212-0.033-0.388-0.05-0.508-0.056c-0.124,0.005-0.19,0.008-0.19,0.008s0.028-0.052,0.121-0.158
					c0.095-0.084,0.236-0.232,0.446-0.35c0.205-0.132,0.47-0.275,0.797-0.383c0.327-0.1,0.716-0.226,1.168-0.225
					c0.447-0.034,0.966,0.039,1.493,0.221c0.255,0.112,0.546,0.206,0.789,0.382c0.245,0.172,0.497,0.367,0.73,0.58
					c0.201,0.23,0.393,0.482,0.584,0.742c0.195,0.258,0.286,0.54,0.42,0.824c0.303,0.574,0.331,1.142,0.472,1.726
					c0.063,0.57,0.052,1.12,0.048,1.67c-0.038,0.534-0.14,1.041-0.228,1.533c-0.072,0.494-0.253,0.949-0.396,1.379
					c-0.153,0.428-0.31,0.827-0.466,1.183c-0.363,0.669-0.708,1.216-0.974,1.592C96.119,86.709,95.937,86.916,95.937,86.916z"/>
			</g>
		</g>
	</g>
	<g>
		<path fill="#FFFFFF" d="M123.948,102.029V69.053h22.27v6.234h-14.847v6.471h13.181v6.091h-13.181v7.946h15.941v6.234H123.948z"/>
		<path fill="#FFFFFF" d="M183.332,85.518c0,2.823-0.421,5.306-1.261,7.446c-0.841,2.142-1.991,3.934-3.45,5.377
			c-1.459,1.444-3.196,2.53-5.21,3.26c-2.015,0.729-4.18,1.095-6.495,1.095c-2.253,0-4.377-0.365-6.376-1.095
			s-3.744-1.815-5.234-3.26c-1.491-1.443-2.665-3.235-3.521-5.377c-0.857-2.141-1.285-4.623-1.285-7.446s0.444-5.306,1.332-7.447
			c0.888-2.141,2.085-3.941,3.593-5.4c1.506-1.459,3.251-2.554,5.234-3.283c1.982-0.729,4.068-1.095,6.257-1.095
			c2.252,0,4.378,0.365,6.376,1.095c1.998,0.729,3.743,1.824,5.234,3.283c1.491,1.459,2.665,3.26,3.521,5.4
			C182.904,80.212,183.332,82.694,183.332,85.518z M158.16,85.518c0,1.617,0.198,3.077,0.595,4.377
			c0.396,1.302,0.967,2.42,1.713,3.355c0.745,0.936,1.657,1.657,2.736,2.165c1.078,0.508,2.315,0.761,3.711,0.761
			c1.364,0,2.594-0.253,3.688-0.761c1.095-0.508,2.014-1.229,2.76-2.165c0.745-0.936,1.316-2.054,1.713-3.355
			c0.396-1.3,0.595-2.76,0.595-4.377c0-1.618-0.198-3.085-0.595-4.402c-0.397-1.315-0.968-2.441-1.713-3.378
			c-0.746-0.936-1.666-1.657-2.76-2.165c-1.094-0.507-2.324-0.761-3.688-0.761c-1.396,0-2.633,0.262-3.711,0.785
			c-1.079,0.523-1.991,1.253-2.736,2.188c-0.746,0.937-1.317,2.063-1.713,3.378C158.358,82.48,158.16,83.932,158.16,85.518z"/>
		<path fill="#FFFFFF" d="M198.511,96.366c1.047,0,1.911-0.087,2.594-0.262c0.682-0.174,1.229-0.411,1.641-0.714
			c0.412-0.301,0.698-0.657,0.857-1.07c0.158-0.412,0.238-0.872,0.238-1.38c0-1.078-0.508-1.975-1.523-2.688
			s-2.759-1.482-5.234-2.308c-1.079-0.381-2.158-0.816-3.236-1.309c-1.079-0.491-2.046-1.11-2.902-1.856
			c-0.857-0.744-1.555-1.648-2.094-2.712c-0.54-1.063-0.809-2.355-0.809-3.878s0.286-2.895,0.856-4.116
			c0.571-1.221,1.38-2.26,2.427-3.116s2.315-1.515,3.807-1.975c1.491-0.46,3.172-0.69,5.044-0.69c2.22,0,4.14,0.237,5.758,0.714
			c1.618,0.476,2.95,0.999,3.997,1.57l-2.142,5.853c-0.92-0.476-1.943-0.896-3.069-1.261c-1.126-0.364-2.482-0.547-4.069-0.547
			c-1.777,0-3.053,0.246-3.83,0.737c-0.778,0.492-1.166,1.245-1.166,2.26c0,0.604,0.143,1.111,0.428,1.522
			c0.286,0.413,0.69,0.786,1.214,1.118c0.523,0.333,1.125,0.636,1.808,0.904c0.682,0.271,1.435,0.548,2.261,0.833
			c1.713,0.635,3.203,1.261,4.472,1.88c1.269,0.618,2.324,1.34,3.165,2.164c0.84,0.826,1.467,1.793,1.879,2.903
			c0.413,1.111,0.619,2.459,0.619,4.044c0,3.078-1.079,5.466-3.235,7.162c-2.157,1.697-5.409,2.546-9.755,2.546
			c-1.459,0-2.776-0.088-3.949-0.262c-1.174-0.175-2.213-0.389-3.117-0.643c-0.904-0.254-1.682-0.523-2.332-0.809
			c-0.65-0.286-1.198-0.555-1.642-0.81l2.094-5.9c0.983,0.54,2.196,1.023,3.64,1.451C194.648,96.152,196.417,96.366,198.511,96.366z
			"/>
	</g>
</g>
<g>
	<g>
		<polygon fill="#3399CC" points="120.037,176.798 101.987,187.661 83.937,176.798 83.937,155.071 101.987,144.208 120.037,155.071 
					"/>
		<g>
			<g>
				<rect x="95.802" y="167.319" fill="#FFFFFF" width="12.369" height="4.461"/>
				<circle fill="#FFFFFF" cx="95.802" cy="168.73" r="3.049"/>
				<circle fill="#FFFFFF" cx="108.171" cy="168.73" r="3.049"/>
				<circle fill="#FFFFFF" cx="98.224" cy="164.968" r="3.049"/>
				<circle fill="#FFFFFF" cx="105.68" cy="164.968" r="3.049"/>
				<circle fill="#FFFFFF" cx="101.987" cy="163.139" r="3.049"/>
				<rect x="95.802" y="165.926" fill="#FFFFFF" width="12.369" height="3.066"/>
			</g>
		</g>
	</g>
	<g>
		<polygon fill="#996699" points="161.946,176.798 143.897,187.661 125.847,176.798 125.847,155.071 143.897,144.208 
			161.946,155.071 		"/>
		<g>
			<g id="layer1" transform="translate(-256.6798,-531.7963)">
				<path id="text5540" fill="#FFFFFF" stroke="#FFFFFF" stroke-width="0.5432" stroke-miterlimit="10" d="M397.454,708.594h-1.93
					c0.281-1.317,0.421-2.511,0.421-3.578v-12.734c0-1.325,0.117-2.312,0.352-2.959c0.241-0.646,0.705-1.216,1.392-1.707
					c0.693-0.499,1.559-0.748,2.596-0.748c1.231,0,2.265,0.327,3.099,0.982c0.842,0.646,1.263,1.571,1.263,2.771
					c0,1.402-0.666,2.553-1.999,3.449c1.987,0.936,2.981,2.405,2.981,4.408c0,1.092-0.265,2.07-0.795,2.936
					c-0.522,0.857-1.131,1.47-1.824,1.835c-0.687,0.367-1.509,0.55-2.468,0.55c-1.091,0-1.979-0.409-2.666-1.228v2.175
					C397.875,706.244,397.734,707.526,397.454,708.594 M397.875,701.519c0.608,1.006,1.458,1.509,2.549,1.509
					c1.054,0,1.825-0.382,2.315-1.146c0.491-0.771,0.737-1.706,0.737-2.806c0-0.842-0.164-1.7-0.491-2.573
					c-0.319-0.881-0.733-1.551-1.239-2.011c-0.468,0.117-0.889,0.176-1.263,0.176c-0.788,0-1.182-0.207-1.182-0.62
					c0-0.374,0.331-0.562,0.994-0.562c0.413,0,0.928,0.094,1.544,0.281c0.553-0.936,0.83-1.953,0.83-3.052
					c0-0.982-0.219-1.735-0.655-2.258c-0.429-0.521-0.99-0.783-1.684-0.783c-0.554,0-1.029,0.156-1.427,0.468
					c-0.39,0.312-0.659,0.687-0.807,1.123c-0.148,0.429-0.223,1.134-0.223,2.116V701.519"/>
			</g>
		</g>
	</g>
	<g>
		<polygon fill="#EE3968" points="203.856,176.798 185.806,187.661 167.756,176.798 167.756,155.071 185.806,144.208 
			203.856,155.071 		"/>
		<g>
			<g>
				<path fill="#FFFFFF" d="M188.723,163.788c-0.531,0.473-1.247,1.313-1.952,1.234c0,0,0.753,0.245,0.99,0.705
					c-0.051-0.113-0.164-0.411-0.072-0.612c0,0,0.394,0.308,1.153,0.066c0.76-0.242,0.674-1.231,0.674-1.231
					s0.152-0.082,0.216,0.444c0,0,0.185-0.565,0.055-0.931C189.656,163.099,189.254,163.315,188.723,163.788z"/>
				<path fill="#FFFFFF" d="M187.988,164.614c0.642,0.269,0.709-0.387,0.709-0.387l0.151-0.2c0.06,1.119-0.912,0.799-0.912,0.799
					L187.988,164.614z"/>
				<path fill="#FFFFFF" d="M189.109,164.766c-0.335,0.563-1.273,0.347-1.391,0.205l0.078-0.073c0,0,0.435,0.328,0.942-0.015
					c0.507-0.344,0.259-0.935,0.259-0.935l0.145-0.063C189.142,163.886,189.412,164.199,189.109,164.766z"/>
			</g>
			<path fill="#FFFFFF" d="M187.761,165.728c0.013,0.029,0.022,0.047,0.022,0.047C187.777,165.759,187.769,165.744,187.761,165.728z
				"/>
			<path fill="#FFFFFF" d="M186.799,164.729c0.825,0.022,1.33-0.838,1.33-0.838c-0.374,0.263-0.825,0.457-1.254,0.326
				c-0.428-0.129-0.609-0.412-0.609-0.412v0.016C186.266,163.821,185.975,164.707,186.799,164.729z"/>
			<path fill="#FFFFFF" d="M186.496,165.809c0.199,0.003,0.316,0.146,0.694,0.47c0.378,0.323,1.082,0.305,1.082,0.305
				c-0.587-0.107-0.822-0.562-1.143-0.718C186.809,165.71,186.496,165.809,186.496,165.809z"/>
			<path fill="#FFFFFF" d="M188.042,168.803c0.096-0.521-0.188-0.748-0.71-0.501c-0.522,0.246-1.238,0.881-1.238,0.881
				c0.284,0.466,0.106,0.814,0.106,0.814c0.196-0.047,0.298-0.267,0.298-0.267c1.019,0.237,0.989-1.186,1.079-1.16
				c0.409,0.156-0.04,1.186-0.04,1.186S187.946,169.322,188.042,168.803z"/>
			<path fill="#FFFFFF" d="M186.425,167.89c0,0,1.405-0.584,1.82,0.635s-0.449,1.692-0.449,1.692s0.897-0.305,1.245-1.108
				c0.347-0.804,1.218-0.872,0.77-1.744c0,0-0.542,1.354-2.396-0.448C187.416,166.916,186.697,167.035,186.425,167.89z"/>
			<path fill="#FFFFFF" d="M185.805,166.046c0.181-0.494,0.328-0.642,0.823-0.822c-0.495-0.182-0.643-0.328-0.823-0.823
				c-0.182,0.495-0.328,0.642-0.823,0.823C185.477,165.404,185.624,165.552,185.805,166.046z"/>
			<path fill="#FFFFFF" d="M187.253,166.535c0,0-0.711-0.728-1.032,0.66C186.221,167.195,186.416,166.51,187.253,166.535z"/>
			<g>
				<path fill="#FFFFFF" d="M194.198,166.123c0.286,0,0.487,0.234,0.487,0.234c-0.146-0.696-0.468-1.361-0.789-1.894
					c0.414-0.218,0.617-0.96,0.458-1.775c-0.166-0.845-0.661-1.47-1.143-1.475c0.006-0.461-0.008-0.776-0.008-0.776
					c0.203-0.034,0.385,0.105,0.385,0.105c-0.456-2.323-3.072-3.771-3.072-3.771c0.127-0.089,0.254-0.069,0.254-0.069
					c-1.491-1.358-3.123-1.21-3.123-1.21c0.022-0.216,0.406-0.422,0.406-0.422c-1.405,0.135-1.97,0.421-2.162,0.553
					c-0.052-0.045-0.082-0.071-0.082-0.071s-0.03,0.027-0.085,0.074c-0.188-0.131-0.751-0.421-2.166-0.556
					c0,0,0.385,0.206,0.407,0.422c0,0-1.632-0.148-3.123,1.21c0,0,0.126-0.02,0.253,0.069c0,0-2.615,1.447-3.072,3.771
					c0,0,0.183-0.14,0.386-0.105c0,0-0.014,0.315-0.009,0.776c-0.481,0.005-0.976,0.63-1.142,1.475
					c-0.159,0.815,0.043,1.558,0.457,1.775c-0.32,0.532-0.643,1.197-0.788,1.894c0,0,0.201-0.234,0.486-0.234
					c0,0-1.066,1.403-0.673,3.421c0,0,0.127-0.361,0.337-0.405c0,0,0.102,1.948,1.225,2.723c0,0-0.051-0.214-0.013-0.379
					c0,0,2.184,1.621,2.26,2.205c0,0,0.102-0.263,0.034-0.55c0,0,1.456,1.836,1.346,2.463c0,0,0.224-0.144,0.3-0.438
					c0,0,0.399,0.587,1.079,0.937c0,0,0.051-0.206-0.01-0.382c0,0,0.688,0.651,1.272,0.76c0,0-0.01-0.213-0.117-0.324
					c0,0,1.28,0.399,1.353,0.646c0.071-0.246,1.353-0.646,1.353-0.646c-0.108,0.111-0.117,0.324-0.117,0.324
					c0.583-0.108,1.272-0.76,1.272-0.76c-0.061,0.176-0.01,0.382-0.01,0.382c0.679-0.35,1.079-0.937,1.079-0.937
					c0.076,0.295,0.3,0.438,0.3,0.438c-0.11-0.627,1.346-2.463,1.346-2.463c-0.068,0.287,0.033,0.55,0.033,0.55
					c0.076-0.584,2.26-2.205,2.26-2.205c0.038,0.165-0.013,0.379-0.013,0.379c1.124-0.774,1.226-2.723,1.226-2.723
					c0.209,0.044,0.336,0.405,0.336,0.405C195.265,167.526,194.198,166.123,194.198,166.123z"/>
				<path fill="#FFFFFF" d="M193.125,162.752c-0.002,0.001-0.004,0.001-0.005,0.001c0.048-0.405,0.072-0.818,0.084-1.182
					c0.36,0.185,0.674,0.649,0.788,1.234c0.112,0.57,0.005,1.106-0.246,1.418c-0.372-0.576-0.704-0.947-0.704-0.947
					s0.127-0.403,0.482-0.334C193.525,162.942,193.36,162.708,193.125,162.752z"/>
				<path fill="#FFFFFF" d="M185.622,156.186c0.12,0.048,0.185,0.083,0.185,0.083s0.065-0.036,0.189-0.085
					c0.374,0.455,1.263,1.102,2.441,1.643c1.496,0.687,2.124,1.47,2.124,1.47c-1.856-0.863-3.561-0.634-3.561-0.634
					c2.209,0.178,3.329,1.711,3.329,1.711c-1.066-0.905-3.016-0.552-3.016-0.552c1.173,0.114,1.396,0.777,1.396,0.777
					c-1.855,0.075-2.901,1.703-2.901,1.703s-1.045-1.628-2.9-1.703c0,0,0.224-0.663,1.396-0.777c0,0-1.948-0.354-3.016,0.552
					c0,0,1.121-1.533,3.331-1.711c0,0-1.706-0.229-3.562,0.634c0,0,0.628-0.783,2.124-1.47
					C184.359,157.286,185.247,156.64,185.622,156.186z"/>
				<path fill="#FFFFFF" d="M189.945,164.669c0,0-0.165,0.502-0.628,0.66c0,0,0.815,0.037,1.201-0.51
					c0.024,0.482-0.059,0.826-0.104,0.975c-1.079,0.998-2.332,0.352-2.332,0.352c0.621,0.646,1.393,0.79,2.091,0.352
					c0.331-0.207,0.504-0.498,0.595-0.746c0.005,0.26-0.094,0.416-0.094,0.416c0.75,0.612,0.664,1.706-0.095,2.734
					c-0.76,1.027-1.639,0.848-1.639,0.848c0.232,0.76,0.072,1.222,0.072,1.222c-0.159,0.369-0.353,0.662-0.567,0.896
					c-0.025,0.023-0.056,0.05-0.089,0.078c0.002-0.001,0.004-0.003,0.007-0.005c-0.004,0.004-0.008,0.007-0.013,0.01
					c0.002-0.002,0.004-0.003,0.006-0.005c-0.349,0.236-1.097,0.47-2.559,0.47c-1.419,0-2.166-0.22-2.526-0.448
					c-0.255-0.247-0.483-0.571-0.665-0.995c0,0-0.161-0.462,0.071-1.222c0,0-0.879,0.18-1.638-0.848
					c-0.759-1.028-0.846-2.122-0.095-2.734c0,0-0.095-0.149-0.095-0.397c0.093,0.244,0.266,0.525,0.587,0.728
					c0.699,0.438,1.471,0.294,2.091-0.352c0,0-1.245,0.642-2.32-0.343c-0.045-0.142-0.131-0.485-0.107-0.974
					c0.389,0.537,1.194,0.5,1.194,0.5c-0.464-0.158-0.629-0.66-0.629-0.66c-0.037,0.121,0.032,0.229,0.032,0.229
					c-0.35-0.157-0.492-0.365-0.54-0.555c0.054-0.29,0.149-0.611,0.304-0.958c0.655-1.461,1.875-1.516,4.348,0.313
					c2.214-1.809,3.691-1.773,4.347-0.313c0.152,0.34,0.246,0.655,0.301,0.94c-0.043,0.193-0.184,0.409-0.544,0.572
					C189.914,164.897,189.983,164.79,189.945,164.669z"/>
				<path fill="#FFFFFF" d="M177.62,162.806c0.114-0.585,0.428-1.05,0.788-1.234c0.012,0.363,0.035,0.776,0.084,1.182
					c-0.002,0-0.004,0-0.005-0.001c-0.235-0.044-0.4,0.19-0.4,0.19c0.355-0.069,0.482,0.334,0.482,0.334s-0.332,0.371-0.703,0.947
					C177.615,163.912,177.507,163.376,177.62,162.806z"/>
				<path fill="#FFFFFF" d="M181.371,171.563c-0.651-0.668-0.499-2.065-0.499-2.065c-0.424,0.559-0.305,1.634-0.305,1.634
					c-1.236-1.337-1.117-2.818-1.117-2.818c-0.567,1.008-0.263,2.387-0.263,2.387c-1.033-1.48-0.573-3.193-0.573-3.193
					c-0.642,0.705-0.698,2.128-0.698,2.128c-0.343-0.686-0.063-1.385-0.063-1.385c-0.324,0.172-0.388,0.749-0.388,0.749
					c-0.813-1.903,1.092-3.986,1.092-3.986l-0.901,0.542c0.475-1.117,1.27-1.9,1.27-1.9l0.369,0.559
					c-0.75-3.466-0.134-4.348-0.134-4.348c-0.216-0.02-0.426,0.146-0.426,0.146c0.851-2.399,3.98-3.37,3.98-3.37
					c-0.33-0.191-0.887-0.125-0.887-0.125c1.497-0.735,2.704-0.632,3.381-0.461c-0.328,0.261-0.741,0.568-1.104,0.775
					c-0.747,0.425-3.339,1.562-3.896,3.235c0,0,0.411-0.458,1.033-0.461c0,0-0.583,0.575-0.532,1.626c0,0,0.736-0.754,1.76-0.846
					c0,0-0.364,0.36-0.359,0.671c0,0,1.564-0.379,3.026,1.104c-0.752-0.374-2.016-0.813-3.172-0.325c0,0,0.37-0.04,0.482,0.058
					c0,0-1.523,0.561-1.765,2.802c0,0-0.173-0.175-0.161-0.512c0,0-0.391,1.077-0.138,1.644c0,0-0.655,1.12-0.472,2.197
					c0,0,0.08-0.25,0.219-0.299c0,0-0.04,1.147,0.874,1.86c0,0-0.115-0.223-0.069-0.364c0,0,0.195,0.455,0.729,0.852
					C181.311,170.67,181.371,171.563,181.371,171.563z"/>
				<path fill="#FFFFFF" d="M182.666,174.11c0.33-0.432,0.009-0.947,0.009-0.947c-0.254,0.566-0.805,0.414-0.805,0.414
					c0.406-0.22,0.368-0.871,0.368-0.871c-0.553-0.033-0.528-2.015-0.51-2.588c0.138,0.096,0.296,0.187,0.477,0.266
					c0,0-0.244,1.328,1.373,2.993C183.475,173.971,182.666,174.11,182.666,174.11z"/>
				<path fill="#FFFFFF" d="M185.81,173.909c-0.919,0-2.163-0.24-2.91-2.122c0,0,0.685,1.268,2.91,1.268s2.909-1.268,2.909-1.268
					C187.972,173.669,186.728,173.909,185.81,173.909z"/>
				<path fill="#FFFFFF" d="M189.742,173.577c0,0-0.55,0.152-0.804-0.414c0,0-0.321,0.516,0.009,0.947c0,0-0.804-0.138-0.911-0.727
					c1.624-1.669,1.379-3,1.379-3c0.178-0.078,0.334-0.167,0.47-0.261c0.019,0.58,0.041,2.55-0.511,2.583
					C189.374,172.706,189.335,173.357,189.742,173.577z"/>
				<path fill="#FFFFFF" d="M194.147,168.998c0,0-0.063-0.577-0.387-0.749c0,0,0.279,0.699-0.063,1.385c0,0-0.058-1.423-0.698-2.128
					c0,0,0.459,1.713-0.573,3.193c0,0,0.305-1.379-0.263-2.387c0,0,0.118,1.481-1.117,2.818c0,0,0.118-1.075-0.305-1.634
					c0,0,0.152,1.397-0.499,2.065c0,0,0.06-0.889-0.291-1.487c0.538-0.397,0.734-0.855,0.734-0.855
					c0.046,0.142-0.068,0.364-0.068,0.364c0.914-0.713,0.874-1.86,0.874-1.86c0.138,0.049,0.218,0.299,0.218,0.299
					c0.185-1.077-0.472-2.197-0.472-2.197c0.253-0.566-0.138-1.644-0.138-1.644c0.012,0.337-0.161,0.512-0.161,0.512
					c-0.241-2.241-1.765-2.802-1.765-2.802c0.112-0.098,0.483-0.058,0.483-0.058c-1.123-0.475-2.349-0.073-3.107,0.293
					c1.445-1.446,2.96-1.072,2.96-1.072c0.006-0.311-0.359-0.671-0.359-0.671c1.024,0.092,1.761,0.846,1.761,0.846
					c0.051-1.051-0.532-1.626-0.532-1.626c0.622,0.003,1.033,0.461,1.033,0.461c-0.558-1.674-3.149-2.811-3.897-3.235
					c-0.363-0.207-0.776-0.516-1.105-0.776c0.678-0.171,1.883-0.271,3.376,0.462c0,0-0.558-0.066-0.887,0.125
					c0,0,3.129,0.971,3.979,3.37c0,0-0.209-0.165-0.425-0.146c0,0,0.615,0.882-0.134,4.348l0.368-0.559c0,0,0.796,0.783,1.27,1.9
					l-0.901-0.542C193.055,165.012,194.96,167.095,194.147,168.998z"/>
			</g>
			<path fill="#FFFFFF" d="M183.851,165.728c-0.008,0.017-0.016,0.031-0.022,0.047C183.829,165.774,183.837,165.757,183.851,165.728
				z"/>
			<g>
				<path fill="#FFFFFF" d="M183.851,165.728c0.236-0.46,0.99-0.705,0.99-0.705c-0.705,0.078-1.421-0.762-1.952-1.234
					s-0.934-0.689-1.063-0.324c-0.131,0.365,0.055,0.931,0.055,0.931c0.063-0.526,0.216-0.444,0.216-0.444s-0.087,0.989,0.674,1.231
					c0.76,0.241,1.153-0.066,1.153-0.066C184.015,165.316,183.902,165.614,183.851,165.728z"/>
				<path fill="#FFFFFF" d="M182.763,164.027l0.151,0.2c0,0,0.067,0.655,0.71,0.387l0.052,0.212
					C183.676,164.826,182.705,165.146,182.763,164.027z"/>
				<path fill="#FFFFFF" d="M182.503,164.766c-0.303-0.566-0.034-0.88-0.034-0.88l0.146,0.063c0,0-0.249,0.591,0.259,0.935
					c0.508,0.343,0.941,0.015,0.941,0.015l0.079,0.073C183.776,165.112,182.837,165.329,182.503,164.766z"/>
			</g>
			<path fill="#FFFFFF" d="M184.812,164.729c0.825-0.022,0.533-0.908,0.533-0.908v-0.016c0,0-0.181,0.283-0.609,0.412
				c-0.429,0.131-0.879-0.063-1.253-0.326C183.483,163.892,183.987,164.752,184.812,164.729z"/>
			<path fill="#FFFFFF" d="M184.421,166.278c0.378-0.324,0.495-0.467,0.695-0.47c0,0-0.313-0.099-0.635,0.057
				c-0.32,0.156-0.556,0.61-1.143,0.718C183.339,166.583,184.044,166.602,184.421,166.278z"/>
			<path fill="#FFFFFF" d="M184.281,168.302c-0.522-0.247-0.806-0.02-0.71,0.501c0.096,0.52,0.505,0.953,0.505,0.953
				s-0.449-1.029-0.041-1.186c0.091-0.025,0.061,1.397,1.08,1.16c0,0,0.101,0.22,0.298,0.267c0,0-0.178-0.349,0.106-0.814
				C185.519,169.183,184.803,168.548,184.281,168.302z"/>
			<path fill="#FFFFFF" d="M183.367,168.524c0.415-1.219,1.819-0.635,1.819-0.635c-0.271-0.854-0.989-0.974-0.989-0.974
				c-1.854,1.803-2.396,0.448-2.396,0.448c-0.449,0.872,0.423,0.94,0.77,1.744c0.348,0.804,1.244,1.108,1.244,1.108
				S182.952,169.743,183.367,168.524z"/>
			<path fill="#FFFFFF" d="M185.802,167.674c-0.129,0.242-0.233,0.313-0.584,0.401c0.351,0.089,0.455,0.16,0.584,0.402
				c0.129-0.242,0.232-0.313,0.584-0.402C186.035,167.987,185.931,167.916,185.802,167.674z"/>
			<path fill="#FFFFFF" d="M184.358,166.535c0.838-0.025,1.033,0.66,1.033,0.66C185.07,165.808,184.358,166.535,184.358,166.535z"/>
			<path fill="#FFFFFF" d="M188.723,163.788c-0.531,0.473-1.247,1.313-1.952,1.234c0,0,0.753,0.245,0.99,0.705
				c-0.051-0.113-0.164-0.411-0.072-0.612c0,0,0.394,0.308,1.153,0.066c0.76-0.242,0.674-1.231,0.674-1.231s0.152-0.082,0.216,0.444
				c0,0,0.185-0.565,0.055-0.931C189.656,163.099,189.254,163.315,188.723,163.788z M187.988,164.614
				c0.642,0.269,0.709-0.387,0.709-0.387l0.151-0.2c0.06,1.119-0.912,0.799-0.912,0.799L187.988,164.614z M189.109,164.766
				c-0.335,0.563-1.273,0.347-1.391,0.205l0.078-0.073c0,0,0.435,0.328,0.942-0.015c0.507-0.344,0.259-0.935,0.259-0.935
				l0.145-0.063C189.142,163.886,189.412,164.199,189.109,164.766z M187.761,165.728c0.013,0.029,0.022,0.047,0.022,0.047
				C187.777,165.759,187.769,165.744,187.761,165.728z M186.799,164.729c0.825,0.022,1.33-0.838,1.33-0.838
				c-0.374,0.263-0.825,0.457-1.254,0.326c-0.428-0.129-0.609-0.412-0.609-0.412v0.016
				C186.266,163.821,185.975,164.707,186.799,164.729z M186.496,165.809c0.199,0.003,0.316,0.146,0.694,0.47
				c0.378,0.323,1.082,0.305,1.082,0.305c-0.587-0.107-0.822-0.562-1.143-0.718C186.809,165.71,186.496,165.809,186.496,165.809z
				 M188.042,168.803c0.096-0.521-0.188-0.748-0.71-0.501c-0.522,0.246-1.238,0.881-1.238,0.881
				c0.284,0.466,0.106,0.814,0.106,0.814c0.196-0.047,0.298-0.267,0.298-0.267c1.019,0.237,0.989-1.186,1.079-1.16
				c0.409,0.156-0.04,1.186-0.04,1.186S187.946,169.322,188.042,168.803z M186.425,167.89c0,0,1.405-0.584,1.82,0.635
				s-0.449,1.692-0.449,1.692s0.897-0.305,1.245-1.108c0.347-0.804,1.218-0.872,0.77-1.744c0,0-0.542,1.354-2.396-0.448
				C187.416,166.916,186.697,167.035,186.425,167.89z M185.805,166.046c0.181-0.494,0.328-0.642,0.823-0.822
				c-0.495-0.182-0.643-0.328-0.823-0.823c-0.182,0.495-0.328,0.642-0.823,0.823C185.477,165.404,185.624,165.552,185.805,166.046z
				 M187.253,166.535c0,0-0.711-0.728-1.032,0.66C186.221,167.195,186.416,166.51,187.253,166.535z M194.198,166.123
				c0.286,0,0.487,0.234,0.487,0.234c-0.146-0.696-0.468-1.361-0.789-1.894c0.414-0.218,0.617-0.96,0.458-1.775
				c-0.166-0.845-0.661-1.47-1.143-1.475c0.006-0.461-0.008-0.776-0.008-0.776c0.203-0.034,0.385,0.105,0.385,0.105
				c-0.456-2.323-3.072-3.771-3.072-3.771c0.127-0.089,0.254-0.069,0.254-0.069c-1.491-1.358-3.123-1.21-3.123-1.21
				c0.022-0.216,0.406-0.422,0.406-0.422c-1.405,0.135-1.97,0.421-2.162,0.553c-0.052-0.045-0.082-0.071-0.082-0.071
				s-0.03,0.027-0.085,0.074c-0.188-0.131-0.751-0.421-2.166-0.556c0,0,0.385,0.206,0.407,0.422c0,0-1.632-0.148-3.123,1.21
				c0,0,0.126-0.02,0.253,0.069c0,0-2.615,1.447-3.072,3.771c0,0,0.183-0.14,0.386-0.105c0,0-0.014,0.315-0.009,0.776
				c-0.481,0.005-0.976,0.63-1.142,1.475c-0.159,0.815,0.043,1.558,0.457,1.775c-0.32,0.532-0.643,1.197-0.788,1.894
				c0,0,0.201-0.234,0.486-0.234c0,0-1.066,1.403-0.673,3.421c0,0,0.127-0.361,0.337-0.405c0,0,0.102,1.948,1.225,2.723
				c0,0-0.051-0.214-0.013-0.379c0,0,2.184,1.621,2.26,2.205c0,0,0.102-0.263,0.034-0.55c0,0,1.456,1.836,1.346,2.463
				c0,0,0.224-0.144,0.3-0.438c0,0,0.399,0.587,1.079,0.937c0,0,0.051-0.206-0.01-0.382c0,0,0.688,0.651,1.272,0.76
				c0,0-0.01-0.213-0.117-0.324c0,0,1.28,0.399,1.353,0.646c0.071-0.246,1.353-0.646,1.353-0.646
				c-0.108,0.111-0.117,0.324-0.117,0.324c0.583-0.108,1.272-0.76,1.272-0.76c-0.061,0.176-0.01,0.382-0.01,0.382
				c0.679-0.35,1.079-0.937,1.079-0.937c0.076,0.295,0.3,0.438,0.3,0.438c-0.11-0.627,1.346-2.463,1.346-2.463
				c-0.068,0.287,0.033,0.55,0.033,0.55c0.076-0.584,2.26-2.205,2.26-2.205c0.038,0.165-0.013,0.379-0.013,0.379
				c1.124-0.774,1.226-2.723,1.226-2.723c0.209,0.044,0.336,0.405,0.336,0.405C195.265,167.526,194.198,166.123,194.198,166.123z
				 M193.125,162.752c-0.002,0.001-0.004,0.001-0.005,0.001c0.048-0.405,0.072-0.818,0.084-1.182
				c0.36,0.185,0.674,0.649,0.788,1.234c0.112,0.57,0.005,1.106-0.246,1.418c-0.372-0.576-0.704-0.947-0.704-0.947
				s0.127-0.403,0.482-0.334C193.525,162.942,193.36,162.708,193.125,162.752z M185.622,156.186c0.12,0.048,0.185,0.083,0.185,0.083
				s0.065-0.036,0.189-0.085c0.374,0.455,1.263,1.102,2.441,1.643c1.496,0.687,2.124,1.47,2.124,1.47
				c-1.856-0.863-3.561-0.634-3.561-0.634c2.209,0.178,3.329,1.711,3.329,1.711c-1.066-0.905-3.016-0.552-3.016-0.552
				c1.173,0.114,1.396,0.777,1.396,0.777c-1.855,0.075-2.901,1.703-2.901,1.703s-1.045-1.628-2.9-1.703c0,0,0.224-0.663,1.396-0.777
				c0,0-1.948-0.354-3.016,0.552c0,0,1.121-1.533,3.331-1.711c0,0-1.706-0.229-3.562,0.634c0,0,0.628-0.783,2.124-1.47
				C184.359,157.286,185.247,156.64,185.622,156.186z M189.945,164.669c0,0-0.165,0.502-0.628,0.66c0,0,0.815,0.037,1.201-0.51
				c0.024,0.482-0.059,0.826-0.104,0.975c-1.079,0.998-2.332,0.352-2.332,0.352c0.621,0.646,1.393,0.79,2.091,0.352
				c0.331-0.207,0.504-0.498,0.595-0.746c0.005,0.26-0.094,0.416-0.094,0.416c0.75,0.612,0.664,1.706-0.095,2.734
				c-0.76,1.027-1.639,0.848-1.639,0.848c0.232,0.76,0.072,1.222,0.072,1.222c-0.159,0.369-0.353,0.662-0.567,0.896
				c-0.025,0.023-0.056,0.05-0.089,0.078c0.002-0.001,0.004-0.003,0.007-0.005c-0.004,0.004-0.008,0.007-0.013,0.01
				c0.002-0.002,0.004-0.003,0.006-0.005c-0.349,0.236-1.097,0.47-2.559,0.47c-1.419,0-2.166-0.22-2.526-0.448
				c-0.255-0.247-0.483-0.571-0.665-0.995c0,0-0.161-0.462,0.071-1.222c0,0-0.879,0.18-1.638-0.848
				c-0.759-1.028-0.846-2.122-0.095-2.734c0,0-0.095-0.149-0.095-0.397c0.093,0.244,0.266,0.525,0.587,0.728
				c0.699,0.438,1.471,0.294,2.091-0.352c0,0-1.245,0.642-2.32-0.343c-0.045-0.142-0.131-0.485-0.107-0.974
				c0.389,0.537,1.194,0.5,1.194,0.5c-0.464-0.158-0.629-0.66-0.629-0.66c-0.037,0.121,0.032,0.229,0.032,0.229
				c-0.35-0.157-0.492-0.365-0.54-0.555c0.054-0.29,0.149-0.611,0.304-0.958c0.655-1.461,1.875-1.516,4.348,0.313
				c2.214-1.809,3.691-1.773,4.347-0.313c0.152,0.34,0.246,0.655,0.301,0.94c-0.043,0.193-0.184,0.409-0.544,0.572
				C189.914,164.897,189.983,164.79,189.945,164.669z M177.62,162.806c0.114-0.585,0.428-1.05,0.788-1.234
				c0.012,0.363,0.035,0.776,0.084,1.182c-0.002,0-0.004,0-0.005-0.001c-0.235-0.044-0.4,0.19-0.4,0.19
				c0.355-0.069,0.482,0.334,0.482,0.334s-0.332,0.371-0.703,0.947C177.615,163.912,177.507,163.376,177.62,162.806z
				 M181.371,171.563c-0.651-0.668-0.499-2.065-0.499-2.065c-0.424,0.559-0.305,1.634-0.305,1.634
				c-1.236-1.337-1.117-2.818-1.117-2.818c-0.567,1.008-0.263,2.387-0.263,2.387c-1.033-1.48-0.573-3.193-0.573-3.193
				c-0.642,0.705-0.698,2.128-0.698,2.128c-0.343-0.686-0.063-1.385-0.063-1.385c-0.324,0.172-0.388,0.749-0.388,0.749
				c-0.813-1.903,1.092-3.986,1.092-3.986l-0.901,0.542c0.475-1.117,1.27-1.9,1.27-1.9l0.369,0.559
				c-0.75-3.466-0.134-4.348-0.134-4.348c-0.216-0.02-0.426,0.146-0.426,0.146c0.851-2.399,3.98-3.37,3.98-3.37
				c-0.33-0.191-0.887-0.125-0.887-0.125c1.497-0.735,2.704-0.632,3.381-0.461c-0.328,0.261-0.741,0.568-1.104,0.775
				c-0.747,0.425-3.339,1.562-3.896,3.235c0,0,0.411-0.458,1.033-0.461c0,0-0.583,0.575-0.532,1.626c0,0,0.736-0.754,1.76-0.846
				c0,0-0.364,0.36-0.359,0.671c0,0,1.564-0.379,3.026,1.104c-0.752-0.374-2.016-0.813-3.172-0.325c0,0,0.37-0.04,0.482,0.058
				c0,0-1.523,0.561-1.765,2.802c0,0-0.173-0.175-0.161-0.512c0,0-0.391,1.077-0.138,1.644c0,0-0.655,1.12-0.472,2.197
				c0,0,0.08-0.25,0.219-0.299c0,0-0.04,1.147,0.874,1.86c0,0-0.115-0.223-0.069-0.364c0,0,0.195,0.455,0.729,0.852
				C181.311,170.67,181.371,171.563,181.371,171.563z M182.666,174.11c0.33-0.432,0.009-0.947,0.009-0.947
				c-0.254,0.566-0.805,0.414-0.805,0.414c0.406-0.22,0.368-0.871,0.368-0.871c-0.553-0.033-0.528-2.015-0.51-2.588
				c0.138,0.096,0.296,0.187,0.477,0.266c0,0-0.244,1.328,1.373,2.993C183.475,173.971,182.666,174.11,182.666,174.11z
				 M185.81,173.909c-0.919,0-2.163-0.24-2.91-2.122c0,0,0.685,1.268,2.91,1.268s2.909-1.268,2.909-1.268
				C187.972,173.669,186.728,173.909,185.81,173.909z M189.742,173.577c0,0-0.55,0.152-0.804-0.414c0,0-0.321,0.516,0.009,0.947
				c0,0-0.804-0.138-0.911-0.727c1.624-1.669,1.379-3,1.379-3c0.178-0.078,0.334-0.167,0.47-0.261
				c0.019,0.58,0.041,2.55-0.511,2.583C189.374,172.706,189.335,173.357,189.742,173.577z M194.147,168.998
				c0,0-0.063-0.577-0.387-0.749c0,0,0.279,0.699-0.063,1.385c0,0-0.058-1.423-0.698-2.128c0,0,0.459,1.713-0.573,3.193
				c0,0,0.305-1.379-0.263-2.387c0,0,0.118,1.481-1.117,2.818c0,0,0.118-1.075-0.305-1.634c0,0,0.152,1.397-0.499,2.065
				c0,0,0.06-0.889-0.291-1.487c0.538-0.397,0.734-0.855,0.734-0.855c0.046,0.142-0.068,0.364-0.068,0.364
				c0.914-0.713,0.874-1.86,0.874-1.86c0.138,0.049,0.218,0.299,0.218,0.299c0.185-1.077-0.472-2.197-0.472-2.197
				c0.253-0.566-0.138-1.644-0.138-1.644c0.012,0.337-0.161,0.512-0.161,0.512c-0.241-2.241-1.765-2.802-1.765-2.802
				c0.112-0.098,0.483-0.058,0.483-0.058c-1.123-0.475-2.349-0.073-3.107,0.293c1.445-1.446,2.96-1.072,2.96-1.072
				c0.006-0.311-0.359-0.671-0.359-0.671c1.024,0.092,1.761,0.846,1.761,0.846c0.051-1.051-0.532-1.626-0.532-1.626
				c0.622,0.003,1.033,0.461,1.033,0.461c-0.558-1.674-3.149-2.811-3.897-3.235c-0.363-0.207-0.776-0.516-1.105-0.776
				c0.678-0.171,1.883-0.271,3.376,0.462c0,0-0.558-0.066-0.887,0.125c0,0,3.129,0.971,3.979,3.37c0,0-0.209-0.165-0.425-0.146
				c0,0,0.615,0.882-0.134,4.348l0.368-0.559c0,0,0.796,0.783,1.27,1.9l-0.901-0.542
				C193.055,165.012,194.96,167.095,194.147,168.998z M183.851,165.728c-0.008,0.017-0.016,0.031-0.022,0.047
				C183.829,165.774,183.837,165.757,183.851,165.728z M183.851,165.728c0.236-0.46,0.99-0.705,0.99-0.705
				c-0.705,0.078-1.421-0.762-1.952-1.234s-0.934-0.689-1.063-0.324c-0.131,0.365,0.055,0.931,0.055,0.931
				c0.063-0.526,0.216-0.444,0.216-0.444s-0.087,0.989,0.674,1.231c0.76,0.241,1.153-0.066,1.153-0.066
				C184.015,165.316,183.902,165.614,183.851,165.728z M182.763,164.027l0.151,0.2c0,0,0.067,0.655,0.71,0.387l0.052,0.212
				C183.676,164.826,182.705,165.146,182.763,164.027z M182.503,164.766c-0.303-0.566-0.034-0.88-0.034-0.88l0.146,0.063
				c0,0-0.249,0.591,0.259,0.935c0.508,0.343,0.941,0.015,0.941,0.015l0.079,0.073C183.776,165.112,182.837,165.329,182.503,164.766
				z M184.812,164.729c0.825-0.022,0.533-0.908,0.533-0.908v-0.016c0,0-0.181,0.283-0.609,0.412
				c-0.429,0.131-0.879-0.063-1.253-0.326C183.483,163.892,183.987,164.752,184.812,164.729z M184.421,166.278
				c0.378-0.324,0.495-0.467,0.695-0.47c0,0-0.313-0.099-0.635,0.057c-0.32,0.156-0.556,0.61-1.143,0.718
				C183.339,166.583,184.044,166.602,184.421,166.278z M184.281,168.302c-0.522-0.247-0.806-0.02-0.71,0.501
				c0.096,0.52,0.505,0.953,0.505,0.953s-0.449-1.029-0.041-1.186c0.091-0.025,0.061,1.397,1.08,1.16c0,0,0.101,0.22,0.298,0.267
				c0,0-0.178-0.349,0.106-0.814C185.519,169.183,184.803,168.548,184.281,168.302z M183.367,168.524
				c0.415-1.219,1.819-0.635,1.819-0.635c-0.271-0.854-0.989-0.974-0.989-0.974c-1.854,1.803-2.396,0.448-2.396,0.448
				c-0.449,0.872,0.423,0.94,0.77,1.744c0.348,0.804,1.244,1.108,1.244,1.108S182.952,169.743,183.367,168.524z M185.802,167.674
				c-0.129,0.242-0.233,0.313-0.584,0.401c0.351,0.089,0.455,0.16,0.584,0.402c0.129-0.242,0.232-0.313,0.584-0.402
				C186.035,167.987,185.931,167.916,185.802,167.674z M184.358,166.535c0.838-0.025,1.033,0.66,1.033,0.66
				C185.07,165.808,184.358,166.535,184.358,166.535z"/>
		</g>
	</g>
	<g>
		<polygon fill="#6EC498" points="245.64,176.798 227.715,187.661 209.792,176.798 209.792,155.071 227.715,144.208 245.64,155.071 
					"/>
		<g>
			<polygon fill="#FFFFFF" points="218.753,155.071 227.715,160.503 236.677,165.935 227.715,171.366 218.753,176.798 
				218.753,165.935 			"/>
		</g>
	</g>
	<g>
		<polygon fill="#F8983A" points="78.126,177.373 60.077,188.236 42.027,177.373 42.027,155.646 60.077,144.783 78.126,155.646 		
			"/>
		<g>
			<polygon fill="#FFFFFF" points="69.102,171.941 60.077,177.373 51.052,171.941 51.052,161.078 60.077,155.646 69.102,161.078 			
				"/>
		</g>
	</g>
</g>
</svg>
