<?xml version="1.0" encoding="utf-8"?>
<!-- Generator: Adobe Illustrator 19.1.0, SVG Export Plug-In . SVG Version: 6.00 Build 0)  -->
<svg version="1.1" id="Camada_1" xmlns="http://www.w3.org/2000/svg" xmlns:xlink="http://www.w3.org/1999/xlink" x="0px" y="0px"
	 viewBox="0 0 640 360" style="enable-background:new 0 0 640 360;" xml:space="preserve">
<style type="text/css">
	.st0{fill:none;stroke:#000000;stroke-width:2;stroke-miterlimit:10;}
	.st1{fill:none;stroke:#000000;stroke-width:1.9026;stroke-miterlimit:10;}
</style>
<g>
	<g>
		<path class="st0" d="M253.6,329.7l-10.3-38.3l2.6-117l18,96.4l7.7,7.2l-10.3,22.4l20.6,18c0,0-15.4,11.3-15.4,11.3h30.8l10.3-11.3
			c0,0,0-37.3,0-37.3h30.8v37.3l10.3,11.3h30.8l-15.4-11.3l20.6-18l-10.3-22.4l7.7-7.2l18-96.4l2.6,117l-10.3,38.3c0,0,7.7,0,7.7,0
			c0,3.8,8.8,6.9,20.6,6.9c11.7,0,20.5-3.1,20.6-6.9l5.1-155.3l-15.4-8h15.4L431,126.4l-30.8-17.2l-41.1-5.7l7.7-15.7l-7.7-5.9
			l-2.6-11.6l-2.6-10.8l-7.7-15.4l-15.4-7.5H323h-7.7l-15.4,7.5l-7.7,15.4l-2.6,10.8L287,81.9l-7.7,5.9l7.7,15.7l-41.1,5.7
			L215,126.4l-15.4,40.1H215l-15.4,8c0,0,5.1,155.3,5.1,155.3c0,3.8,8.8,6.9,20.6,6.9c11.8,0,20.6-3.1,20.6-6.9"/>
	</g>
	<line class="st0" x1="254" y1="330" x2="246" y2="330"/>
</g>
</svg>
