<?xml version="1.0" encoding="utf-8"?>
<!-- Generator: Adobe Illustrator 16.0.0, SVG Export Plug-In . SVG Version: 6.00 Build 0)  -->
<!DOCTYPE svg PUBLIC "-//W3C//DTD SVG 1.1//EN" "http://www.w3.org/Graphics/SVG/1.1/DTD/svg11.dtd">
<svg version="1.1" id="Layer_1" xmlns="http://www.w3.org/2000/svg" xmlns:xlink="http://www.w3.org/1999/xlink" x="0px" y="0px"
	 width="330px" height="400px" viewBox="0 0 330 400" enable-background="new 0 0 330 400" xml:space="preserve">
<polygon fill="#3499CD" points="330,300 165,400 0,300 0.001,100 165,0 330,100 "/>
<g>
	<g>
		<path fill="#FFFFFF" d="M166.194,211.432c0,0-0.467-2.275-0.808-6.127c-0.208-1.92-0.269-4.271-0.462-6.867
			c-0.17-2.592-0.321-5.471-0.351-8.537c-0.156-3.108-0.178-6.43-0.195-9.882c-0.141-3.445-0.012-7.046-0.166-10.668
			c0.001-3.646-0.19-7.304-0.303-10.951c-0.152-1.789-0.199-3.625-0.346-5.394c-0.093-0.875-0.205-1.748-0.273-2.625
			c-0.076-0.876-0.122-1.769-0.294-2.585c-0.264-1.662-0.428-3.396-0.807-4.924c-0.176-0.777-0.293-1.601-0.475-2.35
			c-0.207-0.729-0.423-1.454-0.598-2.195c-0.872-2.819-1.801-5.421-3.064-7.58c-1.261-2.155-2.758-4.051-4.621-5.722
			c-1.853-1.669-4.069-3.087-6.412-4.226c-2.352-1.11-4.794-1.967-7.076-2.598c-2.289-0.661-4.411-1.055-6.206-1.353
			c-1.805-0.294-3.261-0.42-4.278-0.467c-0.496-0.001-0.916-0.029-1.163,0.016c-0.278,0.036-0.421,0.055-0.421,0.055
			s0.074-0.122,0.217-0.358c0.153-0.264,0.417-0.589,0.803-0.996c0.768-0.797,2.002-1.89,3.735-2.972
			c1.729-1.111,3.955-2.282,6.705-3.232c2.749-0.936,6.027-1.748,9.822-1.931c3.781-0.159,8.113,0.292,12.586,1.884
			c4.464,1.565,8.989,4.358,12.746,8.133c3.776,3.778,6.571,8.401,8.62,13.163c0.48,1.188,0.922,2.399,1.375,3.612
			c0.426,1.208,0.695,2.412,1.029,3.632c0.734,2.451,1.012,4.846,1.409,7.269c0.206,1.222,0.265,2.398,0.351,3.584
			c0.088,1.185,0.135,2.371,0.199,3.552c0.093,1.19-0.004,2.318-0.02,3.476c-0.037,1.148-0.059,2.293-0.121,3.431
			c-0.342,4.493-0.908,8.856-1.859,12.915c-0.805,4.118-2.078,7.897-3.242,11.491c-1.279,3.548-2.695,6.81-4.05,9.792
			c-1.476,2.972-2.952,5.628-4.296,7.942c-0.683,1.166-1.338,2.197-2.012,3.145c-0.659,0.95-1.254,1.826-1.839,2.604
			C167.763,209.718,166.193,211.432,166.194,211.432z"/>
	</g>
	<g>
		<g>
			<path fill="#FFFFFF" d="M158.854,203.134c0,0,1.395-1.858,4.052-4.666c1.299-1.429,3.02-3.031,4.836-4.898
				c1.828-1.845,3.883-3.866,6.159-5.921c2.225-2.177,4.696-4.395,7.27-6.696c2.487-2.389,5.269-4.679,7.879-7.195
				c2.73-2.416,5.343-4.984,7.999-7.485c1.239-1.3,2.583-2.552,3.81-3.834c0.594-0.649,1.173-1.312,1.784-1.945
				c0.605-0.637,1.244-1.263,1.741-1.933c1.069-1.299,2.259-2.57,3.152-3.868c0.465-0.646,1.003-1.28,1.444-1.913
				c0.409-0.638,0.809-1.281,1.247-1.903c1.533-2.521,2.866-4.941,3.646-7.318c0.777-2.373,1.205-4.75,1.221-7.252
				c0.021-2.493-0.385-5.092-1.085-7.602c-0.728-2.496-1.705-4.893-2.745-7.019c-1.021-2.152-2.134-4.002-3.102-5.543
				c-0.976-1.546-1.847-2.72-2.485-3.513c-0.328-0.371-0.585-0.705-0.782-0.86c-0.211-0.184-0.32-0.279-0.32-0.279
				s0.141-0.026,0.412-0.076c0.299-0.06,0.718-0.077,1.278-0.059c1.105,0.047,2.742,0.247,4.7,0.828
				c1.979,0.558,4.33,1.447,6.864,2.877c2.522,1.438,5.304,3.354,7.956,6.074c2.626,2.726,5.16,6.269,6.933,10.673
				c1.786,4.38,2.694,9.621,2.358,14.935c-0.326,5.333-1.937,10.489-4.144,15.179c-0.571,1.147-1.186,2.281-1.793,3.425
				c-0.623,1.119-1.345,2.12-2.037,3.178c-1.35,2.174-2.959,3.969-4.509,5.873c-0.778,0.964-1.621,1.787-2.452,2.637
				c-0.828,0.852-1.686,1.672-2.526,2.503c-0.83,0.859-1.739,1.534-2.616,2.289c-0.884,0.734-1.756,1.476-2.648,2.183
				c-3.591,2.723-7.234,5.19-10.903,7.168c-3.615,2.127-7.291,3.679-10.753,5.189c-3.504,1.394-6.885,2.495-10.016,3.458
				c-3.204,0.865-6.171,1.521-8.795,2.048c-1.325,0.262-2.532,0.455-3.688,0.577c-1.147,0.138-2.197,0.272-3.168,0.35
				C161.178,203.174,158.854,203.134,158.854,203.134z"/>
			<path fill="#FFFFFF" d="M162.35,188.177c0,0,1.88,1.364,4.731,3.976c1.45,1.276,3.08,2.97,4.977,4.755
				c1.875,1.798,3.929,3.82,6.021,6.062c2.213,2.188,4.471,4.624,6.813,7.16c2.43,2.447,4.765,5.191,7.322,7.76
				c2.46,2.691,5.07,5.261,7.614,7.877c1.32,1.218,2.594,2.54,3.896,3.746c0.659,0.583,1.331,1.151,1.974,1.753
				c0.647,0.595,1.284,1.223,1.962,1.709c1.316,1.048,2.606,2.217,3.918,3.089c0.654,0.454,1.297,0.982,1.937,1.413
				c0.645,0.398,1.294,0.787,1.923,1.216c2.547,1.492,4.987,2.785,7.377,3.525c2.386,0.739,4.769,1.128,7.271,1.104
				c2.493-0.019,5.086-0.468,7.584-1.208c2.483-0.768,4.865-1.784,6.974-2.858c2.136-1.057,3.968-2.198,5.493-3.19
				c1.53-1,2.69-1.89,3.473-2.542c0.366-0.334,0.695-0.596,0.848-0.796c0.181-0.214,0.273-0.324,0.273-0.324s0.028,0.14,0.082,0.411
				c0.064,0.298,0.089,0.716,0.079,1.276c-0.029,1.106-0.202,2.746-0.751,4.713c-0.526,1.988-1.378,4.354-2.767,6.91
				c-1.396,2.545-3.268,5.357-5.945,8.053c-2.683,2.67-6.184,5.261-10.559,7.104c-4.351,1.856-9.576,2.85-14.895,2.601
				c-5.337-0.239-10.519-1.766-15.243-3.896c-1.157-0.552-2.301-1.147-3.454-1.736c-1.129-0.604-2.142-1.311-3.21-1.985
				c-2.196-1.314-4.017-2.894-5.945-4.412c-0.978-0.763-1.813-1.593-2.678-2.409c-0.864-0.813-1.699-1.658-2.544-2.485
				c-0.872-0.816-1.562-1.714-2.331-2.578c-0.748-0.872-1.504-1.731-2.226-2.613c-2.781-3.546-5.309-7.148-7.345-10.784
				c-2.187-3.581-3.798-7.23-5.364-10.667c-1.45-3.481-2.607-6.844-3.62-9.959c-0.917-3.188-1.621-6.146-2.19-8.76
				c-0.283-1.321-0.496-2.524-0.638-3.678c-0.156-1.146-0.309-2.193-0.401-3.162C162.348,190.501,162.35,188.177,162.35,188.177z"/>
			<path fill="#FFFFFF" d="M173.116,207.677c0,0-1.915-1.314-4.833-3.851c-1.482-1.238-3.157-2.889-5.099-4.625
				c-1.921-1.748-4.027-3.716-6.177-5.903c-2.27-2.13-4.59-4.506-6.998-6.98c-2.492-2.383-4.898-5.066-7.522-7.567
				c-2.53-2.626-5.206-5.127-7.817-7.675c-1.352-1.183-2.66-2.472-3.992-3.644c-0.674-0.565-1.36-1.117-2.019-1.701
				c-0.662-0.578-1.315-1.189-2.005-1.657c-1.343-1.014-2.664-2.148-3.998-2.986c-0.666-0.437-1.321-0.948-1.972-1.362
				c-0.655-0.381-1.314-0.753-1.954-1.165c-2.584-1.425-5.058-2.654-7.466-3.333c-2.404-0.676-4.796-1.003-7.298-0.913
				c-2.492,0.084-5.071,0.6-7.549,1.406c-2.463,0.833-4.817,1.911-6.897,3.04c-2.106,1.112-3.908,2.302-5.407,3.333
				c-1.503,1.041-2.64,1.96-3.404,2.632c-0.357,0.344-0.679,0.614-0.826,0.818c-0.174,0.219-0.265,0.332-0.265,0.332
				s-0.032-0.139-0.093-0.409c-0.073-0.296-0.108-0.713-0.114-1.274c0-1.107,0.13-2.75,0.627-4.731
				c0.473-2.001,1.263-4.388,2.583-6.98c1.33-2.581,3.126-5.441,5.732-8.207c2.612-2.739,6.044-5.42,10.37-7.378
				c4.3-1.969,9.498-3.099,14.822-2.988c5.341,0.1,10.562,1.49,15.34,3.497c1.17,0.522,2.329,1.087,3.498,1.646
				c1.144,0.575,2.175,1.255,3.261,1.901c2.229,1.256,4.09,2.788,6.058,4.256c0.997,0.737,1.854,1.544,2.739,2.338
				c0.886,0.791,1.742,1.613,2.608,2.418c0.893,0.793,1.606,1.672,2.397,2.516c0.771,0.852,1.549,1.692,2.293,2.554
				c2.872,3.473,5.492,7.007,7.623,10.589c2.279,3.523,3.984,7.129,5.64,10.524c1.541,3.441,2.785,6.773,3.879,9.861
				c0.999,3.164,1.78,6.101,2.418,8.7c0.317,1.313,0.562,2.51,0.733,3.66c0.186,1.141,0.365,2.184,0.483,3.151
				C173.057,205.354,173.116,207.677,173.116,207.677z"/>
			<path fill="#FFFFFF" d="M176.293,197.865c0,0-1.479,1.792-4.262,4.476c-1.363,1.367-3.155,2.89-5.056,4.671
				c-1.91,1.76-4.056,3.684-6.424,5.632c-2.322,2.073-4.893,4.176-7.569,6.356c-2.594,2.272-5.478,4.432-8.2,6.825
				c-2.839,2.289-5.565,4.734-8.334,7.111c-1.297,1.241-2.697,2.431-3.981,3.655c-0.623,0.621-1.232,1.257-1.872,1.86
				c-0.634,0.609-1.3,1.205-1.828,1.852c-1.128,1.249-2.375,2.464-3.326,3.719c-0.494,0.625-1.061,1.233-1.531,1.845
				c-0.438,0.619-0.866,1.242-1.333,1.844c-1.647,2.449-3.09,4.805-3.978,7.144c-0.886,2.335-1.422,4.689-1.553,7.189
				c-0.136,2.489,0.151,5.104,0.735,7.644c0.612,2.526,1.479,4.966,2.419,7.138c0.922,2.196,1.948,4.096,2.843,5.68
				c0.904,1.59,1.72,2.803,2.322,3.623c0.311,0.387,0.552,0.731,0.742,0.896c0.203,0.193,0.307,0.293,0.307,0.293
				s-0.142,0.02-0.416,0.057c-0.301,0.046-0.72,0.044-1.279,0c-1.103-0.098-2.729-0.372-4.658-1.042
				c-1.951-0.647-4.26-1.645-6.725-3.189c-2.454-1.552-5.144-3.594-7.669-6.434c-2.498-2.843-4.866-6.499-6.435-10.98
				c-1.583-4.457-2.25-9.734-1.669-15.026c0.57-5.313,2.416-10.389,4.835-14.973c0.623-1.119,1.289-2.224,1.948-3.339
				c0.674-1.089,1.441-2.056,2.182-3.08c1.447-2.11,3.137-3.829,4.773-5.66c0.821-0.928,1.701-1.711,2.57-2.522
				c0.866-0.813,1.76-1.593,2.639-2.385c0.869-0.819,1.808-1.452,2.718-2.166c0.917-0.693,1.822-1.394,2.746-2.06
				c3.712-2.555,7.464-4.854,11.22-6.66c3.709-1.96,7.452-3.341,10.979-4.691c3.564-1.231,6.992-2.177,10.164-2.995
				c3.24-0.717,6.234-1.236,8.879-1.642c1.336-0.201,2.55-0.338,3.71-0.408c1.153-0.084,2.208-0.172,3.182-0.204
				C173.974,197.719,176.293,197.866,176.293,197.865z"/>
		</g>
	</g>
	<g>
		<g>
			<path fill="#FFFFFF" d="M159.079,198.264c0,0,2.293-0.37,6.156-0.548c1.927-0.127,4.277-0.087,6.881-0.171
				c2.597-0.061,5.479-0.089,8.544,0.01c3.112-0.024,6.431,0.094,9.881,0.224c3.449,0.005,7.041,0.287,10.666,0.287
				c3.644,0.155,7.306,0.119,10.954,0.161c1.794-0.076,3.631-0.046,5.403-0.118c0.878-0.055,1.756-0.13,2.635-0.162
				c0.878-0.039,1.772-0.046,2.595-0.184c1.672-0.193,3.411-0.283,4.954-0.597c0.783-0.143,1.61-0.226,2.367-0.375
				c0.737-0.176,1.471-0.361,2.219-0.505c2.854-0.751,5.492-1.569,7.702-2.74c2.207-1.169,4.164-2.583,5.912-4.375
				c1.746-1.78,3.256-3.934,4.493-6.227c1.208-2.302,2.167-4.707,2.894-6.959c0.758-2.259,1.24-4.363,1.613-6.144
				c0.369-1.791,0.557-3.24,0.646-4.254c0.021-0.495,0.068-0.913,0.033-1.162c-0.024-0.279-0.037-0.423-0.037-0.423
				s0.119,0.079,0.35,0.231c0.257,0.165,0.57,0.442,0.961,0.844c0.764,0.801,1.804,2.081,2.812,3.856
				c1.038,1.775,2.114,4.047,2.947,6.835c0.818,2.785,1.492,6.095,1.515,9.895c-0.001,3.785-0.635,8.094-2.414,12.496
				c-1.754,4.393-4.736,8.797-8.666,12.391c-3.936,3.613-8.673,6.209-13.517,8.054c-1.207,0.43-2.437,0.82-3.667,1.222
				c-1.226,0.374-2.44,0.593-3.673,0.874c-2.479,0.629-4.884,0.805-7.321,1.101c-1.229,0.154-2.408,0.161-3.596,0.197
				c-1.188,0.039-2.374,0.034-3.557,0.049c-1.193,0.042-2.316-0.103-3.472-0.167c-1.146-0.085-2.288-0.155-3.422-0.266
				c-4.476-0.532-8.811-1.283-12.825-2.405c-4.08-0.977-7.803-2.41-11.344-3.725c-3.49-1.429-6.689-2.981-9.611-4.461
				c-2.906-1.601-5.498-3.188-7.754-4.629c-1.136-0.731-2.139-1.429-3.056-2.144c-0.922-0.697-1.772-1.328-2.524-1.946
				C160.725,199.905,159.079,198.263,159.079,198.264z"/>
			<path fill="#FFFFFF" d="M171.975,189.92c0,0,0.407,2.287,0.648,6.146c0.158,1.924,0.156,4.275,0.283,6.877
				c0.103,2.595,0.178,5.477,0.128,8.542c0.075,3.112,0.011,6.433-0.063,9.884c0.052,3.448-0.172,7.045-0.112,10.669
				c-0.096,3.646,0,7.307,0.017,10.955c0.105,1.793,0.105,3.63,0.206,5.401c0.069,0.877,0.158,1.753,0.204,2.631
				c0.054,0.878,0.076,1.771,0.227,2.592c0.221,1.669,0.339,3.405,0.678,4.943c0.156,0.781,0.252,1.607,0.414,2.361
				c0.188,0.734,0.385,1.465,0.541,2.21c0.798,2.842,1.658,5.466,2.864,7.657c1.205,2.188,2.651,4.121,4.471,5.84
				c1.809,1.717,3.986,3.192,6.299,4.393c2.321,1.17,4.741,2.091,7.005,2.78c2.271,0.722,4.383,1.17,6.169,1.514
				c1.797,0.342,3.249,0.506,4.265,0.579c0.495,0.014,0.915,0.054,1.163,0.015c0.278-0.029,0.422-0.044,0.422-0.044
				s-0.077,0.12-0.226,0.353c-0.16,0.26-0.434,0.578-0.829,0.976c-0.789,0.776-2.051,1.836-3.811,2.872
				c-1.758,1.066-4.013,2.18-6.787,3.057c-2.771,0.864-6.07,1.591-9.869,1.675c-3.783,0.061-8.103-0.503-12.533-2.212
				c-4.421-1.682-8.873-4.592-12.529-8.463c-3.677-3.875-6.349-8.57-8.273-13.383c-0.449-1.2-0.859-2.423-1.281-3.647
				c-0.393-1.219-0.632-2.43-0.934-3.657c-0.669-2.47-0.885-4.871-1.219-7.303c-0.175-1.227-0.201-2.404-0.256-3.592
				c-0.058-1.187-0.073-2.373-0.107-3.556c-0.062-1.192,0.064-2.317,0.11-3.474c0.066-1.147,0.119-2.291,0.21-3.427
				c0.458-4.482,1.139-8.83,2.195-12.861c0.911-4.096,2.283-7.842,3.54-11.403c1.371-3.513,2.872-6.737,4.304-9.683
				c1.553-2.933,3.097-5.55,4.501-7.828c0.712-1.147,1.395-2.162,2.094-3.091c0.683-0.933,1.3-1.793,1.905-2.555
				C170.361,191.592,171.975,189.92,171.975,189.92z"/>
			<path fill="#FFFFFF" d="M170.668,201.534c0,0-2.289,0.396-6.149,0.619c-1.925,0.149-4.276,0.137-6.878,0.251
				c-2.596,0.09-5.478,0.152-8.543,0.088c-3.112,0.061-6.432-0.02-9.883-0.109c-3.448,0.035-7.043-0.205-10.668-0.162
				c-3.645-0.113-7.306-0.034-10.955-0.035c-1.793,0.097-3.63,0.088-5.402,0.181c-0.877,0.065-1.753,0.15-2.632,0.191
				c-0.877,0.05-1.771,0.067-2.593,0.215c-1.669,0.213-3.407,0.322-4.946,0.654c-0.782,0.152-1.608,0.244-2.363,0.402
				c-0.735,0.185-1.466,0.378-2.212,0.53c-2.845,0.785-5.474,1.633-7.67,2.829c-2.193,1.194-4.133,2.632-5.861,4.442
				c-1.725,1.801-3.211,3.972-4.421,6.278c-1.182,2.315-2.113,4.731-2.814,6.992c-0.731,2.267-1.19,4.376-1.542,6.161
				c-0.35,1.795-0.521,3.247-0.599,4.262c-0.016,0.495-0.058,0.914-0.021,1.163c0.028,0.278,0.042,0.422,0.042,0.422
				s-0.12-0.077-0.352-0.228c-0.258-0.162-0.575-0.436-0.971-0.833c-0.772-0.793-1.827-2.061-2.854-3.825
				c-1.059-1.763-2.16-4.022-3.025-6.801c-0.851-2.775-1.562-6.077-1.627-9.876c-0.043-3.784,0.541-8.101,2.27-12.522
				c1.703-4.413,4.634-8.852,8.521-12.489c3.893-3.659,8.6-6.309,13.422-8.21c1.202-0.444,2.427-0.849,3.653-1.265
				c1.221-0.387,2.433-0.621,3.662-0.916c2.473-0.658,4.875-0.862,7.308-1.185c1.228-0.169,2.405-0.19,3.593-0.239
				c1.187-0.053,2.374-0.062,3.556-0.09c1.193-0.056,2.317,0.075,3.473,0.126c1.147,0.072,2.29,0.129,3.425,0.227
				c4.481,0.479,8.825,1.18,12.852,2.256c4.091,0.93,7.83,2.32,11.386,3.594c3.506,1.388,6.723,2.903,9.662,4.349
				c2.925,1.567,5.535,3.124,7.807,4.539c1.144,0.718,2.155,1.404,3.081,2.108c0.93,0.687,1.787,1.308,2.546,1.917
				C169.003,199.912,170.668,201.535,170.668,201.534z"/>
			<path fill="#FFFFFF" d="M166.194,211.432c0,0-0.467-2.275-0.808-6.127c-0.208-1.92-0.269-4.27-0.462-6.868
				c-0.17-2.592-0.321-5.47-0.351-8.537c-0.156-3.108-0.178-6.429-0.195-9.882c-0.141-3.445-0.011-7.046-0.166-10.668
				c0.001-3.646-0.19-7.304-0.303-10.951c-0.152-1.79-0.199-3.625-0.346-5.394c-0.093-0.875-0.205-1.748-0.273-2.625
				c-0.076-0.876-0.122-1.769-0.294-2.585c-0.264-1.662-0.427-3.396-0.807-4.924c-0.176-0.777-0.293-1.6-0.475-2.35
				c-0.207-0.729-0.423-1.454-0.599-2.195c-0.872-2.82-1.8-5.421-3.063-7.581c-1.262-2.155-2.758-4.05-4.622-5.721
				c-1.853-1.669-4.068-3.087-6.412-4.227c-2.351-1.109-4.794-1.966-7.075-2.597c-2.289-0.661-4.411-1.055-6.206-1.353
				c-1.805-0.294-3.261-0.42-4.278-0.467c-0.496,0-0.916-0.029-1.163,0.016c-0.278,0.036-0.421,0.055-0.421,0.055
				s0.074-0.122,0.217-0.359c0.153-0.263,0.417-0.588,0.803-0.996c0.768-0.797,2.002-1.89,3.735-2.971
				c1.729-1.112,3.955-2.283,6.705-3.233c2.749-0.936,6.027-1.748,9.822-1.931c3.781-0.159,8.113,0.292,12.586,1.883
				c4.463,1.566,8.99,4.359,12.746,8.133c3.776,3.778,6.571,8.402,8.619,13.163c0.481,1.188,0.923,2.399,1.377,3.612
				c0.425,1.208,0.695,2.412,1.028,3.632c0.733,2.451,1.012,4.846,1.409,7.269c0.207,1.222,0.264,2.399,0.35,3.584
				c0.089,1.185,0.135,2.371,0.2,3.552c0.093,1.19-0.004,2.318-0.02,3.476c-0.036,1.148-0.06,2.292-0.121,3.43
				c-0.342,4.494-0.908,8.857-1.859,12.915c-0.804,4.118-2.078,7.898-3.241,11.492c-1.279,3.547-2.695,6.81-4.051,9.792
				c-1.476,2.972-2.951,5.628-4.296,7.943c-0.683,1.166-1.338,2.197-2.012,3.145c-0.658,0.95-1.253,1.826-1.839,2.604
				C167.764,209.718,166.194,211.432,166.194,211.432z"/>
		</g>
	</g>
</g>
</svg>
