<?xml version="1.0" encoding="utf-8"?>
<!-- Generator: Adobe Illustrator 16.0.0, SVG Export Plug-In . SVG Version: 6.00 Build 0)  -->
<!DOCTYPE svg PUBLIC "-//W3C//DTD SVG 1.0//EN" "http://www.w3.org/TR/2001/REC-SVG-20010904/DTD/svg10.dtd">
<svg version="1.0" id="Layer_1" xmlns="http://www.w3.org/2000/svg" xmlns:xlink="http://www.w3.org/1999/xlink" x="0px" y="0px"
	 width="283.464px" height="141.732px" viewBox="0 0 283.464 141.732" enable-background="new 0 0 283.464 141.732"
	 xml:space="preserve">
<g>
	<polygon fill="#EE3968" points="205.586,62.364 177.238,79.369 148.893,62.364 148.893,28.349 177.238,11.341 205.586,28.349 	"/>
	<g>
		<polyline fill="none" stroke="#FFFFFF" stroke-width="3.9587" points="170.061,53.233 170.061,34.355 188.39,34.355 
			188.39,53.233 		"/>
		<circle fill="#FFFFFF" stroke="#FFFFFF" stroke-width="3.9587" stroke-linecap="square" cx="168.074" cy="54.147" r="2.207"/>
		<path fill="#FFFFFF" stroke="#FFFFFF" stroke-width="3.9587" stroke-linecap="square" d="M186.404,51.94
			c1.217,0,2.205,0.989,2.205,2.207c0,1.221-0.988,2.207-2.205,2.207c-1.221,0-2.209-0.986-2.209-2.207
			C184.195,52.93,185.184,51.94,186.404,51.94z"/>
	</g>
</g>
<g>
	<rect x="8.688" y="93.4" fill="none" width="53.486" height="38.332"/>
	<path d="M19.373,94.504v1.773h-2.787v7.467h-2.079v-7.467H11.72v-1.773H19.373z"/>
	<path d="M26.133,100.225c0,0.551-0.08,1.055-0.24,1.513s-0.391,0.849-0.693,1.173c-0.302,0.325-0.664,0.576-1.086,0.754
		c-0.423,0.178-0.896,0.267-1.421,0.267c-0.515,0-0.984-0.089-1.406-0.267s-0.784-0.429-1.087-0.754
		c-0.302-0.324-0.537-0.715-0.706-1.173s-0.254-0.962-0.254-1.513s0.087-1.054,0.261-1.507c0.173-0.454,0.413-0.841,0.72-1.16
		s0.671-0.569,1.093-0.747c0.423-0.178,0.883-0.266,1.38-0.266c0.507,0,0.972,0.088,1.394,0.266s0.784,0.428,1.087,0.747
		c0.302,0.319,0.538,0.706,0.707,1.16C26.048,99.171,26.133,99.674,26.133,100.225z M24.106,100.225
		c0-0.613-0.123-1.096-0.367-1.447c-0.244-0.351-0.593-0.526-1.047-0.526c-0.453,0-0.804,0.176-1.053,0.526
		c-0.249,0.352-0.373,0.834-0.373,1.447s0.124,1.1,0.373,1.459c0.249,0.36,0.6,0.541,1.053,0.541c0.454,0,0.803-0.181,1.047-0.541
		C23.983,101.325,24.106,100.838,24.106,100.225z"/>
	<path d="M31.893,98.491c-0.178-0.043-0.387-0.09-0.627-0.139s-0.498-0.074-0.773-0.074c-0.124,0-0.273,0.012-0.446,0.033
		c-0.174,0.022-0.305,0.047-0.394,0.074v5.359h-1.986v-6.64c0.355-0.124,0.775-0.242,1.26-0.354c0.484-0.11,1.024-0.167,1.62-0.167
		c0.106,0,0.235,0.007,0.387,0.021c0.15,0.013,0.302,0.031,0.453,0.054c0.151,0.021,0.302,0.049,0.453,0.08s0.28,0.068,0.387,0.113
		L31.893,98.491z"/>
	<path d="M37.52,98.491c-0.178-0.043-0.387-0.09-0.627-0.139s-0.498-0.074-0.773-0.074c-0.124,0-0.273,0.012-0.446,0.033
		c-0.174,0.022-0.305,0.047-0.394,0.074v5.359h-1.986v-6.64c0.355-0.124,0.775-0.242,1.26-0.354c0.484-0.11,1.024-0.167,1.62-0.167
		c0.106,0,0.235,0.007,0.387,0.021c0.15,0.013,0.302,0.031,0.453,0.054c0.151,0.021,0.302,0.049,0.453,0.08s0.28,0.068,0.387,0.113
		L37.52,98.491z"/>
	<path d="M38.453,100.292c0-0.622,0.096-1.166,0.287-1.633s0.442-0.855,0.753-1.167c0.312-0.312,0.669-0.547,1.073-0.707
		c0.404-0.159,0.82-0.239,1.247-0.239c0.995,0,1.782,0.305,2.359,0.912c0.578,0.609,0.867,1.506,0.867,2.688
		c0,0.115-0.005,0.242-0.014,0.38s-0.018,0.26-0.026,0.366h-4.507c0.045,0.409,0.235,0.733,0.573,0.974
		c0.338,0.239,0.791,0.36,1.36,0.36c0.364,0,0.722-0.033,1.073-0.101c0.351-0.066,0.638-0.148,0.86-0.247l0.267,1.613
		c-0.107,0.054-0.249,0.107-0.427,0.16c-0.178,0.054-0.376,0.101-0.594,0.141c-0.218,0.039-0.451,0.073-0.7,0.1
		c-0.248,0.027-0.497,0.04-0.746,0.04c-0.631,0-1.18-0.093-1.646-0.28c-0.467-0.186-0.854-0.441-1.16-0.766
		c-0.307-0.325-0.533-0.709-0.68-1.154C38.526,101.288,38.453,100.807,38.453,100.292z M43.12,99.532
		c-0.009-0.169-0.038-0.334-0.087-0.494s-0.124-0.302-0.227-0.426c-0.103-0.125-0.231-0.227-0.387-0.307s-0.349-0.121-0.58-0.121
		c-0.222,0-0.413,0.039-0.573,0.114s-0.293,0.175-0.399,0.3c-0.107,0.125-0.189,0.27-0.247,0.434s-0.1,0.331-0.127,0.5H43.12z"/>
	<path d="M46.573,96.971c0.338-0.098,0.773-0.188,1.307-0.273c0.533-0.084,1.093-0.127,1.68-0.127c0.596,0,1.091,0.078,1.486,0.234
		c0.396,0.155,0.709,0.375,0.94,0.66c0.23,0.284,0.396,0.621,0.493,1.013s0.146,0.827,0.146,1.307v3.96H50.64v-3.72
		c0-0.64-0.085-1.093-0.254-1.36c-0.169-0.267-0.484-0.4-0.946-0.4c-0.143,0-0.293,0.008-0.453,0.021
		c-0.16,0.014-0.303,0.029-0.427,0.047v5.413h-1.986V96.971z"/>
	<path d="M54.358,94.985l1.987-0.32v2.066h2.387v1.654h-2.387v2.467c0,0.417,0.073,0.75,0.22,1c0.146,0.248,0.442,0.373,0.887,0.373
		c0.213,0,0.434-0.021,0.66-0.061s0.433-0.096,0.62-0.166l0.279,1.546c-0.239,0.099-0.506,0.183-0.8,0.253
		c-0.293,0.072-0.653,0.107-1.08,0.107c-0.542,0-0.991-0.074-1.347-0.221s-0.64-0.351-0.853-0.613
		c-0.214-0.262-0.362-0.58-0.447-0.953c-0.084-0.373-0.127-0.786-0.127-1.24V94.985z"/>
	<path d="M16.908,112.774c0,0.594-0.093,1.11-0.279,1.551c-0.187,0.439-0.448,0.807-0.785,1.1s-0.738,0.514-1.205,0.66
		s-0.979,0.22-1.54,0.22c-0.28,0-0.573-0.015-0.88-0.045s-0.577-0.075-0.81-0.136v-6.68c0.232-0.066,0.503-0.115,0.81-0.145
		s0.6-0.045,0.88-0.045c0.561,0,1.073,0.073,1.54,0.22c0.467,0.147,0.868,0.366,1.205,0.66s0.599,0.66,0.785,1.101
		C16.815,111.674,16.908,112.188,16.908,112.774z M12.089,115.644c0.04,0.007,0.142,0.021,0.305,0.04s0.425,0.03,0.785,0.03
		c0.5,0,0.937-0.068,1.31-0.205c0.374-0.137,0.687-0.331,0.94-0.585c0.253-0.254,0.443-0.562,0.57-0.926
		c0.126-0.363,0.189-0.771,0.189-1.225s-0.063-0.859-0.189-1.22c-0.127-0.36-0.317-0.667-0.57-0.92
		c-0.254-0.253-0.566-0.448-0.94-0.585c-0.373-0.137-0.81-0.205-1.31-0.205c-0.36,0-0.622,0.01-0.785,0.03s-0.265,0.033-0.305,0.04
		V115.644z"/>
	<path d="M22.798,113.665c0,0.406-0.059,0.776-0.175,1.109c-0.116,0.334-0.28,0.617-0.49,0.85c-0.21,0.234-0.458,0.416-0.744,0.545
		c-0.287,0.131-0.604,0.195-0.95,0.195s-0.664-0.064-0.95-0.195c-0.287-0.129-0.535-0.311-0.745-0.545
		c-0.21-0.232-0.373-0.516-0.49-0.85c-0.116-0.333-0.175-0.703-0.175-1.109s0.059-0.777,0.175-1.11
		c0.117-0.333,0.28-0.618,0.49-0.854s0.458-0.42,0.745-0.551c0.286-0.129,0.604-0.195,0.95-0.195s0.663,0.066,0.95,0.195
		c0.286,0.131,0.534,0.314,0.744,0.551s0.374,0.521,0.49,0.854S22.798,113.258,22.798,113.665z M22.108,113.665
		c0-0.646-0.15-1.162-0.45-1.545c-0.3-0.384-0.707-0.575-1.22-0.575c-0.514,0-0.92,0.191-1.22,0.575
		c-0.301,0.383-0.45,0.898-0.45,1.545s0.149,1.16,0.45,1.539c0.3,0.381,0.706,0.57,1.22,0.57c0.513,0,0.92-0.189,1.22-0.57
		C21.958,114.825,22.108,114.311,22.108,113.665z"/>
	<path d="M27.544,111.075c0.06,0.333,0.138,0.688,0.234,1.064c0.096,0.377,0.202,0.76,0.318,1.149s0.239,0.774,0.369,1.155
		c0.131,0.38,0.263,0.736,0.396,1.07c0.114-0.253,0.234-0.561,0.361-0.924s0.254-0.746,0.382-1.148
		c0.127-0.403,0.245-0.811,0.355-1.221s0.202-0.793,0.276-1.146h0.641c-0.241,1.016-0.504,1.942-0.788,2.781
		c-0.284,0.84-0.598,1.636-0.938,2.389h-0.603c-0.102-0.236-0.207-0.498-0.318-0.788c-0.11-0.29-0.225-0.6-0.342-0.929
		c-0.118-0.33-0.231-0.677-0.342-1.039c-0.109-0.363-0.215-0.734-0.314-1.115c-0.1,0.381-0.204,0.754-0.313,1.117
		s-0.223,0.711-0.34,1.041s-0.23,0.64-0.341,0.93c-0.11,0.289-0.215,0.551-0.314,0.783h-0.625c-0.342-0.754-0.654-1.55-0.938-2.39
		c-0.283-0.841-0.545-1.767-0.783-2.78h0.689c0.073,0.354,0.166,0.734,0.276,1.145s0.229,0.816,0.356,1.219
		c0.127,0.403,0.256,0.785,0.386,1.146c0.131,0.36,0.253,0.667,0.366,0.921c0.128-0.332,0.256-0.688,0.384-1.068
		c0.129-0.381,0.249-0.766,0.361-1.152c0.113-0.387,0.219-0.768,0.318-1.145s0.188-0.732,0.268-1.064H27.544z"/>
	<path d="M31.958,111.254c0.193-0.053,0.453-0.113,0.779-0.18c0.327-0.066,0.727-0.101,1.2-0.101c0.394,0,0.722,0.058,0.985,0.17
		c0.263,0.114,0.473,0.275,0.63,0.485c0.156,0.21,0.269,0.461,0.335,0.755s0.1,0.616,0.1,0.97v2.891h-0.649v-2.68
		c0-0.367-0.025-0.678-0.075-0.931s-0.134-0.46-0.25-0.62c-0.117-0.16-0.271-0.275-0.46-0.345c-0.19-0.07-0.429-0.104-0.715-0.104
		c-0.307,0-0.572,0.016-0.795,0.049c-0.224,0.034-0.369,0.064-0.436,0.09v4.541h-0.649V111.254z"/>
	<path d="M38.957,116.334c-0.22-0.007-0.412-0.035-0.575-0.086c-0.163-0.049-0.3-0.126-0.41-0.229
		c-0.109-0.103-0.193-0.236-0.25-0.399c-0.057-0.164-0.085-0.369-0.085-0.615v-6.4l0.65-0.119v6.5c0,0.159,0.015,0.287,0.045,0.385
		c0.03,0.096,0.075,0.173,0.135,0.229c0.061,0.057,0.139,0.099,0.235,0.125s0.212,0.05,0.345,0.069L38.957,116.334z"/>
	<path d="M44.606,113.665c0,0.406-0.059,0.776-0.175,1.109c-0.116,0.334-0.28,0.617-0.49,0.85c-0.21,0.234-0.458,0.416-0.744,0.545
		c-0.287,0.131-0.604,0.195-0.95,0.195s-0.664-0.064-0.95-0.195c-0.287-0.129-0.535-0.311-0.745-0.545
		c-0.21-0.232-0.373-0.516-0.49-0.85c-0.116-0.333-0.175-0.703-0.175-1.109s0.059-0.777,0.175-1.11
		c0.117-0.333,0.28-0.618,0.49-0.854s0.458-0.42,0.745-0.551c0.286-0.129,0.604-0.195,0.95-0.195s0.663,0.066,0.95,0.195
		c0.286,0.131,0.534,0.314,0.744,0.551s0.374,0.521,0.49,0.854S44.606,113.258,44.606,113.665z M43.917,113.665
		c0-0.646-0.15-1.162-0.45-1.545c-0.3-0.384-0.707-0.575-1.22-0.575c-0.514,0-0.92,0.191-1.22,0.575
		c-0.301,0.383-0.45,0.898-0.45,1.545s0.149,1.16,0.45,1.539c0.3,0.381,0.706,0.57,1.22,0.57c0.513,0,0.92-0.189,1.22-0.57
		C43.767,114.825,43.917,114.311,43.917,113.665z"/>
	<path d="M47.586,110.954c0.34,0,0.629,0.049,0.865,0.146s0.429,0.229,0.575,0.4c0.146,0.17,0.253,0.372,0.319,0.604
		c0.067,0.234,0.101,0.486,0.101,0.76v3.26c-0.066,0.021-0.164,0.043-0.29,0.065c-0.127,0.023-0.273,0.049-0.44,0.075
		c-0.166,0.026-0.352,0.049-0.555,0.064c-0.203,0.018-0.412,0.025-0.625,0.025c-0.273,0-0.525-0.029-0.755-0.09
		c-0.23-0.061-0.43-0.154-0.6-0.285c-0.171-0.13-0.304-0.297-0.4-0.5s-0.145-0.451-0.145-0.744c0-0.281,0.053-0.521,0.159-0.721
		s0.257-0.365,0.45-0.495s0.424-0.225,0.69-0.284c0.267-0.061,0.557-0.091,0.87-0.091c0.093,0,0.191,0.005,0.295,0.015
		c0.103,0.011,0.203,0.023,0.3,0.041c0.097,0.016,0.18,0.033,0.25,0.049c0.069,0.018,0.118,0.032,0.145,0.046v-0.32
		c0-0.18-0.014-0.354-0.04-0.524s-0.085-0.324-0.175-0.461s-0.217-0.246-0.38-0.33c-0.163-0.082-0.379-0.125-0.645-0.125
		c-0.381,0-0.664,0.027-0.851,0.08c-0.187,0.054-0.323,0.098-0.41,0.131l-0.09-0.57c0.113-0.053,0.288-0.104,0.525-0.15
		C46.968,110.977,47.253,110.954,47.586,110.954z M47.646,115.774c0.253,0,0.475-0.008,0.665-0.025
		c0.189-0.016,0.352-0.037,0.484-0.064v-1.82c-0.073-0.033-0.189-0.068-0.35-0.104s-0.38-0.056-0.66-0.056
		c-0.16,0-0.327,0.012-0.5,0.035c-0.174,0.023-0.333,0.074-0.479,0.15c-0.147,0.076-0.268,0.182-0.36,0.314
		c-0.094,0.134-0.14,0.311-0.14,0.531c0,0.193,0.031,0.355,0.095,0.489s0.153,0.24,0.27,0.319c0.117,0.08,0.257,0.139,0.42,0.176
		C47.255,115.756,47.439,115.774,47.646,115.774z"/>
	<path d="M55.216,116.084c-0.193,0.066-0.439,0.13-0.74,0.189c-0.3,0.061-0.68,0.09-1.14,0.09c-0.38,0-0.725-0.062-1.035-0.185
		c-0.31-0.124-0.576-0.302-0.8-0.535s-0.396-0.517-0.52-0.851c-0.124-0.332-0.186-0.709-0.186-1.129
		c0-0.394,0.052-0.756,0.155-1.086s0.255-0.614,0.455-0.854c0.2-0.239,0.444-0.427,0.734-0.56s0.622-0.2,0.995-0.2
		c0.34,0,0.635,0.048,0.885,0.146c0.25,0.096,0.432,0.188,0.546,0.274v-2.78l0.649-0.119V116.084z M54.566,112.014
		c-0.061-0.047-0.136-0.097-0.226-0.15c-0.09-0.053-0.195-0.104-0.314-0.149c-0.12-0.047-0.25-0.085-0.391-0.115
		c-0.14-0.03-0.286-0.045-0.439-0.045c-0.32,0-0.589,0.057-0.806,0.17c-0.216,0.114-0.392,0.265-0.524,0.455
		c-0.134,0.19-0.23,0.413-0.29,0.67c-0.061,0.257-0.09,0.528-0.09,0.815c0,0.68,0.17,1.201,0.51,1.564s0.79,0.545,1.35,0.545
		c0.32,0,0.578-0.015,0.775-0.045c0.196-0.029,0.345-0.062,0.445-0.095V112.014z"/>
	<path d="M57.996,115.784c0.373,0,0.682-0.061,0.925-0.185c0.243-0.123,0.365-0.331,0.365-0.625c0-0.14-0.021-0.26-0.065-0.36
		c-0.043-0.1-0.114-0.189-0.215-0.27c-0.1-0.08-0.231-0.156-0.395-0.23c-0.164-0.072-0.365-0.16-0.605-0.26
		c-0.193-0.08-0.376-0.161-0.55-0.244c-0.174-0.084-0.326-0.181-0.46-0.291c-0.134-0.109-0.24-0.241-0.32-0.395
		s-0.119-0.34-0.119-0.561c0-0.42,0.158-0.76,0.475-1.02s0.751-0.391,1.305-0.391c0.354,0,0.646,0.031,0.875,0.091
		c0.23,0.06,0.392,0.113,0.485,0.159l-0.15,0.58c-0.08-0.039-0.215-0.093-0.405-0.159c-0.189-0.067-0.468-0.101-0.835-0.101
		c-0.146,0-0.284,0.016-0.414,0.045c-0.131,0.031-0.245,0.078-0.346,0.141c-0.1,0.063-0.18,0.145-0.24,0.24
		c-0.06,0.098-0.09,0.216-0.09,0.355c0,0.141,0.027,0.262,0.08,0.361c0.054,0.101,0.132,0.189,0.235,0.266
		c0.104,0.077,0.229,0.148,0.38,0.215s0.321,0.139,0.515,0.219c0.2,0.08,0.392,0.161,0.575,0.244s0.345,0.183,0.485,0.299
		c0.14,0.117,0.253,0.258,0.34,0.42c0.087,0.164,0.13,0.369,0.13,0.615c0,0.467-0.175,0.82-0.525,1.061
		c-0.35,0.24-0.828,0.359-1.435,0.359c-0.453,0-0.8-0.038-1.04-0.115c-0.24-0.076-0.399-0.135-0.479-0.174l0.17-0.59
		c0.02,0.013,0.063,0.034,0.13,0.064c0.066,0.029,0.156,0.063,0.27,0.1c0.113,0.037,0.248,0.068,0.405,0.096
		C57.607,115.771,57.789,115.784,57.996,115.784z"/>
	<path d="M14.689,121.815h0.68v6.93h-0.68V121.815z"/>
	<path d="M18.438,128.834c-0.22-0.007-0.412-0.035-0.575-0.086c-0.163-0.049-0.3-0.126-0.41-0.229
		c-0.109-0.103-0.193-0.236-0.25-0.399c-0.057-0.164-0.085-0.369-0.085-0.615v-6.4l0.65-0.119v6.5c0,0.159,0.015,0.287,0.045,0.385
		c0.03,0.096,0.075,0.173,0.135,0.229c0.061,0.057,0.139,0.099,0.235,0.125s0.212,0.05,0.345,0.069L18.438,128.834z"/>
	<path d="M20.479,122.014c0,0.154-0.047,0.275-0.141,0.365c-0.093,0.09-0.206,0.135-0.34,0.135c-0.133,0-0.246-0.045-0.34-0.135
		s-0.14-0.211-0.14-0.365c0-0.153,0.046-0.275,0.14-0.365s0.207-0.135,0.34-0.135c0.134,0,0.247,0.045,0.34,0.135
		C20.432,121.739,20.479,121.861,20.479,122.014z M20.328,128.745h-0.649v-5.17h0.649V128.745z"/>
	<path d="M22.049,123.754c0.193-0.053,0.444-0.113,0.755-0.18c0.31-0.066,0.711-0.101,1.205-0.101c0.653,0,1.126,0.19,1.42,0.57
		c0.033-0.026,0.098-0.071,0.194-0.136c0.097-0.063,0.219-0.128,0.365-0.194s0.318-0.124,0.515-0.17
		c0.197-0.047,0.415-0.07,0.655-0.07c0.394,0,0.712,0.059,0.955,0.175c0.243,0.117,0.432,0.28,0.565,0.49
		c0.133,0.21,0.223,0.462,0.27,0.755c0.047,0.294,0.07,0.614,0.07,0.96v2.891h-0.65v-2.68c0-0.341-0.015-0.636-0.045-0.886
		s-0.09-0.456-0.18-0.62c-0.09-0.163-0.219-0.287-0.386-0.369c-0.166-0.084-0.383-0.125-0.649-0.125c-0.2,0-0.382,0.018-0.545,0.055
		c-0.164,0.036-0.305,0.082-0.425,0.135s-0.219,0.106-0.295,0.16c-0.077,0.053-0.132,0.094-0.165,0.119
		c0.06,0.174,0.104,0.369,0.135,0.586s0.045,0.445,0.045,0.685v2.94h-0.65v-2.68c0-0.341-0.015-0.636-0.045-0.886
		c-0.029-0.25-0.092-0.456-0.185-0.62c-0.094-0.163-0.226-0.287-0.396-0.369c-0.17-0.084-0.395-0.125-0.675-0.125
		c-0.313,0-0.578,0.016-0.795,0.049c-0.217,0.034-0.354,0.064-0.415,0.09v4.541h-0.649V123.754z"/>
	<path d="M31.479,122.014c0,0.154-0.047,0.275-0.141,0.365c-0.093,0.09-0.206,0.135-0.34,0.135c-0.133,0-0.246-0.045-0.34-0.135
		s-0.14-0.211-0.14-0.365c0-0.153,0.046-0.275,0.14-0.365s0.207-0.135,0.34-0.135c0.134,0,0.247,0.045,0.34,0.135
		C31.432,121.739,31.479,121.861,31.479,122.014z M31.328,128.745h-0.649v-5.17h0.649V128.745z"/>
	<path d="M33.658,123.575h2.061v0.55h-2.061v2.749c0,0.294,0.025,0.532,0.075,0.716c0.05,0.183,0.122,0.325,0.215,0.425
		c0.094,0.1,0.207,0.166,0.34,0.2c0.134,0.033,0.28,0.05,0.44,0.05c0.273,0,0.493-0.031,0.66-0.096
		c0.166-0.063,0.296-0.121,0.39-0.174l0.16,0.539c-0.094,0.061-0.257,0.129-0.49,0.205c-0.233,0.077-0.486,0.115-0.76,0.115
		c-0.32,0-0.589-0.041-0.805-0.125c-0.217-0.083-0.391-0.21-0.521-0.38s-0.222-0.382-0.274-0.635c-0.054-0.253-0.08-0.554-0.08-0.9
		v-4.76l0.649-0.12V123.575z"/>
	<path d="M38.488,123.454c0.34,0,0.629,0.049,0.865,0.146s0.429,0.229,0.575,0.4c0.146,0.17,0.253,0.372,0.319,0.604
		c0.067,0.234,0.101,0.486,0.101,0.76v3.26c-0.066,0.021-0.164,0.043-0.29,0.065c-0.127,0.023-0.273,0.049-0.44,0.075
		c-0.166,0.026-0.352,0.049-0.555,0.064c-0.203,0.018-0.412,0.025-0.625,0.025c-0.273,0-0.525-0.029-0.755-0.09
		c-0.23-0.061-0.43-0.154-0.6-0.285c-0.171-0.13-0.304-0.297-0.4-0.5s-0.145-0.451-0.145-0.744c0-0.281,0.053-0.521,0.159-0.721
		s0.257-0.365,0.45-0.495s0.424-0.225,0.69-0.284c0.267-0.061,0.557-0.091,0.87-0.091c0.093,0,0.191,0.005,0.295,0.015
		c0.103,0.011,0.203,0.023,0.3,0.041c0.097,0.016,0.18,0.033,0.25,0.049c0.069,0.018,0.118,0.032,0.145,0.046v-0.32
		c0-0.18-0.014-0.354-0.04-0.524s-0.085-0.324-0.175-0.461s-0.217-0.246-0.38-0.33c-0.163-0.082-0.379-0.125-0.645-0.125
		c-0.381,0-0.664,0.027-0.851,0.08c-0.187,0.054-0.323,0.098-0.41,0.131l-0.09-0.57c0.113-0.053,0.288-0.104,0.525-0.15
		C37.87,123.477,38.155,123.454,38.488,123.454z M38.549,128.274c0.253,0,0.475-0.008,0.665-0.025
		c0.189-0.016,0.352-0.037,0.484-0.064v-1.82c-0.073-0.033-0.189-0.068-0.35-0.104s-0.38-0.056-0.66-0.056
		c-0.16,0-0.327,0.012-0.5,0.035c-0.174,0.023-0.333,0.074-0.479,0.15c-0.147,0.076-0.268,0.182-0.36,0.314
		c-0.094,0.134-0.14,0.311-0.14,0.531c0,0.193,0.031,0.355,0.095,0.489s0.153,0.24,0.27,0.319c0.117,0.08,0.257,0.139,0.42,0.176
		C38.157,128.256,38.342,128.274,38.549,128.274z"/>
	<path d="M46.118,128.584c-0.193,0.066-0.439,0.13-0.74,0.189c-0.3,0.061-0.68,0.09-1.14,0.09c-0.38,0-0.725-0.062-1.035-0.185
		c-0.31-0.124-0.576-0.302-0.8-0.535s-0.396-0.517-0.52-0.851c-0.124-0.332-0.186-0.709-0.186-1.129
		c0-0.394,0.052-0.756,0.155-1.086s0.255-0.614,0.455-0.854c0.2-0.239,0.444-0.427,0.734-0.56s0.622-0.2,0.995-0.2
		c0.34,0,0.635,0.048,0.885,0.146c0.25,0.096,0.432,0.188,0.546,0.274v-2.78l0.649-0.119V128.584z M45.469,124.514
		c-0.061-0.047-0.136-0.097-0.226-0.15c-0.09-0.053-0.195-0.104-0.314-0.149c-0.12-0.047-0.25-0.085-0.391-0.115
		c-0.14-0.03-0.286-0.045-0.439-0.045c-0.32,0-0.589,0.057-0.806,0.17c-0.216,0.114-0.392,0.265-0.524,0.455
		c-0.134,0.19-0.23,0.413-0.29,0.67c-0.061,0.257-0.09,0.528-0.09,0.815c0,0.68,0.17,1.201,0.51,1.564s0.79,0.545,1.35,0.545
		c0.32,0,0.578-0.015,0.775-0.045c0.196-0.029,0.345-0.062,0.445-0.095V124.514z"/>
	<path d="M52.248,126.165c0,0.406-0.059,0.776-0.175,1.109c-0.116,0.334-0.28,0.617-0.49,0.85c-0.21,0.234-0.458,0.416-0.744,0.545
		c-0.287,0.131-0.604,0.195-0.95,0.195s-0.664-0.064-0.95-0.195c-0.287-0.129-0.535-0.311-0.745-0.545
		c-0.21-0.232-0.373-0.516-0.49-0.85c-0.116-0.333-0.175-0.703-0.175-1.109s0.059-0.777,0.175-1.11
		c0.117-0.333,0.28-0.618,0.49-0.854s0.458-0.42,0.745-0.551c0.286-0.129,0.604-0.195,0.95-0.195s0.663,0.066,0.95,0.195
		c0.286,0.131,0.534,0.314,0.744,0.551s0.374,0.521,0.49,0.854S52.248,125.758,52.248,126.165z M51.559,126.165
		c0-0.646-0.15-1.162-0.45-1.545c-0.3-0.384-0.707-0.575-1.22-0.575c-0.514,0-0.92,0.191-1.22,0.575
		c-0.301,0.383-0.45,0.898-0.45,1.545s0.149,1.16,0.45,1.539c0.3,0.381,0.706,0.57,1.22,0.57c0.513,0,0.92-0.189,1.22-0.57
		C51.408,127.325,51.559,126.811,51.559,126.165z"/>
	<path d="M54.718,128.284c0.373,0,0.682-0.061,0.925-0.185c0.243-0.123,0.365-0.331,0.365-0.625c0-0.14-0.021-0.26-0.065-0.36
		c-0.043-0.1-0.114-0.189-0.215-0.27c-0.1-0.08-0.231-0.156-0.395-0.23c-0.164-0.072-0.365-0.16-0.605-0.26
		c-0.193-0.08-0.376-0.161-0.55-0.244c-0.174-0.084-0.326-0.181-0.46-0.291c-0.134-0.109-0.24-0.241-0.32-0.395
		s-0.119-0.34-0.119-0.561c0-0.42,0.158-0.76,0.475-1.02s0.751-0.391,1.305-0.391c0.354,0,0.646,0.031,0.875,0.091
		c0.23,0.06,0.392,0.113,0.485,0.159l-0.15,0.58c-0.08-0.039-0.215-0.093-0.405-0.159c-0.189-0.067-0.468-0.101-0.835-0.101
		c-0.146,0-0.284,0.016-0.414,0.045c-0.131,0.031-0.245,0.078-0.346,0.141c-0.1,0.063-0.18,0.145-0.24,0.24
		c-0.06,0.098-0.09,0.216-0.09,0.355c0,0.141,0.027,0.262,0.08,0.361c0.054,0.101,0.132,0.189,0.235,0.266
		c0.104,0.077,0.229,0.148,0.38,0.215s0.321,0.139,0.515,0.219c0.2,0.08,0.392,0.161,0.575,0.244s0.345,0.183,0.485,0.299
		c0.14,0.117,0.253,0.258,0.34,0.42c0.087,0.164,0.13,0.369,0.13,0.615c0,0.467-0.175,0.82-0.525,1.061
		c-0.35,0.24-0.828,0.359-1.435,0.359c-0.453,0-0.8-0.038-1.04-0.115c-0.24-0.076-0.399-0.135-0.479-0.174l0.17-0.59
		c0.02,0.013,0.063,0.034,0.13,0.064c0.066,0.029,0.156,0.063,0.27,0.1c0.113,0.037,0.248,0.068,0.405,0.096
		C54.329,128.271,54.511,128.284,54.718,128.284z"/>
</g>
<g>
	<rect x="79.271" y="93.4" fill="none" width="53.486" height="38.332"/>
	<path d="M94.921,102.159c0.293,0,0.535-0.025,0.727-0.074c0.19-0.049,0.344-0.115,0.46-0.199c0.115-0.085,0.195-0.186,0.24-0.301
		c0.044-0.115,0.066-0.244,0.066-0.387c0-0.302-0.143-0.553-0.427-0.753c-0.285-0.2-0.773-0.415-1.467-0.647
		c-0.302-0.105-0.604-0.229-0.906-0.365c-0.303-0.139-0.573-0.312-0.813-0.521s-0.436-0.462-0.587-0.761
		c-0.151-0.297-0.227-0.659-0.227-1.086s0.08-0.811,0.24-1.153s0.387-0.634,0.68-0.874c0.293-0.239,0.648-0.424,1.066-0.553
		s0.889-0.193,1.413-0.193c0.622,0,1.16,0.066,1.614,0.2c0.453,0.134,0.826,0.28,1.119,0.44l-0.6,1.639
		c-0.258-0.133-0.545-0.25-0.86-0.353s-0.695-0.153-1.14-0.153c-0.498,0-0.855,0.068-1.073,0.207
		c-0.218,0.137-0.327,0.349-0.327,0.633c0,0.169,0.04,0.311,0.12,0.427s0.193,0.22,0.34,0.313c0.147,0.094,0.315,0.178,0.507,0.253
		s0.402,0.153,0.634,0.233c0.479,0.178,0.897,0.354,1.253,0.527c0.355,0.173,0.651,0.375,0.887,0.605
		c0.235,0.232,0.411,0.503,0.526,0.814c0.116,0.311,0.174,0.688,0.174,1.133c0,0.862-0.303,1.531-0.907,2.006
		c-0.604,0.477-1.515,0.714-2.732,0.714c-0.409,0-0.778-0.024-1.107-0.073c-0.328-0.049-0.619-0.109-0.873-0.18
		c-0.253-0.071-0.471-0.146-0.653-0.227c-0.182-0.08-0.335-0.156-0.46-0.227l0.587-1.654c0.275,0.152,0.615,0.287,1.02,0.407
		S94.334,102.159,94.921,102.159z"/>
	<path d="M106.054,96.731c-0.4,1.352-0.819,2.618-1.256,3.801c-0.437,1.182-0.914,2.328-1.431,3.439
		c-0.188,0.4-0.374,0.74-0.561,1.02c-0.188,0.281-0.393,0.512-0.614,0.693c-0.223,0.183-0.475,0.316-0.755,0.4
		s-0.607,0.127-0.981,0.127c-0.312,0-0.599-0.029-0.861-0.087s-0.479-0.122-0.647-0.193l0.347-1.587
		c0.205,0.071,0.387,0.121,0.547,0.146c0.16,0.027,0.329,0.041,0.507,0.041c0.356,0,0.629-0.096,0.82-0.287s0.354-0.455,0.487-0.793
		c-0.454-0.889-0.907-1.887-1.36-2.994c-0.454-1.105-0.881-2.348-1.28-3.727h2.106c0.089,0.348,0.194,0.723,0.314,1.127
		s0.248,0.813,0.382,1.227c0.134,0.414,0.27,0.816,0.408,1.207s0.271,0.746,0.396,1.066c0.115-0.32,0.236-0.676,0.361-1.066
		s0.247-0.793,0.368-1.207c0.12-0.413,0.236-0.822,0.348-1.227s0.212-0.779,0.302-1.127H106.054z"/>
	<path d="M107.107,96.971c0.338-0.098,0.773-0.188,1.307-0.273c0.533-0.084,1.093-0.127,1.68-0.127c0.596,0,1.091,0.078,1.486,0.234
		c0.396,0.155,0.709,0.375,0.94,0.66c0.23,0.284,0.396,0.621,0.493,1.013s0.146,0.827,0.146,1.307v3.96h-1.986v-3.72
		c0-0.64-0.085-1.093-0.254-1.36c-0.169-0.267-0.484-0.4-0.946-0.4c-0.143,0-0.293,0.008-0.453,0.021
		c-0.16,0.014-0.303,0.029-0.427,0.047v5.413h-1.986V96.971z"/>
	<path d="M114.626,100.239c0-0.508,0.082-0.984,0.247-1.434c0.164-0.449,0.402-0.84,0.713-1.174
		c0.312-0.333,0.689-0.598,1.134-0.793s0.951-0.293,1.52-0.293c0.374,0,0.716,0.033,1.027,0.1c0.311,0.066,0.613,0.162,0.906,0.287
		l-0.413,1.586c-0.187-0.07-0.392-0.133-0.613-0.187c-0.223-0.054-0.472-0.08-0.747-0.08c-0.587,0-1.024,0.183-1.313,0.547
		s-0.433,0.845-0.433,1.44c0,0.631,0.135,1.119,0.406,1.466s0.744,0.521,1.42,0.521c0.24,0,0.498-0.022,0.773-0.066
		c0.275-0.045,0.528-0.116,0.76-0.214l0.28,1.626c-0.231,0.099-0.521,0.183-0.867,0.254c-0.347,0.07-0.729,0.106-1.146,0.106
		c-0.64,0-1.191-0.096-1.653-0.286c-0.462-0.191-0.842-0.451-1.14-0.78s-0.516-0.718-0.653-1.167
		C114.695,101.25,114.626,100.762,114.626,100.239z"/>
	<path d="M88.135,115.804c0.54,0,0.96-0.099,1.26-0.296c0.301-0.197,0.45-0.516,0.45-0.957c0-0.254-0.048-0.466-0.145-0.637
		c-0.097-0.17-0.226-0.313-0.385-0.431c-0.16-0.116-0.344-0.217-0.551-0.3c-0.206-0.082-0.423-0.17-0.649-0.264
		c-0.287-0.111-0.544-0.229-0.771-0.348s-0.42-0.254-0.58-0.403c-0.159-0.15-0.281-0.321-0.364-0.515
		c-0.084-0.193-0.125-0.42-0.125-0.681c0-0.593,0.196-1.043,0.59-1.35s0.939-0.46,1.64-0.46c0.187,0,0.37,0.014,0.55,0.039
		c0.181,0.027,0.349,0.063,0.505,0.105c0.157,0.043,0.301,0.092,0.431,0.145c0.13,0.055,0.238,0.111,0.325,0.171l-0.24,0.569
		c-0.193-0.133-0.429-0.24-0.705-0.319c-0.276-0.08-0.575-0.12-0.896-0.12c-0.22,0-0.421,0.021-0.604,0.064
		c-0.184,0.044-0.342,0.113-0.475,0.211c-0.134,0.096-0.239,0.218-0.315,0.365c-0.077,0.146-0.115,0.322-0.115,0.529
		c0,0.213,0.04,0.394,0.12,0.54s0.191,0.273,0.335,0.38c0.144,0.107,0.312,0.203,0.505,0.29s0.403,0.177,0.63,0.271
		c0.273,0.113,0.532,0.227,0.775,0.34s0.455,0.246,0.635,0.399s0.323,0.341,0.43,0.56c0.107,0.221,0.16,0.49,0.16,0.811
		c0,0.627-0.218,1.097-0.654,1.41c-0.438,0.313-1.028,0.47-1.775,0.47c-0.267,0-0.51-0.017-0.729-0.05
		c-0.221-0.033-0.417-0.075-0.591-0.125c-0.173-0.051-0.319-0.102-0.439-0.155s-0.214-0.1-0.28-0.14l0.22-0.59
		c0.067,0.039,0.157,0.086,0.271,0.14s0.246,0.104,0.399,0.155c0.153,0.05,0.327,0.092,0.521,0.125S87.901,115.804,88.135,115.804z"
		/>
	<path d="M92.575,109.514c0,0.154-0.047,0.275-0.141,0.365c-0.093,0.09-0.206,0.135-0.34,0.135c-0.133,0-0.246-0.045-0.34-0.135
		s-0.14-0.211-0.14-0.365c0-0.153,0.046-0.275,0.14-0.365s0.207-0.135,0.34-0.135c0.134,0,0.247,0.045,0.34,0.135
		C92.528,109.239,92.575,109.361,92.575,109.514z M92.425,116.245h-0.649v-5.17h0.649V116.245z"/>
	<path d="M94.146,111.254c0.193-0.053,0.453-0.113,0.779-0.18c0.327-0.066,0.727-0.101,1.2-0.101c0.394,0,0.722,0.058,0.985,0.17
		c0.263,0.114,0.473,0.275,0.63,0.485c0.156,0.21,0.269,0.461,0.335,0.755s0.1,0.616,0.1,0.97v2.891h-0.649v-2.68
		c0-0.367-0.025-0.678-0.075-0.931s-0.134-0.46-0.25-0.62c-0.117-0.16-0.271-0.275-0.46-0.345c-0.19-0.07-0.429-0.104-0.715-0.104
		c-0.307,0-0.572,0.016-0.795,0.049c-0.224,0.034-0.369,0.064-0.436,0.09v4.541h-0.649V111.254z"/>
	<path d="M101.975,116.354c-0.4,0-0.754-0.063-1.06-0.189c-0.308-0.127-0.563-0.309-0.766-0.545s-0.358-0.521-0.465-0.851
		s-0.16-0.694-0.16-1.095c0-0.406,0.056-0.777,0.165-1.109c0.11-0.334,0.269-0.621,0.476-0.861c0.206-0.239,0.456-0.424,0.75-0.555
		c0.293-0.129,0.623-0.195,0.989-0.195c0.28,0,0.542,0.023,0.785,0.07s0.432,0.107,0.565,0.18l-0.17,0.561
		c-0.134-0.066-0.284-0.12-0.45-0.16c-0.167-0.039-0.391-0.06-0.67-0.06c-0.574,0-1.009,0.185-1.306,0.555
		c-0.296,0.37-0.444,0.896-0.444,1.575c0,0.307,0.033,0.588,0.1,0.845s0.175,0.478,0.325,0.66c0.15,0.184,0.343,0.327,0.58,0.431
		c0.236,0.103,0.524,0.154,0.865,0.154c0.279,0,0.515-0.031,0.704-0.096c0.19-0.063,0.329-0.117,0.415-0.164l0.141,0.56
		c-0.12,0.067-0.309,0.132-0.565,0.195S102.255,116.354,101.975,116.354z"/>
	<path d="M106.194,110.974c0.213,0,0.415,0.017,0.604,0.05c0.19,0.033,0.322,0.066,0.396,0.101l-0.13,0.56
		c-0.054-0.026-0.162-0.055-0.325-0.085s-0.379-0.045-0.646-0.045c-0.279,0-0.505,0.021-0.675,0.06
		c-0.17,0.041-0.281,0.074-0.335,0.101v4.53h-0.649v-4.93c0.166-0.074,0.396-0.148,0.689-0.226S105.774,110.974,106.194,110.974z"/>
	<path d="M112.584,113.665c0,0.406-0.059,0.776-0.175,1.109c-0.116,0.334-0.28,0.617-0.49,0.85c-0.21,0.234-0.458,0.416-0.744,0.545
		c-0.287,0.131-0.604,0.195-0.95,0.195s-0.664-0.064-0.95-0.195c-0.287-0.129-0.535-0.311-0.745-0.545
		c-0.21-0.232-0.373-0.516-0.49-0.85c-0.116-0.333-0.175-0.703-0.175-1.109s0.059-0.777,0.175-1.11
		c0.117-0.333,0.28-0.618,0.49-0.854s0.458-0.42,0.745-0.551c0.286-0.129,0.604-0.195,0.95-0.195s0.663,0.066,0.95,0.195
		c0.286,0.131,0.534,0.314,0.744,0.551s0.374,0.521,0.49,0.854S112.584,113.258,112.584,113.665z M111.895,113.665
		c0-0.646-0.15-1.162-0.45-1.545c-0.3-0.384-0.707-0.575-1.22-0.575c-0.514,0-0.92,0.191-1.22,0.575
		c-0.301,0.383-0.45,0.898-0.45,1.545s0.149,1.16,0.45,1.539c0.3,0.381,0.706,0.57,1.22,0.57c0.513,0,0.92-0.189,1.22-0.57
		C111.744,114.825,111.895,114.311,111.895,113.665z"/>
	<path d="M113.994,111.254c0.193-0.053,0.453-0.113,0.779-0.18c0.327-0.066,0.727-0.101,1.2-0.101c0.394,0,0.722,0.058,0.985,0.17
		c0.263,0.114,0.473,0.275,0.63,0.485c0.156,0.21,0.269,0.461,0.335,0.755s0.1,0.616,0.1,0.97v2.891h-0.649v-2.68
		c0-0.367-0.025-0.678-0.075-0.931s-0.134-0.46-0.25-0.62c-0.117-0.16-0.271-0.275-0.46-0.345c-0.19-0.07-0.429-0.104-0.715-0.104
		c-0.307,0-0.572,0.016-0.795,0.049c-0.224,0.034-0.369,0.064-0.436,0.09v4.541h-0.649V111.254z"/>
	<path d="M120.483,109.514c0,0.154-0.047,0.275-0.141,0.365c-0.093,0.09-0.206,0.135-0.34,0.135c-0.133,0-0.246-0.045-0.34-0.135
		s-0.14-0.211-0.14-0.365c0-0.153,0.046-0.275,0.14-0.365s0.207-0.135,0.34-0.135c0.134,0,0.247,0.045,0.34,0.135
		C120.437,109.239,120.483,109.361,120.483,109.514z M120.333,116.245h-0.649v-5.17h0.649V116.245z"/>
	<path d="M123.623,110.954c0.34,0,0.629,0.049,0.865,0.146s0.429,0.229,0.575,0.4c0.146,0.17,0.253,0.372,0.319,0.604
		c0.067,0.234,0.101,0.486,0.101,0.76v3.26c-0.066,0.021-0.164,0.043-0.29,0.065c-0.127,0.023-0.273,0.049-0.44,0.075
		c-0.166,0.026-0.352,0.049-0.555,0.064c-0.203,0.018-0.412,0.025-0.625,0.025c-0.273,0-0.525-0.029-0.755-0.09
		c-0.23-0.061-0.43-0.154-0.6-0.285c-0.171-0.13-0.304-0.297-0.4-0.5s-0.145-0.451-0.145-0.744c0-0.281,0.053-0.521,0.159-0.721
		s0.257-0.365,0.45-0.495s0.424-0.225,0.69-0.284c0.267-0.061,0.557-0.091,0.87-0.091c0.093,0,0.191,0.005,0.295,0.015
		c0.103,0.011,0.203,0.023,0.3,0.041c0.097,0.016,0.18,0.033,0.25,0.049c0.069,0.018,0.118,0.032,0.145,0.046v-0.32
		c0-0.18-0.014-0.354-0.04-0.524s-0.085-0.324-0.175-0.461s-0.217-0.246-0.38-0.33c-0.163-0.082-0.379-0.125-0.645-0.125
		c-0.381,0-0.664,0.027-0.851,0.08c-0.187,0.054-0.323,0.098-0.41,0.131l-0.09-0.57c0.113-0.053,0.288-0.104,0.525-0.15
		C123.005,110.977,123.29,110.954,123.623,110.954z M123.684,115.774c0.253,0,0.475-0.008,0.665-0.025
		c0.189-0.016,0.352-0.037,0.484-0.064v-1.82c-0.073-0.033-0.189-0.068-0.35-0.104s-0.38-0.056-0.66-0.056
		c-0.16,0-0.327,0.012-0.5,0.035c-0.174,0.023-0.333,0.074-0.479,0.15c-0.147,0.076-0.268,0.182-0.36,0.314
		c-0.094,0.134-0.14,0.311-0.14,0.531c0,0.193,0.031,0.355,0.095,0.489s0.153,0.24,0.27,0.319c0.117,0.08,0.257,0.139,0.42,0.176
		C123.292,115.756,123.477,115.774,123.684,115.774z"/>
	<path d="M91.255,121.815h0.68v6.93h-0.68V121.815z"/>
	<path d="M93.694,123.754c0.193-0.053,0.453-0.113,0.779-0.18c0.327-0.066,0.727-0.101,1.2-0.101c0.394,0,0.722,0.058,0.985,0.17
		c0.263,0.114,0.473,0.275,0.63,0.485c0.156,0.21,0.269,0.461,0.335,0.755s0.1,0.616,0.1,0.97v2.891h-0.649v-2.68
		c0-0.367-0.025-0.678-0.075-0.931s-0.134-0.46-0.25-0.62c-0.117-0.16-0.271-0.275-0.46-0.345c-0.19-0.07-0.429-0.104-0.715-0.104
		c-0.307,0-0.572,0.016-0.795,0.049c-0.224,0.034-0.369,0.064-0.436,0.09v4.541h-0.649V123.754z"/>
	<path d="M101.283,120.985c0.28,0,0.509,0.021,0.686,0.064c0.176,0.043,0.291,0.082,0.345,0.115l-0.13,0.56
		c-0.073-0.033-0.182-0.067-0.325-0.104s-0.325-0.055-0.545-0.055c-0.46,0-0.788,0.116-0.985,0.35
		c-0.196,0.233-0.295,0.606-0.295,1.119v0.541h2.08v0.55h-2.08v4.62h-0.649v-5.73c0-0.674,0.154-1.18,0.465-1.52
		C100.158,121.155,100.637,120.985,101.283,120.985z M103.943,122.014c0,0.154-0.047,0.275-0.14,0.365
		c-0.094,0.09-0.207,0.135-0.341,0.135c-0.133,0-0.246-0.045-0.34-0.135c-0.093-0.09-0.14-0.211-0.14-0.365
		c0-0.153,0.047-0.275,0.14-0.365c0.094-0.09,0.207-0.135,0.34-0.135c0.134,0,0.247,0.045,0.341,0.135
		C103.896,121.739,103.943,121.861,103.943,122.014z M103.793,128.745h-0.649v-5.17h0.649V128.745z"/>
	<path d="M105.514,123.754c0.193-0.053,0.453-0.113,0.779-0.18c0.327-0.066,0.727-0.101,1.2-0.101c0.394,0,0.722,0.058,0.985,0.17
		c0.263,0.114,0.473,0.275,0.63,0.485c0.156,0.21,0.269,0.461,0.335,0.755s0.1,0.616,0.1,0.97v2.891h-0.649v-2.68
		c0-0.367-0.025-0.678-0.075-0.931s-0.134-0.46-0.25-0.62c-0.117-0.16-0.271-0.275-0.46-0.345c-0.19-0.07-0.429-0.104-0.715-0.104
		c-0.307,0-0.572,0.016-0.795,0.049c-0.224,0.034-0.369,0.064-0.436,0.09v4.541h-0.649V123.754z"/>
	<path d="M112.003,122.014c0,0.154-0.047,0.275-0.141,0.365c-0.093,0.09-0.206,0.135-0.34,0.135c-0.133,0-0.246-0.045-0.34-0.135
		s-0.14-0.211-0.14-0.365c0-0.153,0.046-0.275,0.14-0.365s0.207-0.135,0.34-0.135c0.134,0,0.247,0.045,0.34,0.135
		C111.956,121.739,112.003,121.861,112.003,122.014z M111.853,128.745h-0.649v-5.17h0.649V128.745z"/>
	<path d="M114.183,123.575h2.061v0.55h-2.061v2.749c0,0.294,0.025,0.532,0.075,0.716c0.05,0.183,0.122,0.325,0.215,0.425
		c0.094,0.1,0.207,0.166,0.34,0.2c0.134,0.033,0.28,0.05,0.44,0.05c0.273,0,0.493-0.031,0.66-0.096
		c0.166-0.063,0.296-0.121,0.39-0.174l0.16,0.539c-0.094,0.061-0.257,0.129-0.49,0.205c-0.233,0.077-0.486,0.115-0.76,0.115
		c-0.32,0-0.589-0.041-0.805-0.125c-0.217-0.083-0.391-0.21-0.521-0.38s-0.222-0.382-0.274-0.635c-0.054-0.253-0.08-0.554-0.08-0.9
		v-4.76l0.649-0.12V123.575z"/>
	<path d="M119.013,123.454c0.34,0,0.629,0.049,0.865,0.146s0.429,0.229,0.575,0.4c0.146,0.17,0.253,0.372,0.319,0.604
		c0.067,0.234,0.101,0.486,0.101,0.76v3.26c-0.066,0.021-0.164,0.043-0.29,0.065c-0.127,0.023-0.273,0.049-0.44,0.075
		c-0.166,0.026-0.352,0.049-0.555,0.064c-0.203,0.018-0.412,0.025-0.625,0.025c-0.273,0-0.525-0.029-0.755-0.09
		c-0.23-0.061-0.43-0.154-0.6-0.285c-0.171-0.13-0.304-0.297-0.4-0.5s-0.145-0.451-0.145-0.744c0-0.281,0.053-0.521,0.159-0.721
		s0.257-0.365,0.45-0.495s0.424-0.225,0.69-0.284c0.267-0.061,0.557-0.091,0.87-0.091c0.093,0,0.191,0.005,0.295,0.015
		c0.103,0.011,0.203,0.023,0.3,0.041c0.097,0.016,0.18,0.033,0.25,0.049c0.069,0.018,0.118,0.032,0.145,0.046v-0.32
		c0-0.18-0.014-0.354-0.04-0.524s-0.085-0.324-0.175-0.461s-0.217-0.246-0.38-0.33c-0.163-0.082-0.379-0.125-0.645-0.125
		c-0.381,0-0.664,0.027-0.851,0.08c-0.187,0.054-0.323,0.098-0.41,0.131l-0.09-0.57c0.113-0.053,0.288-0.104,0.525-0.15
		C118.395,123.477,118.68,123.454,119.013,123.454z M119.073,128.274c0.253,0,0.475-0.008,0.665-0.025
		c0.189-0.016,0.352-0.037,0.484-0.064v-1.82c-0.073-0.033-0.189-0.068-0.35-0.104s-0.38-0.056-0.66-0.056
		c-0.16,0-0.327,0.012-0.5,0.035c-0.174,0.023-0.333,0.074-0.479,0.15c-0.147,0.076-0.268,0.182-0.36,0.314
		c-0.094,0.134-0.14,0.311-0.14,0.531c0,0.193,0.031,0.355,0.095,0.489s0.153,0.24,0.27,0.319c0.117,0.08,0.257,0.139,0.42,0.176
		C118.682,128.256,118.866,128.274,119.073,128.274z"/>
</g>
<g>
	<rect x="150.074" y="93.4" fill="none" width="53.486" height="38.332"/>
	<path d="M160.599,102.159c0.293,0,0.535-0.025,0.727-0.074c0.19-0.049,0.344-0.115,0.46-0.199c0.115-0.085,0.195-0.186,0.24-0.301
		c0.044-0.115,0.066-0.244,0.066-0.387c0-0.302-0.143-0.553-0.427-0.753c-0.285-0.2-0.773-0.415-1.467-0.647
		c-0.302-0.105-0.604-0.229-0.906-0.365c-0.303-0.139-0.573-0.312-0.813-0.521s-0.436-0.462-0.587-0.761
		c-0.151-0.297-0.227-0.659-0.227-1.086s0.08-0.811,0.24-1.153s0.387-0.634,0.68-0.874c0.293-0.239,0.648-0.424,1.066-0.553
		s0.889-0.193,1.413-0.193c0.622,0,1.16,0.066,1.614,0.2c0.453,0.134,0.826,0.28,1.119,0.44l-0.6,1.639
		c-0.258-0.133-0.545-0.25-0.86-0.353s-0.695-0.153-1.14-0.153c-0.498,0-0.855,0.068-1.073,0.207
		c-0.218,0.137-0.327,0.349-0.327,0.633c0,0.169,0.04,0.311,0.12,0.427s0.193,0.22,0.34,0.313c0.147,0.094,0.315,0.178,0.507,0.253
		s0.402,0.153,0.634,0.233c0.479,0.178,0.897,0.354,1.253,0.527c0.355,0.173,0.651,0.375,0.887,0.605
		c0.235,0.232,0.411,0.503,0.526,0.814c0.116,0.311,0.174,0.688,0.174,1.133c0,0.862-0.303,1.531-0.907,2.006
		c-0.604,0.477-1.515,0.714-2.732,0.714c-0.409,0-0.778-0.024-1.107-0.073c-0.328-0.049-0.619-0.109-0.873-0.18
		c-0.253-0.071-0.471-0.146-0.653-0.227c-0.182-0.08-0.335-0.156-0.46-0.227l0.587-1.654c0.275,0.152,0.615,0.287,1.02,0.407
		S160.012,102.159,160.599,102.159z"/>
	<path d="M172.265,100.225c0,0.551-0.08,1.055-0.24,1.513s-0.391,0.849-0.693,1.173c-0.302,0.325-0.664,0.576-1.086,0.754
		c-0.423,0.178-0.896,0.267-1.421,0.267c-0.515,0-0.984-0.089-1.406-0.267s-0.784-0.429-1.087-0.754
		c-0.302-0.324-0.537-0.715-0.706-1.173s-0.254-0.962-0.254-1.513s0.087-1.054,0.261-1.507c0.173-0.454,0.413-0.841,0.72-1.16
		s0.671-0.569,1.093-0.747c0.423-0.178,0.883-0.266,1.38-0.266c0.507,0,0.972,0.088,1.394,0.266s0.784,0.428,1.087,0.747
		c0.302,0.319,0.538,0.706,0.707,1.16C172.18,99.171,172.265,99.674,172.265,100.225z M170.238,100.225
		c0-0.613-0.123-1.096-0.367-1.447c-0.244-0.351-0.593-0.526-1.047-0.526c-0.453,0-0.804,0.176-1.053,0.526
		c-0.249,0.352-0.373,0.834-0.373,1.447s0.124,1.1,0.373,1.459c0.249,0.36,0.6,0.541,1.053,0.541c0.454,0,0.803-0.181,1.047-0.541
		C170.115,101.325,170.238,100.838,170.238,100.225z"/>
	<path d="M179.784,103.504c-0.338,0.098-0.773,0.189-1.307,0.273s-1.094,0.127-1.68,0.127c-0.596,0-1.092-0.08-1.487-0.24
		s-0.709-0.385-0.939-0.674c-0.231-0.288-0.396-0.633-0.493-1.033c-0.099-0.399-0.147-0.84-0.147-1.319v-3.907h1.987v3.667
		c0,0.64,0.084,1.103,0.253,1.387s0.484,0.427,0.946,0.427c0.143,0,0.294-0.007,0.454-0.02c0.16-0.014,0.302-0.029,0.427-0.047
		v-5.414h1.986V103.504z"/>
	<path d="M181.65,96.971c0.338-0.098,0.773-0.188,1.307-0.273c0.533-0.084,1.093-0.127,1.68-0.127c0.596,0,1.091,0.078,1.486,0.234
		c0.396,0.155,0.709,0.375,0.94,0.66c0.23,0.284,0.396,0.621,0.493,1.013s0.146,0.827,0.146,1.307v3.96h-1.986v-3.72
		c0-0.64-0.085-1.093-0.254-1.36c-0.169-0.267-0.484-0.4-0.946-0.4c-0.143,0-0.293,0.008-0.453,0.021
		c-0.16,0.014-0.303,0.029-0.427,0.047v5.413h-1.986V96.971z"/>
	<path d="M195.689,103.518c-0.179,0.053-0.383,0.104-0.613,0.153c-0.231,0.049-0.474,0.091-0.727,0.126
		c-0.254,0.036-0.512,0.064-0.773,0.088c-0.263,0.021-0.514,0.033-0.754,0.033c-0.577,0-1.093-0.085-1.546-0.254
		c-0.454-0.168-0.836-0.411-1.147-0.727c-0.311-0.315-0.549-0.697-0.713-1.146c-0.165-0.449-0.247-0.953-0.247-1.514
		c0-0.568,0.071-1.082,0.214-1.539c0.142-0.459,0.347-0.848,0.613-1.168c0.267-0.319,0.593-0.563,0.979-0.732
		s0.829-0.254,1.327-0.254c0.275,0,0.521,0.027,0.74,0.08c0.217,0.054,0.438,0.129,0.659,0.227v-3.173l1.987-0.319V103.518z
		 M191.196,100.184c0,0.613,0.138,1.107,0.413,1.48s0.685,0.561,1.227,0.561c0.178,0,0.342-0.008,0.493-0.021
		s0.275-0.028,0.373-0.046v-3.613c-0.124-0.08-0.286-0.147-0.486-0.201c-0.2-0.053-0.402-0.08-0.606-0.08
		C191.667,98.264,191.196,98.905,191.196,100.184z"/>
	<path d="M160.144,109.315v0.59h-2.22v6.34h-0.68v-6.34h-2.221v-0.59H160.144z"/>
	<path d="M162.653,110.974c0.213,0,0.415,0.017,0.604,0.05c0.19,0.033,0.322,0.066,0.396,0.101l-0.13,0.56
		c-0.054-0.026-0.162-0.055-0.325-0.085s-0.379-0.045-0.646-0.045c-0.279,0-0.505,0.021-0.675,0.06
		c-0.17,0.041-0.281,0.074-0.335,0.101v4.53h-0.649v-4.93c0.166-0.074,0.396-0.148,0.689-0.226S162.233,110.974,162.653,110.974z"/>
	<path d="M166.203,110.954c0.34,0,0.629,0.049,0.865,0.146s0.429,0.229,0.575,0.4c0.146,0.17,0.253,0.372,0.319,0.604
		c0.067,0.234,0.101,0.486,0.101,0.76v3.26c-0.066,0.021-0.164,0.043-0.29,0.065c-0.127,0.023-0.273,0.049-0.44,0.075
		c-0.166,0.026-0.352,0.049-0.555,0.064c-0.203,0.018-0.412,0.025-0.625,0.025c-0.273,0-0.525-0.029-0.755-0.09
		c-0.23-0.061-0.43-0.154-0.6-0.285c-0.171-0.13-0.304-0.297-0.4-0.5s-0.145-0.451-0.145-0.744c0-0.281,0.053-0.521,0.159-0.721
		s0.257-0.365,0.45-0.495s0.424-0.225,0.69-0.284c0.267-0.061,0.557-0.091,0.87-0.091c0.093,0,0.191,0.005,0.295,0.015
		c0.103,0.011,0.203,0.023,0.3,0.041c0.097,0.016,0.18,0.033,0.25,0.049c0.069,0.018,0.118,0.032,0.145,0.046v-0.32
		c0-0.18-0.014-0.354-0.04-0.524s-0.085-0.324-0.175-0.461s-0.217-0.246-0.38-0.33c-0.163-0.082-0.379-0.125-0.645-0.125
		c-0.381,0-0.664,0.027-0.851,0.08c-0.187,0.054-0.323,0.098-0.41,0.131l-0.09-0.57c0.113-0.053,0.288-0.104,0.525-0.15
		C165.585,110.977,165.87,110.954,166.203,110.954z M166.264,115.774c0.253,0,0.475-0.008,0.665-0.025
		c0.189-0.016,0.352-0.037,0.484-0.064v-1.82c-0.073-0.033-0.189-0.068-0.35-0.104s-0.38-0.056-0.66-0.056
		c-0.16,0-0.327,0.012-0.5,0.035c-0.174,0.023-0.333,0.074-0.479,0.15c-0.147,0.076-0.268,0.182-0.36,0.314
		c-0.094,0.134-0.14,0.311-0.14,0.531c0,0.193,0.031,0.355,0.095,0.489s0.153,0.24,0.27,0.319c0.117,0.08,0.257,0.139,0.42,0.176
		C165.872,115.756,166.057,115.774,166.264,115.774z"/>
	<path d="M169.724,111.254c0.193-0.053,0.453-0.113,0.779-0.18c0.327-0.066,0.727-0.101,1.2-0.101c0.394,0,0.722,0.058,0.985,0.17
		c0.263,0.114,0.473,0.275,0.63,0.485c0.156,0.21,0.269,0.461,0.335,0.755s0.1,0.616,0.1,0.97v2.891h-0.649v-2.68
		c0-0.367-0.025-0.678-0.075-0.931s-0.134-0.46-0.25-0.62c-0.117-0.16-0.271-0.275-0.46-0.345c-0.19-0.07-0.429-0.104-0.715-0.104
		c-0.307,0-0.572,0.016-0.795,0.049c-0.224,0.034-0.369,0.064-0.436,0.09v4.541h-0.649V111.254z"/>
	<path d="M176.473,115.784c0.373,0,0.682-0.061,0.925-0.185c0.243-0.123,0.365-0.331,0.365-0.625c0-0.14-0.021-0.26-0.065-0.36
		c-0.043-0.1-0.114-0.189-0.215-0.27c-0.1-0.08-0.231-0.156-0.395-0.23c-0.164-0.072-0.365-0.16-0.605-0.26
		c-0.193-0.08-0.376-0.161-0.55-0.244c-0.174-0.084-0.326-0.181-0.46-0.291c-0.134-0.109-0.24-0.241-0.32-0.395
		s-0.119-0.34-0.119-0.561c0-0.42,0.158-0.76,0.475-1.02s0.751-0.391,1.305-0.391c0.354,0,0.646,0.031,0.875,0.091
		c0.23,0.06,0.392,0.113,0.485,0.159l-0.15,0.58c-0.08-0.039-0.215-0.093-0.405-0.159c-0.189-0.067-0.468-0.101-0.835-0.101
		c-0.146,0-0.284,0.016-0.414,0.045c-0.131,0.031-0.245,0.078-0.346,0.141c-0.1,0.063-0.18,0.145-0.24,0.24
		c-0.06,0.098-0.09,0.216-0.09,0.355c0,0.141,0.027,0.262,0.08,0.361c0.054,0.101,0.132,0.189,0.235,0.266
		c0.104,0.077,0.229,0.148,0.38,0.215s0.321,0.139,0.515,0.219c0.2,0.08,0.392,0.161,0.575,0.244s0.345,0.183,0.485,0.299
		c0.14,0.117,0.253,0.258,0.34,0.42c0.087,0.164,0.13,0.369,0.13,0.615c0,0.467-0.175,0.82-0.525,1.061
		c-0.35,0.24-0.828,0.359-1.435,0.359c-0.453,0-0.8-0.038-1.04-0.115c-0.24-0.076-0.399-0.135-0.479-0.174l0.17-0.59
		c0.02,0.013,0.063,0.034,0.13,0.064c0.066,0.029,0.156,0.063,0.27,0.1c0.113,0.037,0.248,0.068,0.405,0.096
		C176.084,115.771,176.266,115.784,176.473,115.784z"/>
	<path d="M179.693,111.254c0.193-0.053,0.444-0.113,0.755-0.18c0.31-0.066,0.711-0.101,1.205-0.101c0.653,0,1.126,0.19,1.42,0.57
		c0.033-0.026,0.098-0.071,0.194-0.136c0.097-0.063,0.219-0.128,0.365-0.194s0.318-0.124,0.515-0.17
		c0.197-0.047,0.415-0.07,0.655-0.07c0.394,0,0.712,0.059,0.955,0.175c0.243,0.117,0.432,0.28,0.565,0.49
		c0.133,0.21,0.223,0.462,0.27,0.755c0.047,0.294,0.07,0.614,0.07,0.96v2.891h-0.65v-2.68c0-0.341-0.015-0.636-0.045-0.886
		s-0.09-0.456-0.18-0.62c-0.09-0.163-0.219-0.287-0.386-0.369c-0.166-0.084-0.383-0.125-0.649-0.125c-0.2,0-0.382,0.018-0.545,0.055
		c-0.164,0.036-0.305,0.082-0.425,0.135s-0.219,0.106-0.295,0.16c-0.077,0.053-0.132,0.094-0.165,0.119
		c0.06,0.174,0.104,0.369,0.135,0.586s0.045,0.445,0.045,0.685v2.94h-0.65v-2.68c0-0.341-0.015-0.636-0.045-0.886
		c-0.029-0.25-0.092-0.456-0.185-0.62c-0.094-0.163-0.226-0.287-0.396-0.369c-0.17-0.084-0.395-0.125-0.675-0.125
		c-0.313,0-0.578,0.016-0.795,0.049c-0.217,0.034-0.354,0.064-0.415,0.09v4.541h-0.649V111.254z"/>
	<path d="M189.123,109.514c0,0.154-0.047,0.275-0.141,0.365c-0.093,0.09-0.206,0.135-0.34,0.135c-0.133,0-0.246-0.045-0.34-0.135
		s-0.14-0.211-0.14-0.365c0-0.153,0.046-0.275,0.14-0.365s0.207-0.135,0.34-0.135c0.134,0,0.247,0.045,0.34,0.135
		C189.076,109.239,189.123,109.361,189.123,109.514z M188.973,116.245h-0.649v-5.17h0.649V116.245z"/>
	<path d="M191.303,111.075h2.061v0.55h-2.061v2.749c0,0.294,0.025,0.532,0.075,0.716c0.05,0.183,0.122,0.325,0.215,0.425
		c0.094,0.1,0.207,0.166,0.34,0.2c0.134,0.033,0.28,0.05,0.44,0.05c0.273,0,0.493-0.031,0.66-0.096
		c0.166-0.063,0.296-0.121,0.39-0.174l0.16,0.539c-0.094,0.061-0.257,0.129-0.49,0.205c-0.233,0.077-0.486,0.115-0.76,0.115
		c-0.32,0-0.589-0.041-0.805-0.125c-0.217-0.083-0.391-0.21-0.521-0.38s-0.222-0.382-0.274-0.635c-0.054-0.253-0.08-0.554-0.08-0.9
		v-4.76l0.649-0.12V111.075z"/>
	<path d="M196.133,110.954c0.34,0,0.629,0.049,0.865,0.146s0.429,0.229,0.575,0.4c0.146,0.17,0.253,0.372,0.319,0.604
		c0.067,0.234,0.101,0.486,0.101,0.76v3.26c-0.066,0.021-0.164,0.043-0.29,0.065c-0.127,0.023-0.273,0.049-0.44,0.075
		c-0.166,0.026-0.352,0.049-0.555,0.064c-0.203,0.018-0.412,0.025-0.625,0.025c-0.273,0-0.525-0.029-0.755-0.09
		c-0.23-0.061-0.43-0.154-0.6-0.285c-0.171-0.13-0.304-0.297-0.4-0.5s-0.145-0.451-0.145-0.744c0-0.281,0.053-0.521,0.159-0.721
		s0.257-0.365,0.45-0.495s0.424-0.225,0.69-0.284c0.267-0.061,0.557-0.091,0.87-0.091c0.093,0,0.191,0.005,0.295,0.015
		c0.103,0.011,0.203,0.023,0.3,0.041c0.097,0.016,0.18,0.033,0.25,0.049c0.069,0.018,0.118,0.032,0.145,0.046v-0.32
		c0-0.18-0.014-0.354-0.04-0.524s-0.085-0.324-0.175-0.461s-0.217-0.246-0.38-0.33c-0.163-0.082-0.379-0.125-0.645-0.125
		c-0.381,0-0.664,0.027-0.851,0.08c-0.187,0.054-0.323,0.098-0.41,0.131l-0.09-0.57c0.113-0.053,0.288-0.104,0.525-0.15
		C195.515,110.977,195.8,110.954,196.133,110.954z M196.193,115.774c0.253,0,0.475-0.008,0.665-0.025
		c0.189-0.016,0.352-0.037,0.484-0.064v-1.82c-0.073-0.033-0.189-0.068-0.35-0.104s-0.38-0.056-0.66-0.056
		c-0.16,0-0.327,0.012-0.5,0.035c-0.174,0.023-0.333,0.074-0.479,0.15c-0.147,0.076-0.268,0.182-0.36,0.314
		c-0.094,0.134-0.14,0.311-0.14,0.531c0,0.193,0.031,0.355,0.095,0.489s0.153,0.24,0.27,0.319c0.117,0.08,0.257,0.139,0.42,0.176
		C195.802,115.756,195.986,115.774,196.193,115.774z"/>
	<path d="M162.428,128.284c0.373,0,0.682-0.061,0.925-0.185c0.243-0.123,0.365-0.331,0.365-0.625c0-0.14-0.021-0.26-0.065-0.36
		c-0.043-0.1-0.114-0.189-0.215-0.27c-0.1-0.08-0.231-0.156-0.395-0.23c-0.164-0.072-0.365-0.16-0.605-0.26
		c-0.193-0.08-0.376-0.161-0.55-0.244c-0.174-0.084-0.326-0.181-0.46-0.291c-0.134-0.109-0.24-0.241-0.32-0.395
		s-0.119-0.34-0.119-0.561c0-0.42,0.158-0.76,0.475-1.02s0.751-0.391,1.305-0.391c0.354,0,0.646,0.031,0.875,0.091
		c0.23,0.06,0.392,0.113,0.485,0.159l-0.15,0.58c-0.08-0.039-0.215-0.093-0.405-0.159c-0.189-0.067-0.468-0.101-0.835-0.101
		c-0.146,0-0.284,0.016-0.414,0.045c-0.131,0.031-0.245,0.078-0.346,0.141c-0.1,0.063-0.18,0.145-0.24,0.24
		c-0.06,0.098-0.09,0.216-0.09,0.355c0,0.141,0.027,0.262,0.08,0.361c0.054,0.101,0.132,0.189,0.235,0.266
		c0.104,0.077,0.229,0.148,0.38,0.215s0.321,0.139,0.515,0.219c0.2,0.08,0.392,0.161,0.575,0.244s0.345,0.183,0.485,0.299
		c0.14,0.117,0.253,0.258,0.34,0.42c0.087,0.164,0.13,0.369,0.13,0.615c0,0.467-0.175,0.82-0.525,1.061
		c-0.35,0.24-0.828,0.359-1.435,0.359c-0.453,0-0.8-0.038-1.04-0.115c-0.24-0.076-0.399-0.135-0.479-0.174l0.17-0.59
		c0.02,0.013,0.063,0.034,0.13,0.064c0.066,0.029,0.156,0.063,0.27,0.1c0.113,0.037,0.248,0.068,0.405,0.096
		C162.039,128.271,162.221,128.284,162.428,128.284z"/>
	<path d="M165.338,126.155c0-0.453,0.065-0.849,0.195-1.186c0.13-0.336,0.3-0.618,0.51-0.845s0.45-0.396,0.72-0.505
		c0.271-0.11,0.549-0.166,0.835-0.166c0.634,0,1.139,0.207,1.516,0.621c0.376,0.413,0.564,1.049,0.564,1.91
		c0,0.053-0.002,0.105-0.005,0.159s-0.009,0.104-0.015,0.15h-3.63c0.02,0.634,0.177,1.12,0.47,1.46s0.76,0.51,1.4,0.51
		c0.353,0,0.633-0.033,0.84-0.1c0.206-0.066,0.356-0.123,0.449-0.17l0.12,0.56c-0.093,0.054-0.269,0.116-0.524,0.19
		c-0.257,0.072-0.559,0.109-0.905,0.109c-0.453,0-0.84-0.066-1.16-0.199c-0.319-0.134-0.583-0.32-0.79-0.561
		c-0.206-0.24-0.356-0.525-0.449-0.855C165.385,126.909,165.338,126.547,165.338,126.155z M169.008,125.745
		c-0.014-0.541-0.14-0.961-0.38-1.26c-0.24-0.301-0.58-0.451-1.02-0.451c-0.233,0-0.442,0.047-0.625,0.141
		c-0.184,0.094-0.344,0.219-0.48,0.375s-0.243,0.338-0.32,0.545c-0.076,0.207-0.121,0.424-0.135,0.65H169.008z"/>
	<path d="M171.128,123.754c0.193-0.053,0.444-0.113,0.755-0.18c0.31-0.066,0.711-0.101,1.205-0.101c0.653,0,1.126,0.19,1.42,0.57
		c0.033-0.026,0.098-0.071,0.194-0.136c0.097-0.063,0.219-0.128,0.365-0.194s0.318-0.124,0.515-0.17
		c0.197-0.047,0.415-0.07,0.655-0.07c0.394,0,0.712,0.059,0.955,0.175c0.243,0.117,0.432,0.28,0.565,0.49
		c0.133,0.21,0.223,0.462,0.27,0.755c0.047,0.294,0.07,0.614,0.07,0.96v2.891h-0.65v-2.68c0-0.341-0.015-0.636-0.045-0.886
		s-0.09-0.456-0.18-0.62c-0.09-0.163-0.219-0.287-0.386-0.369c-0.166-0.084-0.383-0.125-0.649-0.125c-0.2,0-0.382,0.018-0.545,0.055
		c-0.164,0.036-0.305,0.082-0.425,0.135s-0.219,0.106-0.295,0.16c-0.077,0.053-0.132,0.094-0.165,0.119
		c0.06,0.174,0.104,0.369,0.135,0.586s0.045,0.445,0.045,0.685v2.94h-0.65v-2.68c0-0.341-0.015-0.636-0.045-0.886
		c-0.029-0.25-0.092-0.456-0.185-0.62c-0.094-0.163-0.226-0.287-0.396-0.369c-0.17-0.084-0.395-0.125-0.675-0.125
		c-0.313,0-0.578,0.016-0.795,0.049c-0.217,0.034-0.354,0.064-0.415,0.09v4.541h-0.649V123.754z"/>
	<path d="M183.938,120.985c0.28,0,0.509,0.021,0.686,0.064c0.176,0.043,0.291,0.082,0.345,0.115l-0.13,0.56
		c-0.073-0.033-0.182-0.067-0.325-0.104s-0.325-0.055-0.545-0.055c-0.46,0-0.788,0.116-0.985,0.35
		c-0.196,0.233-0.295,0.606-0.295,1.119v0.541h2.08v0.55h-2.08v4.62h-0.649v-5.73c0-0.674,0.154-1.18,0.465-1.52
		C182.813,121.155,183.291,120.985,183.938,120.985z M186.598,122.014c0,0.154-0.047,0.275-0.14,0.365
		c-0.094,0.09-0.207,0.135-0.341,0.135c-0.133,0-0.246-0.045-0.34-0.135c-0.093-0.09-0.14-0.211-0.14-0.365
		c0-0.153,0.047-0.275,0.14-0.365c0.094-0.09,0.207-0.135,0.34-0.135c0.134,0,0.247,0.045,0.341,0.135
		C186.551,121.739,186.598,121.861,186.598,122.014z M186.447,128.745h-0.649v-5.17h0.649V128.745z"/>
	<path d="M192.577,126.165c0,0.406-0.059,0.776-0.175,1.109c-0.116,0.334-0.28,0.617-0.49,0.85c-0.21,0.234-0.458,0.416-0.744,0.545
		c-0.287,0.131-0.604,0.195-0.95,0.195s-0.664-0.064-0.95-0.195c-0.287-0.129-0.535-0.311-0.745-0.545
		c-0.21-0.232-0.373-0.516-0.49-0.85c-0.116-0.333-0.175-0.703-0.175-1.109s0.059-0.777,0.175-1.11
		c0.117-0.333,0.28-0.618,0.49-0.854s0.458-0.42,0.745-0.551c0.286-0.129,0.604-0.195,0.95-0.195s0.663,0.066,0.95,0.195
		c0.286,0.131,0.534,0.314,0.744,0.551s0.374,0.521,0.49,0.854S192.577,125.758,192.577,126.165z M191.888,126.165
		c0-0.646-0.15-1.162-0.45-1.545c-0.3-0.384-0.707-0.575-1.22-0.575c-0.514,0-0.92,0.191-1.22,0.575
		c-0.301,0.383-0.45,0.898-0.45,1.545s0.149,1.16,0.45,1.539c0.3,0.381,0.706,0.57,1.22,0.57c0.513,0,0.92-0.189,1.22-0.57
		C191.737,127.325,191.888,126.811,191.888,126.165z"/>
</g>
<g>
	<polygon fill="#6EC498" points="63.779,62.363 35.433,79.369 7.086,62.363 7.086,28.348 35.433,11.34 63.779,28.348 	"/>
	<g>
		<g>
			<defs>
				<path id="SVGID_1_" d="M29.955,15.001h10.953c9.933,0,17.986,8.053,17.986,17.985v10.953c0,9.932-8.054,17.984-17.986,17.984
					H29.955c-9.933,0-17.985-8.053-17.985-17.984V32.986C11.97,23.054,20.022,15.001,29.955,15.001z"/>
			</defs>
			<clipPath id="SVGID_2_">
				<use xlink:href="#SVGID_1_"  overflow="visible"/>
			</clipPath>
			<path id="path3305" clip-path="url(#SVGID_2_)" fill="none" stroke="#9FD2A2" stroke-width="3.7864" d="M35.872,28.017
				c-15.322-1.62-28.438,22.646-5.377,36.41"/>
		</g>
		<g>
			<defs>
				<path id="SVGID_3_" d="M29.955,15.001h10.953c9.933,0,17.986,8.053,17.986,17.985v10.953c0,9.932-8.054,17.984-17.986,17.984
					H29.955c-9.933,0-17.985-8.053-17.985-17.984V32.986C11.97,23.054,20.022,15.001,29.955,15.001z"/>
			</defs>
			<clipPath id="SVGID_4_">
				<use xlink:href="#SVGID_3_"  overflow="visible"/>
			</clipPath>
			<path id="path3307" clip-path="url(#SVGID_4_)" fill="none" stroke="#CFE8D0" stroke-width="3.7864" d="M42.937,34.202
				c-11.195-5.586-21.215,2.966-20.245,12.465c1.001,9.778,10.04,17.761,30.404,14.104"/>
		</g>
		<g>
			<defs>
				<path id="SVGID_5_" d="M29.955,15.001h10.953c9.933,0,17.986,8.053,17.986,17.985v10.953c0,9.932-8.054,17.984-17.986,17.984
					H29.955c-9.933,0-17.985-8.053-17.985-17.984V32.986C11.97,23.054,20.022,15.001,29.955,15.001z"/>
			</defs>
			<clipPath id="SVGID_6_">
				<use xlink:href="#SVGID_5_"  overflow="visible"/>
			</clipPath>
			<path id="path3309" clip-path="url(#SVGID_6_)" fill="none" stroke="#FFFFFF" stroke-width="3.7864" d="M44.249,41.774
				c-3.716-6.694-12.401-5.744-15.51-0.811c-2.438,3.866-2.857,13.282,10.547,15.551c6.175,0.891,15.596-0.11,22.854-0.946"/>
		</g>
	</g>
</g>
<g>
	<polygon fill="#3399CC" points="134.646,62.363 106.299,79.371 77.952,62.363 77.952,28.346 106.299,11.338 134.646,28.346 	"/>
	<g>
		<g>
			<path fill-rule="evenodd" clip-rule="evenodd" fill="#3399CC" d="M108.114,23.074c0.485,0.187,1.006,0.159,1.51,0.236
				c9.378,1.44,16.856,8.547,18.545,17.883c1.349,7.439-0.572,14.048-5.788,19.546c-4.695,4.947-10.571,7.194-17.369,6.862
				c-10.267-0.5-18.875-8.191-20.665-18.358c-0.098-0.555-0.162-1.117-0.244-1.676c-0.012-0.078,0.025-0.181-0.093-0.213
				c0-1.248,0-2.495,0-3.743c0.104-0.049,0.069-0.148,0.076-0.229c0.261-3.04,1.081-5.924,2.566-8.583
				c3.476-6.217,8.714-10.043,15.729-11.386c0.745-0.143,1.501-0.229,2.252-0.34C105.794,23.074,106.954,23.074,108.114,23.074z
				 M121.49,42.617c-0.628-0.641-1.249-1.288-1.885-1.921c-0.462-0.461-1.063-0.487-1.472-0.084
				c-0.402,0.394-0.396,1.024,0.049,1.474c1.284,1.299,2.579,2.588,3.873,3.878c0.325,0.324,0.708,0.456,1.147,0.264
				c0.437-0.189,0.594-0.539,0.594-1.011c0-3.006-0.746-5.82-2.217-8.429c-3.536-6.274-10.369-9.743-17.541-8.813
				c-4.092,0.529-7.586,2.303-10.445,5.288c-2.043,2.132-3.449,4.63-4.224,7.481c-0.199,0.736,0.274,1.35,0.995,1.313
				c0.504-0.025,0.769-0.291,0.961-0.958c2.131-7.398,9.264-12.114,16.893-11.168c6.411,0.794,11.706,5.533,13.188,11.814
				c0.067,0.283,0.213,0.571,0.084,0.877V42.617z M91.025,48.039c0.7,0.705,1.314,1.333,1.94,1.949
				c0.456,0.45,1.067,0.46,1.47,0.043c0.397-0.41,0.38-0.991-0.059-1.431c-1.288-1.294-2.58-2.586-3.876-3.875
				c-0.355-0.356-0.739-0.435-1.145-0.247c-0.415,0.191-0.587,0.523-0.582,0.976c0.009,1.002,0.103,1.995,0.271,2.983
				c1.455,8.482,9.097,14.705,17.691,14.426c4.444-0.144,8.298-1.712,11.545-4.735c2.398-2.23,4.037-4.938,4.913-8.102
				c0.159-0.573-0.02-1.044-0.463-1.268c-0.62-0.312-1.249,0.029-1.467,0.804c-1.999,7.127-9.024,12.274-16.905,11.186
				c-6.388-0.884-10.644-4.536-12.844-10.584C91.282,49.52,91.1,48.853,91.025,48.039z"/>
			<path fill-rule="evenodd" clip-rule="evenodd" fill="#FFFFFF" d="M121.49,42.622c0.129-0.306-0.017-0.594-0.084-0.877
				c-1.481-6.281-6.776-11.02-13.188-11.814c-7.629-0.946-14.762,3.77-16.893,11.168c-0.192,0.667-0.457,0.933-0.961,0.958
				c-0.721,0.036-1.194-0.577-0.995-1.313c0.774-2.851,2.181-5.349,4.224-7.481c2.859-2.985,6.354-4.759,10.445-5.288
				c7.172-0.93,14.005,2.54,17.541,8.813c1.471,2.609,2.217,5.422,2.217,8.429c0,0.472-0.157,0.821-0.594,1.011
				c-0.439,0.192-0.822,0.06-1.147-0.264c-1.294-1.29-2.589-2.579-3.873-3.878c-0.444-0.45-0.451-1.081-0.049-1.474
				c0.409-0.402,1.01-0.376,1.472,0.084c0.636,0.634,1.257,1.28,1.885,1.92c0.004-0.031,0.102,0.014,0.049-0.06
				C121.522,42.579,121.507,42.6,121.49,42.622z"/>
			<path fill-rule="evenodd" clip-rule="evenodd" fill="#FFFFFF" d="M91.025,48.039c0.074,0.814,0.257,1.481,0.491,2.124
				c2.2,6.048,6.456,9.701,12.844,10.584c7.881,1.089,14.906-4.058,16.905-11.186c0.218-0.775,0.847-1.116,1.467-0.804
				c0.443,0.224,0.622,0.695,0.463,1.268c-0.876,3.163-2.515,5.872-4.913,8.102c-3.247,3.023-7.101,4.592-11.545,4.735
				c-8.595,0.279-16.236-5.944-17.691-14.426c-0.169-0.988-0.263-1.98-0.271-2.983c-0.005-0.452,0.167-0.785,0.582-0.976
				c0.405-0.188,0.789-0.109,1.145,0.247c1.296,1.289,2.588,2.581,3.876,3.875c0.438,0.44,0.456,1.021,0.059,1.431
				c-0.402,0.417-1.014,0.407-1.47-0.043C92.34,49.372,91.726,48.744,91.025,48.039z"/>
		</g>
	</g>
</g>
<g>
	<polygon fill="#996699" points="276.378,62.363 248.031,79.37 219.685,62.363 219.687,28.347 248.031,11.339 276.378,28.347 	"/>
	<g>
		<g>
			<g>
				<path fill="none" stroke="#FFFFFF" stroke-width="2.7448" d="M231.551,40.435c9.167-9.167,24.004-9.167,33.172,0"/>
				<path fill="none" stroke="#FFFFFF" stroke-width="2.7448" d="M235.89,44.773c6.77-6.769,17.725-6.769,24.495,0"/>
				<path fill="none" stroke="#FFFFFF" stroke-width="2.7448" d="M240.969,49.446c3.962-3.963,10.376-3.963,14.339,0"/>
			</g>
			<circle fill="#FFFFFF" cx="248.138" cy="54.12" r="3.031"/>
		</g>
	</g>
</g>
<g>
	<rect x="221.396" y="93.4" fill="none" width="53.486" height="38.332"/>
	<path d="M228.613,94.504h2.08v9.24h-2.08v-3.92h-3.493v3.92h-2.08v-9.24h2.08v3.533h3.493V94.504z"/>
	<path d="M239.253,100.225c0,0.551-0.08,1.055-0.24,1.513s-0.391,0.849-0.693,1.173c-0.302,0.325-0.664,0.576-1.086,0.754
		c-0.423,0.178-0.896,0.267-1.421,0.267c-0.515,0-0.984-0.089-1.406-0.267s-0.784-0.429-1.087-0.754
		c-0.302-0.324-0.537-0.715-0.706-1.173s-0.254-0.962-0.254-1.513s0.087-1.054,0.261-1.507c0.173-0.454,0.413-0.841,0.72-1.16
		s0.671-0.569,1.093-0.747c0.423-0.178,0.883-0.266,1.38-0.266c0.507,0,0.972,0.088,1.394,0.266s0.784,0.428,1.087,0.747
		c0.302,0.319,0.538,0.706,0.707,1.16C239.168,99.171,239.253,99.674,239.253,100.225z M237.227,100.225
		c0-0.613-0.123-1.096-0.367-1.447c-0.244-0.351-0.593-0.526-1.047-0.526c-0.453,0-0.804,0.176-1.053,0.526
		c-0.249,0.352-0.373,0.834-0.373,1.447s0.124,1.1,0.373,1.459c0.249,0.36,0.6,0.541,1.053,0.541c0.454,0,0.803-0.181,1.047-0.541
		C237.104,101.325,237.227,100.838,237.227,100.225z"/>
	<path d="M240.719,94.985l1.987-0.32v2.066h2.387v1.654h-2.387v2.467c0,0.417,0.073,0.75,0.22,1
		c0.146,0.248,0.442,0.373,0.887,0.373c0.213,0,0.434-0.021,0.66-0.061s0.433-0.096,0.62-0.166l0.279,1.546
		c-0.239,0.099-0.506,0.183-0.8,0.253c-0.293,0.072-0.653,0.107-1.08,0.107c-0.542,0-0.991-0.074-1.347-0.221
		s-0.64-0.351-0.853-0.613c-0.214-0.262-0.362-0.58-0.447-0.953c-0.084-0.373-0.127-0.786-0.127-1.24V94.985z"/>
	<path d="M248.719,102.318c0.364,0,0.622-0.035,0.773-0.106s0.227-0.209,0.227-0.414c0-0.159-0.098-0.299-0.293-0.42
		c-0.195-0.119-0.493-0.255-0.894-0.406c-0.312-0.115-0.593-0.235-0.847-0.359c-0.253-0.125-0.469-0.273-0.646-0.447
		s-0.315-0.38-0.413-0.619c-0.098-0.24-0.146-0.529-0.146-0.867c0-0.658,0.244-1.178,0.733-1.561
		c0.488-0.382,1.159-0.572,2.013-0.572c0.427,0,0.836,0.037,1.227,0.113c0.392,0.075,0.702,0.157,0.934,0.246l-0.347,1.547
		c-0.231-0.08-0.482-0.151-0.753-0.213c-0.271-0.063-0.576-0.094-0.914-0.094c-0.622,0-0.933,0.173-0.933,0.52
		c0,0.08,0.013,0.151,0.04,0.213c0.026,0.063,0.079,0.123,0.159,0.181s0.189,0.12,0.327,0.188s0.313,0.142,0.526,0.222
		c0.436,0.162,0.796,0.32,1.08,0.477c0.284,0.158,0.509,0.327,0.674,0.509c0.164,0.182,0.279,0.384,0.347,0.604
		c0.066,0.223,0.1,0.479,0.1,0.771c0,0.692-0.26,1.216-0.78,1.57c-0.52,0.355-1.256,0.532-2.206,0.532
		c-0.623,0-1.141-0.054-1.554-0.159c-0.413-0.107-0.7-0.196-0.86-0.268l0.334-1.613c0.338,0.134,0.685,0.238,1.04,0.313
		S248.372,102.318,248.719,102.318z"/>
	<path d="M259.691,100.239c0,0.541-0.066,1.035-0.2,1.479c-0.133,0.444-0.329,0.826-0.587,1.146
		c-0.258,0.319-0.577,0.569-0.96,0.747c-0.382,0.178-0.822,0.266-1.319,0.266c-0.275,0-0.533-0.026-0.773-0.08
		c-0.24-0.053-0.472-0.128-0.693-0.227v2.641h-1.986v-9.24c0.178-0.053,0.382-0.104,0.613-0.152c0.23-0.049,0.473-0.092,0.727-0.127
		c0.253-0.035,0.511-0.064,0.773-0.087c0.262-0.022,0.513-0.034,0.753-0.034c0.578,0,1.094,0.088,1.547,0.261
		s0.835,0.418,1.146,0.733c0.311,0.315,0.549,0.699,0.713,1.153C259.609,99.171,259.691,99.678,259.691,100.239z M257.665,100.292
		c0-0.613-0.138-1.104-0.413-1.474c-0.276-0.368-0.685-0.554-1.228-0.554c-0.178,0-0.342,0.008-0.493,0.021
		c-0.151,0.014-0.275,0.029-0.373,0.047v3.587c0.124,0.08,0.287,0.146,0.486,0.199c0.2,0.054,0.402,0.08,0.607,0.08
		C257.193,102.198,257.665,101.563,257.665,100.292z"/>
	<path d="M267.784,100.225c0,0.551-0.08,1.055-0.24,1.513s-0.391,0.849-0.693,1.173c-0.302,0.325-0.664,0.576-1.086,0.754
		c-0.423,0.178-0.896,0.267-1.421,0.267c-0.515,0-0.984-0.089-1.406-0.267s-0.784-0.429-1.087-0.754
		c-0.302-0.324-0.537-0.715-0.706-1.173s-0.254-0.962-0.254-1.513s0.087-1.054,0.261-1.507c0.173-0.454,0.413-0.841,0.72-1.16
		s0.671-0.569,1.093-0.747c0.423-0.178,0.883-0.266,1.38-0.266c0.507,0,0.972,0.088,1.394,0.266s0.784,0.428,1.087,0.747
		c0.302,0.319,0.538,0.706,0.707,1.16C267.699,99.171,267.784,99.674,267.784,100.225z M265.758,100.225
		c0-0.613-0.123-1.096-0.367-1.447c-0.244-0.351-0.593-0.526-1.047-0.526c-0.453,0-0.804,0.176-1.053,0.526
		c-0.249,0.352-0.373,0.834-0.373,1.447s0.124,1.1,0.373,1.459c0.249,0.36,0.6,0.541,1.053,0.541c0.454,0,0.803-0.181,1.047-0.541
		C265.635,101.325,265.758,100.838,265.758,100.225z"/>
	<path d="M269.25,94.985l1.987-0.32v2.066h2.387v1.654h-2.387v2.467c0,0.417,0.073,0.75,0.22,1c0.146,0.248,0.442,0.373,0.887,0.373
		c0.213,0,0.434-0.021,0.66-0.061s0.433-0.096,0.62-0.166l0.279,1.546c-0.239,0.099-0.506,0.183-0.8,0.253
		c-0.293,0.072-0.653,0.107-1.08,0.107c-0.542,0-0.991-0.074-1.347-0.221s-0.64-0.351-0.853-0.613
		c-0.214-0.262-0.362-0.58-0.447-0.953c-0.084-0.373-0.127-0.786-0.127-1.24V94.985z"/>
	<path d="M234.36,110.165c0.321,1.071,0.642,2.043,0.962,2.914s0.636,1.67,0.947,2.396c0.229-0.786,0.459-1.714,0.692-2.779
		c0.232-1.065,0.457-2.192,0.672-3.38h0.67c-0.123,0.713-0.245,1.383-0.367,2.006c-0.122,0.624-0.25,1.217-0.385,1.78
		s-0.275,1.103-0.423,1.619s-0.309,1.024-0.483,1.524h-0.731c-0.157-0.381-0.313-0.762-0.471-1.143
		c-0.156-0.379-0.312-0.771-0.466-1.174c-0.154-0.403-0.309-0.824-0.463-1.264c-0.154-0.44-0.31-0.906-0.466-1.4
		c-0.158,0.496-0.314,0.963-0.471,1.403c-0.155,0.44-0.31,0.862-0.463,1.267c-0.153,0.402-0.309,0.795-0.465,1.174
		c-0.157,0.381-0.317,0.76-0.48,1.137h-0.717c-0.181-0.501-0.346-1.01-0.496-1.526s-0.291-1.058-0.422-1.62
		c-0.131-0.563-0.255-1.156-0.373-1.779c-0.117-0.623-0.236-1.291-0.357-2.004h0.699c0.104,0.586,0.208,1.16,0.313,1.724
		s0.217,1.108,0.334,1.636c0.118,0.525,0.237,1.024,0.359,1.494c0.122,0.471,0.245,0.906,0.368,1.306
		c0.285-0.739,0.591-1.54,0.92-2.403c0.328-0.863,0.652-1.832,0.971-2.906H234.36z"/>
	<path d="M240.314,109.514c0,0.154-0.047,0.275-0.141,0.365c-0.093,0.09-0.206,0.135-0.34,0.135c-0.133,0-0.246-0.045-0.34-0.135
		s-0.14-0.211-0.14-0.365c0-0.153,0.046-0.275,0.14-0.365s0.207-0.135,0.34-0.135c0.134,0,0.247,0.045,0.34,0.135
		C240.268,109.239,240.314,109.361,240.314,109.514z M240.164,116.245h-0.649v-5.17h0.649V116.245z"/>
	<path d="M243.645,110.974c0.213,0,0.415,0.017,0.604,0.05c0.19,0.033,0.322,0.066,0.396,0.101l-0.13,0.56
		c-0.054-0.026-0.162-0.055-0.325-0.085s-0.379-0.045-0.646-0.045c-0.279,0-0.505,0.021-0.675,0.06
		c-0.17,0.041-0.281,0.074-0.335,0.101v4.53h-0.649v-4.93c0.166-0.074,0.396-0.148,0.689-0.226S243.225,110.974,243.645,110.974z"/>
	<path d="M245.314,113.655c0-0.453,0.065-0.849,0.195-1.186c0.13-0.336,0.3-0.618,0.51-0.845s0.45-0.396,0.72-0.505
		c0.271-0.11,0.549-0.166,0.835-0.166c0.634,0,1.139,0.207,1.516,0.621c0.376,0.413,0.564,1.049,0.564,1.91
		c0,0.053-0.002,0.105-0.005,0.159s-0.009,0.104-0.015,0.15h-3.63c0.02,0.634,0.177,1.12,0.47,1.46s0.76,0.51,1.4,0.51
		c0.353,0,0.633-0.033,0.84-0.1c0.206-0.066,0.356-0.123,0.449-0.17l0.12,0.56c-0.093,0.054-0.269,0.116-0.524,0.19
		c-0.257,0.072-0.559,0.109-0.905,0.109c-0.453,0-0.84-0.066-1.16-0.199c-0.319-0.134-0.583-0.32-0.79-0.561
		c-0.206-0.24-0.356-0.525-0.449-0.855C245.361,114.409,245.314,114.047,245.314,113.655z M248.984,113.245
		c-0.014-0.541-0.14-0.961-0.38-1.26c-0.24-0.301-0.58-0.451-1.02-0.451c-0.233,0-0.442,0.047-0.625,0.141
		c-0.184,0.094-0.344,0.219-0.48,0.375s-0.243,0.338-0.32,0.545c-0.076,0.207-0.121,0.424-0.135,0.65H248.984z"/>
	<path d="M252.414,116.334c-0.22-0.007-0.412-0.035-0.575-0.086c-0.163-0.049-0.3-0.126-0.41-0.229
		c-0.109-0.103-0.193-0.236-0.25-0.399c-0.057-0.164-0.085-0.369-0.085-0.615v-6.4l0.65-0.119v6.5c0,0.159,0.015,0.287,0.045,0.385
		c0.03,0.096,0.075,0.173,0.135,0.229c0.061,0.057,0.139,0.099,0.235,0.125s0.212,0.05,0.345,0.069L252.414,116.334z"/>
	<path d="M253.344,113.655c0-0.453,0.065-0.849,0.195-1.186c0.13-0.336,0.3-0.618,0.51-0.845s0.45-0.396,0.72-0.505
		c0.271-0.11,0.549-0.166,0.835-0.166c0.634,0,1.139,0.207,1.516,0.621c0.376,0.413,0.564,1.049,0.564,1.91
		c0,0.053-0.002,0.105-0.005,0.159s-0.009,0.104-0.015,0.15h-3.63c0.02,0.634,0.177,1.12,0.47,1.46s0.76,0.51,1.4,0.51
		c0.353,0,0.633-0.033,0.84-0.1c0.206-0.066,0.356-0.123,0.449-0.17l0.12,0.56c-0.093,0.054-0.269,0.116-0.524,0.19
		c-0.257,0.072-0.559,0.109-0.905,0.109c-0.453,0-0.84-0.066-1.16-0.199c-0.319-0.134-0.583-0.32-0.79-0.561
		c-0.206-0.24-0.356-0.525-0.449-0.855C253.391,114.409,253.344,114.047,253.344,113.655z M257.014,113.245
		c-0.014-0.541-0.14-0.961-0.38-1.26c-0.24-0.301-0.58-0.451-1.02-0.451c-0.233,0-0.442,0.047-0.625,0.141
		c-0.184,0.094-0.344,0.219-0.48,0.375s-0.243,0.338-0.32,0.545c-0.076,0.207-0.121,0.424-0.135,0.65H257.014z"/>
	<path d="M260.193,115.784c0.373,0,0.682-0.061,0.925-0.185c0.243-0.123,0.365-0.331,0.365-0.625c0-0.14-0.021-0.26-0.065-0.36
		c-0.043-0.1-0.114-0.189-0.215-0.27c-0.1-0.08-0.231-0.156-0.395-0.23c-0.164-0.072-0.365-0.16-0.605-0.26
		c-0.193-0.08-0.376-0.161-0.55-0.244c-0.174-0.084-0.326-0.181-0.46-0.291c-0.134-0.109-0.24-0.241-0.32-0.395
		s-0.119-0.34-0.119-0.561c0-0.42,0.158-0.76,0.475-1.02s0.751-0.391,1.305-0.391c0.354,0,0.646,0.031,0.875,0.091
		c0.23,0.06,0.392,0.113,0.485,0.159l-0.15,0.58c-0.08-0.039-0.215-0.093-0.405-0.159c-0.189-0.067-0.468-0.101-0.835-0.101
		c-0.146,0-0.284,0.016-0.414,0.045c-0.131,0.031-0.245,0.078-0.346,0.141c-0.1,0.063-0.18,0.145-0.24,0.24
		c-0.06,0.098-0.09,0.216-0.09,0.355c0,0.141,0.027,0.262,0.08,0.361c0.054,0.101,0.132,0.189,0.235,0.266
		c0.104,0.077,0.229,0.148,0.38,0.215s0.321,0.139,0.515,0.219c0.2,0.08,0.392,0.161,0.575,0.244s0.345,0.183,0.485,0.299
		c0.14,0.117,0.253,0.258,0.34,0.42c0.087,0.164,0.13,0.369,0.13,0.615c0,0.467-0.175,0.82-0.525,1.061
		c-0.35,0.24-0.828,0.359-1.435,0.359c-0.453,0-0.8-0.038-1.04-0.115c-0.24-0.076-0.399-0.135-0.479-0.174l0.17-0.59
		c0.02,0.013,0.063,0.034,0.13,0.064c0.066,0.029,0.156,0.063,0.27,0.1c0.113,0.037,0.248,0.068,0.405,0.096
		C259.805,115.771,259.986,115.784,260.193,115.784z"/>
	<path d="M264.474,115.784c0.373,0,0.682-0.061,0.925-0.185c0.243-0.123,0.365-0.331,0.365-0.625c0-0.14-0.021-0.26-0.065-0.36
		c-0.043-0.1-0.114-0.189-0.215-0.27c-0.1-0.08-0.231-0.156-0.395-0.23c-0.164-0.072-0.365-0.16-0.605-0.26
		c-0.193-0.08-0.376-0.161-0.55-0.244c-0.174-0.084-0.326-0.181-0.46-0.291c-0.134-0.109-0.24-0.241-0.32-0.395
		s-0.119-0.34-0.119-0.561c0-0.42,0.158-0.76,0.475-1.02s0.751-0.391,1.305-0.391c0.354,0,0.646,0.031,0.875,0.091
		c0.23,0.06,0.392,0.113,0.485,0.159l-0.15,0.58c-0.08-0.039-0.215-0.093-0.405-0.159c-0.189-0.067-0.468-0.101-0.835-0.101
		c-0.146,0-0.284,0.016-0.414,0.045c-0.131,0.031-0.245,0.078-0.346,0.141c-0.1,0.063-0.18,0.145-0.24,0.24
		c-0.06,0.098-0.09,0.216-0.09,0.355c0,0.141,0.027,0.262,0.08,0.361c0.054,0.101,0.132,0.189,0.235,0.266
		c0.104,0.077,0.229,0.148,0.38,0.215s0.321,0.139,0.515,0.219c0.2,0.08,0.392,0.161,0.575,0.244s0.345,0.183,0.485,0.299
		c0.14,0.117,0.253,0.258,0.34,0.42c0.087,0.164,0.13,0.369,0.13,0.615c0,0.467-0.175,0.82-0.525,1.061
		c-0.35,0.24-0.828,0.359-1.435,0.359c-0.453,0-0.8-0.038-1.04-0.115c-0.24-0.076-0.399-0.135-0.479-0.174l0.17-0.59
		c0.02,0.013,0.063,0.034,0.13,0.064c0.066,0.029,0.156,0.063,0.27,0.1c0.113,0.037,0.248,0.068,0.405,0.096
		C264.085,115.771,264.267,115.784,264.474,115.784z"/>
	<path d="M228.284,130.594h-0.649v-6.84c0.193-0.066,0.439-0.13,0.739-0.189c0.301-0.061,0.681-0.091,1.141-0.091
		c0.38,0,0.725,0.062,1.034,0.185c0.311,0.124,0.577,0.303,0.801,0.535c0.223,0.234,0.396,0.518,0.52,0.851s0.186,0.71,0.186,1.13
		c0,0.394-0.052,0.755-0.155,1.085s-0.255,0.613-0.455,0.851c-0.2,0.236-0.445,0.421-0.735,0.555
		c-0.29,0.133-0.621,0.199-0.995,0.199c-0.34,0-0.635-0.048-0.885-0.145s-0.432-0.188-0.545-0.275V130.594z M228.284,127.814
		c0.061,0.047,0.135,0.097,0.226,0.15c0.09,0.054,0.194,0.103,0.314,0.149s0.25,0.086,0.39,0.115c0.141,0.03,0.287,0.045,0.44,0.045
		c0.32,0,0.588-0.055,0.805-0.164c0.217-0.111,0.392-0.261,0.525-0.451c0.133-0.189,0.229-0.412,0.29-0.67
		c0.06-0.256,0.09-0.527,0.09-0.814c0-0.68-0.17-1.201-0.51-1.564s-0.79-0.545-1.351-0.545c-0.319,0-0.578,0.014-0.774,0.045
		c-0.197,0.029-0.345,0.061-0.445,0.094V127.814z"/>
	<path d="M235.034,123.454c0.34,0,0.629,0.049,0.865,0.146s0.429,0.229,0.575,0.4c0.146,0.17,0.253,0.372,0.319,0.604
		c0.067,0.234,0.101,0.486,0.101,0.76v3.26c-0.066,0.021-0.164,0.043-0.29,0.065c-0.127,0.023-0.273,0.049-0.44,0.075
		c-0.166,0.026-0.352,0.049-0.555,0.064c-0.203,0.018-0.412,0.025-0.625,0.025c-0.273,0-0.525-0.029-0.755-0.09
		c-0.23-0.061-0.43-0.154-0.6-0.285c-0.171-0.13-0.304-0.297-0.4-0.5s-0.145-0.451-0.145-0.744c0-0.281,0.053-0.521,0.159-0.721
		s0.257-0.365,0.45-0.495s0.424-0.225,0.69-0.284c0.267-0.061,0.557-0.091,0.87-0.091c0.093,0,0.191,0.005,0.295,0.015
		c0.103,0.011,0.203,0.023,0.3,0.041c0.097,0.016,0.18,0.033,0.25,0.049c0.069,0.018,0.118,0.032,0.145,0.046v-0.32
		c0-0.18-0.014-0.354-0.04-0.524s-0.085-0.324-0.175-0.461s-0.217-0.246-0.38-0.33c-0.163-0.082-0.379-0.125-0.645-0.125
		c-0.381,0-0.664,0.027-0.851,0.08c-0.187,0.054-0.323,0.098-0.41,0.131l-0.09-0.57c0.113-0.053,0.288-0.104,0.525-0.15
		C234.416,123.477,234.701,123.454,235.034,123.454z M235.095,128.274c0.253,0,0.475-0.008,0.665-0.025
		c0.189-0.016,0.352-0.037,0.484-0.064v-1.82c-0.073-0.033-0.189-0.068-0.35-0.104s-0.38-0.056-0.66-0.056
		c-0.16,0-0.327,0.012-0.5,0.035c-0.174,0.023-0.333,0.074-0.479,0.15c-0.147,0.076-0.268,0.182-0.36,0.314
		c-0.094,0.134-0.14,0.311-0.14,0.531c0,0.193,0.031,0.355,0.095,0.489s0.153,0.24,0.27,0.319c0.117,0.08,0.257,0.139,0.42,0.176
		C234.703,128.256,234.888,128.274,235.095,128.274z"/>
	<path d="M240.314,123.474c0.213,0,0.415,0.017,0.604,0.05c0.19,0.033,0.322,0.066,0.396,0.101l-0.13,0.56
		c-0.054-0.026-0.162-0.055-0.325-0.085s-0.379-0.045-0.646-0.045c-0.279,0-0.505,0.021-0.675,0.06
		c-0.17,0.041-0.281,0.074-0.335,0.101v4.53h-0.649v-4.93c0.166-0.074,0.396-0.148,0.689-0.226S239.895,123.474,240.314,123.474z"/>
	<path d="M243.864,123.454c0.34,0,0.629,0.049,0.865,0.146s0.429,0.229,0.575,0.4c0.146,0.17,0.253,0.372,0.319,0.604
		c0.067,0.234,0.101,0.486,0.101,0.76v3.26c-0.066,0.021-0.164,0.043-0.29,0.065c-0.127,0.023-0.273,0.049-0.44,0.075
		c-0.166,0.026-0.352,0.049-0.555,0.064c-0.203,0.018-0.412,0.025-0.625,0.025c-0.273,0-0.525-0.029-0.755-0.09
		c-0.23-0.061-0.43-0.154-0.6-0.285c-0.171-0.13-0.304-0.297-0.4-0.5s-0.145-0.451-0.145-0.744c0-0.281,0.053-0.521,0.159-0.721
		s0.257-0.365,0.45-0.495s0.424-0.225,0.69-0.284c0.267-0.061,0.557-0.091,0.87-0.091c0.093,0,0.191,0.005,0.295,0.015
		c0.103,0.011,0.203,0.023,0.3,0.041c0.097,0.016,0.18,0.033,0.25,0.049c0.069,0.018,0.118,0.032,0.145,0.046v-0.32
		c0-0.18-0.014-0.354-0.04-0.524s-0.085-0.324-0.175-0.461s-0.217-0.246-0.38-0.33c-0.163-0.082-0.379-0.125-0.645-0.125
		c-0.381,0-0.664,0.027-0.851,0.08c-0.187,0.054-0.323,0.098-0.41,0.131l-0.09-0.57c0.113-0.053,0.288-0.104,0.525-0.15
		C243.246,123.477,243.531,123.454,243.864,123.454z M243.925,128.274c0.253,0,0.475-0.008,0.665-0.025
		c0.189-0.016,0.352-0.037,0.484-0.064v-1.82c-0.073-0.033-0.189-0.068-0.35-0.104s-0.38-0.056-0.66-0.056
		c-0.16,0-0.327,0.012-0.5,0.035c-0.174,0.023-0.333,0.074-0.479,0.15c-0.147,0.076-0.268,0.182-0.36,0.314
		c-0.094,0.134-0.14,0.311-0.14,0.531c0,0.193,0.031,0.355,0.095,0.489s0.153,0.24,0.27,0.319c0.117,0.08,0.257,0.139,0.42,0.176
		C243.533,128.256,243.718,128.274,243.925,128.274z"/>
	<path d="M251.229,128.043c0.141-0.285,0.284-0.614,0.432-0.984c0.146-0.37,0.289-0.753,0.426-1.15
		c0.138-0.396,0.265-0.796,0.382-1.199c0.116-0.403,0.215-0.781,0.296-1.135h0.65c-0.121,0.473-0.256,0.939-0.403,1.399
		s-0.304,0.91-0.468,1.351c-0.164,0.439-0.335,0.863-0.513,1.27s-0.351,0.79-0.519,1.15h-0.605c-0.175-0.36-0.35-0.744-0.523-1.15
		c-0.175-0.406-0.344-0.83-0.509-1.27c-0.164-0.44-0.32-0.891-0.468-1.351s-0.282-0.927-0.402-1.399h0.689
		c0.081,0.354,0.18,0.731,0.296,1.135c0.117,0.403,0.244,0.803,0.382,1.199c0.137,0.397,0.279,0.78,0.426,1.15
		C250.945,127.429,251.089,127.758,251.229,128.043z"/>
	<path d="M258.874,126.165c0,0.406-0.059,0.776-0.175,1.109c-0.116,0.334-0.28,0.617-0.49,0.85c-0.21,0.234-0.458,0.416-0.744,0.545
		c-0.287,0.131-0.604,0.195-0.95,0.195s-0.664-0.064-0.95-0.195c-0.287-0.129-0.535-0.311-0.745-0.545
		c-0.21-0.232-0.373-0.516-0.49-0.85c-0.116-0.333-0.175-0.703-0.175-1.109s0.059-0.777,0.175-1.11
		c0.117-0.333,0.28-0.618,0.49-0.854s0.458-0.42,0.745-0.551c0.286-0.129,0.604-0.195,0.95-0.195s0.663,0.066,0.95,0.195
		c0.286,0.131,0.534,0.314,0.744,0.551s0.374,0.521,0.49,0.854S258.874,125.758,258.874,126.165z M258.185,126.165
		c0-0.646-0.15-1.162-0.45-1.545c-0.3-0.384-0.707-0.575-1.22-0.575c-0.514,0-0.92,0.191-1.22,0.575
		c-0.301,0.383-0.45,0.898-0.45,1.545s0.149,1.16,0.45,1.539c0.3,0.381,0.706,0.57,1.22,0.57c0.513,0,0.92-0.189,1.22-0.57
		C258.034,127.325,258.185,126.811,258.185,126.165z"/>
	<path d="M262.424,128.854c-0.4,0-0.754-0.063-1.06-0.189c-0.308-0.127-0.563-0.309-0.766-0.545s-0.358-0.521-0.465-0.851
		s-0.16-0.694-0.16-1.095c0-0.406,0.056-0.777,0.165-1.109c0.11-0.334,0.269-0.621,0.476-0.861c0.206-0.239,0.456-0.424,0.75-0.555
		c0.293-0.129,0.623-0.195,0.989-0.195c0.28,0,0.542,0.023,0.785,0.07s0.432,0.107,0.565,0.18l-0.17,0.561
		c-0.134-0.066-0.284-0.12-0.45-0.16c-0.167-0.039-0.391-0.06-0.67-0.06c-0.574,0-1.009,0.185-1.306,0.555
		c-0.296,0.37-0.444,0.896-0.444,1.575c0,0.307,0.033,0.588,0.1,0.845s0.175,0.478,0.325,0.66c0.15,0.184,0.343,0.327,0.58,0.431
		c0.236,0.103,0.524,0.154,0.865,0.154c0.279,0,0.515-0.031,0.704-0.096c0.19-0.063,0.329-0.117,0.415-0.164l0.141,0.56
		c-0.12,0.067-0.309,0.132-0.565,0.195S262.704,128.854,262.424,128.854z"/>
	<path d="M264.573,126.155c0-0.453,0.065-0.849,0.195-1.186c0.13-0.336,0.3-0.618,0.51-0.845s0.45-0.396,0.72-0.505
		c0.271-0.11,0.549-0.166,0.835-0.166c0.634,0,1.139,0.207,1.516,0.621c0.376,0.413,0.564,1.049,0.564,1.91
		c0,0.053-0.002,0.105-0.005,0.159s-0.009,0.104-0.015,0.15h-3.63c0.02,0.634,0.177,1.12,0.47,1.46s0.76,0.51,1.4,0.51
		c0.353,0,0.633-0.033,0.84-0.1c0.206-0.066,0.356-0.123,0.449-0.17l0.12,0.56c-0.093,0.054-0.269,0.116-0.524,0.19
		c-0.257,0.072-0.559,0.109-0.905,0.109c-0.453,0-0.84-0.066-1.16-0.199c-0.319-0.134-0.583-0.32-0.79-0.561
		c-0.206-0.24-0.356-0.525-0.449-0.855C264.62,126.909,264.573,126.547,264.573,126.155z M268.243,125.745
		c-0.014-0.541-0.14-0.961-0.38-1.26c-0.24-0.301-0.58-0.451-1.02-0.451c-0.233,0-0.442,0.047-0.625,0.141
		c-0.184,0.094-0.344,0.219-0.48,0.375s-0.243,0.338-0.32,0.545c-0.076,0.207-0.121,0.424-0.135,0.65H268.243z M265.774,122.905
		l-0.281-0.311l1.325-1.47l1.325,1.47l-0.281,0.311l-1.044-0.961L265.774,122.905z"/>
</g>
</svg>
