<?xml version="1.0" encoding="utf-8"?>
<!-- Generator: Adobe Illustrator 16.0.0, SVG Export Plug-In . SVG Version: 6.00 Build 0)  -->
<!DOCTYPE svg PUBLIC "-//W3C//DTD SVG 1.1//EN" "http://www.w3.org/Graphics/SVG/1.1/DTD/svg11.dtd">
<svg version="1.1" id="Layer_1" xmlns="http://www.w3.org/2000/svg" xmlns:xlink="http://www.w3.org/1999/xlink" x="0px" y="0px"
	 width="332.309px" height="400px" viewBox="0 0 332.309 400" enable-background="new 0 0 332.309 400" xml:space="preserve">
<g>
	<polygon fill="#996699" points="332.309,300 166.154,400 0,300 0,100 166.154,0 332.309,100 	"/>
	<g>
		<g id="layer1" transform="translate(-256.6798,-531.7963)">
			<path id="text5540" fill="#FFFFFF" stroke="#FFFFFF" stroke-width="5" stroke-miterlimit="10" d="M394.094,831.796h-17.762
				c2.584-12.129,3.875-23.107,3.875-32.938V681.634c0-12.2,1.076-21.275,3.23-27.233c2.223-5.955,6.494-11.194,12.809-15.716
				c6.387-4.593,14.352-6.889,23.896-6.889c11.338,0,20.846,3.014,28.524,9.042c7.752,5.956,11.627,14.461,11.627,25.511
				c0,12.917-6.137,23.503-18.406,31.756c18.299,8.611,27.449,22.137,27.449,40.58c0,10.047-2.441,19.053-7.32,27.019
				c-4.809,7.893-10.406,13.527-16.793,16.9c-6.314,3.372-13.885,5.059-22.713,5.059c-10.045,0-18.227-3.767-24.541-11.304v20.021
				C397.969,810.16,396.676,821.964,394.094,831.796 M397.969,766.671c5.598,9.258,13.42,13.887,23.465,13.887
				c9.69,0,16.793-3.516,21.313-10.549c4.521-7.104,6.781-15.715,6.781-25.833c0-7.751-1.506-15.646-4.521-23.682
				c-2.939-8.111-6.744-14.281-11.408-18.515c-4.307,1.076-8.182,1.614-11.625,1.614c-7.248,0-10.873-1.902-10.873-5.705
				c0-3.444,3.051-5.168,9.15-5.168c3.803,0,8.54,0.862,14.209,2.584c5.094-8.61,7.643-17.976,7.643-28.096
				c0-9.042-2.01-15.967-6.027-20.773c-3.947-4.808-9.115-7.212-15.502-7.212c-5.094,0-9.473,1.436-13.131,4.305
				c-3.59,2.871-6.064,6.316-7.428,10.336c-1.365,3.945-2.045,10.44-2.045,19.482V766.671"/>
		</g>
	</g>
</g>
</svg>
