<?xml version="1.0" encoding="utf-8"?>
<!-- Generator: Adobe Illustrator 16.0.0, SVG Export Plug-In . SVG Version: 6.00 Build 0)  -->
<!DOCTYPE svg PUBLIC "-//W3C//DTD SVG 1.1//EN" "http://www.w3.org/Graphics/SVG/1.1/DTD/svg11.dtd">
<svg version="1.1" id="Layer_1" xmlns="http://www.w3.org/2000/svg" xmlns:xlink="http://www.w3.org/1999/xlink" x="0px" y="0px"
	 width="332.308px" height="400px" viewBox="0 0 332.308 400" enable-background="new 0 0 332.308 400" xml:space="preserve">
<g>
	<polygon fill="#3499CD" points="332.308,300 166.153,400 0,300 0,100 166.153,0 332.308,100 	"/>
	<g>
		<g>
			<rect x="109.219" y="212.748" fill="#FFFFFF" width="113.869" height="41.059"/>
			<path fill="#FFFFFF" d="M137.285,225.738c0,15.501-12.564,28.068-28.066,28.068c-15.5,0-28.065-12.567-28.065-28.068
				c0-15.498,12.565-28.063,28.065-28.063C124.721,197.676,137.285,210.24,137.285,225.738z"/>
			<path fill="#FFFFFF" d="M251.154,225.738c0,15.501-12.566,28.068-28.066,28.068c-15.502,0-28.066-12.567-28.066-28.068
				c0-15.498,12.564-28.063,28.066-28.063C238.587,197.676,251.154,210.24,251.154,225.738z"/>
			<circle fill="#FFFFFF" cx="131.512" cy="191.098" r="28.066"/>
			<circle fill="#FFFFFF" cx="200.152" cy="191.098" r="28.066"/>
			<path fill="#FFFFFF" d="M194.218,174.259c0,15.501-12.564,28.067-28.065,28.067c-15.501,0-28.065-12.566-28.065-28.067
				c0-15.498,12.564-28.065,28.065-28.065C181.654,146.193,194.218,158.761,194.218,174.259z"/>
			<rect x="109.219" y="199.92" fill="#FFFFFF" width="113.869" height="28.226"/>
		</g>
	</g>
</g>
</svg>
