<?xml version="1.0" encoding="UTF-8" standalone="no"?>
<!-- Created with Inkscape (http://www.inkscape.org/) -->

<svg
   xmlns:dc="http://purl.org/dc/elements/1.1/"
   xmlns:cc="http://creativecommons.org/ns#"
   xmlns:rdf="http://www.w3.org/1999/02/22-rdf-syntax-ns#"
   xmlns:svg="http://www.w3.org/2000/svg"
   xmlns="http://www.w3.org/2000/svg"
   xmlns:sodipodi="http://sodipodi.sourceforge.net/DTD/sodipodi-0.dtd"
   xmlns:inkscape="http://www.inkscape.org/namespaces/inkscape"
   id="svg2"
   version="1.1"
   inkscape:version="0.91 r13725"
   xml:space="preserve"
   width="2223.9751"
   height="682.56873"
   viewBox="0 0 2223.9751 682.56873"
   sodipodi:docname="eosd.svg"><metadata
     id="metadata8"><rdf:RDF><cc:Work
         rdf:about=""><dc:format>image/svg+xml</dc:format><dc:type
           rdf:resource="http://purl.org/dc/dcmitype/StillImage" /><dc:title></dc:title></cc:Work></rdf:RDF></metadata><defs
     id="defs6"><clipPath
       clipPathUnits="userSpaceOnUse"
       id="clipPath20"><path
         d="m 0,546.055 1779.178,0 L 1779.178,0 0,0 0,546.055 Z"
         id="path22"
         inkscape:connector-curvature="0" /></clipPath></defs><sodipodi:namedview
     pagecolor="#ffffff"
     bordercolor="#666666"
     borderopacity="1"
     objecttolerance="10"
     gridtolerance="10"
     guidetolerance="10"
     inkscape:pageopacity="0"
     inkscape:pageshadow="2"
     inkscape:window-width="1366"
     inkscape:window-height="744"
     id="namedview4"
     showgrid="false"
     inkscape:zoom="0.13714182"
     inkscape:cx="1111.9875"
     inkscape:cy="341.28436"
     inkscape:window-x="0"
     inkscape:window-y="24"
     inkscape:window-maximized="1"
     inkscape:current-layer="text60" /><g
     id="g10"
     inkscape:groupmode="layer"
     inkscape:label="EOSD"
     transform="matrix(1.25,0,0,-1.25,0,682.56875)"><g
       id="g12"
       transform="translate(432.2231,173.0273)"><path
         d="M 0,0 -165,-100 -330,0 -329.999,200 -165,300 0,200 0,0 Z"
         style="fill:#6fe565;fill-opacity:1;fill-rule:nonzero;stroke:none"
         id="path14"
         inkscape:connector-curvature="0" /></g><g
       id="g16"><g
         id="g18"
         clip-path="url(#clipPath20)"><g
           id="g24"
           transform="translate(268.416,261.5957)"><path
             d="m 0,0 c 0,0 -0.467,2.275 -0.808,6.127 -0.208,1.92 -0.268,4.27 -0.462,6.867 -0.17,2.592 -0.321,5.471 -0.351,8.537 -0.156,3.109 -0.178,6.43 -0.195,9.882 -0.141,3.445 -0.012,7.046 -0.165,10.668 0.001,3.647 -0.191,7.304 -0.303,10.951 -0.152,1.789 -0.199,3.625 -0.346,5.394 -0.093,0.875 -0.204,1.748 -0.273,2.625 -0.076,0.876 -0.122,1.768 -0.294,2.585 -0.264,1.662 -0.428,3.395 -0.807,4.924 -0.176,0.776 -0.293,1.599 -0.475,2.349 -0.207,0.73 -0.423,1.454 -0.598,2.195 -0.872,2.82 -1.8,5.421 -3.064,7.581 -1.261,2.155 -2.757,4.05 -4.621,5.721 -1.853,1.669 -4.069,3.087 -6.412,4.226 -2.351,1.11 -4.794,1.967 -7.075,2.597 -2.289,0.662 -4.411,1.055 -6.206,1.353 -1.805,0.294 -3.261,0.42 -4.278,0.467 -0.496,10e-4 -0.916,0.029 -1.163,-0.016 -0.278,-0.036 -0.421,-0.054 -0.421,-0.054 0,0 0.074,0.122 0.217,0.358 0.153,0.264 0.417,0.589 0.803,0.996 0.768,0.797 2.002,1.89 3.734,2.972 1.73,1.111 3.955,2.282 6.705,3.232 2.749,0.936 6.027,1.748 9.822,1.931 3.781,0.159 8.114,-0.292 12.587,-1.884 4.463,-1.565 8.99,-4.359 12.746,-8.133 3.776,-3.778 6.571,-8.402 8.619,-13.163 0.481,-1.188 0.923,-2.399 1.376,-3.612 0.425,-1.208 0.696,-2.413 1.029,-3.632 0.734,-2.452 1.012,-4.847 1.409,-7.269 0.207,-1.222 0.264,-2.399 0.35,-3.585 0.089,-1.183 0.135,-2.37 0.199,-3.55 C 21.373,58.449 21.275,57.32 21.26,56.164 21.224,55.016 21.201,53.871 21.139,52.733 20.797,48.24 20.231,43.876 19.279,39.818 18.476,35.7 17.202,31.921 16.038,28.327 14.759,24.779 13.343,21.518 11.988,18.535 10.512,15.563 9.036,12.907 7.691,10.593 7.009,9.427 6.354,8.396 5.679,7.448 5.021,6.498 4.427,5.622 3.841,4.844 1.57,1.714 0,0 0,0"
             style="fill:#1eb209;fill-opacity:1;fill-rule:nonzero;stroke:none"
             id="path26"
             inkscape:connector-curvature="0" /></g><g
           id="g28"
           transform="translate(261.0776,269.8936)"><path
             d="m 0,0 c 0,0 1.395,1.858 4.052,4.666 1.3,1.429 3.02,3.031 4.836,4.898 1.828,1.845 3.883,3.866 6.159,5.921 2.224,2.177 4.696,4.395 7.27,6.697 2.487,2.388 5.268,4.678 7.878,7.194 2.731,2.416 5.343,4.984 8,7.485 1.239,1.3 2.582,2.552 3.809,3.834 0.593,0.65 1.173,1.312 1.785,1.945 0.605,0.637 1.243,1.263 1.74,1.933 1.07,1.3 2.259,2.571 3.152,3.867 0.465,0.648 1.004,1.281 1.445,1.914 0.409,0.638 0.808,1.281 1.247,1.903 1.533,2.521 2.865,4.941 3.645,7.318 0.777,2.373 1.205,4.749 1.221,7.252 0.021,2.493 -0.385,5.093 -1.086,7.602 -0.727,2.496 -1.705,4.893 -2.745,7.019 -1.022,2.153 -2.134,4.002 -3.101,5.543 -0.976,1.547 -1.847,2.721 -2.486,3.514 -0.328,0.371 -0.585,0.705 -0.782,0.86 -0.211,0.184 -0.32,0.279 -0.32,0.279 0,0 0.14,0.025 0.412,0.075 0.299,0.06 0.718,0.077 1.278,0.059 1.106,-0.047 2.742,-0.247 4.7,-0.827 1.979,-0.558 4.331,-1.448 6.865,-2.878 2.522,-1.437 5.304,-3.353 7.956,-6.074 2.626,-2.726 5.159,-6.268 6.933,-10.673 1.785,-4.38 2.694,-9.62 2.358,-14.934 C 75.895,51.06 74.285,45.902 72.078,41.213 71.507,40.065 70.893,38.932 70.285,37.788 69.663,36.669 68.94,35.668 68.248,34.61 66.898,32.437 65.29,30.642 63.739,28.738 62.961,27.773 62.118,26.95 61.287,26.101 60.459,25.248 59.602,24.428 58.76,23.597 57.931,22.738 57.021,22.062 56.145,21.308 55.261,20.574 54.389,19.832 53.496,19.125 49.905,16.402 46.262,13.934 42.593,11.957 38.978,9.829 35.302,8.277 31.84,6.768 28.336,5.374 24.955,4.271 21.824,3.31 18.621,2.445 15.654,1.789 13.03,1.262 11.705,1 10.498,0.807 9.341,0.685 8.193,0.547 7.144,0.412 6.173,0.335 2.324,-0.04 0,0 0,0"
             style="fill:#1eb209;fill-opacity:1;fill-rule:nonzero;stroke:none"
             id="path30"
             inkscape:connector-curvature="0" /></g><g
           id="g32"
           transform="translate(264.5723,284.8506)"><path
             d="m 0,0 c 0,0 1.88,-1.364 4.731,-3.976 1.45,-1.276 3.081,-2.969 4.977,-4.755 1.875,-1.797 3.928,-3.82 6.02,-6.062 2.213,-2.188 4.471,-4.624 6.814,-7.16 2.429,-2.447 4.764,-5.192 7.321,-7.76 2.461,-2.691 5.071,-5.261 7.615,-7.877 1.32,-1.218 2.594,-2.54 3.896,-3.746 0.658,-0.583 1.331,-1.151 1.973,-1.753 0.647,-0.595 1.284,-1.223 1.962,-1.709 1.316,-1.048 2.607,-2.217 3.918,-3.089 0.654,-0.454 1.296,-0.982 1.936,-1.413 0.645,-0.398 1.294,-0.787 1.923,-1.216 2.546,-1.492 4.987,-2.785 7.376,-3.525 2.386,-0.739 4.769,-1.128 7.272,-1.104 2.494,0.019 5.086,0.468 7.584,1.208 2.484,0.768 4.865,1.785 6.974,2.859 2.135,1.056 3.967,2.198 5.493,3.19 1.53,1 2.69,1.89 3.472,2.542 0.367,0.334 0.696,0.596 0.848,0.796 0.18,0.214 0.273,0.324 0.273,0.324 0,0 0.028,-0.139 0.082,-0.411 0.065,-0.298 0.089,-0.716 0.08,-1.276 -0.029,-1.107 -0.203,-2.746 -0.751,-4.713 -0.527,-1.988 -1.378,-4.353 -2.767,-6.91 -1.397,-2.545 -3.268,-5.358 -5.945,-8.053 -2.682,-2.67 -6.184,-5.261 -10.559,-7.104 -4.351,-1.857 -9.576,-2.85 -14.894,-2.601 -5.337,0.239 -10.519,1.766 -15.244,3.897 -1.156,0.551 -2.3,1.147 -3.453,1.736 -1.129,0.604 -2.141,1.31 -3.211,1.986 -2.195,1.314 -4.016,2.893 -5.945,4.412 -0.977,0.762 -1.813,1.592 -2.677,2.409 -0.865,0.814 -1.699,1.658 -2.544,2.486 -0.872,0.815 -1.562,1.713 -2.331,2.577 -0.749,0.872 -1.504,1.731 -2.226,2.613 -2.781,3.546 -5.308,7.149 -7.345,10.784 -2.186,3.581 -3.797,7.231 -5.363,10.668 -1.451,3.481 -2.608,6.843 -3.62,9.958 -0.917,3.19 -1.622,6.146 -2.191,8.761 -0.283,1.32 -0.496,2.524 -0.638,3.678 C 0.681,-8.184 0.528,-7.136 0.435,-6.167 -0.002,-2.324 0,0 0,0"
             style="fill:#1eb209;fill-opacity:1;fill-rule:nonzero;stroke:none"
             id="path34"
             inkscape:connector-curvature="0" /></g><g
           id="g36"
           transform="translate(275.3389,265.3506)"><path
             d="m 0,0 c 0,0 -1.916,1.314 -4.833,3.851 -1.483,1.238 -3.157,2.888 -5.099,4.624 -1.921,1.749 -4.027,3.716 -6.176,5.903 -2.27,2.13 -4.59,4.506 -6.998,6.98 -2.493,2.383 -4.898,5.066 -7.522,7.567 -2.53,2.626 -5.206,5.127 -7.818,7.675 -1.351,1.183 -2.659,2.472 -3.992,3.643 -0.673,0.566 -1.36,1.117 -2.018,1.701 -0.663,0.578 -1.315,1.189 -2.005,1.658 -1.344,1.013 -2.664,2.148 -3.998,2.986 -0.666,0.436 -1.322,0.947 -1.973,1.362 -0.654,0.381 -1.314,0.753 -1.954,1.165 -2.584,1.425 -5.058,2.655 -7.466,3.332 -2.403,0.677 -4.796,1.003 -7.297,0.913 -2.492,-0.084 -5.072,-0.6 -7.549,-1.406 -2.463,-0.832 -4.817,-1.911 -6.897,-3.04 -2.107,-1.111 -3.908,-2.302 -5.406,-3.333 -1.504,-1.041 -2.641,-1.96 -3.405,-2.633 -0.357,-0.343 -0.679,-0.613 -0.826,-0.817 -0.175,-0.219 -0.265,-0.332 -0.265,-0.332 0,0 -0.032,0.139 -0.093,0.409 -0.073,0.296 -0.108,0.713 -0.114,1.273 10e-4,1.108 0.131,2.751 0.628,4.732 0.473,2.001 1.263,4.389 2.584,6.98 1.329,2.581 3.126,5.442 5.732,8.206 2.612,2.74 6.044,5.421 10.37,7.379 4.301,1.969 9.498,3.099 14.822,2.989 5.341,-0.101 10.561,-1.492 15.34,-3.497 1.17,-0.523 2.33,-1.088 3.498,-1.647 1.144,-0.575 2.174,-1.255 3.261,-1.901 2.229,-1.256 4.091,-2.788 6.058,-4.256 0.997,-0.737 1.854,-1.544 2.739,-2.338 0.886,-0.791 1.742,-1.613 2.608,-2.419 0.893,-0.793 1.606,-1.672 2.397,-2.516 0.771,-0.852 1.549,-1.692 2.294,-2.554 2.872,-3.473 5.492,-7.008 7.623,-10.59 2.279,-3.523 3.985,-7.128 5.641,-10.524 1.54,-3.441 2.784,-6.773 3.878,-9.86 1,-3.164 1.781,-6.102 2.419,-8.7 0.317,-1.314 0.561,-2.511 0.732,-3.661 C -0.894,8.163 -0.714,7.12 -0.596,6.153 -0.059,2.323 0,0 0,0"
             style="fill:#1eb209;fill-opacity:1;fill-rule:nonzero;stroke:none"
             id="path38"
             inkscape:connector-curvature="0" /></g><g
           id="g40"
           transform="translate(278.5156,275.1621)"><path
             d="m 0,0 c 0,0 -1.478,-1.792 -4.262,-4.476 -1.363,-1.367 -3.155,-2.889 -5.055,-4.67 -1.911,-1.76 -4.057,-3.684 -6.424,-5.633 -2.322,-2.073 -4.893,-4.175 -7.57,-6.356 -2.593,-2.272 -5.477,-4.432 -8.199,-6.825 -2.84,-2.289 -5.566,-4.734 -8.335,-7.111 -1.297,-1.242 -2.697,-2.431 -3.981,-3.656 -0.622,-0.621 -1.232,-1.256 -1.871,-1.86 -0.635,-0.609 -1.301,-1.205 -1.828,-1.851 -1.128,-1.25 -2.375,-2.465 -3.327,-3.719 -0.494,-0.625 -1.061,-1.234 -1.53,-1.845 -0.438,-0.619 -0.867,-1.243 -1.333,-1.844 -1.648,-2.449 -3.09,-4.804 -3.977,-7.143 -0.886,-2.335 -1.422,-4.69 -1.553,-7.19 -0.136,-2.489 0.15,-5.104 0.734,-7.643 0.613,-2.527 1.479,-4.966 2.42,-7.138 0.922,-2.196 1.948,-4.096 2.843,-5.68 0.904,-1.589 1.721,-2.802 2.322,-3.623 0.311,-0.386 0.552,-0.731 0.743,-0.895 0.202,-0.194 0.307,-0.293 0.307,-0.293 0,0 -0.142,-0.02 -0.416,-0.057 -0.301,-0.046 -0.72,-0.044 -1.279,0 -1.102,0.098 -2.728,0.372 -4.658,1.042 -1.951,0.648 -4.259,1.645 -6.725,3.19 -2.453,1.551 -5.144,3.593 -7.669,6.433 -2.497,2.843 -4.866,6.498 -6.435,10.98 -1.582,4.458 -2.249,9.734 -1.669,15.027 0.57,5.312 2.415,10.389 4.835,14.972 0.623,1.12 1.288,2.224 1.948,3.339 0.673,1.089 1.441,2.055 2.181,3.081 1.448,2.11 3.138,3.829 4.773,5.66 0.822,0.928 1.702,1.711 2.571,2.521 0.865,0.814 1.76,1.594 2.638,2.385 0.869,0.82 1.808,1.453 2.718,2.167 0.917,0.693 1.822,1.394 2.746,2.06 3.712,2.554 7.464,4.853 11.22,6.66 3.71,1.96 7.452,3.341 10.98,4.691 3.564,1.232 6.992,2.177 10.164,2.994 3.24,0.717 6.234,1.237 8.879,1.643 1.336,0.2 2.55,0.338 3.711,0.408 1.153,0.084 2.208,0.171 3.181,0.204 C -2.319,0.146 0,0 0,0"
             style="fill:#1eb209;fill-opacity:1;fill-rule:nonzero;stroke:none"
             id="path42"
             inkscape:connector-curvature="0" /></g><g
           id="g44"
           transform="translate(261.3022,274.7637)"><path
             d="m 0,0 c 0,0 2.293,0.37 6.156,0.548 1.927,0.127 4.277,0.087 6.881,0.171 2.596,0.06 5.478,0.089 8.543,-0.011 3.113,0.024 6.432,-0.094 9.881,-0.223 C 34.91,0.479 38.502,0.198 42.127,0.198 45.77,0.043 49.433,0.08 53.081,0.037 c 1.794,0.076 3.631,0.046 5.404,0.117 0.877,0.056 1.755,0.131 2.634,0.162 0.878,0.039 1.773,0.047 2.595,0.184 1.672,0.194 3.411,0.283 4.953,0.598 0.784,0.142 1.611,0.225 2.368,0.375 0.737,0.175 1.471,0.361 2.218,0.505 2.855,0.751 5.493,1.569 7.704,2.739 2.206,1.17 4.163,2.584 5.911,4.375 1.746,1.78 3.256,3.933 4.493,6.226 1.208,2.303 2.167,4.707 2.894,6.959 0.757,2.259 1.24,4.364 1.613,6.144 0.37,1.791 0.557,3.241 0.647,4.255 0.022,0.495 0.068,0.913 0.033,1.162 -0.024,0.279 -0.037,0.423 -0.037,0.423 0,0 0.119,-0.079 0.349,-0.232 0.258,-0.164 0.571,-0.442 0.962,-0.843 0.764,-0.802 1.803,-2.082 2.811,-3.858 1.038,-1.774 2.114,-4.047 2.947,-6.835 0.818,-2.785 1.492,-6.096 1.514,-9.895 0,-3.785 -0.634,-8.094 -2.414,-12.495 -1.753,-4.394 -4.736,-8.798 -8.665,-12.391 -3.935,-3.614 -8.673,-6.21 -13.516,-8.055 -1.208,-0.429 -2.437,-0.82 -3.668,-1.221 -1.225,-0.373 -2.44,-0.593 -3.672,-0.874 -2.481,-0.629 -4.885,-0.805 -7.322,-1.1 -1.23,-0.155 -2.408,-0.162 -3.596,-0.198 -1.187,-0.039 -2.374,-0.035 -3.556,-0.049 -1.194,-0.042 -2.317,0.102 -3.472,0.167 -1.146,0.085 -2.288,0.155 -3.422,0.265 -4.475,0.533 -8.811,1.283 -12.825,2.406 -4.08,0.976 -7.802,2.41 -11.343,3.724 -3.49,1.429 -6.69,2.982 -9.612,4.461 -2.907,1.601 -5.498,3.188 -7.753,4.629 C 9.122,-7.401 8.119,-6.704 7.201,-5.989 6.279,-5.292 5.429,-4.661 4.677,-4.043 1.646,-1.641 0,0 0,0"
             style="fill:#1eb209;fill-opacity:1;fill-rule:nonzero;stroke:none"
             id="path46"
             inkscape:connector-curvature="0" /></g><g
           id="g48"
           transform="translate(274.1973,283.1074)"><path
             d="m 0,0 c 0,0 0.408,-2.287 0.648,-6.146 0.158,-1.924 0.157,-4.276 0.283,-6.877 0.103,-2.595 0.178,-5.477 0.129,-8.542 0.075,-3.113 0.01,-6.433 -0.062,-9.884 0.05,-3.448 -0.173,-7.045 -0.113,-10.669 -0.096,-3.646 0,-7.307 0.017,-10.955 0.105,-1.793 0.105,-3.63 0.205,-5.402 0.07,-0.877 0.159,-1.753 0.205,-2.631 0.053,-0.877 0.076,-1.771 0.227,-2.592 0.22,-1.668 0.338,-3.406 0.677,-4.943 0.156,-0.781 0.252,-1.607 0.414,-2.361 0.187,-0.734 0.385,-1.465 0.541,-2.21 0.798,-2.842 1.658,-5.467 2.865,-7.657 1.205,-2.188 2.651,-4.121 4.47,-5.841 1.808,-1.716 3.986,-3.191 6.299,-4.392 2.321,-1.169 4.741,-2.09 7.006,-2.78 2.27,-0.722 4.382,-1.17 6.168,-1.514 1.797,-0.341 3.25,-0.505 4.265,-0.579 0.495,-0.013 0.914,-0.053 1.163,-0.014 0.278,0.029 0.422,0.044 0.422,0.044 0,0 -0.078,-0.12 -0.226,-0.353 -0.161,-0.26 -0.433,-0.578 -0.829,-0.975 -0.789,-0.777 -2.051,-1.836 -3.811,-2.873 -1.758,-1.066 -4.013,-2.179 -6.787,-3.056 -2.771,-0.864 -6.07,-1.591 -9.869,-1.675 -3.784,-0.061 -8.103,0.503 -12.533,2.211 -4.421,1.683 -8.873,4.593 -12.529,8.463 -3.678,3.876 -6.35,8.571 -8.273,13.384 -0.45,1.2 -0.86,2.423 -1.282,3.647 -0.393,1.219 -0.632,2.43 -0.934,3.657 -0.669,2.47 -0.884,4.87 -1.219,7.303 -0.174,1.227 -0.201,2.404 -0.256,3.592 -0.058,1.186 -0.073,2.373 -0.107,3.556 -0.062,1.192 0.064,2.317 0.11,3.473 0.067,1.148 0.119,2.29 0.211,3.426 0.458,4.483 1.138,8.831 2.195,12.862 0.911,4.096 2.283,7.841 3.54,11.404 1.371,3.512 2.872,6.736 4.304,9.682 1.552,2.933 3.097,5.55 4.501,7.828 0.713,1.148 1.395,2.161 2.093,3.091 0.684,0.933 1.3,1.793 1.906,2.556 C -1.614,-1.672 0,0 0,0"
             style="fill:#1eb209;fill-opacity:1;fill-rule:nonzero;stroke:none"
             id="path50"
             inkscape:connector-curvature="0" /></g><g
           id="g52"
           transform="translate(272.8916,271.4932)"><path
             d="m 0,0 c 0,0 -2.289,-0.396 -6.149,-0.619 -1.925,-0.15 -4.276,-0.137 -6.878,-0.251 -2.596,-0.09 -5.477,-0.152 -8.543,-0.088 -3.112,-0.061 -6.432,0.02 -9.883,0.109 -3.448,-0.035 -7.044,0.205 -10.668,0.162 -3.645,0.114 -7.306,0.035 -10.955,0.036 -1.793,-0.097 -3.63,-0.088 -5.402,-0.181 -0.877,-0.065 -1.753,-0.15 -2.632,-0.192 -0.878,-0.049 -1.772,-0.067 -2.593,-0.214 -1.669,-0.213 -3.406,-0.323 -4.946,-0.655 -0.782,-0.152 -1.608,-0.244 -2.363,-0.402 -0.735,-0.184 -1.467,-0.378 -2.212,-0.53 -2.845,-0.785 -5.474,-1.633 -7.671,-2.829 -2.193,-1.195 -4.133,-2.632 -5.86,-4.443 -1.726,-1.8 -3.211,-3.971 -4.422,-6.278 -1.181,-2.315 -2.113,-4.731 -2.814,-6.992 -0.731,-2.267 -1.19,-4.376 -1.543,-6.161 -0.349,-1.795 -0.52,-3.247 -0.598,-4.262 -0.016,-0.495 -0.058,-0.914 -0.021,-1.163 0.028,-0.278 0.042,-0.422 0.042,-0.422 0,0 -0.119,0.077 -0.352,0.228 -0.258,0.161 -0.575,0.435 -0.971,0.833 -0.772,0.793 -1.826,2.06 -2.854,3.825 -1.058,1.762 -2.16,4.022 -3.025,6.801 -0.851,2.775 -1.562,6.077 -1.627,9.875 -0.043,3.785 0.541,8.101 2.27,12.523 1.702,4.413 4.633,8.852 8.521,12.489 3.893,3.659 8.6,6.31 13.422,8.21 1.202,0.445 2.427,0.849 3.653,1.265 1.221,0.388 2.433,0.621 3.662,0.916 2.473,0.658 4.874,0.861 7.308,1.184 1.228,0.169 2.406,0.191 3.593,0.24 1.187,0.052 2.374,0.062 3.556,0.09 1.193,0.056 2.317,-0.076 3.473,-0.126 1.147,-0.072 2.29,-0.129 3.425,-0.227 4.481,-0.48 8.825,-1.181 12.851,-2.256 4.092,-0.93 7.831,-2.32 11.387,-3.594 3.506,-1.387 6.723,-2.903 9.662,-4.349 2.925,-1.567 5.534,-3.123 7.806,-4.538 C -9.207,7.296 -8.196,6.609 -7.27,5.906 -6.34,5.219 -5.483,4.598 -4.724,3.988 -1.665,1.622 0,0 0,0"
             style="fill:#1eb209;fill-opacity:1;fill-rule:nonzero;stroke:none"
             id="path54"
             inkscape:connector-curvature="0" /></g><g
           id="g56"
           transform="translate(268.416,261.5957)"><path
             d="m 0,0 c 0,0 -0.467,2.275 -0.808,6.127 -0.208,1.92 -0.268,4.27 -0.462,6.867 -0.17,2.592 -0.321,5.471 -0.351,8.537 -0.156,3.109 -0.178,6.43 -0.195,9.882 -0.141,3.445 -0.012,7.046 -0.165,10.668 0.001,3.647 -0.191,7.304 -0.303,10.951 -0.152,1.789 -0.199,3.625 -0.346,5.394 -0.093,0.875 -0.204,1.748 -0.273,2.625 -0.076,0.876 -0.122,1.768 -0.294,2.585 -0.264,1.662 -0.428,3.395 -0.807,4.924 -0.176,0.776 -0.293,1.599 -0.475,2.349 -0.207,0.73 -0.423,1.454 -0.598,2.195 -0.872,2.82 -1.8,5.421 -3.064,7.581 -1.261,2.155 -2.757,4.05 -4.621,5.721 -1.853,1.669 -4.069,3.087 -6.412,4.226 -2.351,1.11 -4.794,1.967 -7.075,2.597 -2.289,0.662 -4.411,1.055 -6.206,1.353 -1.805,0.294 -3.261,0.42 -4.278,0.467 -0.496,10e-4 -0.916,0.029 -1.163,-0.016 -0.278,-0.036 -0.421,-0.054 -0.421,-0.054 0,0 0.074,0.122 0.217,0.358 0.153,0.264 0.417,0.589 0.803,0.996 0.768,0.797 2.002,1.89 3.734,2.972 1.73,1.111 3.955,2.282 6.705,3.232 2.749,0.936 6.027,1.748 9.822,1.931 3.781,0.159 8.114,-0.292 12.587,-1.884 4.463,-1.565 8.99,-4.359 12.746,-8.133 3.776,-3.778 6.571,-8.402 8.619,-13.163 0.481,-1.188 0.923,-2.399 1.376,-3.612 0.425,-1.208 0.696,-2.413 1.029,-3.632 0.734,-2.452 1.012,-4.847 1.409,-7.269 0.207,-1.222 0.264,-2.399 0.35,-3.585 0.089,-1.183 0.135,-2.37 0.199,-3.55 C 21.373,58.449 21.275,57.32 21.26,56.164 21.224,55.016 21.201,53.871 21.139,52.733 20.797,48.24 20.231,43.876 19.279,39.818 18.476,35.7 17.202,31.921 16.038,28.327 14.759,24.779 13.343,21.518 11.988,18.535 10.512,15.563 9.036,12.907 7.691,10.593 7.009,9.427 6.354,8.396 5.679,7.448 5.021,6.498 4.427,5.622 3.841,4.844 1.57,1.714 0,0 0,0"
             style="fill:#1eb209;fill-opacity:1;fill-rule:nonzero;stroke:none"
             id="path58"
             inkscape:connector-curvature="0" /></g></g></g><g
       transform="matrix(1,0,0,-1,473.6284,134.5508)"
       style="font-variant:normal;font-weight:bold;font-stretch:normal;font-size:400px;font-family:Ubuntu;-inkscape-font-specification:Ubuntu-Bold;writing-mode:lr-tb;fill:#231f20;fill-opacity:1;fill-rule:nonzero;stroke:none"
       id="text60"><path
         d="m 32,0 0,-277.2 187.2,0 0,52.4 -124.8,0 0,54.4 110.8,0 0,51.2 -110.8,0 0,66.8 134,0 0,52.4 L 32,0 Z"
         style=""
         id="path3399" /><path
         d="m 319.6,-138.8 q 0,20.4 4.8,36.8 5.2,16.4 14.4,28.4 9.6,11.6 23.2,18 13.6,6.4 31.2,6.4 17.2,0 30.8,-6.4 14,-6.4 23.2,-18 9.6,-12 14.4,-28.4 5.2,-16.4 5.2,-36.8 0,-20.4 -5.2,-36.8 -4.8,-16.8 -14.4,-28.4 -9.2,-12 -23.2,-18.4 -13.6,-6.4 -30.8,-6.4 -17.6,0 -31.2,6.8 -13.6,6.4 -23.2,18.4 -9.2,11.6 -14.4,28.4 -4.8,16.4 -4.8,36.4 z m 211.6,0 q 0,35.6 -10.8,62.8 -10.4,26.8 -28.8,45.2 -18.4,18 -44,27.2 -25.2,9.2 -54.4,9.2 -28.4,0 -53.6,-9.2 -25.2,-9.2 -44,-27.2 -18.8,-18.4 -29.6,-45.2 -10.8,-27.2 -10.8,-62.8 0,-35.6 11.2,-62.4 11.2,-27.2 30,-45.6 19.2,-18.4 44,-27.6 25.2,-9.2 52.8,-9.2 28.4,0 53.6,9.2 25.2,9.2 44,27.6 18.8,18.4 29.6,45.6 10.8,26.8 10.8,62.4 z"
         style=""
         id="path3401" /><path
         d="m 658.80001,-47.6 q 13.2,0 21.6,-2 8.8,-2.4 14,-6 5.2,-4 7.2,-9.2 2,-5.2 2,-11.6 0,-13.6 -12.8,-22.4 -12.8,-9.2 -44,-19.6 -13.6,-4.8 -27.2,-10.8 -13.6,-6.4 -24.4,-15.6 -10.8,-9.6 -17.6,-22.8 -6.8,-13.6 -6.8,-32.8 0,-19.2 7.2,-34.4 7.2,-15.6 20.4,-26.4 13.2,-10.8 32,-16.4 18.8,-6 42.4,-6 28,0 48.4,6 20.4,6 33.6,13.2 l -18,49.2 q -11.6,-6 -26,-10.4 -14,-4.8 -34,-4.8 -22.4,0 -32.4,6.4 -9.6,6 -9.6,18.8 0,7.6 3.6,12.8 3.6,5.2 10,9.6 6.8,4 15.2,7.6 8.8,3.2 19.2,6.8 21.6,8 37.6,16 16,7.6 26.4,18 10.8,10.4 16,24.4 5.2,14 5.2,34 0,38.8 -27.2,60.4 -27.2,21.2 -82,21.2 -18.4,0 -33.2,-2.4 -14.8,-2 -26.4,-5.2 -11.2,-3.2 -19.6,-6.8 -8,-3.6 -13.6,-6.8 l 17.6,-49.6 q 12.4,6.8 30.4,12.4 18.4,5.2 44.8,5.2 z"
         style=""
         id="path3403" /><path
         d="m 805.20001,-146.4 116,0 0,54 -116,0 0,-54 z"
         style=""
         id="path3405" /><path
         d="m 1025.6,-50.8 q 4.4,0.4 10,0.8 6,0 14,0 46.8,0 69.2,-23.6 22.8,-23.6 22.8,-65.2 0,-43.6 -21.6,-66 -21.6,-22.4 -68.4,-22.4 -6.4,0 -13.2,0.4 -6.8,0 -12.8,0.8 l 0,175.2 z m 180.4,-88 q 0,36 -11.2,62.8 -11.2,26.8 -32,44.4 -20.4,17.6 -50,26.4 -29.6,8.8 -66.4,8.8 -16.8,0 -39.2,-1.6 -22.39999,-1.2 -43.99999,-5.6 l 0,-270 q 21.6,-4 44.79999,-5.2 23.6,-1.6 40.4,-1.6 35.6,0 64.4,8 29.2,8 50,25.2 20.8,17.2 32,44 11.2,26.8 11.2,64.4 z"
         style=""
         id="path3407" /></g></g></svg>