<?xml version="1.0" encoding="utf-8"?>
<!-- Generator: Adobe Illustrator 16.0.0, SVG Export Plug-In . SVG Version: 6.00 Build 0)  -->
<!DOCTYPE svg PUBLIC "-//W3C//DTD SVG 1.1//EN" "http://www.w3.org/Graphics/SVG/1.1/DTD/svg11.dtd">
<svg version="1.1" id="Layer_1" xmlns="http://www.w3.org/2000/svg" xmlns:xlink="http://www.w3.org/1999/xlink" x="0px" y="0px"
	 width="418px" height="110px" viewBox="0 0 418 110" enable-background="new 0 0 418 110" xml:space="preserve">
<g>
	<g>
		<g>
			<polygon fill="#3399CC" points="85.134,72.01 56.788,89.014 28.44,72.01 28.44,37.994 56.788,20.986 85.134,37.994 			"/>
		</g>
		<g id="g2998" transform="translate(442.60662,436.48545)">
			<path id="path2518" fill="#FFFFFF" d="M-385.822-396.489c-1.336,3.273-2.142,5.416-3.628,8.592
				c0.912,0.969,2.03,2.094,3.849,3.365c-1.954-0.805-3.287-1.613-4.283-2.449c-1.902,3.971-4.884,9.627-10.935,20.498
				c4.755-2.746,8.441-4.438,11.877-5.084c-0.147-0.633-0.231-1.32-0.226-2.037l0.006-0.152c0.075-3.047,1.66-5.389,3.537-5.23
				c1.877,0.16,3.338,2.76,3.262,5.807c-0.015,0.574-0.079,1.125-0.191,1.637c3.397,0.664,7.044,2.354,11.735,5.061
				c-0.925-1.703-1.751-3.238-2.539-4.701c-1.242-0.961-2.537-2.215-5.18-3.57c1.816,0.473,3.117,1.016,4.13,1.625
				C-382.424-388.056-383.073-390.038-385.822-396.489L-385.822-396.489z"/>
		</g>
	</g>
	<g>
		<g>
			<polygon points="237.346,72.01 209,89.014 180.653,72.01 180.653,37.994 209,20.986 237.346,37.994 			"/>
		</g>
		<g>
			<polygon fill="#FFFFFF" points="194,40.051 194,45.988 194,48.855 200.204,48.855 200.204,45.988 217.863,45.988 217.863,63.805 
				215.069,63.805 215.069,69.949 217.863,69.949 224,69.949 224,45.988 224,40.051 			"/>
			<polygon fill="#CFCECE" points="200.171,63.805 200.171,51.928 194.034,51.928 194.034,69.949 200.171,69.949 211.796,69.949 
				211.796,63.805 			"/>
		</g>
	</g>
	<g>
		<g>
			<polygon fill="#6EC498" points="161.24,72.01 132.893,89.014 104.547,72.01 104.547,37.994 132.893,20.986 161.24,37.994 			"/>
		</g>
		<g id="layer1" transform="translate(-173.36079,-579.1488)">
			<path id="path2466" fill="#A8D8B5" d="M317.706,642.036c0,1.787-1.107,3.441-2.512,3.686l-20.393,3.428v-26.283
				c0-2.391,1.908-4.031,4.133-3.666l18.771,3.078V642.036"/>
			<path id="path2468" fill="#FFFFFF" d="M303.588,624.7c-1.452,0-2.604,0.557-3.432,1.711c-0.98,1.367-1.48,3.531-1.48,6.453
				c0,2.709,0.355,4.773,1.071,6.189c0.705,1.395,1.729,2.227,3.035,2.506c0.284,1.377,0.723,2.309,1.324,2.793
				c0.454,0.367,1.06,0.555,1.806,0.555c0.226,0,0.472-0.018,0.723-0.049l0.855-0.121v-1.867c-0.132,0.016-0.258,0.014-0.374,0.014
				c-0.398,0-0.697-0.08-0.891-0.254c-0.249-0.225-0.442-0.65-0.566-1.289c1.229-0.418,2.134-1.332,2.722-2.721
				c0.578-1.367,0.867-3.217,0.867-5.574c0-2.574-0.389-4.533-1.181-5.9c-0.806-1.398-2.047-2.211-3.757-2.408
				C304.063,624.707,303.822,624.7,303.588,624.7z M311.428,625.711l-0.687,2.902l-1.084-0.072v1.939l0.892,0.047v7.346
				c0,0.961,0.188,1.658,0.577,2.096c0.336,0.375,0.829,0.566,1.47,0.566c0.096,0,0.198-0.006,0.301-0.014
				c0.708-0.061,1.421-0.256,2.156-0.576v-1.676c-0.433,0.199-0.828,0.316-1.193,0.338c-0.023,0.002-0.049,0-0.071,0
				c-0.238,0-0.416-0.076-0.53-0.229c-0.128-0.168-0.192-0.531-0.192-1.107v-6.637l1.854,0.086v-1.807l-1.854-0.133v-2.889
				L311.428,625.711z M304.155,626.905c0.05,0,0.105,0.008,0.156,0.01c0.671,0.061,1.172,0.525,1.506,1.385s0.493,2.414,0.493,4.686
				c0,2.531-0.169,4.229-0.506,5.094c-0.338,0.873-0.83,1.33-1.493,1.373c-0.029,0-0.066,0.012-0.096,0.012
				c-0.662,0-1.157-0.48-1.493-1.434c-0.357-1.002-0.542-2.701-0.542-5.105c0-2.488,0.182-4.131,0.542-4.924
				C303.055,627.27,303.534,626.905,304.155,626.905z"/>
		</g>
	</g>
	<g>
		<g>
			<polygon points="313.453,72.01 285.105,89.014 256.76,72.01 256.76,37.994 285.105,20.986 313.453,37.994 			"/>
			<path fill="#996699" d="M285.107,55L285.107,55L285.107,55z"/>
		</g>
		<g id="g4608" transform="translate(-274.76684,-235.92337)">
			
				<path id="path1948" export-ydpi="171.83" export-xdpi="171.83" connector-curvature="0" export-filename="/home/bch/ceci/formation/python-logo.png" fill="#3399CC" d="
				M559.697,275.923c-1.225,0.006-2.393,0.109-3.42,0.291c-3.029,0.535-3.578,1.656-3.578,3.721v2.729h7.156v0.908h-7.156h-2.688
				c-2.08,0-3.9,1.25-4.471,3.629c-0.656,2.727-0.686,4.428,0,7.273c0.51,2.119,1.725,3.629,3.805,3.629h2.461v-3.27
				c0-2.361,2.043-4.447,4.471-4.447h7.148c1.99,0,3.578-1.639,3.578-3.637v-6.814c0-1.939-1.637-3.396-3.578-3.721
				C562.197,276.011,560.919,275.918,559.697,275.923z M555.825,278.117c0.74,0,1.344,0.613,1.344,1.367
				c0,0.752-0.604,1.359-1.344,1.359c-0.742,0-1.342-0.607-1.342-1.359C554.484,278.73,555.083,278.117,555.825,278.117z"/>
			
				<path id="path1950" export-ydpi="171.83" export-xdpi="171.83" connector-curvature="0" export-filename="/home/bch/ceci/formation/python-logo.png" fill="#FFCE0C" d="
				M567.896,283.572v3.178c0,2.465-2.09,4.539-4.471,4.539h-7.148c-1.959,0-3.578,1.676-3.578,3.637v6.814
				c0,1.939,1.686,3.08,3.578,3.637c2.266,0.666,4.438,0.787,7.148,0c1.803-0.521,3.578-1.572,3.578-3.637v-2.729h-7.148v-0.908
				h7.148h3.578c2.08,0,2.855-1.451,3.58-3.629c0.746-2.242,0.715-4.396,0-7.273c-0.516-2.07-1.496-3.629-3.58-3.629H567.896z
				 M563.876,300.832c0.74,0,1.342,0.607,1.342,1.359c0,0.754-0.602,1.367-1.342,1.367s-1.344-0.613-1.344-1.367
				C562.532,301.439,563.136,300.832,563.876,300.832z"/>
		</g>
	</g>
	<g>
		<g>
			<polygon fill="#F89839" points="389.56,72.01 361.214,89.014 332.866,72.01 332.866,37.994 361.214,20.986 389.56,37.994 			"/>
		</g>
		<g>
			<path fill="#FFFFFF" d="M374.711,66.331c0.028-0.523-0.277-1.105-0.98-1.888v-0.001c-0.23-0.262-0.339-0.744-0.458-1.261
				c-0.12-0.513-0.254-1.068-0.679-1.43c0,0-0.002,0.001-0.002,0c-0.169-0.145-0.339-0.25-0.515-0.316
				c0.588-1.743,0.354-3.479-0.239-5.047c-0.729-1.926-2-3.604-2.971-4.752c-1.087-1.37-2.146-2.669-2.128-4.59
				c0.033-2.936,0.32-8.379-4.842-8.387c-0.21,0-0.427,0.01-0.656,0.028c-5.77,0.464-4.239,6.56-4.324,8.601
				c-0.105,1.493-0.408,2.667-1.434,4.127c-1.205,1.435-2.907,3.754-3.711,6.171c-0.381,1.142-0.561,2.306-0.395,3.406
				c-0.052,0.047-0.099,0.096-0.146,0.147c-0.354,0.376-0.616,0.835-0.908,1.145c-0.272,0.271-0.658,0.375-1.085,0.526
				c-0.427,0.155-0.896,0.378-1.182,0.925c0,0,0,0.002,0,0.004c-0.259,0.479-0.182,1.033-0.103,1.546
				c0.077,0.513,0.158,0.996,0.053,1.325c-0.34,0.925-0.382,1.561-0.145,2.024c0.239,0.462,0.729,0.669,1.283,0.786
				c1.105,0.231,2.605,0.172,3.788,0.796v0.006c1.264,0.662,2.548,0.893,3.57,0.66c0.744-0.171,1.344-0.609,1.65-1.29
				c0.802-0.003,1.681-0.346,3.087-0.423c0.953-0.078,2.146,0.34,3.518,0.263c0.034,0.149,0.089,0.291,0.159,0.427
				c0.002,0,0,0.006,0,0.006c0.531,1.063,1.522,1.549,2.573,1.465c1.055-0.082,2.175-0.702,3.08-1.78l-0.165-0.14l0.165,0.137
				c0.863-1.048,2.299-1.482,3.249-2.054C374.294,67.207,374.679,66.851,374.711,66.331z"/>
			<path fill="#FFFFFF" d="M360.983,45.284c-0.006-0.384,0.057-0.71,0.205-1.042c0.146-0.337,0.331-0.576,0.589-0.771
				c0.258-0.194,0.507-0.289,0.805-0.29h0.017c0.294,0,0.543,0.087,0.8,0.271c0.262,0.191,0.45,0.429,0.604,0.763
				c0.147,0.32,0.217,0.636,0.225,1.011c0,0.009,0,0.02,0.004,0.028c0.002,0.385-0.064,0.711-0.209,1.047
				c-0.084,0.188-0.18,0.348-0.293,0.487c-0.041-0.017-0.082-0.036-0.125-0.051c-0.29-0.124-0.513-0.207-0.698-0.27
				c0.068-0.084,0.125-0.179,0.172-0.299c0.077-0.178,0.114-0.357,0.122-0.567c0-0.009,0.003-0.012,0.003-0.024
				c0.005-0.201-0.025-0.373-0.083-0.552c-0.062-0.187-0.143-0.319-0.259-0.429c-0.111-0.111-0.225-0.165-0.36-0.168
				c-0.006,0-0.014,0-0.021,0c-0.129,0.002-0.237,0.045-0.352,0.142c-0.12,0.099-0.213,0.229-0.286,0.408
				c-0.074,0.178-0.111,0.361-0.117,0.572c-0.002,0.007-0.004,0.019-0.004,0.025c-0.002,0.115,0.005,0.221,0.023,0.324
				c-0.262-0.131-0.506-0.221-0.738-0.274c-0.014-0.103-0.02-0.204-0.021-0.311V45.284z"/>
			<path fill="#FFFFFF" d="M357.47,45.37c-0.017-0.331,0.019-0.614,0.11-0.91c0.091-0.295,0.211-0.508,0.39-0.683
				c0.176-0.176,0.354-0.267,0.568-0.275c0.016-0.002,0.034,0,0.051,0c0.194,0,0.365,0.064,0.545,0.21
				c0.195,0.154,0.345,0.353,0.469,0.635c0.125,0.28,0.188,0.559,0.207,0.891c0.01,0.141,0.008,0.272-0.004,0.4
				c-0.038,0.011-0.073,0.021-0.111,0.037c-0.21,0.071-0.396,0.166-0.557,0.272c0.016-0.111,0.019-0.224,0.007-0.349
				c-0.002-0.008,0-0.013,0-0.021c-0.017-0.168-0.053-0.307-0.114-0.449c-0.063-0.147-0.133-0.248-0.226-0.329
				c-0.083-0.074-0.163-0.103-0.251-0.103c-0.008,0-0.017,0-0.026,0c-0.098,0.009-0.181,0.055-0.259,0.15
				c-0.075,0.092-0.128,0.211-0.164,0.364c-0.035,0.154-0.046,0.307-0.026,0.48v0.019c0.015,0.17,0.049,0.31,0.112,0.45
				c0.061,0.147,0.128,0.249,0.22,0.329c0.019,0.014,0.034,0.025,0.048,0.036c-0.097,0.076-0.142,0.108-0.219,0.168
				c-0.053,0.037-0.11,0.081-0.181,0.132c-0.152-0.143-0.274-0.321-0.379-0.559c-0.122-0.28-0.191-0.56-0.21-0.891V45.37z"/>
			<path fill="#FFCE0C" d="M357.726,47.379c0.306-0.23,0.519-0.385,0.662-0.486c0.137-0.104,0.196-0.145,0.24-0.186
				c0.229-0.218,0.596-0.612,1.145-0.803c0.191-0.065,0.4-0.108,0.636-0.11l0.004,0.003c0.454-0.001,0.993,0.147,1.652,0.57
				c0.402,0.262,0.72,0.286,1.444,0.596c0.348,0.142,0.556,0.329,0.655,0.524c0.1,0.197,0.1,0.408,0.018,0.634
				c-0.169,0.448-0.703,0.918-1.453,1.152v0.004c-0.365,0.118-0.685,0.38-1.06,0.593c-0.376,0.215-0.801,0.388-1.379,0.354
				c-0.492-0.027-0.788-0.195-1.053-0.409c-0.267-0.214-0.495-0.48-0.835-0.681v-0.002c-0.549-0.31-0.849-0.666-0.941-0.975
				C357.366,47.848,357.456,47.582,357.726,47.379z"/>
			<path fill="#FFCE0C" d="M357.942,68.686L357.942,68.686c-0.077,1.021-0.652,1.577-1.535,1.777
				c-0.881,0.203-2.077-0.002-3.271-0.624c-1.321-0.7-2.894-0.632-3.902-0.844c-0.503-0.104-0.835-0.262-0.985-0.557
				c-0.15-0.294-0.15-0.808,0.169-1.68V66.75v-0.002c0.159-0.49,0.046-1.025-0.032-1.528c-0.078-0.502-0.118-0.958,0.054-1.279
				l0.004-0.002c0.22-0.424,0.54-0.573,0.941-0.718c0.4-0.144,0.874-0.257,1.247-0.636h0.004v-0.001
				c0.346-0.367,0.607-0.823,0.913-1.148c0.258-0.274,0.515-0.458,0.901-0.461h0.014c0.067,0,0.14,0.01,0.216,0.023
				c0.515,0.075,0.958,0.435,1.392,1.02c0.433,0.587,0.839,1.386,1.251,2.272v0.005c0.333,0.693,1.032,1.453,1.623,2.229
				c0.595,0.778,1.056,1.561,0.997,2.157V68.686z"/>
			<path fill="#FFFFFF" d="M357.835,67.03c-0.163-0.258-0.349-0.517-0.542-0.77c-0.123-0.161-0.25-0.319-0.376-0.479
				c0.248,0,0.46-0.042,0.629-0.12c0.213-0.096,0.359-0.248,0.434-0.445c0.147-0.396,0-0.954-0.472-1.591
				c-0.472-0.639-1.267-1.358-2.442-2.077c-0.86-0.536-1.345-1.195-1.571-1.907c-0.222-0.715-0.19-1.483-0.016-2.247
				c0.335-1.461,1.187-2.882,1.734-3.775c0.146-0.108,0.054,0.199-0.553,1.326c-0.543,1.029-1.562,3.407-0.168,5.264
				c0.036-1.322,0.354-2.666,0.883-3.927c0.773-1.747,2.384-4.777,2.512-7.193c0.065,0.048,0.292,0.203,0.392,0.26
				c0.296,0.174,0.519,0.43,0.807,0.659c0.286,0.232,0.647,0.434,1.19,0.467c0.636,0.036,1.122-0.164,1.519-0.39
				c0.396-0.227,0.713-0.479,1.013-0.576c0.633-0.198,1.137-0.546,1.424-0.955c0.491,1.939,1.635,4.74,2.372,6.106
				c0.388,0.727,1.166,2.268,1.502,4.125c0.214-0.006,0.45,0.026,0.699,0.091c0.88-2.278-0.746-4.733-1.488-5.416
				c-0.299-0.292-0.314-0.423-0.167-0.415c0.808,0.711,1.866,2.147,2.25,3.765c0.176,0.738,0.217,1.512,0.028,2.277
				c0.091,0.037,0.184,0.077,0.278,0.122c1.411,0.687,1.934,1.285,1.682,2.101c-0.081-0.005-0.164-0.003-0.242,0
				c-0.007,0-0.017-0.003-0.024,0c0.205-0.646-0.249-1.121-1.454-1.668c-1.251-0.551-2.248-0.496-2.417,0.618
				c-0.011,0.058-0.02,0.12-0.025,0.182c-0.094,0.03-0.187,0.074-0.279,0.124c-0.589,0.322-0.907,0.903-1.086,1.619
				c-0.178,0.715-0.23,1.579-0.281,2.55c-0.029,0.489-0.233,1.151-0.436,1.851C363.094,68.047,360.25,68.679,357.835,67.03z"/>
			<path stroke="#000000" stroke-width="0.8814" stroke-miterlimit="10" d="M370.108,61.212c-0.211,0.404-1.111,1.04-1.729,0.871
				c-0.631-0.161-0.939-1.07-0.836-1.756c0.054-0.466,0.322-0.668,0.709-0.669c0.255,0,0.565,0.083,0.904,0.236
				C370.07,60.315,370.358,60.681,370.108,61.212z"/>
			<path fill="#FFCE0C" d="M373.594,67.124c-0.859,0.518-2.385,0.969-3.354,2.148c-0.846,1.004-1.877,1.558-2.783,1.63
				c-0.907,0.07-1.687-0.307-2.151-1.23v-0.004l-0.003-0.004c-0.285-0.546-0.164-1.404,0.078-2.312
				c0.24-0.905,0.586-1.832,0.632-2.589V64.76c0.048-0.969,0.104-1.815,0.266-2.47c0.163-0.651,0.419-1.095,0.871-1.345
				c0.021-0.012,0.041-0.022,0.066-0.032c0.05,0.84,0.469,1.694,1.203,1.88c0.805,0.212,1.96-0.479,2.448-1.041
				c0.1-0.004,0.194-0.007,0.287-0.01c0.431-0.009,0.79,0.019,1.157,0.339h0.001c0.282,0.241,0.417,0.691,0.533,1.198
				c0.115,0.506,0.21,1.058,0.561,1.452v0.003c0.671,0.745,0.889,1.25,0.87,1.571C374.258,66.626,374.024,66.865,373.594,67.124z"/>
			<g>
				<path d="M357.973,48.155c0.129,0.12,0.303,0.284,0.515,0.451c0.418,0.334,1.001,0.672,1.744,0.672
					c0.74,0,1.439-0.344,2.028-0.686c0.295-0.17,0.564-0.34,0.793-0.466c0.228-0.128,0.419-0.208,0.531-0.217l-0.012-0.241
					c-0.196,0.013-0.4,0.109-0.64,0.241c-0.239,0.134-0.505,0.303-0.797,0.471c-0.579,0.334-1.244,0.655-1.904,0.655
					c-0.665,0-1.195-0.308-1.593-0.622c-0.199-0.159-0.365-0.317-0.498-0.44c-0.063-0.061-0.122-0.114-0.173-0.155
					c-0.056-0.042-0.095-0.079-0.185-0.079l-0.008,0.185c-0.005,0.063-0.012,0.063-0.008,0.063c0.003,0.005,0.023,0.009,0.048,0.027
					C357.854,48.044,357.908,48.094,357.973,48.155z"/>
				<path d="M374.711,66.331c0.028-0.523-0.277-1.105-0.98-1.888v-0.001c-0.23-0.262-0.339-0.744-0.458-1.261
					c-0.12-0.513-0.254-1.068-0.679-1.43c0,0-0.002,0.001-0.002,0c-0.169-0.145-0.339-0.25-0.515-0.316
					c0.588-1.743,0.354-3.479-0.239-5.047c-0.729-1.926-2-3.604-2.971-4.752c-1.087-1.37-2.146-2.669-2.128-4.59
					c0.033-2.936,0.32-8.379-4.842-8.387c-0.21,0-0.427,0.01-0.656,0.028c-5.77,0.464-4.239,6.56-4.324,8.601
					c-0.105,1.493-0.408,2.667-1.434,4.127c-1.205,1.435-2.907,3.754-3.711,6.171c-0.381,1.142-0.561,2.306-0.395,3.406
					c-0.052,0.047-0.099,0.096-0.146,0.147c-0.354,0.376-0.616,0.835-0.908,1.145c-0.272,0.271-0.658,0.375-1.085,0.526
					c-0.427,0.155-0.896,0.378-1.182,0.925c0,0,0,0.002,0,0.004c-0.259,0.479-0.182,1.033-0.103,1.546
					c0.077,0.513,0.158,0.996,0.053,1.325c-0.34,0.925-0.382,1.561-0.145,2.024c0.239,0.462,0.729,0.669,1.283,0.786
					c1.105,0.231,2.605,0.172,3.788,0.796v0.006c1.264,0.662,2.548,0.893,3.57,0.66c0.744-0.171,1.344-0.609,1.65-1.29
					c0.802-0.003,1.681-0.346,3.087-0.423c0.953-0.078,2.146,0.34,3.518,0.263c0.034,0.149,0.089,0.291,0.159,0.427
					c0.002,0,0,0.006,0,0.006c0.531,1.063,1.522,1.549,2.573,1.465c1.055-0.082,2.175-0.702,3.08-1.78l-0.165-0.14l0.165,0.137
					c0.863-1.048,2.299-1.482,3.249-2.054C374.294,67.207,374.679,66.851,374.711,66.331z M360.983,45.284
					c-0.006-0.384,0.057-0.71,0.205-1.042c0.146-0.337,0.331-0.576,0.589-0.771c0.258-0.194,0.507-0.289,0.805-0.29h0.017
					c0.294,0,0.543,0.087,0.8,0.271c0.262,0.191,0.45,0.429,0.604,0.763c0.147,0.32,0.217,0.636,0.225,1.011
					c0,0.009,0,0.02,0.004,0.028c0.002,0.385-0.064,0.711-0.209,1.047c-0.084,0.188-0.18,0.348-0.293,0.487
					c-0.041-0.017-0.082-0.036-0.125-0.051c-0.29-0.124-0.513-0.207-0.698-0.27c0.068-0.084,0.125-0.179,0.172-0.299
					c0.077-0.178,0.114-0.357,0.122-0.567c0-0.009,0.003-0.012,0.003-0.024c0.005-0.201-0.025-0.373-0.083-0.552
					c-0.062-0.187-0.143-0.319-0.259-0.429c-0.111-0.111-0.225-0.165-0.36-0.168c-0.006,0-0.014,0-0.021,0
					c-0.129,0.002-0.237,0.045-0.352,0.142c-0.12,0.099-0.213,0.229-0.286,0.408c-0.074,0.178-0.111,0.361-0.117,0.572
					c-0.002,0.007-0.004,0.019-0.004,0.025c-0.002,0.115,0.005,0.221,0.023,0.324c-0.262-0.131-0.506-0.221-0.738-0.274
					c-0.014-0.103-0.02-0.204-0.021-0.311V45.284z M357.47,45.37c-0.017-0.331,0.019-0.614,0.11-0.91
					c0.091-0.295,0.211-0.508,0.39-0.683c0.176-0.176,0.354-0.267,0.568-0.275c0.016-0.002,0.034,0,0.051,0
					c0.194,0,0.365,0.064,0.545,0.21c0.195,0.154,0.345,0.353,0.469,0.635c0.125,0.28,0.188,0.559,0.207,0.891
					c0.01,0.141,0.008,0.272-0.004,0.4c-0.038,0.011-0.073,0.021-0.111,0.037c-0.21,0.071-0.396,0.166-0.557,0.272
					c0.016-0.111,0.019-0.224,0.007-0.349c-0.002-0.008,0-0.013,0-0.021c-0.017-0.168-0.053-0.307-0.114-0.449
					c-0.063-0.147-0.133-0.248-0.226-0.329c-0.083-0.074-0.163-0.103-0.251-0.103c-0.008,0-0.017,0-0.026,0
					c-0.098,0.009-0.181,0.055-0.259,0.15c-0.075,0.092-0.128,0.211-0.164,0.364c-0.035,0.154-0.046,0.307-0.026,0.48v0.019
					c0.015,0.17,0.049,0.31,0.112,0.45c0.061,0.147,0.128,0.249,0.22,0.329c0.019,0.014,0.034,0.025,0.048,0.036
					c-0.097,0.076-0.142,0.108-0.219,0.168c-0.053,0.037-0.11,0.081-0.181,0.132c-0.152-0.143-0.274-0.321-0.379-0.559
					c-0.122-0.28-0.191-0.56-0.21-0.891V45.37z M357.726,47.379c0.306-0.23,0.519-0.385,0.662-0.486
					c0.137-0.104,0.196-0.145,0.24-0.186c0.229-0.218,0.596-0.612,1.145-0.803c0.191-0.065,0.4-0.108,0.636-0.11l0.004,0.003
					c0.454-0.001,0.993,0.147,1.652,0.57c0.402,0.262,0.72,0.286,1.444,0.596c0.348,0.142,0.556,0.329,0.655,0.524
					c0.1,0.197,0.1,0.408,0.018,0.634c-0.169,0.448-0.703,0.918-1.453,1.152v0.004c-0.365,0.118-0.685,0.38-1.06,0.593
					c-0.376,0.215-0.801,0.388-1.379,0.354c-0.492-0.027-0.788-0.195-1.053-0.409c-0.267-0.214-0.495-0.48-0.835-0.681v-0.002
					c-0.549-0.31-0.849-0.666-0.941-0.975C357.366,47.848,357.456,47.582,357.726,47.379z M357.942,68.686L357.942,68.686
					c-0.077,1.021-0.652,1.577-1.535,1.777c-0.881,0.203-2.077-0.002-3.271-0.624c-1.321-0.7-2.894-0.632-3.902-0.844
					c-0.503-0.104-0.835-0.262-0.985-0.557c-0.15-0.294-0.15-0.808,0.169-1.68V66.75v-0.002c0.159-0.49,0.046-1.025-0.032-1.528
					c-0.078-0.502-0.118-0.958,0.054-1.279l0.004-0.002c0.22-0.424,0.54-0.573,0.941-0.718c0.4-0.144,0.874-0.257,1.247-0.636h0.004
					v-0.001c0.346-0.367,0.607-0.823,0.913-1.148c0.258-0.274,0.515-0.458,0.901-0.461h0.014c0.067,0,0.14,0.01,0.216,0.023
					c0.515,0.075,0.958,0.435,1.392,1.02c0.433,0.587,0.839,1.386,1.251,2.272v0.005c0.333,0.693,1.032,1.453,1.623,2.229
					c0.595,0.778,1.056,1.561,0.997,2.157V68.686z M357.835,67.03c-0.163-0.258-0.349-0.517-0.542-0.77
					c-0.123-0.161-0.25-0.319-0.376-0.479c0.248,0,0.46-0.042,0.629-0.12c0.213-0.096,0.359-0.248,0.434-0.445
					c0.147-0.396,0-0.954-0.472-1.591c-0.472-0.639-1.267-1.358-2.442-2.077c-0.86-0.536-1.345-1.195-1.571-1.907
					c-0.222-0.715-0.19-1.483-0.016-2.247c0.335-1.461,1.187-2.882,1.734-3.775c0.146-0.108,0.054,0.199-0.553,1.326
					c-0.543,1.029-1.562,3.407-0.168,5.264c0.036-1.322,0.354-2.666,0.883-3.927c0.773-1.747,2.384-4.777,2.512-7.193
					c0.065,0.048,0.292,0.203,0.392,0.26c0.296,0.174,0.519,0.43,0.807,0.659c0.286,0.232,0.647,0.434,1.19,0.467
					c0.636,0.036,1.122-0.164,1.519-0.39c0.396-0.227,0.713-0.479,1.013-0.576c0.633-0.198,1.137-0.546,1.424-0.955
					c0.491,1.939,1.635,4.74,2.372,6.106c0.388,0.727,1.166,2.268,1.502,4.125c0.214-0.006,0.45,0.026,0.699,0.091
					c0.88-2.278-0.746-4.733-1.488-5.416c-0.299-0.292-0.314-0.423-0.167-0.415c0.808,0.711,1.866,2.147,2.25,3.765
					c0.176,0.738,0.217,1.512,0.028,2.277c0.091,0.037,0.184,0.077,0.278,0.122c1.411,0.687,1.934,1.285,1.682,2.101
					c-0.081-0.005-0.164-0.003-0.242,0c-0.007,0-0.017-0.003-0.024,0c0.205-0.646-0.249-1.121-1.454-1.668
					c-1.251-0.551-2.248-0.496-2.417,0.618c-0.011,0.058-0.02,0.12-0.025,0.182c-0.094,0.03-0.187,0.074-0.279,0.124
					c-0.589,0.322-0.907,0.903-1.086,1.619c-0.178,0.715-0.23,1.579-0.281,2.55c-0.029,0.489-0.233,1.151-0.436,1.851
					C363.094,68.047,360.25,68.679,357.835,67.03z M370.108,61.212c-0.211,0.404-1.111,1.04-1.729,0.871
					c-0.631-0.161-0.939-1.07-0.836-1.756c0.054-0.466,0.322-0.668,0.709-0.669c0.255,0,0.565,0.083,0.904,0.236
					C370.07,60.315,370.358,60.681,370.108,61.212z M373.594,67.124c-0.859,0.518-2.385,0.969-3.354,2.148
					c-0.846,1.004-1.877,1.558-2.783,1.63c-0.907,0.07-1.687-0.307-2.151-1.23v-0.004l-0.003-0.004
					c-0.285-0.546-0.164-1.404,0.078-2.312c0.24-0.905,0.586-1.832,0.632-2.589V64.76c0.048-0.969,0.104-1.815,0.266-2.47
					c0.163-0.651,0.419-1.095,0.871-1.345c0.021-0.012,0.041-0.022,0.066-0.032c0.05,0.84,0.469,1.694,1.203,1.88
					c0.805,0.212,1.96-0.479,2.448-1.041c0.1-0.004,0.194-0.007,0.287-0.01c0.431-0.009,0.79,0.019,1.157,0.339h0.001
					c0.282,0.241,0.417,0.691,0.533,1.198c0.115,0.506,0.21,1.058,0.561,1.452v0.003c0.671,0.745,0.889,1.25,0.87,1.571
					C374.258,66.626,374.024,66.865,373.594,67.124z"/>
			</g>
			<path d="M357.973,48.155c0.129,0.12,0.303,0.284,0.515,0.451c0.418,0.334,1.001,0.672,1.744,0.672
				c0.74,0,1.439-0.344,2.028-0.686c0.295-0.17,0.564-0.34,0.793-0.466c0.228-0.128,0.419-0.208,0.531-0.217l-0.012-0.241
				c-0.196,0.013-0.4,0.109-0.64,0.241c-0.239,0.134-0.505,0.303-0.797,0.471c-0.579,0.334-1.244,0.655-1.904,0.655
				c-0.665,0-1.195-0.308-1.593-0.622c-0.199-0.159-0.365-0.317-0.498-0.44c-0.063-0.061-0.122-0.114-0.173-0.155
				c-0.056-0.042-0.095-0.079-0.185-0.079l-0.008,0.185c-0.005,0.063-0.012,0.063-0.008,0.063c0.003,0.005,0.023,0.009,0.048,0.027
				C357.854,48.044,357.908,48.094,357.973,48.155z"/>
		</g>
	</g>
</g>
</svg>
