<?xml version="1.0" encoding="utf-8"?>
<!-- Generator: Adobe Illustrator 19.1.0, SVG Export Plug-In . SVG Version: 6.00 Build 0)  -->
<svg version="1.1" id="Layer_1" xmlns="http://www.w3.org/2000/svg" xmlns:xlink="http://www.w3.org/1999/xlink" x="0px" y="0px"
	 viewBox="-139 197 332.3 400" style="enable-background:new -139 197 332.3 400;" xml:space="preserve">
<style type="text/css">
	.st0{fill:#EF3B68;}
	.st1{fill:#FFFFFF;}
</style>
<g>
	<polygon class="st0" points="193.3,497 27.2,597 -139,497 -139,297 27.2,197 193.3,297 	"/>
</g>
<g>
	<path class="st1" d="M-19.1,482.4l-6.9-25.5l1.7-78l12,64.3l5.1,4.8l-6.9,14.9l13.7,12c0,0-10.3,7.5-10.3,7.5H10l6.9-7.5
		c0,0,0-24.9,0-24.9h20.6v24.9l6.9,7.5h20.6l-10.3-7.5l13.7-12l-6.9-14.9l5.1-4.8l12-64.3l1.7,78l-6.9,25.5c0,0,5.1,0,5.1,0
		c0,2.5,5.9,4.6,13.7,4.6c7.8,0,13.7-2.1,13.7-4.6l3.4-103.5l-10.3-5.3h10.3l-10.3-26.7l-20.6-11.5l-27.4-3.8l5.1-10.5l-5.1-3.9
		l-1.7-7.7l-1.7-7.2L42.6,292l-10.3-5h-5.1H22l-10.3,5l-5.1,10.3l-1.7,7.2l-1.7,7.7l-5.1,3.9l5.1,10.5l-27.4,3.8l-20.6,11.5
		l-10.3,26.7h10.3l-10.3,5.3c0,0,3.4,103.5,3.4,103.5c0,2.5,5.9,4.6,13.7,4.6c7.8,0,13.7-2.1,13.7-4.6"/>
</g>
</svg>
