<?xml version="1.0" encoding="utf-8"?>
<!-- Generator: Adobe Illustrator 16.0.0, SVG Export Plug-In . SVG Version: 6.00 Build 0)  -->
<!DOCTYPE svg PUBLIC "-//W3C//DTD SVG 1.1//EN" "http://www.w3.org/Graphics/SVG/1.1/DTD/svg11.dtd">
<svg version="1.1" id="Layer_1" xmlns="http://www.w3.org/2000/svg" xmlns:xlink="http://www.w3.org/1999/xlink" x="0px" y="0px"
	 width="56.693px" height="68.027px" viewBox="0 0 56.693 68.027" enable-background="new 0 0 56.693 68.027" xml:space="preserve">
<g>
	<polygon fill="#3399CC" points="56.693,51.023 28.347,68.027 0,51.023 0,17.008 28.347,0 56.693,17.008 	"/>
	<g>
		<g>
			<path fill-rule="evenodd" clip-rule="evenodd" fill="#3399CC" d="M30.081,16.859c0.382,0.146,0.79,0.125,1.186,0.188
				c7.366,1.131,13.239,6.713,14.567,14.043c1.059,5.846-0.45,11.037-4.548,15.355c-3.687,3.883-8.302,5.648-13.642,5.391
				C19.58,51.441,12.816,45.4,11.41,37.416c-0.077-0.438-0.127-0.879-0.191-1.316c-0.01-0.063,0.02-0.143-0.072-0.168
				c0-0.98,0-1.961,0-2.941c0.082-0.039,0.054-0.115,0.06-0.178c0.204-2.387,0.848-4.654,2.017-6.744
				c2.73-4.881,6.844-7.887,12.355-8.939c0.584-0.113,1.178-0.182,1.768-0.27C28.258,16.859,29.168,16.859,30.081,16.859z
				 M40.587,32.209c-0.494-0.502-0.981-1.01-1.481-1.508c-0.363-0.363-0.833-0.383-1.157-0.066
				c-0.315,0.309-0.311,0.805,0.039,1.158c1.008,1.02,2.026,2.031,3.043,3.045c0.254,0.254,0.556,0.359,0.901,0.207
				c0.342-0.15,0.466-0.424,0.466-0.791c0-2.365-0.586-4.574-1.741-6.621c-2.778-4.93-8.145-7.654-13.78-6.924
				c-3.212,0.416-5.957,1.809-8.203,4.152c-1.604,1.676-2.71,3.637-3.318,5.875c-0.157,0.58,0.216,1.061,0.783,1.033
				c0.395-0.02,0.602-0.227,0.754-0.752c1.674-5.811,7.275-9.514,13.27-8.771c5.035,0.623,9.193,4.346,10.357,9.277
				c0.052,0.225,0.167,0.451,0.066,0.689V32.209z M16.659,36.469c0.549,0.555,1.032,1.047,1.523,1.533
				c0.359,0.354,0.838,0.359,1.155,0.031c0.311-0.322,0.298-0.777-0.047-1.123c-1.011-1.02-2.027-2.033-3.043-3.045
				c-0.28-0.279-0.581-0.34-0.9-0.193c-0.326,0.15-0.46,0.41-0.457,0.766c0.007,0.789,0.081,1.566,0.213,2.342
				C16.246,43.443,22.248,48.33,29,48.111c3.49-0.113,6.517-1.344,9.067-3.717c1.884-1.754,3.171-3.883,3.859-6.365
				c0.124-0.449-0.014-0.82-0.363-0.996c-0.488-0.244-0.982,0.023-1.153,0.631c-1.57,5.6-7.088,9.643-13.278,8.787
				c-5.018-0.693-8.361-3.563-10.089-8.313C16.859,37.633,16.716,37.107,16.659,36.469z"/>
			<path fill-rule="evenodd" clip-rule="evenodd" fill="#FFFFFF" d="M40.587,32.213c0.101-0.238-0.014-0.465-0.066-0.689
				c-1.164-4.932-5.322-8.654-10.357-9.277c-5.994-0.742-11.596,2.961-13.27,8.771c-0.152,0.525-0.359,0.732-0.754,0.752
				c-0.567,0.027-0.94-0.453-0.783-1.033c0.608-2.238,1.714-4.199,3.318-5.875c2.246-2.344,4.99-3.736,8.203-4.152
				c5.635-0.73,11.001,1.994,13.78,6.924c1.155,2.047,1.741,4.256,1.741,6.621c0,0.367-0.124,0.641-0.466,0.791
				c-0.345,0.152-0.647,0.047-0.901-0.207c-1.018-1.014-2.035-2.025-3.043-3.045c-0.35-0.354-0.354-0.85-0.039-1.158
				c0.323-0.316,0.794-0.297,1.157,0.066c0.5,0.498,0.987,1.006,1.481,1.508c0.002-0.025,0.079,0.012,0.038-0.047
				C40.612,32.18,40.599,32.195,40.587,32.213z"/>
			<path fill-rule="evenodd" clip-rule="evenodd" fill="#FFFFFF" d="M16.659,36.469c0.058,0.639,0.201,1.164,0.385,1.67
				c1.728,4.75,5.071,7.619,10.089,8.313c6.189,0.855,11.708-3.188,13.278-8.787c0.171-0.607,0.665-0.875,1.153-0.631
				c0.349,0.176,0.487,0.547,0.363,0.996c-0.688,2.482-1.975,4.611-3.859,6.365c-2.55,2.373-5.577,3.604-9.067,3.717
				c-6.752,0.219-12.753-4.668-13.897-11.332c-0.132-0.775-0.206-1.553-0.213-2.342c-0.003-0.355,0.131-0.615,0.457-0.766
				c0.319-0.146,0.62-0.086,0.9,0.193c1.017,1.012,2.033,2.025,3.043,3.045c0.346,0.346,0.358,0.801,0.047,1.123
				c-0.317,0.328-0.796,0.322-1.155-0.031C17.69,37.516,17.208,37.023,16.659,36.469z"/>
		</g>
	</g>
</g>
</svg>
