<?xml version="1.0" encoding="utf-8"?>
<!-- Generator: Adobe Illustrator 19.1.0, SVG Export Plug-In . SVG Version: 6.00 Build 0)  -->
<svg version="1.1" id="Layer_1" xmlns="http://www.w3.org/2000/svg" xmlns:xlink="http://www.w3.org/1999/xlink" x="0px" y="0px"
	 viewBox="494 37 1600 720" style="enable-background:new 494 37 1600 720;" xml:space="preserve">
<style type="text/css">
	.st0{fill:none;stroke:#000000;stroke-width:3;stroke-miterlimit:10;}
	.st1{fill:none;stroke:#231F20;stroke-width:3;stroke-miterlimit:10;}
</style>
<polygon class="st0" points="1032.4,501 867.4,601 702.4,501 702.4,301 867.4,201 1032.4,301 "/>
<path class="st0" d="M913.3,422.6c1.1,0.1,2.3,0.2,3.4,0.3c1.2,0.1,2.3,0.2,3.5,0.2c1.2,0,2.4,0,3.6,0c1.2,0,2.4,0,3.6-0.2
	c2.4-0.3,4.8-0.5,7.3-1.1c1.2-0.3,2.4-0.5,3.7-0.9c1.2-0.4,2.5-0.8,3.7-1.2c4.8-1.8,9.6-4.4,13.5-8.1c3.9-3.6,6.9-8,8.7-12.4
	c1.8-4.4,2.4-8.7,2.4-12.5c0-3.8-0.7-7.1-1.5-9.9c-0.8-2.8-1.9-5.1-2.9-6.8c-1-1.8-2-3.1-2.8-3.9c-0.4-0.4-0.7-0.7-1-0.8
	c-0.2-0.2-0.4-0.2-0.4-0.2s0,0.1,0,0.4c0,0.2,0,0.7,0,1.2c-0.1,1-0.3,2.5-0.6,4.3c-0.4,1.8-0.9,3.9-1.6,6.1c-0.7,2.3-1.7,4.7-2.9,7
	c-1.2,2.3-2.7,4.4-4.5,6.2c-1.7,1.8-3.7,3.2-5.9,4.4c-2.2,1.2-4.8,2-7.7,2.7c-0.7,0.1-1.5,0.3-2.2,0.5c-0.8,0.1-1.6,0.2-2.4,0.4
	c-1.5,0.3-3.3,0.4-5,0.6c-0.8,0.1-1.7,0.1-2.6,0.2c-0.9,0-1.8,0.1-2.6,0.2c-1.8,0.1-3.6,0-5.4,0.1c-3.6,0-7.3,0-11-0.2
	c-3.6,0-7.2-0.3-10.7-0.3c-1.1,0-2.2-0.1-3.3-0.1c1.1-0.4,2.3-0.8,3.5-1.3c3.5-1.5,7.1-3.1,10.8-5.2c3.7-2,7.3-4.4,10.9-7.2
	c0.9-0.7,1.8-1.4,2.6-2.2c0.9-0.8,1.8-1.4,2.6-2.3c0.8-0.8,1.7-1.7,2.5-2.5c0.8-0.9,1.7-1.7,2.5-2.6c1.5-1.9,3.2-3.7,4.5-5.9
	c0.7-1.1,1.4-2.1,2-3.2c0.6-1.1,1.2-2.3,1.8-3.4c2.2-4.7,3.8-9.8,4.1-15.2c0.3-5.3-0.6-10.6-2.4-14.9c-1.8-4.4-4.3-7.9-6.9-10.7
	c-2.7-2.7-5.4-4.6-8-6.1c-2.5-1.4-4.9-2.3-6.9-2.9c-2-0.6-3.6-0.8-4.7-0.8c-0.6,0-1,0-1.3,0.1c-0.3,0-0.4,0.1-0.4,0.1
	s0.1,0.1,0.3,0.3c0.2,0.2,0.5,0.5,0.8,0.9c0.6,0.8,1.5,2,2.5,3.5c1,1.5,2.1,3.4,3.1,5.5c1,2.1,2,4.5,2.7,7c0.7,2.5,1.1,5.1,1.1,7.6
	c0,2.5-0.4,4.9-1.2,7.3c-0.8,2.4-2.1,4.8-3.6,7.3c-0.4,0.6-0.8,1.3-1.2,1.9c-0.4,0.6-1,1.3-1.4,1.9c-0.9,1.3-2.1,2.6-3.2,3.9
	c-0.5,0.7-1.1,1.3-1.7,1.9c-0.6,0.6-1.2,1.3-1.8,1.9c-1.2,1.3-2.6,2.5-3.8,3.8c-2.7,2.5-5.3,5.1-8,7.5c-1.8,1.7-3.6,3.3-5.4,4.9
	c0.7-2.3,1.4-4.6,1.8-7.1c1-4.1,1.5-8.4,1.9-12.9c0-0.6,0.1-1.1,0.1-1.7c0-0.6,0-1.1,0.1-1.7c0-1.2,0.1-2.3,0-3.5
	c-0.1-1.2-0.1-2.4-0.2-3.6c0-0.1,0-0.2,0-0.3c-0.1-1.1-0.1-2.2-0.3-3.3c-0.1-0.6-0.2-1.2-0.3-1.8c-0.3-1.8-0.6-3.6-1.1-5.5
	c-0.1-0.3-0.2-0.6-0.2-0.9c-0.2-0.9-0.5-1.8-0.8-2.8c0,0,0-0.1,0-0.1c-0.4-1.2-0.9-2.3-1.3-3.5c-2-4.8-4.8-9.4-8.6-13.2
	c-3.8-3.8-8.3-6.6-12.7-8.1c-4.5-1.6-8.8-2-12.6-1.9c-3.8,0.2-7.1,1-9.8,1.9c-2.8,1-5,2.1-6.7,3.2c-1.7,1.1-3,2.2-3.7,3
	c-0.4,0.4-0.6,0.7-0.8,1c-0.1,0.2-0.2,0.4-0.2,0.4s0.1,0,0.4-0.1c0.2,0,0.7,0,1.2,0c1,0,2.5,0.2,4.3,0.5c1.8,0.3,3.9,0.7,6.2,1.4
	c2.3,0.6,4.7,1.5,7.1,2.6c2.3,1.1,4.6,2.6,6.4,4.2c0.5,0.4,0.9,0.8,1.3,1.3c1.3,1.3,2.3,2.8,3.3,4.4c1.3,2.2,2.2,4.8,3.1,7.6
	c0.2,0.7,0.4,1.5,0.6,2.2c0.1,0.4,0.2,0.8,0.2,1.2c0.1,0.4,0.1,0.8,0.2,1.2c0,0.1,0,0.1,0,0.2c0.3,1.4,0.5,2.9,0.7,4.3
	c0,0.1,0,0.3,0.1,0.4c0.2,0.8,0.2,1.7,0.3,2.6c0,0,0,0.1,0,0.1c0.1,0.8,0.2,1.7,0.3,2.5c0.1,0.7,0.1,1.4,0.1,2.2
	c0.1,1.1,0.1,2.2,0.2,3.2c0.1,3.6,0.3,7.3,0.3,11c0.1,1.8,0.1,3.6,0.1,5.4c-1.4-3-3-6-4.9-9.1c-2.1-3.6-4.8-7.1-7.6-10.6
	c-0.7-0.9-1.5-1.7-2.3-2.6c-0.8-0.8-1.5-1.7-2.4-2.5c-0.9-0.8-1.7-1.6-2.6-2.4c-0.9-0.8-1.7-1.6-2.7-2.3c-2-1.5-3.8-3-6.1-4.3
	c-1.1-0.6-2.1-1.3-3.3-1.9c-1.2-0.6-2.3-1.1-3.5-1.6c-4.8-2-10-3.4-15.3-3.5c-5.3-0.1-10.5,1-14.8,3c-4.3,2-7.8,4.6-10.4,7.4
	c-2.6,2.8-4.4,5.6-5.7,8.2c-1.3,2.6-2.1,5-2.6,7c-0.5,2-0.6,3.6-0.6,4.7c0,0.6,0,1,0.1,1.3c0.1,0.3,0.1,0.4,0.1,0.4s0.1-0.1,0.3-0.3
	c0.1-0.2,0.5-0.5,0.8-0.8c0.8-0.7,1.9-1.6,3.4-2.6c1.5-1,3.3-2.2,5.4-3.3c2.1-1.1,4.4-2.2,6.9-3c2.5-0.8,5.1-1.3,7.5-1.4
	c2.5-0.1,4.9,0.2,7.3,0.9c2.4,0.7,4.9,1.9,7.5,3.3c0.6,0.4,1.3,0.8,2,1.2c0.7,0.4,1.3,0.9,2,1.4c1.3,0.8,2.7,2,4,3
	c0.7,0.5,1.3,1.1,2,1.7c0.7,0.6,1.3,1.1,2,1.7c1.3,1.2,2.6,2.5,4,3.6c2.6,2.5,5.3,5,7.8,7.7c2.6,2.5,5,5.2,7.5,7.6
	c0.9,0.9,1.8,1.9,2.7,2.8c-0.1,0-0.2-0.1-0.2-0.1c-2.9-1.4-6.2-3-9.7-4.4c-3.6-1.3-7.3-2.7-11.4-3.6c-4-1.1-8.4-1.8-12.9-2.3
	c-1.1-0.1-2.3-0.2-3.4-0.2c-1.2-0.1-2.3-0.2-3.5-0.1c-1.2,0-2.4,0-3.6,0.1c-1.2,0-2.4,0.1-3.6,0.2c-2.4,0.3-4.8,0.5-7.3,1.2
	c-1.2,0.3-2.4,0.5-3.7,0.9c-1.2,0.4-2.5,0.8-3.7,1.3c-4.8,1.9-9.5,4.6-13.4,8.2c-3.9,3.6-6.8,8.1-8.5,12.5
	c-1.7,4.4-2.3,8.7-2.3,12.5c0.1,3.8,0.8,7.1,1.6,9.9c0.9,2.8,2,5,3,6.8c1,1.8,2.1,3,2.9,3.8c0.4,0.4,0.7,0.7,1,0.8
	c0.2,0.2,0.4,0.2,0.4,0.2s0-0.1,0-0.4c0-0.2,0-0.7,0-1.2c0.1-1,0.2-2.5,0.6-4.3c0.4-1.8,0.8-3.9,1.5-6.2c0.7-2.3,1.6-4.7,2.8-7
	c1.2-2.3,2.7-4.5,4.4-6.3c1.7-1.8,3.7-3.2,5.9-4.4c2.2-1.2,4.8-2,7.7-2.8c0.7-0.2,1.5-0.3,2.2-0.5c0.8-0.2,1.6-0.3,2.4-0.4
	c1.5-0.3,3.3-0.4,4.9-0.7c0.8-0.1,1.7-0.2,2.6-0.2c0.9,0,1.8-0.1,2.6-0.2c1.8-0.1,3.6-0.1,5.4-0.2c3.6,0,7.3-0.1,11,0
	c3.6,0,7.2,0.2,10.7,0.2c2.4,0.1,4.7,0.1,7,0.1c-0.7,0.2-1.3,0.4-2,0.7c-3.5,1.4-7.3,2.7-11,4.7c-3.8,1.8-7.5,4.1-11.2,6.7
	c-0.9,0.7-1.8,1.4-2.7,2.1c-0.9,0.7-1.8,1.3-2.7,2.2c-0.9,0.8-1.8,1.6-2.6,2.4c-0.9,0.8-1.7,1.6-2.6,2.5c-1.6,1.8-3.3,3.6-4.8,5.7
	c-0.7,1-1.5,2-2.2,3.1c-0.7,1.1-1.3,2.2-1.9,3.3c-2.4,4.6-4.3,9.7-4.8,15c-0.6,5.3,0.1,10.6,1.7,15c1.6,4.5,3.9,8.1,6.4,11
	c2.5,2.8,5.2,4.9,7.7,6.4c2.5,1.5,4.8,2.5,6.7,3.2c1.9,0.7,3.6,0.9,4.7,1c0.6,0,1,0,1.3,0c0.3,0,0.4-0.1,0.4-0.1s-0.1-0.1-0.3-0.3
	c-0.2-0.2-0.4-0.5-0.7-0.9c-0.6-0.8-1.4-2-2.3-3.6c-0.9-1.6-1.9-3.5-2.8-5.7c-0.9-2.2-1.8-4.6-2.4-7.1c-0.6-2.5-0.9-5.2-0.7-7.6
	c0.1-2.5,0.7-4.9,1.6-7.2c0.9-2.3,2.3-4.7,4-7.1c0.5-0.6,0.9-1.2,1.3-1.8c0.5-0.6,1-1.2,1.5-1.8c1-1.3,2.2-2.5,3.3-3.7
	c0.5-0.6,1.2-1.2,1.8-1.9c0.6-0.6,1.2-1.2,1.9-1.9c1.3-1.2,2.7-2.4,4-3.7c2.8-2.4,5.5-4.8,8.3-7.1c2.7-2.4,5.6-4.6,8.2-6.8
	c0.9-0.7,1.8-1.4,2.6-2.1c-0.1,0.3-0.3,0.6-0.4,1c-1.3,3.6-2.6,7.3-3.5,11.4c-1.1,4-1.7,8.4-2.2,12.9c-0.1,1.1-0.1,2.3-0.2,3.4
	c0,1.2-0.2,2.3-0.1,3.5c0,1.2,0,2.4,0.1,3.6c0.1,1.2,0.1,2.4,0.3,3.6c0.3,2.4,0.5,4.8,1.2,7.3c0.3,1.2,0.5,2.4,0.9,3.7
	c0.4,1.2,0.8,2.4,1.3,3.6c1.9,4.8,4.6,9.5,8.3,13.4c3.7,3.9,8.1,6.8,12.5,8.5c4.4,1.7,8.7,2.3,12.5,2.2c3.8-0.1,7.1-0.8,9.9-1.7
	c2.8-0.9,5-2,6.8-3.1c1.8-1,3-2.1,3.8-2.9c0.4-0.4,0.7-0.7,0.8-1c0.1-0.2,0.2-0.4,0.2-0.4s-0.1,0-0.4,0c-0.2,0-0.7,0-1.2,0
	c-1-0.1-2.5-0.2-4.3-0.6c-1.8-0.3-3.9-0.8-6.2-1.5c-2.3-0.7-4.7-1.6-7-2.8c-2.3-1.2-4.5-2.7-6.3-4.4c-1.8-1.7-3.3-3.7-4.5-5.8
	c-1.2-2.2-2.1-4.8-2.9-7.7c-0.2-0.7-0.4-1.5-0.5-2.2c-0.2-0.8-0.3-1.6-0.4-2.4c-0.3-1.5-0.5-3.3-0.7-4.9c-0.2-0.8-0.2-1.7-0.2-2.6
	c0-0.9-0.1-1.8-0.2-2.6c-0.1-1.8-0.1-3.6-0.2-5.4c0-3.6-0.1-7.3,0-11c0-1.8,0-3.5,0.1-5.2c0.6,1.3,1.3,2.5,2.1,3.8
	c2,3.6,4.6,7.2,7.3,10.8c0.7,0.9,1.5,1.7,2.2,2.6c0.8,0.9,1.5,1.8,2.3,2.6c0.8,0.8,1.7,1.7,2.5,2.5c0.9,0.8,1.7,1.6,2.7,2.4
	c1.9,1.5,3.7,3.1,5.9,4.4c1.1,0.7,2.1,1.4,3.2,2c1.2,0.6,2.3,1.2,3.5,1.7c4.7,2.1,9.9,3.7,15.2,3.9c5.3,0.2,10.5-0.7,14.9-2.6
	c4.4-1.8,7.9-4.4,10.6-7.1c2.7-2.7,4.5-5.5,5.9-8.1c1.4-2.6,2.2-4.9,2.8-6.9c0.5-2,0.7-3.6,0.8-4.7c0-0.6,0-1-0.1-1.3
	c-0.1-0.3-0.1-0.4-0.1-0.4s-0.1,0.1-0.3,0.3c-0.2,0.2-0.5,0.5-0.8,0.8c-0.8,0.7-1.9,1.5-3.5,2.5c-1.5,1-3.4,2.1-5.5,3.2
	c-2.1,1.1-4.5,2.1-7,2.9c-2.5,0.7-5.1,1.2-7.6,1.2c-2.5,0-4.9-0.4-7.3-1.1c-2.4-0.7-4.8-2-7.4-3.5c-0.6-0.4-1.3-0.8-1.9-1.2
	c-0.6-0.4-1.3-1-1.9-1.4c-1.3-0.9-2.6-2-3.9-3.1c-0.7-0.5-1.3-1.1-2-1.7c-0.6-0.6-1.3-1.2-2-1.8c-1.3-1.2-2.6-2.5-3.9-3.7
	c-2.5-2.6-5.2-5.2-7.6-7.9c-0.2-0.2-0.4-0.4-0.6-0.6c2.1,0.7,4.2,1.4,6.4,1.9C904.5,421.3,908.8,422.1,913.3,422.6z"/>
<g>
	<path class="st1" d="M1104.1,539.5V262.3h187.2v52.4h-124.8v54.4h110.8v51.2h-110.8v66.8h134v52.4L1104.1,539.5L1104.1,539.5z"/>
	<path class="st1" d="M1603.3,400.7c0,23.7-3.5,44.6-10.6,62.6c-7.1,18-16.7,33.1-29,45.2c-12.3,12.1-26.9,21.3-43.8,27.4
		c-16.9,6.1-35.1,9.2-54.6,9.2c-18.9,0-36.8-3.1-53.6-9.2c-16.8-6.1-31.5-15.3-44-27.4c-12.5-12.1-22.4-27.2-29.6-45.2
		c-7.2-18-10.8-38.9-10.8-62.6c0-23.7,3.7-44.6,11.2-62.6c7.5-18,17.5-33.1,30.2-45.4c12.7-12.3,27.3-21.5,44-27.6
		c16.7-6.1,34.2-9.2,52.6-9.2c18.9,0,36.8,3.1,53.6,9.2c16.8,6.1,31.5,15.3,44,27.6c12.5,12.3,22.4,27.4,29.6,45.4
		S1603.3,376.9,1603.3,400.7z M1391.7,400.7c0,13.6,1.7,25.9,5,36.8c3.3,10.9,8.1,20.3,14.4,28.2c6.3,7.9,13.9,13.9,23,18.2
		c9.1,4.3,19.5,6.4,31.2,6.4c11.5,0,21.8-2.1,31-6.4c9.2-4.3,16.9-10.3,23.2-18.2c6.3-7.9,11.1-17.3,14.4-28.2
		c3.3-10.9,5-23.2,5-36.8c0-13.6-1.7-25.9-5-37c-3.3-11.1-8.1-20.5-14.4-28.4c-6.3-7.9-14-13.9-23.2-18.2c-9.2-4.3-19.5-6.4-31-6.4
		c-11.7,0-22.1,2.2-31.2,6.6c-9.1,4.4-16.7,10.5-23,18.4c-6.3,7.9-11.1,17.3-14.4,28.4C1393.3,375.1,1391.7,387.3,1391.7,400.7z"/>
	<path class="st1" d="M1730.9,491.9c8.8,0,16.1-0.7,21.8-2.2c5.7-1.5,10.3-3.5,13.8-6c3.5-2.5,5.9-5.5,7.2-9c1.3-3.5,2-7.3,2-11.6
		c0-9.1-4.3-16.6-12.8-22.6c-8.5-6-23.2-12.5-44-19.4c-9.1-3.2-18.1-6.9-27.2-11c-9.1-4.1-17.2-9.3-24.4-15.6
		c-7.2-6.3-13.1-13.9-17.6-22.8c-4.5-8.9-6.8-19.8-6.8-32.6c0-12.8,2.4-24.3,7.2-34.6c4.8-10.3,11.6-19,20.4-26.2
		c8.8-7.2,19.5-12.7,32-16.6c12.5-3.9,26.7-5.8,42.4-5.8c18.7,0,34.8,2,48.4,6s24.8,8.4,33.6,13.2l-18,49.2
		c-7.7-4-16.3-7.5-25.8-10.6c-9.5-3.1-20.9-4.6-34.2-4.6c-14.9,0-25.7,2.1-32.2,6.2c-6.5,4.1-9.8,10.5-9.8,19
		c0,5.1,1.2,9.3,3.6,12.8c2.4,3.5,5.8,6.6,10.2,9.4c4.4,2.8,9.5,5.3,15.2,7.6c5.7,2.3,12.1,4.6,19,7c14.4,5.3,26.9,10.6,37.6,15.8
		c10.7,5.2,19.5,11.3,26.6,18.2c7.1,6.9,12.3,15.1,15.8,24.4c3.5,9.3,5.2,20.7,5.2,34c0,25.9-9.1,45.9-27.2,60.2
		c-18.1,14.3-45.5,21.4-82,21.4c-12.3,0-23.3-0.7-33.2-2.2c-9.9-1.5-18.6-3.3-26.2-5.4c-7.6-2.1-14.1-4.4-19.6-6.8
		c-5.5-2.4-10.1-4.7-13.8-6.8l17.6-49.6c8.3,4.5,18.5,8.6,30.6,12.2C1698.4,490.1,1713.3,491.9,1730.9,491.9z"/>
</g>
</svg>
