<?xml version="1.0" encoding="utf-8"?>
<!-- Generator: Adobe Illustrator 19.1.0, SVG Export Plug-In . SVG Version: 6.00 Build 0)  -->
<svg version="1.1" id="Layer_1" xmlns="http://www.w3.org/2000/svg" xmlns:xlink="http://www.w3.org/1999/xlink" x="0px" y="0px"
	 viewBox="-199 201 200 200" style="enable-background:new -199 201 200 200;" xml:space="preserve">
<style type="text/css">
	.st0{fill:none;stroke:#000000;stroke-width:2;stroke-linecap:square;stroke-miterlimit:10;}
</style>
<g>
	<polyline class="st0" points="-121.8,306.8 -144.5,306.8 -144.5,238.5 -53.5,238.5 -53.5,306.8 -76.2,306.8 	"/>
	<polyline class="st0" points="-110.4,316.2 -121.8,316.2 -121.8,307.1 	"/>
	<polyline class="st0" points="-76.2,307.1 -76.2,316.2 -87.6,316.2 	"/>
	<polyline class="st0" points="-87.6,316.4 -87.6,320.9 -110.4,320.9 -110.4,316.4 	"/>
</g>
<g>
	<path d="M-135.8,349.4c1-0.3,1.9-0.8,2.7-1.3c0.8-0.5,1.6-1.3,2.3-2.2h1.2v17.3h-1.6v-14.9c-0.2,0.2-0.4,0.4-0.7,0.6
		c-0.3,0.2-0.6,0.4-1,0.6c-0.4,0.2-0.8,0.4-1.2,0.6c-0.4,0.2-0.8,0.3-1.2,0.5L-135.8,349.4z"/>
	<path d="M-122.9,354.5c0-2.9,0.5-5.2,1.5-6.7s2.3-2.3,4.1-2.3c1.8,0,3.1,0.8,4.1,2.3c1,1.5,1.5,3.8,1.5,6.7c0,2.9-0.5,5.2-1.5,6.7
		c-1,1.5-2.3,2.3-4.1,2.3s-3.1-0.8-4.1-2.3C-122.4,359.6-122.9,357.4-122.9,354.5z M-113.5,354.5c0-1-0.1-2-0.2-2.9
		s-0.3-1.7-0.6-2.4c-0.3-0.7-0.7-1.3-1.2-1.7c-0.5-0.4-1.1-0.6-1.8-0.6c-0.7,0-1.3,0.2-1.8,0.6c-0.5,0.4-0.9,1-1.2,1.7
		c-0.3,0.7-0.5,1.5-0.6,2.4s-0.2,1.9-0.2,2.9s0.1,2,0.2,2.9c0.1,0.9,0.3,1.7,0.6,2.4c0.3,0.7,0.7,1.2,1.2,1.7
		c0.5,0.4,1.1,0.6,1.8,0.6c0.7,0,1.3-0.2,1.8-0.6c0.5-0.4,0.9-1,1.2-1.7c0.3-0.7,0.5-1.5,0.6-2.4
		C-113.6,356.4-113.5,355.5-113.5,354.5z"/>
	<path d="M-108.8,354.5c0-2.9,0.5-5.2,1.5-6.7s2.3-2.3,4.1-2.3c1.8,0,3.1,0.8,4.1,2.3c1,1.5,1.5,3.8,1.5,6.7c0,2.9-0.5,5.2-1.5,6.7
		c-1,1.5-2.3,2.3-4.1,2.3s-3.1-0.8-4.1-2.3C-108.3,359.6-108.8,357.4-108.8,354.5z M-99.4,354.5c0-1-0.1-2-0.2-2.9s-0.3-1.7-0.6-2.4
		c-0.3-0.7-0.7-1.3-1.2-1.7c-0.5-0.4-1.1-0.6-1.8-0.6c-0.7,0-1.3,0.2-1.8,0.6c-0.5,0.4-0.9,1-1.2,1.7c-0.3,0.7-0.5,1.5-0.6,2.4
		s-0.2,1.9-0.2,2.9s0.1,2,0.2,2.9c0.1,0.9,0.3,1.7,0.6,2.4c0.3,0.7,0.7,1.2,1.2,1.7c0.5,0.4,1.1,0.6,1.8,0.6c0.7,0,1.3-0.2,1.8-0.6
		c0.5-0.4,0.9-1,1.2-1.7c0.3-0.7,0.5-1.5,0.6-2.4C-99.5,356.4-99.4,355.5-99.4,354.5z"/>
	<path d="M-94.7,354.5c0-2.9,0.5-5.2,1.4-6.7s2.3-2.3,4.1-2.3c1.8,0,3.1,0.8,4.1,2.3c1,1.5,1.5,3.8,1.5,6.7c0,2.9-0.5,5.2-1.5,6.7
		c-1,1.5-2.3,2.3-4.1,2.3s-3.1-0.8-4.1-2.3C-94.2,359.6-94.7,357.4-94.7,354.5z M-85.3,354.5c0-1-0.1-2-0.2-2.9s-0.3-1.7-0.6-2.4
		c-0.3-0.7-0.7-1.3-1.2-1.7c-0.5-0.4-1.1-0.6-1.8-0.6c-0.7,0-1.3,0.2-1.8,0.6c-0.5,0.4-0.9,1-1.2,1.7c-0.3,0.7-0.5,1.5-0.6,2.4
		s-0.2,1.9-0.2,2.9s0.1,2,0.2,2.9c0.1,0.9,0.3,1.7,0.6,2.4s0.7,1.2,1.2,1.7c0.5,0.4,1.1,0.6,1.8,0.6c0.7,0,1.3-0.2,1.8-0.6
		c0.5-0.4,0.9-1,1.2-1.7s0.5-1.5,0.6-2.4C-85.4,356.4-85.3,355.5-85.3,354.5z"/>
	<path d="M-72,360.6c-0.2-0.4-0.4-1-0.7-1.7c-0.3-0.7-0.7-1.4-1-2.2c-0.4-0.8-0.8-1.6-1.2-2.5c-0.4-0.9-0.8-1.7-1.2-2.4
		s-0.7-1.4-1-2c-0.3-0.6-0.5-1-0.6-1.2c-0.2,2.1-0.4,4.3-0.5,6.8s-0.2,5-0.3,7.7h-1.7c0.2-3.2,0.3-6.2,0.5-9
		c0.2-2.9,0.4-5.6,0.7-8.3h1.5c0.5,0.8,1,1.8,1.6,2.9c0.6,1.1,1.1,2.2,1.7,3.4c0.6,1.2,1.1,2.3,1.6,3.5c0.5,1.1,1,2.2,1.4,3.1
		c0.4-0.9,0.9-1.9,1.4-3.1c0.5-1.1,1.1-2.3,1.6-3.5c0.6-1.2,1.1-2.3,1.7-3.4c0.6-1.1,1.1-2.1,1.6-2.9h1.4c0.3,2.6,0.5,5.4,0.7,8.3
		c0.2,2.9,0.4,5.9,0.5,9h-1.7c-0.1-2.7-0.2-5.2-0.3-7.7s-0.3-4.7-0.5-6.8c-0.1,0.2-0.3,0.6-0.6,1.2c-0.3,0.6-0.6,1.2-1,2
		c-0.4,0.8-0.8,1.6-1.2,2.4c-0.4,0.9-0.8,1.7-1.2,2.5c-0.4,0.8-0.7,1.6-1,2.2c-0.3,0.7-0.5,1.2-0.7,1.7H-72z"/>
</g>
</svg>
