<?xml version="1.0" encoding="utf-8"?>
<!-- Generator: Adobe Illustrator 16.0.0, SVG Export Plug-In . SVG Version: 6.00 Build 0)  -->
<!DOCTYPE svg PUBLIC "-//W3C//DTD SVG 1.1//EN" "http://www.w3.org/Graphics/SVG/1.1/DTD/svg11.dtd">
<svg version="1.1" id="Layer_1" xmlns="http://www.w3.org/2000/svg" xmlns:xlink="http://www.w3.org/1999/xlink" x="0px" y="0px"
	 width="56.693px" height="68.028px" viewBox="0 0 56.693 68.028" enable-background="new 0 0 56.693 68.028" xml:space="preserve">
<g>
	<polygon fill="#6EC498" points="56.693,51.023 28.347,68.028 0,51.023 0,17.008 28.347,0 56.693,17.008 	"/>
	<polygon fill="#FFFFFF" points="45.02,44.563 28.347,54.564 11.674,44.563 11.674,24.554 28.347,14.55 45.02,24.554 	"/>
	<g>
		
			<line fill="none" stroke="#6FC498" stroke-width="0.2353" stroke-miterlimit="10" x1="11.674" y1="24.554" x2="28.347" y2="34.558"/>
		
			<line fill="none" stroke="#6FC498" stroke-width="0.2353" stroke-miterlimit="10" x1="45.02" y1="24.554" x2="28.347" y2="34.558"/>
		
			<line fill="none" stroke="#6FC498" stroke-width="0.2353" stroke-miterlimit="10" x1="28.347" y1="34.558" x2="28.347" y2="54.564"/>
	</g>
	<g>
		<polygon fill="#6EC498" points="20.849,47.842 18.298,46.369 18.298,36.909 20.849,38.382 		"/>
		<polygon fill="#6EC498" points="16.063,35.618 19.573,31.564 23.085,39.673 		"/>
	</g>
	<g>
		<polygon fill="#6EC498" points="38.495,46.604 35.943,48.077 35.943,38.617 38.495,37.145 		"/>
		<polygon fill="#6EC498" points="33.708,39.908 37.219,31.8 40.73,35.854 		"/>
	</g>
</g>
</svg>
