<?xml version="1.0" encoding="utf-8"?>
<!-- Generator: Adobe Illustrator 16.0.0, SVG Export Plug-In . SVG Version: 6.00 Build 0)  -->
<!DOCTYPE svg PUBLIC "-//W3C//DTD SVG 1.0//EN" "http://www.w3.org/TR/2001/REC-SVG-20010904/DTD/svg10.dtd">
<svg version="1.0" id="Layer_1" xmlns="http://www.w3.org/2000/svg" xmlns:xlink="http://www.w3.org/1999/xlink" x="0px" y="0px"
	 width="472px" height="394px" viewBox="0 0 472 394" enable-background="new 0 0 472 394" xml:space="preserve">
<g>
	<g>
		<g>
			<path fill="#505050" d="M57.545,261.091c1.691,0,3.116,1.373,3.116,3.063c0,1.741-1.425,3.115-3.116,3.115H42.178v9.241h12.305
				c1.69,0,3.062,1.372,3.062,3.064c0,1.688-1.372,3.062-3.062,3.062H42.178v12.354c0,1.692-1.425,3.064-3.116,3.064
				c-1.689,0-3.062-1.372-3.062-3.064v-30.837c0-1.69,1.373-3.063,3.062-3.063H57.545z"/>
			<path fill="#505050" d="M70.218,263.044c0.476-1.16,1.637-1.953,2.852-1.953c1.268,0,2.429,0.793,2.904,1.953l12.305,30.787
				c0.158,0.369,0.21,0.739,0.21,1.16c0,1.533-1.267,3.064-3.062,3.064c-1.215,0-2.377-0.739-2.852-1.954l-2.324-5.756H65.94
				l-2.323,5.756c-0.476,1.215-1.636,1.954-2.851,1.954c-1.85,0-3.064-1.479-3.064-3.064c0-0.368,0.053-0.791,0.211-1.16
				L70.218,263.044z M67.261,258.083c-0.211-0.424-0.318-0.9-0.318-1.375c0-1.109,0.582-2.164,1.691-2.746l6.177-3.115
				c0.423-0.21,0.846-0.317,1.321-0.317c1.162,0,2.271,0.635,2.799,1.689c0.211,0.424,0.316,0.9,0.316,1.374
				c0,1.162-0.633,2.271-1.69,2.8l-6.178,3.063c-0.421,0.21-0.897,0.315-1.373,0.315C68.899,259.771,67.79,259.138,67.261,258.083z
				 M68.422,284.221h9.348l-4.7-11.776L68.422,284.221z"/>
			<path fill="#505050" d="M117.373,286.489c0,7.132-5.862,11.566-10.826,11.566H95.775c-1.691,0-3.063-1.372-3.063-3.064v-30.837
				c0-1.69,1.372-3.063,3.063-3.063h8.5c0.265,0,2.535,0.106,4.806,1.215c3.379,1.691,5.174,4.754,5.174,8.817
				c0,2.22-0.58,4.226-1.637,5.812C115.683,278.939,117.373,282.319,117.373,286.489z M98.891,274.979h4.594
				c0.791,0,4.646-0.159,4.646-3.856c0-3.538-2.429-3.854-3.432-3.854c-0.265,0-0.423,0-0.423,0h-5.385V274.979z M111.193,286.489
				c0-1.953-1.214-5.384-5.016-5.384h-7.287v10.772h7.287c0.053,0,1.479-0.053,2.746-0.74
				C110.982,289.977,111.193,287.918,111.193,286.489z"/>
			<path fill="#505050" d="M144.989,293.356c0.317,0.527,0.474,1.055,0.474,1.635c0,1.006-0.527,2.008-1.477,2.59
				c-0.477,0.315-1.057,0.475-1.585,0.475c-1.056,0-2.06-0.527-2.641-1.426l-6.812-10.878h-5.176v9.239
				c0,1.692-1.426,3.064-3.115,3.064s-3.063-1.372-3.063-3.064v-30.837c0-1.69,1.374-3.063,3.063-3.063h8.397
				c0.315,0,3.115,0.054,6.02,1.478c4.119,2.062,6.389,5.863,6.389,10.827c0,0.315-0.052,3.168-1.477,6.021
				c-1.109,2.164-2.694,3.8-4.648,4.856L144.989,293.356z M127.773,279.575h5.282c2.64,0,4.33-0.898,5.333-2.8
				c0.845-1.584,0.897-3.274,0.897-3.38c0-2.641-0.95-4.33-2.956-5.334c-1.585-0.792-3.274-0.792-3.274-0.792h-5.282V279.575z"/>
			<path fill="#505050" d="M149.688,294.991v-30.837c0-1.69,1.373-3.063,3.062-3.063c1.69,0,3.063,1.373,3.063,3.063v30.837
				c0,1.692-1.373,3.064-3.063,3.064C151.061,298.056,149.688,296.684,149.688,294.991z"/>
			<path fill="#505050" d="M188.605,291.665c0.792,1.479,0.211,3.326-1.267,4.174c-2.694,1.425-5.704,2.217-8.82,2.217
				c-10.19,0-18.481-8.291-18.481-18.48c0-10.194,8.291-18.484,18.481-18.484c3.117,0,6.126,0.793,8.82,2.219
				c1.479,0.845,2.059,2.693,1.267,4.172c-0.845,1.531-2.694,2.058-4.225,1.266c-1.742-1.002-3.802-1.478-5.862-1.478
				c-6.758,0-12.303,5.493-12.303,12.306c0,6.811,5.545,12.303,12.303,12.303c2.06,0,4.121-0.476,5.862-1.479
				C185.911,289.606,187.76,290.136,188.605,291.665z"/>
			<path fill="#505050" d="M223.772,293.831c0.159,0.369,0.212,0.792,0.212,1.16c0,1.586-1.216,3.064-3.064,3.064
				c-1.214,0-2.376-0.739-2.852-1.954l-2.323-5.756h-14.31l-2.323,5.756c-0.476,1.215-1.637,1.954-2.852,1.954
				c-1.795,0-3.063-1.531-3.063-3.064c0-0.421,0.053-0.791,0.211-1.16l12.304-30.787c0.475-1.16,1.637-1.953,2.904-1.953
				c1.215,0,2.376,0.793,2.851,1.953L223.772,293.831z M213.262,284.221l-4.646-11.776l-4.7,11.776H213.262z"/>
		</g>
		<g>
			<path fill="#505050" d="M235.838,298.056c-0.563,0-1.055-0.212-1.477-0.633c-0.423-0.424-0.633-0.917-0.633-1.48v-32.737
				c0-0.563,0.21-1.057,0.633-1.479c0.422-0.421,0.914-0.635,1.477-0.635h9.507c0.034,0,0.448,0.028,1.238,0.079
				c0.794,0.053,1.772,0.248,2.933,0.583c1.16,0.334,2.41,0.869,3.748,1.61c1.338,0.738,2.569,1.795,3.697,3.168
				c1.128,1.372,2.068,3.115,2.825,5.227c0.757,2.113,1.135,4.718,1.135,7.816c0,3.098-0.378,5.702-1.135,7.813
				c-0.757,2.113-1.697,3.854-2.825,5.229c-1.128,1.373-2.359,2.428-3.697,3.168c-1.338,0.739-2.588,1.276-3.748,1.61
				c-1.16,0.335-2.139,0.528-2.933,0.581c-0.79,0.053-1.204,0.079-1.238,0.079H235.838z M238.11,293.726h7.234
				c0.068,0,0.28-0.018,0.632-0.054c0.353-0.034,0.793-0.113,1.321-0.236c0.526-0.122,1.127-0.315,1.796-0.582
				c0.668-0.263,1.354-0.606,2.059-1.028c1.725-1.162,3.063-2.781,4.015-4.859c0.949-2.076,1.424-4.539,1.424-7.391
				c0-2.959-0.493-5.475-1.478-7.552c-0.987-2.076-2.396-3.695-4.226-4.858c-0.634-0.421-1.283-0.746-1.954-0.977
				c-0.668-0.229-1.266-0.396-1.794-0.501c-0.527-0.106-1.128-0.193-1.795-0.265h-7.234V293.726z"/>
			<path fill="#505050" d="M287.428,294.358c0.424,0.424,0.635,0.951,0.635,1.584c0,0.563-0.211,1.057-0.635,1.48
				c-0.422,0.421-0.932,0.633-1.531,0.633h-17.954c-0.598,0-1.107-0.212-1.53-0.633c-0.422-0.424-0.634-0.917-0.634-1.48v-32.737
				c0-0.563,0.212-1.057,0.634-1.479c0.423-0.421,0.933-0.635,1.53-0.635h17.954c0.6,0,1.109,0.214,1.531,0.635
				c0.424,0.422,0.635,0.915,0.635,1.479c0,0.634-0.211,1.161-0.635,1.584c-0.422,0.424-0.932,0.634-1.531,0.634h-15.789v12.039
				h12.516c0.599,0,1.1,0.204,1.506,0.608c0.403,0.404,0.606,0.905,0.606,1.505c0,0.599-0.203,1.1-0.606,1.504
				c-0.406,0.404-0.907,0.607-1.506,0.607h-12.516v12.039h15.789C286.496,293.726,287.006,293.937,287.428,294.358z"/>
		</g>
		<g>
			<path fill="#505050" d="M299.344,294.991v-30.837c0-1.69,1.372-3.063,3.063-3.063c1.689,0,3.063,1.373,3.063,3.063v30.837
				c0,1.692-1.374,3.064-3.063,3.064C300.716,298.056,299.344,296.684,299.344,294.991z"/>
			<path fill="#505050" d="M312.754,298.056c-1.688,0-3.061-1.372-3.061-3.064v-30.837c0-1.69,1.372-3.063,3.061-3.063h8.979
				c0.21,0,15.684-0.054,15.684,18.484c0,18.533-15.474,18.48-15.684,18.48H312.754z M315.871,291.878h5.861
				c0.158,0,2.536-0.053,4.911-1.584c3.063-1.954,4.595-5.599,4.595-10.719c0-5.229-1.586-8.873-4.806-10.828
				c-2.324-1.425-4.647-1.478-4.7-1.478h-5.861V291.878z"/>
			<path fill="#505050" d="M364.77,294.991c0,1.692-1.374,3.064-3.117,3.064h-16.898c-1.742,0-3.116-1.372-3.116-3.064v-30.837
				c0-1.69,1.374-3.063,3.116-3.063h16.898c1.743,0,3.117,1.373,3.117,3.063c0,1.741-1.374,3.115-3.117,3.115h-13.836v9.241h10.773
				c1.688,0,3.063,1.372,3.063,3.064c0,1.688-1.375,3.062-3.063,3.062h-10.773v9.241h13.836
				C363.396,291.878,364.77,293.251,364.77,294.991z"/>
			<path fill="#505050" d="M368.99,294.991v-30.837c0-1.69,1.374-3.063,3.063-3.063c1.691,0,3.064,1.373,3.064,3.063v30.837
				c0,1.692-1.373,3.064-3.064,3.064C370.364,298.056,368.99,296.684,368.99,294.991z"/>
			<path fill="#505050" d="M409.915,293.831c0.159,0.369,0.211,0.792,0.211,1.16c0,1.586-1.214,3.064-3.061,3.064
				c-1.215,0-2.379-0.739-2.852-1.954l-2.325-5.756h-14.313l-2.321,5.756c-0.476,1.215-1.638,1.954-2.853,1.954
				c-1.795,0-3.062-1.531-3.062-3.064c0-0.421,0.053-0.791,0.21-1.16l12.305-30.787c0.477-1.16,1.637-1.953,2.906-1.953
				c1.212,0,2.375,0.793,2.85,1.953L409.915,293.831z M399.406,284.221l-4.645-11.776l-4.701,11.776H399.406z"/>
			<path fill="#505050" d="M436,285.752v0.527c0,3.064-1.215,5.968-3.326,8.079c-2.325,2.325-5.493,3.592-8.978,3.592h-0.422
				c-4.489-0.157-8.397-2.694-10.247-6.654c-0.21-0.423-0.263-0.897-0.263-1.319c0-1.16,0.634-2.271,1.795-2.799
				c0.424-0.212,0.846-0.265,1.27-0.265c1.159,0,2.322,0.633,2.852,1.795c0.844,1.85,2.638,3.012,4.804,3.063h0.265
				c1.848,0,3.38-0.58,4.488-1.688c1.056-1.057,1.638-2.378,1.638-3.804v-0.212c-0.16-2.429-4.754-4.593-6.761-5.173l-0.211-0.108
				c-5.438-1.952-8.186-5.383-8.186-10.137v-0.424c0.106-2.691,1.321-5.119,3.592-6.811c1.901-1.48,4.49-2.378,7.234-2.378h0.476
				c2.218,0.054,4.488,0.952,6.336,2.325c0.792,0.635,1.216,1.531,1.216,2.429c0,0.633-0.211,1.319-0.635,1.847
				c-0.633,0.794-1.532,1.216-2.481,1.216c-0.635,0-1.267-0.159-1.849-0.581c-0.79-0.635-1.848-1.003-2.798-1.057h-0.317
				c-2.588,0-4.596,1.32-4.647,3.222v0.212c0,2.589,2.007,3.538,4.066,4.383C426.496,275.507,435.684,278.465,436,285.752z"/>
		</g>
	</g>
	<g>
		<path fill="#505050" d="M157.146,331.138c0.254-0.106,0.466-0.157,0.637-0.157c0.232,0,0.456,0.057,0.667,0.174
			c0.211,0.116,0.371,0.291,0.477,0.523c0.17,0.299,0.195,0.628,0.08,0.986c-0.117,0.361-0.313,0.626-0.588,0.796l0.031-0.033
			c-0.807,0.404-1.67,0.728-2.592,0.971c-0.923,0.244-1.839,0.365-2.752,0.365c-1.526,0-2.969-0.289-4.326-0.873
			c-1.356-0.583-2.539-1.377-3.546-2.386c-1.007-1.007-1.802-2.189-2.385-3.546c-0.584-1.359-0.875-2.8-0.875-4.327
			c0-1.525,0.291-2.962,0.875-4.31c0.583-1.348,1.378-2.527,2.385-3.546c1.007-1.02,2.19-1.819,3.546-2.403
			c1.357-0.582,2.8-0.873,4.326-0.873c0.913,0,1.829,0.133,2.752,0.397c0.922,0.265,1.786,0.577,2.592,0.938l-0.031-0.032
			c0.296,0.192,0.503,0.461,0.62,0.813c0.116,0.35,0.08,0.683-0.111,1.002c-0.234,0.444-0.616,0.667-1.145,0.667
			c-0.212,0-0.425-0.052-0.637-0.16h0.031c-0.572-0.315-1.214-0.565-1.924-0.745c-0.71-0.182-1.427-0.271-2.147-0.271
			c-1.167,0-2.264,0.223-3.292,0.669c-1.029,0.443-1.93,1.049-2.703,1.813c-0.775,0.762-1.39,1.663-1.846,2.703
			c-0.456,1.039-0.684,2.152-0.684,3.34s0.228,2.303,0.684,3.34c0.456,1.04,1.071,1.94,1.846,2.703
			c0.773,0.764,1.674,1.369,2.703,1.814c1.028,0.446,2.125,0.668,3.292,0.668c0.742,0,1.458-0.081,2.147-0.238
			c0.69-0.159,1.331-0.42,1.924-0.78H157.146z"/>
		<path fill="#505050" d="M173.115,334.763c-1.465,0-2.843-0.289-4.137-0.873c-1.292-0.583-2.422-1.377-3.387-2.386
			c-0.965-1.007-1.729-2.189-2.291-3.546c-0.562-1.359-0.842-2.8-0.842-4.327c0-1.525,0.281-2.962,0.842-4.31
			c0.562-1.348,1.326-2.527,2.291-3.546c0.965-1.02,2.094-1.819,3.387-2.403c1.293-0.582,2.672-0.873,4.137-0.873
			c1.462,0,2.84,0.291,4.135,0.873c1.293,0.584,2.416,1.384,3.371,2.403c0.955,1.019,1.713,2.198,2.274,3.546
			c0.561,1.348,0.843,2.784,0.843,4.31c0,1.527-0.282,2.968-0.843,4.327c-0.562,1.356-1.319,2.539-2.274,3.546
			c-0.955,1.009-2.078,1.803-3.371,2.386C175.955,334.474,174.577,334.763,173.115,334.763z M173.115,315.106
			c-1.125,0-2.175,0.223-3.15,0.669c-0.975,0.443-1.824,1.049-2.545,1.813c-0.72,0.762-1.293,1.663-1.717,2.703
			c-0.424,1.039-0.637,2.152-0.637,3.34s0.212,2.303,0.637,3.34c0.424,1.04,0.997,1.94,1.717,2.703
			c0.721,0.764,1.57,1.369,2.545,1.814c0.975,0.446,2.025,0.668,3.15,0.668c1.102,0,2.141-0.222,3.116-0.668
			c0.975-0.445,1.83-1.051,2.561-1.814c0.731-0.763,1.303-1.663,1.717-2.703c0.414-1.037,0.621-2.152,0.621-3.34
			s-0.207-2.301-0.621-3.34c-0.414-1.04-0.986-1.941-1.717-2.703c-0.731-0.764-1.586-1.369-2.561-1.813
			C175.256,315.329,174.217,315.106,173.115,315.106z"/>
		<path fill="#505050" d="M213.13,312.594c0.254,0.106,0.456,0.276,0.604,0.509c0.148,0.234,0.224,0.467,0.224,0.699
			c0,0.086-0.006,0.18-0.017,0.287c-0.011,0.107-0.037,0.182-0.08,0.221l-8.207,19.659c-0.106,0.255-0.27,0.45-0.492,0.588
			c-0.224,0.138-0.452,0.206-0.684,0.206c-0.234,0-0.473-0.078-0.716-0.236c-0.244-0.159-0.419-0.357-0.524-0.59l-3.181-7.697
			l-3.245,7.729c-0.19,0.529-0.583,0.794-1.177,0.794c-0.254,0-0.493-0.068-0.716-0.206c-0.221-0.138-0.387-0.333-0.492-0.588
			l-8.207-19.659c-0.021-0.039-0.037-0.12-0.047-0.237c-0.011-0.116-0.016-0.206-0.016-0.271c0-0.317,0.116-0.614,0.35-0.891
			c0.233-0.274,0.551-0.412,0.955-0.412c0.254,0,0.487,0.074,0.699,0.222c0.212,0.149,0.371,0.35,0.477,0.604l6.998,16.765
			l2.99-7.253c-0.552-1.357-1.146-2.778-1.781-4.265c-0.636-1.481-1.229-2.903-1.781-4.263c-0.085-0.125-0.127-0.306-0.127-0.539
			c0-0.318,0.127-0.609,0.382-0.874c0.255-0.265,0.583-0.397,0.986-0.397c0.572,0,0.965,0.274,1.177,0.826l2.577,6.172l2.544-6.172
			c0.106-0.255,0.271-0.455,0.494-0.604c0.222-0.147,0.45-0.222,0.684-0.222c0.402,0,0.731,0.138,0.985,0.412
			c0.254,0.276,0.383,0.573,0.383,0.891c0,0.213-0.022,0.383-0.064,0.508l-3.658,8.527l3.055,7.253l6.965-16.765
			c0.105-0.255,0.265-0.455,0.477-0.604c0.212-0.147,0.446-0.222,0.701-0.222c0.105,0,0.201,0.01,0.286,0.03
			C212.991,312.552,213.066,312.573,213.13,312.594z"/>
		<path fill="#505050" d="M226.808,334.763c-1.464,0-2.842-0.289-4.136-0.873c-1.293-0.583-2.422-1.377-3.388-2.386
			c-0.965-1.007-1.728-2.189-2.291-3.546c-0.562-1.359-0.842-2.8-0.842-4.327c0-1.525,0.28-2.962,0.842-4.31
			c0.563-1.348,1.325-2.527,2.291-3.546c0.965-1.02,2.094-1.819,3.388-2.403c1.293-0.582,2.672-0.873,4.136-0.873
			c1.463,0,2.841,0.291,4.134,0.873c1.293,0.584,2.419,1.384,3.372,2.403c0.954,1.019,1.712,2.198,2.274,3.546
			c0.563,1.348,0.842,2.784,0.842,4.31c0,1.527-0.279,2.968-0.842,4.327c-0.562,1.356-1.32,2.539-2.274,3.546
			c-0.953,1.009-2.079,1.803-3.372,2.386C229.649,334.474,228.271,334.763,226.808,334.763z M226.808,315.106
			c-1.125,0-2.174,0.223-3.15,0.669c-0.977,0.443-1.824,1.049-2.544,1.813c-0.722,0.762-1.294,1.663-1.718,2.703
			c-0.424,1.039-0.636,2.152-0.636,3.34s0.212,2.303,0.636,3.34c0.424,1.04,0.997,1.94,1.718,2.703
			c0.72,0.764,1.567,1.369,2.544,1.814c0.976,0.446,2.025,0.668,3.15,0.668c1.101,0,2.14-0.222,3.117-0.668
			c0.976-0.445,1.828-1.051,2.561-1.814c0.731-0.763,1.305-1.663,1.718-2.703c0.413-1.037,0.619-2.152,0.619-3.34
			s-0.207-2.301-0.619-3.34c-0.413-1.04-0.987-1.941-1.718-2.703c-0.733-0.764-1.585-1.369-2.561-1.813
			C228.948,315.329,227.909,315.106,226.808,315.106z"/>
		<path fill="#505050" d="M256.039,332.761l-0.032-0.032c0.043,0.127,0.085,0.253,0.128,0.38c0.041,0.129,0.064,0.256,0.064,0.384
			c0,0.191-0.061,0.392-0.176,0.604c-0.115,0.212-0.27,0.383-0.461,0.509c-0.17,0.106-0.382,0.157-0.637,0.157
			c-0.531,0-0.912-0.198-1.145-0.602l-4.55-7.253h-4.324v6.584c0,0.339-0.129,0.636-0.382,0.891c-0.256,0.255-0.562,0.38-0.923,0.38
			s-0.663-0.125-0.907-0.38s-0.365-0.552-0.365-0.891v-19.722c0-0.34,0.121-0.637,0.365-0.891s0.546-0.381,0.907-0.381h5.376
			c0.105,0,0.509,0.047,1.208,0.142c0.7,0.095,1.483,0.345,2.355,0.747h-0.032c1.144,0.616,2.047,1.469,2.705,2.562
			c0.655,1.094,0.984,2.338,0.984,3.738c0,0.063-0.008,0.2-0.016,0.412c-0.013,0.212-0.049,0.484-0.113,0.812
			c-0.063,0.328-0.152,0.699-0.27,1.113s-0.281,0.832-0.492,1.257c-0.297,0.614-0.727,1.177-1.289,1.686s-1.225,0.976-1.988,1.399
			L256.039,332.761z M244.907,324.3h4.071c0.954,0,1.76-0.18,2.416-0.542c0.656-0.359,1.178-0.879,1.56-1.558
			c0.149-0.276,0.267-0.558,0.352-0.844c0.083-0.285,0.147-0.552,0.188-0.795c0.042-0.244,0.07-0.446,0.08-0.605
			c0.009-0.158,0.016-0.248,0.016-0.269c0-1.886-0.752-3.223-2.258-4.009c-0.297-0.147-0.584-0.259-0.859-0.333
			c-0.275-0.075-0.53-0.132-0.763-0.176c-0.255-0.041-0.499-0.063-0.731-0.063h-4.071V324.3z"/>
		<path fill="#505050" d="M275.442,332.601c0.085,0.107,0.163,0.245,0.237,0.413c0.074,0.171,0.113,0.329,0.113,0.479
			c0,0.339-0.133,0.636-0.398,0.891c-0.265,0.255-0.578,0.38-0.938,0.38c-0.149,0-0.313-0.04-0.492-0.125
			c-0.181-0.086-0.347-0.18-0.494-0.287l-9.479-10.465v9.606c0,0.339-0.128,0.636-0.382,0.891s-0.562,0.38-0.921,0.38
			c-0.363,0-0.669-0.125-0.925-0.38c-0.253-0.255-0.381-0.552-0.381-0.891v-19.722c0-0.34,0.128-0.637,0.381-0.891
			c0.256-0.254,0.562-0.381,0.925-0.381c0.359,0,0.667,0.127,0.921,0.381s0.382,0.551,0.382,0.891v9.607
			c0.722-0.787,1.485-1.623,2.291-2.514c0.807-0.891,1.621-1.793,2.448-2.704c0.827-0.913,1.638-1.813,2.434-2.705
			c0.796-0.89,1.565-1.738,2.307-2.544c0.147-0.105,0.313-0.2,0.494-0.285c0.18-0.085,0.343-0.127,0.492-0.127
			c0.359,0,0.673,0.127,0.938,0.381c0.266,0.254,0.398,0.551,0.398,0.891c0,0.171-0.039,0.334-0.113,0.492
			c-0.074,0.159-0.152,0.291-0.237,0.398l-8.174,8.97L275.442,332.601z"/>
		<path fill="#505050" d="M282.346,334.763c-0.341,0-0.638-0.125-0.891-0.38c-0.256-0.255-0.382-0.552-0.382-0.891v-19.722
			c0-0.34,0.126-0.637,0.382-0.891c0.253-0.254,0.55-0.381,0.891-0.381c0.36,0,0.674,0.127,0.938,0.381
			c0.266,0.254,0.396,0.551,0.396,0.891v19.722c0,0.339-0.131,0.636-0.396,0.891C283.02,334.638,282.706,334.763,282.346,334.763z"
			/>
		<path fill="#505050" d="M304.355,334.763c-0.232,0-0.438-0.057-0.618-0.174c-0.182-0.115-0.335-0.257-0.461-0.428l-11.358-16.256
			v15.587c0,0.339-0.133,0.636-0.396,0.891c-0.267,0.255-0.59,0.38-0.972,0.38c-0.338,0-0.635-0.125-0.891-0.38
			c-0.255-0.255-0.382-0.552-0.382-0.891v-19.722c0-0.318,0.127-0.609,0.382-0.874c0.256-0.265,0.563-0.397,0.923-0.397
			c0.233,0,0.44,0.059,0.622,0.172c0.178,0.119,0.33,0.263,0.459,0.432l11.389,16.254v-15.586c0-0.34,0.127-0.637,0.382-0.891
			s0.562-0.381,0.921-0.381c0.361,0,0.669,0.127,0.922,0.381c0.258,0.254,0.383,0.551,0.383,0.891v19.722
			c0,0.339-0.125,0.636-0.383,0.891C305.024,334.638,304.717,334.763,304.355,334.763z"/>
		<path fill="#505050" d="M321.755,334.763c-1.442,0-2.847-0.269-4.213-0.812c-1.369-0.54-2.594-1.351-3.675-2.433
			c-1.04-1.061-1.84-2.263-2.402-3.608c-0.563-1.348-0.844-2.772-0.844-4.279c0-1.483,0.281-2.899,0.844-4.245
			c0.563-1.348,1.362-2.553,2.402-3.61c1.081-1.083,2.301-1.9,3.657-2.45c1.357-0.552,2.768-0.826,4.23-0.826
			c1.484,0,2.905,0.274,4.263,0.826c1.355,0.55,2.578,1.367,3.658,2.45c0.233,0.211,0.352,0.508,0.352,0.89
			s-0.131,0.699-0.383,0.953c-0.257,0.236-0.563,0.352-0.922,0.352c-0.382,0-0.692-0.115-0.925-0.352
			c-0.803-0.804-1.722-1.426-2.75-1.86c-1.028-0.433-2.127-0.651-3.293-0.651s-2.253,0.219-3.259,0.651
			c-1.009,0.435-1.926,1.057-2.752,1.86c-0.808,0.809-1.428,1.724-1.862,2.752c-0.435,1.03-0.651,2.115-0.651,3.261
			s0.217,2.233,0.651,3.261c0.435,1.028,1.055,1.945,1.862,2.752c0.847,0.847,1.798,1.484,2.846,1.908
			c1.05,0.425,2.104,0.637,3.165,0.637c2.057,0,3.954-0.711,5.694-2.133v-5.152h-5.598c-0.363,0-0.675-0.121-0.939-0.367
			c-0.267-0.242-0.397-0.544-0.397-0.905c0-0.36,0.131-0.663,0.397-0.907c0.265-0.242,0.576-0.365,0.939-0.365h6.871
			c0.359,0,0.665,0.123,0.922,0.365c0.252,0.244,0.383,0.547,0.383,0.907v6.936c0,0.17-0.034,0.344-0.097,0.523
			c-0.064,0.181-0.159,0.323-0.286,0.429c-1.083,1.082-2.302,1.893-3.659,2.433C324.628,334.494,323.218,334.763,321.755,334.763z"
			/>
	</g>
	<g>
		<g>
			<path fill="none" d="M236.218,187.174c0-0.03-0.001-0.059-0.004-0.088c-0.001-12.623-0.001-25.246-0.004-37.87
				c0.003,12.624,0.003,25.247,0.004,37.87C236.216,187.115,236.218,187.144,236.218,187.174z"/>
			<path fill="#EB4837" d="M325.06,197.963c0,0.503-0.028,1.01-0.046,1.511c-0.073,0.047-0.162,0.085-0.229,0.144
				C310.895,211.374,297,223.13,283.13,234.908c-0.86,0.735-1.876,1.312-2.493,2.308h-0.274c-0.015-0.641-0.044-1.287-0.044-1.928
				c0-27.868,0-55.735-0.002-83.599c0-0.554-0.024-1.105-0.039-1.653c0.059-0.114,0.115-0.23,0.172-0.346
				c4.771-3.811,9.542-7.618,14.304-11.439c4.368-3.505,8.695-7.064,13.092-10.532c2.304-1.818,4.746-2.706,7.285-2.706
				c1.754,0,3.554,0.424,5.378,1.261c2.998,1.377,4.582,3.72,4.576,7.182C325.038,154.959,325.06,176.459,325.06,197.963z"/>
			<path fill="#5B6AB1" d="M236.545,187.596c-0.028-0.009-0.332-25.756-0.335-38.38c-0.076-0.222-88.863,74.011-89.044,74.464
				c0.01,2.021,0.019,4.042,0.028,6.06c0.835,3.844,3.378,6.409,7.036,7.391c0.613,0.164,15.998,0.047,23.08,0.047
				C178.766,235.314,236.545,187.596,236.545,187.596z"/>
			<path fill="#7B5FA7" d="M280.316,151.688c0-0.552-0.024-1.104-0.039-1.653c-4.697,3.948-9.402,7.892-14.094,11.85
				c-6.34,5.348-12.672,10.704-19.005,16.061c-3.287,2.784-6.565,5.574-9.85,8.364c-0.346,0.295-0.64,0.666-1.115,0.777
				c0.002,0.029,0.004,0.058,0.004,0.088c0,0.047-0.004,0.097-0.012,0.144c0.004,16.634,0.007,33.267,0.01,49.898
				c14.714,0,29.43,0,44.147,0c-0.016-0.641-0.045-1.283-0.045-1.928C280.317,207.422,280.318,179.553,280.316,151.688z"/>
			<path fill="#E5B24D" d="M191.73,149.791c-0.017,0.08-44.565,37.322-44.636,37.383c0-2.77,0.218-69.637,0.218-74.32v-0.195
				c0.825-4.105,4.267-7,9.123-7.083c3.991-0.071,7.983-0.097,11.975-0.097c4.737,0,9.469,0.036,14.206,0.076
				c2.337,0.021,4.469,0.888,6.313,2.408c1.952,1.607,2.823,3.684,2.819,6.16c-0.008,1.835-0.113,3.669-0.113,5.504
				C191.621,129.365,191.698,149.478,191.73,149.791z"/>
			<path fill="#E5B24D" d="M147.414,186.465c0.586-0.396,1.156-0.825,1.708-1.265c-0.599,0.489-1.202,0.951-1.809,1.373
				c-0.072,0.052-0.147,0.101-0.218,0.152c0.071-0.06,0.146-0.119,0.218-0.177C147.346,186.52,147.38,186.494,147.414,186.465z"/>
			<path fill="#D3CC56" d="M191.687,186.053c-5.839,4.971-44.142,37.33-44.321,37.78h-0.029c0,0,0,0-0.005,0
				c-0.003,0-0.003,0-0.008,0c-0.021,0-0.038,0-0.055-0.002h-0.025c-0.021-0.006-0.046-0.008-0.067-0.013
				c-0.004,0-0.008-0.004-0.013-0.004c-0.004,0-0.004,0-0.009,0v-36.976c0.071-0.06,43.933-37.089,44.489-37.224
				C191.637,159.074,191.666,183.672,191.687,186.053z"/>
			<path fill="#5651A0" d="M177.449,237.216c19.59,0,39.18,0,58.769,0c-0.003-16.632-0.005-33.265-0.01-49.898
				C233.713,189.391,178.905,235.356,177.449,237.216z"/>
			<path fill="#DE5DA1" d="M325.076,228.744c-0.004,4.968-5.389,8.472-10.564,8.472h-33.875c0.617-0.996,1.633-1.572,2.493-2.308
				c13.87-11.778,27.765-23.534,41.655-35.291c0.066-0.059,0.155-0.097,0.229-0.144
				C325.031,205.997,325.084,219.091,325.076,228.744z"/>
			<path fill="#67A2D7" d="M237.329,186.309c3.284-2.79,6.563-5.58,9.85-8.364c6.333-5.356,12.665-10.713,19.005-16.061
				c4.691-3.958,9.396-7.901,14.094-11.85c0.059-0.114,0.117-0.228,0.172-0.344c-0.024-0.502-0.077-1.005-0.073-1.509
				c0-5.004-0.005-10.007,0.026-15.012c0.015-2.053-0.683-3.801-2.182-5.155c-2.154-1.943-4.966-2.924-7.772-2.924
				c-2.562,0-5.116,0.813-7.176,2.455c-4.34,3.46-8.643,6.966-12.975,10.434c-4.688,3.757-9.391,7.492-14.088,11.236
				c0.003,12.624,0.003,25.247,0.004,37.87C236.689,186.975,236.983,186.604,237.329,186.309z"/>
			<path fill="#66B764" d="M236.21,149.216c-4.783,4.017-44.268,36.646-44.523,36.837c-0.021-2.381,0.027-36.629,0.044-36.711
				c5.563-4.441,11.125-8.887,16.682-13.34c3.515-2.813,7.012-5.648,10.534-8.454c2.031-1.613,4.621-2.426,7.208-2.426
				c2.418,0,4.84,0.708,6.807,2.124c1.646,1.186,2.907,2.728,2.907,4.781C235.868,137.818,236.08,143.684,236.21,149.216z"/>
		</g>
		<g>
			<path fill="#E5B24D" d="M182.979,59.237h-27.287c-4.847,0-8.776,3.931-8.776,8.777v20.009c0,4.847,3.929,8.776,8.776,8.776
				h27.287c4.847,0,8.775-3.93,8.775-8.776V68.015C191.754,63.168,187.826,59.237,182.979,59.237z"/>
		</g>
	</g>
</g>
</svg>
