<?xml version="1.0" encoding="utf-8"?>
<!-- Generator: Adobe Illustrator 16.0.0, SVG Export Plug-In . SVG Version: 6.00 Build 0)  -->
<!DOCTYPE svg PUBLIC "-//W3C//DTD SVG 1.1//EN" "http://www.w3.org/Graphics/SVG/1.1/DTD/svg11.dtd">
<svg version="1.1" id="Layer_1" xmlns="http://www.w3.org/2000/svg" xmlns:xlink="http://www.w3.org/1999/xlink" x="0px" y="0px"
	 width="160px" height="160px" viewBox="0 0 160 160" enable-background="new 0 0 160 160" xml:space="preserve">
<g>
	<g>
		<path fill="none" d="M80.152,107.323c0-0.021-0.001-0.04-0.002-0.062c-0.001-8.855-0.001-17.712-0.003-26.569
			c0.001,8.857,0.001,17.713,0.003,26.569C80.151,107.283,80.152,107.303,80.152,107.323z"/>
		<path fill="#EB4837" d="M142.482,114.893c0,0.353-0.02,0.708-0.031,1.061c-0.054,0.032-0.115,0.059-0.164,0.1
			c-9.743,8.249-19.489,16.496-29.223,24.761c-0.602,0.514-1.316,0.919-1.748,1.618h-0.193c-0.008-0.449-0.029-0.902-0.029-1.353
			c0-19.551,0-39.103-0.002-58.651c0-0.388-0.018-0.774-0.027-1.16c0.041-0.079,0.08-0.161,0.119-0.241
			c3.348-2.674,6.695-5.345,10.035-8.026c3.066-2.458,6.104-4.956,9.187-7.389c1.616-1.275,3.33-1.898,5.112-1.898
			c1.229,0,2.492,0.297,3.771,0.885c2.103,0.967,3.213,2.609,3.211,5.038C142.469,84.722,142.482,99.808,142.482,114.893z"/>
		<path fill="#5B6AB1" d="M80.382,107.62c-0.02-0.007-0.233-18.07-0.234-26.927c-0.054-0.155-62.345,51.924-62.472,52.243
			c0.007,1.416,0.014,2.835,0.021,4.251c0.586,2.696,2.37,4.496,4.936,5.186c0.431,0.116,11.225,0.031,16.192,0.031
			C39.846,141.098,80.382,107.62,80.382,107.62z"/>
		<path fill="#7B5FA7" d="M111.092,82.427c0-0.387-0.018-0.773-0.027-1.161c-3.296,2.771-6.597,5.537-9.888,8.314
			c-4.448,3.753-8.892,7.51-13.333,11.269c-2.307,1.952-4.606,3.911-6.91,5.868c-0.244,0.207-0.45,0.466-0.783,0.545
			c0.001,0.021,0.002,0.041,0.002,0.062c0,0.034-0.002,0.068-0.007,0.102c0.002,11.67,0.005,23.338,0.006,35.008
			c10.325,0,20.647,0,30.972,0c-0.01-0.45-0.029-0.901-0.029-1.354C111.092,121.528,111.094,101.977,111.092,82.427z"/>
		<path fill="#E5B24D" d="M48.941,81.097c-0.012,0.058-31.266,26.185-31.315,26.227c0-1.942,0.153-48.855,0.153-52.141v-0.138
			c0.579-2.879,2.993-4.91,6.4-4.969c2.8-0.049,5.601-0.067,8.401-0.067c3.323,0,6.643,0.026,9.967,0.054
			c1.639,0.014,3.135,0.623,4.429,1.689c1.369,1.128,1.979,2.585,1.978,4.323c-0.006,1.286-0.08,2.573-0.08,3.861
			C48.865,66.767,48.918,80.877,48.941,81.097z"/>
		<path fill="#E5B24D" d="M17.849,106.826c0.412-0.278,0.812-0.58,1.2-0.888c-0.421,0.345-0.843,0.667-1.27,0.964
			c-0.05,0.035-0.104,0.07-0.153,0.107c0.05-0.043,0.104-0.083,0.153-0.125C17.803,106.864,17.826,106.847,17.849,106.826z"/>
		<path fill="#D3CC56" d="M48.911,106.537c-4.097,3.487-30.969,26.19-31.095,26.506h-0.021c0,0,0,0-0.003,0
			c-0.003,0-0.003,0-0.005,0c-0.015,0-0.027,0-0.039-0.002h-0.019c-0.014-0.004-0.032-0.005-0.046-0.01
			c-0.002,0-0.005-0.001-0.008-0.001c-0.003,0-0.003,0-0.006,0v-25.941c0.05-0.042,30.823-26.021,31.213-26.115
			C48.876,87.608,48.896,104.866,48.911,106.537z"/>
		<path fill="#5651A0" d="M38.922,142.433c13.744,0,27.488,0,41.23,0c-0.001-11.67-0.003-23.338-0.006-35.008
			C78.396,108.88,39.944,141.127,38.922,142.433z"/>
		<path fill="#DE5DA1" d="M142.495,136.487c-0.005,3.486-3.782,5.944-7.412,5.944h-23.767c0.432-0.699,1.146-1.104,1.748-1.618
			c9.733-8.265,19.479-16.512,29.223-24.761c0.049-0.041,0.11-0.067,0.164-0.1C142.463,120.528,142.5,129.715,142.495,136.487z"/>
		<path fill="#67A2D7" d="M80.934,106.717c2.304-1.957,4.604-3.916,6.91-5.868c4.441-3.759,8.885-7.516,13.333-11.269
			c3.291-2.777,6.592-5.543,9.888-8.314c0.041-0.078,0.08-0.158,0.119-0.239c-0.017-0.353-0.053-0.705-0.051-1.059
			c0-3.51-0.002-7.021,0.02-10.532c0.01-1.44-0.479-2.667-1.531-3.616c-1.511-1.364-3.483-2.052-5.453-2.052
			c-1.797,0-3.59,0.571-5.035,1.723c-3.044,2.428-6.062,4.887-9.102,7.32c-3.291,2.634-6.589,5.256-9.884,7.882
			c0.001,8.857,0.001,17.713,0.003,26.569C80.483,107.183,80.689,106.924,80.934,106.717z"/>
		<path fill="#66B764" d="M80.147,80.693c-3.355,2.818-31.057,25.709-31.236,25.844c-0.015-1.671,0.019-25.699,0.03-25.755
			c3.903-3.116,7.806-6.235,11.704-9.359c2.465-1.975,4.92-3.962,7.391-5.932c1.424-1.131,3.241-1.702,5.057-1.702
			c1.696,0,3.395,0.498,4.775,1.491c1.155,0.831,2.039,1.913,2.039,3.354C79.907,72.697,80.056,76.812,80.147,80.693z"/>
	</g>
	<g>
		<path fill="#E5B24D" d="M42.802,17.566H23.657c-3.401,0-6.157,2.756-6.157,6.157v14.039c0,3.4,2.756,6.158,6.157,6.158h19.145
			c3.399,0,6.156-2.758,6.156-6.158V23.723C48.958,20.323,46.201,17.566,42.802,17.566z"/>
	</g>
</g>
<g>
</g>
<g>
</g>
<g>
</g>
<g>
</g>
<g>
</g>
<g>
</g>
<g>
</g>
<g>
</g>
<g>
</g>
<g>
</g>
<g>
</g>
<g>
</g>
<g>
</g>
<g>
</g>
<g>
</g>
</svg>
