<?xml version="1.0" encoding="utf-8"?>
<!-- Generator: Adobe Illustrator 16.0.0, SVG Export Plug-In . SVG Version: 6.00 Build 0)  -->
<!DOCTYPE svg PUBLIC "-//W3C//DTD SVG 1.1//EN" "http://www.w3.org/Graphics/SVG/1.1/DTD/svg11.dtd">
<svg version="1.1" id="Layer_1" xmlns="http://www.w3.org/2000/svg" xmlns:xlink="http://www.w3.org/1999/xlink" x="0px" y="0px"
	 width="600px" height="400px" viewBox="0 0 600 400" enable-background="new 0 0 600 400" xml:space="preserve">
<g>
	<g>
		<g>
			<path fill="#4F4F4F" d="M52.26,314.453c2.346,0,4.324,1.906,4.324,4.252c0,2.42-1.979,4.326-4.324,4.326H30.926v12.828h17.081
				c2.347,0,4.253,1.906,4.253,4.254c0,2.344-1.906,4.25-4.253,4.25H30.926v17.154c0,2.348-1.979,4.252-4.326,4.252
				c-2.345,0-4.251-1.904-4.251-4.252v-42.813c0-2.346,1.906-4.252,4.251-4.252H52.26z"/>
			<path fill="#4F4F4F" d="M69.853,317.168c0.659-1.615,2.272-2.715,3.959-2.715c1.759,0,3.371,1.1,4.031,2.715l17.082,42.738
				c0.22,0.512,0.293,1.025,0.293,1.611c0,2.127-1.76,4.252-4.252,4.252c-1.687,0-3.3-1.025-3.959-2.711l-3.226-7.992H63.914
				l-3.226,7.992c-0.659,1.686-2.271,2.711-3.958,2.711c-2.566,0-4.252-2.051-4.252-4.252c0-0.512,0.073-1.1,0.293-1.611
				L69.853,317.168z M65.747,310.275c-0.293-0.586-0.44-1.246-0.44-1.906c0-1.539,0.807-3.004,2.347-3.813l8.576-4.324
				c0.587-0.293,1.174-0.441,1.833-0.441c1.613,0,3.153,0.881,3.886,2.346c0.293,0.588,0.44,1.248,0.44,1.908
				c0,1.611-0.88,3.15-2.347,3.885l-8.577,4.252c-0.586,0.293-1.246,0.439-1.905,0.439C68.021,312.621,66.479,311.74,65.747,310.275
				z M67.359,346.564h12.977l-6.524-16.35L67.359,346.564z"/>
			<path fill="#4F4F4F" d="M135.314,349.715c0,9.898-8.138,16.055-15.028,16.055h-14.955c-2.346,0-4.251-1.904-4.251-4.252v-42.813
				c0-2.346,1.905-4.252,4.251-4.252h11.803c0.366,0,3.519,0.148,6.671,1.688c4.692,2.346,7.185,6.598,7.185,12.242
				c0,3.08-0.807,5.865-2.272,8.064C132.969,339.232,135.314,343.924,135.314,349.715z M109.657,333.734h6.377
				c1.1,0,6.451-0.221,6.451-5.352c0-4.912-3.372-5.352-4.765-5.352c-0.367,0-0.587,0-0.587,0h-7.477V333.734z M126.737,349.715
				c0-2.713-1.686-7.477-6.964-7.477h-10.116v14.955h10.116c0.073,0,2.052-0.074,3.812-1.027
				C126.444,354.555,126.737,351.695,126.737,349.715z"/>
			<path fill="#4F4F4F" d="M173.652,359.246c0.441,0.732,0.66,1.467,0.66,2.271c0,1.395-0.732,2.787-2.052,3.592
				c-0.66,0.441-1.466,0.66-2.199,0.66c-1.466,0-2.859-0.732-3.666-1.979l-9.457-15.102h-7.185v12.828
				c0,2.348-1.979,4.252-4.325,4.252s-4.252-1.904-4.252-4.252v-42.813c0-2.346,1.906-4.252,4.252-4.252h11.657
				c0.438,0,4.325,0.074,8.356,2.053c5.719,2.859,8.87,8.139,8.87,15.029c0,0.439-0.072,4.398-2.052,8.357
				c-1.54,3.006-3.739,5.277-6.451,6.744L173.652,359.246z M149.754,340.113h7.332c3.664,0,6.011-1.248,7.403-3.887
				c1.174-2.199,1.246-4.545,1.246-4.691c0-3.666-1.319-6.012-4.104-7.404c-2.199-1.1-4.545-1.1-4.545-1.1h-7.332V340.113z"/>
			<path fill="#4F4F4F" d="M180.176,361.518v-42.813c0-2.346,1.905-4.252,4.251-4.252c2.347,0,4.253,1.906,4.253,4.252v42.813
				c0,2.348-1.906,4.252-4.253,4.252C182.081,365.77,180.176,363.865,180.176,361.518z"/>
			<path fill="#4F4F4F" d="M234.203,356.898c1.101,2.055,0.294,4.619-1.759,5.793c-3.739,1.98-7.918,3.078-12.244,3.078
				c-14.147,0-25.657-11.51-25.657-25.656c0-14.15,11.51-25.66,25.657-25.66c4.326,0,8.505,1.1,12.244,3.08
				c2.053,1.172,2.859,3.738,1.759,5.791c-1.173,2.127-3.739,2.859-5.865,1.76c-2.419-1.393-5.277-2.053-8.138-2.053
				c-9.383,0-17.08,7.623-17.08,17.082c0,9.455,7.697,17.08,17.08,17.08c2.86,0,5.719-0.66,8.138-2.053
				C230.464,354.041,233.03,354.775,234.203,356.898z"/>
			<path fill="#4F4F4F" d="M283.024,359.906c0.22,0.512,0.294,1.1,0.294,1.611c0,2.201-1.688,4.252-4.253,4.252
				c-1.686,0-3.3-1.025-3.958-2.711l-3.227-7.992h-19.866l-3.225,7.992c-0.66,1.686-2.273,2.711-3.96,2.711
				c-2.491,0-4.252-2.125-4.252-4.252c0-0.586,0.073-1.1,0.294-1.611l17.081-42.738c0.659-1.615,2.272-2.715,4.032-2.715
				c1.686,0,3.298,1.1,3.958,2.715L283.024,359.906z M268.435,346.564l-6.449-16.35l-6.524,16.35H268.435z"/>
		</g>
		<g>
			<path fill="#4F4F4F" d="M299.775,365.77c-0.782,0-1.465-0.291-2.05-0.879c-0.588-0.586-0.881-1.271-0.881-2.053v-45.449
				c0-0.781,0.293-1.467,0.881-2.053c0.585-0.586,1.268-0.879,2.05-0.879h13.196c0.049,0,0.623,0.035,1.722,0.109
				c1.1,0.072,2.457,0.344,4.069,0.807c1.612,0.465,3.348,1.209,5.204,2.236c1.857,1.025,3.567,2.492,5.133,4.398
				c1.563,1.904,2.871,4.324,3.922,7.256c1.05,2.934,1.575,6.551,1.575,10.85c0,4.301-0.525,7.918-1.575,10.85
				c-1.051,2.932-2.358,5.352-3.922,7.258c-1.565,1.904-3.275,3.371-5.133,4.396c-1.856,1.027-3.592,1.773-5.204,2.236
				c-1.612,0.465-2.97,0.734-4.069,0.807c-1.099,0.074-1.673,0.109-1.722,0.109H299.775z M302.93,359.758h10.042
				c0.097,0,0.391-0.023,0.879-0.072c0.489-0.047,1.101-0.158,1.833-0.328c0.732-0.172,1.564-0.439,2.494-0.809
				c0.928-0.365,1.879-0.842,2.856-1.43c2.396-1.611,4.252-3.859,5.573-6.742c1.319-2.883,1.979-6.305,1.979-10.264
				c0-4.105-0.686-7.6-2.053-10.482c-1.369-2.883-3.324-5.131-5.865-6.744c-0.879-0.586-1.783-1.037-2.712-1.355
				c-0.928-0.318-1.759-0.551-2.492-0.697c-0.732-0.146-1.565-0.268-2.492-0.365H302.93V359.758z"/>
			<path fill="#4F4F4F" d="M371.396,360.639c0.588,0.586,0.881,1.32,0.881,2.199c0,0.781-0.293,1.467-0.881,2.053
				c-0.587,0.588-1.296,0.879-2.126,0.879h-24.924c-0.831,0-1.539-0.291-2.126-0.879c-0.586-0.586-0.88-1.271-0.88-2.053v-45.449
				c0-0.781,0.294-1.467,0.88-2.053c0.587-0.586,1.295-0.879,2.126-0.879h24.924c0.83,0,1.539,0.293,2.126,0.879
				c0.588,0.586,0.881,1.271,0.881,2.053c0,0.879-0.293,1.613-0.881,2.199c-0.587,0.586-1.296,0.881-2.126,0.881h-21.919v16.713
				h17.374c0.83,0,1.526,0.281,2.089,0.844s0.843,1.258,0.843,2.088c0,0.832-0.28,1.527-0.843,2.09s-1.259,0.842-2.089,0.842
				h-17.374v16.713h21.919C370.1,359.758,370.809,360.053,371.396,360.639z"/>
		</g>
		<g>
			<path fill="#4F4F4F" d="M387.937,361.518v-42.813c0-2.346,1.905-4.252,4.253-4.252c2.344,0,4.252,1.906,4.252,4.252v42.813
				c0,2.348-1.908,4.252-4.252,4.252C389.842,365.77,387.937,363.865,387.937,361.518z"/>
			<path fill="#4F4F4F" d="M406.556,365.77c-2.346,0-4.25-1.904-4.25-4.252v-42.813c0-2.346,1.904-4.252,4.25-4.252h12.464
				c0.291,0,21.771-0.072,21.771,25.66c0,25.73-21.48,25.656-21.771,25.656H406.556z M410.881,357.193h8.139
				c0.218,0,3.519-0.074,6.816-2.199c4.252-2.713,6.378-7.771,6.378-14.881c0-7.258-2.199-12.316-6.671-15.029
				c-3.226-1.98-6.45-2.053-6.523-2.053h-8.139V357.193z"/>
			<path fill="#4F4F4F" d="M478.765,361.518c0,2.348-1.907,4.252-4.327,4.252h-23.458c-2.419,0-4.327-1.904-4.327-4.252v-42.813
				c0-2.346,1.908-4.252,4.327-4.252h23.458c2.42,0,4.327,1.906,4.327,4.252c0,2.42-1.907,4.326-4.327,4.326h-19.206v12.828h14.955
				c2.345,0,4.251,1.906,4.251,4.254c0,2.344-1.906,4.25-4.251,4.25h-14.955v12.83h19.206
				C476.857,357.193,478.765,359.1,478.765,361.518z"/>
			<path fill="#4F4F4F" d="M484.626,361.518v-42.813c0-2.346,1.906-4.252,4.251-4.252c2.348,0,4.252,1.906,4.252,4.252v42.813
				c0,2.348-1.904,4.252-4.252,4.252C486.532,365.77,484.626,363.865,484.626,361.518z"/>
			<path fill="#4F4F4F" d="M541.439,359.906c0.22,0.512,0.293,1.1,0.293,1.611c0,2.201-1.686,4.252-4.251,4.252
				c-1.686,0-3.301-1.025-3.958-2.711l-3.228-7.992h-19.867l-3.224,7.992c-0.661,1.686-2.273,2.711-3.961,2.711
				c-2.492,0-4.25-2.125-4.25-4.252c0-0.586,0.073-1.1,0.293-1.611l17.08-42.738c0.662-1.615,2.273-2.715,4.033-2.715
				c1.686,0,3.299,1.1,3.956,2.715L541.439,359.906z M526.851,346.564l-6.45-16.35l-6.525,16.35H526.851z"/>
			<path fill="#4F4F4F" d="M577.651,348.689v0.732c0,4.254-1.687,8.285-4.618,11.217c-3.226,3.227-7.625,4.986-12.463,4.986h-0.586
				c-6.231-0.221-11.657-3.738-14.224-9.238c-0.293-0.586-0.365-1.246-0.365-1.832c0-1.613,0.879-3.152,2.493-3.887
				c0.587-0.293,1.173-0.365,1.76-0.365c1.612,0,3.223,0.879,3.959,2.492c1.172,2.564,3.662,4.178,6.67,4.252h0.366
				c2.565,0,4.691-0.807,6.23-2.346c1.468-1.467,2.274-3.299,2.274-5.279v-0.293c-0.221-3.371-6.599-6.377-9.385-7.184l-0.293-0.146
				c-7.551-2.713-11.364-7.479-11.364-14.076v-0.586c0.147-3.738,1.835-7.111,4.986-9.457c2.64-2.053,6.231-3.299,10.043-3.299
				h0.659c3.079,0.072,6.232,1.32,8.798,3.225c1.1,0.881,1.687,2.127,1.687,3.373c0,0.879-0.293,1.832-0.88,2.566
				c-0.879,1.1-2.126,1.686-3.445,1.686c-0.881,0-1.759-0.221-2.565-0.805c-1.1-0.881-2.567-1.395-3.885-1.467h-0.441
				c-3.592,0-6.378,1.832-6.451,4.471v0.293c0,3.594,2.785,4.912,5.645,6.086C564.457,334.467,577.212,338.572,577.651,348.689z"/>
		</g>
	</g>
	<g>
		<g>
			<path fill="none" d="M300.304,211.838c0-0.041-0.003-0.08-0.006-0.123c-0.003-17.523-0.003-35.046-0.006-52.573
				c0.003,17.526,0.003,35.05,0.006,52.575C300.301,211.758,300.304,211.797,300.304,211.838z"/>
			<path fill="#EB4736" d="M423.639,226.816c0,0.697-0.039,1.4-0.064,2.098c-0.104,0.064-0.226,0.117-0.319,0.197
				c-19.281,16.324-38.569,32.643-57.826,48.994c-1.191,1.02-2.605,1.82-3.46,3.203h-0.383c-0.019-0.889-0.059-1.785-0.059-2.676
				c0-38.688,0-77.373-0.005-116.056c0-0.768-0.035-1.536-0.053-2.297c0.08-0.158,0.159-0.32,0.237-0.479
				c6.623-5.291,13.246-10.576,19.856-15.88c6.065-4.866,12.072-9.808,18.177-14.622c3.198-2.524,6.589-3.757,10.114-3.757
				c2.433,0,4.931,0.588,7.464,1.75c4.163,1.913,6.361,5.163,6.354,9.97C423.61,167.117,423.639,196.963,423.639,226.816z"/>
			<path fill="#5B69B0" d="M300.757,212.426c-0.04-0.014-0.462-35.757-0.465-53.284c-0.105-0.307-123.364,102.747-123.616,103.377
				c0.014,2.803,0.026,5.607,0.04,8.41c1.159,5.334,4.69,8.896,9.767,10.26c0.851,0.229,22.209,0.064,32.041,0.064
				C220.545,278.67,300.757,212.426,300.757,212.426z"/>
			<path fill="#7A5EA7" d="M361.522,162.574c0-0.765-0.035-1.531-0.054-2.295c-6.521,5.482-13.053,10.957-19.566,16.451
				c-8.801,7.424-17.591,14.858-26.382,22.297c-4.564,3.865-9.115,7.74-13.674,11.611c-0.481,0.41-0.89,0.924-1.549,1.078
				c0.003,0.043,0.006,0.082,0.006,0.123c0,0.066-0.006,0.135-0.017,0.201c0.005,23.09,0.01,46.182,0.014,69.271
				c20.428,0,40.856,0,61.286,0c-0.021-0.891-0.06-1.783-0.06-2.678C361.525,239.947,361.526,201.26,361.522,162.574z"/>
			<path fill="#E5B14E" d="M238.543,159.941c-0.023,0.112-61.868,51.814-61.966,51.896c0-3.844,0.303-96.673,0.303-103.175v-0.272
				c1.146-5.7,5.924-9.716,12.665-9.833c5.54-0.099,11.082-0.134,16.624-0.134c6.575,0,13.145,0.051,19.722,0.106
				c3.243,0.028,6.203,1.232,8.764,3.343c2.709,2.231,3.919,5.114,3.912,8.553c-0.011,2.546-0.157,5.093-0.157,7.641
				C238.392,131.584,238.497,159.505,238.543,159.941z"/>
			<path fill="#E5B14E" d="M177.02,210.854c0.813-0.551,1.604-1.145,2.372-1.756c-0.831,0.682-1.668,1.32-2.512,1.906
				c-0.1,0.072-0.205,0.141-0.303,0.213c0.098-0.084,0.203-0.166,0.303-0.246C176.926,210.93,176.973,210.896,177.02,210.854z"/>
			<path fill="#D4CC56" d="M238.482,210.281c-8.106,6.902-61.28,51.826-61.529,52.451h-0.041c0,0,0,0-0.007,0
				c-0.005,0-0.005,0-0.011,0c-0.029,0-0.053,0-0.076-0.006h-0.035c-0.029-0.006-0.064-0.01-0.093-0.018
				c-0.005,0-0.011-0.004-0.018-0.004c-0.006,0-0.006,0-0.012,0v-51.332c0.099-0.082,60.989-51.489,61.763-51.675
				C238.413,172.829,238.453,206.977,238.482,210.281z"/>
			<path fill="#554F9F" d="M218.717,281.311c27.195,0,54.392,0,81.587,0c-0.005-23.09-0.009-46.182-0.015-69.271
				C296.824,214.916,220.737,278.729,218.717,281.311z"/>
			<path fill="#DE5CA1" d="M423.661,269.547c-0.005,6.896-7.48,11.762-14.665,11.762h-47.027c0.854-1.383,2.269-2.184,3.46-3.203
				c19.257-16.352,38.545-32.67,57.826-48.994c0.094-0.08,0.216-0.133,0.319-0.197C423.6,237.967,423.672,256.145,423.661,269.547z"
				/>
			<path fill="#66A2D7" d="M301.847,210.637c4.559-3.871,9.109-7.746,13.674-11.611c8.791-7.438,17.581-14.873,26.382-22.297
				c6.514-5.494,13.045-10.969,19.566-16.451c0.081-0.159,0.161-0.315,0.238-0.477c-0.034-0.698-0.106-1.395-0.104-2.095
				c0.002-6.945-0.005-13.891,0.04-20.839c0.02-2.85-0.949-5.277-3.03-7.157c-2.988-2.698-6.893-4.06-10.791-4.06
				c-3.553,0-7.103,1.13-9.961,3.409c-6.025,4.803-11.996,9.67-18.013,14.485c-6.508,5.214-13.036,10.401-19.557,15.597
				c0.003,17.526,0.003,35.05,0.006,52.573C300.957,211.561,301.365,211.047,301.847,210.637z"/>
			<path fill="#67B765" d="M300.292,159.142c-6.641,5.577-61.455,50.875-61.81,51.139c-0.029-3.305,0.037-50.851,0.061-50.962
				c7.722-6.167,15.444-12.339,23.159-18.52c4.878-3.906,9.734-7.842,14.623-11.737c2.82-2.24,6.415-3.368,10.008-3.368
				c3.355,0,6.717,0.984,9.448,2.949c2.286,1.645,4.036,3.786,4.036,6.638C299.817,143.32,300.112,151.463,300.292,159.142z"/>
		</g>
		<g>
			<path fill="#E5B14E" d="M226.393,34.23h-37.881c-6.729,0-12.185,5.456-12.185,12.184v27.777c0,6.729,5.455,12.185,12.185,12.185
				h37.881c6.729,0,12.183-5.456,12.183-12.185V46.414C238.575,39.686,233.121,34.23,226.393,34.23z"/>
		</g>
	</g>
</g>
</svg>
