<?xml version="1.0" encoding="utf-8"?>
<!-- Generator: Adobe Illustrator 19.1.0, SVG Export Plug-In . SVG Version: 6.00 Build 0)  -->
<svg version="1.1" id="Layer_1" xmlns="http://www.w3.org/2000/svg" xmlns:xlink="http://www.w3.org/1999/xlink" x="0px" y="0px"
	 viewBox="-205 272 200 250" style="enable-background:new -205 272 200 250;" xml:space="preserve">
<style type="text/css">
	.st0{fill:#F4982C;}
	.st1{fill:#7F3600;}
	.st2{fill:#EFC39C;}
	.st3{fill:none;}
	.st4{fill:none;stroke:#EFC39C;stroke-width:4;stroke-miterlimit:10;}
</style>
<rect x="-205" y="272" class="st0" width="200" height="250"/>
<g>
	<path class="st1" d="M-105.2,342c-5.6,0-10.1,4.6-10.1,10.1c0,1.9,0.5,3.7,1.5,5.3c1.9,3,5.1,4.8,8.6,4.8c3.7,0,7.2-2,8.9-5.3
		c0.8-1.5,1.2-3.1,1.2-4.8C-95.1,346.5-99.6,342-105.2,342L-105.2,342z M-105.2,342"/>
	<path class="st2" d="M-66.6,394.1c-2.1-2.9-4.3-5.6-6.7-7.9c1.1-5.3,1.7-10.7,1.7-16c0-25.4-12.6-49-32.8-61.6
		c-0.5-0.3-1.1-0.3-1.6,0c-20.2,12.6-32.8,36.2-32.8,61.6c0,5.2,0.5,10.4,1.6,15.5c-2.3,2.3-4.6,5-6.7,7.9c-0.3,0.4-0.4,0.9-0.2,1.3
		l11.4,37.6c0.2,0.5,0.6,0.9,1.2,1.1c0.6,0.1,1.1-0.1,1.5-0.5c3.2-3.9,7.7-6.9,12.8-8.7v2.3c0,0.8,0.7,1.5,1.5,1.5h20.9
		c0.8,0,1.5-0.7,1.5-1.5v-1.9c5.1,1.8,9.6,4.8,12.8,8.7c0.3,0.4,0.7,0.6,1.2,0.6c0.1,0,0.2,0,0.3,0c0.5-0.1,1-0.5,1.2-1.1l11.4-37.6
		C-66.3,394.9-66.4,394.5-66.6,394.1L-66.6,394.1z M-93.6,358.4c-2.3,4.3-6.8,6.9-11.6,6.9c-4.6,0-8.8-2.4-11.3-6.3
		c-1.3-2.1-2-4.5-2-6.9c0-7.3,5.9-13.2,13.2-13.2c7.3,0,13.2,5.9,13.2,13.2C-92,354.3-92.6,356.5-93.6,358.4L-93.6,358.4z"/>
	<rect x="-144.2" y="308.3" class="st3" width="78.5" height="150"/>
	<g>
		<g>
			<line class="st4" x1="-148.5" y1="408.3" x2="-148.5" y2="435.8"/>
			<line class="st4" x1="-158.5" y1="425.3" x2="-158.5" y2="452.8"/>
			<line class="st4" x1="-168.5" y1="434.3" x2="-168.5" y2="461.8"/>
			<line class="st4" x1="-168.5" y1="454.3" x2="-168.5" y2="481.8"/>
			<line class="st4" x1="-158.5" y1="458.3" x2="-158.5" y2="485.8"/>
			<line class="st4" x1="-148.5" y1="448.3" x2="-148.5" y2="475.8"/>
			<line class="st4" x1="-138.5" y1="438.3" x2="-138.5" y2="465.8"/>
		</g>
		<g>
			<line class="st4" x1="-61.5" y1="408.3" x2="-61.5" y2="435.8"/>
			<line class="st4" x1="-51.5" y1="425.3" x2="-51.5" y2="452.8"/>
			<line class="st4" x1="-41.5" y1="434.3" x2="-41.5" y2="461.8"/>
			<line class="st4" x1="-41.5" y1="454.3" x2="-41.5" y2="481.8"/>
			<line class="st4" x1="-51.5" y1="458.3" x2="-51.5" y2="485.8"/>
			<line class="st4" x1="-61.5" y1="448.3" x2="-61.5" y2="475.8"/>
			<line class="st4" x1="-71.5" y1="438.3" x2="-71.5" y2="465.8"/>
		</g>
	</g>
	<rect x="-107.3" y="432" class="st1" width="4" height="27.5"/>
	<rect x="-98.3" y="432" class="st1" width="4" height="15.1"/>
	<rect x="-116.7" y="432" class="st1" width="4" height="15.1"/>
</g>
</svg>
