<?xml version="1.0" encoding="utf-8"?>
<!-- Generator: Adobe Illustrator 19.1.0, SVG Export Plug-In . SVG Version: 6.00 Build 0)  -->
<svg version="1.1" id="Layer_1" xmlns="http://www.w3.org/2000/svg" xmlns:xlink="http://www.w3.org/1999/xlink" x="0px" y="0px"
	 viewBox="-205 272 200 250" style="enable-background:new -205 272 200 250;" xml:space="preserve">
<style type="text/css">
	.st0{fill:none;stroke:#FFFFFF;stroke-miterlimit:10;}
</style>
<rect x="-205" y="272" width="200" height="250"/>
<g>
	<path class="st0" d="M-105,342c-5.6,0-10.1,4.6-10.1,10.1c0,1.9,0.5,3.7,1.5,5.3c1.9,3,5.1,4.8,8.6,4.8c3.7,0,7.2-2,8.9-5.3
		c0.8-1.5,1.2-3.1,1.2-4.8C-94.9,346.5-99.4,342-105,342L-105,342z M-105,342"/>
	<path class="st0" d="M-66.3,394.1c-2.1-2.9-4.3-5.6-6.7-7.9c1.1-5.3,1.7-10.7,1.7-16c0-25.4-12.6-49-32.8-61.6
		c-0.5-0.3-1.1-0.3-1.6,0c-20.2,12.6-32.8,36.2-32.8,61.6c0,5.2,0.5,10.4,1.6,15.5c-2.3,2.3-4.6,5-6.7,7.9c-0.3,0.4-0.4,0.9-0.2,1.3
		l11.4,37.6c0.2,0.5,0.6,0.9,1.2,1.1c0.6,0.1,1.1-0.1,1.5-0.5c3.2-3.9,7.7-6.9,12.8-8.7v2.3c0,0.8,0.7,1.5,1.5,1.5h20.9
		c0.8,0,1.5-0.7,1.5-1.5v-1.9c5.1,1.8,9.6,4.8,12.8,8.7c0.3,0.4,0.7,0.6,1.2,0.6c0.1,0,0.2,0,0.3,0c0.5-0.1,1-0.5,1.2-1.1l11.4-37.6
		C-66,394.9-66.1,394.4-66.3,394.1L-66.3,394.1z M-93.3,358.4c-2.3,4.3-6.8,6.9-11.6,6.9c-4.6,0-8.8-2.4-11.3-6.3
		c-1.3-2.1-2-4.5-2-6.9c0-7.3,5.9-13.2,13.2-13.2c7.3,0,13.2,5.9,13.2,13.2C-91.7,354.3-92.3,356.5-93.3,358.4L-93.3,358.4z"/>
	<line class="st0" x1="-148.5" y1="408.2" x2="-148.5" y2="435.7"/>
	<line class="st0" x1="-158.5" y1="425.2" x2="-158.5" y2="452.7"/>
	<line class="st0" x1="-168.5" y1="444.2" x2="-168.5" y2="471.7"/>
	<line class="st0" x1="-128.5" y1="444.2" x2="-128.5" y2="471.7"/>
	<line class="st0" x1="-158.5" y1="458.2" x2="-158.5" y2="485.7"/>
	<line class="st0" x1="-148.5" y1="448.2" x2="-148.5" y2="475.7"/>
	<line class="st0" x1="-138.5" y1="438.2" x2="-138.5" y2="465.7"/>
	<line class="st0" x1="-61.5" y1="408.2" x2="-61.5" y2="435.7"/>
	<line class="st0" x1="-51.5" y1="425.2" x2="-51.5" y2="452.7"/>
	<line class="st0" x1="-41.5" y1="444.2" x2="-41.5" y2="471.7"/>
	<line class="st0" x1="-81.5" y1="444.2" x2="-81.5" y2="471.7"/>
	<line class="st0" x1="-51.5" y1="458.2" x2="-51.5" y2="485.7"/>
	<line class="st0" x1="-61.5" y1="448.2" x2="-61.5" y2="475.7"/>
	<line class="st0" x1="-71.5" y1="438.2" x2="-71.5" y2="465.7"/>
	<g>
		<path class="st0" d="M-95,442.1c0,5.5-10,23.3-10,23.3s-10-17.8-10-23.3c0-5.5,4.5-10,10-10S-95,436.6-95,442.1z"/>
		<path class="st0" d="M-105,435.6c-3.7,0-6.8,3-6.8,6.8c0,1.2,0.4,2.5,1,3.5c1.2,2,3.4,3.2,5.8,3.2c2.5,0,4.8-1.4,6-3.5
			c0.5-1,0.8-2.1,0.8-3.2C-98.2,438.6-101.3,435.6-105,435.6L-105,435.6z M-105,435.6"/>
	</g>
</g>
</svg>
