<?xml version="1.0" encoding="utf-8"?>
<!-- Generator: Adobe Illustrator 16.0.0, SVG Export Plug-In . SVG Version: 6.00 Build 0)  -->
<!DOCTYPE svg PUBLIC "-//W3C//DTD SVG 1.1//EN" "http://www.w3.org/Graphics/SVG/1.1/DTD/svg11.dtd">
<svg version="1.1" id="Layer_1" xmlns="http://www.w3.org/2000/svg" xmlns:xlink="http://www.w3.org/1999/xlink" x="0px" y="0px"
	 width="430.479px" height="131.994px" viewBox="0 0 430.479 131.994" enable-background="new 0 0 430.479 131.994"
	 xml:space="preserve">
<g>
	<polygon fill="#6EC498" points="166.836,83.006 138.489,100.011 110.143,83.006 110.143,48.991 138.489,31.983 166.836,48.991 	"/>
	<polygon fill="#FFFFFF" points="155.162,76.545 138.489,86.547 121.816,76.545 121.816,56.537 138.489,46.533 155.162,56.537 	"/>
	<g>
		
			<line fill="none" stroke="#6FC498" stroke-width="0.2353" stroke-miterlimit="10" x1="121.816" y1="56.537" x2="138.489" y2="66.541"/>
		
			<line fill="none" stroke="#6FC498" stroke-width="0.2353" stroke-miterlimit="10" x1="155.162" y1="56.537" x2="138.489" y2="66.541"/>
		
			<line fill="none" stroke="#6FC498" stroke-width="0.2353" stroke-miterlimit="10" x1="138.489" y1="66.541" x2="138.489" y2="86.547"/>
	</g>
	<g>
		<polygon fill="#6EC498" points="130.991,79.825 128.44,78.352 128.44,68.892 130.991,70.365 		"/>
		<polygon fill="#6EC498" points="126.205,67.601 129.716,63.547 133.228,71.656 		"/>
	</g>
	<g>
		<polygon fill="#6EC498" points="148.638,78.587 146.086,80.06 146.086,70.6 148.638,69.127 		"/>
		<polygon fill="#6EC498" points="143.851,71.891 147.361,63.783 150.873,67.836 		"/>
	</g>
</g>
<g>
	<g>
		<polygon fill="#3399CC" points="90.086,83.006 61.739,100.011 33.393,83.006 33.393,48.991 61.739,31.983 90.086,48.991 		"/>
	</g>
	<g>
		<rect x="47.489" y="67.75" fill-rule="evenodd" clip-rule="evenodd" fill="#FFFFFF" width="12.5" height="12.5"/>
		<rect x="63.489" y="67.75" fill-rule="evenodd" clip-rule="evenodd" fill="#FFFFFF" width="12.5" height="12.5"/>
		<rect x="47.489" y="51.75" fill-rule="evenodd" clip-rule="evenodd" fill="#FFFFFF" width="12.5" height="12.5"/>
		<rect x="63.414" y="58.766" fill-rule="evenodd" clip-rule="evenodd" fill="#FFFFFF" width="5.484" height="5.484"/>
		<rect x="70.435" y="58.766" fill-rule="evenodd" clip-rule="evenodd" fill="#FFFFFF" width="5.484" height="5.484"/>
		<rect x="63.414" y="51.745" fill-rule="evenodd" clip-rule="evenodd" fill="#FFFFFF" width="5.484" height="5.486"/>
	</g>
</g>
<g>
	<g>
		<polygon fill="#996699" points="243.586,83.006 215.239,100.01 186.893,83.006 186.893,48.991 215.239,31.983 243.586,48.991 		
			"/>
	</g>
	<g>
		
			<ellipse fill="none" stroke="#4B344C" stroke-width="4.7384" stroke-miterlimit="10" cx="215.239" cy="73.997" rx="13.92" ry="5.5"/>
		
			<ellipse fill="none" stroke="#714D72" stroke-width="4.7384" stroke-miterlimit="10" cx="215.239" cy="65.997" rx="13.92" ry="5.5"/>
		
			<ellipse fill="none" stroke="#FFFFFF" stroke-width="4.7384" stroke-miterlimit="10" cx="215.239" cy="57.997" rx="13.92" ry="5.5"/>
	</g>
</g>
<g>
	<g>
		<polygon fill="#F89839" points="397.086,83.006 368.74,100.011 340.393,83.006 340.393,48.991 368.74,31.983 397.086,48.991 		"/>
	</g>
	<polygon fill="#FFFFFF" points="365.998,80.862 366.006,60.064 354.738,60.06 361.676,53.129 380.738,53.139 380.736,60.072 
		371.203,60.068 371.195,80.864 	"/>
</g>
<polygon fill="#EE3968" points="320.336,83.006 291.988,100.011 263.643,83.006 263.643,48.991 291.988,31.983 320.336,48.991 "/>
<circle fill="none" stroke="#FFFFFF" stroke-width="3.3932" cx="291.988" cy="65.998" r="15"/>
<g>
	<polygon fill="#FFFFFF" points="286.449,57.204 293.703,61.6 300.959,65.999 293.703,70.395 286.449,74.792 286.449,65.999 	"/>
</g>
</svg>
