<?xml version="1.0" encoding="utf-8"?>
<!-- Generator: Adobe Illustrator 19.1.0, SVG Export Plug-In . SVG Version: 6.00 Build 0)  -->
<svg version="1.1" id="Layer_1" xmlns="http://www.w3.org/2000/svg" xmlns:xlink="http://www.w3.org/1999/xlink" x="0px" y="0px"
	 viewBox="-199 201 200.3 200" style="enable-background:new -199 201 200.3 200;" xml:space="preserve">
<style type="text/css">
	.st0{fill:none;stroke:#000000;stroke-width:2;}
</style>
<g>
	<g>
		<line class="st0" x1="-138.8" y1="319.7" x2="-138.8" y2="303.4"/>
		<line class="st0" x1="-118.8" y1="319.7" x2="-118.8" y2="287"/>
		<line class="st0" x1="-98.8" y1="319.7" x2="-98.8" y2="270.6"/>
		<line class="st0" x1="-78.8" y1="319.7" x2="-78.8" y2="254.3"/>
		<line class="st0" x1="-58.8" y1="319.7" x2="-58.8" y2="237.9"/>
	</g>
	<g>
		<path d="M-123,346.4h1.7v17.3h-1.7v-8.3h-9.4v8.3h-1.7v-17.3h1.7v7.5h9.4V346.4z"/>
		<path d="M-113.1,362.6c1.4,0,2.4-0.2,3.1-0.7c0.8-0.5,1.1-1.3,1.1-2.4c0-0.6-0.1-1.2-0.4-1.6c-0.2-0.4-0.6-0.8-1-1.1
			c-0.4-0.3-0.9-0.5-1.4-0.7s-1.1-0.4-1.6-0.7c-0.7-0.3-1.4-0.6-1.9-0.9c-0.6-0.3-1-0.6-1.5-1c-0.4-0.4-0.7-0.8-0.9-1.3
			c-0.2-0.5-0.3-1-0.3-1.7c0-1.5,0.5-2.6,1.5-3.4s2.4-1.2,4.1-1.2c0.5,0,0.9,0,1.4,0.1c0.5,0.1,0.9,0.2,1.3,0.3
			c0.4,0.1,0.8,0.2,1.1,0.4c0.3,0.1,0.6,0.3,0.8,0.4l-0.6,1.4c-0.5-0.3-1.1-0.6-1.8-0.8c-0.7-0.2-1.4-0.3-2.2-0.3
			c-0.6,0-1.1,0.1-1.5,0.2c-0.5,0.1-0.9,0.3-1.2,0.5c-0.3,0.2-0.6,0.5-0.8,0.9c-0.2,0.4-0.3,0.8-0.3,1.3c0,0.5,0.1,1,0.3,1.3
			c0.2,0.4,0.5,0.7,0.8,1s0.8,0.5,1.3,0.7c0.5,0.2,1,0.4,1.6,0.7c0.7,0.3,1.3,0.6,1.9,0.9c0.6,0.3,1.1,0.6,1.6,1
			c0.5,0.4,0.8,0.9,1.1,1.4c0.3,0.6,0.4,1.2,0.4,2c0,1.6-0.5,2.7-1.6,3.5c-1.1,0.8-2.6,1.2-4.4,1.2c-0.7,0-1.3,0-1.8-0.1
			s-1-0.2-1.5-0.3c-0.4-0.1-0.8-0.3-1.1-0.4c-0.3-0.1-0.5-0.3-0.7-0.3l0.5-1.5c0.2,0.1,0.4,0.2,0.7,0.4c0.3,0.1,0.6,0.3,1,0.4
			c0.4,0.1,0.8,0.2,1.3,0.3C-114.2,362.6-113.7,362.6-113.1,362.6z"/>
		<path d="M-99.5,346.2c2.5,0,4.3,0.5,5.5,1.4c1.2,0.9,1.8,2.3,1.8,4c0,1-0.2,1.8-0.5,2.5c-0.4,0.7-0.9,1.3-1.5,1.7
			c-0.6,0.4-1.4,0.7-2.4,0.9s-2,0.3-3.2,0.3h-2.3v6.7h-1.7v-17c0.6-0.2,1.3-0.3,2.1-0.4C-101,346.3-100.2,346.2-99.5,346.2z
			 M-99.4,347.7c-0.6,0-1.2,0-1.6,0.1c-0.4,0-0.8,0.1-1.1,0.1v7.7h2.1c0.9,0,1.7-0.1,2.5-0.2s1.4-0.3,1.9-0.6
			c0.5-0.3,0.9-0.7,1.2-1.2c0.3-0.5,0.4-1.2,0.4-2c0-0.8-0.2-1.4-0.5-1.9c-0.3-0.5-0.7-0.9-1.2-1.2c-0.5-0.3-1.1-0.5-1.7-0.6
			C-98.1,347.8-98.8,347.7-99.4,347.7z"/>
		<path d="M-78.4,363.7c-0.3-0.9-0.6-1.7-0.9-2.5s-0.5-1.6-0.8-2.3h-8.5c-0.3,0.7-0.6,1.5-0.8,2.3c-0.3,0.8-0.6,1.6-0.9,2.4h-1.8
			c0.7-1.8,1.3-3.5,1.9-5c0.6-1.6,1.2-3,1.7-4.4s1.1-2.7,1.7-4s1.1-2.6,1.7-3.9h1.5c0.6,1.3,1.2,2.6,1.7,3.9c0.5,1.3,1.1,2.6,1.7,4
			s1.1,2.9,1.7,4.4c0.6,1.6,1.2,3.2,1.9,5H-78.4z M-84.3,348.3c-0.6,1.4-1.2,2.9-1.8,4.4s-1.2,3.1-1.8,4.8h7.4
			c-0.6-1.7-1.3-3.3-1.9-4.8C-83.1,351.2-83.7,349.8-84.3,348.3z"/>
		<path d="M-74.9,355.8h4.9v-5.4h1.4v5.4h4.9v1.4h-4.9v5.4H-70v-5.4h-4.9V355.8z"/>
	</g>
</g>
</svg>
