<?xml version="1.0" encoding="utf-8"?>
<!-- Generator: Adobe Illustrator 16.0.0, SVG Export Plug-In . SVG Version: 6.00 Build 0)  -->
<!DOCTYPE svg PUBLIC "-//W3C//DTD SVG 1.1//EN" "http://www.w3.org/Graphics/SVG/1.1/DTD/svg11.dtd">
<svg version="1.1" id="Layer_1" xmlns="http://www.w3.org/2000/svg" xmlns:xlink="http://www.w3.org/1999/xlink" x="0px" y="0px"
	 width="720px" height="320px" viewBox="-60 40 720 320" enable-background="new -60 40 720 320" xml:space="preserve">
<g>
	<g>
		<polygon points="167.052,250.006 83.966,300.011 0.879,250.006 0.879,149.994 83.966,99.989 167.052,149.994 		"/>
		<g>
			<g>
				<rect x="50.778" y="176.198" fill="#0098FF" width="65.76" height="23.711"/>
				<circle fill="#0098FF" cx="50.778" cy="183.701" r="16.208"/>
				<circle fill="#0098FF" cx="116.537" cy="183.701" r="16.208"/>
				<circle fill="#0098FF" cx="63.653" cy="163.696" r="16.208"/>
				<circle fill="#0098FF" cx="103.292" cy="163.696" r="16.208"/>
				<circle fill="#0098FF" cx="83.657" cy="153.971" r="16.208"/>
				<rect x="50.778" y="168.789" fill="#0098FF" width="65.76" height="16.302"/>
			</g>
			<g>
				<rect x="50.778" y="191.018" fill="#29B3FF" width="65.76" height="23.711"/>
				<circle fill="#29B3FF" cx="50.778" cy="198.52" r="16.208"/>
				<circle fill="#29B3FF" cx="116.537" cy="198.52" r="16.208"/>
				<circle fill="#29B3FF" cx="63.653" cy="178.515" r="16.208"/>
				<circle fill="#29B3FF" cx="103.292" cy="178.515" r="16.208"/>
				<circle fill="#29B3FF" cx="83.657" cy="168.79" r="16.208"/>
				<rect x="50.778" y="183.608" fill="#29B3FF" width="65.76" height="16.301"/>
			</g>
			<g>
				<rect x="50.778" y="209.542" fill="#5FCEFF" width="65.76" height="23.709"/>
				<circle fill="#5FCEFF" cx="50.778" cy="217.043" r="16.208"/>
				<circle fill="#5FCEFF" cx="116.537" cy="217.043" r="16.208"/>
				<circle fill="#5FCEFF" cx="63.653" cy="197.039" r="16.208"/>
				<circle fill="#5FCEFF" cx="103.292" cy="197.039" r="16.208"/>
				<circle fill="#5FCEFF" cx="83.657" cy="187.313" r="16.208"/>
				<rect x="50.778" y="202.132" fill="#5FCEFF" width="65.76" height="16.3"/>
			</g>
			<g>
				<rect x="50.778" y="228.063" fill="#FFFFFF" width="65.76" height="23.712"/>
				<circle fill="#FFFFFF" cx="50.778" cy="235.567" r="16.208"/>
				<circle fill="#FFFFFF" cx="116.537" cy="235.567" r="16.208"/>
				<circle fill="#FFFFFF" cx="63.653" cy="215.561" r="16.208"/>
				<circle fill="#FFFFFF" cx="103.292" cy="215.561" r="16.208"/>
				<circle fill="#FFFFFF" cx="83.657" cy="205.836" r="16.208"/>
				<rect x="50.778" y="220.656" fill="#FFFFFF" width="65.76" height="16.301"/>
			</g>
		</g>
	</g>
	<g>
		<path d="M204.631,185.984v-44.352h29.951v8.384h-19.968v8.704h17.729v8.192h-17.729V177.6h21.44v8.384H204.631z"/>
		<path d="M257.365,136.32c1.792,0,3.435,0.182,4.929,0.544c1.493,0.363,2.645,0.715,3.456,1.056l-1.856,7.616
			c-0.854-0.384-1.782-0.672-2.784-0.864c-1.003-0.192-1.931-0.288-2.783-0.288c-1.152,0-2.123,0.16-2.912,0.48
			c-0.79,0.32-1.408,0.758-1.856,1.312c-0.448,0.555-0.768,1.216-0.96,1.984c-0.192,0.768-0.288,1.6-0.288,2.496v1.664h11.776v7.936
			H252.31v25.728h-9.536v-35.456c0-4.352,1.227-7.808,3.681-10.368C248.906,137.6,252.544,136.32,257.365,136.32z M284.182,136.32
			c1.793,0,3.434,0.182,4.928,0.544c1.493,0.363,2.646,0.715,3.457,1.056l-1.856,7.616c-0.854-0.384-1.782-0.672-2.784-0.864
			c-1.003-0.192-1.931-0.288-2.783-0.288c-1.152,0-2.124,0.16-2.913,0.48c-0.79,0.32-1.408,0.758-1.855,1.312
			c-0.448,0.555-0.769,1.216-0.96,1.984c-0.192,0.768-0.288,1.6-0.288,2.496v1.664h11.775v7.936h-11.775v25.728h-9.536v-35.456
			c0-4.352,1.226-7.808,3.68-10.368C275.723,137.6,279.36,136.32,284.182,136.32z"/>
		<path d="M327.573,169.088c0,2.646-0.384,5.067-1.151,7.264c-0.769,2.198-1.878,4.075-3.328,5.632
			c-1.451,1.558-3.19,2.763-5.216,3.616c-2.027,0.853-4.3,1.28-6.816,1.28c-2.475,0-4.726-0.427-6.752-1.28
			c-2.027-0.853-3.766-2.058-5.216-3.616c-1.451-1.557-2.582-3.434-3.393-5.632c-0.811-2.197-1.216-4.618-1.216-7.264
			c0-2.645,0.416-5.056,1.248-7.232c0.832-2.176,1.984-4.032,3.456-5.568c1.472-1.536,3.221-2.73,5.248-3.584
			c2.026-0.853,4.234-1.28,6.624-1.28c2.432,0,4.661,0.427,6.688,1.28c2.026,0.854,3.766,2.048,5.217,3.584
			c1.449,1.536,2.581,3.392,3.392,5.568C327.167,164.032,327.573,166.443,327.573,169.088z M317.846,169.088
			c0-2.944-0.587-5.258-1.76-6.944c-1.175-1.685-2.849-2.528-5.024-2.528s-3.862,0.843-5.056,2.528
			c-1.195,1.686-1.792,4-1.792,6.944s0.597,5.28,1.792,7.008c1.193,1.728,2.88,2.592,5.056,2.592s3.85-0.864,5.024-2.592
			C317.259,174.368,317.846,172.032,317.846,169.088z"/>
		<path d="M355.221,160.768c-0.854-0.213-1.855-0.437-3.008-0.672c-1.151-0.234-2.39-0.352-3.712-0.352
			c-0.598,0-1.312,0.054-2.144,0.16c-0.832,0.107-1.462,0.224-1.889,0.352v25.728h-9.535v-31.872
			c1.705-0.597,3.722-1.162,6.048-1.696c2.324-0.533,4.917-0.8,7.775-0.8c0.513,0,1.13,0.032,1.856,0.096
			c0.725,0.064,1.45,0.15,2.176,0.256c0.725,0.107,1.45,0.235,2.176,0.384c0.726,0.15,1.345,0.331,1.856,0.544L355.221,160.768z"/>
		<path d="M372.373,142.592c0,1.75-0.566,3.126-1.696,4.128c-1.131,1.003-2.464,1.504-4,1.504s-2.87-0.501-4-1.504
			c-1.131-1.002-1.696-2.378-1.696-4.128c0-1.749,0.565-3.125,1.696-4.128c1.13-1.002,2.464-1.504,4-1.504s2.869,0.502,4,1.504
			C371.807,139.467,372.373,140.843,372.373,142.592z M371.477,185.984h-9.535V152.32h9.535V185.984z"/>
		<path d="M392.532,151.424c2.815,0,5.162,0.32,7.04,0.96c1.877,0.64,3.381,1.558,4.512,2.752c1.13,1.195,1.93,2.646,2.4,4.352
			c0.469,1.707,0.704,3.606,0.704,5.696v19.84c-1.366,0.299-3.265,0.651-5.696,1.056c-2.433,0.405-5.376,0.608-8.832,0.608
			c-2.176,0-4.15-0.192-5.92-0.576c-1.771-0.384-3.296-1.013-4.576-1.888c-1.28-0.874-2.262-2.016-2.944-3.424
			c-0.683-1.408-1.023-3.136-1.023-5.184c0-1.962,0.394-3.626,1.184-4.992c0.789-1.365,1.845-2.453,3.168-3.264
			c1.322-0.81,2.837-1.397,4.544-1.76c1.706-0.362,3.478-0.544,5.313-0.544c1.236,0,2.336,0.054,3.296,0.16
			c0.96,0.107,1.738,0.246,2.336,0.416v-0.896c0-1.621-0.491-2.922-1.472-3.904c-0.982-0.981-2.688-1.472-5.12-1.472
			c-1.622,0-3.223,0.118-4.8,0.352c-1.579,0.235-2.944,0.566-4.097,0.992l-1.216-7.68c0.554-0.17,1.248-0.352,2.08-0.544
			s1.738-0.362,2.72-0.512c0.981-0.149,2.017-0.277,3.104-0.384C390.324,151.478,391.422,151.424,392.532,151.424z M393.3,179.328
			c0.938,0,1.834-0.021,2.688-0.064c0.853-0.042,1.536-0.106,2.048-0.192v-7.232c-0.384-0.085-0.96-0.17-1.729-0.256
			c-0.768-0.085-1.472-0.128-2.111-0.128c-0.896,0-1.739,0.054-2.528,0.16c-0.79,0.107-1.483,0.31-2.08,0.608
			c-0.598,0.299-1.066,0.704-1.408,1.216c-0.342,0.512-0.512,1.152-0.512,1.92c0,1.494,0.501,2.528,1.504,3.104
			C390.174,179.04,391.55,179.328,393.3,179.328z"/>
		<path d="M452.051,186.88c-7.211,0-12.704-2.005-16.479-6.016c-3.776-4.01-5.664-9.706-5.664-17.088
			c0-3.669,0.576-6.944,1.728-9.824c1.152-2.88,2.73-5.312,4.736-7.296c2.005-1.984,4.394-3.488,7.168-4.512
			c2.773-1.024,5.781-1.536,9.024-1.536c1.877,0,3.584,0.139,5.119,0.416c1.536,0.278,2.881,0.598,4.032,0.96
			c1.152,0.363,2.112,0.736,2.88,1.12c0.769,0.384,1.322,0.683,1.664,0.896l-2.88,8.064c-1.366-0.725-2.955-1.344-4.768-1.856
			c-1.814-0.512-3.872-0.768-6.177-0.768c-1.535,0-3.039,0.256-4.512,0.768c-1.472,0.512-2.773,1.334-3.904,2.464
			c-1.131,1.131-2.037,2.592-2.72,4.384s-1.023,3.968-1.023,6.528c0,2.048,0.224,3.958,0.672,5.728
			c0.448,1.771,1.173,3.296,2.176,4.576c1.002,1.28,2.314,2.294,3.936,3.04c1.621,0.747,3.584,1.12,5.889,1.12
			c1.45,0,2.752-0.085,3.903-0.256c1.152-0.17,2.177-0.373,3.072-0.608c0.896-0.234,1.686-0.501,2.368-0.8
			c0.682-0.298,1.301-0.576,1.856-0.832l2.752,8c-1.408,0.854-3.393,1.622-5.952,2.304
			C458.387,186.538,455.421,186.88,452.051,186.88z"/>
		<path d="M486.099,186.624c-2.773-0.043-5.023-0.342-6.752-0.896c-1.728-0.554-3.094-1.333-4.096-2.336
			c-1.003-1.002-1.687-2.218-2.048-3.648c-0.363-1.429-0.544-3.04-0.544-4.832v-37.056l9.535-1.536v36.672
			c0,0.854,0.064,1.622,0.192,2.304c0.128,0.683,0.373,1.259,0.736,1.728c0.361,0.47,0.885,0.854,1.567,1.152
			c0.683,0.299,1.601,0.491,2.752,0.576L486.099,186.624z"/>
		<path d="M524.37,169.088c0,2.646-0.384,5.067-1.151,7.264c-0.769,2.198-1.878,4.075-3.328,5.632
			c-1.451,1.558-3.19,2.763-5.216,3.616c-2.027,0.853-4.3,1.28-6.816,1.28c-2.475,0-4.726-0.427-6.752-1.28
			c-2.027-0.853-3.766-2.058-5.216-3.616c-1.451-1.557-2.582-3.434-3.393-5.632c-0.811-2.197-1.216-4.618-1.216-7.264
			c0-2.645,0.416-5.056,1.248-7.232c0.832-2.176,1.984-4.032,3.456-5.568c1.472-1.536,3.221-2.73,5.248-3.584
			c2.026-0.853,4.234-1.28,6.624-1.28c2.432,0,4.661,0.427,6.688,1.28c2.026,0.854,3.766,2.048,5.217,3.584
			c1.449,1.536,2.581,3.392,3.392,5.568C523.964,164.032,524.37,166.443,524.37,169.088z M514.643,169.088
			c0-2.944-0.587-5.258-1.76-6.944c-1.175-1.685-2.849-2.528-5.024-2.528s-3.862,0.843-5.056,2.528
			c-1.195,1.686-1.792,4-1.792,6.944s0.597,5.28,1.792,7.008c1.193,1.728,2.88,2.592,5.056,2.592s3.85-0.864,5.024-2.592
			C514.056,174.368,514.643,172.032,514.643,169.088z"/>
		<path d="M560.466,184.832c-1.622,0.47-3.712,0.907-6.271,1.312c-2.561,0.405-5.248,0.608-8.064,0.608
			c-2.858,0-5.238-0.384-7.136-1.152c-1.899-0.768-3.403-1.845-4.512-3.232c-1.11-1.386-1.899-3.04-2.368-4.96
			c-0.471-1.92-0.704-4.032-0.704-6.336V152.32h9.536v17.6c0,3.072,0.404,5.291,1.216,6.656c0.81,1.366,2.325,2.048,4.544,2.048
			c0.682,0,1.408-0.032,2.176-0.096c0.769-0.064,1.45-0.138,2.048-0.224V152.32h9.536V184.832z"/>
		<path d="M599.121,184.896c-0.854,0.256-1.835,0.502-2.943,0.736c-1.11,0.235-2.272,0.437-3.488,0.608
			c-1.216,0.17-2.454,0.309-3.712,0.416c-1.259,0.106-2.464,0.16-3.616,0.16c-2.774,0-5.248-0.406-7.424-1.216
			c-2.176-0.81-4.011-1.973-5.504-3.488c-1.494-1.514-2.636-3.349-3.424-5.504c-0.79-2.154-1.185-4.576-1.185-7.264
			c0-2.73,0.341-5.194,1.024-7.392c0.682-2.197,1.664-4.064,2.943-5.6c1.28-1.536,2.849-2.709,4.704-3.52
			c1.856-0.81,3.979-1.216,6.368-1.216c1.322,0,2.506,0.128,3.552,0.384c1.045,0.256,2.102,0.619,3.168,1.088v-15.232l9.536-1.536
			V184.896z M577.554,168.896c0,2.944,0.66,5.312,1.983,7.104c1.322,1.792,3.285,2.688,5.889,2.688c0.853,0,1.642-0.032,2.367-0.096
			s1.322-0.138,1.792-0.224v-17.344c-0.598-0.384-1.376-0.704-2.336-0.96s-1.931-0.384-2.912-0.384
			C579.815,159.68,577.554,162.752,577.554,168.896z"/>
		<path d="M216.727,255.168c1.408,0,2.57-0.117,3.488-0.352c0.917-0.234,1.652-0.555,2.208-0.961
			c0.554-0.404,0.938-0.885,1.151-1.439c0.213-0.555,0.32-1.174,0.32-1.855c0-1.451-0.683-2.656-2.048-3.617
			c-1.366-0.959-3.712-1.994-7.04-3.104c-1.451-0.512-2.902-1.098-4.353-1.76s-2.752-1.494-3.903-2.496
			c-1.152-1.002-2.091-2.219-2.816-3.648c-0.726-1.429-1.088-3.168-1.088-5.216s0.384-3.894,1.152-5.536
			c0.768-1.643,1.855-3.04,3.264-4.191c1.408-1.152,3.114-2.037,5.12-2.656c2.005-0.618,4.266-0.928,6.784-0.928
			c2.985,0,5.567,0.319,7.744,0.959c2.176,0.641,3.968,1.345,5.376,2.112l-2.881,7.872c-1.237-0.64-2.613-1.205-4.128-1.695
			s-3.339-0.736-5.472-0.736c-2.39,0-4.107,0.33-5.152,0.992c-1.046,0.662-1.567,1.675-1.567,3.039c0,0.812,0.191,1.494,0.576,2.049
			c0.384,0.555,0.928,1.056,1.632,1.504c0.704,0.447,1.514,0.854,2.432,1.216c0.917,0.362,1.93,0.735,3.04,1.12
			c2.304,0.854,4.31,1.695,6.016,2.527s3.125,1.803,4.257,2.912c1.13,1.111,1.973,2.412,2.527,3.904
			c0.555,1.494,0.832,3.307,0.832,5.439c0,4.139-1.451,7.352-4.352,9.633c-2.902,2.283-7.275,3.424-13.12,3.424
			c-1.963,0-3.734-0.117-5.313-0.352c-1.578-0.236-2.976-0.523-4.191-0.865c-1.216-0.34-2.262-0.703-3.136-1.088
			c-0.875-0.383-1.611-0.746-2.208-1.088l2.815-7.936c1.322,0.727,2.954,1.377,4.896,1.951
			C211.531,254.879,213.91,255.168,216.727,255.168z"/>
		<path d="M239.638,246.207c0-2.984,0.458-5.6,1.376-7.84c0.917-2.239,2.122-4.105,3.616-5.6c1.493-1.492,3.21-2.624,5.151-3.393
			c1.941-0.768,3.937-1.151,5.984-1.151c4.778,0,8.554,1.462,11.328,4.384c2.772,2.924,4.16,7.223,4.16,12.896
			c0,0.555-0.022,1.162-0.064,1.824c-0.043,0.662-0.086,1.248-0.128,1.76H249.43c0.213,1.963,1.13,3.52,2.752,4.672
			c1.621,1.152,3.797,1.729,6.528,1.729c1.749,0,3.466-0.16,5.151-0.48s3.062-0.715,4.128-1.184l1.28,7.744
			c-0.512,0.256-1.195,0.512-2.048,0.768c-0.854,0.256-1.803,0.48-2.848,0.672c-1.047,0.191-2.166,0.352-3.36,0.48
			c-1.195,0.127-2.39,0.191-3.584,0.191c-3.03,0-5.664-0.447-7.904-1.344s-4.096-2.123-5.567-3.68
			c-1.473-1.557-2.561-3.402-3.265-5.537C239.99,250.986,239.638,248.684,239.638,246.207z M262.037,242.561
			c-0.043-0.811-0.182-1.602-0.416-2.369s-0.598-1.449-1.088-2.047s-1.109-1.089-1.855-1.473c-0.747-0.385-1.675-0.576-2.784-0.576
			c-1.067,0-1.984,0.182-2.752,0.544c-0.768,0.363-1.408,0.843-1.92,1.44s-0.907,1.291-1.185,2.08s-0.479,1.59-0.607,2.4H262.037z"
			/>
		<path d="M298.902,237.568c-0.854-0.215-1.855-0.438-3.008-0.673c-1.151-0.233-2.39-0.353-3.712-0.353
			c-0.598,0-1.312,0.055-2.145,0.16c-0.832,0.107-1.461,0.225-1.887,0.353v25.728h-9.537v-31.871
			c1.706-0.598,3.723-1.162,6.049-1.696c2.324-0.533,4.916-0.8,7.775-0.8c0.513,0,1.13,0.031,1.856,0.096
			c0.725,0.064,1.45,0.15,2.176,0.256c0.725,0.107,1.45,0.235,2.176,0.385s1.345,0.33,1.856,0.543L298.902,237.568z"/>
		<path d="M316.805,262.783c-2.184-4.266-4.4-9.258-6.648-14.975c-2.248-5.719-4.379-11.947-6.392-18.689h10.112
			c0.428,1.664,0.932,3.468,1.511,5.408c0.578,1.942,1.179,3.904,1.801,5.889c0.62,1.984,1.241,3.914,1.863,5.791
			c0.622,1.879,1.233,3.584,1.833,5.121c0.557-1.537,1.156-3.242,1.798-5.121c0.643-1.877,1.274-3.807,1.896-5.791
			s1.221-3.946,1.799-5.889c0.578-1.94,1.082-3.744,1.51-5.408h9.862c-2.012,6.742-4.141,12.971-6.387,18.689
			c-2.246,5.717-4.461,10.709-6.644,14.975H316.805z"/>
		<path d="M353.237,219.392c0,1.75-0.566,3.126-1.696,4.128c-1.131,1.003-2.464,1.504-4,1.504s-2.87-0.501-4-1.504
			c-1.131-1.002-1.696-2.378-1.696-4.128c0-1.749,0.565-3.125,1.696-4.128c1.13-1.002,2.464-1.504,4-1.504s2.869,0.502,4,1.504
			C352.67,216.267,353.237,217.643,353.237,219.392z M352.34,262.783h-9.535v-33.664h9.535V262.783z"/>
		<path d="M359.699,245.951c0-2.432,0.395-4.725,1.185-6.879c0.788-2.154,1.93-4.033,3.424-5.633c1.493-1.6,3.306-2.869,5.439-3.808
			c2.133-0.938,4.565-1.408,7.296-1.408c1.792,0,3.435,0.16,4.929,0.479c1.492,0.32,2.943,0.779,4.352,1.377l-1.984,7.615
			c-0.896-0.342-1.878-0.64-2.943-0.896c-1.067-0.257-2.262-0.384-3.584-0.384c-2.816,0-4.918,0.875-6.304,2.623
			c-1.388,1.75-2.08,4.055-2.08,6.912c0,3.031,0.649,5.377,1.951,7.041s3.573,2.496,6.816,2.496c1.152,0,2.389-0.107,3.712-0.32
			c1.322-0.213,2.538-0.555,3.648-1.023l1.344,7.807c-1.11,0.471-2.496,0.875-4.16,1.217c-1.664,0.34-3.499,0.512-5.504,0.512
			c-3.072,0-5.718-0.459-7.936-1.377c-2.22-0.916-4.044-2.164-5.473-3.742c-1.43-1.578-2.475-3.445-3.136-5.602
			C360.03,250.807,359.699,248.469,359.699,245.951z"/>
		<path d="M390.1,246.207c0-2.984,0.458-5.6,1.376-7.84c0.917-2.239,2.122-4.105,3.616-5.6c1.493-1.492,3.21-2.624,5.152-3.393
			c1.94-0.768,3.936-1.151,5.983-1.151c4.778,0,8.554,1.462,11.328,4.384c2.773,2.924,4.16,7.223,4.16,12.896
			c0,0.555-0.022,1.162-0.064,1.824c-0.043,0.662-0.086,1.248-0.128,1.76h-21.632c0.213,1.963,1.13,3.52,2.752,4.672
			c1.621,1.152,3.797,1.729,6.528,1.729c1.749,0,3.466-0.16,5.151-0.48s3.062-0.715,4.129-1.184l1.279,7.744
			c-0.512,0.256-1.194,0.512-2.048,0.768s-1.803,0.48-2.848,0.672c-1.046,0.191-2.166,0.352-3.36,0.48
			c-1.195,0.127-2.39,0.191-3.584,0.191c-3.03,0-5.664-0.447-7.904-1.344c-2.239-0.896-4.096-2.123-5.567-3.68
			c-1.473-1.557-2.561-3.402-3.265-5.537C390.452,250.986,390.1,248.684,390.1,246.207z M412.5,242.561
			c-0.043-0.811-0.183-1.602-0.416-2.369c-0.235-0.768-0.599-1.449-1.088-2.047c-0.491-0.598-1.11-1.089-1.856-1.473
			c-0.747-0.385-1.675-0.576-2.784-0.576c-1.066,0-1.983,0.182-2.752,0.544c-0.768,0.363-1.408,0.843-1.92,1.44
			s-0.907,1.291-1.184,2.08c-0.278,0.789-0.48,1.59-0.608,2.4H412.5z"/>
	</g>
</g>
</svg>
