<?xml version="1.0" encoding="utf-8"?>
<!-- Generator: Adobe Illustrator 19.1.0, SVG Export Plug-In . SVG Version: 6.00 Build 0)  -->
<svg version="1.1" id="Camada_1" xmlns="http://www.w3.org/2000/svg" xmlns:xlink="http://www.w3.org/1999/xlink" x="0px" y="0px"
	 viewBox="0 0 480 360" style="enable-background:new 0 0 480 360;" xml:space="preserve">
<style type="text/css">
	.st0{fill:#78C193;}
	.st1{fill:#E72D60;}
	.st2{fill:#FFFFFF;stroke:#000000;stroke-width:2;stroke-miterlimit:10;}
	.st3{fill:#3799CF;stroke:#000000;stroke-width:2;stroke-miterlimit:10;}
	.st4{fill:none;stroke:#000000;stroke-width:2;stroke-miterlimit:10;}
	.st5{fill:#E72D60;stroke:#000000;stroke-width:2;stroke-miterlimit:10;}
	.st6{fill:#A06397;stroke:#000000;stroke-width:2;stroke-miterlimit:10;}
	.st7{fill:#F4982C;stroke:#000000;stroke-width:2;stroke-miterlimit:10;}
	.st8{fill:none;stroke:#000000;stroke-width:2;stroke-miterlimit:10;stroke-dasharray:12.611,12.611;}
	.st9{fill:none;stroke:#000000;stroke-width:2;stroke-miterlimit:10;stroke-dasharray:11.9372,11.9372;}
	.st10{fill:none;stroke:#000000;stroke-width:2;stroke-miterlimit:10;stroke-dasharray:12.2656,12.2656;}
</style>
<g>
	<polygon class="st0" points="355.1,330 82.6,329.4 103.1,308.8 333.9,308.8 	"/>
	<rect x="102.8" y="112" class="st2" width="230.8" height="196.5"/>
	<polygon class="st7" points="276.8,30 160.3,30 103.1,112.3 333.9,112.3 	"/>
	<line class="st4" x1="17" y1="330" x2="419" y2="330"/>
	<g>
		<g>
			<g>
				<g>
					<g>
						<path class="st4" d="M420.8,79.9c1.4,1.4,2.8,2.9,4.2,4.3"/>
						<path class="st8" d="M433.1,93.8c41.2,53.4,39.9,128.8-4,180.8"/>
						<path class="st4" d="M424.9,279.3c-1.3,1.5-2.7,2.9-4.2,4.3"/>
					</g>
				</g>
				<g>
					<g>
						<path class="st4" d="M394.1,106.5c1.4,1.4,2.8,2.9,4.1,4.4"/>
						<path class="st9" d="M405.7,120.2c27.3,38.4,26.1,90.7-3.6,127.9"/>
						<path class="st4" d="M398.2,252.7c-1.3,1.5-2.7,2.9-4.1,4.4"/>
					</g>
				</g>
				<g>
					<g>
						<path class="st4" d="M365.4,137.7c1.4,1.4,2.8,2.9,4,4.4"/>
						<path class="st10" d="M376.3,152.3c10.8,20.1,9.8,44.9-3.2,64.1"/>
						<path class="st4" d="M369.4,221.4c-1.3,1.5-2.6,3-4,4.4"/>
					</g>
				</g>
			</g>
		</g>
	</g>
	<rect x="88.6" y="247.5" class="st6" width="14.5" height="12.3"/>
	<rect x="88.6" y="225.2" class="st6" width="14.5" height="12.3"/>
	<rect x="88.6" y="202.9" class="st6" width="14.5" height="12.3"/>
	<rect x="88.6" y="180.6" class="st6" width="14.5" height="12.3"/>
	<line class="st4" x1="88" y1="187" x2="36" y2="187"/>
	<line class="st4" x1="36" y1="187" x2="36" y2="330"/>
	<line class="st4" x1="88" y1="210" x2="36" y2="210"/>
	<line class="st4" x1="88" y1="232" x2="36" y2="232"/>
	<line class="st4" x1="88" y1="254" x2="36" y2="254"/>
	<line class="st4" x1="103.1" y1="308.8" x2="82.5" y2="329.4"/>
	<line class="st4" x1="333.9" y1="308.8" x2="355.1" y2="330"/>
	<g>
		<g>
			<rect x="141.1" y="180.2" class="st3" width="59.6" height="58.9"/>
			<line class="st4" x1="170" y1="180" x2="170" y2="240"/>
			<line class="st4" x1="140" y1="211" x2="200" y2="211"/>
		</g>
		<g>
			<rect x="236.9" y="180.2" class="st3" width="59.3" height="58.7"/>
			<line class="st4" x1="266" y1="180" x2="266" y2="240"/>
			<line class="st4" x1="236" y1="211" x2="295" y2="211"/>
		</g>
	</g>
</g>
</svg>
