<?xml version="1.0" encoding="utf-8"?>
<!-- Generator: Adobe Illustrator 16.0.0, SVG Export Plug-In . SVG Version: 6.00 Build 0)  -->
<!DOCTYPE svg PUBLIC "-//W3C//DTD SVG 1.1//EN" "http://www.w3.org/Graphics/SVG/1.1/DTD/svg11.dtd">
<svg version="1.1" id="Layer_1" xmlns="http://www.w3.org/2000/svg" xmlns:xlink="http://www.w3.org/1999/xlink" x="0px" y="0px"
	 width="400px" height="400px" viewBox="0 0 400 400" enable-background="new 0 0 400 400" xml:space="preserve">
<g>
	<polygon fill="#996699" points="366.675,300.014 200.002,400 33.325,300.014 33.325,100.006 200.002,0 366.675,100.006 	"/>
	<g>
		<g>
			<g>
				<path fill="none" stroke="#FFFFFF" stroke-width="13.5898" d="M117.881,175.636c45.387-45.383,118.852-45.383,164.238,0"/>
				<path fill="none" stroke="#FFFFFF" stroke-width="13.5898" d="M139.357,197.112c33.523-33.504,87.766-33.504,121.289,0"/>
				<path fill="none" stroke="#FFFFFF" stroke-width="13.5898" d="M164.51,220.257c19.613-19.625,51.375-19.625,70.988,0"/>
			</g>
			<path fill="#FFFFFF" d="M215.018,243.394c0,8.281-6.73,15.008-15.004,15.008c-8.301,0-15.008-6.727-15.008-15.008
				s6.707-15.004,15.008-15.004C208.287,228.39,215.018,235.112,215.018,243.394z"/>
		</g>
	</g>
</g>
</svg>
