<?xml version="1.0" encoding="utf-8"?>
<!-- Generator: Adobe Illustrator 16.0.0, SVG Export Plug-In . SVG Version: 6.00 Build 0)  -->
<!DOCTYPE svg PUBLIC "-//W3C//DTD SVG 1.1//EN" "http://www.w3.org/Graphics/SVG/1.1/DTD/svg11.dtd">
<svg version="1.1" id="Layer_1" xmlns="http://www.w3.org/2000/svg" xmlns:xlink="http://www.w3.org/1999/xlink" x="0px" y="0px"
	 width="333.333px" height="400px" viewBox="0 0 333.333 400" enable-background="new 0 0 333.333 400" xml:space="preserve">
<g>
	<polygon fill="#3399CC" points="166.673,200 250.022,250 333.333,300 250.004,350 166.673,400 166.673,300 	"/>
	<polygon fill="#996699" points="333.333,100 250.094,150 166.673,200 250.002,250 333.333,300 333.333,200 	"/>
	<polygon fill="#F89839" points="166.689,0 83.342,50 0,100 83.344,150 166.689,200 166.689,100 	"/>
	<polygon fill="#EE3968" points="166.673,0 249.998,50 333.333,100 250.004,150 166.673,200 166.673,100 	"/>
	<polygon fill="#FFCE09" points="166.689,200 83.342,250 0,300 83.344,350 166.689,400 166.689,300 	"/>
	<polygon fill="#6EC498" points="0.016,100 83.339,150 166.673,200 83.346,250 0.016,300 0.016,200 	"/>
</g>
</svg>
