<?xml version="1.0" encoding="utf-8"?>
<!-- Generator: Adobe Illustrator 16.0.0, SVG Export Plug-In . SVG Version: 6.00 Build 0)  -->
<!DOCTYPE svg PUBLIC "-//W3C//DTD SVG 1.1//EN" "http://www.w3.org/Graphics/SVG/1.1/DTD/svg11.dtd">
<svg version="1.1" id="Layer_1" xmlns="http://www.w3.org/2000/svg" xmlns:xlink="http://www.w3.org/1999/xlink" x="0px" y="0px"
	 width="285px" height="250px" viewBox="0 0 285 250" enable-background="new 0 0 285 250" xml:space="preserve">
<g>
	
		<line fill="none" stroke="#171617" stroke-width="3.7441" stroke-miterlimit="10" stroke-dasharray="4" x1="154.993" y1="89.878" x2="154.993" y2="-0.542"/>
	<g>
		<polygon fill="#171617" stroke="#000000" stroke-width="0.6159" stroke-miterlimit="10" points="153.021,81.215 156.97,81.215 
			157.97,87.632 157.97,98.639 152.021,98.639 152.021,87.632 		"/>
		
			<line fill="none" stroke="#000000" stroke-width="0.6159" stroke-miterlimit="10" x1="152.021" y1="87.632" x2="157.97" y2="87.632"/>
		
			<line fill="none" stroke="#000000" stroke-width="0.6159" stroke-miterlimit="10" x1="152.226" y1="86.314" x2="157.764" y2="86.31"/>
		
			<line fill="none" stroke="#000000" stroke-width="0.6159" stroke-miterlimit="10" x1="152.419" y1="85.074" x2="157.575" y2="85.104"/>
		
			<line fill="none" stroke="#000000" stroke-width="0.6159" stroke-miterlimit="10" x1="152.597" y1="83.938" x2="157.392" y2="83.925"/>
		
			<line fill="none" stroke="#000000" stroke-width="0.6159" stroke-miterlimit="10" x1="152.753" y1="82.933" x2="157.237" y2="82.93"/>
		
			<line fill="none" stroke="#000000" stroke-width="0.6159" stroke-miterlimit="10" x1="152.867" y1="82.033" x2="157.113" y2="82.033"/>
	</g>
	
		<line fill="none" stroke="#FFCE09" stroke-width="6.2402" stroke-miterlimit="10" stroke-dasharray="4" x1="125.215" y1="89.878" x2="125.215" y2="-0.542"/>
	<g>
		<polygon fill="#FFCE09" stroke="#F89839" stroke-width="0.8388" stroke-miterlimit="10" points="121.492,90.653 128.939,90.653 
			129.939,94.911 129.939,100.834 120.492,100.834 120.492,94.827 		"/>
		<rect x="121.924" y="80.911" fill="#FFCE09" width="6.583" height="9.333"/>
		
			<line fill="none" stroke="#F89839" stroke-width="0.8388" stroke-miterlimit="10" x1="121.327" y1="89.411" x2="128.994" y2="89.411"/>
		
			<line fill="none" stroke="#F89839" stroke-width="0.8388" stroke-miterlimit="10" x1="121.327" y1="88.411" x2="128.994" y2="88.411"/>
		
			<line fill="none" stroke="#F89839" stroke-width="0.8388" stroke-miterlimit="10" x1="121.327" y1="87.411" x2="128.994" y2="87.411"/>
		
			<line fill="none" stroke="#F89839" stroke-width="0.8388" stroke-miterlimit="10" x1="121.327" y1="86.411" x2="128.994" y2="86.411"/>
		
			<line fill="none" stroke="#F89839" stroke-width="0.8388" stroke-miterlimit="10" x1="121.327" y1="85.411" x2="128.994" y2="85.411"/>
		
			<line fill="none" stroke="#F89839" stroke-width="0.8388" stroke-miterlimit="10" x1="121.327" y1="84.411" x2="128.994" y2="84.411"/>
		
			<line fill="none" stroke="#F89839" stroke-width="0.8388" stroke-miterlimit="10" x1="121.327" y1="83.411" x2="128.994" y2="83.411"/>
		
			<line fill="none" stroke="#F89839" stroke-width="0.8388" stroke-miterlimit="10" x1="121.327" y1="82.411" x2="128.994" y2="82.411"/>
	</g>
	<g>
		<polygon fill="#3399CC" points="140.824,205.74 142.013,204.302 142.013,197.807 134.636,197.807 134.636,204.302 135.84,205.74 
					"/>
		<g>
			<polygon fill="#3399CC" stroke="#1D304B" stroke-miterlimit="10" points="147.197,172.459 147.197,190.876 145.197,197.807 
				131.451,197.807 129.451,190.898 129.451,172.459 			"/>
			<g>
				<path fill="#FFFFFF" d="M134.104,187.285h0.78v3.465h-0.78v-1.47h-1.31v1.47h-0.78v-3.465h0.78v1.325h1.31V187.285z"/>
				<path fill="#FFFFFF" d="M138.719,189.014c0,0.301-0.047,0.563-0.141,0.785c-0.093,0.224-0.225,0.408-0.396,0.556
					c-0.172,0.146-0.381,0.256-0.628,0.329s-0.523,0.11-0.83,0.11c-0.14,0-0.304-0.006-0.489-0.018
					c-0.188-0.012-0.371-0.035-0.551-0.072v-3.375c0.18-0.033,0.367-0.056,0.563-0.067s0.363-0.018,0.502-0.018
					c0.297,0,0.566,0.033,0.809,0.1c0.241,0.067,0.449,0.172,0.622,0.315s0.307,0.326,0.399,0.55
					C138.672,188.433,138.719,188.702,138.719,189.014z M136.464,190.115c0.036,0.003,0.079,0.006,0.128,0.007
					c0.048,0.002,0.105,0.003,0.172,0.003c0.391,0,0.68-0.099,0.867-0.295c0.188-0.196,0.283-0.469,0.283-0.815
					c0-0.363-0.09-0.638-0.271-0.824c-0.18-0.188-0.465-0.28-0.854-0.28c-0.054,0-0.109,0.001-0.166,0.002
					c-0.057,0.002-0.109,0.006-0.159,0.013V190.115z"/>
				<path fill="#FFFFFF" d="M140.289,187.285c0.061,0.109,0.129,0.246,0.207,0.407c0.08,0.162,0.162,0.337,0.246,0.525
					c0.086,0.188,0.17,0.381,0.254,0.577c0.084,0.197,0.162,0.382,0.236,0.555c0.072-0.173,0.152-0.357,0.234-0.555
					c0.084-0.196,0.17-0.389,0.254-0.577c0.086-0.188,0.168-0.363,0.246-0.525c0.078-0.161,0.148-0.298,0.209-0.407h0.709
					c0.033,0.229,0.064,0.487,0.092,0.772c0.029,0.285,0.055,0.582,0.076,0.89c0.021,0.309,0.041,0.618,0.061,0.928
					c0.018,0.31,0.033,0.602,0.047,0.875h-0.76c-0.01-0.337-0.023-0.703-0.041-1.1c-0.016-0.397-0.041-0.797-0.074-1.2
					c-0.061,0.14-0.127,0.295-0.201,0.465c-0.072,0.17-0.146,0.34-0.219,0.51c-0.07,0.17-0.141,0.333-0.207,0.487
					c-0.066,0.155-0.125,0.288-0.172,0.397h-0.545c-0.047-0.109-0.104-0.242-0.17-0.397c-0.068-0.154-0.137-0.317-0.209-0.487
					s-0.145-0.34-0.219-0.51c-0.072-0.17-0.14-0.325-0.2-0.465c-0.033,0.403-0.058,0.803-0.075,1.2
					c-0.016,0.396-0.029,0.763-0.039,1.1h-0.761c0.014-0.273,0.029-0.565,0.048-0.875c0.018-0.31,0.038-0.619,0.061-0.928
					c0.021-0.308,0.046-0.604,0.074-0.89s0.059-0.543,0.093-0.772H140.289z"/>
				<path fill="#FFFFFF" d="M143.855,187.285h0.779v3.465h-0.779V187.285z"/>
			</g>
		</g>
		<line fill="none" stroke="#1D304B" stroke-miterlimit="10" x1="134.636" y1="199.302" x2="142.013" y2="199.302"/>
		<line fill="none" stroke="#1D304B" stroke-miterlimit="10" x1="134.636" y1="200.802" x2="142.013" y2="200.802"/>
		<line fill="none" stroke="#1D304B" stroke-miterlimit="10" x1="134.636" y1="202.302" x2="142.013" y2="202.302"/>
		<line fill="none" stroke="#1D304B" stroke-miterlimit="10" x1="134.636" y1="203.802" x2="142.013" y2="203.802"/>
	</g>
	
		<line fill="none" stroke="#3399CC" stroke-width="4" stroke-miterlimit="10" stroke-dasharray="4.5711" x1="138.324" y1="204.875" x2="138.324" y2="250.542"/>
	<polyline fill="none" stroke="#FFCE09" stroke-width="5" stroke-miterlimit="10" stroke-dasharray="7" points="219.428,160.781 
		236.875,160.886 236.875,249.458 	"/>
	<polyline fill="none" stroke="#996699" stroke-width="2" stroke-miterlimit="10" stroke-dasharray="3.2247" points="
		60.861,160.886 46.625,160.886 46.625,249.458 	"/>
	<rect x="58.042" y="119.458" stroke="#565656" stroke-miterlimit="10" width="23.104" height="27.749"/>
	<g>
		<polygon fill="#FFCE09" points="218.517,163.985 210.546,166.985 210.546,154.5 218.517,157.5 		"/>
		<polygon fill="#FFCE09" stroke="#F89839" stroke-width="0.869" stroke-miterlimit="10" points="197.118,167.985 197.118,153.5 
			208.518,153.5 210.546,154.5 210.546,166.985 208.518,167.985 		"/>
		<path fill="#FFCE09" stroke="#F89839" stroke-width="0.869" stroke-miterlimit="10" d="M208.63,167.985"/>
		
			<line fill="none" stroke="#F89839" stroke-width="0.8801" stroke-miterlimit="10" x1="212.005" y1="154.5" x2="212.005" y2="167"/>
		
			<line fill="none" stroke="#F89839" stroke-width="0.903" stroke-miterlimit="10" x1="213.505" y1="155.25" x2="213.505" y2="166.25"/>
		
			<line fill="none" stroke="#F89839" stroke-width="0.9361" stroke-miterlimit="10" x1="215.005" y1="156" x2="215.005" y2="165.5"/>
		
			<line fill="none" stroke="#F89839" stroke-width="0.8854" stroke-miterlimit="10" x1="216.505" y1="156.5" x2="216.505" y2="165"/>
		<rect x="217.686" y="157.188" fill="#F89839" width="3.486" height="7.186"/>
	</g>
	<polygon fill="#6EC498" stroke="#579975" stroke-miterlimit="10" points="220.793,127.585 220.793,145.013 201.611,143.013 
		201.611,129.585 	"/>
	<g>
		<g>
			<path fill="none" stroke="#579975" stroke-width="2" stroke-miterlimit="10" stroke-dasharray="1" d="M230.963,126.906
				c5.19,5.192,5.19,13.595,0,18.786"/>
			<path fill="none" stroke="#579975" stroke-width="2" stroke-miterlimit="10" stroke-dasharray="1" d="M228.506,129.363
				c3.832,3.834,3.832,10.038,0,13.874"/>
			<path fill="none" stroke="#579975" stroke-width="2" stroke-miterlimit="10" stroke-dasharray="1" d="M225.858,132.24
				c2.245,2.242,2.245,5.877,0,8.121"/>
		</g>
	</g>
	<g>
		<polygon fill="#996699" points="61.772,162.376 69.743,163.772 69.743,157.965 61.772,159.361 		"/>
		<polygon fill="#996699" stroke="#654566" stroke-width="0.75" stroke-miterlimit="10" points="83.171,164.237 83.171,157.5 
			71.772,157.5 69.743,157.965 69.743,163.772 71.772,164.237 		"/>
		<path fill="#FFCE09" stroke="#F89839" stroke-width="0.5926" stroke-miterlimit="10" d="M71.659,164.237"/>
		
			<line fill="none" stroke="#654566" stroke-width="0.75" stroke-miterlimit="10" x1="68.284" y1="157.965" x2="68.284" y2="163.78"/>
		
			<line fill="none" stroke="#654566" stroke-width="0.75" stroke-miterlimit="10" x1="66.784" y1="158.315" x2="66.784" y2="163.43"/>
		
			<line fill="none" stroke="#654566" stroke-width="0.75" stroke-miterlimit="10" x1="65.284" y1="158.664" x2="65.284" y2="163.082"/>
		
			<line fill="none" stroke="#654566" stroke-width="0.75" stroke-miterlimit="10" x1="63.784" y1="158.895" x2="63.784" y2="162.849"/>
		<rect x="59.118" y="159.215" fill="#654566" width="3.486" height="3.342"/>
	</g>
	<g>
		
			<rect x="83.63" y="97.75" fill="#FFFFFF" stroke="#EF4069" stroke-width="0.5085" stroke-miterlimit="10" width="109.965" height="85.844"/>
		<g>
			<g>
				<g>
					<path fill="#010101" stroke="#FFFFFF" stroke-width="0.2021" stroke-miterlimit="10" d="M129.542,141.023"/>
				</g>
				<g>
					<path fill="#010101" stroke="#FFFFFF" stroke-width="0.2021" stroke-miterlimit="10" d="M129.542,141.023"/>
				</g>
				<g>
					<path fill="#010101" stroke="#FFFFFF" stroke-width="0.2021" stroke-miterlimit="10" d="M129.542,141.023"/>
				</g>
				<g>
					<path fill="#010101" stroke="#FFFFFF" stroke-width="0.2021" stroke-miterlimit="10" d="M129.542,141.023"/>
				</g>
			</g>
			<polyline fill="#3399CC" points="144.07,115.754 151.65,128.388 159.231,141.022 144.07,141.022 128.91,141.022 			"/>
			<polyline fill="#996699" points="144.07,115.754 128.91,115.754 113.749,115.754 121.33,128.375 128.91,141.022 			"/>
			<polyline fill="#F89839" points="98.587,141.02 106.168,153.656 113.749,166.292 121.33,153.655 128.91,141.02 			"/>
			<polyline fill="#EE3968" points="98.587,141.022 106.168,128.389 113.749,115.754 121.33,128.388 128.91,141.022 			"/>
			<polyline fill="#FFCE09" points="144.07,166.292 151.65,153.655 159.231,141.02 144.07,141.02 128.91,141.02 			"/>
			<polyline fill="#6EC498" points="144.07,166.29 128.91,166.29 113.749,166.29 121.33,153.656 128.91,141.022 			"/>
			<g>
				<g>
					<g>
						
							<line fill="none" stroke="#FFFFFF" stroke-width="0.6064" stroke-miterlimit="10" x1="98.587" y1="141.018" x2="99.295" y2="141.018"/>
						
							<line fill="none" stroke="#FFFFFF" stroke-width="0.6064" stroke-miterlimit="10" stroke-dasharray="1.3765,1.3765" x1="100.671" y1="141.018" x2="127.514" y2="141.023"/>
						
							<line fill="none" stroke="#FFFFFF" stroke-width="0.6064" stroke-miterlimit="10" x1="128.202" y1="141.023" x2="128.91" y2="141.023"/>
					</g>
				</g>
				<g>
					<g>
						
							<line fill="none" stroke="#FFFFFF" stroke-width="0.6064" stroke-miterlimit="10" x1="128.91" y1="141.023" x2="129.273" y2="140.417"/>
						
							<line fill="none" stroke="#FFFFFF" stroke-width="0.6064" stroke-miterlimit="10" stroke-dasharray="1.4764,1.4764" x1="130.033" y1="139.15" x2="143.326" y2="116.994"/>
						
							<line fill="none" stroke="#FFFFFF" stroke-width="0.6064" stroke-miterlimit="10" x1="143.706" y1="116.361" x2="144.07" y2="115.754"/>
					</g>
				</g>
				<g>
					<g>
						
							<line fill="none" stroke="#FFFFFF" stroke-width="0.6064" stroke-miterlimit="10" x1="128.91" y1="141.023" x2="129.273" y2="141.629"/>
						
							<line fill="none" stroke="#FFFFFF" stroke-width="0.6064" stroke-miterlimit="10" stroke-dasharray="1.4764,1.4764" x1="130.033" y1="142.896" x2="143.326" y2="165.052"/>
						
							<line fill="none" stroke="#FFFFFF" stroke-width="0.6064" stroke-miterlimit="10" x1="143.706" y1="165.685" x2="144.07" y2="166.292"/>
					</g>
				</g>
			</g>
			<g>
				
					<line fill="none" stroke="#FFFFFF" stroke-width="0.6064" stroke-miterlimit="10" x1="159.231" y1="141.018" x2="128.91" y2="141.023"/>
				
					<line fill="none" stroke="#FFFFFF" stroke-width="0.6064" stroke-miterlimit="10" x1="128.91" y1="141.023" x2="113.749" y2="115.754"/>
				
					<line fill="none" stroke="#FFFFFF" stroke-width="0.6064" stroke-miterlimit="10" x1="128.91" y1="141.023" x2="113.749" y2="166.292"/>
			</g>
		</g>
		
			<rect x="196.566" y="103.006" fill="#FFFFFF" stroke="#EF4069" stroke-width="0.5085" stroke-miterlimit="10" width="6.168" height="75.683"/>
		
			<rect x="74.633" y="103.006" fill="#FFFFFF" stroke="#EF4069" stroke-width="0.5085" stroke-miterlimit="10" width="6.167" height="75.683"/>
		
			<line fill="none" stroke="#EE3968" stroke-width="5.2692" stroke-miterlimit="10" x1="81.146" y1="185.264" x2="81.146" y2="96.322"/>
		
			<line fill="none" stroke="#EE3968" stroke-width="5.2692" stroke-miterlimit="10" x1="196.082" y1="185.264" x2="196.082" y2="96.322"/>
		<g>
			<path d="M165.484,148.068V146.1h8.741v1.968h-3.708v3.305h3.708v1.968h-8.741v-1.968h3.343v-3.305H165.484z"/>
			<path d="M174.402,140.663c0,0.614-0.087,1.144-0.259,1.59c-0.172,0.445-0.412,0.813-0.719,1.104s-0.673,0.505-1.098,0.644
				s-0.894,0.208-1.406,0.208h-5.437v-1.968h5.272c0.354,0,0.654-0.04,0.901-0.12c0.249-0.08,0.45-0.189,0.605-0.328
				c0.156-0.139,0.268-0.307,0.335-0.504c0.067-0.198,0.101-0.414,0.101-0.65c0-0.479-0.146-0.868-0.441-1.166
				c-0.294-0.299-0.795-0.448-1.501-0.448h-5.272v-1.968h5.437c0.513,0,0.983,0.071,1.413,0.215
				c0.429,0.143,0.796,0.361,1.104,0.655c0.307,0.295,0.544,0.669,0.713,1.123C174.318,139.502,174.402,140.041,174.402,140.663z"/>
			<path d="M174.338,132.25c0,0.479-0.015,0.957-0.044,1.432c-0.029,0.476-0.099,0.97-0.208,1.482h-8.477
				c-0.075-0.404-0.133-0.846-0.17-1.325c-0.038-0.479-0.057-0.925-0.057-1.337c0-0.555,0.04-1.065,0.119-1.532
				c0.08-0.467,0.217-0.868,0.41-1.205c0.193-0.336,0.448-0.599,0.763-0.788c0.315-0.189,0.705-0.283,1.167-0.283
				c0.698,0,1.249,0.336,1.652,1.009c0.211-0.555,0.497-0.934,0.858-1.136c0.361-0.201,0.77-0.303,1.224-0.303
				c0.916,0,1.605,0.335,2.068,1.003C174.108,129.935,174.338,130.929,174.338,132.25z M168.915,133.246v-0.958
				c0-0.605-0.077-1.039-0.233-1.3c-0.155-0.26-0.405-0.391-0.75-0.391c-0.354,0-0.602,0.135-0.744,0.403
				c-0.144,0.27-0.215,0.665-0.215,1.186c0,0.169,0.002,0.35,0.006,0.543c0.005,0.193,0.016,0.365,0.032,0.517H168.915z
				 M170.416,133.246h2.258c0.018-0.143,0.03-0.298,0.038-0.467c0.009-0.168,0.013-0.353,0.013-0.555
				c0-0.588-0.084-1.063-0.252-1.425c-0.169-0.362-0.479-0.543-0.934-0.543c-0.404,0-0.691,0.151-0.864,0.454
				c-0.172,0.303-0.259,0.736-0.259,1.3V133.246z"/>
		</g>
		<rect x="128.908" y="177.84" fill="#EE3968" width="16.854" height="3.154"/>
		<rect x="128.908" y="100.056" fill="#EE3968" width="16.854" height="3.152"/>
	</g>
	<g>
		<path fill="#FFFFFF" d="M215.325,139.581c0.137-0.04,0.291-0.084,0.462-0.132c0.172-0.049,0.35-0.1,0.533-0.155
			c0.183-0.055,0.366-0.11,0.55-0.167s0.354-0.111,0.51-0.165c-0.17-0.044-0.354-0.088-0.555-0.133
			c-0.2-0.046-0.407-0.088-0.62-0.128c-0.214-0.041-0.426-0.08-0.638-0.118s-0.416-0.075-0.612-0.108v-0.811
			c0.58,0.117,1.168,0.253,1.765,0.405c0.597,0.153,1.163,0.317,1.7,0.495v0.714c-0.32,0.116-0.656,0.229-1.008,0.339
			c-0.352,0.11-0.704,0.219-1.058,0.324c0.354,0.107,0.706,0.215,1.058,0.321s0.688,0.218,1.008,0.335v0.713
			c-0.537,0.178-1.104,0.343-1.7,0.494c-0.597,0.152-1.185,0.287-1.765,0.404v-0.844c0.196-0.034,0.4-0.07,0.612-0.111
			c0.212-0.04,0.424-0.082,0.638-0.125c0.213-0.044,0.42-0.088,0.62-0.134c0.2-0.045,0.385-0.091,0.555-0.138
			c-0.163-0.061-0.337-0.119-0.52-0.176c-0.184-0.057-0.367-0.111-0.551-0.165c-0.183-0.054-0.359-0.103-0.529-0.147
			s-0.322-0.086-0.455-0.123V139.581z"/>
		<path fill="#FFFFFF" d="M215.03,136.404c0.137,0,0.244,0.045,0.322,0.133s0.117,0.193,0.117,0.313c0,0.12-0.039,0.225-0.117,0.313
			s-0.186,0.133-0.322,0.133s-0.244-0.045-0.323-0.133c-0.078-0.088-0.117-0.192-0.117-0.313c0-0.119,0.039-0.225,0.117-0.313
			C214.786,136.449,214.894,136.404,215.03,136.404z M218.42,136.474v0.745h-2.63v-0.745H218.42z"/>
		<path fill="#FFFFFF" d="M216.59,136v-1.45h0.675V136H216.59z"/>
		<path fill="#FFFFFF" d="M218.42,134.025h-3.465v-2.32h0.655v1.539h0.725v-1.369h0.655v1.369h1.43V134.025z"/>
		<path fill="#FFFFFF" d="M215.03,130.389c0.137,0,0.244,0.044,0.322,0.132c0.078,0.089,0.117,0.193,0.117,0.313
			c0,0.121-0.039,0.225-0.117,0.313c-0.078,0.089-0.186,0.133-0.322,0.133s-0.244-0.044-0.323-0.133
			c-0.078-0.088-0.117-0.191-0.117-0.313c0-0.119,0.039-0.224,0.117-0.313C214.786,130.433,214.894,130.389,215.03,130.389z
			 M218.42,130.458v0.746h-2.63v-0.746H218.42z"/>
	</g>
</g>
</svg>
