<?xml version="1.0" encoding="utf-8"?>
<!-- Generator: Adobe Illustrator 16.0.0, SVG Export Plug-In . SVG Version: 6.00 Build 0)  -->
<!DOCTYPE svg PUBLIC "-//W3C//DTD SVG 1.1//EN" "http://www.w3.org/Graphics/SVG/1.1/DTD/svg11.dtd">
<svg version="1.1" id="Layer_1" xmlns="http://www.w3.org/2000/svg" xmlns:xlink="http://www.w3.org/1999/xlink" x="0px" y="0px"
	 width="93.705px" height="135.497px" viewBox="0 0 93.705 135.497" enable-background="new 0 0 93.705 135.497"
	 xml:space="preserve">
<g>
	<g>
		
			<rect x="1.76" y="9.748" fill="#FFFFFF" stroke="#EF4069" stroke-width="0.5357" stroke-miterlimit="10" width="90.44" height="115.852"/>
		
			<rect x="6.928" y="128.731" fill="#FFFFFF" stroke="#EF4069" stroke-width="0.5357" stroke-miterlimit="10" width="79.736" height="6.498"/>
		
			<rect x="6.928" y="0.268" fill="#FFFFFF" stroke="#EF4069" stroke-width="0.5357" stroke-miterlimit="10" width="79.736" height="6.499"/>
		<line fill="none" stroke="#EE3968" stroke-width="5.5514" stroke-miterlimit="10" x1="0" y1="7.129" x2="93.705" y2="7.129"/>
		<line fill="none" stroke="#EE3968" stroke-width="5.5514" stroke-miterlimit="10" x1="0" y1="128.221" x2="93.705" y2="128.221"/>
		<rect x="4.498" y="9.748" fill="#EE3968" width="3.324" height="115.852"/>
		<rect x="86.449" y="9.748" fill="#EE3968" width="3.322" height="115.852"/>
	</g>
	<g>
		<g>
			<path fill="#A5D6AB" stroke="#545554" stroke-width="0.7266" stroke-miterlimit="10" d="M72.023,74.631"/>
		</g>
		<g>
			<path fill="#A5D6AB" stroke="#545554" stroke-width="0.7266" stroke-miterlimit="10" d="M23.968,74.631"/>
		</g>
		<g>
			<path fill="#A5D6AB" stroke="#545554" stroke-width="0.7266" stroke-miterlimit="10" d="M36.954,82.782"/>
		</g>
		<g>
			<path fill="#A5D6AB" stroke="#545554" stroke-width="0.7266" stroke-miterlimit="10" d="M56.748,82.782"/>
		</g>
		<g>
			<g>
				<g>
					<path fill="#A5D6AB" stroke="#545554" stroke-width="0.7266" stroke-miterlimit="10" d="M36.957,52.715"/>
				</g>
				<g>
					<path fill="#A5D6AB" stroke="#545554" stroke-width="0.7266" stroke-miterlimit="10" d="M56.751,52.715"/>
				</g>
				<path fill="#A5D6AB" stroke="#545554" stroke-width="0.7266" stroke-miterlimit="10" d="M38.313,52.715
					c0,1.729-1.402,3.131-3.133,3.131H18.938c-1.729,0-3.131-1.402-3.131-3.131l0,0c0-1.73,1.401-3.132,3.131-3.132H35.18
					C36.91,49.583,38.313,50.985,38.313,52.715L38.313,52.715z"/>
				<path fill="#A5D6AB" stroke="#545554" stroke-width="0.7266" stroke-miterlimit="10" d="M77.9,52.715
					c0,1.729-1.402,3.131-3.132,3.131H58.527c-1.732,0-3.133-1.402-3.133-3.131l0,0c0-1.73,1.4-3.132,3.133-3.132h16.241
					C76.498,49.583,77.9,50.985,77.9,52.715L77.9,52.715z"/>
				<circle fill="#A5D6AB" stroke="#545554" stroke-width="0.7266" stroke-miterlimit="10" cx="46.854" cy="52.715" r="3.132"/>
			</g>
			<g>
				<circle fill="#A5D6AB" stroke="#545554" stroke-width="0.7266" stroke-miterlimit="10" cx="27.31" cy="67.749" r="3.132"/>
				<circle fill="#A5D6AB" stroke="#545554" stroke-width="0.7266" stroke-miterlimit="10" cx="66.396" cy="67.749" r="3.132"/>
				<circle fill="#A5D6AB" stroke="#545554" stroke-width="0.7266" stroke-miterlimit="10" cx="46.852" cy="67.749" r="3.132"/>
			</g>
			<path fill="#A5D6AB" stroke="#545554" stroke-width="0.7266" stroke-miterlimit="10" d="M38.313,82.782
				c0,1.729-1.404,3.133-3.133,3.133H18.938c-1.729,0-3.131-1.404-3.131-3.133l0,0c0-1.729,1.401-3.131,3.131-3.131H35.18
				C36.908,79.651,38.313,81.053,38.313,82.782L38.313,82.782z"/>
			<path fill="#A5D6AB" stroke="#545554" stroke-width="0.7266" stroke-miterlimit="10" d="M77.9,82.782
				c0,1.729-1.402,3.133-3.132,3.133H58.526c-1.731,0-3.132-1.404-3.132-3.133l0,0c0-1.729,1.4-3.131,3.132-3.131h16.242
				C76.498,79.651,77.9,81.053,77.9,82.782L77.9,82.782z"/>
			<circle fill="#A5D6AB" stroke="#545554" stroke-width="0.7266" stroke-miterlimit="10" cx="46.853" cy="82.782" r="3.132"/>
		</g>
	</g>
</g>
</svg>
