<?xml version="1.0" encoding="utf-8"?>
<!-- Generator: Adobe Illustrator 16.0.0, SVG Export Plug-In . SVG Version: 6.00 Build 0)  -->
<!DOCTYPE svg PUBLIC "-//W3C//DTD SVG 1.1//EN" "http://www.w3.org/Graphics/SVG/1.1/DTD/svg11.dtd">
<svg version="1.1" id="Layer_1" xmlns="http://www.w3.org/2000/svg" xmlns:xlink="http://www.w3.org/1999/xlink" x="0px" y="0px"
	 width="400px" height="400px" viewBox="0 0 400 400" enable-background="new 0 0 400 400" xml:space="preserve">
<g>
	<polygon fill="#3399CC" points="366.676,300.013 200,400 33.324,300.013 33.324,100.004 200,0 366.676,100.004 	"/>
	<g>
		<g>
			<rect x="122.143" y="217.431" fill="#FFFFFF" width="155.717" height="56.155"/>
			<path fill="#FFFFFF" d="M160.522,235.188c0,21.208-17.187,38.397-38.38,38.397c-21.202,0-38.388-17.189-38.388-38.397
				c0-21.196,17.187-38.374,38.388-38.374C143.336,196.814,160.522,213.992,160.522,235.188z"/>
			<path fill="#FFFFFF" d="M316.246,235.188c0,21.208-17.189,38.397-38.387,38.397c-21.201,0-38.379-17.189-38.379-38.397
				c0-21.196,17.178-38.374,38.379-38.374C299.057,196.814,316.246,213.992,316.246,235.188z"/>
			<path fill="#FFFFFF" d="M191.012,187.823c0,21.19-17.189,38.38-38.385,38.38c-21.202,0-38.389-17.189-38.389-38.38
				c0-21.202,17.187-38.379,38.389-38.379C173.823,149.444,191.012,166.622,191.012,187.823z"/>
			<path fill="#FFFFFF" d="M284.873,187.823c0,21.19-17.178,38.38-38.373,38.38c-21.196,0-38.379-17.189-38.379-38.38
				c0-21.202,17.183-38.379,38.379-38.379C267.695,149.444,284.873,166.622,284.873,187.823z"/>
			<path fill="#FFFFFF" d="M238.389,164.793c0,21.196-17.184,38.379-38.392,38.379c-21.193,0-38.379-17.183-38.379-38.379
				c0-21.202,17.186-38.379,38.379-38.379C221.205,126.414,238.389,143.592,238.389,164.793z"/>
			<rect x="122.143" y="199.885" fill="#FFFFFF" width="155.717" height="38.598"/>
		</g>
	</g>
</g>
</svg>
