<?xml version="1.0" encoding="UTF-8" standalone="no"?>
<!-- Generator: Adobe Illustrator 16.0.0, SVG Export Plug-In . SVG Version: 6.00 Build 0)  -->

<svg
   xmlns:dc="http://purl.org/dc/elements/1.1/"
   xmlns:cc="http://creativecommons.org/ns#"
   xmlns:rdf="http://www.w3.org/1999/02/22-rdf-syntax-ns#"
   xmlns:svg="http://www.w3.org/2000/svg"
   xmlns="http://www.w3.org/2000/svg"
   xmlns:sodipodi="http://sodipodi.sourceforge.net/DTD/sodipodi-0.dtd"
   xmlns:inkscape="http://www.inkscape.org/namespaces/inkscape"
   version="1.1"
   id="Layer_1"
   x="0px"
   y="0px"
   width="600"
   height="400"
   viewBox="41.5 80 600 400"
   enable-background="new 41.5 80 420 350"
   xml:space="preserve"
   inkscape:version="0.48.4 r9939"
   sodipodi:docname="hublateral.svg"><metadata
     id="metadata43"><rdf:RDF><cc:Work
         rdf:about=""><dc:format>image/svg+xml</dc:format><dc:type
           rdf:resource="http://purl.org/dc/dcmitype/StillImage" /></cc:Work></rdf:RDF></metadata><defs
     id="defs41" /><sodipodi:namedview
     pagecolor="#ffffff"
     bordercolor="#666666"
     borderopacity="1"
     objecttolerance="10"
     gridtolerance="10"
     guidetolerance="10"
     inkscape:pageopacity="0"
     inkscape:pageshadow="2"
     inkscape:window-width="1680"
     inkscape:window-height="1026"
     id="namedview39"
     showgrid="false"
     inkscape:zoom="0.67428571"
     inkscape:cx="3.8559322"
     inkscape:cy="175"
     inkscape:window-x="0"
     inkscape:window-y="24"
     inkscape:window-maximized="1"
     inkscape:current-layer="Layer_1" /><g
     id="g3"
     transform="matrix(1.2157001,0,0,1.2470516,35.75071,-37.998153)"><path
       stroke-miterlimit="10"
       d="m 192.932,115.292 c 0,0 82.41,0 109.684,0 27.275,0 108.508,0 108.508,0"
       id="path5"
       inkscape:connector-curvature="0"
       style="fill:none;stroke:#6c6c6c;stroke-width:0.87279999;stroke-miterlimit:10" /><path
       d="m 406.761,119.655 c 0,0 -77.962,0 -104.146,0 -26.183,0 -105.319,0 -105.319,0 v 75.063 H 406.76 v -75.063 z"
       id="path7"
       inkscape:connector-curvature="0"
       style="fill:#161616" /><rect
       x="323.85501"
       y="156.06799"
       stroke-miterlimit="10"
       width="84.652"
       height="4.073"
       id="rect9"
       style="fill:#ffffff;stroke:#6c6c6c;stroke-width:2.61829996;stroke-miterlimit:10" /><line
       stroke-miterlimit="10"
       x1="192.93201"
       y1="199.078"
       x2="411.12399"
       y2="199.078"
       id="line11"
       style="fill:none;stroke:#151515;stroke-width:8.72770023;stroke-miterlimit:10" /><path
       stroke-miterlimit="10"
       d="m 192.932,119.655 c 0,0 82.41,0 109.684,0 27.275,0 108.508,0 108.508,0"
       id="path13"
       inkscape:connector-curvature="0"
       style="fill:none;stroke:#ffffff;stroke-width:8.72770023;stroke-miterlimit:10" /><rect
       x="188.569"
       y="110.928"
       width="8.7290001"
       height="96.004997"
       id="rect15"
       style="fill:#6c6c6c" /><rect
       x="406.76099"
       y="110.928"
       width="8.7279997"
       height="96.004997"
       id="rect17"
       style="fill:#6c6c6c" /><circle
       stroke-miterlimit="10"
       cx="288.50699"
       cy="158.104"
       r="14.11"
       id="circle19"
       sodipodi:cx="288.50699"
       sodipodi:cy="158.104"
       sodipodi:rx="14.11"
       sodipodi:ry="14.11"
       style="fill:none;stroke:#6c6c6c;stroke-width:4.36380005;stroke-miterlimit:10"
       d="m 302.61699,158.104 c 0,7.79274 -6.31726,14.11 -14.11,14.11 -7.79274,0 -14.11,-6.31726 -14.11,-14.11 0,-7.79273 6.31726,-14.11 14.11,-14.11 7.79274,0 14.11,6.31727 14.11,14.11 z" /><circle
       stroke-miterlimit="10"
       cx="244.869"
       cy="158.104"
       r="8.7279997"
       id="circle21"
       sodipodi:cx="244.869"
       sodipodi:cy="158.104"
       sodipodi:rx="8.7279997"
       sodipodi:ry="8.7279997"
       style="fill:none;stroke:#6c6c6c;stroke-width:2.69919991;stroke-miterlimit:10"
       d="m 253.597,158.104 c 0,4.82035 -3.90766,8.728 -8.728,8.728 -4.82034,0 -8.728,-3.90765 -8.728,-8.728 0,-4.82034 3.90766,-8.728 8.728,-8.728 4.82034,0 8.728,3.90766 8.728,8.728 z" /><circle
       stroke-miterlimit="10"
       cx="244.869"
       cy="158.104"
       r="5.4569998"
       id="circle23"
       sodipodi:cx="244.869"
       sodipodi:cy="158.104"
       sodipodi:rx="5.4569998"
       sodipodi:ry="5.4569998"
       style="fill:none;stroke:#3398cc;stroke-width:2.61829996;stroke-miterlimit:10"
       d="m 250.326,158.104 c 0,3.01382 -2.44318,5.457 -5.457,5.457 -3.01381,0 -5.457,-2.44318 -5.457,-5.457 0,-3.01381 2.44319,-5.457 5.457,-5.457 3.01382,0 5.457,2.44319 5.457,5.457 z" /><circle
       stroke-miterlimit="10"
       cx="288.50699"
       cy="158.104"
       r="8.7279997"
       id="circle25"
       sodipodi:cx="288.50699"
       sodipodi:cy="158.104"
       sodipodi:rx="8.7279997"
       sodipodi:ry="8.7279997"
       style="fill:none;stroke:#ffce0c;stroke-width:2.69919991;stroke-miterlimit:10"
       d="m 297.23499,158.104 c 0,4.82035 -3.90766,8.728 -8.728,8.728 -4.82034,0 -8.728,-3.90765 -8.728,-8.728 0,-4.82034 3.90766,-8.728 8.728,-8.728 4.82034,0 8.728,3.90766 8.728,8.728 z" /><circle
       cx="288.50699"
       cy="158.104"
       r="5.4569998"
       id="circle27"
       sodipodi:cx="288.50699"
       sodipodi:cy="158.104"
       sodipodi:rx="5.4569998"
       sodipodi:ry="5.4569998"
       style="fill:#ffce0c"
       d="m 293.96399,158.104 c 0,3.01382 -2.44318,5.457 -5.457,5.457 -3.01382,0 -5.457,-2.44318 -5.457,-5.457 0,-3.01381 2.44318,-5.457 5.457,-5.457 3.01382,0 5.457,2.44319 5.457,5.457 z" /><rect
       x="252.276"
       y="196.754"
       width="25.752001"
       height="4.6539998"
       id="rect29"
       style="fill:#ffffff" /><rect
       x="322.09698"
       y="196.754"
       width="25.752001"
       height="4.6539998"
       id="rect31"
       style="fill:#ffffff" /><path
       d="m 126.46,282.082 c -7.21,7.344 -11.253,17.216 -11.253,27.525 v 62.06 c 0,7.547 4.515,14.386 11.455,17.317 6.975,2.932 14.991,1.414 20.417,-3.842 L 202.872,330.9 c 2.021,-1.955 4.717,-3.066 7.547,-3.066 h 130.25 c 3.739,0 7.514,-1.213 10.714,-3.705 l 72.269,-56.838 c 7.513,-5.93 8.826,-16.846 2.896,-24.359 -5.931,-7.551 -16.847,-8.831 -24.358,-2.896 l -46.966,36.959 c -1.92,1.481 -4.245,2.291 -6.671,2.291 H 237.002 c -5.964,0 -10.781,-4.818 -10.781,-10.781 0,-5.963 4.817,-10.813 10.781,-10.813 h 65.496 c 9.603,0 17.352,-7.75 17.352,-17.318 0,-9.605 -7.749,-17.351 -17.352,-17.351 h -90.361 c -14.621,0 -28.738,5.555 -39.418,15.595 l -46.259,43.464 0,0 z"
       id="path33"
       inkscape:connector-curvature="0"
       style="fill:#f8c18f" /><rect
       x="72.737"
       y="256.07199"
       width="74"
       height="143"
       id="rect35"
       style="fill:#6fc498" /><circle
       cx="299.73801"
       cy="240.57201"
       r="10.75"
       id="circle37"
       sodipodi:cx="299.73801"
       sodipodi:cy="240.57201"
       sodipodi:rx="10.75"
       sodipodi:ry="10.75"
       style="fill:#f7d5ba"
       d="m 310.48801,240.57201 c 0,5.93706 -4.81294,10.75 -10.75,10.75 -5.93706,0 -10.75,-4.81294 -10.75,-10.75 0,-5.93706 4.81294,-10.75 10.75,-10.75 5.93706,0 10.75,4.81294 10.75,10.75 z" /></g></svg>