<?xml version="1.0" encoding="utf-8"?>
<!-- Generator: Adobe Illustrator 16.0.0, SVG Export Plug-In . SVG Version: 6.00 Build 0)  -->
<!DOCTYPE svg PUBLIC "-//W3C//DTD SVG 1.1//EN" "http://www.w3.org/Graphics/SVG/1.1/DTD/svg11.dtd">
<svg version="1.1" id="Layer_1" xmlns="http://www.w3.org/2000/svg" xmlns:xlink="http://www.w3.org/1999/xlink" x="0px" y="0px"
	 width="1240.207px" height="432px" viewBox="0 0 1240.207 432" enable-background="new 0 0 1240.207 432" xml:space="preserve">
<g>
	<g>
		<polygon fill="#3399CC" points="180.008,216 270.024,270 360,324 270.005,378 180.008,432 180.008,324 		"/>
		<polygon fill="#996699" points="360,108 270.102,162 180.008,216 270.003,270 360,324 360,216 		"/>
		<polygon fill="#F89839" points="180.024,0 90.009,54 0,108 90.012,162 180.024,216 180.024,108 		"/>
		<polygon fill="#EE3968" points="180.008,0 269.997,54 360,108 270.005,162 180.008,216 180.008,108 		"/>
		<polygon fill="#FFCE09" points="180.024,216 90.009,270 0,324 90.012,378 180.024,432 180.024,324 		"/>
		<polygon fill="#6EC498" points="0.017,108 90.006,162 180.008,216 90.014,270 0.017,324 0.017,216 		"/>
	</g>
	<g>
		<path d="M612.216,77.276h62.399v277.2h-62.399v-117.6h-104.8v117.6h-62.4v-277.2h62.4v106h104.8V77.276z"/>
		<path d="M847.014,360.076c-19.469,0-36.27-2.737-50.4-8.199c-14.138-5.463-25.8-13.063-35-22.801c-9.2-9.73-16-21.331-20.4-34.8
			c-4.399-13.462-6.6-28.331-6.6-44.6v-172.4h62.4v167.2c0,11.2,1.262,20.737,3.8,28.6c2.531,7.869,6,14.27,10.399,19.2
			c4.4,4.938,9.731,8.469,16,10.601c6.263,2.137,13.132,3.199,20.601,3.199c15.2,0,27.531-4.662,37-14
			c9.462-9.331,14.2-25.199,14.2-47.6v-167.2h62.399v172.4c0,16.269-2.269,31.2-6.8,44.8c-4.537,13.6-11.469,25.269-20.8,35
			c-9.338,9.737-21.2,17.269-35.601,22.6C883.813,357.408,866.744,360.076,847.014,360.076z"/>
		<path d="M1113.808,358.076c-15.2,0-30.338-0.469-45.4-1.399c-15.068-0.938-30.737-3.132-47-6.601v-268.8c12.8-2.4,26.8-4.2,42-5.4
			c15.2-1.2,29.331-1.8,42.4-1.8c17.6,0,33.8,1.269,48.6,3.8c14.8,2.538,27.531,6.869,38.2,13c10.662,6.138,19,14.2,25,24.2
			s9,22.337,9,37c0,22.137-10.669,39.6-32,52.4c17.6,6.669,29.6,15.737,36,27.2c6.399,11.469,9.6,24.399,9.6,38.8
			c0,29.068-10.6,50.938-31.8,65.6C1187.207,350.745,1155.67,358.076,1113.808,358.076z M1082.207,186.077h30.4
			c19.2,0,32.931-2.462,41.2-7.4c8.262-4.932,12.399-12.863,12.399-23.8c0-11.2-4.269-19.063-12.8-23.6
			c-8.537-4.531-21.068-6.8-37.6-6.8c-5.338,0-11.069,0.069-17.2,0.2c-6.138,0.137-11.601,0.469-16.4,1V186.077z M1082.207,233.677
			v71.6c4.531,0.538,9.463,0.938,14.8,1.2c5.332,0.269,11.2,0.4,17.601,0.4c18.662,0,33.731-2.663,45.2-8
			c11.462-5.332,17.199-15.2,17.199-29.601c0-12.8-4.8-21.931-14.399-27.399c-9.601-5.463-23.338-8.2-41.2-8.2H1082.207z"/>
	</g>
</g>
</svg>
