<?xml version="1.0" encoding="utf-8"?>
<!-- Generator: Adobe Illustrator 19.1.0, SVG Export Plug-In . SVG Version: 6.00 Build 0)  -->
<svg version="1.1"
	 id="Layer_1" xmlns:sodipodi="http://sodipodi.sourceforge.net/DTD/sodipodi-0.dtd" xmlns:inkscape="http://www.inkscape.org/namespaces/inkscape" sodipodi:docname="hublateral.svg" inkscape:version="0.48.4 r9939" xmlns:svg="http://www.w3.org/2000/svg" xmlns:rdf="http://www.w3.org/1999/02/22-rdf-syntax-ns#" xmlns:cc="http://creativecommons.org/ns#" xmlns:dc="http://purl.org/dc/elements/1.1/"
	 xmlns="http://www.w3.org/2000/svg" xmlns:xlink="http://www.w3.org/1999/xlink" x="0px" y="0px" viewBox="-5 197 600 400"
	 style="enable-background:new -5 197 600 400;" xml:space="preserve">
<style type="text/css">
	.st0{fill:#FFFFFF;stroke:#000000;stroke-width:0.9665;stroke-miterlimit:10;}
	.st1{fill:#F8C18F;stroke:#000000;stroke-miterlimit:10;}
	.st2{fill:#6FC498;stroke:#000000;stroke-miterlimit:10;}
	.st3{fill:#F7D5BA;stroke:#000000;stroke-miterlimit:10;}
	.st4{fill:#FFFFFF;stroke:#000000;stroke-width:0.7692;stroke-miterlimit:10;}
	.st5{fill:#FFFFFF;}
	.st6{fill:none;stroke:#FFFFFF;stroke-width:2.2556;stroke-miterlimit:10;}
	.st7{fill:none;stroke:#3398CC;stroke-width:2.1958;stroke-miterlimit:10;}
	.st8{fill:none;stroke:#FFCE0C;stroke-width:2.2636;stroke-miterlimit:10;}
	.st9{fill:#FFCE0C;}
</style>
<polygon class="st0" points="471.8,266.2 471.8,269.9 471.8,273.5 239,273.5 239,266.2 "/>
<sodipodi:namedview  id="namedview39" inkscape:current-layer="Layer_1" inkscape:window-maximized="1" inkscape:window-y="24" inkscape:window-x="0" inkscape:pageopacity="0" inkscape:window-height="1026" inkscape:window-width="1680" inkscape:pageshadow="2" objecttolerance="10" borderopacity="1" pagecolor="#ffffff" bordercolor="#666666" showgrid="false" inkscape:cy="175" inkscape:cx="3.8559322" inkscape:zoom="0.67428571" gridtolerance="10" guidetolerance="10">
	</sodipodi:namedview>
<g>
	<path id="path33_2_" inkscape:connector-curvature="0" class="st1" d="M182.6,519.5h195.8c4.5,0,9.1-1.5,13-4.6l97.9-70.9
		c9.1-7.4,10.7-21,3.5-30.4s-20.5-11-29.6-3.6l-73.1,46.1c-2.3,1.8-5.2,2.9-8.1,2.9h-89.6c-7.3,0-13.1-6-13.1-13.4
		s5.9-13.5,13.1-13.5H372c11.7,0,21.1-9.7,21.1-21.6c0-12-9.4-21.6-21.1-21.6H262.1c-17.8,0-34.9,6.9-47.9,19.4l-31.6,30.3"/>
	<rect id="rect35" x="92.7" y="427.9" class="st2" width="90" height="101.5"/>
	
		<ellipse id="circle37" sodipodi:rx="10.75" sodipodi:cx="299.73801" sodipodi:cy="240.57201" sodipodi:ry="10.75" class="st3" cx="368.6" cy="410.5" rx="13.1" ry="13.4">
	</ellipse>
</g>
<rect x="242.9" y="273.5" width="223.8" height="89.2"/>
<rect x="232.5" y="264.5" class="st4" width="10.7" height="100"/>
<rect x="466.5" y="264.5" class="st4" width="10.7" height="100"/>
<rect x="299.4" y="355.5" class="st5" width="25" height="3.5"/>
<rect x="380" y="355.5" class="st5" width="25" height="3.5"/>
<rect id="rect9_1_" x="361.9" y="312.4" class="st5" width="105.5" height="4.3"/>
<ellipse id="circle21_1_" sodipodi:rx="8.7279997" sodipodi:cx="244.869" sodipodi:cy="158.104" sodipodi:ry="8.7279997" class="st6" cx="280.4" cy="314.5" rx="8.9" ry="9.1">
</ellipse>
<ellipse id="circle23_1_" sodipodi:rx="5.4569998" sodipodi:cx="244.869" sodipodi:cy="158.104" sodipodi:ry="5.4569998" class="st7" cx="280.4" cy="314.5" rx="5.6" ry="5.7">
</ellipse>
<g>
	
		<ellipse id="circle19_1_" sodipodi:rx="14.11" sodipodi:cx="288.50699" sodipodi:cy="158.104" sodipodi:ry="14.11" class="st6" cx="320.8" cy="314.5" rx="14.4" ry="14.8">
	</ellipse>
	
		<ellipse id="circle25_1_" sodipodi:rx="8.7279997" sodipodi:cx="288.50699" sodipodi:cy="158.104" sodipodi:ry="8.7279997" class="st8" cx="320.8" cy="314.5" rx="8.9" ry="9.1">
	</ellipse>
	
		<ellipse id="circle27_1_" sodipodi:rx="5.4569998" sodipodi:cx="288.50699" sodipodi:cy="158.104" sodipodi:ry="5.4569998" class="st9" cx="320.8" cy="314.5" rx="5.6" ry="5.7">
	</ellipse>
</g>
</svg>
