<?xml version="1.0" encoding="utf-8"?>
<!-- Generator: Adobe Illustrator 16.0.0, SVG Export Plug-In . SVG Version: 6.00 Build 0)  -->
<!DOCTYPE svg PUBLIC "-//W3C//DTD SVG 1.1//EN" "http://www.w3.org/Graphics/SVG/1.1/DTD/svg11.dtd">
<svg version="1.1" id="Layer_1" xmlns="http://www.w3.org/2000/svg" xmlns:xlink="http://www.w3.org/1999/xlink" x="0px" y="0px"
	 width="588.553px" height="130.938px" viewBox="3.364 62.091 588.553 130.938"
	 enable-background="new 3.364 62.091 588.553 130.938" xml:space="preserve">
<g>
	<g>
		<polygon fill="#3399CC" points="57.921,127.56 85.2,143.927 112.479,160.294 85.2,176.662 57.921,193.029 57.921,160.294 		"/>
		<polygon fill="#996699" points="112.479,94.826 85.231,111.193 57.921,127.56 85.2,143.927 112.479,160.294 112.479,127.56 		"/>
		<polygon fill="#F89839" points="57.921,62.091 30.643,78.458 3.364,94.826 30.643,111.193 57.921,127.56 57.921,94.826 		"/>
		<polygon fill="#EE3968" points="57.921,62.091 85.2,78.458 112.479,94.826 85.2,111.193 57.921,127.56 57.921,94.826 		"/>
		<polygon fill="#FFCE09" points="57.921,127.56 30.643,143.927 3.364,160.294 30.643,176.662 57.921,193.029 57.921,160.294 		"/>
		<polygon fill="#6EC498" points="3.364,94.826 30.643,111.193 57.921,127.56 30.643,143.927 3.364,160.294 3.364,127.56 		"/>
	</g>
	<g>
		<g>
			<path d="M188.92,85.521h18.912v84.018H188.92v-35.645h-31.766v35.645h-18.912V85.521h18.912v32.127h31.766V85.521z"/>
			<path d="M260.086,171.236c-5.91,0-11.002-0.818-15.275-2.484c-4.273-1.668-7.82-3.971-10.609-6.912
				c-2.789-2.939-4.85-6.455-6.184-10.547c-1.332-4.092-2-8.578-2-13.518V85.521h18.914v50.678c0,3.395,0.393,6.273,1.15,8.668
				s1.82,4.334,3.152,5.82c1.334,1.484,2.941,2.576,4.85,3.213c1.91,0.635,3.971,0.969,6.244,0.969
				c4.607,0,8.336-1.424,11.215-4.242c2.879-2.82,4.305-7.639,4.305-14.428V85.521h18.912v52.254c0,4.939-0.697,9.457-2.061,13.578
				c-1.363,4.123-3.486,7.668-6.305,10.607c-2.818,2.941-6.426,5.244-10.791,6.852C271.241,170.417,266.057,171.236,260.086,171.236
				z"/>
			<path d="M340.952,170.63c-4.605,0-9.184-0.152-13.76-0.424c-4.576-0.273-9.305-0.941-14.246-2.002V86.733
				c3.881-0.728,8.123-1.272,12.73-1.637s8.881-0.546,12.852-0.546c5.334,0,10.244,0.395,14.73,1.152s8.334,2.092,11.578,3.939
				c3.242,1.85,5.758,4.305,7.578,7.336c1.818,3.031,2.727,6.759,2.727,11.215c0,6.697-3.242,12.002-9.699,15.881
				c5.336,2.031,8.973,4.76,10.912,8.244c1.939,3.486,2.91,7.396,2.91,11.762c0,8.818-3.213,15.428-9.639,19.883
				C363.2,168.386,353.653,170.63,340.952,170.63z M331.375,118.498h9.213c5.82,0,9.973-0.758,12.488-2.243s3.758-3.909,3.758-7.214
				c0-3.395-1.303-5.789-3.879-7.152c-2.576-1.364-6.396-2.062-11.396-2.062c-1.607,0-3.365,0.03-5.213,0.061
				c-1.85,0.03-3.518,0.151-4.971,0.304V118.498L331.375,118.498z M331.375,132.925v21.701c1.363,0.152,2.879,0.273,4.484,0.363
				c1.607,0.092,3.395,0.121,5.336,0.121c5.666,0,10.213-0.818,13.699-2.424c3.484-1.607,5.213-4.607,5.213-8.973
				c0-3.879-1.455-6.637-4.365-8.305c-2.908-1.666-7.061-2.484-12.486-2.484H331.375z"/>
		</g>
		<g>
			<path d="M430.668,84.217c12.518,0,22.156,2.213,28.855,6.607c6.697,4.396,10.063,11.608,10.063,21.642
				c0,10.092-3.395,17.396-10.184,21.883s-16.488,6.729-29.098,6.729h-5.941v28.127h-18.912V86.4
				c4.121-0.818,8.486-1.364,13.094-1.697C423.153,84.369,427.184,84.217,430.668,84.217z M431.881,100.342
				c-1.363,0-2.729,0.03-4.063,0.121c-1.332,0.091-2.484,0.151-3.455,0.242v24.247h5.941c6.547,0,11.486-0.879,14.791-2.666
				c3.303-1.789,4.971-5.092,4.971-9.941c0-2.334-0.424-4.274-1.273-5.82c-0.848-1.545-2.061-2.758-3.637-3.697
				s-3.486-1.576-5.76-1.939C437.125,100.524,434.61,100.342,431.881,100.342z"/>
			<path d="M520.749,121.437c-1.605-0.393-3.516-0.818-5.697-1.273c-2.184-0.453-4.518-0.666-7.033-0.666
				c-1.121,0-2.484,0.092-4.061,0.303c-1.576,0.213-2.758,0.426-3.576,0.668v48.736h-18.064v-60.376
				c3.242-1.122,7.063-2.212,11.457-3.213c4.395-1,9.305-1.515,14.73-1.515c0.969,0,2.15,0.061,3.516,0.182
				c1.363,0.121,2.758,0.272,4.121,0.484c1.365,0.213,2.76,0.455,4.123,0.728s2.545,0.637,3.516,1.03L520.749,121.437z"/>
			<path d="M591.917,137.199c0,5-0.729,9.607-2.184,13.76s-3.545,7.73-6.305,10.67c-2.758,2.939-6.031,5.244-9.881,6.85
				c-3.848,1.605-8.152,2.424-12.912,2.424c-4.697,0-8.939-0.818-12.789-2.424s-7.123-3.91-9.881-6.85
				c-2.76-2.939-4.881-6.518-6.426-10.67c-1.547-4.152-2.305-8.76-2.305-13.76c0-5.002,0.789-9.578,2.365-13.699
				c1.576-4.123,3.758-7.639,6.547-10.549c2.787-2.91,6.092-5.183,9.941-6.789s8.031-2.425,12.547-2.425
				c4.607,0,8.82,0.818,12.67,2.425s7.123,3.879,9.881,6.789s4.881,6.426,6.426,10.549
				C591.127,127.621,591.917,132.197,591.917,137.199z M573.487,137.199c0-5.578-1.121-9.973-3.334-13.154
				c-2.213-3.184-5.395-4.789-9.516-4.789c-4.123,0-7.305,1.605-9.578,4.789c-2.273,3.182-3.395,7.576-3.395,13.154
				c0,5.576,1.121,10.002,3.395,13.275s5.455,4.91,9.578,4.91c4.121,0,7.305-1.637,9.516-4.91
				C572.366,147.201,573.487,142.775,573.487,137.199z"/>
		</g>
	</g>
</g>
</svg>
