<?xml version="1.0" encoding="utf-8"?>
<!-- Generator: Adobe Illustrator 19.2.1, SVG Export Plug-In . SVG Version: 6.00 Build 0)  -->
<svg version="1.1"
	 id="Camada_1" inkscape:version="0.48.4 r9939" sodipodi:docname="hubpro.svg" xmlns:cc="http://creativecommons.org/ns#" xmlns:dc="http://purl.org/dc/elements/1.1/" xmlns:inkscape="http://www.inkscape.org/namespaces/inkscape" xmlns:rdf="http://www.w3.org/1999/02/22-rdf-syntax-ns#" xmlns:sodipodi="http://sodipodi.sourceforge.net/DTD/sodipodi-0.dtd" xmlns:svg="http://www.w3.org/2000/svg"
	 xmlns="http://www.w3.org/2000/svg" xmlns:xlink="http://www.w3.org/1999/xlink" x="0px" y="0px" viewBox="-285 163.3 270 270"
	 style="enable-background:new -285 163.3 270 270;" xml:space="preserve">
<style type="text/css">
	.st0{fill:#FFFFFF;stroke:#000000;stroke-width:0.875;stroke-miterlimit:10;}
	.st1{fill:#3799CF;}
	.st2{fill:#A06397;}
	.st3{fill:#F4982C;}
	.st4{fill:#E72D60;}
	.st5{fill:#FFCF00;}
	.st6{fill:#78C193;}
	.st7{fill:none;stroke:#FFFFFF;stroke-width:1.0818;stroke-miterlimit:10;}
	.st8{fill:none;stroke:#FFFFFF;stroke-width:1.0818;stroke-miterlimit:10;stroke-dasharray:2.4555,2.4555;}
	.st9{fill:none;stroke:#FFFFFF;stroke-width:1.0818;stroke-miterlimit:10;stroke-dasharray:2.6337,2.6337;}
	.st10{fill:none;stroke:#000000;stroke-width:9.3994;stroke-miterlimit:10;}
</style>
<sodipodi:namedview  bordercolor="#666666" borderopacity="1" gridtolerance="10" guidetolerance="10" id="namedview89" inkscape:current-layer="Camada_1" inkscape:cx="-243.54949" inkscape:cy="180" inkscape:pageopacity="0" inkscape:pageshadow="2" inkscape:window-height="1026" inkscape:window-maximized="1" inkscape:window-width="1680" inkscape:window-x="0" inkscape:window-y="24" inkscape:zoom="0.4578125" objecttolerance="10" pagecolor="#ffffff" showgrid="false">
	</sodipodi:namedview>
<g id="g5" transform="translate(-139.6,0)">
	<rect id="rect7" x="-93.8" y="190.9" class="st0" width="167.4" height="214.6"/>
	<g id="g9">
		<polyline id="polyline11" class="st1" points="38.5,308.8 13.8,323.5 -10.8,338.4 -10.8,308.8 -10.8,279.3 		"/>
		<polyline id="polyline13" class="st2" points="38.5,308.8 38.5,279.3 38.5,249.6 13.9,264.4 -10.8,279.3 		"/>
		<polyline id="polyline15" class="st3" points="-10.8,220.1 -35.4,234.9 -60.2,249.6 -35.4,264.4 -10.8,279.3 		"/>
		<polyline id="polyline17" class="st4" points="-10.8,220.1 13.8,234.9 38.5,249.6 13.8,264.4 -10.8,279.3 		"/>
		<polyline id="polyline19" class="st5" points="-60.2,308.8 -35.4,323.5 -10.8,338.4 -10.8,308.8 -10.8,279.3 		"/>
		<polyline id="polyline21" class="st6" points="-60.2,308.8 -60.2,279.3 -60.2,249.6 -35.4,264.4 -10.8,279.3 		"/>
		<g id="g23">
			<g id="g25">
				<g id="g27">
					<line id="line29" class="st7" x1="-10.8" y1="220.1" x2="-10.8" y2="221.4"/>
					<line id="line31" class="st8" x1="-10.8" y1="224.1" x2="-10.8" y2="276.5"/>
					<line id="line33" class="st7" x1="-10.8" y1="277.8" x2="-10.8" y2="279.3"/>
				</g>
			</g>
			<g id="g35">
				<g id="g37">
					<line id="line39" class="st7" x1="-10.8" y1="279.3" x2="-9.6" y2="279.9"/>
					<line id="line41" class="st9" x1="-7.2" y1="281.4" x2="36.1" y2="307.4"/>
					<line id="line43" class="st7" x1="37.3" y1="308.1" x2="38.5" y2="308.8"/>
				</g>
			</g>
			<g id="g45">
				<g id="g47">
					<line id="line49" class="st7" x1="-10.8" y1="279.3" x2="-12" y2="279.9"/>
					<line id="line51" class="st9" x1="-14.6" y1="281.4" x2="-57.8" y2="307.4"/>
					<line id="line53" class="st7" x1="-59" y1="308.1" x2="-60.2" y2="308.8"/>
				</g>
			</g>
		</g>
		<g id="g55">
			<line id="line57" class="st7" x1="-10.8" y1="338.4" x2="-10.8" y2="279.3"/>
			<line id="line59" class="st7" x1="-10.8" y1="279.3" x2="38.5" y2="249.6"/>
			<line id="line61" class="st7" x1="-10.8" y1="279.3" x2="-60.2" y2="249.6"/>
		</g>
	</g>
	<rect id="rect63" x="-84.3" y="411.3" class="st0" width="147.6" height="12"/>
	<rect id="rect65" x="-84.3" y="173.3" class="st0" width="147.6" height="12"/>
	<line id="line67" class="st10" x1="-97.1" y1="186.1" x2="76.3" y2="186.1"/>
	<line id="line69" class="st10" x1="-97.1" y1="410.3" x2="76.3" y2="410.3"/>
	<rect id="rect71" x="-88.8" y="279.3" width="6.1" height="32.9"/>
	<rect id="rect73" x="62.9" y="279.3" width="6.1" height="32.9"/>
</g>
<g>
	<path d="M-152.4,350.1v3.4h-5.4v14.4h-4v-14.4h-5.4v-3.4H-152.4z"/>
	<path d="M-143.7,367.9c-0.7-1.5-1.4-3.1-2.1-4.7c-0.7-1.6-1.3-3.2-2-4.8c-0.6-1.6-1.2-3.1-1.7-4.5c-0.5-1.4-1-2.7-1.3-3.9h4.4
		c0.3,1,0.7,2.1,1.1,3.3c0.4,1.2,0.8,2.4,1.2,3.6c0.4,1.2,0.8,2.3,1.2,3.4c0.4,1.1,0.8,2,1.1,2.8c0.3-0.8,0.7-1.7,1.1-2.8
		c0.4-1.1,0.8-2.2,1.2-3.4s0.8-2.4,1.2-3.6c0.4-1.2,0.8-2.3,1.1-3.3h4.3c-0.4,1.1-0.9,2.4-1.4,3.9c-0.5,1.4-1.1,2.9-1.7,4.5
		c-0.6,1.6-1.3,3.2-2,4.8c-0.7,1.6-1.4,3.2-2.1,4.7H-143.7z"/>
</g>
</svg>
