<?xml version="1.0" encoding="utf-8"?>
<!-- Generator: Adobe Illustrator 19.1.0, SVG Export Plug-In . SVG Version: 6.00 Build 0)  -->
<svg version="1.1" id="Layer_1" xmlns="http://www.w3.org/2000/svg" xmlns:xlink="http://www.w3.org/1999/xlink" x="0px" y="0px"
	 viewBox="44 182 700 430" style="enable-background:new 44 182 700 430;" xml:space="preserve">
<style type="text/css">
	.st0{fill:#171617;stroke:#000000;stroke-width:0.7524;stroke-miterlimit:10;}
	.st1{fill:none;stroke:#000000;stroke-width:0.7524;stroke-miterlimit:10;}
	.st2{fill:#EE3968;}
	.st3{fill:#EF3B68;}
	.st4{fill:#EF3B68;stroke:#A61E2E;stroke-width:1.0616;stroke-miterlimit:10;}
	.st5{fill:#FFCE09;stroke:#F89839;stroke-width:1.0616;stroke-miterlimit:10;}
	.st6{fill:none;stroke:#A61E2E;stroke-width:1.0751;stroke-miterlimit:10;}
	.st7{fill:none;stroke:#A61E2E;stroke-width:1.1031;stroke-miterlimit:10;}
	.st8{fill:none;stroke:#A61E2E;stroke-width:1.1435;stroke-miterlimit:10;}
	.st9{fill:none;stroke:#A61E2E;stroke-width:1.0816;stroke-miterlimit:10;}
	.st10{fill:#A61E2E;}
	.st11{fill:#FFFFFF;}
	.st12{fill:#FFFFFF;stroke:#000000;stroke-miterlimit:10;}
	.st13{fill:#FFCE09;stroke:#F89839;stroke-width:1.0247;stroke-miterlimit:10;}
	.st14{fill:#FFCE09;}
	.st15{fill:none;stroke:#F89839;stroke-width:1.0247;stroke-miterlimit:10;}
	.st16{fill:none;stroke:#000000;stroke-miterlimit:10;}
	.st17{fill:#FFFFFF;stroke:#000000;stroke-width:0.6108;stroke-miterlimit:10;}
	.st18{fill:#010101;stroke:#FFFFFF;stroke-width:0.2518;stroke-miterlimit:10;}
	.st19{fill:#3399CC;}
	.st20{fill:#996699;}
	.st21{fill:#F89839;}
	.st22{fill:#6EC498;}
	.st23{fill:none;stroke:#FFFFFF;stroke-width:0.7552;stroke-miterlimit:10;}
	.st24{fill:none;stroke:#FFFFFF;stroke-width:0.7552;stroke-miterlimit:10;stroke-dasharray:1.714,1.714;}
	.st25{fill:none;stroke:#FFFFFF;stroke-width:0.7552;stroke-miterlimit:10;stroke-dasharray:1.8385,1.8385;}
	.st26{fill:none;stroke:#FFFFFF;stroke-width:0.7552;stroke-miterlimit:10;stroke-dasharray:1.8384,1.8384;}
	.st27{fill:none;stroke:#000000;stroke-width:6.5613;stroke-miterlimit:10;}
	.st28{fill:none;stroke:#000000;stroke-width:2.4432;stroke-miterlimit:10;}
	.st29{fill:none;stroke:#000000;stroke-width:2.3242;stroke-miterlimit:10;}
</style>
<g>
	<rect x="44" y="384.3" width="133.4" height="6.1"/>
	<g>
		<polygon class="st0" points="167.3,390.5 169.1,391.9 177,391.9 177,382.9 169.1,382.9 167.3,384.4 		"/>
		<polygon class="st0" points="208,398.2 185.5,398.2 177,395.8 177,379 185.5,376.6 208,376.6 		"/>
		<line class="st1" x1="175.2" y1="382.9" x2="175.2" y2="391.9"/>
		<line class="st1" x1="173.4" y1="382.9" x2="173.4" y2="391.9"/>
		<line class="st1" x1="171.5" y1="382.9" x2="171.5" y2="391.9"/>
		<line class="st1" x1="169.7" y1="382.9" x2="169.7" y2="391.9"/>
	</g>
	<g>
		<rect x="231.8" y="481.9" class="st2" width="6.1" height="130.1"/>
	</g>
	<g>
		<polygon class="st3" points="230.9,489.8 227.2,480.1 242.5,480.1 238.8,489.8 		"/>
		<polygon class="st4" points="226,463.7 243.7,463.7 243.7,477.6 242.5,480.1 227.2,480.1 226,477.6 		"/>
		<path class="st5" d="M226,477.7"/>
		<line class="st6" x1="242.5" y1="481.8" x2="227.2" y2="481.8"/>
		<line class="st7" x1="241.6" y1="483.7" x2="228.1" y2="483.7"/>
		<line class="st8" x1="240.6" y1="485.5" x2="229" y2="485.5"/>
		<line class="st9" x1="240" y1="487.3" x2="229.7" y2="487.3"/>
		<rect x="230.4" y="488.8" class="st10" width="8.8" height="4.3"/>
	</g>
	<g>
		<path class="st11" d="M189.9,382.2v1h-4.2v-1h1.8v-1.6h-1.8v-1h4.2v1h-1.6v1.6H189.9z"/>
		<path class="st11" d="M187.8,387.9c-0.4,0-0.7-0.1-1-0.2s-0.5-0.3-0.7-0.5c-0.2-0.2-0.3-0.5-0.4-0.8c-0.1-0.3-0.1-0.6-0.1-1
			c0-0.2,0-0.4,0-0.6s0-0.5,0.1-0.7h4.1c0,0.2,0.1,0.4,0.1,0.7c0,0.2,0,0.4,0,0.6c0,0.4,0,0.7-0.1,1c-0.1,0.3-0.2,0.5-0.4,0.8
			c-0.2,0.2-0.4,0.4-0.7,0.5C188.5,387.8,188.1,387.9,187.8,387.9z M186.4,385.1c0,0,0,0.1,0,0.2s0,0.1,0,0.2c0,0.5,0.1,0.8,0.4,1.1
			c0.2,0.2,0.6,0.3,1,0.3s0.8-0.1,1-0.3c0.2-0.2,0.3-0.6,0.3-1c0-0.1,0-0.1,0-0.2s0-0.1,0-0.2h-2.7V385.1z"/>
		<path class="st11" d="M189.9,389.8c-0.1,0.1-0.3,0.2-0.5,0.3c-0.2,0.1-0.4,0.2-0.6,0.3c-0.2,0.1-0.5,0.2-0.7,0.3
			c-0.2,0.1-0.5,0.2-0.7,0.3c0.2,0.1,0.4,0.2,0.7,0.3c0.2,0.1,0.5,0.2,0.7,0.3c0.2,0.1,0.4,0.2,0.6,0.3c0.2,0.1,0.4,0.2,0.5,0.3v0.9
			c-0.3,0-0.6,0.1-0.9,0.1s-0.7,0.1-1.1,0.1s-0.8,0.1-1.1,0.1c-0.4,0-0.7,0-1.1,0.1v-0.9c0.4,0,0.9,0,1.3-0.1c0.5,0,1-0.1,1.5-0.1
			c-0.2-0.1-0.4-0.2-0.6-0.2c-0.2-0.1-0.4-0.2-0.6-0.3c-0.2-0.1-0.4-0.2-0.6-0.3c-0.2-0.1-0.4-0.2-0.5-0.2v-0.7
			c0.1-0.1,0.3-0.1,0.5-0.2c0.2-0.1,0.4-0.2,0.6-0.3c0.2-0.1,0.4-0.2,0.6-0.3c0.2-0.1,0.4-0.2,0.6-0.2c-0.5,0-1-0.1-1.5-0.1
			s-0.9,0-1.3,0v-0.9c0.3,0,0.7,0,1.1,0.1c0.4,0,0.8,0,1.1,0.1c0.4,0,0.7,0.1,1.1,0.1s0.7,0.1,0.9,0.1V389.8z"/>
		<path class="st11" d="M189.9,394.2v1h-4.2v-1H189.9z"/>
	</g>
	<rect x="241.5" y="285.6" class="st12" width="41.5" height="27.7"/>
	<g>
		<path d="M250.9,302.1v-7.6h5.1v1.4h-3.3v1.5h3v1.4h-3v1.8h3.7v1.4L250.9,302.1L250.9,302.1z"/>
		<path d="M259.6,294.5c0.1,0.2,0.3,0.5,0.5,0.9c0.2,0.4,0.4,0.7,0.5,1.2c0.2,0.4,0.4,0.8,0.6,1.3c0.2,0.4,0.4,0.8,0.5,1.2
			c0.2-0.4,0.3-0.8,0.5-1.2c0.2-0.4,0.4-0.9,0.6-1.3c0.2-0.4,0.4-0.8,0.5-1.2c0.2-0.4,0.3-0.7,0.5-0.9h1.6c0.1,0.5,0.1,1.1,0.2,1.7
			c0.1,0.6,0.1,1.3,0.2,2c0.1,0.7,0.1,1.4,0.1,2c0,0.7,0.1,1.3,0.1,1.9h-1.7c0-0.7-0.1-1.5-0.1-2.4s-0.1-1.8-0.2-2.6
			c-0.1,0.3-0.3,0.6-0.4,1c-0.2,0.4-0.3,0.7-0.5,1.1c-0.2,0.4-0.3,0.7-0.5,1.1c-0.1,0.3-0.3,0.6-0.4,0.9H261
			c-0.1-0.2-0.2-0.5-0.4-0.9c-0.1-0.3-0.3-0.7-0.5-1.1c-0.2-0.4-0.3-0.7-0.5-1.1c-0.2-0.4-0.3-0.7-0.4-1c-0.1,0.9-0.1,1.8-0.2,2.6
			c0,0.9-0.1,1.7-0.1,2.4h-1.7c0-0.6,0.1-1.2,0.1-1.9c0-0.7,0.1-1.4,0.1-2c0-0.7,0.1-1.3,0.2-2c0.1-0.6,0.1-1.2,0.2-1.7H259.6z"/>
		<path d="M270.9,302.2c-1.2,0-2.2-0.3-2.8-1s-1-1.7-1-2.9c0-0.6,0.1-1.2,0.3-1.7c0.2-0.5,0.5-0.9,0.8-1.3c0.3-0.3,0.8-0.6,1.2-0.8
			c0.5-0.2,1-0.3,1.6-0.3c0.3,0,0.6,0,0.9,0.1c0.3,0,0.5,0.1,0.7,0.2c0.2,0.1,0.4,0.1,0.5,0.2s0.2,0.1,0.3,0.2l-0.5,1.4
			c-0.2-0.1-0.5-0.2-0.8-0.3c-0.3-0.1-0.7-0.1-1.1-0.1c-0.3,0-0.5,0-0.8,0.1c-0.3,0.1-0.5,0.2-0.7,0.4c-0.2,0.2-0.4,0.4-0.5,0.8
			s-0.2,0.7-0.2,1.1s0,0.7,0.1,1s0.2,0.6,0.4,0.8c0.2,0.2,0.4,0.4,0.7,0.5c0.3,0.1,0.6,0.2,1,0.2c0.2,0,0.5,0,0.7,0
			c0.2,0,0.4-0.1,0.5-0.1s0.3-0.1,0.4-0.1c0.1,0,0.2-0.1,0.3-0.1l0.5,1.4c-0.2,0.1-0.6,0.3-1,0.4S271.5,302.2,270.9,302.2z"/>
	</g>
	<polygon points="511.1,413.7 311.3,413.7 311.3,410 509.5,410 	"/>
	<g>
		<polygon class="st0" points="321.9,409.5 321.9,414.3 314.1,415.5 300.6,415.5 300.6,408.2 314.1,408.2 		"/>
		<line class="st1" x1="314.1" y1="408.2" x2="314.1" y2="415.5"/>
		<line class="st1" x1="315.7" y1="408.5" x2="315.7" y2="415.2"/>
		<line class="st1" x1="317.2" y1="408.7" x2="317.2" y2="415"/>
		<line class="st1" x1="318.6" y1="408.9" x2="318.6" y2="414.8"/>
		<line class="st1" x1="319.8" y1="409.1" x2="319.8" y2="414.6"/>
		<line class="st1" x1="320.9" y1="409.3" x2="320.9" y2="414.5"/>
	</g>
	<polygon points="489.3,378.5 311.3,378.5 311.3,372.4 486.6,372.4 	"/>
	<g>
		<polygon class="st13" points="310.4,370.9 310.4,380 305.2,381.3 297.9,381.3 297.9,369.7 305.3,369.7 		"/>
		<rect x="310.9" y="371.5" class="st14" width="11.4" height="8"/>
		<line class="st15" x1="311.9" y1="370.7" x2="311.9" y2="380.1"/>
		<line class="st15" x1="313.1" y1="370.7" x2="313.1" y2="380.1"/>
		<line class="st15" x1="314.3" y1="370.7" x2="314.3" y2="380.1"/>
		<line class="st15" x1="315.6" y1="370.7" x2="315.6" y2="380.1"/>
		<line class="st15" x1="316.8" y1="370.7" x2="316.8" y2="380.1"/>
		<line class="st15" x1="318" y1="370.7" x2="318" y2="380.1"/>
		<line class="st15" x1="319.2" y1="370.7" x2="319.2" y2="380.1"/>
		<line class="st15" x1="320.5" y1="370.7" x2="320.5" y2="380.1"/>
	</g>
	<rect x="223.3" y="182" width="3.7" height="116.7"/>
	<g>
		<polygon class="st0" points="223.3,287.3 221.6,297 228.7,297 227,287.3 		"/>
		<polygon class="st0" points="221,313.4 229.2,313.4 229.2,299.5 228.7,297 221.6,297 221,299.5 		"/>
		<path class="st0" d="M221,299.3"/>
		<line class="st1" x1="228.7" y1="295.2" x2="221.6" y2="295.2"/>
		<line class="st1" x1="228.2" y1="293.4" x2="222" y2="293.4"/>
		<line class="st1" x1="227.8" y1="291.6" x2="222.4" y2="291.6"/>
		<line class="st1" x1="227.5" y1="289.7" x2="222.7" y2="289.7"/>
		<rect x="223.1" y="284" class="st0" width="4.1" height="4.3"/>
	</g>
	<g>
		<polygon class="st12" points="281.5,490.8 260.2,490.8 262.7,467.3 279.1,467.3 		"/>
		<g>
			<g>
				<g>
					<path class="st16" d="M270.8,509.5c-4.5,0-9.1-1.7-12.5-5.1l1.7-1.7c5.9,5.9,15.6,5.9,21.6,0l1.7,1.7
						C279.8,507.8,275.3,509.5,270.8,509.5z"/>
					<path class="st16" d="M270.8,505.3C270.8,505.3,270.8,505.3,270.8,505.3c-3.6,0-7-1.4-9.4-4l1.7-1.7c2,2.1,4.7,3.2,7.6,3.2
						c0,0,0,0,0.1,0c2.9,0,5.7-1.1,7.8-3.2l1.7,1.7C277.8,503.9,274.4,505.3,270.8,505.3z"/>
					<path class="st16" d="M270.8,500.5c-2.1,0-4.3-0.8-5.9-2.4l1.7-1.7c2.3,2.3,6.1,2.3,8.4,0l1.7,1.7
						C275.1,499.7,272.9,500.5,270.8,500.5z"/>
				</g>
			</g>
		</g>
	</g>
	<g>
		<rect x="194.6" y="321.7" class="st17" width="106.9" height="136.9"/>
		<g>
			<g>
				<g>
					<path class="st18" d="M247.6,378.9"/>
				</g>
				<g>
					<path class="st18" d="M247.6,378.9"/>
				</g>
				<g>
					<path class="st18" d="M247.6,378.9"/>
				</g>
				<g>
					<path class="st18" d="M247.6,378.9"/>
				</g>
			</g>
			<polyline class="st19" points="279,397 263.3,406.4 247.6,415.9 247.6,397 247.6,378.1 			"/>
			<polyline class="st20" points="279,397 279,378.1 279,359.2 263.3,368.7 247.6,378.1 			"/>
			<polyline class="st21" points="247.6,340.4 231.9,349.8 216.1,359.2 231.9,368.7 247.6,378.1 			"/>
			<polyline class="st2" points="247.6,340.4 263.3,349.8 279,359.2 263.3,368.7 247.6,378.1 			"/>
			<polyline class="st14" points="216.1,397 231.9,406.4 247.6,415.9 247.6,397 247.6,378.1 			"/>
			<polyline class="st22" points="216.1,397 216.1,378.1 216.1,359.2 231.9,368.7 247.6,378.1 			"/>
			<g>
				<g>
					<g>
						<line class="st23" x1="247.6" y1="340.4" x2="247.6" y2="341.2"/>
						<line class="st24" x1="247.6" y1="343" x2="247.6" y2="376.4"/>
						<line class="st23" x1="247.6" y1="377.2" x2="247.6" y2="378.1"/>
					</g>
				</g>
				<g>
					<g>
						<line class="st23" x1="247.6" y1="378.1" x2="248.3" y2="378.6"/>
						<line class="st25" x1="249.9" y1="379.5" x2="277.5" y2="396.1"/>
						<line class="st23" x1="278.3" y1="396.5" x2="279" y2="397"/>
					</g>
				</g>
				<g>
					<g>
						<line class="st23" x1="247.6" y1="378.1" x2="246.8" y2="378.6"/>
						<line class="st26" x1="245.3" y1="379.5" x2="217.7" y2="396.1"/>
						<line class="st23" x1="216.9" y1="396.5" x2="216.1" y2="397"/>
					</g>
				</g>
			</g>
			<g>
				<line class="st23" x1="247.6" y1="415.9" x2="247.6" y2="378.1"/>
				<line class="st23" x1="247.6" y1="378.1" x2="279" y2="359.2"/>
				<line class="st23" x1="247.6" y1="378.1" x2="216.1" y2="359.2"/>
			</g>
		</g>
		<rect x="200.7" y="462.4" class="st17" width="94.2" height="7.7"/>
		<rect x="200.7" y="310.5" class="st17" width="94.2" height="7.7"/>
		<line class="st27" x1="192.5" y1="318.6" x2="303.2" y2="318.6"/>
		<line class="st27" x1="192.5" y1="461.8" x2="303.2" y2="461.8"/>
		<g>
			<path d="M238.8,423.7h2.5v10.9h-2.5V430h-4.1v4.6h-2.4v-10.9h2.4v4.2h4.1V423.7z"/>
			<path d="M248,434.8c-0.8,0-1.4-0.1-2-0.3c-0.6-0.2-1-0.5-1.4-0.9c-0.4-0.4-0.6-0.8-0.8-1.4c-0.2-0.5-0.3-1.1-0.3-1.8v-6.8h2.5
				v6.6c0,0.4,0.1,0.8,0.1,1.1c0.1,0.3,0.2,0.6,0.4,0.8c0.2,0.2,0.4,0.3,0.6,0.4s0.5,0.1,0.8,0.1c0.6,0,1.1-0.2,1.5-0.5
				c0.4-0.4,0.6-1,0.6-1.9v-6.6h2.5v6.8c0,0.6-0.1,1.2-0.3,1.8c-0.2,0.5-0.5,1-0.8,1.4c-0.4,0.4-0.8,0.7-1.4,0.9
				C249.5,434.7,248.8,434.8,248,434.8z"/>
			<path d="M258.5,434.7c-0.6,0-1.2,0-1.8-0.1c-0.6,0-1.2-0.1-1.8-0.3v-10.6c0.5-0.1,1.1-0.2,1.6-0.2c0.6,0,1.2-0.1,1.7-0.1
				c0.7,0,1.3,0.1,1.9,0.1c0.6,0.1,1.1,0.3,1.5,0.5s0.7,0.6,1,1c0.2,0.4,0.4,0.9,0.4,1.5c0,0.9-0.4,1.6-1.3,2.1
				c0.7,0.3,1.2,0.6,1.4,1.1c0.3,0.4,0.4,1,0.4,1.5c0,1.1-0.4,2-1.2,2.6C261.4,434.4,260.2,434.7,258.5,434.7z M257.3,427.9h1.2
				c0.8,0,1.3-0.1,1.6-0.3c0.3-0.2,0.5-0.5,0.5-0.9s-0.2-0.7-0.5-0.9c-0.3-0.2-0.8-0.3-1.5-0.3c-0.2,0-0.4,0-0.7,0
				c-0.2,0-0.5,0-0.6,0V427.9L257.3,427.9z M257.3,429.8v2.8c0.2,0,0.4,0,0.6,0c0.2,0,0.4,0,0.7,0c0.7,0,1.3-0.1,1.8-0.3
				c0.4-0.2,0.7-0.6,0.7-1.2c0-0.5-0.2-0.9-0.6-1.1c-0.4-0.2-0.9-0.3-1.6-0.3h-1.6V429.8z"/>
		</g>
		<rect x="197.8" y="378.1" width="3.9" height="21"/>
		<rect x="294.7" y="378.1" width="3.9" height="21"/>
	</g>
	<g>
		<path d="M266.8,482.2c0,0.2,0.1,0.4,0.2,0.6c0.1,0.2,0.1,0.4,0.2,0.7c0.1,0.2,0.1,0.4,0.2,0.7c0.1,0.3,0.1,0.4,0.2,0.6
			c0.1-0.2,0.1-0.4,0.2-0.7c0.1-0.2,0.1-0.5,0.2-0.8c0-0.3,0.1-0.5,0.1-0.8s0.1-0.5,0.1-0.7h1c-0.1,0.7-0.3,1.4-0.5,2.2
			c-0.2,0.7-0.4,1.4-0.6,2.1h-0.9c-0.1-0.4-0.3-0.8-0.4-1.2c-0.1-0.4-0.3-0.9-0.4-1.3c-0.1,0.4-0.3,0.9-0.4,1.3
			c-0.1,0.4-0.3,0.8-0.4,1.2h-0.9c-0.2-0.7-0.4-1.3-0.6-2.1c-0.2-0.7-0.4-1.4-0.5-2.2h1c0,0.2,0.1,0.5,0.1,0.7
			c0,0.3,0.1,0.5,0.2,0.8c0.1,0.3,0.1,0.5,0.2,0.8c0.1,0.2,0.1,0.5,0.2,0.7c0.1-0.2,0.1-0.4,0.2-0.6c0.1-0.2,0.1-0.4,0.2-0.7
			c0.1-0.2,0.1-0.4,0.2-0.6s0.1-0.4,0.2-0.6L266.8,482.2L266.8,482.2z"/>
		<path d="M270.7,481.8c0,0.2-0.1,0.3-0.2,0.4s-0.2,0.1-0.4,0.1c-0.1,0-0.3,0-0.4-0.1s-0.2-0.2-0.2-0.4s0.1-0.3,0.2-0.4
			c0.1-0.1,0.2-0.1,0.4-0.1c0.1,0,0.3,0,0.4,0.1C270.7,481.5,270.7,481.6,270.7,481.8z M270.6,485.9h-0.9v-3.2h0.9V485.9z"/>
		<path d="M271.2,483.7h1.8v0.8h-1.8V483.7z"/>
		<path d="M273.6,485.9v-4.2h2.8v0.8h-1.9v0.9h1.7v0.8h-1.7v1.7L273.6,485.9L273.6,485.9z"/>
		<path d="M278.1,481.8c0,0.2-0.1,0.3-0.2,0.4s-0.2,0.1-0.4,0.1c-0.1,0-0.3,0-0.4-0.1s-0.2-0.2-0.2-0.4s0.1-0.3,0.2-0.4
			c0.1-0.1,0.2-0.1,0.4-0.1c0.1,0,0.3,0,0.4,0.1C278,481.5,278.1,481.6,278.1,481.8z M278,485.9h-0.9v-3.2h0.9V485.9z"/>
	</g>
	<g>
		<g>
			<path class="st28" d="M645.8,440.1c11.6,8.9,23.3,17.8,34.9,26.8"/>
			<path class="st28" d="M657.3,423c12.7,7.3,25.4,14.5,38.1,21.9"/>
			<path class="st28" d="M666.2,404.6c13.6,5.6,27.1,11.1,40.7,16.7"/>
			<path class="st28" d="M672.5,385.6c14.2,3.8,28.3,7.6,42.5,11.4"/>
			<path class="st28" d="M676.4,366c14.5,2,29.1,3.9,43.6,5.9"/>
			<path class="st28" d="M677.8,346.2c14.7,0.1,29.3,0.1,44,0.2"/>
			<path class="st28" d="M676.7,326.3c14.5-1.8,29.1-3.5,43.6-5.4"/>
			<path class="st28" d="M673,306.7c14.2-3.7,28.5-7.2,42.6-10.9"/>
			<path class="st28" d="M666.8,287.6c13.7-5.4,27.2-10.9,40.9-16.2"/>
			<path class="st28" d="M658.1,269.3c12.8-7.1,25.7-14.3,38.5-21.4"/>
			<path class="st28" d="M646.9,251.9c11.7-8.8,23.5-17.6,35.3-26.3"/>
			<path class="st28" d="M633,235.9c10.5-10.3,20.9-20.5,31.4-30.8"/>
		</g>
	</g>
	<g>
		<g>
			<path class="st29" d="M528.4,485l3.2,7.2c-2.1,1.3-4.3,2.6-5.5,4.6c0.5,2.6,4.9,3.5,5.5,6.1c-1.7,1.6-4.3,2.2-5.9,4.3
				c1.3,1.7,3.3,4.5,5.4,5.5c-2.2,1.1-2.7,2.1-3.9,4.8c1.1,0.9,3.2,3.2,5.3,4.9c2.7,2.6,9.2,9.2,9.2,9.2c0.1,1.6,31.9,3.3,40.8-0.1
				c4.3-3.1,5.6-5.3,9.5-9.4c1.3-1.1,3.3-5.1,4.2-6.4c-1.6-2.3-1.5-2.3-3.2-3.5c1.1-1.6,4.4-2.4,5-5.3l-5-4c0.6-2.4,4.3-3.7,4.9-6.1
				c-0.6-2.1-3.5-3.2-5-4.6l1.8-6.8h-66.2L528.4,485L528.4,485z"/>
			<path class="st29" d="M527.5,498c20.6,3.8,48,4.6,67.9-1"/>
			<path class="st29" d="M527.9,516.7c19.4,3.8,45.1,4.6,67.7-0.5"/>
			<path class="st29" d="M527.7,507.9c19.4,3.8,45.1,4.6,67.7-0.5"/>
		</g>
		<path class="st28" d="M560.5,273.2c-43.2,0-80.7,36.3-78.3,80.9c-1.3,11.6,13.4,39.6,26.4,55.2c17.6,31.8,19.3,35.5,20.5,70.1
			c0.9,4.2,3.1,5.4,5.1,5.9c22.7,4.4,40.3,2,53.9,0.2c3.3-1.1,5.3-3.2,5-6c1.3-47,8.6-44.2,30.1-80.4c12-16.4,16.4-40.4,16.5-51.6
			C640.9,285.4,583.9,273.9,560.5,273.2L560.5,273.2z"/>
		<path class="st28" d="M547.5,435.8l-19.7-85.9c26.5,11.5,47,4.4,65.8-2.3l-23.8,87.8C562.5,436.9,555.8,437.6,547.5,435.8
			L547.5,435.8z"/>
		<path class="st28" d="M540.8,442.9l3.1,42.3c11.7,2.6,24.1,2.1,34.1-0.7l2.7-41.9C567.5,444.7,554.5,445.4,540.8,442.9
			L540.8,442.9z"/>
	</g>
</g>
</svg>
