<?xml version="1.0" encoding="utf-8"?>
<!-- Generator: Adobe Illustrator 16.0.0, SVG Export Plug-In . SVG Version: 6.00 Build 0)  -->
<!DOCTYPE svg PUBLIC "-//W3C//DTD SVG 1.1//EN" "http://www.w3.org/Graphics/SVG/1.1/DTD/svg11.dtd">
<svg version="1.1" id="Layer_1" xmlns="http://www.w3.org/2000/svg" xmlns:xlink="http://www.w3.org/1999/xlink" x="0px" y="0px"
	 width="595.28px" height="352px" viewBox="0 0 595.28 352" enable-background="new 0 0 595.28 352" xml:space="preserve">
<g>
	<path fill="#F89838" stroke="#FFCE0E" stroke-width="1.9026" stroke-miterlimit="10" d="M426.358,257.161l2.631,5.879
		c-1.682,1.136-3.55,2.056-4.542,3.795c0.431,2.085,3.967,2.86,4.469,5.016c-1.364,1.267-3.477,1.754-4.771,3.522
		c1.077,1.437,2.715,3.679,4.383,4.541c-1.754,0.891-2.185,1.652-3.248,3.894c0.935,0.748,2.572,2.646,4.27,3.969
		c2.199,2.126,7.531,7.46,7.531,7.46c0.143,1.308,26.086,2.687,33.431-0.116c3.507-2.501,4.643-4.34,7.849-7.746
		c1.134-0.892,2.716-4.212,3.419-5.233c-1.278-1.939-1.249-1.854-2.644-2.946c0.891-1.308,3.636-1.981,4.067-4.296l-4.14-3.334
		c0.518-1.956,3.464-3.049,4.011-5.003c-0.547-1.697-2.905-2.573-4.082-3.809l1.465-5.592H426.358z M426.358,257.161"/>
	<path fill="#F89838" stroke="#FFCE0E" stroke-width="1.9026" stroke-miterlimit="10" d="M425.639,267.727
		c16.86,3.061,39.267,3.751,55.596-0.806"/>
	<path fill="#F89838" stroke="#FFCE0E" stroke-width="1.9026" stroke-miterlimit="10" d="M425.978,283.004
		c15.939,3.075,36.924,3.766,55.394-0.359"/>
	<path fill="#F89838" stroke="#FFCE0E" stroke-width="1.9026" stroke-miterlimit="10" d="M425.739,275.877
		c15.939,3.076,36.925,3.765,55.394-0.359"/>
</g>
<g>
	<g>
		<g>
			<line fill="none" stroke="#EE3968" stroke-width="5" stroke-miterlimit="10" x1="137.948" y1="352" x2="137.948" y2="245.518"/>
		</g>
		<g>
			<polygon fill="#EF3B68" points="134.706,251.961 131.706,243.99 144.19,243.99 141.19,251.961 			"/>
			<polygon fill="#EF3B68" stroke="#A61E2E" stroke-width="0.869" stroke-miterlimit="10" points="130.706,230.563 145.19,230.563 
				145.19,241.961 144.19,243.99 131.706,243.99 130.706,241.961 			"/>
			<path fill="#FFCE09" stroke="#F89839" stroke-width="0.869" stroke-miterlimit="10" d="M130.706,242.074"/>
			
				<line fill="none" stroke="#A61E2E" stroke-width="0.8801" stroke-miterlimit="10" x1="144.19" y1="245.449" x2="131.69" y2="245.449"/>
			
				<line fill="none" stroke="#A61E2E" stroke-width="0.903" stroke-miterlimit="10" x1="143.44" y1="246.949" x2="132.44" y2="246.949"/>
			
				<line fill="none" stroke="#A61E2E" stroke-width="0.9361" stroke-miterlimit="10" x1="142.69" y1="248.449" x2="133.19" y2="248.449"/>
			
				<line fill="none" stroke="#A61E2E" stroke-width="0.8854" stroke-miterlimit="10" x1="142.19" y1="249.949" x2="133.69" y2="249.949"/>
			<rect x="134.317" y="251.129" fill="#A61E2E" width="7.186" height="3.486"/>
		</g>
	</g>
	<line fill="none" stroke="#3399CC" stroke-width="5" stroke-miterlimit="10" x1="0" y1="168.144" x2="90.971" y2="168.144"/>
	<g>
		<polygon fill="#3399CC" points="82.663,170.644 84.1,171.832 90.595,171.832 90.595,164.455 84.1,164.455 82.663,165.659 		"/>
		<g>
			<polygon fill="#3399CC" stroke="#1D304B" stroke-miterlimit="10" points="115.943,177.016 97.526,177.016 90.595,175.016 
				90.595,161.271 97.504,159.271 115.943,159.271 			"/>
			<g>
				<path fill="#FFFFFF" d="M101.118,163.923v0.78h-3.465v-0.78h1.47v-1.31h-1.47v-0.78h3.465v0.78h-1.325v1.31H101.118z"/>
				<path fill="#FFFFFF" d="M99.388,168.538c-0.301,0-0.563-0.047-0.785-0.141c-0.224-0.093-0.408-0.226-0.556-0.397
					c-0.146-0.172-0.256-0.381-0.329-0.627c-0.073-0.247-0.11-0.523-0.11-0.83c0-0.141,0.006-0.304,0.018-0.49
					s0.035-0.37,0.072-0.55h3.375c0.033,0.18,0.056,0.367,0.067,0.563s0.018,0.362,0.018,0.502c0,0.297-0.033,0.566-0.1,0.808
					c-0.067,0.242-0.172,0.449-0.315,0.623c-0.144,0.173-0.326,0.307-0.55,0.399C99.969,168.491,99.701,168.538,99.388,168.538z
					 M98.288,166.283c-0.003,0.036-0.006,0.079-0.007,0.127c-0.002,0.049-0.003,0.105-0.003,0.173c0,0.39,0.099,0.679,0.295,0.867
					s0.469,0.282,0.815,0.282c0.363,0,0.638-0.09,0.824-0.27c0.188-0.18,0.28-0.465,0.28-0.855c0-0.053-0.001-0.108-0.002-0.165
					c-0.002-0.057-0.006-0.109-0.013-0.159H98.288z"/>
				<path fill="#FFFFFF" d="M101.118,170.107c-0.109,0.061-0.246,0.13-0.407,0.208c-0.162,0.079-0.337,0.161-0.525,0.246
					c-0.188,0.086-0.381,0.17-0.577,0.254c-0.197,0.084-0.382,0.162-0.555,0.236c0.173,0.072,0.357,0.152,0.555,0.234
					c0.196,0.084,0.389,0.17,0.577,0.254c0.188,0.086,0.363,0.168,0.525,0.246c0.161,0.078,0.298,0.148,0.407,0.209v0.709
					c-0.229,0.033-0.487,0.064-0.772,0.092c-0.285,0.029-0.582,0.055-0.89,0.076c-0.309,0.021-0.618,0.041-0.928,0.061
					c-0.31,0.018-0.602,0.033-0.875,0.047v-0.76c0.337-0.01,0.703-0.023,1.1-0.041c0.397-0.016,0.797-0.041,1.2-0.074
					c-0.14-0.061-0.295-0.127-0.465-0.201c-0.17-0.072-0.34-0.146-0.51-0.219c-0.17-0.07-0.333-0.141-0.487-0.207
					c-0.155-0.066-0.288-0.125-0.397-0.172v-0.545c0.109-0.047,0.242-0.104,0.397-0.17c0.154-0.068,0.317-0.138,0.487-0.21
					c0.17-0.071,0.34-0.144,0.51-0.218c0.17-0.073,0.325-0.14,0.465-0.2c-0.403-0.033-0.803-0.059-1.2-0.075
					c-0.396-0.017-0.763-0.03-1.1-0.04v-0.76c0.273,0.014,0.565,0.029,0.875,0.048c0.31,0.018,0.619,0.038,0.928,0.06
					c0.308,0.021,0.604,0.047,0.89,0.075s0.543,0.059,0.772,0.093V170.107z"/>
				<path fill="#FFFFFF" d="M101.118,173.675v0.779h-3.465v-0.779H101.118z"/>
			</g>
		</g>
		<line fill="none" stroke="#1D304B" stroke-miterlimit="10" x1="89.1" y1="164.455" x2="89.1" y2="171.832"/>
		<line fill="none" stroke="#1D304B" stroke-miterlimit="10" x1="87.6" y1="164.455" x2="87.6" y2="171.832"/>
		<line fill="none" stroke="#1D304B" stroke-miterlimit="10" x1="86.1" y1="164.455" x2="86.1" y2="171.832"/>
		<line fill="none" stroke="#1D304B" stroke-miterlimit="10" x1="84.6" y1="164.455" x2="84.6" y2="171.832"/>
	</g>
	<rect x="143.352" y="84.836" fill="#171617" stroke="#000000" stroke-miterlimit="10" width="34" height="22.667"/>
	<g>
		<path fill="#FFFFFF" d="M151.122,98.311v-6.236h4.212v1.179h-2.808v1.224h2.493v1.152h-2.493v1.503h3.015v1.179H151.122z"/>
		<path fill="#FFFFFF" d="M158.232,92.074c0.108,0.197,0.233,0.442,0.375,0.733c0.141,0.291,0.289,0.605,0.442,0.944
			c0.154,0.34,0.306,0.686,0.456,1.04c0.15,0.354,0.292,0.687,0.424,0.999c0.132-0.313,0.274-0.646,0.424-0.999
			c0.15-0.354,0.302-0.7,0.456-1.04c0.153-0.339,0.301-0.653,0.442-0.944c0.141-0.291,0.266-0.536,0.375-0.733h1.278
			c0.06,0.413,0.116,0.877,0.167,1.39c0.051,0.514,0.096,1.048,0.135,1.603s0.075,1.111,0.108,1.669
			c0.033,0.559,0.062,1.084,0.085,1.575h-1.368c-0.018-0.605-0.042-1.266-0.072-1.979c-0.03-0.714-0.075-1.435-0.135-2.16
			c-0.108,0.252-0.229,0.531-0.361,0.837s-0.264,0.612-0.393,0.918s-0.254,0.599-0.375,0.878c-0.12,0.278-0.223,0.517-0.307,0.715
			h-0.981c-0.084-0.198-0.187-0.437-0.307-0.715c-0.121-0.279-0.246-0.572-0.375-0.878s-0.26-0.612-0.393-0.918
			s-0.253-0.585-0.361-0.837c-0.06,0.726-0.105,1.446-0.135,2.16c-0.03,0.714-0.054,1.374-0.072,1.979h-1.368
			c0.024-0.491,0.052-1.017,0.085-1.575c0.033-0.558,0.069-1.114,0.108-1.669s0.084-1.089,0.135-1.603
			c0.051-0.513,0.106-0.977,0.167-1.39H158.232z"/>
		<path fill="#FFFFFF" d="M167.493,98.437c-1.014,0-1.787-0.281-2.317-0.846c-0.531-0.563-0.796-1.365-0.796-2.403
			c0-0.516,0.081-0.977,0.243-1.381c0.162-0.405,0.384-0.747,0.666-1.026c0.282-0.279,0.618-0.49,1.008-0.635
			c0.39-0.144,0.813-0.216,1.269-0.216c0.264,0,0.504,0.02,0.72,0.059s0.405,0.084,0.567,0.135c0.162,0.052,0.297,0.104,0.405,0.158
			c0.108,0.054,0.186,0.096,0.234,0.126l-0.405,1.134c-0.192-0.103-0.416-0.189-0.671-0.261c-0.255-0.072-0.544-0.108-0.868-0.108
			c-0.216,0-0.428,0.036-0.635,0.108c-0.207,0.071-0.39,0.188-0.549,0.346c-0.159,0.159-0.287,0.365-0.383,0.617
			c-0.096,0.252-0.144,0.558-0.144,0.918c0,0.288,0.031,0.557,0.094,0.805c0.063,0.25,0.165,0.464,0.306,0.644
			c0.141,0.181,0.325,0.323,0.553,0.428c0.228,0.105,0.504,0.157,0.828,0.157c0.204,0,0.387-0.012,0.549-0.035
			c0.162-0.024,0.306-0.053,0.432-0.086s0.237-0.07,0.333-0.112s0.183-0.081,0.261-0.117l0.387,1.125
			c-0.198,0.12-0.477,0.229-0.837,0.324S167.967,98.437,167.493,98.437z"/>
	</g>
	
		<line fill="none" stroke="#171617" stroke-width="3" stroke-miterlimit="10" x1="200.548" y1="188.168" x2="401.422" y2="188.168"/>
	<g>
		<polygon fill="#171617" stroke="#000000" stroke-width="0.6159" stroke-miterlimit="10" points="209.212,186.195 209.212,190.145 
			202.795,191.145 191.789,191.145 191.789,185.195 202.795,185.195 		"/>
		
			<line fill="none" stroke="#000000" stroke-width="0.6159" stroke-miterlimit="10" x1="202.795" y1="185.195" x2="202.795" y2="191.145"/>
		
			<line fill="none" stroke="#000000" stroke-width="0.6159" stroke-miterlimit="10" x1="204.114" y1="185.4" x2="204.118" y2="190.939"/>
		
			<line fill="none" stroke="#000000" stroke-width="0.6159" stroke-miterlimit="10" x1="205.354" y1="185.594" x2="205.324" y2="190.75"/>
		
			<line fill="none" stroke="#000000" stroke-width="0.6159" stroke-miterlimit="10" x1="206.49" y1="185.771" x2="206.502" y2="190.566"/>
		
			<line fill="none" stroke="#000000" stroke-width="0.6159" stroke-miterlimit="10" x1="207.495" y1="185.928" x2="207.498" y2="190.412"/>
		
			<line fill="none" stroke="#000000" stroke-width="0.6159" stroke-miterlimit="10" x1="208.395" y1="186.043" x2="208.395" y2="190.289"/>
	</g>
	
		<line fill="none" stroke="#FFCE09" stroke-width="5" stroke-miterlimit="10" x1="200.548" y1="158.391" x2="386.674" y2="158.391"/>
	<g>
		<polygon fill="#FFCE09" stroke="#F89839" stroke-width="0.8388" stroke-miterlimit="10" points="199.775,154.667 199.775,162.114 
			195.517,163.114 189.593,163.114 189.593,153.667 195.601,153.667 		"/>
		<rect x="200.184" y="155.1" fill="#FFCE09" width="9.333" height="6.583"/>
		
			<line fill="none" stroke="#F89839" stroke-width="0.8388" stroke-miterlimit="10" x1="201.017" y1="154.503" x2="201.017" y2="162.17"/>
		
			<line fill="none" stroke="#F89839" stroke-width="0.8388" stroke-miterlimit="10" x1="202.017" y1="154.503" x2="202.017" y2="162.17"/>
		
			<line fill="none" stroke="#F89839" stroke-width="0.8388" stroke-miterlimit="10" x1="203.017" y1="154.503" x2="203.017" y2="162.17"/>
		
			<line fill="none" stroke="#F89839" stroke-width="0.8388" stroke-miterlimit="10" x1="204.017" y1="154.503" x2="204.017" y2="162.17"/>
		
			<line fill="none" stroke="#F89839" stroke-width="0.8388" stroke-miterlimit="10" x1="205.017" y1="154.503" x2="205.017" y2="162.17"/>
		
			<line fill="none" stroke="#F89839" stroke-width="0.8388" stroke-miterlimit="10" x1="206.017" y1="154.503" x2="206.017" y2="162.17"/>
		
			<line fill="none" stroke="#F89839" stroke-width="0.8388" stroke-miterlimit="10" x1="207.017" y1="154.503" x2="207.017" y2="162.17"/>
		
			<line fill="none" stroke="#F89839" stroke-width="0.8388" stroke-miterlimit="10" x1="208.017" y1="154.503" x2="208.017" y2="162.17"/>
	</g>
	<line fill="none" stroke="#996699" stroke-width="3" stroke-miterlimit="10" x1="129.986" y1="95.548" x2="129.986" y2="0"/>
	<g>
		<polygon fill="#996699" points="128.478,86.176 127.083,94.146 132.889,94.146 131.494,86.176 		"/>
		<polygon fill="#996699" stroke="#654566" stroke-width="0.75" stroke-miterlimit="10" points="126.618,107.574 133.354,107.574 
			133.354,96.175 132.889,94.146 127.083,94.146 126.618,96.175 		"/>
		<path fill="#FFCE09" stroke="#F89839" stroke-width="0.5926" stroke-miterlimit="10" d="M126.618,96.063"/>
		
			<line fill="none" stroke="#654566" stroke-width="0.75" stroke-miterlimit="10" x1="132.889" y1="92.688" x2="127.075" y2="92.688"/>
		
			<line fill="none" stroke="#654566" stroke-width="0.75" stroke-miterlimit="10" x1="132.54" y1="91.188" x2="127.424" y2="91.188"/>
		
			<line fill="none" stroke="#654566" stroke-width="0.75" stroke-miterlimit="10" x1="132.191" y1="89.688" x2="127.773" y2="89.688"/>
		
			<line fill="none" stroke="#654566" stroke-width="0.75" stroke-miterlimit="10" x1="131.959" y1="88.188" x2="128.005" y2="88.188"/>
		<rect x="128.297" y="83.521" fill="#654566" width="3.342" height="3.486"/>
	</g>
	<g>
		<polygon fill="#6EC498" stroke="#579975" stroke-miterlimit="10" points="176.142,252.768 158.714,252.768 160.714,233.586 
			174.142,233.586 		"/>
		<g>
			<g>
				<g>
					<path fill="none" stroke="#579975" stroke-width="2" stroke-miterlimit="10" d="M176.985,263.191
						c-5.282,5.279-13.831,5.279-19.113,0"/>
					<path fill="none" stroke="#579975" stroke-width="2" stroke-miterlimit="10" d="M174.486,260.691
						c-3.901,3.898-10.214,3.898-14.115,0"/>
					<path fill="none" stroke="#579975" stroke-width="2" stroke-miterlimit="10" d="M171.559,257.998
						c-2.282,2.283-5.979,2.283-8.263,0"/>
				</g>
			</g>
		</g>
	</g>
	<g>
		
			<rect x="104.972" y="114.386" fill="#FFFFFF" stroke="#000000" stroke-width="0.5" stroke-miterlimit="10" width="87.503" height="112.091"/>
		<g>
			<g>
				<g>
					<path fill="#010101" stroke="#FFFFFF" stroke-width="0.2061" stroke-miterlimit="10" d="M148.366,161.185"/>
				</g>
				<g>
					<path fill="#010101" stroke="#FFFFFF" stroke-width="0.2061" stroke-miterlimit="10" d="M148.366,161.185"/>
				</g>
				<g>
					<path fill="#010101" stroke="#FFFFFF" stroke-width="0.2061" stroke-miterlimit="10" d="M148.366,161.185"/>
				</g>
				<g>
					<path fill="#010101" stroke="#FFFFFF" stroke-width="0.2061" stroke-miterlimit="10" d="M148.366,161.185"/>
				</g>
			</g>
			<polyline fill="#3399CC" points="174.123,175.994 161.245,183.721 148.367,191.447 148.367,175.994 148.367,160.541 			"/>
			<polyline fill="#996699" points="174.123,175.994 174.123,160.541 174.123,145.087 161.259,152.813 148.367,160.541 			"/>
			<polyline fill="#F89839" points="148.37,129.633 135.489,137.359 122.609,145.087 135.49,152.813 148.37,160.541 			"/>
			<polyline fill="#EE3968" points="148.367,129.633 161.244,137.359 174.123,145.087 161.245,152.813 148.367,160.541 			"/>
			<polyline fill="#FFCE09" points="122.609,175.994 135.49,183.721 148.37,191.447 148.37,175.994 148.37,160.541 			"/>
			<polyline fill="#6EC498" points="122.611,175.994 122.611,160.541 122.611,145.087 135.489,152.813 148.367,160.541 			"/>
			<g>
				<g>
					<g>
						
							<line fill="none" stroke="#FFFFFF" stroke-width="0.6182" stroke-miterlimit="10" x1="148.372" y1="129.633" x2="148.372" y2="130.354"/>
						
							<line fill="none" stroke="#FFFFFF" stroke-width="0.6182" stroke-miterlimit="10" stroke-dasharray="1.4031,1.4031" x1="148.371" y1="131.757" x2="148.366" y2="159.118"/>
						
							<line fill="none" stroke="#FFFFFF" stroke-width="0.6182" stroke-miterlimit="10" x1="148.366" y1="159.82" x2="148.366" y2="160.541"/>
					</g>
				</g>
				<g>
					<g>
						
							<line fill="none" stroke="#FFFFFF" stroke-width="0.6182" stroke-miterlimit="10" x1="148.366" y1="160.541" x2="148.984" y2="160.912"/>
						
							<line fill="none" stroke="#FFFFFF" stroke-width="0.6182" stroke-miterlimit="10" stroke-dasharray="1.505,1.505" x1="150.275" y1="161.687" x2="172.859" y2="175.236"/>
						
							<line fill="none" stroke="#FFFFFF" stroke-width="0.6182" stroke-miterlimit="10" x1="173.504" y1="175.623" x2="174.123" y2="175.994"/>
					</g>
				</g>
				<g>
					<g>
						
							<line fill="none" stroke="#FFFFFF" stroke-width="0.6182" stroke-miterlimit="10" x1="148.366" y1="160.541" x2="147.747" y2="160.912"/>
						
							<line fill="none" stroke="#FFFFFF" stroke-width="0.6182" stroke-miterlimit="10" stroke-dasharray="1.5049,1.5049" x1="146.457" y1="161.687" x2="123.873" y2="175.236"/>
						
							<line fill="none" stroke="#FFFFFF" stroke-width="0.6182" stroke-miterlimit="10" x1="123.228" y1="175.623" x2="122.609" y2="175.994"/>
					</g>
				</g>
			</g>
			<g>
				
					<line fill="none" stroke="#FFFFFF" stroke-width="0.6182" stroke-miterlimit="10" x1="148.372" y1="191.447" x2="148.366" y2="160.541"/>
				
					<line fill="none" stroke="#FFFFFF" stroke-width="0.6182" stroke-miterlimit="10" x1="148.366" y1="160.541" x2="174.123" y2="145.087"/>
				
					<line fill="none" stroke="#FFFFFF" stroke-width="0.6182" stroke-miterlimit="10" x1="148.366" y1="160.541" x2="122.609" y2="145.087"/>
			</g>
		</g>
		
			<rect x="109.972" y="229.504" fill="#FFFFFF" stroke="#000000" stroke-width="0.5" stroke-miterlimit="10" width="77.146" height="6.287"/>
		
			<rect x="109.972" y="105.215" fill="#FFFFFF" stroke="#000000" stroke-width="0.5" stroke-miterlimit="10" width="77.146" height="6.287"/>
		
			<line fill="none" stroke="#000000" stroke-width="5.3711" stroke-miterlimit="10" x1="103.269" y1="111.854" x2="193.931" y2="111.854"/>
		
			<line fill="none" stroke="#000000" stroke-width="5.3711" stroke-miterlimit="10" x1="103.269" y1="229.012" x2="193.931" y2="229.012"/>
		<g>
			<path d="M141.186,197.822h2.006v8.91h-2.006v-3.781h-3.369v3.781h-2.005v-8.91h2.005v3.406h3.369V197.822z"/>
			<path d="M148.733,206.912c-0.626,0-1.166-0.088-1.62-0.264c-0.455-0.176-0.83-0.42-1.125-0.732
				c-0.296-0.313-0.515-0.686-0.656-1.119c-0.142-0.433-0.212-0.91-0.212-1.434v-5.541h2.006v5.374c0,0.36,0.041,0.667,0.122,0.919
				c0.082,0.253,0.193,0.459,0.334,0.617s0.313,0.272,0.514,0.341c0.201,0.069,0.422,0.103,0.662,0.103
				c0.489,0,0.885-0.149,1.189-0.449c0.304-0.301,0.457-0.811,0.457-1.53v-5.374h2.006v5.541c0,0.523-0.073,1.003-0.219,1.439
				c-0.146,0.438-0.369,0.813-0.668,1.125c-0.3,0.313-0.682,0.556-1.145,0.727C149.916,206.826,149.368,206.912,148.733,206.912z"/>
			<path d="M157.309,206.848c-0.488,0-0.975-0.016-1.459-0.045c-0.484-0.03-0.988-0.101-1.511-0.213v-8.64
				c0.411-0.077,0.861-0.135,1.35-0.173c0.489-0.039,0.943-0.059,1.363-0.059c0.565,0,1.086,0.041,1.562,0.122
				s0.885,0.221,1.228,0.418c0.343,0.197,0.611,0.456,0.804,0.778c0.193,0.32,0.289,0.718,0.289,1.189
				c0,0.711-0.343,1.272-1.029,1.684c0.566,0.215,0.952,0.506,1.157,0.875c0.206,0.368,0.309,0.783,0.309,1.246
				c0,0.936-0.34,1.638-1.022,2.109C159.668,206.611,158.655,206.848,157.309,206.848z M156.293,201.318h0.977
				c0.617,0,1.059-0.078,1.325-0.237c0.266-0.159,0.398-0.413,0.398-0.765c0-0.36-0.137-0.613-0.412-0.759s-0.677-0.219-1.208-0.219
				c-0.171,0-0.356,0.002-0.553,0.007c-0.197,0.004-0.373,0.015-0.527,0.031V201.318z M156.293,202.85v2.301
				c0.146,0.018,0.304,0.03,0.476,0.039c0.171,0.008,0.36,0.012,0.566,0.012c0.6,0,1.084-0.085,1.453-0.256
				c0.368-0.172,0.553-0.489,0.553-0.952c0-0.411-0.154-0.705-0.463-0.881c-0.309-0.175-0.75-0.263-1.324-0.263H156.293z"/>
		</g>
		<rect x="107.622" y="160.539" width="3.215" height="17.178"/>
		<rect x="186.911" y="160.539" width="3.214" height="17.178"/>
	</g>
	<g>
		<path fill="#FFFFFF" d="M164.126,245.709c0.04,0.137,0.084,0.291,0.132,0.463s0.1,0.35,0.155,0.533
			c0.055,0.182,0.11,0.365,0.167,0.549s0.112,0.354,0.165,0.51c0.043-0.17,0.088-0.354,0.133-0.555
			c0.045-0.199,0.088-0.406,0.128-0.619c0.04-0.215,0.079-0.426,0.118-0.639c0.039-0.211,0.075-0.416,0.108-0.611h0.81
			c-0.117,0.58-0.252,1.168-0.405,1.764c-0.153,0.598-0.318,1.164-0.496,1.701h-0.713c-0.117-0.32-0.229-0.656-0.339-1.008
			s-0.218-0.705-0.324-1.059c-0.107,0.354-0.214,0.707-0.321,1.059c-0.106,0.352-0.218,0.688-0.335,1.008h-0.713
			c-0.178-0.537-0.343-1.104-0.495-1.701c-0.152-0.596-0.287-1.184-0.404-1.764h0.845c0.034,0.195,0.07,0.4,0.111,0.611
			c0.04,0.213,0.082,0.424,0.125,0.639c0.043,0.213,0.088,0.42,0.133,0.619c0.045,0.201,0.091,0.385,0.138,0.555
			c0.06-0.162,0.118-0.336,0.175-0.52c0.057-0.184,0.112-0.367,0.165-0.551c0.054-0.182,0.103-0.359,0.148-0.529
			s0.086-0.322,0.123-0.455H164.126z"/>
		<path fill="#FFFFFF" d="M167.303,245.414c0,0.137-0.044,0.244-0.132,0.322c-0.088,0.078-0.193,0.117-0.313,0.117
			c-0.12,0-0.225-0.039-0.313-0.117c-0.088-0.078-0.133-0.186-0.133-0.322s0.044-0.244,0.133-0.322
			c0.088-0.078,0.192-0.117,0.313-0.117c0.12,0,0.224,0.039,0.313,0.117C167.258,245.17,167.303,245.277,167.303,245.414z
			 M167.233,248.805h-0.745v-2.631h0.745V248.805z"/>
		<path fill="#FFFFFF" d="M167.708,246.975h1.45v0.674h-1.45V246.975z"/>
		<path fill="#FFFFFF" d="M169.683,248.805v-3.465h2.32v0.654h-1.54v0.725h1.37v0.656h-1.37v1.43H169.683z"/>
		<path fill="#FFFFFF" d="M173.318,245.414c0,0.137-0.044,0.244-0.132,0.322c-0.088,0.078-0.193,0.117-0.313,0.117
			c-0.12,0-0.225-0.039-0.313-0.117c-0.088-0.078-0.133-0.186-0.133-0.322s0.044-0.244,0.133-0.322
			c0.088-0.078,0.192-0.117,0.313-0.117c0.12,0,0.224,0.039,0.313,0.117C173.273,245.17,173.318,245.277,173.318,245.414z
			 M173.248,248.805h-0.745v-2.631h0.745V248.805z"/>
	</g>
</g>
<path fill="#F89838" d="M451.693,84.79c-35.426,0-66.104,29.671-64.133,66.176c-1.061,9.504,10.965,32.373,21.609,45.203
	c14.449,25.985,15.838,29.088,16.793,57.438c0.729,3.389,2.455,4.439,4.213,4.83c18.594,3.612,32.969,1.569,44.051,0.202
	c2.656-0.89,4.268-2.575,4.072-4.896c1.064-38.506,6.953-36.175,24.625-65.804c9.787-13.371,13.398-33.076,13.484-42.229
	C517.457,94.705,470.727,85.341,451.693,84.79L451.693,84.79z"/>
<g>
	<path fill="#FFCE0C" d="M451.688,85.195l-3.199,0.093l-3.176,0.254c-1.059,0.122-2.109,0.295-3.164,0.439
		c-1.049,0.186-2.09,0.405-3.135,0.605c-1.039,0.23-2.064,0.521-3.094,0.782c-1.021,0.296-2.031,0.631-3.045,0.944
		c-1.006,0.341-1.99,0.743-2.984,1.113c-0.98,0.405-1.945,0.845-2.918,1.264c-0.957,0.453-1.891,0.957-2.834,1.431l-2.754,1.57
		l-2.666,1.701l-2.57,1.831l-2.461,1.968l-2.35,2.082l-2.242,2.19l-2.123,2.293c-0.666,0.799-1.348,1.583-2,2.387
		c-0.625,0.83-1.266,1.641-1.873,2.478c-0.58,0.857-1.18,1.696-1.748,2.556c-0.541,0.878-1.109,1.734-1.625,2.623
		c-0.492,0.903-1.02,1.782-1.484,2.696c-0.443,0.924-0.93,1.824-1.338,2.76c-0.389,0.945-0.85,1.856-1.213,2.808
		c-0.354,0.956-0.758,1.89-1.068,2.857c-0.303,0.97-0.672,1.917-0.938,2.896c-0.258,0.981-0.57,1.945-0.783,2.935
		c-0.207,0.991-0.482,1.965-0.652,2.961c-0.16,0.997-0.373,1.985-0.496,2.987c-0.104,1.003-0.277,1.999-0.359,3.004
		c-0.066,1.007-0.166,2.01-0.207,3.018l-0.064,3.025l0.078,3.025l-0.016,0.602c0.004,0.373-0.002,0.744-0.02,1.115
		c-0.021,0.176,0.002,0.389,0.029,0.609l0.064,0.646c0.031,0.841,0.287,1.794,0.443,2.704c0.207,0.929,0.496,1.873,0.736,2.817
		c0.311,0.947,0.598,1.899,0.926,2.849l1.059,2.847l1.154,2.84l1.246,2.822l1.311,2.806c0.43,0.939,0.922,1.853,1.381,2.782
		c0.455,0.931,0.955,1.84,1.445,2.754c0.488,0.915,0.977,1.832,1.494,2.732c0.512,0.903,1.006,1.82,1.549,2.704
		c0.539,0.887,1.053,1.793,1.611,2.667l1.678,2.624l1.746,2.571l1.826,2.503l0.15,0.207c0.029,0.041,0.057,0.087,0.08,0.129
		l3.424,6.814l1.701,3.422c0.555,1.15,1.135,2.28,1.668,3.448c0.537,1.165,1.119,2.296,1.631,3.479
		c0.52,1.177,1.063,2.337,1.541,3.536l0.74,1.787c0.234,0.602,0.445,1.215,0.672,1.821c0.461,1.207,0.832,2.453,1.227,3.688
		c0.375,1.239,0.68,2.505,0.986,3.763c0.242,1.271,0.57,2.529,0.744,3.806l0.307,1.91c0.092,0.637,0.156,1.275,0.234,1.913
		c0.176,1.274,0.307,2.55,0.42,3.822c0.133,1.274,0.223,2.547,0.309,3.819c0.098,1.273,0.176,2.546,0.236,3.815l0.414,7.616
		l-0.029-0.245c0.246,0.896,0.553,1.758,1.02,2.38c0.467,0.623,1.053,0.977,1.838,1.188l0.299,0.076l0.297,0.045l0.791,0.109
		l1.584,0.212l3.166,0.426c1.063,0.174,2.09,0.189,3.129,0.281l3.107,0.224c1.027,0.096,2.086,0.059,3.131,0.08l3.137,0.027
		c1.045,0.016,2.092-0.074,3.135-0.104l3.131-0.143c2.088-0.206,4.168-0.327,6.252-0.598l3.121-0.388
		c1.041-0.126,2.086-0.305,3.127-0.453c2.076-0.299,4.188-0.651,6.285-0.983l-0.58,0.132l0.545-0.25
		c0.188-0.079,0.309-0.188,0.471-0.271c0.174-0.078,0.244-0.19,0.373-0.273c0.061-0.044,0.125-0.085,0.148-0.132
		c0.033-0.046,0.072-0.087,0.111-0.126c0.047-0.038,0.082-0.078,0.084-0.116c0.018-0.038,0.037-0.071,0.061-0.101
		c0.057-0.061,0.014-0.124,0.061-0.166c0.023-0.021-0.008-0.059,0-0.085c0-0.027,0.006-0.052,0.018-0.078
		c-0.02-0.074-0.037-0.149-0.02-0.223l-0.01-0.352l0.047-4.545l0.023-2.275l0.098-2.284c0.082-1.525,0.111-3.043,0.236-4.576
		l0.377-4.605l0.596-4.641c0.303-1.554,0.553-3.109,0.908-4.665l0.602-2.332c0.105-0.388,0.195-0.779,0.313-1.165l0.389-1.152
		l0.783-2.304l0.943-2.242l0.48-1.117l0.537-1.074l1.09-2.146c0.787-1.353,1.541-2.776,2.365-4.062l1.219-1.971l1.236-1.911
		l2.463-3.779c1.631-2.509,3.25-4.982,4.799-7.502c0.779-1.255,1.57-2.503,2.314-3.778l2.275-3.798
		c0.049-0.081,0.098-0.158,0.15-0.233l0.074-0.105c1.574-2.257,3.025-4.636,4.285-7.159c1.246-2.53,2.416-5.124,3.371-7.828
		c0.955-2.698,1.863-5.431,2.568-8.229c0.725-2.79,1.328-5.617,1.809-8.45c0.225-1.417,0.43-2.833,0.58-4.242
		c0.078-0.703,0.125-1.397,0.188-2.098c0.029-0.667,0.078-1.404,0.084-2.012l0.029-4.508c-0.08-1.385-0.117-2.762-0.217-4.161
		c-0.166-1.407-0.252-2.836-0.473-4.235l-0.355-2.095l-0.162-1.053l-0.236-1.032l-0.475-2.07c-0.143-0.697-0.393-1.355-0.584-2.037
		c-0.213-0.673-0.389-1.364-0.631-2.026l-0.756-1.98l-0.379-0.993l-0.438-0.966l-0.871-1.941l-1.008-1.876l-0.504-0.942
		l-0.564-0.904l-1.141-1.813l-1.26-1.738l-0.633-0.871l-0.689-0.83c-0.461-0.55-0.904-1.121-1.387-1.659
		c-1.936-2.144-4.055-4.147-6.334-5.986c-2.313-1.792-4.729-3.5-7.307-4.958c-2.584-1.446-5.256-2.764-8.016-3.907
		c-2.771-1.108-5.607-2.08-8.5-2.864c-2.889-0.804-5.836-1.405-8.803-1.868C457.682,85.587,454.684,85.32,451.688,85.195z
		 M451.705,84.385c3.037,0.07,6.059,0.352,9.072,0.717c3.012,0.386,6.012,0.883,8.984,1.534c2.969,0.661,5.922,1.433,8.836,2.358
		c2.92,0.919,5.785,2.029,8.594,3.295c2.805,1.283,5.539,2.749,8.186,4.4c2.619,1.692,5.133,3.58,7.502,5.676
		c0.588,0.526,1.143,1.091,1.717,1.637l0.855,0.828l0.803,0.877l1.598,1.775l1.477,1.884l0.734,0.949l0.672,0.992l1.344,1.996
		l1.207,2.083l0.604,1.046c0.186,0.355,0.35,0.722,0.523,1.083l1.033,2.179c0.332,0.732,0.598,1.489,0.898,2.235
		c0.279,0.753,0.619,1.49,0.842,2.259l0.721,2.299l0.357,1.152l0.283,1.167l0.539,2.345c0.342,1.566,0.535,3.15,0.805,4.729
		c0.191,1.605,0.303,3.246,0.451,4.871c0.074,1.548,0.1,3.029,0.135,4.547c0.016,0.902-0.018,1.674-0.033,2.516
		c-0.049,0.805-0.084,1.618-0.148,2.418c-0.125,1.598-0.309,3.176-0.516,4.748c-0.426,3.138-1.055,6.228-1.797,9.294
		c-0.732,3.068-1.646,6.1-2.719,9.088c-1.047,2.995-2.348,5.925-3.766,8.809c-1.467,2.868-3.182,5.644-5.098,8.314l0.223-0.337
		c-1.6,2.587-3.201,5.176-4.883,7.706c-1.652,2.549-3.375,5.052-5.07,7.532l-2.535,3.695c-0.848,1.229-1.658,2.445-2.449,3.654
		c-0.832,1.214-1.51,2.426-2.271,3.64l-0.998,1.837l-0.5,0.919l-0.432,0.934l-0.859,1.876l-0.719,1.935l-0.361,0.967
		c-0.113,0.327-0.195,0.666-0.297,0.999l-0.584,2.005c-0.355,1.356-0.617,2.756-0.936,4.133l-0.701,4.26l-0.523,4.341
		c-0.178,1.446-0.26,2.927-0.396,4.39l-0.188,2.203l-0.15,2.219l-0.295,4.439l-0.01-0.353c0.004,0.5-0.006,1.003-0.051,1.503
		c-0.049,0.256-0.105,0.513-0.166,0.765c-0.068,0.254-0.113,0.513-0.221,0.75c-0.215,0.468-0.412,0.978-0.705,1.374
		c-0.143,0.204-0.289,0.405-0.443,0.603c-0.148,0.208-0.309,0.378-0.479,0.532l-0.506,0.478c-0.172,0.166-0.346,0.287-0.523,0.408
		c-0.352,0.234-0.713,0.515-1.066,0.674c-0.355,0.175-0.719,0.377-1.07,0.507l-1.064,0.381l-0.033,0.013
		c-0.178,0.064-0.367,0.104-0.547,0.119c-2.129,0.184-4.24,0.382-6.396,0.536c-1.076,0.077-2.143,0.18-3.225,0.234l-3.242,0.17
		c-2.156,0.123-4.338,0.1-6.498,0.154l-3.256-0.082c-1.084-0.041-2.168-0.025-3.25-0.117l-3.244-0.253
		c-1.082-0.096-2.156-0.135-3.242-0.311l-3.248-0.417c-1.072-0.154-2.18-0.244-3.209-0.472l-3.139-0.601l-1.57-0.3l-0.785-0.147
		l-0.197-0.035l-0.098-0.018l-0.049-0.009l-0.1-0.02l-0.016-0.005l-0.029-0.008l-0.473-0.137c-1.26-0.358-2.563-1.229-3.32-2.367
		c-0.775-1.127-1.123-2.328-1.395-3.488c-0.018-0.079-0.027-0.156-0.029-0.233v-0.012l-0.074-3.796
		c-0.014-1.267-0.084-2.526-0.133-3.788c-0.047-1.264-0.109-2.523-0.189-3.779c-0.07-1.259-0.145-2.515-0.26-3.764
		c-0.098-1.253-0.205-2.504-0.369-3.74c-0.084-0.621-0.15-1.243-0.244-1.859l-0.313-1.843c-0.18-1.234-0.492-2.435-0.752-3.648
		c-0.324-1.196-0.643-2.393-1.031-3.569c-0.404-1.17-0.781-2.35-1.281-3.49c-0.238-0.573-0.463-1.152-0.713-1.721l-0.783-1.699
		c-0.498-1.138-1.105-2.242-1.668-3.358c-0.559-1.116-1.189-2.211-1.787-3.315c-0.6-1.101-1.256-2.185-1.883-3.279l-1.924-3.264
		c-1.279-2.179-2.607-4.34-3.928-6.501l0.229,0.335l-2.139-2.467l-2.047-2.529l-1.967-2.583c-0.658-0.861-1.266-1.753-1.902-2.631
		c-0.641-0.874-1.23-1.779-1.84-2.674c-0.611-0.892-1.207-1.796-1.771-2.719c-0.574-0.917-1.158-1.83-1.701-2.77
		c-0.543-0.937-1.119-1.856-1.637-2.812l-1.574-2.858l-1.484-2.919l-1.385-2.988c-0.445-1.008-0.848-2.043-1.271-3.065
		c-0.4-1.039-0.762-2.107-1.143-3.161c-0.332-1.097-0.66-2.182-0.941-3.313c-0.23-1.171-0.539-2.271-0.643-3.553l-0.104-0.934
		c-0.039-0.306-0.066-0.619-0.051-0.975c0.012-0.688,0.031-1.375,0.063-2.061l-0.016,0.601l-0.092-3.406
		c0.008-1.136,0.057-2.272,0.1-3.408c0.066-1.134,0.195-2.264,0.293-3.396c0.119-1.13,0.311-2.251,0.48-3.375
		c0.182-1.122,0.457-2.226,0.684-3.337c0.238-1.109,0.57-2.197,0.861-3.292c0.656-2.171,1.416-4.307,2.289-6.391
		c0.426-1.047,0.945-2.053,1.412-3.078c0.486-1.018,1.043-2,1.576-2.989c0.547-0.983,1.166-1.925,1.746-2.886
		c0.598-0.949,1.26-1.858,1.887-2.784c0.648-0.912,1.35-1.787,2.02-2.678c0.693-0.876,1.443-1.707,2.162-2.555
		c0.746-0.828,1.527-1.624,2.285-2.432c0.787-0.784,1.602-1.541,2.396-2.309l2.502-2.182l2.598-2.052l2.688-1.917l2.773-1.777
		l2.836-1.655l2.904-1.518l2.971-1.371l3.025-1.227c1.023-0.367,2.037-0.753,3.063-1.102l3.109-0.956
		c1.051-0.272,2.092-0.565,3.145-0.818l3.174-0.669c1.066-0.176,2.129-0.371,3.197-0.53l3.219-0.375l3.238-0.239l3.217-0.074
		C451.689,84.385,451.699,84.385,451.705,84.385z"/>
</g>
<path fill="#F89838" d="M437.67,228.457l2.148,30.446c8.477,1.854,17.297,1.471,24.521-0.541l1.887-30.18
	C457.02,229.845,447.596,230.375,437.67,228.457L437.67,228.457z"/>
<path fill="#F89838" d="M441.064,217.874l-16.059-70.266c21.654,9.404,38.516,3.623,53.885-1.898l-19.51,71.899
	C453.281,218.764,447.705,219.304,441.064,217.874L441.064,217.874z"/>
<g>
	<path fill="#FFCE0C" d="M441.064,217.874c-0.947-2.864-1.871-5.733-2.756-8.612c-0.871-2.882-1.791-5.754-2.625-8.642l-2.539-8.662
		c-0.842-2.888-1.645-5.785-2.465-8.679l-2.391-8.694l-2.332-8.71l-2.279-8.721l-2.219-8.734c-0.488-1.921,0.674-3.874,2.592-4.361
		c0.736-0.186,1.475-0.132,2.135,0.114l0.27,0.1l3.074,1.141l0.766,0.287l0.779,0.235l1.561,0.471
		c0.521,0.148,1.035,0.333,1.561,0.454l1.58,0.361l1.578,0.363c0.527,0.106,1.063,0.173,1.592,0.268
		c1.061,0.174,2.117,0.378,3.189,0.448c1.068,0.093,2.131,0.245,3.207,0.243c1.072,0.02,2.141,0.105,3.217,0.036
		c1.072-0.049,2.146-0.024,3.221-0.147c1.074-0.096,2.148-0.156,3.221-0.333c1.074-0.147,2.148-0.285,3.221-0.512l1.607-0.304
		l1.604-0.371l1.605-0.369l1.605-0.428c1.068-0.27,2.141-0.595,3.211-0.916c1.07-0.306,2.143-0.674,3.217-1.016
		c1.07-0.34,2.148-0.733,3.225-1.088l3.254-1.118l0.096-0.032c2.059-0.708,4.299,0.388,5.008,2.446
		c0.271,0.791,0.275,1.607,0.064,2.355l-2.541,8.96l-2.596,8.945l-2.65,8.93l-2.703,8.915l-2.76,8.899l-2.822,8.884l-2.895,8.863
		l-2.984,8.839l-0.061,0.179c-0.162,0.48-0.586,0.799-1.059,0.855l-2.328,0.271l-2.348,0.174c-0.791,0.025-1.572,0.061-2.359,0.077
		l-1.18-0.015c-0.393-0.01-0.785,0.001-1.178-0.025l-1.176-0.079c-0.393-0.033-0.781-0.035-1.172-0.096l-1.164-0.162
		c-0.387-0.061-0.775-0.092-1.158-0.178l-1.146-0.235c-0.379-0.084-0.762-0.145-1.137-0.244L441.064,217.874z M441.064,217.874
		l2.303,0.199c0.381,0.034,0.766,0.029,1.148,0.046l1.145,0.035c0.381,0.019,0.764-0.017,1.143-0.021l1.139-0.038
		c0.379-0.006,0.758-0.053,1.135-0.079l1.131-0.091c0.375-0.029,0.75-0.096,1.125-0.143l1.121-0.152
		c0.746-0.124,1.49-0.271,2.23-0.403c1.48-0.32,2.953-0.66,4.43-1.027l-1.119,1.033l1.893-9.135l1.984-9.111l2.055-9.091
		l2.117-9.075l2.176-9.059l2.227-9.045l2.281-9.03l2.338-9.015l5.166,4.769c-2.182,0.809-4.377,1.616-6.625,2.365
		c-1.129,0.37-2.242,0.76-3.393,1.099c-1.143,0.352-2.283,0.707-3.455,1.012l-1.744,0.476l-1.771,0.417l-1.779,0.396l-1.805,0.329
		c-1.197,0.241-2.416,0.396-3.637,0.552c-1.215,0.188-2.451,0.257-3.682,0.354c-1.229,0.124-2.473,0.108-3.711,0.127
		c-1.236,0.046-2.479-0.068-3.717-0.12c-1.242-0.032-2.471-0.223-3.703-0.359c-1.236-0.114-2.451-0.366-3.668-0.594
		c-0.607-0.118-1.219-0.221-1.82-0.363l-1.789-0.475l-1.787-0.478c-0.596-0.162-1.168-0.385-1.752-0.574l-1.742-0.594l-0.871-0.298
		l-0.848-0.35l-3.377-1.418l4.996-4.146l1.795,8.831l1.734,8.846l1.684,8.857l1.625,8.87c0.52,2.963,1.053,5.921,1.549,8.888
		l1.479,8.905c0.504,2.966,0.922,5.95,1.389,8.924C440.26,211.896,440.676,214.883,441.064,217.874z"/>
</g>
<g>
	<g>
		<line fill="#FFCE0C" x1="386.354" y1="105.916" x2="370.342" y2="89.904"/>
		<path fill="#FFCE0C" d="M386.068,106.202c0,0-0.338-0.163-0.912-0.466c-0.289-0.148-0.635-0.334-1.025-0.553
			c-0.391-0.219-0.844-0.455-1.316-0.733c-0.949-0.553-2.059-1.193-3.221-1.909c-1.158-0.716-2.357-1.519-3.539-2.34
			c-0.59-0.409-1.24-0.759-1.889-1.097c-0.645-0.34-1.262-0.693-1.742-1.149c-0.482-0.457-0.857-0.989-1.15-1.556
			c-0.305-0.553-0.547-1.125-0.73-1.692c-0.191-0.56-0.316-1.123-0.402-1.646c-0.096-0.516-0.119-1.022-0.139-1.441
			c-0.014-0.422-0.006-0.775,0.018-1.033c0.023-0.257,0.037-0.395,0.037-0.395c0.027-0.31,0.273-0.546,0.572-0.573
			c0,0,0.137-0.013,0.395-0.036c0.258-0.023,0.611-0.034,1.033-0.017c0.42,0.018,0.926,0.042,1.441,0.138
			c0.521,0.086,1.086,0.211,1.645,0.402c0.568,0.184,1.141,0.424,1.693,0.73c0.566,0.293,1.1,0.668,1.557,1.149
			c0.455,0.482,0.809,1.099,1.148,1.744c0.338,0.646,0.688,1.298,1.096,1.889c0.82,1.182,1.625,2.38,2.342,3.539
			c0.715,1.161,1.355,2.271,1.908,3.22c0.277,0.472,0.514,0.924,0.734,1.315c0.219,0.392,0.404,0.736,0.553,1.027
			c0.303,0.574,0.465,0.911,0.465,0.911c0.104,0.213,0.014,0.47-0.199,0.573C386.318,106.261,386.182,106.256,386.068,106.202z"/>
	</g>
	<g>
		<line fill="#FFCE0C" x1="373.674" y1="126.017" x2="352.697" y2="117.489"/>
		<path fill="#FFCE0C" d="M373.521,126.392c0,0-0.373-0.02-1.02-0.075c-0.324-0.023-0.715-0.061-1.16-0.109
			c-0.445-0.05-0.953-0.092-1.498-0.165c-1.088-0.14-2.361-0.299-3.707-0.506c-1.348-0.208-2.764-0.484-4.172-0.78
			c-0.703-0.147-1.439-0.216-2.166-0.276c-0.727-0.062-1.432-0.148-2.053-0.381s-1.176-0.578-1.664-0.986
			c-0.498-0.391-0.943-0.825-1.332-1.276c-0.393-0.441-0.727-0.912-1.012-1.36c-0.287-0.438-0.508-0.895-0.688-1.273
			c-0.178-0.383-0.307-0.711-0.387-0.958c-0.078-0.247-0.121-0.378-0.121-0.378c-0.094-0.296,0.041-0.61,0.307-0.751
			c0,0,0.121-0.065,0.35-0.187c0.229-0.122,0.551-0.267,0.945-0.417c0.395-0.146,0.871-0.32,1.381-0.433
			c0.516-0.124,1.082-0.228,1.674-0.269c0.592-0.052,1.215-0.052,1.844,0.015c0.637,0.049,1.271,0.188,1.879,0.454
			c0.609,0.267,1.174,0.698,1.738,1.159c0.563,0.465,1.139,0.929,1.744,1.314c1.217,0.769,2.422,1.56,3.533,2.35
			c1.109,0.792,2.131,1.565,3.01,2.225c0.439,0.327,0.834,0.651,1.188,0.927s0.658,0.522,0.908,0.731
			c0.502,0.411,0.783,0.658,0.783,0.658c0.178,0.157,0.195,0.428,0.039,0.605C373.777,126.348,373.648,126.397,373.521,126.392z"/>
	</g>
</g>
<g>
	<g>
		<line fill="#FFCE0C" x1="520.838" y1="182.924" x2="536.852" y2="198.935"/>
		<path fill="#FFCE0C" d="M521.127,182.638c0,0,0.336,0.163,0.91,0.466c0.289,0.148,0.635,0.335,1.027,0.553
			c0.391,0.219,0.842,0.455,1.314,0.733c0.949,0.552,2.059,1.192,3.221,1.908c1.162,0.715,2.359,1.519,3.539,2.34
			c0.592,0.409,1.242,0.759,1.891,1.097c0.645,0.34,1.26,0.693,1.742,1.149c0.48,0.457,0.857,0.989,1.148,1.556
			c0.307,0.555,0.547,1.126,0.73,1.693c0.189,0.559,0.316,1.124,0.402,1.646c0.096,0.516,0.117,1.022,0.139,1.44
			c0.016,0.422,0.008,0.775-0.018,1.032c-0.021,0.258-0.037,0.396-0.037,0.396c-0.025,0.311-0.273,0.547-0.572,0.572
			c0,0-0.137,0.014-0.395,0.036c-0.258,0.023-0.611,0.032-1.031,0.018c-0.42-0.02-0.928-0.045-1.441-0.14
			c-0.523-0.086-1.086-0.212-1.645-0.403c-0.568-0.183-1.139-0.423-1.695-0.729c-0.566-0.292-1.098-0.668-1.555-1.15
			c-0.457-0.48-0.809-1.097-1.148-1.742c-0.34-0.646-0.689-1.298-1.098-1.889c-0.82-1.181-1.625-2.379-2.342-3.539
			c-0.715-1.161-1.355-2.271-1.906-3.22c-0.279-0.473-0.516-0.925-0.734-1.316s-0.404-0.736-0.553-1.025
			c-0.303-0.574-0.465-0.911-0.465-0.911c-0.104-0.213-0.016-0.47,0.199-0.573C520.875,182.578,521.014,182.584,521.127,182.638z"/>
	</g>
	<g>
		<line fill="#FFCE0C" x1="533.52" y1="162.822" x2="554.496" y2="171.351"/>
		<path fill="#FFCE0C" d="M533.672,162.447c0,0,0.375,0.02,1.02,0.075c0.324,0.023,0.715,0.061,1.162,0.11
			c0.445,0.05,0.953,0.091,1.496,0.163c1.09,0.141,2.359,0.3,3.709,0.507c1.348,0.208,2.762,0.483,4.17,0.781
			c0.703,0.146,1.439,0.216,2.168,0.275c0.725,0.063,1.432,0.148,2.051,0.382c0.621,0.233,1.174,0.577,1.666,0.985
			c0.496,0.392,0.941,0.825,1.332,1.276c0.393,0.441,0.727,0.912,1.01,1.359c0.287,0.438,0.508,0.895,0.688,1.274
			c0.18,0.383,0.309,0.711,0.387,0.958c0.08,0.247,0.121,0.379,0.121,0.379c0.094,0.295-0.041,0.609-0.305,0.75
			c0,0-0.123,0.064-0.352,0.187c-0.229,0.123-0.551,0.268-0.945,0.418c-0.393,0.146-0.869,0.319-1.381,0.434
			c-0.518,0.123-1.082,0.227-1.674,0.269c-0.592,0.052-1.213,0.052-1.844-0.016c-0.633-0.049-1.27-0.188-1.877-0.454
			c-0.609-0.266-1.172-0.697-1.738-1.159c-0.563-0.464-1.137-0.928-1.744-1.314c-1.215-0.769-2.422-1.559-3.533-2.35
			c-1.109-0.792-2.133-1.565-3.01-2.225c-0.439-0.327-0.832-0.652-1.188-0.928c-0.354-0.275-0.658-0.521-0.908-0.73
			c-0.5-0.41-0.783-0.658-0.783-0.658c-0.178-0.155-0.195-0.428-0.039-0.604C533.418,162.491,533.547,162.441,533.672,162.447z"/>
	</g>
	<g>
		<line fill="#FFCE0C" x1="520.838" y1="105.916" x2="536.852" y2="89.904"/>
		<path fill="#FFCE0C" d="M520.555,105.629c0,0,0.162-0.337,0.465-0.911c0.146-0.29,0.334-0.635,0.553-1.026
			c0.221-0.391,0.457-0.843,0.732-1.316c0.555-0.949,1.195-2.059,1.908-3.22c0.717-1.16,1.52-2.358,2.342-3.539
			c0.41-0.59,0.76-1.242,1.096-1.89c0.34-0.645,0.693-1.261,1.148-1.743c0.457-0.481,0.99-0.856,1.557-1.149
			c0.555-0.306,1.127-0.547,1.695-0.73c0.559-0.19,1.121-0.315,1.643-0.403c0.518-0.095,1.023-0.12,1.441-0.138
			c0.422-0.016,0.775-0.006,1.033,0.017c0.256,0.023,0.395,0.036,0.395,0.036c0.311,0.028,0.547,0.273,0.572,0.573
			c0,0,0.016,0.138,0.037,0.395c0.023,0.258,0.031,0.611,0.018,1.033c-0.02,0.419-0.043,0.926-0.139,1.441
			c-0.088,0.523-0.213,1.085-0.402,1.646c-0.186,0.567-0.424,1.139-0.73,1.693c-0.293,0.566-0.668,1.098-1.148,1.555
			c-0.484,0.456-1.098,0.81-1.744,1.149c-0.648,0.338-1.299,0.688-1.889,1.097c-1.18,0.82-2.379,1.624-3.539,2.339
			c-1.16,0.716-2.273,1.356-3.221,1.909c-0.473,0.278-0.926,0.515-1.314,0.733c-0.391,0.218-0.736,0.404-1.029,0.553
			c-0.572,0.303-0.908,0.465-0.908,0.465c-0.213,0.104-0.471,0.014-0.574-0.199C520.494,105.88,520.498,105.742,520.555,105.629z"/>
	</g>
	<g>
		<line fill="#FFCE0C" x1="533.52" y1="126.017" x2="554.496" y2="117.489"/>
		<path fill="#FFCE0C" d="M533.367,125.641c0,0,0.281-0.247,0.783-0.658c0.248-0.209,0.555-0.456,0.908-0.73s0.746-0.6,1.186-0.927
			c0.879-0.659,1.9-1.433,3.012-2.225c1.109-0.791,2.316-1.582,3.531-2.351c0.607-0.386,1.184-0.85,1.746-1.314
			c0.563-0.462,1.129-0.893,1.736-1.16c0.607-0.266,1.244-0.405,1.879-0.454c0.629-0.067,1.25-0.067,1.844-0.016
			c0.59,0.042,1.158,0.146,1.672,0.269c0.512,0.114,0.988,0.288,1.381,0.434c0.396,0.15,0.717,0.295,0.945,0.417
			c0.229,0.122,0.352,0.187,0.352,0.187c0.275,0.146,0.396,0.465,0.305,0.751c0,0-0.041,0.131-0.119,0.378
			c-0.08,0.247-0.207,0.575-0.387,0.958c-0.18,0.379-0.4,0.836-0.689,1.273c-0.283,0.448-0.617,0.918-1.01,1.36
			c-0.389,0.451-0.834,0.884-1.332,1.276c-0.49,0.409-1.043,0.753-1.664,0.987c-0.623,0.233-1.328,0.318-2.053,0.381
			c-0.727,0.061-1.463,0.129-2.168,0.276c-1.406,0.297-2.822,0.572-4.17,0.78c-1.348,0.208-2.617,0.367-3.709,0.506
			c-0.543,0.073-1.051,0.114-1.496,0.165c-0.445,0.049-0.836,0.085-1.16,0.109c-0.646,0.056-1.021,0.076-1.021,0.076
			c-0.236,0.012-0.438-0.169-0.449-0.406C533.215,125.851,533.273,125.725,533.367,125.641z"/>
	</g>
</g>
<g>
	<path fill="#F89838" d="M435.423,223.623l2.455,34.632c9.623,2.115,19.686,1.689,27.891-0.61l2.156-34.348
		C457.437,225.185,446.706,225.796,435.423,223.623L435.423,223.623z M435.423,223.623"/>
	<g>
		<path fill="#FFCE0E" d="M435.423,223.623c0.431,2.87,0.827,5.742,1.197,8.616l1.054,8.627l0.957,8.634l0.861,8.641l-1.267-1.467
			l3.377,0.54c1.132,0.138,2.268,0.24,3.398,0.364c0.566,0.062,1.138,0.059,1.706,0.092l1.706,0.074
			c0.568,0.041,1.139-0.005,1.707-0.002l1.706-0.026c0.568,0.009,1.134-0.069,1.701-0.096l1.7-0.106
			c0.568-0.019,1.128-0.117,1.692-0.178l1.688-0.206c0.566-0.053,1.115-0.192,1.674-0.284l1.668-0.307
			c0.556-0.105,1.096-0.268,1.644-0.397l1.64-0.41l-1.446,1.788c0.146-2.864,0.375-5.724,0.562-8.585l0.589-8.584
			c0.48-5.717,0.87-11.439,1.425-17.151l1.841,1.64l-4.103,0.548c-1.375,0.131-2.746,0.287-4.122,0.388
			c-1.382,0.063-2.759,0.145-4.138,0.189l-2.07,0.011c-0.69-0.004-1.379,0.023-2.068-0.006l-2.066-0.109
			c-0.688-0.043-1.376-0.058-2.062-0.125c-1.371-0.151-2.741-0.261-4.102-0.453c-1.356-0.234-2.712-0.447-4.058-0.698
			L435.423,223.623z M435.423,223.623l4.074,0.357c1.358,0.078,2.716,0.126,4.066,0.189c0.677,0.022,1.356-0.006,2.032,0.005
			l2.025,0.003c0.675-0.002,1.351-0.058,2.024-0.084l2.02-0.099c1.345-0.094,2.688-0.224,4.026-0.333
			c1.339-0.151,2.673-0.339,4.006-0.507l3.985-0.636l3.965-0.765l1.897-0.365l-0.057,2.006c-0.164,5.736-0.493,11.463-0.731,17.195
			l-0.489,8.59c-0.173,2.862-0.304,5.728-0.517,8.588l-0.108,1.469l-1.338,0.32l-1.78,0.427c-0.595,0.134-1.184,0.299-1.782,0.406
			l-1.797,0.312c-0.601,0.092-1.195,0.231-1.8,0.282l-1.809,0.201c-0.604,0.058-1.204,0.154-1.81,0.169l-1.814,0.093
			c-0.604,0.022-1.209,0.072-1.814,0.046l-1.814-0.034c-0.604-0.022-1.209,0.002-1.812-0.061l-1.808-0.141
			c-0.602-0.056-1.205-0.076-1.804-0.161c-1.196-0.171-2.395-0.322-3.587-0.511l-3.544-0.75l-1.216-0.258l-0.051-1.209l-0.366-8.676
			l-0.271-8.682l-0.174-8.689C435.414,229.425,435.401,226.525,435.423,223.623z"/>
	</g>
</g>
</svg>
