<?xml version="1.0" encoding="utf-8"?>
<!-- Generator: Adobe Illustrator 16.0.0, SVG Export Plug-In . SVG Version: 6.00 Build 0)  -->
<!DOCTYPE svg PUBLIC "-//W3C//DTD SVG 1.1//EN" "http://www.w3.org/Graphics/SVG/1.1/DTD/svg11.dtd">
<svg version="1.1" id="Layer_1" xmlns="http://www.w3.org/2000/svg" xmlns:xlink="http://www.w3.org/1999/xlink" x="0px" y="0px"
	 width="600px" height="400px" viewBox="0 0 600 400" enable-background="new 0 0 600 400" xml:space="preserve">
<line fill="none" stroke="#996699" stroke-width="4" stroke-dasharray="5.0737" x1="233.753" y1="231.079" x2="367.399" y2="231.079"/>
<g>
	
		<rect x="284.297" y="170.083" fill="none" stroke="#996699" stroke-width="6" stroke-linecap="square" width="31.406" height="39.62"/>
	
		<line fill="none" stroke="#996699" stroke-width="5.3235" stroke-dasharray="5.9425" x1="289.351" y1="170.083" x2="289.351" y2="209.702"/>
	
		<line fill="none" stroke="#996699" stroke-width="5.3235" stroke-dasharray="5.9425" x1="311.14" y1="170.083" x2="311.14" y2="209.702"/>
</g>
<line fill="none" stroke="#996699" stroke-width="4" stroke-dasharray="5.0737" x1="233.753" y1="260.794" x2="367.399" y2="260.794"/>
<g>
	<g>
		<path fill="none" d="M451.37,240.694"/>
	</g>
	<g>
		<path fill="none" d="M376.383,195.703"/>
	</g>
	<g>
		<path fill="none" d="M376.383,240.694"/>
	</g>
	<g>
		<path fill="none" d="M451.37,195.703"/>
	</g>
	<g>
		
			<rect x="364.514" y="151.073" fill="#FFFFFF" stroke="#EF4069" stroke-width="0.8213" stroke-miterlimit="10" width="138.664" height="177.625"/>
		<g>
			<g>
				<g>
					<path fill="#010101" stroke="#FFFFFF" stroke-width="0.3265" stroke-miterlimit="10" d="M433.279,225.23"/>
				</g>
				<g>
					<path fill="#010101" stroke="#FFFFFF" stroke-width="0.3265" stroke-miterlimit="10" d="M433.279,225.23"/>
				</g>
				<g>
					<path fill="#010101" stroke="#FFFFFF" stroke-width="0.3265" stroke-miterlimit="10" d="M433.279,225.23"/>
				</g>
				<g>
					<path fill="#010101" stroke="#FFFFFF" stroke-width="0.3265" stroke-miterlimit="10" d="M433.279,225.23"/>
				</g>
			</g>
			<polyline fill="#3499CD" points="474.096,248.699 453.688,260.944 433.279,273.191 433.279,248.699 433.279,224.213 			"/>
			<polyline fill="#996699" points="474.096,248.699 474.096,224.213 474.096,199.721 453.713,211.969 433.279,224.213 			"/>
			<polyline fill="#F89939" points="433.285,175.234 412.873,187.479 392.463,199.721 412.877,211.969 433.285,224.213 			"/>
			<polyline fill="#EF3B68" points="433.279,175.234 453.684,187.479 474.096,199.721 453.688,211.969 433.279,224.213 			"/>
			<polyline fill="#FFCE0C" points="392.463,248.699 412.877,260.944 433.285,273.191 433.285,248.699 433.285,224.213 			"/>
			<polyline fill="#6FC498" points="392.465,248.699 392.465,224.213 392.465,199.721 412.873,211.969 433.279,224.213 			"/>
			<g>
				<g>
					<g>
						
							<line fill="none" stroke="#FFFFFF" stroke-width="0.9796" stroke-miterlimit="10" x1="433.287" y1="175.234" x2="433.287" y2="176.377"/>
						
							<line fill="none" stroke="#FFFFFF" stroke-width="0.9796" stroke-miterlimit="10" stroke-dasharray="2.2235,2.2235" x1="433.286" y1="178.6" x2="433.279" y2="221.958"/>
						
							<line fill="none" stroke="#FFFFFF" stroke-width="0.9796" stroke-miterlimit="10" x1="433.279" y1="223.07" x2="433.279" y2="224.213"/>
					</g>
				</g>
				<g>
					<g>
						
							<line fill="none" stroke="#FFFFFF" stroke-width="0.9796" stroke-miterlimit="10" x1="433.279" y1="224.213" x2="434.26" y2="224.801"/>
						
							<line fill="none" stroke="#FFFFFF" stroke-width="0.9796" stroke-miterlimit="10" stroke-dasharray="2.3849,2.3849" x1="436.305" y1="226.027" x2="472.093" y2="247.498"/>
						
							<line fill="none" stroke="#FFFFFF" stroke-width="0.9796" stroke-miterlimit="10" x1="473.115" y1="248.111" x2="474.096" y2="248.699"/>
					</g>
				</g>
				<g>
					<g>
						
							<line fill="none" stroke="#FFFFFF" stroke-width="0.9796" stroke-miterlimit="10" x1="433.279" y1="224.213" x2="432.299" y2="224.801"/>
						
							<line fill="none" stroke="#FFFFFF" stroke-width="0.9796" stroke-miterlimit="10" stroke-dasharray="2.3849,2.3849" x1="430.254" y1="226.027" x2="394.466" y2="247.498"/>
						
							<line fill="none" stroke="#FFFFFF" stroke-width="0.9796" stroke-miterlimit="10" x1="393.443" y1="248.111" x2="392.463" y2="248.699"/>
					</g>
				</g>
			</g>
			<g>
				
					<line fill="none" stroke="#FFFFFF" stroke-width="0.9796" stroke-miterlimit="10" x1="433.287" y1="273.191" x2="433.279" y2="224.213"/>
				
					<line fill="none" stroke="#FFFFFF" stroke-width="0.9796" stroke-miterlimit="10" x1="433.279" y1="224.213" x2="474.096" y2="199.721"/>
				
					<line fill="none" stroke="#FFFFFF" stroke-width="0.9796" stroke-miterlimit="10" x1="433.279" y1="224.213" x2="392.463" y2="199.721"/>
			</g>
		</g>
		
			<rect x="372.439" y="333.496" fill="#FFFFFF" stroke="#EF4069" stroke-width="0.8213" stroke-miterlimit="10" width="122.248" height="9.964"/>
		
			<rect x="372.439" y="136.54" fill="#FFFFFF" stroke="#EF4069" stroke-width="0.8213" stroke-miterlimit="10" width="122.248" height="9.962"/>
		
			<line fill="none" stroke="#EF3B68" stroke-width="8.5113" stroke-miterlimit="10" x1="361.816" y1="147.058" x2="505.482" y2="147.058"/>
		
			<line fill="none" stroke="#EF3B68" stroke-width="8.5113" stroke-miterlimit="10" x1="361.816" y1="332.715" x2="505.482" y2="332.715"/>
		<g>
			<path d="M421.898,283.293h3.18v14.12h-3.18v-5.99h-5.338v5.99h-3.178v-14.12h3.178v5.399h5.338V283.293z"/>
			<path d="M433.859,297.698c-0.992,0-1.848-0.14-2.568-0.418c-0.719-0.278-1.313-0.665-1.781-1.161s-0.816-1.087-1.039-1.772
				c-0.225-0.686-0.338-1.443-0.338-2.272v-8.781h3.18v8.517c0,0.57,0.064,1.057,0.193,1.457s0.305,0.727,0.529,0.978
				c0.225,0.252,0.496,0.432,0.814,0.54c0.32,0.109,0.67,0.163,1.051,0.163c0.773,0,1.402-0.237,1.885-0.713
				c0.48-0.476,0.723-1.283,0.723-2.425v-8.517h3.178v8.781c0,0.829-0.115,1.59-0.346,2.282c-0.23,0.693-0.584,1.287-1.059,1.783
				c-0.477,0.496-1.08,0.879-1.814,1.151C435.734,297.563,434.863,297.698,433.859,297.698z"/>
			<path d="M447.449,297.597c-0.773,0-1.545-0.024-2.313-0.071c-0.768-0.048-1.566-0.16-2.395-0.337v-13.691
				c0.652-0.123,1.365-0.214,2.141-0.275c0.773-0.062,1.494-0.092,2.158-0.092c0.896,0,1.723,0.064,2.477,0.193
				c0.754,0.13,1.402,0.351,1.945,0.662c0.543,0.313,0.969,0.724,1.273,1.233c0.307,0.509,0.459,1.138,0.459,1.885
				c0,1.127-0.543,2.017-1.631,2.669c0.896,0.34,1.508,0.802,1.834,1.386s0.49,1.242,0.49,1.976c0,1.481-0.541,2.595-1.621,3.342
				S449.582,297.597,447.449,297.597z M445.84,288.835h1.549c0.979,0,1.678-0.125,2.098-0.377c0.422-0.251,0.633-0.655,0.633-1.212
				c0-0.571-0.219-0.972-0.652-1.202c-0.436-0.231-1.074-0.347-1.916-0.347c-0.271,0-0.563,0.004-0.875,0.01
				c-0.313,0.008-0.592,0.024-0.836,0.052V288.835z M445.84,291.26v3.646c0.23,0.028,0.482,0.048,0.754,0.062
				s0.57,0.021,0.896,0.021c0.951,0,1.719-0.136,2.303-0.407s0.875-0.774,0.875-1.508c0-0.652-0.244-1.117-0.732-1.396
				c-0.49-0.278-1.189-0.418-2.1-0.418H445.84z"/>
		</g>
		<rect x="368.715" y="224.209" fill="#EF3B68" width="5.094" height="27.224"/>
		<rect x="494.361" y="224.209" fill="#EF3B68" width="5.092" height="27.224"/>
	</g>
</g>
<g>
	<g>
		<path fill="none" stroke="#6FC498" stroke-width="5" stroke-miterlimit="10" d="M356.062,64.997
			c42.894-42.875,112.296-42.875,155.175,0"/>
		<path fill="none" stroke="#6FC498" stroke-width="5" stroke-miterlimit="10" d="M376.357,85.294
			c31.669-31.659,82.913-31.659,114.597,0"/>
		<path fill="none" stroke="#6FC498" stroke-width="5" stroke-miterlimit="10" d="M400.128,107.159
			c18.52-18.544,48.536-18.544,67.073,0"/>
	</g>
</g>
<g>
	<g>
		<path fill="none" stroke="#6FC498" stroke-width="5" stroke-miterlimit="10" d="M86.062,64.997
			c42.894-42.877,112.299-42.875,155.175,0"/>
		<path fill="none" stroke="#6FC498" stroke-width="5" stroke-miterlimit="10" d="M106.359,85.294
			c31.668-31.659,82.914-31.659,114.596,0"/>
		<path fill="none" stroke="#6FC498" stroke-width="5" stroke-miterlimit="10" d="M130.13,107.16
			c18.519-18.544,48.535-18.544,67.072,0"/>
	</g>
</g>
<g>
	<g>
		<path fill="none" d="M181.37,240.694"/>
	</g>
	<g>
		<path fill="none" d="M106.382,195.703"/>
	</g>
	<g>
		<path fill="none" d="M106.382,240.694"/>
	</g>
	<g>
		<path fill="none" d="M181.37,195.703"/>
	</g>
	<g>
		
			<rect x="94.513" y="151.073" fill="#FFFFFF" stroke="#EF4069" stroke-width="0.8213" stroke-miterlimit="10" width="138.664" height="177.625"/>
		<g>
			<g>
				<g>
					<path fill="#010101" stroke="#FFFFFF" stroke-width="0.3265" stroke-miterlimit="10" d="M163.279,225.23"/>
				</g>
				<g>
					<path fill="#010101" stroke="#FFFFFF" stroke-width="0.3265" stroke-miterlimit="10" d="M163.279,225.23"/>
				</g>
				<g>
					<path fill="#010101" stroke="#FFFFFF" stroke-width="0.3265" stroke-miterlimit="10" d="M163.279,225.23"/>
				</g>
				<g>
					<path fill="#010101" stroke="#FFFFFF" stroke-width="0.3265" stroke-miterlimit="10" d="M163.279,225.23"/>
				</g>
			</g>
			<polyline fill="#3499CD" points="204.095,248.699 183.687,260.944 163.279,273.191 163.279,248.699 163.279,224.213 			"/>
			<polyline fill="#996699" points="204.095,248.699 204.095,224.213 204.095,199.721 183.712,211.969 163.279,224.213 			"/>
			<polyline fill="#F89939" points="163.285,175.234 142.873,187.479 122.462,199.721 142.876,211.969 163.285,224.213 			"/>
			<polyline fill="#EF3B68" points="163.279,175.234 183.683,187.479 204.095,199.721 183.687,211.969 163.279,224.213 			"/>
			<polyline fill="#FFCE0C" points="122.462,248.699 142.876,260.944 163.285,273.191 163.285,248.699 163.285,224.213 			"/>
			<polyline fill="#6FC498" points="122.464,248.699 122.464,224.213 122.464,199.721 142.873,211.969 163.279,224.213 			"/>
			<g>
				<g>
					<g>
						
							<line fill="none" stroke="#FFFFFF" stroke-width="0.9796" stroke-miterlimit="10" x1="163.287" y1="175.234" x2="163.287" y2="176.377"/>
						
							<line fill="none" stroke="#FFFFFF" stroke-width="0.9796" stroke-miterlimit="10" stroke-dasharray="2.2235,2.2235" x1="163.286" y1="178.6" x2="163.279" y2="221.958"/>
						
							<line fill="none" stroke="#FFFFFF" stroke-width="0.9796" stroke-miterlimit="10" x1="163.279" y1="223.07" x2="163.279" y2="224.213"/>
					</g>
				</g>
				<g>
					<g>
						
							<line fill="none" stroke="#FFFFFF" stroke-width="0.9796" stroke-miterlimit="10" x1="163.279" y1="224.213" x2="164.259" y2="224.801"/>
						
							<line fill="none" stroke="#FFFFFF" stroke-width="0.9796" stroke-miterlimit="10" stroke-dasharray="2.3849,2.3849" x1="166.304" y1="226.027" x2="202.093" y2="247.498"/>
						
							<line fill="none" stroke="#FFFFFF" stroke-width="0.9796" stroke-miterlimit="10" x1="203.115" y1="248.111" x2="204.095" y2="248.699"/>
					</g>
				</g>
				<g>
					<g>
						
							<line fill="none" stroke="#FFFFFF" stroke-width="0.9796" stroke-miterlimit="10" x1="163.279" y1="224.213" x2="162.299" y2="224.801"/>
						
							<line fill="none" stroke="#FFFFFF" stroke-width="0.9796" stroke-miterlimit="10" stroke-dasharray="2.3849,2.3849" x1="160.254" y1="226.027" x2="124.465" y2="247.498"/>
						
							<line fill="none" stroke="#FFFFFF" stroke-width="0.9796" stroke-miterlimit="10" x1="123.442" y1="248.111" x2="122.462" y2="248.699"/>
					</g>
				</g>
			</g>
			<g>
				
					<line fill="none" stroke="#FFFFFF" stroke-width="0.9796" stroke-miterlimit="10" x1="163.287" y1="273.191" x2="163.279" y2="224.213"/>
				
					<line fill="none" stroke="#FFFFFF" stroke-width="0.9796" stroke-miterlimit="10" x1="163.279" y1="224.213" x2="204.095" y2="199.721"/>
				
					<line fill="none" stroke="#FFFFFF" stroke-width="0.9796" stroke-miterlimit="10" x1="163.279" y1="224.213" x2="122.462" y2="199.721"/>
			</g>
		</g>
		
			<rect x="102.439" y="333.496" fill="#FFFFFF" stroke="#EF4069" stroke-width="0.8213" stroke-miterlimit="10" width="122.248" height="9.964"/>
		
			<rect x="102.439" y="136.54" fill="#FFFFFF" stroke="#EF4069" stroke-width="0.8213" stroke-miterlimit="10" width="122.248" height="9.962"/>
		
			<line fill="none" stroke="#EF3B68" stroke-width="8.5113" stroke-miterlimit="10" x1="91.816" y1="147.058" x2="235.482" y2="147.058"/>
		
			<line fill="none" stroke="#EF3B68" stroke-width="8.5113" stroke-miterlimit="10" x1="91.816" y1="332.715" x2="235.482" y2="332.715"/>
		<g>
			<path d="M151.898,283.293h3.179v14.12h-3.179v-5.99h-5.338v5.99h-3.179v-14.12h3.179v5.399h5.338V283.293z"/>
			<path d="M163.858,297.698c-0.991,0-1.848-0.14-2.567-0.418s-1.313-0.665-1.782-1.161s-0.815-1.087-1.039-1.772
				c-0.225-0.686-0.337-1.443-0.337-2.272v-8.781h3.179v8.517c0,0.57,0.064,1.057,0.193,1.457s0.306,0.727,0.53,0.978
				c0.224,0.252,0.496,0.432,0.814,0.54c0.319,0.109,0.669,0.163,1.05,0.163c0.774,0,1.402-0.237,1.885-0.713
				c0.481-0.476,0.724-1.283,0.724-2.425v-8.517h3.178v8.781c0,0.829-0.115,1.59-0.346,2.282c-0.231,0.693-0.585,1.287-1.06,1.783
				c-0.476,0.496-1.08,0.879-1.813,1.151C165.733,297.563,164.863,297.698,163.858,297.698z"/>
			<path d="M177.449,297.597c-0.774,0-1.546-0.024-2.313-0.071c-0.768-0.048-1.566-0.16-2.395-0.337v-13.691
				c0.652-0.123,1.365-0.214,2.14-0.275s1.494-0.092,2.159-0.092c0.896,0,1.722,0.064,2.476,0.193
				c0.754,0.13,1.402,0.351,1.946,0.662c0.543,0.313,0.968,0.724,1.273,1.233c0.306,0.509,0.458,1.138,0.458,1.885
				c0,1.127-0.543,2.017-1.63,2.669c0.896,0.34,1.508,0.802,1.834,1.386s0.489,1.242,0.489,1.976c0,1.481-0.54,2.595-1.62,3.342
				S179.581,297.597,177.449,297.597z M175.839,288.835h1.549c0.979,0,1.678-0.125,2.099-0.377c0.421-0.251,0.632-0.655,0.632-1.212
				c0-0.571-0.218-0.972-0.652-1.202c-0.435-0.231-1.073-0.347-1.915-0.347c-0.271,0-0.563,0.004-0.876,0.01
				c-0.313,0.008-0.591,0.024-0.836,0.052V288.835z M175.839,291.26v3.646c0.231,0.028,0.482,0.048,0.754,0.062
				s0.571,0.021,0.896,0.021c0.951,0,1.719-0.136,2.303-0.407s0.876-0.774,0.876-1.508c0-0.652-0.244-1.117-0.733-1.396
				s-1.188-0.418-2.099-0.418H175.839z"/>
		</g>
		<rect x="98.714" y="224.209" fill="#EF3B68" width="5.094" height="27.224"/>
		<rect x="224.361" y="224.209" fill="#EF3B68" width="5.092" height="27.224"/>
	</g>
</g>
<g>
	<polyline fill="none" stroke="#996699" stroke-width="6.125" stroke-linecap="square" points="286.578,314.235 286.578,284.203 
		315.74,284.203 315.74,314.235 	"/>
	<path fill="#996699" stroke="#996699" stroke-width="6.125" stroke-linecap="square" d="M283.418,312.18
		c1.94,0,3.513,1.572,3.513,3.513c0,1.941-1.572,3.511-3.513,3.511c-1.936,0-3.508-1.569-3.508-3.511
		C279.91,313.752,281.482,312.18,283.418,312.18z"/>
	<circle fill="#996699" stroke="#996699" stroke-width="6.125" stroke-linecap="square" cx="312.579" cy="315.691" r="3.512"/>
</g>
</svg>
