<?xml version="1.0" encoding="UTF-8" standalone="no"?>
<!-- Generator: Adobe Illustrator 16.0.0, SVG Export Plug-In . SVG Version: 6.00 Build 0)  -->

<svg
   xmlns:dc="http://purl.org/dc/elements/1.1/"
   xmlns:cc="http://creativecommons.org/ns#"
   xmlns:rdf="http://www.w3.org/1999/02/22-rdf-syntax-ns#"
   xmlns:svg="http://www.w3.org/2000/svg"
   xmlns="http://www.w3.org/2000/svg"
   xmlns:sodipodi="http://sodipodi.sourceforge.net/DTD/sodipodi-0.dtd"
   xmlns:inkscape="http://www.inkscape.org/namespaces/inkscape"
   version="1.1"
   id="Layer_1"
   x="0px"
   y="0px"
   width="400"
   height="400"
   viewBox="0 0 399.99999 400"
   enable-background="new 0 0 333.333 400"
   xml:space="preserve"
   inkscape:version="0.48.4 r9939"
   sodipodi:docname="hubshortcut.svg"
   inkscape:export-filename="/home/efforia/Develop/store/store/public/img/hubshortcut.png"
   inkscape:export-xdpi="90"
   inkscape:export-ydpi="90"><metadata
     id="metadata21"><rdf:RDF><cc:Work
         rdf:about=""><dc:format>image/svg+xml</dc:format><dc:type
           rdf:resource="http://purl.org/dc/dcmitype/StillImage" /><dc:title></dc:title></cc:Work></rdf:RDF></metadata><defs
     id="defs19" /><sodipodi:namedview
     pagecolor="#ffffff"
     bordercolor="#666666"
     borderopacity="1"
     objecttolerance="10"
     gridtolerance="10"
     guidetolerance="10"
     inkscape:pageopacity="0"
     inkscape:pageshadow="2"
     inkscape:window-width="840"
     inkscape:window-height="998"
     id="namedview17"
     showgrid="false"
     inkscape:snap-global="true"
     inkscape:zoom="0.59"
     inkscape:cx="137.00549"
     inkscape:cy="200"
     inkscape:window-x="840"
     inkscape:window-y="24"
     inkscape:window-maximized="0"
     inkscape:current-layer="Layer_1" /><g
     id="g3"
     transform="translate(33.333495,0)"><polygon
       points="166.673,400 166.673,300 166.673,200 250.022,250 333.333,300 250.004,350 "
       id="polygon5"
       style="fill:#3399cc" /><polygon
       points="333.333,300 333.333,200 333.333,100 250.094,150 166.673,200 250.002,250 "
       id="polygon7"
       style="fill:#996699" /><polygon
       points="166.689,200 166.689,100 166.689,0 83.342,50 0,100 83.344,150 "
       id="polygon9"
       style="fill:#f89839" /><polygon
       points="166.673,200 166.673,100 166.673,0 249.998,50 333.333,100 250.004,150 "
       id="polygon11"
       style="fill:#ee3968" /><polygon
       points="166.689,400 166.689,300 166.689,200 83.342,250 0,300 83.344,350 "
       id="polygon13"
       style="fill:#ffce09" /><polygon
       points="0.016,300 0.016,200 0.016,100 83.339,150 166.673,200 83.346,250 "
       id="polygon15"
       style="fill:#6ec498" /></g></svg>