<?xml version="1.0" encoding="utf-8"?>
<!-- Generator: Adobe Illustrator 19.1.0, SVG Export Plug-In . SVG Version: 6.00 Build 0)  -->
<svg version="1.1" id="Layer_1" xmlns="http://www.w3.org/2000/svg" xmlns:xlink="http://www.w3.org/1999/xlink" x="0px" y="0px"
	 viewBox="314 181 1964 432" style="enable-background:new 314 181 1964 432;" xml:space="preserve">
<style type="text/css">
	.st0{fill:none;stroke:#000000;stroke-width:4;stroke-miterlimit:10;}
	.st1{fill:none;stroke:#000000;stroke-width:4;stroke-linejoin:round;stroke-miterlimit:10;}
	.st2{fill:none;stroke:#000000;stroke-width:4;stroke-miterlimit:10;stroke-dasharray:9.8002,9.8002;}
	.st3{fill:none;stroke:#000000;stroke-width:4;stroke-miterlimit:10;stroke-dasharray:10.5114,10.5114;}
	.st4{fill:none;stroke:#000000;stroke-width:4;}
</style>
<g>
	<path class="st0" d="M926.2,257.2h62.4v277.2h-62.4V416.8H821.4v117.6H759V257.2h62.4v106h104.8V257.2z"/>
	<path class="st0" d="M1161,540c-19.5,0-36.3-2.7-50.4-8.2c-14.1-5.5-25.8-13.1-35-22.8c-9.2-9.7-16-21.3-20.4-34.8
		c-4.4-13.5-6.6-28.3-6.6-44.6V257.2h62.4v167.2c0,11.2,1.3,20.7,3.8,28.6c2.5,7.9,6,14.3,10.4,19.2c4.4,4.9,9.7,8.5,16,10.6
		c6.3,2.1,13.1,3.2,20.6,3.2c15.2,0,27.5-4.7,37-14c9.5-9.3,14.2-25.2,14.2-47.6V257.2h62.4v172.4c0,16.3-2.3,31.2-6.8,44.8
		c-4.5,13.6-11.5,25.3-20.8,35c-9.3,9.7-21.2,17.3-35.6,22.6C1197.8,537.3,1180.7,540,1161,540z"/>
	<path class="st0" d="M1427.8,538c-15.2,0-30.3-0.5-45.4-1.4c-15.1-0.9-30.7-3.1-47-6.6V261.2c12.8-2.4,26.8-4.2,42-5.4
		s29.3-1.8,42.4-1.8c17.6,0,33.8,1.3,48.6,3.8c14.8,2.5,27.5,6.9,38.2,13c10.7,6.1,19,14.2,25,24.2c6,10,9,22.3,9,37
		c0,22.1-10.7,39.6-32,52.4c17.6,6.7,29.6,15.7,36,27.2c6.4,11.5,9.6,24.4,9.6,38.8c0,29.1-10.6,50.9-31.8,65.6
		C1501.2,530.7,1469.7,538,1427.8,538z M1396.2,366h30.4c19.2,0,32.9-2.5,41.2-7.4c8.3-4.9,12.4-12.9,12.4-23.8
		c0-11.2-4.3-19.1-12.8-23.6c-8.5-4.5-21.1-6.8-37.6-6.8c-5.3,0-11.1,0.1-17.2,0.2c-6.1,0.1-11.6,0.5-16.4,1L1396.2,366L1396.2,366z
		 M1396.2,413.6v71.6c4.5,0.5,9.5,0.9,14.8,1.2c5.3,0.3,11.2,0.4,17.6,0.4c18.7,0,33.7-2.7,45.2-8c11.5-5.3,17.2-15.2,17.2-29.6
		c0-12.8-4.8-21.9-14.4-27.4c-9.6-5.5-23.3-8.2-41.2-8.2H1396.2z"/>
</g>
<g>
	<polyline id="polyline11" class="st1" points="674,504.6 583.8,558.5 494,612.8 494,504.6 494,396.9 	"/>
	<polyline id="polyline13" class="st1" points="674,504.6 674,396.9 674,288.7 584.2,342.6 494,396.9 	"/>
	<polyline id="polyline15" class="st1" points="494,181 404.2,234.8 314,288.7 404.2,342.6 494,396.9 	"/>
	<polyline id="polyline17" class="st1" points="494,181 583.8,234.8 674,288.7 583.8,342.6 494,396.9 	"/>
	<polyline id="polyline19" class="st1" points="314,504.6 404.2,558.5 494,612.8 494,504.6 494,396.9 	"/>
	<polyline id="polyline21" class="st1" points="314,504.6 314,396.9 314,288.7 404.2,342.6 494,396.9 	"/>
	<g id="g23">
		<g id="g25">
			<g id="g27">
				<line id="line29" class="st0" x1="494" y1="181" x2="494" y2="185.7"/>
				<line id="line31" class="st2" x1="494" y1="195.7" x2="494" y2="386.9"/>
				<line id="line33" class="st0" x1="494" y1="391.7" x2="494" y2="396.9"/>
			</g>
		</g>
		<g id="g35">
			<g id="g37">
				<line id="line39" class="st0" x1="494" y1="396.9" x2="498.4" y2="399.3"/>
				<line id="line41" class="st3" x1="507.2" y1="404.9" x2="665.2" y2="499.4"/>
				<line id="line43" class="st0" x1="669.6" y1="502.2" x2="674" y2="504.6"/>
			</g>
		</g>
		<g id="g45">
			<g id="g47">
				<line id="line49" class="st0" x1="494" y1="396.9" x2="489.6" y2="399.3"/>
				<line id="line51" class="st3" x1="480.4" y1="404.9" x2="322.8" y2="499.4"/>
				<line id="line53" class="st0" x1="318.4" y1="502.2" x2="314" y2="504.6"/>
			</g>
		</g>
	</g>
	<g id="g55">
		<line id="line57" class="st0" x1="494" y1="612.8" x2="494" y2="396.9"/>
		<line id="line59" class="st0" x1="494" y1="396.9" x2="674" y2="288.7"/>
		<line id="line61" class="st0" x1="494" y1="396.9" x2="314" y2="288.7"/>
	</g>
</g>
<g>
	<path class="st4" d="M1723.8,254c41.3,0,73.1,7.3,95.2,21.8c22.1,14.5,33.2,38.3,33.2,71.4c0,33.3-11.2,57.4-33.6,72.2
		s-54.4,22.2-96,22.2H1703v92.8h-62.4V261.2c13.6-2.7,28-4.5,43.2-5.6C1699,254.5,1712.3,254,1723.8,254z M1727.8,307.2
		c-4.5,0-9,0.1-13.4,0.4c-4.4,0.3-8.2,0.5-11.4,0.8v80h19.6c21.6,0,37.9-2.9,48.8-8.8c10.9-5.9,16.4-16.8,16.4-32.8
		c0-7.7-1.4-14.1-4.2-19.2c-2.8-5.1-6.8-9.1-12-12.2c-5.2-3.1-11.5-5.2-19-6.4C1745.1,307.8,1736.8,307.2,1727.8,307.2z"/>
	<path class="st4" d="M2021,376.8c-5.3-1.3-11.6-2.7-18.8-4.2c-7.2-1.5-14.9-2.2-23.2-2.2c-3.7,0-8.2,0.3-13.4,1
		c-5.2,0.7-9.1,1.4-11.8,2.2v160.8h-59.6V335.2c10.7-3.7,23.3-7.3,37.8-10.6c14.5-3.3,30.7-5,48.6-5c3.2,0,7.1,0.2,11.6,0.6
		c4.5,0.4,9.1,0.9,13.6,1.6c4.5,0.7,9.1,1.5,13.6,2.4c4.5,0.9,8.4,2.1,11.6,3.4L2021,376.8z"/>
	<path class="st4" d="M2255.8,428.8c0,16.5-2.4,31.7-7.2,45.4c-4.8,13.7-11.7,25.5-20.8,35.2c-9.1,9.7-19.9,17.3-32.6,22.6
		c-12.7,5.3-26.9,8-42.6,8c-15.5,0-29.5-2.7-42.2-8c-12.7-5.3-23.5-12.9-32.6-22.6c-9.1-9.7-16.1-21.5-21.2-35.2
		c-5.1-13.7-7.6-28.9-7.6-45.4c0-16.5,2.6-31.6,7.8-45.2c5.2-13.6,12.4-25.2,21.6-34.8c9.2-9.6,20.1-17.1,32.8-22.4
		c12.7-5.3,26.5-8,41.4-8c15.2,0,29.1,2.7,41.8,8c12.7,5.3,23.5,12.8,32.6,22.4c9.1,9.6,16.1,21.2,21.2,34.8
		C2253.2,397.2,2255.8,412.3,2255.8,428.8z M2195,428.8c0-18.4-3.7-32.9-11-43.4c-7.3-10.5-17.8-15.8-31.4-15.8
		c-13.6,0-24.1,5.3-31.6,15.8c-7.5,10.5-11.2,25-11.2,43.4c0,18.4,3.7,33,11.2,43.8c7.5,10.8,18,16.2,31.6,16.2
		c13.6,0,24.1-5.4,31.4-16.2C2191.3,461.8,2195,447.2,2195,428.8z"/>
</g>
</svg>
