<?xml version="1.0" encoding="utf-8"?>
<!-- Generator: Adobe Illustrator 19.1.0, SVG Export Plug-In . SVG Version: 6.00 Build 0)  -->
<svg version="1.1" id="Layer_1" xmlns="http://www.w3.org/2000/svg" xmlns:xlink="http://www.w3.org/1999/xlink" x="0px" y="0px"
	 viewBox="314 181 1240.2 432" style="enable-background:new 314 181 1240.2 432;" xml:space="preserve">
<style type="text/css">
	.st0{fill:#3399CC;}
	.st1{fill:#996699;}
	.st2{fill:#F89839;}
	.st3{fill:#EE3968;}
	.st4{fill:#FFCE09;}
	.st5{fill:#6EC498;}
	.st6{fill:#FFFFFF;}
</style>
<g>
	<g>
		<polygon class="st0" points="494,397 584,451 674,505 584,559 494,613 494,505 		"/>
		<polygon class="st1" points="674,289 584.1,343 494,397 584,451 674,505 674,397 		"/>
		<polygon class="st2" points="494,181 404,235 314,289 404,343 494,397 494,289 		"/>
		<polygon class="st3" points="494,181 584,235 674,289 584,343 494,397 494,289 		"/>
		<polygon class="st4" points="494,397 404,451 314,505 404,559 494,613 494,505 		"/>
		<polygon class="st5" points="314,289 404,343 494,397 404,451 314,505 314,397 		"/>
	</g>
	<g>
		<path class="st6" d="M926.2,258.3h62.4v277.2h-62.4V417.9H821.4v117.6H759V258.3h62.4v106h104.8V258.3z"/>
		<path class="st6" d="M1161,541.1c-19.5,0-36.3-2.7-50.4-8.2c-14.1-5.5-25.8-13.1-35-22.8c-9.2-9.7-16-21.3-20.4-34.8
			c-4.4-13.5-6.6-28.3-6.6-44.6V258.3h62.4v167.2c0,11.2,1.3,20.7,3.8,28.6c2.5,7.9,6,14.3,10.4,19.2c4.4,4.9,9.7,8.5,16,10.6
			c6.3,2.1,13.1,3.2,20.6,3.2c15.2,0,27.5-4.7,37-14c9.5-9.3,14.2-25.2,14.2-47.6V258.3h62.4v172.4c0,16.3-2.3,31.2-6.8,44.8
			c-4.5,13.6-11.5,25.3-20.8,35c-9.3,9.7-21.2,17.3-35.6,22.6C1197.8,538.4,1180.7,541.1,1161,541.1z"/>
		<path class="st6" d="M1427.8,539.1c-15.2,0-30.3-0.5-45.4-1.4c-15.1-0.9-30.7-3.1-47-6.6V262.3c12.8-2.4,26.8-4.2,42-5.4
			c15.2-1.2,29.3-1.8,42.4-1.8c17.6,0,33.8,1.3,48.6,3.8c14.8,2.5,27.5,6.9,38.2,13c10.7,6.1,19,14.2,25,24.2c6,10,9,22.3,9,37
			c0,22.1-10.7,39.6-32,52.4c17.6,6.7,29.6,15.7,36,27.2c6.4,11.5,9.6,24.4,9.6,38.8c0,29.1-10.6,50.9-31.8,65.6
			C1501.2,531.7,1469.7,539.1,1427.8,539.1z M1396.2,367.1h30.4c19.2,0,32.9-2.5,41.2-7.4c8.3-4.9,12.4-12.9,12.4-23.8
			c0-11.2-4.3-19.1-12.8-23.6c-8.5-4.5-21.1-6.8-37.6-6.8c-5.3,0-11.1,0.1-17.2,0.2c-6.1,0.1-11.6,0.5-16.4,1L1396.2,367.1
			L1396.2,367.1z M1396.2,414.7v71.6c4.5,0.5,9.5,0.9,14.8,1.2c5.3,0.3,11.2,0.4,17.6,0.4c18.7,0,33.7-2.7,45.2-8
			c11.5-5.3,17.2-15.2,17.2-29.6c0-12.8-4.8-21.9-14.4-27.4c-9.6-5.5-23.3-8.2-41.2-8.2H1396.2z"/>
	</g>
</g>
</svg>
