<?xml version="1.0" encoding="utf-8"?>
<!-- Generator: Adobe Illustrator 16.0.0, SVG Export Plug-In . SVG Version: 6.00 Build 0)  -->
<!DOCTYPE svg PUBLIC "-//W3C//DTD SVG 1.1//EN" "http://www.w3.org/Graphics/SVG/1.1/DTD/svg11.dtd">
<svg version="1.1" id="Layer_1" xmlns="http://www.w3.org/2000/svg" xmlns:xlink="http://www.w3.org/1999/xlink" x="0px" y="0px"
	 width="700px" height="430px" viewBox="0 0 700 430" enable-background="new 0 0 700 430" xml:space="preserve">
<g>
	<g>
		<line fill="none" stroke="#EF3B68" stroke-width="5" stroke-miterlimit="10" x1="616.222" y1="430" x2="616.222" y2="373.367"/>
	</g>
	<g>
		<polygon fill="#EF3B68" points="612.979,379.811 609.979,371.84 622.464,371.84 619.464,379.811 		"/>
		<polygon fill="#EF3B68" stroke="#A61E2E" stroke-width="0.869" stroke-miterlimit="10" points="608.979,358.412 623.464,358.412 
			623.464,369.811 622.464,371.84 609.979,371.84 608.979,369.811 		"/>
		<path fill="#FFCE0C" stroke="#F89939" stroke-width="0.869" stroke-miterlimit="10" d="M608.979,369.924"/>
		
			<line fill="none" stroke="#A61E2E" stroke-width="0.8801" stroke-miterlimit="10" x1="622.464" y1="373.299" x2="609.964" y2="373.299"/>
		
			<line fill="none" stroke="#A61E2E" stroke-width="0.903" stroke-miterlimit="10" x1="621.714" y1="374.799" x2="610.714" y2="374.799"/>
		
			<line fill="none" stroke="#A61E2E" stroke-width="0.9361" stroke-miterlimit="10" x1="620.964" y1="376.299" x2="611.464" y2="376.299"/>
		
			<line fill="none" stroke="#A61E2E" stroke-width="0.8854" stroke-miterlimit="10" x1="620.464" y1="377.799" x2="611.964" y2="377.799"/>
		<rect x="612.591" y="378.979" fill="#A61E2E" width="7.186" height="3.486"/>
	</g>
</g>
<g>
	<g>
		<line fill="none" stroke="#EF3B68" stroke-width="5" stroke-miterlimit="10" x1="486.184" y1="430" x2="486.184" y2="373.367"/>
	</g>
	<g>
		<polygon fill="#EF3B68" points="482.941,379.811 479.941,371.84 492.426,371.84 489.426,379.811 		"/>
		<polygon fill="#EF3B68" stroke="#A61E2E" stroke-width="0.869" stroke-miterlimit="10" points="478.941,358.412 493.426,358.412 
			493.426,369.811 492.426,371.84 479.941,371.84 478.941,369.811 		"/>
		<path fill="#FFCE0C" stroke="#F89939" stroke-width="0.869" stroke-miterlimit="10" d="M478.941,369.924"/>
		
			<line fill="none" stroke="#A61E2E" stroke-width="0.8801" stroke-miterlimit="10" x1="492.426" y1="373.299" x2="479.926" y2="373.299"/>
		
			<line fill="none" stroke="#A61E2E" stroke-width="0.903" stroke-miterlimit="10" x1="491.676" y1="374.799" x2="480.676" y2="374.799"/>
		
			<line fill="none" stroke="#A61E2E" stroke-width="0.9361" stroke-miterlimit="10" x1="490.926" y1="376.299" x2="481.426" y2="376.299"/>
		
			<line fill="none" stroke="#A61E2E" stroke-width="0.8854" stroke-miterlimit="10" x1="490.426" y1="377.799" x2="481.926" y2="377.799"/>
		<rect x="482.553" y="378.979" fill="#A61E2E" width="7.186" height="3.486"/>
	</g>
</g>
<g>
	<g>
		<line fill="none" stroke="#EF3B68" stroke-width="5" stroke-miterlimit="10" x1="356.222" y1="430" x2="356.222" y2="373.367"/>
	</g>
	<g>
		<polygon fill="#EF3B68" points="352.98,379.811 349.98,371.84 362.464,371.84 359.464,379.811 		"/>
		<polygon fill="#EF3B68" stroke="#A61E2E" stroke-width="0.869" stroke-miterlimit="10" points="348.98,358.412 363.464,358.412 
			363.464,369.811 362.464,371.84 349.98,371.84 348.98,369.811 		"/>
		<path fill="#FFCE0C" stroke="#F89939" stroke-width="0.869" stroke-miterlimit="10" d="M348.98,369.924"/>
		
			<line fill="none" stroke="#A61E2E" stroke-width="0.8801" stroke-miterlimit="10" x1="362.464" y1="373.299" x2="349.964" y2="373.299"/>
		
			<line fill="none" stroke="#A61E2E" stroke-width="0.903" stroke-miterlimit="10" x1="361.714" y1="374.799" x2="350.714" y2="374.799"/>
		
			<line fill="none" stroke="#A61E2E" stroke-width="0.9361" stroke-miterlimit="10" x1="360.964" y1="376.299" x2="351.464" y2="376.299"/>
		
			<line fill="none" stroke="#A61E2E" stroke-width="0.8854" stroke-miterlimit="10" x1="360.464" y1="377.799" x2="351.964" y2="377.799"/>
		<rect x="352.591" y="378.979" fill="#A61E2E" width="7.185" height="3.486"/>
	</g>
</g>
<g>
	<g>
		<line fill="none" stroke="#EF3B68" stroke-width="5" stroke-miterlimit="10" x1="226.184" y1="430" x2="226.184" y2="373.367"/>
	</g>
	<g>
		<polygon fill="#EF3B68" points="222.942,379.811 219.942,371.84 232.426,371.84 229.426,379.811 		"/>
		<polygon fill="#EF3B68" stroke="#A61E2E" stroke-width="0.869" stroke-miterlimit="10" points="218.942,358.412 233.426,358.412 
			233.426,369.811 232.426,371.84 219.942,371.84 218.942,369.811 		"/>
		<path fill="#FFCE0C" stroke="#F89939" stroke-width="0.869" stroke-miterlimit="10" d="M218.942,369.924"/>
		
			<line fill="none" stroke="#A61E2E" stroke-width="0.8801" stroke-miterlimit="10" x1="232.426" y1="373.299" x2="219.926" y2="373.299"/>
		
			<line fill="none" stroke="#A61E2E" stroke-width="0.903" stroke-miterlimit="10" x1="231.676" y1="374.799" x2="220.676" y2="374.799"/>
		
			<line fill="none" stroke="#A61E2E" stroke-width="0.9361" stroke-miterlimit="10" x1="230.926" y1="376.299" x2="221.426" y2="376.299"/>
		
			<line fill="none" stroke="#A61E2E" stroke-width="0.8854" stroke-miterlimit="10" x1="230.426" y1="377.799" x2="221.926" y2="377.799"/>
		<rect x="222.553" y="378.979" fill="#A61E2E" width="7.186" height="3.486"/>
	</g>
</g>
<g>
	<g>
		<line fill="none" stroke="#EF3B68" stroke-width="5" stroke-miterlimit="10" x1="96.222" y1="430" x2="96.222" y2="373.367"/>
	</g>
	<g>
		<polygon fill="#EF3B68" points="92.98,379.811 89.98,371.84 102.464,371.84 99.464,379.811 		"/>
		<polygon fill="#EF3B68" stroke="#A61E2E" stroke-width="0.869" stroke-miterlimit="10" points="88.98,358.412 103.464,358.412 
			103.464,369.811 102.464,371.84 89.98,371.84 88.98,369.811 		"/>
		<path fill="#FFCE0C" stroke="#F89939" stroke-width="0.869" stroke-miterlimit="10" d="M88.98,369.924"/>
		
			<line fill="none" stroke="#A61E2E" stroke-width="0.8801" stroke-miterlimit="10" x1="102.464" y1="373.299" x2="89.964" y2="373.299"/>
		
			<line fill="none" stroke="#A61E2E" stroke-width="0.903" stroke-miterlimit="10" x1="101.714" y1="374.799" x2="90.714" y2="374.799"/>
		
			<line fill="none" stroke="#A61E2E" stroke-width="0.9361" stroke-miterlimit="10" x1="100.964" y1="376.299" x2="91.464" y2="376.299"/>
		
			<line fill="none" stroke="#A61E2E" stroke-width="0.8854" stroke-miterlimit="10" x1="100.464" y1="377.799" x2="91.964" y2="377.799"/>
		<rect x="92.591" y="378.979" fill="#A61E2E" width="7.186" height="3.486"/>
	</g>
</g>
<g>
	
		<rect x="57.998" y="255.134" fill="#FFFFFF" stroke="#000000" stroke-width="0.4404" stroke-miterlimit="10" width="77.064" height="98.72"/>
	<g>
		<g>
			<g>
				<path fill="#010101" stroke="#FFFFFF" stroke-width="0.1815" stroke-miterlimit="10" d="M96.216,296.35"/>
			</g>
			<g>
				<path fill="#010101" stroke="#FFFFFF" stroke-width="0.1815" stroke-miterlimit="10" d="M96.216,296.35"/>
			</g>
			<g>
				<path fill="#010101" stroke="#FFFFFF" stroke-width="0.1815" stroke-miterlimit="10" d="M96.216,296.35"/>
			</g>
			<g>
				<path fill="#010101" stroke="#FFFFFF" stroke-width="0.1815" stroke-miterlimit="10" d="M96.216,296.35"/>
			</g>
		</g>
		<polyline fill="#3499CD" points="118.901,309.393 107.56,316.197 96.218,323.002 96.218,309.393 96.218,295.782 		"/>
		<polyline fill="#996699" points="118.901,309.393 118.901,295.782 118.901,282.172 107.572,288.977 96.218,295.782 		"/>
		<polyline fill="#F89939" points="96.22,268.561 84.875,275.366 73.533,282.172 84.877,288.977 96.22,295.782 		"/>
		<polyline fill="#EF3B68" points="96.218,268.561 107.559,275.366 118.901,282.172 107.56,288.977 96.218,295.782 		"/>
		<polyline fill="#FFCE0C" points="73.533,309.393 84.877,316.197 96.22,323.002 96.22,309.393 96.22,295.782 		"/>
		<polyline fill="#6FC498" points="73.534,309.393 73.534,295.782 73.534,282.172 84.875,288.977 96.218,295.782 		"/>
		<g>
			<g>
				<g>
					
						<line fill="none" stroke="#FFFFFF" stroke-width="0.5444" stroke-miterlimit="10" x1="96.222" y1="268.561" x2="96.222" y2="269.195"/>
					
						<line fill="none" stroke="#FFFFFF" stroke-width="0.5444" stroke-miterlimit="10" stroke-dasharray="1.2358,1.2358" x1="96.221" y1="270.432" x2="96.216" y2="294.529"/>
					
						<line fill="none" stroke="#FFFFFF" stroke-width="0.5444" stroke-miterlimit="10" x1="96.216" y1="295.146" x2="96.216" y2="295.782"/>
				</g>
			</g>
			<g>
				<g>
					
						<line fill="none" stroke="#FFFFFF" stroke-width="0.5444" stroke-miterlimit="10" x1="96.216" y1="295.782" x2="96.76" y2="296.109"/>
					
						<line fill="none" stroke="#FFFFFF" stroke-width="0.5444" stroke-miterlimit="10" stroke-dasharray="1.3255,1.3255" x1="97.897" y1="296.791" x2="117.789" y2="308.725"/>
					
						<line fill="none" stroke="#FFFFFF" stroke-width="0.5444" stroke-miterlimit="10" x1="118.357" y1="309.066" x2="118.901" y2="309.393"/>
				</g>
			</g>
			<g>
				<g>
					
						<line fill="none" stroke="#FFFFFF" stroke-width="0.5444" stroke-miterlimit="10" x1="96.216" y1="295.782" x2="95.671" y2="296.109"/>
					
						<line fill="none" stroke="#FFFFFF" stroke-width="0.5444" stroke-miterlimit="10" stroke-dasharray="1.3254,1.3254" x1="94.535" y1="296.791" x2="74.646" y2="308.725"/>
					
						<line fill="none" stroke="#FFFFFF" stroke-width="0.5444" stroke-miterlimit="10" x1="74.078" y1="309.066" x2="73.533" y2="309.393"/>
				</g>
			</g>
		</g>
		<g>
			
				<line fill="none" stroke="#FFFFFF" stroke-width="0.5444" stroke-miterlimit="10" x1="96.222" y1="323.002" x2="96.216" y2="295.782"/>
			
				<line fill="none" stroke="#FFFFFF" stroke-width="0.5444" stroke-miterlimit="10" x1="96.216" y1="295.782" x2="118.901" y2="282.172"/>
			
				<line fill="none" stroke="#FFFFFF" stroke-width="0.5444" stroke-miterlimit="10" x1="96.216" y1="295.782" x2="73.533" y2="282.172"/>
		</g>
	</g>
	
		<rect x="62.403" y="356.52" fill="#FFFFFF" stroke="#000000" stroke-width="0.4404" stroke-miterlimit="10" width="67.942" height="5.537"/>
	
		<rect x="62.403" y="247.057" fill="#FFFFFF" stroke="#000000" stroke-width="0.4404" stroke-miterlimit="10" width="67.942" height="5.536"/>
	
		<line fill="none" stroke="#000000" stroke-width="4.4148" stroke-miterlimit="10" x1="56.5" y1="252.903" x2="136.346" y2="252.903"/>
	
		<line fill="none" stroke="#000000" stroke-width="4.4148" stroke-miterlimit="10" x1="56.5" y1="356.085" x2="136.346" y2="356.085"/>
	<g>
		<path d="M89.894,328.615h1.766v7.848h-1.766v-3.33h-2.967v3.33H85.16v-7.848h1.767v3h2.967V328.615z"/>
		<path d="M96.54,336.621c-0.551,0-1.026-0.078-1.427-0.232s-0.73-0.369-0.991-0.646c-0.26-0.275-0.452-0.604-0.577-0.985
			c-0.125-0.381-0.187-0.802-0.187-1.262v-4.881h1.767v4.732c0,0.318,0.035,0.588,0.107,0.811c0.071,0.223,0.17,0.404,0.294,0.543
			c0.125,0.141,0.275,0.24,0.453,0.301s0.372,0.09,0.583,0.09c0.431,0,0.779-0.131,1.048-0.396c0.268-0.264,0.401-0.713,0.401-1.348
			v-4.732h1.767v4.881c0,0.46-0.063,0.883-0.192,1.268c-0.128,0.385-0.324,0.715-0.589,0.991c-0.264,0.275-0.6,0.489-1.008,0.64
			C97.582,336.545,97.099,336.621,96.54,336.621z"/>
		<path d="M104.093,336.564c-0.43,0-0.858-0.014-1.285-0.039c-0.427-0.027-0.87-0.09-1.33-0.188v-7.609
			c0.362-0.068,0.759-0.119,1.188-0.153c0.431-0.034,0.83-0.051,1.2-0.051c0.499,0,0.957,0.036,1.376,0.107s0.779,0.194,1.082,0.368
			c0.302,0.174,0.537,0.402,0.707,0.686s0.255,0.632,0.255,1.047c0,0.627-0.302,1.121-0.905,1.483
			c0.498,0.188,0.838,0.446,1.019,0.771c0.182,0.324,0.271,0.69,0.271,1.098c0,0.823-0.3,1.442-0.899,1.857
			C106.171,336.357,105.278,336.564,104.093,336.564z M103.198,333.043v2.026c0.129,0.016,0.268,0.026,0.419,0.034
			s0.317,0.012,0.498,0.012c0.528,0,0.955-0.076,1.28-0.227c0.324-0.151,0.486-0.431,0.486-0.838c0-0.363-0.136-0.621-0.407-0.775
			c-0.271-0.155-0.661-0.232-1.166-0.232H103.198z M103.198,331.695h0.86c0.544,0,0.933-0.07,1.167-0.209
			c0.233-0.141,0.351-0.365,0.351-0.674c0-0.318-0.121-0.541-0.362-0.669s-0.597-0.192-1.064-0.192
			c-0.151,0-0.313,0.002-0.486,0.006c-0.174,0.004-0.329,0.014-0.465,0.028V331.695z"/>
	</g>
	<rect x="60.333" y="295.78" width="2.831" height="15.13"/>
	<rect x="130.163" y="295.78" width="2.831" height="15.13"/>
</g>
<g>
	
		<rect x="188.037" y="255.134" fill="#FFFFFF" stroke="#000000" stroke-width="0.4404" stroke-miterlimit="10" width="77.064" height="98.72"/>
	<g>
		<g>
			<g>
				<path fill="#010101" stroke="#FFFFFF" stroke-width="0.1815" stroke-miterlimit="10" d="M226.254,296.35"/>
			</g>
			<g>
				<path fill="#010101" stroke="#FFFFFF" stroke-width="0.1815" stroke-miterlimit="10" d="M226.254,296.35"/>
			</g>
			<g>
				<path fill="#010101" stroke="#FFFFFF" stroke-width="0.1815" stroke-miterlimit="10" d="M226.254,296.35"/>
			</g>
			<g>
				<path fill="#010101" stroke="#FFFFFF" stroke-width="0.1815" stroke-miterlimit="10" d="M226.254,296.35"/>
			</g>
		</g>
		<polyline fill="#3499CD" points="248.94,309.393 237.598,316.197 226.256,323.002 226.256,309.393 226.256,295.782 		"/>
		<polyline fill="#996699" points="248.94,309.393 248.94,295.782 248.94,282.172 237.611,288.977 226.256,295.782 		"/>
		<polyline fill="#F89939" points="226.258,268.561 214.914,275.366 203.572,282.172 214.916,288.977 226.258,295.782 		"/>
		<polyline fill="#EF3B68" points="226.256,268.561 237.597,275.366 248.94,282.172 237.598,288.977 226.256,295.782 		"/>
		<polyline fill="#FFCE0C" points="203.572,309.393 214.916,316.197 226.258,323.002 226.258,309.393 226.258,295.782 		"/>
		<polyline fill="#6FC498" points="203.573,309.393 203.573,295.782 203.573,282.172 214.914,288.977 226.256,295.782 		"/>
		<g>
			<g>
				<g>
					
						<line fill="none" stroke="#FFFFFF" stroke-width="0.5444" stroke-miterlimit="10" x1="226.26" y1="268.561" x2="226.26" y2="269.195"/>
					
						<line fill="none" stroke="#FFFFFF" stroke-width="0.5444" stroke-miterlimit="10" stroke-dasharray="1.2358,1.2358" x1="226.26" y1="270.432" x2="226.255" y2="294.529"/>
					
						<line fill="none" stroke="#FFFFFF" stroke-width="0.5444" stroke-miterlimit="10" x1="226.254" y1="295.146" x2="226.254" y2="295.782"/>
				</g>
			</g>
			<g>
				<g>
					
						<line fill="none" stroke="#FFFFFF" stroke-width="0.5444" stroke-miterlimit="10" x1="226.254" y1="295.782" x2="226.799" y2="296.109"/>
					
						<line fill="none" stroke="#FFFFFF" stroke-width="0.5444" stroke-miterlimit="10" stroke-dasharray="1.3255,1.3255" x1="227.936" y1="296.791" x2="247.827" y2="308.725"/>
					
						<line fill="none" stroke="#FFFFFF" stroke-width="0.5444" stroke-miterlimit="10" x1="248.396" y1="309.066" x2="248.94" y2="309.393"/>
				</g>
			</g>
			<g>
				<g>
					
						<line fill="none" stroke="#FFFFFF" stroke-width="0.5444" stroke-miterlimit="10" x1="226.254" y1="295.782" x2="225.71" y2="296.109"/>
					
						<line fill="none" stroke="#FFFFFF" stroke-width="0.5444" stroke-miterlimit="10" stroke-dasharray="1.3254,1.3254" x1="224.573" y1="296.791" x2="204.685" y2="308.725"/>
					
						<line fill="none" stroke="#FFFFFF" stroke-width="0.5444" stroke-miterlimit="10" x1="204.116" y1="309.066" x2="203.572" y2="309.393"/>
				</g>
			</g>
		</g>
		<g>
			
				<line fill="none" stroke="#FFFFFF" stroke-width="0.5444" stroke-miterlimit="10" x1="226.26" y1="323.002" x2="226.254" y2="295.782"/>
			
				<line fill="none" stroke="#FFFFFF" stroke-width="0.5444" stroke-miterlimit="10" x1="226.254" y1="295.782" x2="248.94" y2="282.172"/>
			
				<line fill="none" stroke="#FFFFFF" stroke-width="0.5444" stroke-miterlimit="10" x1="226.254" y1="295.782" x2="203.572" y2="282.172"/>
		</g>
	</g>
	
		<rect x="192.442" y="356.52" fill="#FFFFFF" stroke="#000000" stroke-width="0.4404" stroke-miterlimit="10" width="67.942" height="5.537"/>
	
		<rect x="192.442" y="247.057" fill="#FFFFFF" stroke="#000000" stroke-width="0.4404" stroke-miterlimit="10" width="67.942" height="5.536"/>
	
		<line fill="none" stroke="#000000" stroke-width="4.4148" stroke-miterlimit="10" x1="186.539" y1="252.903" x2="266.384" y2="252.903"/>
	
		<line fill="none" stroke="#000000" stroke-width="4.4148" stroke-miterlimit="10" x1="186.539" y1="356.085" x2="266.384" y2="356.085"/>
	<g>
		<path d="M219.932,328.615h1.766v7.848h-1.766v-3.33h-2.967v3.33h-1.767v-7.848h1.767v3h2.967V328.615z"/>
		<path d="M226.579,336.621c-0.551,0-1.026-0.078-1.427-0.232s-0.73-0.369-0.991-0.646c-0.26-0.275-0.452-0.604-0.577-0.985
			c-0.125-0.381-0.187-0.802-0.187-1.262v-4.881h1.767v4.732c0,0.318,0.035,0.588,0.107,0.811c0.071,0.223,0.17,0.404,0.294,0.543
			c0.125,0.141,0.275,0.24,0.453,0.301s0.372,0.09,0.583,0.09c0.431,0,0.779-0.131,1.048-0.396c0.268-0.264,0.401-0.713,0.401-1.348
			v-4.732h1.767v4.881c0,0.46-0.063,0.883-0.192,1.268c-0.128,0.385-0.324,0.715-0.589,0.991c-0.264,0.275-0.6,0.489-1.008,0.64
			C227.621,336.545,227.137,336.621,226.579,336.621z"/>
		<path d="M234.131,336.564c-0.43,0-0.858-0.014-1.285-0.039c-0.427-0.027-0.87-0.09-1.33-0.188v-7.609
			c0.362-0.068,0.759-0.119,1.188-0.153c0.431-0.034,0.83-0.051,1.2-0.051c0.499,0,0.957,0.036,1.376,0.107s0.779,0.194,1.082,0.368
			c0.302,0.174,0.537,0.402,0.707,0.686s0.255,0.632,0.255,1.047c0,0.627-0.302,1.121-0.905,1.483
			c0.498,0.188,0.838,0.446,1.019,0.771c0.182,0.324,0.271,0.69,0.271,1.098c0,0.823-0.3,1.442-0.899,1.857
			C236.209,336.357,235.317,336.564,234.131,336.564z M233.237,333.043v2.026c0.129,0.016,0.268,0.026,0.419,0.034
			s0.317,0.012,0.498,0.012c0.528,0,0.955-0.076,1.28-0.227c0.324-0.151,0.486-0.431,0.486-0.838c0-0.363-0.136-0.621-0.407-0.775
			c-0.271-0.155-0.661-0.232-1.166-0.232H233.237z M233.237,331.695h0.86c0.544,0,0.933-0.07,1.167-0.209
			c0.233-0.141,0.351-0.365,0.351-0.674c0-0.318-0.121-0.541-0.362-0.669s-0.597-0.192-1.064-0.192
			c-0.151,0-0.313,0.002-0.486,0.006c-0.174,0.004-0.329,0.014-0.465,0.028V331.695z"/>
	</g>
	<rect x="190.372" y="295.78" width="2.831" height="15.13"/>
	<rect x="260.202" y="295.78" width="2.831" height="15.13"/>
</g>
<g>
	
		<rect x="318.075" y="255.134" fill="#FFFFFF" stroke="#000000" stroke-width="0.4404" stroke-miterlimit="10" width="77.064" height="98.72"/>
	<g>
		<g>
			<g>
				<path fill="#010101" stroke="#FFFFFF" stroke-width="0.1815" stroke-miterlimit="10" d="M356.294,296.35"/>
			</g>
			<g>
				<path fill="#010101" stroke="#FFFFFF" stroke-width="0.1815" stroke-miterlimit="10" d="M356.294,296.35"/>
			</g>
			<g>
				<path fill="#010101" stroke="#FFFFFF" stroke-width="0.1815" stroke-miterlimit="10" d="M356.294,296.35"/>
			</g>
			<g>
				<path fill="#010101" stroke="#FFFFFF" stroke-width="0.1815" stroke-miterlimit="10" d="M356.294,296.35"/>
			</g>
		</g>
		<polyline fill="#3499CD" points="378.979,309.393 367.638,316.197 356.296,323.002 356.296,309.393 356.296,295.782 		"/>
		<polyline fill="#996699" points="378.979,309.393 378.979,295.782 378.979,282.172 367.649,288.977 356.296,295.782 		"/>
		<polyline fill="#F89939" points="356.298,268.561 344.952,275.366 333.61,282.172 344.954,288.977 356.298,295.782 		"/>
		<polyline fill="#EF3B68" points="356.296,268.561 367.636,275.366 378.979,282.172 367.638,288.977 356.296,295.782 		"/>
		<polyline fill="#FFCE0C" points="333.61,309.393 344.954,316.197 356.298,323.002 356.298,309.393 356.298,295.782 		"/>
		<polyline fill="#6FC498" points="333.611,309.393 333.611,295.782 333.611,282.172 344.952,288.977 356.296,295.782 		"/>
		<g>
			<g>
				<g>
					
						<line fill="none" stroke="#FFFFFF" stroke-width="0.5444" stroke-miterlimit="10" x1="356.3" y1="268.561" x2="356.3" y2="269.195"/>
					
						<line fill="none" stroke="#FFFFFF" stroke-width="0.5444" stroke-miterlimit="10" stroke-dasharray="1.2358,1.2358" x1="356.299" y1="270.432" x2="356.294" y2="294.529"/>
					
						<line fill="none" stroke="#FFFFFF" stroke-width="0.5444" stroke-miterlimit="10" x1="356.294" y1="295.146" x2="356.294" y2="295.782"/>
				</g>
			</g>
			<g>
				<g>
					
						<line fill="none" stroke="#FFFFFF" stroke-width="0.5444" stroke-miterlimit="10" x1="356.294" y1="295.782" x2="356.838" y2="296.109"/>
					
						<line fill="none" stroke="#FFFFFF" stroke-width="0.5444" stroke-miterlimit="10" stroke-dasharray="1.3255,1.3255" x1="357.976" y1="296.791" x2="377.866" y2="308.725"/>
					
						<line fill="none" stroke="#FFFFFF" stroke-width="0.5444" stroke-miterlimit="10" x1="378.435" y1="309.066" x2="378.979" y2="309.393"/>
				</g>
			</g>
			<g>
				<g>
					
						<line fill="none" stroke="#FFFFFF" stroke-width="0.5444" stroke-miterlimit="10" x1="356.294" y1="295.782" x2="355.75" y2="296.109"/>
					
						<line fill="none" stroke="#FFFFFF" stroke-width="0.5444" stroke-miterlimit="10" stroke-dasharray="1.3254,1.3254" x1="354.613" y1="296.791" x2="334.723" y2="308.725"/>
					
						<line fill="none" stroke="#FFFFFF" stroke-width="0.5444" stroke-miterlimit="10" x1="334.155" y1="309.066" x2="333.61" y2="309.393"/>
				</g>
			</g>
		</g>
		<g>
			
				<line fill="none" stroke="#FFFFFF" stroke-width="0.5444" stroke-miterlimit="10" x1="356.3" y1="323.002" x2="356.294" y2="295.782"/>
			
				<line fill="none" stroke="#FFFFFF" stroke-width="0.5444" stroke-miterlimit="10" x1="356.294" y1="295.782" x2="378.979" y2="282.172"/>
			
				<line fill="none" stroke="#FFFFFF" stroke-width="0.5444" stroke-miterlimit="10" x1="356.294" y1="295.782" x2="333.61" y2="282.172"/>
		</g>
	</g>
	
		<rect x="322.48" y="356.52" fill="#FFFFFF" stroke="#000000" stroke-width="0.4404" stroke-miterlimit="10" width="67.942" height="5.537"/>
	
		<rect x="322.48" y="247.057" fill="#FFFFFF" stroke="#000000" stroke-width="0.4404" stroke-miterlimit="10" width="67.942" height="5.536"/>
	
		<line fill="none" stroke="#000000" stroke-width="4.4148" stroke-miterlimit="10" x1="316.577" y1="252.903" x2="396.423" y2="252.903"/>
	
		<line fill="none" stroke="#000000" stroke-width="4.4148" stroke-miterlimit="10" x1="316.577" y1="356.085" x2="396.423" y2="356.085"/>
	<g>
		<path d="M349.971,328.615h1.766v7.848h-1.766v-3.33h-2.967v3.33h-1.767v-7.848h1.767v3h2.967V328.615z"/>
		<path d="M356.618,336.621c-0.551,0-1.026-0.078-1.427-0.232s-0.73-0.369-0.991-0.646c-0.26-0.275-0.452-0.604-0.577-0.985
			c-0.125-0.381-0.187-0.802-0.187-1.262v-4.881h1.767v4.732c0,0.318,0.035,0.588,0.107,0.811c0.071,0.223,0.17,0.404,0.294,0.543
			c0.125,0.141,0.275,0.24,0.453,0.301s0.372,0.09,0.583,0.09c0.43,0,0.78-0.131,1.047-0.396c0.268-0.264,0.402-0.713,0.402-1.348
			v-4.732h1.766v4.881c0,0.46-0.063,0.883-0.191,1.268s-0.324,0.715-0.59,0.991c-0.264,0.275-0.6,0.489-1.008,0.64
			C357.66,336.545,357.176,336.621,356.618,336.621z"/>
		<path d="M364.17,336.564c-0.43,0-0.857-0.014-1.285-0.039c-0.426-0.027-0.869-0.09-1.33-0.188v-7.609
			c0.363-0.068,0.76-0.119,1.189-0.153s0.83-0.051,1.199-0.051c0.5,0,0.957,0.036,1.377,0.107c0.418,0.071,0.779,0.194,1.082,0.368
			c0.301,0.174,0.537,0.402,0.707,0.686s0.254,0.632,0.254,1.047c0,0.627-0.301,1.121-0.904,1.483
			c0.498,0.188,0.838,0.446,1.018,0.771c0.182,0.324,0.271,0.69,0.271,1.098c0,0.823-0.299,1.442-0.898,1.857
			C366.248,336.357,365.355,336.564,364.17,336.564z M363.275,333.043v2.026c0.129,0.016,0.268,0.026,0.42,0.034
			c0.15,0.008,0.316,0.012,0.498,0.012c0.527,0,0.955-0.076,1.279-0.227c0.324-0.151,0.486-0.431,0.486-0.838
			c0-0.363-0.135-0.621-0.406-0.775c-0.271-0.155-0.662-0.232-1.166-0.232H363.275z M363.275,331.695h0.861
			c0.543,0,0.932-0.07,1.166-0.209c0.234-0.141,0.352-0.365,0.352-0.674c0-0.318-0.121-0.541-0.363-0.669
			c-0.24-0.128-0.596-0.192-1.064-0.192c-0.15,0-0.313,0.002-0.486,0.006s-0.328,0.014-0.465,0.028V331.695z"/>
	</g>
	<rect x="320.41" y="295.78" width="2.831" height="15.13"/>
	<rect x="390.241" y="295.78" width="2.83" height="15.13"/>
</g>
<g>
	
		<rect x="448.113" y="255.134" fill="#FFFFFF" stroke="#000000" stroke-width="0.4404" stroke-miterlimit="10" width="77.064" height="98.72"/>
	<g>
		<g>
			<g>
				<path fill="#010101" stroke="#FFFFFF" stroke-width="0.1815" stroke-miterlimit="10" d="M486.332,296.35"/>
			</g>
			<g>
				<path fill="#010101" stroke="#FFFFFF" stroke-width="0.1815" stroke-miterlimit="10" d="M486.332,296.35"/>
			</g>
			<g>
				<path fill="#010101" stroke="#FFFFFF" stroke-width="0.1815" stroke-miterlimit="10" d="M486.332,296.35"/>
			</g>
			<g>
				<path fill="#010101" stroke="#FFFFFF" stroke-width="0.1815" stroke-miterlimit="10" d="M486.332,296.35"/>
			</g>
		</g>
		<polyline fill="#3499CD" points="509.018,309.393 497.676,316.197 486.334,323.002 486.334,309.393 486.334,295.782 		"/>
		<polyline fill="#996699" points="509.018,309.393 509.018,295.782 509.018,282.172 497.688,288.977 486.334,295.782 		"/>
		<polyline fill="#F89939" points="486.336,268.561 474.99,275.366 463.648,282.172 474.992,288.977 486.336,295.782 		"/>
		<polyline fill="#EF3B68" points="486.334,268.561 497.674,275.366 509.018,282.172 497.676,288.977 486.334,295.782 		"/>
		<polyline fill="#FFCE0C" points="463.648,309.393 474.992,316.197 486.336,323.002 486.336,309.393 486.336,295.782 		"/>
		<polyline fill="#6FC498" points="463.65,309.393 463.65,295.782 463.65,282.172 474.99,288.977 486.334,295.782 		"/>
		<g>
			<g>
				<g>
					
						<line fill="none" stroke="#FFFFFF" stroke-width="0.5444" stroke-miterlimit="10" x1="486.338" y1="268.561" x2="486.338" y2="269.195"/>
					
						<line fill="none" stroke="#FFFFFF" stroke-width="0.5444" stroke-miterlimit="10" stroke-dasharray="1.2358,1.2358" x1="486.338" y1="270.432" x2="486.332" y2="294.529"/>
					
						<line fill="none" stroke="#FFFFFF" stroke-width="0.5444" stroke-miterlimit="10" x1="486.332" y1="295.146" x2="486.332" y2="295.782"/>
				</g>
			</g>
			<g>
				<g>
					
						<line fill="none" stroke="#FFFFFF" stroke-width="0.5444" stroke-miterlimit="10" x1="486.332" y1="295.782" x2="486.877" y2="296.109"/>
					
						<line fill="none" stroke="#FFFFFF" stroke-width="0.5444" stroke-miterlimit="10" stroke-dasharray="1.3255,1.3255" x1="488.014" y1="296.791" x2="507.904" y2="308.725"/>
					
						<line fill="none" stroke="#FFFFFF" stroke-width="0.5444" stroke-miterlimit="10" x1="508.473" y1="309.066" x2="509.018" y2="309.393"/>
				</g>
			</g>
			<g>
				<g>
					
						<line fill="none" stroke="#FFFFFF" stroke-width="0.5444" stroke-miterlimit="10" x1="486.332" y1="295.782" x2="485.787" y2="296.109"/>
					
						<line fill="none" stroke="#FFFFFF" stroke-width="0.5444" stroke-miterlimit="10" stroke-dasharray="1.3254,1.3254" x1="484.65" y1="296.791" x2="464.762" y2="308.725"/>
					
						<line fill="none" stroke="#FFFFFF" stroke-width="0.5444" stroke-miterlimit="10" x1="464.193" y1="309.066" x2="463.648" y2="309.393"/>
				</g>
			</g>
		</g>
		<g>
			
				<line fill="none" stroke="#FFFFFF" stroke-width="0.5444" stroke-miterlimit="10" x1="486.338" y1="323.002" x2="486.332" y2="295.782"/>
			
				<line fill="none" stroke="#FFFFFF" stroke-width="0.5444" stroke-miterlimit="10" x1="486.332" y1="295.782" x2="509.018" y2="282.172"/>
			
				<line fill="none" stroke="#FFFFFF" stroke-width="0.5444" stroke-miterlimit="10" x1="486.332" y1="295.782" x2="463.648" y2="282.172"/>
		</g>
	</g>
	
		<rect x="452.52" y="356.52" fill="#FFFFFF" stroke="#000000" stroke-width="0.4404" stroke-miterlimit="10" width="67.941" height="5.537"/>
	
		<rect x="452.52" y="247.057" fill="#FFFFFF" stroke="#000000" stroke-width="0.4404" stroke-miterlimit="10" width="67.941" height="5.536"/>
	
		<line fill="none" stroke="#000000" stroke-width="4.4148" stroke-miterlimit="10" x1="446.615" y1="252.903" x2="526.461" y2="252.903"/>
	
		<line fill="none" stroke="#000000" stroke-width="4.4148" stroke-miterlimit="10" x1="446.615" y1="356.085" x2="526.461" y2="356.085"/>
	<g>
		<path d="M480.01,328.615h1.766v7.848h-1.766v-3.33h-2.967v3.33h-1.767v-7.848h1.767v3h2.967V328.615z"/>
		<path d="M486.656,336.621c-0.551,0-1.026-0.078-1.427-0.232s-0.73-0.369-0.991-0.646c-0.26-0.275-0.452-0.604-0.577-0.985
			c-0.125-0.381-0.187-0.802-0.187-1.262v-4.881h1.767v4.732c0,0.318,0.035,0.588,0.107,0.811c0.071,0.223,0.17,0.404,0.294,0.543
			c0.125,0.141,0.275,0.24,0.453,0.301s0.372,0.09,0.583,0.09c0.431,0,0.779-0.131,1.048-0.396c0.268-0.264,0.401-0.713,0.401-1.348
			v-4.732h1.767v4.881c0,0.46-0.063,0.883-0.192,1.268c-0.128,0.385-0.324,0.715-0.589,0.991c-0.264,0.275-0.6,0.489-1.008,0.64
			C487.698,336.545,487.215,336.621,486.656,336.621z"/>
		<path d="M494.209,336.564c-0.43,0-0.858-0.014-1.285-0.039c-0.427-0.027-0.87-0.09-1.33-0.188v-7.609
			c0.362-0.068,0.759-0.119,1.188-0.153c0.431-0.034,0.83-0.051,1.2-0.051c0.499,0,0.957,0.036,1.376,0.107s0.779,0.194,1.082,0.368
			c0.302,0.174,0.537,0.402,0.707,0.686s0.255,0.632,0.255,1.047c0,0.627-0.302,1.121-0.905,1.483
			c0.498,0.188,0.838,0.446,1.019,0.771c0.182,0.324,0.271,0.69,0.271,1.098c0,0.823-0.3,1.442-0.899,1.857
			C496.287,336.357,495.395,336.564,494.209,336.564z M493.314,333.043v2.026c0.129,0.016,0.268,0.026,0.419,0.034
			s0.317,0.012,0.498,0.012c0.528,0,0.955-0.076,1.28-0.227c0.324-0.151,0.486-0.431,0.486-0.838c0-0.363-0.136-0.621-0.407-0.775
			c-0.271-0.155-0.661-0.232-1.166-0.232H493.314z M493.314,331.695h0.86c0.544,0,0.933-0.07,1.167-0.209
			c0.233-0.141,0.351-0.365,0.351-0.674c0-0.318-0.121-0.541-0.362-0.669s-0.597-0.192-1.064-0.192
			c-0.151,0-0.313,0.002-0.486,0.006c-0.174,0.004-0.329,0.014-0.465,0.028V331.695z"/>
	</g>
	<rect x="450.449" y="295.78" width="2.83" height="15.13"/>
	<rect x="520.279" y="295.78" width="2.83" height="15.13"/>
</g>
<g>
	
		<rect x="578.152" y="255.134" fill="#FFFFFF" stroke="#000000" stroke-width="0.4404" stroke-miterlimit="10" width="77.064" height="98.72"/>
	<g>
		<g>
			<g>
				<path fill="#010101" stroke="#FFFFFF" stroke-width="0.1815" stroke-miterlimit="10" d="M616.371,296.35"/>
			</g>
			<g>
				<path fill="#010101" stroke="#FFFFFF" stroke-width="0.1815" stroke-miterlimit="10" d="M616.371,296.35"/>
			</g>
			<g>
				<path fill="#010101" stroke="#FFFFFF" stroke-width="0.1815" stroke-miterlimit="10" d="M616.371,296.35"/>
			</g>
			<g>
				<path fill="#010101" stroke="#FFFFFF" stroke-width="0.1815" stroke-miterlimit="10" d="M616.371,296.35"/>
			</g>
		</g>
		<polyline fill="#3499CD" points="639.057,309.393 627.715,316.197 616.373,323.002 616.373,309.393 616.373,295.782 		"/>
		<polyline fill="#996699" points="639.057,309.393 639.057,295.782 639.057,282.172 627.727,288.977 616.373,295.782 		"/>
		<polyline fill="#F89939" points="616.375,268.561 605.029,275.366 593.688,282.172 605.031,288.977 616.375,295.782 		"/>
		<polyline fill="#EF3B68" points="616.373,268.561 627.713,275.366 639.057,282.172 627.715,288.977 616.373,295.782 		"/>
		<polyline fill="#FFCE0C" points="593.688,309.393 605.031,316.197 616.375,323.002 616.375,309.393 616.375,295.782 		"/>
		<polyline fill="#6FC498" points="593.689,309.393 593.689,295.782 593.689,282.172 605.029,288.977 616.373,295.782 		"/>
		<g>
			<g>
				<g>
					
						<line fill="none" stroke="#FFFFFF" stroke-width="0.5444" stroke-miterlimit="10" x1="616.377" y1="268.561" x2="616.377" y2="269.195"/>
					
						<line fill="none" stroke="#FFFFFF" stroke-width="0.5444" stroke-miterlimit="10" stroke-dasharray="1.2358,1.2358" x1="616.377" y1="270.432" x2="616.371" y2="294.529"/>
					
						<line fill="none" stroke="#FFFFFF" stroke-width="0.5444" stroke-miterlimit="10" x1="616.371" y1="295.146" x2="616.371" y2="295.782"/>
				</g>
			</g>
			<g>
				<g>
					
						<line fill="none" stroke="#FFFFFF" stroke-width="0.5444" stroke-miterlimit="10" x1="616.371" y1="295.782" x2="616.916" y2="296.109"/>
					
						<line fill="none" stroke="#FFFFFF" stroke-width="0.5444" stroke-miterlimit="10" stroke-dasharray="1.3255,1.3255" x1="618.053" y1="296.791" x2="637.943" y2="308.725"/>
					
						<line fill="none" stroke="#FFFFFF" stroke-width="0.5444" stroke-miterlimit="10" x1="638.512" y1="309.066" x2="639.057" y2="309.393"/>
				</g>
			</g>
			<g>
				<g>
					
						<line fill="none" stroke="#FFFFFF" stroke-width="0.5444" stroke-miterlimit="10" x1="616.371" y1="295.782" x2="615.826" y2="296.109"/>
					
						<line fill="none" stroke="#FFFFFF" stroke-width="0.5444" stroke-miterlimit="10" stroke-dasharray="1.3254,1.3254" x1="614.689" y1="296.791" x2="594.801" y2="308.725"/>
					
						<line fill="none" stroke="#FFFFFF" stroke-width="0.5444" stroke-miterlimit="10" x1="594.232" y1="309.066" x2="593.688" y2="309.393"/>
				</g>
			</g>
		</g>
		<g>
			
				<line fill="none" stroke="#FFFFFF" stroke-width="0.5444" stroke-miterlimit="10" x1="616.377" y1="323.002" x2="616.371" y2="295.782"/>
			
				<line fill="none" stroke="#FFFFFF" stroke-width="0.5444" stroke-miterlimit="10" x1="616.371" y1="295.782" x2="639.057" y2="282.172"/>
			
				<line fill="none" stroke="#FFFFFF" stroke-width="0.5444" stroke-miterlimit="10" x1="616.371" y1="295.782" x2="593.688" y2="282.172"/>
		</g>
	</g>
	
		<rect x="582.559" y="356.52" fill="#FFFFFF" stroke="#000000" stroke-width="0.4404" stroke-miterlimit="10" width="67.941" height="5.537"/>
	
		<rect x="582.559" y="247.057" fill="#FFFFFF" stroke="#000000" stroke-width="0.4404" stroke-miterlimit="10" width="67.941" height="5.536"/>
	
		<line fill="none" stroke="#000000" stroke-width="4.4148" stroke-miterlimit="10" x1="576.654" y1="252.903" x2="656.5" y2="252.903"/>
	
		<line fill="none" stroke="#000000" stroke-width="4.4148" stroke-miterlimit="10" x1="576.654" y1="356.085" x2="656.5" y2="356.085"/>
	<g>
		<path d="M610.049,328.615h1.766v7.848h-1.766v-3.33h-2.967v3.33h-1.768v-7.848h1.768v3h2.967V328.615z"/>
		<path d="M616.695,336.621c-0.551,0-1.027-0.078-1.428-0.232s-0.73-0.369-0.99-0.646c-0.26-0.275-0.453-0.604-0.578-0.985
			c-0.125-0.381-0.186-0.802-0.186-1.262v-4.881h1.766v4.732c0,0.318,0.035,0.588,0.107,0.811s0.17,0.404,0.295,0.543
			c0.125,0.141,0.275,0.24,0.453,0.301s0.371,0.09,0.582,0.09c0.432,0,0.779-0.131,1.049-0.396c0.268-0.264,0.4-0.713,0.4-1.348
			v-4.732h1.768v4.881c0,0.46-0.064,0.883-0.193,1.268c-0.127,0.385-0.324,0.715-0.588,0.991c-0.264,0.275-0.6,0.489-1.008,0.64
			S617.254,336.621,616.695,336.621z"/>
		<path d="M624.248,336.564c-0.43,0-0.859-0.014-1.285-0.039c-0.428-0.027-0.871-0.09-1.33-0.188v-7.609
			c0.361-0.068,0.758-0.119,1.188-0.153c0.432-0.034,0.83-0.051,1.201-0.051c0.498,0,0.957,0.036,1.375,0.107
			c0.42,0.071,0.779,0.194,1.082,0.368s0.537,0.402,0.707,0.686s0.256,0.632,0.256,1.047c0,0.627-0.303,1.121-0.906,1.483
			c0.498,0.188,0.838,0.446,1.02,0.771s0.271,0.69,0.271,1.098c0,0.823-0.301,1.442-0.9,1.857
			C626.326,336.357,625.434,336.564,624.248,336.564z M623.354,333.043v2.026c0.129,0.016,0.268,0.026,0.418,0.034
			c0.152,0.008,0.318,0.012,0.498,0.012c0.529,0,0.955-0.076,1.281-0.227c0.324-0.151,0.486-0.431,0.486-0.838
			c0-0.363-0.137-0.621-0.408-0.775c-0.271-0.155-0.66-0.232-1.166-0.232H623.354z M623.354,331.695h0.859
			c0.545,0,0.934-0.07,1.168-0.209c0.232-0.141,0.35-0.365,0.35-0.674c0-0.318-0.121-0.541-0.361-0.669
			c-0.242-0.128-0.598-0.192-1.064-0.192c-0.152,0-0.314,0.002-0.486,0.006c-0.174,0.004-0.33,0.014-0.465,0.028V331.695z"/>
	</g>
	<rect x="580.488" y="295.78" width="2.83" height="15.13"/>
	<rect x="650.318" y="295.78" width="2.83" height="15.13"/>
</g>
<rect x="91.7" y="15" width="516.6" height="180"/>
<rect x="103.538" y="25.5" fill="#6FC498" width="492.925" height="159"/>
<g>
	<path fill="#FFFFFF" d="M138.519,66.317c-0.146-0.458-0.304-0.927-0.473-1.41c-0.168-0.482-0.336-0.962-0.504-1.44H132.4
		c-0.167,0.48-0.333,0.962-0.5,1.444c-0.167,0.483-0.323,0.952-0.467,1.406h-3.078c0.496-1.418,0.965-2.729,1.41-3.933
		c0.445-1.203,0.88-2.337,1.305-3.401c0.426-1.064,0.845-2.074,1.258-3.03c0.413-0.957,0.842-1.891,1.287-2.803h2.81
		c0.433,0.912,0.859,1.846,1.279,2.803c0.42,0.956,0.843,1.966,1.27,3.03s0.862,2.198,1.307,3.401
		c0.445,1.204,0.917,2.515,1.413,3.933H138.519z M134.958,56.133c-0.066,0.191-0.163,0.452-0.291,0.781
		c-0.127,0.329-0.272,0.709-0.435,1.141c-0.163,0.432-0.345,0.906-0.546,1.425c-0.201,0.519-0.405,1.063-0.613,1.631h3.766
		c-0.202-0.571-0.397-1.117-0.585-1.637c-0.189-0.52-0.369-0.996-0.539-1.428c-0.17-0.431-0.319-0.811-0.447-1.14
		C135.14,56.578,135.037,56.32,134.958,56.133z"/>
	<path fill="#FFFFFF" d="M147.773,66.488c-0.722,0-1.441-0.022-2.157-0.066c-0.716-0.044-1.46-0.149-2.232-0.313V53.34
		c0.608-0.114,1.273-0.199,1.995-0.256c0.722-0.057,1.393-0.085,2.014-0.085c0.836,0,1.605,0.06,2.309,0.18
		c0.703,0.121,1.308,0.327,1.814,0.618c0.507,0.292,0.903,0.674,1.188,1.149c0.285,0.475,0.428,1.061,0.428,1.758
		c0,1.051-0.507,1.881-1.52,2.489c0.836,0.317,1.406,0.748,1.71,1.292c0.304,0.545,0.456,1.159,0.456,1.843
		c0,1.381-0.503,2.42-1.511,3.116C151.26,66.14,149.762,66.488,147.773,66.488z M146.272,58.318h1.444
		c0.912,0,1.564-0.117,1.957-0.352c0.393-0.234,0.589-0.611,0.589-1.13c0-0.532-0.203-0.905-0.608-1.121
		c-0.406-0.215-1.001-0.323-1.786-0.323c-0.253,0-0.526,0.003-0.817,0.009c-0.292,0.006-0.551,0.022-0.779,0.047V58.318z
		 M146.272,60.58v3.401c0.215,0.025,0.449,0.044,0.703,0.057s0.532,0.019,0.836,0.019c0.887,0,1.603-0.126,2.147-0.38
		c0.544-0.253,0.817-0.722,0.817-1.406c0-0.608-0.228-1.042-0.684-1.302c-0.456-0.259-1.108-0.389-1.957-0.389H146.272z"/>
	<path fill="#FFFFFF" d="M162.156,66.583c-2.141,0-3.771-0.595-4.893-1.786c-1.121-1.19-1.681-2.881-1.681-5.073
		c0-1.089,0.171-2.062,0.513-2.917c0.342-0.855,0.811-1.577,1.406-2.166c0.595-0.589,1.304-1.036,2.128-1.34
		c0.823-0.304,1.716-0.456,2.679-0.456c0.558,0,1.064,0.042,1.52,0.124c0.456,0.083,0.855,0.178,1.197,0.285
		c0.342,0.108,0.627,0.218,0.855,0.333c0.228,0.114,0.393,0.203,0.494,0.266l-0.855,2.394c-0.406-0.215-0.877-0.399-1.416-0.551
		c-0.539-0.152-1.15-0.228-1.833-0.228c-0.456,0-0.903,0.076-1.34,0.228s-0.823,0.396-1.159,0.731
		c-0.336,0.336-0.605,0.77-0.808,1.302c-0.203,0.532-0.304,1.178-0.304,1.938c0,0.608,0.067,1.175,0.2,1.7
		c0.133,0.526,0.348,0.979,0.646,1.359c0.297,0.38,0.687,0.681,1.168,0.902s1.064,0.333,1.748,0.333
		c0.431,0,0.817-0.025,1.159-0.076c0.342-0.05,0.646-0.111,0.912-0.18c0.266-0.07,0.5-0.149,0.703-0.238
		c0.203-0.088,0.386-0.171,0.551-0.247l0.817,2.375c-0.418,0.254-1.007,0.482-1.767,0.684
		C164.037,66.482,163.157,66.583,162.156,66.583z"/>
	<path fill="#FFFFFF" d="M179.998,59.725c0,1.14-0.178,2.134-0.532,2.983c-0.355,0.849-0.858,1.552-1.51,2.109
		c-0.653,0.558-1.447,0.976-2.385,1.254s-1.989,0.418-3.154,0.418c-0.532,0-1.153-0.022-1.862-0.066s-1.406-0.136-2.09-0.275V53.321
		c0.684-0.126,1.396-0.212,2.138-0.256c0.741-0.044,1.377-0.066,1.909-0.066c1.127,0,2.15,0.126,3.069,0.38
		c0.918,0.253,1.707,0.652,2.365,1.197c0.659,0.545,1.165,1.242,1.52,2.09C179.82,57.514,179.998,58.534,179.998,59.725z
		 M171.428,63.904c0.139,0.013,0.301,0.022,0.484,0.029s0.402,0.009,0.656,0.009c1.482,0,2.581-0.374,3.296-1.121
		c0.715-0.747,1.074-1.779,1.074-3.097c0-1.381-0.342-2.426-1.026-3.135c-0.684-0.709-1.767-1.064-3.249-1.064
		c-0.203,0-0.412,0.003-0.627,0.009c-0.215,0.007-0.418,0.022-0.608,0.048V63.904z"/>
	<path fill="#FFFFFF" d="M182.467,66.317V53.15h8.892v2.489h-5.928v2.584h5.263v2.432h-5.263v3.173h6.365v2.489H182.467z"/>
	<path fill="#FFFFFF" d="M193.981,66.317V53.15h8.816v2.489h-5.852v2.755h5.206v2.489h-5.206v5.434H193.981z"/>
	<path fill="#FFFFFF" d="M211.157,55.43c-1.381,0-2.378,0.383-2.992,1.15c-0.615,0.766-0.922,1.814-0.922,3.145
		c0,0.646,0.076,1.232,0.228,1.757c0.152,0.526,0.38,0.979,0.684,1.358c0.304,0.38,0.684,0.674,1.14,0.884
		c0.456,0.209,0.988,0.313,1.596,0.313c0.33,0,0.611-0.006,0.846-0.019s0.44-0.038,0.618-0.076v-4.579h2.964v6.517
		c-0.355,0.14-0.925,0.288-1.71,0.446c-0.786,0.159-1.754,0.238-2.907,0.238c-0.988,0-1.884-0.152-2.688-0.456
		s-1.491-0.747-2.062-1.33c-0.57-0.583-1.01-1.298-1.32-2.147c-0.311-0.849-0.465-1.817-0.465-2.907
		c0-1.102,0.171-2.078,0.513-2.926c0.342-0.849,0.811-1.567,1.406-2.156c0.595-0.589,1.295-1.036,2.099-1.34
		c0.805-0.304,1.663-0.456,2.575-0.456c0.621,0,1.181,0.042,1.682,0.124c0.5,0.083,0.931,0.178,1.292,0.285
		c0.361,0.108,0.658,0.218,0.893,0.333c0.234,0.114,0.402,0.203,0.503,0.266l-0.855,2.375c-0.406-0.215-0.871-0.402-1.396-0.561
		C212.351,55.51,211.777,55.43,211.157,55.43z"/>
	<path fill="#FFFFFF" d="M226.015,53.15h2.964v13.167h-2.964v-5.586h-4.978v5.586h-2.964V53.15h2.964v5.035h4.978V53.15z"/>
	<path fill="#FFFFFF" d="M232.019,53.15h2.964v13.167h-2.964V53.15z"/>
	<path fill="#FFFFFF" d="M245.224,61.891c0,0.646-0.073,1.254-0.219,1.824s-0.399,1.067-0.76,1.492
		c-0.361,0.424-0.849,0.76-1.463,1.007s-1.39,0.371-2.327,0.371c-0.862,0-1.603-0.104-2.223-0.313s-1.134-0.453-1.539-0.731
		l0.988-2.299c0.367,0.216,0.76,0.406,1.178,0.57s0.874,0.247,1.368,0.247c0.722,0,1.241-0.177,1.558-0.532
		c0.316-0.354,0.475-0.95,0.475-1.786V53.15h2.964V61.891z"/>
	<path fill="#FFFFFF" d="M255.835,66.317c-0.267-0.428-0.582-0.892-0.943-1.389c-0.362-0.498-0.752-0.999-1.171-1.505
		c-0.418-0.505-0.856-0.99-1.313-1.454s-0.914-0.874-1.371-1.229v5.577h-2.964V53.15h2.964v4.949c0.762-0.8,1.537-1.638,2.323-2.512
		c0.786-0.874,1.512-1.686,2.178-2.437h3.517c-0.896,1.067-1.797,2.093-2.704,3.078s-1.861,1.976-2.863,2.973
		c1.053,0.879,2.069,1.921,3.048,3.127s1.919,2.536,2.823,3.989H255.835z"/>
	<path fill="#FFFFFF" d="M269.866,63.771v2.546h-8.797V53.15h2.964v10.621H269.866z"/>
	<path fill="#FFFFFF" d="M275.452,53.15c0.229,0.418,0.492,0.934,0.791,1.548c0.298,0.615,0.609,1.28,0.933,1.995
		c0.324,0.716,0.645,1.447,0.962,2.194c0.317,0.748,0.616,1.451,0.896,2.109c0.279-0.659,0.578-1.362,0.895-2.109
		c0.317-0.747,0.638-1.479,0.962-2.194c0.324-0.715,0.635-1.38,0.934-1.995c0.299-0.614,0.562-1.13,0.791-1.548h2.698
		c0.126,0.874,0.244,1.853,0.352,2.936c0.107,1.083,0.203,2.21,0.285,3.382c0.082,1.172,0.158,2.347,0.228,3.524
		c0.069,1.178,0.129,2.287,0.18,3.325h-2.888c-0.038-1.279-0.089-2.672-0.152-4.18c-0.063-1.507-0.158-3.027-0.285-4.56
		c-0.229,0.532-0.483,1.121-0.763,1.767s-0.556,1.292-0.829,1.938c-0.273,0.646-0.537,1.264-0.791,1.853
		c-0.254,0.589-0.47,1.093-0.648,1.511h-2.071c-0.178-0.418-0.394-0.921-0.648-1.511c-0.254-0.589-0.518-1.207-0.792-1.853
		c-0.273-0.646-0.549-1.292-0.829-1.938c-0.28-0.646-0.534-1.235-0.763-1.767c-0.126,1.533-0.222,3.053-0.285,4.56
		c-0.063,1.508-0.114,2.901-0.152,4.18h-2.888c0.05-1.039,0.111-2.147,0.18-3.325c0.07-1.178,0.146-2.353,0.228-3.524
		c0.083-1.171,0.177-2.299,0.285-3.382c0.107-1.083,0.225-2.062,0.352-2.936H275.452z"/>
	<path fill="#FFFFFF" d="M297.833,66.317c-0.849-1.507-1.767-2.996-2.755-4.465c-0.988-1.469-2.04-2.856-3.154-4.161v8.626h-2.926
		V53.15h2.413c0.418,0.418,0.88,0.931,1.387,1.539c0.507,0.608,1.023,1.257,1.549,1.947c0.525,0.691,1.048,1.406,1.567,2.147
		c0.519,0.741,1.007,1.454,1.463,2.138V53.15h2.945v13.167H297.833z"/>
	<path fill="#FFFFFF" d="M315.902,59.725c0,1.127-0.168,2.118-0.503,2.973c-0.336,0.855-0.795,1.571-1.377,2.147
		c-0.583,0.577-1.276,1.01-2.081,1.302c-0.805,0.291-1.669,0.437-2.594,0.437c-0.899,0-1.748-0.146-2.546-0.437
		c-0.798-0.292-1.495-0.725-2.09-1.302c-0.596-0.576-1.064-1.292-1.406-2.147c-0.342-0.855-0.513-1.846-0.513-2.973
		s0.177-2.119,0.532-2.974s0.833-1.574,1.435-2.157c0.602-0.583,1.298-1.02,2.09-1.311c0.792-0.291,1.625-0.437,2.499-0.437
		c0.899,0,1.748,0.146,2.546,0.437c0.798,0.292,1.495,0.729,2.09,1.311c0.595,0.583,1.064,1.302,1.406,2.157
		C315.731,57.606,315.902,58.597,315.902,59.725z M305.851,59.725c0,0.646,0.079,1.229,0.238,1.748
		c0.158,0.52,0.386,0.966,0.684,1.34c0.297,0.374,0.662,0.662,1.092,0.864c0.431,0.203,0.924,0.304,1.482,0.304
		c0.544,0,1.036-0.102,1.473-0.304c0.437-0.202,0.804-0.491,1.102-0.864c0.297-0.374,0.525-0.82,0.684-1.34
		c0.158-0.519,0.237-1.102,0.237-1.748s-0.079-1.232-0.237-1.758c-0.159-0.525-0.387-0.975-0.684-1.349
		c-0.298-0.373-0.665-0.662-1.102-0.864s-0.928-0.304-1.473-0.304c-0.558,0-1.051,0.104-1.482,0.313s-0.795,0.5-1.092,0.874
		c-0.298,0.374-0.526,0.824-0.684,1.349C305.93,58.512,305.851,59.091,305.851,59.725z"/>
	<path fill="#FFFFFF" d="M322.324,52.999c1.963,0,3.47,0.345,4.522,1.035c1.051,0.691,1.577,1.821,1.577,3.392
		c0,1.583-0.532,2.727-1.596,3.43s-2.584,1.054-4.56,1.054h-0.931v4.408h-2.964V53.34c0.646-0.126,1.33-0.215,2.052-0.266
		C321.146,53.024,321.779,52.999,322.324,52.999z M322.514,55.525c-0.216,0-0.428,0.006-0.637,0.019s-0.389,0.025-0.542,0.038v3.8
		h0.931c1.026,0,1.798-0.139,2.318-0.418c0.52-0.278,0.779-0.798,0.779-1.558c0-0.367-0.067-0.671-0.2-0.912
		c-0.133-0.24-0.323-0.434-0.57-0.579c-0.247-0.146-0.548-0.247-0.903-0.304S322.944,55.525,322.514,55.525z"/>
	<path fill="#FFFFFF" d="M343.148,59.725c0,0.924-0.114,1.757-0.342,2.498c-0.228,0.741-0.548,1.391-0.959,1.948
		c-0.412,0.558-0.902,1.02-1.472,1.387c-0.57,0.367-1.197,0.633-1.881,0.798c0.063,0.253,0.203,0.459,0.418,0.617
		c0.215,0.159,0.487,0.288,0.817,0.39c0.329,0.101,0.712,0.177,1.149,0.228c0.437,0.05,0.909,0.095,1.416,0.133l-0.608,2.166
		c-0.988-0.038-1.833-0.136-2.537-0.294s-1.298-0.377-1.786-0.655c-0.488-0.279-0.874-0.621-1.159-1.026
		c-0.285-0.406-0.504-0.874-0.656-1.406c-0.786-0.102-1.514-0.32-2.185-0.655s-1.254-0.789-1.748-1.359
		c-0.494-0.57-0.88-1.254-1.159-2.052c-0.279-0.798-0.418-1.704-0.418-2.717c0-1.127,0.177-2.119,0.532-2.974
		s0.833-1.574,1.435-2.157c0.602-0.583,1.298-1.02,2.09-1.311c0.792-0.291,1.625-0.437,2.499-0.437c0.899,0,1.748,0.146,2.546,0.437
		c0.798,0.292,1.495,0.729,2.09,1.311c0.595,0.583,1.064,1.302,1.406,2.157C342.977,57.606,343.148,58.597,343.148,59.725z
		 M333.097,59.725c0,0.646,0.079,1.229,0.238,1.748c0.158,0.52,0.386,0.966,0.684,1.34c0.297,0.374,0.662,0.662,1.092,0.864
		c0.431,0.203,0.924,0.304,1.482,0.304c0.544,0,1.036-0.102,1.473-0.304c0.437-0.202,0.804-0.491,1.102-0.864
		c0.297-0.374,0.525-0.82,0.684-1.34c0.158-0.519,0.237-1.102,0.237-1.748s-0.079-1.232-0.237-1.758
		c-0.159-0.525-0.387-0.975-0.684-1.349c-0.298-0.373-0.665-0.662-1.102-0.864s-0.928-0.304-1.473-0.304
		c-0.558,0-1.051,0.104-1.482,0.313s-0.795,0.5-1.092,0.874c-0.298,0.374-0.526,0.824-0.684,1.349
		C333.176,58.512,333.097,59.091,333.097,59.725z"/>
	<path fill="#FFFFFF" d="M349.475,52.999c1.976,0,3.49,0.352,4.541,1.054c1.051,0.703,1.577,1.795,1.577,3.278
		c0,0.925-0.212,1.675-0.637,2.251s-1.035,1.029-1.833,1.358c0.266,0.33,0.544,0.706,0.836,1.13c0.292,0.425,0.58,0.868,0.865,1.33
		s0.561,0.944,0.826,1.444c0.266,0.5,0.513,0.991,0.741,1.473h-3.313c-0.242-0.431-0.486-0.868-0.734-1.311
		s-0.502-0.874-0.763-1.292s-0.519-0.813-0.772-1.188c-0.254-0.374-0.509-0.712-0.763-1.017h-1.463v4.807h-2.964V53.34
		c0.646-0.126,1.314-0.215,2.004-0.266C348.313,53.024,348.93,52.999,349.475,52.999z M349.646,55.525
		c-0.215,0-0.408,0.006-0.58,0.019c-0.171,0.013-0.332,0.025-0.484,0.038v3.572h0.836c1.115,0,1.913-0.139,2.394-0.418
		c0.481-0.278,0.722-0.753,0.722-1.425c0-0.646-0.244-1.105-0.731-1.377C351.314,55.662,350.596,55.525,349.646,55.525z"/>
	<path fill="#FFFFFF" d="M361.882,64.056c0.418,0,0.763-0.035,1.035-0.104c0.272-0.069,0.491-0.164,0.655-0.285
		c0.165-0.12,0.278-0.263,0.342-0.428c0.063-0.165,0.096-0.348,0.096-0.551c0-0.431-0.203-0.789-0.608-1.074
		c-0.405-0.285-1.102-0.592-2.09-0.921c-0.431-0.152-0.861-0.326-1.292-0.522s-0.817-0.443-1.159-0.741
		c-0.342-0.297-0.621-0.658-0.836-1.083c-0.216-0.424-0.323-0.94-0.323-1.548s0.114-1.156,0.343-1.644
		c0.228-0.487,0.551-0.902,0.969-1.245c0.418-0.342,0.924-0.604,1.52-0.788s1.267-0.276,2.015-0.276
		c0.886,0,1.652,0.095,2.299,0.285c0.646,0.19,1.178,0.399,1.596,0.627l-0.854,2.337c-0.368-0.19-0.776-0.357-1.226-0.503
		c-0.45-0.146-0.991-0.218-1.625-0.218c-0.709,0-1.219,0.098-1.529,0.294s-0.466,0.497-0.466,0.902c0,0.241,0.058,0.443,0.171,0.608
		c0.114,0.165,0.276,0.313,0.485,0.447c0.209,0.133,0.449,0.253,0.722,0.361c0.272,0.108,0.573,0.219,0.902,0.333
		c0.684,0.253,1.279,0.503,1.786,0.75s0.928,0.535,1.264,0.865c0.335,0.329,0.586,0.715,0.75,1.159
		c0.165,0.444,0.247,0.982,0.247,1.615c0,1.229-0.431,2.182-1.292,2.859c-0.861,0.678-2.159,1.017-3.895,1.017
		c-0.583,0-1.108-0.035-1.577-0.104c-0.469-0.07-0.884-0.155-1.245-0.257c-0.36-0.101-0.671-0.209-0.931-0.323
		c-0.26-0.114-0.479-0.222-0.655-0.323l0.836-2.356c0.393,0.216,0.877,0.409,1.453,0.58S361.046,64.056,361.882,64.056z"/>
	<path fill="#FFFFFF" d="M378.734,53.15v2.527h-3.971v10.64h-2.965v-10.64h-3.971V53.15H378.734z"/>
	<path fill="#FFFFFF" d="M385.783,66.583c-0.925,0-1.723-0.13-2.394-0.39c-0.672-0.259-1.226-0.621-1.663-1.083
		c-0.437-0.462-0.76-1.013-0.969-1.653s-0.313-1.346-0.313-2.119V53.15h2.964v7.942c0,0.532,0.06,0.985,0.181,1.358
		c0.12,0.374,0.285,0.678,0.494,0.912c0.209,0.235,0.462,0.402,0.76,0.503c0.298,0.102,0.624,0.152,0.979,0.152
		c0.722,0,1.308-0.222,1.758-0.665c0.449-0.443,0.674-1.197,0.674-2.261V53.15h2.964v8.189c0,0.773-0.107,1.482-0.322,2.128
		c-0.216,0.646-0.545,1.2-0.988,1.663s-1.007,0.82-1.691,1.074C387.531,66.457,386.721,66.583,385.783,66.583z"/>
	<path fill="#FFFFFF" d="M398.003,66.317c-0.524-1.106-1.041-2.253-1.551-3.443c-0.51-1.189-0.994-2.366-1.453-3.53
		c-0.459-1.164-0.881-2.278-1.266-3.343c-0.385-1.064-0.717-2.014-0.996-2.85h3.268c0.246,0.762,0.521,1.583,0.822,2.462
		s0.609,1.755,0.922,2.628c0.313,0.873,0.612,1.709,0.899,2.509s0.562,1.49,0.824,2.072c0.247-0.578,0.518-1.267,0.811-2.066
		c0.294-0.8,0.597-1.636,0.91-2.509c0.313-0.873,0.619-1.749,0.921-2.628c0.302-0.878,0.576-1.701,0.824-2.468h3.155
		c-0.295,0.84-0.635,1.791-1.019,2.853c-0.384,1.063-0.804,2.177-1.259,3.342c-0.456,1.166-0.938,2.344-1.444,3.534
		c-0.506,1.191-1.021,2.337-1.542,3.438H398.003z"/>
	<path fill="#FFFFFF" d="M417.241,54.556c0.152,0.52,0.319,1.105,0.503,1.758s0.379,1.327,0.588,2.023
		c0.209,0.697,0.421,1.394,0.636,2.09c0.215,0.697,0.423,1.343,0.626,1.938c0.165-0.646,0.334-1.349,0.506-2.109
		c0.172-0.76,0.334-1.545,0.486-2.356s0.303-1.618,0.448-2.422c0.146-0.804,0.283-1.58,0.411-2.328h3.079
		c-0.446,2.204-0.959,4.44-1.539,6.707c-0.58,2.268-1.207,4.421-1.883,6.46h-2.711c-0.442-1.216-0.872-2.492-1.289-3.829
		c-0.418-1.336-0.829-2.676-1.233-4.019c-0.405,1.343-0.812,2.683-1.217,4.019c-0.406,1.336-0.831,2.613-1.274,3.829h-2.709
		c-0.675-2.039-1.301-4.192-1.88-6.46c-0.579-2.267-1.091-4.503-1.536-6.707h3.211c0.127,0.748,0.268,1.523,0.42,2.328
		c0.153,0.804,0.313,1.612,0.478,2.422c0.166,0.811,0.334,1.596,0.506,2.356c0.172,0.76,0.348,1.463,0.525,2.109
		c0.229-0.62,0.45-1.279,0.666-1.976c0.216-0.696,0.425-1.393,0.628-2.09c0.203-0.696,0.391-1.368,0.562-2.014
		c0.172-0.646,0.327-1.222,0.467-1.729H417.241z"/>
	<path fill="#FFFFFF" d="M434.487,66.317c-0.371-0.733-0.777-1.476-1.218-2.229c-0.441-0.752-0.947-1.388-1.519-1.908
		c-0.178,0.196-0.401,0.468-0.674,0.816c-0.271,0.349-0.543,0.719-0.815,1.111c-0.271,0.392-0.526,0.798-0.764,1.219
		c-0.236,0.421-0.413,0.751-0.528,0.99h-3.382c0.554-1.028,1.208-2.09,1.962-3.185s1.596-2.257,2.524-3.487l-4.297-6.495h3.591
		l2.509,3.813l2.564-3.813h3.382l-4.273,6.355c1.121,1.404,2.044,2.691,2.768,3.861c0.725,1.17,1.297,2.154,1.715,2.951H434.487z"/>
	<path fill="#FFFFFF" d="M445.192,58.551c0.532-0.897,1.039-1.793,1.521-2.69c0.481-0.897,0.926-1.8,1.332-2.71h3.268
		c-0.722,1.419-1.47,2.793-2.242,4.123s-1.59,2.667-2.45,4.009v5.035h-2.965V61.32c-0.861-1.342-1.681-2.685-2.46-4.028
		s-1.529-2.723-2.252-4.142h3.439c0.404,0.91,0.841,1.813,1.309,2.71C444.161,56.757,444.66,57.654,445.192,58.551z"/>
	<path fill="#FFFFFF" d="M462.561,55.202c-0.405,0.418-0.887,0.96-1.444,1.625c-0.558,0.665-1.134,1.391-1.729,2.176
		c-0.596,0.786-1.185,1.596-1.769,2.432c-0.583,0.836-1.103,1.634-1.559,2.394h6.71v2.489h-10.354V64.55
		c0.354-0.646,0.788-1.365,1.302-2.156c0.513-0.792,1.048-1.59,1.605-2.394c0.557-0.804,1.124-1.583,1.7-2.337
		c0.576-0.754,1.111-1.428,1.605-2.024h-5.909V53.15h9.842V55.202z"/>
</g>
<g>
	<path fill="#FFFFFF" d="M129.496,85.886c0.367-0.152,0.75-0.326,1.149-0.522c0.399-0.196,0.789-0.411,1.168-0.646
		c0.38-0.234,0.744-0.481,1.093-0.741c0.348-0.26,0.662-0.535,0.94-0.827h1.976v13.167h-2.831v-9.481
		c-0.38,0.253-0.805,0.484-1.273,0.693c-0.469,0.209-0.925,0.39-1.368,0.542L129.496,85.886z"/>
	<path fill="#FFFFFF" d="M142.966,93.429c0.025,0.304,0.041,0.52,0.048,0.646c0.006,0.127,0.009,0.235,0.009,0.323
		c0,0.38-0.035,0.782-0.104,1.207c-0.07,0.424-0.168,0.852-0.294,1.282c-0.127,0.431-0.285,0.861-0.475,1.292
		s-0.405,0.842-0.646,1.235l-2.223-0.551c0.291-0.836,0.494-1.622,0.608-2.356c0.114-0.734,0.171-1.342,0.171-1.824
		c0-0.076-0.003-0.174-0.01-0.295c-0.006-0.12-0.013-0.244-0.019-0.37c-0.007-0.126-0.013-0.247-0.019-0.361
		c-0.007-0.114-0.01-0.19-0.01-0.228H142.966z"/>
	<path fill="#FFFFFF" d="M153.055,86.608c0,0.481-0.095,0.944-0.285,1.387s-0.437,0.871-0.741,1.282
		c-0.304,0.412-0.646,0.808-1.026,1.188s-0.754,0.741-1.121,1.083c-0.19,0.178-0.396,0.377-0.618,0.599s-0.434,0.446-0.636,0.674
		s-0.383,0.44-0.542,0.637c-0.159,0.196-0.256,0.358-0.294,0.484h5.662v2.375h-8.778c-0.025-0.139-0.038-0.316-0.038-0.532
		c0-0.215,0-0.367,0-0.456c0-0.608,0.098-1.166,0.294-1.672c0.196-0.506,0.453-0.979,0.77-1.416
		c0.317-0.437,0.675-0.845,1.074-1.225c0.399-0.38,0.795-0.76,1.188-1.14c0.304-0.292,0.589-0.567,0.855-0.827
		c0.266-0.259,0.5-0.513,0.703-0.76c0.202-0.247,0.361-0.494,0.475-0.741c0.114-0.247,0.171-0.497,0.171-0.75
		c0-0.557-0.159-0.95-0.475-1.178c-0.317-0.228-0.709-0.342-1.178-0.342c-0.342,0-0.662,0.054-0.959,0.162
		c-0.297,0.108-0.57,0.234-0.817,0.38c-0.247,0.146-0.459,0.292-0.636,0.437c-0.178,0.146-0.311,0.263-0.399,0.352l-1.406-1.976
		c0.557-0.519,1.207-0.947,1.947-1.282c0.741-0.335,1.536-0.504,2.385-0.504c0.772,0,1.438,0.089,1.995,0.266
		c0.557,0.178,1.016,0.428,1.377,0.75c0.361,0.323,0.627,0.716,0.798,1.178S153.055,86.026,153.055,86.608z"/>
	<path fill="#FFFFFF" d="M158.432,93.429c0.025,0.304,0.041,0.52,0.048,0.646c0.006,0.127,0.009,0.235,0.009,0.323
		c0,0.38-0.035,0.782-0.104,1.207c-0.07,0.424-0.168,0.852-0.294,1.282c-0.127,0.431-0.285,0.861-0.475,1.292
		s-0.405,0.842-0.646,1.235l-2.223-0.551c0.291-0.836,0.494-1.622,0.608-2.356c0.114-0.734,0.171-1.342,0.171-1.824
		c0-0.076-0.003-0.174-0.01-0.295c-0.006-0.12-0.013-0.244-0.019-0.37c-0.007-0.126-0.013-0.247-0.019-0.361
		c-0.007-0.114-0.01-0.19-0.01-0.228H158.432z"/>
	<path fill="#FFFFFF" d="M163.429,96.603c-0.342,0-0.703-0.022-1.083-0.067s-0.748-0.104-1.102-0.18
		c-0.355-0.076-0.678-0.158-0.969-0.247c-0.292-0.088-0.52-0.171-0.684-0.247l0.551-2.356c0.329,0.14,0.75,0.288,1.264,0.446
		c0.513,0.159,1.149,0.238,1.909,0.238c0.874,0,1.514-0.165,1.919-0.494c0.405-0.329,0.608-0.772,0.608-1.33
		c0-0.342-0.073-0.63-0.219-0.864s-0.345-0.424-0.598-0.57c-0.254-0.145-0.555-0.247-0.903-0.304
		c-0.349-0.057-0.719-0.085-1.111-0.085h-1.102v-2.28h1.254c0.278,0,0.548-0.025,0.808-0.076c0.259-0.051,0.491-0.136,0.693-0.257
		c0.203-0.12,0.364-0.285,0.484-0.494c0.121-0.209,0.181-0.472,0.181-0.789c0-0.241-0.051-0.45-0.152-0.627
		c-0.102-0.177-0.231-0.323-0.39-0.437c-0.159-0.114-0.342-0.2-0.551-0.257c-0.209-0.057-0.421-0.085-0.637-0.085
		c-0.545,0-1.048,0.083-1.51,0.247c-0.463,0.165-0.884,0.368-1.264,0.608l-1.007-2.071c0.202-0.126,0.44-0.259,0.712-0.399
		c0.272-0.139,0.573-0.266,0.902-0.38c0.329-0.114,0.681-0.209,1.055-0.285c0.374-0.076,0.77-0.114,1.188-0.114
		c0.772,0,1.44,0.092,2.004,0.275c0.563,0.184,1.029,0.443,1.396,0.778c0.367,0.335,0.64,0.728,0.817,1.176s0.266,0.939,0.266,1.47
		c0,0.519-0.146,1.021-0.437,1.508c-0.292,0.487-0.684,0.857-1.178,1.11c0.684,0.279,1.212,0.694,1.586,1.246
		c0.374,0.552,0.561,1.214,0.561,1.988c0,0.609-0.102,1.17-0.304,1.684s-0.52,0.958-0.95,1.332s-0.979,0.666-1.644,0.875
		C165.13,96.498,164.341,96.603,163.429,96.603z"/>
	<path fill="#FFFFFF" d="M173.898,93.429c0.025,0.304,0.041,0.52,0.048,0.646c0.006,0.127,0.009,0.235,0.009,0.323
		c0,0.38-0.035,0.782-0.104,1.207c-0.07,0.424-0.168,0.852-0.294,1.282c-0.127,0.431-0.285,0.861-0.475,1.292
		s-0.405,0.842-0.646,1.235l-2.223-0.551c0.291-0.836,0.494-1.622,0.608-2.356c0.114-0.734,0.171-1.342,0.171-1.824
		c0-0.076-0.003-0.174-0.01-0.295c-0.006-0.12-0.013-0.244-0.019-0.37c-0.007-0.126-0.013-0.247-0.019-0.361
		c-0.007-0.114-0.01-0.19-0.01-0.228H173.898z"/>
	<path fill="#FFFFFF" d="M183.398,83.15v7.904h1.406v2.318h-1.406v2.945h-2.774v-2.945h-5.681v-2.071
		c0.279-0.557,0.627-1.188,1.045-1.891c0.418-0.703,0.884-1.425,1.396-2.166c0.513-0.741,1.055-1.466,1.625-2.176
		c0.57-0.709,1.14-1.349,1.71-1.919H183.398z M180.624,86.608c-0.494,0.646-1.02,1.349-1.577,2.109
		c-0.558,0.76-1.026,1.539-1.406,2.337h2.983V86.608z"/>
	<path fill="#FFFFFF" d="M189.364,93.429c0.025,0.304,0.041,0.52,0.048,0.646c0.006,0.127,0.009,0.235,0.009,0.323
		c0,0.38-0.035,0.782-0.104,1.207c-0.07,0.424-0.168,0.852-0.294,1.282c-0.127,0.431-0.285,0.861-0.475,1.292
		s-0.405,0.842-0.646,1.235l-2.223-0.551c0.291-0.836,0.494-1.622,0.608-2.356c0.114-0.734,0.171-1.342,0.171-1.824
		c0-0.076-0.003-0.174-0.01-0.295c-0.006-0.12-0.013-0.244-0.019-0.37c-0.007-0.126-0.013-0.247-0.019-0.361
		c-0.007-0.114-0.01-0.19-0.01-0.228H189.364z"/>
	<path fill="#FFFFFF" d="M196.869,92.441c0-0.367-0.083-0.693-0.247-0.979s-0.45-0.522-0.855-0.712s-0.95-0.335-1.634-0.437
		s-1.545-0.152-2.584-0.152c0.139-1.178,0.253-2.375,0.342-3.591c0.089-1.216,0.158-2.356,0.209-3.42h7.125v2.375h-4.75
		c-0.025,0.456-0.054,0.896-0.085,1.32c-0.032,0.425-0.066,0.795-0.104,1.112c1.85,0.126,3.214,0.561,4.095,1.301
		c0.88,0.741,1.32,1.771,1.32,3.087c0,0.608-0.107,1.172-0.323,1.691c-0.216,0.52-0.539,0.969-0.969,1.349
		c-0.431,0.38-0.972,0.678-1.625,0.893s-1.416,0.323-2.29,0.323c-0.342,0-0.7-0.022-1.073-0.067
		c-0.374-0.044-0.735-0.101-1.083-0.171c-0.349-0.069-0.662-0.143-0.94-0.218c-0.279-0.076-0.494-0.152-0.646-0.228l0.513-2.337
		c0.316,0.139,0.734,0.275,1.254,0.408c0.52,0.133,1.14,0.2,1.862,0.2c0.874,0,1.507-0.174,1.9-0.522
		C196.672,93.319,196.869,92.91,196.869,92.441z"/>
	<path fill="#FFFFFF" d="M204.83,93.429c0.025,0.304,0.041,0.52,0.048,0.646c0.006,0.127,0.009,0.235,0.009,0.323
		c0,0.38-0.035,0.782-0.104,1.207c-0.07,0.424-0.168,0.852-0.294,1.282c-0.127,0.431-0.285,0.861-0.475,1.292
		s-0.405,0.842-0.646,1.235l-2.223-0.551c0.291-0.836,0.494-1.622,0.608-2.356c0.114-0.734,0.171-1.342,0.171-1.824
		c0-0.076-0.003-0.174-0.01-0.295c-0.006-0.12-0.013-0.244-0.019-0.37c-0.007-0.126-0.013-0.247-0.019-0.361
		c-0.007-0.114-0.01-0.19-0.01-0.228H204.83z"/>
	<path fill="#FFFFFF" d="M211.062,87.919c0.823,0,1.523,0.111,2.1,0.333c0.576,0.222,1.048,0.522,1.416,0.902
		c0.367,0.38,0.633,0.824,0.798,1.33c0.165,0.507,0.247,1.045,0.247,1.615c0,0.506-0.092,1.026-0.275,1.558
		c-0.184,0.532-0.462,1.014-0.836,1.444c-0.374,0.431-0.849,0.785-1.425,1.064c-0.576,0.278-1.257,0.418-2.042,0.418
		c-1.583,0-2.787-0.5-3.61-1.501c-0.824-1-1.235-2.381-1.235-4.142c0-1.267,0.196-2.388,0.589-3.363
		c0.393-0.975,0.953-1.795,1.682-2.46c0.728-0.665,1.608-1.171,2.641-1.52c1.033-0.348,2.195-0.528,3.487-0.542
		c0.025,0.393,0.05,0.776,0.076,1.15s0.051,0.763,0.076,1.168c-0.646,0.013-1.251,0.073-1.814,0.18
		c-0.564,0.108-1.077,0.276-1.539,0.504c-0.462,0.228-0.864,0.522-1.207,0.883c-0.342,0.361-0.608,0.801-0.798,1.32
		c0.278-0.126,0.563-0.215,0.855-0.266C210.536,87.945,210.808,87.919,211.062,87.919z M210.701,90.124
		c-0.279,0-0.577,0.025-0.893,0.076c-0.317,0.051-0.564,0.121-0.741,0.209c0,0.051-0.003,0.127-0.009,0.228
		c-0.006,0.102-0.009,0.19-0.009,0.266c0,0.456,0.031,0.887,0.095,1.292c0.063,0.406,0.171,0.76,0.323,1.064
		c0.152,0.304,0.354,0.542,0.608,0.712c0.253,0.171,0.57,0.257,0.95,0.257c0.317,0,0.586-0.067,0.808-0.2s0.405-0.301,0.551-0.503
		c0.146-0.203,0.253-0.428,0.323-0.674c0.069-0.247,0.104-0.485,0.104-0.713c0-0.646-0.162-1.143-0.484-1.491
		C212.002,90.298,211.46,90.124,210.701,90.124z"/>
	<path fill="#FFFFFF" d="M220.295,93.429c0.025,0.304,0.041,0.52,0.048,0.646c0.006,0.127,0.009,0.235,0.009,0.323
		c0,0.38-0.035,0.782-0.104,1.207c-0.07,0.424-0.168,0.852-0.294,1.282c-0.127,0.431-0.285,0.861-0.475,1.292
		s-0.405,0.842-0.646,1.235l-2.223-0.551c0.291-0.836,0.494-1.622,0.608-2.356c0.114-0.734,0.171-1.342,0.171-1.824
		c0-0.076-0.003-0.174-0.01-0.295c-0.006-0.12-0.013-0.244-0.019-0.37c-0.007-0.126-0.013-0.247-0.019-0.361
		c-0.007-0.114-0.01-0.19-0.01-0.228H220.295z"/>
	<path fill="#FFFFFF" d="M223.659,96.317c0.076-0.924,0.234-1.887,0.475-2.888c0.241-1,0.535-1.982,0.884-2.945
		c0.348-0.962,0.738-1.872,1.168-2.727c0.43-0.855,0.867-1.593,1.311-2.213h-5.719v-2.413h9.215v2.052
		c-0.406,0.443-0.852,1.058-1.34,1.843c-0.488,0.786-0.95,1.675-1.387,2.669c-0.437,0.995-0.817,2.062-1.14,3.202
		c-0.323,1.14-0.522,2.28-0.599,3.42H223.659z"/>
	<path fill="#FFFFFF" d="M235.761,93.429c0.025,0.304,0.041,0.52,0.048,0.646c0.006,0.127,0.009,0.235,0.009,0.323
		c0,0.38-0.035,0.782-0.104,1.207c-0.07,0.424-0.168,0.852-0.294,1.282c-0.127,0.431-0.285,0.861-0.475,1.292
		s-0.405,0.842-0.646,1.235l-2.223-0.551c0.291-0.836,0.494-1.622,0.608-2.356c0.114-0.734,0.171-1.342,0.171-1.824
		c0-0.076-0.003-0.174-0.01-0.295c-0.006-0.12-0.013-0.244-0.019-0.37c-0.007-0.126-0.013-0.247-0.019-0.361
		c-0.007-0.114-0.01-0.19-0.01-0.228H235.761z"/>
	<path fill="#FFFFFF" d="M246.496,92.646c0,0.57-0.098,1.094-0.294,1.569s-0.491,0.891-0.883,1.246
		c-0.393,0.355-0.884,0.631-1.473,0.828s-1.27,0.295-2.042,0.295c-0.887,0-1.625-0.124-2.213-0.371s-1.064-0.555-1.425-0.923
		c-0.361-0.368-0.617-0.771-0.769-1.208c-0.152-0.438-0.228-0.84-0.228-1.208c0-0.381,0.05-0.729,0.152-1.047
		c0.101-0.317,0.24-0.605,0.418-0.866c0.177-0.26,0.376-0.498,0.599-0.713c0.221-0.215,0.459-0.418,0.712-0.609
		c-0.545-0.442-0.947-0.879-1.207-1.309c-0.26-0.43-0.39-0.98-0.39-1.65c0-0.506,0.104-0.993,0.313-1.461s0.503-0.876,0.884-1.224
		c0.38-0.348,0.839-0.626,1.377-0.835c0.538-0.209,1.137-0.313,1.795-0.313c0.772,0,1.435,0.111,1.985,0.333
		c0.551,0.221,1.004,0.503,1.359,0.844c0.354,0.341,0.611,0.724,0.769,1.147c0.159,0.424,0.238,0.844,0.238,1.262
		c0,0.607-0.162,1.173-0.484,1.698c-0.323,0.525-0.726,0.939-1.207,1.243c0.722,0.469,1.238,0.961,1.548,1.475
		C246.341,91.361,246.496,91.96,246.496,92.646z M239.922,92.761c0,0.152,0.035,0.321,0.104,0.505
		c0.069,0.184,0.18,0.352,0.333,0.504c0.152,0.152,0.348,0.279,0.589,0.381s0.532,0.152,0.874,0.152c0.659,0,1.14-0.158,1.444-0.476
		c0.304-0.317,0.456-0.673,0.456-1.066c0-0.292-0.066-0.553-0.199-0.781c-0.133-0.229-0.313-0.428-0.542-0.6
		c-0.228-0.171-0.498-0.324-0.808-0.457c-0.311-0.133-0.643-0.257-0.998-0.372c-0.355,0.267-0.652,0.578-0.893,0.934
		C240.042,91.84,239.922,92.265,239.922,92.761z M243.438,86.51c0-0.139-0.029-0.287-0.086-0.445
		c-0.057-0.158-0.152-0.306-0.285-0.445c-0.133-0.139-0.301-0.256-0.503-0.351c-0.203-0.095-0.45-0.142-0.741-0.142
		c-0.279,0-0.52,0.044-0.722,0.133c-0.203,0.088-0.37,0.205-0.503,0.351c-0.133,0.146-0.231,0.3-0.294,0.464
		c-0.063,0.164-0.095,0.322-0.095,0.473c0,0.404,0.149,0.783,0.447,1.137c0.297,0.354,0.808,0.657,1.529,0.91
		c0.405-0.252,0.716-0.543,0.931-0.872C243.33,87.394,243.438,86.99,243.438,86.51z"/>
	<path fill="#FFFFFF" d="M251.227,93.429c0.025,0.304,0.041,0.52,0.048,0.646c0.006,0.127,0.009,0.235,0.009,0.323
		c0,0.38-0.035,0.782-0.104,1.207c-0.07,0.424-0.168,0.852-0.294,1.282c-0.127,0.431-0.285,0.861-0.475,1.292
		s-0.405,0.842-0.646,1.235l-2.223-0.551c0.291-0.836,0.494-1.622,0.608-2.356c0.114-0.734,0.171-1.342,0.171-1.824
		c0-0.076-0.003-0.174-0.01-0.295c-0.006-0.12-0.013-0.244-0.019-0.37c-0.007-0.126-0.013-0.247-0.019-0.361
		c-0.007-0.114-0.01-0.19-0.01-0.228H251.227z"/>
	<path fill="#FFFFFF" d="M258.77,91.092c-0.266,0.127-0.561,0.219-0.883,0.275c-0.323,0.057-0.599,0.086-0.827,0.086
		c-0.824,0-1.526-0.098-2.109-0.295c-0.583-0.196-1.061-0.475-1.435-0.836c-0.374-0.361-0.649-0.794-0.827-1.301
		c-0.177-0.506-0.266-1.064-0.266-1.672c0-0.507,0.085-1.026,0.256-1.558c0.171-0.532,0.44-1.017,0.808-1.454
		c0.367-0.437,0.833-0.798,1.396-1.083c0.563-0.285,1.244-0.428,2.042-0.428c1.634,0,2.866,0.504,3.695,1.511
		s1.245,2.454,1.245,4.341c0,1.242-0.162,2.337-0.484,3.287c-0.323,0.95-0.824,1.748-1.501,2.394s-1.542,1.137-2.593,1.473
		c-1.052,0.335-2.299,0.51-3.743,0.522c-0.013-0.405-0.032-0.798-0.057-1.178c-0.026-0.38-0.051-0.772-0.076-1.178
		c0.722-0.013,1.374-0.066,1.957-0.162c0.583-0.095,1.095-0.253,1.539-0.475c0.443-0.221,0.82-0.516,1.13-0.883
		C258.349,92.112,258.593,91.65,258.77,91.092z M257.383,89.25c0.291,0,0.595-0.029,0.912-0.085
		c0.316-0.057,0.551-0.136,0.703-0.238v-0.171c0-0.05,0.003-0.101,0.01-0.152c0.006-0.051,0.009-0.095,0.009-0.133
		c-0.013-0.456-0.051-0.883-0.114-1.282c-0.064-0.399-0.171-0.748-0.323-1.045c-0.152-0.298-0.358-0.532-0.618-0.703
		s-0.579-0.256-0.959-0.256c-0.304,0-0.57,0.063-0.798,0.19s-0.412,0.292-0.551,0.494c-0.14,0.203-0.244,0.425-0.313,0.665
		c-0.07,0.241-0.104,0.475-0.104,0.703c0,0.684,0.167,1.191,0.503,1.52C256.075,89.085,256.623,89.25,257.383,89.25z"/>
	<path fill="#FFFFFF" d="M266.788,94.816c0,0.57-0.181,1.004-0.542,1.301c-0.361,0.298-0.77,0.447-1.226,0.447
		s-0.864-0.149-1.226-0.447c-0.361-0.297-0.542-0.731-0.542-1.301s0.181-1.004,0.542-1.302c0.361-0.297,0.77-0.446,1.226-0.446
		s0.865,0.149,1.226,0.446C266.607,93.813,266.788,94.247,266.788,94.816z"/>
	<path fill="#FFFFFF" d="M271.462,94.816c0,0.57-0.181,1.004-0.542,1.301c-0.361,0.298-0.77,0.447-1.226,0.447
		s-0.864-0.149-1.226-0.447c-0.361-0.297-0.542-0.731-0.542-1.301s0.181-1.004,0.542-1.302c0.361-0.297,0.77-0.446,1.226-0.446
		s0.865,0.149,1.226,0.446C271.281,93.813,271.462,94.247,271.462,94.816z"/>
	<path fill="#FFFFFF" d="M276.136,94.816c0,0.57-0.181,1.004-0.542,1.301c-0.361,0.298-0.77,0.447-1.226,0.447
		s-0.864-0.149-1.226-0.447c-0.361-0.297-0.542-0.731-0.542-1.301s0.181-1.004,0.542-1.302c0.361-0.297,0.77-0.446,1.226-0.446
		s0.865,0.149,1.226,0.446C275.955,93.813,276.136,94.247,276.136,94.816z"/>
</g>
<polygon fill="#F89939" points="618.3,198.907 81.7,198.907 91.7,185 608.3,185 "/>
</svg>
