<?xml version="1.0" encoding="utf-8"?>
<!-- Generator: Adobe Illustrator 16.0.0, SVG Export Plug-In . SVG Version: 6.00 Build 0)  -->
<!DOCTYPE svg PUBLIC "-//W3C//DTD SVG 1.1//EN" "http://www.w3.org/Graphics/SVG/1.1/DTD/svg11.dtd">
<svg version="1.1" id="Layer_1" xmlns="http://www.w3.org/2000/svg" xmlns:xlink="http://www.w3.org/1999/xlink" x="0px" y="0px"
	 width="600px" height="400px" viewBox="0 0 600 400" enable-background="new 0 0 600 400" xml:space="preserve">
<g>
	<g>
		<polyline fill="none" stroke="#FFCE0C" stroke-width="5" stroke-miterlimit="10" points="342.126,286.75 491.884,286.75 
			491.884,244.387 		"/>
	</g>
	<g>
		<polygon fill="#FFCE0C" points="488.642,250.83 485.642,242.859 498.126,242.859 495.126,250.83 		"/>
		<polygon fill="#FFCE0C" stroke="#F89939" stroke-width="0.869" stroke-miterlimit="10" points="484.642,229.432 499.126,229.432 
			499.126,240.83 498.126,242.859 485.642,242.859 484.642,240.83 		"/>
		<path fill="#FFCE0C" stroke="#F89939" stroke-width="0.869" stroke-miterlimit="10" d="M484.642,240.943"/>
		
			<line fill="none" stroke="#F89939" stroke-width="0.8801" stroke-miterlimit="10" x1="498.126" y1="244.318" x2="485.626" y2="244.318"/>
		
			<line fill="none" stroke="#F89939" stroke-width="0.903" stroke-miterlimit="10" x1="497.376" y1="245.818" x2="486.376" y2="245.818"/>
		
			<line fill="none" stroke="#F89939" stroke-width="0.9361" stroke-miterlimit="10" x1="496.626" y1="247.318" x2="487.126" y2="247.318"/>
		
			<line fill="none" stroke="#F89939" stroke-width="0.8854" stroke-miterlimit="10" x1="496.126" y1="248.818" x2="487.626" y2="248.818"/>
		<rect x="488.253" y="249.998" fill="#F89939" width="7.186" height="3.486"/>
	</g>
</g>
<g>
	<polygon fill="#6FC498" stroke="#579975" stroke-miterlimit="10" points="530.039,253.049 512.611,253.049 514.611,233.867 
		528.039,233.867 	"/>
	<g>
		<g>
			<g>
				<path fill="none" stroke="#579975" stroke-width="2" stroke-miterlimit="10" d="M530.882,263.472
					c-5.282,5.28-13.831,5.28-19.113,0"/>
				<path fill="none" stroke="#579975" stroke-width="2" stroke-miterlimit="10" d="M528.383,260.972
					c-3.901,3.899-10.214,3.899-14.115,0"/>
				<path fill="none" stroke="#579975" stroke-width="2" stroke-miterlimit="10" d="M525.456,258.279
					c-2.282,2.283-5.979,2.283-8.263,0"/>
			</g>
		</g>
	</g>
</g>
<g>
	<path fill="#FFFFFF" d="M518.023,245.99c0.04,0.137,0.084,0.291,0.132,0.462c0.049,0.172,0.1,0.35,0.155,0.533
		c0.055,0.183,0.11,0.366,0.167,0.55s0.111,0.354,0.165,0.51c0.044-0.17,0.088-0.354,0.133-0.555c0.046-0.2,0.088-0.407,0.128-0.62
		c0.041-0.214,0.08-0.426,0.118-0.638s0.075-0.416,0.108-0.612h0.811c-0.117,0.58-0.253,1.168-0.405,1.765
		c-0.153,0.597-0.317,1.163-0.495,1.7h-0.714c-0.116-0.32-0.229-0.656-0.339-1.008c-0.11-0.352-0.219-0.704-0.324-1.058
		c-0.107,0.354-0.215,0.706-0.321,1.058s-0.218,0.688-0.335,1.008h-0.713c-0.178-0.537-0.343-1.104-0.494-1.7
		c-0.152-0.597-0.287-1.185-0.404-1.765h0.844c0.034,0.196,0.07,0.4,0.111,0.612c0.04,0.212,0.082,0.424,0.125,0.638
		c0.044,0.213,0.088,0.42,0.134,0.62c0.045,0.2,0.091,0.385,0.138,0.555c0.061-0.163,0.119-0.337,0.176-0.52
		c0.057-0.184,0.111-0.367,0.165-0.551c0.054-0.183,0.103-0.359,0.147-0.529s0.086-0.322,0.123-0.455H518.023z"/>
	<path fill="#FFFFFF" d="M521.2,245.695c0,0.137-0.045,0.244-0.133,0.322s-0.193,0.117-0.313,0.117c-0.12,0-0.225-0.039-0.313-0.117
		s-0.133-0.186-0.133-0.322s0.045-0.244,0.133-0.323c0.088-0.078,0.192-0.117,0.313-0.117c0.119,0,0.225,0.039,0.313,0.117
		C521.155,245.451,521.2,245.559,521.2,245.695z M521.13,249.085h-0.745v-2.63h0.745V249.085z"/>
	<path fill="#FFFFFF" d="M521.604,247.255h1.45v0.675h-1.45V247.255z"/>
	<path fill="#FFFFFF" d="M523.579,249.085v-3.465h2.32v0.655h-1.539V247h1.369v0.655h-1.369v1.43H523.579z"/>
	<path fill="#FFFFFF" d="M527.215,245.695c0,0.137-0.044,0.244-0.132,0.322c-0.089,0.078-0.193,0.117-0.313,0.117
		c-0.121,0-0.225-0.039-0.313-0.117c-0.089-0.078-0.133-0.186-0.133-0.322s0.044-0.244,0.133-0.323
		c0.088-0.078,0.191-0.117,0.313-0.117c0.119,0,0.224,0.039,0.313,0.117C527.171,245.451,527.215,245.559,527.215,245.695z
		 M527.146,249.085h-0.746v-2.63h0.746V249.085z"/>
</g>
<g>
	<path fill="none" d="M395.226,276.055"/>
</g>
<g>
	
		<rect x="462.224" y="110.693" fill="#FFFFFF" stroke="#EF4069" stroke-width="0.5395" stroke-miterlimit="10" width="91.076" height="116.668"/>
	<g>
		<g>
			<g>
				<path fill="#010101" stroke="#FFFFFF" stroke-width="0.2145" stroke-miterlimit="10" d="M507.39,159.403"/>
			</g>
			<g>
				<path fill="#010101" stroke="#FFFFFF" stroke-width="0.2145" stroke-miterlimit="10" d="M507.39,159.403"/>
			</g>
			<g>
				<path fill="#010101" stroke="#FFFFFF" stroke-width="0.2145" stroke-miterlimit="10" d="M507.39,159.403"/>
			</g>
			<g>
				<path fill="#010101" stroke="#FFFFFF" stroke-width="0.2145" stroke-miterlimit="10" d="M507.39,159.403"/>
			</g>
		</g>
		<polyline fill="#3499CD" points="534.198,174.817 520.794,182.859 507.391,190.902 507.391,174.817 507.391,158.733 		"/>
		<polyline fill="#996699" points="534.198,174.817 534.198,158.733 534.198,142.647 520.81,150.69 507.391,158.733 		"/>
		<polyline fill="#F89939" points="507.394,126.563 493.987,134.605 480.581,142.647 493.987,150.69 507.394,158.733 		"/>
		<polyline fill="#EF3B68" points="507.391,126.563 520.793,134.605 534.198,142.647 520.794,150.69 507.391,158.733 		"/>
		<polyline fill="#FFCE0C" points="480.581,174.817 493.987,182.859 507.394,190.902 507.394,174.817 507.394,158.733 		"/>
		<polyline fill="#6FC498" points="480.583,174.817 480.583,158.733 480.583,142.647 493.987,150.69 507.391,158.733 		"/>
		<g>
			<g>
				<g>
					
						<line fill="none" stroke="#FFFFFF" stroke-width="0.6434" stroke-miterlimit="10" x1="507.396" y1="126.563" x2="507.396" y2="127.313"/>
					
						<line fill="none" stroke="#FFFFFF" stroke-width="0.6434" stroke-miterlimit="10" stroke-dasharray="1.4605,1.4605" x1="507.396" y1="128.773" x2="507.39" y2="157.253"/>
					
						<line fill="none" stroke="#FFFFFF" stroke-width="0.6434" stroke-miterlimit="10" x1="507.39" y1="157.982" x2="507.39" y2="158.733"/>
				</g>
			</g>
			<g>
				<g>
					
						<line fill="none" stroke="#FFFFFF" stroke-width="0.6434" stroke-miterlimit="10" x1="507.39" y1="158.733" x2="508.033" y2="159.119"/>
					
						<line fill="none" stroke="#FFFFFF" stroke-width="0.6434" stroke-miterlimit="10" stroke-dasharray="1.5664,1.5664" x1="509.377" y1="159.926" x2="532.883" y2="174.028"/>
					
						<line fill="none" stroke="#FFFFFF" stroke-width="0.6434" stroke-miterlimit="10" x1="533.555" y1="174.432" x2="534.198" y2="174.817"/>
				</g>
			</g>
			<g>
				<g>
					
						<line fill="none" stroke="#FFFFFF" stroke-width="0.6434" stroke-miterlimit="10" x1="507.39" y1="158.733" x2="506.746" y2="159.119"/>
					
						<line fill="none" stroke="#FFFFFF" stroke-width="0.6434" stroke-miterlimit="10" stroke-dasharray="1.5664,1.5664" x1="505.402" y1="159.926" x2="481.896" y2="174.028"/>
					
						<line fill="none" stroke="#FFFFFF" stroke-width="0.6434" stroke-miterlimit="10" x1="481.225" y1="174.432" x2="480.581" y2="174.817"/>
				</g>
			</g>
		</g>
		<g>
			
				<line fill="none" stroke="#FFFFFF" stroke-width="0.6434" stroke-miterlimit="10" x1="507.396" y1="190.902" x2="507.39" y2="158.733"/>
			
				<line fill="none" stroke="#FFFFFF" stroke-width="0.6434" stroke-miterlimit="10" x1="507.39" y1="158.733" x2="534.198" y2="142.647"/>
			
				<line fill="none" stroke="#FFFFFF" stroke-width="0.6434" stroke-miterlimit="10" x1="507.39" y1="158.733" x2="480.581" y2="142.647"/>
		</g>
	</g>
	
		<rect x="467.428" y="230.514" fill="#FFFFFF" stroke="#EF4069" stroke-width="0.5395" stroke-miterlimit="10" width="80.296" height="6.543"/>
	
		<rect x="467.428" y="101.148" fill="#FFFFFF" stroke="#EF4069" stroke-width="0.5395" stroke-miterlimit="10" width="80.296" height="6.543"/>
	
		<line fill="none" stroke="#EF3B68" stroke-width="5.5904" stroke-miterlimit="10" x1="460.451" y1="108.058" x2="554.815" y2="108.058"/>
	
		<line fill="none" stroke="#EF3B68" stroke-width="5.5904" stroke-miterlimit="10" x1="460.451" y1="229.999" x2="554.815" y2="229.999"/>
	<g>
		<path d="M499.915,197.536h2.088v9.275h-2.088v-3.936h-3.506v3.936h-2.088v-9.275h2.088v3.546h3.506V197.536z"/>
		<path d="M507.771,206.998c-0.651,0-1.214-0.092-1.687-0.275c-0.473-0.182-0.863-0.438-1.171-0.762
			c-0.308-0.326-0.535-0.715-0.683-1.164c-0.146-0.451-0.221-0.949-0.221-1.492v-5.769h2.088v5.593c0,0.375,0.042,0.695,0.127,0.957
			c0.085,0.264,0.201,0.479,0.349,0.643c0.146,0.166,0.325,0.283,0.535,0.355c0.209,0.07,0.439,0.107,0.688,0.107
			c0.509,0,0.922-0.156,1.238-0.469s0.476-0.844,0.476-1.594v-5.593h2.087v5.769c0,0.543-0.075,1.043-0.228,1.498
			c-0.151,0.455-0.384,0.846-0.695,1.172c-0.313,0.324-0.71,0.576-1.191,0.756C509.002,206.908,508.431,206.998,507.771,206.998z"/>
		<path d="M516.696,206.93c-0.509,0-1.015-0.016-1.52-0.047c-0.504-0.031-1.028-0.104-1.572-0.221v-8.993
			c0.429-0.08,0.896-0.141,1.405-0.181s0.981-0.06,1.419-0.06c0.589,0,1.131,0.042,1.626,0.127s0.921,0.229,1.278,0.435
			c0.356,0.205,0.635,0.476,0.836,0.81c0.201,0.335,0.301,0.748,0.301,1.238c0,0.741-0.356,1.325-1.07,1.752
			c0.589,0.225,0.99,0.527,1.204,0.91c0.215,0.385,0.321,0.816,0.321,1.299c0,0.973-0.354,1.703-1.063,2.195
			C519.152,206.686,518.097,206.93,516.696,206.93z M515.639,201.176h1.018c0.643,0,1.102-0.082,1.378-0.248
			c0.276-0.164,0.415-0.429,0.415-0.795c0-0.375-0.143-0.638-0.428-0.79c-0.286-0.151-0.705-0.228-1.259-0.228
			c-0.178,0-0.37,0.003-0.575,0.007c-0.205,0.005-0.388,0.016-0.549,0.033V201.176z M515.639,202.768v2.396
			c0.152,0.018,0.316,0.031,0.495,0.041c0.179,0.008,0.375,0.012,0.589,0.012c0.625,0,1.129-0.088,1.513-0.268
			c0.383-0.178,0.575-0.508,0.575-0.99c0-0.428-0.16-0.732-0.481-0.916s-0.781-0.275-1.379-0.275H515.639z"/>
	</g>
	<rect x="464.981" y="158.731" fill="#EF3B68" width="3.347" height="17.88"/>
	<rect x="547.509" y="158.731" fill="#EF3B68" width="3.345" height="17.88"/>
</g>
<g>
	<g>
		<path fill="none" d="M467.301,238.067"/>
	</g>
	<g>
		<path fill="none" d="M467.301,224.64"/>
	</g>
	<g>
		<path fill="none" d="M489.832,216.354"/>
	</g>
	<g>
		<path fill="none" d="M484.999,231.556"/>
	</g>
	<g>
		<path fill="none" d="M481.17,223.897"/>
	</g>
	<g>
		<path fill="none" d="M448.137,231.556"/>
	</g>
	<g>
		<path fill="none" d="M451.966,223.897"/>
	</g>
</g>
<g>
	<path fill-rule="evenodd" clip-rule="evenodd" d="M367.298,247.745c0,6.354-5.152,11.506-11.506,11.506H79.647
		c-6.354,0-11.506-5.151-11.506-11.506V84.006c0-6.355,5.151-11.506,11.506-11.506h276.145c6.354,0,11.506,5.151,11.506,11.506
		V247.745z"/>
	<polygon fill-rule="evenodd" clip-rule="evenodd" fill="#C2C1C1" points="68.037,249.672 21.232,324.21 412.437,323.535 
		367.4,249.22 	"/>
	<path fill-rule="evenodd" clip-rule="evenodd" fill="#676767" d="M412.871,323.896L412.871,323.896
		c0,4.197-4.438,7.601-9.911,7.601H31.599c-5.474,0-9.913-3.403-9.913-7.601l0,0"/>
	<rect x="84.819" y="87.516" fill-rule="evenodd" clip-rule="evenodd" fill="#3499CD" width="265.953" height="148.096"/>
</g>
<g>
	<g opacity="0.15">
		<polygon fill="#090909" points="87.604,271.512 78.454,271.512 82.597,262.219 91.448,262.219 		"/>
		<polygon fill="#090909" points="94.667,283.239 73.225,283.239 77.369,273.945 98.135,273.945 		"/>
		<polygon fill="#090909" points="90.375,296.072 68,296.072 72.128,286.779 93.829,286.779 		"/>
		<polygon fill="#090909" points="98.586,271.512 89.434,271.512 93.217,262.219 102.069,262.219 		"/>
		<polygon fill="#090909" points="109.566,271.512 100.416,271.512 103.838,262.219 112.689,262.219 		"/>
		<polygon fill="#090909" points="120.548,271.512 111.397,271.512 114.459,262.219 123.31,262.219 		"/>
		<polygon fill="#090909" points="131.531,271.512 122.379,271.512 125.081,262.219 133.932,262.219 		"/>
		<polygon fill="#090909" points="142.511,271.512 133.36,271.512 135.702,262.219 144.552,262.219 		"/>
		<polygon fill="#090909" points="153.492,271.512 144.341,271.512 146.322,262.219 155.172,262.219 		"/>
		<polygon fill="#090909" points="164.474,271.512 155.322,271.512 156.943,262.219 165.794,262.219 		"/>
		<polygon fill="#090909" points="175.456,271.512 166.305,271.512 167.565,262.219 176.416,262.219 		"/>
		<polygon fill="#090909" points="186.436,271.512 177.285,271.512 178.185,262.219 187.036,262.219 		"/>
		<polygon fill="#090909" points="197.417,271.512 188.267,271.512 188.806,262.219 197.657,262.219 		"/>
		<polygon fill="#090909" points="208.399,271.512 199.248,271.512 199.427,262.219 208.278,262.219 		"/>
		<polygon fill="#090909" points="219.38,271.512 210.229,271.512 210.048,262.219 218.899,262.219 		"/>
		<polygon fill="#090909" points="230.362,271.512 221.21,271.512 220.668,262.219 229.52,262.219 		"/>
		<polygon fill="#090909" points="241.342,271.512 232.191,271.512 231.29,262.219 240.14,262.219 		"/>
		<polygon fill="#090909" points="252.325,271.512 243.173,271.512 241.911,262.219 250.762,262.219 		"/>
		<polygon fill="#090909" points="263.306,271.512 254.155,271.512 252.532,262.219 261.382,262.219 		"/>
		<polygon fill="#090909" points="274.287,271.512 265.136,271.512 263.153,262.219 272.003,262.219 		"/>
		<polygon fill="#090909" points="285.269,271.512 276.118,271.512 273.774,262.219 282.625,262.219 		"/>
		<polygon fill="#090909" points="296.25,271.512 287.099,271.512 284.395,262.219 293.246,262.219 		"/>
		<polygon fill="#090909" points="307.232,271.512 298.08,271.512 295.015,262.219 303.867,262.219 		"/>
		<polygon fill="#090909" points="318.213,271.512 309.062,271.512 305.637,262.219 314.487,262.219 		"/>
		<polygon fill="#090909" points="329.194,271.512 320.043,271.512 316.258,262.219 325.108,262.219 		"/>
		<polygon fill="#090909" points="340.176,271.512 331.024,271.512 326.879,262.219 335.729,262.219 		"/>
		<polygon fill="#090909" points="351.157,271.512 342.006,271.512 337.5,262.219 346.351,262.219 		"/>
		<polygon fill="#090909" points="72.506,308.021 62.175,308.021 66.319,298.728 76.35,298.728 		"/>
		<polygon fill="#090909" points="84.903,308.021 74.571,308.021 78.355,298.728 88.386,298.728 		"/>
		<polygon fill="#090909" points="97.3,308.021 86.969,308.021 90.392,298.728 100.422,298.728 		"/>
		<polygon fill="#090909" points="109.697,308.021 99.366,308.021 102.429,298.728 112.459,298.728 		"/>
		<polygon fill="#090909" points="122.096,308.021 111.764,308.021 114.466,298.728 124.498,298.728 		"/>
		<polygon fill="#090909" points="134.492,308.021 124.161,308.021 126.503,298.728 136.533,298.728 		"/>
		<polygon fill="#090909" points="295.139,308.021 137.074,308.021 139.041,298.728 292.51,298.728 		"/>
		<polygon fill="#090909" points="308.054,308.021 297.723,308.021 295.018,298.728 305.049,298.728 		"/>
		<polygon fill="#090909" points="320.451,308.021 310.119,308.021 307.054,298.728 317.086,298.728 		"/>
		<polygon fill="#090909" points="332.848,308.021 322.517,308.021 319.092,298.728 329.122,298.728 		"/>
		<polygon fill="#090909" points="345.245,308.021 334.914,308.021 331.129,298.728 341.159,298.728 		"/>
		<polygon fill="#090909" points="357.643,308.021 347.312,308.021 343.166,298.728 353.196,298.728 		"/>
		<polygon fill="#090909" points="370.04,308.021 359.709,308.021 355.202,298.728 365.233,298.728 		"/>
		<polygon fill="#090909" points="105.626,283.239 96.096,283.239 99.52,273.945 108.749,273.945 		"/>
		<polygon fill="#090909" points="117.063,283.239 107.533,283.239 110.595,273.945 119.825,273.945 		"/>
		<polygon fill="#090909" points="128.5,283.239 118.969,283.239 121.671,273.945 130.902,273.945 		"/>
		<polygon fill="#090909" points="139.935,283.239 130.405,283.239 132.747,273.945 141.977,273.945 		"/>
		<polygon fill="#090909" points="151.371,283.239 141.84,283.239 143.822,273.945 153.051,273.945 		"/>
		<polygon fill="#090909" points="162.808,283.239 153.277,283.239 154.898,273.945 164.128,273.945 		"/>
		<polygon fill="#090909" points="174.244,283.239 164.714,283.239 165.975,273.945 175.204,273.945 		"/>
		<polygon fill="#090909" points="185.679,283.239 176.149,283.239 177.049,273.945 186.279,273.945 		"/>
		<polygon fill="#090909" points="197.116,283.239 187.586,283.239 188.125,273.945 197.355,273.945 		"/>
		<polygon fill="#090909" points="208.552,283.239 199.022,283.239 199.201,273.945 208.431,273.945 		"/>
		<polygon fill="#090909" points="219.988,283.239 210.458,283.239 210.277,273.945 219.507,273.945 		"/>
		<polygon fill="#090909" points="231.425,283.239 221.894,283.239 221.352,273.945 230.583,273.945 		"/>
		<polygon fill="#090909" points="242.86,283.239 233.33,283.239 232.428,273.945 241.657,273.945 		"/>
		<polygon fill="#090909" points="254.297,283.239 244.766,283.239 243.504,273.945 252.734,273.945 		"/>
		<polygon fill="#090909" points="265.732,283.239 256.203,283.239 254.58,273.945 263.809,273.945 		"/>
		<polygon fill="#090909" points="277.169,283.239 267.639,283.239 265.655,273.945 274.885,273.945 		"/>
		<polygon fill="#090909" points="288.605,283.239 279.075,283.239 276.731,273.945 285.961,273.945 		"/>
		<polygon fill="#090909" points="300.042,283.239 290.512,283.239 287.807,273.945 297.037,273.945 		"/>
		<polygon fill="#090909" points="311.479,283.239 301.947,283.239 298.882,273.945 308.113,273.945 		"/>
		<polygon fill="#090909" points="322.913,283.239 313.384,283.239 309.958,273.945 319.188,273.945 		"/>
		<polygon fill="#090909" points="334.35,283.239 324.82,283.239 321.034,273.945 330.264,273.945 		"/>
		<polygon fill="#090909" points="345.786,283.239 336.256,283.239 332.11,273.945 341.34,273.945 		"/>
		<polygon fill="#090909" points="363.517,295.408 353.593,295.408 343.186,273.945 352.416,273.945 		"/>
		<polygon fill="#090909" points="101.314,296.072 91.37,296.072 94.792,286.779 104.437,286.779 		"/>
		<polygon fill="#090909" points="113.249,296.072 103.304,296.072 106.366,286.779 116.01,286.779 		"/>
		<polygon fill="#090909" points="125.184,296.072 115.238,296.072 117.94,286.779 127.585,286.779 		"/>
		<polygon fill="#090909" points="137.117,296.072 127.172,296.072 129.513,286.779 139.158,286.779 		"/>
		<polygon fill="#090909" points="149.049,296.072 139.105,296.072 141.086,286.779 150.73,286.779 		"/>
		<polygon fill="#090909" points="160.984,296.072 151.039,296.072 152.66,286.779 162.305,286.779 		"/>
		<polygon fill="#090909" points="172.918,296.072 162.974,296.072 164.234,286.779 173.878,286.779 		"/>
		<polygon fill="#090909" points="184.852,296.072 174.907,296.072 175.807,286.779 185.451,286.779 		"/>
		<polygon fill="#090909" points="196.785,296.072 186.841,296.072 187.38,286.779 197.024,286.779 		"/>
		<polygon fill="#090909" points="208.719,296.072 198.775,296.072 198.954,286.779 208.598,286.779 		"/>
		<polygon fill="#090909" points="220.653,296.072 210.709,296.072 210.527,286.779 220.172,286.779 		"/>
		<polygon fill="#090909" points="232.587,296.072 222.642,296.072 222.1,286.779 231.746,286.779 		"/>
		<polygon fill="#090909" points="244.521,296.072 234.576,296.072 233.674,286.779 243.318,286.779 		"/>
		<polygon fill="#090909" points="256.456,296.072 246.51,296.072 245.247,286.779 254.893,286.779 		"/>
		<polygon fill="#090909" points="268.388,296.072 258.444,296.072 256.821,286.779 266.465,286.779 		"/>
		<polygon fill="#090909" points="280.322,296.072 270.377,296.072 268.395,286.779 278.039,286.779 		"/>
		<polygon fill="#090909" points="292.256,296.072 282.312,296.072 279.968,286.779 289.612,286.779 		"/>
		<polygon fill="#090909" points="304.19,296.072 294.246,296.072 291.542,286.779 301.186,286.779 		"/>
		<polygon fill="#090909" points="316.125,296.072 306.179,296.072 303.114,286.779 312.76,286.779 		"/>
		<polygon fill="#090909" points="328.058,296.072 318.113,296.072 314.688,286.779 324.333,286.779 		"/>
		<polygon fill="#090909" points="339.992,296.072 330.047,296.072 326.262,286.779 335.906,286.779 		"/>
		<polygon fill="#090909" points="351.926,296.072 341.981,296.072 337.836,286.779 347.479,286.779 		"/>
	</g>
	<g>
		<g>
			<polygon points="87.604,270.825 78.454,270.825 82.597,261.532 91.448,261.532 			"/>
			<polygon points="94.667,282.553 73.225,282.553 77.369,273.259 98.135,273.259 			"/>
			<polygon points="90.375,295.386 68,295.386 72.128,286.093 93.829,286.093 			"/>
			<polygon points="98.586,270.825 89.434,270.825 93.217,261.532 102.069,261.532 			"/>
			<polygon points="109.566,270.825 100.416,270.825 103.838,261.532 112.689,261.532 			"/>
			<polygon points="120.548,270.825 111.397,270.825 114.459,261.532 123.31,261.532 			"/>
			<polygon points="131.531,270.825 122.379,270.825 125.081,261.532 133.932,261.532 			"/>
			<polygon points="142.511,270.825 133.36,270.825 135.702,261.532 144.552,261.532 			"/>
			<polygon points="153.492,270.825 144.341,270.825 146.322,261.532 155.172,261.532 			"/>
			<polygon points="164.474,270.825 155.322,270.825 156.943,261.532 165.794,261.532 			"/>
			<polygon points="175.456,270.825 166.305,270.825 167.565,261.532 176.416,261.532 			"/>
			<polygon points="186.436,270.825 177.285,270.825 178.185,261.532 187.036,261.532 			"/>
			<polygon points="197.417,270.825 188.267,270.825 188.806,261.532 197.657,261.532 			"/>
			<polygon points="208.399,270.825 199.248,270.825 199.427,261.532 208.278,261.532 			"/>
			<polygon points="219.38,270.825 210.229,270.825 210.048,261.532 218.899,261.532 			"/>
			<polygon points="230.362,270.825 221.21,270.825 220.668,261.532 229.52,261.532 			"/>
			<polygon points="241.342,270.825 232.191,270.825 231.29,261.532 240.14,261.532 			"/>
			<polygon points="252.325,270.825 243.173,270.825 241.911,261.532 250.762,261.532 			"/>
			<polygon points="263.306,270.825 254.155,270.825 252.532,261.532 261.382,261.532 			"/>
			<polygon points="274.287,270.825 265.136,270.825 263.153,261.532 272.003,261.532 			"/>
			<polygon points="285.269,270.825 276.118,270.825 273.774,261.532 282.625,261.532 			"/>
			<polygon points="296.25,270.825 287.099,270.825 284.395,261.532 293.246,261.532 			"/>
			<polygon points="307.232,270.825 298.08,270.825 295.015,261.532 303.867,261.532 			"/>
			<polygon points="318.213,270.825 309.062,270.825 305.637,261.532 314.487,261.532 			"/>
			<polygon points="329.194,270.825 320.043,270.825 316.258,261.532 325.108,261.532 			"/>
			<polygon points="340.176,270.825 331.024,270.825 326.879,261.532 335.729,261.532 			"/>
			<polygon points="351.157,270.825 342.006,270.825 337.5,261.532 346.351,261.532 			"/>
			<polygon points="72.506,307.335 62.175,307.335 66.319,298.041 76.35,298.041 			"/>
			<polygon points="84.903,307.335 74.571,307.335 78.355,298.041 88.386,298.041 			"/>
			<polygon points="97.3,307.335 86.969,307.335 90.392,298.041 100.422,298.041 			"/>
			<polygon points="109.697,307.335 99.366,307.335 102.429,298.041 112.459,298.041 			"/>
			<polygon points="122.096,307.335 111.764,307.335 114.466,298.041 124.498,298.041 			"/>
			<polygon points="134.492,307.335 124.161,307.335 126.503,298.041 136.533,298.041 			"/>
			<polygon points="295.139,307.335 137.074,307.335 139.041,298.041 292.51,298.041 			"/>
			<polygon points="308.054,307.335 297.723,307.335 295.018,298.041 305.049,298.041 			"/>
			<polygon points="320.451,307.335 310.119,307.335 307.054,298.041 317.086,298.041 			"/>
			<polygon points="332.848,307.335 322.517,307.335 319.092,298.041 329.122,298.041 			"/>
			<polygon points="345.245,307.335 334.914,307.335 331.129,298.041 341.159,298.041 			"/>
			<polygon points="357.643,307.335 347.312,307.335 343.166,298.041 353.196,298.041 			"/>
			<polygon points="370.04,307.335 359.709,307.335 355.202,298.041 365.233,298.041 			"/>
			<polygon points="105.626,282.553 96.096,282.553 99.52,273.259 108.749,273.259 			"/>
			<polygon points="117.063,282.553 107.533,282.553 110.595,273.259 119.825,273.259 			"/>
			<polygon points="128.5,282.553 118.969,282.553 121.671,273.259 130.902,273.259 			"/>
			<polygon points="139.935,282.553 130.405,282.553 132.747,273.259 141.977,273.259 			"/>
			<polygon points="151.371,282.553 141.84,282.553 143.822,273.259 153.051,273.259 			"/>
			<polygon points="162.808,282.553 153.277,282.553 154.898,273.259 164.128,273.259 			"/>
			<polygon points="174.244,282.553 164.714,282.553 165.975,273.259 175.204,273.259 			"/>
			<polygon points="185.679,282.553 176.149,282.553 177.049,273.259 186.279,273.259 			"/>
			<polygon points="197.116,282.553 187.586,282.553 188.125,273.259 197.355,273.259 			"/>
			<polygon points="208.552,282.553 199.022,282.553 199.201,273.259 208.431,273.259 			"/>
			<polygon points="219.988,282.553 210.458,282.553 210.277,273.259 219.507,273.259 			"/>
			<polygon points="231.425,282.553 221.894,282.553 221.352,273.259 230.583,273.259 			"/>
			<polygon points="242.86,282.553 233.33,282.553 232.428,273.259 241.657,273.259 			"/>
			<polygon points="254.297,282.553 244.766,282.553 243.504,273.259 252.734,273.259 			"/>
			<polygon points="265.732,282.553 256.203,282.553 254.58,273.259 263.809,273.259 			"/>
			<polygon points="277.169,282.553 267.639,282.553 265.655,273.259 274.885,273.259 			"/>
			<polygon points="288.605,282.553 279.075,282.553 276.731,273.259 285.961,273.259 			"/>
			<polygon points="300.042,282.553 290.512,282.553 287.807,273.259 297.037,273.259 			"/>
			<polygon points="311.479,282.553 301.947,282.553 298.882,273.259 308.113,273.259 			"/>
			<polygon points="322.913,282.553 313.384,282.553 309.958,273.259 319.188,273.259 			"/>
			<polygon points="334.35,282.553 324.82,282.553 321.034,273.259 330.264,273.259 			"/>
			<polygon points="345.786,282.553 336.256,282.553 332.11,273.259 341.34,273.259 			"/>
			<polygon points="363.517,294.722 353.593,294.722 343.186,273.259 352.416,273.259 			"/>
			<polygon points="101.314,295.386 91.37,295.386 94.792,286.093 104.437,286.093 			"/>
			<polygon points="113.249,295.386 103.304,295.386 106.366,286.093 116.01,286.093 			"/>
			<polygon points="125.184,295.386 115.238,295.386 117.94,286.093 127.585,286.093 			"/>
			<polygon points="137.117,295.386 127.172,295.386 129.513,286.093 139.158,286.093 			"/>
			<polygon points="149.049,295.386 139.105,295.386 141.086,286.093 150.73,286.093 			"/>
			<polygon points="160.984,295.386 151.039,295.386 152.66,286.093 162.305,286.093 			"/>
			<polygon points="172.918,295.386 162.974,295.386 164.234,286.093 173.878,286.093 			"/>
			<polygon points="184.852,295.386 174.907,295.386 175.807,286.093 185.451,286.093 			"/>
			<polygon points="196.785,295.386 186.841,295.386 187.38,286.093 197.024,286.093 			"/>
			<polygon points="208.719,295.386 198.775,295.386 198.954,286.093 208.598,286.093 			"/>
			<polygon points="220.653,295.386 210.709,295.386 210.527,286.093 220.172,286.093 			"/>
			<polygon points="232.587,295.386 222.642,295.386 222.1,286.093 231.746,286.093 			"/>
			<polygon points="244.521,295.386 234.576,295.386 233.674,286.093 243.318,286.093 			"/>
			<polygon points="256.456,295.386 246.51,295.386 245.247,286.093 254.893,286.093 			"/>
			<polygon points="268.388,295.386 258.444,295.386 256.821,286.093 266.465,286.093 			"/>
			<polygon points="280.322,295.386 270.377,295.386 268.395,286.093 278.039,286.093 			"/>
			<polygon points="292.256,295.386 282.312,295.386 279.968,286.093 289.612,286.093 			"/>
			<polygon points="304.19,295.386 294.246,295.386 291.542,286.093 301.186,286.093 			"/>
			<polygon points="316.125,295.386 306.179,295.386 303.114,286.093 312.76,286.093 			"/>
			<polygon points="328.058,295.386 318.113,295.386 314.688,286.093 324.333,286.093 			"/>
			<polygon points="339.992,295.386 330.047,295.386 326.262,286.093 335.906,286.093 			"/>
			<polygon points="351.926,295.386 341.981,295.386 337.836,286.093 347.479,286.093 			"/>
		</g>
	</g>
</g>
</svg>
