<?xml version="1.0" encoding="utf-8"?>
<!-- Generator: Adobe Illustrator 16.0.0, SVG Export Plug-In . SVG Version: 6.00 Build 0)  -->
<!DOCTYPE svg PUBLIC "-//W3C//DTD SVG 1.1//EN" "http://www.w3.org/Graphics/SVG/1.1/DTD/svg11.dtd">
<svg version="1.1" id="Layer_1" xmlns="http://www.w3.org/2000/svg" xmlns:xlink="http://www.w3.org/1999/xlink" x="0px" y="0px"
	 width="432px" height="432px" viewBox="-36 0.006 432 432" enable-background="new -36 0.006 432 432" xml:space="preserve">
<g>
	<g>
		<polygon fill="#3399CC" points="180.008,216.006 270.024,270.006 360.001,324.006 270.005,378.006 180.008,432.006 
			180.008,324.006 		"/>
		<polygon fill="#996699" points="360.001,108.006 270.102,162.006 180.008,216.006 270.003,270.006 360.001,324.006 
			360.001,216.006 		"/>
		<polygon fill="#F8983A" points="180.024,0.006 90.009,54.006 0,108.006 90.012,162.006 180.024,216.006 180.024,108.006 		"/>
		<polygon fill="#EF3A68" points="180.008,0.006 269.997,54.006 360.001,108.006 270.005,162.006 180.008,216.006 180.008,108.006 
					"/>
		<polygon fill="#FFCE0C" points="180.025,216.006 90.009,270.006 0,324.006 90.012,378.006 180.025,432.006 180.025,324.006 		"/>
		<polygon fill="#6FC499" points="0.017,108.006 90.006,162.006 180.008,216.006 90.014,270.006 0.017,324.006 0.017,216.006 		"/>
	</g>
	<g>
		<g>
			<path fill="#FFFFFF" d="M181.295,228.295c0,0-0.417-2.435-0.672-6.56c-0.167-2.058-0.167-4.572-0.312-7.361
				c-0.118-2.784-0.21-5.878-0.176-9.181c-0.108-3.348-0.062-6.924-0.03-10.647c-0.091-3.72,0.089-7.606-0.035-11.527
				c-0.035-1.962,0.061-3.963-0.073-5.928c-0.025-0.985-0.053-1.977-0.08-2.972c-0.024-0.992,0.007-1.999-0.098-2.968
				c-0.161-1.942-0.187-3.944-0.366-5.859c-0.099-0.953-0.217-1.905-0.292-2.861l-0.119-1.434c-0.042-0.477-0.146-0.917-0.215-1.378
				l-0.396-2.746l-0.095-0.688l-0.144-0.647l-0.277-1.294l-0.268-1.297c-0.088-0.432-0.146-0.88-0.285-1.265
				c-0.233-0.803-0.476-1.601-0.677-2.415c-1.005-3.095-2.131-5.908-3.585-8.316c-1.487-2.359-3.255-4.418-5.402-6.198
				c-2.135-1.778-4.636-3.252-7.236-4.417c-2.604-1.152-5.287-1.986-7.769-2.605c-2.491-0.646-4.788-1.015-6.721-1.278
				c-0.978-0.141-1.838-0.204-2.621-0.285c-0.757-0.044-1.441-0.092-1.974-0.093c-0.53,0.013-0.977-0.006-1.239,0.051
				c-0.294,0.045-0.446,0.068-0.446,0.068s0.083-0.127,0.244-0.374c0.17-0.274,0.462-0.61,0.883-1.031
				c0.84-0.825,2.182-1.95,4.053-3.061c1.867-1.145,4.261-2.339,7.203-3.304c2.939-0.947,6.431-1.783,10.455-1.934
				c4.009-0.145,8.581,0.338,13.308,1.996c4.716,1.634,9.515,4.535,13.53,8.497c3.982,3.987,7.035,8.856,9.244,13.924
				c0.512,1.264,0.986,2.551,1.471,3.841c0.5,1.291,0.756,2.571,1.124,3.873c0.783,2.608,1.123,5.178,1.536,7.761
				c0.084,0.644,0.206,1.299,0.257,1.934l0.14,1.902c0.097,1.267,0.149,2.536,0.222,3.799c0.11,1.276,0.019,2.49,0,3.728
				c-0.035,1.23-0.057,2.457-0.118,3.676c-0.339,4.822-0.921,9.506-1.913,13.87c-0.834,4.424-2.161,8.498-3.375,12.365
				c-1.328,3.824-2.813,7.342-4.216,10.562c-1.54,3.207-3.075,6.078-4.471,8.582c-0.707,1.261-1.39,2.381-2.09,3.408
				c-0.685,1.03-1.302,1.98-1.908,2.826C182.913,226.429,181.294,228.295,181.295,228.295z"/>
		</g>
		<g>
			<g>
				<path fill="#FFFFFF" d="M173.328,219.375c0,0,1.551-1.925,4.482-4.85c1.436-1.487,3.32-3.156,5.327-5.109
					c2.015-1.934,4.281-4.053,6.787-6.214c2.453-2.287,5.166-4.635,8.001-7.065c2.734-2.538,5.797-4.96,8.67-7.651
					c3.003-2.579,5.882-5.333,8.813-8.025c1.371-1.402,2.834-2.762,4.204-4.145c0.654-0.706,1.295-1.425,1.968-2.113
					c0.656-0.697,1.38-1.37,1.929-2.104c1.17-1.425,2.505-2.806,3.488-4.237c0.536-0.703,1.07-1.404,1.604-2.104
					c0.451-0.706,0.892-1.417,1.373-2.106c1.702-2.795,3.182-5.502,3.995-8.166c0.832-2.66,1.245-5.319,1.188-8.084
					c-0.05-2.755-0.583-5.593-1.429-8.305c-0.873-2.699-2.019-5.262-3.213-7.524c-1.179-2.289-2.439-4.244-3.534-5.862
					c-1.104-1.626-2.08-2.853-2.793-3.674c-0.366-0.387-0.651-0.73-0.869-0.89c-0.231-0.188-0.35-0.286-0.35-0.286
					s0.149-0.022,0.44-0.067c0.318-0.058,0.765-0.064,1.36-0.032c1.177,0.075,2.914,0.322,4.993,0.976
					c2.101,0.63,4.595,1.617,7.28,3.176c2.674,1.565,5.62,3.637,8.424,6.558c2.774,2.924,5.449,6.709,7.306,11.402
					c1.87,4.667,2.794,10.24,2.386,15.878c-0.379,5.667-2.163,11.122-4.554,16.085c-0.618,1.217-1.28,2.421-1.937,3.635
					c-0.687,1.166-1.455,2.244-2.204,3.363c-1.451,2.311-3.195,4.196-4.856,6.23c-0.834,1.029-1.752,1.883-2.64,2.797
					c-0.892,0.907-1.812,1.782-2.715,2.667c-0.898,0.896-1.871,1.631-2.813,2.434c-0.949,0.785-1.886,1.576-2.843,2.333
					c-3.86,2.9-7.767,5.549-11.701,7.681c-3.875,2.295-7.82,3.972-11.525,5.625c-3.757,1.516-7.373,2.744-10.727,3.812
					c-3.426,0.967-6.598,1.717-9.402,2.326c-1.415,0.306-2.708,0.531-3.944,0.688c-1.227,0.171-2.35,0.338-3.386,0.442
					C175.801,219.352,173.328,219.375,173.328,219.375z"/>
				<path fill="#FFFFFF" d="M177.122,203.297c0,0,1.962,1.505,4.958,4.365c1.523,1.397,3.235,3.248,5.24,5.199
					c1.982,1.968,4.156,4.181,6.378,6.631c2.36,2.389,4.758,5.052,7.273,7.812c2.599,2.676,5.112,5.656,7.874,8.459
					c1.361,1.421,2.652,2.959,4.09,4.315c0.689,0.708,1.385,1.42,2.083,2.136c0.694,0.712,1.354,1.479,2.092,2.121
					c1.44,1.326,2.825,2.778,4.26,4.076c0.723,0.637,1.458,1.26,2.165,1.914c0.708,0.657,1.415,1.318,2.161,1.854
					c1.451,1.156,2.879,2.404,4.337,3.363l1.083,0.777c0.362,0.25,0.707,0.563,1.073,0.753c0.721,0.438,1.444,0.864,2.149,1.331
					c2.856,1.621,5.62,3.001,8.344,3.79c2.717,0.771,5.429,1.131,8.222,1.031c2.785-0.092,5.63-0.653,8.345-1.52
					c2.698-0.897,5.258-2.053,7.516-3.26c2.284-1.188,4.229-2.463,5.844-3.564c1.62-1.111,2.837-2.098,3.656-2.815
					c0.382-0.367,0.726-0.655,0.881-0.876c0.186-0.232,0.281-0.354,0.281-0.354s0.025,0.149,0.073,0.44
					c0.062,0.318,0.07,0.764,0.043,1.36c-0.067,1.177-0.303,2.919-0.946,5.002c-0.621,2.104-1.594,4.608-3.14,7.302
					c-1.553,2.684-3.615,5.636-6.51,8.456c-2.904,2.79-6.656,5.48-11.298,7.387c-4.617,1.918-10.123,2.937-15.736,2.671
					c-5.625-0.271-11.116-1.858-16.146-4.103c-1.229-0.585-2.446-1.214-3.674-1.835c-1.222-0.626-2.289-1.386-3.435-2.097
					c-2.339-1.391-4.316-3.058-6.374-4.673c-1.045-0.809-1.967-1.682-2.887-2.556c-0.931-0.864-1.83-1.763-2.74-2.642
					c-0.946-0.863-1.698-1.82-2.527-2.74c-0.81-0.929-1.626-1.845-2.408-2.782c-3.025-3.775-5.782-7.613-8.022-11.494
					c-2.396-3.819-4.196-7.716-5.937-11.385c-1.63-3.713-2.933-7.31-4.097-10.63c-1.053-3.403-1.882-6.559-2.563-9.35
					c-0.339-1.408-0.604-2.695-0.788-3.927c-0.201-1.224-0.396-2.343-0.524-3.375C177.206,205.77,177.123,203.297,177.122,203.297z"
					/>
				<path fill="#FFFFFF" d="M188.812,224.26c0,0-2.001-1.453-5.07-4.233c-1.56-1.357-3.32-3.163-5.375-5.062
					c-2.033-1.914-4.264-4.07-6.551-6.462c-2.421-2.326-4.889-4.926-7.476-7.62c-2.668-2.606-5.26-5.521-8.093-8.252
					c-1.398-1.384-2.729-2.889-4.202-4.208c-0.708-0.69-1.421-1.384-2.138-2.081c-0.714-0.694-1.393-1.444-2.146-2.067
					c-1.477-1.288-2.897-2.705-4.366-3.965c-0.739-0.618-1.49-1.221-2.214-1.856c-0.726-0.64-1.448-1.283-2.209-1.801
					c-1.481-1.116-2.941-2.331-4.426-3.251l-1.103-0.75c-0.368-0.239-0.721-0.548-1.092-0.728c-0.732-0.418-1.469-0.826-2.186-1.274
					c-2.897-1.548-5.697-2.859-8.44-3.577c-2.737-0.7-5.457-0.991-8.246-0.822c-2.781,0.163-5.611,0.797-8.302,1.731
					c-2.673,0.969-5.203,2.188-7.428,3.454c-2.252,1.248-4.163,2.572-5.749,3.717c-1.59,1.154-2.78,2.173-3.58,2.912
					c-0.372,0.378-0.708,0.675-0.857,0.899c-0.181,0.238-0.272,0.361-0.272,0.361s-0.028-0.149-0.085-0.439
					c-0.068-0.317-0.09-0.761-0.08-1.359c0.037-1.178,0.226-2.926,0.814-5.025c0.564-2.12,1.472-4.649,2.948-7.383
					c1.481-2.724,3.468-5.729,6.29-8.624c2.832-2.865,6.515-5.652,11.107-7.676c4.568-2.034,10.047-3.192,15.665-3.069
					c5.631,0.126,11.159,1.574,16.246,3.688c1.244,0.553,2.477,1.15,3.719,1.74c1.235,0.595,2.324,1.326,3.487,2.007
					c2.375,1.329,4.392,2.945,6.492,4.507c1.065,0.78,2.008,1.63,2.951,2.479c0.952,0.841,1.875,1.714,2.808,2.57
					c0.968,0.838,1.744,1.775,2.597,2.674c0.833,0.906,1.675,1.802,2.481,2.719c3.122,3.696,5.978,7.461,8.319,11.282
					c2.494,3.755,4.396,7.603,6.231,11.226c1.727,3.67,3.122,7.231,4.373,10.521c1.142,3.376,2.054,6.508,2.807,9.279
					c0.376,1.399,0.674,2.68,0.892,3.906c0.231,1.218,0.456,2.331,0.613,3.361C188.663,221.79,188.812,224.26,188.812,224.26z"/>
				<path fill="#FFFFFF" d="M192.261,213.711c0,0-1.639,1.853-4.699,4.641c-1.502,1.421-3.462,3.002-5.557,4.862
					c-2.102,1.839-4.463,3.853-7.064,5.897c-2.556,2.174-5.373,4.396-8.317,6.693c-1.438,1.193-2.918,2.392-4.448,3.573
					c-0.752,0.604-1.553,1.173-2.296,1.801c-0.75,0.623-1.497,1.262-2.268,1.875c-3.119,2.439-6.122,5.06-9.175,7.615
					c-1.436,1.339-2.958,2.63-4.393,3.948c-0.687,0.675-1.359,1.363-2.063,2.021c-0.688,0.667-1.444,1.305-2.026,2.013
					c-1.231,1.371-2.633,2.688-3.682,4.074c-0.568,0.678-1.136,1.354-1.701,2.03c-0.483,0.685-0.957,1.375-1.469,2.042
					c-1.831,2.715-3.442,5.353-4.375,7.978c-0.957,2.62-1.496,5.258-1.57,8.021c-0.081,2.755,0.319,5.613,1.038,8.36
					c0.748,2.735,1.771,5.351,2.861,7.664c1.07,2.342,2.24,4.354,3.261,6.021c1.027,1.675,1.948,2.944,2.623,3.799
					c0.348,0.402,0.617,0.76,0.828,0.928c0.222,0.199,0.337,0.303,0.337,0.303s-0.151,0.017-0.444,0.049
					c-0.32,0.042-0.767,0.027-1.359-0.03c-1.173-0.129-2.896-0.455-4.943-1.205c-2.07-0.726-4.519-1.826-7.129-3.508
					c-2.601-1.688-5.447-3.896-8.113-6.943c-2.637-3.051-5.132-6.959-6.766-11.735c-1.648-4.752-2.309-10.364-1.636-15.976
					c0.642-5.645,2.683-11.006,5.301-15.852c0.674-1.188,1.391-2.359,2.101-3.541c0.742-1.129,1.558-2.174,2.357-3.257
					c1.556-2.241,3.387-4.042,5.139-5.999c0.88-0.989,1.837-1.798,2.767-2.671c0.932-0.865,1.891-1.697,2.833-2.541
					c0.94-0.853,1.944-1.543,2.923-2.302c0.983-0.739,1.955-1.487,2.946-2.199c3.988-2.723,8.013-5.188,12.041-7.139
					c2.001-1.019,3.972-2.003,5.961-2.777c1.972-0.827,3.914-1.596,5.811-2.314c3.823-1.343,7.491-2.405,10.891-3.318
					c3.467-0.81,6.669-1.415,9.5-1.896c1.427-0.24,2.729-0.407,3.971-0.508c1.234-0.115,2.363-0.23,3.403-0.288
					C189.789,213.622,192.261,213.711,192.261,213.711z"/>
			</g>
		</g>
		<g>
			<g>
				<path fill="#FFFFFF" d="M173.571,214.141c0,0,2.455-0.325,6.601-0.423c2.07-0.088,4.592,0.003,7.396-0.029
					c2.797-0.011,5.906,0.018,9.219,0.179c3.361,0.033,6.952,0.205,10.69,0.397c3.738,0.049,7.636,0.403,11.583,0.438
					c3.964,0.203,7.96,0.194,11.953,0.27c1.967-0.067,3.97-0.044,5.925-0.096c0.965-0.059,1.93-0.137,2.896-0.17
					c0.959-0.055,1.955-0.035,2.864-0.187c1.837-0.227,3.771-0.295,5.484-0.649c0.881-0.138,1.761-0.272,2.638-0.408
					c0.821-0.199,1.638-0.408,2.469-0.575c3.192-0.841,6.203-1.747,8.653-3.124c2.488-1.337,4.668-2.957,6.579-4.968
					c1.907-2.001,3.528-4.39,4.821-6.918c1.261-2.538,2.25-5.164,2.977-7.619c0.76-2.461,1.213-4.742,1.56-6.669
					c0.344-1.938,0.491-3.498,0.552-4.587c0.004-0.531,0.039-0.979-0.01-1.245c-0.037-0.296-0.055-0.449-0.055-0.449
					s0.125,0.087,0.366,0.257c0.271,0.181,0.595,0.485,1.003,0.924c0.792,0.874,1.873,2.266,2.908,4.189
					c1.063,1.922,2.171,4.377,3,7.38c0.819,2.999,1.459,6.555,1.417,10.618c-0.068,4.047-0.844,8.636-2.828,13.283
					c-1.958,4.639-5.217,9.24-9.438,12.964c-1.073,0.882-2.166,1.779-3.303,2.641c-1.162,0.761-2.348,1.504-3.562,2.233
					l-0.916,0.542c-0.308,0.171-0.618,0.305-0.93,0.459c-0.625,0.296-1.251,0.593-1.88,0.891c-1.268,0.58-2.553,1.174-3.837,1.571
					c-1.287,0.448-2.596,0.856-3.907,1.277c-1.298,0.348-2.6,0.605-3.913,0.892c-2.643,0.664-5.204,0.812-7.811,1.137
					c-1.313,0.167-2.565,0.146-3.84,0.195c-1.271,0.041-2.54,0.038-3.807,0.056c-1.268,0.023-2.479-0.111-3.716-0.183
					c-1.229-0.088-2.454-0.161-3.67-0.273c-4.8-0.563-9.46-1.341-13.788-2.511c-4.396-1.011-8.417-2.515-12.248-3.872
					c-3.774-1.49-7.248-3.097-10.42-4.635c-3.156-1.661-5.977-3.305-8.435-4.797c-1.238-0.754-2.334-1.481-3.34-2.22
					c-1.01-0.724-1.94-1.376-2.766-2.016C175.384,215.829,173.571,214.14,173.571,214.141z"/>
				<path fill="#FFFFFF" d="M187.573,205.17c0,0,0.354,2.442,0.5,6.574c0.114,2.061,0.047,4.575,0.119,7.367
					c0.045,2.786,0.055,5.883-0.065,9.182c0.021,3.35-0.121,6.924-0.25,10.646c-0.007,3.722-0.29,7.602-0.269,11.523
					c-0.017,1.963-0.165,3.96-0.083,5.928c0,0.985,0.001,1.977,0.001,2.974c0,0.992-0.062,1.997,0.019,2.97
					c0.109,1.945,0.083,3.947,0.211,5.866c0.074,0.956,0.167,1.91,0.218,2.868l0.081,1.438c0.028,0.478,0.121,0.921,0.179,1.384
					l0.325,2.755l0.075,0.689l0.127,0.65l0.242,1.303l0.234,1.303c0.078,0.434,0.122,0.885,0.251,1.271
					c0.212,0.81,0.434,1.612,0.614,2.433c0.923,3.12,1.974,5.962,3.363,8.407c1.425,2.396,3.138,4.5,5.235,6.334
					c2.088,1.833,4.549,3.37,7.119,4.603c2.574,1.219,5.233,2.122,7.699,2.805c2.474,0.71,4.76,1.139,6.686,1.452
					c0.974,0.165,1.832,0.251,2.613,0.354c0.756,0.063,1.438,0.13,1.97,0.144c0.531,0.001,0.977,0.03,1.241-0.019
					c0.295-0.038,0.448-0.059,0.448-0.059s-0.086,0.125-0.253,0.367c-0.178,0.271-0.479,0.599-0.91,1.009
					c-0.861,0.804-2.231,1.894-4.13,2.954c-1.896,1.098-4.32,2.229-7.285,3.117c-2.963,0.871-6.476,1.617-10.502,1.664
					c-4.011,0.041-8.57-0.56-13.252-2.34c-4.672-1.756-9.396-4.782-13.307-8.85c-3.877-4.092-6.8-9.04-8.875-14.164
					c-0.479-1.275-0.918-2.575-1.369-3.879c-0.465-1.304-0.688-2.591-1.021-3.9c-0.714-2.629-0.985-5.205-1.33-7.798
					c-0.066-0.646-0.172-1.306-0.206-1.94l-0.089-1.905c-0.063-1.269-0.083-2.539-0.123-3.804c-0.076-1.277,0.048-2.488,0.098-3.725
					c0.067-1.229,0.122-2.454,0.216-3.672c0.466-4.813,1.171-9.479,2.276-13.813c0.95-4.4,2.384-8.438,3.699-12.272
					c1.428-3.787,3.006-7.264,4.493-10.445c1.624-3.165,3.232-5.994,4.695-8.461c0.739-1.242,1.45-2.344,2.178-3.353
					c0.711-1.013,1.353-1.945,1.981-2.773C185.906,206.993,187.573,205.17,187.573,205.17z"/>
				<path fill="#FFFFFF" d="M186.155,217.656c0,0-2.451,0.354-6.596,0.499c-2.068,0.111-4.59,0.05-7.395,0.114
					c-2.797,0.042-5.906,0.05-9.221-0.073c-3.361,0.006-6.954-0.126-10.693-0.275c-3.738-0.006-7.64-0.315-11.587-0.306
					c-3.965-0.158-7.961-0.104-11.955-0.134c-1.967,0.09-3.969,0.089-5.924,0.163c-0.964,0.069-1.927,0.158-2.894,0.204
					c-0.958,0.064-1.954,0.057-2.861,0.219c-1.834,0.248-3.768,0.337-5.476,0.712c-0.881,0.146-1.759,0.293-2.634,0.438
					c-0.818,0.208-1.634,0.427-2.462,0.604c-3.182,0.877-6.183,1.816-8.614,3.223c-2.474,1.365-4.635,3.01-6.521,5.042
					c-1.883,2.022-3.478,4.43-4.741,6.973c-1.229,2.552-2.189,5.189-2.887,7.653c-0.731,2.47-1.158,4.756-1.483,6.687
					c-0.32,1.94-0.449,3.503-0.498,4.593c0.002,0.531-0.027,0.979,0.023,1.245c0.04,0.296,0.06,0.448,0.06,0.448
					s-0.125-0.086-0.368-0.253c-0.272-0.178-0.601-0.479-1.014-0.912c-0.803-0.865-1.898-2.243-2.956-4.155
					c-1.086-1.909-2.221-4.353-3.085-7.345c-0.854-2.989-1.535-6.538-1.539-10.601c0.021-4.048,0.742-8.646,2.673-13.314
					c1.905-4.662,5.11-9.3,9.287-13.073c1.063-0.894,2.146-1.804,3.273-2.678c1.153-0.771,2.33-1.53,3.537-2.272l0.909-0.554
					c0.305-0.174,0.614-0.312,0.924-0.469c0.622-0.303,1.245-0.606,1.87-0.913c1.261-0.595,2.539-1.203,3.818-1.614
					c1.282-0.463,2.586-0.887,3.894-1.321c1.294-0.362,2.593-0.638,3.901-0.938c2.636-0.692,5.194-0.869,7.798-1.225
					c1.311-0.183,2.563-0.173,3.837-0.239c1.27-0.056,2.54-0.068,3.805-0.099c1.267-0.038,2.48,0.083,3.718,0.14
					c1.23,0.073,2.456,0.133,3.673,0.231c4.807,0.509,9.476,1.231,13.814,2.353c4.407,0.96,8.445,2.418,12.291,3.732
					c3.792,1.447,7.282,3.014,10.472,4.515c3.174,1.625,6.015,3.236,8.489,4.7c1.247,0.741,2.351,1.455,3.365,2.182
					c1.018,0.711,1.956,1.354,2.788,1.982C184.322,215.989,186.155,217.656,186.155,217.656z"/>
				<path fill="#FFFFFF" d="M181.295,228.295c0,0-0.417-2.435-0.672-6.56c-0.167-2.058-0.167-4.572-0.312-7.361
					c-0.118-2.784-0.21-5.878-0.176-9.181c-0.108-3.348-0.062-6.924-0.03-10.647c-0.091-3.72,0.089-7.606-0.035-11.527
					c-0.035-1.962,0.061-3.963-0.073-5.928c-0.025-0.985-0.053-1.977-0.08-2.972c-0.024-0.992,0.007-1.999-0.098-2.968
					c-0.161-1.942-0.187-3.944-0.366-5.859c-0.099-0.953-0.217-1.905-0.292-2.861l-0.119-1.434
					c-0.042-0.477-0.146-0.917-0.215-1.378l-0.396-2.746l-0.095-0.688l-0.144-0.647l-0.277-1.294l-0.268-1.297
					c-0.088-0.432-0.146-0.88-0.285-1.265c-0.233-0.803-0.476-1.601-0.677-2.415c-1.005-3.095-2.131-5.908-3.585-8.316
					c-1.487-2.359-3.255-4.418-5.402-6.198c-2.135-1.778-4.636-3.252-7.236-4.417c-2.604-1.152-5.287-1.986-7.769-2.605
					c-2.491-0.646-4.788-1.015-6.721-1.278c-0.978-0.141-1.838-0.204-2.621-0.285c-0.757-0.044-1.441-0.092-1.974-0.093
					c-0.53,0.013-0.977-0.006-1.239,0.051c-0.294,0.045-0.446,0.068-0.446,0.068s0.083-0.127,0.244-0.374
					c0.17-0.274,0.462-0.61,0.883-1.031c0.84-0.825,2.182-1.95,4.053-3.061c1.867-1.145,4.261-2.339,7.203-3.304
					c2.939-0.947,6.431-1.783,10.455-1.934c4.009-0.145,8.581,0.338,13.308,1.996c4.716,1.634,9.515,4.535,13.53,8.497
					c3.982,3.987,7.035,8.856,9.244,13.924c0.512,1.264,0.986,2.551,1.471,3.841c0.5,1.291,0.756,2.571,1.124,3.873
					c0.783,2.608,1.123,5.178,1.536,7.761c0.084,0.644,0.206,1.299,0.257,1.934l0.14,1.902c0.097,1.267,0.149,2.536,0.222,3.799
					c0.11,1.276,0.019,2.49,0,3.728c-0.035,1.23-0.057,2.457-0.118,3.676c-0.339,4.822-0.921,9.506-1.913,13.87
					c-0.834,4.424-2.161,8.498-3.375,12.365c-1.328,3.824-2.813,7.342-4.216,10.562c-1.54,3.207-3.075,6.078-4.471,8.582
					c-0.707,1.261-1.39,2.381-2.09,3.408c-0.685,1.03-1.302,1.98-1.908,2.826C182.913,226.429,181.294,228.295,181.295,228.295z"/>
			</g>
		</g>
	</g>
</g>
</svg>
