<?xml version="1.0" encoding="utf-8"?>
<!-- Generator: Adobe Illustrator 19.1.0, SVG Export Plug-In . SVG Version: 6.00 Build 0)  -->
<svg version="1.1" id="Layer_1" xmlns="http://www.w3.org/2000/svg" xmlns:xlink="http://www.w3.org/1999/xlink" x="0px" y="0px"
	 viewBox="-199 201 200.3 200" style="enable-background:new -199 201 200.3 200;" xml:space="preserve">
<style type="text/css">
	.st0{fill:none;stroke:#000000;stroke-width:2;stroke-miterlimit:10;}
</style>
<g>
	<g>
		<line class="st0" x1="-75.4" y1="334.4" x2="-75.4" y2="360.7"/>
		<line class="st0" x1="-98.8" y1="334.4" x2="-98.8" y2="360.7"/>
		<line class="st0" x1="-122.3" y1="334.4" x2="-122.3" y2="360.7"/>
	</g>
	<g>
		<line class="st0" x1="-75.4" y1="241.3" x2="-75.4" y2="267.6"/>
		<line class="st0" x1="-98.8" y1="241.3" x2="-98.8" y2="267.6"/>
		<line class="st0" x1="-122.3" y1="241.3" x2="-122.3" y2="267.6"/>
	</g>
	<path class="st0" d="M-32,317.5c0,9.2-7.5,16.7-16.7,16.7h-100.2c-9.2,0-16.7-7.5-16.7-16.7v-33.4c0-9.2,7.5-16.7,16.7-16.7h100.2
		c9.2,0,16.7,7.5,16.7,16.7L-32,317.5L-32,317.5z"/>
</g>
<g>
	<path d="M-120,295.9c1-0.4,1.9-0.8,2.7-1.3s1.6-1.3,2.3-2.2h1.2v17.3h-1.6v-14.9c-0.2,0.2-0.4,0.4-0.7,0.6c-0.3,0.2-0.6,0.4-1,0.6
		s-0.8,0.4-1.2,0.6c-0.4,0.2-0.8,0.3-1.2,0.5L-120,295.9z"/>
	<path d="M-95.5,301.5h1.7v7.7c-0.3,0.1-0.9,0.3-1.9,0.5c-0.9,0.2-2.1,0.3-3.4,0.3c-1.1,0-2.2-0.2-3.1-0.6c-1-0.4-1.8-1-2.5-1.7
		c-0.7-0.8-1.3-1.7-1.7-2.8s-0.6-2.4-0.6-3.9c0-1.5,0.2-2.7,0.7-3.9c0.4-1.1,1-2.1,1.8-2.8s1.6-1.3,2.6-1.7s2-0.6,3.2-0.6
		c1.3,0,2.3,0.1,3.2,0.4c0.8,0.3,1.4,0.5,1.8,0.8l-0.6,1.5c-0.5-0.3-1.1-0.6-1.9-0.8c-0.8-0.2-1.7-0.3-2.6-0.3
		c-0.9,0-1.7,0.2-2.5,0.5c-0.8,0.3-1.4,0.8-2,1.4s-1,1.4-1.3,2.4c-0.3,0.9-0.5,2-0.5,3.3c0,1.1,0.1,2.2,0.4,3.1s0.7,1.7,1.2,2.4
		c0.5,0.7,1.2,1.2,2,1.5c0.8,0.3,1.7,0.5,2.8,0.5c0.9,0,1.6,0,2.1-0.1c0.6-0.1,1-0.2,1.2-0.3V301.5z"/>
	<path d="M-85.7,309.8c-0.3,0-0.6,0-1,0c-0.4,0-0.8-0.1-1.2-0.1c-0.4,0-0.8-0.1-1.1-0.2c-0.4-0.1-0.6-0.1-0.9-0.2v-16.7
		c0.3-0.1,0.6-0.2,1-0.2c0.4-0.1,0.7-0.1,1.1-0.1s0.8-0.1,1.2-0.1c0.4,0,0.7,0,1,0c0.9,0,1.8,0.1,2.7,0.2c0.8,0.1,1.6,0.4,2.2,0.7
		c0.6,0.3,1.1,0.8,1.5,1.4s0.6,1.3,0.6,2.1c0,0.9-0.2,1.7-0.7,2.4c-0.5,0.7-1.1,1.1-1.9,1.4c0.5,0.1,1,0.3,1.4,0.5
		c0.4,0.2,0.8,0.5,1.1,0.8c0.3,0.3,0.6,0.8,0.7,1.3c0.2,0.5,0.3,1.1,0.3,1.8c0,1.6-0.7,2.9-2,3.7C-81,309.4-83,309.8-85.7,309.8z
		 M-88.1,299.9h3.3c0.6,0,1.2,0,1.8-0.1c0.5-0.1,1-0.3,1.4-0.5c0.4-0.2,0.7-0.6,1-1s0.4-0.9,0.4-1.6c0-0.6-0.1-1-0.4-1.4
		c-0.3-0.4-0.6-0.7-1.1-1c-0.5-0.2-1-0.4-1.6-0.5c-0.6-0.1-1.3-0.2-2.1-0.2c-0.6,0-1.1,0-1.6,0c-0.4,0-0.8,0.1-1.1,0.1V299.9z
		 M-88.1,301.4v6.8c0.3,0,0.6,0.1,1.1,0.1s1,0.1,1.5,0.1c0.8,0,1.5-0.1,2.2-0.2c0.7-0.1,1.4-0.3,1.9-0.6c0.5-0.3,1-0.6,1.3-1.1
		s0.5-1.1,0.5-1.8c0-0.7-0.1-1.2-0.3-1.7c-0.2-0.4-0.6-0.8-1-1.1s-1-0.4-1.6-0.5c-0.6-0.1-1.3-0.2-2.1-0.2H-88.1z"/>
</g>
</svg>
