<?xml version="1.0" encoding="utf-8"?>
<!-- Generator: Adobe Illustrator 16.0.0, SVG Export Plug-In . SVG Version: 6.00 Build 0)  -->
<!DOCTYPE svg PUBLIC "-//W3C//DTD SVG 1.1//EN" "http://www.w3.org/Graphics/SVG/1.1/DTD/svg11.dtd">
<svg version="1.1" id="Layer_1" xmlns="http://www.w3.org/2000/svg" xmlns:xlink="http://www.w3.org/1999/xlink" x="0px" y="0px"
	 width="600px" height="400px" viewBox="0 0 600 400" enable-background="new 0 0 600 400" xml:space="preserve">
<line fill="none" stroke="#3499CD" stroke-width="4" stroke-miterlimit="10" stroke-dasharray="4" x1="331.637" y1="200" x2="268.985" y2="200"/>
<line fill="none" stroke="#6FC498" stroke-width="4" stroke-miterlimit="10" stroke-dasharray="4" x1="229.911" y1="145" x2="229.911" y2="0"/>
<line fill="none" stroke="#6FC498" stroke-width="4" stroke-miterlimit="10" stroke-dasharray="4" x1="408.366" y1="199.576" x2="600" y2="199.576"/>
<g>
	<g>
		<rect x="20" y="145" fill="none" stroke="#996699" stroke-width="4" stroke-linecap="square" width="39.639" height="50"/>
	</g>
	<line fill="none" stroke="#996699" stroke-width="4" stroke-linecap="square" x1="30.488" y1="154.681" x2="49.153" y2="154.681"/>
	<line fill="none" stroke="#996699" stroke-width="4" stroke-linecap="square" x1="30.488" y1="164.681" x2="49.153" y2="164.681"/>
	<line fill="none" stroke="#996699" stroke-width="4" stroke-linecap="square" x1="30.488" y1="174.681" x2="49.153" y2="174.681"/>
	<g>
		<rect x="70" y="145" fill="none" stroke="#996699" stroke-width="4" stroke-linecap="square" width="39.639" height="50"/>
	</g>
	<line fill="none" stroke="#996699" stroke-width="4" stroke-linecap="square" x1="80.488" y1="154.681" x2="99.153" y2="154.681"/>
	<line fill="none" stroke="#996699" stroke-width="4" stroke-linecap="square" x1="80.488" y1="164.681" x2="99.153" y2="164.681"/>
	<line fill="none" stroke="#996699" stroke-width="4" stroke-linecap="square" x1="80.488" y1="174.681" x2="99.153" y2="174.681"/>
	<g>
		<rect x="70" y="205" fill="none" stroke="#996699" stroke-width="4" stroke-linecap="square" width="39.639" height="50"/>
	</g>
	<line fill="none" stroke="#996699" stroke-width="4" stroke-linecap="square" x1="80.488" y1="214.682" x2="99.153" y2="214.682"/>
	<line fill="none" stroke="#996699" stroke-width="4" stroke-linecap="square" x1="80.488" y1="224.682" x2="99.153" y2="224.682"/>
	<line fill="none" stroke="#996699" stroke-width="4" stroke-linecap="square" x1="80.488" y1="234.682" x2="99.153" y2="234.682"/>
	<g>
		<rect x="20" y="205" fill="none" stroke="#996699" stroke-width="4" stroke-linecap="square" width="39.639" height="50"/>
	</g>
	<line fill="none" stroke="#996699" stroke-width="4" stroke-linecap="square" x1="30.488" y1="214.682" x2="49.153" y2="214.682"/>
	<line fill="none" stroke="#996699" stroke-width="4" stroke-linecap="square" x1="30.488" y1="224.682" x2="49.153" y2="224.682"/>
	<line fill="none" stroke="#996699" stroke-width="4" stroke-linecap="square" x1="30.488" y1="234.682" x2="49.153" y2="234.682"/>
</g>
<line fill="none" stroke="#EF3B68" stroke-width="4" stroke-miterlimit="10" stroke-dasharray="4" x1="370.897" y1="73.666" x2="370.897" y2="149"/>
<line fill="none" stroke="#996699" stroke-width="4" stroke-miterlimit="10" stroke-dasharray="4" x1="194.319" y1="200" x2="118.985" y2="200"/>
<g>
	<rect x="305.563" y="28.999" fill="none" width="130.668" height="37.667"/>
	<path fill="#EF3B68" d="M330.12,36.063c0.358,1.23,0.756,2.618,1.189,4.163c0.436,1.545,0.898,3.143,1.394,4.792
		c0.494,1.65,0.996,3.3,1.505,4.95c0.509,1.65,1.004,3.181,1.483,4.59c0.392-1.53,0.791-3.195,1.196-4.995
		c0.407-1.8,0.791-3.66,1.153-5.58c0.361-1.919,0.715-3.832,1.063-5.737c0.347-1.905,0.671-3.742,0.973-5.513h7.292
		c-1.056,5.22-2.271,10.515-3.645,15.885c-1.374,5.37-2.859,10.47-4.459,15.3h-6.421c-1.049-2.88-2.065-5.902-3.055-9.067
		s-1.961-6.337-2.919-9.518c-0.961,3.18-1.923,6.353-2.884,9.518s-1.968,6.188-3.02,9.067h-6.416c-1.598-4.83-3.081-9.93-4.451-15.3
		c-1.371-5.37-2.583-10.665-3.638-15.885h7.604c0.301,1.771,0.633,3.608,0.994,5.513c0.361,1.905,0.738,3.818,1.132,5.737
		c0.392,1.92,0.791,3.78,1.197,5.58s0.821,3.464,1.243,4.995c0.541-1.47,1.066-3.029,1.578-4.68c0.511-1.649,1.007-3.3,1.487-4.95
		c0.48-1.649,0.925-3.24,1.33-4.77c0.404-1.53,0.773-2.895,1.104-4.095H330.12z"/>
	<path fill="#EF3B68" d="M373.995,36.063c0.358,1.23,0.756,2.618,1.189,4.163c0.436,1.545,0.898,3.143,1.394,4.792
		c0.494,1.65,0.996,3.3,1.505,4.95c0.509,1.65,1.004,3.181,1.483,4.59c0.392-1.53,0.791-3.195,1.196-4.995
		c0.407-1.8,0.791-3.66,1.153-5.58c0.361-1.919,0.715-3.832,1.063-5.737c0.347-1.905,0.671-3.742,0.973-5.513h7.292
		c-1.056,5.22-2.271,10.515-3.645,15.885c-1.374,5.37-2.859,10.47-4.459,15.3h-6.421c-1.049-2.88-2.065-5.902-3.055-9.067
		s-1.961-6.337-2.919-9.518c-0.961,3.18-1.923,6.353-2.884,9.518s-1.968,6.188-3.02,9.067h-6.416c-1.598-4.83-3.081-9.93-4.451-15.3
		c-1.371-5.37-2.583-10.665-3.638-15.885h7.604c0.301,1.771,0.633,3.608,0.994,5.513c0.361,1.905,0.738,3.818,1.132,5.737
		c0.392,1.92,0.791,3.78,1.197,5.58s0.821,3.464,1.243,4.995c0.541-1.47,1.066-3.029,1.578-4.68c0.511-1.649,1.007-3.3,1.487-4.95
		c0.48-1.649,0.925-3.24,1.33-4.77c0.404-1.53,0.773-2.895,1.104-4.095H373.995z"/>
	<path fill="#EF3B68" d="M417.87,36.063c0.358,1.23,0.756,2.618,1.189,4.163c0.436,1.545,0.898,3.143,1.394,4.792
		c0.494,1.65,0.996,3.3,1.505,4.95c0.509,1.65,1.004,3.181,1.483,4.59c0.392-1.53,0.791-3.195,1.196-4.995
		c0.407-1.8,0.791-3.66,1.153-5.58c0.361-1.919,0.715-3.832,1.063-5.737c0.347-1.905,0.671-3.742,0.973-5.513h7.292
		c-1.056,5.22-2.271,10.515-3.645,15.885c-1.374,5.37-2.859,10.47-4.459,15.3h-6.421c-1.049-2.88-2.065-5.902-3.055-9.067
		s-1.961-6.337-2.919-9.518c-0.961,3.18-1.923,6.353-2.884,9.518s-1.968,6.188-3.02,9.067h-6.416c-1.598-4.83-3.081-9.93-4.451-15.3
		c-1.371-5.37-2.583-10.665-3.638-15.885h7.604c0.301,1.771,0.633,3.608,0.994,5.513c0.361,1.905,0.738,3.818,1.132,5.737
		c0.392,1.92,0.791,3.78,1.197,5.58s0.821,3.464,1.243,4.995c0.541-1.47,1.066-3.029,1.578-4.68c0.511-1.649,1.007-3.3,1.487-4.95
		c0.48-1.649,0.925-3.24,1.33-4.77c0.404-1.53,0.773-2.895,1.104-4.095H417.87z"/>
</g>
<g>
	<path fill="none" d="M255.572,207.098"/>
</g>
<g>
	<path fill="none" d="M207.625,178.328"/>
</g>
<g>
	<path fill="none" d="M207.625,207.098"/>
</g>
<g>
	<path fill="none" d="M255.572,178.328"/>
</g>
<g>
	<g>
		<g>
			<line fill="none" stroke="#FFCE0C" stroke-width="5" stroke-miterlimit="10" x1="229.796" y1="400" x2="229.796" y2="267.744"/>
		</g>
		<g>
			<polygon fill="#FFCE0C" points="226.554,274.188 223.554,266.217 236.038,266.217 233.038,274.188 			"/>
			<polygon fill="#FFCE0C" stroke="#F89939" stroke-width="0.869" stroke-miterlimit="10" points="222.554,252.789 237.038,252.789 
				237.038,264.188 236.038,266.217 223.554,266.217 222.554,264.188 			"/>
			<path fill="#FFCE0C" stroke="#F89939" stroke-width="0.869" stroke-miterlimit="10" d="M222.554,264.301"/>
			
				<line fill="none" stroke="#F89939" stroke-width="0.8801" stroke-miterlimit="10" x1="236.038" y1="267.676" x2="223.538" y2="267.676"/>
			
				<line fill="none" stroke="#F89939" stroke-width="0.903" stroke-miterlimit="10" x1="235.288" y1="269.176" x2="224.288" y2="269.176"/>
			
				<line fill="none" stroke="#F89939" stroke-width="0.9361" stroke-miterlimit="10" x1="234.538" y1="270.676" x2="225.038" y2="270.676"/>
			
				<line fill="none" stroke="#F89939" stroke-width="0.8854" stroke-miterlimit="10" x1="234.038" y1="272.176" x2="225.538" y2="272.176"/>
			<rect x="226.165" y="273.355" fill="#F89939" width="7.186" height="3.486"/>
		</g>
	</g>
	<g>
		<g>
			
				<rect x="191.577" y="151.099" fill="#FFFFFF" stroke="#3499CD" stroke-width="0.4404" stroke-miterlimit="10" width="77.064" height="98.719"/>
			
				<rect x="195.983" y="252.484" fill="#FFFFFF" stroke="#3499CD" stroke-width="0.4404" stroke-miterlimit="10" width="67.941" height="5.537"/>
			
				<rect x="195.983" y="143.022" fill="#FFFFFF" stroke="#3499CD" stroke-width="0.4404" stroke-miterlimit="10" width="67.941" height="5.536"/>
			
				<line fill="none" stroke="#3499CD" stroke-width="4.4148" stroke-miterlimit="10" x1="190.079" y1="148.869" x2="269.925" y2="148.869"/>
			
				<line fill="none" stroke="#3499CD" stroke-width="4.4148" stroke-miterlimit="10" x1="190.079" y1="252.051" x2="269.925" y2="252.051"/>
			<g>
				<path d="M214.89,232.586c-1.276,0-2.248-0.355-2.916-1.064s-1.002-1.717-1.002-3.023c0-0.648,0.102-1.229,0.306-1.738
					s0.482-0.939,0.838-1.291c0.354-0.352,0.777-0.617,1.269-0.799c0.49-0.18,1.022-0.271,1.597-0.271
					c0.332,0,0.634,0.025,0.905,0.074c0.272,0.049,0.51,0.105,0.714,0.17c0.203,0.064,0.373,0.131,0.51,0.197
					c0.136,0.068,0.233,0.121,0.294,0.16l-0.51,1.426c-0.241-0.129-0.522-0.238-0.844-0.328c-0.32-0.09-0.685-0.137-1.093-0.137
					c-0.271,0-0.537,0.047-0.798,0.137s-0.491,0.236-0.69,0.436c-0.2,0.201-0.361,0.459-0.481,0.775
					c-0.121,0.318-0.182,0.703-0.182,1.156c0,0.361,0.04,0.699,0.119,1.014c0.079,0.313,0.208,0.582,0.385,0.809
					c0.178,0.227,0.41,0.406,0.696,0.537c0.287,0.133,0.635,0.199,1.042,0.199c0.257,0,0.487-0.016,0.691-0.045
					c0.203-0.031,0.385-0.066,0.543-0.107c0.158-0.043,0.298-0.09,0.419-0.143s0.23-0.102,0.328-0.146l0.487,1.416
					c-0.249,0.15-0.601,0.285-1.053,0.406C216.011,232.525,215.485,232.586,214.89,232.586z"/>
				<path d="M223.892,230.91v1.518h-5.242v-7.848h1.767v6.33H223.892z"/>
				<path d="M232.271,228.498c0,0.672-0.101,1.262-0.301,1.771c-0.199,0.51-0.474,0.938-0.82,1.281
					c-0.348,0.342-0.761,0.602-1.24,0.775s-0.995,0.26-1.546,0.26c-0.536,0-1.042-0.086-1.518-0.26s-0.891-0.434-1.245-0.775
					c-0.355-0.344-0.634-0.771-0.838-1.281s-0.306-1.1-0.306-1.771s0.105-1.262,0.316-1.771c0.212-0.51,0.497-0.939,0.855-1.285
					c0.358-0.348,0.773-0.607,1.245-0.781s0.969-0.262,1.489-0.262c0.536,0,1.042,0.088,1.518,0.262s0.891,0.434,1.246,0.781
					c0.354,0.346,0.634,0.775,0.838,1.285C232.169,227.236,232.271,227.826,232.271,228.498z M226.281,228.498
					c0,0.385,0.047,0.732,0.142,1.041c0.094,0.311,0.229,0.576,0.407,0.799s0.395,0.395,0.651,0.516s0.551,0.182,0.883,0.182
					c0.325,0,0.617-0.061,0.878-0.182s0.479-0.293,0.656-0.516c0.178-0.223,0.313-0.488,0.408-0.799
					c0.094-0.309,0.142-0.656,0.142-1.041s-0.048-0.734-0.142-1.047c-0.095-0.314-0.23-0.582-0.408-0.805
					c-0.177-0.223-0.396-0.395-0.656-0.516c-0.261-0.119-0.553-0.18-0.878-0.18c-0.332,0-0.626,0.061-0.883,0.186
					s-0.474,0.299-0.651,0.521s-0.313,0.49-0.407,0.805C226.328,227.775,226.281,228.121,226.281,228.498z"/>
				<path d="M236.812,232.586c-0.551,0-1.026-0.078-1.427-0.232s-0.73-0.369-0.991-0.645c-0.26-0.275-0.452-0.604-0.577-0.986
					c-0.125-0.381-0.187-0.801-0.187-1.262v-4.881h1.767v4.732c0,0.318,0.035,0.588,0.107,0.811c0.071,0.223,0.17,0.404,0.294,0.543
					c0.125,0.141,0.275,0.24,0.453,0.301s0.372,0.09,0.583,0.09c0.431,0,0.779-0.131,1.048-0.396
					c0.268-0.264,0.401-0.713,0.401-1.348v-4.732h1.767v4.881c0,0.461-0.063,0.883-0.192,1.268
					c-0.128,0.385-0.324,0.715-0.589,0.992c-0.264,0.275-0.6,0.488-1.008,0.639C237.854,232.51,237.37,232.586,236.812,232.586z"/>
				<path d="M248.622,228.498c0,0.68-0.105,1.271-0.317,1.777c-0.211,0.506-0.511,0.926-0.899,1.258
					c-0.39,0.332-0.863,0.582-1.422,0.748c-0.559,0.164-1.185,0.248-1.879,0.248c-0.317,0-0.688-0.014-1.11-0.039
					c-0.423-0.027-0.838-0.082-1.245-0.164v-7.645c0.407-0.074,0.832-0.125,1.273-0.152s0.821-0.039,1.138-0.039
					c0.672,0,1.282,0.074,1.829,0.227c0.548,0.15,1.018,0.389,1.41,0.713s0.694,0.74,0.905,1.246
					C248.517,227.182,248.622,227.789,248.622,228.498z M243.516,230.99c0.083,0.006,0.179,0.012,0.288,0.016
					s0.24,0.006,0.391,0.006c0.884,0,1.538-0.223,1.965-0.668s0.64-1.061,0.64-1.846c0-0.822-0.203-1.445-0.611-1.869
					c-0.407-0.422-1.053-0.633-1.937-0.633c-0.12,0-0.245,0.002-0.373,0.006c-0.129,0.004-0.249,0.012-0.362,0.027V230.99z"/>
			</g>
			<rect x="193.913" y="191.746" fill="#3499CD" width="2.83" height="15.129"/>
			<rect x="263.743" y="191.746" fill="#3499CD" width="2.83" height="15.129"/>
		</g>
		<g>
			<polygon fill="#020202" points="252.485,205.512 229.801,219.164 207.117,205.512 207.117,178.204 229.801,164.55 
				252.485,178.204 			"/>
			<g>
				<g>
					<rect x="220.739" y="185.358" fill="#498ECC" width="17.955" height="6.474"/>
					<circle fill="#498ECC" cx="220.74" cy="187.407" r="4.425"/>
					<circle fill="#498ECC" cx="238.693" cy="187.407" r="4.425"/>
					<circle fill="#498ECC" cx="224.255" cy="181.945" r="4.425"/>
					<circle fill="#498ECC" cx="235.079" cy="181.945" r="4.425"/>
					<circle fill="#498ECC" cx="229.718" cy="179.29" r="4.425"/>
					<rect x="220.739" y="183.334" fill="#498ECC" width="17.955" height="4.451"/>
				</g>
				<g>
					<rect x="220.739" y="189.406" fill="#51ADE1" width="17.955" height="6.473"/>
					<circle fill="#51ADE1" cx="220.74" cy="191.453" r="4.426"/>
					<circle fill="#51ADE1" cx="238.693" cy="191.453" r="4.426"/>
					<circle fill="#51ADE1" cx="224.255" cy="185.99" r="4.425"/>
					<circle fill="#51ADE1" cx="235.079" cy="185.99" r="4.425"/>
					<circle fill="#51ADE1" cx="229.718" cy="183.334" r="4.426"/>
					<rect x="220.739" y="187.381" fill="#51ADE1" width="17.955" height="4.449"/>
				</g>
				<g>
					<rect x="220.739" y="194.462" fill="#6EC9F2" width="17.955" height="6.473"/>
					<circle fill="#6EC9F2" cx="220.74" cy="196.51" r="4.426"/>
					<circle fill="#6EC9F2" cx="238.693" cy="196.51" r="4.426"/>
					<circle fill="#6EC9F2" cx="224.255" cy="191.048" r="4.426"/>
					<circle fill="#6EC9F2" cx="235.079" cy="191.048" r="4.426"/>
					<circle fill="#6EC9F2" cx="229.718" cy="188.394" r="4.426"/>
					<rect x="220.739" y="192.438" fill="#6EC9F2" width="17.955" height="4.451"/>
				</g>
				<g>
					<rect x="220.739" y="199.521" fill="#FFFFFF" width="17.955" height="6.471"/>
					<circle fill="#FFFFFF" cx="220.74" cy="201.569" r="4.426"/>
					<circle fill="#FFFFFF" cx="238.693" cy="201.569" r="4.426"/>
					<circle fill="#FFFFFF" cx="224.255" cy="196.107" r="4.426"/>
					<circle fill="#FFFFFF" cx="235.079" cy="196.107" r="4.426"/>
					<circle fill="#FFFFFF" cx="229.718" cy="193.451" r="4.425"/>
					<rect x="220.739" y="197.497" fill="#FFFFFF" width="17.955" height="4.449"/>
				</g>
			</g>
		</g>
	</g>
</g>
<g>
	<g>
		<g>
			<line fill="none" stroke="#FFCE0C" stroke-width="5" stroke-miterlimit="10" x1="369.796" y1="400" x2="369.796" y2="267.744"/>
		</g>
		<g>
			<polygon fill="#FFCE0C" points="366.554,274.188 363.554,266.217 376.038,266.217 373.038,274.188 			"/>
			<polygon fill="#FFCE0C" stroke="#F89939" stroke-width="0.869" stroke-miterlimit="10" points="362.554,252.789 377.038,252.789 
				377.038,264.188 376.038,266.217 363.554,266.217 362.554,264.188 			"/>
			<path fill="#FFCE0C" stroke="#F89939" stroke-width="0.869" stroke-miterlimit="10" d="M362.554,264.301"/>
			
				<line fill="none" stroke="#F89939" stroke-width="0.8801" stroke-miterlimit="10" x1="376.038" y1="267.676" x2="363.538" y2="267.676"/>
			
				<line fill="none" stroke="#F89939" stroke-width="0.903" stroke-miterlimit="10" x1="375.288" y1="269.176" x2="364.288" y2="269.176"/>
			
				<line fill="none" stroke="#F89939" stroke-width="0.9361" stroke-miterlimit="10" x1="374.538" y1="270.676" x2="365.038" y2="270.676"/>
			
				<line fill="none" stroke="#F89939" stroke-width="0.8854" stroke-miterlimit="10" x1="374.038" y1="272.176" x2="365.538" y2="272.176"/>
			<rect x="366.165" y="273.355" fill="#F89939" width="7.186" height="3.486"/>
		</g>
	</g>
	<g>
		<g>
			
				<rect x="331.577" y="151.099" fill="#FFFFFF" stroke="#3499CD" stroke-width="0.4404" stroke-miterlimit="10" width="77.064" height="98.719"/>
			
				<rect x="335.983" y="252.484" fill="#FFFFFF" stroke="#3499CD" stroke-width="0.4404" stroke-miterlimit="10" width="67.941" height="5.537"/>
			
				<rect x="335.983" y="143.022" fill="#FFFFFF" stroke="#3499CD" stroke-width="0.4404" stroke-miterlimit="10" width="67.941" height="5.536"/>
			
				<line fill="none" stroke="#3499CD" stroke-width="4.4148" stroke-miterlimit="10" x1="330.079" y1="148.869" x2="409.925" y2="148.869"/>
			
				<line fill="none" stroke="#3499CD" stroke-width="4.4148" stroke-miterlimit="10" x1="330.079" y1="252.051" x2="409.925" y2="252.051"/>
			<g>
				<path d="M354.89,232.586c-1.276,0-2.248-0.355-2.916-1.064s-1.002-1.717-1.002-3.023c0-0.648,0.102-1.229,0.306-1.738
					s0.482-0.939,0.838-1.291c0.354-0.352,0.777-0.617,1.269-0.799c0.49-0.18,1.022-0.271,1.597-0.271
					c0.332,0,0.634,0.025,0.905,0.074c0.272,0.049,0.51,0.105,0.714,0.17c0.203,0.064,0.373,0.131,0.51,0.197
					c0.136,0.068,0.233,0.121,0.294,0.16l-0.51,1.426c-0.241-0.129-0.522-0.238-0.844-0.328c-0.32-0.09-0.685-0.137-1.093-0.137
					c-0.271,0-0.537,0.047-0.798,0.137s-0.491,0.236-0.69,0.436c-0.2,0.201-0.361,0.459-0.481,0.775
					c-0.121,0.318-0.182,0.703-0.182,1.156c0,0.361,0.04,0.699,0.119,1.014c0.079,0.313,0.208,0.582,0.385,0.809
					c0.178,0.227,0.41,0.406,0.696,0.537c0.287,0.133,0.635,0.199,1.042,0.199c0.257,0,0.487-0.016,0.691-0.045
					c0.203-0.031,0.385-0.066,0.543-0.107c0.158-0.043,0.298-0.09,0.419-0.143s0.23-0.102,0.328-0.146l0.487,1.416
					c-0.249,0.15-0.601,0.285-1.053,0.406C356.011,232.525,355.485,232.586,354.89,232.586z"/>
				<path d="M363.892,230.91v1.518h-5.242v-7.848h1.767v6.33H363.892z"/>
				<path d="M372.271,228.498c0,0.672-0.101,1.262-0.301,1.771c-0.199,0.51-0.474,0.938-0.82,1.281
					c-0.348,0.342-0.761,0.602-1.24,0.775s-0.995,0.26-1.546,0.26c-0.536,0-1.042-0.086-1.518-0.26s-0.891-0.434-1.245-0.775
					c-0.355-0.344-0.634-0.771-0.838-1.281s-0.306-1.1-0.306-1.771s0.105-1.262,0.316-1.771c0.212-0.51,0.497-0.939,0.855-1.285
					c0.358-0.348,0.773-0.607,1.245-0.781s0.969-0.262,1.489-0.262c0.536,0,1.042,0.088,1.518,0.262s0.891,0.434,1.246,0.781
					c0.354,0.346,0.634,0.775,0.838,1.285C372.169,227.236,372.271,227.826,372.271,228.498z M366.281,228.498
					c0,0.385,0.047,0.732,0.142,1.041c0.094,0.311,0.229,0.576,0.407,0.799s0.395,0.395,0.651,0.516s0.551,0.182,0.883,0.182
					c0.325,0,0.617-0.061,0.878-0.182s0.479-0.293,0.656-0.516c0.178-0.223,0.313-0.488,0.408-0.799
					c0.094-0.309,0.142-0.656,0.142-1.041s-0.048-0.734-0.142-1.047c-0.095-0.314-0.23-0.582-0.408-0.805
					c-0.177-0.223-0.396-0.395-0.656-0.516c-0.261-0.119-0.553-0.18-0.878-0.18c-0.332,0-0.626,0.061-0.883,0.186
					s-0.474,0.299-0.651,0.521s-0.313,0.49-0.407,0.805C366.328,227.775,366.281,228.121,366.281,228.498z"/>
				<path d="M376.812,232.586c-0.551,0-1.026-0.078-1.427-0.232s-0.73-0.369-0.991-0.645c-0.26-0.275-0.452-0.604-0.577-0.986
					c-0.125-0.381-0.187-0.801-0.187-1.262v-4.881h1.767v4.732c0,0.318,0.035,0.588,0.107,0.811c0.071,0.223,0.17,0.404,0.294,0.543
					c0.125,0.141,0.275,0.24,0.453,0.301s0.372,0.09,0.583,0.09c0.431,0,0.779-0.131,1.048-0.396
					c0.268-0.264,0.401-0.713,0.401-1.348v-4.732h1.767v4.881c0,0.461-0.063,0.883-0.192,1.268
					c-0.128,0.385-0.324,0.715-0.589,0.992c-0.264,0.275-0.6,0.488-1.008,0.639C377.854,232.51,377.37,232.586,376.812,232.586z"/>
				<path d="M388.622,228.498c0,0.68-0.105,1.271-0.317,1.777c-0.211,0.506-0.511,0.926-0.899,1.258
					c-0.39,0.332-0.863,0.582-1.422,0.748c-0.559,0.164-1.185,0.248-1.879,0.248c-0.317,0-0.688-0.014-1.11-0.039
					c-0.423-0.027-0.838-0.082-1.245-0.164v-7.645c0.407-0.074,0.832-0.125,1.273-0.152s0.821-0.039,1.138-0.039
					c0.672,0,1.282,0.074,1.829,0.227c0.548,0.15,1.018,0.389,1.41,0.713s0.694,0.74,0.905,1.246
					C388.517,227.182,388.622,227.789,388.622,228.498z M383.516,230.99c0.083,0.006,0.179,0.012,0.288,0.016
					s0.24,0.006,0.391,0.006c0.884,0,1.538-0.223,1.965-0.668s0.64-1.061,0.64-1.846c0-0.822-0.203-1.445-0.611-1.869
					c-0.407-0.422-1.053-0.633-1.937-0.633c-0.12,0-0.245,0.002-0.373,0.006c-0.129,0.004-0.249,0.012-0.362,0.027V230.99z"/>
			</g>
			<rect x="333.913" y="191.746" fill="#3499CD" width="2.83" height="15.129"/>
			<rect x="403.743" y="191.746" fill="#3499CD" width="2.83" height="15.129"/>
		</g>
		<g>
			<polygon fill="#020202" points="392.485,205.512 369.801,219.164 347.117,205.512 347.117,178.204 369.801,164.55 
				392.485,178.204 			"/>
			<g>
				<g>
					<rect x="360.739" y="185.358" fill="#498ECC" width="17.955" height="6.474"/>
					<circle fill="#498ECC" cx="360.74" cy="187.407" r="4.425"/>
					<circle fill="#498ECC" cx="378.693" cy="187.407" r="4.425"/>
					<circle fill="#498ECC" cx="364.255" cy="181.945" r="4.425"/>
					<circle fill="#498ECC" cx="375.079" cy="181.945" r="4.425"/>
					<circle fill="#498ECC" cx="369.718" cy="179.29" r="4.425"/>
					<rect x="360.739" y="183.334" fill="#498ECC" width="17.955" height="4.451"/>
				</g>
				<g>
					<rect x="360.739" y="189.406" fill="#51ADE1" width="17.955" height="6.473"/>
					<circle fill="#51ADE1" cx="360.74" cy="191.453" r="4.426"/>
					<circle fill="#51ADE1" cx="378.693" cy="191.453" r="4.426"/>
					<circle fill="#51ADE1" cx="364.255" cy="185.99" r="4.425"/>
					<circle fill="#51ADE1" cx="375.079" cy="185.99" r="4.425"/>
					<circle fill="#51ADE1" cx="369.718" cy="183.334" r="4.426"/>
					<rect x="360.739" y="187.381" fill="#51ADE1" width="17.955" height="4.449"/>
				</g>
				<g>
					<rect x="360.739" y="194.462" fill="#6EC9F2" width="17.955" height="6.473"/>
					<circle fill="#6EC9F2" cx="360.74" cy="196.51" r="4.426"/>
					<circle fill="#6EC9F2" cx="378.693" cy="196.51" r="4.426"/>
					<circle fill="#6EC9F2" cx="364.255" cy="191.048" r="4.426"/>
					<circle fill="#6EC9F2" cx="375.079" cy="191.048" r="4.426"/>
					<circle fill="#6EC9F2" cx="369.718" cy="188.394" r="4.426"/>
					<rect x="360.739" y="192.438" fill="#6EC9F2" width="17.955" height="4.451"/>
				</g>
				<g>
					<rect x="360.739" y="199.521" fill="#FFFFFF" width="17.955" height="6.471"/>
					<circle fill="#FFFFFF" cx="360.74" cy="201.569" r="4.426"/>
					<circle fill="#FFFFFF" cx="378.693" cy="201.569" r="4.426"/>
					<circle fill="#FFFFFF" cx="364.255" cy="196.107" r="4.426"/>
					<circle fill="#FFFFFF" cx="375.079" cy="196.107" r="4.426"/>
					<circle fill="#FFFFFF" cx="369.718" cy="193.451" r="4.425"/>
					<rect x="360.739" y="197.497" fill="#FFFFFF" width="17.955" height="4.449"/>
				</g>
			</g>
		</g>
	</g>
</g>
</svg>
