<?xml version="1.0" encoding="utf-8"?>
<!-- Generator: Adobe Illustrator 16.0.0, SVG Export Plug-In . SVG Version: 6.00 Build 0)  -->
<!DOCTYPE svg PUBLIC "-//W3C//DTD SVG 1.1//EN" "http://www.w3.org/Graphics/SVG/1.1/DTD/svg11.dtd">
<svg version="1.1" id="Layer_1" xmlns="http://www.w3.org/2000/svg" xmlns:xlink="http://www.w3.org/1999/xlink" x="0px" y="0px"
	 width="600px" height="400px" viewBox="0 0 600 400" enable-background="new 0 0 600 400" xml:space="preserve">
<g>
	<g>
		<path fill="#0A0A0A" d="M524,299.588c-10.861,12.558,0,0-10.861,12.558H86.86c-10.86-12.558,0,0-10.86-12.558V54.705
			c10.86-12.559,0,0,10.86-12.559h426.279c10.861,12.559,0,0,10.861,12.559V299.588z"/>
		<g>
			<g>
				<path fill="#0A0A0A" d="M82.861,287.209v0.018v11.307c7.547,7.547,0,0,7.547,7.547h166.936
					c-0.696,14.85-3.933,45.225-19.359,51.773c0,0-6.026,0,10.732,0h96.885c16.754,0,10.883,0,10.883,0
					c-15.426-6.549-18.838-36.924-19.512-51.773h171.939c7.375-7.547,0,0,7.375-7.547v-10.959c0-0.135,0.039-0.23,0.039-0.365"/>
				<path d="M503.522,288.616"/>
			</g>
		</g>
	</g>
	<g>
		<path d="M464,263.48c-12,12,0,0-12,12H148c-12-12,0,0-12-12v-170c12-12,0,0,12-12H452c12,12,0,0,12,12V263.48z"/>
		<polyline fill="none" stroke="#3399CC" stroke-width="3.8176" stroke-miterlimit="10" points="214.973,238.48 196.615,238.48 
			196.615,153.644 263.031,153.644 		"/>
		<g>
			<g>
				<polygon fill="#3399CC" points="254.582,155.552 255.679,156.46 260.638,156.46 260.638,150.828 255.679,150.828 
					254.582,151.747 				"/>
				<g>
					<polygon fill="#3399CC" stroke="#1D304B" stroke-width="0.7635" stroke-miterlimit="10" points="279.992,160.418 
						265.93,160.418 260.638,158.891 260.638,148.397 265.914,146.87 279.992,146.87 					"/>
					<g>
						<path fill="#FFFFFF" d="M268.672,150.421v0.596h-2.646v-0.596h1.122v-1h-1.122v-0.596h2.646v0.596h-1.012v1H268.672z"/>
						<path fill="#FFFFFF" d="M267.352,153.945c-0.229,0-0.43-0.035-0.6-0.106c-0.171-0.071-0.312-0.173-0.425-0.304
							c-0.111-0.131-0.195-0.291-0.251-0.479c-0.056-0.188-0.084-0.399-0.084-0.634c0-0.106,0.004-0.231,0.014-0.374
							c0.009-0.143,0.026-0.282,0.055-0.42h2.577c0.025,0.138,0.042,0.281,0.051,0.43c0.01,0.149,0.014,0.277,0.014,0.384
							c0,0.227-0.025,0.432-0.076,0.616s-0.131,0.343-0.24,0.476s-0.249,0.234-0.42,0.306S267.59,153.945,267.352,153.945z
							 M266.511,152.223c-0.002,0.028-0.004,0.061-0.005,0.098c-0.002,0.037-0.002,0.08-0.002,0.132
							c0,0.298,0.075,0.519,0.225,0.662c0.15,0.144,0.358,0.216,0.623,0.216c0.277,0,0.486-0.069,0.629-0.206
							c0.144-0.138,0.214-0.355,0.214-0.653c0-0.04,0-0.083-0.001-0.126c-0.002-0.043-0.005-0.084-0.01-0.122H266.511z"/>
						<path fill="#FFFFFF" d="M268.672,155.144c-0.084,0.046-0.188,0.099-0.311,0.158c-0.124,0.061-0.258,0.123-0.401,0.188
							c-0.145,0.065-0.291,0.13-0.44,0.193c-0.151,0.064-0.292,0.124-0.424,0.181c0.132,0.056,0.272,0.116,0.424,0.179
							c0.149,0.064,0.296,0.13,0.44,0.194c0.144,0.065,0.277,0.129,0.401,0.188c0.123,0.06,0.227,0.113,0.311,0.159v0.541
							c-0.175,0.025-0.372,0.05-0.59,0.07c-0.218,0.022-0.444,0.042-0.68,0.059c-0.235,0.016-0.472,0.031-0.708,0.046
							c-0.236,0.014-0.459,0.025-0.668,0.036v-0.58c0.257-0.008,0.537-0.019,0.84-0.031s0.608-0.031,0.916-0.057
							c-0.106-0.047-0.226-0.098-0.354-0.154c-0.13-0.055-0.26-0.111-0.39-0.167c-0.13-0.054-0.254-0.107-0.372-0.158
							s-0.22-0.096-0.304-0.131v-0.416c0.084-0.036,0.186-0.079,0.304-0.13c0.118-0.052,0.242-0.104,0.372-0.16
							c0.13-0.054,0.26-0.109,0.39-0.166c0.129-0.056,0.248-0.106,0.354-0.153c-0.308-0.025-0.613-0.044-0.916-0.057
							s-0.583-0.023-0.84-0.031v-0.58c0.209,0.011,0.432,0.022,0.668,0.036c0.236,0.015,0.473,0.029,0.708,0.046
							s0.462,0.036,0.68,0.058s0.415,0.045,0.59,0.07V155.144z"/>
						<path fill="#FFFFFF" d="M268.672,157.867v0.596h-2.646v-0.596H268.672z"/>
					</g>
				</g>
				
					<line fill="none" stroke="#1D304B" stroke-width="0.7635" stroke-miterlimit="10" x1="259.497" y1="150.828" x2="259.497" y2="156.46"/>
				
					<line fill="none" stroke="#1D304B" stroke-width="0.7635" stroke-miterlimit="10" x1="258.351" y1="150.828" x2="258.351" y2="156.46"/>
				
					<line fill="none" stroke="#1D304B" stroke-width="0.7635" stroke-miterlimit="10" x1="257.207" y1="150.828" x2="257.207" y2="156.46"/>
				
					<line fill="none" stroke="#1D304B" stroke-width="0.7635" stroke-miterlimit="10" x1="256.061" y1="150.828" x2="256.061" y2="156.46"/>
			</g>
			<g>
				<g>
					<polygon fill="#6EC498" stroke="#579975" stroke-width="0.7635" stroke-miterlimit="10" points="315.309,204.839 
						302.003,204.839 303.53,190.194 313.783,190.194 					"/>
				</g>
				<g>
					<path fill="#FFFFFF" d="M306.135,199.45c0.03,0.104,0.064,0.223,0.101,0.353c0.037,0.132,0.076,0.268,0.119,0.407
						c0.041,0.14,0.083,0.28,0.126,0.42c0.044,0.141,0.086,0.271,0.127,0.39c0.033-0.13,0.067-0.271,0.102-0.424
						c0.034-0.152,0.067-0.311,0.098-0.474s0.061-0.325,0.091-0.486c0.028-0.162,0.057-0.318,0.081-0.468h0.619
						c-0.089,0.442-0.192,0.892-0.309,1.348c-0.117,0.455-0.243,0.888-0.379,1.298h-0.544c-0.09-0.245-0.176-0.501-0.26-0.77
						c-0.083-0.269-0.166-0.538-0.247-0.808c-0.082,0.27-0.164,0.539-0.245,0.808s-0.167,0.524-0.257,0.77h-0.544
						c-0.136-0.41-0.261-0.843-0.377-1.298c-0.116-0.456-0.22-0.905-0.309-1.348h0.646c0.025,0.149,0.053,0.306,0.084,0.468
						c0.031,0.161,0.063,0.323,0.096,0.486s0.067,0.321,0.102,0.474c0.035,0.153,0.07,0.294,0.105,0.424
						c0.046-0.125,0.09-0.258,0.134-0.396c0.043-0.141,0.086-0.281,0.127-0.421c0.04-0.14,0.078-0.274,0.112-0.404
						s0.065-0.246,0.094-0.348H306.135z"/>
					<path fill="#FFFFFF" d="M308.56,199.225c0,0.104-0.034,0.187-0.102,0.246c-0.066,0.06-0.146,0.089-0.238,0.089
						c-0.091,0-0.172-0.029-0.238-0.089c-0.067-0.06-0.102-0.142-0.102-0.246s0.034-0.187,0.102-0.247
						c0.066-0.06,0.147-0.09,0.238-0.09c0.092,0,0.172,0.03,0.238,0.09C308.526,199.039,308.56,199.121,308.56,199.225z
						 M308.506,201.813h-0.568v-2.008h0.568V201.813z"/>
					<path fill="#FFFFFF" d="M308.869,200.416h1.108v0.516h-1.108V200.416z"/>
					<path fill="#FFFFFF" d="M310.377,201.813v-2.646h1.771v0.5h-1.176v0.554h1.045v0.5h-1.045v1.092H310.377z"/>
					<path fill="#FFFFFF" d="M313.153,199.225c0,0.104-0.034,0.187-0.101,0.246c-0.067,0.06-0.148,0.089-0.239,0.089
						c-0.092,0-0.171-0.029-0.238-0.089s-0.102-0.142-0.102-0.246s0.034-0.187,0.102-0.247c0.067-0.06,0.146-0.09,0.238-0.09
						c0.091,0,0.172,0.03,0.239,0.09C313.119,199.039,313.153,199.121,313.153,199.225z M313.099,201.813h-0.568v-2.008h0.568
						V201.813z"/>
				</g>
			</g>
			<g>
				<polyline fill="none" stroke="#996699" stroke-width="2.2905" stroke-miterlimit="10" points="285.025,105.725 284.909,89.646 
					404.542,89.646 404.542,238.48 383.51,238.48 				"/>
				<g>
					<polygon fill="#996699" points="283.882,98.961 282.817,105.047 287.25,105.047 286.185,98.961 					"/>
					<polygon fill="#996699" stroke="#654566" stroke-width="0.5726" stroke-miterlimit="10" points="282.461,115.3 287.605,115.3 
						287.605,106.596 287.25,105.047 282.817,105.047 282.461,106.596 					"/>
					<path fill="#FFCE09" stroke="#F89839" stroke-width="0.4525" stroke-miterlimit="10" d="M282.461,106.51"/>
					
						<line fill="none" stroke="#654566" stroke-width="0.5726" stroke-miterlimit="10" x1="287.25" y1="103.934" x2="282.811" y2="103.934"/>
					
						<line fill="none" stroke="#654566" stroke-width="0.5726" stroke-miterlimit="10" x1="286.983" y1="102.789" x2="283.078" y2="102.789"/>
					
						<line fill="none" stroke="#654566" stroke-width="0.5726" stroke-miterlimit="10" x1="286.717" y1="101.643" x2="283.344" y2="101.643"/>
					
						<line fill="none" stroke="#654566" stroke-width="0.5726" stroke-miterlimit="10" x1="286.541" y1="100.498" x2="283.521" y2="100.498"/>
					<rect x="283.745" y="96.935" fill="#654566" width="2.551" height="2.662"/>
				</g>
			</g>
			<g>
				
					<rect x="292.218" y="101.52" fill="#171617" stroke="#000000" stroke-width="0.7635" stroke-miterlimit="10" width="25.96" height="17.307"/>
				<g>
					<path fill="#FFFFFF" d="M298.152,111.809v-4.762h3.216v0.899h-2.145v0.935h1.904v0.88h-1.904v1.147h2.303v0.9H298.152z"/>
					<path fill="#FFFFFF" d="M303.581,107.047c0.082,0.15,0.178,0.337,0.285,0.56c0.108,0.223,0.221,0.463,0.338,0.722
						s0.233,0.523,0.348,0.793c0.115,0.271,0.223,0.525,0.324,0.764c0.102-0.238,0.209-0.493,0.323-0.764
						c0.115-0.27,0.231-0.534,0.349-0.793s0.229-0.499,0.338-0.722c0.107-0.223,0.202-0.409,0.286-0.56h0.976
						c0.046,0.315,0.088,0.67,0.126,1.061c0.04,0.393,0.074,0.8,0.104,1.224c0.03,0.424,0.058,0.849,0.083,1.274
						c0.024,0.427,0.047,0.827,0.065,1.203h-1.045c-0.014-0.463-0.032-0.967-0.056-1.512c-0.021-0.545-0.057-1.095-0.103-1.649
						c-0.083,0.192-0.175,0.405-0.275,0.639c-0.101,0.234-0.202,0.468-0.3,0.701c-0.099,0.233-0.194,0.457-0.287,0.67
						c-0.09,0.213-0.17,0.396-0.233,0.547h-0.749c-0.064-0.151-0.143-0.334-0.234-0.547s-0.188-0.437-0.286-0.67
						s-0.198-0.467-0.3-0.701c-0.102-0.233-0.193-0.446-0.275-0.639c-0.047,0.555-0.08,1.104-0.104,1.649s-0.041,1.049-0.055,1.512
						h-1.045c0.02-0.376,0.039-0.776,0.064-1.203c0.025-0.426,0.054-0.851,0.084-1.274c0.029-0.424,0.063-0.831,0.104-1.224
						c0.038-0.391,0.08-0.745,0.127-1.061H303.581z"/>
					<path fill="#FFFFFF" d="M310.651,111.905c-0.773,0-1.364-0.215-1.77-0.646s-0.607-1.042-0.607-1.835
						c0-0.394,0.062-0.745,0.185-1.055c0.124-0.31,0.294-0.57,0.509-0.783c0.216-0.213,0.472-0.375,0.77-0.484
						c0.298-0.11,0.621-0.165,0.97-0.165c0.201,0,0.385,0.015,0.549,0.045c0.165,0.029,0.31,0.063,0.434,0.103
						s0.227,0.079,0.309,0.12c0.083,0.041,0.142,0.073,0.179,0.097l-0.309,0.865c-0.147-0.077-0.317-0.144-0.513-0.198
						c-0.194-0.056-0.415-0.083-0.662-0.083c-0.166,0-0.327,0.027-0.484,0.083c-0.158,0.055-0.299,0.143-0.42,0.264
						c-0.122,0.122-0.219,0.278-0.292,0.471s-0.11,0.427-0.11,0.701c0,0.22,0.024,0.425,0.072,0.615
						c0.049,0.19,0.126,0.354,0.233,0.491s0.249,0.246,0.423,0.326s0.386,0.12,0.633,0.12c0.155,0,0.296-0.009,0.419-0.027
						c0.123-0.018,0.233-0.04,0.33-0.065c0.096-0.025,0.181-0.054,0.254-0.086s0.14-0.062,0.199-0.089l0.295,0.859
						c-0.15,0.091-0.363,0.174-0.639,0.247S311.013,111.905,310.651,111.905z"/>
				</g>
			</g>
			<g>
				<g>
					<g>
						<path fill="#FFFFFF" stroke="#EF4069" stroke-width="0.3104" stroke-miterlimit="10" d="M346.07,137.95
							c0,4.113-3.336,7.448-7.449,7.448h-78.628c-4.113,0-7.449-3.335-7.449-7.448v-6.208c0-4.114,3.336-7.448,7.449-7.448h78.628
							c4.113,0,7.449,3.334,7.449,7.448V137.95z"/>
						<circle cx="261.812" cy="134.845" r="3.889"/>
						<circle cx="336.301" cy="134.845" r="3.889"/>
					</g>
					<g>
						<path fill="#FFFFFF" stroke="#EF4069" stroke-width="0.3104" stroke-miterlimit="10" d="M346.07,175.194
							c0,4.113-3.336,7.448-7.449,7.448h-78.628c-4.113,0-7.449-3.335-7.449-7.448v-6.207c0-4.114,3.336-7.449,7.449-7.449h78.628
							c4.113,0,7.449,3.335,7.449,7.449V175.194z"/>
						<circle cx="336.301" cy="172.089" r="3.889"/>
						<circle cx="261.812" cy="172.089" r="3.889"/>
					</g>
					<g>
						
							<rect x="271.793" y="119.042" fill="#FFFFFF" stroke="#EF4069" stroke-width="0.3104" stroke-miterlimit="10" width="54.318" height="69.58"/>
						<g>
							<g>
								<g>
									<path fill="#010101" stroke="#FFFFFF" stroke-width="0.1279" stroke-miterlimit="10" d="M298.731,148.091"/>
								</g>
								<g>
									<path fill="#010101" stroke="#FFFFFF" stroke-width="0.1279" stroke-miterlimit="10" d="M298.731,148.091"/>
								</g>
								<g>
									<path fill="#010101" stroke="#FFFFFF" stroke-width="0.1279" stroke-miterlimit="10" d="M298.731,148.091"/>
								</g>
								<g>
									<path fill="#010101" stroke="#FFFFFF" stroke-width="0.1279" stroke-miterlimit="10" d="M298.731,148.091"/>
								</g>
							</g>
							<polyline fill="#3399CC" points="314.72,157.285 306.725,162.081 298.733,166.877 298.733,157.285 298.733,147.692 							
								"/>
							<polyline fill="#996699" points="314.72,157.285 314.72,147.692 314.72,138.098 306.734,142.895 298.733,147.692 							"/>
							<polyline fill="#F89839" points="298.733,128.506 290.738,133.302 282.743,138.098 290.738,142.895 298.733,147.692 							
								"/>
							<polyline fill="#EE3968" points="298.733,128.506 306.724,133.302 314.72,138.098 306.725,142.895 298.733,147.692 							
								"/>
							<polyline fill="#FFCE09" points="282.743,157.285 290.738,162.081 298.733,166.877 298.733,157.285 298.733,147.692 							
								"/>
							<polyline fill="#6EC498" points="282.744,157.285 282.744,147.692 282.744,138.098 290.738,142.895 298.733,147.692 							
								"/>
							<g>
								<g>
									<g>
										
											<line fill="none" stroke="#FFFFFF" stroke-width="0.3837" stroke-miterlimit="10" x1="298.735" y1="128.506" x2="298.735" y2="128.954"/>
										
											<line fill="none" stroke="#FFFFFF" stroke-width="0.3837" stroke-miterlimit="10" stroke-dasharray="0.871,0.871" x1="298.734" y1="129.825" x2="298.731" y2="146.809"/>
										
											<line fill="none" stroke="#FFFFFF" stroke-width="0.3837" stroke-miterlimit="10" x1="298.731" y1="147.244" x2="298.731" y2="147.692"/>
									</g>
								</g>
								<g>
									<g>
										
											<line fill="none" stroke="#FFFFFF" stroke-width="0.3837" stroke-miterlimit="10" x1="298.731" y1="147.692" x2="299.115" y2="147.922"/>
										
											<line fill="none" stroke="#FFFFFF" stroke-width="0.3837" stroke-miterlimit="10" stroke-dasharray="0.9343,0.9343" x1="299.916" y1="148.403" x2="313.936" y2="156.814"/>
										
											<line fill="none" stroke="#FFFFFF" stroke-width="0.3837" stroke-miterlimit="10" x1="314.336" y1="157.054" x2="314.72" y2="157.285"/>
									</g>
								</g>
								<g>
									<g>
										
											<line fill="none" stroke="#FFFFFF" stroke-width="0.3837" stroke-miterlimit="10" x1="298.731" y1="147.692" x2="298.347" y2="147.922"/>
										
											<line fill="none" stroke="#FFFFFF" stroke-width="0.3837" stroke-miterlimit="10" stroke-dasharray="0.9342,0.9342" x1="297.546" y1="148.403" x2="283.527" y2="156.814"/>
										
											<line fill="none" stroke="#FFFFFF" stroke-width="0.3837" stroke-miterlimit="10" x1="283.126" y1="157.054" x2="282.743" y2="157.285"/>
									</g>
								</g>
							</g>
							<g>
								
									<line fill="none" stroke="#FFFFFF" stroke-width="0.3837" stroke-miterlimit="10" x1="298.735" y1="166.877" x2="298.731" y2="147.692"/>
								
									<line fill="none" stroke="#FFFFFF" stroke-width="0.3837" stroke-miterlimit="10" x1="298.731" y1="147.692" x2="314.72" y2="138.098"/>
								
									<line fill="none" stroke="#FFFFFF" stroke-width="0.3837" stroke-miterlimit="10" x1="298.731" y1="147.692" x2="282.743" y2="138.098"/>
							</g>
						</g>
						
							<rect x="274.898" y="190.5" fill="#FFFFFF" stroke="#EF4069" stroke-width="0.3104" stroke-miterlimit="10" width="47.888" height="3.902"/>
						
							<rect x="274.898" y="113.349" fill="#FFFFFF" stroke="#EF4069" stroke-width="0.3104" stroke-miterlimit="10" width="47.888" height="3.901"/>
						
							<line fill="none" stroke="#EE3968" stroke-width="3.334" stroke-miterlimit="10" x1="270.737" y1="117.469" x2="327.015" y2="117.469"/>
						
							<line fill="none" stroke="#EE3968" stroke-width="3.334" stroke-miterlimit="10" x1="270.737" y1="190.194" x2="327.015" y2="190.194"/>
						<g>
							<path d="M294.273,170.833h1.245v5.531h-1.245v-2.347h-2.091v2.347h-1.245v-5.531h1.245v2.115h2.091V170.833z"/>
							<path d="M298.958,176.475c-0.388,0-0.723-0.054-1.005-0.164c-0.282-0.108-0.515-0.26-0.698-0.454s-0.319-0.426-0.407-0.694
								s-0.132-0.565-0.132-0.89v-3.44h1.245v3.336c0,0.224,0.025,0.414,0.076,0.571c0.05,0.156,0.12,0.285,0.207,0.383
								c0.088,0.099,0.194,0.169,0.319,0.211c0.125,0.043,0.262,0.064,0.411,0.064c0.304,0,0.55-0.093,0.738-0.279
								s0.284-0.503,0.284-0.95v-3.336h1.244v3.44c0,0.324-0.045,0.622-0.135,0.894c-0.092,0.271-0.229,0.505-0.416,0.698
								c-0.186,0.194-0.422,0.345-0.711,0.451C299.692,176.421,299.352,176.475,298.958,176.475z"/>
							<path d="M304.282,176.435c-0.303,0-0.605-0.009-0.906-0.027c-0.3-0.019-0.612-0.063-0.938-0.132v-5.363
								c0.256-0.048,0.535-0.084,0.838-0.107c0.304-0.024,0.586-0.037,0.847-0.037c0.351,0,0.674,0.025,0.97,0.076
								c0.295,0.051,0.549,0.138,0.762,0.26s0.379,0.283,0.499,0.483c0.119,0.199,0.18,0.445,0.18,0.738
								c0,0.441-0.213,0.789-0.639,1.045c0.351,0.133,0.591,0.314,0.719,0.543c0.127,0.229,0.19,0.486,0.19,0.773
								c0,0.58-0.211,1.017-0.634,1.31C305.747,176.289,305.117,176.435,304.282,176.435z M303.651,173.003h0.607
								c0.383,0,0.656-0.049,0.821-0.147s0.247-0.257,0.247-0.475c0-0.224-0.084-0.381-0.254-0.472
								c-0.172-0.09-0.421-0.136-0.75-0.136c-0.107,0-0.223,0.002-0.344,0.004c-0.123,0.003-0.232,0.01-0.328,0.021V173.003z
								 M303.651,173.953v1.429c0.092,0.012,0.189,0.019,0.295,0.024c0.107,0.006,0.225,0.008,0.352,0.008
								c0.373,0,0.674-0.053,0.902-0.159s0.343-0.304,0.343-0.591c0-0.256-0.095-0.438-0.287-0.547
								c-0.191-0.108-0.466-0.164-0.822-0.164H303.651z"/>
						</g>
						<rect x="273.439" y="147.691" fill="#EE3968" width="1.996" height="10.663"/>
						<rect x="322.658" y="147.691" fill="#EE3968" width="1.995" height="10.663"/>
					</g>
				</g>
				<circle fill="#FFFFFF" cx="261.812" cy="134.845" r="2.291"/>
				<circle fill="#FFFFFF" cx="336.3" cy="134.845" r="2.291"/>
				<circle fill="#FFFFFF" cx="336.301" cy="172.089" r="2.291"/>
				<circle fill="#FFFFFF" cx="261.812" cy="172.089" r="2.291"/>
			</g>
		</g>
		<path fill="#898989" d="M383.64,251.48c-12,12,5-5-7,7H221.973c-12-12,5,5-7-7v-26c12-12-5,5,7-7H376.64c12,12-5-5,7,7V251.48z"/>
		<polyline fill="none" stroke="#FFFFFF" stroke-width="3" stroke-miterlimit="10" points="192.729,172.452 196.516,168.612 
			200.354,172.452 		"/>
		<polyline fill="none" stroke="#FFFFFF" stroke-width="3" stroke-miterlimit="10" points="192.729,202.452 196.516,198.612 
			200.354,202.452 		"/>
		<polyline fill="none" stroke="#FFFFFF" stroke-width="3" stroke-miterlimit="10" points="408.354,198.612 404.567,202.453 
			400.729,198.612 		"/>
		<polyline fill="none" stroke="#FFFFFF" stroke-width="3" stroke-miterlimit="10" points="408.354,168.612 404.567,172.453 
			400.729,168.612 		"/>
		<polyline fill="none" stroke="#FFFFFF" stroke-width="3" stroke-miterlimit="10" points="408.354,138.612 404.567,142.453 
			400.729,138.612 		"/>
		<polyline fill="none" stroke="#FFFFFF" stroke-width="3" stroke-miterlimit="10" points="357.622,85.719 361.461,89.506 
			357.622,93.344 		"/>
	</g>
</g>
</svg>
