<?xml version="1.0" encoding="utf-8"?>
<!-- Generator: Adobe Illustrator 16.0.0, SVG Export Plug-In . SVG Version: 6.00 Build 0)  -->
<!DOCTYPE svg PUBLIC "-//W3C//DTD SVG 1.1//EN" "http://www.w3.org/Graphics/SVG/1.1/DTD/svg11.dtd">
<svg version="1.1" id="Layer_1" xmlns="http://www.w3.org/2000/svg" xmlns:xlink="http://www.w3.org/1999/xlink" x="0px" y="0px"
	 width="700px" height="430px" viewBox="0 0 700 430" enable-background="new 0 0 700 430" xml:space="preserve">
<g>
	<g>
		<polyline fill="none" stroke="#3499CD" stroke-width="5" stroke-miterlimit="10" points="700.5,227.802 396.352,227.802 
			396.352,198.604 		"/>
		<polygon fill="#3499CD" points="393.109,204.872 390.109,196.901 402.594,196.901 399.594,204.872 		"/>
		<polyline fill="#3499CD" stroke="#1E314B" stroke-miterlimit="10" points="403.594,183.474 403.594,194.872 402.594,196.901 
			390.109,196.901 389.109,194.872 389.109,183.474 		"/>
		<path fill="#FFCE0C" stroke="#F89939" stroke-width="0.869" stroke-miterlimit="10" d="M389.109,194.985"/>
		<line fill="none" stroke="#1E314B" stroke-miterlimit="10" x1="402.594" y1="198.36" x2="390.094" y2="198.36"/>
		<line fill="none" stroke="#1E314B" stroke-miterlimit="10" x1="401.844" y1="199.86" x2="390.844" y2="199.86"/>
		<line fill="none" stroke="#1E314B" stroke-miterlimit="10" x1="401.094" y1="201.36" x2="391.594" y2="201.36"/>
		<line fill="none" stroke="#1E314B" stroke-miterlimit="10" x1="400.594" y1="202.86" x2="392.094" y2="202.86"/>
		<rect x="392.721" y="204.04" fill="#1E314B" width="7.186" height="3.486"/>
	</g>
	<g>
		<line fill="none" stroke="#3499CD" stroke-width="5" stroke-miterlimit="10" x1="376.352" y1="430" x2="376.352" y2="198.604"/>
		<polygon fill="#3499CD" points="373.109,204.872 370.109,196.901 382.594,196.901 379.594,204.872 		"/>
		<polyline fill="#3499CD" stroke="#1E314B" stroke-miterlimit="10" points="383.594,183.474 383.594,194.872 382.594,196.901 
			370.109,196.901 369.109,194.872 369.109,183.474 		"/>
		<path fill="#FFCE0C" stroke="#F89939" stroke-width="0.869" stroke-miterlimit="10" d="M369.109,194.985"/>
		<line fill="none" stroke="#1E314B" stroke-miterlimit="10" x1="382.594" y1="198.36" x2="370.094" y2="198.36"/>
		<line fill="none" stroke="#1E314B" stroke-miterlimit="10" x1="381.844" y1="199.86" x2="370.844" y2="199.86"/>
		<line fill="none" stroke="#1E314B" stroke-miterlimit="10" x1="381.094" y1="201.36" x2="371.594" y2="201.36"/>
		<line fill="none" stroke="#1E314B" stroke-miterlimit="10" x1="380.594" y1="202.86" x2="372.094" y2="202.86"/>
		<rect x="372.721" y="204.04" fill="#1E314B" width="7.186" height="3.486"/>
	</g>
	<g>
		<line fill="none" stroke="#3499CD" stroke-width="5" stroke-miterlimit="10" x1="356.351" y1="430" x2="356.351" y2="198.604"/>
		<polygon fill="#3499CD" points="353.109,204.872 350.109,196.901 362.594,196.901 359.594,204.872 		"/>
		<polyline fill="#3499CD" stroke="#1E314B" stroke-miterlimit="10" points="363.594,183.474 363.594,194.872 362.594,196.901 
			350.109,196.901 349.109,194.872 349.109,183.474 		"/>
		<path fill="#FFCE0C" stroke="#F89939" stroke-width="0.869" stroke-miterlimit="10" d="M349.109,194.985"/>
		<line fill="none" stroke="#1E314B" stroke-miterlimit="10" x1="362.594" y1="198.36" x2="350.093" y2="198.36"/>
		<line fill="none" stroke="#1E314B" stroke-miterlimit="10" x1="361.844" y1="199.86" x2="350.843" y2="199.86"/>
		<line fill="none" stroke="#1E314B" stroke-miterlimit="10" x1="361.094" y1="201.36" x2="351.593" y2="201.36"/>
		<line fill="none" stroke="#1E314B" stroke-miterlimit="10" x1="360.594" y1="202.86" x2="352.093" y2="202.86"/>
		<rect x="352.72" y="204.04" fill="#1E314B" width="7.186" height="3.486"/>
	</g>
	<g>
		<line fill="none" stroke="#3499CD" stroke-width="5" stroke-miterlimit="10" x1="336.351" y1="430" x2="336.351" y2="198.604"/>
		<polygon fill="#3499CD" points="333.109,204.872 330.109,196.901 342.593,196.901 339.593,204.872 		"/>
		<polyline fill="#3499CD" stroke="#1E314B" stroke-miterlimit="10" points="343.593,183.474 343.593,194.872 342.593,196.901 
			330.109,196.901 329.109,194.872 329.109,183.474 		"/>
		<path fill="#FFCE0C" stroke="#F89939" stroke-width="0.869" stroke-miterlimit="10" d="M329.109,194.985"/>
		<line fill="none" stroke="#1E314B" stroke-miterlimit="10" x1="342.593" y1="198.36" x2="330.093" y2="198.36"/>
		<line fill="none" stroke="#1E314B" stroke-miterlimit="10" x1="341.843" y1="199.86" x2="330.843" y2="199.86"/>
		<line fill="none" stroke="#1E314B" stroke-miterlimit="10" x1="341.093" y1="201.36" x2="331.593" y2="201.36"/>
		<line fill="none" stroke="#1E314B" stroke-miterlimit="10" x1="340.593" y1="202.86" x2="332.093" y2="202.86"/>
		<rect x="332.72" y="204.04" fill="#1E314B" width="7.186" height="3.486"/>
	</g>
	<g>
		<polyline fill="none" stroke="#3499CD" stroke-width="5" stroke-miterlimit="10" points="-0.5,227.802 316.351,227.802 
			316.351,198.604 		"/>
		<polygon fill="#3499CD" points="313.109,204.872 310.109,196.901 322.593,196.901 319.593,204.872 		"/>
		<polyline fill="#3499CD" stroke="#1E314B" stroke-miterlimit="10" points="323.593,183.474 323.593,194.872 322.593,196.901 
			310.109,196.901 309.109,194.872 309.109,183.474 		"/>
		<path fill="#FFCE0C" stroke="#F89939" stroke-width="0.869" stroke-miterlimit="10" d="M309.109,194.985"/>
		<line fill="none" stroke="#1E314B" stroke-miterlimit="10" x1="322.593" y1="198.36" x2="310.093" y2="198.36"/>
		<line fill="none" stroke="#1E314B" stroke-miterlimit="10" x1="321.843" y1="199.86" x2="310.843" y2="199.86"/>
		<line fill="none" stroke="#1E314B" stroke-miterlimit="10" x1="321.093" y1="201.36" x2="311.593" y2="201.36"/>
		<line fill="none" stroke="#1E314B" stroke-miterlimit="10" x1="320.593" y1="202.86" x2="312.093" y2="202.86"/>
		<rect x="312.72" y="204.04" fill="#1E314B" width="7.186" height="3.486"/>
	</g>
</g>
<g>
	<line fill="none" stroke="#3499CD" stroke-width="5" stroke-miterlimit="10" x1="616.222" y1="430" x2="616.222" y2="371.604"/>
	<polygon fill="#3499CD" points="612.979,377.872 609.979,369.901 622.464,369.901 619.464,377.872 	"/>
	<polyline fill="#3499CD" stroke="#1E314B" stroke-miterlimit="10" points="623.464,356.474 623.464,367.872 622.464,369.901 
		609.979,369.901 608.979,367.872 608.979,356.474 	"/>
	<path fill="#FFCE0C" stroke="#F89939" stroke-width="0.869" stroke-miterlimit="10" d="M608.979,367.985"/>
	<line fill="none" stroke="#1E314B" stroke-miterlimit="10" x1="622.464" y1="371.36" x2="609.964" y2="371.36"/>
	<line fill="none" stroke="#1E314B" stroke-miterlimit="10" x1="621.714" y1="372.86" x2="610.714" y2="372.86"/>
	<line fill="none" stroke="#1E314B" stroke-miterlimit="10" x1="620.964" y1="374.36" x2="611.464" y2="374.36"/>
	<line fill="none" stroke="#1E314B" stroke-miterlimit="10" x1="620.464" y1="375.86" x2="611.964" y2="375.86"/>
	<rect x="612.591" y="377.04" fill="#1E314B" width="7.186" height="3.486"/>
</g>
<g>
	<line fill="none" stroke="#3499CD" stroke-width="5" stroke-miterlimit="10" x1="486.222" y1="430" x2="486.222" y2="371.604"/>
	<polygon fill="#3499CD" points="482.979,377.872 479.979,369.901 492.464,369.901 489.464,377.872 	"/>
	<polyline fill="#3499CD" stroke="#1E314B" stroke-miterlimit="10" points="493.464,356.474 493.464,367.872 492.464,369.901 
		479.979,369.901 478.979,367.872 478.979,356.474 	"/>
	<path fill="#FFCE0C" stroke="#F89939" stroke-width="0.869" stroke-miterlimit="10" d="M478.979,367.985"/>
	<line fill="none" stroke="#1E314B" stroke-miterlimit="10" x1="492.464" y1="371.36" x2="479.964" y2="371.36"/>
	<line fill="none" stroke="#1E314B" stroke-miterlimit="10" x1="491.714" y1="372.86" x2="480.714" y2="372.86"/>
	<line fill="none" stroke="#1E314B" stroke-miterlimit="10" x1="490.964" y1="374.36" x2="481.464" y2="374.36"/>
	<line fill="none" stroke="#1E314B" stroke-miterlimit="10" x1="490.464" y1="375.86" x2="481.964" y2="375.86"/>
	<rect x="482.591" y="377.04" fill="#1E314B" width="7.186" height="3.486"/>
</g>
<g>
	<line fill="none" stroke="#3499CD" stroke-width="5" stroke-miterlimit="10" x1="356.222" y1="430" x2="356.222" y2="371.604"/>
	<polygon fill="#3499CD" points="352.979,377.872 349.979,369.901 362.464,369.901 359.464,377.872 	"/>
	<polyline fill="#3499CD" stroke="#1E314B" stroke-miterlimit="10" points="363.464,356.474 363.464,367.872 362.464,369.901 
		349.979,369.901 348.979,367.872 348.979,356.474 	"/>
	<path fill="#FFCE0C" stroke="#F89939" stroke-width="0.869" stroke-miterlimit="10" d="M348.979,367.985"/>
	<line fill="none" stroke="#1E314B" stroke-miterlimit="10" x1="362.464" y1="371.36" x2="349.964" y2="371.36"/>
	<line fill="none" stroke="#1E314B" stroke-miterlimit="10" x1="361.714" y1="372.86" x2="350.714" y2="372.86"/>
	<line fill="none" stroke="#1E314B" stroke-miterlimit="10" x1="360.964" y1="374.36" x2="351.464" y2="374.36"/>
	<line fill="none" stroke="#1E314B" stroke-miterlimit="10" x1="360.464" y1="375.86" x2="351.964" y2="375.86"/>
	<rect x="352.591" y="377.04" fill="#1E314B" width="7.186" height="3.486"/>
</g>
<g>
	<line fill="none" stroke="#3499CD" stroke-width="5" stroke-miterlimit="10" x1="226.222" y1="430" x2="226.222" y2="371.604"/>
	<polygon fill="#3499CD" points="222.979,377.872 219.979,369.901 232.464,369.901 229.464,377.872 	"/>
	<polyline fill="#3499CD" stroke="#1E314B" stroke-miterlimit="10" points="233.464,356.474 233.464,367.872 232.464,369.901 
		219.979,369.901 218.979,367.872 218.979,356.474 	"/>
	<path fill="#FFCE0C" stroke="#F89939" stroke-width="0.869" stroke-miterlimit="10" d="M218.979,367.985"/>
	<line fill="none" stroke="#1E314B" stroke-miterlimit="10" x1="232.464" y1="371.36" x2="219.964" y2="371.36"/>
	<line fill="none" stroke="#1E314B" stroke-miterlimit="10" x1="231.714" y1="372.86" x2="220.714" y2="372.86"/>
	<line fill="none" stroke="#1E314B" stroke-miterlimit="10" x1="230.964" y1="374.36" x2="221.464" y2="374.36"/>
	<line fill="none" stroke="#1E314B" stroke-miterlimit="10" x1="230.464" y1="375.86" x2="221.964" y2="375.86"/>
	<rect x="222.591" y="377.04" fill="#1E314B" width="7.186" height="3.486"/>
</g>
<g>
	<line fill="none" stroke="#3499CD" stroke-width="5" stroke-miterlimit="10" x1="96.222" y1="430" x2="96.222" y2="371.604"/>
	<polygon fill="#3499CD" points="92.979,377.872 89.979,369.901 102.464,369.901 99.464,377.872 	"/>
	<polyline fill="#3499CD" stroke="#1E314B" stroke-miterlimit="10" points="103.464,356.474 103.464,367.872 102.464,369.901 
		89.979,369.901 88.979,367.872 88.979,356.474 	"/>
	<path fill="#FFCE0C" stroke="#F89939" stroke-width="0.869" stroke-miterlimit="10" d="M88.979,367.985"/>
	<line fill="none" stroke="#1E314B" stroke-miterlimit="10" x1="102.464" y1="371.36" x2="89.964" y2="371.36"/>
	<line fill="none" stroke="#1E314B" stroke-miterlimit="10" x1="101.714" y1="372.86" x2="90.714" y2="372.86"/>
	<line fill="none" stroke="#1E314B" stroke-miterlimit="10" x1="100.964" y1="374.36" x2="91.464" y2="374.36"/>
	<line fill="none" stroke="#1E314B" stroke-miterlimit="10" x1="100.464" y1="375.86" x2="91.964" y2="375.86"/>
	<rect x="92.591" y="377.04" fill="#1E314B" width="7.186" height="3.486"/>
</g>
<g>
	
		<rect x="57.998" y="255.134" fill="#FFFFFF" stroke="#000000" stroke-width="0.4404" stroke-miterlimit="10" width="77.064" height="98.72"/>
	<g>
		<g>
			<g>
				<path fill="#010101" stroke="#FFFFFF" stroke-width="0.1815" stroke-miterlimit="10" d="M96.216,296.35"/>
			</g>
			<g>
				<path fill="#010101" stroke="#FFFFFF" stroke-width="0.1815" stroke-miterlimit="10" d="M96.216,296.35"/>
			</g>
			<g>
				<path fill="#010101" stroke="#FFFFFF" stroke-width="0.1815" stroke-miterlimit="10" d="M96.216,296.35"/>
			</g>
			<g>
				<path fill="#010101" stroke="#FFFFFF" stroke-width="0.1815" stroke-miterlimit="10" d="M96.216,296.35"/>
			</g>
		</g>
		<polyline fill="#3499CD" points="118.901,309.393 107.56,316.197 96.218,323.002 96.218,309.393 96.218,295.782 		"/>
		<polyline fill="#996699" points="118.901,309.393 118.901,295.782 118.901,282.172 107.572,288.977 96.218,295.782 		"/>
		<polyline fill="#F89939" points="96.22,268.561 84.875,275.366 73.533,282.172 84.877,288.977 96.22,295.782 		"/>
		<polyline fill="#EF3B68" points="96.218,268.561 107.559,275.366 118.901,282.172 107.56,288.977 96.218,295.782 		"/>
		<polyline fill="#FFCE0C" points="73.533,309.393 84.877,316.197 96.22,323.002 96.22,309.393 96.22,295.782 		"/>
		<polyline fill="#6FC498" points="73.534,309.393 73.534,295.782 73.534,282.172 84.875,288.977 96.218,295.782 		"/>
		<g>
			<g>
				<g>
					
						<line fill="none" stroke="#FFFFFF" stroke-width="0.5444" stroke-miterlimit="10" x1="96.222" y1="268.561" x2="96.222" y2="269.195"/>
					
						<line fill="none" stroke="#FFFFFF" stroke-width="0.5444" stroke-miterlimit="10" stroke-dasharray="1.2358,1.2358" x1="96.221" y1="270.432" x2="96.216" y2="294.529"/>
					
						<line fill="none" stroke="#FFFFFF" stroke-width="0.5444" stroke-miterlimit="10" x1="96.216" y1="295.146" x2="96.216" y2="295.782"/>
				</g>
			</g>
			<g>
				<g>
					
						<line fill="none" stroke="#FFFFFF" stroke-width="0.5444" stroke-miterlimit="10" x1="96.216" y1="295.782" x2="96.76" y2="296.109"/>
					
						<line fill="none" stroke="#FFFFFF" stroke-width="0.5444" stroke-miterlimit="10" stroke-dasharray="1.3255,1.3255" x1="97.897" y1="296.791" x2="117.789" y2="308.725"/>
					
						<line fill="none" stroke="#FFFFFF" stroke-width="0.5444" stroke-miterlimit="10" x1="118.357" y1="309.066" x2="118.901" y2="309.393"/>
				</g>
			</g>
			<g>
				<g>
					
						<line fill="none" stroke="#FFFFFF" stroke-width="0.5444" stroke-miterlimit="10" x1="96.216" y1="295.782" x2="95.671" y2="296.109"/>
					
						<line fill="none" stroke="#FFFFFF" stroke-width="0.5444" stroke-miterlimit="10" stroke-dasharray="1.3254,1.3254" x1="94.535" y1="296.791" x2="74.646" y2="308.725"/>
					
						<line fill="none" stroke="#FFFFFF" stroke-width="0.5444" stroke-miterlimit="10" x1="74.078" y1="309.066" x2="73.533" y2="309.393"/>
				</g>
			</g>
		</g>
		<g>
			
				<line fill="none" stroke="#FFFFFF" stroke-width="0.5444" stroke-miterlimit="10" x1="96.222" y1="323.002" x2="96.216" y2="295.782"/>
			
				<line fill="none" stroke="#FFFFFF" stroke-width="0.5444" stroke-miterlimit="10" x1="96.216" y1="295.782" x2="118.901" y2="282.172"/>
			
				<line fill="none" stroke="#FFFFFF" stroke-width="0.5444" stroke-miterlimit="10" x1="96.216" y1="295.782" x2="73.533" y2="282.172"/>
		</g>
	</g>
	
		<rect x="62.403" y="356.52" fill="#FFFFFF" stroke="#000000" stroke-width="0.4404" stroke-miterlimit="10" width="67.942" height="5.537"/>
	
		<rect x="62.403" y="247.057" fill="#FFFFFF" stroke="#000000" stroke-width="0.4404" stroke-miterlimit="10" width="67.942" height="5.536"/>
	
		<line fill="none" stroke="#000000" stroke-width="4.4148" stroke-miterlimit="10" x1="56.5" y1="252.903" x2="136.346" y2="252.903"/>
	
		<line fill="none" stroke="#000000" stroke-width="4.4148" stroke-miterlimit="10" x1="56.5" y1="356.085" x2="136.346" y2="356.085"/>
	<g>
		<path d="M89.894,328.615h1.766v7.848h-1.766v-3.33h-2.967v3.33H85.16v-7.848h1.767v3h2.967V328.615z"/>
		<path d="M96.54,336.621c-0.551,0-1.026-0.078-1.427-0.232s-0.73-0.369-0.991-0.646c-0.26-0.275-0.452-0.604-0.577-0.985
			c-0.125-0.381-0.187-0.802-0.187-1.262v-4.881h1.767v4.732c0,0.318,0.035,0.588,0.107,0.811c0.071,0.223,0.17,0.404,0.294,0.543
			c0.125,0.141,0.275,0.24,0.453,0.301s0.372,0.09,0.583,0.09c0.431,0,0.779-0.131,1.048-0.396c0.268-0.264,0.401-0.713,0.401-1.348
			v-4.732h1.767v4.881c0,0.46-0.063,0.883-0.192,1.268c-0.128,0.385-0.324,0.715-0.589,0.991c-0.264,0.275-0.6,0.489-1.008,0.64
			C97.582,336.545,97.099,336.621,96.54,336.621z"/>
		<path d="M104.093,336.564c-0.43,0-0.858-0.014-1.285-0.039c-0.427-0.027-0.87-0.09-1.33-0.188v-7.609
			c0.362-0.068,0.759-0.119,1.188-0.153c0.431-0.034,0.83-0.051,1.2-0.051c0.499,0,0.957,0.036,1.376,0.107s0.779,0.194,1.082,0.368
			c0.302,0.174,0.537,0.402,0.707,0.686s0.255,0.632,0.255,1.047c0,0.627-0.302,1.121-0.905,1.483
			c0.498,0.188,0.838,0.446,1.019,0.771c0.182,0.324,0.271,0.69,0.271,1.098c0,0.823-0.3,1.442-0.899,1.857
			C106.171,336.357,105.278,336.564,104.093,336.564z M103.198,333.043v2.026c0.129,0.016,0.268,0.026,0.419,0.034
			s0.317,0.012,0.498,0.012c0.528,0,0.955-0.076,1.28-0.227c0.324-0.151,0.486-0.431,0.486-0.838c0-0.363-0.136-0.621-0.407-0.775
			c-0.271-0.155-0.661-0.232-1.166-0.232H103.198z M103.198,331.695h0.86c0.544,0,0.933-0.07,1.167-0.209
			c0.233-0.141,0.351-0.365,0.351-0.674c0-0.318-0.121-0.541-0.362-0.669s-0.597-0.192-1.064-0.192
			c-0.151,0-0.313,0.002-0.486,0.006c-0.174,0.004-0.329,0.014-0.465,0.028V331.695z"/>
	</g>
	<rect x="60.333" y="295.78" width="2.831" height="15.13"/>
	<rect x="130.163" y="295.78" width="2.831" height="15.13"/>
</g>
<g>
	
		<rect x="188.037" y="255.134" fill="#FFFFFF" stroke="#000000" stroke-width="0.4404" stroke-miterlimit="10" width="77.064" height="98.72"/>
	<g>
		<g>
			<g>
				<path fill="#010101" stroke="#FFFFFF" stroke-width="0.1815" stroke-miterlimit="10" d="M226.254,296.35"/>
			</g>
			<g>
				<path fill="#010101" stroke="#FFFFFF" stroke-width="0.1815" stroke-miterlimit="10" d="M226.254,296.35"/>
			</g>
			<g>
				<path fill="#010101" stroke="#FFFFFF" stroke-width="0.1815" stroke-miterlimit="10" d="M226.254,296.35"/>
			</g>
			<g>
				<path fill="#010101" stroke="#FFFFFF" stroke-width="0.1815" stroke-miterlimit="10" d="M226.254,296.35"/>
			</g>
		</g>
		<polyline fill="#3499CD" points="248.94,309.393 237.598,316.197 226.256,323.002 226.256,309.393 226.256,295.782 		"/>
		<polyline fill="#996699" points="248.94,309.393 248.94,295.782 248.94,282.172 237.611,288.977 226.256,295.782 		"/>
		<polyline fill="#F89939" points="226.258,268.561 214.914,275.366 203.572,282.172 214.916,288.977 226.258,295.782 		"/>
		<polyline fill="#EF3B68" points="226.256,268.561 237.597,275.366 248.94,282.172 237.598,288.977 226.256,295.782 		"/>
		<polyline fill="#FFCE0C" points="203.572,309.393 214.916,316.197 226.258,323.002 226.258,309.393 226.258,295.782 		"/>
		<polyline fill="#6FC498" points="203.573,309.393 203.573,295.782 203.573,282.172 214.914,288.977 226.256,295.782 		"/>
		<g>
			<g>
				<g>
					
						<line fill="none" stroke="#FFFFFF" stroke-width="0.5444" stroke-miterlimit="10" x1="226.26" y1="268.561" x2="226.26" y2="269.195"/>
					
						<line fill="none" stroke="#FFFFFF" stroke-width="0.5444" stroke-miterlimit="10" stroke-dasharray="1.2358,1.2358" x1="226.26" y1="270.432" x2="226.255" y2="294.529"/>
					
						<line fill="none" stroke="#FFFFFF" stroke-width="0.5444" stroke-miterlimit="10" x1="226.254" y1="295.146" x2="226.254" y2="295.782"/>
				</g>
			</g>
			<g>
				<g>
					
						<line fill="none" stroke="#FFFFFF" stroke-width="0.5444" stroke-miterlimit="10" x1="226.254" y1="295.782" x2="226.799" y2="296.109"/>
					
						<line fill="none" stroke="#FFFFFF" stroke-width="0.5444" stroke-miterlimit="10" stroke-dasharray="1.3255,1.3255" x1="227.936" y1="296.791" x2="247.827" y2="308.725"/>
					
						<line fill="none" stroke="#FFFFFF" stroke-width="0.5444" stroke-miterlimit="10" x1="248.396" y1="309.066" x2="248.94" y2="309.393"/>
				</g>
			</g>
			<g>
				<g>
					
						<line fill="none" stroke="#FFFFFF" stroke-width="0.5444" stroke-miterlimit="10" x1="226.254" y1="295.782" x2="225.71" y2="296.109"/>
					
						<line fill="none" stroke="#FFFFFF" stroke-width="0.5444" stroke-miterlimit="10" stroke-dasharray="1.3254,1.3254" x1="224.573" y1="296.791" x2="204.685" y2="308.725"/>
					
						<line fill="none" stroke="#FFFFFF" stroke-width="0.5444" stroke-miterlimit="10" x1="204.116" y1="309.066" x2="203.572" y2="309.393"/>
				</g>
			</g>
		</g>
		<g>
			
				<line fill="none" stroke="#FFFFFF" stroke-width="0.5444" stroke-miterlimit="10" x1="226.26" y1="323.002" x2="226.254" y2="295.782"/>
			
				<line fill="none" stroke="#FFFFFF" stroke-width="0.5444" stroke-miterlimit="10" x1="226.254" y1="295.782" x2="248.94" y2="282.172"/>
			
				<line fill="none" stroke="#FFFFFF" stroke-width="0.5444" stroke-miterlimit="10" x1="226.254" y1="295.782" x2="203.572" y2="282.172"/>
		</g>
	</g>
	
		<rect x="192.442" y="356.52" fill="#FFFFFF" stroke="#000000" stroke-width="0.4404" stroke-miterlimit="10" width="67.942" height="5.537"/>
	
		<rect x="192.442" y="247.057" fill="#FFFFFF" stroke="#000000" stroke-width="0.4404" stroke-miterlimit="10" width="67.942" height="5.536"/>
	
		<line fill="none" stroke="#000000" stroke-width="4.4148" stroke-miterlimit="10" x1="186.539" y1="252.903" x2="266.384" y2="252.903"/>
	
		<line fill="none" stroke="#000000" stroke-width="4.4148" stroke-miterlimit="10" x1="186.539" y1="356.085" x2="266.384" y2="356.085"/>
	<g>
		<path d="M219.932,328.615h1.766v7.848h-1.766v-3.33h-2.967v3.33h-1.767v-7.848h1.767v3h2.967V328.615z"/>
		<path d="M226.579,336.621c-0.551,0-1.026-0.078-1.427-0.232s-0.73-0.369-0.991-0.646c-0.26-0.275-0.452-0.604-0.577-0.985
			c-0.125-0.381-0.187-0.802-0.187-1.262v-4.881h1.767v4.732c0,0.318,0.035,0.588,0.107,0.811c0.071,0.223,0.17,0.404,0.294,0.543
			c0.125,0.141,0.275,0.24,0.453,0.301s0.372,0.09,0.583,0.09c0.431,0,0.779-0.131,1.048-0.396c0.268-0.264,0.401-0.713,0.401-1.348
			v-4.732h1.767v4.881c0,0.46-0.063,0.883-0.192,1.268c-0.128,0.385-0.324,0.715-0.589,0.991c-0.264,0.275-0.6,0.489-1.008,0.64
			C227.621,336.545,227.137,336.621,226.579,336.621z"/>
		<path d="M234.131,336.564c-0.43,0-0.858-0.014-1.285-0.039c-0.427-0.027-0.87-0.09-1.33-0.188v-7.609
			c0.362-0.068,0.759-0.119,1.188-0.153c0.431-0.034,0.83-0.051,1.2-0.051c0.499,0,0.957,0.036,1.376,0.107s0.779,0.194,1.082,0.368
			c0.302,0.174,0.537,0.402,0.707,0.686s0.255,0.632,0.255,1.047c0,0.627-0.302,1.121-0.905,1.483
			c0.498,0.188,0.838,0.446,1.019,0.771c0.182,0.324,0.271,0.69,0.271,1.098c0,0.823-0.3,1.442-0.899,1.857
			C236.209,336.357,235.317,336.564,234.131,336.564z M233.237,333.043v2.026c0.129,0.016,0.268,0.026,0.419,0.034
			s0.317,0.012,0.498,0.012c0.528,0,0.955-0.076,1.28-0.227c0.324-0.151,0.486-0.431,0.486-0.838c0-0.363-0.136-0.621-0.407-0.775
			c-0.271-0.155-0.661-0.232-1.166-0.232H233.237z M233.237,331.695h0.86c0.544,0,0.933-0.07,1.167-0.209
			c0.233-0.141,0.351-0.365,0.351-0.674c0-0.318-0.121-0.541-0.362-0.669s-0.597-0.192-1.064-0.192
			c-0.151,0-0.313,0.002-0.486,0.006c-0.174,0.004-0.329,0.014-0.465,0.028V331.695z"/>
	</g>
	<rect x="190.372" y="295.78" width="2.831" height="15.13"/>
	<rect x="260.202" y="295.78" width="2.831" height="15.13"/>
</g>
<g>
	
		<rect x="318.075" y="255.134" fill="#FFFFFF" stroke="#000000" stroke-width="0.4404" stroke-miterlimit="10" width="77.064" height="98.72"/>
	<g>
		<g>
			<g>
				<path fill="#010101" stroke="#FFFFFF" stroke-width="0.1815" stroke-miterlimit="10" d="M356.294,296.35"/>
			</g>
			<g>
				<path fill="#010101" stroke="#FFFFFF" stroke-width="0.1815" stroke-miterlimit="10" d="M356.294,296.35"/>
			</g>
			<g>
				<path fill="#010101" stroke="#FFFFFF" stroke-width="0.1815" stroke-miterlimit="10" d="M356.294,296.35"/>
			</g>
			<g>
				<path fill="#010101" stroke="#FFFFFF" stroke-width="0.1815" stroke-miterlimit="10" d="M356.294,296.35"/>
			</g>
		</g>
		<polyline fill="#3499CD" points="378.979,309.393 367.638,316.197 356.296,323.002 356.296,309.393 356.296,295.782 		"/>
		<polyline fill="#996699" points="378.979,309.393 378.979,295.782 378.979,282.172 367.649,288.977 356.296,295.782 		"/>
		<polyline fill="#F89939" points="356.298,268.561 344.952,275.366 333.61,282.172 344.954,288.977 356.298,295.782 		"/>
		<polyline fill="#EF3B68" points="356.296,268.561 367.636,275.366 378.979,282.172 367.638,288.977 356.296,295.782 		"/>
		<polyline fill="#FFCE0C" points="333.61,309.393 344.954,316.197 356.298,323.002 356.298,309.393 356.298,295.782 		"/>
		<polyline fill="#6FC498" points="333.611,309.393 333.611,295.782 333.611,282.172 344.952,288.977 356.296,295.782 		"/>
		<g>
			<g>
				<g>
					
						<line fill="none" stroke="#FFFFFF" stroke-width="0.5444" stroke-miterlimit="10" x1="356.3" y1="268.561" x2="356.3" y2="269.195"/>
					
						<line fill="none" stroke="#FFFFFF" stroke-width="0.5444" stroke-miterlimit="10" stroke-dasharray="1.2358,1.2358" x1="356.299" y1="270.432" x2="356.294" y2="294.529"/>
					
						<line fill="none" stroke="#FFFFFF" stroke-width="0.5444" stroke-miterlimit="10" x1="356.294" y1="295.146" x2="356.294" y2="295.782"/>
				</g>
			</g>
			<g>
				<g>
					
						<line fill="none" stroke="#FFFFFF" stroke-width="0.5444" stroke-miterlimit="10" x1="356.294" y1="295.782" x2="356.838" y2="296.109"/>
					
						<line fill="none" stroke="#FFFFFF" stroke-width="0.5444" stroke-miterlimit="10" stroke-dasharray="1.3255,1.3255" x1="357.976" y1="296.791" x2="377.866" y2="308.725"/>
					
						<line fill="none" stroke="#FFFFFF" stroke-width="0.5444" stroke-miterlimit="10" x1="378.435" y1="309.066" x2="378.979" y2="309.393"/>
				</g>
			</g>
			<g>
				<g>
					
						<line fill="none" stroke="#FFFFFF" stroke-width="0.5444" stroke-miterlimit="10" x1="356.294" y1="295.782" x2="355.75" y2="296.109"/>
					
						<line fill="none" stroke="#FFFFFF" stroke-width="0.5444" stroke-miterlimit="10" stroke-dasharray="1.3254,1.3254" x1="354.613" y1="296.791" x2="334.723" y2="308.725"/>
					
						<line fill="none" stroke="#FFFFFF" stroke-width="0.5444" stroke-miterlimit="10" x1="334.155" y1="309.066" x2="333.61" y2="309.393"/>
				</g>
			</g>
		</g>
		<g>
			
				<line fill="none" stroke="#FFFFFF" stroke-width="0.5444" stroke-miterlimit="10" x1="356.3" y1="323.002" x2="356.294" y2="295.782"/>
			
				<line fill="none" stroke="#FFFFFF" stroke-width="0.5444" stroke-miterlimit="10" x1="356.294" y1="295.782" x2="378.979" y2="282.172"/>
			
				<line fill="none" stroke="#FFFFFF" stroke-width="0.5444" stroke-miterlimit="10" x1="356.294" y1="295.782" x2="333.61" y2="282.172"/>
		</g>
	</g>
	
		<rect x="322.48" y="356.52" fill="#FFFFFF" stroke="#000000" stroke-width="0.4404" stroke-miterlimit="10" width="67.942" height="5.537"/>
	
		<rect x="322.48" y="247.057" fill="#FFFFFF" stroke="#000000" stroke-width="0.4404" stroke-miterlimit="10" width="67.942" height="5.536"/>
	
		<line fill="none" stroke="#000000" stroke-width="4.4148" stroke-miterlimit="10" x1="316.577" y1="252.903" x2="396.423" y2="252.903"/>
	
		<line fill="none" stroke="#000000" stroke-width="4.4148" stroke-miterlimit="10" x1="316.577" y1="356.085" x2="396.423" y2="356.085"/>
	<g>
		<path d="M349.971,328.615h1.766v7.848h-1.766v-3.33h-2.967v3.33h-1.767v-7.848h1.767v3h2.967V328.615z"/>
		<path d="M356.618,336.621c-0.551,0-1.026-0.078-1.427-0.232s-0.73-0.369-0.991-0.646c-0.26-0.275-0.452-0.604-0.577-0.985
			c-0.125-0.381-0.187-0.802-0.187-1.262v-4.881h1.767v4.732c0,0.318,0.035,0.588,0.107,0.811c0.071,0.223,0.17,0.404,0.294,0.543
			c0.125,0.141,0.275,0.24,0.453,0.301s0.372,0.09,0.583,0.09c0.43,0,0.78-0.131,1.047-0.396c0.268-0.264,0.402-0.713,0.402-1.348
			v-4.732h1.766v4.881c0,0.46-0.063,0.883-0.191,1.268s-0.324,0.715-0.59,0.991c-0.264,0.275-0.6,0.489-1.008,0.64
			C357.66,336.545,357.176,336.621,356.618,336.621z"/>
		<path d="M364.17,336.564c-0.43,0-0.857-0.014-1.285-0.039c-0.426-0.027-0.869-0.09-1.33-0.188v-7.609
			c0.363-0.068,0.76-0.119,1.189-0.153s0.83-0.051,1.199-0.051c0.5,0,0.957,0.036,1.377,0.107c0.418,0.071,0.779,0.194,1.082,0.368
			c0.301,0.174,0.537,0.402,0.707,0.686s0.254,0.632,0.254,1.047c0,0.627-0.301,1.121-0.904,1.483
			c0.498,0.188,0.838,0.446,1.018,0.771c0.182,0.324,0.271,0.69,0.271,1.098c0,0.823-0.299,1.442-0.898,1.857
			C366.248,336.357,365.355,336.564,364.17,336.564z M363.275,333.043v2.026c0.129,0.016,0.268,0.026,0.42,0.034
			c0.15,0.008,0.316,0.012,0.498,0.012c0.527,0,0.955-0.076,1.279-0.227c0.324-0.151,0.486-0.431,0.486-0.838
			c0-0.363-0.135-0.621-0.406-0.775c-0.271-0.155-0.662-0.232-1.166-0.232H363.275z M363.275,331.695h0.861
			c0.543,0,0.932-0.07,1.166-0.209c0.234-0.141,0.352-0.365,0.352-0.674c0-0.318-0.121-0.541-0.363-0.669
			c-0.24-0.128-0.596-0.192-1.064-0.192c-0.15,0-0.313,0.002-0.486,0.006s-0.328,0.014-0.465,0.028V331.695z"/>
	</g>
	<rect x="320.41" y="295.78" width="2.831" height="15.13"/>
	<rect x="390.241" y="295.78" width="2.83" height="15.13"/>
</g>
<g>
	
		<rect x="448.113" y="255.134" fill="#FFFFFF" stroke="#000000" stroke-width="0.4404" stroke-miterlimit="10" width="77.064" height="98.72"/>
	<g>
		<g>
			<g>
				<path fill="#010101" stroke="#FFFFFF" stroke-width="0.1815" stroke-miterlimit="10" d="M486.332,296.35"/>
			</g>
			<g>
				<path fill="#010101" stroke="#FFFFFF" stroke-width="0.1815" stroke-miterlimit="10" d="M486.332,296.35"/>
			</g>
			<g>
				<path fill="#010101" stroke="#FFFFFF" stroke-width="0.1815" stroke-miterlimit="10" d="M486.332,296.35"/>
			</g>
			<g>
				<path fill="#010101" stroke="#FFFFFF" stroke-width="0.1815" stroke-miterlimit="10" d="M486.332,296.35"/>
			</g>
		</g>
		<polyline fill="#3499CD" points="509.018,309.393 497.676,316.197 486.334,323.002 486.334,309.393 486.334,295.782 		"/>
		<polyline fill="#996699" points="509.018,309.393 509.018,295.782 509.018,282.172 497.688,288.977 486.334,295.782 		"/>
		<polyline fill="#F89939" points="486.336,268.561 474.99,275.366 463.648,282.172 474.992,288.977 486.336,295.782 		"/>
		<polyline fill="#EF3B68" points="486.334,268.561 497.674,275.366 509.018,282.172 497.676,288.977 486.334,295.782 		"/>
		<polyline fill="#FFCE0C" points="463.648,309.393 474.992,316.197 486.336,323.002 486.336,309.393 486.336,295.782 		"/>
		<polyline fill="#6FC498" points="463.65,309.393 463.65,295.782 463.65,282.172 474.99,288.977 486.334,295.782 		"/>
		<g>
			<g>
				<g>
					
						<line fill="none" stroke="#FFFFFF" stroke-width="0.5444" stroke-miterlimit="10" x1="486.338" y1="268.561" x2="486.338" y2="269.195"/>
					
						<line fill="none" stroke="#FFFFFF" stroke-width="0.5444" stroke-miterlimit="10" stroke-dasharray="1.2358,1.2358" x1="486.338" y1="270.432" x2="486.332" y2="294.529"/>
					
						<line fill="none" stroke="#FFFFFF" stroke-width="0.5444" stroke-miterlimit="10" x1="486.332" y1="295.146" x2="486.332" y2="295.782"/>
				</g>
			</g>
			<g>
				<g>
					
						<line fill="none" stroke="#FFFFFF" stroke-width="0.5444" stroke-miterlimit="10" x1="486.332" y1="295.782" x2="486.877" y2="296.109"/>
					
						<line fill="none" stroke="#FFFFFF" stroke-width="0.5444" stroke-miterlimit="10" stroke-dasharray="1.3255,1.3255" x1="488.014" y1="296.791" x2="507.904" y2="308.725"/>
					
						<line fill="none" stroke="#FFFFFF" stroke-width="0.5444" stroke-miterlimit="10" x1="508.473" y1="309.066" x2="509.018" y2="309.393"/>
				</g>
			</g>
			<g>
				<g>
					
						<line fill="none" stroke="#FFFFFF" stroke-width="0.5444" stroke-miterlimit="10" x1="486.332" y1="295.782" x2="485.787" y2="296.109"/>
					
						<line fill="none" stroke="#FFFFFF" stroke-width="0.5444" stroke-miterlimit="10" stroke-dasharray="1.3254,1.3254" x1="484.65" y1="296.791" x2="464.762" y2="308.725"/>
					
						<line fill="none" stroke="#FFFFFF" stroke-width="0.5444" stroke-miterlimit="10" x1="464.193" y1="309.066" x2="463.648" y2="309.393"/>
				</g>
			</g>
		</g>
		<g>
			
				<line fill="none" stroke="#FFFFFF" stroke-width="0.5444" stroke-miterlimit="10" x1="486.338" y1="323.002" x2="486.332" y2="295.782"/>
			
				<line fill="none" stroke="#FFFFFF" stroke-width="0.5444" stroke-miterlimit="10" x1="486.332" y1="295.782" x2="509.018" y2="282.172"/>
			
				<line fill="none" stroke="#FFFFFF" stroke-width="0.5444" stroke-miterlimit="10" x1="486.332" y1="295.782" x2="463.648" y2="282.172"/>
		</g>
	</g>
	
		<rect x="452.52" y="356.52" fill="#FFFFFF" stroke="#000000" stroke-width="0.4404" stroke-miterlimit="10" width="67.941" height="5.537"/>
	
		<rect x="452.52" y="247.057" fill="#FFFFFF" stroke="#000000" stroke-width="0.4404" stroke-miterlimit="10" width="67.941" height="5.536"/>
	
		<line fill="none" stroke="#000000" stroke-width="4.4148" stroke-miterlimit="10" x1="446.615" y1="252.903" x2="526.461" y2="252.903"/>
	
		<line fill="none" stroke="#000000" stroke-width="4.4148" stroke-miterlimit="10" x1="446.615" y1="356.085" x2="526.461" y2="356.085"/>
	<g>
		<path d="M480.01,328.615h1.766v7.848h-1.766v-3.33h-2.967v3.33h-1.767v-7.848h1.767v3h2.967V328.615z"/>
		<path d="M486.656,336.621c-0.551,0-1.026-0.078-1.427-0.232s-0.73-0.369-0.991-0.646c-0.26-0.275-0.452-0.604-0.577-0.985
			c-0.125-0.381-0.187-0.802-0.187-1.262v-4.881h1.767v4.732c0,0.318,0.035,0.588,0.107,0.811c0.071,0.223,0.17,0.404,0.294,0.543
			c0.125,0.141,0.275,0.24,0.453,0.301s0.372,0.09,0.583,0.09c0.431,0,0.779-0.131,1.048-0.396c0.268-0.264,0.401-0.713,0.401-1.348
			v-4.732h1.767v4.881c0,0.46-0.063,0.883-0.192,1.268c-0.128,0.385-0.324,0.715-0.589,0.991c-0.264,0.275-0.6,0.489-1.008,0.64
			C487.698,336.545,487.215,336.621,486.656,336.621z"/>
		<path d="M494.209,336.564c-0.43,0-0.858-0.014-1.285-0.039c-0.427-0.027-0.87-0.09-1.33-0.188v-7.609
			c0.362-0.068,0.759-0.119,1.188-0.153c0.431-0.034,0.83-0.051,1.2-0.051c0.499,0,0.957,0.036,1.376,0.107s0.779,0.194,1.082,0.368
			c0.302,0.174,0.537,0.402,0.707,0.686s0.255,0.632,0.255,1.047c0,0.627-0.302,1.121-0.905,1.483
			c0.498,0.188,0.838,0.446,1.019,0.771c0.182,0.324,0.271,0.69,0.271,1.098c0,0.823-0.3,1.442-0.899,1.857
			C496.287,336.357,495.395,336.564,494.209,336.564z M493.314,333.043v2.026c0.129,0.016,0.268,0.026,0.419,0.034
			s0.317,0.012,0.498,0.012c0.528,0,0.955-0.076,1.28-0.227c0.324-0.151,0.486-0.431,0.486-0.838c0-0.363-0.136-0.621-0.407-0.775
			c-0.271-0.155-0.661-0.232-1.166-0.232H493.314z M493.314,331.695h0.86c0.544,0,0.933-0.07,1.167-0.209
			c0.233-0.141,0.351-0.365,0.351-0.674c0-0.318-0.121-0.541-0.362-0.669s-0.597-0.192-1.064-0.192
			c-0.151,0-0.313,0.002-0.486,0.006c-0.174,0.004-0.329,0.014-0.465,0.028V331.695z"/>
	</g>
	<rect x="450.449" y="295.78" width="2.83" height="15.13"/>
	<rect x="520.279" y="295.78" width="2.83" height="15.13"/>
</g>
<g>
	
		<rect x="578.152" y="255.134" fill="#FFFFFF" stroke="#000000" stroke-width="0.4404" stroke-miterlimit="10" width="77.064" height="98.72"/>
	<g>
		<g>
			<g>
				<path fill="#010101" stroke="#FFFFFF" stroke-width="0.1815" stroke-miterlimit="10" d="M616.371,296.35"/>
			</g>
			<g>
				<path fill="#010101" stroke="#FFFFFF" stroke-width="0.1815" stroke-miterlimit="10" d="M616.371,296.35"/>
			</g>
			<g>
				<path fill="#010101" stroke="#FFFFFF" stroke-width="0.1815" stroke-miterlimit="10" d="M616.371,296.35"/>
			</g>
			<g>
				<path fill="#010101" stroke="#FFFFFF" stroke-width="0.1815" stroke-miterlimit="10" d="M616.371,296.35"/>
			</g>
		</g>
		<polyline fill="#3499CD" points="639.057,309.393 627.715,316.197 616.373,323.002 616.373,309.393 616.373,295.782 		"/>
		<polyline fill="#996699" points="639.057,309.393 639.057,295.782 639.057,282.172 627.727,288.977 616.373,295.782 		"/>
		<polyline fill="#F89939" points="616.375,268.561 605.029,275.366 593.688,282.172 605.031,288.977 616.375,295.782 		"/>
		<polyline fill="#EF3B68" points="616.373,268.561 627.713,275.366 639.057,282.172 627.715,288.977 616.373,295.782 		"/>
		<polyline fill="#FFCE0C" points="593.688,309.393 605.031,316.197 616.375,323.002 616.375,309.393 616.375,295.782 		"/>
		<polyline fill="#6FC498" points="593.689,309.393 593.689,295.782 593.689,282.172 605.029,288.977 616.373,295.782 		"/>
		<g>
			<g>
				<g>
					
						<line fill="none" stroke="#FFFFFF" stroke-width="0.5444" stroke-miterlimit="10" x1="616.377" y1="268.561" x2="616.377" y2="269.195"/>
					
						<line fill="none" stroke="#FFFFFF" stroke-width="0.5444" stroke-miterlimit="10" stroke-dasharray="1.2358,1.2358" x1="616.377" y1="270.432" x2="616.371" y2="294.529"/>
					
						<line fill="none" stroke="#FFFFFF" stroke-width="0.5444" stroke-miterlimit="10" x1="616.371" y1="295.146" x2="616.371" y2="295.782"/>
				</g>
			</g>
			<g>
				<g>
					
						<line fill="none" stroke="#FFFFFF" stroke-width="0.5444" stroke-miterlimit="10" x1="616.371" y1="295.782" x2="616.916" y2="296.109"/>
					
						<line fill="none" stroke="#FFFFFF" stroke-width="0.5444" stroke-miterlimit="10" stroke-dasharray="1.3255,1.3255" x1="618.053" y1="296.791" x2="637.943" y2="308.725"/>
					
						<line fill="none" stroke="#FFFFFF" stroke-width="0.5444" stroke-miterlimit="10" x1="638.512" y1="309.066" x2="639.057" y2="309.393"/>
				</g>
			</g>
			<g>
				<g>
					
						<line fill="none" stroke="#FFFFFF" stroke-width="0.5444" stroke-miterlimit="10" x1="616.371" y1="295.782" x2="615.826" y2="296.109"/>
					
						<line fill="none" stroke="#FFFFFF" stroke-width="0.5444" stroke-miterlimit="10" stroke-dasharray="1.3254,1.3254" x1="614.689" y1="296.791" x2="594.801" y2="308.725"/>
					
						<line fill="none" stroke="#FFFFFF" stroke-width="0.5444" stroke-miterlimit="10" x1="594.232" y1="309.066" x2="593.688" y2="309.393"/>
				</g>
			</g>
		</g>
		<g>
			
				<line fill="none" stroke="#FFFFFF" stroke-width="0.5444" stroke-miterlimit="10" x1="616.377" y1="323.002" x2="616.371" y2="295.782"/>
			
				<line fill="none" stroke="#FFFFFF" stroke-width="0.5444" stroke-miterlimit="10" x1="616.371" y1="295.782" x2="639.057" y2="282.172"/>
			
				<line fill="none" stroke="#FFFFFF" stroke-width="0.5444" stroke-miterlimit="10" x1="616.371" y1="295.782" x2="593.688" y2="282.172"/>
		</g>
	</g>
	
		<rect x="582.559" y="356.52" fill="#FFFFFF" stroke="#000000" stroke-width="0.4404" stroke-miterlimit="10" width="67.941" height="5.537"/>
	
		<rect x="582.559" y="247.057" fill="#FFFFFF" stroke="#000000" stroke-width="0.4404" stroke-miterlimit="10" width="67.941" height="5.536"/>
	
		<line fill="none" stroke="#000000" stroke-width="4.4148" stroke-miterlimit="10" x1="576.654" y1="252.903" x2="656.5" y2="252.903"/>
	
		<line fill="none" stroke="#000000" stroke-width="4.4148" stroke-miterlimit="10" x1="576.654" y1="356.085" x2="656.5" y2="356.085"/>
	<g>
		<path d="M610.049,328.615h1.766v7.848h-1.766v-3.33h-2.967v3.33h-1.768v-7.848h1.768v3h2.967V328.615z"/>
		<path d="M616.695,336.621c-0.551,0-1.027-0.078-1.428-0.232s-0.73-0.369-0.99-0.646c-0.26-0.275-0.453-0.604-0.578-0.985
			c-0.125-0.381-0.186-0.802-0.186-1.262v-4.881h1.766v4.732c0,0.318,0.035,0.588,0.107,0.811s0.17,0.404,0.295,0.543
			c0.125,0.141,0.275,0.24,0.453,0.301s0.371,0.09,0.582,0.09c0.432,0,0.779-0.131,1.049-0.396c0.268-0.264,0.4-0.713,0.4-1.348
			v-4.732h1.768v4.881c0,0.46-0.064,0.883-0.193,1.268c-0.127,0.385-0.324,0.715-0.588,0.991c-0.264,0.275-0.6,0.489-1.008,0.64
			S617.254,336.621,616.695,336.621z"/>
		<path d="M624.248,336.564c-0.43,0-0.859-0.014-1.285-0.039c-0.428-0.027-0.871-0.09-1.33-0.188v-7.609
			c0.361-0.068,0.758-0.119,1.188-0.153c0.432-0.034,0.83-0.051,1.201-0.051c0.498,0,0.957,0.036,1.375,0.107
			c0.42,0.071,0.779,0.194,1.082,0.368s0.537,0.402,0.707,0.686s0.256,0.632,0.256,1.047c0,0.627-0.303,1.121-0.906,1.483
			c0.498,0.188,0.838,0.446,1.02,0.771s0.271,0.69,0.271,1.098c0,0.823-0.301,1.442-0.9,1.857
			C626.326,336.357,625.434,336.564,624.248,336.564z M623.354,333.043v2.026c0.129,0.016,0.268,0.026,0.418,0.034
			c0.152,0.008,0.318,0.012,0.498,0.012c0.529,0,0.955-0.076,1.281-0.227c0.324-0.151,0.486-0.431,0.486-0.838
			c0-0.363-0.137-0.621-0.408-0.775c-0.271-0.155-0.66-0.232-1.166-0.232H623.354z M623.354,331.695h0.859
			c0.545,0,0.934-0.07,1.168-0.209c0.232-0.141,0.35-0.365,0.35-0.674c0-0.318-0.121-0.541-0.361-0.669
			c-0.242-0.128-0.598-0.192-1.064-0.192c-0.152,0-0.314,0.002-0.486,0.006c-0.174,0.004-0.33,0.014-0.465,0.028V331.695z"/>
	</g>
	<rect x="580.488" y="295.78" width="2.83" height="15.13"/>
	<rect x="650.318" y="295.78" width="2.83" height="15.13"/>
</g>
<g>
	<rect x="289.548" y="8.572" width="133.334" height="180"/>
	<g>
		<path fill="#FFFFFF" d="M413.806,50.334V31.857H298.927v18.477h5.627v8.076h-5.627v18.479h114.879V58.41h-6.494v-8.076H413.806z
			 M319.415,69.313h-7.98v-7.805h7.98V69.313z M319.415,58.174h-7.98V50.36h7.98V58.174z M319.415,47.234h-7.98v-7.81h7.98V47.234z
			 M331.222,69.313h-7.98v-7.805h7.98V69.313z M331.222,58.174h-7.98V50.36h7.98V58.174z M331.222,47.234h-7.98v-7.81h7.98V47.234z
			 M342.853,69.313h-7.979v-7.805h7.979V69.313z M342.853,58.174h-7.979V50.36h7.979V58.174z M342.853,47.234h-7.979v-7.81h7.979
			V47.234z M354.36,69.313h-7.979v-7.805h7.979V69.313z M354.36,58.174h-7.979V50.36h7.979V58.174z M354.36,47.234h-7.979v-7.81
			h7.979V47.234z M366.167,69.313h-7.98v-7.805h7.98V69.313z M366.167,58.174h-7.98V50.36h7.98V58.174z M366.167,47.234h-7.98v-7.81
			h7.98V47.234z M377.798,69.313h-7.979v-7.805h7.979V69.313z M377.798,58.174h-7.979V50.36h7.979V58.174z M377.798,47.234h-7.979
			v-7.81h7.979V47.234z M395.663,69.093h-10.307v-4.766h10.307V69.093z M390.474,55.725c-4.547,0-8.232-3.688-8.232-8.225
			c0-4.548,3.686-8.236,8.232-8.236c4.539,0,8.227,3.688,8.227,8.236C398.7,52.037,395.013,55.725,390.474,55.725L390.474,55.725z
			 M395.663,47.446c0,2.845-2.301,5.153-5.154,5.153c-2.844,0-5.152-2.308-5.152-5.153c0-2.852,2.309-5.153,5.152-5.153
			C393.362,42.293,395.663,44.594,395.663,47.446L395.663,47.446z M298.927,100.95h5.627v8.083h-5.627v18.469h114.879v-18.469
			h-6.494v-8.083h6.494v-18.47H298.927V100.95z M395.663,119.707h-10.307v-4.758h10.307V119.707z M390.474,89.89
			c4.539,0,8.227,3.685,8.227,8.224c0,4.546-3.688,8.227-8.227,8.227c-4.547,0-8.232-3.681-8.232-8.227
			C382.241,93.574,385.927,89.89,390.474,89.89L390.474,89.89z M369.819,90.046h7.979v7.813h-7.979V90.046z M369.819,100.983h7.979
			v7.814h-7.979V100.983z M369.819,112.122h7.979v7.815h-7.979V112.122z M358.187,90.046h7.98v7.813h-7.98V90.046z M358.187,100.983
			h7.98v7.814h-7.98V100.983z M358.187,112.122h7.98v7.815h-7.98V112.122z M346.381,90.046h7.979v7.813h-7.979V90.046z
			 M346.381,100.983h7.979v7.814h-7.979V100.983z M346.381,112.122h7.979v7.815h-7.979V112.122z M334.873,90.046h7.979v7.813h-7.979
			V90.046z M334.873,100.983h7.979v7.814h-7.979V100.983z M334.873,112.122h7.979v7.815h-7.979V112.122z M323.232,90.046h7.989
			v7.813h-7.989V90.046z M323.232,100.983h7.989v7.814h-7.989V100.983z M323.232,112.122h7.989v7.815h-7.989V112.122z
			 M311.435,90.046h7.98v7.813h-7.98V90.046z M311.435,100.983h7.98v7.814h-7.98V100.983z M311.435,112.122h7.98v7.815h-7.98
			V112.122z M385.356,98.062c0-2.845,2.309-5.153,5.152-5.153c2.854,0,5.154,2.308,5.154,5.153c0,2.852-2.301,5.159-5.154,5.159
			C387.665,103.221,385.356,100.914,385.356,98.062L385.356,98.062z M298.927,150.651h5.627v8.076h-5.627v18.478h114.879v-18.478
			h-6.494v-8.076h6.494v-18.479H298.927V150.651z M395.663,169.41h-10.307v-4.767h10.307V169.41z M390.474,139.581
			c4.539,0,8.227,3.689,8.227,8.234c0,4.539-3.688,8.226-8.227,8.226c-4.547,0-8.232-3.687-8.232-8.226
			C382.241,143.27,385.927,139.581,390.474,139.581L390.474,139.581z M369.819,139.738h7.979v7.815h-7.979V139.738z
			 M369.819,150.677h7.979v7.813h-7.979V150.677z M369.819,161.825h7.979v7.804h-7.979V161.825z M358.187,139.738h7.98v7.815h-7.98
			V139.738z M358.187,150.677h7.98v7.813h-7.98V150.677z M358.187,161.825h7.98v7.804h-7.98V161.825z M346.381,139.738h7.979v7.815
			h-7.979V139.738z M346.381,150.677h7.979v7.813h-7.979V150.677z M346.381,161.825h7.979v7.804h-7.979V161.825z M334.873,139.738
			h7.979v7.815h-7.979V139.738z M334.873,150.677h7.979v7.813h-7.979V150.677z M334.873,161.825h7.979v7.804h-7.979V161.825z
			 M323.232,139.738h7.989v7.815h-7.989V139.738z M323.232,150.677h7.989v7.813h-7.989V150.677z M323.232,161.825h7.989v7.804
			h-7.989V161.825z M311.435,139.738h7.98v7.815h-7.98V139.738z M311.435,150.677h7.98v7.813h-7.98V150.677z M311.435,161.825h7.98
			v7.804h-7.98V161.825z M385.356,147.764c0-2.855,2.309-5.152,5.152-5.152c2.854,0,5.154,2.297,5.154,5.152
			c0,2.843-2.301,5.152-5.154,5.152C387.665,152.916,385.356,150.607,385.356,147.764L385.356,147.764z M385.356,147.764"/>
	</g>
	<g>
		<polygon fill="#3499CD" points="356.368,19.765 359.38,21.571 362.39,23.378 359.379,25.186 356.368,26.992 356.368,23.378 		"/>
		<polygon fill="#996699" points="362.39,16.15 359.382,17.957 356.368,19.765 359.379,21.571 362.39,23.378 362.39,19.765 		"/>
		<polygon fill="#F89939" points="356.368,12.536 353.355,14.344 350.344,16.15 353.355,17.957 356.368,19.765 356.368,16.15 		"/>
		<polygon fill="#EF3B68" points="356.368,12.536 359.379,14.344 362.39,16.15 359.379,17.957 356.368,19.765 356.368,16.15 		"/>
		<polygon fill="#FFCE0C" points="356.368,19.765 353.355,21.571 350.344,23.378 353.355,25.186 356.368,26.992 356.368,23.378 		
			"/>
		<polygon fill="#6FC498" points="350.345,16.15 353.355,17.957 356.368,19.765 353.355,21.571 350.345,23.378 350.345,19.765 		"/>
	</g>
</g>
</svg>
