<?xml version="1.0" encoding="utf-8"?>
<!-- Generator: Adobe Illustrator 16.0.0, SVG Export Plug-In . SVG Version: 6.00 Build 0)  -->
<!DOCTYPE svg PUBLIC "-//W3C//DTD SVG 1.1//EN" "http://www.w3.org/Graphics/SVG/1.1/DTD/svg11.dtd">
<svg version="1.1" id="Layer_1" xmlns="http://www.w3.org/2000/svg" xmlns:xlink="http://www.w3.org/1999/xlink" x="0px" y="0px"
	 width="400px" height="400px" viewBox="-56 -70.5 400 400" enable-background="new -56 -70.5 400 400" xml:space="preserve">
<g>
	<polygon fill="#6FC498" points="309,229.5 143.998,329.5 -21,229.5 -20.998,29.5 143.998,-70.5 309,29.5 	"/>
	<g>
		<path fill="#FFFFFF" d="M143.998,61.726C105.34,61.726,74,93.065,74,131.725c0,30.008,18.887,55.598,45.418,65.549l16.131-43.016
			c-9.119-3.42-15.613-12.217-15.613-22.533c0-13.288,10.773-24.062,24.063-24.062c13.291,0,24.064,10.773,24.064,24.062
			c0,10.316-6.494,19.113-15.613,22.533l16.131,43.016c26.531-9.951,45.418-35.541,45.418-65.549
			C213.998,93.065,182.66,61.726,143.998,61.726z"/>
	</g>
</g>
</svg>
