<?xml version="1.0" encoding="utf-8"?>
<!-- Generator: Adobe Illustrator 16.0.0, SVG Export Plug-In . SVG Version: 6.00 Build 0)  -->
<!DOCTYPE svg PUBLIC "-//W3C//DTD SVG 1.1//EN" "http://www.w3.org/Graphics/SVG/1.1/DTD/svg11.dtd">
<svg version="1.1" id="Layer_1" xmlns="http://www.w3.org/2000/svg" xmlns:xlink="http://www.w3.org/1999/xlink" x="0px" y="0px"
	 width="1617.016px" height="66.703px" viewBox="0 0 1617.016 66.703" enable-background="new 0 0 1617.016 66.703"
	 xml:space="preserve">
<g>
	<g>
		<g>
			<path fill="#F2F2F2" d="M145.516,63.001h84.789c4.183,0,7.605-3.424,7.605-7.605V7.607c0-4.184-3.423-7.605-7.605-7.605h-84.789
				c-4.183,0-7.605,3.422-7.605,7.605v47.789C137.911,59.58,141.333,63.001,145.516,63.001z"/>
			<path fill="#C4C4C4" d="M230.304,63.001h-84.789c-4.183,0-7.605-3.424-7.605-7.605v3.699c0,4.184,3.423,7.605,7.605,7.605h84.789
				c4.183,0,7.605-3.423,7.605-7.605v-3.699C237.911,59.58,234.487,63.001,230.304,63.001z"/>
		</g>
		<g>
			<path fill="#263C82" d="M178.438,21.803l-9.412,23.031h-6.338l-6.102-23.031h4.024c0,0,2.526-0.146,2.977,2.456
				c0.4,2.322,2.602,13.338,2.602,13.338l5.865-15.794H178.438z"/>
			<path fill="#F89A1C" d="M165.524,34.259c-0.682-3.441-1.68-8.511-1.938-10c-0.382-2.214-2.268-2.438-2.821-2.456h-0.155h-4.024
				h-5.463v0.558C163.078,25.34,165.523,34.257,165.524,34.259z"/>
			<polygon fill="#263C82" points="180.745,21.803 177.055,44.833 182.979,44.833 186.705,21.802 			"/>
			<path fill="#263C82" d="M186.705,43.947l0.887-5.18c0,0,2.625,1.632,5.569,1.632c0,0,2.589,0.188,3.653-0.839
				c1.064-1.029,0.674-2.012,0.674-2.012s-0.283-0.934-1.892-1.689c-1.608-0.757-4.671-1.998-5.913-4.659
				c-1.242-2.66,0.461-5.616,0.461-5.616s1.466-2.507,4.446-3.43c2.979-0.922,6.385-0.614,6.385-0.614s1.987,0.213,3.595,0.852
				l-0.779,5.037c0,0-1.939-1.254-4.919-1.254c-2.98,0-3.571,1.727-3.571,1.727s-0.384,1.053,0.875,1.798
				c1.169,0.691,3.902,2.081,3.902,2.081s3.617,1.632,3.666,5.486c0.048,3.854-3.146,5.936-3.146,5.936s-2.412,2.012-7.615,2.012
				C189.057,45.212,186.705,43.947,186.705,43.947z"/>
			<path fill="#263C82" d="M219.873,21.803c0,0-2.785,0-4.877,0c-2.094,0-2.644,1.516-2.644,1.516l-9.027,21.515h6.296l1.206-3.494
				h7.592l0.745,3.494h5.533L219.873,21.803z M212.424,36.728l3.264-8.815l1.844,8.815H212.424z"/>
		</g>
	</g>
	<g>
		<path fill="#F2F2F2" d="M283.427,63.001h84.79c4.184,0,7.604-3.424,7.604-7.605V7.607c0-4.184-3.422-7.605-7.604-7.605h-84.79
			c-4.183,0-7.605,3.422-7.605,7.605v47.789C275.821,59.58,279.245,63.001,283.427,63.001z"/>
		<path fill="#C4C4C4" d="M368.217,63.001h-84.79c-4.183,0-7.605-3.424-7.605-7.605v3.699c0,4.184,3.424,7.605,7.605,7.605h84.79
			c4.184,0,7.604-3.423,7.604-7.605v-3.699C375.821,59.58,372.399,63.001,368.217,63.001z"/>
		<g>
			<circle fill="#FAA840" cx="341.503" cy="31.568" r="23.404"/>
			<path fill="#EF3832" d="M333.502,33.029c0.026-0.462,0.043-0.926,0.043-1.395c0-0.021,0-0.043,0-0.064l-0.052-1.459
				c-0.03-0.49-0.075-0.977-0.137-1.459h-15.072c0.063-0.491,0.14-0.978,0.229-1.459h14.607c-0.096-0.491-0.202-0.979-0.327-1.458
				h-13.957c0.126-0.493,0.271-0.979,0.428-1.459h13.097c-0.164-0.494-0.344-0.98-0.539-1.459h-12.024
				c0.198-0.495,0.415-0.981,0.646-1.459h10.727c-0.242-0.497-0.502-0.983-0.779-1.459h-9.174c0.287-0.498,0.593-0.984,0.914-1.459
				h7.34c-0.344-0.501-0.705-0.987-1.084-1.459h-5.179c0.4-0.504,0.823-0.99,1.266-1.459h2.64c-4.265-4.49-10.292-7.29-16.973-7.29
				c-12.926,0-23.403,10.478-23.403,23.402c0,12.926,10.479,23.403,23.403,23.403c6.051,0,11.567-2.297,15.721-6.066
				c-0.479-0.432-0.943-0.883-1.388-1.354h2.759c0.439-0.47,0.859-0.955,1.258-1.459h-5.281c-0.378-0.472-0.736-0.957-1.077-1.459
				h7.428c0.32-0.474,0.623-0.961,0.908-1.459h-9.25c-0.273-0.476-0.531-0.962-0.773-1.459h10.791
				c0.23-0.479,0.443-0.964,0.642-1.457h-12.078c-0.193-0.48-0.371-0.967-0.533-1.459h13.138c0.156-0.48,0.299-0.968,0.424-1.459
				h-5.09c-0.123-0.48-0.229-0.969-0.321-1.46h5.729c0.09-0.481,0.166-0.969,0.225-1.459h-5.268v-1.459L333.502,33.029
				L333.502,33.029z M320.808,34.488h-2.523c-0.06-0.48-0.104-0.969-0.134-1.459h2.657V34.488z"/>
			<polygon fill="#FFFFFF" points="289.001,37.479 290.826,27.095 294.58,27.095 294.928,33.067 297.466,27.095 301.432,27.095 
				299.578,37.479 297.359,37.479 298.696,29.861 295.49,37.479 292.968,37.479 292.543,29.754 291.219,37.479 			"/>
			<path fill="#FFFFFF" d="M307.881,29.608c-0.934-0.669-1.683-0.68-1.683-0.68h-2.238c0,0-0.629,0.041-1.074,0.152
				c-0.445,0.111-0.566,0.264-0.566,0.264l-0.558,1.996c0,0,1.013-0.567,2.999-0.567c1.984,0,1.307,1.276,1.307,1.276h-1.429
				c0,0-1.643-0.102-2.807,0.709c-1.166,0.811-1.276,2.32-1.276,2.32s-0.242,2.553,2.351,2.553c0,0,1.632,0.082,2.594-0.932
				l-0.142,0.779h2.076l1.186-6.22C308.62,31.259,308.813,30.276,307.881,29.608z M305.702,34.612c0,0-0.264,1.196-1.862,1.196
				c0,0-0.871,0.04-0.871-0.791c0-0.83,0.871-1.235,0.871-1.235s0.688-0.345,1.539-0.345c0,0,0.566,0,0.536,0.172L305.702,34.612z"
				/>
			<path fill="#FFFFFF" d="M315.147,29.033l-0.402,1.823c0,0-1.025-0.145-1.497-0.145s-1.321-0.007-1.626,0.563
				c0,0-0.502,0.585,1.041,1.117c0,0,2.066,0.372,1.998,2.052c-0.067,1.68-0.736,2.219-0.736,2.219s-0.835,0.889-3.115,0.889
				c-2.279,0-2.766-0.409-2.766-0.409l0.396-1.81c0,0,1.185,0.402,2.37,0.402c1.185,0,1.261-0.623,1.261-0.623
				s0.138-0.691-0.379-0.873c-0.518-0.183-2.805-0.859-2.668-2.492c0.137-1.634,0.844-2.181,0.844-2.181s0.859-0.783,3.102-0.692
				C312.967,28.873,314.417,28.928,315.147,29.033z"/>
			<path fill="#FFFFFF" d="M316.583,27.095l-1.579,8.956c0,0-0.224,1.429,1.356,1.429h1.418c0,0,0.771-0.071,1.064-0.396
				l0.243-1.438c0,0-0.346,0.121-1.096,0.121c-0.749,0-0.668-0.478-0.668-0.478l0.779-4.538c0,0,0.062,0.111,0.346,0.111
				c0.283,0,1.034,0,1.034,0l0.324-1.854h-1.35l0.354-1.915h-2.228V27.095z"/>
			<path fill="#FFFFFF" d="M323.581,28.873c0,0-3-0.25-4.102,2.743c-1.104,2.993,0.646,4.719,0.646,4.719s0.865,1.178,3.517,1.178
				c0,0,1.422,0.068,2.402-0.479l0.336-2.014c0,0-0.898,0.697-2.357,0.697c0,0-2.675,0.131-2.484-1.897h5.091
				c0,0,0.188-1.437,0.235-1.885C326.909,31.487,326.894,28.873,323.581,28.873z M324.706,32.216h-2.895c0,0,0.235-1.58,1.527-1.58
				C324.805,30.636,324.706,32.216,324.706,32.216z"/>
			<path fill="#FFFFFF" d="M326.522,37.479l1.488-8.459h2.301l-0.254,1.327c0,0,0.912-1.408,1.904-1.408h0.922
				c0,0-0.668,0.892-0.892,2.259c0,0-0.709-0.182-1.51,0.229c-0.801,0.411-0.963,1.858-0.963,1.858l-0.629,4.194H326.522z"/>
			<path fill="#FFFFFF" d="M339.394,34.74l-0.318,2.127c0,0-0.532,0.648-2.463,0.648c-1.93,0-2.766-0.785-2.766-0.785
				s-2.781-1.869-1.142-6.413c1.644-4.544,6.476-3.465,6.476-3.465s0.813,0.183,1.512,0.509l-0.363,2.211c0,0-0.959-0.6-2.37-0.6
				c-1.414,0-2.082,0.774-2.082,0.774s-1.089,1.284-1.142,3.199s1.56,2.279,1.56,2.279S338.103,35.781,339.394,34.74z"/>
			<path fill="#FFFFFF" d="M346.987,29.608c-0.932-0.669-1.682-0.68-1.682-0.68h-2.24c0,0-0.627,0.041-1.074,0.152
				c-0.444,0.111-0.565,0.264-0.565,0.264l-0.558,1.996c0,0,1.013-0.567,2.998-0.567c1.986,0,1.308,1.276,1.308,1.276h-1.429
				c0,0-1.641-0.102-2.807,0.709c-1.166,0.811-1.277,2.32-1.277,2.32s-0.242,2.553,2.353,2.553c0,0,1.631,0.082,2.594-0.932
				l-0.143,0.779h2.077l1.185-6.22C347.726,31.259,347.92,30.276,346.987,29.608z M344.81,34.612c0,0-0.264,1.196-1.865,1.196
				c0,0-0.871,0.04-0.871-0.791c0-0.83,0.871-1.235,0.871-1.235s0.689-0.345,1.541-0.345c0,0,0.566,0,0.535,0.172L344.81,34.612z"/>
			<path fill="#FFFFFF" d="M347.351,37.46l1.49-8.458h2.301l-0.254,1.327c0,0,0.881-1.408,2.098-1.408h0.486
				c0,0-0.244,0.706-0.467,2.074c0,0-0.912-0.081-1.607,0.371c-0.754,0.491-1.047,1.9-1.047,1.9l-0.629,4.194H347.351L347.351,37.46
				z"/>
			<path fill="#FFFFFF" d="M359.226,27.095l-0.531,3.055c0,0-0.502-1.171-2.197-1.171c-1.692,0-2.954,1.589-2.954,1.589
				s-1.187,1.443-1.187,3.586c0,2.143,1.359,3.01,1.359,3.01s0.614,0.469,1.559,0.469c0.941,0,1.443-0.354,1.443-0.354
				s0.326-0.204,0.76-0.54l-0.129,0.742l2.315-0.018l1.796-10.366h-2.234V27.095z M357.735,34.526
				c-0.623,1.103-1.633,1.108-1.633,1.108s-0.76,0.068-1.057-0.949c-0.349-1.197,0.373-2.78,0.373-2.78s0.522-1.049,1.549-1.049
				s1.201,1.216,1.201,1.216S358.358,33.424,357.735,34.526z"/>
		</g>
	</g>
	<g>
		<path fill="#F2F2F2" d="M7.605,63.001h84.789c4.185,0,7.605-3.424,7.605-7.605V7.607c0-4.184-3.422-7.605-7.605-7.605H7.605
			C3.423,0.001,0,3.423,0,7.607v47.789C0,59.58,3.423,63.001,7.605,63.001z"/>
		<path fill="#C4C4C4" d="M92.395,63.001H7.605C3.423,63.001,0,59.58,0,55.396v3.699c0,4.184,3.423,7.605,7.604,7.605h84.789
			c4.185,0,7.605-3.423,7.605-7.605v-3.699C100,59.58,96.578,63.001,92.395,63.001z"/>
		<g>
			<path fill="#263A82" d="M20.639,21.765c0,0-6.32,0-7.072,0s-0.894,0.589-0.894,0.589s-2.397,15.2-2.499,15.851
				c-0.103,0.651,0.305,0.672,0.305,0.672h3.354c0.468,0,0.468-0.549,0.468-0.549s0.568-3.537,0.752-4.431
				c0.183-0.895,0.895-0.752,0.895-0.752h3.089c5.833,0,6.057-6.687,6.057-6.687C25.465,21.886,20.639,21.765,20.639,21.765z
				 M20.7,27.109c-0.55,2.967-2.987,2.724-2.987,2.724h-1.688c-0.608,0-0.426-0.569-0.426-0.569s0.527-3.17,0.67-3.76
				c0.144-0.589,0.732-0.589,0.732-0.589h1.707C20.984,24.915,20.7,27.109,20.7,27.109z"/>
			<path fill="#263A82" d="M38.127,27.376c-0.824,0-2.592,0-2.592,0s-0.609-0.033-0.731,0.545c-0.122,0.58-0.198,0.9-0.198,0.9
				s-0.717-1.754-3.521-1.754c-2.806,0-4.253,1.54-4.253,1.54s-2.683,2.546-2.683,5.563c0,3.018,1.631,5.015,4.785,5.015
				c3.155,0,4.131-1.66,4.131-1.66s0.023-0.063,0.088-0.058c0.097,0.011,0.096,0.058,0.096,0.058l-0.139,0.716
				c0,0-0.112,0.596,0.442,0.596h2.713c0,0,0.854-0.063,0.977-0.885c0.121-0.822,1.463-9.816,1.463-9.816
				S38.949,27.376,38.127,27.376z M33.303,34.96c-0.935,1.156-2.568,1.231-2.568,1.231c-3.399,0-2.584-3.248-2.584-3.248
				s0.832-2.782,3.445-2.782s2.613,2.301,2.613,2.301S34.238,33.802,33.303,34.96z"/>
			<path fill="#263A82" d="M40.626,27.343h2.851c0,0,0.641-0.076,0.822,0.746c0.184,0.823,1.586,5.289,1.586,5.289
				s0.091,0.32,0.289,0.32s0.365-0.336,0.365-0.336l3.705-5.471c0,0,0.364-0.549,0.762-0.549c0.396,0,2.881,0,2.881,0
				s0.944,0.015,0.396,0.854c-0.549,0.838-9.938,14.356-9.938,14.356s-0.198,0.365-0.716,0.365c-0.52,0-2.805,0-2.805,0
				s-0.442-0.029-0.52-0.44c-0.076-0.412,0.259-0.731,0.259-0.731l2.584-3.765c0,0,0.177-0.179,0.177-0.534
				s-3.228-9.241-3.228-9.241S39.732,27.343,40.626,27.343z"/>
			<path fill="#2398D5" d="M64.535,21.765c0,0-6.32,0-7.072,0s-0.896,0.589-0.896,0.589s-2.397,15.2-2.5,15.851
				c-0.102,0.651,0.307,0.672,0.307,0.672h3.353c0.468,0,0.468-0.549,0.468-0.549s0.569-3.537,0.752-4.431
				c0.184-0.895,0.895-0.752,0.895-0.752h3.09c5.832,0,6.056-6.687,6.056-6.687C69.361,21.886,64.535,21.765,64.535,21.765z
				 M64.596,27.109c-0.549,2.967-2.987,2.724-2.987,2.724h-1.687c-0.609,0-0.427-0.569-0.427-0.569s0.527-3.17,0.671-3.76
				c0.143-0.589,0.73-0.589,0.73-0.589h1.707C64.881,24.915,64.596,27.109,64.596,27.109z"/>
			<path fill="#2398D5" d="M82.021,27.376c-0.821,0-2.59,0-2.59,0s-0.61-0.033-0.731,0.545c-0.121,0.58-0.197,0.9-0.197,0.9
				s-0.717-1.754-3.521-1.754c-2.804,0-4.252,1.54-4.252,1.54s-2.684,2.546-2.684,5.563c0,3.018,1.631,5.015,4.787,5.015
				c3.153,0,4.13-1.66,4.13-1.66s0.022-0.063,0.089-0.058c0.094,0.011,0.094,0.058,0.094,0.058l-0.137,0.716
				c0,0-0.114,0.596,0.441,0.596h2.713c0,0,0.854-0.063,0.977-0.885c0.121-0.822,1.463-9.816,1.463-9.816
				S82.846,27.376,82.021,27.376z M77.199,34.96c-0.937,1.156-2.568,1.231-2.568,1.231c-3.4,0-2.584-3.248-2.584-3.248
				s0.832-2.782,3.445-2.782c2.612,0,2.612,2.301,2.612,2.301S78.135,33.802,77.199,34.96z"/>
			<path fill="#2398D5" d="M86.971,38.388l2.662-16.075c0,0,0.209-0.579-0.508-0.579s-2.847,0-2.847,0s-0.549-0.03-0.67,0.579
				c-0.123,0.61-2.521,15.953-2.521,15.953s-0.097,0.569,0.509,0.569c0.604,0,2.774,0,2.774,0S86.889,38.878,86.971,38.388z"/>
		</g>
	</g>
	<g>
		<path fill="#2075BC" d="M421.349,63.001h84.789c4.184,0,7.604-3.422,7.604-7.605V7.607c0-4.183-3.422-7.605-7.604-7.605h-84.789
			c-4.184,0-7.605,3.423-7.605,7.605v47.789C413.743,59.58,417.166,63.001,421.349,63.001z"/>
		<path fill="#1560AB" d="M506.138,63.001h-84.789c-4.184,0-7.605-3.422-7.605-7.605v3.699c0,4.184,3.423,7.605,7.605,7.605h84.789
			c4.184,0,7.604-3.423,7.604-7.605v-3.699C513.743,59.58,510.321,63.001,506.138,63.001z"/>
		<g>
			<path fill="#FFFFFF" d="M465.388,21.979v-0.282c0,0,0.017-1.122-1.482-1.122c-1.498,0-3.887,0-3.887,0v2.629h3.93
				C463.948,23.204,465.388,23.177,465.388,21.979z"/>
			<polygon fill="#FFFFFF" points="420.715,20.035 418.761,24.814 422.666,24.814 			"/>
			<polygon fill="#FFFFFF" points="487.106,20.126 485.172,24.819 489.042,24.819 			"/>
			<path fill="#FFFFFF" d="M413.724,32.32h0.002h3.015h1.647l0.631-1.521l0.465-1.121h2.54l0.416,1.07l0.611,1.572h1.688h5.669
				h2.466v-0.016l0.008,0.016h1.604h2.466h1.609h2.433h2.494h0.365h2.102h0.365h8.449h0.502h1.964h0.503h2.291h2.467v-2.466v-1.796
				h0.531v1.796v2.466h2.466h2.121h0.73h1.734h0.73h2.102h2.466v-1.059c1.108,0.653,2.436,1.02,3.932,1.059h0.033h0.031h3.758h1.663
				l0.623-1.543l0.429-1.06h2.508l0.443,1.077l0.629,1.525h1.65h0.456h2.467h0.273h2.49h1.257h1.208v-2.391l0.718,1.194l0.718,1.196
				h1.396h3.962h2.466v-2.466V18.197V15.73h-2.466h-2.843h-2.468v1.744l-0.329-0.549l-0.72-1.195h-1.395h-4.271h-2.467v1.521
				l-0.012-0.029l-0.644-1.492h-1.623h-4.016h-2.467h-3.387c-0.038,0-0.089-0.002-0.148-0.002l0,0c-1.105,0-2.546,0.287-3.86,1.069
				v-1.069h-2.466h-2.832h-2.466v0.529c-0.694-0.289-1.512-0.479-2.468-0.523l-0.06-0.004h-0.057h-7.293h-0.503h-1.964h-0.502
				h-8.449h-0.365h-2.102h-0.365h-4.293h-1.63l-0.639,1.501l-1.183,2.774l-1.314-2.844l-0.662-1.432h-1.576h-4.557h-2.467v1.561
				l-0.028-0.068l-0.643-1.492h-1.624h-4.179h-1.63l-0.639,1.5l-2.7,6.338v8.752H413.724z M474.325,24.808V23.46
				c0.208-5.047,4.216-5.266,4.91-5.266c0.065,0,0.103,0.002,0.103,0.002h3.434v2.446c0,0-0.428,0-3.039,0
				c-2.612,0-2.578,2.937-2.578,2.937v0.908c0,2.705,1.864,2.9,2.4,2.9c0.09,0,0.143-0.006,0.143-0.006h1.439l3.922-9.186h4.194
				l4.744,11.021v-0.364V18.197h4.271l4.91,8.152v-8.152h2.843v11.657h-3.962l-5.297-8.825v8.825h-5.688l-1.073-2.603h-5.822
				l-1.051,2.603h-3.757C474.233,29.717,474.325,24.808,474.325,24.808z M470.077,18.195h2.832v11.659h-2.832V18.195z
				 M457.232,18.197h7.796c3.416,0.16,3.416,2.737,3.416,2.737v0.505c0,2.235-1.986,3.006-1.986,3.006s0.521,0.061,1.217,0.736
				c0.692,0.677,0.668,1.819,0.668,1.819v2.854h-2.853c0,0,0-0.339,0-2.421c0-1.69-1.307-1.85-1.796-1.85
				c-0.113,0-0.182,0.01-0.182,0.01h-3.486v4.261h-2.794V18.197z M445.952,18.197h9.316v2.378h-6.502v2.149h6.336v2.397h-6.336
				v2.312h6.502v2.421h-9.316V18.197z M418.692,18.197h4.179l4.762,11.069V18.197h4.557l3.647,7.884l3.355-7.884h4.658v11.657
				h-2.859v-9.185l-4.042,9.185h-2.466l-4.076-9.168v9.168h-5.669l-1.028-2.644h-5.874l-1.096,2.644h-3.015L418.692,18.197z"/>
			<path fill="#FFFFFF" d="M513.741,35.826h-0.598h-5.745c-1.182,0-2.028,0.352-2.657,0.893v-0.893h-2.467h-5.746
				c-1.053,0-1.95,0.184-2.714,0.486v-0.475h-2.466h-9.317h-2.466v0.539c-0.701-0.297-1.53-0.492-2.502-0.537l-0.059-0.002h-0.058
				h-7.796h-2.466v0.524c-0.767-0.313-1.717-0.524-2.889-0.524h-9.534h-1.073l-0.73,0.785l-1.741,1.869l-1.638-1.832l-0.733-0.822
				h-1.104h-11.234h-2.467v2.465v11.67v2.465h2.467h11.053h1.075l0.73-0.787l1.724-1.855l1.633,1.822l0.733,0.82h1.104h5.458h2.466
				v-2.465v-1.428h1.415c0.044,0.002,0.106,0.002,0.185,0.002c0.647,0,1.861-0.082,3.104-0.596v2.01v2.467h2.466h2.794h2.467V49.96
				v-1.795h0.531v1.795v2.467h2.466h2.853h2.466l0,0h7.9l-0.009,0.01h2.468h5.891c0.994,0,1.822-0.158,2.512-0.402v0.402h2.467
				h5.893c1.78,0,3.036-0.508,3.894-1.096V35.826H513.741z M467.851,41.716v0.742c0,3.438-3.521,3.623-4.27,3.623
				c-0.089,0-0.139-0.004-0.139-0.004h-3.927v3.895h-5.458l-3.438-3.836l-3.563,3.836h-11.053v-11.67h11.234l3.438,3.848
				l3.585-3.848c0,0,5.424,0,9.533,0C467.907,38.302,467.851,41.716,467.851,41.716z M480.364,41.546
				c0,2.234-1.985,3.004-1.985,3.004s0.521,0.061,1.216,0.738c0.692,0.676,0.668,1.815,0.668,1.815v2.854h-2.853c0,0,0-0.34,0-2.42
				c0-1.69-1.307-1.85-1.796-1.85c-0.113,0-0.182,0.008-0.182,0.008h-3.486v4.262h-2.794V38.302h7.796
				c3.416,0.16,3.416,2.738,3.416,2.738V41.546z M491.349,40.681h-6.503v2.148h6.337v2.397h-6.337v2.313h6.503v2.42h-9.317V38.302
				h9.317V40.681z M502.841,46.744c0,0,0.033,3.229-3.862,3.229c-3.896,0-5.891,0-5.891,0v-2.511h5.805c0,0,1.033-0.055,1.033-0.838
				v-0.44c0,0-0.107-0.778-0.985-0.778s-1.819,0-1.819,0s-0.057,0.002-0.155,0.002c-0.786,0-4.279-0.179-4.279-3.355v-0.574
				c0,0,0.051-3.184,3.844-3.184c3.794,0,5.746,0,5.746,0v2.481h-5.395c0,0-0.001,0-0.002,0c-0.061,0-1.236,0.013-1.236,0.873v0.399
				c0,0,0.006,0.806,1.152,0.806c1.147,0,2.164,0,2.164,0s0.063-0.004,0.174-0.004c0.756,0,3.708,0.187,3.708,3.106L502.841,46.744
				L502.841,46.744z M509.848,49.972c-3.026,0-4.899,0-5.589,0c0.646-0.918,0.896-1.863,0.989-2.51h4.514
				c0,0,1.032-0.055,1.032-0.838v-0.441c0,0-0.107-0.779-0.984-0.779c-0.879,0-1.82,0-1.82,0s-0.057,0.002-0.156,0.002
				c-0.784,0-4.278-0.178-4.278-3.355v-0.573c0,0,0.051-3.185,3.845-3.185s5.745,0,5.745,0v2.482h-5.396c0,0,0,0-0.002,0
				c-0.059,0-1.235,0.012-1.235,0.873v0.4c0,0,0.006,0.805,1.152,0.805c1.147,0,2.163,0,2.163,0s0.064-0.004,0.175-0.004
				c0.756,0,3.709,0.186,3.709,3.107v0.787C513.71,46.744,513.743,49.972,509.848,49.972z"/>
			<path fill="#FFFFFF" d="M463.415,40.689c-0.019,0-0.027,0-0.027,0h-3.882v3.025h3.995c0,0,1.394-0.012,1.394-1.553
				C464.894,40.746,463.622,40.689,463.415,40.689z"/>
			<path fill="#FFFFFF" d="M475.825,40.681c-1.498,0-3.887,0-3.887,0v2.629h3.93c0,0,1.439-0.025,1.439-1.225v-0.283
				C477.308,41.802,477.324,40.681,475.825,40.681z"/>
			<polygon fill="#FFFFFF" points="438.771,40.701 438.771,42.871 444.901,42.871 444.901,45.222 438.771,45.222 438.771,47.574 
				445.644,47.574 448.829,44.138 445.804,40.701 			"/>
			<polygon fill="#FFFFFF" points="456.754,49.013 456.754,39.537 452.392,44.138 			"/>
		</g>
	</g>
	<g>
		<g>
			<path fill="#FCEE23" d="M559.248,63.001h84.788c4.185,0,7.605-3.422,7.605-7.604V7.606c0-4.183-3.422-7.605-7.605-7.605h-84.788
				c-4.184,0-7.604,3.423-7.604,7.605v47.79C551.643,59.58,555.065,63.001,559.248,63.001z"/>
			<path fill="#BFB331" d="M644.036,63.001h-84.788c-4.184,0-7.604-3.422-7.604-7.604v3.699c0,4.184,3.422,7.604,7.604,7.604h84.788
				c4.185,0,7.605-3.422,7.605-7.604v-3.699C651.642,59.58,648.22,63.001,644.036,63.001z"/>
		</g>
		<g>
			<path fill="#0361AA" d="M584.802,45.513l3.509-2.34l3.509,2.34l-7.019,4.678L584.802,45.513L584.802,45.513L584.802,45.513z
				 M618.481,21.189l-3.508,2.337l-3.508-2.337l7.016-4.677V21.189L618.481,21.189L618.481,21.189z M618.481,38.962l-16.838,11.229
				l-16.842-11.229l20-13.331l3.509,2.34L592.169,38.73l9.824,6.547l4.562-3.041l-3.51-2.338l8.42-5.615L618.481,38.962
				L618.481,38.962L618.481,38.962z M584.802,27.737l16.842-11.225l16.842,11.225l-20,13.331l-3.509-2.338l16.14-10.76l-9.823-6.549
				l-4.561,3.04l3.507,2.339l-8.42,5.615L584.802,27.737L584.802,27.737L584.802,27.737z"/>
		</g>
	</g>
	<g>
		<g>
			<path fill="#F2F2F2" d="M835.071,63.001h84.788c4.184,0,7.604-3.422,7.604-7.604V7.606c0-4.183-3.422-7.605-7.604-7.605h-84.788
				c-4.183,0-7.606,3.423-7.606,7.605v47.79C827.464,59.58,830.889,63.001,835.071,63.001z"/>
			<path fill="#C4C4C4" d="M919.86,63.001h-84.789c-4.183,0-7.606-3.422-7.606-7.604v3.699c0,4.184,3.425,7.604,7.606,7.604h84.788
				c4.184,0,7.604-3.422,7.604-7.604v-3.699C927.464,59.58,924.042,63.001,919.86,63.001z"/>
		</g>
		<g>
			<path fill="#32367F" d="M880.823,31.976c-0.881-1.102-2.056-1.689-3.561-1.689c-1.14,0-2.277,0.551-3.379,1.579v-6.499
				l-2.496,1.358v17.259h2.496v-1.285c0.881,1.027,1.981,1.578,3.268,1.578c1.432,0,2.645-0.586,3.563-1.652
				c1.028-1.248,1.58-2.973,1.58-5.141C882.294,35.06,881.779,33.224,880.823,31.976L880.823,31.976z M873.848,34.437
				c0.918-1.177,1.873-1.728,2.938-1.728c1.983,0,2.938,1.614,2.938,4.882c0,2.791-0.918,4.225-2.827,4.225
				c-1.138,0-2.13-0.586-3.048-1.764L873.848,34.437L873.848,34.437z"/>
			<path fill="#32367F" d="M885.377,33.479c0.954-0.587,2.094-0.844,3.378-0.844c1.616,0,2.462,0.771,2.462,2.276v0.992
				c-0.735-0.33-1.689-0.514-2.864-0.514c-1.579,0-2.79,0.363-3.709,1.063c-0.991,0.773-1.468,1.838-1.468,3.27
				c0,1.543,0.477,2.68,1.468,3.525c0.809,0.697,1.8,1.027,3.012,1.027c1.358,0,2.534-0.551,3.563-1.615v1.32h2.496v-9.215
				c0-1.471-0.439-2.572-1.358-3.38c-0.845-0.734-2.02-1.102-3.524-1.102c-1.727,0-3.194,0.403-4.442,1.212L885.377,33.479
				L885.377,33.479z M891.216,38.253v1.91c-0.809,1.139-1.873,1.727-3.157,1.727c-1.652,0-2.461-0.734-2.461-2.238
				c0-1.324,0.882-1.984,2.681-1.984C889.416,37.666,890.407,37.888,891.216,38.253L891.216,38.253z"/>
			<path fill="#32367F" d="M898.928,30.542h-2.534v13.439h2.534v-7.857c0-2.276,0.881-3.415,2.644-3.415
				c1.799,0,2.682,1.212,2.682,3.671v7.604h2.569v-7.711c0-4.003-1.579-5.985-4.664-5.985c-1.469,0-2.569,0.551-3.229,1.579
				L898.928,30.542L898.928,30.542z"/>
			<polygon fill="#32367F" points="916.112,30.542 913.432,34.474 911.962,36.675 911.999,25.366 909.466,26.761 909.466,43.982 
				911.999,43.982 911.999,40.019 913.983,37.298 916.848,43.982 919.601,43.982 915.707,35.06 918.977,30.542 			"/>
			<polygon fill="#32367F" points="851.597,30.506 848.805,30.506 848.805,43.982 851.597,43.982 			"/>
			<path fill="#32367F" d="M854.094,30.506v2.533h2.35v7.603c0,1.025,0.293,1.908,0.844,2.568c0.551,0.625,1.322,0.955,2.203,0.992
				c0.992,0.037,1.836-0.221,2.461-0.625h0.037l0.037-0.037l0.587-2.387l0.036-0.184l-0.146,0.074
				c-0.771,0.477-1.395,0.697-2.056,0.697c-0.845,0-1.285-0.477-1.285-1.506v-7.197h2.827v-2.533h-2.827v-4.223l-2.681,1.469h-0.037
				v2.754L854.094,30.506L854.094,30.506z"/>
			<polygon fill="#32367F" points="867.495,30.506 864.667,30.506 864.667,43.982 867.495,43.982 			"/>
			<path fill="#32367F" d="M842.415,30.25c-1.981,0-3.635,0.624-4.957,1.836c-1.432,1.285-2.129,3.012-2.129,5.18
				c0,2.129,0.697,3.893,2.129,5.176c1.322,1.213,2.976,1.836,4.957,1.836c1.873,0,3.488-0.771,4.773-2.314l0.037-0.037
				l-0.037-0.035l-1.469-1.801l-0.072-0.07l-0.037,0.07c-0.955,1.029-2.057,1.543-3.305,1.543c-1.212,0-2.203-0.402-3.013-1.248
				c-0.771-0.809-1.174-1.836-1.174-3.119c0-1.285,0.402-2.314,1.174-3.123c0.81-0.845,1.801-1.249,3.013-1.249
				c1.248,0,2.35,0.514,3.305,1.543l0.037,0.07l0.072-0.07l1.469-1.801l0.037-0.037l-0.037-0.037
				C845.904,31.021,844.288,30.25,842.415,30.25L842.415,30.25z"/>
			<path fill="#EA3030" d="M850.2,28.267c2.166-2.276,4.812-3.415,7.896-3.415s5.729,1.139,7.856,3.415l0.074,0.037h3.158
				l-0.111-0.184c-1.248-1.763-2.863-3.158-4.847-4.187c-1.946-1.028-3.966-1.505-6.132-1.505c-2.131,0-4.187,0.477-6.134,1.505
				c-1.944,1.028-3.598,2.424-4.846,4.187l-0.111,0.184h3.158L850.2,28.267L850.2,28.267z"/>
		</g>
	</g>
	<g>
		<g>
			<path fill="#F2F2F2" d="M697.158,63.001h84.789c4.184,0,7.605-3.422,7.605-7.604V7.606c0-4.183-3.423-7.605-7.605-7.605h-84.789
				c-4.183,0-7.604,3.423-7.604,7.605v47.79C689.553,59.58,692.976,63.001,697.158,63.001z"/>
			<path fill="#C4C4C4" d="M781.947,63.001h-84.789c-4.183,0-7.604-3.422-7.604-7.604v3.699c0,4.184,3.423,7.604,7.604,7.604h84.789
				c4.184,0,7.605-3.422,7.605-7.604v-3.699C789.553,59.58,786.131,63.001,781.947,63.001z"/>
		</g>
		<g>
			<polygon fill="#ED2224" points="766.225,33.515 773.154,26.585 759.296,26.585 			"/>
			<polygon fill="#ED2224" points="766.225,33.515 773.154,40.443 759.296,40.443 			"/>
			<polygon fill="#FFFFFF" points="766.225,33.515 759.296,26.585 759.296,40.443 			"/>
			<polygon fill="#FFFFFF" points="766.225,33.515 773.154,26.585 773.154,40.443 			"/>
			<polygon fill="#ED2224" points="780.082,33.515 773.154,26.585 773.154,40.443 			"/>
			<polygon fill="#ED2224" points="752.367,33.515 759.296,26.585 759.296,40.443 			"/>
			<path fill="#010101" d="M703.172,33.089h6.224v-3.833c0-0.684-0.043-1.135-0.128-1.352c-0.067-0.164-0.206-0.308-0.415-0.424
				c-0.282-0.158-0.582-0.235-0.9-0.235h-0.471v-0.368h5.728v0.368h-0.476c-0.313,0-0.613,0.071-0.896,0.225
				c-0.214,0.104-0.354,0.267-0.433,0.479c-0.074,0.216-0.111,0.65-0.111,1.308v8.646c0,0.676,0.04,1.125,0.128,1.342
				c0.064,0.164,0.199,0.307,0.405,0.422c0.289,0.16,0.593,0.24,0.906,0.24h0.476v0.365h-5.728v-0.365h0.471
				c0.547,0,0.948-0.162,1.197-0.484c0.166-0.209,0.246-0.717,0.246-1.52v-4.081h-6.224v4.081c0,0.676,0.044,1.125,0.128,1.342
				c0.067,0.164,0.206,0.307,0.419,0.422c0.281,0.16,0.578,0.24,0.896,0.24h0.485v0.365h-5.738v-0.365h0.473
				c0.554,0,0.955-0.162,1.207-0.484c0.154-0.209,0.236-0.717,0.236-1.52v-8.646c0-0.684-0.045-1.135-0.129-1.352
				c-0.066-0.164-0.202-0.308-0.404-0.424c-0.289-0.158-0.594-0.235-0.91-0.235h-0.473v-0.368h5.738v0.368h-0.485
				c-0.317,0-0.614,0.071-0.896,0.225c-0.206,0.104-0.349,0.267-0.426,0.479c-0.08,0.216-0.12,0.65-0.12,1.308L703.172,33.089
				L703.172,33.089z"/>
			<path fill="#010101" d="M722.003,26.571v4.635h-0.363c-0.121-0.892-0.334-1.599-0.638-2.125
				c-0.307-0.528-0.746-0.948-1.313-1.254c-0.565-0.311-1.149-0.465-1.756-0.465c-0.685,0-1.25,0.208-1.699,0.627
				c-0.449,0.419-0.671,0.892-0.671,1.425c0,0.408,0.142,0.783,0.425,1.117c0.408,0.495,1.379,1.151,2.914,1.975
				c1.25,0.671,2.105,1.187,2.561,1.55c0.459,0.355,0.813,0.779,1.06,1.268s0.371,0.998,0.371,1.531
				c0,1.014-0.395,1.887-1.181,2.621c-0.789,0.734-1.801,1.104-3.036,1.104c-0.392,0-0.757-0.029-1.101-0.092
				c-0.202-0.031-0.627-0.152-1.268-0.357c-0.642-0.209-1.049-0.313-1.222-0.313c-0.165,0-0.293,0.049-0.391,0.146
				c-0.094,0.098-0.166,0.305-0.213,0.613h-0.363v-4.592h0.363c0.172,0.959,0.404,1.678,0.695,2.158
				c0.289,0.475,0.73,0.873,1.327,1.189c0.594,0.313,1.247,0.471,1.959,0.471c0.822,0,1.474-0.215,1.951-0.648
				c0.477-0.436,0.715-0.949,0.715-1.543c0-0.33-0.091-0.66-0.27-0.998c-0.182-0.336-0.465-0.646-0.846-0.936
				c-0.258-0.199-0.958-0.617-2.104-1.26c-1.146-0.643-1.959-1.154-2.444-1.537c-0.485-0.383-0.851-0.805-1.104-1.263
				c-0.249-0.463-0.374-0.972-0.374-1.524c0-0.961,0.368-1.786,1.104-2.481c0.739-0.694,1.678-1.043,2.816-1.043
				c0.711,0,1.467,0.173,2.262,0.524c0.367,0.165,0.631,0.246,0.778,0.246c0.173,0,0.313-0.052,0.421-0.15
				c0.108-0.106,0.196-0.313,0.264-0.62H722.003L722.003,26.571z"/>
			<path fill="#010101" d="M732.427,33.438c0.93,0.195,1.624,0.512,2.086,0.946c0.638,0.607,0.958,1.346,0.958,2.223
				c0,0.666-0.213,1.303-0.634,1.912c-0.422,0.609-0.997,1.051-1.733,1.332c-0.734,0.277-1.854,0.422-3.361,0.422h-6.319v-0.365
				h0.502c0.559,0,0.961-0.178,1.203-0.533c0.15-0.232,0.229-0.721,0.229-1.471v-8.655c0-0.831-0.094-1.352-0.285-1.567
				c-0.256-0.292-0.641-0.435-1.146-0.435h-0.502v-0.368h5.784c1.082,0,1.948,0.079,2.6,0.239c0.986,0.235,1.743,0.652,2.263,1.257
				c0.52,0.603,0.778,1.294,0.778,2.08c0,0.671-0.202,1.271-0.61,1.804C733.829,32.786,733.225,33.177,732.427,33.438
				L732.427,33.438z M727.251,32.9c0.246,0.048,0.522,0.081,0.836,0.105c0.313,0.023,0.657,0.033,1.032,0.033
				c0.961,0,1.687-0.102,2.168-0.311c0.484-0.205,0.855-0.525,1.112-0.953c0.255-0.427,0.384-0.895,0.384-1.403
				c0-0.782-0.318-1.449-0.957-2.003c-0.641-0.552-1.57-0.829-2.795-0.829c-0.661,0-1.252,0.071-1.78,0.217V32.9L727.251,32.9z
				 M727.251,39.302c0.766,0.182,1.521,0.268,2.264,0.268c1.192,0,2.1-0.27,2.727-0.805c0.624-0.535,0.938-1.199,0.938-1.988
				c0-0.521-0.143-1.021-0.427-1.5c-0.281-0.482-0.743-0.861-1.381-1.139c-0.637-0.275-1.43-0.415-2.37-0.415
				c-0.408,0-0.759,0.008-1.049,0.019c-0.29,0.013-0.521,0.036-0.701,0.069L727.251,39.302L727.251,39.302z"/>
			<path fill="#010101" d="M747.86,26.571l0.307,4.553h-0.307c-0.408-1.362-0.992-2.344-1.747-2.944
				c-0.759-0.599-1.665-0.898-2.728-0.898c-0.89,0-1.691,0.226-2.41,0.677c-0.72,0.452-1.28,1.171-1.691,2.157
				c-0.412,0.988-0.618,2.219-0.618,3.686c0,1.211,0.192,2.264,0.583,3.152c0.39,0.889,0.972,1.568,1.755,2.043
				c0.778,0.477,1.669,0.713,2.67,0.713c0.868,0,1.635-0.186,2.303-0.561c0.664-0.369,1.396-1.109,2.19-2.213l0.308,0.191
				c-0.67,1.193-1.457,2.066-2.351,2.619c-0.896,0.553-1.959,0.83-3.191,0.83c-2.22,0-3.938-0.822-5.155-2.473
				c-0.906-1.223-1.361-2.666-1.361-4.324c0-1.334,0.299-2.565,0.896-3.686c0.6-1.12,1.426-1.985,2.475-2.603
				c1.052-0.614,2.197-0.922,3.441-0.922c0.969,0,1.925,0.237,2.865,0.71c0.276,0.145,0.477,0.219,0.595,0.219
				c0.175,0,0.329-0.064,0.462-0.189c0.171-0.175,0.293-0.423,0.367-0.739H747.86L747.86,26.571z"/>
			<rect x="698.552" y="25.123" fill="none" width="82.001" height="16.457"/>
		</g>
	</g>
	<g>
		<g>
			<path fill="#E72B2B" d="M972.981,63.001h84.789c4.184,0,7.604-3.422,7.604-7.605V7.605c0-4.182-3.422-7.605-7.604-7.605h-84.789
				c-4.184,0-7.605,3.424-7.605,7.605v47.79C965.373,59.58,968.797,63.001,972.981,63.001z"/>
			<path fill="#BF242A" d="M1057.77,63.001h-84.789c-4.184,0-7.605-3.422-7.605-7.605v3.699c0,4.184,3.424,7.607,7.605,7.607h84.789
				c4.184,0,7.604-3.425,7.604-7.607v-3.699C1065.373,59.58,1061.951,63.001,1057.77,63.001z"/>
		</g>
		<g>
			<path fill="#FFFFFE" d="M1014.819,17.744c0,4.238,7.209,8.94,7.209,13.78c0,0,0,0.465-0.201,0.966
				c6.736,1.398,11.506,4.703,11.506,8.571c0,5.205-8.508,9.476-19.047,9.513c-0.068,0.03-0.131,0-0.201,0
				c-10.438,0-18.91-4.14-18.91-9.312c0-3.869,5.168-7.005,11.404-8.672c0,2.138,7.111,8.908,7.273,11.639
				c0,0,0.031,0.235,0.031,0.506c0,0.132,0,0.265-0.031,0.396c1.537-0.797,1.537-3.299,1.537-3.299c0-5.938-6.91-8.577-6.91-14.414
				c0-2.265,1.07-3.938,2.039-4.401v1.635c0,4.232,7.473,8.975,7.473,12.842v1.268c1.73-0.666,1.73-3.838,1.73-3.838
				c0-5.335-6.936-8.302-6.936-14.408c0-2.27,1.066-3.937,2.031-4.401v1.63H1014.819z"/>
		</g>
	</g>
	<g>
		<g>
			<path fill="#F2F2F2" d="M1386.711,63.001h84.787c4.184,0,7.605-3.422,7.605-7.605V7.606c0-4.185-3.422-7.604-7.605-7.604h-84.787
				c-4.184,0-7.604,3.422-7.604,7.604v47.79C1379.108,59.58,1382.53,63.001,1386.711,63.001z"/>
			<path fill="#C4C4C4" d="M1471.5,63.001h-84.787c-4.184,0-7.605-3.422-7.605-7.605v3.699c0,4.184,3.422,7.605,7.605,7.605h84.787
				c4.184,0,7.605-3.423,7.605-7.605v-3.699C1479.106,59.58,1475.682,63.001,1471.5,63.001z"/>
		</g>
		<g>
			<path fill-rule="evenodd" clip-rule="evenodd" fill="#F37421" d="M1410.291,18.628l27.588-6.559
				c4.025-0.958,8.104,1.554,9.061,5.58l6.559,27.586c0.5,2.103,0.055,4.22-1.059,5.898h-42.154l-5.574-23.444
				C1403.754,23.664,1406.266,19.585,1410.291,18.628L1410.291,18.628z"/>
			<polygon fill="#FFFFFF" points="1410.233,29.907 1410.233,41.693 1412.908,41.693 1412.908,36.761 1417.297,36.761 
				1417.297,41.693 1419.955,41.693 1419.955,29.907 1417.297,29.907 1417.297,34.435 1412.908,34.435 1412.908,29.907 
				1410.233,29.907 			"/>
			<path fill="#FFFFFF" d="M1442.977,38.265c0.035-0.192,0.086-0.595,0.086-1.049c0-2.116-1.049-4.268-3.811-4.268
				c-2.973,0-4.32,2.396-4.32,4.564c0,2.676,1.662,4.354,4.564,4.354c1.154,0,2.221-0.175,3.096-0.524l-0.35-1.802
				c-0.717,0.228-1.451,0.351-2.361,0.351c-1.242,0-2.326-0.525-2.414-1.627H1442.977L1442.977,38.265z M1437.449,36.447
				c0.07-0.717,0.525-1.731,1.645-1.731c1.225,0,1.504,1.084,1.504,1.731H1437.449L1437.449,36.447z"/>
			<path fill="#FFFFFF" d="M1443.916,41.693h2.658v-4.337c0-0.21,0.016-0.42,0.051-0.595c0.176-0.821,0.84-1.347,1.82-1.347
				c0.297,0,0.523,0.035,0.717,0.07v-2.501c-0.193-0.035-0.314-0.035-0.561-0.035c-0.822,0-1.871,0.525-2.309,1.767h-0.07
				l-0.086-1.574h-2.291c0.035,0.735,0.07,1.557,0.07,2.815V41.693L1443.916,41.693z"/>
			<path fill-rule="evenodd" clip-rule="evenodd" fill="#FFE700" d="M1422.66,29.432c0.754,0,1.365,0.611,1.365,1.366
				s-0.611,1.366-1.365,1.366c-0.756,0-1.367-0.611-1.367-1.366S1421.905,29.432,1422.66,29.432L1422.66,29.432z"/>
			<path fill-rule="evenodd" clip-rule="evenodd" fill="#FFFFFF" d="M1428.274,39.701h1.334c1.34,0,1.945-0.857,1.945-1.752
				s-0.064-2.918-1.719-2.918c-1.902,0-1.594,2.511-1.586,3.826C1428.25,39.138,1428.266,39.419,1428.274,39.701L1428.274,39.701z
				 M1421.293,33.129h2.732v4.819c0,0.894,0.498,1.751,1.594,1.752c0.008-2.17,0-4.403-0.074-6.571h2.283
				c0.051,0.418,0.096,0.836,0.137,1.256c1.078-2.157,4.479-1.683,5.623,0.139c1.18,1.881,1.582,7.267-3.98,7.267h-1.295
				c0.012,1.094,0.014,2.188,0.014,3.284h-2.732c0-1.052,0.008-2.152,0.014-3.284c-2.953-0.011-4.314-1.886-4.314-3.842V33.129
				L1421.293,33.129z"/>
		</g>
	</g>
	<g>
		<g>
			<g>
				<g>
					<path fill="#F2F2F2" d="M1248.801,63.001h84.788c4.185,0,7.605-3.422,7.605-7.604V7.607c0-4.184-3.422-7.604-7.605-7.604
						h-84.788c-4.184,0-7.604,3.422-7.604,7.604v47.79C1241.197,59.581,1244.618,63.001,1248.801,63.001z"/>
					<path fill="#C4C4C4" d="M1333.589,63.001h-84.788c-4.184,0-7.604-3.422-7.604-7.604v3.698c0,4.185,3.422,7.605,7.604,7.605
						h84.788c4.185,0,7.605-3.423,7.605-7.605v-3.698C1341.196,59.581,1337.774,63.001,1333.589,63.001z"/>
				</g>
			</g>
			<path id="fundo" fill-rule="evenodd" clip-rule="evenodd" fill="#961B1E" d="M1274.544,16.786c-2.611,0-7.844,0-7.844,0
				c-3.467,0.164-6.3,1.56-7.118,4.439c-0.427,1.501-0.661,3.15-0.995,4.706c-1.695,7.914-3.199,16.046-4.821,23.802h61.074
				c4.722,0,7.963-0.997,8.839-4.745c0.407-1.74,0.797-3.712,1.187-5.625c1.519-7.457,3.037-14.913,4.592-22.577H1274.544z"/>
		</g>
		<path id="hipercard" fill-rule="evenodd" clip-rule="evenodd" fill="#FFFFFF" d="M1273.933,28.496
			c0.328-0.227,0.75-1.256,0.268-1.684c-0.152-0.136-0.408-0.176-0.766-0.115c-0.33,0.056-0.521,0.168-0.65,0.345
			c-0.208,0.283-0.398,1.137-0.076,1.454C1273.021,28.804,1273.724,28.639,1273.933,28.496z M1269.264,26.812
			c-0.235,1.524-0.5,3.021-0.765,4.515c-1.705,0.019-3.445,0.085-5.09-0.038c0.311-1.462,0.533-3.013,0.842-4.477h-1.837
			c-0.657,3.729-1.256,7.52-1.99,11.174h1.876c0.293-1.875,0.568-3.768,0.956-5.549c1.599-0.04,3.515-0.108,5.052,0.038
			c-0.317,1.852-0.7,3.637-0.996,5.511h1.875c0.604-3.786,1.238-7.539,1.99-11.174H1269.264z M1295.782,30.026
			c-1.459-0.589-2.605,0.406-3.138,1.34c0.121-0.415,0.171-0.901,0.269-1.34h-1.455c-0.355,2.757-0.879,5.346-1.377,7.96h1.646
			c0.23-1.552,0.33-3.644,0.842-5.128c0.409-1.187,1.479-2.197,3.022-1.646C1295.614,30.775,1295.739,30.441,1295.782,30.026z
			 M1296.701,36.11c-0.151-0.392-0.191-1.038-0.153-1.53c0.085-1.105,0.488-2.452,1.109-3.062c0.858-0.841,2.553-0.701,3.903-0.229
			c0.042-0.455,0.134-0.861,0.191-1.301c-2.216-0.362-4.318-0.137-5.434,1.033c-1.092,1.146-1.807,3.777-1.301,5.434
			c0.592,1.938,3.246,2.044,5.396,1.302c0.095-0.39,0.146-0.824,0.229-1.225C1299.468,37.142,1297.223,37.458,1296.701,36.11z
			 M1315.184,30.064c-1.454-0.727-2.665,0.493-3.138,1.225c0.135-0.375,0.143-0.878,0.268-1.263h-1.454
			c-0.392,2.733-0.864,5.386-1.415,7.96h1.684c0.011-1.055,0.218-1.836,0.383-2.87c0.352-2.209,0.868-4.632,3.443-3.903
			C1315.04,30.838,1315.075,30.415,1315.184,30.064z M1272.249,30.026c-0.045,0.007-0.042,0.061-0.039,0.115
			c-0.362,2.711-0.854,5.295-1.377,7.845h1.645c0.396-2.73,0.849-5.402,1.416-7.96H1272.249z M1286.714,29.873
			c-1.189,0.092-2.194,0.435-2.908,1.187c-0.877,0.923-1.586,2.964-1.379,4.821c0.297,2.651,3.598,2.557,6.238,1.914
			c0.045-0.466,0.157-0.863,0.229-1.302c-1.087,0.407-2.976,0.976-4.095,0.269c-0.844-0.534-0.85-1.887-0.574-3.062
			c1.775-0.057,3.619-0.046,5.396,0c0.112-0.833,0.436-1.741,0.152-2.564C1289.403,30.049,1288.07,29.768,1286.714,29.873z
			 M1288.282,32.781h-3.865c0.123-0.888,0.922-1.864,2.182-1.913C1287.784,30.823,1288.633,31.303,1288.282,32.781z
			 M1280.476,30.026c-1.393-0.523-3.09,0.102-3.826,0.695c0.003,0.026-0.018,0.03-0.039,0.032c0.014-0.011,0.026-0.021,0.039-0.032
			c0-0.002,0-0.004,0-0.007c0.012-0.255,0.102-0.433,0.115-0.688h-1.416c-0.59,3.926-1.29,7.741-2.029,11.519h1.646
			c0.238-1.471,0.395-3.023,0.727-4.4c0.376,1.448,2.83,1.172,3.865,0.612C1281.695,36.601,1283.342,31.102,1280.476,30.026z
			 M1279.175,36.493c-0.881,0.933-3.045,0.919-3.215-0.65c-0.073-0.683,0.181-1.398,0.307-2.104c0.127-0.715,0.219-1.4,0.344-2.028
			c0.867-1.059,3.416-1.187,3.674,0.574C1280.509,33.812,1279.904,35.721,1279.175,36.493z M1321.307,26.582
			c-0.142,1.237-0.33,2.426-0.574,3.56c-4.036-1.278-6.512,1.691-6.467,5.357c0.009,0.708,0.131,1.411,0.574,1.913
			c0.764,0.864,2.951,1.071,4.056,0.345c0.214-0.141,0.433-0.396,0.574-0.574c0.106-0.134,0.275-0.483,0.306-0.383
			c-0.058,0.389-0.145,0.748-0.152,1.187h1.492c0.288-4.126,1.177-7.65,1.837-11.404H1321.307z M1317.633,37.105
			c-1.107,0.024-1.658-0.661-1.684-1.798c-0.044-1.991,0.829-4.203,2.603-4.401c0.825-0.092,1.423,0.1,2.027,0.307
			C1320.025,33.448,1320.225,37.049,1317.633,37.105z M1303.436,30.026c-0.081,0.455-0.205,0.866-0.306,1.301
			c0.971-0.243,3.994-0.989,4.286,0.307c0.097,0.431-0.07,0.888-0.191,1.225c-2.734-0.259-4.963,0.195-5.549,2.143
			c-0.393,1.305,0.044,2.588,0.88,2.947c1.61,0.689,3.569-0.101,4.248-1.187c-0.07,0.376-0.138,0.755-0.115,1.225h1.416
			c0.015-1.356,0.212-2.454,0.421-3.674c0.178-1.039,0.513-2.068,0.459-2.985C1308.864,29.227,1305.384,29.97,1303.436,30.026z
			 M1306.115,36.455c-0.848,0.83-3.228,1.066-2.984-0.918c0.202-1.648,1.997-1.998,3.941-1.761
			C1306.927,34.677,1306.761,35.823,1306.115,36.455z"/>
	</g>
	<g>
		<g>
			<g>
				<path fill="#F2F2F2" d="M1110.891,63.001h84.789c4.184,0,7.605-3.422,7.605-7.605V7.606c0-4.183-3.422-7.604-7.605-7.604
					h-84.789c-4.184,0-7.605,3.422-7.605,7.604v47.79C1103.285,59.58,1106.709,63.001,1110.891,63.001z"/>
				<path fill="#C4C4C4" d="M1195.68,63.001h-84.789c-4.184,0-7.605-3.422-7.605-7.605v3.699c0,4.184,3.424,7.605,7.605,7.605
					h84.789c4.184,0,7.605-3.423,7.605-7.605v-3.699C1203.285,59.58,1199.864,63.001,1195.68,63.001z"/>
			</g>
		</g>
		<g>
			<g>
				
					<path fill-rule="evenodd" clip-rule="evenodd" fill="#050013" stroke="#231F20" stroke-width="0.08" stroke-miterlimit="22.9256" d="
					M1152.285,7.866c13.59,0,24.607,11.018,24.607,24.608s-11.018,24.607-24.607,24.607c-13.592,0-24.607-11.017-24.607-24.607
					S1138.694,7.866,1152.285,7.866L1152.285,7.866z"/>
				<path fill-rule="evenodd" clip-rule="evenodd" fill="#FFFFFF" d="M1141.711,25.878c3.566,0,6.553,2.467,7.354,5.786
					l-3.049,1.333v-0.007l-3.119,1.37l-7.48,3.271c-0.801-1.199-1.268-2.641-1.268-4.19
					C1134.149,29.264,1137.535,25.878,1141.711,25.878L1141.711,25.878z M1144.957,30.582l-7.553,3.255
					c-0.014-0.131-0.02-0.262-0.02-0.396c0-2.389,1.938-4.326,4.326-4.326C1143.004,29.115,1144.164,29.682,1144.957,30.582
					L1144.957,30.582z"/>
				<path fill-rule="evenodd" clip-rule="evenodd" fill="#FFFFFF" d="M1146.996,38.851c-2.707,2.568-6.289,2.821-9.438,0.91
					l1.779-2.703c1.789,1.07,3.59,0.896,5.396-0.522L1146.996,38.851L1146.996,38.851z"/>
				<path fill-rule="evenodd" clip-rule="evenodd" fill="#FFFFFF" d="M1150.074,36.978l-0.018-14.301h2.709v13.915
					c0,0.134,0.016,0.251,0.191,0.319l2.357,0.916l-1.063,2.762l-2.762-1.169C1150.444,38.978,1150.076,38.335,1150.074,36.978
					L1150.074,36.978z"/>
			</g>
			<g>
				<path fill-rule="evenodd" clip-rule="evenodd" fill="#009DD7" d="M1160.278,36.738c-1.016-0.789-1.67-2.021-1.67-3.408
					c0-1.231,0.516-2.343,1.346-3.129l-1.75-2.836c-1.76,1.395-2.889,3.547-2.889,5.965c0,2.606,1.311,4.906,3.309,6.278
					L1160.278,36.738z"/>
				<path fill-rule="evenodd" clip-rule="evenodd" fill="#FFF200" d="M1161.463,29.268c0.455-0.164,0.947-0.254,1.459-0.254
					c1.848,0,3.424,1.161,4.039,2.795l3.354-0.28c-0.809-3.333-3.811-5.808-7.393-5.808c-1.012,0-1.977,0.199-2.859,0.558
					L1161.463,29.268z"/>
				<path fill-rule="evenodd" clip-rule="evenodd" fill="#E33206" d="M1167.233,33.54c-0.109,2.286-1.996,4.106-4.311,4.106
					c-0.361,0-0.715-0.046-1.051-0.13l-1.314,3.046c0.744,0.243,1.539,0.377,2.365,0.377c4.098,0,7.438-3.239,7.602-7.296
					L1167.233,33.54z"/>
			</g>
		</g>
	</g>
	<g>
		<g>
			<path fill="#F2F2F2" d="M1524.622,63.001h84.787c4.184,0,7.604-3.422,7.604-7.605V7.606c0-4.185-3.422-7.604-7.604-7.604h-84.787
				c-4.184,0-7.604,3.422-7.604,7.604v47.79C1517.018,59.58,1520.44,63.001,1524.622,63.001z"/>
			<path fill="#C4C4C4" d="M1609.41,63.001h-84.787c-4.184,0-7.604-3.422-7.604-7.605v3.699c0,4.184,3.422,7.605,7.604,7.605h84.787
				c4.184,0,7.605-3.423,7.605-7.605v-3.699C1617.016,59.58,1613.593,63.001,1609.41,63.001z"/>
		</g>
		<g>
			<g>
				<path d="M1543.39,54.315c-0.684,0-1.365-0.021-2.043-0.063s-1.383-0.141-2.114-0.297V41.859c0.575-0.108,1.206-0.189,1.89-0.243
					s1.32-0.081,1.908-0.081c0.792,0,1.521,0.058,2.187,0.171c0.666,0.114,1.239,0.31,1.719,0.585
					c0.48,0.276,0.855,0.64,1.125,1.089c0.271,0.45,0.405,1.006,0.405,1.665c0,0.997-0.479,1.782-1.439,2.358
					c0.792,0.3,1.332,0.708,1.619,1.224c0.288,0.517,0.433,1.099,0.433,1.746c0,1.309-0.478,2.292-1.431,2.952
					C1546.694,53.985,1545.274,54.315,1543.39,54.315z M1541.968,46.575h1.368c0.864,0,1.482-0.11,1.854-0.333
					c0.371-0.222,0.558-0.579,0.558-1.071c0-0.504-0.192-0.857-0.576-1.062s-0.948-0.306-1.691-0.306
					c-0.24,0-0.499,0.003-0.774,0.009c-0.276,0.006-0.522,0.021-0.738,0.045V46.575z M1541.968,48.717v3.222
					c0.204,0.024,0.426,0.042,0.666,0.054c0.24,0.013,0.504,0.019,0.792,0.019c0.84,0,1.519-0.12,2.034-0.36
					s0.774-0.684,0.774-1.332c0-0.576-0.217-0.987-0.648-1.233c-0.432-0.245-1.05-0.368-1.854-0.368H1541.968z"/>
				<path d="M1560.004,49.401c0,0.744-0.108,1.425-0.324,2.043s-0.528,1.146-0.936,1.584c-0.408,0.438-0.897,0.777-1.468,1.017
					c-0.569,0.24-1.209,0.36-1.917,0.36c-0.695,0-1.329-0.12-1.898-0.36c-0.57-0.239-1.06-0.578-1.467-1.017
					c-0.408-0.438-0.727-0.966-0.954-1.584c-0.229-0.618-0.343-1.299-0.343-2.043s0.117-1.422,0.352-2.034
					c0.233-0.612,0.558-1.134,0.972-1.565c0.414-0.433,0.906-0.769,1.477-1.009c0.569-0.239,1.19-0.359,1.862-0.359
					c0.685,0,1.312,0.12,1.881,0.359c0.57,0.24,1.06,0.576,1.468,1.009c0.407,0.432,0.726,0.953,0.954,1.565
					C1559.89,47.979,1560.004,48.657,1560.004,49.401z M1557.268,49.401c0-0.828-0.165-1.479-0.495-1.953
					c-0.33-0.474-0.801-0.711-1.413-0.711c-0.611,0-1.086,0.237-1.422,0.711c-0.336,0.475-0.504,1.125-0.504,1.953
					s0.168,1.485,0.504,1.971c0.336,0.486,0.811,0.729,1.422,0.729c0.612,0,1.083-0.243,1.413-0.729
					C1557.103,50.886,1557.268,50.229,1557.268,49.401z"/>
				<path d="M1565.854,54.333c-0.78-0.012-1.413-0.096-1.899-0.252c-0.485-0.155-0.87-0.375-1.151-0.656
					c-0.282-0.282-0.475-0.624-0.576-1.026c-0.103-0.402-0.153-0.855-0.153-1.359V40.617l2.683-0.432v10.313
					c0,0.24,0.018,0.456,0.054,0.648s0.104,0.354,0.207,0.486c0.102,0.132,0.249,0.239,0.44,0.323
					c0.192,0.084,0.45,0.139,0.774,0.162L1565.854,54.333z"/>
				<path d="M1567.311,49.491c0-0.84,0.129-1.575,0.388-2.205c0.258-0.63,0.597-1.154,1.017-1.575
					c0.42-0.42,0.903-0.737,1.449-0.954c0.546-0.216,1.106-0.323,1.683-0.323c1.344,0,2.406,0.411,3.187,1.232
					c0.779,0.822,1.17,2.031,1.17,3.627c0,0.156-0.006,0.327-0.019,0.514c-0.012,0.186-0.023,0.351-0.035,0.495h-6.084
					c0.06,0.552,0.317,0.989,0.773,1.313s1.068,0.486,1.836,0.486c0.492,0,0.975-0.045,1.449-0.135
					c0.474-0.091,0.861-0.201,1.161-0.333l0.359,2.178c-0.144,0.072-0.336,0.144-0.575,0.216c-0.24,0.072-0.508,0.135-0.802,0.189
					c-0.294,0.054-0.608,0.099-0.944,0.135s-0.673,0.054-1.008,0.054c-0.853,0-1.594-0.126-2.224-0.378s-1.151-0.597-1.565-1.035
					c-0.414-0.438-0.721-0.957-0.918-1.557C1567.41,50.834,1567.311,50.187,1567.311,49.491z M1573.612,48.464
					c-0.013-0.228-0.052-0.449-0.117-0.665c-0.066-0.217-0.168-0.408-0.307-0.576c-0.138-0.168-0.312-0.307-0.521-0.414
					c-0.21-0.108-0.471-0.162-0.783-0.162c-0.3,0-0.558,0.051-0.773,0.153c-0.217,0.102-0.396,0.236-0.54,0.404
					c-0.145,0.168-0.256,0.363-0.333,0.585c-0.078,0.223-0.136,0.447-0.171,0.675H1573.612z"/>
				<path d="M1578.183,42.327l2.682-0.432v2.79h3.223v2.231h-3.223v3.33c0,0.564,0.1,1.015,0.298,1.351
					c0.197,0.336,0.597,0.504,1.196,0.504c0.288,0,0.585-0.027,0.892-0.081c0.306-0.054,0.585-0.129,0.837-0.226l0.378,2.089
					c-0.324,0.132-0.685,0.246-1.08,0.342c-0.396,0.096-0.882,0.144-1.458,0.144c-0.732,0-1.338-0.099-1.818-0.297
					c-0.479-0.198-0.863-0.474-1.151-0.828c-0.288-0.354-0.489-0.783-0.604-1.287s-0.171-1.062-0.171-1.674V42.327z"/>
				<path d="M1594.762,49.401c0,0.744-0.108,1.425-0.324,2.043s-0.528,1.146-0.936,1.584c-0.408,0.438-0.897,0.777-1.468,1.017
					c-0.569,0.24-1.209,0.36-1.917,0.36c-0.695,0-1.329-0.12-1.898-0.36c-0.57-0.239-1.06-0.578-1.467-1.017
					c-0.408-0.438-0.727-0.966-0.954-1.584c-0.229-0.618-0.343-1.299-0.343-2.043s0.117-1.422,0.352-2.034
					c0.233-0.612,0.558-1.134,0.972-1.565c0.414-0.433,0.906-0.769,1.477-1.009c0.569-0.239,1.19-0.359,1.862-0.359
					c0.685,0,1.312,0.12,1.881,0.359c0.57,0.24,1.06,0.576,1.468,1.009c0.407,0.432,0.726,0.953,0.954,1.565
					C1594.648,47.979,1594.762,48.657,1594.762,49.401z M1592.026,49.401c0-0.828-0.165-1.479-0.495-1.953
					c-0.33-0.474-0.801-0.711-1.413-0.711c-0.611,0-1.086,0.237-1.422,0.711c-0.336,0.475-0.504,1.125-0.504,1.953
					s0.168,1.485,0.504,1.971c0.336,0.486,0.811,0.729,1.422,0.729c0.612,0,1.083-0.243,1.413-0.729
					C1591.861,50.886,1592.026,50.229,1592.026,49.401z"/>
			</g>
			<line fill="none" stroke="#000000" stroke-miterlimit="10" x1="1539.879" y1="39.014" x2="1539.879" y2="11.866"/>
			<line fill="none" stroke="#000000" stroke-miterlimit="10" x1="1541.879" y1="39.014" x2="1541.879" y2="11.866"/>
			<line fill="none" stroke="#000000" stroke-miterlimit="10" x1="1543.879" y1="39.014" x2="1543.879" y2="11.866"/>
			<line fill="none" stroke="#000000" stroke-miterlimit="10" x1="1545.879" y1="39.014" x2="1545.879" y2="11.866"/>
			<line fill="none" stroke="#000000" stroke-miterlimit="10" x1="1547.879" y1="39.014" x2="1547.879" y2="11.866"/>
			
				<line fill="none" stroke="#000000" stroke-width="1.0199" stroke-miterlimit="10" x1="1549.879" y1="43.101" x2="1549.879" y2="11.866"/>
			
				<line fill="none" stroke="#000000" stroke-width="1.0261" stroke-miterlimit="10" x1="1551.879" y1="43.101" x2="1551.879" y2="11.866"/>
			
				<line fill="none" stroke="#000000" stroke-width="1.0726" stroke-miterlimit="10" x1="1553.879" y1="43.101" x2="1553.879" y2="11.866"/>
			
				<line fill="none" stroke="#000000" stroke-width="1.0726" stroke-miterlimit="10" x1="1555.879" y1="43.101" x2="1555.879" y2="11.866"/>
			
				<line fill="none" stroke="#000000" stroke-width="1.0726" stroke-miterlimit="10" x1="1557.879" y1="43.101" x2="1557.879" y2="11.866"/>
			
				<line fill="none" stroke="#000000" stroke-width="1.0726" stroke-miterlimit="10" x1="1559.879" y1="43.101" x2="1559.879" y2="11.866"/>
			<line fill="none" stroke="#000000" stroke-miterlimit="10" x1="1561.879" y1="39.014" x2="1561.879" y2="11.866"/>
			<line fill="none" stroke="#000000" stroke-miterlimit="10" x1="1563.879" y1="39.014" x2="1563.879" y2="11.866"/>
			<line fill="none" stroke="#000000" stroke-miterlimit="10" x1="1565.879" y1="39.014" x2="1565.879" y2="11.866"/>
			
				<line fill="none" stroke="#000000" stroke-width="1.0726" stroke-miterlimit="10" x1="1567.879" y1="43.101" x2="1567.879" y2="11.866"/>
			
				<line fill="none" stroke="#000000" stroke-width="1.0726" stroke-miterlimit="10" x1="1569.879" y1="43.101" x2="1569.879" y2="11.866"/>
			
				<line fill="none" stroke="#000000" stroke-width="1.0726" stroke-miterlimit="10" x1="1571.879" y1="43.101" x2="1571.879" y2="11.866"/>
			
				<line fill="none" stroke="#000000" stroke-width="1.0726" stroke-miterlimit="10" x1="1573.879" y1="43.101" x2="1573.879" y2="11.866"/>
			
				<line fill="none" stroke="#000000" stroke-width="1.0726" stroke-miterlimit="10" x1="1575.879" y1="43.101" x2="1575.879" y2="11.866"/>
			<line fill="none" stroke="#000000" stroke-miterlimit="10" x1="1577.879" y1="39.014" x2="1577.879" y2="11.866"/>
			<line fill="none" stroke="#000000" stroke-miterlimit="10" x1="1579.879" y1="39.014" x2="1579.879" y2="11.866"/>
			<line fill="none" stroke="#000000" stroke-miterlimit="10" x1="1581.879" y1="39.014" x2="1581.879" y2="11.866"/>
			
				<line fill="none" stroke="#000000" stroke-width="1.0726" stroke-miterlimit="10" x1="1583.879" y1="43.101" x2="1583.879" y2="11.866"/>
			
				<line fill="none" stroke="#000000" stroke-width="1.0726" stroke-miterlimit="10" x1="1585.879" y1="43.101" x2="1585.879" y2="11.866"/>
			
				<line fill="none" stroke="#000000" stroke-width="1.0726" stroke-miterlimit="10" x1="1587.879" y1="43.101" x2="1587.879" y2="11.866"/>
			
				<line fill="none" stroke="#000000" stroke-width="1.0726" stroke-miterlimit="10" x1="1589.879" y1="43.101" x2="1589.879" y2="11.866"/>
			
				<line fill="none" stroke="#000000" stroke-width="1.0726" stroke-miterlimit="10" x1="1591.879" y1="43.101" x2="1591.879" y2="11.866"/>
			
				<line fill="none" stroke="#000000" stroke-width="1.0726" stroke-miterlimit="10" x1="1593.879" y1="43.101" x2="1593.879" y2="11.866"/>
		</g>
	</g>
</g>
</svg>
