<?xml version="1.0" encoding="utf-8"?>
<!-- Generator: Adobe Illustrator 16.0.0, SVG Export Plug-In . SVG Version: 6.00 Build 0)  -->
<!DOCTYPE svg PUBLIC "-//W3C//DTD SVG 1.1//EN" "http://www.w3.org/Graphics/SVG/1.1/DTD/svg11.dtd">
<svg version="1.1" id="Layer_1" xmlns="http://www.w3.org/2000/svg" xmlns:xlink="http://www.w3.org/1999/xlink" x="0px" y="0px"
	 width="794.334px" height="156.7px" viewBox="0 0 794.334 156.7" enable-background="new 0 0 794.334 156.7" xml:space="preserve">
<g>
	<g>
		<path fill="#F2F2F2" d="M146.473,63h84.789c4.183,0,7.605-3.423,7.605-7.605V7.605c0-4.185-3.423-7.605-7.605-7.605h-84.789
			c-4.183,0-7.605,3.422-7.605,7.605v47.789C138.867,59.578,142.29,63,146.473,63z"/>
		<path fill="#C4C4C4" d="M231.261,63h-84.789c-4.183,0-7.605-3.423-7.605-7.605v3.7c0,4.183,3.423,7.604,7.605,7.604h84.789
			c4.183,0,7.605-3.421,7.605-7.604v-3.7C238.867,59.578,235.444,63,231.261,63z"/>
	</g>
	<g>
		<path fill="#263C82" d="M179.395,21.801l-9.412,23.03h-6.338l-6.102-23.03h4.024c0,0,2.526-0.146,2.977,2.458
			c0.4,2.322,2.602,13.338,2.602,13.338l5.865-15.796H179.395z"/>
		<path fill="#F89A1C" d="M166.481,34.258c-0.682-3.44-1.68-8.511-1.938-10c-0.382-2.215-2.268-2.439-2.821-2.458h-0.155h-4.024
			h-5.463v0.559C164.034,25.339,166.48,34.257,166.481,34.258z"/>
		<polygon fill="#263C82" points="181.701,21.801 178.012,44.833 183.936,44.833 187.661,21.8 		"/>
		<path fill="#263C82" d="M187.661,43.945l0.887-5.179c0,0,2.625,1.632,5.569,1.632c0,0,2.589,0.188,3.653-0.839
			c1.064-1.029,0.674-2.011,0.674-2.011s-0.283-0.934-1.892-1.689c-1.608-0.756-4.671-1.998-5.913-4.659
			c-1.242-2.66,0.461-5.616,0.461-5.616s1.466-2.507,4.446-3.431c2.979-0.922,6.385-0.614,6.385-0.614s1.987,0.213,3.595,0.854
			l-0.779,5.037c0,0-1.939-1.254-4.919-1.254c-2.98,0-3.571,1.728-3.571,1.728s-0.384,1.053,0.875,1.798
			c1.169,0.691,3.902,2.081,3.902,2.081s3.617,1.632,3.666,5.486c0.048,3.853-3.146,5.935-3.146,5.935s-2.412,2.011-7.615,2.011
			C190.014,45.21,187.661,43.945,187.661,43.945z"/>
		<path fill="#263C82" d="M220.829,21.801c0,0-2.785,0-4.877,0c-2.094,0-2.644,1.518-2.644,1.518l-9.028,21.514h6.297l1.206-3.495
			h7.592l0.745,3.495h5.533L220.829,21.801z M213.38,36.728l3.264-8.815l1.844,8.815H213.38z"/>
	</g>
</g>
<g>
	<path fill="#F2F2F2" d="M285.34,63h84.79c4.184,0,7.604-3.423,7.604-7.605V7.605c0-4.185-3.422-7.605-7.604-7.605h-84.79
		c-4.184,0-7.605,3.422-7.605,7.605v47.789C277.733,59.578,281.156,63,285.34,63z"/>
	<path fill="#C4C4C4" d="M370.13,63h-84.79c-4.184,0-7.605-3.423-7.605-7.605v3.7c0,4.183,3.423,7.604,7.605,7.604h84.79
		c4.184,0,7.604-3.421,7.604-7.604v-3.7C377.734,59.578,374.313,63,370.13,63z"/>
	<g>
		<circle fill="#FAA840" cx="343.415" cy="31.566" r="23.404"/>
		<path fill="#EF3832" d="M335.414,33.029c0.027-0.462,0.043-0.926,0.043-1.396c0-0.021,0-0.043,0-0.063l-0.051-1.459
			c-0.03-0.49-0.076-0.978-0.137-1.459h-15.072c0.063-0.491,0.14-0.979,0.229-1.459h14.607c-0.096-0.491-0.203-0.979-0.328-1.458
			h-13.955c0.126-0.493,0.271-0.979,0.428-1.459h13.098c-0.164-0.494-0.344-0.98-0.539-1.459h-12.024
			c0.198-0.497,0.415-0.983,0.646-1.46h10.728c-0.242-0.497-0.503-0.983-0.779-1.459h-9.174c0.287-0.498,0.593-0.984,0.914-1.459
			h7.34c-0.345-0.501-0.705-0.987-1.084-1.459h-5.18c0.401-0.504,0.824-0.99,1.267-1.459h2.64c-4.265-4.49-10.292-7.29-16.974-7.29
			c-12.926,0-23.403,10.478-23.403,23.403c0,12.926,10.479,23.399,23.403,23.399c6.051,0,11.566-2.297,15.722-6.065
			c-0.479-0.432-0.944-0.883-1.388-1.354h2.759c0.439-0.469,0.859-0.955,1.258-1.457h-5.282c-0.377-0.473-0.735-0.959-1.076-1.459
			h7.428c0.32-0.475,0.623-0.962,0.908-1.46h-9.25c-0.273-0.476-0.531-0.962-0.773-1.459h10.791c0.23-0.478,0.443-0.963,0.641-1.458
			h-12.077c-0.193-0.479-0.371-0.966-0.533-1.459h13.139c0.156-0.48,0.299-0.966,0.424-1.458h-5.09
			c-0.123-0.48-0.229-0.968-0.322-1.459h5.73c0.09-0.482,0.166-0.968,0.225-1.458h-5.268v-1.459L335.414,33.029L335.414,33.029z
			 M322.721,34.488h-2.523c-0.06-0.481-0.104-0.969-0.134-1.459h2.657V34.488z"/>
		<polygon fill="#FFFFFF" points="290.914,37.479 292.737,27.094 296.492,27.094 296.842,33.067 299.379,27.094 303.345,27.094 
			301.49,37.479 299.271,37.479 300.608,29.861 297.402,37.479 294.881,37.479 294.455,29.753 293.133,37.479 		"/>
		<path fill="#FFFFFF" d="M309.794,29.608c-0.934-0.669-1.683-0.681-1.683-0.681h-2.239c0,0-0.628,0.041-1.073,0.152
			s-0.566,0.264-0.566,0.264l-0.558,1.996c0,0,1.013-0.566,2.999-0.566c1.984,0,1.307,1.275,1.307,1.275h-1.429
			c0,0-1.643-0.102-2.807,0.709c-1.166,0.812-1.276,2.319-1.276,2.319s-0.242,2.553,2.351,2.553c0,0,1.632,0.081,2.594-0.933
			l-0.142,0.78h2.076l1.186-6.22C310.532,31.258,310.726,30.276,309.794,29.608z M307.614,34.612c0,0-0.264,1.196-1.862,1.196
			c0,0-0.871,0.04-0.871-0.791c0-0.83,0.871-1.235,0.871-1.235s0.688-0.345,1.538-0.345c0,0,0.567,0,0.537,0.172L307.614,34.612z"/>
		<path fill="#FFFFFF" d="M317.06,29.033l-0.402,1.823c0,0-1.025-0.146-1.497-0.146s-1.321-0.007-1.626,0.563
			c0,0-0.502,0.585,1.041,1.117c0,0,2.066,0.372,1.998,2.052c-0.067,1.678-0.736,2.218-0.736,2.218s-0.835,0.889-3.115,0.889
			c-2.279,0-2.767-0.409-2.767-0.409l0.396-1.809c0,0,1.185,0.402,2.37,0.402c1.185,0,1.261-0.623,1.261-0.623
			s0.138-0.691-0.379-0.873c-0.518-0.183-2.805-0.859-2.668-2.492c0.137-1.634,0.844-2.181,0.844-2.181s0.859-0.783,3.102-0.692
			C314.88,28.873,316.33,28.927,317.06,29.033z"/>
		<path fill="#FFFFFF" d="M318.495,27.094l-1.58,8.955c0,0-0.223,1.43,1.357,1.43h1.418c0,0,0.771-0.071,1.064-0.396l0.242-1.437
			c0,0-0.345,0.121-1.095,0.121c-0.749,0-0.668-0.477-0.668-0.477l0.779-4.538c0,0,0.062,0.111,0.346,0.111c0.283,0,1.034,0,1.034,0
			l0.324-1.854h-1.35l0.354-1.915h-2.228V27.094z"/>
		<path fill="#FFFFFF" d="M325.494,28.873c0,0-3.001-0.25-4.103,2.743c-1.104,2.993,0.646,4.718,0.646,4.718
			s0.866,1.179,3.519,1.179c0,0,1.422,0.067,2.401-0.479l0.337-2.012c0,0-0.898,0.697-2.357,0.697c0,0-2.675,0.131-2.484-1.897h5.09
			c0,0,0.189-1.438,0.236-1.885C328.822,31.487,328.807,28.873,325.494,28.873z M326.619,32.215h-2.895c0,0,0.235-1.58,1.527-1.58
			C326.719,30.635,326.619,32.215,326.619,32.215z"/>
		<path fill="#FFFFFF" d="M328.436,37.479l1.488-8.458h2.301l-0.254,1.327c0,0,0.912-1.408,1.904-1.408h0.922
			c0,0-0.668,0.892-0.892,2.259c0,0-0.709-0.182-1.51,0.229c-0.801,0.411-0.963,1.858-0.963,1.858l-0.629,4.194H328.436z"/>
		<path fill="#FFFFFF" d="M341.307,34.739l-0.318,2.127c0,0-0.533,0.648-2.463,0.648s-2.766-0.785-2.766-0.785
			s-2.781-1.869-1.142-6.413c1.644-4.544,6.476-3.465,6.476-3.465s0.813,0.183,1.512,0.509l-0.363,2.211c0,0-0.959-0.6-2.371-0.6
			c-1.414,0-2.082,0.773-2.082,0.773s-1.088,1.284-1.141,3.199s1.559,2.279,1.559,2.279S340.016,35.779,341.307,34.739z"/>
		<path fill="#FFFFFF" d="M348.9,29.608c-0.932-0.669-1.682-0.681-1.682-0.681h-2.24c0,0-0.627,0.041-1.074,0.152
			c-0.444,0.111-0.565,0.264-0.565,0.264l-0.558,1.996c0,0,1.013-0.566,2.998-0.566c1.986,0,1.308,1.275,1.308,1.275h-1.429
			c0,0-1.641-0.102-2.807,0.709c-1.166,0.812-1.277,2.319-1.277,2.319s-0.242,2.553,2.353,2.553c0,0,1.631,0.081,2.594-0.933
			l-0.144,0.78h2.078l1.185-6.22C349.639,31.258,349.832,30.276,348.9,29.608z M346.723,34.612c0,0-0.264,1.196-1.865,1.196
			c0,0-0.871,0.04-0.871-0.791c0-0.83,0.871-1.235,0.871-1.235s0.689-0.345,1.541-0.345c0,0,0.566,0,0.535,0.172L346.723,34.612z"/>
		<path fill="#FFFFFF" d="M349.264,37.46l1.49-8.458h2.301l-0.254,1.327c0,0,0.881-1.408,2.098-1.408h0.486
			c0,0-0.244,0.706-0.467,2.074c0,0-0.912-0.081-1.607,0.371c-0.754,0.491-1.047,1.9-1.047,1.9l-0.629,4.193L349.264,37.46
			L349.264,37.46z"/>
		<path fill="#FFFFFF" d="M361.139,27.094l-0.531,3.056c0,0-0.502-1.171-2.197-1.171c-1.692,0-2.955,1.589-2.955,1.589
			s-1.186,1.442-1.186,3.586c0,2.142,1.359,3.008,1.359,3.008s0.614,0.47,1.559,0.47c0.941,0,1.443-0.354,1.443-0.354
			s0.325-0.205,0.76-0.54l-0.129,0.742l2.315-0.019l1.796-10.366L361.139,27.094L361.139,27.094z M359.648,34.526
			c-0.623,1.103-1.633,1.108-1.633,1.108s-0.76,0.068-1.058-0.949c-0.348-1.197,0.373-2.78,0.373-2.78s0.523-1.049,1.55-1.049
			s1.2,1.216,1.2,1.216S360.271,33.423,359.648,34.526z"/>
	</g>
</g>
<g>
	<path fill="#F2F2F2" d="M7.605,63h84.789c4.185,0,7.605-3.423,7.605-7.605V7.606C100,3.422,96.578,0,92.395,0H7.605
		C3.423,0,0,3.422,0,7.606v47.789C0,59.579,3.423,63,7.605,63z"/>
	<path fill="#C4C4C4" d="M92.395,63H7.605C3.423,63,0,59.579,0,55.395v3.7c0,4.183,3.423,7.604,7.604,7.604h84.789
		c4.185,0,7.605-3.421,7.605-7.604v-3.7C100,59.579,96.578,63,92.395,63z"/>
	<g>
		<path fill="#263A82" d="M20.639,21.765c0,0-6.32,0-7.072,0s-0.894,0.589-0.894,0.589s-2.397,15.2-2.499,15.852
			c-0.103,0.651,0.305,0.67,0.305,0.67h3.354c0.468,0,0.468-0.547,0.468-0.547s0.568-3.537,0.752-4.43
			c0.183-0.896,0.895-0.752,0.895-0.752h3.089c5.833,0,6.057-6.688,6.057-6.688C25.465,21.885,20.639,21.765,20.639,21.765z
			 M20.7,27.11c-0.55,2.967-2.987,2.724-2.987,2.724h-1.688c-0.608,0-0.426-0.568-0.426-0.568s0.527-3.171,0.67-3.761
			c0.144-0.589,0.732-0.589,0.732-0.589h1.707C20.984,24.916,20.7,27.11,20.7,27.11z"/>
		<path fill="#263A82" d="M38.127,27.376c-0.824,0-2.592,0-2.592,0s-0.609-0.033-0.731,0.545c-0.122,0.58-0.198,0.9-0.198,0.9
			s-0.717-1.754-3.521-1.754c-2.806,0-4.253,1.54-4.253,1.54s-2.683,2.546-2.683,5.563c0,3.017,1.631,5.014,4.785,5.014
			c3.155,0,4.131-1.66,4.131-1.66s0.023-0.064,0.088-0.059c0.097,0.012,0.096,0.059,0.096,0.059l-0.139,0.716
			c0,0-0.112,0.594,0.442,0.594h2.713c0,0,0.854-0.062,0.977-0.884c0.121-0.822,1.463-9.815,1.463-9.815
			S38.949,27.376,38.127,27.376z M33.303,34.96c-0.935,1.157-2.568,1.232-2.568,1.232c-3.399,0-2.584-3.248-2.584-3.248
			s0.832-2.782,3.445-2.782s2.613,2.301,2.613,2.301S34.238,33.802,33.303,34.96z"/>
		<path fill="#263A82" d="M40.626,27.343h2.851c0,0,0.641-0.075,0.822,0.746c0.184,0.823,1.586,5.289,1.586,5.289
			s0.091,0.32,0.289,0.32s0.365-0.336,0.365-0.336l3.705-5.471c0,0,0.364-0.55,0.762-0.55c0.396,0,2.881,0,2.881,0
			s0.944,0.016,0.396,0.854c-0.549,0.838-9.938,14.355-9.938,14.355s-0.198,0.365-0.716,0.365c-0.52,0-2.805,0-2.805,0
			s-0.442-0.029-0.52-0.44c-0.076-0.412,0.259-0.732,0.259-0.732l2.584-3.763c0,0,0.177-0.179,0.177-0.534s-3.228-9.241-3.228-9.241
			S39.732,27.343,40.626,27.343z"/>
		<path fill="#2398D5" d="M64.535,21.765c0,0-6.32,0-7.072,0s-0.896,0.589-0.896,0.589s-2.397,15.2-2.5,15.852
			c-0.102,0.651,0.307,0.67,0.307,0.67h3.353c0.468,0,0.468-0.547,0.468-0.547s0.569-3.537,0.752-4.43
			c0.184-0.896,0.895-0.752,0.895-0.752h3.09c5.832,0,6.056-6.688,6.056-6.688C69.361,21.885,64.535,21.765,64.535,21.765z
			 M64.596,27.11c-0.549,2.967-2.987,2.724-2.987,2.724h-1.687c-0.609,0-0.427-0.568-0.427-0.568s0.527-3.171,0.671-3.761
			c0.143-0.589,0.73-0.589,0.73-0.589h1.707C64.881,24.916,64.596,27.11,64.596,27.11z"/>
		<path fill="#2398D5" d="M82.021,27.376c-0.821,0-2.59,0-2.59,0s-0.61-0.033-0.731,0.545c-0.121,0.58-0.197,0.9-0.197,0.9
			s-0.717-1.754-3.521-1.754c-2.804,0-4.252,1.54-4.252,1.54s-2.684,2.546-2.684,5.563c0,3.017,1.631,5.014,4.787,5.014
			c3.153,0,4.13-1.66,4.13-1.66s0.022-0.064,0.089-0.059c0.094,0.012,0.094,0.059,0.094,0.059l-0.137,0.716
			c0,0-0.114,0.594,0.441,0.594h2.713c0,0,0.854-0.062,0.977-0.884c0.121-0.822,1.463-9.815,1.463-9.815
			S82.846,27.376,82.021,27.376z M77.199,34.96c-0.937,1.157-2.568,1.232-2.568,1.232c-3.4,0-2.584-3.248-2.584-3.248
			s0.832-2.782,3.445-2.782c2.612,0,2.612,2.301,2.612,2.301S78.135,33.802,77.199,34.96z"/>
		<path fill="#2398D5" d="M86.971,38.389l2.662-16.076c0,0,0.209-0.579-0.508-0.579s-2.847,0-2.847,0s-0.549-0.03-0.67,0.579
			c-0.123,0.611-2.521,15.954-2.521,15.954s-0.097,0.568,0.509,0.568c0.604,0,2.774,0,2.774,0S86.889,38.877,86.971,38.389z"/>
	</g>
</g>
<g>
	<path fill="#2075BC" d="M424.216,63h84.789c4.185,0,7.604-3.421,7.604-7.605V7.605c0-4.184-3.422-7.605-7.604-7.605h-84.789
		c-4.184,0-7.605,3.423-7.605,7.605v47.789C416.61,59.578,420.032,63,424.216,63z"/>
	<path fill="#1560AB" d="M509.005,63h-84.789c-4.184,0-7.605-3.421-7.605-7.605v3.7c0,4.183,3.423,7.604,7.605,7.604h84.789
		c4.185,0,7.604-3.421,7.604-7.604v-3.7C516.61,59.578,513.188,63,509.005,63z"/>
	<g>
		<path fill="#FFFFFF" d="M468.255,21.978v-0.282c0,0,0.017-1.122-1.482-1.122c-1.498,0-3.887,0-3.887,0v2.63h3.93
			C466.815,23.204,468.255,23.176,468.255,21.978z"/>
		<polygon fill="#FFFFFF" points="423.58,20.033 421.628,24.814 425.532,24.814 		"/>
		<polygon fill="#FFFFFF" points="489.974,20.124 488.037,24.819 491.908,24.819 		"/>
		<path fill="#FFFFFF" d="M416.591,32.32h0.002h3.015h1.647l0.631-1.521l0.465-1.121h2.54l0.416,1.07l0.611,1.572h1.688h5.669h2.466
			v-0.017l0.007,0.017h1.604h2.466h1.609h2.433h2.494h0.365h2.102h0.365h8.449h0.502h1.964h0.503h2.291h2.467v-2.466v-1.796h0.531
			v1.796v2.466h2.466h2.121h0.73h1.734h0.73h2.102h2.466v-1.06c1.108,0.653,2.436,1.02,3.932,1.06h0.032h0.032h3.757h1.664
			l0.623-1.543l0.429-1.061h2.508l0.442,1.077l0.629,1.525h1.651h0.456h2.467h0.273h2.49h1.257h1.208v-2.392l0.718,1.194
			l0.718,1.196h1.396h3.962h2.467v-2.466V18.195v-2.467h-2.467h-2.843h-2.468v1.744l-0.33-0.55l-0.719-1.194h-1.395h-4.271h-2.467
			v1.521l-0.012-0.028l-0.644-1.492h-1.623h-4.016h-2.467h-3.388c-0.037,0-0.088-0.002-0.147-0.002l0,0
			c-1.105,0-2.546,0.287-3.86,1.068v-1.068h-2.466h-2.832h-2.466v0.528c-0.694-0.289-1.512-0.479-2.468-0.522l-0.06-0.004h-0.057
			h-7.293H460.1h-1.964h-0.502h-8.449h-0.365h-2.102h-0.365h-4.293h-1.63l-0.639,1.501l-1.183,2.773l-1.314-2.844l-0.662-1.432
			h-1.576h-4.558h-2.466v1.561l-0.028-0.067l-0.643-1.492h-1.624h-4.179h-1.63l-0.64,1.5l-2.699,6.339L416.591,32.32L416.591,32.32z
			 M477.192,24.808v-1.349c0.208-5.048,4.216-5.267,4.91-5.267c0.064,0,0.102,0.002,0.102,0.002h3.435v2.446c0,0-0.429,0-3.039,0
			c-2.612,0-2.578,2.938-2.578,2.938v0.908c0,2.705,1.864,2.899,2.4,2.899c0.09,0,0.143-0.006,0.143-0.006h1.439l3.922-9.187h4.194
			l4.744,11.022v-0.363V18.195h4.271l4.909,8.154v-8.154h2.844v11.659h-3.962l-5.298-8.827v8.827h-5.687l-1.073-2.604h-5.822
			l-1.051,2.604h-3.757C477.101,29.716,477.192,24.808,477.192,24.808z M472.944,18.193h2.832v11.661h-2.832V18.193z M460.1,18.195
			h7.796c3.416,0.16,3.416,2.737,3.416,2.737v0.505c0,2.236-1.986,3.007-1.986,3.007s0.521,0.061,1.216,0.736
			c0.693,0.677,0.669,1.817,0.669,1.817v2.854h-2.853c0,0,0-0.339,0-2.421c0-1.69-1.307-1.851-1.796-1.851
			c-0.113,0-0.182,0.01-0.182,0.01h-3.486v4.262H460.1V18.195z M448.819,18.195h9.316v2.378h-6.502v2.151h6.336v2.396h-6.336v2.313
			h6.502v2.421h-9.316V18.195z M421.56,18.195h4.179l4.761,11.071V18.195h4.558l3.646,7.885l3.356-7.885h4.658v11.659h-2.859v-9.187
			l-4.042,9.187h-2.466l-4.076-9.169v9.169h-5.669l-1.028-2.645h-5.874l-1.096,2.645h-3.015L421.56,18.195z"/>
		<path fill="#FFFFFF" d="M516.608,35.825h-0.598h-5.744c-1.184,0-2.029,0.352-2.658,0.893v-0.893h-2.467h-5.746
			c-1.053,0-1.95,0.184-2.714,0.486v-0.476h-2.466h-9.317h-2.466v0.539c-0.701-0.297-1.53-0.492-2.502-0.537l-0.06-0.002h-0.057
			h-7.796h-2.466v0.525c-0.767-0.313-1.718-0.525-2.89-0.525h-9.533h-1.073l-0.73,0.785l-1.742,1.869l-1.637-1.832l-0.733-0.822
			h-1.104h-11.235h-2.466v2.465v11.67v2.465h2.466h11.054h1.075l0.73-0.787l1.723-1.854l1.634,1.821l0.733,0.82h1.104h5.458h2.466
			v-2.465v-1.429h1.415c0.044,0.002,0.105,0.002,0.185,0.002c0.647,0,1.861-0.082,3.104-0.596v2.009v2.467h2.466h2.794h2.467v-2.467
			v-1.794h0.531v1.794v2.467h2.466h2.853h2.466l0,0h7.899l-0.008,0.012h2.467h5.892c0.994,0,1.822-0.158,2.512-0.402v0.402h2.467
			h5.893c1.779,0,3.037-0.51,3.895-1.098V35.825H516.608z M470.718,41.714v0.742c0,3.44-3.521,3.624-4.27,3.624
			c-0.089,0-0.139-0.004-0.139-0.004h-3.927v3.895h-5.458l-3.438-3.836l-3.563,3.836h-11.054v-11.67h11.235l3.437,3.848l3.586-3.848
			c0,0,5.424,0,9.533,0C470.774,38.301,470.718,41.714,470.718,41.714z M483.231,41.544c0,2.234-1.986,3.004-1.986,3.004
			s0.522,0.063,1.217,0.739c0.692,0.676,0.668,1.816,0.668,1.816v2.854h-2.853c0,0,0-0.339,0-2.419c0-1.691-1.307-1.849-1.796-1.849
			c-0.113,0-0.182,0.008-0.182,0.008h-3.486v4.26h-2.794V38.301h7.796c3.416,0.16,3.416,2.738,3.416,2.738V41.544z M494.216,40.68
			h-6.503v2.147h6.337v2.399h-6.337v2.312h6.503v2.419h-9.317V38.301h9.317V40.68z M505.706,46.744c0,0,0.034,3.227-3.861,3.227
			c-3.896,0-5.892,0-5.892,0v-2.509h5.806c0,0,1.032-0.055,1.032-0.837v-0.441c0,0-0.106-0.779-0.984-0.779s-1.819,0-1.819,0
			s-0.057,0.002-0.156,0.002c-0.785,0-4.278-0.178-4.278-3.356v-0.573c0,0,0.051-3.184,3.844-3.184c3.794,0,5.746,0,5.746,0v2.482
			h-5.396c0,0-0.001,0-0.002,0c-0.06,0-1.235,0.012-1.235,0.873v0.399c0,0,0.006,0.806,1.151,0.806c1.148,0,2.164,0,2.164,0
			s0.063-0.004,0.175-0.004c0.756,0,3.708,0.186,3.708,3.108v0.787H505.706z M512.715,49.971c-3.025,0-4.899,0-5.589,0
			c0.646-0.919,0.896-1.862,0.989-2.511h4.514c0,0,1.031-0.055,1.031-0.837v-0.439c0,0-0.105-0.779-0.982-0.779
			c-0.879,0-1.82,0-1.82,0s-0.057,0.002-0.156,0.002c-0.785,0-4.279-0.178-4.279-3.357v-0.573c0,0,0.051-3.184,3.846-3.184
			c3.793,0,5.744,0,5.744,0v2.482h-5.395c0,0,0,0-0.002,0c-0.059,0-1.236,0.012-1.236,0.873v0.399c0,0,0.006,0.806,1.152,0.806
			c1.148,0,2.164,0,2.164,0s0.064-0.004,0.174-0.004c0.756,0,3.709,0.186,3.709,3.107v0.787
			C516.576,46.744,516.61,49.971,512.715,49.971z"/>
		<path fill="#FFFFFF" d="M466.281,40.688c-0.019,0-0.027,0-0.027,0h-3.883v3.024h3.996c0,0,1.394-0.012,1.394-1.553
			C467.761,40.745,466.489,40.688,466.281,40.688z"/>
		<path fill="#FFFFFF" d="M478.692,40.68c-1.498,0-3.887,0-3.887,0v2.628h3.93c0,0,1.439-0.025,1.439-1.226V41.8
			C480.175,41.8,480.191,40.68,478.692,40.68z"/>
		<polygon fill="#FFFFFF" points="441.638,40.7 441.638,42.869 447.769,42.869 447.769,45.222 441.638,45.222 441.638,47.573 
			448.511,47.573 451.696,44.137 448.671,40.7 		"/>
		<polygon fill="#FFFFFF" points="459.619,49.013 459.619,39.536 455.259,44.137 		"/>
	</g>
</g>
<g>
	<g>
		<path fill="#F2F2F2" d="M146.473,153h84.789c4.183,0,7.605-3.422,7.605-7.605v-47.79c0-4.183-3.423-7.604-7.605-7.604h-84.789
			c-4.183,0-7.605,3.422-7.605,7.604v47.79C138.867,149.579,142.29,153,146.473,153z"/>
		<path fill="#C4C4C4" d="M231.261,153h-84.789c-4.183,0-7.605-3.422-7.605-7.605v3.699c0,4.184,3.423,7.605,7.605,7.605h84.789
			c4.183,0,7.605-3.423,7.605-7.605v-3.699C238.867,149.579,235.444,153,231.261,153z"/>
	</g>
	<g>
		<path fill="#32367F" d="M192.226,121.973c-0.881-1.102-2.056-1.689-3.562-1.689c-1.139,0-2.276,0.551-3.378,1.579v-6.499
			l-2.497,1.358v17.259h2.497v-1.285c0.881,1.027,1.981,1.578,3.268,1.578c1.432,0,2.644-0.586,3.563-1.652
			c1.028-1.248,1.579-2.973,1.579-5.141C193.696,125.057,193.181,123.221,192.226,121.973L192.226,121.973z M185.25,124.434
			c0.918-1.176,1.873-1.727,2.938-1.727c1.983,0,2.938,1.615,2.938,4.883c0,2.791-0.918,4.223-2.828,4.223
			c-1.138,0-2.13-0.586-3.048-1.762V124.434L185.25,124.434z"/>
		<path fill="#32367F" d="M196.779,123.478c0.955-0.587,2.094-0.845,3.377-0.845c1.617,0,2.462,0.771,2.462,2.277v0.991
			c-0.735-0.329-1.69-0.514-2.864-0.514c-1.579,0-2.791,0.364-3.709,1.063c-0.991,0.772-1.468,1.838-1.468,3.27
			c0,1.543,0.477,2.68,1.468,3.525c0.809,0.696,1.8,1.026,3.012,1.026c1.359,0,2.534-0.551,3.563-1.614v1.319h2.496v-9.215
			c0-1.47-0.44-2.571-1.358-3.38c-0.844-0.733-2.02-1.102-3.524-1.102c-1.727,0-3.194,0.403-4.442,1.213L196.779,123.478
			L196.779,123.478z M202.618,128.252v1.91c-0.809,1.139-1.873,1.725-3.159,1.725c-1.652,0-2.46-0.734-2.46-2.238
			c0-1.324,0.881-1.984,2.68-1.984C200.818,127.665,201.81,127.885,202.618,128.252L202.618,128.252z"/>
		<path fill="#32367F" d="M210.329,120.54h-2.534v13.44h2.534v-7.856c0-2.277,0.882-3.416,2.644-3.416
			c1.799,0,2.681,1.211,2.681,3.672v7.602h2.57v-7.711c0-4.003-1.579-5.984-4.663-5.984c-1.469,0-2.57,0.551-3.23,1.578
			L210.329,120.54L210.329,120.54z"/>
		<polygon fill="#32367F" points="227.514,120.54 224.833,124.471 223.364,126.674 223.401,115.363 220.868,116.758 220.868,133.98 
			223.401,133.98 223.401,130.016 225.384,127.297 228.249,133.98 231.002,133.98 227.109,125.057 230.378,120.54 		"/>
		<polygon fill="#32367F" points="162.998,120.504 160.207,120.504 160.207,133.98 162.998,133.98 		"/>
		<path fill="#32367F" d="M165.495,120.504v2.533h2.35v7.602c0,1.027,0.294,1.91,0.845,2.57c0.552,0.625,1.322,0.955,2.203,0.992
			c0.991,0.037,1.836-0.222,2.46-0.625h0.037l0.037-0.037l0.587-2.388l0.037-0.185l-0.146,0.074
			c-0.771,0.478-1.396,0.697-2.056,0.697c-0.845,0-1.285-0.477-1.285-1.506v-7.197h2.827v-2.533h-2.827v-4.223l-2.681,1.469h-0.037
			v2.754h-2.351V120.504z"/>
		<polygon fill="#32367F" points="178.897,120.504 176.07,120.504 176.07,133.98 178.897,133.98 		"/>
		<path fill="#32367F" d="M153.818,120.247c-1.982,0-3.636,0.625-4.957,1.836c-1.432,1.285-2.13,3.012-2.13,5.18
			c0,2.129,0.698,3.893,2.13,5.176c1.322,1.213,2.975,1.836,4.957,1.836c1.873,0,3.488-0.77,4.773-2.313l0.037-0.037l-0.037-0.037
			l-1.469-1.799l-0.073-0.072l-0.037,0.072c-0.955,1.029-2.056,1.543-3.304,1.543c-1.212,0-2.204-0.404-3.012-1.248
			c-0.771-0.809-1.175-1.836-1.175-3.121s0.403-2.314,1.175-3.122c0.809-0.845,1.8-1.249,3.012-1.249
			c1.248,0,2.35,0.514,3.304,1.543l0.037,0.072l0.073-0.072l1.469-1.801l0.037-0.036l-0.037-0.037
			C157.306,121.019,155.691,120.247,153.818,120.247L153.818,120.247z"/>
		<path fill="#EA3030" d="M161.602,118.264c2.167-2.276,4.812-3.415,7.896-3.415s5.729,1.139,7.857,3.415l0.073,0.037h3.158
			l-0.11-0.184c-1.248-1.764-2.864-3.158-4.847-4.188c-1.946-1.028-3.966-1.506-6.132-1.506c-2.13,0-4.187,0.478-6.132,1.506
			c-1.946,1.027-3.6,2.424-4.848,4.188l-0.109,0.184h3.157L161.602,118.264L161.602,118.264z"/>
	</g>
</g>
<g>
	<g>
		<path fill="#F2F2F2" d="M7.606,153h84.788c4.185,0,7.605-3.422,7.605-7.605v-47.79c0-4.183-3.422-7.604-7.605-7.604H7.606
			C3.423,89.999,0,93.422,0,97.604v47.79C0,149.579,3.423,153,7.606,153z"/>
		<path fill="#C4C4C4" d="M92.394,153H7.606C3.423,153,0,149.579,0,145.395v3.699c0,4.184,3.423,7.605,7.605,7.605h84.788
			c4.185,0,7.605-3.423,7.605-7.605v-3.699C100,149.579,96.578,153,92.394,153z"/>
	</g>
	<g>
		<polygon fill="#ED2224" points="76.671,123.512 83.601,116.583 69.743,116.583 		"/>
		<polygon fill="#ED2224" points="76.671,123.512 83.601,130.441 69.743,130.441 		"/>
		<polygon fill="#FFFFFF" points="76.671,123.512 69.743,116.583 69.743,130.441 		"/>
		<polygon fill="#FFFFFF" points="76.671,123.512 83.601,116.583 83.601,130.441 		"/>
		<polygon fill="#ED2224" points="90.529,123.512 83.601,116.583 83.601,130.441 		"/>
		<polygon fill="#ED2224" points="62.814,123.512 69.743,116.583 69.743,130.441 		"/>
		<path fill="#010101" d="M13.619,123.086h6.224v-3.832c0-0.685-0.044-1.135-0.128-1.353c-0.067-0.164-0.206-0.308-0.415-0.424
			c-0.283-0.158-0.583-0.235-0.9-0.235h-0.472v-0.367h5.728v0.367H23.18c-0.313,0-0.614,0.071-0.896,0.225
			c-0.213,0.105-0.354,0.268-0.432,0.48c-0.074,0.215-0.11,0.649-0.11,1.307v8.646c0,0.676,0.039,1.125,0.128,1.342
			c0.063,0.164,0.198,0.307,0.404,0.422c0.29,0.16,0.594,0.24,0.907,0.24h0.477v0.365h-5.729v-0.365h0.472
			c0.546,0,0.948-0.162,1.197-0.484c0.166-0.209,0.247-0.717,0.247-1.52v-4.081h-6.224v4.081c0,0.676,0.043,1.125,0.128,1.342
			c0.067,0.164,0.206,0.307,0.418,0.422c0.283,0.16,0.58,0.24,0.896,0.24h0.486v0.365h-5.74v-0.365h0.472
			c0.554,0,0.955-0.162,1.207-0.484c0.155-0.209,0.236-0.717,0.236-1.52v-8.646c0-0.684-0.044-1.135-0.128-1.352
			c-0.067-0.164-0.202-0.308-0.404-0.424c-0.29-0.158-0.593-0.234-0.909-0.234H9.809v-0.369h5.738v0.369h-0.486
			c-0.316,0-0.614,0.07-0.896,0.225c-0.206,0.104-0.349,0.267-0.425,0.479c-0.081,0.217-0.122,0.65-0.122,1.309L13.619,123.086
			L13.619,123.086z"/>
		<path fill="#010101" d="M32.45,116.569v4.635h-0.364c-0.122-0.892-0.334-1.599-0.638-2.125c-0.308-0.527-0.745-0.947-1.313-1.254
			c-0.566-0.311-1.15-0.465-1.757-0.465c-0.685,0-1.25,0.208-1.698,0.627c-0.449,0.42-0.671,0.893-0.671,1.426
			c0,0.407,0.142,0.782,0.425,1.116c0.408,0.495,1.378,1.151,2.913,1.976c1.25,0.67,2.106,1.187,2.563,1.549
			c0.459,0.357,0.813,0.781,1.058,1.268c0.246,0.488,0.372,0.998,0.372,1.531c0,1.014-0.395,1.887-1.18,2.621
			c-0.789,0.736-1.801,1.104-3.038,1.104c-0.391,0-0.755-0.029-1.1-0.092c-0.202-0.031-0.626-0.152-1.268-0.357
			c-0.64-0.209-1.048-0.313-1.221-0.313c-0.165,0-0.293,0.049-0.392,0.148c-0.094,0.096-0.166,0.303-0.212,0.613h-0.364v-4.593
			h0.364c0.171,0.959,0.404,1.679,0.694,2.158c0.29,0.476,0.731,0.873,1.329,1.188c0.593,0.313,1.247,0.471,1.958,0.471
			c0.822,0,1.473-0.215,1.951-0.647c0.476-0.437,0.715-0.948,0.715-1.543c0-0.329-0.091-0.659-0.27-0.997
			c-0.183-0.337-0.466-0.646-0.847-0.938c-0.256-0.198-0.958-0.616-2.104-1.26c-1.146-0.643-1.959-1.153-2.443-1.537
			c-0.486-0.383-0.851-0.805-1.104-1.262c-0.25-0.464-0.374-0.973-0.374-1.525c0-0.961,0.368-1.785,1.105-2.48
			c0.738-0.693,1.677-1.043,2.815-1.043c0.711,0,1.468,0.174,2.263,0.523c0.366,0.166,0.63,0.246,0.777,0.246
			c0.172,0,0.313-0.051,0.421-0.149c0.108-0.106,0.196-0.313,0.265-0.62H32.45L32.45,116.569z"/>
		<path fill="#010101" d="M42.874,123.436c0.93,0.195,1.625,0.512,2.086,0.947c0.638,0.607,0.958,1.344,0.958,2.221
			c0,0.666-0.212,1.303-0.633,1.912c-0.422,0.611-0.998,1.051-1.733,1.332c-0.735,0.279-1.854,0.422-3.361,0.422h-6.32v-0.365h0.502
			c0.559,0,0.96-0.178,1.204-0.533c0.15-0.231,0.229-0.721,0.229-1.471v-8.654c0-0.832-0.094-1.353-0.286-1.568
			c-0.256-0.291-0.641-0.434-1.146-0.434h-0.502v-0.369h5.784c1.083,0,1.949,0.08,2.6,0.24c0.988,0.234,1.743,0.651,2.262,1.256
			c0.52,0.604,0.779,1.295,0.779,2.08c0,0.672-0.203,1.271-0.61,1.805C44.276,122.784,43.672,123.174,42.874,123.436L42.874,123.436
			z M37.698,122.898c0.245,0.048,0.521,0.081,0.836,0.104c0.313,0.023,0.657,0.033,1.031,0.033c0.961,0,1.687-0.102,2.168-0.311
			c0.484-0.205,0.855-0.525,1.112-0.953c0.255-0.428,0.384-0.895,0.384-1.402c0-0.783-0.318-1.449-0.958-2.004
			c-0.64-0.552-1.57-0.828-2.795-0.828c-0.661,0-1.251,0.07-1.78,0.217v5.144H37.698z M37.698,129.301
			c0.765,0.18,1.52,0.266,2.263,0.266c1.192,0,2.1-0.268,2.727-0.805c0.624-0.535,0.938-1.199,0.938-1.988
			c0-0.52-0.143-1.021-0.425-1.5c-0.283-0.482-0.745-0.861-1.383-1.139c-0.637-0.275-1.429-0.414-2.369-0.414
			c-0.409,0-0.76,0.008-1.05,0.02s-0.521,0.035-0.7,0.068V129.301L37.698,129.301z"/>
		<path fill="#010101" d="M58.306,116.569l0.307,4.553h-0.307c-0.407-1.361-0.991-2.344-1.747-2.943
			c-0.758-0.6-1.665-0.898-2.727-0.898c-0.891,0-1.692,0.227-2.411,0.678c-0.718,0.451-1.28,1.17-1.691,2.156
			c-0.413,0.988-0.618,2.219-0.618,3.686c0,1.211,0.192,2.265,0.583,3.152c0.389,0.889,0.972,1.568,1.753,2.043
			c0.78,0.478,1.67,0.713,2.671,0.713c0.869,0,1.635-0.186,2.303-0.561c0.664-0.369,1.396-1.109,2.19-2.213l0.307,0.193
			c-0.67,1.192-1.456,2.065-2.351,2.619c-0.896,0.553-1.958,0.83-3.191,0.83c-2.219,0-3.938-0.822-5.156-2.474
			c-0.906-1.224-1.361-2.666-1.361-4.325c0-1.334,0.3-2.564,0.897-3.686c0.6-1.119,1.426-1.984,2.475-2.602
			c1.053-0.615,2.198-0.923,3.442-0.923c0.968,0,1.924,0.237,2.865,0.71c0.276,0.145,0.476,0.219,0.594,0.219
			c0.175,0,0.33-0.063,0.461-0.188c0.171-0.175,0.293-0.423,0.367-0.739H58.306L58.306,116.569z"/>
		<rect x="8.999" y="115.12" fill="none" width="82.001" height="16.459"/>
	</g>
</g>
<g>
	<g>
		<path fill="#E72B2B" d="M424.206,152.999h84.789c4.185,0,7.605-3.422,7.605-7.604v-47.79c0-4.182-3.422-7.605-7.605-7.605h-84.789
			c-4.182,0-7.604,3.424-7.604,7.605v47.79C416.602,149.577,420.025,152.999,424.206,152.999z"/>
		<path fill="#BF242A" d="M508.995,152.999h-84.789c-4.182,0-7.604-3.422-7.604-7.604v3.698c0,4.185,3.424,7.607,7.604,7.607h84.789
			c4.185,0,7.605-3.424,7.605-7.607v-3.698C516.602,149.577,513.18,152.999,508.995,152.999z"/>
	</g>
	<g>
		<path fill="#FFFFFE" d="M466.045,107.743c0,4.237,7.21,8.939,7.21,13.779c0,0,0,0.465-0.201,0.966
			c6.734,1.397,11.506,4.703,11.506,8.571c0,5.205-8.508,9.475-19.048,9.512c-0.068,0.031-0.131,0-0.2,0
			c-10.439,0-18.911-4.139-18.911-9.311c0-3.869,5.168-7.006,11.405-8.672c0,2.138,7.109,8.908,7.272,11.639
			c0,0,0.032,0.236,0.032,0.506c0,0.131,0,0.264-0.032,0.396c1.536-0.797,1.536-3.299,1.536-3.299c0-5.938-6.909-8.578-6.909-14.414
			c0-2.266,1.071-3.938,2.038-4.401v1.635c0,4.231,7.474,8.976,7.474,12.841v1.268c1.73-0.666,1.73-3.836,1.73-3.836
			c0-5.336-6.936-8.303-6.936-14.409c0-2.271,1.065-3.937,2.032-4.401L466.045,107.743L466.045,107.743z"/>
	</g>
</g>
<g>
	<g>
		<path fill="#FCEE23" d="M285.34,153h84.788c4.184,0,7.604-3.422,7.604-7.604V97.605c0-4.184-3.422-7.605-7.604-7.605H285.34
			c-4.184,0-7.604,3.423-7.604,7.605v47.789C277.736,149.579,281.157,153,285.34,153z"/>
		<path fill="#BFB331" d="M370.129,153H285.34c-4.184,0-7.604-3.422-7.604-7.604v3.698c0,4.185,3.422,7.605,7.604,7.605h84.788
			c4.184,0,7.604-3.423,7.604-7.604v-3.699C377.735,149.579,374.312,153,370.129,153z"/>
	</g>
	<g>
		<path fill="#0361AA" d="M310.893,135.51l3.51-2.338l3.509,2.338l-7.019,4.679V135.51L310.893,135.51L310.893,135.51z
			 M344.573,111.187l-3.509,2.338l-3.508-2.338l7.017-4.677V111.187L344.573,111.187L344.573,111.187z M344.573,128.961
			l-16.839,11.228l-16.842-11.228l20-13.332l3.51,2.34l-16.142,10.761l9.824,6.547l4.561-3.041l-3.509-2.338l8.42-5.615
			L344.573,128.961L344.573,128.961L344.573,128.961z M310.893,117.736l16.842-11.226l16.843,11.226l-20,13.33l-3.509-2.338
			l16.14-10.76l-9.823-6.549l-4.561,3.04l3.507,2.339l-8.42,5.615L310.893,117.736L310.893,117.736L310.893,117.736z"/>
	</g>
</g>
<g>
	<g>
		<path fill="#F2F2F2" d="M701.941,153h84.787c4.184,0,7.604-3.422,7.604-7.605v-47.79c0-4.185-3.422-7.604-7.604-7.604h-84.787
			c-4.184,0-7.604,3.422-7.604,7.604v47.79C694.336,149.579,697.758,153,701.941,153z"/>
		<path fill="#C4C4C4" d="M786.729,153h-84.787c-4.184,0-7.604-3.422-7.604-7.605v3.699c0,4.184,3.422,7.605,7.604,7.605h84.787
			c4.184,0,7.605-3.423,7.605-7.605v-3.699C794.334,149.579,790.911,153,786.729,153z"/>
	</g>
	<g>
		<path fill-rule="evenodd" clip-rule="evenodd" fill="#F37421" d="M725.521,108.627l27.587-6.559
			c4.026-0.958,8.104,1.554,9.062,5.58l6.559,27.586c0.5,2.103,0.054,4.22-1.06,5.898h-42.153l-5.574-23.444
			C718.984,113.663,721.495,109.584,725.521,108.627L725.521,108.627z"/>
		<polygon fill="#FFFFFF" points="725.462,119.906 725.462,131.692 728.138,131.692 728.138,126.76 732.527,126.76 732.527,131.692 
			735.185,131.692 735.185,119.906 732.527,119.906 732.527,124.434 728.138,124.434 728.138,119.906 725.462,119.906 		"/>
		<path fill="#FFFFFF" d="M758.205,128.264c0.035-0.192,0.087-0.595,0.087-1.049c0-2.116-1.049-4.268-3.812-4.268
			c-2.973,0-4.319,2.396-4.319,4.564c0,2.676,1.661,4.354,4.563,4.354c1.154,0,2.222-0.175,3.096-0.524l-0.35-1.802
			c-0.717,0.228-1.451,0.351-2.36,0.351c-1.242,0-2.326-0.525-2.414-1.627H758.205L758.205,128.264z M752.679,126.446
			c0.07-0.717,0.525-1.731,1.645-1.731c1.224,0,1.504,1.084,1.504,1.731H752.679L752.679,126.446z"/>
		<path fill="#FFFFFF" d="M759.145,131.692h2.658v-4.337c0-0.21,0.017-0.42,0.052-0.595c0.176-0.821,0.84-1.347,1.819-1.347
			c0.297,0,0.524,0.035,0.717,0.07v-2.501c-0.192-0.035-0.314-0.035-0.56-0.035c-0.822,0-1.871,0.525-2.309,1.767h-0.07
			l-0.087-1.574h-2.291c0.035,0.735,0.07,1.557,0.07,2.815V131.692L759.145,131.692z"/>
		<path fill-rule="evenodd" clip-rule="evenodd" fill="#FFE700" d="M737.89,119.431c0.754,0,1.365,0.611,1.365,1.366
			s-0.611,1.366-1.365,1.366c-0.756,0-1.367-0.611-1.367-1.366S737.134,119.431,737.89,119.431L737.89,119.431z"/>
		<path fill-rule="evenodd" clip-rule="evenodd" fill="#FFFFFF" d="M743.503,129.7h1.334c1.339,0,1.945-0.857,1.945-1.752
			s-0.064-2.918-1.72-2.918c-1.902,0-1.594,2.511-1.586,3.826C743.479,129.137,743.495,129.418,743.503,129.7L743.503,129.7z
			 M736.523,123.128h2.732v4.819c0,0.894,0.497,1.751,1.594,1.752c0.008-2.17-0.001-4.403-0.074-6.571h2.283
			c0.051,0.418,0.096,0.836,0.137,1.256c1.078-2.157,4.478-1.683,5.622,0.139c1.181,1.881,1.583,7.267-3.979,7.267h-1.295
			c0.012,1.094,0.014,2.188,0.014,3.284h-2.732c0-1.052,0.008-2.152,0.014-3.284c-2.953-0.011-4.314-1.886-4.314-3.842V123.128
			L736.523,123.128z"/>
	</g>
</g>
<g>
	<g>
		<g>
			<g>
				<path fill="#F2F2F2" d="M701.94,63h84.789c4.184,0,7.605-3.421,7.605-7.605V7.605c0-4.185-3.422-7.605-7.605-7.605H701.94
					c-4.184,0-7.604,3.422-7.604,7.605v47.789C694.336,59.578,697.758,63,701.94,63z"/>
				<path fill="#C4C4C4" d="M786.729,63H701.94c-4.184,0-7.604-3.421-7.604-7.605v3.7c0,4.183,3.422,7.604,7.604,7.604h84.789
					c4.184,0,7.605-3.421,7.605-7.604v-3.7C794.334,59.578,790.912,63,786.729,63z"/>
			</g>
		</g>
		<path id="fundo" fill-rule="evenodd" clip-rule="evenodd" fill="#961B1E" d="M727.684,16.783c-2.611,0-7.844,0-7.844,0
			c-3.467,0.164-6.301,1.56-7.119,4.439c-0.426,1.502-0.66,3.152-0.994,4.708c-1.695,7.914-3.199,16.044-4.822,23.801h61.074
			c4.723,0,7.963-0.998,8.84-4.746c0.406-1.741,0.797-3.712,1.186-5.625c1.52-7.456,3.037-14.912,4.592-22.578H727.684z"/>
	</g>
	<path id="hipercard" fill-rule="evenodd" clip-rule="evenodd" fill="#FFFFFF" d="M727.073,28.495
		c0.328-0.227,0.75-1.256,0.268-1.684c-0.152-0.136-0.408-0.176-0.766-0.115c-0.33,0.056-0.521,0.168-0.65,0.345
		c-0.209,0.283-0.398,1.137-0.076,1.454C726.16,28.803,726.864,28.638,727.073,28.495z M722.403,26.811
		c-0.234,1.524-0.5,3.021-0.764,4.515c-1.705,0.019-3.445,0.085-5.09-0.038c0.311-1.462,0.533-3.013,0.842-4.477h-1.838
		c-0.656,3.729-1.256,7.52-1.99,11.173h1.877c0.293-1.875,0.568-3.767,0.955-5.548c1.6-0.04,3.516-0.108,5.053,0.038
		c-0.318,1.852-0.701,3.636-0.996,5.51h1.875c0.604-3.786,1.238-7.539,1.99-11.173H722.403z M748.922,30.025
		c-1.459-0.589-2.605,0.406-3.139,1.34c0.121-0.415,0.172-0.901,0.27-1.34h-1.455c-0.355,2.757-0.879,5.346-1.377,7.959h1.645
		c0.23-1.552,0.33-3.643,0.842-5.127c0.41-1.187,1.479-2.197,3.023-1.646C748.752,30.774,748.877,30.44,748.922,30.025z
		 M749.84,36.108c-0.15-0.392-0.191-1.038-0.152-1.53c0.084-1.105,0.488-2.452,1.109-3.062c0.857-0.841,2.553-0.701,3.902-0.229
		c0.043-0.455,0.135-0.861,0.191-1.301c-2.215-0.362-4.318-0.137-5.434,1.033c-1.092,1.146-1.807,3.777-1.301,5.433
		c0.592,1.938,3.246,2.044,5.396,1.302c0.094-0.39,0.145-0.824,0.229-1.225C752.608,37.141,750.362,37.457,749.84,36.108z
		 M768.323,30.063c-1.453-0.727-2.664,0.493-3.137,1.225c0.135-0.375,0.143-0.878,0.268-1.263h-1.455
		c-0.391,2.733-0.863,5.386-1.414,7.959h1.684c0.01-1.055,0.217-1.836,0.383-2.87c0.352-2.209,0.867-4.632,3.443-3.903
		C768.18,30.837,768.215,30.414,768.323,30.063z M725.389,30.025c-0.045,0.007-0.043,0.061-0.039,0.115
		c-0.363,2.711-0.854,5.295-1.377,7.844h1.645c0.396-2.73,0.848-5.402,1.416-7.959H725.389z M739.854,29.872
		c-1.189,0.092-2.195,0.435-2.908,1.187c-0.877,0.923-1.586,2.964-1.379,4.821c0.297,2.651,3.598,2.557,6.238,1.914
		c0.045-0.466,0.156-0.863,0.229-1.302c-1.086,0.407-2.975,0.976-4.094,0.269c-0.844-0.534-0.85-1.886-0.574-3.061
		c1.775-0.057,3.619-0.046,5.396,0c0.111-0.833,0.436-1.741,0.152-2.564C742.541,30.048,741.209,29.767,739.854,29.872z
		 M741.422,32.78h-3.865c0.123-0.888,0.922-1.864,2.182-1.913C740.924,30.822,741.772,31.302,741.422,32.78z M733.615,30.025
		c-1.393-0.523-3.09,0.102-3.826,0.695c0.002,0.026-0.018,0.03-0.039,0.032c0.014-0.011,0.025-0.021,0.039-0.032
		c0-0.002,0-0.004,0-0.007c0.012-0.255,0.102-0.433,0.115-0.688h-1.416c-0.59,3.926-1.291,7.741-2.029,11.517h1.646
		c0.238-1.47,0.395-3.023,0.727-4.399c0.375,1.448,2.83,1.172,3.865,0.612C734.834,36.6,736.481,31.101,733.615,30.025z
		 M732.315,36.491c-0.881,0.933-3.045,0.919-3.215-0.65c-0.074-0.682,0.18-1.398,0.307-2.104c0.127-0.715,0.219-1.4,0.344-2.028
		c0.867-1.059,3.416-1.187,3.674,0.574C733.649,33.811,733.043,35.72,732.315,36.491z M774.446,26.581
		c-0.141,1.237-0.33,2.426-0.574,3.56c-4.035-1.278-6.512,1.691-6.467,5.357c0.01,0.708,0.131,1.411,0.574,1.913
		c0.764,0.864,2.951,1.071,4.057,0.345c0.213-0.141,0.432-0.396,0.574-0.574c0.105-0.134,0.275-0.483,0.305-0.383
		c-0.057,0.389-0.145,0.748-0.152,1.187h1.492c0.289-4.125,1.178-7.65,1.838-11.404H774.446z M770.772,37.104
		c-1.107,0.024-1.658-0.661-1.684-1.797c-0.043-1.991,0.83-4.203,2.604-4.401c0.824-0.092,1.422,0.1,2.027,0.307
		C773.164,33.447,773.364,37.048,770.772,37.104z M756.574,30.025c-0.08,0.455-0.205,0.866-0.305,1.301
		c0.971-0.243,3.994-0.989,4.285,0.307c0.098,0.431-0.07,0.888-0.191,1.225c-2.734-0.259-4.963,0.195-5.549,2.143
		c-0.393,1.304,0.045,2.587,0.881,2.947c1.609,0.689,3.568-0.101,4.248-1.187c-0.07,0.376-0.139,0.755-0.115,1.225h1.416
		c0.014-1.356,0.211-2.454,0.42-3.673c0.178-1.039,0.514-2.068,0.459-2.985C762.002,29.226,758.524,29.969,756.574,30.025z
		 M759.254,36.453c-0.848,0.83-3.229,1.066-2.984-0.917c0.201-1.648,1.996-1.998,3.941-1.761
		C760.067,34.676,759.901,35.821,759.254,36.453z"/>
</g>
<g>
	<g>
		<g>
			<path fill="#F2F2F2" d="M563.073,63h84.789c4.184,0,7.605-3.421,7.605-7.605V7.604c0-4.183-3.422-7.604-7.605-7.604h-84.789
				c-4.184,0-7.605,3.422-7.605,7.604v47.79C555.468,59.578,558.892,63,563.073,63z"/>
			<path fill="#C4C4C4" d="M647.863,63h-84.789c-4.184,0-7.605-3.421-7.605-7.605v3.7c0,4.183,3.424,7.604,7.605,7.604h84.789
				c4.184,0,7.605-3.421,7.605-7.604v-3.7C655.468,59.578,652.046,63,647.863,63z"/>
		</g>
	</g>
	<g>
		<g>
			
				<path fill-rule="evenodd" clip-rule="evenodd" fill="#050013" stroke="#231F20" stroke-width="0.08" stroke-miterlimit="22.9256" d="
				M604.468,7.864c13.59,0,24.607,11.018,24.607,24.61c0,13.59-11.018,24.606-24.607,24.606s-24.607-11.016-24.607-24.606
				C579.861,18.882,590.878,7.864,604.468,7.864L604.468,7.864z"/>
			<path fill-rule="evenodd" clip-rule="evenodd" fill="#FFFFFF" d="M593.896,25.878c3.564,0,6.553,2.467,7.352,5.786l-3.049,1.333
				v-0.007l-3.119,1.37l-7.48,3.27c-0.799-1.199-1.266-2.64-1.266-4.19C586.333,29.264,589.718,25.878,593.896,25.878
				L593.896,25.878z M597.14,30.582l-7.553,3.255c-0.012-0.131-0.018-0.262-0.018-0.396c0-2.389,1.936-4.326,4.326-4.326
				C595.187,29.115,596.349,29.682,597.14,30.582L597.14,30.582z"/>
			<path fill-rule="evenodd" clip-rule="evenodd" fill="#FFFFFF" d="M599.179,38.85c-2.707,2.568-6.289,2.821-9.438,0.91
				l1.779-2.703c1.791,1.07,3.59,0.896,5.396-0.522L599.179,38.85L599.179,38.85z"/>
			<path fill-rule="evenodd" clip-rule="evenodd" fill="#FFFFFF" d="M602.259,36.978l-0.02-14.3h2.709v13.915
				c0,0.134,0.018,0.251,0.191,0.319l2.357,0.916l-1.063,2.761l-2.762-1.169C602.628,38.977,602.259,38.335,602.259,36.978
				L602.259,36.978z"/>
		</g>
		<g>
			<path fill-rule="evenodd" clip-rule="evenodd" fill="#009DD7" d="M612.46,36.737c-1.016-0.789-1.67-2.021-1.67-3.408
				c0-1.231,0.518-2.343,1.346-3.129l-1.75-2.836c-1.76,1.395-2.889,3.547-2.889,5.965c0,2.606,1.311,4.906,3.309,6.277
				L612.46,36.737z"/>
			<path fill-rule="evenodd" clip-rule="evenodd" fill="#FFF200" d="M613.646,29.268c0.457-0.164,0.947-0.254,1.461-0.254
				c1.848,0,3.424,1.161,4.039,2.795l3.352-0.28c-0.809-3.333-3.811-5.808-7.391-5.808c-1.012,0-1.979,0.199-2.861,0.558
				L613.646,29.268z"/>
			<path fill-rule="evenodd" clip-rule="evenodd" fill="#E33206" d="M619.417,33.54c-0.109,2.286-1.998,4.106-4.311,4.106
				c-0.363,0-0.715-0.046-1.051-0.13l-1.316,3.045c0.746,0.243,1.539,0.377,2.367,0.377c4.096,0,7.436-3.239,7.6-7.295
				L619.417,33.54z"/>
		</g>
	</g>
</g>
<g>
	<g>
		<path fill="#F2F2F2" d="M563.073,153h84.787c4.184,0,7.604-3.422,7.604-7.605v-47.79c0-4.185-3.422-7.604-7.604-7.604h-84.787
			c-4.184,0-7.604,3.422-7.604,7.604v47.79C555.469,149.579,558.891,153,563.073,153z"/>
		<path fill="#C4C4C4" d="M647.862,153h-84.787c-4.184,0-7.604-3.422-7.604-7.605v3.699c0,4.184,3.422,7.605,7.604,7.605h84.787
			c4.184,0,7.605-3.423,7.605-7.605v-3.699C655.467,149.579,652.044,153,647.862,153z"/>
	</g>
	<g>
		<g>
			<path d="M581.841,144.314c-0.684,0-1.365-0.021-2.043-0.063s-1.383-0.141-2.114-0.297v-12.096
				c0.575-0.108,1.206-0.189,1.89-0.243s1.32-0.081,1.908-0.081c0.792,0,1.521,0.058,2.187,0.171
				c0.666,0.114,1.239,0.31,1.719,0.585c0.48,0.276,0.855,0.64,1.125,1.089c0.271,0.45,0.405,1.006,0.405,1.665
				c0,0.997-0.479,1.782-1.439,2.358c0.792,0.3,1.332,0.708,1.619,1.224c0.288,0.517,0.433,1.099,0.433,1.746
				c0,1.309-0.478,2.292-1.431,2.952C585.145,143.984,583.725,144.314,581.841,144.314z M580.419,136.574h1.368
				c0.864,0,1.482-0.11,1.854-0.333c0.371-0.222,0.558-0.579,0.558-1.071c0-0.504-0.192-0.857-0.576-1.062s-0.948-0.306-1.691-0.306
				c-0.24,0-0.499,0.003-0.774,0.009c-0.276,0.006-0.522,0.021-0.738,0.045V136.574z M580.419,138.716v3.222
				c0.204,0.024,0.426,0.042,0.666,0.054c0.24,0.013,0.504,0.019,0.792,0.019c0.84,0,1.519-0.12,2.034-0.36s0.774-0.684,0.774-1.332
				c0-0.576-0.217-0.987-0.648-1.233c-0.432-0.245-1.05-0.368-1.854-0.368H580.419z"/>
			<path d="M598.455,139.4c0,0.744-0.108,1.425-0.324,2.043s-0.528,1.146-0.936,1.584c-0.408,0.438-0.897,0.777-1.468,1.017
				c-0.569,0.24-1.209,0.36-1.917,0.36c-0.695,0-1.329-0.12-1.898-0.36c-0.57-0.239-1.06-0.578-1.467-1.017
				c-0.408-0.438-0.727-0.966-0.954-1.584c-0.229-0.618-0.343-1.299-0.343-2.043s0.117-1.422,0.352-2.034
				c0.233-0.612,0.558-1.134,0.972-1.565c0.414-0.433,0.906-0.769,1.477-1.009c0.569-0.239,1.19-0.359,1.862-0.359
				c0.685,0,1.312,0.12,1.881,0.359c0.57,0.24,1.06,0.576,1.468,1.009c0.407,0.432,0.726,0.953,0.954,1.565
				C598.341,137.978,598.455,138.656,598.455,139.4z M595.719,139.4c0-0.828-0.165-1.479-0.495-1.953
				c-0.33-0.474-0.801-0.711-1.413-0.711c-0.611,0-1.086,0.237-1.422,0.711c-0.336,0.475-0.504,1.125-0.504,1.953
				s0.168,1.485,0.504,1.971c0.336,0.486,0.811,0.729,1.422,0.729c0.612,0,1.083-0.243,1.413-0.729
				C595.554,140.885,595.719,140.228,595.719,139.4z"/>
			<path d="M604.305,144.332c-0.78-0.012-1.413-0.096-1.899-0.252c-0.485-0.155-0.87-0.375-1.151-0.656
				c-0.282-0.282-0.475-0.624-0.576-1.026c-0.103-0.402-0.153-0.855-0.153-1.359v-10.422l2.683-0.432v10.313
				c0,0.24,0.018,0.456,0.054,0.648s0.104,0.354,0.207,0.486c0.102,0.132,0.249,0.239,0.44,0.323
				c0.192,0.084,0.45,0.139,0.774,0.162L604.305,144.332z"/>
			<path d="M605.762,139.49c0-0.84,0.129-1.575,0.388-2.205c0.258-0.63,0.597-1.154,1.017-1.575c0.42-0.42,0.903-0.737,1.449-0.954
				c0.546-0.216,1.106-0.323,1.683-0.323c1.344,0,2.406,0.411,3.187,1.232c0.779,0.822,1.17,2.031,1.17,3.627
				c0,0.156-0.006,0.327-0.019,0.514c-0.012,0.186-0.023,0.351-0.035,0.495h-6.084c0.06,0.552,0.317,0.989,0.773,1.313
				s1.068,0.486,1.836,0.486c0.492,0,0.975-0.045,1.449-0.135c0.474-0.091,0.861-0.201,1.161-0.333l0.359,2.178
				c-0.144,0.072-0.336,0.144-0.575,0.216c-0.24,0.072-0.508,0.135-0.802,0.189c-0.294,0.054-0.608,0.099-0.944,0.135
				s-0.673,0.054-1.008,0.054c-0.853,0-1.594-0.126-2.224-0.378s-1.151-0.597-1.565-1.035c-0.414-0.438-0.721-0.957-0.918-1.557
				C605.862,140.833,605.762,140.186,605.762,139.49z M612.063,138.463c-0.013-0.228-0.052-0.449-0.117-0.665
				c-0.066-0.217-0.168-0.408-0.307-0.576c-0.138-0.168-0.312-0.307-0.521-0.414c-0.21-0.108-0.471-0.162-0.783-0.162
				c-0.3,0-0.558,0.051-0.773,0.153c-0.217,0.102-0.396,0.236-0.54,0.404c-0.145,0.168-0.256,0.363-0.333,0.585
				c-0.078,0.223-0.136,0.447-0.171,0.675H612.063z"/>
			<path d="M616.634,132.326l2.682-0.432v2.79h3.223v2.231h-3.223v3.33c0,0.564,0.1,1.015,0.298,1.351
				c0.197,0.336,0.597,0.504,1.196,0.504c0.288,0,0.585-0.027,0.892-0.081c0.306-0.054,0.585-0.129,0.837-0.226l0.378,2.089
				c-0.324,0.132-0.685,0.246-1.08,0.342c-0.396,0.096-0.882,0.144-1.458,0.144c-0.732,0-1.338-0.099-1.818-0.297
				c-0.479-0.198-0.863-0.474-1.151-0.828c-0.288-0.354-0.489-0.783-0.604-1.287s-0.171-1.062-0.171-1.674V132.326z"/>
			<path d="M633.213,139.4c0,0.744-0.108,1.425-0.324,2.043s-0.528,1.146-0.936,1.584c-0.408,0.438-0.897,0.777-1.468,1.017
				c-0.569,0.24-1.209,0.36-1.917,0.36c-0.695,0-1.329-0.12-1.898-0.36c-0.57-0.239-1.06-0.578-1.467-1.017
				c-0.408-0.438-0.727-0.966-0.954-1.584c-0.229-0.618-0.343-1.299-0.343-2.043s0.117-1.422,0.352-2.034
				c0.233-0.612,0.558-1.134,0.972-1.565c0.414-0.433,0.906-0.769,1.477-1.009c0.569-0.239,1.19-0.359,1.862-0.359
				c0.685,0,1.312,0.12,1.881,0.359c0.57,0.24,1.06,0.576,1.468,1.009c0.407,0.432,0.726,0.953,0.954,1.565
				C633.099,137.978,633.213,138.656,633.213,139.4z M630.477,139.4c0-0.828-0.165-1.479-0.495-1.953
				c-0.33-0.474-0.801-0.711-1.413-0.711c-0.611,0-1.086,0.237-1.422,0.711c-0.336,0.475-0.504,1.125-0.504,1.953
				s0.168,1.485,0.504,1.971c0.336,0.486,0.811,0.729,1.422,0.729c0.612,0,1.083-0.243,1.413-0.729
				C630.312,140.885,630.477,140.228,630.477,139.4z"/>
		</g>
		<line fill="none" stroke="#000000" stroke-miterlimit="10" x1="578.33" y1="129.013" x2="578.33" y2="101.865"/>
		<line fill="none" stroke="#000000" stroke-miterlimit="10" x1="580.33" y1="129.013" x2="580.33" y2="101.865"/>
		<line fill="none" stroke="#000000" stroke-miterlimit="10" x1="582.33" y1="129.013" x2="582.33" y2="101.865"/>
		<line fill="none" stroke="#000000" stroke-miterlimit="10" x1="584.33" y1="129.013" x2="584.33" y2="101.865"/>
		<line fill="none" stroke="#000000" stroke-miterlimit="10" x1="586.33" y1="129.013" x2="586.33" y2="101.865"/>
		
			<line fill="none" stroke="#000000" stroke-width="1.0199" stroke-miterlimit="10" x1="588.33" y1="133.1" x2="588.33" y2="101.865"/>
		
			<line fill="none" stroke="#000000" stroke-width="1.0261" stroke-miterlimit="10" x1="590.33" y1="133.1" x2="590.33" y2="101.865"/>
		
			<line fill="none" stroke="#000000" stroke-width="1.0726" stroke-miterlimit="10" x1="592.33" y1="133.1" x2="592.33" y2="101.865"/>
		
			<line fill="none" stroke="#000000" stroke-width="1.0726" stroke-miterlimit="10" x1="594.33" y1="133.1" x2="594.33" y2="101.865"/>
		
			<line fill="none" stroke="#000000" stroke-width="1.0726" stroke-miterlimit="10" x1="596.33" y1="133.1" x2="596.33" y2="101.865"/>
		
			<line fill="none" stroke="#000000" stroke-width="1.0726" stroke-miterlimit="10" x1="598.33" y1="133.1" x2="598.33" y2="101.865"/>
		<line fill="none" stroke="#000000" stroke-miterlimit="10" x1="600.33" y1="129.013" x2="600.33" y2="101.865"/>
		<line fill="none" stroke="#000000" stroke-miterlimit="10" x1="602.33" y1="129.013" x2="602.33" y2="101.865"/>
		<line fill="none" stroke="#000000" stroke-miterlimit="10" x1="604.33" y1="129.013" x2="604.33" y2="101.865"/>
		
			<line fill="none" stroke="#000000" stroke-width="1.0726" stroke-miterlimit="10" x1="606.33" y1="133.1" x2="606.33" y2="101.865"/>
		
			<line fill="none" stroke="#000000" stroke-width="1.0726" stroke-miterlimit="10" x1="608.33" y1="133.1" x2="608.33" y2="101.865"/>
		
			<line fill="none" stroke="#000000" stroke-width="1.0726" stroke-miterlimit="10" x1="610.33" y1="133.1" x2="610.33" y2="101.865"/>
		
			<line fill="none" stroke="#000000" stroke-width="1.0726" stroke-miterlimit="10" x1="612.33" y1="133.1" x2="612.33" y2="101.865"/>
		
			<line fill="none" stroke="#000000" stroke-width="1.0726" stroke-miterlimit="10" x1="614.33" y1="133.1" x2="614.33" y2="101.865"/>
		<line fill="none" stroke="#000000" stroke-miterlimit="10" x1="616.33" y1="129.013" x2="616.33" y2="101.865"/>
		<line fill="none" stroke="#000000" stroke-miterlimit="10" x1="618.33" y1="129.013" x2="618.33" y2="101.865"/>
		<line fill="none" stroke="#000000" stroke-miterlimit="10" x1="620.33" y1="129.013" x2="620.33" y2="101.865"/>
		
			<line fill="none" stroke="#000000" stroke-width="1.0726" stroke-miterlimit="10" x1="622.33" y1="133.1" x2="622.33" y2="101.865"/>
		
			<line fill="none" stroke="#000000" stroke-width="1.0726" stroke-miterlimit="10" x1="624.33" y1="133.1" x2="624.33" y2="101.865"/>
		
			<line fill="none" stroke="#000000" stroke-width="1.0726" stroke-miterlimit="10" x1="626.33" y1="133.1" x2="626.33" y2="101.865"/>
		
			<line fill="none" stroke="#000000" stroke-width="1.0726" stroke-miterlimit="10" x1="628.33" y1="133.1" x2="628.33" y2="101.865"/>
		
			<line fill="none" stroke="#000000" stroke-width="1.0726" stroke-miterlimit="10" x1="630.33" y1="133.1" x2="630.33" y2="101.865"/>
		
			<line fill="none" stroke="#000000" stroke-width="1.0726" stroke-miterlimit="10" x1="632.33" y1="133.1" x2="632.33" y2="101.865"/>
	</g>
</g>
</svg>
