<?xml version="1.0" encoding="utf-8"?>
<!-- Generator: Adobe Illustrator 16.0.0, SVG Export Plug-In . SVG Version: 6.00 Build 0)  -->
<!DOCTYPE svg PUBLIC "-//W3C//DTD SVG 1.1//EN" "http://www.w3.org/Graphics/SVG/1.1/DTD/svg11.dtd">
<svg version="1.1" id="Layer_1" xmlns="http://www.w3.org/2000/svg" xmlns:xlink="http://www.w3.org/1999/xlink" x="0px" y="0px"
	 width="377.742px" height="336.7px" viewBox="0 0 377.742 336.7" enable-background="new 0 0 377.742 336.7" xml:space="preserve">
<g>
	<g>
		<path fill="#F2F2F2" d="M146.473,63h84.789c4.183,0,7.605-3.423,7.605-7.605V7.605c0-4.184-3.423-7.605-7.605-7.605h-84.789
			c-4.183,0-7.605,3.422-7.605,7.605v47.789C138.867,59.577,142.29,63,146.473,63z"/>
		<path fill="#C4C4C4" d="M231.261,63h-84.789c-4.183,0-7.605-3.423-7.605-7.605v3.699c0,4.184,3.423,7.605,7.605,7.605h84.789
			c4.183,0,7.605-3.422,7.605-7.605v-3.699C238.867,59.577,235.444,63,231.261,63z"/>
	</g>
	<g>
		<path fill="#263C82" d="M179.395,21.802l-9.412,23.03h-6.338l-6.102-23.03h4.024c0,0,2.526-0.146,2.977,2.456
			c0.4,2.322,2.602,13.338,2.602,13.338l5.865-15.794H179.395z"/>
		<path fill="#F89A1C" d="M166.481,34.258c-0.682-3.441-1.68-8.511-1.938-10c-0.382-2.214-2.268-2.438-2.821-2.456h-0.155h-4.024
			h-5.463v0.558C164.034,25.339,166.48,34.257,166.481,34.258z"/>
		<polygon fill="#263C82" points="181.701,21.802 178.012,44.832 183.936,44.832 187.661,21.801 		"/>
		<path fill="#263C82" d="M187.661,43.945l0.887-5.18c0,0,2.625,1.632,5.569,1.632c0,0,2.589,0.189,3.653-0.839
			c1.064-1.029,0.674-2.011,0.674-2.011s-0.283-0.934-1.892-1.69c-1.608-0.757-4.671-1.998-5.913-4.659
			c-1.242-2.66,0.461-5.616,0.461-5.616s1.466-2.507,4.446-3.43c2.979-0.922,6.385-0.614,6.385-0.614s1.987,0.213,3.595,0.852
			l-0.779,5.037c0,0-1.939-1.254-4.919-1.254c-2.98,0-3.571,1.727-3.571,1.727s-0.384,1.053,0.875,1.798
			c1.169,0.691,3.902,2.081,3.902,2.081s3.617,1.632,3.666,5.486c0.048,3.854-3.146,5.936-3.146,5.936s-2.412,2.011-7.615,2.011
			C190.014,45.211,187.661,43.945,187.661,43.945z"/>
		<path fill="#263C82" d="M220.829,21.802c0,0-2.785,0-4.877,0c-2.094,0-2.644,1.516-2.644,1.516l-9.028,21.515h6.297l1.206-3.494
			h7.592l0.745,3.494h5.533L220.829,21.802z M213.38,36.727l3.264-8.815l1.844,8.815H213.38z"/>
	</g>
</g>
<g>
	<path fill="#F2F2F2" d="M285.339,63h84.79c4.184,0,7.604-3.423,7.604-7.605V7.605c0-4.184-3.422-7.605-7.604-7.605h-84.79
		c-4.184,0-7.605,3.422-7.605,7.605v47.789C277.733,59.577,281.156,63,285.339,63z"/>
	<path fill="#C4C4C4" d="M370.129,63h-84.79c-4.184,0-7.605-3.423-7.605-7.605v3.699c0,4.184,3.423,7.605,7.605,7.605h84.79
		c4.184,0,7.604-3.422,7.604-7.605v-3.699C377.734,59.577,374.313,63,370.129,63z"/>
	<g>
		<circle fill="#FAA840" cx="343.414" cy="31.566" r="23.404"/>
		<path fill="#EF3832" d="M335.413,33.027c0.027-0.462,0.043-0.926,0.043-1.395c0-0.021,0-0.043,0-0.064l-0.051-1.459
			c-0.03-0.49-0.076-0.977-0.137-1.459h-15.072c0.063-0.491,0.14-0.978,0.229-1.459h14.607c-0.096-0.491-0.203-0.979-0.328-1.458
			H320.75c0.126-0.493,0.271-0.979,0.428-1.459h13.098c-0.164-0.494-0.344-0.98-0.539-1.459h-12.024
			c0.198-0.495,0.415-0.981,0.646-1.459h10.728c-0.242-0.497-0.503-0.983-0.779-1.459h-9.174c0.287-0.498,0.593-0.984,0.914-1.459
			h7.34c-0.345-0.501-0.705-0.987-1.084-1.459h-5.18c0.401-0.504,0.824-0.99,1.267-1.459h2.64c-4.265-4.49-10.292-7.29-16.974-7.29
			c-12.926,0-23.403,10.478-23.403,23.402c0,12.926,10.479,23.402,23.403,23.402c6.051,0,11.566-2.297,15.722-6.066
			c-0.479-0.432-0.944-0.883-1.388-1.354h2.759c0.439-0.469,0.859-0.955,1.258-1.458h-5.282c-0.377-0.472-0.735-0.958-1.076-1.459
			h7.428c0.32-0.474,0.623-0.961,0.908-1.459h-9.25c-0.273-0.476-0.531-0.962-0.773-1.459h10.791
			c0.23-0.478,0.443-0.964,0.641-1.458h-12.077c-0.193-0.479-0.371-0.966-0.533-1.459h13.139c0.156-0.48,0.299-0.967,0.424-1.459
			h-5.09c-0.123-0.48-0.229-0.968-0.322-1.459h5.73c0.09-0.482,0.166-0.969,0.225-1.459h-5.268v-1.459L335.413,33.027
			L335.413,33.027z M322.721,34.486h-2.523c-0.06-0.481-0.104-0.969-0.134-1.459h2.657V34.486z"/>
		<polygon fill="#FFFFFF" points="290.913,37.478 292.737,27.094 296.491,27.094 296.841,33.065 299.378,27.094 303.345,27.094 
			301.49,37.478 299.271,37.478 300.608,29.859 297.402,37.478 294.88,37.478 294.454,29.753 293.132,37.478 		"/>
		<path fill="#FFFFFF" d="M309.793,29.606c-0.934-0.669-1.683-0.68-1.683-0.68h-2.239c0,0-0.628,0.041-1.073,0.152
			c-0.445,0.111-0.566,0.264-0.566,0.264l-0.558,1.996c0,0,1.013-0.567,2.999-0.567c1.984,0,1.307,1.276,1.307,1.276h-1.429
			c0,0-1.643-0.102-2.807,0.709c-1.166,0.811-1.276,2.319-1.276,2.319s-0.242,2.554,2.351,2.554c0,0,1.632,0.081,2.594-0.933
			l-0.142,0.78h2.076l1.186-6.22C310.531,31.258,310.726,30.274,309.793,29.606z M307.614,34.61c0,0-0.264,1.196-1.862,1.196
			c0,0-0.871,0.04-0.871-0.791c0-0.83,0.871-1.235,0.871-1.235s0.688-0.345,1.538-0.345c0,0,0.567,0,0.537,0.172L307.614,34.61z"/>
		<path fill="#FFFFFF" d="M317.06,29.031l-0.402,1.823c0,0-1.025-0.145-1.497-0.145s-1.321-0.007-1.626,0.563
			c0,0-0.502,0.585,1.041,1.117c0,0,2.066,0.372,1.998,2.052c-0.067,1.679-0.736,2.219-0.736,2.219s-0.835,0.889-3.115,0.889
			c-2.279,0-2.767-0.41-2.767-0.41l0.396-1.809c0,0,1.185,0.402,2.37,0.402c1.185,0,1.261-0.623,1.261-0.623
			s0.138-0.691-0.379-0.873c-0.518-0.183-2.805-0.859-2.668-2.492c0.137-1.634,0.844-2.181,0.844-2.181s0.859-0.783,3.102-0.692
			C314.879,28.871,316.329,28.927,317.06,29.031z"/>
		<path fill="#FFFFFF" d="M318.494,27.094l-1.58,8.955c0,0-0.223,1.429,1.357,1.429h1.418c0,0,0.771-0.071,1.064-0.396l0.242-1.438
			c0,0-0.345,0.121-1.095,0.121c-0.749,0-0.668-0.477-0.668-0.477l0.779-4.538c0,0,0.062,0.111,0.346,0.111c0.283,0,1.034,0,1.034,0
			l0.324-1.854h-1.35l0.354-1.915h-2.228V27.094z"/>
		<path fill="#FFFFFF" d="M325.493,28.871c0,0-3.001-0.25-4.103,2.743c-1.104,2.993,0.646,4.719,0.646,4.719
			s0.866,1.178,3.519,1.178c0,0,1.422,0.068,2.401-0.479l0.337-2.013c0,0-0.898,0.698-2.357,0.698c0,0-2.675,0.13-2.484-1.898h5.09
			c0,0,0.189-1.437,0.236-1.885C328.822,31.485,328.807,28.871,325.493,28.871z M326.618,32.215h-2.895c0,0,0.235-1.58,1.527-1.58
			C326.718,30.635,326.618,32.215,326.618,32.215z"/>
		<path fill="#FFFFFF" d="M328.436,37.478l1.488-8.459h2.301l-0.254,1.327c0,0,0.912-1.408,1.904-1.408h0.922
			c0,0-0.668,0.892-0.892,2.259c0,0-0.709-0.182-1.51,0.229c-0.801,0.411-0.963,1.858-0.963,1.858l-0.629,4.194H328.436z"/>
		<path fill="#FFFFFF" d="M341.307,34.737l-0.318,2.128c0,0-0.533,0.648-2.463,0.648s-2.766-0.785-2.766-0.785
			s-2.781-1.869-1.142-6.413c1.644-4.544,6.476-3.465,6.476-3.465s0.813,0.183,1.512,0.509l-0.363,2.211c0,0-0.959-0.6-2.371-0.6
			c-1.414,0-2.082,0.774-2.082,0.774s-1.088,1.284-1.141,3.199s1.559,2.279,1.559,2.279S340.016,35.778,341.307,34.737z"/>
		<path fill="#FFFFFF" d="M348.9,29.606c-0.932-0.669-1.682-0.68-1.682-0.68h-2.24c0,0-0.627,0.041-1.074,0.152
			c-0.444,0.111-0.565,0.264-0.565,0.264l-0.558,1.996c0,0,1.013-0.567,2.998-0.567c1.986,0,1.308,1.276,1.308,1.276h-1.429
			c0,0-1.641-0.102-2.807,0.709s-1.277,2.319-1.277,2.319s-0.242,2.554,2.353,2.554c0,0,1.631,0.081,2.594-0.933l-0.144,0.78h2.078
			l1.185-6.22C349.639,31.258,349.831,30.274,348.9,29.606z M346.723,34.61c0,0-0.264,1.196-1.865,1.196c0,0-0.871,0.04-0.871-0.791
			c0-0.83,0.871-1.235,0.871-1.235s0.689-0.345,1.541-0.345c0,0,0.566,0,0.535,0.172L346.723,34.61z"/>
		<path fill="#FFFFFF" d="M349.264,37.46l1.49-8.459h2.301l-0.254,1.327c0,0,0.881-1.408,2.098-1.408h0.486
			c0,0-0.244,0.706-0.467,2.074c0,0-0.912-0.081-1.607,0.371c-0.754,0.491-1.047,1.9-1.047,1.9l-0.629,4.194L349.264,37.46
			L349.264,37.46z"/>
		<path fill="#FFFFFF" d="M361.139,27.094l-0.531,3.055c0,0-0.502-1.171-2.197-1.171c-1.692,0-2.955,1.589-2.955,1.589
			s-1.186,1.443-1.186,3.586s1.359,3.009,1.359,3.009s0.614,0.47,1.559,0.47c0.941,0,1.443-0.355,1.443-0.355s0.325-0.205,0.76-0.54
			l-0.129,0.742l2.315-0.018l1.796-10.366L361.139,27.094L361.139,27.094z M359.648,34.524c-0.623,1.103-1.633,1.109-1.633,1.109
			s-0.76,0.068-1.058-0.95c-0.348-1.197,0.373-2.78,0.373-2.78s0.523-1.049,1.55-1.049s1.2,1.216,1.2,1.216
			S360.271,33.423,359.648,34.524z"/>
	</g>
</g>
<g>
	<path fill="#F2F2F2" d="M7.605,63h84.789c4.185,0,7.605-3.423,7.605-7.605V7.605C100,3.422,96.578,0,92.395,0H7.605
		C3.423,0,0,3.422,0,7.605v47.789C0,59.577,3.423,63,7.605,63z"/>
	<path fill="#C4C4C4" d="M92.395,63H7.605C3.423,63,0,59.577,0,55.395v3.699c0,4.184,3.423,7.605,7.604,7.605h84.789
		c4.185,0,7.605-3.422,7.605-7.605v-3.699C100,59.577,96.578,63,92.395,63z"/>
	<g>
		<path fill="#263A82" d="M20.639,21.764c0,0-6.32,0-7.072,0s-0.894,0.589-0.894,0.589s-2.397,15.2-2.499,15.851
			c-0.103,0.651,0.305,0.671,0.305,0.671h3.354c0.468,0,0.468-0.548,0.468-0.548s0.568-3.537,0.752-4.431
			c0.183-0.895,0.895-0.752,0.895-0.752h3.089c5.833,0,6.057-6.687,6.057-6.687C25.465,21.885,20.639,21.764,20.639,21.764z
			 M20.7,27.107c-0.55,2.967-2.987,2.724-2.987,2.724h-1.688c-0.608,0-0.426-0.569-0.426-0.569s0.527-3.17,0.67-3.76
			c0.144-0.589,0.732-0.589,0.732-0.589h1.707C20.984,24.913,20.7,27.107,20.7,27.107z"/>
		<path fill="#263A82" d="M38.127,27.375c-0.824,0-2.592,0-2.592,0s-0.609-0.033-0.731,0.545c-0.122,0.58-0.198,0.9-0.198,0.9
			s-0.717-1.754-3.521-1.754c-2.806,0-4.253,1.54-4.253,1.54s-2.683,2.546-2.683,5.563s1.631,5.014,4.785,5.014
			c3.155,0,4.131-1.66,4.131-1.66s0.023-0.064,0.088-0.058c0.097,0.011,0.096,0.058,0.096,0.058l-0.139,0.716
			c0,0-0.112,0.595,0.442,0.595h2.713c0,0,0.854-0.062,0.977-0.885c0.121-0.822,1.463-9.815,1.463-9.815
			S38.949,27.375,38.127,27.375z M33.303,34.959c-0.935,1.157-2.568,1.232-2.568,1.232c-3.399,0-2.584-3.248-2.584-3.248
			s0.832-2.782,3.445-2.782s2.613,2.301,2.613,2.301S34.238,33.801,33.303,34.959z"/>
		<path fill="#263A82" d="M40.626,27.342h2.851c0,0,0.641-0.076,0.822,0.746c0.184,0.823,1.586,5.289,1.586,5.289
			s0.091,0.32,0.289,0.32s0.365-0.336,0.365-0.336l3.705-5.471c0,0,0.364-0.549,0.762-0.549c0.396,0,2.881,0,2.881,0
			s0.944,0.015,0.396,0.854c-0.549,0.838-9.938,14.357-9.938,14.357s-0.198,0.365-0.716,0.365c-0.52,0-2.805,0-2.805,0
			s-0.442-0.03-0.52-0.441c-0.076-0.412,0.259-0.732,0.259-0.732l2.584-3.764c0,0,0.177-0.178,0.177-0.534
			c0-0.355-3.228-9.241-3.228-9.241S39.732,27.342,40.626,27.342z"/>
		<path fill="#2398D5" d="M64.535,21.764c0,0-6.32,0-7.072,0s-0.896,0.589-0.896,0.589s-2.397,15.2-2.5,15.851
			c-0.102,0.651,0.307,0.671,0.307,0.671h3.353c0.468,0,0.468-0.548,0.468-0.548s0.569-3.537,0.752-4.431
			c0.184-0.895,0.895-0.752,0.895-0.752h3.09c5.832,0,6.056-6.687,6.056-6.687C69.361,21.885,64.535,21.764,64.535,21.764z
			 M64.596,27.107c-0.549,2.967-2.987,2.724-2.987,2.724h-1.687c-0.609,0-0.427-0.569-0.427-0.569s0.527-3.17,0.671-3.76
			c0.143-0.589,0.73-0.589,0.73-0.589h1.707C64.881,24.913,64.596,27.107,64.596,27.107z"/>
		<path fill="#2398D5" d="M82.021,27.375c-0.821,0-2.59,0-2.59,0s-0.61-0.033-0.731,0.545c-0.121,0.58-0.197,0.9-0.197,0.9
			s-0.717-1.754-3.521-1.754c-2.804,0-4.252,1.54-4.252,1.54s-2.684,2.546-2.684,5.563s1.631,5.014,4.787,5.014
			c3.153,0,4.13-1.66,4.13-1.66s0.022-0.064,0.089-0.058c0.094,0.011,0.094,0.058,0.094,0.058l-0.137,0.716
			c0,0-0.114,0.595,0.441,0.595h2.713c0,0,0.854-0.062,0.977-0.885c0.121-0.822,1.463-9.815,1.463-9.815
			S82.846,27.375,82.021,27.375z M77.199,34.959c-0.937,1.157-2.568,1.232-2.568,1.232c-3.4,0-2.584-3.248-2.584-3.248
			s0.832-2.782,3.445-2.782c2.612,0,2.612,2.301,2.612,2.301S78.135,33.801,77.199,34.959z"/>
		<path fill="#2398D5" d="M86.971,38.387l2.662-16.075c0,0,0.209-0.579-0.508-0.579s-2.847,0-2.847,0s-0.549-0.03-0.67,0.579
			c-0.123,0.61-2.521,15.953-2.521,15.953s-0.097,0.569,0.509,0.569c0.604,0,2.774,0,2.774,0S86.889,38.877,86.971,38.387z"/>
	</g>
</g>
<g>
	<path fill="#2075BC" d="M7.625,153h84.789c4.184,0,7.604-3.422,7.604-7.605V97.605c0-4.182-3.422-7.605-7.604-7.605H7.625
		c-4.184,0-7.605,3.424-7.605,7.605v47.789C0.02,149.578,3.442,153,7.625,153z"/>
	<path fill="#1560AB" d="M92.414,153H7.625c-4.184,0-7.605-3.422-7.605-7.605v3.699c0,4.184,3.423,7.605,7.605,7.605h84.789
		c4.184,0,7.604-3.423,7.604-7.605v-3.699C100.02,149.578,96.598,153,92.414,153z"/>
	<g>
		<path fill="#FFFFFF" d="M51.664,111.978v-0.283c0,0,0.017-1.12-1.482-1.12c-1.498,0-3.887,0-3.887,0v2.629h3.93
			C50.225,113.203,51.664,113.174,51.664,111.978z"/>
		<polygon fill="#FFFFFF" points="6.99,110.033 5.037,114.812 8.942,114.812 		"/>
		<polygon fill="#FFFFFF" points="73.383,110.125 71.447,114.817 75.318,114.817 		"/>
		<path fill="#FFFFFF" d="M0,122.317h0.002h3.015h1.647l0.631-1.521l0.465-1.121H8.3l0.416,1.07l0.611,1.571h1.688h5.669h2.466
			v-0.017l0.008,0.017h1.604h2.466h1.609h2.433h2.494h0.365h2.102h0.365h8.449h0.502h1.964h0.503h2.291h2.467v-2.465v-1.797h0.531
			v1.797v2.465h2.466h2.121h0.73h1.734h0.73h2.102h2.466v-1.06c1.108,0.654,2.436,1.021,3.932,1.06h0.033h0.031h3.757h1.664
			l0.623-1.543l0.429-1.06h2.508l0.442,1.076l0.63,1.525h1.65h0.456h2.467h0.273h2.49h1.257h1.208v-2.391l0.718,1.195l0.718,1.194
			h1.396h3.962h2.466v-2.465v-11.658v-2.467h-2.466h-2.843h-2.468v1.744l-0.33-0.55l-0.719-1.194h-1.395h-4.271h-2.467v1.521
			l-0.012-0.029l-0.644-1.491h-1.623h-4.016h-2.467H65.66c-0.038,0-0.089-0.002-0.148-0.002l0,0c-1.104,0-2.546,0.286-3.86,1.069
			v-1.069h-2.466h-2.832h-2.466v0.528c-0.694-0.289-1.512-0.479-2.468-0.522l-0.06-0.004h-0.057h-7.293h-0.503h-1.964h-0.502h-8.449
			h-0.365h-2.102h-0.365h-4.293h-1.63l-0.638,1.504l-1.183,2.772l-1.314-2.844l-0.662-1.432h-1.576h-4.557h-2.467v1.561
			l-0.028-0.068l-0.643-1.491H9.147H4.969h-1.63l-0.639,1.5L0,113.565V122.317z M60.602,114.806v-1.349
			c0.208-5.047,4.216-5.266,4.91-5.266c0.065,0,0.102,0.002,0.102,0.002h3.435v2.447c0,0-0.428,0-3.039,0
			c-2.612,0-2.578,2.936-2.578,2.936v0.908c0,2.705,1.864,2.9,2.4,2.9c0.09,0,0.143-0.006,0.143-0.006h1.439l3.922-9.187h4.194
			l4.744,11.021v-0.362v-10.658h4.271l4.91,8.151v-8.151h2.843v11.658h-3.962l-5.297-8.826v8.826h-5.688l-1.073-2.604h-5.822
			l-1.051,2.604h-3.757C60.51,119.715,60.602,114.806,60.602,114.806z M56.354,108.192h2.832v11.66h-2.832V108.192z M43.509,108.194
			h7.796c3.416,0.16,3.416,2.738,3.416,2.738v0.504c0,2.235-1.986,3.006-1.986,3.006s0.521,0.062,1.217,0.736
			c0.692,0.678,0.668,1.817,0.668,1.817v2.855h-2.853c0,0,0-0.34,0-2.422c0-1.689-1.307-1.85-1.796-1.85
			c-0.113,0-0.182,0.01-0.182,0.01h-3.486v4.262h-2.794V108.194z M32.229,108.194h9.316v2.38h-6.502v2.147h6.336v2.397h-6.336v2.312
			h6.502v2.422h-9.316V108.194z M4.969,108.194h4.179l4.762,11.07v-11.07h4.557l3.646,7.886l3.356-7.886h4.658v11.658h-2.859v-9.187
			l-4.042,9.187H20.76l-4.076-9.168v9.168h-5.669l-1.028-2.646H4.112l-1.096,2.646H0.002L4.969,108.194z"/>
		<path fill="#FFFFFF" d="M100.018,125.824H99.42h-5.745c-1.182,0-2.028,0.352-2.657,0.893v-0.893h-2.467h-5.746
			c-1.053,0-1.95,0.184-2.714,0.485v-0.476h-2.466h-9.317h-2.466v0.539c-0.701-0.297-1.53-0.492-2.502-0.537l-0.06-0.002h-0.057
			h-7.796h-2.466v0.525c-0.767-0.313-1.717-0.525-2.89-0.525H40.54h-1.073l-0.73,0.785l-1.741,1.869l-1.638-1.832l-0.733-0.822
			H33.52H22.283h-2.467v2.465v11.67v2.466h2.467h11.053h1.075l0.73-0.787l1.724-1.854l1.633,1.822l0.733,0.819h1.104h5.458h2.466
			v-2.466v-1.428h1.415c0.044,0.002,0.105,0.002,0.185,0.002c0.647,0,1.861-0.082,3.104-0.596v2.01v2.467h2.466h2.794h2.467v-2.467
			v-1.795h0.531v1.795v2.467h2.466h2.853h2.466l0,0h7.899l-0.008,0.011h2.467h5.892c0.994,0,1.822-0.158,2.512-0.401v0.401h2.467
			h5.893c1.779,0,3.036-0.509,3.894-1.097v-15.514H100.018z M54.127,131.713v0.742c0,3.439-3.521,3.623-4.27,3.623
			c-0.089,0-0.139-0.004-0.139-0.004h-3.927v3.896h-5.458l-3.438-3.837l-3.563,3.837H22.283v-11.671h11.234l3.438,3.849l3.585-3.849
			c0,0,5.424,0,9.534,0C54.184,128.299,54.127,131.713,54.127,131.713z M66.641,131.543c0,2.234-1.986,3.004-1.986,3.004
			s0.522,0.062,1.217,0.738c0.692,0.676,0.668,1.816,0.668,1.816v2.855h-2.853c0,0,0-0.34,0-2.42c0-1.691-1.307-1.851-1.796-1.851
			c-0.113,0-0.182,0.008-0.182,0.008h-3.486v4.263h-2.794v-11.658h7.796c3.416,0.16,3.416,2.738,3.416,2.738V131.543z
			 M77.625,130.679h-6.503v2.147h6.337v2.398h-6.337v2.313h6.503v2.42h-9.317v-11.658h9.317V130.679z M89.116,136.742
			c0,0,0.033,3.229-3.862,3.229c-3.896,0-5.892,0-5.892,0v-2.51h5.806c0,0,1.033-0.055,1.033-0.838v-0.441
			c0,0-0.107-0.779-0.985-0.779s-1.819,0-1.819,0s-0.057,0.002-0.155,0.002c-0.786,0-4.279-0.178-4.279-3.355v-0.573
			c0,0,0.051-3.185,3.844-3.185c3.794,0,5.746,0,5.746,0v2.482h-5.395c0,0-0.002,0-0.003,0c-0.06,0-1.235,0.012-1.235,0.873v0.4
			c0,0,0.006,0.805,1.151,0.805c1.148,0,2.164,0,2.164,0s0.063-0.004,0.175-0.004c0.756,0,3.708,0.186,3.708,3.107L89.116,136.742
			L89.116,136.742z M96.124,139.969c-3.026,0-4.899,0-5.589,0c0.646-0.918,0.896-1.862,0.989-2.51h4.514
			c0,0,1.031-0.055,1.031-0.838v-0.44c0,0-0.106-0.779-0.983-0.779c-0.879,0-1.82,0-1.82,0s-0.057,0.002-0.156,0.002
			c-0.784,0-4.278-0.178-4.278-3.354v-0.574c0,0,0.051-3.184,3.845-3.184s5.745,0,5.745,0v2.481h-5.396c0,0,0,0-0.002,0
			c-0.059,0-1.235,0.013-1.235,0.873v0.399c0,0,0.006,0.806,1.152,0.806c1.147,0,2.163,0,2.163,0s0.064-0.004,0.174-0.004
			c0.757,0,3.709,0.187,3.709,3.106v0.787C99.986,136.742,100.02,139.969,96.124,139.969z"/>
		<path fill="#FFFFFF" d="M49.691,130.687c-0.019,0-0.027,0-0.027,0h-3.883v3.024h3.996c0,0,1.394-0.012,1.394-1.553
			C51.17,130.744,49.898,130.687,49.691,130.687z"/>
		<path fill="#FFFFFF" d="M62.102,130.679c-1.498,0-3.887,0-3.887,0v2.629h3.93c0,0,1.439-0.024,1.439-1.226v-0.283
			C63.584,131.799,63.601,130.679,62.102,130.679z"/>
		<polygon fill="#FFFFFF" points="25.047,130.699 25.047,132.869 31.178,132.869 31.178,135.219 25.047,135.219 25.047,137.572 
			31.92,137.572 35.105,134.135 32.08,130.699 		"/>
		<polygon fill="#FFFFFF" points="43.029,139.01 43.029,129.535 38.668,134.135 		"/>
	</g>
</g>
<g>
	<g>
		<path fill="#F2F2F2" d="M7.607,333h84.789c4.183,0,7.605-3.422,7.605-7.605v-47.79c0-4.183-3.423-7.605-7.605-7.605H7.607
			c-4.183,0-7.605,3.423-7.605,7.605v47.79C0.001,329.579,3.424,333,7.607,333z"/>
		<path fill="#C4C4C4" d="M92.395,333H7.606C3.423,333,0,329.579,0,325.395v3.699c0,4.184,3.423,7.605,7.605,7.605h84.789
			c4.183,0,7.605-3.423,7.605-7.605v-3.699C100.001,329.579,96.577,333,92.395,333z"/>
	</g>
	<g>
		<path fill="#32367F" d="M53.36,301.973c-0.881-1.102-2.056-1.689-3.562-1.689c-1.139,0-2.276,0.551-3.378,1.579v-6.499
			l-2.497,1.358v17.259h2.497v-1.285c0.881,1.027,1.981,1.578,3.268,1.578c1.432,0,2.644-0.586,3.563-1.652
			c1.028-1.248,1.579-2.973,1.579-5.141C54.829,305.057,54.315,303.221,53.36,301.973L53.36,301.973z M46.384,304.434
			c0.918-1.176,1.873-1.727,2.938-1.727c1.983,0,2.938,1.615,2.938,4.883c0,2.791-0.918,4.223-2.828,4.223
			c-1.138,0-2.13-0.586-3.048-1.762V304.434L46.384,304.434z"/>
		<path fill="#32367F" d="M57.912,303.478c0.955-0.587,2.094-0.845,3.377-0.845c1.617,0,2.462,0.771,2.462,2.277v0.991
			c-0.735-0.329-1.69-0.514-2.864-0.514c-1.579,0-2.791,0.364-3.709,1.063c-0.991,0.772-1.468,1.838-1.468,3.27
			c0,1.543,0.477,2.68,1.468,3.525c0.809,0.696,1.8,1.026,3.012,1.026c1.359,0,2.534-0.551,3.563-1.614v1.319h2.496v-9.215
			c0-1.47-0.44-2.571-1.358-3.38c-0.844-0.733-2.02-1.102-3.524-1.102c-1.727,0-3.194,0.403-4.442,1.213L57.912,303.478
			L57.912,303.478z M63.752,308.252v1.91c-0.809,1.139-1.873,1.725-3.159,1.725c-1.652,0-2.46-0.734-2.46-2.238
			c0-1.324,0.881-1.984,2.68-1.984C61.951,307.665,62.944,307.885,63.752,308.252L63.752,308.252z"/>
		<path fill="#32367F" d="M71.463,300.542h-2.534v13.439h2.534v-7.857c0-2.276,0.882-3.416,2.644-3.416
			c1.799,0,2.681,1.213,2.681,3.672v7.603h2.57v-7.711c0-4.003-1.579-5.985-4.663-5.985c-1.469,0-2.57,0.551-3.23,1.58
			L71.463,300.542L71.463,300.542z"/>
		<polygon fill="#32367F" points="88.648,300.542 85.967,304.471 84.497,306.674 84.534,295.364 82.002,296.758 82.002,313.981 
			84.534,313.981 84.534,310.016 86.518,307.297 89.383,313.981 92.136,313.981 88.242,305.057 91.512,300.542 		"/>
		<polygon fill="#32367F" points="24.132,300.504 21.341,300.504 21.341,313.981 24.132,313.981 		"/>
		<path fill="#32367F" d="M26.629,300.504v2.533h2.35v7.602c0,1.027,0.294,1.91,0.845,2.57c0.552,0.625,1.322,0.955,2.203,0.992
			c0.991,0.037,1.836-0.222,2.46-0.625h0.037l0.037-0.037l0.587-2.388l0.037-0.185l-0.146,0.074
			c-0.771,0.478-1.396,0.697-2.056,0.697c-0.845,0-1.285-0.477-1.285-1.506v-7.197h2.827v-2.533h-2.827v-4.223l-2.681,1.469H28.98
			v2.754h-2.351V300.504z"/>
		<polygon fill="#32367F" points="40.031,300.504 37.203,300.504 37.203,313.981 40.031,313.981 		"/>
		<path fill="#32367F" d="M14.951,300.249c-1.982,0-3.636,0.623-4.957,1.836c-1.432,1.285-2.13,3.01-2.13,5.179
			c0,2.129,0.698,3.894,2.13,5.176c1.322,1.213,2.975,1.836,4.957,1.836c1.873,0,3.488-0.771,4.773-2.313l0.037-0.037l-0.037-0.036
			l-1.469-1.8l-0.073-0.071l-0.037,0.071c-0.955,1.029-2.056,1.543-3.304,1.543c-1.212,0-2.204-0.403-3.012-1.248
			c-0.771-0.809-1.175-1.836-1.175-3.12c0-1.285,0.403-2.313,1.175-3.122c0.809-0.846,1.8-1.249,3.012-1.249
			c1.248,0,2.35,0.515,3.304,1.543l0.037,0.071l0.073-0.071l1.469-1.8l0.037-0.037l-0.037-0.037
			C18.44,301.019,16.824,300.249,14.951,300.249L14.951,300.249z"/>
		<path fill="#EA3030" d="M22.736,298.264c2.167-2.276,4.812-3.415,7.896-3.415s5.729,1.139,7.857,3.415l0.073,0.037h3.158
			l-0.11-0.184c-1.248-1.764-2.864-3.158-4.847-4.188c-1.946-1.028-3.966-1.506-6.132-1.506c-2.13,0-4.187,0.478-6.132,1.506
			c-1.946,1.027-3.6,2.424-4.848,4.188l-0.109,0.184h3.157L22.736,298.264L22.736,298.264z"/>
	</g>
</g>
<g>
	<g>
		<path fill="#F2F2F2" d="M285.349,333h84.788c4.185,0,7.605-3.422,7.605-7.605v-47.791c0-4.183-3.422-7.604-7.605-7.604h-84.788
			c-4.183,0-7.605,3.423-7.605,7.604v47.791C277.743,329.58,281.166,333,285.349,333z"/>
		<path fill="#C4C4C4" d="M370.137,333h-84.788c-4.183,0-7.605-3.421-7.605-7.605v3.699c0,4.184,3.423,7.605,7.605,7.605h84.788
			c4.185,0,7.605-3.422,7.605-7.605v-3.699C377.743,329.58,374.322,333,370.137,333z"/>
	</g>
	<g>
		<polygon fill="#ED2224" points="354.414,303.512 361.344,296.583 347.487,296.583 		"/>
		<polygon fill="#ED2224" points="354.414,303.512 361.344,310.442 347.487,310.442 		"/>
		<polygon fill="#FFFFFF" points="354.414,303.512 347.487,296.583 347.487,310.442 		"/>
		<polygon fill="#FFFFFF" points="354.414,303.512 361.344,296.583 361.344,310.442 		"/>
		<polygon fill="#ED2224" points="368.272,303.512 361.344,296.583 361.344,310.442 		"/>
		<polygon fill="#ED2224" points="340.557,303.512 347.487,296.583 347.487,310.442 		"/>
		<path fill="#010101" d="M291.363,303.087h6.224v-3.833c0-0.684-0.044-1.135-0.128-1.352c-0.067-0.164-0.206-0.309-0.415-0.424
			c-0.283-0.158-0.583-0.235-0.9-0.235h-0.472v-0.368h5.728v0.368h-0.476c-0.313,0-0.614,0.071-0.896,0.225
			c-0.213,0.104-0.354,0.267-0.432,0.479c-0.074,0.216-0.11,0.65-0.11,1.308v8.647c0,0.676,0.039,1.125,0.128,1.342
			c0.063,0.164,0.198,0.307,0.404,0.422c0.29,0.16,0.594,0.24,0.907,0.24h0.477v0.365h-5.729v-0.365h0.472
			c0.546,0,0.948-0.162,1.197-0.484c0.166-0.209,0.247-0.717,0.247-1.52v-4.082h-6.224v4.082c0,0.676,0.043,1.125,0.128,1.342
			c0.067,0.164,0.206,0.307,0.418,0.422c0.283,0.16,0.58,0.24,0.896,0.24h0.486v0.365h-5.74v-0.365h0.472
			c0.554,0,0.955-0.162,1.207-0.484c0.155-0.209,0.236-0.717,0.236-1.52v-8.647c0-0.684-0.044-1.135-0.128-1.353
			c-0.067-0.163-0.202-0.307-0.404-0.424c-0.29-0.157-0.593-0.234-0.909-0.234h-0.474v-0.368h5.738v0.368h-0.486
			c-0.316,0-0.614,0.07-0.896,0.225c-0.206,0.104-0.349,0.268-0.425,0.479c-0.081,0.216-0.122,0.649-0.122,1.308L291.363,303.087
			L291.363,303.087z"/>
		<path fill="#010101" d="M310.194,296.569v4.636h-0.364c-0.122-0.892-0.334-1.599-0.638-2.125
			c-0.308-0.528-0.745-0.948-1.313-1.254c-0.566-0.312-1.15-0.466-1.757-0.466c-0.685,0-1.25,0.209-1.698,0.627
			c-0.449,0.42-0.671,0.893-0.671,1.426c0,0.408,0.142,0.783,0.425,1.117c0.408,0.494,1.378,1.15,2.913,1.975
			c1.25,0.671,2.106,1.188,2.563,1.549c0.459,0.358,0.813,0.782,1.058,1.268c0.246,0.488,0.372,0.998,0.372,1.531
			c0,1.015-0.395,1.888-1.18,2.621c-0.789,0.736-1.801,1.104-3.038,1.104c-0.391,0-0.755-0.029-1.1-0.093
			c-0.202-0.03-0.626-0.151-1.268-0.356c-0.64-0.209-1.048-0.313-1.221-0.313c-0.165,0-0.293,0.05-0.392,0.148
			c-0.094,0.096-0.166,0.303-0.212,0.613h-0.364v-4.592h0.364c0.171,0.959,0.404,1.678,0.694,2.158
			c0.29,0.475,0.731,0.873,1.329,1.188c0.593,0.313,1.247,0.471,1.958,0.471c0.822,0,1.473-0.215,1.951-0.647
			c0.476-0.437,0.715-0.949,0.715-1.543c0-0.33-0.091-0.66-0.27-0.998c-0.183-0.336-0.466-0.646-0.847-0.937
			c-0.256-0.198-0.958-0.616-2.104-1.26s-1.959-1.155-2.443-1.538c-0.486-0.383-0.851-0.805-1.104-1.263
			c-0.25-0.464-0.374-0.972-0.374-1.524c0-0.961,0.368-1.785,1.105-2.48c0.738-0.694,1.677-1.043,2.815-1.043
			c0.711,0,1.468,0.173,2.263,0.523c0.366,0.165,0.63,0.246,0.777,0.246c0.172,0,0.313-0.052,0.421-0.15
			c0.108-0.105,0.196-0.313,0.265-0.619H310.194L310.194,296.569z"/>
		<path fill="#010101" d="M320.617,303.436c0.93,0.195,1.625,0.513,2.086,0.948c0.638,0.607,0.958,1.345,0.958,2.222
			c0,0.666-0.212,1.303-0.633,1.912c-0.422,0.61-0.998,1.051-1.733,1.332c-0.735,0.278-1.854,0.422-3.361,0.422h-6.32v-0.365h0.502
			c0.559,0,0.96-0.178,1.204-0.533c0.15-0.232,0.229-0.721,0.229-1.471v-8.656c0-0.831-0.094-1.352-0.286-1.567
			c-0.256-0.292-0.641-0.435-1.146-0.435h-0.502v-0.368h5.784c1.083,0,1.949,0.079,2.6,0.239c0.988,0.234,1.743,0.652,2.262,1.257
			c0.52,0.603,0.779,1.294,0.779,2.08c0,0.671-0.203,1.271-0.61,1.804C322.019,302.784,321.415,303.175,320.617,303.436
			L320.617,303.436z M315.442,302.899c0.245,0.047,0.521,0.08,0.836,0.104c0.313,0.022,0.657,0.033,1.031,0.033
			c0.961,0,1.687-0.103,2.168-0.312c0.484-0.205,0.855-0.524,1.112-0.953c0.255-0.427,0.384-0.895,0.384-1.402
			c0-0.782-0.318-1.449-0.958-2.003c-0.64-0.552-1.57-0.829-2.795-0.829c-0.661,0-1.251,0.07-1.78,0.217v5.145H315.442z
			 M315.442,309.301c0.765,0.18,1.52,0.266,2.263,0.266c1.192,0,2.1-0.268,2.727-0.805c0.624-0.535,0.938-1.199,0.938-1.988
			c0-0.52-0.143-1.021-0.425-1.5c-0.283-0.481-0.745-0.86-1.383-1.139c-0.637-0.275-1.429-0.414-2.369-0.414
			c-0.409,0-0.76,0.008-1.05,0.02c-0.29,0.013-0.521,0.035-0.7,0.068V309.301L315.442,309.301z"/>
		<path fill="#010101" d="M336.049,296.569l0.307,4.554h-0.307c-0.407-1.362-0.991-2.345-1.747-2.944
			c-0.758-0.599-1.665-0.897-2.727-0.897c-0.891,0-1.692,0.226-2.411,0.677c-0.718,0.452-1.28,1.171-1.691,2.157
			c-0.413,0.987-0.618,2.219-0.618,3.686c0,1.211,0.192,2.265,0.583,3.153c0.389,0.889,0.972,1.568,1.753,2.043
			c0.78,0.477,1.67,0.713,2.671,0.713c0.869,0,1.635-0.186,2.303-0.561c0.664-0.369,1.396-1.109,2.19-2.213l0.307,0.192
			c-0.67,1.192-1.456,2.065-2.351,2.619c-0.896,0.553-1.958,0.83-3.191,0.83c-2.219,0-3.938-0.822-5.156-2.474
			c-0.906-1.223-1.361-2.666-1.361-4.326c0-1.334,0.3-2.564,0.897-3.685c0.6-1.12,1.426-1.985,2.475-2.603
			c1.053-0.614,2.198-0.922,3.442-0.922c0.968,0,1.924,0.236,2.865,0.709c0.276,0.146,0.476,0.22,0.594,0.22
			c0.175,0,0.33-0.063,0.461-0.188c0.171-0.176,0.293-0.424,0.367-0.74H336.049L336.049,296.569z"/>
		<rect x="286.742" y="295.121" fill="none" width="82.001" height="16.458"/>
	</g>
</g>
<g>
	<g>
		<path fill="#E72B2B" d="M146.478,332.999h84.788c4.186,0,7.605-3.422,7.605-7.604v-47.79c0-4.182-3.422-7.605-7.605-7.605h-84.788
			c-4.183,0-7.605,3.424-7.605,7.605v47.79C138.872,329.577,142.296,332.999,146.478,332.999z"/>
		<path fill="#BF242A" d="M231.266,332.999h-84.788c-4.183,0-7.605-3.422-7.605-7.604v3.698c0,4.185,3.424,7.607,7.605,7.607h84.788
			c4.186,0,7.605-3.424,7.605-7.607v-3.698C238.873,329.577,235.451,332.999,231.266,332.999z"/>
	</g>
	<g>
		<path fill="#FFFFFE" d="M188.316,287.743c0,4.237,7.21,8.939,7.21,13.779c0,0,0,0.465-0.201,0.967
			c6.734,1.396,11.506,4.702,11.506,8.57c0,5.205-8.508,9.475-19.048,9.512c-0.068,0.031-0.131,0-0.2,0
			c-10.439,0-18.911-4.139-18.911-9.311c0-3.869,5.168-7.006,11.405-8.672c0,2.138,7.11,8.908,7.272,11.639
			c0,0,0.032,0.236,0.032,0.506c0,0.131,0,0.264-0.032,0.396c1.536-0.797,1.536-3.299,1.536-3.299c0-5.938-6.909-8.578-6.909-14.414
			c0-2.266,1.071-3.938,2.038-4.401v1.635c0,4.231,7.475,8.976,7.475,12.841v1.268c1.73-0.666,1.73-3.836,1.73-3.836
			c0-5.336-6.937-8.303-6.937-14.409c0-2.271,1.065-3.937,2.032-4.401L188.316,287.743L188.316,287.743z"/>
	</g>
</g>
<g>
	<g>
		<path fill="#FCEE23" d="M285.35,243h84.788c4.184,0,7.604-3.422,7.604-7.605v-47.791c0-4.182-3.422-7.604-7.604-7.604H285.35
			c-4.184,0-7.604,3.422-7.604,7.604v47.791C277.744,239.579,281.166,243,285.35,243z"/>
		<path fill="#BFB331" d="M370.138,243H285.35c-4.184,0-7.604-3.422-7.604-7.605v3.699c0,4.184,3.422,7.605,7.604,7.605h84.788
			c4.184,0,7.604-3.424,7.604-7.605v-3.699C377.742,239.579,374.321,243,370.138,243z"/>
	</g>
	<g>
		<path fill="#0361AA" d="M310.902,225.51l3.509-2.338l3.51,2.338l-7.019,4.678V225.51L310.902,225.51L310.902,225.51z
			 M344.581,201.188l-3.508,2.336l-3.508-2.336l7.016-4.678V201.188L344.581,201.188L344.581,201.188z M344.581,218.961
			l-16.838,11.227l-16.842-11.227l20-13.332l3.509,2.34l-16.141,10.76l9.824,6.547l4.561-3.041l-3.509-2.338l8.42-5.615
			L344.581,218.961L344.581,218.961L344.581,218.961z M310.902,207.735l16.842-11.225l16.843,11.225l-20,13.332l-3.51-2.338
			l16.141-10.76l-9.823-6.549l-4.561,3.039l3.507,2.34l-8.42,5.615L310.902,207.735L310.902,207.735L310.902,207.735z"/>
	</g>
</g>
<g>
	<g>
		<path fill="#F2F2F2" d="M7.605,243h84.787c4.184,0,7.604-3.422,7.604-7.605v-47.791c0-4.184-3.422-7.604-7.604-7.604H7.605
			C3.421,180,0,183.422,0,187.604v47.791C0,239.579,3.422,243,7.605,243z"/>
		<path fill="#C4C4C4" d="M92.393,243H7.606c-4.184,0-7.604-3.422-7.604-7.605v3.699c0,4.184,3.422,7.605,7.604,7.605h84.787
			c4.184,0,7.605-3.424,7.605-7.605v-3.699C99.998,239.579,96.575,243,92.393,243z"/>
	</g>
	<g>
		<path fill-rule="evenodd" clip-rule="evenodd" fill="#F37421" d="M31.185,198.627l27.587-6.559
			c4.026-0.959,8.104,1.553,9.062,5.58l6.559,27.586c0.5,2.102,0.054,4.219-1.06,5.898H31.179l-5.574-23.445
			C24.648,203.663,27.159,199.584,31.185,198.627L31.185,198.627z"/>
		<polygon fill="#FFFFFF" points="31.126,209.905 31.126,221.692 33.802,221.692 33.802,216.76 38.191,216.76 38.191,221.692 
			40.849,221.692 40.849,209.905 38.191,209.905 38.191,214.434 33.802,214.434 33.802,209.905 31.126,209.905 		"/>
		<path fill="#FFFFFF" d="M63.869,218.264c0.035-0.193,0.087-0.596,0.087-1.049c0-2.117-1.049-4.268-3.812-4.268
			c-2.973,0-4.319,2.396-4.319,4.564c0,2.676,1.661,4.354,4.563,4.354c1.154,0,2.222-0.174,3.096-0.523l-0.35-1.803
			c-0.717,0.229-1.451,0.352-2.36,0.352c-1.242,0-2.326-0.525-2.414-1.627H63.869L63.869,218.264z M58.343,216.446
			c0.07-0.717,0.525-1.732,1.645-1.732c1.224,0,1.504,1.084,1.504,1.732H58.343L58.343,216.446z"/>
		<path fill="#FFFFFF" d="M64.809,221.692h2.658v-4.338c0-0.209,0.017-0.42,0.052-0.594c0.176-0.822,0.84-1.348,1.819-1.348
			c0.297,0,0.524,0.035,0.717,0.07v-2.5c-0.192-0.035-0.314-0.035-0.56-0.035c-0.822,0-1.871,0.525-2.309,1.766h-0.07l-0.087-1.574
			h-2.291c0.035,0.736,0.07,1.557,0.07,2.816V221.692L64.809,221.692z"/>
		<path fill-rule="evenodd" clip-rule="evenodd" fill="#FFE700" d="M43.554,209.43c0.754,0,1.365,0.611,1.365,1.367
			c0,0.754-0.611,1.365-1.365,1.365c-0.756,0-1.367-0.611-1.367-1.365C42.187,210.042,42.798,209.43,43.554,209.43L43.554,209.43z"
			/>
		<path fill-rule="evenodd" clip-rule="evenodd" fill="#FFFFFF" d="M49.167,219.7h1.334c1.339,0,1.945-0.857,1.945-1.752
			s-0.064-2.918-1.72-2.918c-1.902,0-1.594,2.51-1.586,3.826C49.143,219.137,49.159,219.418,49.167,219.7L49.167,219.7z
			 M42.187,213.127h2.732v4.82c0,0.893,0.497,1.75,1.594,1.752c0.008-2.17-0.001-4.404-0.074-6.572h2.283
			c0.051,0.418,0.096,0.836,0.137,1.256c1.078-2.156,4.478-1.682,5.622,0.139c1.181,1.881,1.583,7.268-3.979,7.268h-1.295
			c0.012,1.094,0.014,2.188,0.014,3.283h-2.732c0-1.051,0.008-2.152,0.014-3.283c-2.953-0.012-4.314-1.887-4.314-3.842V213.127
			L42.187,213.127z"/>
	</g>
</g>
<g>
	<g>
		<g>
			<g>
				<path fill="#F2F2F2" d="M285.349,153h84.788c4.185,0,7.605-3.422,7.605-7.605V97.605c0-4.184-3.422-7.604-7.605-7.604h-84.788
					c-4.184,0-7.604,3.422-7.604,7.604v47.789C277.744,149.579,281.166,153,285.349,153z"/>
				<path fill="#C4C4C4" d="M370.137,153h-84.788c-4.184,0-7.604-3.422-7.604-7.605v3.699c0,4.184,3.422,7.605,7.604,7.605h84.788
					c4.185,0,7.605-3.422,7.605-7.605v-3.699C377.743,149.579,374.322,153,370.137,153z"/>
			</g>
		</g>
		<path id="fundo" fill-rule="evenodd" clip-rule="evenodd" fill="#961B1E" d="M311.092,106.784c-2.611,0-7.844,0-7.844,0
			c-3.467,0.164-6.3,1.56-7.118,4.439c-0.427,1.501-0.661,3.15-0.995,4.706c-1.695,7.914-3.199,16.046-4.821,23.802h61.074
			c4.722,0,7.963-0.997,8.839-4.745c0.407-1.74,0.797-3.712,1.187-5.625c1.519-7.457,3.037-14.913,4.592-22.577H311.092z"/>
	</g>
	<path id="hipercard" fill-rule="evenodd" clip-rule="evenodd" fill="#FFFFFF" d="M310.481,118.494
		c0.328-0.227,0.75-1.256,0.268-1.684c-0.152-0.136-0.408-0.176-0.766-0.115c-0.33,0.056-0.521,0.168-0.65,0.345
		c-0.208,0.283-0.398,1.137-0.076,1.454C309.569,118.802,310.272,118.637,310.481,118.494z M305.812,116.81
		c-0.235,1.524-0.5,3.021-0.765,4.515c-1.705,0.019-3.445,0.085-5.09-0.038c0.311-1.462,0.533-3.013,0.842-4.477h-1.837
		c-0.657,3.729-1.256,7.52-1.99,11.174h1.876c0.293-1.875,0.568-3.768,0.956-5.549c1.599-0.04,3.515-0.108,5.052,0.038
		c-0.317,1.852-0.7,3.637-0.996,5.511h1.875c0.604-3.786,1.238-7.539,1.99-11.174H305.812z M332.33,120.024
		c-1.459-0.589-2.605,0.406-3.138,1.34c0.121-0.415,0.171-0.901,0.269-1.34h-1.455c-0.355,2.757-0.879,5.346-1.377,7.96h1.646
		c0.23-1.552,0.33-3.644,0.842-5.128c0.409-1.187,1.479-2.197,3.022-1.646C332.161,120.773,332.286,120.439,332.33,120.024z
		 M333.249,126.108c-0.151-0.392-0.191-1.038-0.153-1.53c0.085-1.105,0.488-2.452,1.109-3.062c0.858-0.841,2.553-0.701,3.903-0.229
		c0.042-0.455,0.134-0.861,0.191-1.301c-2.216-0.362-4.318-0.137-5.434,1.033c-1.092,1.146-1.807,3.777-1.301,5.434
		c0.592,1.938,3.246,2.044,5.396,1.302c0.095-0.39,0.146-0.824,0.229-1.225C336.016,127.14,333.771,127.457,333.249,126.108z
		 M351.732,120.062c-1.454-0.727-2.665,0.493-3.138,1.225c0.135-0.375,0.143-0.878,0.268-1.263h-1.454
		c-0.392,2.733-0.864,5.386-1.415,7.96h1.684c0.011-1.055,0.218-1.836,0.383-2.87c0.352-2.209,0.868-4.632,3.443-3.903
		C351.588,120.836,351.623,120.413,351.732,120.062z M308.797,120.024c-0.045,0.007-0.042,0.061-0.039,0.115
		c-0.362,2.711-0.854,5.295-1.377,7.845h1.645c0.396-2.73,0.849-5.402,1.416-7.96H308.797z M323.262,119.871
		c-1.189,0.092-2.194,0.435-2.908,1.187c-0.877,0.923-1.586,2.964-1.379,4.821c0.297,2.651,3.598,2.557,6.238,1.914
		c0.045-0.466,0.157-0.863,0.229-1.302c-1.087,0.407-2.976,0.976-4.095,0.269c-0.844-0.534-0.85-1.887-0.574-3.062
		c1.775-0.057,3.619-0.046,5.396,0c0.112-0.833,0.436-1.741,0.152-2.564C325.95,120.047,324.617,119.766,323.262,119.871z
		 M324.83,122.779h-3.865c0.123-0.888,0.922-1.864,2.182-1.913C324.332,120.821,325.181,121.301,324.83,122.779z M317.024,120.024
		c-1.393-0.523-3.09,0.102-3.826,0.695c0.003,0.026-0.018,0.03-0.039,0.032c0.014-0.011,0.026-0.021,0.039-0.032
		c0-0.002,0-0.004,0-0.007c0.012-0.255,0.102-0.433,0.115-0.688h-1.416c-0.59,3.926-1.29,7.741-2.029,11.519h1.646
		c0.238-1.471,0.395-3.023,0.727-4.4c0.376,1.448,2.83,1.172,3.865,0.612C318.242,126.599,319.89,121.1,317.024,120.024z
		 M315.723,126.491c-0.881,0.933-3.045,0.919-3.215-0.65c-0.073-0.683,0.181-1.398,0.307-2.104c0.127-0.715,0.219-1.4,0.344-2.028
		c0.867-1.059,3.416-1.187,3.674,0.574C317.057,123.81,316.451,125.719,315.723,126.491z M357.855,116.58
		c-0.142,1.237-0.33,2.426-0.574,3.56c-4.036-1.278-6.512,1.691-6.467,5.357c0.009,0.708,0.131,1.411,0.574,1.913
		c0.764,0.864,2.951,1.071,4.056,0.345c0.214-0.141,0.433-0.396,0.574-0.574c0.106-0.134,0.275-0.483,0.306-0.383
		c-0.058,0.389-0.145,0.748-0.152,1.187h1.492c0.288-4.126,1.177-7.65,1.837-11.404H357.855z M354.181,127.103
		c-1.107,0.024-1.658-0.661-1.684-1.798c-0.044-1.991,0.829-4.203,2.603-4.401c0.825-0.092,1.423,0.1,2.027,0.307
		C356.573,123.446,356.773,127.047,354.181,127.103z M339.984,120.024c-0.081,0.455-0.205,0.866-0.306,1.301
		c0.971-0.243,3.994-0.989,4.286,0.307c0.097,0.431-0.07,0.888-0.191,1.225c-2.734-0.259-4.963,0.195-5.549,2.143
		c-0.393,1.305,0.044,2.588,0.88,2.947c1.61,0.689,3.569-0.101,4.248-1.187c-0.07,0.376-0.138,0.755-0.115,1.225h1.416
		c0.015-1.356,0.212-2.454,0.421-3.674c0.178-1.039,0.513-2.068,0.459-2.985C345.411,119.225,341.932,119.968,339.984,120.024z
		 M342.662,126.453c-0.848,0.83-3.228,1.066-2.984-0.918c0.202-1.648,1.997-1.998,3.941-1.761
		C343.475,124.675,343.309,125.821,342.662,126.453z"/>
</g>
<g>
	<g>
		<g>
			<path fill="#F2F2F2" d="M146.482,153h84.79c4.184,0,7.605-3.422,7.605-7.605v-47.79c0-4.183-3.422-7.604-7.605-7.604h-84.79
				c-4.184,0-7.605,3.422-7.605,7.604v47.79C138.877,149.578,142.301,153,146.482,153z"/>
			<path fill="#C4C4C4" d="M231.272,153h-84.79c-4.184,0-7.605-3.422-7.605-7.605v3.699c0,4.184,3.424,7.605,7.605,7.605h84.79
				c4.184,0,7.605-3.423,7.605-7.605v-3.699C238.877,149.578,235.455,153,231.272,153z"/>
		</g>
	</g>
	<g>
		<g>
			
				<path fill-rule="evenodd" clip-rule="evenodd" fill="#050013" stroke="#231F20" stroke-width="0.08" stroke-miterlimit="22.9256" d="
				M187.877,97.864c13.59,0,24.608,11.018,24.608,24.608s-11.018,24.607-24.608,24.607c-13.591,0-24.607-11.017-24.607-24.607
				S174.286,97.864,187.877,97.864L187.877,97.864z"/>
			<path fill-rule="evenodd" clip-rule="evenodd" fill="#FFFFFF" d="M177.303,115.877c3.565,0,6.553,2.467,7.353,5.786l-3.049,1.333
				v-0.007l-3.119,1.37l-7.48,3.271c-0.8-1.199-1.267-2.641-1.267-4.19C169.741,119.263,173.127,115.877,177.303,115.877
				L177.303,115.877z M180.549,120.58l-7.553,3.255c-0.013-0.131-0.019-0.262-0.019-0.396c0-2.389,1.937-4.326,4.326-4.326
				C178.595,119.113,179.757,119.681,180.549,120.58L180.549,120.58z"/>
			<path fill-rule="evenodd" clip-rule="evenodd" fill="#FFFFFF" d="M182.588,128.85c-2.707,2.568-6.289,2.821-9.438,0.91
				l1.779-2.703c1.79,1.07,3.59,0.896,5.396-0.522L182.588,128.85L182.588,128.85z"/>
			<path fill-rule="evenodd" clip-rule="evenodd" fill="#FFFFFF" d="M185.667,126.977l-0.019-14.301h2.709v13.915
				c0,0.134,0.017,0.251,0.191,0.319l2.358,0.916l-1.063,2.762l-2.762-1.169C186.036,128.977,185.668,128.334,185.667,126.977
				L185.667,126.977z"/>
		</g>
		<g>
			<path fill-rule="evenodd" clip-rule="evenodd" fill="#009DD7" d="M195.869,126.736c-1.016-0.789-1.67-2.021-1.67-3.408
				c0-1.231,0.516-2.343,1.346-3.129l-1.75-2.836c-1.76,1.395-2.889,3.547-2.889,5.965c0,2.606,1.311,4.906,3.309,6.278
				L195.869,126.736z"/>
			<path fill-rule="evenodd" clip-rule="evenodd" fill="#FFF200" d="M197.055,119.267c0.455-0.164,0.947-0.254,1.459-0.254
				c1.848,0,3.424,1.161,4.039,2.795l3.354-0.28c-0.809-3.333-3.811-5.808-7.393-5.808c-1.012,0-1.977,0.199-2.859,0.558
				L197.055,119.267z"/>
			<path fill-rule="evenodd" clip-rule="evenodd" fill="#E33206" d="M202.824,123.538c-0.109,2.286-1.996,4.106-4.311,4.106
				c-0.361,0-0.715-0.046-1.051-0.13l-1.314,3.046c0.744,0.243,1.539,0.377,2.365,0.377c4.098,0,7.438-3.239,7.602-7.296
				L202.824,123.538z"/>
		</g>
	</g>
</g>
<g>
	<g>
		<path fill="#F2F2F2" d="M146.477,243h84.787c4.184,0,7.605-3.422,7.605-7.605v-47.79c0-4.185-3.422-7.604-7.605-7.604h-84.787
			c-4.184,0-7.604,3.422-7.604,7.604v47.79C138.872,239.578,142.294,243,146.477,243z"/>
		<path fill="#C4C4C4" d="M231.266,243h-84.788c-4.184,0-7.604-3.422-7.604-7.605v3.699c0,4.184,3.422,7.605,7.604,7.605h84.788
			c4.184,0,7.605-3.423,7.605-7.605v-3.699C238.871,239.578,235.448,243,231.266,243z"/>
	</g>
	<g>
		<g>
			<path d="M165.244,234.313c-0.684,0-1.365-0.021-2.043-0.063s-1.383-0.141-2.114-0.297v-12.096
				c0.575-0.108,1.206-0.189,1.89-0.243s1.32-0.081,1.908-0.081c0.792,0,1.521,0.058,2.187,0.171
				c0.666,0.114,1.239,0.31,1.719,0.585c0.48,0.276,0.855,0.64,1.125,1.089c0.271,0.45,0.405,1.006,0.405,1.665
				c0,0.997-0.479,1.782-1.439,2.358c0.792,0.3,1.332,0.708,1.619,1.224c0.288,0.517,0.433,1.099,0.433,1.746
				c0,1.309-0.478,2.292-1.431,2.952C168.548,233.983,167.128,234.313,165.244,234.313z M163.823,226.573h1.368
				c0.864,0,1.482-0.11,1.854-0.333c0.371-0.222,0.558-0.579,0.558-1.071c0-0.504-0.192-0.857-0.576-1.062s-0.948-0.306-1.691-0.306
				c-0.24,0-0.499,0.003-0.774,0.009c-0.276,0.006-0.522,0.021-0.738,0.045V226.573z M163.823,228.715v3.222
				c0.204,0.024,0.426,0.042,0.666,0.054c0.24,0.013,0.504,0.019,0.792,0.019c0.84,0,1.519-0.12,2.034-0.36s0.774-0.684,0.774-1.332
				c0-0.576-0.217-0.987-0.648-1.233c-0.432-0.245-1.05-0.368-1.854-0.368H163.823z"/>
			<path d="M181.859,229.399c0,0.744-0.108,1.425-0.324,2.043s-0.528,1.146-0.936,1.584c-0.408,0.438-0.897,0.777-1.468,1.017
				c-0.569,0.24-1.209,0.36-1.917,0.36c-0.695,0-1.329-0.12-1.898-0.36c-0.57-0.239-1.06-0.578-1.467-1.017
				c-0.408-0.438-0.727-0.966-0.954-1.584c-0.229-0.618-0.343-1.299-0.343-2.043s0.117-1.422,0.352-2.034
				c0.233-0.612,0.558-1.134,0.972-1.565c0.414-0.433,0.906-0.769,1.477-1.009c0.569-0.239,1.19-0.359,1.862-0.359
				c0.685,0,1.312,0.12,1.881,0.359c0.57,0.24,1.06,0.576,1.468,1.009c0.407,0.432,0.726,0.953,0.954,1.565
				C181.744,227.977,181.859,228.655,181.859,229.399z M179.122,229.399c0-0.828-0.165-1.479-0.495-1.953
				c-0.33-0.474-0.801-0.711-1.413-0.711c-0.611,0-1.086,0.237-1.422,0.711c-0.336,0.475-0.504,1.125-0.504,1.953
				s0.168,1.485,0.504,1.971c0.336,0.486,0.811,0.729,1.422,0.729c0.612,0,1.083-0.243,1.413-0.729
				C178.957,230.884,179.122,230.227,179.122,229.399z"/>
			<path d="M187.708,234.331c-0.78-0.012-1.413-0.096-1.899-0.252c-0.485-0.155-0.87-0.375-1.151-0.656
				c-0.282-0.282-0.475-0.624-0.576-1.026c-0.103-0.402-0.153-0.855-0.153-1.359v-10.422l2.683-0.432v10.313
				c0,0.24,0.018,0.456,0.054,0.648s0.104,0.354,0.207,0.486c0.102,0.132,0.249,0.239,0.44,0.323
				c0.192,0.084,0.45,0.139,0.774,0.162L187.708,234.331z"/>
			<path d="M189.165,229.489c0-0.84,0.129-1.575,0.388-2.205c0.258-0.63,0.597-1.154,1.017-1.575c0.42-0.42,0.903-0.737,1.449-0.954
				c0.546-0.216,1.106-0.323,1.683-0.323c1.344,0,2.406,0.411,3.188,1.232c0.779,0.822,1.17,2.031,1.17,3.627
				c0,0.156-0.006,0.327-0.02,0.514c-0.012,0.186-0.023,0.351-0.035,0.495h-6.084c0.06,0.552,0.317,0.989,0.773,1.313
				s1.068,0.486,1.836,0.486c0.492,0,0.975-0.045,1.449-0.135c0.475-0.091,0.861-0.201,1.162-0.333l0.359,2.178
				c-0.145,0.072-0.336,0.144-0.576,0.216s-0.508,0.135-0.801,0.189c-0.295,0.054-0.609,0.099-0.945,0.135s-0.673,0.054-1.008,0.054
				c-0.853,0-1.594-0.126-2.224-0.378s-1.151-0.597-1.565-1.035c-0.414-0.438-0.721-0.957-0.918-1.557
				C189.265,230.833,189.165,230.185,189.165,229.489z M195.466,228.462c-0.013-0.228-0.052-0.449-0.117-0.665
				c-0.066-0.217-0.168-0.408-0.307-0.576c-0.138-0.168-0.312-0.307-0.521-0.414c-0.21-0.108-0.471-0.162-0.783-0.162
				c-0.3,0-0.558,0.051-0.773,0.153c-0.217,0.102-0.396,0.236-0.54,0.404c-0.145,0.168-0.256,0.363-0.333,0.585
				c-0.078,0.223-0.136,0.447-0.171,0.675H195.466z"/>
			<path d="M200.037,222.325l2.682-0.432v2.79h3.223v2.231h-3.223v3.33c0,0.564,0.1,1.015,0.299,1.351
				c0.197,0.336,0.596,0.504,1.195,0.504c0.289,0,0.586-0.027,0.893-0.081c0.305-0.054,0.584-0.129,0.836-0.226l0.379,2.089
				c-0.324,0.132-0.686,0.246-1.08,0.342c-0.396,0.096-0.883,0.144-1.459,0.144c-0.732,0-1.338-0.099-1.818-0.297
				c-0.479-0.198-0.863-0.474-1.15-0.828c-0.289-0.354-0.49-0.783-0.604-1.287c-0.115-0.504-0.172-1.062-0.172-1.674V222.325z"/>
			<path d="M216.617,229.399c0,0.744-0.109,1.425-0.324,2.043c-0.217,0.618-0.529,1.146-0.936,1.584
				c-0.408,0.438-0.898,0.777-1.469,1.017c-0.568,0.24-1.209,0.36-1.916,0.36c-0.695,0-1.33-0.12-1.898-0.36
				c-0.57-0.239-1.061-0.578-1.467-1.017c-0.408-0.438-0.727-0.966-0.955-1.584s-0.342-1.299-0.342-2.043s0.117-1.422,0.352-2.034
				c0.232-0.612,0.557-1.134,0.971-1.565c0.414-0.433,0.906-0.769,1.477-1.009c0.57-0.239,1.191-0.359,1.863-0.359
				c0.684,0,1.311,0.12,1.881,0.359c0.57,0.24,1.059,0.576,1.467,1.009c0.408,0.432,0.727,0.953,0.955,1.565
				C216.502,227.977,216.617,228.655,216.617,229.399z M213.881,229.399c0-0.828-0.166-1.479-0.496-1.953
				c-0.33-0.474-0.801-0.711-1.412-0.711s-1.086,0.237-1.422,0.711c-0.336,0.475-0.504,1.125-0.504,1.953s0.168,1.485,0.504,1.971
				c0.336,0.486,0.811,0.729,1.422,0.729s1.082-0.243,1.412-0.729C213.715,230.884,213.881,230.227,213.881,229.399z"/>
		</g>
		<line fill="none" stroke="#000000" stroke-miterlimit="10" x1="161.734" y1="219.012" x2="161.734" y2="191.864"/>
		<line fill="none" stroke="#000000" stroke-miterlimit="10" x1="163.734" y1="219.012" x2="163.734" y2="191.864"/>
		<line fill="none" stroke="#000000" stroke-miterlimit="10" x1="165.734" y1="219.012" x2="165.734" y2="191.864"/>
		<line fill="none" stroke="#000000" stroke-miterlimit="10" x1="167.734" y1="219.012" x2="167.734" y2="191.864"/>
		<line fill="none" stroke="#000000" stroke-miterlimit="10" x1="169.734" y1="219.012" x2="169.734" y2="191.864"/>
		
			<line fill="none" stroke="#000000" stroke-width="1.0199" stroke-miterlimit="10" x1="171.734" y1="223.099" x2="171.734" y2="191.864"/>
		
			<line fill="none" stroke="#000000" stroke-width="1.0261" stroke-miterlimit="10" x1="173.734" y1="223.099" x2="173.734" y2="191.864"/>
		
			<line fill="none" stroke="#000000" stroke-width="1.0726" stroke-miterlimit="10" x1="175.734" y1="223.099" x2="175.734" y2="191.864"/>
		
			<line fill="none" stroke="#000000" stroke-width="1.0726" stroke-miterlimit="10" x1="177.734" y1="223.099" x2="177.734" y2="191.864"/>
		
			<line fill="none" stroke="#000000" stroke-width="1.0726" stroke-miterlimit="10" x1="179.734" y1="223.099" x2="179.734" y2="191.864"/>
		
			<line fill="none" stroke="#000000" stroke-width="1.0726" stroke-miterlimit="10" x1="181.734" y1="223.099" x2="181.734" y2="191.864"/>
		<line fill="none" stroke="#000000" stroke-miterlimit="10" x1="183.734" y1="219.012" x2="183.734" y2="191.864"/>
		<line fill="none" stroke="#000000" stroke-miterlimit="10" x1="185.734" y1="219.012" x2="185.734" y2="191.864"/>
		<line fill="none" stroke="#000000" stroke-miterlimit="10" x1="187.734" y1="219.012" x2="187.734" y2="191.864"/>
		
			<line fill="none" stroke="#000000" stroke-width="1.0726" stroke-miterlimit="10" x1="189.734" y1="223.099" x2="189.734" y2="191.864"/>
		
			<line fill="none" stroke="#000000" stroke-width="1.0726" stroke-miterlimit="10" x1="191.734" y1="223.099" x2="191.734" y2="191.864"/>
		
			<line fill="none" stroke="#000000" stroke-width="1.0726" stroke-miterlimit="10" x1="193.734" y1="223.099" x2="193.734" y2="191.864"/>
		
			<line fill="none" stroke="#000000" stroke-width="1.0726" stroke-miterlimit="10" x1="195.734" y1="223.099" x2="195.734" y2="191.864"/>
		
			<line fill="none" stroke="#000000" stroke-width="1.0726" stroke-miterlimit="10" x1="197.735" y1="223.099" x2="197.735" y2="191.864"/>
		<line fill="none" stroke="#000000" stroke-miterlimit="10" x1="199.735" y1="219.012" x2="199.735" y2="191.864"/>
		<line fill="none" stroke="#000000" stroke-miterlimit="10" x1="201.735" y1="219.012" x2="201.735" y2="191.864"/>
		<line fill="none" stroke="#000000" stroke-miterlimit="10" x1="203.735" y1="219.012" x2="203.735" y2="191.864"/>
		
			<line fill="none" stroke="#000000" stroke-width="1.0726" stroke-miterlimit="10" x1="205.735" y1="223.099" x2="205.735" y2="191.864"/>
		
			<line fill="none" stroke="#000000" stroke-width="1.0726" stroke-miterlimit="10" x1="207.735" y1="223.099" x2="207.735" y2="191.864"/>
		
			<line fill="none" stroke="#000000" stroke-width="1.0726" stroke-miterlimit="10" x1="209.735" y1="223.099" x2="209.735" y2="191.864"/>
		
			<line fill="none" stroke="#000000" stroke-width="1.0726" stroke-miterlimit="10" x1="211.735" y1="223.099" x2="211.735" y2="191.864"/>
		
			<line fill="none" stroke="#000000" stroke-width="1.0726" stroke-miterlimit="10" x1="213.735" y1="223.099" x2="213.735" y2="191.864"/>
		
			<line fill="none" stroke="#000000" stroke-width="1.0726" stroke-miterlimit="10" x1="215.735" y1="223.099" x2="215.735" y2="191.864"/>
	</g>
</g>
</svg>
