<?xml version="1.0" encoding="utf-8"?>
<!-- Generator: Adobe Illustrator 16.0.0, SVG Export Plug-In . SVG Version: 6.00 Build 0)  -->
<!DOCTYPE svg PUBLIC "-//W3C//DTD SVG 1.0//EN" "http://www.w3.org/TR/2001/REC-SVG-20010904/DTD/svg10.dtd">
<svg version="1.0" id="Layer_1" xmlns="http://www.w3.org/2000/svg" xmlns:xlink="http://www.w3.org/1999/xlink" x="0px" y="0px"
	 width="219px" height="287.462px" viewBox="0 0 219 287.462" enable-background="new 0 0 219 287.462" xml:space="preserve">
<g>
	<rect x="148.908" y="63.845" fill="#171617" stroke="#000000" stroke-miterlimit="10" width="34" height="22.666"/>
	<g>
		<path fill="#FFFFFF" d="M156.68,77.319v-6.236h4.211v1.178h-2.808v1.225h2.493v1.152h-2.493v1.502h3.015v1.18H156.68z"/>
		<path fill="#FFFFFF" d="M163.789,71.083c0.108,0.197,0.232,0.441,0.375,0.732c0.141,0.291,0.288,0.606,0.441,0.945
			c0.154,0.34,0.306,0.686,0.456,1.039c0.15,0.354,0.292,0.688,0.424,1c0.132-0.313,0.274-0.646,0.425-1
			c0.15-0.354,0.302-0.699,0.455-1.039c0.153-0.339,0.301-0.654,0.442-0.945s0.267-0.535,0.374-0.732h1.278
			c0.06,0.413,0.116,0.877,0.167,1.39s0.096,1.048,0.135,1.603s0.074,1.111,0.107,1.669s0.063,1.083,0.086,1.575h-1.368
			c-0.019-0.605-0.042-1.266-0.071-1.98c-0.031-0.713-0.076-1.434-0.136-2.16c-0.108,0.252-0.229,0.531-0.36,0.838
			c-0.133,0.306-0.264,0.611-0.394,0.918c-0.13,0.306-0.254,0.598-0.374,0.877c-0.121,0.279-0.223,0.518-0.307,0.716h-0.982
			c-0.084-0.198-0.186-0.437-0.307-0.716c-0.12-0.279-0.245-0.571-0.375-0.877c-0.129-0.307-0.26-0.612-0.393-0.918
			c-0.132-0.307-0.252-0.586-0.36-0.838c-0.06,0.727-0.105,1.447-0.136,2.16c-0.029,0.715-0.054,1.375-0.071,1.98h-1.368
			c0.023-0.492,0.053-1.018,0.086-1.575c0.032-0.558,0.068-1.114,0.107-1.669s0.084-1.09,0.135-1.603s0.107-0.977,0.167-1.39
			H163.789z"/>
		<path fill="#FFFFFF" d="M173.05,77.445c-1.015,0-1.786-0.282-2.317-0.847c-0.531-0.563-0.797-1.364-0.797-2.402
			c0-0.516,0.081-0.977,0.243-1.381c0.162-0.406,0.384-0.748,0.666-1.026c0.282-0.279,0.618-0.491,1.009-0.635
			c0.389-0.144,0.813-0.216,1.269-0.216c0.264,0,0.504,0.02,0.72,0.059s0.405,0.084,0.566,0.135
			c0.162,0.051,0.297,0.104,0.406,0.158c0.107,0.053,0.186,0.096,0.232,0.125l-0.404,1.135c-0.191-0.103-0.416-0.189-0.67-0.262
			c-0.256-0.072-0.545-0.107-0.869-0.107c-0.216,0-0.428,0.035-0.635,0.107s-0.39,0.188-0.549,0.347
			c-0.158,0.159-0.286,0.364-0.383,0.616c-0.096,0.252-0.143,0.559-0.143,0.918c0,0.289,0.031,0.557,0.094,0.806
			s0.165,0.464,0.307,0.644c0.141,0.18,0.324,0.322,0.553,0.428s0.504,0.157,0.828,0.157c0.204,0,0.387-0.012,0.549-0.036
			c0.162-0.023,0.307-0.053,0.432-0.085c0.127-0.033,0.237-0.071,0.334-0.112c0.096-0.043,0.182-0.082,0.26-0.117l0.387,1.125
			c-0.197,0.12-0.477,0.229-0.836,0.324S173.523,77.445,173.05,77.445z"/>
	</g>
</g>
<g>
	
		<rect x="114.936" y="95.975" fill="#FFFFFF" stroke="#EF4069" stroke-width="0.4832" stroke-miterlimit="10" width="81.581" height="104.504"/>
	<g>
		<g>
			<g>
				<path fill="#010101" stroke="#FFFFFF" stroke-width="0.1921" stroke-miterlimit="10" d="M155.393,139.606"/>
			</g>
			<g>
				<path fill="#010101" stroke="#FFFFFF" stroke-width="0.1921" stroke-miterlimit="10" d="M155.393,139.606"/>
			</g>
			<g>
				<path fill="#010101" stroke="#FFFFFF" stroke-width="0.1921" stroke-miterlimit="10" d="M155.393,139.606"/>
			</g>
			<g>
				<path fill="#010101" stroke="#FFFFFF" stroke-width="0.1921" stroke-miterlimit="10" d="M155.393,139.606"/>
			</g>
		</g>
		<polyline fill="#3399CC" points="179.407,153.414 167.4,160.617 155.395,167.822 155.395,153.414 155.395,139.006 		"/>
		<polyline fill="#996699" points="179.407,153.414 179.407,139.006 179.407,124.597 167.414,131.802 155.395,139.006 		"/>
		<polyline fill="#F89839" points="155.396,110.19 143.387,117.394 131.38,124.597 143.389,131.802 155.396,139.006 		"/>
		<polyline fill="#EE3968" points="155.395,110.19 167.399,117.394 179.407,124.597 167.4,131.802 155.395,139.006 		"/>
		<polyline fill="#FFCE09" points="131.38,153.414 143.389,160.617 155.396,167.822 155.396,153.414 155.396,139.006 		"/>
		<polyline fill="#6EC498" points="131.381,153.414 131.381,139.006 131.381,124.597 143.387,131.802 155.395,139.006 		"/>
		<g>
			<g>
				<g>
					
						<line fill="none" stroke="#FFFFFF" stroke-width="0.5763" stroke-miterlimit="10" x1="155.398" y1="110.19" x2="155.398" y2="110.863"/>
					
						<line fill="none" stroke="#FFFFFF" stroke-width="0.5763" stroke-miterlimit="10" stroke-dasharray="1.3082,1.3082" x1="155.398" y1="112.17" x2="155.393" y2="137.68"/>
					
						<line fill="none" stroke="#FFFFFF" stroke-width="0.5763" stroke-miterlimit="10" x1="155.393" y1="138.333" x2="155.393" y2="139.006"/>
				</g>
			</g>
			<g>
				<g>
					
						<line fill="none" stroke="#FFFFFF" stroke-width="0.5763" stroke-miterlimit="10" x1="155.393" y1="139.006" x2="155.969" y2="139.352"/>
					
						<line fill="none" stroke="#FFFFFF" stroke-width="0.5763" stroke-miterlimit="10" stroke-dasharray="1.4032,1.4032" x1="157.172" y1="140.074" x2="178.229" y2="152.707"/>
					
						<line fill="none" stroke="#FFFFFF" stroke-width="0.5763" stroke-miterlimit="10" x1="178.831" y1="153.068" x2="179.407" y2="153.414"/>
				</g>
			</g>
			<g>
				<g>
					
						<line fill="none" stroke="#FFFFFF" stroke-width="0.5763" stroke-miterlimit="10" x1="155.393" y1="139.006" x2="154.816" y2="139.352"/>
					
						<line fill="none" stroke="#FFFFFF" stroke-width="0.5763" stroke-miterlimit="10" stroke-dasharray="1.4031,1.4031" x1="153.613" y1="140.074" x2="132.558" y2="152.707"/>
					
						<line fill="none" stroke="#FFFFFF" stroke-width="0.5763" stroke-miterlimit="10" x1="131.956" y1="153.068" x2="131.38" y2="153.414"/>
				</g>
			</g>
		</g>
		<g>
			
				<line fill="none" stroke="#FFFFFF" stroke-width="0.5763" stroke-miterlimit="10" x1="155.398" y1="167.822" x2="155.393" y2="139.006"/>
			
				<line fill="none" stroke="#FFFFFF" stroke-width="0.5763" stroke-miterlimit="10" x1="155.393" y1="139.006" x2="179.407" y2="124.597"/>
			
				<line fill="none" stroke="#FFFFFF" stroke-width="0.5763" stroke-miterlimit="10" x1="155.393" y1="139.006" x2="131.38" y2="124.597"/>
		</g>
	</g>
	
		<rect x="119.598" y="203.302" fill="#FFFFFF" stroke="#EF4069" stroke-width="0.4832" stroke-miterlimit="10" width="71.925" height="5.861"/>
	
		<rect x="119.598" y="87.425" fill="#FFFFFF" stroke="#EF4069" stroke-width="0.4832" stroke-miterlimit="10" width="71.925" height="5.861"/>
	
		<line fill="none" stroke="#EE3968" stroke-width="5.0075" stroke-miterlimit="10" x1="113.349" y1="93.614" x2="197.875" y2="93.614"/>
	
		<line fill="none" stroke="#EE3968" stroke-width="5.0075" stroke-miterlimit="10" x1="113.349" y1="202.842" x2="197.875" y2="202.842"/>
	<g>
		<path d="M148.698,173.764h1.87v8.307h-1.87v-3.524h-3.141v3.524h-1.87v-8.307h1.87v3.177h3.141V173.764z"/>
		<path d="M155.734,182.239c-0.583,0-1.086-0.082-1.51-0.245c-0.424-0.164-0.773-0.392-1.049-0.684s-0.479-0.64-0.611-1.043
			s-0.198-0.85-0.198-1.337v-5.166h1.87v5.011c0,0.335,0.037,0.621,0.113,0.856c0.077,0.236,0.181,0.428,0.313,0.575
			c0.132,0.148,0.291,0.255,0.479,0.318c0.188,0.063,0.394,0.096,0.617,0.096c0.456,0,0.825-0.14,1.109-0.42
			c0.283-0.279,0.426-0.755,0.426-1.426v-5.011h1.869v5.166c0,0.487-0.067,0.936-0.204,1.343c-0.135,0.407-0.343,0.758-0.623,1.049
			c-0.279,0.292-0.635,0.518-1.066,0.677C156.838,182.159,156.326,182.239,155.734,182.239z"/>
		<path d="M163.73,182.179c-0.455,0-0.909-0.014-1.36-0.042c-0.452-0.029-0.921-0.094-1.409-0.198v-8.056
			c0.384-0.071,0.804-0.125,1.259-0.162c0.456-0.035,0.88-0.054,1.271-0.054c0.527,0,1.014,0.038,1.457,0.114
			s0.824,0.206,1.145,0.39c0.319,0.184,0.57,0.426,0.749,0.726c0.18,0.3,0.27,0.669,0.27,1.108c0,0.663-0.319,1.187-0.958,1.57
			c0.527,0.2,0.886,0.472,1.078,0.815s0.288,0.73,0.288,1.162c0,0.872-0.317,1.527-0.952,1.967
			C165.93,181.959,164.985,182.179,163.73,182.179z M162.783,177.025h0.911c0.575,0,0.986-0.074,1.234-0.223
			c0.248-0.147,0.372-0.385,0.372-0.713c0-0.335-0.128-0.571-0.383-0.707c-0.257-0.136-0.632-0.203-1.128-0.203
			c-0.16,0-0.331,0.001-0.515,0.005c-0.184,0.005-0.348,0.015-0.492,0.03V177.025z M162.783,178.451v2.146
			c0.136,0.016,0.284,0.027,0.444,0.035c0.159,0.008,0.335,0.013,0.527,0.013c0.56,0,1.01-0.08,1.354-0.24
			c0.345-0.16,0.517-0.456,0.517-0.887c0-0.384-0.145-0.658-0.433-0.821c-0.287-0.164-0.698-0.246-1.234-0.246H162.783z"/>
	</g>
	<rect x="117.407" y="139.004" fill="#EE3968" width="2.997" height="16.017"/>
	<rect x="191.329" y="139.004" fill="#EE3968" width="2.996" height="16.017"/>
</g>
<g>
	<line fill="none" stroke="#3399CC" stroke-width="5" stroke-miterlimit="10" x1="0" y1="145.329" x2="95.109" y2="145.329"/>
	<g>
		<polygon fill="#3399CC" points="86.801,147.829 88.238,149.018 94.734,149.018 94.734,141.641 88.238,141.641 86.801,142.844 		
			"/>
		<g>
			<polygon fill="#3399CC" stroke="#1D304B" stroke-miterlimit="10" points="120.082,154.202 101.664,154.202 94.734,152.202 
				94.734,138.457 101.643,136.457 120.082,136.457 			"/>
			<g>
				<path fill="#FFFFFF" d="M105.256,141.109v0.78h-3.465v-0.78h1.471v-1.31h-1.471v-0.781h3.465v0.781h-1.324v1.31H105.256z"/>
				<path fill="#FFFFFF" d="M103.527,145.723c-0.301,0-0.563-0.047-0.785-0.14c-0.225-0.093-0.408-0.226-0.557-0.397
					c-0.146-0.172-0.256-0.381-0.328-0.627c-0.074-0.247-0.111-0.523-0.111-0.83c0-0.141,0.006-0.304,0.018-0.49
					c0.012-0.188,0.035-0.37,0.072-0.551h3.375c0.033,0.181,0.057,0.368,0.068,0.563c0.012,0.195,0.018,0.363,0.018,0.503
					c0,0.297-0.033,0.565-0.1,0.808c-0.068,0.242-0.172,0.449-0.316,0.623c-0.143,0.173-0.326,0.307-0.549,0.399
					C104.107,145.676,103.84,145.723,103.527,145.723z M102.426,143.469c-0.002,0.036-0.006,0.078-0.006,0.127
					c-0.002,0.049-0.004,0.105-0.004,0.172c0,0.391,0.1,0.68,0.295,0.868c0.197,0.188,0.469,0.282,0.816,0.282
					c0.363,0,0.637-0.09,0.824-0.27s0.279-0.465,0.279-0.855c0-0.053,0-0.108-0.002-0.165s-0.006-0.11-0.012-0.159H102.426z"/>
				<path fill="#FFFFFF" d="M105.256,147.293c-0.109,0.061-0.246,0.129-0.406,0.208c-0.162,0.079-0.338,0.161-0.525,0.245
					c-0.189,0.086-0.381,0.17-0.578,0.254s-0.381,0.162-0.555,0.236c0.174,0.072,0.357,0.152,0.555,0.234
					c0.197,0.084,0.389,0.17,0.578,0.254c0.188,0.086,0.363,0.168,0.525,0.246c0.16,0.078,0.297,0.148,0.406,0.209v0.709
					c-0.229,0.033-0.486,0.064-0.771,0.092c-0.285,0.029-0.582,0.055-0.891,0.076s-0.617,0.041-0.928,0.061
					c-0.309,0.018-0.602,0.033-0.875,0.047v-0.76c0.338-0.01,0.703-0.023,1.1-0.041c0.398-0.016,0.797-0.041,1.201-0.074
					c-0.141-0.061-0.295-0.127-0.465-0.201c-0.17-0.072-0.34-0.146-0.51-0.219c-0.17-0.07-0.334-0.141-0.488-0.207
					s-0.287-0.125-0.396-0.172v-0.545c0.109-0.047,0.242-0.104,0.396-0.17c0.154-0.067,0.318-0.137,0.488-0.209
					c0.17-0.071,0.34-0.145,0.51-0.218s0.324-0.14,0.465-0.2c-0.404-0.033-0.803-0.059-1.201-0.075
					c-0.396-0.017-0.762-0.03-1.1-0.04v-0.76c0.273,0.014,0.566,0.029,0.875,0.047c0.311,0.019,0.619,0.039,0.928,0.061
					s0.605,0.047,0.891,0.074c0.285,0.029,0.543,0.06,0.771,0.094V147.293z"/>
				<path fill="#FFFFFF" d="M105.256,150.86v0.779h-3.465v-0.779H105.256z"/>
			</g>
		</g>
		<line fill="none" stroke="#1D304B" stroke-miterlimit="10" x1="93.238" y1="141.641" x2="93.238" y2="149.018"/>
		<line fill="none" stroke="#1D304B" stroke-miterlimit="10" x1="91.738" y1="141.641" x2="91.738" y2="149.018"/>
		<line fill="none" stroke="#1D304B" stroke-miterlimit="10" x1="90.238" y1="141.641" x2="90.238" y2="149.018"/>
		<line fill="none" stroke="#1D304B" stroke-miterlimit="10" x1="88.738" y1="141.641" x2="88.738" y2="149.018"/>
	</g>
	<g>
		<g>
			
				<line fill="none" stroke="#FFCE09" stroke-width="5" stroke-miterlimit="10" x1="142.125" y1="287.462" x2="142.125" y2="221.292"/>
		</g>
		<g>
			<polygon fill="#FFCE09" points="138.883,227.735 135.883,219.764 148.367,219.764 145.367,227.735 			"/>
			<polygon fill="#FFCE09" stroke="#F89839" stroke-width="0.869" stroke-miterlimit="10" points="134.883,206.336 149.367,206.336 
				149.367,217.735 148.367,219.764 135.883,219.764 134.883,217.735 			"/>
			<path fill="#FFCE09" stroke="#F89839" stroke-width="0.869" stroke-miterlimit="10" d="M134.883,217.848"/>
			
				<line fill="none" stroke="#F89839" stroke-width="0.8801" stroke-miterlimit="10" x1="148.367" y1="221.223" x2="135.867" y2="221.223"/>
			
				<line fill="none" stroke="#F89839" stroke-width="0.903" stroke-miterlimit="10" x1="147.617" y1="222.723" x2="136.617" y2="222.723"/>
			
				<line fill="none" stroke="#F89839" stroke-width="0.9361" stroke-miterlimit="10" x1="146.867" y1="224.223" x2="137.367" y2="224.223"/>
			
				<line fill="none" stroke="#F89839" stroke-width="0.8854" stroke-miterlimit="10" x1="146.367" y1="225.723" x2="137.867" y2="225.723"/>
			<rect x="138.494" y="226.903" fill="#F89839" width="7.186" height="3.486"/>
		</g>
	</g>
	<polyline fill="none" stroke="#996699" stroke-width="3" stroke-miterlimit="10" points="134.125,72.733 134.125,31.608 
		90.238,31.608 	"/>
	<g>
		<polygon fill="#996699" points="132.617,63.361 131.221,71.332 137.027,71.332 135.633,63.361 		"/>
		<polygon fill="#996699" stroke="#654566" stroke-width="0.75" stroke-miterlimit="10" points="130.756,84.76 137.492,84.76 
			137.492,73.361 137.027,71.332 131.221,71.332 130.756,73.361 		"/>
		<path fill="#FFCE09" stroke="#F89839" stroke-width="0.5926" stroke-miterlimit="10" d="M130.756,73.248"/>
		
			<line fill="none" stroke="#654566" stroke-width="0.75" stroke-miterlimit="10" x1="137.027" y1="69.873" x2="131.213" y2="69.873"/>
		
			<line fill="none" stroke="#654566" stroke-width="0.75" stroke-miterlimit="10" x1="136.678" y1="68.373" x2="131.563" y2="68.373"/>
		
			<line fill="none" stroke="#654566" stroke-width="0.75" stroke-miterlimit="10" x1="136.33" y1="66.873" x2="131.912" y2="66.873"/>
		
			<line fill="none" stroke="#654566" stroke-width="0.75" stroke-miterlimit="10" x1="136.098" y1="65.373" x2="132.145" y2="65.373"/>
		<rect x="132.436" y="60.707" fill="#654566" width="3.342" height="3.486"/>
	</g>
	<g>
		<polygon fill="#6EC498" stroke="#579975" stroke-miterlimit="10" points="180.281,229.954 162.854,229.954 164.854,210.772 
			178.281,210.772 		"/>
		<g>
			<g>
				<g>
					<path fill="none" stroke="#579975" stroke-width="2" stroke-miterlimit="10" d="M181.123,240.377
						c-5.281,5.279-13.83,5.279-19.113,0"/>
					<path fill="none" stroke="#579975" stroke-width="2" stroke-miterlimit="10" d="M178.625,237.877
						c-3.902,3.898-10.215,3.898-14.115,0"/>
					<path fill="none" stroke="#579975" stroke-width="2" stroke-miterlimit="10" d="M175.697,235.184
						c-2.281,2.283-5.979,2.283-8.262,0"/>
				</g>
			</g>
		</g>
	</g>
	<g>
		
			<rect x="109.11" y="91.572" fill="#FFFFFF" stroke="#EF4069" stroke-width="0.5" stroke-miterlimit="10" width="87.503" height="112.091"/>
		<g>
			<g>
				<g>
					<path fill="#010101" stroke="#FFFFFF" stroke-width="0.2061" stroke-miterlimit="10" d="M152.504,138.37"/>
				</g>
				<g>
					<path fill="#010101" stroke="#FFFFFF" stroke-width="0.2061" stroke-miterlimit="10" d="M152.504,138.37"/>
				</g>
				<g>
					<path fill="#010101" stroke="#FFFFFF" stroke-width="0.2061" stroke-miterlimit="10" d="M152.504,138.37"/>
				</g>
				<g>
					<path fill="#010101" stroke="#FFFFFF" stroke-width="0.2061" stroke-miterlimit="10" d="M152.504,138.37"/>
				</g>
			</g>
			<polyline fill="#3399CC" points="178.262,153.18 165.383,160.907 152.506,168.633 152.506,153.18 152.506,137.727 			"/>
			<polyline fill="#996699" points="178.262,153.18 178.262,137.727 178.262,122.272 165.398,130 152.506,137.727 			"/>
			<polyline fill="#F89839" points="152.508,106.819 139.627,114.545 126.748,122.272 139.629,130 152.508,137.727 			"/>
			<polyline fill="#EE3968" points="152.506,106.819 165.383,114.545 178.262,122.272 165.383,130 152.506,137.727 			"/>
			<polyline fill="#FFCE09" points="126.748,153.18 139.629,160.907 152.508,168.633 152.508,153.18 152.508,137.727 			"/>
			<polyline fill="#6EC498" points="126.75,153.18 126.75,137.727 126.75,122.272 139.627,130 152.506,137.727 			"/>
			<g>
				<g>
					<g>
						
							<line fill="none" stroke="#FFFFFF" stroke-width="0.6182" stroke-miterlimit="10" x1="152.51" y1="106.819" x2="152.51" y2="107.54"/>
						
							<line fill="none" stroke="#FFFFFF" stroke-width="0.6182" stroke-miterlimit="10" stroke-dasharray="1.4031,1.4031" x1="152.51" y1="108.943" x2="152.504" y2="136.304"/>
						
							<line fill="none" stroke="#FFFFFF" stroke-width="0.6182" stroke-miterlimit="10" x1="152.504" y1="137.006" x2="152.504" y2="137.727"/>
					</g>
				</g>
				<g>
					<g>
						
							<line fill="none" stroke="#FFFFFF" stroke-width="0.6182" stroke-miterlimit="10" x1="152.504" y1="137.727" x2="153.122" y2="138.098"/>
						
							<line fill="none" stroke="#FFFFFF" stroke-width="0.6182" stroke-miterlimit="10" stroke-dasharray="1.505,1.505" x1="154.413" y1="138.873" x2="176.998" y2="152.422"/>
						
							<line fill="none" stroke="#FFFFFF" stroke-width="0.6182" stroke-miterlimit="10" x1="177.644" y1="152.809" x2="178.262" y2="153.18"/>
					</g>
				</g>
				<g>
					<g>
						
							<line fill="none" stroke="#FFFFFF" stroke-width="0.6182" stroke-miterlimit="10" x1="152.504" y1="137.727" x2="151.886" y2="138.098"/>
						
							<line fill="none" stroke="#FFFFFF" stroke-width="0.6182" stroke-miterlimit="10" stroke-dasharray="1.5049,1.5049" x1="150.595" y1="138.873" x2="128.012" y2="152.422"/>
						
							<line fill="none" stroke="#FFFFFF" stroke-width="0.6182" stroke-miterlimit="10" x1="127.366" y1="152.809" x2="126.748" y2="153.18"/>
					</g>
				</g>
			</g>
			<g>
				
					<line fill="none" stroke="#FFFFFF" stroke-width="0.6182" stroke-miterlimit="10" x1="152.51" y1="168.633" x2="152.504" y2="137.727"/>
				
					<line fill="none" stroke="#FFFFFF" stroke-width="0.6182" stroke-miterlimit="10" x1="152.504" y1="137.727" x2="178.262" y2="122.272"/>
				
					<line fill="none" stroke="#FFFFFF" stroke-width="0.6182" stroke-miterlimit="10" x1="152.504" y1="137.727" x2="126.748" y2="122.272"/>
			</g>
		</g>
		
			<rect x="114.111" y="206.69" fill="#FFFFFF" stroke="#EF4069" stroke-width="0.5" stroke-miterlimit="10" width="77.145" height="6.287"/>
		
			<rect x="114.111" y="82.401" fill="#FFFFFF" stroke="#EF4069" stroke-width="0.5" stroke-miterlimit="10" width="77.145" height="6.287"/>
		
			<line fill="none" stroke="#EE3968" stroke-width="5.3711" stroke-miterlimit="10" x1="107.408" y1="89.039" x2="198.07" y2="89.039"/>
		
			<line fill="none" stroke="#EE3968" stroke-width="5.3711" stroke-miterlimit="10" x1="107.408" y1="206.198" x2="198.07" y2="206.198"/>
		<g>
			<path d="M145.324,175.008h2.006v8.91h-2.006v-3.781h-3.369v3.781h-2.006v-8.91h2.006v3.406h3.369V175.008z"/>
			<path d="M152.871,184.098c-0.625,0-1.166-0.088-1.619-0.264c-0.455-0.176-0.83-0.42-1.125-0.732
				c-0.297-0.314-0.516-0.686-0.656-1.119c-0.142-0.434-0.213-0.91-0.213-1.434v-5.541h2.006v5.373c0,0.361,0.041,0.668,0.123,0.92
				c0.081,0.252,0.192,0.459,0.334,0.617s0.313,0.271,0.514,0.34c0.201,0.07,0.423,0.104,0.662,0.104
				c0.489,0,0.886-0.15,1.189-0.449c0.305-0.301,0.457-0.811,0.457-1.531v-5.373h2.006v5.541c0,0.523-0.073,1.002-0.219,1.439
				c-0.146,0.438-0.369,0.813-0.668,1.125c-0.301,0.313-0.682,0.555-1.145,0.727S153.506,184.098,152.871,184.098z"/>
			<path d="M161.447,184.034c-0.488,0-0.975-0.016-1.459-0.045c-0.484-0.031-0.988-0.102-1.511-0.213v-8.641
				c0.411-0.076,0.861-0.135,1.35-0.172c0.489-0.039,0.942-0.059,1.363-0.059c0.565,0,1.087,0.041,1.562,0.121
				c0.477,0.082,0.885,0.221,1.229,0.418c0.343,0.197,0.611,0.457,0.804,0.779c0.192,0.32,0.289,0.717,0.289,1.189
				c0,0.711-0.343,1.271-1.028,1.684c0.565,0.215,0.951,0.506,1.156,0.875c0.207,0.367,0.309,0.783,0.309,1.246
				c0,0.936-0.34,1.637-1.021,2.109C163.807,183.797,162.793,184.034,161.447,184.034z M160.432,178.504h0.977
				c0.617,0,1.059-0.078,1.325-0.238c0.266-0.158,0.398-0.412,0.398-0.764c0-0.361-0.138-0.613-0.411-0.76
				c-0.275-0.145-0.678-0.219-1.209-0.219c-0.172,0-0.355,0.002-0.553,0.008c-0.197,0.004-0.373,0.014-0.527,0.031V178.504z
				 M160.432,180.036v2.301c0.146,0.018,0.305,0.029,0.476,0.039c0.171,0.008,0.36,0.012,0.565,0.012
				c0.601,0,1.085-0.086,1.453-0.256c0.369-0.172,0.553-0.49,0.553-0.953c0-0.41-0.154-0.705-0.463-0.881
				c-0.309-0.174-0.75-0.262-1.324-0.262H160.432z"/>
		</g>
		<rect x="111.76" y="137.725" fill="#EE3968" width="3.215" height="17.178"/>
		<rect x="191.05" y="137.725" fill="#EE3968" width="3.214" height="17.178"/>
	</g>
	<g>
		<path fill="#FFFFFF" d="M168.266,222.895c0.039,0.137,0.084,0.291,0.132,0.463s0.1,0.35,0.155,0.533
			c0.055,0.182,0.109,0.365,0.166,0.549s0.112,0.354,0.166,0.51c0.043-0.17,0.088-0.354,0.133-0.555
			c0.045-0.199,0.088-0.406,0.128-0.619c0.04-0.215,0.079-0.426,0.118-0.639c0.038-0.211,0.074-0.416,0.107-0.611h0.811
			c-0.117,0.58-0.252,1.168-0.404,1.764c-0.153,0.598-0.318,1.164-0.496,1.701h-0.713c-0.117-0.32-0.23-0.656-0.34-1.008
			s-0.218-0.705-0.324-1.059c-0.107,0.354-0.214,0.707-0.32,1.059c-0.107,0.352-0.219,0.688-0.336,1.008h-0.713
			c-0.178-0.537-0.342-1.104-0.494-1.701c-0.152-0.596-0.287-1.184-0.404-1.764h0.845c0.034,0.195,0.07,0.4,0.11,0.611
			c0.041,0.213,0.082,0.424,0.126,0.639c0.044,0.213,0.088,0.42,0.134,0.619c0.045,0.201,0.091,0.385,0.138,0.555
			c0.06-0.162,0.118-0.336,0.175-0.52s0.112-0.367,0.166-0.551c0.053-0.182,0.103-0.359,0.147-0.529s0.086-0.322,0.122-0.455
			H168.266z"/>
		<path fill="#FFFFFF" d="M171.441,222.6c0,0.137-0.045,0.244-0.133,0.322s-0.192,0.117-0.313,0.117
			c-0.119,0-0.225-0.039-0.313-0.117s-0.133-0.186-0.133-0.322s0.045-0.244,0.133-0.322s0.193-0.117,0.313-0.117
			c0.12,0,0.225,0.039,0.313,0.117S171.441,222.463,171.441,222.6z M171.371,225.991h-0.744v-2.631h0.744V225.991z"/>
		<path fill="#FFFFFF" d="M171.846,224.161h1.451v0.674h-1.451V224.161z"/>
		<path fill="#FFFFFF" d="M173.821,225.991v-3.465h2.32v0.654h-1.54v0.725h1.369v0.656h-1.369v1.43H173.821z"/>
		<path fill="#FFFFFF" d="M177.457,222.6c0,0.137-0.045,0.244-0.133,0.322s-0.193,0.117-0.313,0.117
			c-0.12,0-0.225-0.039-0.313-0.117s-0.133-0.186-0.133-0.322s0.045-0.244,0.133-0.322s0.192-0.117,0.313-0.117
			c0.119,0,0.225,0.039,0.313,0.117S177.457,222.463,177.457,222.6z M177.387,225.991h-0.745v-2.631h0.745V225.991z"/>
	</g>
</g>
<g>
	<g>
		<path fill="none" d="M185.674,157.228"/>
	</g>
	<g>
		<path fill="none" d="M137.727,128.459"/>
	</g>
	<g>
		<path fill="none" d="M137.727,157.228"/>
	</g>
	<g>
		<path fill="none" d="M185.674,128.459"/>
	</g>
</g>
<g>
	<rect x="55.75" y="19.106" fill="#996699" stroke="#541538" stroke-miterlimit="10" width="34.488" height="49.267"/>
	<g>
		<path fill="#FFFFFF" d="M68.719,46.495c0-0.29-0.065-0.547-0.195-0.772c-0.13-0.225-0.355-0.413-0.675-0.563
			c-0.32-0.15-0.75-0.265-1.29-0.345c-0.54-0.08-1.22-0.12-2.04-0.12c0.11-0.93,0.2-1.875,0.27-2.835
			c0.07-0.96,0.125-1.86,0.165-2.7h5.625v1.875h-3.75c-0.02,0.36-0.042,0.708-0.067,1.042s-0.052,0.628-0.083,0.877
			c1.46,0.1,2.538,0.442,3.232,1.028c0.695,0.585,1.042,1.397,1.042,2.438c0,0.48-0.085,0.925-0.255,1.335s-0.425,0.765-0.765,1.065
			c-0.34,0.3-0.768,0.535-1.283,0.705s-1.118,0.255-1.808,0.255c-0.27,0-0.553-0.018-0.847-0.053
			c-0.295-0.035-0.58-0.08-0.855-0.135c-0.275-0.055-0.522-0.113-0.742-0.172c-0.22-0.06-0.39-0.12-0.51-0.18l0.405-1.845
			c0.25,0.11,0.58,0.218,0.99,0.323s0.9,0.157,1.47,0.157c0.69,0,1.19-0.137,1.5-0.412C68.563,47.188,68.719,46.865,68.719,46.495z"
			/>
		<path fill="#FFFFFF" d="M76.146,49.555c-0.414-0.873-0.822-1.779-1.224-2.718c-0.403-0.939-0.785-1.868-1.147-2.787
			c-0.362-0.919-0.695-1.799-0.999-2.639c-0.304-0.841-0.566-1.591-0.787-2.25h2.58c0.194,0.602,0.411,1.25,0.649,1.944
			s0.481,1.385,0.728,2.075c0.247,0.689,0.484,1.349,0.71,1.981c0.227,0.631,0.443,1.176,0.65,1.636
			c0.195-0.457,0.409-1,0.641-1.631s0.471-1.292,0.718-1.981c0.247-0.689,0.489-1.38,0.727-2.075
			c0.238-0.694,0.455-1.343,0.65-1.948h2.491c-0.233,0.663-0.5,1.414-0.804,2.252c-0.303,0.839-0.634,1.718-0.995,2.638
			c-0.36,0.92-0.74,1.85-1.139,2.791c-0.4,0.94-0.806,1.845-1.218,2.714H76.146z"/>
	</g>
</g>
<g>
	<path d="M21.838,159.242c0.483-0.2,0.987-0.43,1.513-0.688c0.524-0.259,1.037-0.542,1.537-0.851c0.5-0.308,0.979-0.633,1.438-0.975
		c0.458-0.342,0.871-0.704,1.237-1.088h2.601v17.325h-3.726v-12.475c-0.5,0.333-1.059,0.637-1.675,0.912
		c-0.617,0.275-1.217,0.513-1.8,0.713L21.838,159.242z"/>
</g>
<g>
	<path d="M178.119,24.292c0,0.633-0.125,1.242-0.375,1.825c-0.25,0.584-0.574,1.146-0.975,1.688c-0.4,0.542-0.85,1.063-1.35,1.563
		s-0.992,0.975-1.477,1.425c-0.25,0.233-0.52,0.496-0.813,0.788c-0.291,0.292-0.57,0.587-0.836,0.887
		c-0.268,0.3-0.506,0.58-0.713,0.837c-0.209,0.259-0.338,0.471-0.389,0.638h7.451v3.125h-11.551c-0.033-0.183-0.049-0.417-0.049-0.7
		c0-0.283,0-0.483,0-0.6c0-0.8,0.129-1.533,0.387-2.2c0.258-0.667,0.596-1.288,1.012-1.862c0.418-0.575,0.889-1.113,1.414-1.613
		c0.523-0.5,1.045-1,1.563-1.5c0.398-0.383,0.773-0.746,1.125-1.087c0.35-0.341,0.658-0.675,0.924-1
		c0.268-0.325,0.475-0.65,0.625-0.975c0.15-0.325,0.225-0.654,0.225-0.987c0-0.733-0.207-1.25-0.625-1.55
		c-0.416-0.3-0.934-0.45-1.549-0.45c-0.451,0-0.871,0.071-1.264,0.212c-0.391,0.142-0.75,0.309-1.074,0.5
		c-0.324,0.192-0.604,0.384-0.838,0.575c-0.232,0.191-0.408,0.346-0.525,0.462l-1.85-2.6c0.734-0.683,1.588-1.246,2.563-1.688
		c0.975-0.441,2.021-0.663,3.139-0.663c1.016,0,1.891,0.117,2.625,0.35c0.732,0.233,1.336,0.563,1.813,0.987
		c0.475,0.425,0.824,0.942,1.049,1.55S178.119,23.525,178.119,24.292z"/>
</g>
<g>
	<path d="M171.682,271.341c-0.451,0-0.926-0.029-1.426-0.088s-0.982-0.137-1.449-0.237c-0.467-0.1-0.893-0.208-1.275-0.325
		c-0.383-0.116-0.684-0.225-0.9-0.324l0.725-3.101c0.434,0.184,0.988,0.38,1.664,0.588c0.674,0.208,1.512,0.313,2.512,0.313
		c1.15,0,1.992-0.217,2.525-0.65c0.533-0.433,0.799-1.017,0.799-1.75c0-0.45-0.096-0.829-0.287-1.138
		c-0.191-0.308-0.453-0.558-0.787-0.75c-0.334-0.191-0.729-0.324-1.188-0.399s-0.945-0.112-1.463-0.112h-1.449v-3h1.65
		c0.365,0,0.721-0.033,1.063-0.101c0.34-0.066,0.645-0.179,0.912-0.337c0.266-0.158,0.479-0.375,0.637-0.65s0.238-0.621,0.238-1.037
		c0-0.316-0.066-0.592-0.201-0.825c-0.133-0.233-0.303-0.425-0.512-0.575s-0.449-0.263-0.725-0.338
		c-0.275-0.074-0.555-0.112-0.838-0.112c-0.717,0-1.379,0.108-1.988,0.325c-0.607,0.217-1.162,0.483-1.662,0.8l-1.324-2.725
		c0.266-0.167,0.578-0.342,0.938-0.525c0.357-0.183,0.754-0.35,1.188-0.5c0.434-0.149,0.895-0.274,1.387-0.375
		c0.492-0.1,1.014-0.149,1.563-0.149c1.018,0,1.896,0.12,2.639,0.361c0.74,0.242,1.354,0.583,1.836,1.023
		c0.484,0.441,0.842,0.957,1.076,1.548c0.232,0.591,0.35,1.235,0.35,1.935c0,0.683-0.191,1.344-0.574,1.984
		c-0.385,0.641-0.9,1.128-1.551,1.461c0.9,0.367,1.596,0.914,2.088,1.64c0.49,0.726,0.736,1.598,0.736,2.615
		c0,0.802-0.133,1.54-0.398,2.216c-0.268,0.676-0.684,1.26-1.25,1.752c-0.568,0.492-1.289,0.876-2.164,1.151
		S172.881,271.341,171.682,271.341z"/>
</g>
<g>
	<path d="M30.638,19.541v10.4h1.851v3.05h-1.851v3.875h-3.65v-3.875h-7.475v-2.725c0.366-0.733,0.825-1.563,1.375-2.487
		c0.55-0.925,1.163-1.875,1.837-2.85c0.675-0.975,1.388-1.929,2.138-2.862s1.5-1.775,2.25-2.525H30.638z M26.988,24.091
		c-0.65,0.85-1.342,1.775-2.075,2.775s-1.35,2.025-1.85,3.075h3.925V24.091z"/>
</g>
<line fill="none" stroke="#541538" stroke-miterlimit="10" x1="55.75" y1="23.441" x2="40.833" y2="23.441"/>
<line fill="none" stroke="#541538" stroke-miterlimit="10" x1="55.75" y1="31.608" x2="40.833" y2="31.608"/>
</svg>
