<?xml version="1.0" encoding="utf-8"?>
<!-- Generator: Adobe Illustrator 16.0.0, SVG Export Plug-In . SVG Version: 6.00 Build 0)  -->
<!DOCTYPE svg PUBLIC "-//W3C//DTD SVG 1.1//EN" "http://www.w3.org/Graphics/SVG/1.1/DTD/svg11.dtd">
<svg version="1.1" id="Layer_1" xmlns="http://www.w3.org/2000/svg" xmlns:xlink="http://www.w3.org/1999/xlink" x="0px" y="0px"
	 width="600px" height="400px" viewBox="0 0 600 400" enable-background="new 0 0 600 400" xml:space="preserve">
<g>
	<path fill="none" d="M230,265.341"/>
</g>
<path id="wireless_mouse" d="M401.5,72.263c0-20.856-16.907-37.763-37.763-37.763h-0.475c-20.855,0-37.763,16.907-37.763,37.763
	v62.475c0,20.856,16.907,37.763,37.763,37.763h0.475c20.855,0,37.763-16.907,37.763-37.763V72.263z M368.5,61.203
	c0,3.067-2.434,5.552-5.5,5.552s-5.5-2.485-5.5-5.552V46.86c0-3.066,2.434-5.552,5.5-5.552s5.5,2.486,5.5,5.552V61.203z"/>
<g>
	<path d="M186.606,47.055c-21.767,4.266-42.31-0.013-42.31-0.013s-7.322-2.173-9.084-3.528c-1.763-1.358-9.322-4.818-10.339-5.327
		c-1.017-0.509-2.407-2.951-2.407-2.951c-17.423-3.938-32.004,7.313-32.207,7.923c-0.203,0.609-0.883,4.067-0.883,4.067
		c-14.247,25.423-21.313,69.764-21.313,69.764c-3.263,30.645-1.627,53.7,12.188,53.435c13.815-0.267,16.817-1.354,35.536-18.164
		c18.717-16.81,41.229-17.072,49.935-16.527c8.707,0.545,28.992-2.703,51.226,18.188c22.232,20.889,34.167,16.823,38.507,14.926
		c4.337-1.896,16.82-20.334,4.361-69.699c-12.462-49.365-17.613-51.535-17.613-51.535c0.001-0.543-0.947-4.476-0.947-4.476
		c-15.863-12.48-31.866-7.875-31.866-7.875s-2.443,2.982-2.917,3.592c-0.474,0.61-5.628,2.372-10.307,4.81
		C191.489,46.106,186.606,47.055,186.606,47.055z"/>
	<path fill="#656665" d="M89.376,47.228c0,0,0.68-3.458,0.883-4.067c0.203-0.61,14.784-11.862,32.207-7.923
		c0,0,1.39,2.442,2.407,2.951C124.873,38.188,106.67,34.215,89.376,47.228z"/>
	<path fill="#656665" d="M242.204,47.615c0.429,0.333-0.947-4.476-0.947-4.476c-15.863-12.48-31.866-7.875-31.866-7.875
		s-2.443,2.982-2.917,3.592C206.475,38.857,225.257,34.438,242.204,47.615z"/>
	<path fill="#414042" d="M149.17,72.672c0,2.191-1.89,3.967-4.223,3.966h-1.524c-2.333-0.001-4.221-1.776-4.219-3.967l0,0
		c0-2.191,1.891-3.966,4.222-3.966l1.525,0.001C147.281,68.706,149.17,70.483,149.17,72.672L149.17,72.672z"/>
	<path fill="#414042" d="M192.25,72.687c0,2.191-1.893,3.966-4.222,3.964h-1.526c-2.331,0-4.22-1.776-4.218-3.967l0,0
		c0-2.19,1.891-3.967,4.222-3.966h1.524C190.361,68.72,192.25,70.495,192.25,72.687L192.25,72.687z"/>
	<g>
		<ellipse fill="#FFCE0E" cx="224.503" cy="55.939" rx="6.941" ry="6.991"/>
		<ellipse fill="#EF3C68" cx="208.902" cy="71.58" rx="6.941" ry="6.991"/>
		<ellipse fill="#70C599" cx="224.591" cy="87.377" rx="6.941" ry="6.991"/>
		<ellipse fill="#3499CD" cx="240.094" cy="71.59" rx="6.941" ry="6.99"/>
	</g>
	<g>
		
			<ellipse transform="matrix(1 2.757794e-004 -2.757794e-004 1 0.0197 -0.0292)" fill="#414042" cx="105.825" cy="71.286" rx="20.361" ry="20.494"/>
		<ellipse fill="#656665" stroke="#000000" stroke-width="1.6227" cx="105.642" cy="71.236" rx="14.035" ry="13.426"/>
		<g>
			<circle cx="105.741" cy="62.76" r="0.785"/>
			<circle cx="97.67" cy="70.76" r="0.784"/>
			<circle cx="105.736" cy="78.693" r="0.784"/>
			<circle cx="113.604" cy="70.763" r="0.785"/>
		</g>
	</g>
	<g>
		
			<ellipse transform="matrix(1 3.117431e-004 -3.117431e-004 1 0.0336 -0.0604)" fill="#414042" cx="193.852" cy="107.591" rx="20.362" ry="20.493"/>
		<path fill="#656665" stroke="#000000" stroke-width="1.6227" d="M207.704,107.545c-0.003,7.415-6.286,13.423-14.042,13.421
			c-7.752-0.002-13.283-5.965-13.281-13.378c0.004-7.416,5.541-13.475,13.291-13.471C201.422,94.118,207.706,100.13,207.704,107.545
			z"/>
		<g>
			<circle cx="194.56" cy="99.266" r="0.785"/>
			<path d="M187.274,107.264c0,0.431-0.352,0.781-0.784,0.779c-0.433-0.001-0.783-0.348-0.786-0.78
				c0.002-0.431,0.353-0.78,0.785-0.779C186.923,106.484,187.275,106.834,187.274,107.264z"/>
			<circle cx="194.556" cy="115.2" r="0.783"/>
			<path d="M203.206,107.269c0,0.433-0.35,0.78-0.784,0.78c-0.432,0-0.783-0.35-0.78-0.78c-0.002-0.43,0.349-0.779,0.782-0.78
				C202.855,106.489,203.206,106.838,203.206,107.269z"/>
		</g>
	</g>
	<g>
		
			<ellipse transform="matrix(1 3.121620e-004 -3.121620e-004 1 0.0332 -0.0421)" fill="#414042" cx="134.852" cy="106.286" rx="21.899" ry="21.779"/>
		<path fill="#656665" stroke="#000000" stroke-width="1.6227" d="M151.241,106.387c-0.003,9.048-7.561,16.381-16.879,16.375
			c-9.32,0-15.97-7.274-15.967-16.323c0.002-9.049,6.658-16.442,15.979-16.44C143.691,90.002,151.245,97.338,151.241,106.387z"/>
		<path fill="none" stroke="#000000" stroke-width="1.6227" d="M119.057,101.751c0,0,7.866,0.137,8.951-1.422
			c1.084-1.557,1.885-3.57,1.478-9.605c0,0,5.509-2.123,10.459,0.32c0,0-0.681,5.559,0.606,7.796
			c1.29,2.239,1.424,2.583,9.967,2.922c0,0,1.693,5.219-0.342,10.236c0,0-2.915-0.273-7.05,0.473
			c-4.137,0.745-3.258,8.677-3.191,9.426c0,0-4.408,2.099-10.441-0.005c0,0,0.816-6.576-1.625-8.681c0,0-0.609-1.356-8.475-1.289
			C119.393,111.922,117.293,108.124,119.057,101.751z"/>
	</g>
</g>
<g>
	<g>
		<polygon fill="#70C599" stroke="#579975" stroke-miterlimit="10" points="548.936,264.2 531.508,264.2 533.508,245.019 
			546.936,245.019 		"/>
		<g>
			<g>
				<g>
					<path fill="none" stroke="#579975" stroke-width="2" stroke-miterlimit="10" d="M549.779,274.622
						c-5.283,5.281-13.832,5.281-19.113,0"/>
					<path fill="none" stroke="#579975" stroke-width="2" stroke-miterlimit="10" d="M547.279,272.122c-3.9,3.9-10.213,3.9-14.115,0
						"/>
					<path fill="none" stroke="#579975" stroke-width="2" stroke-miterlimit="10" d="M544.354,269.431
						c-2.283,2.283-5.98,2.283-8.264,0"/>
				</g>
			</g>
		</g>
	</g>
	<g>
		<path fill="#FFFFFF" d="M536.92,257.142c0.041,0.137,0.084,0.291,0.133,0.461c0.049,0.172,0.1,0.35,0.154,0.533
			s0.111,0.367,0.168,0.551s0.111,0.354,0.164,0.51c0.045-0.17,0.088-0.355,0.133-0.555c0.047-0.201,0.088-0.408,0.129-0.621
			s0.08-0.426,0.117-0.637c0.039-0.213,0.076-0.416,0.109-0.613h0.811c-0.117,0.58-0.254,1.168-0.406,1.766
			c-0.152,0.596-0.316,1.162-0.494,1.699h-0.715c-0.115-0.32-0.229-0.656-0.338-1.008c-0.111-0.352-0.219-0.703-0.324-1.057
			c-0.107,0.354-0.215,0.705-0.322,1.057c-0.105,0.352-0.217,0.688-0.334,1.008h-0.713c-0.178-0.537-0.344-1.104-0.494-1.699
			c-0.152-0.598-0.287-1.186-0.404-1.766h0.844c0.033,0.197,0.07,0.4,0.111,0.613c0.039,0.211,0.082,0.424,0.125,0.637
			s0.088,0.42,0.133,0.621c0.045,0.199,0.092,0.385,0.139,0.555c0.061-0.164,0.119-0.338,0.176-0.52
			c0.057-0.184,0.111-0.367,0.164-0.551c0.055-0.184,0.104-0.359,0.148-0.529s0.086-0.322,0.123-0.455H536.92z"/>
		<path fill="#FFFFFF" d="M540.098,256.847c0,0.137-0.045,0.244-0.133,0.322s-0.193,0.117-0.313,0.117
			c-0.121,0-0.225-0.039-0.313-0.117s-0.133-0.186-0.133-0.322s0.045-0.244,0.133-0.324c0.088-0.078,0.191-0.117,0.313-0.117
			c0.119,0,0.225,0.039,0.313,0.117C540.053,256.603,540.098,256.71,540.098,256.847z M540.027,260.235h-0.746v-2.629h0.746V260.235
			z"/>
		<path fill="#FFFFFF" d="M540.502,258.405h1.449v0.676h-1.449V258.405z"/>
		<path fill="#FFFFFF" d="M542.477,260.235v-3.465h2.32v0.656h-1.539v0.725h1.369v0.654h-1.369v1.43H542.477z"/>
		<path fill="#FFFFFF" d="M546.111,256.847c0,0.137-0.043,0.244-0.131,0.322c-0.09,0.078-0.193,0.117-0.313,0.117
			c-0.121,0-0.225-0.039-0.313-0.117c-0.09-0.078-0.133-0.186-0.133-0.322s0.043-0.244,0.133-0.324
			c0.088-0.078,0.191-0.117,0.313-0.117c0.119,0,0.223,0.039,0.313,0.117C546.068,256.603,546.111,256.71,546.111,256.847z
			 M546.043,260.235h-0.746v-2.629h0.746V260.235z"/>
	</g>
	<g>
		
			<rect x="480.877" y="130.553" fill="#FFFFFF" stroke="#EF4069" stroke-width="0.5163" stroke-miterlimit="10" width="87.174" height="111.667"/>
		<g>
			<g>
				<g>
					<path fill="#010101" stroke="#FFFFFF" stroke-width="0.2053" stroke-miterlimit="10" d="M524.107,177.175"/>
				</g>
				<g>
					<path fill="#010101" stroke="#FFFFFF" stroke-width="0.2053" stroke-miterlimit="10" d="M524.107,177.175"/>
				</g>
				<g>
					<path fill="#010101" stroke="#FFFFFF" stroke-width="0.2053" stroke-miterlimit="10" d="M524.107,177.175"/>
				</g>
				<g>
					<path fill="#010101" stroke="#FFFFFF" stroke-width="0.2053" stroke-miterlimit="10" d="M524.107,177.175"/>
				</g>
			</g>
			<polyline fill="#3499CD" points="549.768,191.929 536.938,199.626 524.107,207.324 524.107,191.929 524.107,176.533 			"/>
			<polyline fill="#996699" points="549.768,191.929 549.768,176.533 549.768,161.138 536.953,168.836 524.107,176.533 			"/>
			<polyline fill="#F8993A" points="524.111,145.742 511.279,153.439 498.447,161.138 511.281,168.836 524.111,176.533 			"/>
			<polyline fill="#EF3C68" points="524.107,145.742 536.936,153.439 549.768,161.138 536.938,168.836 524.107,176.533 			"/>
			<polyline fill="#FFCE0E" points="498.447,191.929 511.281,199.626 524.111,207.324 524.111,191.929 524.111,176.533 			"/>
			<polyline fill="#70C599" points="498.449,191.929 498.449,176.533 498.449,161.138 511.279,168.836 524.107,176.533 			"/>
			<g>
				<g>
					<g>
						
							<line fill="none" stroke="#FFFFFF" stroke-width="0.6158" stroke-miterlimit="10" x1="524.113" y1="145.742" x2="524.113" y2="146.46"/>
						
							<line fill="none" stroke="#FFFFFF" stroke-width="0.6158" stroke-miterlimit="10" stroke-dasharray="1.3978,1.3978" x1="524.113" y1="147.858" x2="524.107" y2="175.116"/>
						
							<line fill="none" stroke="#FFFFFF" stroke-width="0.6158" stroke-miterlimit="10" x1="524.107" y1="175.815" x2="524.107" y2="176.533"/>
					</g>
				</g>
				<g>
					<g>
						
							<line fill="none" stroke="#FFFFFF" stroke-width="0.6158" stroke-miterlimit="10" x1="524.107" y1="176.533" x2="524.724" y2="176.903"/>
						
							<line fill="none" stroke="#FFFFFF" stroke-width="0.6158" stroke-miterlimit="10" stroke-dasharray="1.4993,1.4993" x1="526.009" y1="177.674" x2="548.509" y2="191.173"/>
						
							<line fill="none" stroke="#FFFFFF" stroke-width="0.6158" stroke-miterlimit="10" x1="549.151" y1="191.559" x2="549.768" y2="191.929"/>
					</g>
				</g>
				<g>
					<g>
						
							<line fill="none" stroke="#FFFFFF" stroke-width="0.6158" stroke-miterlimit="10" x1="524.107" y1="176.533" x2="523.491" y2="176.903"/>
						
							<line fill="none" stroke="#FFFFFF" stroke-width="0.6158" stroke-miterlimit="10" stroke-dasharray="1.4993,1.4993" x1="522.206" y1="177.674" x2="499.706" y2="191.173"/>
						
							<line fill="none" stroke="#FFFFFF" stroke-width="0.6158" stroke-miterlimit="10" x1="499.063" y1="191.559" x2="498.447" y2="191.929"/>
					</g>
				</g>
			</g>
			<g>
				
					<line fill="none" stroke="#FFFFFF" stroke-width="0.6158" stroke-miterlimit="10" x1="524.113" y1="207.324" x2="524.107" y2="176.533"/>
				
					<line fill="none" stroke="#FFFFFF" stroke-width="0.6158" stroke-miterlimit="10" x1="524.107" y1="176.533" x2="549.768" y2="161.138"/>
				
					<line fill="none" stroke="#FFFFFF" stroke-width="0.6158" stroke-miterlimit="10" x1="524.107" y1="176.533" x2="498.447" y2="161.138"/>
			</g>
		</g>
		
			<rect x="485.859" y="245.235" fill="#FFFFFF" stroke="#EF4069" stroke-width="0.5163" stroke-miterlimit="10" width="76.854" height="6.264"/>
		
			<rect x="485.859" y="121.417" fill="#FFFFFF" stroke="#EF4069" stroke-width="0.5163" stroke-miterlimit="10" width="76.854" height="6.264"/>
		
			<line fill="none" stroke="#EF3C68" stroke-width="5.3508" stroke-miterlimit="10" x1="479.182" y1="128.029" x2="569.5" y2="128.029"/>
		
			<line fill="none" stroke="#EF3C68" stroke-width="5.3508" stroke-miterlimit="10" x1="479.182" y1="244.745" x2="569.5" y2="244.745"/>
		<g>
			<path d="M516.954,213.674h1.998v8.876h-1.998v-3.766h-3.356v3.766H511.6v-8.876h1.998v3.394h3.356V213.674z"/>
			<path d="M524.473,222.729c-0.624,0-1.161-0.088-1.614-0.263c-0.452-0.175-0.826-0.418-1.12-0.73
				c-0.295-0.312-0.513-0.683-0.653-1.114c-0.142-0.431-0.212-0.907-0.212-1.428v-5.521h1.998v5.354
				c0,0.358,0.041,0.664,0.122,0.916s0.192,0.457,0.333,0.615s0.312,0.271,0.513,0.339c0.2,0.068,0.42,0.103,0.659,0.103
				c0.487,0,0.882-0.149,1.185-0.448c0.304-0.299,0.455-0.807,0.455-1.524v-5.354h1.998v5.521c0,0.521-0.072,0.999-0.218,1.435
				s-0.367,0.809-0.666,1.12c-0.299,0.313-0.679,0.554-1.14,0.725C525.651,222.644,525.104,222.729,524.473,222.729z"/>
			<path d="M533.016,222.665c-0.486,0-0.972-0.015-1.453-0.045c-0.483-0.029-0.984-0.1-1.506-0.211v-8.607
				c0.41-0.077,0.858-0.135,1.346-0.173c0.486-0.039,0.938-0.058,1.357-0.058c0.563,0,1.082,0.04,1.557,0.121
				c0.474,0.081,0.881,0.22,1.223,0.416c0.342,0.197,0.608,0.455,0.801,0.775s0.288,0.716,0.288,1.185
				c0,0.709-0.342,1.269-1.024,1.679c0.563,0.213,0.947,0.504,1.152,0.87c0.205,0.368,0.308,0.782,0.308,1.243
				c0,0.931-0.34,1.631-1.019,2.101S534.356,222.665,533.016,222.665z M532.004,217.157h0.974c0.614,0,1.055-0.079,1.319-0.236
				c0.265-0.158,0.396-0.412,0.396-0.763c0-0.358-0.136-0.61-0.409-0.756c-0.273-0.145-0.675-0.218-1.204-0.218
				c-0.171,0-0.354,0.003-0.551,0.007s-0.372,0.015-0.525,0.032V217.157z M532.004,218.682v2.293
				c0.146,0.018,0.303,0.03,0.474,0.038c0.171,0.009,0.359,0.013,0.563,0.013c0.598,0,1.081-0.085,1.448-0.256
				c0.366-0.171,0.551-0.486,0.551-0.948c0-0.409-0.154-0.702-0.462-0.877c-0.307-0.175-0.747-0.263-1.319-0.263H532.004z"/>
		</g>
		<rect x="483.518" y="176.531" fill="#EF3C68" width="3.203" height="17.115"/>
		<rect x="562.508" y="176.531" fill="#EF3C68" width="3.201" height="17.115"/>
	</g>
</g>
<g id="keyboard_1_">
	<path fill="#989898" d="M406.76,234.643c0-2.276-1.992-4.143-4.418-4.143H69.256c-2.426,0-4.409,1.866-4.409,4.143v122.392
		c0,2.274,1.983,4.144,4.409,4.144h333.086c2.426,0,4.418-1.869,4.418-4.144V234.643z"/>
	<path fill="#989898" d="M406.76,357.034V234.643c0-2.276-1.992-4.143-4.418-4.143H162.86l172.677,130.678h66.805
		C404.768,361.178,406.76,359.309,406.76,357.034z"/>
	<g>
		<g>
			<path fill="#FFFFFF" d="M91.996,258.743c0,0.594-0.483,1.078-1.075,1.078H74.463c-0.595,0-1.077-0.484-1.077-1.078v-16.452
				c0-0.595,0.482-1.077,1.077-1.077H90.92c0.592,0,1.075,0.482,1.075,1.077V258.743z"/>
			<path fill="#FFFFFF" d="M126.104,281.402c0,0.6-0.476,1.083-1.077,1.083H108.57c-0.593,0-1.071-0.483-1.071-1.083v-16.458
				c0-0.584,0.478-1.069,1.071-1.069h16.457c0.601,0,1.077,0.485,1.077,1.069V281.402z"/>
			<path fill="#FFFFFF" d="M131.471,304.067c0,0.597-0.483,1.071-1.076,1.071h-16.459c-0.584,0-1.076-0.475-1.076-1.071v-16.461
				c0-0.583,0.492-1.068,1.076-1.068h16.459c0.592,0,1.076,0.485,1.076,1.068V304.067z"/>
			<path fill="#FFFFFF" d="M120.375,326.728c0,0.589-0.481,1.075-1.071,1.075h-16.458c-0.587,0-1.072-0.486-1.072-1.075v-16.456
				c0-0.59,0.485-1.079,1.072-1.079h16.458c0.589,0,1.071,0.489,1.071,1.079V326.728z"/>
			<path fill="#FFFFFF" d="M91.996,352.25c0,0.595-0.483,1.076-1.075,1.076H74.463c-0.595,0-1.077-0.481-1.077-1.076v-19.321
				c0-0.581,0.482-1.074,1.077-1.074H90.92c0.592,0,1.075,0.493,1.075,1.074V352.25z"/>
			<path fill="#FFFFFF" d="M114.591,352.25c0,0.595-0.482,1.076-1.077,1.076H97.062c-0.589,0-1.074-0.481-1.074-1.076v-19.321
				c0-0.581,0.485-1.074,1.074-1.074h16.452c0.595,0,1.077,0.493,1.077,1.074V352.25z"/>
			<path fill="#FFFFFF" d="M137.244,352.25c0,0.595-0.486,1.076-1.078,1.076h-16.458c-0.591,0-1.073-0.481-1.073-1.076v-19.321
				c0-0.581,0.481-1.074,1.073-1.074h16.458c0.592,0,1.078,0.493,1.078,1.074V352.25z"/>
			<path fill="#FFFFFF" d="M330.241,352.25c0,0.595-0.492,1.076-1.082,1.076h-16.46c-0.588,0-1.07-0.481-1.07-1.076v-19.321
				c0-0.581,0.482-1.074,1.07-1.074h16.46c0.59,0,1.082,0.493,1.082,1.074V352.25z"/>
			<path fill="#FFFFFF" d="M352.89,352.25c0,0.595-0.483,1.076-1.075,1.076h-16.447c-0.602,0-1.089-0.481-1.089-1.076v-8.586
				c0-0.588,0.487-1.076,1.089-1.076h16.447c0.592,0,1.075,0.488,1.075,1.076V352.25z"/>
			<path fill="#FFFFFF" d="M398.212,352.25c0,0.595-0.485,1.076-1.078,1.076h-16.452c-0.59,0-1.081-0.481-1.081-1.076v-8.586
				c0-0.588,0.491-1.076,1.081-1.076h16.452c0.593,0,1.078,0.488,1.078,1.076V352.25z"/>
			<path fill="#FFFFFF" d="M165.695,352.25c0,0.595-0.482,1.076-1.067,1.076H142.26c-0.59,0-1.07-0.481-1.07-1.076v-19.321
				c0-0.581,0.479-1.074,1.07-1.074h22.369c0.584,0,1.067,0.493,1.067,1.074V352.25z"/>
			<path fill="#FFFFFF" d="M307.57,352.25c0,0.595-0.48,1.076-1.077,1.076h-22.36c-0.586,0-1.079-0.481-1.079-1.076v-19.321
				c0-0.581,0.493-1.074,1.079-1.074h22.36c0.597,0,1.077,0.493,1.077,1.074V352.25z"/>
			<path fill="#FFFFFF" d="M279.007,352.25c0,0.595-0.489,1.076-1.084,1.076H170.826c-0.584,0-1.08-0.481-1.08-1.076v-19.321
				c0-0.581,0.495-1.074,1.08-1.074h107.097c0.595,0,1.084,0.493,1.084,1.074V352.25z"/>
			<path fill="#FFFFFF" d="M143.035,326.728c0,0.589-0.478,1.075-1.071,1.075h-16.459c-0.583,0-1.071-0.486-1.071-1.075v-16.456
				c0-0.59,0.489-1.079,1.071-1.079h16.459c0.593,0,1.071,0.489,1.071,1.079V326.728z"/>
			<path fill="#FFFFFF" d="M165.695,326.728c0,0.589-0.482,1.075-1.067,1.075H148.17c-0.593,0-1.076-0.486-1.076-1.075v-16.456
				c0-0.59,0.483-1.079,1.076-1.079h16.458c0.584,0,1.067,0.489,1.067,1.079V326.728z"/>
			<path fill="#FFFFFF" d="M188.359,326.728c0,0.589-0.481,1.075-1.078,1.075h-16.456c-0.584,0-1.08-0.486-1.08-1.075v-16.456
				c0-0.59,0.495-1.079,1.08-1.079h16.456c0.597,0,1.078,0.489,1.078,1.079V326.728z"/>
			<path fill="#FFFFFF" d="M211.018,326.728c0,0.589-0.486,1.075-1.07,1.075h-16.454c-0.591,0-1.08-0.486-1.08-1.075v-16.456
				c0-0.59,0.489-1.079,1.08-1.079h16.454c0.584,0,1.07,0.489,1.07,1.079V326.728z"/>
			<path fill="#FFFFFF" d="M233.68,326.728c0,0.589-0.483,1.075-1.07,1.075H216.15c-0.588,0-1.07-0.486-1.07-1.075v-16.456
				c0-0.59,0.482-1.079,1.07-1.079h16.459c0.587,0,1.07,0.489,1.07,1.079V326.728z"/>
			<path fill="#FFFFFF" d="M256.343,326.728c0,0.589-0.479,1.075-1.072,1.075h-16.458c-0.596,0-1.079-0.486-1.079-1.075v-16.456
				c0-0.59,0.483-1.079,1.079-1.079h16.458c0.592,0,1.072,0.489,1.072,1.079V326.728z"/>
			<path fill="#FFFFFF" d="M279.007,326.728c0,0.589-0.489,1.075-1.084,1.075H261.47c-0.588,0-1.07-0.486-1.07-1.075v-16.456
				c0-0.59,0.482-1.079,1.07-1.079h16.453c0.595,0,1.084,0.489,1.084,1.079V326.728z"/>
			<path fill="#FFFFFF" d="M301.666,326.728c0,0.589-0.484,1.075-1.078,1.075h-16.455c-0.586,0-1.079-0.486-1.079-1.075v-16.456
				c0-0.59,0.493-1.079,1.079-1.079h16.455c0.594,0,1.078,0.489,1.078,1.079V326.728z"/>
			<path fill="#FFFFFF" d="M324.324,326.728c0,0.589-0.475,1.075-1.072,1.075h-16.458c-0.594,0-1.075-0.486-1.075-1.075v-16.456
				c0-0.59,0.481-1.079,1.075-1.079h16.458c0.598,0,1.072,0.489,1.072,1.079V326.728z"/>
			<path fill="#FFFFFF" d="M346.986,326.728c0,0.589-0.486,1.075-1.076,1.075h-16.453c-0.593,0-1.079-0.486-1.079-1.075v-16.456
				c0-0.59,0.486-1.079,1.079-1.079h16.453c0.59,0,1.076,0.489,1.076,1.079V326.728z"/>
			<path fill="#FFFFFF" d="M398.029,326.728c0,0.589-0.482,1.075-1.074,1.075h-44.84c-0.591,0-1.075-0.486-1.075-1.075v-16.456
				c0-0.59,0.484-1.079,1.075-1.079h44.84c0.592,0,1.074,0.489,1.074,1.079V326.728z"/>
			<path fill="#FFFFFF" d="M154.125,304.067c0,0.597-0.472,1.071-1.065,1.071h-16.468c-0.583,0-1.066-0.475-1.066-1.071v-16.461
				c0-0.583,0.483-1.068,1.066-1.068h16.468c0.593,0,1.065,0.485,1.065,1.068V304.067z"/>
			<path fill="#FFFFFF" d="M176.791,304.067c0,0.597-0.484,1.071-1.076,1.071h-16.459c-0.587,0-1.066-0.475-1.066-1.071v-16.461
				c0-0.583,0.479-1.068,1.066-1.068h16.459c0.592,0,1.076,0.485,1.076,1.068V304.067z"/>
			<path fill="#FFFFFF" d="M199.446,304.067c0,0.597-0.473,1.071-1.067,1.071h-16.461c-0.591,0-1.071-0.475-1.071-1.071v-16.461
				c0-0.583,0.479-1.068,1.071-1.068h16.461c0.594,0,1.067,0.485,1.067,1.068V304.067z"/>
			<path fill="#FFFFFF" d="M222.112,304.067c0,0.597-0.484,1.071-1.07,1.071h-16.466c-0.586,0-1.066-0.475-1.066-1.071v-16.461
				c0-0.583,0.48-1.068,1.066-1.068h16.466c0.586,0,1.07,0.485,1.07,1.068V304.067z"/>
			<path fill="#FFFFFF" d="M244.774,304.067c0,0.597-0.487,1.071-1.074,1.071h-16.458c-0.583,0-1.078-0.475-1.078-1.071v-16.461
				c0-0.583,0.495-1.068,1.078-1.068H243.7c0.587,0,1.074,0.485,1.074,1.068V304.067z"/>
			<path fill="#FFFFFF" d="M267.432,304.067c0,0.597-0.482,1.071-1.072,1.071h-16.455c-0.593,0-1.074-0.475-1.074-1.071v-16.461
				c0-0.583,0.481-1.068,1.074-1.068h16.455c0.59,0,1.072,0.485,1.072,1.068V304.067z"/>
			<path fill="#FFFFFF" d="M290.09,304.067c0,0.597-0.476,1.071-1.071,1.071h-16.458c-0.591,0-1.071-0.475-1.071-1.071v-16.461
				c0-0.583,0.48-1.068,1.071-1.068h16.458c0.595,0,1.071,0.485,1.071,1.068V304.067z"/>
			<path fill="#FFFFFF" d="M312.756,304.067c0,0.597-0.486,1.071-1.072,1.071h-16.46c-0.589,0-1.072-0.475-1.072-1.071v-16.461
				c0-0.583,0.482-1.068,1.072-1.068h16.46c0.586,0,1.072,0.485,1.072,1.068V304.067z"/>
			<path fill="#FFFFFF" d="M335.418,304.067c0,0.597-0.483,1.071-1.072,1.071h-16.464c-0.593,0-1.071-0.475-1.071-1.071v-16.461
				c0-0.583,0.479-1.068,1.071-1.068h16.464c0.589,0,1.072,0.485,1.072,1.068V304.067z"/>
			<path fill="#FFFFFF" d="M358.074,304.067c0,0.597-0.481,1.071-1.071,1.071h-16.452c-0.598,0-1.08-0.475-1.08-1.071v-16.461
				c0-0.583,0.482-1.068,1.08-1.068h16.452c0.59,0,1.071,0.485,1.071,1.068V304.067z"/>
			<path fill="#FFFFFF" d="M380.735,304.067c0,0.597-0.482,1.071-1.07,1.071H363.2c-0.588,0-1.064-0.475-1.064-1.071v-16.461
				c0-0.583,0.477-1.068,1.064-1.068h16.465c0.588,0,1.07,0.485,1.07,1.068V304.067z"/>
			<path fill="#FFFFFF" d="M148.765,281.402c0,0.6-0.483,1.083-1.078,1.083H131.23c-0.589,0-1.077-0.483-1.077-1.083v-16.458
				c0-0.584,0.488-1.069,1.077-1.069h16.457c0.594,0,1.078,0.485,1.078,1.069V281.402z"/>
			<path fill="#FFFFFF" d="M171.425,281.402c0,0.6-0.483,1.083-1.077,1.083H153.89c-0.589,0-1.071-0.483-1.071-1.083v-16.458
				c0-0.584,0.482-1.069,1.071-1.069h16.458c0.594,0,1.077,0.485,1.077,1.069V281.402z"/>
			<path fill="#FFFFFF" d="M194.084,281.402c0,0.6-0.481,1.083-1.076,1.083H176.55c-0.584,0-1.065-0.483-1.065-1.083v-16.458
				c0-0.584,0.481-1.069,1.065-1.069h16.458c0.595,0,1.076,0.485,1.076,1.069V281.402z"/>
			<path fill="#FFFFFF" d="M216.74,281.402c0,0.6-0.483,1.083-1.068,1.083h-16.458c-0.592,0-1.076-0.483-1.076-1.083v-16.458
				c0-0.584,0.483-1.069,1.076-1.069h16.458c0.585,0,1.068,0.485,1.068,1.069V281.402z"/>
			<path fill="#FFFFFF" d="M239.404,281.402c0,0.6-0.48,1.083-1.077,1.083h-16.455c-0.589,0-1.069-0.483-1.069-1.083v-16.458
				c0-0.584,0.48-1.069,1.069-1.069h16.455c0.597,0,1.077,0.485,1.077,1.069V281.402z"/>
			<path fill="#FFFFFF" d="M262.062,281.402c0,0.6-0.476,1.083-1.069,1.083h-16.459c-0.593,0-1.075-0.483-1.075-1.083v-16.458
				c0-0.584,0.482-1.069,1.075-1.069h16.459c0.593,0,1.069,0.485,1.069,1.069V281.402z"/>
			<path fill="#FFFFFF" d="M284.724,281.402c0,0.6-0.476,1.083-1.071,1.083H267.19c-0.584,0-1.067-0.483-1.067-1.083v-16.458
				c0-0.584,0.482-1.069,1.067-1.069h16.463c0.595,0,1.071,0.485,1.071,1.069V281.402z"/>
			<path fill="#FFFFFF" d="M307.39,281.402c0,0.6-0.482,1.083-1.079,1.083h-16.458c-0.59,0-1.073-0.483-1.073-1.083v-16.458
				c0-0.584,0.482-1.069,1.073-1.069h16.458c0.597,0,1.079,0.485,1.079,1.069V281.402z"/>
			<path fill="#FFFFFF" d="M330.045,281.402c0,0.6-0.482,1.083-1.066,1.083h-16.46c-0.594,0-1.072-0.483-1.072-1.083v-16.458
				c0-0.584,0.479-1.069,1.072-1.069h16.46c0.584,0,1.066,0.485,1.066,1.069V281.402z"/>
			<path fill="#FFFFFF" d="M352.711,281.402c0,0.6-0.482,1.083-1.08,1.083h-16.456c-0.582,0-1.071-0.483-1.071-1.083v-16.458
				c0-0.584,0.489-1.069,1.071-1.069h16.456c0.598,0,1.08,0.485,1.08,1.069V281.402z"/>
			<path fill="#FFFFFF" d="M375.368,281.402c0,0.6-0.482,1.083-1.07,1.083H357.84c-0.593,0-1.075-0.483-1.075-1.083v-16.458
				c0-0.584,0.482-1.069,1.075-1.069h16.458c0.588,0,1.07,0.485,1.07,1.069V281.402z"/>
			<path fill="#FFFFFF" d="M103.443,281.402c0,0.6-0.481,1.083-1.076,1.083H74.463c-0.595,0-1.077-0.483-1.077-1.083v-16.458
				c0-0.584,0.482-1.069,1.077-1.069h27.905c0.594,0,1.076,0.485,1.076,1.069V281.402z"/>
			<path fill="#FFFFFF" d="M398.029,258.743c0,0.594-0.482,1.078-1.074,1.078h-27.908c-0.583,0-1.071-0.484-1.071-1.078v-16.452
				c0-0.595,0.488-1.077,1.071-1.077h27.908c0.592,0,1.074,0.482,1.074,1.077V258.743z"/>
			<path fill="#FFFFFF" d="M108.805,304.067c0,0.597-0.477,1.071-1.075,1.071H74.463c-0.595,0-1.077-0.475-1.077-1.071v-16.461
				c0-0.583,0.482-1.068,1.077-1.068h33.267c0.598,0,1.075,0.485,1.075,1.068V304.067z"/>
			<path fill="#FFFFFF" d="M97.72,326.728c0,0.589-0.483,1.075-1.076,1.075H74.463c-0.595,0-1.077-0.486-1.077-1.075v-16.456
				c0-0.59,0.482-1.079,1.077-1.079h22.181c0.593,0,1.076,0.489,1.076,1.079V326.728z"/>
			<path fill="#FFFFFF" d="M114.652,258.743c0,0.594-0.479,1.078-1.079,1.078H97.126c-0.592,0-1.076-0.484-1.076-1.078v-16.452
				c0-0.595,0.484-1.077,1.076-1.077h16.448c0.6,0,1.079,0.482,1.079,1.077V258.743z"/>
			<path fill="#FFFFFF" d="M137.315,258.743c0,0.594-0.481,1.078-1.074,1.078h-16.46c-0.586,0-1.066-0.484-1.066-1.078v-16.452
				c0-0.595,0.48-1.077,1.066-1.077h16.46c0.592,0,1.074,0.482,1.074,1.077V258.743z"/>
			<path fill="#FFFFFF" d="M159.983,258.743c0,0.594-0.494,1.078-1.085,1.078H142.44c-0.589,0-1.071-0.484-1.071-1.078v-16.452
				c0-0.595,0.481-1.077,1.071-1.077h16.458c0.592,0,1.085,0.482,1.085,1.077V258.743z"/>
			<path fill="#FFFFFF" d="M182.637,258.743c0,0.594-0.484,1.078-1.077,1.078h-16.458c-0.589,0-1.076-0.484-1.076-1.078v-16.452
				c0-0.595,0.487-1.077,1.076-1.077h16.458c0.593,0,1.077,0.482,1.077,1.077V258.743z"/>
			<path fill="#FFFFFF" d="M205.289,258.743c0,0.594-0.474,1.078-1.069,1.078h-16.458c-0.589,0-1.072-0.484-1.072-1.078v-16.452
				c0-0.595,0.483-1.077,1.072-1.077h16.458c0.595,0,1.069,0.482,1.069,1.077V258.743z"/>
			<path fill="#FFFFFF" d="M227.957,258.743c0,0.594-0.483,1.078-1.076,1.078h-16.448c-0.596,0-1.078-0.484-1.078-1.078v-16.452
				c0-0.595,0.481-1.077,1.078-1.077h16.448c0.593,0,1.076,0.482,1.076,1.077V258.743z"/>
			<path fill="#FFFFFF" d="M250.611,258.743c0,0.594-0.471,1.078-1.068,1.078h-16.453c-0.597,0-1.079-0.484-1.079-1.078v-16.452
				c0-0.595,0.482-1.077,1.079-1.077h16.453c0.597,0,1.068,0.482,1.068,1.077V258.743z"/>
			<path fill="#FFFFFF" d="M273.276,258.743c0,0.594-0.481,1.078-1.079,1.078h-16.457c-0.592,0-1.074-0.484-1.074-1.078v-16.452
				c0-0.595,0.481-1.077,1.074-1.077h16.457c0.598,0,1.079,0.482,1.079,1.077V258.743z"/>
			<path fill="#FFFFFF" d="M295.932,258.743c0,0.594-0.476,1.078-1.066,1.078H278.41c-0.597,0-1.078-0.484-1.078-1.078v-16.452
				c0-0.595,0.481-1.077,1.078-1.077h16.456c0.59,0,1.066,0.482,1.066,1.077V258.743z"/>
			<path fill="#FFFFFF" d="M318.601,258.743c0,0.594-0.487,1.078-1.071,1.078h-16.464c-0.586,0-1.069-0.484-1.069-1.078v-16.452
				c0-0.595,0.482-1.077,1.069-1.077h16.464c0.584,0,1.071,0.482,1.071,1.077V258.743z"/>
			<path fill="#FFFFFF" d="M341.261,258.743c0,0.594-0.481,1.078-1.075,1.078h-16.457c-0.596,0-1.079-0.484-1.079-1.078v-16.452
				c0-0.595,0.483-1.077,1.079-1.077h16.457c0.594,0,1.075,0.482,1.075,1.077V258.743z"/>
			<path fill="#FFFFFF" d="M363.917,258.743c0,0.594-0.479,1.078-1.067,1.078h-16.468c-0.585,0-1.066-0.484-1.066-1.078v-16.452
				c0-0.595,0.481-1.077,1.066-1.077h16.468c0.589,0,1.067,0.482,1.067,1.077V258.743z"/>
			<g>
				<path fill="#FFFFFF" d="M356.945,343.197v9.053c0,0.278,0.104,0.559,0.311,0.76c0.213,0.212,0.491,0.316,0.763,0.316h16.46
					c0.272,0,0.543-0.104,0.758-0.316c0.21-0.201,0.315-0.481,0.315-0.76v-9.053H356.945z"/>
				<path fill="#FFFFFF" d="M375.552,341.983v-9.055c0-0.268-0.105-0.546-0.315-0.752c-0.215-0.212-0.485-0.322-0.758-0.322h-16.46
					c-0.271,0-0.55,0.11-0.763,0.322c-0.206,0.206-0.311,0.484-0.311,0.752v9.055H375.552z"/>
			</g>
			<path fill="#FFFFFF" d="M380.495,263.875c-0.271,0-0.544,0.099-0.756,0.315c-0.209,0.208-0.309,0.478-0.309,0.754v16.458
				c0,0.276,0.1,0.554,0.309,0.767c0.212,0.206,0.484,0.316,0.756,0.316h4.297v21.582c0,0.278,0.109,0.555,0.317,0.76
				c0.21,0.21,0.481,0.312,0.759,0.312h11.087c0.278,0,0.55-0.102,0.763-0.312c0.212-0.205,0.317-0.481,0.317-0.76v-39.123
				c0-0.276-0.105-0.546-0.317-0.754c-0.213-0.217-0.484-0.315-0.763-0.315H380.495z"/>
		</g>
	</g>
</g>
<g>
	<polygon fill="#3499CD" points="165.918,66.743 170.473,69.475 175.024,72.207 170.471,74.939 165.918,77.671 165.918,72.207 	"/>
	<polygon fill="#996699" points="175.024,61.279 170.476,64.011 165.918,66.743 170.471,69.475 175.024,72.207 175.024,66.743 	"/>
	<polygon fill="#F8993A" points="165.919,55.815 161.365,58.547 156.811,61.279 161.365,64.011 165.919,66.743 165.919,61.279 	"/>
	<polygon fill="#EF3C68" points="165.918,55.815 170.471,58.547 175.024,61.279 170.471,64.011 165.918,66.743 165.918,61.279 	"/>
	<polygon fill="#FFCE0E" points="165.919,66.743 161.365,69.475 156.811,72.207 161.365,74.939 165.919,77.671 165.919,72.207 	"/>
	<polygon fill="#70C599" points="156.812,61.279 161.365,64.011 165.918,66.743 161.365,69.475 156.812,72.207 156.812,66.743 	"/>
</g>
<g>
	<polygon fill="#3499CD" points="363.5,137.742 368.055,140.474 372.606,143.206 368.054,145.938 363.5,148.67 363.5,143.206 	"/>
	<polygon fill="#996699" points="372.606,132.278 368.059,135.01 363.5,137.742 368.054,140.474 372.606,143.206 372.606,137.742 	
		"/>
	<polygon fill="#F8993A" points="363.502,126.814 358.947,129.546 354.394,132.278 358.947,135.01 363.502,137.742 363.502,132.278 
			"/>
	<polygon fill="#EF3C68" points="363.5,126.814 368.054,129.546 372.606,132.278 368.054,135.01 363.5,137.742 363.5,132.278 	"/>
	<polygon fill="#FFCE0E" points="363.502,137.742 358.947,140.474 354.394,143.206 358.947,145.938 363.502,148.67 363.502,143.206 
			"/>
	<polygon fill="#70C599" points="354.395,132.278 358.947,135.01 363.5,137.742 358.947,140.474 354.395,143.206 354.395,137.742 	
		"/>
</g>
<g>
	<polygon fill="#3499CD" points="127.94,342.59 131.25,344.576 134.559,346.561 131.25,348.548 127.94,350.533 127.94,346.561 	"/>
	<polygon fill="#996699" points="134.559,338.618 131.253,340.604 127.94,342.59 131.25,344.576 134.559,346.561 134.559,342.59 	
		"/>
	<polygon fill="#F8993A" points="127.941,334.646 124.63,336.633 121.32,338.618 124.63,340.604 127.941,342.59 127.941,338.618 	
		"/>
	<polygon fill="#EF3C68" points="127.94,334.646 131.25,336.633 134.559,338.618 131.25,340.604 127.94,342.59 127.94,338.618 	"/>
	<polygon fill="#FFCE0E" points="127.941,342.59 124.63,344.576 121.32,346.561 124.63,348.548 127.941,350.533 127.941,346.561 	
		"/>
	<polygon fill="#70C599" points="121.321,338.618 124.63,340.604 127.94,342.59 124.63,344.576 121.321,346.561 121.321,342.59 	"/>
</g>
<g>
	<polygon fill="#3499CD" points="320.936,342.59 324.246,344.576 327.555,346.561 324.246,348.548 320.936,350.533 320.936,346.561 
			"/>
	<polygon fill="#996699" points="327.555,338.618 324.25,340.604 320.936,342.59 324.246,344.576 327.555,346.561 327.555,342.59 	
		"/>
	<polygon fill="#F8993A" points="320.938,334.646 317.627,336.633 314.316,338.618 317.627,340.604 320.938,342.59 320.938,338.618 
			"/>
	<polygon fill="#EF3C68" points="320.936,334.646 324.246,336.633 327.555,338.618 324.246,340.604 320.936,342.59 320.936,338.618 
			"/>
	<polygon fill="#FFCE0E" points="320.938,342.59 317.627,344.576 314.316,346.561 317.627,348.548 320.938,350.533 320.938,346.561 
			"/>
	<polygon fill="#70C599" points="314.316,338.618 317.627,340.604 320.936,342.59 317.627,344.576 314.316,346.561 314.316,342.59 	
		"/>
</g>
</svg>
