<?xml version="1.0" encoding="utf-8"?>
<!-- Generator: Adobe Illustrator 16.0.0, SVG Export Plug-In . SVG Version: 6.00 Build 0)  -->
<!DOCTYPE svg PUBLIC "-//W3C//DTD SVG 1.1//EN" "http://www.w3.org/Graphics/SVG/1.1/DTD/svg11.dtd">
<svg version="1.1" id="Capa_1" xmlns="http://www.w3.org/2000/svg" xmlns:xlink="http://www.w3.org/1999/xlink" x="0px" y="0px"
	 width="414.938px" height="414.938px" viewBox="0 0 414.938 414.938" enable-background="new 0 0 414.938 414.938"
	 xml:space="preserve">
<g>
	<path fill="#FFFFFF" d="M159.138,256.452c37.217,36.944,80.295,72.236,97.207,55.195c24.215-24.393,39.119-45.614,92.854-2.761
		c53.734,42.874,12.696,71.727-10.757,95.362c-27.063,27.27-128.432,1.911-228.909-97.804C9.062,206.71-17.07,105.54,10.014,78.258
		C33.474,54.621,62.02,13.379,105.268,66.8c43.269,53.395,22.161,68.463-2.055,92.861
		C86.31,176.695,121.915,219.501,159.138,256.452z M213.104,80.203c0,0-11.228-1.754-19.088,6.113
		c-8.093,8.092-8.445,22.032,0.082,30.552c5.039,5.039,12.145,6.113,12.145,6.113c13.853,2.598,34.729,6.997,56.944,29.206
		c22.209,22.208,26.607,43.084,29.206,56.942c0,0,1.073,7.106,6.113,12.146c8.521,8.521,22.46,8.174,30.552,0.082
		c7.861-7.86,6.113-19.087,6.113-19.087c-4.399-28.058-17.999-57.365-41.352-80.716C270.462,98.203,241.153,84.609,213.104,80.203z
		 M318.415,96.958c40.72,40.72,58.079,86.933,52.429,124.379c0,0-1.973,11.859,5.772,19.604c8.719,8.718,22.535,8.215,30.695,0.062
		c5.243-5.242,6.385-13.776,6.385-13.776c4.672-32.361-1.203-97.464-64.646-160.901C285.605,2.887,220.509-2.988,188.147,1.677
		c0,0-8.527,1.136-13.777,6.385c-8.16,8.16-8.656,21.978,0.062,30.694c7.746,7.746,19.604,5.773,19.604,5.773
		C231.484,38.879,277.696,56.24,318.415,96.958z"/>
</g>
</svg>
