<?xml version="1.0" encoding="utf-8"?>
<!-- Generator: Adobe Illustrator 16.0.0, SVG Export Plug-In . SVG Version: 6.00 Build 0)  -->
<!DOCTYPE svg PUBLIC "-//W3C//DTD SVG 1.0//EN" "http://www.w3.org/TR/2001/REC-SVG-20010904/DTD/svg10.dtd">
<svg version="1.0" id="Layer_1" xmlns="http://www.w3.org/2000/svg" xmlns:xlink="http://www.w3.org/1999/xlink" x="0px" y="0px"
	 width="198.425px" height="226.772px" viewBox="0 0 198.425 226.772" enable-background="new 0 0 198.425 226.772"
	 xml:space="preserve">
<polygon fill="#EE3968" points="170.078,155.911 99.213,198.424 28.346,155.911 28.346,70.867 99.213,28.348 170.078,70.867 "/>
<g>
	<path fill="#FFFFFF" stroke="#FFFFFF" stroke-width="0.5794" stroke-miterlimit="10" d="M122.933,87.748
		c0,4.306-10.62,7.802-23.721,7.802s-23.718-3.496-23.718-7.802c0-4.308,10.617-7.801,23.718-7.801S122.933,83.44,122.933,87.748z"
		/>
	<rect x="92.483" y="94.26" fill="#FFFFFF" width="13.459" height="35.153"/>
	<g>
		<path fill="#FFFFFF" d="M137.446,143.689c-1.653,1.699-16.794-11.815-38.234-11.401c-21.438-0.414-36.58,13.1-38.233,11.401
			c-2.401-1.153,12.268-20.391,38.233-20.273C125.179,123.298,139.847,142.536,137.446,143.689z"/>
	</g>
</g>
</svg>
