<?xml version="1.0" encoding="utf-8"?>
<!-- Generator: Adobe Illustrator 16.0.0, SVG Export Plug-In . SVG Version: 6.00 Build 0)  -->
<!DOCTYPE svg PUBLIC "-//W3C//DTD SVG 1.1//EN" "http://www.w3.org/Graphics/SVG/1.1/DTD/svg11.dtd">
<svg version="1.1" id="Layer_2" xmlns="http://www.w3.org/2000/svg" xmlns:xlink="http://www.w3.org/1999/xlink" x="0px" y="0px"
	 width="400px" height="400px" viewBox="-35 0 400 400" enable-background="new -35 0 400 400" xml:space="preserve">
<g>
	<polygon fill="#EE3968" points="331.679,300.022 165,400 -1.679,300.022 -1.679,100.005 165,0 331.679,100.005 	"/>
	<g>
		<g>
			<path fill="#FFFFFF" d="M190.852,180.979c-4.716,4.187-11.055,11.629-17.307,10.939c0,0,6.678,2.17,8.778,6.25
				c-0.447-1.007-1.458-3.643-0.642-5.429c0,0,3.489,2.722,10.227,0.586c6.729-2.143,5.966-10.911,5.966-10.911
				s1.354-0.723,1.912,3.94c0,0,1.643-5.008,0.488-8.247C199.113,174.869,195.554,176.787,190.852,180.979z"/>
			<path fill="#FFFFFF" d="M184.328,188.301c5.697,2.383,6.294-3.423,6.294-3.423l1.343-1.774c0.522,9.917-8.091,7.08-8.091,7.08
				L184.328,188.301z"/>
			<path fill="#FFFFFF" d="M194.269,189.65c-2.965,4.984-11.284,3.066-12.329,1.809l0.7-0.643c0,0,3.848,2.911,8.344-0.132
				c4.501-3.043,2.297-8.286,2.297-8.286l1.286-0.551C194.566,181.846,196.949,184.625,194.269,189.65z"/>
		</g>
		<path fill="#FFFFFF" d="M182.323,198.168c0.115,0.264,0.196,0.425,0.196,0.425C182.462,198.456,182.394,198.306,182.323,198.168z"
			/>
		<path fill="#FFFFFF" d="M173.803,189.322c7.315,0.195,11.788-7.425,11.788-7.425c-3.318,2.332-7.315,4.049-11.109,2.9
			c-3.796-1.154-5.404-3.658-5.404-3.658v0.138C169.077,181.278,166.493,189.127,173.803,189.322z"/>
		<path fill="#FFFFFF" d="M171.104,198.892c1.768,0.023,2.808,1.286,6.161,4.157c3.349,2.871,9.589,2.699,9.589,2.699
			c-5.208-0.953-7.287-4.973-10.13-6.351C173.889,198.017,171.104,198.892,171.104,198.892z"/>
		<path fill="#FFFFFF" d="M184.811,225.42c0.843-4.604-1.672-6.614-6.299-4.433c-4.628,2.171-10.962,7.81-10.962,7.81
			c2.515,4.123,0.93,7.213,0.93,7.213c1.745-0.414,2.642-2.355,2.642-2.355c9.032,2.103,8.768-10.508,9.572-10.289
			c3.618,1.378-0.362,10.508-0.362,10.508S183.96,230.026,184.811,225.42z"/>
		<path fill="#FFFFFF" d="M170.489,217.336c0,0,12.45-5.18,16.129,5.627c3.677,10.795-3.979,14.998-3.979,14.998
			s7.953-2.698,11.024-9.83c3.079-7.12,10.808-7.717,6.828-15.446c0,0-4.8,12.001-21.229-3.985
			C179.263,208.699,172.884,209.756,170.489,217.336z"/>
		<path fill="#FFFFFF" d="M164.988,200.993c1.608-4.384,2.905-5.687,7.292-7.29c-4.387-1.607-5.684-2.911-7.292-7.292
			c-1.597,4.387-2.905,5.685-7.293,7.292C162.083,195.306,163.392,196.609,164.988,200.993z"/>
		<path fill="#FFFFFF" d="M177.822,205.334c0,0-6.299-6.454-9.148,5.847C168.674,211.181,170.409,205.104,177.822,205.334z"/>
		<g>
			<path fill="#FFFFFF" d="M239.379,201.671c2.526,0,4.306,2.079,4.306,2.079c-1.28-6.165-4.14-12.062-6.982-16.788
				c3.67-1.923,5.461-8.504,4.049-15.733c-1.464-7.482-5.856-13.023-10.123-13.063c0.052-4.083-0.063-6.885-0.063-6.885
				c1.797-0.299,3.41,0.942,3.41,0.942c-4.054-20.598-27.234-33.419-27.234-33.419c1.131-0.792,2.257-0.621,2.257-0.621
				c-13.225-12.041-27.683-10.714-27.683-10.714c0.201-1.918,3.599-3.745,3.599-3.745c-12.455,1.188-17.455,3.727-19.166,4.898
				c-0.448-0.396-0.713-0.631-0.713-0.631s-0.275,0.241-0.758,0.655c-1.665-1.154-6.661-3.727-19.19-4.921
				c0,0,3.399,1.827,3.595,3.745c0,0-14.459-1.327-27.678,10.714c0,0,1.125-0.172,2.251,0.621c0,0-23.187,12.828-27.229,33.419
				c0,0,1.607-1.241,3.41-0.942c0,0-0.126,2.803-0.069,6.885c-4.271,0.04-8.659,5.582-10.118,13.063
				c-1.424,7.235,0.368,13.81,4.043,15.733c-2.837,4.726-5.696,10.623-6.981,16.788c0,0,1.779-2.079,4.307-2.079
				c0,0-9.452,12.438-5.961,30.319c0,0,1.125-3.205,2.985-3.595c0,0,0.896,17.272,10.853,24.14c0,0-0.447-1.895-0.114-3.365
				c0,0,19.363,14.367,20.04,19.547c0,0,0.896-2.319,0.299-4.881c0,0,12.896,16.285,11.921,21.831c0,0,1.976-1.263,2.652-3.881
				c0,0,3.55,5.202,9.566,8.303c0,0,0.46-1.826-0.08-3.376c0,0,6.099,5.765,11.277,6.718c0,0-0.08-1.884-1.033-2.871
				c0,0,11.335,3.549,11.979,5.72c0.644-2.171,11.984-5.72,11.984-5.72c-0.96,0.987-1.04,2.871-1.04,2.871
				c5.174-0.953,11.283-6.718,11.283-6.718c-0.539,1.538-0.092,3.376-0.092,3.376c6.023-3.101,9.566-8.303,9.566-8.303
				c0.679,2.618,2.659,3.881,2.659,3.881c-0.977-5.546,11.92-21.831,11.92-21.831c-0.598,2.55,0.305,4.881,0.305,4.881
				c0.672-5.18,20.03-19.547,20.03-19.547c0.337,1.471-0.11,3.365-0.11,3.365c9.957-6.867,10.852-24.14,10.852-24.14
				c1.856,0.39,2.987,3.595,2.987,3.595C248.825,214.108,239.379,201.671,239.379,201.671z"/>
			<path fill="#FFFFFF" d="M229.869,171.797c-0.017,0.006-0.028,0.006-0.047,0.012c0.426-3.595,0.645-7.258,0.742-10.479
				c3.198,1.642,5.972,5.76,6.987,10.939c0.993,5.058,0.047,9.813-2.182,12.569c-3.29-5.105-6.236-8.39-6.236-8.39
				s1.131-3.583,4.271-2.963C233.405,173.485,231.948,171.401,229.869,171.797z"/>
			<path fill="#FFFFFF" d="M163.369,113.6c1.068,0.425,1.631,0.735,1.631,0.735s0.585-0.322,1.677-0.752
				c3.318,4.031,11.19,9.767,21.637,14.556c13.259,6.087,18.822,13.023,18.822,13.023c-16.445-7.648-31.559-5.61-31.559-5.61
				c19.581,1.574,29.515,15.166,29.515,15.166c-9.458-8.033-26.724-4.898-26.724-4.898c10.388,1.017,12.369,6.891,12.369,6.891
				c-16.441,0.667-25.703,15.103-25.703,15.103s-9.268-14.431-25.714-15.103c0,0,1.976-5.874,12.369-6.891
				c0,0-17.272-3.135-26.725,4.898c0,0,9.935-13.592,29.516-15.166c0,0-15.114-2.038-31.56,5.61c0,0,5.559-6.936,18.823-13.023
				C152.172,123.356,160.039,117.631,163.369,113.6z"/>
			<path fill="#FFFFFF" d="M201.681,188.788c0,0-1.464,4.444-5.569,5.852c0,0,7.229,0.333,10.646-4.519
				c0.218,4.278-0.518,7.327-0.918,8.633c-9.557,8.843-20.668,3.124-20.668,3.124c5.503,5.719,12.348,6.993,18.532,3.112
				c2.934-1.837,4.466-4.41,5.271-6.615c0.045,2.297-0.833,3.697-0.833,3.697c6.65,5.421,5.887,15.114-0.838,24.222
				c-6.73,9.118-14.521,7.521-14.521,7.521c2.061,6.729,0.637,10.83,0.637,10.83c-1.4,3.262-3.118,5.856-5.024,7.924
				c-0.229,0.207-0.487,0.448-0.792,0.7c0.021-0.011,0.045-0.022,0.063-0.045c-0.028,0.034-0.07,0.057-0.11,0.092
				c0.019-0.012,0.035-0.023,0.047-0.047c-3.084,2.091-9.716,4.17-22.671,4.17c-12.575,0-19.202-1.953-22.395-3.974
				c-2.263-2.193-4.283-5.065-5.891-8.82c0,0-1.425-4.101,0.643-10.83c0,0-7.81,1.597-14.528-7.521
				c-6.729-9.107-7.487-18.801-0.838-24.222c0,0-0.838-1.331-0.838-3.525c0.826,2.159,2.354,4.651,5.202,6.443
				c6.189,3.881,13.034,2.606,18.535-3.112c0,0-11.036,5.685-20.568-3.044c-0.401-1.249-1.16-4.303-0.953-8.627
				c3.446,4.76,10.577,4.433,10.577,4.433c-4.1-1.407-5.558-5.852-5.558-5.852c-0.346,1.074,0.275,2.028,0.275,2.028
				c-3.102-1.396-4.364-3.239-4.778-4.916c0.471-2.573,1.31-5.421,2.688-8.493c5.811-12.942,16.617-13.425,38.529,2.768
				c19.621-16.026,32.714-15.71,38.524-2.768c1.344,3.009,2.182,5.811,2.659,8.332c-0.379,1.722-1.62,3.634-4.818,5.077
				C201.395,190.81,202.02,189.856,201.681,188.788z"/>
			<path fill="#FFFFFF" d="M92.441,172.269c1.011-5.18,3.79-9.297,6.994-10.939c0.092,3.221,0.311,6.885,0.734,10.479
				c-0.011-0.006-0.022-0.006-0.046-0.012c-2.078-0.396-3.549,1.688-3.549,1.688c3.159-0.62,4.284,2.963,4.284,2.963
				s-2.939,3.285-6.235,8.39C92.396,182.082,91.454,177.327,92.441,172.269z"/>
			<path fill="#FFFFFF" d="M125.688,249.883c-5.776-5.926-4.433-18.295-4.433-18.295c-3.743,4.949-2.699,14.47-2.699,14.47
				c-10.944-11.852-9.899-24.978-9.899-24.978c-5.019,8.935-2.319,21.153-2.319,21.153c-9.153-13.126-5.088-28.297-5.088-28.297
				c-5.685,6.247-6.189,18.846-6.189,18.846c-3.032-6.075-0.563-12.266-0.563-12.266c-2.859,1.528-3.422,6.639-3.422,6.639
				c-7.213-16.871,9.67-35.329,9.67-35.329l-7.993,4.801c4.203-9.9,11.254-16.843,11.254-16.843l3.273,4.956
				c-6.649-30.721-1.194-38.536-1.194-38.536c-1.906-0.172-3.767,1.292-3.767,1.292c7.545-21.27,35.28-29.877,35.28-29.877
				c-2.929-1.688-7.855-1.102-7.855-1.102c13.265-6.518,23.955-5.599,29.962-4.083c-2.905,2.313-6.568,5.036-9.784,6.873
				c-6.627,3.767-29.596,13.844-34.545,28.671c0,0,3.651-4.054,9.164-4.088c0,0-5.168,5.105-4.72,14.418
				c0,0,6.522-6.683,15.596-7.493c0,0-3.228,3.187-3.182,5.937c0,0,13.862-3.353,26.816,9.796
				c-6.661-3.319-17.87-7.218-28.113-2.882c0,0,3.284-0.362,4.283,0.511c0,0-13.505,4.961-15.642,24.83c0,0-1.528-1.545-1.436-4.537
				c0,0-3.457,9.549-1.218,14.559c0,0-5.811,9.935-4.18,19.479c0,0,0.712-2.218,1.94-2.642c0,0-0.356,10.163,7.741,16.491
				c0,0-1.012-1.987-0.609-3.238c0,0,1.734,4.031,6.466,7.557C125.16,241.98,125.688,249.883,125.688,249.883z"/>
			<path fill="#FFFFFF" d="M137.161,272.472c2.929-3.836,0.081-8.406,0.081-8.406c-2.251,5.029-7.132,3.675-7.132,3.675
				c3.606-1.952,3.262-7.729,3.262-7.729c-4.904-0.287-4.687-17.848-4.514-22.935c1.217,0.85,2.618,1.653,4.227,2.354
				c0,0-2.171,11.771,12.161,26.529C144.339,271.231,137.161,272.472,137.161,272.472z"/>
			<path fill="#FFFFFF" d="M165.034,270.681c-8.143,0-19.167-2.124-25.793-18.812c0,0,6.063,11.243,25.793,11.243
				c19.718,0,25.782-11.243,25.782-11.243C184.19,268.557,173.165,270.681,165.034,270.681z"/>
			<path fill="#FFFFFF" d="M199.879,267.74c0,0-4.877,1.354-7.121-3.675c0,0-2.854,4.57,0.075,8.406c0,0-7.126-1.229-8.081-6.454
				c14.401-14.78,12.226-26.586,12.226-26.586c1.58-0.689,2.958-1.471,4.159-2.309c0.166,5.146,0.372,22.602-4.52,22.889
				C196.617,260.012,196.282,265.788,199.879,267.74z"/>
			<path fill="#FFFFFF" d="M238.925,227.155c0,0-0.558-5.11-3.434-6.639c0,0,2.476,6.19-0.563,12.266c0,0-0.504-12.599-6.189-18.846
				c0,0,4.077,15.171-5.082,28.297c0,0,2.705-12.219-2.325-21.153c0,0,1.05,13.126-9.9,24.978c0,0,1.052-9.521-2.697-14.481
				c0,0,1.349,12.381-4.429,18.307c0,0,0.529-7.867-2.578-13.173c4.772-3.526,6.513-7.591,6.513-7.591
				c0.407,1.251-0.604,3.227-0.604,3.227c8.098-6.316,7.735-16.491,7.735-16.491c1.229,0.436,1.94,2.653,1.94,2.653
				c1.632-9.544-4.18-19.479-4.18-19.479c2.239-5.01-1.218-14.559-1.218-14.559c0.099,2.985-1.429,4.531-1.429,4.531
				c-2.143-19.862-15.643-24.829-15.643-24.829c0.993-0.873,4.278-0.511,4.278-0.511c-9.957-4.209-20.811-0.649-27.54,2.602
				c12.807-12.817,26.243-9.51,26.243-9.51c0.045-2.756-3.188-5.943-3.188-5.943c9.079,0.81,15.601,7.493,15.601,7.493
				c0.447-9.313-4.719-14.412-4.719-14.412c5.518,0.028,9.158,4.082,9.158,4.082c-4.938-14.826-27.919-24.904-34.539-28.67
				c-3.223-1.837-6.892-4.565-9.796-6.885c6-1.504,16.681-2.4,29.916,4.094c0,0-4.939-0.581-7.861,1.108
				c0,0,27.741,8.608,35.274,29.871c0,0-1.854-1.458-3.768-1.292c0,0,5.456,7.821-1.183,38.536l3.262-4.95
				c0,0,7.059,6.938,11.255,16.843l-7.987-4.801C229.249,191.826,246.125,210.284,238.925,227.155z"/>
		</g>
		<path fill="#FFFFFF" d="M147.67,198.168c-0.069,0.138-0.138,0.288-0.195,0.425C147.475,198.593,147.555,198.432,147.67,198.168z"
			/>
		<g>
			<path fill="#FFFFFF" d="M147.67,198.168c2.102-4.08,8.774-6.25,8.774-6.25c-6.248,0.689-12.599-6.752-17.296-10.939
				c-4.708-4.191-8.269-6.104-9.429-2.871c-1.159,3.239,0.482,8.247,0.482,8.247c0.563-4.663,1.918-3.94,1.918-3.94
				s-0.77,8.769,5.961,10.911c6.74,2.142,10.231-0.581,10.231-0.581C149.117,194.525,148.118,197.161,147.67,198.168z"/>
			<path fill="#FFFFFF" d="M138.035,183.104l1.331,1.774c0,0,0.609,5.806,6.294,3.423l0.459,1.883
				C146.119,190.184,137.506,193.021,138.035,183.104z"/>
			<path fill="#FFFFFF" d="M135.727,189.65c-2.688-5.024-0.299-7.804-0.299-7.804l1.286,0.551c0,0-2.205,5.236,2.297,8.286
				c4.502,3.037,8.337,0.132,8.337,0.132l0.7,0.643C147.004,192.71,138.688,194.634,135.727,189.65z"/>
		</g>
		<path fill="#FFFFFF" d="M156.191,189.322c7.315-0.195,4.72-8.039,4.72-8.039v-0.143c0,0-1.596,2.503-5.397,3.658
			c-3.79,1.148-7.786-0.563-11.105-2.9C144.408,181.897,148.876,189.518,156.191,189.322z"/>
		<path fill="#FFFFFF" d="M152.734,203.049c3.342-2.871,4.388-4.134,6.155-4.157c0,0-2.791-0.875-5.627,0.505
			c-2.837,1.378-4.927,5.398-10.13,6.351C143.133,205.748,149.381,205.92,152.734,203.049z"/>
		<path fill="#FFFFFF" d="M151.483,220.987c-4.63-2.182-7.145-0.172-6.294,4.433c0.85,4.606,4.468,8.453,4.468,8.453
			s-3.986-9.13-0.356-10.508c0.804-0.219,0.54,12.392,9.566,10.289c0,0,0.896,1.941,2.641,2.355c0,0-1.573-3.09,0.941-7.213
			C162.449,228.797,156.11,223.158,151.483,220.987z"/>
		<path fill="#FFFFFF" d="M143.374,222.963c3.676-10.807,16.137-5.627,16.137-5.627c-2.4-7.58-8.774-8.637-8.774-8.637
			c-16.434,15.986-21.234,3.985-21.234,3.985c-3.974,7.729,3.743,8.326,6.821,15.446c3.078,7.132,11.024,9.83,11.024,9.83
			S139.7,233.758,143.374,222.963z"/>
		<path fill="#FFFFFF" d="M164.966,215.418c-1.138,2.147-2.068,2.779-5.18,3.561c3.111,0.791,4.042,1.424,5.18,3.56
			c1.137-2.136,2.055-2.769,5.179-3.56C167.021,218.197,166.103,217.565,164.966,215.418z"/>
		<path fill="#FFFFFF" d="M152.172,205.334c7.419-0.229,9.152,5.847,9.152,5.847C158.465,198.88,152.172,205.334,152.172,205.334z"
			/>
		<path fill="#FFFFFF" d="M190.852,180.979c-4.716,4.187-11.055,11.629-17.307,10.939c0,0,6.678,2.17,8.778,6.25
			c-0.447-1.007-1.458-3.643-0.642-5.429c0,0,3.489,2.722,10.227,0.586c6.729-2.143,5.966-10.911,5.966-10.911
			s1.354-0.723,1.912,3.94c0,0,1.643-5.008,0.488-8.247C199.113,174.869,195.554,176.787,190.852,180.979z M184.328,188.301
			c5.697,2.383,6.294-3.423,6.294-3.423l1.343-1.774c0.522,9.917-8.091,7.08-8.091,7.08L184.328,188.301z M194.269,189.65
			c-2.965,4.984-11.284,3.066-12.329,1.809l0.7-0.643c0,0,3.848,2.911,8.344-0.132c4.501-3.043,2.297-8.286,2.297-8.286l1.286-0.551
			C194.566,181.846,196.949,184.625,194.269,189.65z M182.323,198.168c0.115,0.264,0.196,0.425,0.196,0.425
			C182.462,198.456,182.394,198.306,182.323,198.168z M173.803,189.322c7.315,0.195,11.788-7.425,11.788-7.425
			c-3.318,2.332-7.315,4.049-11.109,2.9c-3.796-1.154-5.404-3.658-5.404-3.658v0.138
			C169.077,181.278,166.493,189.127,173.803,189.322z M171.104,198.892c1.768,0.023,2.808,1.286,6.161,4.157
			c3.349,2.871,9.589,2.699,9.589,2.699c-5.208-0.953-7.287-4.973-10.13-6.351C173.889,198.017,171.104,198.892,171.104,198.892z
			 M184.811,225.42c0.843-4.604-1.672-6.614-6.299-4.433c-4.628,2.171-10.962,7.81-10.962,7.81c2.515,4.123,0.93,7.213,0.93,7.213
			c1.745-0.414,2.642-2.355,2.642-2.355c9.032,2.103,8.768-10.508,9.572-10.289c3.618,1.378-0.362,10.508-0.362,10.508
			S183.96,230.026,184.811,225.42z M170.489,217.336c0,0,12.45-5.18,16.129,5.627c3.677,10.795-3.979,14.998-3.979,14.998
			s7.953-2.698,11.024-9.83c3.079-7.12,10.808-7.717,6.828-15.446c0,0-4.8,12.001-21.229-3.985
			C179.263,208.699,172.884,209.756,170.489,217.336z M164.988,200.993c1.608-4.384,2.905-5.687,7.292-7.29
			c-4.387-1.607-5.684-2.911-7.292-7.292c-1.597,4.387-2.905,5.685-7.293,7.292C162.083,195.306,163.392,196.609,164.988,200.993z
			 M177.822,205.334c0,0-6.299-6.454-9.148,5.847C168.674,211.181,170.409,205.104,177.822,205.334z M239.379,201.671
			c2.526,0,4.306,2.079,4.306,2.079c-1.28-6.165-4.14-12.062-6.982-16.788c3.67-1.923,5.461-8.504,4.049-15.733
			c-1.464-7.482-5.856-13.023-10.123-13.063c0.052-4.083-0.063-6.885-0.063-6.885c1.797-0.299,3.41,0.942,3.41,0.942
			c-4.054-20.598-27.234-33.419-27.234-33.419c1.131-0.792,2.257-0.621,2.257-0.621c-13.225-12.041-27.683-10.714-27.683-10.714
			c0.201-1.918,3.599-3.745,3.599-3.745c-12.455,1.188-17.455,3.727-19.166,4.898c-0.448-0.396-0.713-0.631-0.713-0.631
			s-0.275,0.241-0.758,0.655c-1.665-1.154-6.661-3.727-19.19-4.921c0,0,3.399,1.827,3.595,3.745c0,0-14.459-1.327-27.678,10.714
			c0,0,1.125-0.172,2.251,0.621c0,0-23.187,12.828-27.229,33.419c0,0,1.607-1.241,3.41-0.942c0,0-0.126,2.803-0.069,6.885
			c-4.271,0.04-8.659,5.582-10.118,13.063c-1.424,7.235,0.368,13.81,4.043,15.733c-2.837,4.726-5.696,10.623-6.981,16.788
			c0,0,1.779-2.079,4.307-2.079c0,0-9.452,12.438-5.961,30.319c0,0,1.125-3.205,2.985-3.595c0,0,0.896,17.272,10.853,24.14
			c0,0-0.447-1.895-0.114-3.365c0,0,19.363,14.367,20.04,19.547c0,0,0.896-2.319,0.299-4.881c0,0,12.896,16.285,11.921,21.831
			c0,0,1.976-1.263,2.652-3.881c0,0,3.55,5.202,9.566,8.303c0,0,0.46-1.826-0.08-3.376c0,0,6.099,5.765,11.277,6.718
			c0,0-0.08-1.884-1.033-2.871c0,0,11.335,3.549,11.979,5.72c0.644-2.171,11.984-5.72,11.984-5.72
			c-0.96,0.987-1.04,2.871-1.04,2.871c5.174-0.953,11.283-6.718,11.283-6.718c-0.539,1.538-0.092,3.376-0.092,3.376
			c6.023-3.101,9.566-8.303,9.566-8.303c0.679,2.618,2.659,3.881,2.659,3.881c-0.977-5.546,11.92-21.831,11.92-21.831
			c-0.598,2.55,0.305,4.881,0.305,4.881c0.672-5.18,20.03-19.547,20.03-19.547c0.337,1.471-0.11,3.365-0.11,3.365
			c9.957-6.867,10.852-24.14,10.852-24.14c1.856,0.39,2.987,3.595,2.987,3.595C248.825,214.108,239.379,201.671,239.379,201.671z
			 M229.869,171.797c-0.017,0.006-0.028,0.006-0.047,0.012c0.426-3.595,0.645-7.258,0.742-10.479
			c3.198,1.642,5.972,5.76,6.987,10.939c0.993,5.058,0.047,9.813-2.182,12.569c-3.29-5.105-6.236-8.39-6.236-8.39
			s1.131-3.583,4.271-2.963C233.405,173.485,231.948,171.401,229.869,171.797z M163.369,113.6c1.068,0.425,1.631,0.735,1.631,0.735
			s0.585-0.322,1.677-0.752c3.318,4.031,11.19,9.767,21.637,14.556c13.259,6.087,18.822,13.023,18.822,13.023
			c-16.445-7.648-31.559-5.61-31.559-5.61c19.581,1.574,29.515,15.166,29.515,15.166c-9.458-8.033-26.724-4.898-26.724-4.898
			c10.388,1.017,12.369,6.891,12.369,6.891c-16.441,0.667-25.703,15.103-25.703,15.103s-9.268-14.431-25.714-15.103
			c0,0,1.976-5.874,12.369-6.891c0,0-17.272-3.135-26.725,4.898c0,0,9.935-13.592,29.516-15.166c0,0-15.114-2.038-31.56,5.61
			c0,0,5.559-6.936,18.823-13.023C152.172,123.356,160.039,117.631,163.369,113.6z M201.681,188.788c0,0-1.464,4.444-5.569,5.852
			c0,0,7.229,0.333,10.646-4.519c0.218,4.278-0.518,7.327-0.918,8.633c-9.557,8.843-20.668,3.124-20.668,3.124
			c5.503,5.719,12.348,6.993,18.532,3.112c2.934-1.837,4.466-4.41,5.271-6.615c0.045,2.297-0.833,3.697-0.833,3.697
			c6.65,5.421,5.887,15.114-0.838,24.222c-6.73,9.118-14.521,7.521-14.521,7.521c2.061,6.729,0.637,10.83,0.637,10.83
			c-1.4,3.262-3.118,5.856-5.024,7.924c-0.229,0.207-0.487,0.448-0.792,0.7c0.021-0.011,0.045-0.022,0.063-0.045
			c-0.028,0.034-0.07,0.057-0.11,0.092c0.019-0.012,0.035-0.023,0.047-0.047c-3.084,2.091-9.716,4.17-22.671,4.17
			c-12.575,0-19.202-1.953-22.395-3.974c-2.263-2.193-4.283-5.065-5.891-8.82c0,0-1.425-4.101,0.643-10.83
			c0,0-7.81,1.597-14.528-7.521c-6.729-9.107-7.487-18.801-0.838-24.222c0,0-0.838-1.331-0.838-3.525
			c0.826,2.159,2.354,4.651,5.202,6.443c6.189,3.881,13.034,2.606,18.535-3.112c0,0-11.036,5.685-20.568-3.044
			c-0.401-1.249-1.16-4.303-0.953-8.627c3.446,4.76,10.577,4.433,10.577,4.433c-4.1-1.407-5.558-5.852-5.558-5.852
			c-0.346,1.074,0.275,2.028,0.275,2.028c-3.102-1.396-4.364-3.239-4.778-4.916c0.471-2.573,1.31-5.421,2.688-8.493
			c5.811-12.942,16.617-13.425,38.529,2.768c19.621-16.026,32.714-15.71,38.524-2.768c1.344,3.009,2.182,5.811,2.659,8.332
			c-0.379,1.722-1.62,3.634-4.818,5.077C201.395,190.81,202.02,189.856,201.681,188.788z M92.441,172.269
			c1.011-5.18,3.79-9.297,6.994-10.939c0.092,3.221,0.311,6.885,0.734,10.479c-0.011-0.006-0.022-0.006-0.046-0.012
			c-2.078-0.396-3.549,1.688-3.549,1.688c3.159-0.62,4.284,2.963,4.284,2.963s-2.939,3.285-6.235,8.39
			C92.396,182.082,91.454,177.327,92.441,172.269z M125.688,249.883c-5.776-5.926-4.433-18.295-4.433-18.295
			c-3.743,4.949-2.699,14.47-2.699,14.47c-10.944-11.852-9.899-24.978-9.899-24.978c-5.019,8.935-2.319,21.153-2.319,21.153
			c-9.153-13.126-5.088-28.297-5.088-28.297c-5.685,6.247-6.189,18.846-6.189,18.846c-3.032-6.075-0.563-12.266-0.563-12.266
			c-2.859,1.528-3.422,6.639-3.422,6.639c-7.213-16.871,9.67-35.329,9.67-35.329l-7.993,4.801
			c4.203-9.9,11.254-16.843,11.254-16.843l3.273,4.956c-6.649-30.721-1.194-38.536-1.194-38.536
			c-1.906-0.172-3.767,1.292-3.767,1.292c7.545-21.27,35.28-29.877,35.28-29.877c-2.929-1.688-7.855-1.102-7.855-1.102
			c13.265-6.518,23.955-5.599,29.962-4.083c-2.905,2.313-6.568,5.036-9.784,6.873c-6.627,3.767-29.596,13.844-34.545,28.671
			c0,0,3.651-4.054,9.164-4.088c0,0-5.168,5.105-4.72,14.418c0,0,6.522-6.683,15.596-7.493c0,0-3.228,3.187-3.182,5.937
			c0,0,13.862-3.353,26.816,9.796c-6.661-3.319-17.87-7.218-28.113-2.882c0,0,3.284-0.362,4.283,0.511
			c0,0-13.505,4.961-15.642,24.83c0,0-1.528-1.545-1.436-4.537c0,0-3.457,9.549-1.218,14.559c0,0-5.811,9.935-4.18,19.479
			c0,0,0.712-2.218,1.94-2.642c0,0-0.356,10.163,7.741,16.491c0,0-1.012-1.987-0.609-3.238c0,0,1.734,4.031,6.466,7.557
			C125.16,241.98,125.688,249.883,125.688,249.883z M137.161,272.472c2.929-3.836,0.081-8.406,0.081-8.406
			c-2.251,5.029-7.132,3.675-7.132,3.675c3.606-1.952,3.262-7.729,3.262-7.729c-4.904-0.287-4.687-17.848-4.514-22.935
			c1.217,0.85,2.618,1.653,4.227,2.354c0,0-2.171,11.771,12.161,26.529C144.339,271.231,137.161,272.472,137.161,272.472z
			 M165.034,270.681c-8.143,0-19.167-2.124-25.793-18.812c0,0,6.063,11.243,25.793,11.243c19.718,0,25.782-11.243,25.782-11.243
			C184.19,268.557,173.165,270.681,165.034,270.681z M199.879,267.74c0,0-4.877,1.354-7.121-3.675c0,0-2.854,4.57,0.075,8.406
			c0,0-7.126-1.229-8.081-6.454c14.401-14.78,12.226-26.586,12.226-26.586c1.58-0.689,2.958-1.471,4.159-2.309
			c0.166,5.146,0.372,22.602-4.52,22.889C196.617,260.012,196.282,265.788,199.879,267.74z M238.925,227.155
			c0,0-0.558-5.11-3.434-6.639c0,0,2.476,6.19-0.563,12.266c0,0-0.504-12.599-6.189-18.846c0,0,4.077,15.171-5.082,28.297
			c0,0,2.705-12.219-2.325-21.153c0,0,1.05,13.126-9.9,24.978c0,0,1.052-9.521-2.697-14.481c0,0,1.349,12.381-4.429,18.307
			c0,0,0.529-7.867-2.578-13.173c4.772-3.526,6.513-7.591,6.513-7.591c0.407,1.251-0.604,3.227-0.604,3.227
			c8.098-6.316,7.735-16.491,7.735-16.491c1.229,0.436,1.94,2.653,1.94,2.653c1.632-9.544-4.18-19.479-4.18-19.479
			c2.239-5.01-1.218-14.559-1.218-14.559c0.099,2.985-1.429,4.531-1.429,4.531c-2.143-19.862-15.643-24.829-15.643-24.829
			c0.993-0.873,4.278-0.511,4.278-0.511c-9.957-4.209-20.811-0.649-27.54,2.602c12.807-12.817,26.243-9.51,26.243-9.51
			c0.045-2.756-3.188-5.943-3.188-5.943c9.079,0.81,15.601,7.493,15.601,7.493c0.447-9.313-4.719-14.412-4.719-14.412
			c5.518,0.028,9.158,4.082,9.158,4.082c-4.938-14.826-27.919-24.904-34.539-28.67c-3.223-1.837-6.892-4.565-9.796-6.885
			c6-1.504,16.681-2.4,29.916,4.094c0,0-4.939-0.581-7.861,1.108c0,0,27.741,8.608,35.274,29.871c0,0-1.854-1.458-3.768-1.292
			c0,0,5.456,7.821-1.183,38.536l3.262-4.95c0,0,7.059,6.938,11.255,16.843l-7.987-4.801
			C229.249,191.826,246.125,210.284,238.925,227.155z M147.67,198.168c-0.069,0.138-0.138,0.288-0.195,0.425
			C147.475,198.593,147.555,198.432,147.67,198.168z M147.67,198.168c2.102-4.08,8.774-6.25,8.774-6.25
			c-6.248,0.689-12.599-6.752-17.296-10.939c-4.708-4.191-8.269-6.104-9.429-2.871c-1.159,3.239,0.482,8.247,0.482,8.247
			c0.563-4.663,1.918-3.94,1.918-3.94s-0.77,8.769,5.961,10.911c6.74,2.142,10.231-0.581,10.231-0.581
			C149.117,194.525,148.118,197.161,147.67,198.168z M138.035,183.104l1.331,1.774c0,0,0.609,5.806,6.294,3.423l0.459,1.883
			C146.119,190.184,137.506,193.021,138.035,183.104z M135.727,189.65c-2.688-5.024-0.299-7.804-0.299-7.804l1.286,0.551
			c0,0-2.205,5.236,2.297,8.286c4.502,3.037,8.337,0.132,8.337,0.132l0.7,0.643C147.004,192.71,138.688,194.634,135.727,189.65z
			 M156.191,189.322c7.315-0.195,4.72-8.039,4.72-8.039v-0.143c0,0-1.596,2.503-5.397,3.658c-3.79,1.148-7.786-0.563-11.105-2.9
			C144.408,181.897,148.876,189.518,156.191,189.322z M152.734,203.049c3.342-2.871,4.388-4.134,6.155-4.157
			c0,0-2.791-0.875-5.627,0.505c-2.837,1.378-4.927,5.398-10.13,6.351C143.133,205.748,149.381,205.92,152.734,203.049z
			 M151.483,220.987c-4.63-2.182-7.145-0.172-6.294,4.433c0.85,4.606,4.468,8.453,4.468,8.453s-3.986-9.13-0.356-10.508
			c0.804-0.219,0.54,12.392,9.566,10.289c0,0,0.896,1.941,2.641,2.355c0,0-1.573-3.09,0.941-7.213
			C162.449,228.797,156.11,223.158,151.483,220.987z M143.374,222.963c3.676-10.807,16.137-5.627,16.137-5.627
			c-2.4-7.58-8.774-8.637-8.774-8.637c-16.434,15.986-21.234,3.985-21.234,3.985c-3.974,7.729,3.743,8.326,6.821,15.446
			c3.078,7.132,11.024,9.83,11.024,9.83S139.7,233.758,143.374,222.963z M164.966,215.418c-1.138,2.147-2.068,2.779-5.18,3.561
			c3.111,0.791,4.042,1.424,5.18,3.56c1.137-2.136,2.055-2.769,5.179-3.56C167.021,218.197,166.103,217.565,164.966,215.418z
			 M152.172,205.334c7.419-0.229,9.152,5.847,9.152,5.847C158.465,198.88,152.172,205.334,152.172,205.334z"/>
	</g>
</g>
</svg>
