<?xml version="1.0" encoding="utf-8"?>
<!-- Generator: Adobe Illustrator 19.1.0, SVG Export Plug-In . SVG Version: 6.00 Build 0)  -->
<svg version="1.1" id="Camada_1" xmlns="http://www.w3.org/2000/svg" xmlns:xlink="http://www.w3.org/1999/xlink" x="0px" y="0px"
	 viewBox="0 0 612 792" style="enable-background:new 0 0 612 792;" xml:space="preserve">
<style type="text/css">
	.st0{fill:#3399CC;stroke:#54C4F1;stroke-width:3;stroke-miterlimit:10;}
	.st1{fill:#E83C69;stroke:#EF7FA6;stroke-width:3;stroke-miterlimit:10;}
	.st2{fill:#EF7FA6;}
	.st3{fill:#73C098;stroke:#A6D4B6;stroke-width:3;stroke-miterlimit:10;}
	.st4{fill:#FFCE0E;stroke:#FFEDB3;stroke-width:3;stroke-miterlimit:10;}
	.st5{fill:#9A679A;stroke:#DEB0D3;stroke-width:3;stroke-miterlimit:10;}
	.st6{fill:#010202;stroke:#DDDDDD;stroke-width:3;stroke-miterlimit:10;}
	.st7{fill:#F4983C;stroke:#F2BF90;stroke-width:3;stroke-miterlimit:10;}
</style>
<g>
	<path class="st1" d="M371.5,521V196.1c0-36.2-29.3-65.6-65.5-65.6c-36.2,0-65.6,29.3-65.6,65.6V521c-12.5,14.9-20,34-20,54.9
		c0,47.2,38.3,85.5,85.5,85.5s85.5-38.3,85.5-85.5C391.5,555,384,535.8,371.5,521z"/>
	<g>
		<rect x="240.5" y="459.3" class="st2" width="43" height="4.5"/>
		<rect x="240.5" y="409.7" class="st2" width="43" height="4.5"/>
		<rect x="240.5" y="360.1" class="st2" width="43" height="4.5"/>
		<rect x="240.5" y="310.5" class="st2" width="43" height="4.5"/>
		<rect x="240.5" y="260.9" class="st2" width="43" height="4.5"/>
		<rect x="240.5" y="211.4" class="st2" width="43" height="4.5"/>
	</g>
</g>
</svg>
