<?xml version="1.0" encoding="utf-8"?>
<!-- Generator: Adobe Illustrator 19.1.0, SVG Export Plug-In . SVG Version: 6.00 Build 0)  -->
<svg version="1.1"
	 id="Layer_1" sodipodi:docname="beta.svg" inkscape:version="0.48.4 r9939" xmlns:rdf="http://www.w3.org/1999/02/22-rdf-syntax-ns#" xmlns:cc="http://creativecommons.org/ns#" xmlns:sodipodi="http://sodipodi.sourceforge.net/DTD/sodipodi-0.dtd" xmlns:svg="http://www.w3.org/2000/svg" xmlns:inkscape="http://www.inkscape.org/namespaces/inkscape" xmlns:dc="http://purl.org/dc/elements/1.1/"
	 xmlns="http://www.w3.org/2000/svg" xmlns:xlink="http://www.w3.org/1999/xlink" x="0px" y="0px" viewBox="124 262 420 270"
	 style="enable-background:new 124 262 420 270;" xml:space="preserve">
<style type="text/css">
	.st0{fill:none;stroke:#000000;stroke-width:2;stroke-miterlimit:10;}
	.st1{fill:none;stroke:#000000;stroke-width:2;stroke-linejoin:round;stroke-miterlimit:10;}
	.st2{fill:none;stroke:#000000;stroke-width:2;stroke-miterlimit:10;stroke-dasharray:3;}
</style>
<sodipodi:namedview  inkscape:current-layer="Layer_1" inkscape:window-maximized="1" inkscape:window-y="24" inkscape:window-x="0" inkscape:window-height="1026" inkscape:window-width="1680" inkscape:pageopacity="0" inkscape:pageshadow="2" borderopacity="1" id="namedview3813" bordercolor="#666666" pagecolor="#ffffff" objecttolerance="10" inkscape:zoom="0.59" inkscape:cx="86.271186" guidetolerance="10" showgrid="false" gridtolerance="10" inkscape:cy="200">
	</sodipodi:namedview>
<title  id="title3799">Layer 1</title>
<g>
	<g>
		<g>
			<g>
				<path class="st0" d="M185,459.7c-34.4-35-34.4-91,0-125.4"/>
				<path class="st0" d="M201.1,443.6c-25.8-25.8-25.8-67.3,0-92.6"/>
				<path class="st0" d="M218.9,424.2c-15.1-15.1-15.1-39.3,0-54.4"/>
			</g>
		</g>
	</g>
	<g>
		<g>
			<g>
				<path class="st0" d="M483,334.3c34.4,34.4,34.4,90.4,0,125.4"/>
				<path class="st0" d="M466.9,351c25.8,25.3,25.8,66.7,0,92.6"/>
				<path class="st0" d="M449.1,369.8c15.1,15.1,15.1,39.3,0,54.4"/>
			</g>
		</g>
	</g>
</g>
<g>
	<polyline id="polyline11" class="st1" points="409,441.9 371.4,464.3 334,487 334,441.9 334,397 	"/>
	<polyline id="polyline13" class="st1" points="409,441.9 409,397 409,351.9 371.6,374.4 334,397 	"/>
	<polyline id="polyline15" class="st1" points="334,307 296.6,329.5 259,351.9 296.6,374.4 334,397 	"/>
	<polyline id="polyline17" class="st1" points="334,307 371.4,329.5 409,351.9 371.4,374.4 334,397 	"/>
	<polyline id="polyline19" class="st1" points="259,441.9 296.6,464.3 334,487 334,441.9 334,397 	"/>
	<polyline id="polyline21" class="st1" points="259,441.9 259,397 259,351.9 296.6,374.4 334,397 	"/>
	<g id="g23">
		<g id="g25">
			<g id="g27">
				<line id="line29" class="st2" x1="334" y1="307" x2="334" y2="309"/>
				<line id="line31" class="st2" x1="334" y1="313.2" x2="334" y2="392.8"/>
				<line id="line33" class="st2" x1="334" y1="394.8" x2="334" y2="397"/>
			</g>
		</g>
		<g id="g35">
			<g id="g37">
				<line id="line39" class="st2" x1="334" y1="397" x2="335.8" y2="398"/>
				<line id="line41" class="st2" x1="339.5" y1="400.3" x2="405.3" y2="439.7"/>
				<line id="line43" class="st2" x1="407.2" y1="440.9" x2="409" y2="441.9"/>
			</g>
		</g>
		<g id="g45">
			<g id="g47">
				<line id="line49" class="st2" x1="334" y1="397" x2="332.2" y2="398"/>
				<line id="line51" class="st2" x1="328.3" y1="400.3" x2="262.7" y2="439.7"/>
				<line id="line53" class="st2" x1="260.8" y1="440.9" x2="259" y2="441.9"/>
			</g>
		</g>
	</g>
	<g id="g55">
		<line id="line57" class="st0" x1="334" y1="487" x2="334" y2="397"/>
		<line id="line59" class="st0" x1="334" y1="397" x2="409" y2="351.9"/>
		<line id="line61" class="st0" x1="334" y1="397" x2="259" y2="351.9"/>
	</g>
</g>
</svg>
