<?xml version="1.0" encoding="UTF-8" standalone="no"?>
<!-- Generator: Adobe Illustrator 19.1.0, SVG Export Plug-In . SVG Version: 6.00 Build 0)  -->

<svg
   xmlns:dc="http://purl.org/dc/elements/1.1/"
   xmlns:cc="http://creativecommons.org/ns#"
   xmlns:rdf="http://www.w3.org/1999/02/22-rdf-syntax-ns#"
   xmlns:svg="http://www.w3.org/2000/svg"
   xmlns="http://www.w3.org/2000/svg"
   xmlns:sodipodi="http://sodipodi.sourceforge.net/DTD/sodipodi-0.dtd"
   xmlns:inkscape="http://www.inkscape.org/namespaces/inkscape"
   version="1.1"
   id="Camada_1"
   x="0px"
   y="0px"
   viewBox="0 0 360 360"
   xml:space="preserve"
   inkscape:version="0.91 r13725"
   sodipodi:docname="services.svg"
   width="360"
   height="360"><metadata
     id="metadata103"><rdf:RDF><cc:Work
         rdf:about=""><dc:format>image/svg+xml</dc:format><dc:type
           rdf:resource="http://purl.org/dc/dcmitype/StillImage" /><dc:title></dc:title></cc:Work></rdf:RDF></metadata><defs
     id="defs101" /><sodipodi:namedview
     pagecolor="#ffffff"
     bordercolor="#666666"
     borderopacity="1"
     objecttolerance="10"
     gridtolerance="10"
     guidetolerance="10"
     inkscape:pageopacity="0"
     inkscape:pageshadow="2"
     inkscape:window-width="1215"
     inkscape:window-height="696"
     id="namedview99"
     showgrid="false"
     inkscape:zoom="0.4578125"
     inkscape:cx="476.17747"
     inkscape:cy="180"
     inkscape:window-x="65"
     inkscape:window-y="24"
     inkscape:window-maximized="1"
     inkscape:current-layer="Camada_1" /><style
     type="text/css"
     id="style3">
	.st0{fill:#FFFFFF;stroke:#000000;stroke-width:0.875;stroke-miterlimit:10;}
	.st1{stroke:#FFFFFF;stroke-width:0.3606;stroke-miterlimit:10;}
	.st2{fill:#3799CF;}
	.st3{fill:#A06397;}
	.st4{fill:#F4982C;}
	.st5{fill:#E72D60;}
	.st6{fill:#FFCF00;}
	.st7{fill:#78C193;}
	.st8{fill:none;stroke:#FFFFFF;stroke-width:1.0818;stroke-miterlimit:10;}
	.st9{fill:none;stroke:#FFFFFF;stroke-width:1.0818;stroke-miterlimit:10;stroke-dasharray:2.4555,2.4555;}
	.st10{fill:none;stroke:#FFFFFF;stroke-width:1.0818;stroke-miterlimit:10;stroke-dasharray:2.6337,2.6337;}
	.st11{fill:none;stroke:#000000;stroke-width:9.3994;stroke-miterlimit:10;}
	.st12{fill:none;stroke:#000000;stroke-miterlimit:10;}
	.st13{fill:#6D1843;stroke:#6D1843;stroke-width:1.7301;stroke-miterlimit:10;}
	.st14{fill:#8C2764;stroke:#8C2764;stroke-width:1.7301;stroke-miterlimit:10;}
	.st15{fill:#BF5E93;stroke:#BF5E93;stroke-width:1.7301;stroke-miterlimit:10;}
	.st16{fill:#D280B1;stroke:#D280B1;stroke-width:1.7301;stroke-miterlimit:10;}
	.st17{fill:#D1A3C1;stroke:#D1A3C1;stroke-width:1.7301;stroke-miterlimit:10;}
	.st18{fill:#488DCB;}
	.st19{fill:#4FACE0;}
	.st20{fill:#6ACAF3;}
	.st21{fill:#91D9F2;}
	.st22{fill:none;}
	.st23{fill:#12A84B;}
	.st24{fill:#14B14B;}
	.st25{fill:#36B350;}
	.st26{fill:#48B656;}
	.st27{fill:#5DBA55;}
	.st28{fill:#72BF52;}
	.st29{fill:#99BC88;}
	.st30{fill:#EC1C24;}
	.st31{fill:#E94753;}
	.st32{fill:#EE6771;}
	.st33{fill:#ED8D97;}
	.st34{fill:#E4B4BC;}
	.st35{fill:#E2D0D4;}
</style><g
     id="g3431"
     transform="translate(-140,-5.4474191e-4)"><polygon
       style="fill:none;stroke:#000000;stroke-miterlimit:10"
       id="polygon5"
       points="390.5,168.4 333,133.8 333,64.6 390.5,30 448,64.6 448,133.8 "
       class="st12" /><g
       transform="translate(-256.6798,-531.7963)"
       id="layer1_5_"><path
         style="fill:#6d1843;stroke:#6d1843;stroke-width:1.73010004;stroke-miterlimit:10"
         inkscape:connector-curvature="0"
         d="m 627,662.1 -5.5,0 c 0.8,-3.8 1.2,-7.2 1.2,-10.3 l 0,-36.5 c 0,-3.8 0.3,-6.6 1,-8.5 0.7,-1.9 2,-3.5 4,-4.9 2,-1.4 4.5,-2.1 7.4,-2.1 3.5,0 6.5,0.9 8.9,2.8 2.4,1.9 3.6,4.5 3.6,7.9 0,4 -1.9,7.3 -5.7,9.9 5.7,2.7 8.5,6.9 8.5,12.6 0,3.1 -0.8,5.9 -2.3,8.4 -1.5,2.5 -3.2,4.2 -5.2,5.3 -2,1.1 -4.3,1.6 -7.1,1.6 -3.1,0 -5.7,-1.2 -7.6,-3.5 l 0,6.2 c 0,4.4 -0.4,8.1 -1.2,11.1 m 1.2,-20.2 c 1.7,2.9 4.2,4.3 7.3,4.3 3,0 5.2,-1.1 6.6,-3.3 1.4,-2.2 2.1,-4.9 2.1,-8 0,-2.4 -0.5,-4.9 -1.4,-7.4 -0.9,-2.5 -2.1,-4.4 -3.6,-5.8 -1.3,0.3 -2.5,0.5 -3.6,0.5 -2.3,0 -3.4,-0.6 -3.4,-1.8 0,-1.1 0.9,-1.6 2.8,-1.6 1.2,0 2.7,0.3 4.4,0.8 1.6,-2.7 2.4,-5.6 2.4,-8.7 0,-2.8 -0.6,-5 -1.9,-6.5 -1.2,-1.5 -2.8,-2.2 -4.8,-2.2 -1.6,0 -3,0.4 -4.1,1.3 -1.1,0.9 -1.9,2 -2.3,3.2 -0.4,1.2 -0.6,3.3 -0.6,6.1 l 0,29.1"
         class="st13"
         id="text5540_5_" /></g><g
       transform="translate(-256.6798,-531.7963)"
       id="layer1_4_"><path
         style="fill:#8c2764;stroke:#8c2764;stroke-width:1.73010004;stroke-miterlimit:10"
         inkscape:connector-curvature="0"
         d="m 632.6,662.1 -5.5,0 c 0.8,-3.8 1.2,-7.2 1.2,-10.3 l 0,-36.5 c 0,-3.8 0.3,-6.6 1,-8.5 0.7,-1.9 2,-3.5 4,-4.9 2,-1.4 4.5,-2.1 7.4,-2.1 3.5,0 6.5,0.9 8.9,2.8 2.4,1.9 3.6,4.5 3.6,7.9 0,4 -1.9,7.3 -5.7,9.9 5.7,2.7 8.5,6.9 8.5,12.6 0,3.1 -0.8,5.9 -2.3,8.4 -1.5,2.5 -3.2,4.2 -5.2,5.3 -2,1.1 -4.3,1.6 -7.1,1.6 -3.1,0 -5.7,-1.2 -7.6,-3.5 l 0,6.2 c 0,4.4 -0.4,8.1 -1.2,11.1 m 1.2,-20.2 c 1.7,2.9 4.2,4.3 7.3,4.3 3,0 5.2,-1.1 6.6,-3.3 1.4,-2.2 2.1,-4.9 2.1,-8 0,-2.4 -0.5,-4.9 -1.4,-7.4 -0.9,-2.5 -2.1,-4.4 -3.6,-5.8 -1.3,0.3 -2.5,0.5 -3.6,0.5 -2.3,0 -3.4,-0.6 -3.4,-1.8 0,-1.1 0.9,-1.6 2.8,-1.6 1.2,0 2.7,0.3 4.4,0.8 1.6,-2.7 2.4,-5.6 2.4,-8.7 0,-2.8 -0.6,-5 -1.9,-6.5 -1.2,-1.5 -2.8,-2.2 -4.8,-2.2 -1.6,0 -3,0.4 -4.1,1.3 -1.1,0.9 -1.9,2 -2.3,3.2 -0.4,1.2 -0.6,3.3 -0.6,6.1 l 0,29.1"
         class="st14"
         id="text5540_4_" /></g><g
       transform="translate(-256.6798,-531.7963)"
       id="layer1_2_"><path
         style="fill:#bf5e93;stroke:#bf5e93;stroke-width:1.73010004;stroke-miterlimit:10"
         inkscape:connector-curvature="0"
         d="m 638.3,662.1 -5.5,0 c 0.8,-3.8 1.2,-7.2 1.2,-10.3 l 0,-36.5 c 0,-3.8 0.3,-6.6 1,-8.5 0.7,-1.9 2,-3.5 4,-4.9 2,-1.4 4.5,-2.1 7.4,-2.1 3.5,0 6.5,0.9 8.9,2.8 2.4,1.9 3.6,4.5 3.6,7.9 0,4 -1.9,7.3 -5.7,9.9 5.7,2.7 8.5,6.9 8.5,12.6 0,3.1 -0.8,5.9 -2.3,8.4 -1.5,2.5 -3.2,4.2 -5.2,5.3 -2,1.1 -4.3,1.6 -7.1,1.6 -3.1,0 -5.7,-1.2 -7.6,-3.5 l 0,6.2 c 0,4.4 -0.4,8.1 -1.2,11.1 m 1.2,-20.2 c 1.7,2.9 4.2,4.3 7.3,4.3 3,0 5.2,-1.1 6.6,-3.3 1.4,-2.2 2.1,-4.9 2.1,-8 0,-2.4 -0.5,-4.9 -1.4,-7.4 -0.9,-2.5 -2.1,-4.4 -3.6,-5.8 -1.3,0.3 -2.5,0.5 -3.6,0.5 -2.3,0 -3.4,-0.6 -3.4,-1.8 0,-1.1 0.9,-1.6 2.8,-1.6 1.2,0 2.7,0.3 4.4,0.8 1.6,-2.7 2.4,-5.6 2.4,-8.7 0,-2.8 -0.6,-5 -1.9,-6.5 -1.2,-1.5 -2.8,-2.2 -4.8,-2.2 -1.6,0 -3,0.4 -4.1,1.3 -1.1,0.9 -1.9,2 -2.3,3.2 -0.4,1.2 -0.6,3.3 -0.6,6.1 l 0,29.1"
         class="st15"
         id="text5540_2_" /></g><g
       transform="translate(-256.6798,-531.7963)"
       id="layer1_3_"><path
         style="fill:#d280b1;stroke:#d280b1;stroke-width:1.73010004;stroke-miterlimit:10"
         inkscape:connector-curvature="0"
         d="m 643.7,662.1 -5.5,0 c 0.8,-3.8 1.2,-7.2 1.2,-10.3 l 0,-36.5 c 0,-3.8 0.3,-6.6 1,-8.5 0.7,-1.9 2,-3.5 4,-4.9 2,-1.4 4.5,-2.1 7.4,-2.1 3.5,0 6.5,0.9 8.9,2.8 2.4,1.9 3.6,4.5 3.6,7.9 0,4 -1.9,7.3 -5.7,9.9 5.7,2.7 8.5,6.9 8.5,12.6 0,3.1 -0.8,5.9 -2.3,8.4 -1.5,2.5 -3.2,4.2 -5.2,5.3 -2,1.1 -4.3,1.6 -7.1,1.6 -3.1,0 -5.7,-1.2 -7.6,-3.5 l 0,6.2 c 0,4.4 -0.4,8.1 -1.2,11.1 m 1.2,-20.2 c 1.7,2.9 4.2,4.3 7.3,4.3 3,0 5.2,-1.1 6.6,-3.3 1.4,-2.2 2.1,-4.9 2.1,-8 0,-2.4 -0.5,-4.9 -1.4,-7.4 -0.9,-2.5 -2.1,-4.4 -3.6,-5.8 -1.3,0.3 -2.5,0.5 -3.6,0.5 -2.3,0 -3.4,-0.6 -3.4,-1.8 0,-1.1 0.9,-1.6 2.8,-1.6 1.2,0 2.7,0.3 4.4,0.8 1.6,-2.7 2.4,-5.6 2.4,-8.7 0,-2.8 -0.6,-5 -1.9,-6.5 -1.2,-1.5 -2.8,-2.2 -4.8,-2.2 -1.6,0 -3,0.4 -4.1,1.3 -1.1,0.9 -1.9,2 -2.3,3.2 -0.4,1.2 -0.6,3.3 -0.6,6.1 l 0,29.1"
         class="st16"
         id="text5540_3_" /></g><g
       transform="translate(-256.6798,-531.7963)"
       id="layer1_1_"><path
         style="fill:#d1a3c1;stroke:#d1a3c1;stroke-width:1.73010004;stroke-miterlimit:10"
         inkscape:connector-curvature="0"
         d="m 649.6,662.1 -5.6,0 c 0.8,-3.8 1.2,-7.2 1.2,-10.3 l 0,-36.5 c 0,-3.8 0.3,-6.6 1,-8.5 0.7,-1.9 2,-3.5 4,-4.9 2,-1.4 4.5,-2.1 7.4,-2.1 3.5,0 6.5,0.9 8.9,2.8 2.4,1.9 3.6,4.5 3.6,7.9 0,4 -1.9,7.3 -5.7,9.9 5.7,2.7 8.5,6.9 8.5,12.6 0,3.1 -0.8,5.9 -2.3,8.4 -1.5,2.5 -3.2,4.2 -5.2,5.3 -2,1.1 -4.3,1.6 -7.1,1.6 -3.1,0 -5.7,-1.2 -7.6,-3.5 l 0,6.2 c 0.1,4.4 -0.3,8.1 -1.1,11.1 m 1.2,-20.2 c 1.7,2.9 4.2,4.3 7.3,4.3 3,0 5.2,-1.1 6.6,-3.3 1.4,-2.2 2.1,-4.9 2.1,-8 0,-2.4 -0.5,-4.9 -1.4,-7.4 -0.9,-2.5 -2.1,-4.4 -3.6,-5.8 -1.3,0.3 -2.5,0.5 -3.6,0.5 -2.3,0 -3.4,-0.6 -3.4,-1.8 0,-1.1 0.9,-1.6 2.8,-1.6 1.2,0 2.7,0.3 4.4,0.8 1.6,-2.7 2.4,-5.6 2.4,-8.7 0,-2.8 -0.6,-5 -1.9,-6.5 -1.2,-1.5 -2.8,-2.2 -4.8,-2.2 -1.6,0 -3,0.4 -4.1,1.3 -1.1,0.9 -1.9,2 -2.3,3.2 -0.4,1.2 -0.6,3.3 -0.6,6.1 l 0,29.1"
         class="st17"
         id="text5540_1_" /></g><polygon
       style="fill:none;stroke:#000000;stroke-miterlimit:10"
       id="polygon17"
       points="249.9,168.4 192.4,133.8 192.4,64.6 249.9,30 307.4,64.6 307.4,133.8 "
       class="st12" /><g
       id="g19"><rect
         style="fill:#488dcb"
         id="rect21"
         height="13"
         width="35.900002"
         class="st18"
         y="85.400002"
         x="231.7" /><circle
         style="fill:#488dcb"
         id="circle23"
         r="8.8999996"
         cy="89.5"
         cx="231.7"
         class="st18" /><circle
         style="fill:#488dcb"
         id="circle25"
         r="8.8999996"
         cy="89.5"
         cx="267.60001"
         class="st18" /><circle
         style="fill:#488dcb"
         id="circle27"
         r="8.8999996"
         cy="78.599998"
         cx="238.7"
         class="st18" /><circle
         style="fill:#488dcb"
         id="circle29"
         r="8.8999996"
         cy="78.599998"
         cx="260.39999"
         class="st18" /><circle
         style="fill:#488dcb"
         id="circle31"
         r="8.8999996"
         cy="73.300003"
         cx="249.7"
         class="st18" /><rect
         style="fill:#488dcb"
         id="rect33"
         height="8.8999996"
         width="35.900002"
         class="st18"
         y="81.400002"
         x="231.7" /></g><g
       id="g35"><rect
         style="fill:#4face0"
         id="rect37"
         height="13"
         width="35.900002"
         class="st19"
         y="93.5"
         x="231.7" /><circle
         style="fill:#4face0"
         id="circle39"
         r="8.8999996"
         cy="97.599998"
         cx="231.7"
         class="st19" /><circle
         style="fill:#4face0"
         id="circle41"
         r="8.8999996"
         cy="97.599998"
         cx="267.60001"
         class="st19" /><circle
         style="fill:#4face0"
         id="circle43"
         r="8.8999996"
         cy="86.699997"
         cx="238.7"
         class="st19" /><circle
         style="fill:#4face0"
         id="circle45"
         r="8.8999996"
         cy="86.699997"
         cx="260.39999"
         class="st19" /><circle
         style="fill:#4face0"
         id="circle47"
         r="8.8999996"
         cy="81.400002"
         cx="249.7"
         class="st19" /><rect
         style="fill:#4face0"
         id="rect49"
         height="8.8999996"
         width="35.900002"
         class="st19"
         y="89.5"
         x="231.7" /></g><g
       id="g51"><rect
         style="fill:#6acaf3"
         id="rect53"
         height="13"
         width="35.900002"
         class="st20"
         y="103.7"
         x="231.7" /><circle
         style="fill:#6acaf3"
         id="circle55"
         r="8.8999996"
         cy="107.8"
         cx="231.7"
         class="st20" /><circle
         style="fill:#6acaf3"
         id="circle57"
         r="8.8999996"
         cy="107.8"
         cx="267.60001"
         class="st20" /><circle
         style="fill:#6acaf3"
         id="circle59"
         r="8.8999996"
         cy="96.800003"
         cx="238.7"
         class="st20" /><circle
         style="fill:#6acaf3"
         id="circle61"
         r="8.8999996"
         cy="96.800003"
         cx="260.39999"
         class="st20" /><circle
         style="fill:#6acaf3"
         id="circle63"
         r="8.8999996"
         cy="91.5"
         cx="249.7"
         class="st20" /><rect
         style="fill:#6acaf3"
         id="rect65"
         height="8.8999996"
         width="35.900002"
         class="st20"
         y="99.599998"
         x="231.7" /></g><path
       style="fill:#91d9f2"
       inkscape:connector-curvature="0"
       id="path67"
       d="m 269,109.1 c 0.2,-0.7 0.3,-1.4 0.3,-2.2 0,-4.9 -4,-8.9 -8.9,-8.9 -0.9,0 -1.7,0.1 -2.5,0.4 -1.3,-3.3 -4.5,-5.7 -8.3,-5.7 -3.8,0 -7,2.4 -8.3,5.7 -0.8,-0.3 -1.7,-0.4 -2.7,-0.4 -4.9,0 -8.9,4 -8.9,8.9 0,0.8 0.1,1.5 0.3,2.2 -4.2,0.7 -7.3,4.5 -7.3,8.8 0,4.9 4,9 8.9,9 l 35.9,0 c 4.9,0 8.9,-4.1 8.9,-9 0.1,-4.3 -3.2,-8.1 -7.4,-8.8 z"
       class="st21" /><polygon
       style="fill:none;stroke:#000000;stroke-miterlimit:10"
       id="polygon69"
       points="249.1,330 192,295.4 192,226.2 249.1,191.6 306.2,226.2 306.2,295.4 "
       class="st12" /><polygon
       style="fill:#12a84b"
       id="polygon71"
       points="234.4,245.2 260.1,260.8 234.4,276.3 208.7,291.9 208.7,260.8 208.7,229.7 "
       class="st23" /><polygon
       style="fill:#14b14b"
       id="polygon73"
       points="239.3,245.2 265,260.8 239.3,276.3 213.6,291.9 213.6,260.8 213.6,229.7 "
       class="st24" /><polygon
       style="fill:#36b350"
       id="polygon75"
       points="244.2,245.2 269.9,260.8 244.2,276.3 218.5,291.9 218.5,260.8 218.5,229.7 "
       class="st25" /><polygon
       style="fill:#48b656"
       id="polygon77"
       points="223.4,260.8 223.4,291.9 249.1,276.4 274.7,260.8 249.1,245.3 223.4,229.7 "
       class="st26" /><polygon
       style="fill:#5dba55"
       id="polygon79"
       points="228.3,260.8 228.3,291.9 254,276.4 279.6,260.8 254,245.3 228.3,229.7 "
       class="st27" /><polygon
       style="fill:#72bf52"
       id="polygon81"
       points="258.8,245.3 284.5,260.8 258.8,276.4 233.2,291.9 233.2,260.8 233.2,229.7 "
       class="st28" /><polygon
       style="fill:#99bc88"
       id="polygon83"
       points="263.7,245.3 289.4,260.8 263.7,276.4 238,291.9 238,260.8 238,229.7 "
       class="st29" /><polygon
       style="fill:none;stroke:#000000;stroke-miterlimit:10"
       id="polygon85"
       points="390.5,330 333.4,295.4 333.4,226.2 390.5,191.6 447.6,226.2 447.6,295.4 "
       class="st12" /><polygon
       style="fill:#ec1c24"
       id="polygon87"
       points="390.5,255.1 423.8,275.2 390.5,295.4 357.3,275.2 "
       class="st30" /><polygon
       style="fill:#e94753"
       id="polygon89"
       points="390.5,249.3 423.8,269.5 390.5,289.6 357.3,269.5 "
       class="st31" /><polygon
       style="fill:#ee6771"
       id="polygon91"
       points="390.5,243.5 423.8,263.7 390.5,283.9 357.3,263.7 "
       class="st32" /><polygon
       style="fill:#ed8d97"
       id="polygon93"
       points="390.5,237.7 423.8,257.9 390.5,278.1 357.3,257.9 "
       class="st33" /><polygon
       style="fill:#e4b4bc"
       id="polygon95"
       points="390.5,232 423.8,252.1 390.5,272.3 357.3,252.1 "
       class="st34" /><polygon
       style="fill:#e2d0d4"
       id="polygon97"
       points="390.5,226.2 423.8,246.4 390.5,266.5 357.3,246.4 "
       class="st35" /></g></svg>