<?xml version="1.0" encoding="utf-8"?>
<!-- Generator: Adobe Illustrator 16.0.0, SVG Export Plug-In . SVG Version: 6.00 Build 0)  -->
<!DOCTYPE svg PUBLIC "-//W3C//DTD SVG 1.1//EN" "http://www.w3.org/Graphics/SVG/1.1/DTD/svg11.dtd">
<svg version="1.1" id="Layer_1" xmlns="http://www.w3.org/2000/svg" xmlns:xlink="http://www.w3.org/1999/xlink" x="0px" y="0px"
	 width="600px" height="400px" viewBox="0 0 600 400" enable-background="new 0 0 600 400" xml:space="preserve">
<line fill="none" stroke="#72C59B" stroke-width="4" stroke-miterlimit="10" stroke-dasharray="4" x1="300.002" y1="145" x2="300.002" y2="69.666"/>
<g>
	<g>
		<rect x="80.015" y="145" fill="none" stroke="#9A6799" stroke-width="4" stroke-linecap="square" width="39.639" height="50"/>
	</g>
	
		<line fill="none" stroke="#9A6799" stroke-width="4" stroke-linecap="square" x1="90.502" y1="154.681" x2="109.167" y2="154.681"/>
	
		<line fill="none" stroke="#9A6799" stroke-width="4" stroke-linecap="square" x1="90.502" y1="164.681" x2="109.167" y2="164.681"/>
	
		<line fill="none" stroke="#9A6799" stroke-width="4" stroke-linecap="square" x1="90.502" y1="174.681" x2="109.167" y2="174.681"/>
	<g>
		<rect x="130.015" y="145" fill="none" stroke="#9A6799" stroke-width="4" stroke-linecap="square" width="39.639" height="50"/>
	</g>
	
		<line fill="none" stroke="#9A6799" stroke-width="4" stroke-linecap="square" x1="140.502" y1="154.681" x2="159.167" y2="154.681"/>
	
		<line fill="none" stroke="#9A6799" stroke-width="4" stroke-linecap="square" x1="140.502" y1="164.681" x2="159.167" y2="164.681"/>
	
		<line fill="none" stroke="#9A6799" stroke-width="4" stroke-linecap="square" x1="140.502" y1="174.681" x2="159.167" y2="174.681"/>
	<g>
		<rect x="130.015" y="205" fill="none" stroke="#9A6799" stroke-width="4" stroke-linecap="square" width="39.639" height="50"/>
	</g>
	
		<line fill="none" stroke="#9A6799" stroke-width="4" stroke-linecap="square" x1="140.502" y1="214.682" x2="159.167" y2="214.682"/>
	
		<line fill="none" stroke="#9A6799" stroke-width="4" stroke-linecap="square" x1="140.502" y1="224.682" x2="159.167" y2="224.682"/>
	
		<line fill="none" stroke="#9A6799" stroke-width="4" stroke-linecap="square" x1="140.502" y1="234.682" x2="159.167" y2="234.682"/>
	<g>
		<rect x="80.015" y="205" fill="none" stroke="#9A6799" stroke-width="4" stroke-linecap="square" width="39.639" height="50"/>
	</g>
	
		<line fill="none" stroke="#9A6799" stroke-width="4" stroke-linecap="square" x1="90.502" y1="214.682" x2="109.167" y2="214.682"/>
	
		<line fill="none" stroke="#9A6799" stroke-width="4" stroke-linecap="square" x1="90.502" y1="224.682" x2="109.167" y2="224.682"/>
	
		<line fill="none" stroke="#9A6799" stroke-width="4" stroke-linecap="square" x1="90.502" y1="234.682" x2="109.167" y2="234.682"/>
</g>
<g>
	
		<rect x="430.211" y="210.764" fill="none" stroke="#EF3E69" stroke-width="4" stroke-miterlimit="10" width="17.107" height="10.687"/>
	
		<rect x="446.946" y="210.764" fill="none" stroke="#EF3E69" stroke-width="4" stroke-miterlimit="10" width="17.106" height="10.687"/>
	
		<rect x="463.682" y="210.764" fill="none" stroke="#EF3E69" stroke-width="4" stroke-miterlimit="10" width="17.106" height="10.687"/>
	
		<rect x="480.416" y="210.764" fill="none" stroke="#EF3E69" stroke-width="4" stroke-miterlimit="10" width="17.107" height="10.687"/>
	
		<rect x="441.368" y="221.92" fill="none" stroke="#EF3E69" stroke-width="4" stroke-miterlimit="10" width="17.106" height="10.686"/>
	
		<rect x="458.104" y="221.92" fill="none" stroke="#EF3E69" stroke-width="4" stroke-miterlimit="10" width="17.106" height="10.686"/>
	
		<rect x="474.838" y="221.92" fill="none" stroke="#EF3E69" stroke-width="4" stroke-miterlimit="10" width="17.107" height="10.686"/>
	
		<rect x="491.573" y="221.92" fill="none" stroke="#EF3E69" stroke-width="4" stroke-miterlimit="10" width="17.106" height="10.686"/>
	
		<rect x="485.995" y="233.076" fill="none" stroke="#EF3E69" stroke-width="4" stroke-miterlimit="10" width="17.105" height="10.686"/>
	
		<rect x="469.26" y="233.076" fill="none" stroke="#EF3E69" stroke-width="4" stroke-miterlimit="10" width="17.107" height="10.686"/>
	
		<rect x="452.524" y="233.076" fill="none" stroke="#EF3E69" stroke-width="4" stroke-miterlimit="10" width="17.106" height="10.686"/>
	
		<rect x="435.79" y="233.076" fill="none" stroke="#EF3E69" stroke-width="4" stroke-miterlimit="10" width="17.106" height="10.686"/>
	
		<rect x="441.368" y="244.232" fill="none" stroke="#EF3E69" stroke-width="4" stroke-miterlimit="10" width="17.106" height="10.688"/>
	
		<rect x="458.104" y="244.232" fill="none" stroke="#EF3E69" stroke-width="4" stroke-miterlimit="10" width="17.106" height="10.688"/>
	
		<rect x="474.838" y="244.232" fill="none" stroke="#EF3E69" stroke-width="4" stroke-miterlimit="10" width="17.107" height="10.688"/>
	
		<rect x="491.573" y="244.232" fill="none" stroke="#EF3E69" stroke-width="4" stroke-miterlimit="10" width="17.106" height="10.688"/>
</g>
<g>
	<path fill="none" stroke="#EF3E69" stroke-width="4" stroke-miterlimit="10" d="M487.97,183.614
		c-7.205,17.394-31.844,17.394-39.049,0c0-12.844,0-25.689,0-38.533c13.017,0,26.032,0,39.049,0
		C487.97,157.925,487.97,170.77,487.97,183.614z"/>
</g>
<line fill="none" stroke="#EF3E69" stroke-width="5" stroke-miterlimit="10" x1="468.445" y1="154.351" x2="468.445" y2="174.343"/>
<line fill="none" stroke="#EF3E69" stroke-width="4" stroke-miterlimit="10" x1="478.441" y1="164.347" x2="458.449" y2="164.347"/>
<line fill="none" stroke="#EF3E69" stroke-width="4" stroke-miterlimit="10" stroke-dasharray="4" x1="421.334" y1="200" x2="346" y2="200"/>
<line fill="none" stroke="#9A6799" stroke-width="4" stroke-miterlimit="10" stroke-dasharray="4" x1="254.334" y1="200" x2="179" y2="200"/>
<g>
	<g>
		<rect x="268" y="35.87" fill="none" stroke="#72C59B" stroke-width="4" stroke-miterlimit="10" width="64" height="24.466"/>
		
			<rect x="279.608" y="9.667" fill="none" stroke="#72C59B" stroke-width="4" stroke-miterlimit="10" width="40.783" height="25.028"/>
		<line fill="none" stroke="#72C59B" stroke-width="4" stroke-miterlimit="10" x1="285.879" y1="18" x2="314.121" y2="18"/>
		<line fill="none" stroke="#72C59B" stroke-width="4" stroke-miterlimit="10" x1="285.879" y1="26" x2="314.121" y2="26"/>
	</g>
	<line fill="none" stroke="#72C59B" stroke-width="4" stroke-miterlimit="10" x1="274.097" y1="43.333" x2="281" y2="43.333"/>
</g>
<g>
	<g>
		<g>
			<line fill="none" stroke="#FECF11" stroke-width="5" stroke-miterlimit="10" x1="299.613" y1="400" x2="299.613" y2="267.951"/>
		</g>
		<g>
			<polygon fill="#FECF11" points="296.371,274.395 293.371,266.424 305.855,266.424 302.855,274.395 			"/>
			<polygon fill="#FECF11" stroke="#F8993C" stroke-width="0.869" stroke-miterlimit="10" points="292.371,252.996 306.855,252.996 
				306.855,264.395 305.855,266.424 293.371,266.424 292.371,264.395 			"/>
			<path fill="#FECF11" stroke="#F8993C" stroke-width="0.869" stroke-miterlimit="10" d="M292.371,264.508"/>
			
				<line fill="none" stroke="#F8993C" stroke-width="0.8801" stroke-miterlimit="10" x1="305.855" y1="267.883" x2="293.355" y2="267.883"/>
			
				<line fill="none" stroke="#F8993C" stroke-width="0.903" stroke-miterlimit="10" x1="305.105" y1="269.383" x2="294.105" y2="269.383"/>
			
				<line fill="none" stroke="#F8993C" stroke-width="0.9361" stroke-miterlimit="10" x1="304.355" y1="270.883" x2="294.855" y2="270.883"/>
			
				<line fill="none" stroke="#F8993C" stroke-width="0.8854" stroke-miterlimit="10" x1="303.855" y1="272.383" x2="295.355" y2="272.383"/>
			<rect x="295.982" y="273.563" fill="#F8993C" width="7.186" height="3.486"/>
		</g>
	</g>
	<g>
		<g>
			
				<rect x="261.395" y="151.305" fill="#FFFFFF" stroke="#3499CE" stroke-width="0.4404" stroke-miterlimit="10" width="77.064" height="98.72"/>
			
				<rect x="265.801" y="252.691" fill="#FFFFFF" stroke="#3499CE" stroke-width="0.4404" stroke-miterlimit="10" width="67.941" height="5.537"/>
			
				<rect x="265.801" y="143.228" fill="#FFFFFF" stroke="#3499CE" stroke-width="0.4404" stroke-miterlimit="10" width="67.941" height="5.536"/>
			
				<line fill="none" stroke="#3499CE" stroke-width="4.4148" stroke-miterlimit="10" x1="259.896" y1="149.075" x2="339.742" y2="149.075"/>
			
				<line fill="none" stroke="#3499CE" stroke-width="4.4148" stroke-miterlimit="10" x1="259.896" y1="252.256" x2="339.742" y2="252.256"/>
			<g>
				<path d="M284.707,232.793c-1.276,0-2.248-0.355-2.916-1.064s-1.002-1.717-1.002-3.023c0-0.65,0.102-1.229,0.306-1.738
					s0.482-0.939,0.838-1.291c0.354-0.352,0.777-0.617,1.269-0.799c0.49-0.182,1.022-0.271,1.597-0.271
					c0.332,0,0.634,0.025,0.905,0.074c0.272,0.049,0.51,0.105,0.714,0.17c0.203,0.064,0.373,0.129,0.51,0.197
					c0.136,0.068,0.233,0.121,0.294,0.158l-0.51,1.428c-0.241-0.129-0.522-0.238-0.844-0.328c-0.32-0.092-0.685-0.137-1.093-0.137
					c-0.271,0-0.537,0.045-0.798,0.137c-0.261,0.09-0.491,0.236-0.69,0.436c-0.2,0.199-0.361,0.459-0.481,0.775
					c-0.121,0.316-0.182,0.701-0.182,1.154c0,0.363,0.04,0.701,0.119,1.014c0.079,0.314,0.208,0.584,0.385,0.811
					c0.178,0.227,0.41,0.406,0.696,0.537c0.287,0.133,0.635,0.199,1.042,0.199c0.257,0,0.487-0.016,0.691-0.045
					c0.203-0.031,0.385-0.066,0.543-0.109c0.158-0.041,0.298-0.088,0.419-0.141s0.23-0.102,0.328-0.146l0.487,1.414
					c-0.249,0.152-0.601,0.287-1.053,0.408C285.828,232.732,285.303,232.793,284.707,232.793z"/>
				<path d="M293.709,231.117v1.518h-5.242v-7.848h1.767v6.33H293.709z"/>
				<path d="M302.089,228.705c0,0.672-0.101,1.262-0.301,1.771c-0.199,0.51-0.474,0.936-0.82,1.279
					c-0.348,0.344-0.761,0.604-1.24,0.775c-0.479,0.174-0.995,0.262-1.546,0.262c-0.536,0-1.042-0.088-1.518-0.262
					c-0.476-0.172-0.891-0.432-1.245-0.775c-0.355-0.344-0.634-0.77-0.838-1.279s-0.306-1.1-0.306-1.771s0.105-1.264,0.316-1.773
					c0.212-0.508,0.497-0.938,0.855-1.285c0.358-0.346,0.773-0.607,1.245-0.781s0.969-0.26,1.489-0.26
					c0.536,0,1.042,0.086,1.518,0.26s0.891,0.436,1.246,0.781c0.354,0.348,0.634,0.777,0.838,1.285
					C301.986,227.441,302.089,228.033,302.089,228.705z M296.099,228.705c0,0.385,0.047,0.732,0.142,1.041
					c0.094,0.311,0.229,0.576,0.407,0.799s0.395,0.395,0.651,0.516s0.551,0.18,0.883,0.18c0.325,0,0.617-0.059,0.878-0.18
					s0.479-0.293,0.656-0.516c0.178-0.223,0.313-0.488,0.408-0.799c0.094-0.309,0.142-0.656,0.142-1.041s-0.048-0.734-0.142-1.047
					c-0.095-0.314-0.23-0.582-0.408-0.805c-0.177-0.223-0.396-0.395-0.656-0.516s-0.553-0.182-0.878-0.182
					c-0.332,0-0.626,0.063-0.883,0.188s-0.474,0.299-0.651,0.521s-0.313,0.49-0.407,0.803
					C296.146,227.982,296.099,228.328,296.099,228.705z"/>
				<path d="M306.629,232.793c-0.551,0-1.026-0.078-1.427-0.232s-0.73-0.369-0.991-0.646c-0.26-0.275-0.452-0.604-0.577-0.984
					s-0.187-0.803-0.187-1.262v-4.881h1.767v4.732c0,0.318,0.035,0.588,0.107,0.811c0.071,0.223,0.17,0.404,0.294,0.543
					c0.125,0.141,0.275,0.24,0.453,0.301s0.372,0.09,0.583,0.09c0.431,0,0.779-0.131,1.048-0.396
					c0.268-0.264,0.401-0.713,0.401-1.348v-4.732h1.767v4.881c0,0.459-0.063,0.883-0.192,1.268c-0.128,0.385-0.324,0.715-0.589,0.99
					c-0.264,0.275-0.6,0.49-1.008,0.641C307.671,232.717,307.188,232.793,306.629,232.793z"/>
				<path d="M318.439,228.705c0,0.68-0.105,1.271-0.317,1.777c-0.211,0.506-0.511,0.926-0.899,1.258
					c-0.39,0.332-0.863,0.58-1.422,0.746s-1.185,0.25-1.879,0.25c-0.317,0-0.688-0.014-1.11-0.039
					c-0.423-0.027-0.838-0.082-1.245-0.166v-7.643c0.407-0.076,0.832-0.127,1.273-0.152c0.441-0.027,0.821-0.041,1.138-0.041
					c0.672,0,1.282,0.076,1.829,0.227c0.548,0.152,1.018,0.389,1.41,0.715c0.393,0.324,0.694,0.738,0.905,1.244
					C318.334,227.387,318.439,227.996,318.439,228.705z M313.333,231.195c0.083,0.008,0.179,0.014,0.288,0.018
					s0.24,0.006,0.391,0.006c0.884,0,1.538-0.223,1.965-0.668s0.64-1.061,0.64-1.846c0-0.822-0.203-1.445-0.611-1.869
					c-0.407-0.422-1.053-0.635-1.937-0.635c-0.12,0-0.245,0.002-0.373,0.006c-0.129,0.004-0.249,0.014-0.362,0.029V231.195z"/>
			</g>
			<rect x="263.73" y="191.952" fill="#3499CE" width="2.83" height="15.13"/>
			<rect x="333.561" y="191.952" fill="#3499CE" width="2.83" height="15.13"/>
		</g>
		<g>
			<polygon fill="#020202" points="322.303,205.719 299.618,219.369 276.935,205.719 276.935,178.41 299.618,164.756 
				322.303,178.41 			"/>
			<g>
				<g>
					<rect x="290.557" y="185.564" fill="#498ECC" width="17.955" height="6.474"/>
					<circle fill="#498ECC" cx="290.558" cy="187.613" r="4.425"/>
					<circle fill="#498ECC" cx="308.511" cy="187.613" r="4.425"/>
					<circle fill="#498ECC" cx="294.072" cy="182.151" r="4.425"/>
					<circle fill="#498ECC" cx="304.896" cy="182.151" r="4.425"/>
					<circle fill="#498ECC" cx="299.535" cy="179.496" r="4.425"/>
					<rect x="290.557" y="183.541" fill="#498ECC" width="17.955" height="4.451"/>
				</g>
				<g>
					<rect x="290.557" y="189.612" fill="#51ADE1" width="17.955" height="6.473"/>
					<circle fill="#51ADE1" cx="290.558" cy="191.659" r="4.426"/>
					<circle fill="#51ADE1" cx="308.511" cy="191.659" r="4.426"/>
					<circle fill="#51ADE1" cx="294.072" cy="186.196" r="4.425"/>
					<circle fill="#51ADE1" cx="304.896" cy="186.196" r="4.425"/>
					<circle fill="#51ADE1" cx="299.535" cy="183.541" r="4.426"/>
					<rect x="290.557" y="187.587" fill="#51ADE1" width="17.955" height="4.449"/>
				</g>
				<g>
					<rect x="290.557" y="194.668" fill="#6EC9F2" width="17.955" height="6.472"/>
					<circle fill="#6EC9F2" cx="290.558" cy="196.716" r="4.425"/>
					<circle fill="#6EC9F2" cx="308.511" cy="196.716" r="4.425"/>
					<circle fill="#6EC9F2" cx="294.072" cy="191.254" r="4.426"/>
					<circle fill="#6EC9F2" cx="304.896" cy="191.254" r="4.426"/>
					<circle fill="#6EC9F2" cx="299.535" cy="188.6" r="4.426"/>
					<rect x="290.557" y="192.644" fill="#6EC9F2" width="17.955" height="4.452"/>
				</g>
				<g>
					<rect x="290.557" y="199.727" fill="#FFFFFF" width="17.955" height="6.471"/>
					<circle fill="#FFFFFF" cx="290.558" cy="201.774" r="4.425"/>
					<circle fill="#FFFFFF" cx="308.511" cy="201.774" r="4.425"/>
					<circle fill="#FFFFFF" cx="294.072" cy="196.313" r="4.426"/>
					<circle fill="#FFFFFF" cx="304.896" cy="196.313" r="4.426"/>
					<circle fill="#FFFFFF" cx="299.535" cy="193.657" r="4.425"/>
					<rect x="290.557" y="197.703" fill="#FFFFFF" width="17.955" height="4.449"/>
				</g>
			</g>
		</g>
	</g>
</g>
</svg>
