<?xml version="1.0" encoding="utf-8"?>
<!-- Generator: Adobe Illustrator 16.0.0, SVG Export Plug-In . SVG Version: 6.00 Build 0)  -->
<!DOCTYPE svg PUBLIC "-//W3C//DTD SVG 1.1//EN" "http://www.w3.org/Graphics/SVG/1.1/DTD/svg11.dtd">
<svg version="1.1" id="Layer_1" xmlns="http://www.w3.org/2000/svg" xmlns:xlink="http://www.w3.org/1999/xlink" x="0px" y="0px"
	 width="1240.207px" height="432px" viewBox="0 0 1240.207 432" enable-background="new 0 0 1240.207 432" xml:space="preserve">
<path fill="#6EC498" d="M0.017,216v107.99L0,324l90.012,54l89.996,53.99V432l0.008-0.005l0.008,0.005v-0.01L270.005,378L360,324V216
	V108l0,0l0,0l0,0l0,0l-90.003-54L180.024,0.01V0l-0.008,0.005L180.008,0v0.01L90.009,54L0,108l0.017,0.01 M360,108 M360,108L360,108
	L360,108"/>
<polygon fill="#FFFFFF" points="265.039,206 190,206 190,130.961 170,130.961 170,206 94.961,206 94.961,226 170,226 170,301.039 
	190,301.039 190,226 265.039,226 "/>
</svg>
