<?xml version="1.0" encoding="utf-8"?>
<!-- Generator: Adobe Illustrator 16.0.0, SVG Export Plug-In . SVG Version: 6.00 Build 0)  -->
<!DOCTYPE svg PUBLIC "-//W3C//DTD SVG 1.1//EN" "http://www.w3.org/Graphics/SVG/1.1/DTD/svg11.dtd">
<svg version="1.1" id="Capa_1" xmlns="http://www.w3.org/2000/svg" xmlns:xlink="http://www.w3.org/1999/xlink" x="0px" y="0px"
	 width="19.036px" height="19.036px" viewBox="0 0 19.036 19.036" enable-background="new 0 0 19.036 19.036" xml:space="preserve">
<g>
	<path fill="#FFFFFF" d="M15.238,0.003c-3.729-0.002-7.462,0-11.193-0.002c-0.354,0-0.698,0.027-1.047,0.104
		c-1.77,0.389-2.95,1.894-2.974,3.67c-0.045,3.677-0.013,7.351-0.012,11.026c0,0.416,0.017,0.822,0.115,1.236
		c0.407,1.729,1.836,2.939,3.678,2.979c1.902,0.037,3.808,0.008,5.711,0.008c1.837,0,3.675-0.002,5.511,0.002
		c0.354,0.002,0.697-0.028,1.046-0.108c1.76-0.405,2.961-1.896,2.963-3.705c0-3.81,0.002-7.616,0-11.424
		C19.034,1.682,17.354,0.004,15.238,0.003z M15.2,15.252c-1.104,1.101-2.826,1.381-4.248,0.674
		c-0.209-0.104-0.394-0.051-0.578-0.022c-3.359,0.472-6.58-1.87-7.17-5.217c-0.069-0.396-0.121-0.79-0.103-1.19
		C3.084,9.146,3.116,8.794,3.187,8.449c0.025-0.121-0.003-0.221-0.055-0.327C2.121,5.994,3.15,3.588,5.387,2.869
		c0.916-0.295,1.82-0.218,2.69,0.191c0.145,0.066,0.281,0.103,0.438,0.08c2.073-0.283,3.909,0.232,5.444,1.674
		c1.199,1.125,1.867,2.52,2.006,4.166c0.045,0.535,0.018,1.062-0.066,1.589c-0.02,0.127,0.01,0.236,0.068,0.354
		C16.686,12.387,16.383,14.071,15.2,15.252z M11.779,9.221c-0.502-0.25-1.041-0.353-1.575-0.479
		C9.612,8.604,9.005,8.527,8.438,8.295C8.182,8.189,7.969,8.029,7.949,7.721C7.93,7.383,8.083,7.131,8.372,6.967
		C8.487,6.904,8.613,6.84,8.741,6.821c0.84-0.145,1.614-0.053,2.208,0.65c0.114,0.139,0.239,0.271,0.399,0.36
		c0.317,0.179,0.762,0.123,1.039-0.131c0.221-0.205,0.272-0.565,0.127-0.899c-0.109-0.25-0.274-0.464-0.498-0.615
		c-1.468-1.004-3.034-1.108-4.63-0.396C6.362,6.248,5.923,7.296,6.182,8.355c0.178,0.739,0.691,1.16,1.365,1.417
		c0.542,0.211,1.116,0.309,1.678,0.453c0.423,0.107,0.855,0.188,1.263,0.34c0.625,0.229,0.726,0.867,0.269,1.352
		c-0.516,0.545-2.197,0.607-2.836-0.274c-0.112-0.154-0.233-0.304-0.36-0.442c-0.279-0.31-0.773-0.392-1.093-0.188
		c-0.336,0.211-0.446,0.612-0.295,1.034c0.148,0.414,0.435,0.713,0.786,0.953c0.779,0.535,1.665,0.662,2.58,0.668
		c0.901-0.004,1.761-0.142,2.519-0.685C13.249,12.122,13.295,9.969,11.779,9.221z"/>
</g>
</svg>
