<?xml version="1.0" encoding="utf-8"?>
<!-- Generator: Adobe Illustrator 16.0.0, SVG Export Plug-In . SVG Version: 6.00 Build 0)  -->
<!DOCTYPE svg PUBLIC "-//W3C//DTD SVG 1.1//EN" "http://www.w3.org/Graphics/SVG/1.1/DTD/svg11.dtd">
<svg version="1.1" id="Layer_1" xmlns="http://www.w3.org/2000/svg" xmlns:xlink="http://www.w3.org/1999/xlink" x="0px" y="0px"
	 width="600px" height="400px" viewBox="0 0 600 400" enable-background="new 0 0 600 400" xml:space="preserve">
<g>
	<path d="M189.781,292.808c0,6.627-5.373,12-12,12h-115c-6.627,0-12-5.373-12-12V62.5c0-6.627,5.373-12,12-12h115
		c6.627,0,12,5.373,12,12V292.808z"/>
	<rect x="59.5" y="74.5" fill="#3499CE" width="122" height="195"/>
	<path fill="#FFFFFF" d="M130.36,286.895c0,5.647-4.582,10.235-10.234,10.235c-5.655,0-10.236-4.588-10.236-10.235
		c0-5.65,4.581-10.235,10.236-10.235C125.778,276.659,130.36,281.244,130.36,286.895z"/>
	<path fill="#FFFFFF" d="M148.5,62.822c0,1.479-1.198,2.678-2.676,2.678H95.176c-1.478,0-2.676-1.199-2.676-2.678v-0.645
		c0-1.479,1.198-2.678,2.676-2.678h50.648c1.478,0,2.676,1.199,2.676,2.678V62.822z"/>
</g>
<g>
	<g>
		<path fill="none" stroke="#72C59B" stroke-width="7.625" stroke-miterlimit="10" d="M157.74,350.774
			c-20.138,20.135-52.73,20.135-72.868,0"/>
		<path fill="none" stroke="#72C59B" stroke-width="7.625" stroke-miterlimit="10" d="M148.213,341.241
			c-14.874,14.869-38.94,14.869-53.814,0"/>
		<path fill="none" stroke="#72C59B" stroke-width="7.625" stroke-miterlimit="10" d="M137.055,330.983
			c-8.701,8.703-22.797,8.703-31.501,0"/>
	</g>
</g>
<g>
	<g>
		<polygon fill="#72C59B" stroke="#579975" stroke-width="1.5907" stroke-miterlimit="10" points="517.361,305.808 489.641,305.808 
			492.822,275.295 514.182,275.295 		"/>
		<g>
			<g>
				<g>
					<path fill="none" stroke="#579975" stroke-width="3.1813" stroke-miterlimit="10" d="M518.703,322.386
						c-8.404,8.399-22.002,8.399-30.402,0"/>
					<path fill="none" stroke="#579975" stroke-width="3.1813" stroke-miterlimit="10" d="M514.727,318.41
						c-6.203,6.202-16.244,6.202-22.451,0"/>
					<path fill="none" stroke="#579975" stroke-width="3.1813" stroke-miterlimit="10" d="M510.072,314.127
						c-3.631,3.632-9.512,3.632-13.145,0"/>
				</g>
			</g>
		</g>
	</g>
	<g>
		<path fill="#FFFFFF" d="M498.25,294.58c0.064,0.217,0.133,0.462,0.211,0.733c0.076,0.274,0.158,0.557,0.244,0.849
			c0.088,0.29,0.178,0.583,0.268,0.875s0.178,0.563,0.262,0.811c0.07-0.271,0.139-0.564,0.211-0.882
			c0.074-0.319,0.141-0.648,0.205-0.986c0.064-0.341,0.127-0.678,0.186-1.015c0.063-0.338,0.121-0.662,0.174-0.975h1.289
			c-0.186,0.923-0.404,1.858-0.645,2.807c-0.242,0.95-0.504,1.852-0.787,2.705h-1.137c-0.184-0.509-0.363-1.044-0.537-1.603
			c-0.178-0.56-0.348-1.12-0.516-1.683c-0.172,0.563-0.342,1.123-0.514,1.683c-0.168,0.559-0.344,1.094-0.531,1.603H495.5
			c-0.283-0.854-0.547-1.755-0.787-2.705c-0.242-0.948-0.457-1.884-0.643-2.807h1.342c0.053,0.313,0.111,0.637,0.178,0.975
			c0.063,0.337,0.131,0.674,0.199,1.015c0.068,0.338,0.139,0.667,0.211,0.986c0.07,0.317,0.146,0.611,0.221,0.882
			c0.096-0.259,0.189-0.535,0.279-0.827s0.176-0.583,0.262-0.875c0.086-0.291,0.164-0.572,0.234-0.843
			c0.072-0.27,0.137-0.512,0.197-0.723H498.25z"/>
		<path fill="#FFFFFF" d="M503.305,294.11c0,0.217-0.072,0.389-0.213,0.512c-0.139,0.125-0.307,0.188-0.496,0.188
			c-0.193,0-0.357-0.063-0.498-0.188c-0.139-0.123-0.211-0.295-0.211-0.512c0-0.218,0.072-0.389,0.211-0.514
			c0.141-0.125,0.305-0.188,0.498-0.188c0.189,0,0.357,0.063,0.496,0.188C503.232,293.722,503.305,293.893,503.305,294.11z
			 M503.191,299.502h-1.188v-4.184h1.188V299.502z"/>
		<path fill="#FFFFFF" d="M503.947,296.591h2.305v1.074h-2.305V296.591z"/>
		<path fill="#FFFFFF" d="M507.088,299.502v-5.512h3.689v1.043h-2.447v1.152h2.178v1.042h-2.178v2.274H507.088z"/>
		<path fill="#FFFFFF" d="M512.869,294.11c0,0.217-0.068,0.389-0.207,0.512c-0.145,0.125-0.309,0.188-0.498,0.188
			c-0.193,0-0.357-0.063-0.496-0.188c-0.145-0.123-0.213-0.295-0.213-0.512c0-0.218,0.068-0.389,0.213-0.514
			c0.139-0.125,0.303-0.188,0.496-0.188c0.189,0,0.354,0.063,0.498,0.188C512.801,293.722,512.869,293.893,512.869,294.11z
			 M512.76,299.502h-1.186v-4.184h1.186V299.502z"/>
	</g>
	<g>
		
			<rect x="409.104" y="93.218" fill="#FFFFFF" stroke="#EF4069" stroke-width="0.8213" stroke-miterlimit="10" width="138.664" height="177.625"/>
		<g>
			<g>
				<g>
					<path fill="#010101" stroke="#FFFFFF" stroke-width="0.3265" stroke-miterlimit="10" d="M477.869,167.376"/>
				</g>
				<g>
					<path fill="#010101" stroke="#FFFFFF" stroke-width="0.3265" stroke-miterlimit="10" d="M477.869,167.376"/>
				</g>
				<g>
					<path fill="#010101" stroke="#FFFFFF" stroke-width="0.3265" stroke-miterlimit="10" d="M477.869,167.376"/>
				</g>
				<g>
					<path fill="#010101" stroke="#FFFFFF" stroke-width="0.3265" stroke-miterlimit="10" d="M477.869,167.376"/>
				</g>
			</g>
			<polyline fill="#3499CE" points="518.686,190.845 498.277,203.09 477.869,215.337 477.869,190.845 477.869,166.358 			"/>
			<polyline fill="#9A6799" points="518.686,190.845 518.686,166.358 518.686,141.867 498.303,154.114 477.869,166.358 			"/>
			<polyline fill="#F8993C" points="477.875,117.379 457.463,129.624 437.053,141.867 457.467,154.114 477.875,166.358 			"/>
			<polyline fill="#EF3E69" points="477.869,117.379 498.273,129.624 518.686,141.867 498.277,154.114 477.869,166.358 			"/>
			<polyline fill="#FECF11" points="437.053,190.845 457.467,203.09 477.875,215.337 477.875,190.845 477.875,166.358 			"/>
			<polyline fill="#72C59B" points="437.055,190.845 437.055,166.358 437.055,141.867 457.463,154.114 477.869,166.358 			"/>
			<g>
				<g>
					<g>
						
							<line fill="none" stroke="#FFFFFF" stroke-width="0.9796" stroke-miterlimit="10" x1="477.877" y1="117.379" x2="477.877" y2="118.522"/>
						
							<line fill="none" stroke="#FFFFFF" stroke-width="0.9796" stroke-miterlimit="10" stroke-dasharray="2.2235,2.2235" x1="477.876" y1="120.746" x2="477.869" y2="164.104"/>
						
							<line fill="none" stroke="#FFFFFF" stroke-width="0.9796" stroke-miterlimit="10" x1="477.869" y1="165.215" x2="477.869" y2="166.358"/>
					</g>
				</g>
				<g>
					<g>
						
							<line fill="none" stroke="#FFFFFF" stroke-width="0.9796" stroke-miterlimit="10" x1="477.869" y1="166.358" x2="478.85" y2="166.946"/>
						
							<line fill="none" stroke="#FFFFFF" stroke-width="0.9796" stroke-miterlimit="10" stroke-dasharray="2.3849,2.3849" x1="480.895" y1="168.173" x2="516.683" y2="189.644"/>
						
							<line fill="none" stroke="#FFFFFF" stroke-width="0.9796" stroke-miterlimit="10" x1="517.705" y1="190.257" x2="518.686" y2="190.845"/>
					</g>
				</g>
				<g>
					<g>
						
							<line fill="none" stroke="#FFFFFF" stroke-width="0.9796" stroke-miterlimit="10" x1="477.869" y1="166.358" x2="476.889" y2="166.946"/>
						
							<line fill="none" stroke="#FFFFFF" stroke-width="0.9796" stroke-miterlimit="10" stroke-dasharray="2.3849,2.3849" x1="474.844" y1="168.173" x2="439.056" y2="189.644"/>
						
							<line fill="none" stroke="#FFFFFF" stroke-width="0.9796" stroke-miterlimit="10" x1="438.033" y1="190.257" x2="437.053" y2="190.845"/>
					</g>
				</g>
			</g>
			<g>
				
					<line fill="none" stroke="#FFFFFF" stroke-width="0.9796" stroke-miterlimit="10" x1="477.877" y1="215.337" x2="477.869" y2="166.358"/>
				
					<line fill="none" stroke="#FFFFFF" stroke-width="0.9796" stroke-miterlimit="10" x1="477.869" y1="166.358" x2="518.686" y2="141.867"/>
				
					<line fill="none" stroke="#FFFFFF" stroke-width="0.9796" stroke-miterlimit="10" x1="477.869" y1="166.358" x2="437.053" y2="141.867"/>
			</g>
		</g>
		
			<rect x="417.029" y="275.642" fill="#FFFFFF" stroke="#EF4069" stroke-width="0.8213" stroke-miterlimit="10" width="122.248" height="9.964"/>
		
			<rect x="417.029" y="78.686" fill="#FFFFFF" stroke="#EF4069" stroke-width="0.8213" stroke-miterlimit="10" width="122.248" height="9.962"/>
		
			<line fill="none" stroke="#EF3E69" stroke-width="8.5113" stroke-miterlimit="10" x1="406.406" y1="89.204" x2="550.072" y2="89.204"/>
		
			<line fill="none" stroke="#EF3E69" stroke-width="8.5113" stroke-miterlimit="10" x1="406.406" y1="274.86" x2="550.072" y2="274.86"/>
		<g>
			<path d="M466.488,225.438h3.179v14.12h-3.179v-5.99h-5.338v5.99h-3.179v-14.12h3.179v5.399h5.338V225.438z"/>
			<path d="M478.448,239.844c-0.991,0-1.848-0.14-2.567-0.418s-1.313-0.665-1.782-1.161s-0.815-1.087-1.039-1.772
				c-0.225-0.686-0.337-1.443-0.337-2.272v-8.781h3.179v8.517c0,0.57,0.064,1.057,0.193,1.457s0.306,0.727,0.53,0.978
				c0.224,0.252,0.496,0.432,0.814,0.54c0.319,0.109,0.669,0.163,1.05,0.163c0.774,0,1.402-0.237,1.885-0.713
				c0.481-0.476,0.724-1.283,0.724-2.425v-8.517h3.178v8.781c0,0.829-0.115,1.59-0.346,2.282c-0.231,0.693-0.585,1.287-1.06,1.783
				c-0.476,0.496-1.08,0.879-1.813,1.151C480.323,239.708,479.453,239.844,478.448,239.844z"/>
			<path d="M492.039,239.742c-0.774,0-1.546-0.024-2.313-0.071c-0.768-0.048-1.566-0.16-2.395-0.337v-13.691
				c0.652-0.123,1.365-0.214,2.14-0.275s1.494-0.092,2.159-0.092c0.896,0,1.722,0.064,2.476,0.193
				c0.754,0.13,1.402,0.351,1.946,0.662c0.543,0.313,0.968,0.724,1.273,1.233c0.306,0.509,0.458,1.138,0.458,1.885
				c0,1.127-0.543,2.017-1.63,2.669c0.896,0.34,1.508,0.802,1.834,1.386s0.489,1.242,0.489,1.976c0,1.481-0.54,2.595-1.62,3.342
				S494.171,239.742,492.039,239.742z M490.429,230.98h1.549c0.979,0,1.678-0.125,2.099-0.377c0.421-0.251,0.632-0.655,0.632-1.212
				c0-0.571-0.218-0.972-0.652-1.202c-0.435-0.231-1.073-0.347-1.915-0.347c-0.271,0-0.563,0.004-0.876,0.01
				c-0.313,0.008-0.591,0.024-0.836,0.052V230.98z M490.429,233.405v3.646c0.231,0.028,0.482,0.048,0.754,0.062
				s0.571,0.021,0.896,0.021c0.951,0,1.719-0.136,2.303-0.407s0.876-0.774,0.876-1.508c0-0.652-0.244-1.117-0.733-1.396
				s-1.188-0.418-2.099-0.418H490.429z"/>
		</g>
		<rect x="413.305" y="166.354" fill="#EF3E69" width="5.094" height="27.225"/>
		<rect x="538.951" y="166.354" fill="#EF3E69" width="5.092" height="27.225"/>
	</g>
</g>
<g>
	<g>
		<polygon fill="#72C59B" stroke="#579975" stroke-width="1.5907" stroke-miterlimit="10" points="338.491,305.808 310.771,305.808 
			313.952,275.296 335.31,275.296 		"/>
		<g>
			<g>
				<g>
					<path fill="none" stroke="#579975" stroke-width="3.1813" stroke-miterlimit="10" d="M339.833,322.386
						c-8.402,8.4-22.002,8.4-30.401,0"/>
					<path fill="none" stroke="#579975" stroke-width="3.1813" stroke-miterlimit="10" d="M335.856,318.409
						c-6.203,6.203-16.244,6.203-22.451,0"/>
					<path fill="none" stroke="#579975" stroke-width="3.1813" stroke-miterlimit="10" d="M331.204,314.128
						c-3.633,3.631-9.514,3.631-13.146,0"/>
				</g>
			</g>
		</g>
	</g>
	<g>
		<path fill="#FFFFFF" d="M319.378,294.579c0.066,0.219,0.135,0.463,0.213,0.734c0.076,0.273,0.158,0.556,0.244,0.848
			c0.088,0.292,0.178,0.584,0.268,0.876s0.178,0.563,0.262,0.812c0.07-0.271,0.139-0.566,0.211-0.883
			c0.074-0.32,0.139-0.649,0.205-0.988c0.064-0.338,0.127-0.678,0.186-1.013c0.063-0.339,0.121-0.661,0.174-0.976h1.289
			c-0.186,0.923-0.402,1.857-0.645,2.809c-0.242,0.947-0.504,1.849-0.787,2.703h-1.137c-0.184-0.51-0.363-1.044-0.537-1.604
			c-0.178-0.559-0.348-1.118-0.516-1.681c-0.172,0.563-0.342,1.122-0.514,1.681c-0.168,0.56-0.344,1.094-0.531,1.604h-1.133
			c-0.283-0.854-0.547-1.756-0.787-2.703c-0.242-0.951-0.457-1.886-0.643-2.809h1.342c0.053,0.314,0.111,0.637,0.178,0.976
			c0.063,0.335,0.131,0.675,0.199,1.013c0.068,0.339,0.139,0.668,0.211,0.988c0.07,0.316,0.146,0.611,0.221,0.883
			c0.096-0.262,0.189-0.538,0.279-0.827c0.09-0.292,0.178-0.584,0.262-0.876c0.086-0.292,0.164-0.572,0.234-0.842
			c0.072-0.271,0.137-0.513,0.197-0.725H319.378z"/>
		<path fill="#FFFFFF" d="M324.433,294.11c0,0.218-0.07,0.389-0.211,0.513c-0.139,0.124-0.307,0.187-0.496,0.187
			c-0.193,0-0.357-0.063-0.498-0.187c-0.139-0.124-0.211-0.295-0.211-0.513c0-0.217,0.072-0.389,0.211-0.516
			c0.141-0.124,0.305-0.187,0.498-0.187c0.189,0,0.357,0.063,0.496,0.187C324.362,293.722,324.433,293.894,324.433,294.11z
			 M324.321,299.501h-1.186v-4.182h1.186V299.501z"/>
		<path fill="#FFFFFF" d="M325.077,296.59h2.305v1.075h-2.305V296.59z"/>
		<path fill="#FFFFFF" d="M328.218,299.501v-5.512h3.691v1.044h-2.449v1.153h2.178v1.04h-2.178v2.274H328.218z"/>
		<path fill="#FFFFFF" d="M333.999,294.11c0,0.218-0.068,0.389-0.207,0.513c-0.145,0.124-0.309,0.187-0.498,0.187
			c-0.193,0-0.357-0.063-0.496-0.187c-0.145-0.124-0.213-0.295-0.213-0.513c0-0.217,0.068-0.389,0.213-0.516
			c0.139-0.124,0.303-0.187,0.496-0.187c0.189,0,0.354,0.063,0.498,0.187C333.931,293.722,333.999,293.894,333.999,294.11z
			 M333.89,299.501h-1.186v-4.182h1.186V299.501z"/>
	</g>
	<g>
		
			<rect x="230.233" y="93.218" fill="#FFFFFF" stroke="#EF4069" stroke-width="0.8213" stroke-miterlimit="10" width="138.664" height="177.626"/>
		<g>
			<g>
				<g>
					<path fill="#010101" stroke="#FFFFFF" stroke-width="0.3265" stroke-miterlimit="10" d="M298.999,167.378"/>
				</g>
				<g>
					<path fill="#010101" stroke="#FFFFFF" stroke-width="0.3265" stroke-miterlimit="10" d="M298.999,167.378"/>
				</g>
				<g>
					<path fill="#010101" stroke="#FFFFFF" stroke-width="0.3265" stroke-miterlimit="10" d="M298.999,167.378"/>
				</g>
				<g>
					<path fill="#010101" stroke="#FFFFFF" stroke-width="0.3265" stroke-miterlimit="10" d="M298.999,167.378"/>
				</g>
			</g>
			<polyline fill="#3499CE" points="339.815,190.847 319.407,203.09 298.999,215.335 298.999,190.847 298.999,166.357 			"/>
			<polyline fill="#9A6799" points="339.815,190.847 339.815,166.357 339.815,141.868 319.431,154.113 298.999,166.357 			"/>
			<polyline fill="#F8993C" points="299.005,117.379 278.594,129.623 258.182,141.868 278.597,154.113 299.005,166.357 			"/>
			<polyline fill="#EF3E69" points="298.999,117.379 319.403,129.623 339.815,141.868 319.407,154.113 298.999,166.357 			"/>
			<polyline fill="#FECF11" points="258.182,190.847 278.597,203.09 299.005,215.335 299.005,190.847 299.005,166.357 			"/>
			<polyline fill="#72C59B" points="258.186,190.847 258.186,166.357 258.186,141.868 278.594,154.113 298.999,166.357 			"/>
			<g>
				<g>
					<g>
						
							<line fill="none" stroke="#FFFFFF" stroke-width="0.9796" stroke-miterlimit="10" x1="299.008" y1="117.379" x2="299.008" y2="118.521"/>
						
							<line fill="none" stroke="#FFFFFF" stroke-width="0.9796" stroke-miterlimit="10" stroke-dasharray="2.2235,2.2235" x1="299.007" y1="120.745" x2="299" y2="164.103"/>
						
							<line fill="none" stroke="#FFFFFF" stroke-width="0.9796" stroke-miterlimit="10" x1="298.999" y1="165.215" x2="298.999" y2="166.357"/>
					</g>
				</g>
				<g>
					<g>
						
							<line fill="none" stroke="#FFFFFF" stroke-width="0.9796" stroke-miterlimit="10" x1="298.999" y1="166.357" x2="299.979" y2="166.945"/>
						
							<line fill="none" stroke="#FFFFFF" stroke-width="0.9796" stroke-miterlimit="10" stroke-dasharray="2.3849,2.3849" x1="302.024" y1="168.172" x2="337.813" y2="189.645"/>
						
							<line fill="none" stroke="#FFFFFF" stroke-width="0.9796" stroke-miterlimit="10" x1="338.836" y1="190.259" x2="339.815" y2="190.847"/>
					</g>
				</g>
				<g>
					<g>
						
							<line fill="none" stroke="#FFFFFF" stroke-width="0.9796" stroke-miterlimit="10" x1="298.999" y1="166.357" x2="298.019" y2="166.945"/>
						
							<line fill="none" stroke="#FFFFFF" stroke-width="0.9796" stroke-miterlimit="10" stroke-dasharray="2.385,2.385" x1="295.974" y1="168.172" x2="260.184" y2="189.645"/>
						
							<line fill="none" stroke="#FFFFFF" stroke-width="0.9796" stroke-miterlimit="10" x1="259.162" y1="190.259" x2="258.182" y2="190.847"/>
					</g>
				</g>
			</g>
			<g>
				
					<line fill="none" stroke="#FFFFFF" stroke-width="0.9796" stroke-miterlimit="10" x1="299.008" y1="215.335" x2="298.999" y2="166.357"/>
				
					<line fill="none" stroke="#FFFFFF" stroke-width="0.9796" stroke-miterlimit="10" x1="298.999" y1="166.357" x2="339.815" y2="141.868"/>
				
					<line fill="none" stroke="#FFFFFF" stroke-width="0.9796" stroke-miterlimit="10" x1="298.999" y1="166.357" x2="258.182" y2="141.868"/>
			</g>
		</g>
		
			<rect x="238.159" y="275.641" fill="#FFFFFF" stroke="#EF4069" stroke-width="0.8213" stroke-miterlimit="10" width="122.248" height="9.964"/>
		
			<rect x="238.159" y="78.685" fill="#FFFFFF" stroke="#EF4069" stroke-width="0.8213" stroke-miterlimit="10" width="122.248" height="9.964"/>
		
			<line fill="none" stroke="#EF3E69" stroke-width="8.5113" stroke-miterlimit="10" x1="227.537" y1="89.204" x2="371.202" y2="89.204"/>
		
			<line fill="none" stroke="#EF3E69" stroke-width="8.5113" stroke-miterlimit="10" x1="227.537" y1="274.86" x2="371.202" y2="274.86"/>
		<g>
			<path d="M287.62,225.438h3.179v14.119h-3.179v-5.99h-5.338v5.99h-3.179v-14.119h3.179v5.398h5.338V225.438z"/>
			<path d="M299.58,239.842c-0.991,0-1.848-0.139-2.567-0.418c-0.72-0.277-1.313-0.665-1.782-1.161
				c-0.469-0.495-0.815-1.087-1.039-1.772c-0.225-0.686-0.337-1.443-0.337-2.271v-8.781h3.179v8.516c0,0.57,0.064,1.057,0.193,1.457
				s0.306,0.727,0.53,0.979c0.224,0.251,0.495,0.432,0.814,0.539c0.319,0.109,0.669,0.164,1.05,0.164
				c0.774,0,1.403-0.238,1.885-0.714c0.48-0.476,0.723-1.283,0.723-2.425v-8.516h3.178v8.781c0,0.828-0.115,1.589-0.346,2.281
				c-0.23,0.693-0.584,1.287-1.059,1.783c-0.477,0.496-1.08,0.879-1.814,1.151C301.455,239.706,300.584,239.842,299.58,239.842z"/>
			<path d="M313.17,239.74c-0.775,0-1.547-0.023-2.313-0.071c-0.768-0.048-1.566-0.159-2.395-0.337v-13.691
				c0.652-0.122,1.365-0.214,2.139-0.275c0.775-0.061,1.494-0.092,2.16-0.092c0.896,0,1.721,0.064,2.475,0.193
				c0.754,0.13,1.402,0.351,1.947,0.662c0.543,0.313,0.967,0.725,1.273,1.233c0.305,0.509,0.457,1.138,0.457,1.885
				c0,1.128-0.543,2.017-1.629,2.669c0.896,0.34,1.508,0.802,1.834,1.386s0.488,1.243,0.488,1.976c0,1.481-0.539,2.596-1.619,3.342
				C316.908,239.367,315.301,239.74,313.17,239.74z M311.559,230.979h1.549c0.979,0,1.678-0.125,2.1-0.377
				c0.42-0.251,0.631-0.654,0.631-1.212c0-0.571-0.217-0.972-0.652-1.202c-0.434-0.23-1.072-0.347-1.914-0.347
				c-0.271,0-0.564,0.004-0.877,0.011s-0.59,0.023-0.836,0.051V230.979z M311.559,233.403v3.647
				c0.232,0.027,0.482,0.047,0.754,0.061s0.572,0.021,0.896,0.021c0.951,0,1.719-0.136,2.303-0.407s0.877-0.774,0.877-1.508
				c0-0.652-0.244-1.117-0.734-1.396c-0.488-0.278-1.188-0.418-2.098-0.418H311.559z"/>
		</g>
		<rect x="234.434" y="166.354" fill="#EF3E69" width="5.096" height="27.225"/>
		<rect x="360.081" y="166.354" fill="#EF3E69" width="5.092" height="27.225"/>
	</g>
</g>
</svg>
