<?xml version="1.0" encoding="utf-8"?>
<!-- Generator: Adobe Illustrator 16.0.0, SVG Export Plug-In . SVG Version: 6.00 Build 0)  -->
<!DOCTYPE svg PUBLIC "-//W3C//DTD SVG 1.1//EN" "http://www.w3.org/Graphics/SVG/1.1/DTD/svg11.dtd">
<svg version="1.1" id="Layer_1" xmlns="http://www.w3.org/2000/svg" xmlns:xlink="http://www.w3.org/1999/xlink" x="0px" y="0px"
	 width="400px" height="400px" viewBox="-171.654 -165.986 400 400" enable-background="new -171.654 -165.986 400 400"
	 xml:space="preserve">
<polygon fill="#EE3968" points="195.024,134.026 28.346,234.014 -138.332,134.026 -138.332,-65.98 28.346,-165.986 195.024,-65.98 
	"/>
<g>
	<polyline fill="none" stroke="#FFFFFF" stroke-width="23.2771" points="-13.865,80.339 -13.865,-30.663 93.911,-30.663 
		93.911,80.339 	"/>
	<path fill="#FFFFFF" stroke="#FFFFFF" stroke-width="23.2771" stroke-linecap="square" d="M-25.538,72.737
		c7.167,0,12.978,5.811,12.978,12.978c0,7.166-5.811,12.977-12.978,12.977c-7.172,0-12.977-5.811-12.977-12.977
		C-38.515,78.547-32.71,72.737-25.538,72.737z"/>
	<path fill="#FFFFFF" stroke="#FFFFFF" stroke-width="23.2771" stroke-linecap="square" d="M82.243,72.737
		c7.154,0,12.96,5.816,12.96,12.978c0,7.178-5.806,12.977-12.96,12.977c-7.184,0-12.989-5.799-12.989-12.977
		C69.254,78.553,75.059,72.737,82.243,72.737z"/>
</g>
</svg>
