<?xml version="1.0" encoding="utf-8"?>
<!-- Generator: Adobe Illustrator 16.0.0, SVG Export Plug-In . SVG Version: 6.00 Build 0)  -->
<!DOCTYPE svg PUBLIC "-//W3C//DTD SVG 1.0//EN" "http://www.w3.org/TR/2001/REC-SVG-20010904/DTD/svg10.dtd">
<svg version="1.0" id="Layer_1" xmlns="http://www.w3.org/2000/svg" xmlns:xlink="http://www.w3.org/1999/xlink" x="0px" y="0px"
	 width="255.118px" height="198.425px" viewBox="0 0 255.118 198.425" enable-background="new 0 0 255.118 198.425"
	 xml:space="preserve">
<g>
	<rect x="21.26" y="28.455" fill="#996699" width="70.866" height="70.865"/>
	<g>
		<path fill="#FFFFFF" d="M49.636,62.186c0.04-0.483,0.123-0.987,0.249-1.511c0.125-0.523,0.279-1.037,0.462-1.541
			c0.182-0.503,0.386-0.979,0.611-1.426c0.225-0.447,0.453-0.833,0.686-1.158h-2.991v-1.262h4.818v1.073
			c-0.212,0.232-0.445,0.553-0.7,0.964c-0.255,0.411-0.497,0.876-0.726,1.396c-0.228,0.52-0.427,1.078-0.596,1.674
			c-0.169,0.597-0.273,1.193-0.313,1.789H49.636z"/>
		<path fill="#FFFFFF" d="M59.175,58.727c0,1.16-0.22,2.049-0.66,2.668c-0.441,0.62-1.049,0.929-1.824,0.929
			s-1.383-0.31-1.823-0.929c-0.441-0.62-0.661-1.509-0.661-2.668c0-0.577,0.058-1.086,0.174-1.531
			c0.116-0.443,0.283-0.818,0.502-1.123c0.219-0.304,0.48-0.537,0.785-0.695c0.305-0.159,0.646-0.239,1.023-0.239
			c0.775,0,1.383,0.31,1.824,0.929C58.955,56.688,59.175,57.574,59.175,58.727z M57.665,58.727c0-0.344-0.018-0.658-0.05-0.939
			c-0.033-0.281-0.087-0.525-0.159-0.73c-0.073-0.206-0.173-0.365-0.298-0.477c-0.126-0.113-0.282-0.169-0.468-0.169
			s-0.34,0.056-0.462,0.169c-0.123,0.112-0.222,0.271-0.298,0.477c-0.076,0.205-0.131,0.449-0.164,0.73
			c-0.033,0.282-0.05,0.595-0.05,0.939c0,0.345,0.017,0.659,0.05,0.944c0.033,0.285,0.088,0.53,0.164,0.735
			c0.076,0.205,0.175,0.364,0.298,0.477c0.122,0.113,0.276,0.169,0.462,0.169s0.342-0.056,0.468-0.169
			c0.125-0.113,0.225-0.272,0.298-0.477c0.072-0.206,0.126-0.451,0.159-0.735C57.647,59.386,57.665,59.072,57.665,58.727z"/>
		<path fill="#FFFFFF" d="M64.819,58.727c0,1.16-0.22,2.049-0.66,2.668c-0.441,0.62-1.049,0.929-1.824,0.929
			s-1.383-0.31-1.823-0.929c-0.441-0.62-0.661-1.509-0.661-2.668c0-0.577,0.058-1.086,0.174-1.531
			c0.116-0.443,0.283-0.818,0.502-1.123c0.219-0.304,0.48-0.537,0.785-0.695c0.305-0.159,0.646-0.239,1.023-0.239
			c0.775,0,1.383,0.31,1.824,0.929C64.6,56.688,64.819,57.574,64.819,58.727z M63.31,58.727c0-0.344-0.018-0.658-0.05-0.939
			c-0.033-0.281-0.087-0.525-0.159-0.73c-0.073-0.206-0.173-0.365-0.298-0.477c-0.126-0.113-0.282-0.169-0.468-0.169
			s-0.34,0.056-0.462,0.169c-0.123,0.112-0.222,0.271-0.298,0.477c-0.076,0.205-0.131,0.449-0.164,0.73
			c-0.033,0.282-0.05,0.595-0.05,0.939c0,0.345,0.017,0.659,0.05,0.944c0.033,0.285,0.088,0.53,0.164,0.735
			c0.076,0.205,0.175,0.364,0.298,0.477c0.122,0.113,0.276,0.169,0.462,0.169s0.342-0.056,0.468-0.169
			c0.125-0.113,0.225-0.272,0.298-0.477c0.072-0.206,0.126-0.451,0.159-0.735C63.292,59.386,63.31,59.072,63.31,58.727z"/>
		<path fill="#FFFFFF" d="M48.727,65.237c0.119,0.219,0.257,0.489,0.413,0.81c0.156,0.321,0.319,0.669,0.488,1.043
			c0.17,0.375,0.337,0.757,0.503,1.148s0.322,0.759,0.469,1.103c0.146-0.344,0.302-0.712,0.469-1.103
			c0.166-0.391,0.333-0.773,0.503-1.148c0.169-0.375,0.332-0.722,0.487-1.043c0.156-0.321,0.294-0.591,0.413-0.81h1.411
			c0.066,0.457,0.128,0.968,0.185,1.535c0.056,0.566,0.105,1.156,0.148,1.769c0.043,0.613,0.083,1.228,0.119,1.844
			c0.037,0.616,0.068,1.196,0.095,1.739h-1.511c-0.02-0.669-0.046-1.398-0.079-2.187c-0.033-0.788-0.083-1.583-0.149-2.385
			c-0.119,0.278-0.253,0.586-0.398,0.924c-0.146,0.338-0.291,0.676-0.433,1.014c-0.144,0.338-0.281,0.661-0.414,0.969
			s-0.246,0.571-0.339,0.79h-1.083c-0.094-0.219-0.206-0.482-0.339-0.79c-0.134-0.308-0.271-0.631-0.414-0.969
			s-0.287-0.676-0.434-1.014s-0.279-0.646-0.398-0.924c-0.066,0.802-0.116,1.597-0.149,2.385c-0.033,0.789-0.06,1.518-0.08,2.187
			h-1.51c0.026-0.543,0.058-1.123,0.094-1.739s0.076-1.23,0.119-1.844c0.043-0.612,0.093-1.202,0.149-1.769
			c0.057-0.567,0.117-1.078,0.184-1.535H48.727z"/>
		<path fill="#FFFFFF" d="M59.965,65.237h1.551v6.887h-1.551v-2.922h-2.604v2.922h-1.551v-6.887h1.551v2.633h2.604V65.237z"/>
		<path fill="#FFFFFF" d="M66.932,67.89c-0.119,0.133-0.28,0.312-0.482,0.537c-0.203,0.226-0.42,0.474-0.652,0.746
			c-0.232,0.272-0.467,0.557-0.702,0.854c-0.236,0.298-0.45,0.586-0.643,0.865h2.529v1.232h-4.323v-0.875
			c0.14-0.239,0.307-0.495,0.502-0.771c0.195-0.274,0.401-0.551,0.616-0.83s0.429-0.548,0.641-0.81
			c0.213-0.262,0.408-0.499,0.587-0.71h-2.227v-1.232h4.154V67.89z"/>
	</g>
	
		<rect x="38.971" y="45.941" fill="none" stroke="#FFFFFF" stroke-width="4.1667" stroke-miterlimit="10" width="35.438" height="35.435"/>
	<g>
		
			<line fill="none" stroke="#FFFFFF" stroke-width="4.1667" stroke-miterlimit="10" x1="72.738" y1="55.604" x2="82.059" y2="55.604"/>
		
			<line fill="none" stroke="#FFFFFF" stroke-width="4.1667" stroke-miterlimit="10" x1="72.738" y1="63.888" x2="82.059" y2="63.888"/>
		
			<line fill="none" stroke="#FFFFFF" stroke-width="4.1667" stroke-miterlimit="10" x1="72.738" y1="72.17" x2="82.059" y2="72.17"/>
	</g>
	<g>
		
			<line fill="none" stroke="#FFFFFF" stroke-width="4.1667" stroke-miterlimit="10" x1="31.327" y1="55.604" x2="40.645" y2="55.604"/>
		
			<line fill="none" stroke="#FFFFFF" stroke-width="4.1667" stroke-miterlimit="10" x1="31.327" y1="63.888" x2="40.645" y2="63.888"/>
		
			<line fill="none" stroke="#FFFFFF" stroke-width="4.1667" stroke-miterlimit="10" x1="31.327" y1="72.17" x2="40.645" y2="72.17"/>
	</g>
	<g>
		
			<line fill="none" stroke="#FFFFFF" stroke-width="4.1667" stroke-miterlimit="10" x1="64.973" y1="79.935" x2="64.973" y2="89.252"/>
		
			<line fill="none" stroke="#FFFFFF" stroke-width="4.1667" stroke-miterlimit="10" x1="56.692" y1="79.935" x2="56.692" y2="89.252"/>
		
			<line fill="none" stroke="#FFFFFF" stroke-width="4.1667" stroke-miterlimit="10" x1="48.407" y1="79.935" x2="48.407" y2="89.252"/>
	</g>
	<g>
		
			<line fill="none" stroke="#FFFFFF" stroke-width="4.1667" stroke-miterlimit="10" x1="64.973" y1="38.524" x2="64.973" y2="47.841"/>
		
			<line fill="none" stroke="#FFFFFF" stroke-width="4.1667" stroke-miterlimit="10" x1="56.692" y1="38.524" x2="56.692" y2="47.841"/>
		
			<line fill="none" stroke="#FFFFFF" stroke-width="4.1667" stroke-miterlimit="10" x1="48.407" y1="38.524" x2="48.407" y2="47.841"/>
	</g>
	<rect x="162.993" y="28.453" fill="#EE3968" width="70.865" height="70.869"/>
	<g>
		<g>
			
				<line fill="none" stroke="#FFFFFF" stroke-width="4.1667" stroke-miterlimit="10" x1="206.707" y1="74.103" x2="206.707" y2="83.42"/>
			
				<line fill="none" stroke="#FFFFFF" stroke-width="4.1667" stroke-miterlimit="10" x1="198.425" y1="74.103" x2="198.425" y2="83.42"/>
			
				<line fill="none" stroke="#FFFFFF" stroke-width="4.1667" stroke-miterlimit="10" x1="190.144" y1="74.103" x2="190.144" y2="83.42"/>
		</g>
		<g>
			
				<line fill="none" stroke="#FFFFFF" stroke-width="4.1667" stroke-miterlimit="10" x1="206.707" y1="44.357" x2="206.707" y2="53.675"/>
			
				<line fill="none" stroke="#FFFFFF" stroke-width="4.1667" stroke-miterlimit="10" x1="198.425" y1="44.357" x2="198.425" y2="53.675"/>
			
				<line fill="none" stroke="#FFFFFF" stroke-width="4.1667" stroke-miterlimit="10" x1="190.144" y1="44.357" x2="190.144" y2="53.675"/>
		</g>
		<path fill="none" stroke="#FFFFFF" stroke-width="4.1667" stroke-miterlimit="10" d="M222.047,69.563
			c0,3.262-2.646,5.905-5.906,5.905h-35.434c-3.262,0-5.904-2.644-5.904-5.905V57.751c0-3.261,2.643-5.904,5.904-5.904h35.434
			c3.261,0,5.906,2.644,5.906,5.904V69.563z"/>
	</g>
	<g>
		<path fill="#FFFFFF" d="M184.543,64.862c0-0.192-0.043-0.363-0.129-0.512c-0.086-0.149-0.234-0.273-0.447-0.373
			c-0.212-0.099-0.496-0.175-0.854-0.229c-0.357-0.053-0.808-0.08-1.352-0.08c0.073-0.616,0.133-1.242,0.179-1.878
			c0.047-0.636,0.083-1.232,0.109-1.789h3.727v1.242h-2.484c-0.014,0.239-0.027,0.469-0.045,0.691
			c-0.016,0.222-0.034,0.416-0.055,0.581c0.968,0.066,1.682,0.293,2.143,0.681c0.46,0.387,0.689,0.926,0.689,1.615
			c0,0.318-0.056,0.613-0.168,0.885c-0.113,0.271-0.281,0.506-0.507,0.705s-0.509,0.354-0.85,0.467
			c-0.341,0.113-0.741,0.169-1.198,0.169c-0.178,0-0.365-0.012-0.561-0.035c-0.195-0.023-0.385-0.053-0.566-0.089
			c-0.183-0.037-0.347-0.075-0.492-0.114c-0.146-0.04-0.259-0.08-0.338-0.119l0.268-1.222c0.166,0.073,0.385,0.144,0.656,0.214
			c0.271,0.069,0.597,0.104,0.975,0.104c0.457,0,0.788-0.09,0.993-0.272C184.441,65.321,184.543,65.107,184.543,64.862z"/>
		<path fill="#FFFFFF" d="M187.307,61.433c0.191-0.08,0.393-0.17,0.601-0.273c0.209-0.103,0.413-0.215,0.611-0.338
			s0.39-0.251,0.571-0.388c0.182-0.136,0.346-0.28,0.492-0.432h1.033v6.887h-1.48V61.93c-0.199,0.132-0.421,0.253-0.666,0.362
			c-0.245,0.109-0.484,0.204-0.715,0.284L187.307,61.433z"/>
		<path fill="#FFFFFF" d="M197.185,61.811c0,0.252-0.05,0.494-0.149,0.726s-0.229,0.456-0.387,0.671
			c-0.159,0.215-0.338,0.422-0.537,0.621s-0.395,0.388-0.586,0.566c-0.1,0.093-0.207,0.197-0.323,0.313
			c-0.116,0.116-0.228,0.234-0.333,0.353s-0.201,0.23-0.283,0.333c-0.083,0.103-0.135,0.187-0.154,0.253h2.962v1.242h-4.592
			c-0.013-0.073-0.02-0.166-0.02-0.278c0-0.112,0-0.192,0-0.238c0-0.318,0.052-0.61,0.153-0.875c0.104-0.265,0.237-0.512,0.403-0.74
			c0.165-0.229,0.353-0.442,0.562-0.641s0.416-0.397,0.621-0.596c0.158-0.152,0.309-0.296,0.447-0.432s0.262-0.269,0.367-0.397
			c0.105-0.129,0.189-0.259,0.248-0.388c0.061-0.129,0.09-0.26,0.09-0.393c0-0.292-0.082-0.497-0.248-0.616
			s-0.371-0.179-0.616-0.179c-0.179,0-0.347,0.028-0.502,0.084c-0.155,0.056-0.298,0.123-0.427,0.199
			c-0.13,0.076-0.24,0.152-0.334,0.229c-0.092,0.076-0.162,0.137-0.208,0.184l-0.735-1.034c0.291-0.271,0.631-0.495,1.019-0.67
			c0.388-0.176,0.804-0.264,1.247-0.264c0.404,0,0.752,0.046,1.043,0.139c0.292,0.093,0.532,0.224,0.721,0.393
			c0.189,0.169,0.328,0.375,0.418,0.616C197.141,61.233,197.185,61.506,197.185,61.811z"/>
		<path fill="#FFFFFF" d="M202.909,60.002c0.12,0.219,0.257,0.489,0.413,0.81s0.319,0.669,0.488,1.043
			c0.17,0.375,0.338,0.757,0.504,1.148s0.322,0.759,0.469,1.103c0.146-0.344,0.302-0.712,0.468-1.103s0.334-0.773,0.503-1.148
			c0.17-0.375,0.332-0.722,0.488-1.043s0.295-0.591,0.414-0.81h1.411c0.065,0.457,0.128,0.969,0.184,1.536
			c0.056,0.566,0.106,1.156,0.149,1.769c0.043,0.613,0.082,1.228,0.119,1.844c0.036,0.616,0.068,1.196,0.094,1.739h-1.51
			c-0.02-0.669-0.047-1.397-0.08-2.186c-0.033-0.788-0.082-1.583-0.148-2.385c-0.12,0.278-0.253,0.586-0.398,0.924
			c-0.146,0.338-0.291,0.676-0.435,1.014c-0.143,0.338-0.28,0.661-0.413,0.969s-0.246,0.571-0.34,0.79h-1.083
			c-0.093-0.219-0.206-0.481-0.339-0.79s-0.271-0.631-0.414-0.969s-0.287-0.676-0.434-1.014s-0.279-0.646-0.398-0.924
			c-0.066,0.802-0.115,1.597-0.148,2.385c-0.033,0.789-0.061,1.517-0.08,2.186h-1.511c0.026-0.543,0.058-1.123,0.095-1.739
			c0.036-0.616,0.076-1.23,0.119-1.844c0.043-0.612,0.093-1.202,0.148-1.769c0.057-0.567,0.118-1.079,0.185-1.536H202.909z"/>
		<path fill="#FFFFFF" d="M212.291,66.978c-0.379,0-0.754-0.012-1.129-0.035c-0.374-0.023-0.763-0.078-1.167-0.164v-6.678
			c0.318-0.06,0.665-0.104,1.043-0.134s0.729-0.045,1.054-0.045c0.438,0,0.84,0.032,1.207,0.094
			c0.368,0.063,0.685,0.171,0.949,0.323c0.266,0.152,0.473,0.353,0.621,0.601c0.149,0.249,0.225,0.555,0.225,0.919
			c0,0.55-0.266,0.984-0.796,1.302c0.438,0.166,0.735,0.391,0.895,0.676c0.159,0.285,0.239,0.606,0.239,0.964
			c0,0.722-0.264,1.265-0.791,1.629C214.114,66.796,213.33,66.978,212.291,66.978z M211.506,62.705h0.755
			c0.478,0,0.818-0.061,1.023-0.184c0.206-0.123,0.308-0.32,0.308-0.591c0-0.278-0.105-0.474-0.317-0.586s-0.523-0.169-0.935-0.169
			c-0.133,0-0.275,0.001-0.428,0.005s-0.287,0.012-0.406,0.025V62.705z M211.506,63.888v1.779c0.112,0.014,0.234,0.023,0.367,0.03
			c0.133,0.006,0.278,0.01,0.438,0.01c0.463,0,0.838-0.066,1.123-0.199s0.428-0.378,0.428-0.735c0-0.318-0.119-0.545-0.358-0.681
			c-0.238-0.136-0.579-0.204-1.023-0.204H211.506z"/>
	</g>
	<g>
		<rect x="92.126" y="28.455" fill="#3399CC" width="70.868" height="70.866"/>
		<g>
			<path fill="#FFFFFF" d="M130.004,60.596c0,0.299-0.052,0.572-0.154,0.821c-0.104,0.249-0.257,0.466-0.463,0.651
				c-0.205,0.186-0.461,0.331-0.77,0.433s-0.664,0.154-1.068,0.154c-0.464,0-0.85-0.065-1.158-0.194
				c-0.308-0.129-0.557-0.291-0.745-0.483s-0.323-0.403-0.402-0.632c-0.079-0.229-0.119-0.439-0.119-0.632
				c0-0.199,0.026-0.382,0.079-0.547c0.054-0.166,0.126-0.317,0.219-0.453c0.093-0.136,0.197-0.26,0.313-0.373
				s0.239-0.219,0.372-0.318c-0.285-0.231-0.495-0.46-0.631-0.685c-0.136-0.225-0.203-0.513-0.203-0.863
				c0-0.265,0.055-0.52,0.163-0.764c0.109-0.245,0.264-0.458,0.462-0.64c0.199-0.182,0.439-0.328,0.721-0.437
				c0.282-0.109,0.596-0.164,0.939-0.164c0.404,0,0.75,0.058,1.039,0.174c0.288,0.116,0.525,0.263,0.711,0.442
				c0.185,0.178,0.318,0.378,0.402,0.6c0.082,0.222,0.123,0.441,0.123,0.66c0,0.318-0.084,0.614-0.253,0.888
				c-0.169,0.275-0.38,0.492-0.631,0.65c0.378,0.246,0.647,0.502,0.81,0.771C129.922,59.925,130.004,60.238,130.004,60.596z
				 M126.564,60.657c0,0.08,0.019,0.168,0.055,0.264c0.037,0.096,0.095,0.184,0.174,0.264c0.08,0.08,0.183,0.146,0.309,0.199
				c0.126,0.053,0.278,0.08,0.457,0.08c0.345,0,0.597-0.083,0.756-0.25c0.158-0.166,0.238-0.352,0.238-0.558
				c0-0.153-0.035-0.289-0.104-0.409s-0.164-0.224-0.283-0.314c-0.119-0.089-0.261-0.169-0.423-0.239s-0.336-0.135-0.521-0.194
				c-0.186,0.139-0.342,0.302-0.467,0.488C126.628,60.175,126.564,60.397,126.564,60.657z M128.403,57.387
				c0-0.072-0.015-0.15-0.044-0.232c-0.03-0.083-0.08-0.161-0.149-0.233c-0.069-0.073-0.157-0.134-0.264-0.184
				s-0.235-0.074-0.388-0.074c-0.146,0-0.271,0.023-0.377,0.069c-0.106,0.046-0.194,0.107-0.264,0.183
				c-0.07,0.076-0.121,0.157-0.154,0.243s-0.05,0.168-0.05,0.248c0,0.211,0.078,0.41,0.233,0.595
				c0.156,0.185,0.423,0.344,0.801,0.476c0.211-0.132,0.374-0.284,0.486-0.456C128.348,57.85,128.403,57.638,128.403,57.387z"/>
			<path fill="#FFFFFF" d="M124.886,66.76c-0.723,0-1.244,0.201-1.565,0.602s-0.482,0.949-0.482,1.645
				c0,0.338,0.04,0.645,0.12,0.919c0.079,0.275,0.198,0.512,0.357,0.71s0.357,0.353,0.597,0.462
				c0.238,0.109,0.517,0.164,0.834,0.164c0.173,0,0.32-0.003,0.442-0.01c0.123-0.006,0.23-0.02,0.323-0.04v-2.395h1.551v3.409
				c-0.186,0.073-0.484,0.151-0.895,0.233c-0.411,0.083-0.918,0.125-1.521,0.125c-0.518,0-0.986-0.08-1.406-0.239
				c-0.421-0.159-0.78-0.391-1.079-0.696c-0.298-0.305-0.528-0.679-0.69-1.123c-0.162-0.444-0.243-0.951-0.243-1.521
				c0-0.576,0.089-1.086,0.269-1.53c0.179-0.444,0.424-0.82,0.735-1.128s0.677-0.542,1.098-0.7c0.421-0.159,0.87-0.239,1.347-0.239
				c0.324,0,0.618,0.021,0.88,0.065c0.262,0.043,0.486,0.093,0.676,0.149c0.188,0.056,0.344,0.114,0.467,0.173
				c0.123,0.06,0.211,0.106,0.264,0.139l-0.447,1.242c-0.213-0.112-0.455-0.21-0.73-0.293S125.21,66.76,124.886,66.76z"/>
			<path fill="#FFFFFF" d="M130.799,72.544c-0.378,0-0.754-0.012-1.128-0.035c-0.374-0.023-0.764-0.078-1.168-0.164v-6.678
				c0.318-0.06,0.666-0.104,1.044-0.134c0.377-0.03,0.729-0.045,1.053-0.045c0.438,0,0.84,0.032,1.208,0.094
				c0.368,0.063,0.685,0.17,0.949,0.323s0.472,0.353,0.621,0.601s0.224,0.555,0.224,0.919c0,0.55-0.266,0.984-0.795,1.302
				c0.438,0.166,0.734,0.391,0.895,0.676c0.158,0.285,0.238,0.606,0.238,0.964c0,0.722-0.264,1.266-0.79,1.63
				S131.839,72.544,130.799,72.544z M130.014,68.271h0.756c0.477,0,0.818-0.061,1.023-0.184s0.308-0.32,0.308-0.591
				c0-0.278-0.106-0.474-0.317-0.586c-0.213-0.113-0.523-0.169-0.935-0.169c-0.133,0-0.275,0.001-0.428,0.005
				s-0.288,0.012-0.407,0.025V68.271z M130.014,69.454v1.779c0.113,0.014,0.234,0.023,0.367,0.03c0.133,0.006,0.279,0.01,0.438,0.01
				c0.464,0,0.838-0.066,1.123-0.199s0.428-0.378,0.428-0.735c0-0.318-0.119-0.545-0.357-0.681c-0.238-0.136-0.58-0.204-1.023-0.204
				H130.014z"/>
		</g>
		<path fill="none" stroke="#FFFFFF" stroke-width="4.1667" stroke-miterlimit="10" d="M143.852,77.681
			c0,2.541-2.089,4.601-4.664,4.601h-23.262c-2.572,0-4.661-2.06-4.661-4.601V49.635c4.661-4.6,0,0,4.661-4.6h27.926
			c-2.75,0-2.75,0,0,0V77.681z"/>
	</g>
	<g>
		<rect x="21.26" y="99.104" fill="#FFCE09" width="70.866" height="70.867"/>
		<g>
			
				<rect x="40.58" y="113.107" fill="none" stroke="#000000" stroke-width="4.1667" stroke-miterlimit="10" width="32.224" height="24.168"/>
			
				<rect x="48.638" y="137.377" fill="none" stroke="#000000" stroke-width="4.1667" stroke-miterlimit="10" width="16.113" height="3.223"/>
			
				<rect x="52.665" y="141.023" fill="none" stroke="#000000" stroke-width="4.1667" stroke-miterlimit="10" width="8.057" height="1.613"/>
			<rect x="48.94" y="134.428" fill="#FFCE09" width="15.503" height="4.561"/>
			<rect x="53.635" y="138.154" fill="#FFCE09" width="6.113" height="2.445"/>
		</g>
		<g>
			<path d="M44.459,151.798c0.192-0.079,0.393-0.171,0.602-0.273s0.412-0.216,0.611-0.338c0.198-0.122,0.389-0.251,0.571-0.388
				c0.183-0.136,0.347-0.279,0.492-0.432h1.033v6.887h-1.48v-4.959c-0.199,0.133-0.421,0.254-0.666,0.362
				c-0.245,0.109-0.483,0.204-0.716,0.284L44.459,151.798z"/>
			<path d="M54.714,153.795c0,1.16-0.22,2.049-0.66,2.669c-0.441,0.62-1.049,0.929-1.824,0.929c-0.774,0-1.382-0.309-1.822-0.929
				c-0.441-0.62-0.661-1.509-0.661-2.669c0-0.576,0.058-1.086,0.174-1.53c0.116-0.443,0.283-0.817,0.502-1.123
				c0.219-0.304,0.48-0.536,0.785-0.695s0.646-0.239,1.022-0.239c0.775,0,1.383,0.311,1.824,0.93
				C54.494,151.756,54.714,152.643,54.714,153.795z M53.204,153.795c0-0.344-0.018-0.657-0.05-0.939
				c-0.033-0.281-0.087-0.524-0.159-0.729c-0.073-0.206-0.173-0.364-0.298-0.478c-0.126-0.112-0.282-0.168-0.468-0.168
				s-0.339,0.056-0.461,0.168c-0.123,0.113-0.222,0.271-0.298,0.478c-0.076,0.205-0.131,0.448-0.164,0.729
				c-0.033,0.282-0.05,0.596-0.05,0.939c0,0.346,0.017,0.66,0.05,0.945c0.033,0.284,0.088,0.529,0.164,0.734
				s0.175,0.365,0.298,0.478c0.122,0.112,0.275,0.169,0.461,0.169s0.342-0.057,0.468-0.169c0.125-0.112,0.225-0.272,0.298-0.478
				c0.072-0.205,0.126-0.45,0.159-0.734C53.187,154.455,53.204,154.141,53.204,153.795z"/>
			<path d="M60.358,153.795c0,1.16-0.22,2.049-0.66,2.669c-0.441,0.62-1.049,0.929-1.824,0.929s-1.383-0.309-1.823-0.929
				c-0.441-0.62-0.661-1.509-0.661-2.669c0-0.576,0.058-1.086,0.174-1.53c0.116-0.443,0.283-0.817,0.502-1.123
				c0.219-0.304,0.48-0.536,0.785-0.695s0.646-0.239,1.023-0.239c0.775,0,1.383,0.311,1.824,0.93
				C60.139,151.756,60.358,152.643,60.358,153.795z M58.849,153.795c0-0.344-0.018-0.657-0.05-0.939
				c-0.033-0.281-0.087-0.524-0.159-0.729c-0.073-0.206-0.173-0.364-0.298-0.478c-0.126-0.112-0.282-0.168-0.468-0.168
				s-0.34,0.056-0.462,0.168c-0.123,0.113-0.222,0.271-0.298,0.478c-0.076,0.205-0.131,0.448-0.164,0.729
				c-0.033,0.282-0.05,0.596-0.05,0.939c0,0.346,0.017,0.66,0.05,0.945c0.033,0.284,0.088,0.529,0.164,0.734
				s0.175,0.365,0.298,0.478c0.122,0.112,0.276,0.169,0.462,0.169s0.342-0.057,0.468-0.169c0.125-0.112,0.225-0.272,0.298-0.478
				c0.072-0.205,0.126-0.45,0.159-0.734C58.831,154.455,58.849,154.141,58.849,153.795z"/>
			<path d="M63.32,150.367c0.119,0.219,0.257,0.488,0.413,0.81s0.319,0.669,0.488,1.044c0.17,0.374,0.337,0.756,0.503,1.147
				s0.322,0.759,0.469,1.103c0.146-0.344,0.302-0.711,0.469-1.103c0.166-0.392,0.333-0.773,0.503-1.147
				c0.169-0.375,0.332-0.723,0.488-1.044s0.294-0.591,0.413-0.81h1.411c0.066,0.457,0.128,0.969,0.185,1.535
				c0.056,0.566,0.105,1.156,0.148,1.769c0.043,0.613,0.083,1.228,0.119,1.844c0.037,0.616,0.068,1.196,0.095,1.739h-1.511
				c-0.02-0.669-0.046-1.398-0.079-2.187s-0.083-1.583-0.149-2.386c-0.119,0.279-0.253,0.587-0.398,0.925
				c-0.146,0.338-0.291,0.676-0.434,1.014c-0.144,0.338-0.281,0.661-0.414,0.97c-0.133,0.308-0.246,0.57-0.339,0.789h-1.083
				c-0.094-0.219-0.206-0.481-0.339-0.789c-0.134-0.309-0.271-0.632-0.414-0.97s-0.287-0.676-0.434-1.014s-0.279-0.646-0.398-0.925
				c-0.066,0.803-0.116,1.598-0.149,2.386s-0.06,1.518-0.08,2.187h-1.51c0.026-0.543,0.058-1.123,0.094-1.739
				s0.076-1.23,0.119-1.844c0.043-0.612,0.093-1.202,0.149-1.769s0.117-1.078,0.184-1.535H63.32z"/>
		</g>
	</g>
	<g>
		<rect x="92.128" y="99.104" fill="#6EC498" width="70.866" height="70.867"/>
		<g>
			<g>
				<path fill="none" stroke="#FFFFFF" stroke-width="4.1667" d="M106.802,122.682c11.477-11.473,30.046-11.473,41.52,0"/>
				<path fill="none" stroke="#FFFFFF" stroke-width="4.1667" d="M112.232,128.111c8.475-8.471,22.187-8.471,30.659,0"/>
				<path fill="none" stroke="#FFFFFF" stroke-width="4.1667" d="M118.59,133.963c4.957-4.959,12.988-4.959,17.945,0"/>
			</g>
			<circle fill="#FFFFFF" cx="127.562" cy="139.813" r="3.794"/>
		</g>
		<g>
			<path fill="#FFFFFF" d="M120.754,157.197c-0.443-0.789-0.924-1.566-1.44-2.336c-0.517-0.768-1.067-1.494-1.65-2.176v4.512h-1.53
				v-6.887h1.263c0.218,0.219,0.46,0.486,0.725,0.805c0.266,0.318,0.535,0.657,0.811,1.019c0.274,0.361,0.548,0.735,0.819,1.123
				c0.272,0.388,0.527,0.761,0.766,1.118v-4.064h1.54v6.887H120.754z"/>
			<path fill="#FFFFFF" d="M123.547,151.741c0.192-0.079,0.393-0.171,0.602-0.273s0.412-0.216,0.611-0.338
				c0.198-0.122,0.389-0.251,0.571-0.388c0.183-0.136,0.347-0.279,0.492-0.432h1.033v6.887h-1.48v-4.959
				c-0.199,0.133-0.421,0.254-0.666,0.362c-0.245,0.109-0.483,0.204-0.716,0.284L123.547,151.741z"/>
			<path fill="#FFFFFF" d="M132.074,155.17c0-0.192-0.043-0.363-0.129-0.512c-0.086-0.149-0.235-0.273-0.447-0.373
				c-0.213-0.1-0.497-0.176-0.855-0.229c-0.357-0.053-0.808-0.08-1.352-0.08c0.073-0.615,0.133-1.242,0.18-1.877
				c0.046-0.637,0.082-1.232,0.109-1.789h3.727v1.242h-2.484c-0.014,0.238-0.028,0.469-0.045,0.69s-0.035,0.415-0.055,0.581
				c0.967,0.066,1.682,0.293,2.142,0.682c0.46,0.387,0.69,0.926,0.69,1.614c0,0.317-0.057,0.612-0.168,0.885
				c-0.113,0.271-0.282,0.507-0.508,0.706c-0.225,0.198-0.508,0.354-0.85,0.467c-0.341,0.112-0.74,0.168-1.197,0.168
				c-0.179,0-0.366-0.012-0.562-0.034c-0.195-0.023-0.384-0.054-0.566-0.089c-0.183-0.037-0.347-0.075-0.492-0.115
				c-0.146-0.039-0.259-0.079-0.338-0.119l0.269-1.223c0.166,0.074,0.385,0.145,0.656,0.215c0.271,0.068,0.596,0.104,0.974,0.104
				c0.457,0,0.788-0.091,0.993-0.273C131.972,155.629,132.074,155.415,132.074,155.17z"/>
			<path fill="#FFFFFF" d="M139.448,153.738c0,1.16-0.221,2.049-0.661,2.669s-1.049,0.929-1.823,0.929s-1.383-0.309-1.823-0.929
				c-0.441-0.62-0.661-1.509-0.661-2.669c0-0.576,0.058-1.086,0.174-1.53c0.116-0.443,0.283-0.817,0.502-1.123
				c0.219-0.304,0.48-0.536,0.785-0.695s0.646-0.239,1.023-0.239c0.774,0,1.383,0.311,1.823,0.93S139.448,152.586,139.448,153.738z
				 M137.938,153.738c0-0.344-0.017-0.657-0.05-0.939c-0.033-0.281-0.086-0.524-0.159-0.729c-0.072-0.206-0.172-0.364-0.298-0.478
				c-0.126-0.112-0.281-0.168-0.467-0.168s-0.339,0.056-0.462,0.168c-0.123,0.113-0.223,0.271-0.299,0.478
				c-0.076,0.205-0.131,0.448-0.163,0.729c-0.034,0.282-0.05,0.596-0.05,0.939c0,0.346,0.016,0.66,0.05,0.945
				c0.032,0.284,0.087,0.529,0.163,0.734s0.176,0.365,0.299,0.478s0.276,0.169,0.462,0.169s0.341-0.057,0.467-0.169
				s0.226-0.272,0.298-0.478c0.073-0.205,0.126-0.45,0.159-0.734C137.921,154.398,137.938,154.084,137.938,153.738z"/>
		</g>
	</g>
	<g>
		<rect x="162.992" y="99.104" width="70.866" height="35.433"/>
		<g>
			<path fill="#FFFFFF" d="M185.764,111.955h2.339v10.394h-2.339v-4.409h-3.93v4.409h-2.341v-10.394h2.341v3.974h3.93V111.955z"/>
			<path fill="#FFFFFF" d="M199.607,117.145c0,0.899-0.141,1.685-0.42,2.354c-0.281,0.671-0.678,1.226-1.193,1.666
				c-0.516,0.439-1.143,0.77-1.883,0.99c-0.74,0.219-1.569,0.329-2.489,0.329c-0.42,0-0.91-0.018-1.47-0.052
				c-0.561-0.035-1.11-0.107-1.65-0.218V112.09c0.54-0.1,1.103-0.168,1.688-0.203s1.088-0.053,1.508-0.053
				c0.89,0,1.697,0.101,2.422,0.301c0.725,0.199,1.348,0.515,1.867,0.945c0.521,0.43,0.92,0.979,1.201,1.648
				C199.467,115.398,199.607,116.204,199.607,117.145z M192.842,120.443c0.11,0.01,0.238,0.018,0.383,0.023
				c0.145,0.004,0.317,0.007,0.518,0.007c1.17,0,2.037-0.295,2.602-0.885c0.565-0.59,0.848-1.405,0.848-2.444
				c0-1.09-0.27-1.916-0.81-2.476s-1.396-0.839-2.565-0.839c-0.16,0-0.324,0.002-0.494,0.007s-0.33,0.018-0.48,0.038V120.443z"/>
			<path fill="#FFFFFF" d="M204.316,111.955c0.181,0.33,0.389,0.736,0.625,1.222c0.234,0.485,0.48,1.011,0.736,1.575
				s0.509,1.143,0.76,1.732c0.25,0.59,0.486,1.145,0.707,1.664c0.221-0.52,0.455-1.074,0.707-1.664
				c0.25-0.59,0.503-1.168,0.759-1.732s0.501-1.09,0.737-1.575c0.235-0.485,0.443-0.892,0.624-1.222h2.13
				c0.1,0.689,0.191,1.462,0.277,2.316c0.084,0.855,0.159,1.745,0.225,2.67c0.064,0.925,0.125,1.853,0.18,2.782
				c0.055,0.931,0.103,1.806,0.143,2.625h-2.279c-0.031-1.01-0.07-2.11-0.121-3.3c-0.05-1.189-0.124-2.391-0.225-3.6
				c-0.18,0.42-0.381,0.885-0.602,1.395s-0.438,1.02-0.654,1.53c-0.215,0.51-0.424,0.997-0.624,1.462s-0.372,0.863-0.512,1.193
				h-1.636c-0.141-0.33-0.311-0.729-0.511-1.193s-0.409-0.952-0.624-1.462c-0.217-0.511-0.435-1.021-0.655-1.53
				s-0.421-0.975-0.602-1.395c-0.101,1.209-0.175,2.41-0.226,3.6c-0.05,1.189-0.09,2.29-0.119,3.3h-2.28
				c0.04-0.819,0.087-1.694,0.143-2.625c0.055-0.93,0.114-1.857,0.181-2.782c0.064-0.925,0.139-1.814,0.225-2.67
				c0.084-0.854,0.178-1.627,0.277-2.316H204.316z"/>
			<path fill="#FFFFFF" d="M215.01,111.955h2.341v10.394h-2.341V111.955z"/>
		</g>
	</g>
	<g>
		<rect x="162.994" y="134.537" fill="#FFFFFF" width="35.431" height="35.436"/>
		<g>
			<path d="M174.258,151.119c-0.483,0-0.9-0.067-1.252-0.203s-0.641-0.324-0.869-0.566s-0.398-0.53-0.507-0.865
				c-0.109-0.334-0.164-0.703-0.164-1.107v-4.283h1.55v4.154c0,0.277,0.031,0.515,0.095,0.71s0.149,0.354,0.259,0.478
				c0.109,0.122,0.242,0.21,0.397,0.263c0.155,0.054,0.326,0.079,0.512,0.079c0.378,0,0.685-0.115,0.919-0.348
				c0.235-0.231,0.354-0.625,0.354-1.182v-4.154h1.55v4.283c0,0.404-0.056,0.775-0.169,1.113s-0.285,0.627-0.517,0.869
				s-0.526,0.43-0.885,0.562C175.173,151.053,174.748,151.119,174.258,151.119z"/>
			<path d="M180.47,149.798c0.219,0,0.399-0.019,0.542-0.055s0.256-0.086,0.343-0.149c0.086-0.063,0.146-0.137,0.179-0.223
				s0.05-0.183,0.05-0.289c0-0.225-0.106-0.412-0.318-0.562s-0.576-0.31-1.093-0.481c-0.226-0.08-0.451-0.171-0.676-0.273
				c-0.226-0.104-0.428-0.232-0.606-0.388s-0.325-0.345-0.438-0.566s-0.169-0.492-0.169-0.81c0-0.318,0.06-0.605,0.18-0.86
				c0.119-0.255,0.287-0.472,0.506-0.651c0.219-0.178,0.484-0.316,0.795-0.412c0.313-0.096,0.663-0.145,1.054-0.145
				c0.464,0,0.864,0.051,1.202,0.15c0.338,0.099,0.617,0.208,0.836,0.327l-0.447,1.223c-0.193-0.1-0.406-0.188-0.642-0.264
				c-0.235-0.075-0.519-0.114-0.85-0.114c-0.371,0-0.638,0.052-0.8,0.154s-0.244,0.26-0.244,0.473c0,0.125,0.03,0.231,0.09,0.317
				s0.145,0.164,0.254,0.233c0.109,0.07,0.234,0.133,0.377,0.189c0.143,0.056,0.3,0.113,0.473,0.174
				c0.357,0.133,0.669,0.263,0.934,0.393c0.266,0.129,0.485,0.279,0.661,0.451c0.175,0.173,0.306,0.375,0.393,0.607
				c0.086,0.231,0.13,0.513,0.13,0.844c0,0.643-0.227,1.142-0.676,1.496c-0.451,0.354-1.131,0.531-2.038,0.531
				c-0.305,0-0.579-0.018-0.825-0.055c-0.244-0.036-0.462-0.08-0.65-0.134c-0.189-0.053-0.352-0.109-0.487-0.169
				s-0.25-0.115-0.343-0.169l0.438-1.232c0.205,0.112,0.459,0.214,0.76,0.304C179.663,149.753,180.033,149.798,180.47,149.798z"/>
			<path d="M186.67,151.07c-0.377,0-0.753-0.012-1.127-0.035c-0.375-0.023-0.764-0.078-1.168-0.164v-6.679
				c0.318-0.06,0.666-0.104,1.043-0.134c0.379-0.029,0.729-0.045,1.054-0.045c0.437,0,0.84,0.031,1.208,0.094
				c0.367,0.064,0.684,0.172,0.949,0.324c0.264,0.152,0.471,0.352,0.621,0.601c0.148,0.249,0.223,0.556,0.223,0.919
				c0,0.551-0.265,0.984-0.795,1.303c0.438,0.166,0.735,0.391,0.895,0.676s0.238,0.605,0.238,0.964c0,0.722-0.264,1.266-0.789,1.63
				C188.494,150.888,187.711,151.07,186.67,151.07z M185.886,146.797h0.755c0.477,0,0.818-0.062,1.023-0.184
				c0.205-0.123,0.309-0.32,0.309-0.592c0-0.278-0.106-0.474-0.318-0.586c-0.212-0.113-0.523-0.17-0.934-0.17
				c-0.133,0-0.275,0.002-0.428,0.006c-0.152,0.003-0.288,0.012-0.407,0.024V146.797z M185.886,147.979v1.779
				c0.112,0.014,0.234,0.023,0.367,0.03c0.132,0.007,0.278,0.01,0.438,0.01c0.464,0,0.838-0.066,1.123-0.198
				c0.284-0.133,0.427-0.379,0.427-0.736c0-0.318-0.119-0.545-0.357-0.681s-0.58-0.204-1.023-0.204H185.886z"/>
			<path d="M178.576,155.84c0,0.252-0.049,0.494-0.148,0.727c-0.1,0.231-0.229,0.455-0.389,0.67
				c-0.158,0.216-0.338,0.423-0.536,0.621c-0.198,0.199-0.394,0.389-0.587,0.566c-0.099,0.094-0.207,0.197-0.322,0.313
				c-0.116,0.116-0.227,0.233-0.333,0.353s-0.2,0.23-0.283,0.334c-0.083,0.102-0.134,0.187-0.154,0.253h2.962v1.242h-4.592
				c-0.014-0.073-0.02-0.165-0.02-0.278c0-0.112,0-0.191,0-0.238c0-0.318,0.051-0.609,0.154-0.875
				c0.102-0.265,0.236-0.512,0.402-0.74s0.353-0.442,0.562-0.641c0.208-0.199,0.415-0.398,0.621-0.597
				c0.159-0.152,0.308-0.296,0.446-0.433c0.14-0.135,0.262-0.268,0.369-0.396c0.105-0.13,0.188-0.26,0.248-0.389
				c0.06-0.129,0.09-0.26,0.09-0.393c0-0.291-0.084-0.496-0.249-0.615c-0.166-0.119-0.371-0.18-0.616-0.18
				c-0.18,0-0.346,0.028-0.502,0.085c-0.156,0.056-0.299,0.122-0.428,0.198s-0.24,0.152-0.332,0.229
				c-0.094,0.076-0.163,0.138-0.209,0.184l-0.736-1.033c0.292-0.271,0.632-0.495,1.02-0.67c0.387-0.176,0.803-0.264,1.247-0.264
				c0.403,0,0.752,0.046,1.044,0.139c0.291,0.093,0.531,0.224,0.721,0.393c0.188,0.169,0.327,0.375,0.417,0.616
				C178.531,155.263,178.576,155.535,178.576,155.84z"/>
			<path d="M181.438,160.134c0,0.298-0.095,0.525-0.283,0.681c-0.188,0.156-0.402,0.234-0.642,0.234
				c-0.238,0-0.451-0.078-0.641-0.234c-0.188-0.155-0.283-0.383-0.283-0.681s0.095-0.524,0.283-0.681
				c0.189-0.156,0.402-0.233,0.641-0.233c0.239,0,0.453,0.077,0.642,0.233S181.438,159.836,181.438,160.134z"/>
			<path d="M187.043,157.461c0,1.159-0.221,2.049-0.66,2.668c-0.44,0.619-1.049,0.93-1.824,0.93c-0.774,0-1.383-0.311-1.822-0.93
				c-0.441-0.619-0.662-1.509-0.662-2.668c0-0.577,0.059-1.087,0.174-1.531c0.116-0.443,0.283-0.818,0.502-1.123
				s0.48-0.537,0.785-0.695c0.305-0.159,0.646-0.238,1.023-0.238c0.775,0,1.384,0.31,1.824,0.929
				C186.822,155.422,187.043,156.308,187.043,157.461z M185.533,157.461c0-0.345-0.017-0.658-0.05-0.939s-0.086-0.525-0.159-0.73
				c-0.072-0.205-0.172-0.365-0.298-0.477c-0.126-0.113-0.282-0.17-0.468-0.17s-0.339,0.057-0.461,0.17
				c-0.123,0.111-0.223,0.271-0.299,0.477s-0.131,0.449-0.164,0.73s-0.049,0.595-0.049,0.939c0,0.344,0.016,0.658,0.049,0.943
				s0.088,0.53,0.164,0.736c0.076,0.205,0.176,0.363,0.299,0.477c0.122,0.113,0.275,0.169,0.461,0.169s0.342-0.056,0.468-0.169
				s0.226-0.271,0.298-0.477c0.073-0.206,0.126-0.451,0.159-0.736S185.533,157.805,185.533,157.461z"/>
		</g>
	</g>
	<g>
		<rect x="198.424" y="134.537" fill="#F89839" width="35.434" height="35.436"/>
		<g>
			<path d="M208.697,148.396c1.034,0,1.825,0.184,2.375,0.552c0.551,0.368,0.825,0.938,0.825,1.714c0,0.484-0.111,0.877-0.333,1.178
				c-0.223,0.302-0.541,0.539-0.959,0.711c0.139,0.172,0.285,0.369,0.438,0.592c0.152,0.222,0.303,0.453,0.452,0.695
				s0.293,0.494,0.433,0.756c0.139,0.262,0.268,0.518,0.387,0.77h-1.732c-0.127-0.225-0.254-0.453-0.385-0.686
				c-0.129-0.232-0.262-0.457-0.398-0.676s-0.271-0.426-0.404-0.621s-0.266-0.373-0.398-0.531h-0.766v2.514h-1.551v-6.788
				c0.338-0.065,0.688-0.112,1.049-0.14C208.09,148.41,208.412,148.396,208.697,148.396z M208.787,149.719
				c-0.113,0-0.213,0.003-0.303,0.01c-0.09,0.006-0.174,0.014-0.254,0.02v1.869h0.438c0.583,0,1-0.073,1.252-0.219
				c0.252-0.146,0.378-0.395,0.378-0.746c0-0.338-0.128-0.578-0.383-0.721S209.284,149.719,208.787,149.719z"/>
			<path d="M216.271,155.502c-1.12,0-1.973-0.311-2.56-0.934c-0.586-0.623-0.879-1.508-0.879-2.654c0-0.569,0.09-1.078,0.268-1.525
				c0.18-0.447,0.424-0.824,0.736-1.133c0.311-0.308,0.682-0.541,1.113-0.7c0.43-0.159,0.896-0.239,1.4-0.239
				c0.292,0,0.557,0.021,0.795,0.065c0.239,0.043,0.447,0.093,0.627,0.149c0.179,0.056,0.328,0.113,0.447,0.174
				c0.119,0.059,0.205,0.105,0.258,0.139l-0.447,1.252c-0.212-0.112-0.459-0.209-0.74-0.288s-0.602-0.119-0.959-0.119
				c-0.238,0-0.473,0.04-0.701,0.119s-0.43,0.208-0.605,0.383c-0.176,0.176-0.316,0.402-0.422,0.681
				c-0.107,0.278-0.16,0.616-0.16,1.014c0,0.318,0.035,0.615,0.105,0.89c0.068,0.274,0.182,0.512,0.338,0.71
				c0.154,0.199,0.359,0.357,0.61,0.473c0.252,0.116,0.557,0.174,0.915,0.174c0.225,0,0.427-0.014,0.605-0.039
				c0.18-0.027,0.338-0.059,0.477-0.096c0.14-0.035,0.262-0.077,0.369-0.123c0.105-0.047,0.201-0.09,0.287-0.13l0.428,1.243
				c-0.219,0.132-0.527,0.251-0.924,0.357C217.254,155.449,216.794,155.502,216.271,155.502z"/>
			<path d="M224.469,155.363c-0.076-0.239-0.159-0.485-0.247-0.737c-0.089-0.252-0.177-0.503-0.264-0.753h-2.69
				c-0.086,0.251-0.174,0.502-0.261,0.755s-0.169,0.497-0.244,0.735h-1.61c0.26-0.742,0.506-1.428,0.738-2.057
				c0.232-0.63,0.459-1.223,0.682-1.779c0.224-0.557,0.443-1.085,0.658-1.586c0.217-0.5,0.441-0.988,0.674-1.465h1.469
				c0.227,0.477,0.449,0.965,0.67,1.465c0.219,0.501,0.44,1.029,0.664,1.586c0.223,0.557,0.45,1.149,0.684,1.779
				c0.232,0.629,0.479,1.314,0.738,2.057H224.469z M222.605,150.036c-0.034,0.101-0.084,0.236-0.151,0.409
				c-0.066,0.172-0.142,0.371-0.228,0.596c-0.085,0.227-0.18,0.475-0.285,0.746s-0.212,0.555-0.32,0.854h1.969
				c-0.105-0.299-0.207-0.584-0.306-0.856s-0.192-0.521-0.282-0.747c-0.088-0.226-0.166-0.424-0.233-0.596
				S222.647,150.135,222.605,150.036z"/>
		</g>
	</g>
</g>
</svg>
