<?xml version="1.0" encoding="utf-8"?>
<!-- Generator: Adobe Illustrator 19.1.0, SVG Export Plug-In . SVG Version: 6.00 Build 0)  -->
<svg version="1.1" id="Layer_1" xmlns="http://www.w3.org/2000/svg" xmlns:xlink="http://www.w3.org/1999/xlink" x="0px" y="0px"
	 viewBox="-205 297 200.3 200" style="enable-background:new -205 297 200.3 200;" xml:space="preserve">
<style type="text/css">
	.st0{fill:none;stroke:#000000;stroke-width:2;stroke-miterlimit:10;}
</style>
<g>
	<g>
		<path d="M-134.5,461.4c1.4,0,2.4-0.2,3.2-0.7s1.1-1.3,1.1-2.4c0-0.6-0.1-1.2-0.4-1.6c-0.2-0.4-0.6-0.8-1-1.1
			c-0.4-0.3-0.9-0.5-1.4-0.7s-1.1-0.4-1.6-0.7c-0.7-0.3-1.4-0.6-1.9-0.9c-0.6-0.3-1-0.6-1.5-1c-0.4-0.4-0.7-0.8-0.9-1.3
			c-0.2-0.5-0.3-1.1-0.3-1.7c0-1.5,0.5-2.6,1.5-3.4s2.4-1.2,4.1-1.2c0.5,0,0.9,0,1.4,0.1c0.4,0.1,0.9,0.2,1.3,0.3
			c0.4,0.1,0.8,0.2,1.1,0.4c0.3,0.1,0.6,0.3,0.8,0.4l-0.6,1.4c-0.5-0.3-1.1-0.6-1.8-0.8s-1.4-0.3-2.2-0.3c-0.5,0-1.1,0.1-1.5,0.2
			c-0.5,0.1-0.9,0.3-1.2,0.5c-0.3,0.2-0.6,0.5-0.8,0.9c-0.2,0.4-0.3,0.8-0.3,1.3c0,0.5,0.1,1,0.3,1.3c0.2,0.4,0.5,0.7,0.8,1
			s0.8,0.5,1.3,0.7c0.5,0.2,1,0.4,1.6,0.7c0.7,0.3,1.3,0.6,1.9,0.8c0.6,0.3,1.1,0.6,1.6,1c0.5,0.4,0.8,0.8,1.1,1.4
			c0.3,0.5,0.4,1.2,0.4,2c0,1.6-0.5,2.7-1.6,3.5c-1.1,0.8-2.6,1.2-4.4,1.2c-0.7,0-1.3,0-1.8-0.1c-0.5-0.1-1-0.2-1.5-0.3
			c-0.4-0.1-0.8-0.3-1.1-0.4c-0.3-0.1-0.5-0.3-0.7-0.3l0.6-1.5c0.2,0.1,0.4,0.2,0.7,0.4c0.3,0.1,0.6,0.3,1,0.4
			c0.4,0.1,0.8,0.2,1.3,0.3C-135.6,461.4-135.1,461.4-134.5,461.4z"/>
		<path d="M-125.3,462.5v-17.3h10v1.5h-8.3v6h7.4v1.5h-7.4v6.9h9v1.5H-125.3z"/>
		<path d="M-99.6,462.5c-0.3-0.6-0.7-1.3-1.2-2.1c-0.5-0.8-1-1.6-1.6-2.5s-1.2-1.8-1.9-2.7s-1.3-1.9-1.9-2.8
			c-0.6-0.9-1.3-1.7-1.9-2.5s-1.2-1.5-1.6-2v14.6h-1.7v-17.3h1.3c0.9,0.9,1.8,2,2.7,3.3c1,1.2,1.9,2.5,2.9,3.8
			c0.9,1.3,1.8,2.6,2.6,3.8c0.8,1.2,1.5,2.3,2,3.2v-14.1h1.7v17.3H-99.6z"/>
		<path d="M-90,461.4c1.4,0,2.4-0.2,3.2-0.7s1.1-1.3,1.1-2.4c0-0.6-0.1-1.2-0.4-1.6c-0.2-0.4-0.6-0.8-1-1.1
			c-0.4-0.3-0.9-0.5-1.4-0.7s-1.1-0.4-1.6-0.7c-0.7-0.3-1.4-0.6-1.9-0.9c-0.6-0.3-1-0.6-1.5-1c-0.4-0.4-0.7-0.8-0.9-1.3
			c-0.2-0.5-0.3-1.1-0.3-1.7c0-1.5,0.5-2.6,1.5-3.4s2.4-1.2,4.1-1.2c0.5,0,0.9,0,1.4,0.1c0.4,0.1,0.9,0.2,1.3,0.3
			c0.4,0.1,0.8,0.2,1.1,0.4c0.3,0.1,0.6,0.3,0.8,0.4l-0.6,1.4c-0.5-0.3-1.1-0.6-1.8-0.8s-1.4-0.3-2.2-0.3c-0.5,0-1.1,0.1-1.5,0.2
			c-0.5,0.1-0.9,0.3-1.2,0.5c-0.3,0.2-0.6,0.5-0.8,0.9c-0.2,0.4-0.3,0.8-0.3,1.3c0,0.5,0.1,1,0.3,1.3c0.2,0.4,0.5,0.7,0.8,1
			s0.8,0.5,1.3,0.7c0.5,0.2,1,0.4,1.6,0.7c0.7,0.3,1.3,0.6,1.9,0.8c0.6,0.3,1.1,0.6,1.6,1c0.5,0.4,0.8,0.8,1.1,1.4
			c0.3,0.5,0.4,1.2,0.4,2c0,1.6-0.5,2.7-1.6,3.5c-1.1,0.8-2.6,1.2-4.4,1.2c-0.7,0-1.3,0-1.8-0.1c-0.5-0.1-1-0.2-1.5-0.3
			c-0.4-0.1-0.8-0.3-1.1-0.4c-0.3-0.1-0.5-0.3-0.7-0.3l0.6-1.5c0.2,0.1,0.4,0.2,0.7,0.4c0.3,0.1,0.6,0.3,1,0.4
			c0.4,0.1,0.8,0.2,1.3,0.3C-91.1,461.4-90.5,461.4-90,461.4z"/>
		<path d="M-80.8,462.5v-17.3h10v1.5h-8.3v6h7.4v1.5h-7.4v6.9h9v1.5H-80.8z"/>
	</g>
	<g>
		<path d="M-99.8,376.1c0,2.8-2.2,5-5,5s-5-2.2-5-5s2.2-5,5-5C-102.1,371.1-99.8,373.3-99.8,376.1z"/>
		<circle class="st0" cx="-104.8" cy="376.1" r="30"/>
		<circle class="st0" cx="-104.8" cy="376.1" r="15"/>
		<circle class="st0" cx="-104.8" cy="376.1" r="45"/>
	</g>
</g>
</svg>
