<?xml version="1.0" encoding="utf-8"?>
<!-- Generator: Adobe Illustrator 19.1.0, SVG Export Plug-In . SVG Version: 6.00 Build 0)  -->
<svg version="1.1" id="Layer_1" xmlns="http://www.w3.org/2000/svg" xmlns:xlink="http://www.w3.org/1999/xlink" x="0px" y="0px"
	 viewBox="-199 201 200.3 200" style="enable-background:new -199 201 200.3 200;" xml:space="preserve">
<style type="text/css">
	.st0{fill:#FFFFFF;stroke:#000000;stroke-width:2;}
</style>
<g>
	<path class="st0" d="M-157.5,269c32.4-32.4,84.9-32.4,117.4,0"/>
	<path class="st0" d="M-142.2,284.3c23.9-23.9,62.7-23.9,86.7,0"/>
	<path class="st0" d="M-124.2,300.9c14-14,36.7-14,50.7,0"/>
</g>
<path d="M-93.8,317.4c0,2.8-2.2,5-5,5c-2.8,0-5-2.2-5-5c0-2.8,2.2-5,5-5C-96.1,312.4-93.8,314.6-93.8,317.4z"/>
<g>
	<path d="M-115.2,371c-0.3-0.6-0.7-1.3-1.2-2.1c-0.5-0.8-1-1.6-1.6-2.5c-0.6-0.9-1.2-1.8-1.9-2.7c-0.6-0.9-1.3-1.9-1.9-2.8
		c-0.6-0.9-1.3-1.7-1.9-2.5c-0.6-0.8-1.2-1.5-1.6-2V371h-1.7v-17.3h1.4c0.9,0.9,1.8,2,2.7,3.3c1,1.2,1.9,2.5,2.9,3.8
		s1.8,2.6,2.6,3.8c0.8,1.2,1.5,2.3,2,3.2v-14.1h1.7V371H-115.2z"/>
	<path d="M-108.9,357.2c1-0.3,1.9-0.8,2.7-1.3s1.6-1.3,2.3-2.2h1.2V371h-1.6v-14.8c-0.2,0.2-0.4,0.4-0.7,0.6s-0.6,0.4-1,0.6
		c-0.4,0.2-0.8,0.4-1.2,0.6c-0.4,0.2-0.8,0.3-1.2,0.5L-108.9,357.2z"/>
	<path d="M-91.4,369.9c0.8,0,1.5-0.1,2.1-0.3c0.6-0.2,1-0.5,1.3-0.8c0.3-0.3,0.6-0.7,0.7-1.2s0.2-0.9,0.2-1.4c0-0.7-0.1-1.3-0.3-1.8
		c-0.2-0.5-0.6-1-1.1-1.4c-0.6-0.4-1.3-0.6-2.2-0.8c-0.9-0.2-2.1-0.3-3.5-0.3c0.1-0.8,0.2-1.6,0.3-2.3c0.1-0.7,0.1-1.4,0.2-2.1
		c0-0.7,0.1-1.3,0.1-1.9c0-0.6,0-1.3,0.1-1.9h7.8v1.4h-6.4c0,0.3,0,0.7-0.1,1.2c0,0.5-0.1,1-0.1,1.5c0,0.5-0.1,1-0.1,1.5
		c0,0.5-0.1,0.9-0.1,1.2c1.3,0,2.4,0.2,3.3,0.5c0.9,0.3,1.7,0.7,2.3,1.2c0.6,0.5,1,1.1,1.3,1.8c0.3,0.7,0.4,1.4,0.4,2.3
		c0,0.7-0.1,1.4-0.4,2c-0.2,0.6-0.6,1.2-1.1,1.7s-1.1,0.8-1.9,1.1c-0.8,0.3-1.7,0.4-2.7,0.4c-0.5,0-1,0-1.5-0.1s-0.9-0.2-1.2-0.3
		c-0.4-0.1-0.7-0.2-0.9-0.3c-0.3-0.1-0.4-0.2-0.6-0.3l0.4-1.5c0.1,0.1,0.3,0.2,0.5,0.3s0.5,0.2,0.9,0.3c0.3,0.1,0.7,0.2,1.1,0.2
		C-92.3,369.8-91.9,369.9-91.4,369.9z"/>
	<path d="M-81.8,362.3c0-2.9,0.5-5.2,1.4-6.7s2.3-2.3,4.1-2.3c1.8,0,3.1,0.8,4.1,2.3s1.5,3.8,1.5,6.7c0,2.9-0.5,5.2-1.5,6.7
		s-2.3,2.3-4.1,2.3s-3.1-0.8-4.1-2.3S-81.8,365.3-81.8,362.3z M-72.5,362.3c0-1-0.1-2-0.2-2.9c-0.1-0.9-0.3-1.7-0.6-2.4
		c-0.3-0.7-0.7-1.3-1.2-1.7c-0.5-0.4-1.1-0.6-1.8-0.6c-0.7,0-1.3,0.2-1.8,0.6c-0.5,0.4-0.9,1-1.2,1.7c-0.3,0.7-0.5,1.5-0.6,2.4
		c-0.1,0.9-0.2,1.9-0.2,2.9s0.1,2,0.2,2.9s0.3,1.7,0.6,2.4c0.3,0.7,0.7,1.2,1.2,1.7c0.5,0.4,1.1,0.6,1.8,0.6c0.7,0,1.3-0.2,1.8-0.6
		c0.5-0.4,0.9-1,1.2-1.7c0.3-0.7,0.5-1.5,0.6-2.4S-72.5,363.3-72.5,362.3z"/>
</g>
</svg>
