<?xml version="1.0" encoding="utf-8"?>
<!-- Generator: Adobe Illustrator 19.1.0, SVG Export Plug-In . SVG Version: 6.00 Build 0)  -->
<svg version="1.1" id="Layer_1" xmlns="http://www.w3.org/2000/svg" xmlns:xlink="http://www.w3.org/1999/xlink" x="0px" y="0px"
	 viewBox="-199 201 200.3 200" style="enable-background:new -199 201 200.3 200;" xml:space="preserve">
<style type="text/css">
	.st0{fill:none;stroke:#000000;stroke-width:2;stroke-miterlimit:10;}
</style>
<g>
	<rect x="-148.4" y="251.3" class="st0" width="100.2" height="100.2"/>
	<g>
		<line class="st0" x1="-49" y1="278.6" x2="-22.7" y2="278.6"/>
		<line class="st0" x1="-49" y1="302" x2="-22.7" y2="302"/>
		<line class="st0" x1="-49" y1="325.4" x2="-22.7" y2="325.4"/>
	</g>
	<g>
		<line class="st0" x1="-175" y1="278.6" x2="-148.7" y2="278.6"/>
		<line class="st0" x1="-175" y1="302" x2="-148.7" y2="302"/>
		<line class="st0" x1="-175" y1="325.4" x2="-148.7" y2="325.4"/>
	</g>
	<g>
		<line class="st0" x1="-74.9" y1="350.4" x2="-74.9" y2="376.7"/>
		<line class="st0" x1="-98.3" y1="350.4" x2="-98.3" y2="376.7"/>
		<line class="st0" x1="-121.8" y1="350.4" x2="-121.8" y2="376.7"/>
	</g>
	<g>
		<line class="st0" x1="-74.9" y1="225.3" x2="-74.9" y2="251.6"/>
		<line class="st0" x1="-98.3" y1="225.3" x2="-98.3" y2="251.6"/>
		<line class="st0" x1="-121.8" y1="225.3" x2="-121.8" y2="251.6"/>
	</g>
</g>
<g>
	<path d="M-116,294.9c0.1-1.4,0.4-2.8,0.8-4.4c0.4-1.5,0.9-3,1.5-4.5c0.6-1.4,1.2-2.8,1.9-4c0.7-1.2,1.4-2.2,2-2.9h-8.9v-1.5h10.5
		v1.5c-0.6,0.7-1.2,1.6-1.9,2.7s-1.3,2.4-1.9,3.9c-0.6,1.4-1.1,2.9-1.6,4.5s-0.7,3.2-0.8,4.8H-116z"/>
	<path d="M-104.8,286.2c0-2.9,0.5-5.2,1.5-6.7s2.3-2.3,4.1-2.3c1.8,0,3.1,0.8,4.1,2.3c1,1.5,1.5,3.8,1.5,6.7c0,2.9-0.5,5.2-1.5,6.7
		c-1,1.5-2.3,2.3-4.1,2.3s-3.1-0.8-4.1-2.3S-104.8,289.1-104.8,286.2z M-95.5,286.2c0-1-0.1-2-0.2-2.9c-0.1-0.9-0.3-1.7-0.6-2.4
		c-0.3-0.7-0.7-1.3-1.2-1.7c-0.5-0.4-1.1-0.6-1.8-0.6c-0.7,0-1.3,0.2-1.8,0.6c-0.5,0.4-0.9,1-1.2,1.7c-0.3,0.7-0.5,1.5-0.6,2.4
		c-0.1,0.9-0.2,1.9-0.2,2.9s0.1,2,0.2,2.9s0.3,1.7,0.6,2.4c0.3,0.7,0.7,1.2,1.2,1.7c0.5,0.4,1.1,0.6,1.8,0.6c0.7,0,1.3-0.2,1.8-0.6
		c0.5-0.4,0.9-1,1.2-1.7c0.3-0.7,0.5-1.5,0.6-2.4S-95.5,287.2-95.5,286.2z"/>
	<path d="M-90.7,286.2c0-2.9,0.5-5.2,1.5-6.7s2.3-2.3,4.1-2.3c1.8,0,3.1,0.8,4.1,2.3c1,1.5,1.5,3.8,1.5,6.7c0,2.9-0.5,5.2-1.5,6.7
		c-1,1.5-2.3,2.3-4.1,2.3s-3.1-0.8-4.1-2.3S-90.7,289.1-90.7,286.2z M-81.4,286.2c0-1-0.1-2-0.2-2.9c-0.1-0.9-0.3-1.7-0.6-2.4
		c-0.3-0.7-0.7-1.3-1.2-1.7c-0.5-0.4-1.1-0.6-1.8-0.6c-0.7,0-1.3,0.2-1.8,0.6c-0.5,0.4-0.9,1-1.2,1.7c-0.3,0.7-0.5,1.5-0.6,2.4
		c-0.1,0.9-0.2,1.9-0.2,2.9s0.1,2,0.2,2.9s0.3,1.7,0.6,2.4c0.3,0.7,0.7,1.2,1.2,1.7c0.5,0.4,1.1,0.6,1.8,0.6c0.7,0,1.3-0.2,1.8-0.6
		c0.5-0.4,0.9-1,1.2-1.7c0.3-0.7,0.5-1.5,0.6-2.4S-81.4,287.2-81.4,286.2z"/>
	<path d="M-114.4,322.4c-0.2-0.4-0.4-1-0.7-1.7c-0.3-0.7-0.7-1.4-1-2.2c-0.4-0.8-0.8-1.6-1.2-2.5c-0.4-0.9-0.8-1.7-1.2-2.4
		s-0.7-1.4-1-2c-0.3-0.6-0.5-1-0.6-1.2c-0.2,2.1-0.4,4.3-0.5,6.8s-0.2,5-0.3,7.7h-1.7c0.1-3.2,0.3-6.2,0.5-9
		c0.2-2.9,0.4-5.6,0.7-8.3h1.5c0.5,0.8,1,1.8,1.6,2.9c0.6,1.1,1.1,2.2,1.7,3.4c0.6,1.2,1.1,2.3,1.6,3.5c0.5,1.1,1,2.2,1.4,3.1
		c0.4-0.9,0.9-1.9,1.4-3.1c0.5-1.1,1.1-2.3,1.6-3.5c0.6-1.2,1.1-2.3,1.7-3.4c0.6-1.1,1.1-2.1,1.6-2.9h1.4c0.3,2.6,0.5,5.4,0.7,8.3
		s0.4,5.9,0.5,9h-1.7c-0.1-2.7-0.2-5.2-0.3-7.7s-0.3-4.7-0.5-6.8c-0.1,0.2-0.3,0.6-0.6,1.2c-0.3,0.6-0.6,1.2-1,2
		c-0.4,0.8-0.8,1.6-1.2,2.4s-0.8,1.7-1.2,2.5c-0.4,0.8-0.7,1.6-1,2.2c-0.3,0.7-0.5,1.2-0.7,1.7H-114.4z"/>
	<path d="M-89.4,307.5h1.7v17.3h-1.7v-8.3h-9.4v8.3h-1.7v-17.3h1.7v7.5h9.4V307.5z"/>
	<path d="M-75.3,313.3c-0.4,0.4-0.9,1-1.5,1.8c-0.6,0.8-1.3,1.6-2,2.6c-0.7,0.9-1.4,1.9-2.1,3c-0.7,1-1.3,2-1.8,2.9h7.6v1.4h-9.5
		v-1.2c0.4-0.8,1-1.7,1.6-2.7c0.6-1,1.3-2,2-2.9c0.7-1,1.4-1.9,2-2.7c0.7-0.8,1.2-1.5,1.6-2.1h-6.9v-1.4h8.8V313.3z"/>
</g>
</svg>
