<?xml version="1.0" encoding="utf-8"?>
<!-- Generator: Adobe Illustrator 19.1.0, SVG Export Plug-In . SVG Version: 6.00 Build 0)  -->
<svg version="1.1" id="Layer_1" xmlns="http://www.w3.org/2000/svg" xmlns:xlink="http://www.w3.org/1999/xlink" x="0px" y="0px"
	 viewBox="-199 201 200 200" style="enable-background:new -199 201 200 200;" xml:space="preserve">
<style type="text/css">
	.st0{fill:none;stroke:#000000;stroke-width:2;stroke-miterlimit:10;}
</style>
<g>
	<path class="st0" d="M-45,357.8c0,5-4.6,9.1-10.4,9.1h-87.3c-5.7,0-10.4-4.1-10.4-9.1v-76.7c0-5,4.6-9.1,10.4-9.1h87.3
		c5.7,0,10.4,4.1,10.4,9.1V357.8z"/>
	<g>
		<line class="st0" x1="-100.9" y1="271.2" x2="-137.1" y2="235.1"/>
		<line class="st0" x1="-60.9" y1="235.1" x2="-97.1" y2="271.2"/>
	</g>
</g>
<g>
	<path d="M-109.7,316c0,1.3-0.3,2.3-1,3.1c-0.7,0.8-1.6,1.3-2.7,1.6c0.3,0.3,0.6,0.8,1,1.3c0.4,0.6,0.9,1.2,1.3,1.9
		c0.5,0.7,0.9,1.4,1.3,2.1c0.4,0.7,0.8,1.4,1.1,2.1h-1.8c-0.4-0.7-0.7-1.3-1.1-2c-0.4-0.7-0.8-1.3-1.3-1.9c-0.4-0.6-0.8-1.2-1.2-1.7
		s-0.8-1-1-1.4c-0.5,0.1-1.1,0.1-1.6,0.1h-2.8v7h-1.7v-17c0.6-0.2,1.3-0.3,2.1-0.4c0.8-0.1,1.6-0.1,2.2-0.1c2.4,0,4.2,0.5,5.4,1.4
		S-109.7,314.3-109.7,316z M-116.7,312.1c-0.6,0-1.2,0-1.7,0.1c-0.5,0-0.9,0.1-1.2,0.1v7.4h2.3c0.8,0,1.5,0,2.2-0.1
		c0.7-0.1,1.3-0.2,1.8-0.5c0.5-0.3,0.9-0.6,1.2-1.1c0.3-0.5,0.4-1.1,0.4-2c0-0.8-0.1-1.4-0.4-1.9c-0.3-0.5-0.7-0.9-1.2-1.2
		s-1-0.5-1.7-0.6C-115.4,312.2-116,312.1-116.7,312.1z"/>
	<path d="M-98.8,328.5c-1.1,0-2.2-0.2-3.1-0.6c-1-0.4-1.8-1-2.5-1.8c-0.7-0.8-1.3-1.7-1.7-2.8c-0.4-1.1-0.6-2.4-0.6-3.9
		c0-1.5,0.2-2.7,0.7-3.9c0.4-1.1,1-2.1,1.8-2.8c0.7-0.8,1.6-1.3,2.5-1.7c1-0.4,2-0.6,3-0.6c0.7,0,1.2,0,1.8,0.1
		c0.5,0.1,1,0.2,1.4,0.3s0.7,0.3,1,0.4c0.3,0.1,0.5,0.2,0.6,0.3l-0.5,1.5c-0.4-0.3-0.9-0.5-1.6-0.7s-1.4-0.4-2.4-0.4
		c-1.1,0-2,0.2-2.8,0.5c-0.8,0.4-1.5,0.9-2,1.5c-0.5,0.7-1,1.5-1.2,2.4c-0.3,0.9-0.4,1.9-0.4,3.1c0,1.1,0.1,2.2,0.4,3.1
		c0.3,0.9,0.7,1.7,1.2,2.4c0.5,0.7,1.2,1.2,2,1.5s1.7,0.5,2.7,0.5c1.1,0,2-0.1,2.8-0.3c0.7-0.2,1.3-0.4,1.7-0.6l0.5,1.5
		c-0.1,0.1-0.3,0.2-0.6,0.3s-0.6,0.2-1.1,0.3c-0.4,0.1-0.9,0.2-1.5,0.3C-97.4,328.5-98.1,328.5-98.8,328.5z"/>
	<path d="M-78.5,328.1c-0.3-0.9-0.6-1.7-0.9-2.5c-0.3-0.8-0.5-1.6-0.8-2.3h-8.5c-0.3,0.7-0.6,1.5-0.8,2.3c-0.3,0.8-0.6,1.6-0.9,2.4
		h-1.8c0.7-1.8,1.3-3.5,1.9-5c0.6-1.6,1.2-3,1.7-4.4s1.1-2.7,1.7-4s1.1-2.6,1.7-3.9h1.5c0.6,1.3,1.2,2.6,1.7,3.8
		c0.5,1.3,1.1,2.6,1.7,4c0.6,1.4,1.1,2.9,1.7,4.4c0.6,1.6,1.2,3.2,1.9,5H-78.5z M-84.5,312.8c-0.6,1.4-1.2,2.9-1.8,4.4
		s-1.2,3.1-1.8,4.8h7.4c-0.6-1.7-1.3-3.3-1.9-4.8C-83.2,315.7-83.9,314.2-84.5,312.8z"/>
</g>
</svg>
