<?xml version="1.0" encoding="utf-8"?>
<!-- Generator: Adobe Illustrator 19.1.0, SVG Export Plug-In . SVG Version: 6.00 Build 0)  -->
<svg version="1.1" id="Layer_1" xmlns="http://www.w3.org/2000/svg" xmlns:xlink="http://www.w3.org/1999/xlink" x="0px" y="0px"
	 viewBox="-199 201 200.3 200" style="enable-background:new -199 201 200.3 200;" xml:space="preserve">
<style type="text/css">
	.st0{fill:none;stroke:#000000;stroke-width:2;stroke-miterlimit:10;}
</style>
<g>
	<rect x="-163" y="257.6" class="st0" width="128.4" height="79.3"/>
	<line class="st0" x1="-98.8" y1="336.9" x2="-98.8" y2="344.3"/>
	<line class="st0" x1="-34.7" y1="344.4" x2="-163" y2="344.4"/>
</g>
<g>
	<path d="M-124.3,290.6v7h8.1v-7h2.2v16.8h-2.2v-7.9h-8.1v7.9h-2.2v-16.8H-124.3z"/>
	<path d="M-110.2,290.8c1.3-0.2,2.9-0.3,4.6-0.3c3.1,0,5.3,0.7,6.8,2.1c1.5,1.4,2.4,3.3,2.4,6c0,2.7-0.8,5-2.4,6.5
		c-1.6,1.6-4.2,2.4-7.4,2.4c-1.5,0-2.8-0.1-3.9-0.2V290.8z M-108,305.7c0.5,0.1,1.3,0.1,2.2,0.1c4.6,0,7.2-2.6,7.2-7.1
		c0-4-2.2-6.5-6.8-6.5c-1.1,0-2,0.1-2.5,0.2V305.7z"/>
	<path d="M-79.3,300c-0.1-2.3-0.3-5.2-0.3-7.3h-0.1c-0.6,2-1.3,4.1-2.1,6.4l-3,8.2h-1.7l-2.7-8c-0.8-2.4-1.5-4.5-2-6.5h0
		c0,2.1-0.2,4.9-0.3,7.4l-0.4,7.2H-94l1.2-16.8h2.8l2.9,8.1c0.7,2.1,1.3,3.9,1.7,5.7h0.1c0.4-1.7,1-3.5,1.8-5.7l3-8.1h2.8l1,16.8
		h-2.1L-79.3,300z"/>
	<path d="M-71.2,290.6v16.8h-2.2v-16.8H-71.2z"/>
</g>
</svg>
