<?xml version="1.0" encoding="utf-8"?>
<!-- Generator: Adobe Illustrator 19.1.0, SVG Export Plug-In . SVG Version: 6.00 Build 0)  -->
<svg version="1.1" id="Layer_1" xmlns="http://www.w3.org/2000/svg" xmlns:xlink="http://www.w3.org/1999/xlink" x="0px" y="0px"
	 viewBox="-199 201 200.3 200" style="enable-background:new -199 201 200.3 200;" xml:space="preserve">
<style type="text/css">
	.st0{fill:none;stroke:#000000;stroke-width:2;stroke-miterlimit:10;}
	.st1{fill:none;stroke:#000000;stroke-width:2;stroke-linecap:round;stroke-miterlimit:10;}
</style>
<g>
	<path class="st0" d="M-52.8,248.4v92.3c0,7.2-5.9,13-13.2,13h-65.7c-7.3,0-13.2-5.8-13.2-13v-79.3c13.2-13,0,0,13.2-13"/>
	<line class="st1" x1="-52.8" y1="248.4" x2="-131.7" y2="248.4"/>
</g>
<g>
	<path d="M-98.9,295.1c-0.8,0-1.6-0.1-2.2-0.3c-0.7-0.2-1.2-0.6-1.7-1c-0.5-0.4-0.8-0.9-1.1-1.5c-0.3-0.6-0.4-1.2-0.4-1.9
		c0-0.6,0.1-1.1,0.2-1.6c0.2-0.5,0.4-0.9,0.7-1.3c0.3-0.4,0.6-0.7,0.9-1s0.7-0.5,1.1-0.8c-1-0.5-1.7-1.1-2.1-1.8
		c-0.4-0.7-0.6-1.4-0.6-2.2c0-0.7,0.1-1.4,0.4-1.9s0.6-1.1,1-1.5c0.4-0.4,1-0.7,1.6-0.9c0.6-0.2,1.3-0.3,2-0.3
		c0.9,0,1.6,0.1,2.3,0.4c0.6,0.3,1.2,0.6,1.6,1c0.4,0.4,0.7,0.9,0.9,1.4c0.2,0.5,0.3,1.1,0.3,1.7c0,0.6-0.1,1.1-0.3,1.5
		c-0.2,0.5-0.4,0.9-0.7,1.3s-0.6,0.7-0.9,1s-0.7,0.5-1,0.7c1.2,0.5,2,1.1,2.5,1.9c0.5,0.8,0.7,1.5,0.7,2.4c0,0.7-0.1,1.4-0.4,2
		c-0.3,0.6-0.6,1.1-1.1,1.5c-0.5,0.4-1,0.8-1.7,1C-97.4,294.9-98.1,295.1-98.9,295.1z M-95.3,290.3c0-0.7-0.1-1.3-0.4-1.8
		c-0.3-0.4-0.6-0.8-1.1-1.1s-0.9-0.5-1.5-0.7c-0.6-0.2-1.1-0.3-1.7-0.5c-0.9,0.4-1.5,0.9-2,1.6c-0.5,0.7-0.7,1.5-0.7,2.4
		c0,0.5,0.1,0.9,0.2,1.3s0.4,0.7,0.7,1c0.3,0.3,0.7,0.5,1.1,0.7c0.5,0.2,1,0.3,1.6,0.3s1.2-0.1,1.6-0.3c0.5-0.2,0.8-0.4,1.1-0.7
		c0.3-0.3,0.5-0.6,0.7-1C-95.3,291.2-95.3,290.8-95.3,290.3z M-102.3,281.5c0,0.5,0.1,0.9,0.2,1.3c0.1,0.4,0.3,0.7,0.6,1
		s0.7,0.6,1.2,0.9s1.2,0.5,2.1,0.7c0.8-0.4,1.4-1,1.8-1.6s0.7-1.4,0.7-2.4c0-0.4-0.1-0.8-0.2-1.1s-0.3-0.7-0.6-1s-0.6-0.5-1-0.7
		c-0.4-0.2-0.9-0.3-1.5-0.3c-0.5,0-1,0.1-1.4,0.3c-0.4,0.2-0.8,0.4-1,0.7c-0.3,0.3-0.5,0.6-0.6,1
		C-102.2,280.7-102.3,281.1-102.3,281.5z"/>
	<path d="M-102,316.5h1.7v7.7c-0.3,0.1-0.9,0.3-1.9,0.5c-0.9,0.2-2.1,0.3-3.4,0.3c-1.1,0-2.2-0.2-3.1-0.6c-1-0.4-1.8-1-2.5-1.7
		c-0.7-0.8-1.3-1.7-1.7-2.8s-0.6-2.4-0.6-3.9c0-1.5,0.2-2.7,0.7-3.9c0.4-1.1,1-2.1,1.8-2.8s1.6-1.3,2.6-1.7s2-0.6,3.2-0.6
		c1.3,0,2.3,0.1,3.2,0.4c0.8,0.3,1.4,0.5,1.8,0.8l-0.6,1.5c-0.5-0.3-1.1-0.6-1.9-0.8c-0.8-0.2-1.7-0.3-2.6-0.3
		c-0.9,0-1.7,0.2-2.5,0.5c-0.8,0.3-1.4,0.8-2,1.4s-1,1.4-1.3,2.4c-0.3,0.9-0.5,2-0.5,3.3c0,1.1,0.1,2.2,0.4,3.1s0.7,1.7,1.2,2.4
		c0.5,0.7,1.2,1.2,2,1.5c0.8,0.3,1.7,0.5,2.8,0.5c0.9,0,1.6,0,2.1-0.1c0.6-0.1,1-0.2,1.2-0.3V316.5z"/>
	<path d="M-92.2,324.8c-0.3,0-0.6,0-1,0c-0.4,0-0.8-0.1-1.1-0.1c-0.4,0-0.8-0.1-1.1-0.2c-0.4-0.1-0.6-0.1-0.9-0.2v-16.7
		c0.3-0.1,0.6-0.2,1-0.2c0.4-0.1,0.7-0.1,1.1-0.1c0.4,0,0.8-0.1,1.1-0.1c0.4,0,0.7,0,1,0c0.9,0,1.8,0.1,2.7,0.2
		c0.8,0.1,1.6,0.4,2.2,0.7c0.6,0.3,1.1,0.8,1.5,1.4s0.6,1.3,0.6,2.1c0,0.9-0.2,1.7-0.7,2.4c-0.5,0.7-1.1,1.1-1.9,1.4
		c0.5,0.1,1,0.3,1.4,0.5c0.4,0.2,0.8,0.5,1.1,0.8c0.3,0.3,0.6,0.8,0.7,1.3c0.2,0.5,0.3,1.1,0.3,1.8c0,1.6-0.6,2.9-2,3.7
		C-87.5,324.4-89.5,324.8-92.2,324.8z M-94.6,314.9h3.3c0.6,0,1.2,0,1.8-0.1s1-0.3,1.4-0.5c0.4-0.2,0.7-0.6,1-1s0.4-0.9,0.4-1.6
		c0-0.6-0.1-1-0.4-1.4c-0.3-0.4-0.6-0.7-1.1-1c-0.5-0.2-1-0.4-1.6-0.5s-1.3-0.2-2.1-0.2c-0.6,0-1.1,0-1.6,0c-0.4,0-0.8,0.1-1.1,0.1
		V314.9z M-94.6,316.3v6.9c0.3,0,0.6,0.1,1.1,0.1s1,0.1,1.5,0.1c0.8,0,1.5-0.1,2.2-0.2c0.7-0.1,1.4-0.3,1.9-0.6s1-0.6,1.3-1.1
		c0.3-0.5,0.5-1.1,0.5-1.8c0-0.7-0.1-1.2-0.4-1.7c-0.2-0.4-0.6-0.8-1-1.1c-0.4-0.3-1-0.4-1.6-0.5c-0.6-0.1-1.3-0.2-2.1-0.2H-94.6z"
		/>
</g>
</svg>
