<?xml version="1.0" encoding="utf-8"?>
<!-- Generator: Adobe Illustrator 19.1.0, SVG Export Plug-In . SVG Version: 6.00 Build 0)  -->
<svg version="1.1" id="Layer_1" xmlns="http://www.w3.org/2000/svg" xmlns:xlink="http://www.w3.org/1999/xlink" x="0px" y="0px"
	 viewBox="-199 201 200 200" style="enable-background:new -199 201 200 200;" xml:space="preserve">
<style type="text/css">
	.st0{fill:#010101;}
</style>
<g>
	<g>
		<path id="path1334" class="st0" d="M-100.7,241.2l-5.3,9.2h3.8v47.1l-9.7-9.2c-0.6-0.8-1.1-1.8-1.1-2.9c0-4.2,0-6.8,0-7.7
			c1.8-0.6,3.1-2.3,3.1-4.3c0-2.5-2.1-4.6-4.6-4.6c-2.5,0-4.6,2.1-4.6,4.6c0,2,1.3,3.7,3.1,4.3v7.6c0,2.1,1.1,4.2,2.5,5.6
			c0,0-0.1-0.1,0,0c0,0,10.3,9.7,10.3,9.7c0.6,0.8,1.1,1.8,1.1,2.8v5.3c-3.5,0.7-6.2,3.8-6.2,7.5c0,4.3,3.4,7.7,7.7,7.7
			c4.3,0,7.7-3.4,7.7-7.7c0-3.7-2.7-6.8-6.2-7.5v-5.2c0,0,0,0,0,0v-11.6c0-1,0.5-2.1,1.1-2.8c0,0,10.2-9.7,10.3-9.7c0.1-0.1,0,0,0,0
			c1.3-1.4,2.5-3.5,2.5-5.6l0-7.3h3.1v-9.2h-9.2v9.2h3.1c0,0,0,1.9,0,7.4c0,1.1-0.5,2.1-1.1,2.9l-9.7,9.2v-35.6h3.8L-100.7,241.2z"
			/>
	</g>
	<g>
		<path d="M-104.9,347.4c0,0.6-0.1,1.3-0.4,1.8s-0.5,1.1-0.9,1.7c-0.4,0.5-0.8,1.1-1.3,1.6s-1,1-1.5,1.5c-0.4,0.4-0.9,0.8-1.3,1.3
			c-0.4,0.4-0.8,0.9-1.1,1.3s-0.6,0.8-0.8,1.3s-0.3,0.8-0.3,1.2v0h8.2v1.4h-10c0,0,0-0.1,0-0.2c0-0.1,0-0.2,0-0.4
			c0-0.8,0.1-1.5,0.4-2.2c0.3-0.7,0.6-1.3,1.1-1.9c0.4-0.6,0.9-1.2,1.5-1.7s1.1-1,1.6-1.5c0.4-0.4,0.8-0.8,1.2-1.2s0.7-0.8,1-1.2
			c0.3-0.4,0.5-0.8,0.7-1.3c0.2-0.5,0.3-0.9,0.3-1.5c0-1.2-0.3-2-0.9-2.5c-0.6-0.5-1.4-0.8-2.4-0.8c-0.5,0-1,0.1-1.4,0.2
			s-0.8,0.3-1.1,0.5c-0.3,0.2-0.6,0.4-0.8,0.5c-0.2,0.2-0.4,0.3-0.5,0.4l-0.9-1.1c0.1-0.1,0.3-0.3,0.5-0.5c0.3-0.2,0.6-0.4,1-0.7
			c0.4-0.2,0.8-0.4,1.4-0.6c0.5-0.2,1.1-0.2,1.7-0.2c1.7,0,3,0.4,3.8,1.2C-105.3,344.7-104.9,345.9-104.9,347.4z"/>
		<path d="M-97.7,359.3c0,0.4-0.1,0.7-0.4,1c-0.2,0.3-0.6,0.4-1,0.4c-0.4,0-0.8-0.1-1-0.4c-0.2-0.3-0.4-0.6-0.4-1
			c0-0.4,0.1-0.7,0.4-1c0.2-0.3,0.6-0.4,1-0.4c0.4,0,0.8,0.1,1,0.4C-97.9,358.6-97.7,358.9-97.7,359.3z"/>
		<path d="M-94.6,351.7c0-2.9,0.5-5.2,1.5-6.7s2.3-2.3,4.1-2.3c1.8,0,3.1,0.8,4.1,2.3c1,1.5,1.5,3.8,1.5,6.7c0,2.9-0.5,5.2-1.5,6.7
			c-1,1.5-2.3,2.3-4.1,2.3s-3.1-0.8-4.1-2.3S-94.6,354.6-94.6,351.7z M-85.2,351.7c0-1-0.1-2-0.2-2.9c-0.1-0.9-0.3-1.7-0.6-2.4
			c-0.3-0.7-0.7-1.3-1.2-1.7c-0.5-0.4-1.1-0.6-1.8-0.6c-0.7,0-1.3,0.2-1.8,0.6c-0.5,0.4-0.9,1-1.2,1.7c-0.3,0.7-0.5,1.5-0.6,2.4
			c-0.1,0.9-0.2,1.9-0.2,2.9s0.1,2,0.2,2.9s0.3,1.7,0.6,2.4c0.3,0.7,0.7,1.2,1.2,1.7c0.5,0.4,1.1,0.6,1.8,0.6c0.7,0,1.3-0.2,1.8-0.6
			c0.5-0.4,0.9-1,1.2-1.7c0.3-0.7,0.5-1.5,0.6-2.4S-85.2,352.7-85.2,351.7z"/>
	</g>
</g>
</svg>
