<?xml version="1.0" encoding="utf-8"?>
<!-- Generator: Adobe Illustrator 16.0.0, SVG Export Plug-In . SVG Version: 6.00 Build 0)  -->
<!DOCTYPE svg PUBLIC "-//W3C//DTD SVG 1.1//EN" "http://www.w3.org/Graphics/SVG/1.1/DTD/svg11.dtd">
<svg version="1.1" id="Layer_1" xmlns="http://www.w3.org/2000/svg" xmlns:xlink="http://www.w3.org/1999/xlink" x="0px" y="0px"
	 width="400px" height="400px" viewBox="0 0 400 400" enable-background="new 0 0 400 400" xml:space="preserve">
<g>
	<polygon fill="#3399CC" points="366.678,300.013 199.998,400 33.322,300.013 33.322,100.004 199.998,0 366.678,100.004 	"/>
	<g>
		<g>
			<path fill-rule="evenodd" clip-rule="evenodd" fill="#3399CC" d="M210.19,99.137c2.254,0.861,4.643,0.735,6.974,1.097
				c43.318,6.649,77.852,39.471,85.661,82.577c6.225,34.367-2.653,64.892-26.747,90.283c-21.682,22.837-48.819,33.219-80.214,31.697
				c-47.413-2.32-87.183-37.835-95.451-84.783c-0.447-2.572-0.746-5.167-1.125-7.746c-0.058-0.367,0.114-0.838-0.425-0.987
				c0-5.765,0-11.524,0-17.289c0.481-0.229,0.321-0.678,0.355-1.051c1.194-14.034,4.984-27.361,11.852-39.649
				c16.055-28.705,40.247-46.379,72.649-52.569c3.434-0.66,6.925-1.062,10.393-1.579C199.476,99.137,204.828,99.137,210.19,99.137z
				 M271.979,189.392c-2.905-2.951-5.776-5.938-8.717-8.872c-2.124-2.13-4.892-2.251-6.798-0.39c-1.85,1.814-1.826,4.737,0.229,6.81
				c5.926,6.001,11.909,11.949,17.893,17.91c1.492,1.486,3.272,2.107,5.294,1.217c2.021-0.884,2.744-2.492,2.744-4.656
				c0-13.902-3.444-26.891-10.232-38.926c-16.342-28.986-47.9-45.007-81.029-40.718c-18.886,2.446-35.026,10.641-48.228,24.421
				c-9.44,9.848-15.94,21.383-19.512,34.544c-0.925,3.405,1.263,6.236,4.604,6.075c2.32-0.115,3.537-1.338,4.434-4.421
				c9.842-34.171,42.778-55.939,78.026-51.576c29.606,3.664,54.056,25.547,60.9,54.55c0.299,1.315,0.977,2.647,0.391,4.054V189.392z
				 M131.271,214.438c3.227,3.262,6.069,6.155,8.957,9.01c2.113,2.078,4.927,2.112,6.793,0.189c1.832-1.896,1.752-4.577-0.281-6.604
				c-5.938-5.995-11.915-11.955-17.893-17.904c-1.647-1.647-3.416-1.998-5.294-1.137c-1.918,0.884-2.704,2.412-2.688,4.502
				c0.046,4.634,0.477,9.21,1.252,13.77c6.729,39.179,42.021,67.917,81.722,66.631c20.525-0.666,38.314-7.906,53.313-21.854
				c11.082-10.313,18.65-22.83,22.693-37.433c0.734-2.642-0.081-4.823-2.137-5.851c-2.871-1.441-5.776,0.132-6.775,3.709
				c-9.233,32.926-41.676,56.697-78.072,51.662c-29.509-4.077-49.164-20.947-59.328-48.877
				C132.454,221.277,131.616,218.193,131.271,214.438z"/>
			<path fill-rule="evenodd" clip-rule="evenodd" fill="#FFFFFF" d="M271.979,189.415c0.586-1.407-0.092-2.739-0.391-4.054
				c-6.845-29.003-31.294-50.886-60.9-54.55c-35.248-4.364-68.185,17.404-78.026,51.576c-0.896,3.083-2.113,4.307-4.434,4.421
				c-3.342,0.161-5.529-2.67-4.604-6.075c3.571-13.161,10.071-24.697,19.512-34.544c13.201-13.781,29.342-21.975,48.228-24.421
				c33.129-4.289,64.688,11.731,81.029,40.718c6.788,12.035,10.232,25.023,10.232,38.926c0,2.164-0.724,3.772-2.744,4.656
				c-2.021,0.891-3.802,0.27-5.294-1.217c-5.983-5.961-11.967-11.909-17.893-17.91c-2.056-2.073-2.079-4.995-0.229-6.81
				c1.906-1.861,4.674-1.74,6.798,0.39c2.94,2.934,5.812,5.92,8.717,8.872c0.012-0.149,0.459,0.063,0.219-0.281
				C272.116,189.219,272.048,189.312,271.979,189.415z"/>
			<path fill-rule="evenodd" clip-rule="evenodd" fill="#FFFFFF" d="M131.271,214.438c0.345,3.755,1.183,6.839,2.262,9.813
				c10.164,27.93,29.819,44.8,59.328,48.877c36.396,5.035,68.839-18.736,78.072-51.662c0.999-3.577,3.904-5.15,6.775-3.709
				c2.056,1.027,2.871,3.209,2.137,5.851c-4.043,14.603-11.611,27.12-22.693,37.433c-14.998,13.948-32.787,21.188-53.313,21.854
				c-39.701,1.286-74.992-27.452-81.722-66.631c-0.775-4.56-1.206-9.136-1.252-13.77c-0.017-2.09,0.77-3.618,2.688-4.502
				c1.878-0.861,3.646-0.511,5.294,1.137c5.978,5.949,11.955,11.909,17.893,17.904c2.033,2.026,2.113,4.708,0.281,6.604
				c-1.866,1.923-4.68,1.889-6.793-0.189C137.341,220.594,134.498,217.7,131.271,214.438z"/>
		</g>
	</g>
</g>
</svg>
