<?xml version="1.0" encoding="utf-8"?>
<!-- Generator: Adobe Illustrator 16.0.0, SVG Export Plug-In . SVG Version: 6.00 Build 0)  -->
<!DOCTYPE svg PUBLIC "-//W3C//DTD SVG 1.1//EN" "http://www.w3.org/Graphics/SVG/1.1/DTD/svg11.dtd">
<svg version="1.1" id="Layer_1" xmlns="http://www.w3.org/2000/svg" xmlns:xlink="http://www.w3.org/1999/xlink" x="0px" y="0px"
	 width="600px" height="400px" viewBox="0 0 600 400" enable-background="new 0 0 600 400" xml:space="preserve">
<g>
	<path fill="none" d="M368.984,267.286"/>
</g>
<g>
	<g>
		<path fill="none" stroke="#72C59B" stroke-width="7.625" stroke-miterlimit="10" d="M241.06,345.668
			c-20.139,20.135-52.731,20.135-72.869,0"/>
		<path fill="none" stroke="#72C59B" stroke-width="7.625" stroke-miterlimit="10" d="M231.533,336.135
			c-14.873,14.869-38.939,14.869-53.813,0"/>
		<path fill="none" stroke="#72C59B" stroke-width="7.625" stroke-miterlimit="10" d="M220.375,325.877
			c-8.701,8.703-22.797,8.703-31.501,0"/>
	</g>
</g>
<g>
	<path d="M300,288.611c0,6.627-5.373,12-12,12H120.314c-6.627,0-12-5.373-12-12V58.5c0-6.627,5.373-12,12-12H288
		c6.627,0,12,5.373,12,12V288.611z"/>
	<g>
		<g>
			<g>
				<rect x="121.5" y="59.5" fill="#3499CE" width="166" height="209"/>
				<path fill="#FFFFFF" d="M217.359,284.509c0,5.752-4.657,10.407-10.409,10.407c-5.751,0-10.409-4.655-10.409-10.407
					s4.657-10.412,10.409-10.412C212.702,274.097,217.359,278.757,217.359,284.509z"/>
			</g>
		</g>
	</g>
</g>
<g>
	<g>
		<polygon fill="#72C59B" stroke="#579975" stroke-miterlimit="10" points="475.094,354.2 457.666,354.2 459.666,335.019 
			473.094,335.019 		"/>
		<g>
			<g>
				<g>
					<path fill="none" stroke="#579975" stroke-width="2" stroke-miterlimit="10" d="M475.938,364.623
						c-5.283,5.28-13.832,5.28-19.113,0"/>
					<path fill="none" stroke="#579975" stroke-width="2" stroke-miterlimit="10" d="M473.438,362.123
						c-3.9,3.899-10.213,3.899-14.115,0"/>
					<path fill="none" stroke="#579975" stroke-width="2" stroke-miterlimit="10" d="M470.512,359.431
						c-2.283,2.283-5.98,2.283-8.264,0"/>
				</g>
			</g>
		</g>
	</g>
	<g>
		<path fill="#FFFFFF" d="M463.078,347.142c0.041,0.137,0.084,0.291,0.133,0.462c0.049,0.172,0.1,0.35,0.154,0.533
			c0.055,0.183,0.111,0.366,0.168,0.55s0.111,0.354,0.164,0.51c0.045-0.17,0.088-0.354,0.133-0.555
			c0.047-0.2,0.088-0.407,0.129-0.62c0.041-0.214,0.08-0.426,0.117-0.638c0.039-0.212,0.076-0.416,0.109-0.612h0.811
			c-0.117,0.58-0.254,1.168-0.406,1.765s-0.316,1.163-0.494,1.7h-0.715c-0.115-0.32-0.229-0.656-0.338-1.008
			c-0.111-0.352-0.219-0.704-0.324-1.058c-0.107,0.354-0.215,0.706-0.322,1.058c-0.105,0.352-0.217,0.688-0.334,1.008h-0.713
			c-0.178-0.537-0.344-1.104-0.494-1.7c-0.152-0.597-0.287-1.185-0.404-1.765h0.844c0.033,0.196,0.07,0.4,0.111,0.612
			c0.039,0.212,0.082,0.424,0.125,0.638c0.043,0.213,0.088,0.42,0.133,0.62s0.092,0.385,0.139,0.555
			c0.061-0.163,0.119-0.337,0.176-0.52c0.057-0.184,0.111-0.367,0.164-0.551c0.055-0.183,0.104-0.359,0.148-0.529
			s0.086-0.322,0.123-0.455H463.078z"/>
		<path fill="#FFFFFF" d="M466.256,346.847c0,0.137-0.045,0.244-0.133,0.322s-0.193,0.117-0.313,0.117
			c-0.121,0-0.225-0.039-0.313-0.117s-0.133-0.186-0.133-0.322s0.045-0.244,0.133-0.323c0.088-0.078,0.191-0.117,0.313-0.117
			c0.119,0,0.225,0.039,0.313,0.117C466.211,346.603,466.256,346.71,466.256,346.847z M466.186,350.236h-0.746v-2.63h0.746V350.236z
			"/>
		<path fill="#FFFFFF" d="M466.66,348.406h1.449v0.675h-1.449V348.406z"/>
		<path fill="#FFFFFF" d="M468.635,350.236v-3.465h2.32v0.655h-1.539v0.725h1.369v0.655h-1.369v1.43H468.635z"/>
		<path fill="#FFFFFF" d="M472.27,346.847c0,0.137-0.043,0.244-0.131,0.322c-0.09,0.078-0.193,0.117-0.313,0.117
			c-0.121,0-0.225-0.039-0.313-0.117c-0.09-0.078-0.133-0.186-0.133-0.322s0.043-0.244,0.133-0.323
			c0.088-0.078,0.191-0.117,0.313-0.117c0.119,0,0.223,0.039,0.313,0.117C472.227,346.603,472.27,346.71,472.27,346.847z
			 M472.201,350.236h-0.746v-2.63h0.746V350.236z"/>
	</g>
	<g>
		
			<rect x="407.035" y="220.553" fill="#FFFFFF" stroke="#EF4069" stroke-width="0.5163" stroke-miterlimit="10" width="87.174" height="111.667"/>
		<g>
			<g>
				<g>
					<path fill="#010101" stroke="#FFFFFF" stroke-width="0.2053" stroke-miterlimit="10" d="M450.266,267.174"/>
				</g>
				<g>
					<path fill="#010101" stroke="#FFFFFF" stroke-width="0.2053" stroke-miterlimit="10" d="M450.266,267.174"/>
				</g>
				<g>
					<path fill="#010101" stroke="#FFFFFF" stroke-width="0.2053" stroke-miterlimit="10" d="M450.266,267.174"/>
				</g>
				<g>
					<path fill="#010101" stroke="#FFFFFF" stroke-width="0.2053" stroke-miterlimit="10" d="M450.266,267.174"/>
				</g>
			</g>
			<polyline fill="#3499CE" points="475.926,281.928 463.096,289.625 450.266,297.324 450.266,281.928 450.266,266.533 			"/>
			<polyline fill="#9A6799" points="475.926,281.928 475.926,266.533 475.926,251.137 463.111,258.836 450.266,266.533 			"/>
			<polyline fill="#F8993D" points="450.27,235.742 437.438,243.439 424.605,251.137 437.439,258.836 450.27,266.533 			"/>
			<polyline fill="#EF4069" points="450.266,235.742 463.094,243.439 475.926,251.137 463.096,258.836 450.266,266.533 			"/>
			<polyline fill="#FDCF12" points="424.605,281.928 437.439,289.625 450.27,297.324 450.27,281.928 450.27,266.533 			"/>
			<polyline fill="#72C59B" points="424.607,281.928 424.607,266.533 424.607,251.137 437.438,258.836 450.266,266.533 			"/>
			<g>
				<g>
					<g>
						
							<line fill="none" stroke="#FFFFFF" stroke-width="0.6158" stroke-miterlimit="10" x1="450.271" y1="235.742" x2="450.271" y2="236.461"/>
						
							<line fill="none" stroke="#FFFFFF" stroke-width="0.6158" stroke-miterlimit="10" stroke-dasharray="1.3978,1.3978" x1="450.271" y1="237.858" x2="450.266" y2="265.116"/>
						
							<line fill="none" stroke="#FFFFFF" stroke-width="0.6158" stroke-miterlimit="10" x1="450.266" y1="265.814" x2="450.266" y2="266.533"/>
					</g>
				</g>
				<g>
					<g>
						
							<line fill="none" stroke="#FFFFFF" stroke-width="0.6158" stroke-miterlimit="10" x1="450.266" y1="266.533" x2="450.882" y2="266.902"/>
						
							<line fill="none" stroke="#FFFFFF" stroke-width="0.6158" stroke-miterlimit="10" stroke-dasharray="1.4993,1.4993" x1="452.167" y1="267.674" x2="474.667" y2="281.173"/>
						
							<line fill="none" stroke="#FFFFFF" stroke-width="0.6158" stroke-miterlimit="10" x1="475.31" y1="281.559" x2="475.926" y2="281.928"/>
					</g>
				</g>
				<g>
					<g>
						
							<line fill="none" stroke="#FFFFFF" stroke-width="0.6158" stroke-miterlimit="10" x1="450.266" y1="266.533" x2="449.649" y2="266.902"/>
						
							<line fill="none" stroke="#FFFFFF" stroke-width="0.6158" stroke-miterlimit="10" stroke-dasharray="1.4993,1.4993" x1="448.364" y1="267.674" x2="425.864" y2="281.173"/>
						
							<line fill="none" stroke="#FFFFFF" stroke-width="0.6158" stroke-miterlimit="10" x1="425.222" y1="281.559" x2="424.605" y2="281.928"/>
					</g>
				</g>
			</g>
			<g>
				
					<line fill="none" stroke="#FFFFFF" stroke-width="0.6158" stroke-miterlimit="10" x1="450.271" y1="297.324" x2="450.266" y2="266.533"/>
				
					<line fill="none" stroke="#FFFFFF" stroke-width="0.6158" stroke-miterlimit="10" x1="450.266" y1="266.533" x2="475.926" y2="251.137"/>
				
					<line fill="none" stroke="#FFFFFF" stroke-width="0.6158" stroke-miterlimit="10" x1="450.266" y1="266.533" x2="424.605" y2="251.137"/>
			</g>
		</g>
		
			<rect x="412.018" y="335.236" fill="#FFFFFF" stroke="#EF4069" stroke-width="0.5163" stroke-miterlimit="10" width="76.854" height="6.264"/>
		
			<rect x="412.018" y="211.416" fill="#FFFFFF" stroke="#EF4069" stroke-width="0.5163" stroke-miterlimit="10" width="76.854" height="6.264"/>
		
			<line fill="none" stroke="#EF4069" stroke-width="5.3508" stroke-miterlimit="10" x1="405.34" y1="218.029" x2="495.658" y2="218.029"/>
		
			<line fill="none" stroke="#EF4069" stroke-width="5.3508" stroke-miterlimit="10" x1="405.34" y1="334.745" x2="495.658" y2="334.745"/>
		<g>
			<path d="M443.113,303.674h1.998v8.877h-1.998v-3.766h-3.357v3.766h-1.998v-8.877h1.998v3.395h3.357V303.674z"/>
			<path d="M450.631,312.729c-0.623,0-1.16-0.087-1.613-0.263c-0.453-0.175-0.826-0.418-1.121-0.729s-0.512-0.684-0.652-1.114
				c-0.143-0.432-0.213-0.907-0.213-1.429v-5.521h1.998v5.354c0,0.358,0.041,0.664,0.123,0.916c0.08,0.252,0.191,0.456,0.332,0.614
				s0.313,0.271,0.514,0.34c0.199,0.068,0.42,0.103,0.658,0.103c0.488,0,0.883-0.149,1.186-0.448s0.455-0.808,0.455-1.524v-5.354
				h1.998v5.521c0,0.521-0.072,0.999-0.219,1.435c-0.145,0.436-0.367,0.81-0.666,1.121s-0.678,0.553-1.139,0.724
				S451.264,312.729,450.631,312.729z"/>
			<path d="M459.174,312.666c-0.486,0-0.971-0.016-1.453-0.045c-0.482-0.03-0.984-0.101-1.506-0.212v-8.607
				c0.41-0.077,0.859-0.135,1.346-0.173s0.939-0.058,1.357-0.058c0.564,0,1.082,0.041,1.557,0.122s0.881,0.22,1.223,0.416
				s0.609,0.455,0.801,0.775c0.193,0.319,0.289,0.715,0.289,1.185c0,0.709-0.342,1.268-1.025,1.678
				c0.564,0.214,0.947,0.504,1.152,0.871s0.309,0.781,0.309,1.242c0,0.931-0.34,1.632-1.02,2.101
				C461.525,312.431,460.516,312.666,459.174,312.666z M458.162,307.158h0.975c0.613,0,1.055-0.079,1.318-0.237
				c0.266-0.158,0.396-0.412,0.396-0.762c0-0.359-0.135-0.61-0.408-0.756s-0.676-0.218-1.205-0.218c-0.17,0-0.354,0.002-0.551,0.006
				c-0.195,0.005-0.371,0.016-0.525,0.032V307.158z M458.162,308.683v2.292c0.146,0.018,0.303,0.03,0.475,0.039
				c0.17,0.009,0.359,0.013,0.563,0.013c0.598,0,1.082-0.085,1.449-0.256c0.365-0.171,0.551-0.487,0.551-0.948
				c0-0.41-0.154-0.702-0.463-0.878c-0.307-0.175-0.746-0.262-1.318-0.262H458.162z"/>
		</g>
		<rect x="409.676" y="266.531" fill="#EF4069" width="3.203" height="17.115"/>
		<rect x="488.666" y="266.531" fill="#EF4069" width="3.201" height="17.115"/>
	</g>
</g>
<g>
	<polygon fill="#72C59B" stroke="#579975" stroke-miterlimit="10" points="475.094,174.201 457.666,174.201 459.666,155.019 
		473.094,155.019 	"/>
	<g>
		<g>
			<g>
				<path fill="none" stroke="#579975" stroke-width="2" stroke-miterlimit="10" d="M475.938,184.624
					c-5.283,5.28-13.832,5.28-19.113,0"/>
				<path fill="none" stroke="#579975" stroke-width="2" stroke-miterlimit="10" d="M473.438,182.124
					c-3.9,3.899-10.213,3.899-14.115,0"/>
				<path fill="none" stroke="#579975" stroke-width="2" stroke-miterlimit="10" d="M470.512,179.431
					c-2.283,2.283-5.98,2.283-8.264,0"/>
			</g>
		</g>
	</g>
</g>
<g>
	<path fill="#FFFFFF" d="M463.078,167.142c0.041,0.137,0.084,0.291,0.133,0.462c0.049,0.172,0.1,0.35,0.154,0.533
		c0.055,0.183,0.111,0.366,0.168,0.55s0.111,0.354,0.164,0.51c0.045-0.17,0.088-0.354,0.133-0.555c0.047-0.2,0.088-0.407,0.129-0.62
		c0.041-0.214,0.08-0.426,0.117-0.638c0.039-0.212,0.076-0.416,0.109-0.612h0.811c-0.117,0.58-0.254,1.168-0.406,1.765
		s-0.316,1.163-0.494,1.7h-0.715c-0.115-0.32-0.229-0.656-0.338-1.008c-0.111-0.352-0.219-0.704-0.324-1.058
		c-0.107,0.354-0.215,0.706-0.322,1.058c-0.105,0.352-0.217,0.688-0.334,1.008h-0.713c-0.178-0.537-0.344-1.104-0.494-1.7
		c-0.152-0.597-0.287-1.185-0.404-1.765h0.844c0.033,0.196,0.07,0.4,0.111,0.612c0.039,0.212,0.082,0.424,0.125,0.638
		c0.043,0.213,0.088,0.42,0.133,0.62s0.092,0.385,0.139,0.555c0.061-0.163,0.119-0.337,0.176-0.52
		c0.057-0.184,0.111-0.367,0.164-0.551c0.055-0.183,0.104-0.359,0.148-0.529s0.086-0.322,0.123-0.455H463.078z"/>
	<path fill="#FFFFFF" d="M466.256,166.847c0,0.137-0.045,0.244-0.133,0.322s-0.193,0.117-0.313,0.117
		c-0.121,0-0.225-0.039-0.313-0.117s-0.133-0.186-0.133-0.322s0.045-0.244,0.133-0.323c0.088-0.078,0.191-0.117,0.313-0.117
		c0.119,0,0.225,0.039,0.313,0.117C466.211,166.603,466.256,166.71,466.256,166.847z M466.186,170.237h-0.746v-2.63h0.746V170.237z"
		/>
	<path fill="#FFFFFF" d="M466.66,168.407h1.449v0.675h-1.449V168.407z"/>
	<path fill="#FFFFFF" d="M468.635,170.237v-3.465h2.32v0.655h-1.539v0.725h1.369v0.655h-1.369v1.43H468.635z"/>
	<path fill="#FFFFFF" d="M472.27,166.847c0,0.137-0.043,0.244-0.131,0.322c-0.09,0.078-0.193,0.117-0.313,0.117
		c-0.121,0-0.225-0.039-0.313-0.117c-0.09-0.078-0.133-0.186-0.133-0.322s0.043-0.244,0.133-0.323
		c0.088-0.078,0.191-0.117,0.313-0.117c0.119,0,0.223,0.039,0.313,0.117C472.227,166.603,472.27,166.71,472.27,166.847z
		 M472.201,170.237h-0.746v-2.63h0.746V170.237z"/>
</g>
<g>
	
		<rect x="407.035" y="40.553" fill="#FFFFFF" stroke="#EF4069" stroke-width="0.5163" stroke-miterlimit="10" width="87.174" height="111.667"/>
	<g>
		<g>
			<g>
				<path fill="#010101" stroke="#FFFFFF" stroke-width="0.2053" stroke-miterlimit="10" d="M450.266,87.175"/>
			</g>
			<g>
				<path fill="#010101" stroke="#FFFFFF" stroke-width="0.2053" stroke-miterlimit="10" d="M450.266,87.175"/>
			</g>
			<g>
				<path fill="#010101" stroke="#FFFFFF" stroke-width="0.2053" stroke-miterlimit="10" d="M450.266,87.175"/>
			</g>
			<g>
				<path fill="#010101" stroke="#FFFFFF" stroke-width="0.2053" stroke-miterlimit="10" d="M450.266,87.175"/>
			</g>
		</g>
		<polyline fill="#3499CE" points="475.926,101.929 463.096,109.626 450.266,117.325 450.266,101.929 450.266,86.533 		"/>
		<polyline fill="#9A6799" points="475.926,101.929 475.926,86.533 475.926,71.138 463.111,78.836 450.266,86.533 		"/>
		<polyline fill="#F8993D" points="450.27,55.742 437.438,63.439 424.605,71.138 437.439,78.836 450.27,86.533 		"/>
		<polyline fill="#EF4069" points="450.266,55.742 463.094,63.439 475.926,71.138 463.096,78.836 450.266,86.533 		"/>
		<polyline fill="#FDCF12" points="424.605,101.929 437.439,109.626 450.27,117.325 450.27,101.929 450.27,86.533 		"/>
		<polyline fill="#72C59B" points="424.607,101.929 424.607,86.533 424.607,71.138 437.438,78.836 450.266,86.533 		"/>
		<g>
			<g>
				<g>
					
						<line fill="none" stroke="#FFFFFF" stroke-width="0.6158" stroke-miterlimit="10" x1="450.271" y1="55.742" x2="450.271" y2="56.46"/>
					
						<line fill="none" stroke="#FFFFFF" stroke-width="0.6158" stroke-miterlimit="10" stroke-dasharray="1.3978,1.3978" x1="450.271" y1="57.858" x2="450.266" y2="85.116"/>
					
						<line fill="none" stroke="#FFFFFF" stroke-width="0.6158" stroke-miterlimit="10" x1="450.266" y1="85.815" x2="450.266" y2="86.533"/>
				</g>
			</g>
			<g>
				<g>
					
						<line fill="none" stroke="#FFFFFF" stroke-width="0.6158" stroke-miterlimit="10" x1="450.266" y1="86.533" x2="450.882" y2="86.903"/>
					
						<line fill="none" stroke="#FFFFFF" stroke-width="0.6158" stroke-miterlimit="10" stroke-dasharray="1.4993,1.4993" x1="452.167" y1="87.674" x2="474.667" y2="101.173"/>
					
						<line fill="none" stroke="#FFFFFF" stroke-width="0.6158" stroke-miterlimit="10" x1="475.31" y1="101.559" x2="475.926" y2="101.929"/>
				</g>
			</g>
			<g>
				<g>
					
						<line fill="none" stroke="#FFFFFF" stroke-width="0.6158" stroke-miterlimit="10" x1="450.266" y1="86.533" x2="449.649" y2="86.903"/>
					
						<line fill="none" stroke="#FFFFFF" stroke-width="0.6158" stroke-miterlimit="10" stroke-dasharray="1.4993,1.4993" x1="448.364" y1="87.674" x2="425.864" y2="101.173"/>
					
						<line fill="none" stroke="#FFFFFF" stroke-width="0.6158" stroke-miterlimit="10" x1="425.222" y1="101.559" x2="424.605" y2="101.929"/>
				</g>
			</g>
		</g>
		<g>
			
				<line fill="none" stroke="#FFFFFF" stroke-width="0.6158" stroke-miterlimit="10" x1="450.271" y1="117.325" x2="450.266" y2="86.533"/>
			
				<line fill="none" stroke="#FFFFFF" stroke-width="0.6158" stroke-miterlimit="10" x1="450.266" y1="86.533" x2="475.926" y2="71.138"/>
			
				<line fill="none" stroke="#FFFFFF" stroke-width="0.6158" stroke-miterlimit="10" x1="450.266" y1="86.533" x2="424.605" y2="71.138"/>
		</g>
	</g>
	
		<rect x="412.018" y="155.237" fill="#FFFFFF" stroke="#EF4069" stroke-width="0.5163" stroke-miterlimit="10" width="76.854" height="6.264"/>
	
		<rect x="412.018" y="31.417" fill="#FFFFFF" stroke="#EF4069" stroke-width="0.5163" stroke-miterlimit="10" width="76.854" height="6.264"/>
	
		<line fill="none" stroke="#EF4069" stroke-width="5.3508" stroke-miterlimit="10" x1="405.34" y1="38.029" x2="495.658" y2="38.029"/>
	
		<line fill="none" stroke="#EF4069" stroke-width="5.3508" stroke-miterlimit="10" x1="405.34" y1="154.746" x2="495.658" y2="154.746"/>
	<g>
		<path d="M443.113,123.674h1.998v8.876h-1.998v-3.766h-3.357v3.766h-1.998v-8.876h1.998v3.394h3.357V123.674z"/>
		<path d="M450.631,132.729c-0.623,0-1.16-0.087-1.613-0.263c-0.453-0.175-0.826-0.418-1.121-0.73
			c-0.295-0.312-0.512-0.683-0.652-1.114c-0.143-0.431-0.213-0.907-0.213-1.428v-5.521h1.998v5.354c0,0.358,0.041,0.664,0.123,0.916
			c0.08,0.252,0.191,0.457,0.332,0.615s0.313,0.271,0.514,0.339c0.199,0.068,0.42,0.103,0.658,0.103
			c0.488,0,0.883-0.149,1.186-0.448s0.455-0.807,0.455-1.524v-5.354h1.998v5.521c0,0.521-0.072,0.999-0.219,1.435
			c-0.145,0.436-0.367,0.809-0.666,1.121c-0.299,0.312-0.678,0.553-1.139,0.724C451.811,132.644,451.264,132.729,450.631,132.729z"
			/>
		<path d="M459.174,132.666c-0.486,0-0.971-0.015-1.453-0.045s-0.984-0.1-1.506-0.211v-8.607c0.41-0.077,0.859-0.135,1.346-0.173
			c0.486-0.039,0.939-0.058,1.357-0.058c0.564,0,1.082,0.041,1.557,0.122s0.881,0.22,1.223,0.416
			c0.342,0.197,0.609,0.455,0.801,0.775c0.193,0.32,0.289,0.715,0.289,1.185c0,0.709-0.342,1.268-1.025,1.678
			c0.564,0.213,0.947,0.504,1.152,0.871c0.205,0.368,0.309,0.782,0.309,1.243c0,0.931-0.34,1.631-1.02,2.101
			C461.525,132.431,460.516,132.666,459.174,132.666z M458.162,127.158h0.975c0.613,0,1.055-0.079,1.318-0.237
			c0.266-0.158,0.396-0.412,0.396-0.762c0-0.359-0.135-0.61-0.408-0.756c-0.273-0.145-0.676-0.218-1.205-0.218
			c-0.17,0-0.354,0.002-0.551,0.006c-0.195,0.004-0.371,0.015-0.525,0.032V127.158z M458.162,128.682v2.292
			c0.146,0.018,0.303,0.03,0.475,0.039c0.17,0.009,0.359,0.013,0.563,0.013c0.598,0,1.082-0.085,1.449-0.256
			c0.365-0.171,0.551-0.487,0.551-0.948c0-0.41-0.154-0.702-0.463-0.877c-0.307-0.175-0.746-0.262-1.318-0.262H458.162z"/>
	</g>
	<rect x="409.676" y="86.531" fill="#EF4069" width="3.203" height="17.115"/>
	<rect x="488.666" y="86.531" fill="#EF4069" width="3.201" height="17.115"/>
</g>
</svg>
