<?xml version="1.0" encoding="utf-8"?>
<!-- Generator: Adobe Illustrator 19.1.0, SVG Export Plug-In . SVG Version: 6.00 Build 0)  -->
<svg version="1.1"
	 id="Layer_1" xmlns:sodipodi="http://sodipodi.sourceforge.net/DTD/sodipodi-0.dtd" xmlns:inkscape="http://www.inkscape.org/namespaces/inkscape" sodipodi:docname="television.svg" inkscape:version="0.48.4 r9939" xmlns:svg="http://www.w3.org/2000/svg" xmlns:rdf="http://www.w3.org/1999/02/22-rdf-syntax-ns#" xmlns:cc="http://creativecommons.org/ns#" xmlns:dc="http://purl.org/dc/elements/1.1/"
	 xmlns="http://www.w3.org/2000/svg" xmlns:xlink="http://www.w3.org/1999/xlink" x="0px" y="0px" viewBox="-5 197 600 400"
	 style="enable-background:new -5 197 600 400;" xml:space="preserve">
<style type="text/css">
	.st0{stroke:#3A3A3A;stroke-width:1.0066;stroke-miterlimit:10;}
	.st1{fill:#171617;stroke:#000000;stroke-width:1.1789;stroke-miterlimit:10;}
	.st2{fill:#171617;stroke:#000000;stroke-width:1.0202;stroke-miterlimit:10;}
	.st3{fill:none;stroke:#000000;stroke-width:1.1789;stroke-miterlimit:10;}
	.st4{fill:#3499CE;stroke:#92DEFF;stroke-miterlimit:10;}
	.st5{fill:#FFFFFF;stroke:#C9C9C9;stroke-miterlimit:10;}
	.st6{fill:#FFFFFF;}
	.st7{fill:none;stroke:#FFFFFF;stroke-width:0.5;stroke-miterlimit:10;}
	.st8{fill:#EABD00;}
	.st9{fill:#CCCCCC;}
	.st10{fill:none;stroke:#000000;stroke-miterlimit:10;}
	.st11{fill:none;}
	.st12{fill:#3499CD;}
	.st13{fill:#996699;}
	.st14{fill:#F89939;}
	.st15{fill:#EF3B68;}
	.st16{fill:#FFCE0C;}
	.st17{fill:#6FC498;}
</style>
<path class="st0" d="M380,295.3H222l90.9-39.2c0.6,0.3,1.3,0.5,2,0.5c2.3,0,4.2-1.9,4.2-4.2c0-2.3-1.9-4.2-4.2-4.2
	c-2.3,0-4.2,1.9-4.2,4.2c0,0.1,0,0.1,0,0.2l-98.8,42.7H200L99.7,252c-0.2-2.1-2-3.8-4.1-3.8c-2.3,0-4.2,1.9-4.2,4.2
	c0,2.3,1.9,4.2,4.2,4.2c1,0,1.8-0.3,2.5-0.9l91.7,39.6H30V306v182.5v9.2v7.6h163.3L174.6,525L43.5,535.1v8.1h314.6v-8.1L237.3,525
	l-18.7-19.8H380V295.3z"/>
<polygon points="473.3,511.9 373.3,511.9 373.3,473.9 370.3,473.9 370.3,514.9 373.3,514.9 373.3,514.9 473.3,514.9 "/>
<sodipodi:namedview  id="namedview235" inkscape:current-layer="Layer_1" inkscape:window-maximized="1" inkscape:window-y="24" inkscape:window-x="0" inkscape:pageopacity="0" inkscape:window-height="1026" inkscape:window-width="1680" inkscape:pageshadow="2" objecttolerance="10" borderopacity="1" pagecolor="#ffffff" bordercolor="#666666" showgrid="false" inkscape:cy="200" inkscape:cx="39.375" inkscape:zoom="0.53333333" gridtolerance="10" guidetolerance="10">
	</sodipodi:namedview>
<polygon points="362.8,525.5 362.8,442.5 357.8,442.5 357.8,530.5 362.3,530.5 362.8,530.5 450.2,530.5 450.2,525.5 "/>
<polygon id="polygon7" class="st1" points="441.9,530.5 443.4,531.7 449.9,531.7 449.9,524.3 443.4,524.3 441.9,525.5 "/>
<g id="g9">
	<polygon id="polygon11" class="st2" points="475.2,534.7 456.8,534.7 449.9,533.2 449.9,523 456.8,521.5 475.2,521.5 	"/>
</g>
<line id="line23" class="st3" x1="448.4" y1="524.3" x2="448.4" y2="531.7"/>
<line id="line25" class="st3" x1="446.9" y1="524.3" x2="446.9" y2="531.7"/>
<line id="line27" class="st3" x1="445.4" y1="524.3" x2="445.4" y2="531.7"/>
<line id="line29" class="st3" x1="443.9" y1="524.3" x2="443.9" y2="531.7"/>
<path id="path213" d="M378.3,490.4"/>
<g>
	<path id="path211" class="st4" d="M368.5,489.2H41.4V307.6c0-0.8,0.6-1.5,1.5-1.5h324.3c0.8,0,1.5,0.6,1.5,1.5L368.5,489.2
		L368.5,489.2z"/>
	<rect id="rect215" x="353.8" y="494.6" class="st5" width="13.9" height="5.3"/>
</g>
<polygon id="rect91_1_" points="465.1,499.9 552.6,499.9 552.6,542.9 547,541.9 471,541.9 465.1,542.9 "/>
<rect id="rect167_1_" x="470.3" y="502.6" class="st6" width="77.1" height="3.3"/>
<rect id="rect181_1_" x="467.7" y="527" class="st7" width="3.2" height="12.2"/>
<rect id="rect183_1_" x="547" y="527" class="st7" width="3.2" height="12.2"/>
<rect x="516.4" y="526.2" width="19.4" height="2.2"/>
<g>
	<g>
		<path class="st8" d="M503.2,516.8h-0.4v-4h0.4V516.8z M502.4,516.8H502v-4h0.4V516.8z M501.6,516.8h-0.4v-4h0.4V516.8z
			 M500.8,516.8h-0.4v-4h0.4V516.8z M500,516.8h-0.4v-4h0.4V516.8z M499.2,516.8h-0.4v-4h0.4V516.8z M498.4,516.8H498v-4h0.4V516.8z
			 M497.6,516.8h-0.4v-4h0.4V516.8z M496.8,516.8h-0.4v-4h0.4V516.8z M496,516.8h-0.4v-4h0.4V516.8z M495.2,516.8h-0.4v-4h0.4V516.8
			z M494.4,516.8H494v-4h0.4V516.8z M493.6,516.8h-0.4v-4h0.4V516.8z M492.8,516.8h-0.4v-4h0.4V516.8z M492,516.8h-0.4v-4h0.4V516.8
			z M491.2,516.8h-0.4v-4h0.4V516.8z M490.4,516.8H490v-4h0.4V516.8z M489.6,516.8h-0.4v-4h0.4V516.8z M488.8,516.8h-0.4v-4h0.4
			V516.8z M488,516.8h-0.4v-4h0.4V516.8z M487.2,516.8h-0.4v-4h0.4V516.8z"/>
		<path class="st9" d="M507.2,511.4H482v19.4h5.8v2.4h2.9v1.2h7.9v-1.2h2.9v-2.4h5.8L507.2,511.4L507.2,511.4z M505.1,528.7h-5.8
			v0.1v2v0.3h-2.9v0.1v1.2h-3.7v-1.2v-0.1h-2.9v-0.3v-2v-0.1H484v-15.2h21L505.1,528.7L505.1,528.7z"/>
	</g>
	<g>
		<g>
			<path class="st9" d="M537.2,521.2h-20v-10h20V521.2z M518.8,519.6h16.8v-6.9h-16.8V519.6z"/>
			<rect x="520.3" y="513.6" class="st6" width="13.8" height="1.7"/>
			<g>
				<rect x="523.7" y="516.8" class="st8" width="1.4" height="1.4"/>
				<rect x="525.6" y="516.8" class="st8" width="1.4" height="1.4"/>
				<rect x="527.5" y="516.8" class="st8" width="1.4" height="1.4"/>
				<rect x="529.3" y="516.8" class="st8" width="1.4" height="1.4"/>
			</g>
		</g>
		<g>
			<path class="st9" d="M537.2,534.2h-20v-10h20V534.2z M518.8,532.6h16.8v-6.9h-16.8V532.6z"/>
			<rect x="520.3" y="526.6" class="st6" width="13.8" height="1.7"/>
			<g>
				<rect x="523.7" y="529.8" class="st8" width="1.4" height="1.4"/>
				<rect x="525.6" y="529.8" class="st8" width="1.4" height="1.4"/>
				<rect x="527.5" y="529.8" class="st8" width="1.4" height="1.4"/>
				<rect x="529.3" y="529.8" class="st8" width="1.4" height="1.4"/>
			</g>
		</g>
	</g>
</g>
<line class="st10" x1="-5" y1="543.5" x2="595" y2="543.5"/>
<path class="st11" d="M295.7,8589"/>
<path class="st11" d="M295.7-7794"/>
<g>
	<polyline class="st12" points="216,530.9 211,533.9 206,536.9 206,530.9 206,524.9 	"/>
	<polyline class="st13" points="216,530.9 216,524.9 216,518.9 211,521.9 206,524.9 	"/>
	<polyline class="st14" points="206,512.9 201,515.9 196,518.9 201,521.9 206,524.9 	"/>
	<polyline class="st15" points="206,512.9 211,515.9 216,518.9 211,521.9 206,524.9 	"/>
	<polyline class="st16" points="196,530.9 201,533.9 206,536.9 206,530.9 206,524.9 	"/>
	<polyline class="st17" points="196,530.9 196,524.9 196,518.9 201,521.9 206,524.9 	"/>
</g>
</svg>
