<?xml version="1.0" encoding="UTF-8" standalone="no"?>
<!-- Generator: Adobe Illustrator 16.0.0, SVG Export Plug-In . SVG Version: 6.00 Build 0)  -->

<svg
   xmlns:dc="http://purl.org/dc/elements/1.1/"
   xmlns:cc="http://creativecommons.org/ns#"
   xmlns:rdf="http://www.w3.org/1999/02/22-rdf-syntax-ns#"
   xmlns:svg="http://www.w3.org/2000/svg"
   xmlns="http://www.w3.org/2000/svg"
   xmlns:xlink="http://www.w3.org/1999/xlink"
   xmlns:sodipodi="http://sodipodi.sourceforge.net/DTD/sodipodi-0.dtd"
   xmlns:inkscape="http://www.inkscape.org/namespaces/inkscape"
   version="1.1"
   id="Layer_1"
   x="0px"
   y="0px"
   width="600px"
   height="400px"
   viewBox="0 0 600 400"
   enable-background="new 0 0 600 400"
   xml:space="preserve"
   inkscape:version="0.48.4 r9939"
   sodipodi:docname="television.svg"><metadata
     id="metadata239"><rdf:RDF><cc:Work
         rdf:about=""><dc:format>image/svg+xml</dc:format><dc:type
           rdf:resource="http://purl.org/dc/dcmitype/StillImage" /></cc:Work></rdf:RDF></metadata><defs
     id="defs237" /><sodipodi:namedview
     pagecolor="#ffffff"
     bordercolor="#666666"
     borderopacity="1"
     objecttolerance="10"
     gridtolerance="10"
     guidetolerance="10"
     inkscape:pageopacity="0"
     inkscape:pageshadow="2"
     inkscape:window-width="1680"
     inkscape:window-height="1026"
     id="namedview235"
     showgrid="false"
     inkscape:zoom="0.53333333"
     inkscape:cx="39.375"
     inkscape:cy="200"
     inkscape:window-x="0"
     inkscape:window-y="24"
     inkscape:window-maximized="1"
     inkscape:current-layer="Layer_1" /><line
     stroke-miterlimit="10"
     x1="383.282"
     y1="201.387"
     x2="451.245"
     y2="201.387"
     id="line3"
     stroke-width="5"
     stroke="#3499CE"
     fill="none" /><g
     id="g5"><polygon
       points="442.937,203.887 444.374,205.075 450.87,205.075 450.87,197.698 444.374,197.698 442.937,198.902     "
       id="polygon7"
       fill="#3499CE" /><g
       id="g9"><polygon
         stroke-miterlimit="10"
         points="476.218,210.26 457.8,210.26 450.87,208.26     450.87,194.514 457.778,192.514 476.218,192.514   "
         id="polygon11"
         stroke="#1D304B"
         fill="#3499CE" /><g
         id="g13"><path
           d="M461.392,197.167v0.78h-3.465v-0.78h1.471v-1.31h-1.471v-0.78h3.465v0.78h-1.324v1.31H461.392z"
           id="path15"
           fill="#FFFFFF" /><path
           d="M459.663,201.781c-0.301,0-0.563-0.047-0.785-0.141c-0.225-0.093-0.408-0.225-0.557-0.396     c-0.146-0.172-0.256-0.381-0.328-0.628c-0.074-0.247-0.111-0.523-0.111-0.83c0-0.14,0.006-0.303,0.018-0.49     c0.012-0.187,0.035-0.37,0.072-0.55h3.375c0.033,0.18,0.057,0.368,0.068,0.563c0.012,0.195,0.018,0.363,0.018,0.502     c0,0.297-0.033,0.566-0.1,0.808c-0.068,0.241-0.172,0.449-0.316,0.622c-0.143,0.173-0.326,0.307-0.549,0.399     C460.243,201.734,459.976,201.781,459.663,201.781z M458.562,199.526c-0.002,0.037-0.006,0.079-0.006,0.127     c-0.002,0.048-0.004,0.105-0.004,0.172c0,0.39,0.1,0.68,0.295,0.867c0.197,0.188,0.469,0.283,0.816,0.283     c0.363,0,0.637-0.09,0.824-0.271c0.188-0.18,0.279-0.465,0.279-0.855c0-0.053,0-0.108-0.002-0.165s-0.006-0.11-0.012-0.16     H458.562z"
           id="path17"
           fill="#FFFFFF" /><path
           d="M461.392,203.352c-0.109,0.061-0.246,0.129-0.406,0.207c-0.162,0.08-0.338,0.162-0.525,0.246     c-0.189,0.086-0.381,0.17-0.578,0.254s-0.381,0.162-0.555,0.236c0.174,0.072,0.357,0.152,0.555,0.234     c0.197,0.084,0.389,0.17,0.578,0.254c0.188,0.086,0.363,0.168,0.525,0.246c0.16,0.078,0.297,0.148,0.406,0.209v0.709     c-0.229,0.033-0.486,0.064-0.771,0.092c-0.285,0.029-0.582,0.055-0.891,0.076s-0.617,0.041-0.928,0.061     c-0.309,0.018-0.602,0.033-0.875,0.047v-0.76c0.338-0.01,0.703-0.023,1.1-0.041c0.398-0.016,0.797-0.041,1.201-0.074     c-0.141-0.061-0.295-0.127-0.465-0.201c-0.17-0.072-0.34-0.146-0.51-0.219c-0.17-0.07-0.334-0.141-0.488-0.207     s-0.287-0.125-0.396-0.172v-0.545c0.109-0.047,0.242-0.104,0.396-0.17c0.154-0.068,0.318-0.137,0.488-0.209     s0.34-0.145,0.51-0.219c0.17-0.072,0.324-0.14,0.465-0.2c-0.404-0.033-0.803-0.058-1.201-0.075     c-0.396-0.016-0.762-0.029-1.1-0.039v-0.761c0.273,0.014,0.566,0.029,0.875,0.048c0.311,0.018,0.619,0.038,0.928,0.061     c0.309,0.021,0.605,0.046,0.891,0.074s0.543,0.059,0.771,0.093V203.352z"
           id="path19"
           fill="#FFFFFF" /><path
           d="M461.392,206.918v0.779h-3.465v-0.779H461.392z"
           id="path21"
           fill="#FFFFFF" /></g></g><line
       stroke-miterlimit="10"
       x1="449.374"
       y1="197.698"
       x2="449.374"
       y2="205.075"
       id="line23"
       stroke="#1D304B"
       fill="none" /><line
       stroke-miterlimit="10"
       x1="447.874"
       y1="197.698"
       x2="447.874"
       y2="205.075"
       id="line25"
       stroke="#1D304B"
       fill="none" /><line
       stroke-miterlimit="10"
       x1="446.374"
       y1="197.698"
       x2="446.374"
       y2="205.075"
       id="line27"
       stroke="#1D304B"
       fill="none" /><line
       stroke-miterlimit="10"
       x1="444.874"
       y1="197.698"
       x2="444.874"
       y2="205.075"
       id="line29"
       stroke="#1D304B"
       fill="none" /></g><g
     id="g31"><line
       stroke-miterlimit="10"
       x1="498.261"
       y1="400"
       x2="498.261"
       y2="277.35"
       id="line33"
       stroke-width="5"
       stroke="#FECF11"
       fill="none" /></g><g
     id="g35"><polygon
       points="495.019,283.793 492.019,275.822 504.503,275.822 501.503,283.793  "
       id="polygon37"
       fill="#FECF11" /><polygon
       stroke-miterlimit="10"
       points="491.019,262.395 505.503,262.395    505.503,273.793 504.503,275.822 492.019,275.822 491.019,273.793  "
       id="polygon39"
       stroke-width="0.869"
       stroke="#F8993C"
       fill="#FECF11" /><path
       stroke-miterlimit="10"
       d="M491.019,273.906"
       id="path41"
       stroke-width="0.869"
       stroke="#F8993C"
       fill="#FECF11" /><line
       stroke-miterlimit="10"
       x1="504.503"
       y1="277.281"
       x2="492.003"
       y2="277.281"
       id="line43"
       stroke-width="0.8801"
       stroke="#F8993C"
       fill="none" /><line
       stroke-miterlimit="10"
       x1="503.753"
       y1="278.781"
       x2="492.753"
       y2="278.781"
       id="line45"
       stroke-width="0.903"
       stroke="#F8993C"
       fill="none" /><line
       stroke-miterlimit="10"
       x1="503.003"
       y1="280.281"
       x2="493.503"
       y2="280.281"
       id="line47"
       stroke-width="0.9361"
       stroke="#F8993C"
       fill="none" /><line
       stroke-miterlimit="10"
       x1="502.503"
       y1="281.781"
       x2="494.003"
       y2="281.781"
       id="line49"
       stroke-width="0.8854"
       stroke="#F8993C"
       fill="none" /><rect
       x="494.63"
       y="282.961"
       width="7.186"
       height="3.486"
       id="rect51"
       fill="#F8993C" /></g><line
     stroke-miterlimit="10"
     x1="490.261"
     y1="128.791"
     x2="490.261"
     y2="0"
     id="line53"
     stroke-width="3"
     stroke="#9A6799"
     fill="none" /><g
     id="g55"><polygon
       points="488.753,119.419 487.356,127.39 493.163,127.39 491.769,119.419  "
       id="polygon57"
       fill="#9A6799" /><polygon
       stroke-miterlimit="10"
       points="486.892,140.817 493.628,140.817    493.628,129.418 493.163,127.39 487.356,127.39 486.892,129.418  "
       id="polygon59"
       stroke-width="0.75"
       stroke="#664466"
       fill="#9A6799" /><path
       stroke-miterlimit="10"
       d="M486.892,129.306"
       id="path61"
       stroke-width="0.5926"
       stroke="#F8993C"
       fill="#FECF11" /><line
       stroke-miterlimit="10"
       x1="493.163"
       y1="125.931"
       x2="487.349"
       y2="125.931"
       id="line63"
       stroke-width="0.75"
       stroke="#664466"
       fill="none" /><line
       stroke-miterlimit="10"
       x1="492.813"
       y1="124.431"
       x2="487.698"
       y2="124.431"
       id="line65"
       stroke-width="0.75"
       stroke="#664466"
       fill="none" /><line
       stroke-miterlimit="10"
       x1="492.466"
       y1="122.931"
       x2="488.048"
       y2="122.931"
       id="line67"
       stroke-width="0.75"
       stroke="#664466"
       fill="none" /><line
       stroke-miterlimit="10"
       x1="492.233"
       y1="121.431"
       x2="488.28"
       y2="121.431"
       id="line69"
       stroke-width="0.75"
       stroke="#664466"
       fill="none" /><rect
       x="488.571"
       y="116.764"
       width="3.342"
       height="3.486"
       id="rect71"
       fill="#664466" /></g><g
     id="g73"><polygon
       stroke-miterlimit="10"
       points="536.417,286.012 518.989,286.012 520.989,266.83    534.417,266.83  "
       id="polygon75"
       stroke="#579875"
       fill="#72C59B" /><g
       id="g77"><g
         id="g79"><g
           id="g81"><path
             stroke-miterlimit="10"
             d="M537.259,296.435      c-5.281,5.28-13.83,5.28-19.113,0"
             id="path83"
             stroke-width="2"
             stroke="#579875"
             fill="none" /><path
             stroke-miterlimit="10"
             d="M534.761,293.935      c-3.902,3.899-10.215,3.899-14.115,0"
             id="path85"
             stroke-width="2"
             stroke="#579875"
             fill="none" /><path
             stroke-miterlimit="10"
             d="M531.833,291.242      c-2.281,2.283-5.979,2.283-8.262,0"
             id="path87"
             stroke-width="2"
             stroke="#579875"
             fill="none" /></g></g></g></g><g
     id="g89"><rect
       x="465.246"
       y="147.629"
       stroke-miterlimit="10"
       width="87.503"
       height="112.091"
       id="rect91"
       stroke-width="0.5"
       stroke="#EE4069"
       fill="#FFFFFF" /><g
       id="g93"><g
         id="g95"><g
           id="g97"><path
             stroke-miterlimit="10"
             d="M508.64,194.428"
             id="path99"
             stroke-width="0.2061"
             stroke="#FFFFFF" /></g><g
           id="g101"><path
             stroke-miterlimit="10"
             d="M508.64,194.428"
             id="path103"
             stroke-width="0.2061"
             stroke="#FFFFFF" /></g><g
           id="g105"><path
             stroke-miterlimit="10"
             d="M508.64,194.428"
             id="path107"
             stroke-width="0.2061"
             stroke="#FFFFFF" /></g><g
           id="g109"><path
             stroke-miterlimit="10"
             d="M508.64,194.428"
             id="path111"
             stroke-width="0.2061"
             stroke="#FFFFFF" /></g></g><polyline
         points="534.397,209.238 521.519,216.964 508.642,224.691 508.642,209.238 508.642,193.784   "
         id="polyline113"
         fill="#3499CE" /><polyline
         points="534.397,209.238 534.397,193.784 534.397,178.33 521.534,186.057 508.642,193.784   "
         id="polyline115"
         fill="#9A6799" /><polyline
         points="508.644,162.876 495.763,170.603 482.884,178.33 495.765,186.057 508.644,193.784   "
         id="polyline117"
         fill="#F8993C" /><polyline
         points="508.642,162.876 521.519,170.603 534.397,178.33 521.519,186.057 508.642,193.784   "
         id="polyline119"
         fill="#EF3E69" /><polyline
         points="482.884,209.238 495.765,216.964 508.644,224.691 508.644,209.238 508.644,193.784   "
         id="polyline121"
         fill="#FECF11" /><polyline
         points="482.886,209.238 482.886,193.784 482.886,178.33 495.763,186.057 508.642,193.784   "
         id="polyline123"
         fill="#72C59B" /><g
         id="g125"><g
           id="g127"><g
             id="g129"><line
               stroke-miterlimit="10"
               x1="508.646"
               y1="162.876"
               x2="508.646"
               y2="163.597"
               id="line131"
               stroke-width="0.6182"
               stroke="#FFFFFF"
               fill="none" /><line
               stroke-miterlimit="10"
               x1="508.646"
               y1="165"
               x2="508.64"
               y2="192.361"
               id="line133"
               stroke-dasharray="1.4031,1.4031"
               stroke-width="0.6182"
               stroke="#FFFFFF"
               fill="none" /><line
               stroke-miterlimit="10"
               x1="508.64"
               y1="193.063"
               x2="508.64"
               y2="193.784"
               id="line135"
               stroke-width="0.6182"
               stroke="#FFFFFF"
               fill="none" /></g></g><g
           id="g137"><g
             id="g139"><line
               stroke-miterlimit="10"
               x1="508.64"
               y1="193.784"
               x2="509.258"
               y2="194.155"
               id="line141"
               stroke-width="0.6182"
               stroke="#FFFFFF"
               fill="none" /><line
               stroke-miterlimit="10"
               x1="510.549"
               y1="194.93"
               x2="533.134"
               y2="208.48"
               id="line143"
               stroke-dasharray="1.505,1.505"
               stroke-width="0.6182"
               stroke="#FFFFFF"
               fill="none" /><line
               stroke-miterlimit="10"
               x1="533.779"
               y1="208.867"
               x2="534.397"
               y2="209.238"
               id="line145"
               stroke-width="0.6182"
               stroke="#FFFFFF"
               fill="none" /></g></g><g
           id="g147"><g
             id="g149"><line
               stroke-miterlimit="10"
               x1="508.64"
               y1="193.784"
               x2="508.021"
               y2="194.155"
               id="line151"
               stroke-width="0.6182"
               stroke="#FFFFFF"
               fill="none" /><line
               stroke-miterlimit="10"
               x1="506.73"
               y1="194.93"
               x2="484.147"
               y2="208.48"
               id="line153"
               stroke-dasharray="1.505,1.505"
               stroke-width="0.6182"
               stroke="#FFFFFF"
               fill="none" /><line
               stroke-miterlimit="10"
               x1="483.502"
               y1="208.867"
               x2="482.884"
               y2="209.238"
               id="line155"
               stroke-width="0.6182"
               stroke="#FFFFFF"
               fill="none" /></g></g></g><g
         id="g157"><line
           stroke-miterlimit="10"
           x1="508.646"
           y1="224.691"
           x2="508.64"
           y2="193.784"
           id="line159"
           stroke-width="0.6182"
           stroke="#FFFFFF"
           fill="none" /><line
           stroke-miterlimit="10"
           x1="508.64"
           y1="193.784"
           x2="534.397"
           y2="178.33"
           id="line161"
           stroke-width="0.6182"
           stroke="#FFFFFF"
           fill="none" /><line
           stroke-miterlimit="10"
           x1="508.64"
           y1="193.784"
           x2="482.884"
           y2="178.33"
           id="line163"
           stroke-width="0.6182"
           stroke="#FFFFFF"
           fill="none" /></g></g><rect
       x="470.247"
       y="262.748"
       stroke-miterlimit="10"
       width="77.145"
       height="6.287"
       id="rect165"
       stroke-width="0.5"
       stroke="#EE4069"
       fill="#FFFFFF" /><rect
       x="470.247"
       y="138.458"
       stroke-miterlimit="10"
       width="77.145"
       height="6.287"
       id="rect167"
       stroke-width="0.5"
       stroke="#EE4069"
       fill="#FFFFFF" /><line
       stroke-miterlimit="10"
       x1="463.544"
       y1="145.097"
       x2="554.206"
       y2="145.097"
       id="line169"
       stroke-width="5.3711"
       stroke="#EF3E69"
       fill="none" /><line
       stroke-miterlimit="10"
       x1="463.544"
       y1="262.255"
       x2="554.206"
       y2="262.255"
       id="line171"
       stroke-width="5.3711"
       stroke="#EF3E69"
       fill="none" /><g
       id="g173"><path
         d="M501.459,231.065h2.006v8.91h-2.006v-3.78h-3.368v3.78h-2.005v-8.91h2.005v3.407h3.368V231.065z"
         id="path175" /><path
         d="M509.008,240.156c-0.627,0-1.166-0.089-1.621-0.264c-0.454-0.176-0.829-0.42-1.125-0.733    c-0.295-0.313-0.514-0.686-0.655-1.118c-0.142-0.434-0.212-0.911-0.212-1.434v-5.542h2.006v5.374c0,0.36,0.04,0.667,0.121,0.92    c0.082,0.252,0.193,0.459,0.335,0.617s0.313,0.271,0.515,0.34c0.201,0.069,0.422,0.104,0.662,0.104c0.488,0,0.885-0.15,1.189-0.45    c0.304-0.3,0.456-0.81,0.456-1.53v-5.374h2.006v5.542c0,0.522-0.073,1.002-0.219,1.439s-0.368,0.813-0.669,1.125    c-0.3,0.313-0.682,0.555-1.145,0.727S509.642,240.156,509.008,240.156z"
         id="path177" /><path
         d="M517.583,240.092c-0.488,0-0.976-0.016-1.459-0.045c-0.484-0.031-0.988-0.102-1.511-0.213v-8.641    c0.411-0.076,0.861-0.135,1.35-0.173s0.943-0.058,1.363-0.058c0.565,0,1.086,0.041,1.563,0.121    c0.475,0.082,0.885,0.221,1.228,0.418s0.61,0.457,0.804,0.778s0.289,0.718,0.289,1.189c0,0.712-0.343,1.272-1.029,1.685    c0.566,0.214,0.952,0.506,1.158,0.874c0.205,0.368,0.309,0.784,0.309,1.247c0,0.935-0.341,1.637-1.022,2.109    C519.942,239.855,518.929,240.092,517.583,240.092z M516.567,234.563h0.978c0.617,0,1.059-0.079,1.324-0.238    c0.266-0.158,0.398-0.413,0.398-0.765c0-0.36-0.137-0.612-0.412-0.759c-0.273-0.146-0.677-0.219-1.208-0.219    c-0.171,0-0.356,0.002-0.553,0.007c-0.197,0.005-0.373,0.015-0.527,0.032V234.563z M516.567,236.093v2.302    c0.146,0.018,0.304,0.029,0.476,0.038s0.36,0.013,0.566,0.013c0.6,0,1.084-0.086,1.453-0.257c0.367-0.171,0.553-0.489,0.553-0.952    c0-0.41-0.154-0.705-0.463-0.881c-0.309-0.175-0.75-0.263-1.324-0.263H516.567z"
         id="path179" /></g><rect
       x="467.896"
       y="193.782"
       width="3.215"
       height="17.179"
       id="rect181"
       fill="#EF3E69" /><rect
       x="547.185"
       y="193.782"
       width="3.215"
       height="17.179"
       id="rect183"
       fill="#EF3E69" /></g><g
     id="g185"><path
       d="M524.401,278.953c0.039,0.137,0.084,0.291,0.132,0.462c0.048,0.172,0.1,0.35,0.155,0.533   c0.055,0.183,0.109,0.366,0.166,0.55s0.112,0.354,0.166,0.51c0.043-0.17,0.088-0.354,0.133-0.555s0.088-0.407,0.128-0.62   c0.04-0.214,0.079-0.426,0.118-0.638c0.038-0.212,0.074-0.416,0.107-0.612h0.811c-0.117,0.58-0.252,1.168-0.404,1.765   c-0.153,0.597-0.318,1.163-0.496,1.7h-0.713c-0.117-0.32-0.23-0.656-0.34-1.008s-0.218-0.704-0.324-1.058   c-0.107,0.354-0.214,0.706-0.32,1.058c-0.107,0.352-0.219,0.688-0.336,1.008h-0.713c-0.178-0.537-0.342-1.104-0.494-1.7   s-0.287-1.185-0.404-1.765h0.845c0.034,0.196,0.07,0.4,0.11,0.612c0.041,0.212,0.082,0.424,0.126,0.638   c0.044,0.213,0.088,0.42,0.134,0.62c0.045,0.2,0.091,0.385,0.138,0.555c0.06-0.163,0.118-0.337,0.175-0.52   c0.057-0.184,0.112-0.367,0.166-0.551c0.053-0.183,0.103-0.359,0.147-0.529s0.086-0.322,0.122-0.455H524.401z"
       id="path187"
       fill="#FFFFFF" /><path
       d="M527.577,278.658c0,0.137-0.045,0.244-0.133,0.322s-0.192,0.117-0.313,0.117   c-0.119,0-0.225-0.039-0.313-0.117s-0.133-0.186-0.133-0.322s0.045-0.244,0.133-0.323c0.088-0.078,0.193-0.117,0.313-0.117   c0.12,0,0.225,0.039,0.313,0.117C527.532,278.414,527.577,278.521,527.577,278.658z M527.507,282.048h-0.744v-2.63h0.744V282.048z"
       id="path189"
       fill="#FFFFFF" /><path
       d="M527.981,280.218h1.451v0.675h-1.451V280.218z"
       id="path191"
       fill="#FFFFFF" /><path
       d="M529.956,282.048v-3.465h2.32v0.655h-1.539v0.725h1.369v0.655h-1.369v1.43H529.956z"
       id="path193"
       fill="#FFFFFF" /><path
       d="M533.593,278.658c0,0.137-0.045,0.244-0.133,0.322s-0.193,0.117-0.313,0.117   c-0.121,0-0.225-0.039-0.313-0.117s-0.133-0.186-0.133-0.322s0.045-0.244,0.133-0.323c0.088-0.078,0.191-0.117,0.313-0.117   c0.119,0,0.225,0.039,0.313,0.117C533.548,278.414,533.593,278.521,533.593,278.658z M533.522,282.048h-0.746v-2.63h0.746V282.048z   "
       id="path195"
       fill="#FFFFFF" /></g><g
     id="g197"><g
       id="g199"><g
         id="g201"><defs
           id="defs203"><polyline
             id="SVGID_1_"
             points="45.794,350.136 45.794,96.994 393.231,96.994 393.231,350.136     " /></defs><clipPath
           id="SVGID_2_"><use
             xlink:href="#SVGID_1_"
             overflow="visible"
             id="use207" /></clipPath><path
           clip-path="url(#SVGID_2_)"
           d="M249.663,303.722h137.943c3.354,0,5.918-2.719,5.918-6.055v-8.793     c0-0.107,0.031-0.186,0.031-0.293V107.282c0-5.668-4.604-10.289-10.273-10.289l0,0H56.086c-5.672,0-10.292,4.62-10.292,10.289     v181.299v0.014v9.072c0,3.336,2.721,6.055,6.055,6.055h133.93"
           id="path209" /><path
           clip-path="url(#SVGID_2_)"
           d="M383.282,289.71H56.086V108.085c0-0.803,0.649-1.452,1.453-1.452h324.275     c0.803,0,1.469,0.649,1.469,1.452V289.71z"
           id="path211"
           fill="#3499CE" /><path
           clip-path="url(#SVGID_2_)"
           d="M383.282,289.71"
           id="path213" /></g></g><rect
       x="368.491"
       y="294.981"
       width="13.906"
       height="5.348"
       id="rect215"
       fill="#FFFFFF" /><line
       stroke-miterlimit="10"
       x1="219.513"
       y1="101.362"
       x2="109.889"
       y2="54.028"
       id="line217"
       stroke-linecap="round"
       stroke-width="4.0114"
       stroke="#000000"
       fill="none" /><line
       stroke-miterlimit="10"
       x1="219.512"
       y1="101.362"
       x2="329.136"
       y2="54.028"
       id="line219"
       stroke-linecap="round"
       stroke-width="4.0114"
       stroke="#000000"
       fill="none" /><circle
       cx="109.889"
       cy="54.027"
       r="4.163"
       id="circle221" /><circle
       cx="327.841"
       cy="54.027"
       r="4.164"
       id="circle223" /><g
       id="g225"><line
         stroke-miterlimit="10"
         x1="267.65"
         y1="297.653"
         x2="267.65"
         y2="338.839"
         id="line227"
         stroke-width="16.0457"
         stroke="#000000"
         fill="none" /><line
         stroke-miterlimit="10"
         x1="171.375"
         y1="297.653"
         x2="171.375"
         y2="338.839"
         id="line229"
         stroke-width="16.0457"
         stroke="#000000"
         fill="none" /><line
         stroke-miterlimit="10"
         x1="123.238"
         y1="338.839"
         x2="315.787"
         y2="338.839"
         id="line231"
         stroke-width="8.0228"
         stroke="#000000"
         fill="none" /></g><rect
       x="84.099"
       y="103.877"
       width="95"
       height="19.688"
       id="rect233"
       fill="none" /></g></svg>