<?xml version="1.0" encoding="utf-8"?>
<!-- Generator: Adobe Illustrator 19.1.0, SVG Export Plug-In . SVG Version: 6.00 Build 0)  -->
<svg version="1.1" id="Camada_1" xmlns="http://www.w3.org/2000/svg" xmlns:xlink="http://www.w3.org/1999/xlink" x="0px" y="0px"
	 viewBox="0 0 200 250" style="enable-background:new 0 0 200 250;" xml:space="preserve">
<style type="text/css">
	.st0{fill:#FFCF00;}
	.st1{fill:#FFE65E;}
	.st2{fill:#FEDB7C;}
	.st3{fill:#AC811A;}
</style>
<rect class="st0" width="200" height="250"/>
<g>
	<g>
		<g>
			<path class="st1" d="M38.3,55v122.7c0,9.5,7.9,17.3,17.5,17.3h87.4c9.7,0,17.5-7.7,17.5-17.3V72.3c-17.5-17.3,0,0-17.5-17.3"/>
			<line class="st2" x1="38.3" y1="55" x2="143.3" y2="55"/>
		</g>
	</g>
	<g>
		<g>
			<g>
				<path class="st3" d="M99.9,128.8c0,0-0.1-0.7-0.3-1.9c-0.1-0.6-0.1-1.3-0.1-2.1c-0.1-0.8-0.1-1.7-0.1-2.7c0-1-0.1-2-0.1-3.1
					c0-1.1,0-2.2,0-3.3c0-1.1-0.1-2.3-0.1-3.4c-0.1-1.1-0.2-2.3-0.3-3.3c-0.1-0.5-0.1-1.1-0.3-1.5l-0.1-0.7l-0.2-0.7
					c-0.3-0.9-0.6-1.7-1-2.4c-0.4-0.7-0.9-1.3-1.4-1.8c-0.6-0.5-1.3-1-2-1.3c-1.5-0.7-3-1.1-4.1-1.2c-0.6-0.1-1-0.1-1.3-0.1
					c-0.3,0-0.5,0-0.5,0c0,0,0.1-0.2,0.3-0.4c0.2-0.2,0.6-0.6,1.2-0.9c1.1-0.7,2.8-1.5,5.2-1.6c1.2,0,2.5,0.1,3.9,0.6
					c1.4,0.5,2.8,1.4,4,2.5c0.3,0.3,0.6,0.6,0.8,0.9c0.3,0.3,0.5,0.7,0.7,1c0.5,0.7,0.8,1.4,1.1,2.2c0.6,1.5,1,3,1.2,4.5
					c0.1,0.8,0.1,1.5,0.2,2.2c0,0.7,0,1.4-0.1,2.2c0,0.7-0.1,1.4-0.2,2.1c-0.1,0.7-0.2,1.3-0.4,2c-0.2,1.3-0.6,2.5-1,3.6
					c-0.4,1.1-0.8,2.1-1.3,3.1c-0.5,0.9-0.9,1.8-1.3,2.5c-0.4,0.7-0.8,1.3-1.2,1.8C100.4,128.2,99.9,128.8,99.9,128.8z"/>
			</g>
			<g>
				<g>
					<path class="st3" d="M97.6,126.2c0,0,0.4-0.6,1.3-1.5c0.4-0.4,0.9-0.9,1.5-1.5c0.6-0.6,1.2-1.2,1.9-1.8
						c0.7-0.7,1.5-1.4,2.3-2.1c0.8-0.7,1.6-1.5,2.5-2.2c0.9-0.8,1.7-1.6,2.5-2.3c0.8-0.8,1.6-1.6,2.3-2.4c0.3-0.4,0.7-0.8,1-1.2
						l0.5-0.6l0.4-0.6c0.5-0.8,0.9-1.5,1.1-2.3c0.2-0.7,0.4-1.5,0.4-2.3c0-0.8-0.1-1.6-0.3-2.4c-0.5-1.6-1.2-3-1.8-3.9
						c-0.3-0.5-0.6-0.9-0.8-1.1c-0.2-0.2-0.3-0.4-0.3-0.4c0,0,0.2-0.1,0.5,0c0.3,0,0.9,0.1,1.5,0.3c1.2,0.4,2.9,1.1,4.6,2.8
						c0.8,0.9,1.6,2,2.2,3.3c0.6,1.4,0.8,3,0.7,4.7c0,0.4-0.1,0.8-0.1,1.2c-0.1,0.4-0.2,0.8-0.3,1.2c-0.2,0.8-0.5,1.6-0.9,2.3
						c-0.7,1.5-1.6,2.7-2.6,3.9c-0.5,0.6-1,1.1-1.6,1.6c-0.5,0.5-1.1,0.9-1.6,1.4c-0.5,0.5-1.1,0.8-1.7,1.2c-0.6,0.4-1.1,0.7-1.7,1
						c-1.1,0.7-2.3,1.1-3.4,1.6c-1.1,0.4-2.2,0.8-3.1,1.1c-1,0.3-1.9,0.5-2.7,0.6c-0.8,0.2-1.5,0.2-2.1,0.3
						C98.4,126.2,97.6,126.2,97.6,126.2z"/>
					<path class="st3" d="M98.7,121.5c0,0,0.6,0.4,1.5,1.2c0.5,0.4,1,0.9,1.6,1.5c0.6,0.6,1.2,1.2,1.9,1.9c0.7,0.7,1.4,1.4,2.1,2.2
						c0.7,0.8,1.5,1.6,2.3,2.4c0.8,0.8,1.6,1.6,2.4,2.5c0.8,0.8,1.6,1.6,2.5,2.2c0.4,0.3,0.8,0.7,1.2,1l0.6,0.4l0.6,0.4
						c0.8,0.5,1.6,0.9,2.3,1.1c0.7,0.2,1.5,0.4,2.3,0.3c0.8,0,1.6-0.1,2.4-0.4c1.6-0.5,3-1.3,3.9-1.9c0.5-0.3,0.9-0.6,1.1-0.8
						c0.2-0.2,0.3-0.4,0.3-0.4c0,0,0.1,0.2,0,0.5c0,0.3-0.1,0.9-0.2,1.5c-0.3,1.2-1.1,3-2.7,4.7c-0.8,0.8-1.9,1.6-3.3,2.2
						c-1.4,0.6-3,0.9-4.6,0.8c-0.4,0-0.8-0.1-1.2-0.1c-0.4-0.1-0.8-0.2-1.2-0.3c-0.8-0.2-1.6-0.5-2.3-0.8c-1.5-0.7-2.8-1.6-3.9-2.5
						c-0.6-0.5-1.1-1-1.6-1.5c-0.5-0.5-0.9-1.1-1.4-1.6c-0.5-0.5-0.8-1.1-1.2-1.7c-0.4-0.6-0.7-1.1-1.1-1.7
						c-0.7-1.1-1.2-2.3-1.7-3.3c-0.5-1.1-0.8-2.1-1.1-3.1c-0.3-1-0.5-1.9-0.7-2.7c-0.2-0.8-0.3-1.5-0.3-2.1
						C98.7,122.2,98.7,121.5,98.7,121.5z"/>
					<path class="st3" d="M102.1,127.6c0,0-0.6-0.4-1.5-1.2c-0.5-0.4-1-0.9-1.6-1.4c-0.6-0.5-1.3-1.2-1.9-1.8
						c-0.7-0.7-1.4-1.4-2.2-2.2c-0.7-0.8-1.5-1.5-2.3-2.4c-0.8-0.8-1.6-1.6-2.4-2.4c-0.8-0.8-1.7-1.5-2.5-2.2
						c-0.4-0.3-0.8-0.7-1.2-0.9l-0.6-0.4l-0.6-0.4c-0.8-0.4-1.6-0.8-2.3-1c-0.8-0.2-1.5-0.3-2.3-0.3c-0.8,0-1.6,0.2-2.4,0.4
						c-1.5,0.5-2.9,1.3-3.8,2c-0.5,0.3-0.8,0.6-1.1,0.8c-0.2,0.2-0.3,0.4-0.3,0.4c0,0-0.1-0.2-0.1-0.5c0-0.3,0-0.9,0.2-1.5
						c0.3-1.2,1-3,2.6-4.7c0.8-0.9,1.9-1.7,3.2-2.3c1.3-0.6,3-1,4.6-0.9c0.4,0,0.8,0,1.2,0.1c0.4,0.1,0.8,0.2,1.2,0.2
						c0.8,0.2,1.6,0.4,2.3,0.8c1.5,0.6,2.8,1.5,4,2.4c0.6,0.5,1.1,1,1.7,1.5c0.5,0.5,1,1.1,1.5,1.6c0.5,0.5,0.9,1.1,1.3,1.6
						c0.4,0.5,0.8,1.1,1.1,1.7c0.7,1.1,1.2,2.2,1.8,3.3c0.5,1.1,0.9,2.1,1.2,3.1c0.3,1,0.6,1.9,0.8,2.7c0.2,0.8,0.3,1.5,0.4,2.1
						C102.1,126.9,102.1,127.6,102.1,127.6z"/>
					<path class="st3" d="M103.1,124.6c0,0-0.5,0.5-1.3,1.4c-0.4,0.4-1,0.9-1.6,1.5c-0.6,0.6-1.3,1.1-2,1.8c-0.7,0.6-1.5,1.3-2.4,2
						c-0.8,0.7-1.7,1.4-2.6,2.1c-0.9,0.7-1.7,1.5-2.6,2.2c-0.8,0.8-1.7,1.5-2.4,2.3c-0.4,0.4-0.7,0.8-1,1.2l-0.5,0.6l-0.4,0.6
						c-0.5,0.8-1,1.5-1.2,2.2c-0.3,0.7-0.4,1.5-0.5,2.2c0,0.8,0,1.6,0.2,2.4c0.4,1.6,1.1,3,1.6,4c0.3,0.5,0.5,0.9,0.7,1.1
						c0.2,0.3,0.3,0.4,0.3,0.4c0,0-0.2,0.1-0.5,0c-0.3,0-0.9-0.1-1.5-0.3c-1.2-0.4-2.9-1.2-4.5-3c-0.8-0.9-1.5-2-2-3.4
						c-0.5-1.4-0.7-3-0.5-4.7c0.1-0.4,0.1-0.8,0.2-1.2c0.1-0.4,0.2-0.8,0.3-1.2c0.2-0.8,0.6-1.5,1-2.3c0.8-1.4,1.7-2.7,2.8-3.8
						c0.5-0.6,1.1-1,1.6-1.5c0.6-0.5,1.1-0.9,1.7-1.3c0.6-0.4,1.2-0.8,1.7-1.1c0.6-0.4,1.2-0.7,1.8-1c1.2-0.6,2.3-1,3.4-1.5
						c1.1-0.4,2.2-0.7,3.2-0.9c1-0.2,1.9-0.4,2.8-0.5c0.8-0.1,1.5-0.2,2.2-0.2C102.4,124.5,103.1,124.6,103.1,124.6z"/>
				</g>
			</g>
			<g>
				<g>
					<path class="st3" d="M97.7,124.7c0,0,0.7-0.1,1.9-0.2c0.6,0,1.3,0,2.1-0.1c0.8,0,1.7,0,2.7,0c1,0,2,0,3.1,0.1
						c1.1,0,2.2,0.1,3.3,0.1c1.1,0,2.3,0,3.4,0.1c1.1,0,2.3-0.1,3.3-0.2c0.5-0.1,1.1-0.1,1.5-0.2l0.7-0.1l0.7-0.2
						c0.9-0.2,1.7-0.5,2.4-0.9c0.7-0.4,1.3-0.8,1.8-1.4c0.5-0.6,1-1.2,1.4-1.9c0.8-1.4,1.2-3,1.4-4.1c0.1-0.6,0.2-1,0.2-1.3
						c0-0.3,0-0.5,0-0.5c0,0,0.2,0.1,0.4,0.3c0.2,0.3,0.6,0.6,0.9,1.2c0.6,1.1,1.4,2.8,1.4,5.2c0,1.2-0.2,2.5-0.8,3.9
						c-0.6,1.4-1.5,2.7-2.7,3.9c-0.3,0.3-0.6,0.5-1,0.8c-0.3,0.2-0.7,0.4-1,0.7c-0.7,0.4-1.5,0.8-2.2,1c-1.5,0.6-3.1,0.9-4.6,1
						c-0.8,0.1-1.5,0.1-2.2,0.1c-0.7,0-1.4-0.1-2.2-0.1c-0.7-0.1-1.4-0.2-2.1-0.3c-0.7-0.1-1.3-0.3-1.9-0.4
						c-1.3-0.3-2.4-0.8-3.5-1.2c-1.1-0.4-2.1-0.9-3-1.4c-0.9-0.5-1.7-1-2.4-1.4c-0.7-0.5-1.3-0.9-1.7-1.3
						C98.2,125.2,97.7,124.7,97.7,124.7z"/>
					<path class="st3" d="M101.7,122.1c0,0,0.1,0.7,0.2,1.9c0,0.6,0,1.3,0.1,2.1c0,0.8,0,1.7,0,2.7c0,1,0,2,0,3.1c0,1.1,0,2.2,0,3.3
						c0,1.1,0,2.3,0,3.4c0,1.1,0.1,2.3,0.2,3.3c0.1,0.5,0.1,1.1,0.2,1.5l0.1,0.7l0.2,0.7c0.3,0.9,0.5,1.7,0.9,2.4
						c0.4,0.7,0.8,1.3,1.4,1.8c0.6,0.5,1.2,1,2,1.4c1.5,0.7,3,1.1,4.1,1.3c0.6,0.1,1,0.2,1.3,0.2c0.3,0,0.5,0,0.5,0
						c0,0-0.1,0.2-0.3,0.4c-0.3,0.2-0.6,0.6-1.2,0.9c-1.1,0.7-2.8,1.4-5.2,1.5c-1.2,0-2.5-0.2-3.9-0.7c-1.4-0.5-2.8-1.4-3.9-2.6
						c-0.3-0.3-0.5-0.6-0.8-0.9c-0.2-0.3-0.5-0.7-0.7-1c-0.4-0.7-0.8-1.4-1.1-2.2c-0.6-1.5-0.9-3.1-1.1-4.6
						c-0.1-0.8-0.1-1.5-0.1-2.2c0-0.7,0.1-1.4,0.1-2.2c0-0.7,0.2-1.4,0.3-2.1c0.1-0.7,0.3-1.3,0.4-2c0.3-1.3,0.7-2.4,1.1-3.6
						c0.4-1.1,0.9-2.1,1.3-3c0.5-0.9,1-1.7,1.4-2.4c0.4-0.7,0.9-1.3,1.2-1.8C101.2,122.6,101.7,122.1,101.7,122.1z"/>
					<path class="st3" d="M101.3,125.7c0,0-0.7,0.1-1.9,0.2c-0.6,0-1.3,0-2.1,0.1c-0.8,0-1.7,0-2.7,0c-1,0-2,0-3.1,0
						c-1.1,0-2.2,0-3.3-0.1c-1.1,0-2.3,0-3.4,0c-1.1,0-2.3,0.1-3.3,0.2c-0.5,0.1-1.1,0.1-1.5,0.2l-0.7,0.1l-0.7,0.2
						c-0.9,0.3-1.7,0.5-2.4,0.9c-0.7,0.4-1.3,0.8-1.8,1.4c-0.5,0.6-1,1.2-1.4,2c-0.7,1.5-1.2,3-1.4,4.1c-0.1,0.6-0.2,1-0.2,1.3
						c0,0.3,0,0.5,0,0.5c0,0-0.2-0.1-0.4-0.3c-0.2-0.3-0.6-0.6-0.9-1.2c-0.7-1.1-1.4-2.8-1.5-5.2c0-1.2,0.2-2.5,0.7-3.9
						c0.5-1.4,1.4-2.8,2.7-3.9c0.3-0.3,0.6-0.5,1-0.8c0.3-0.2,0.7-0.5,1-0.7c0.7-0.4,1.4-0.8,2.2-1.1c1.5-0.6,3.1-0.9,4.6-1.1
						c0.8-0.1,1.5-0.1,2.2-0.1c0.7,0,1.4,0.1,2.2,0.1c0.7,0,1.4,0.2,2.1,0.3c0.7,0.1,1.3,0.3,2,0.4c1.3,0.3,2.4,0.7,3.6,1.1
						c1.1,0.4,2.1,0.9,3,1.4c0.9,0.5,1.7,1,2.4,1.4c0.7,0.4,1.3,0.9,1.8,1.3C100.8,125.2,101.3,125.7,101.3,125.7z"/>
					<path class="st3" d="M99.9,128.8c0,0-0.1-0.7-0.3-1.9c-0.1-0.6-0.1-1.3-0.1-2.1c-0.1-0.8-0.1-1.7-0.1-2.7c0-1-0.1-2-0.1-3.1
						c0-1.1,0-2.2,0-3.3c0-1.1-0.1-2.3-0.1-3.4c-0.1-1.1-0.2-2.3-0.3-3.3c-0.1-0.5-0.1-1.1-0.3-1.5l-0.1-0.7l-0.2-0.7
						c-0.3-0.9-0.6-1.7-1-2.4c-0.4-0.7-0.9-1.3-1.4-1.8c-0.6-0.5-1.3-1-2-1.3c-1.5-0.7-3-1.1-4.1-1.2c-0.6-0.1-1-0.1-1.3-0.1
						c-0.3,0-0.5,0-0.5,0c0,0,0.1-0.2,0.3-0.4c0.2-0.2,0.6-0.6,1.2-0.9c1.1-0.7,2.8-1.5,5.2-1.6c1.2,0,2.5,0.1,3.9,0.6
						c1.4,0.5,2.8,1.4,4,2.5c0.3,0.3,0.6,0.6,0.8,0.9c0.3,0.3,0.5,0.7,0.7,1c0.5,0.7,0.8,1.4,1.1,2.2c0.6,1.5,1,3,1.2,4.5
						c0.1,0.8,0.1,1.5,0.2,2.2c0,0.7,0,1.4-0.1,2.2c0,0.7-0.1,1.4-0.2,2.1c-0.1,0.7-0.2,1.3-0.4,2c-0.2,1.3-0.6,2.5-1,3.6
						c-0.4,1.1-0.8,2.1-1.3,3.1c-0.5,0.9-0.9,1.8-1.3,2.5c-0.4,0.7-0.8,1.3-1.2,1.8C100.4,128.2,99.9,128.8,99.9,128.8z"/>
				</g>
			</g>
		</g>
	</g>
</g>
<g>
</g>
<g>
</g>
<g>
</g>
<g>
</g>
<g>
</g>
<g>
</g>
</svg>
