<?xml version="1.0" encoding="utf-8"?>
<!-- Generator: Adobe Illustrator 19.1.0, SVG Export Plug-In . SVG Version: 6.00 Build 0)  -->
<svg version="1.1" id="Camada_1" xmlns="http://www.w3.org/2000/svg" xmlns:xlink="http://www.w3.org/1999/xlink" x="0px" y="0px"
	 viewBox="-205 297 200 200" style="enable-background:new -205 297 200 200;" xml:space="preserve">
<style type="text/css">
	.st0{fill:none;stroke:#000000;stroke-miterlimit:10;}
</style>
<g>
	<g>
		<path class="st0" d="M-166.7,327v122.7c0,9.5,7.9,17.3,17.5,17.3h87.4c9.7,0,17.5-7.7,17.5-17.3V344.3c-17.5-17.3,0,0-17.5-17.3"
			/>
		<line class="st0" x1="-166.7" y1="327" x2="-61.7" y2="327"/>
	</g>
</g>
<path class="st0" d="M-93.5,403.6c0.7,0.1,1.4,0.2,2.1,0.3c0.8,0,1.5,0.1,2.2,0.1s1.4,0,2.2-0.1c1.5-0.1,3.1-0.4,4.6-1
	c0.7-0.2,1.5-0.6,2.2-1c0.3-0.3,0.7-0.5,1-0.7c0.4-0.3,0.7-0.5,1-0.8c1.2-1.2,2.1-2.5,2.7-3.9c0.6-1.4,0.8-2.7,0.8-3.9
	c0-2.4-0.8-4.1-1.4-5.2c-0.3-0.6-0.7-0.9-0.9-1.2c-0.2-0.2-0.4-0.3-0.4-0.3s0,0.2,0,0.5c0,0.3-0.1,0.7-0.2,1.3
	c-0.2,1.1-0.6,2.7-1.4,4.1c-0.4,0.7-0.9,1.3-1.4,1.9c-0.5,0.6-1.1,1-1.8,1.4c-0.7,0.4-1.5,0.7-2.4,0.9l-0.7,0.2l-0.7,0.1
	c-0.4,0.1-1,0.1-1.5,0.2c-1,0.1-2.2,0.2-3.3,0.2c-1.1-0.1-2.3-0.1-3.4-0.1c-1.1,0-2.2-0.1-3.3-0.1c-0.3,0-0.5,0-0.8,0
	c0.3-0.1,0.7-0.2,1-0.4c1.1-0.5,2.3-0.9,3.4-1.6c0.6-0.3,1.1-0.6,1.7-1c0.6-0.4,1.2-0.7,1.7-1.2s1.1-0.9,1.6-1.4
	c0.6-0.5,1.1-1,1.6-1.6c1-1.2,1.9-2.4,2.6-3.9c0.4-0.7,0.7-1.5,0.9-2.3c0.1-0.4,0.2-0.8,0.3-1.2c0-0.4,0.1-0.8,0.1-1.2
	c0.1-1.7-0.1-3.3-0.7-4.7c-0.6-1.3-1.4-2.4-2.2-3.3c-1.7-1.7-3.4-2.4-4.6-2.8c-0.6-0.2-1.2-0.3-1.5-0.3c-0.3-0.1-0.5,0-0.5,0
	s0.1,0.2,0.3,0.4s0.5,0.6,0.8,1.1c0.6,0.9,1.3,2.3,1.8,3.9c0.2,0.8,0.3,1.6,0.3,2.4c0,0.8-0.2,1.6-0.4,2.3c-0.2,0.8-0.6,1.5-1.1,2.3
	l-0.4,0.6l-0.5,0.6c-0.3,0.4-0.7,0.8-1,1.2c-0.7,0.8-1.5,1.6-2.3,2.4c-0.8,0.7-1.6,1.5-2.5,2.3c-0.6,0.5-1.1,0.9-1.6,1.4
	c0.2-0.6,0.3-1.3,0.4-1.9c0.2-0.7,0.3-1.3,0.4-2c0.1-0.7,0.2-1.4,0.2-2.1c0.1-0.8,0.1-1.5,0.1-2.2c-0.1-0.7-0.1-1.4-0.2-2.2
	c-0.2-1.5-0.6-3-1.2-4.5c-0.3-0.8-0.6-1.5-1.1-2.2c-0.2-0.3-0.4-0.7-0.7-1c-0.2-0.3-0.5-0.6-0.8-0.9c-1.2-1.1-2.6-2-4-2.5
	c-1.4-0.5-2.7-0.6-3.9-0.6c-2.4,0.1-4.1,0.9-5.2,1.6c-0.6,0.3-1,0.7-1.2,0.9c-0.2,0.2-0.3,0.4-0.3,0.4s0.2,0,0.5,0s0.7,0,1.3,0.1
	c1.1,0.1,2.6,0.5,4.1,1.2c0.7,0.3,1.4,0.8,2,1.3c0.5,0.5,1,1.1,1.4,1.8c0.4,0.7,0.7,1.5,1,2.4l0.2,0.7l0.1,0.7
	c0.2,0.4,0.2,1,0.3,1.5c0.1,1,0.2,2.2,0.3,3.3c0,1.1,0.1,2.3,0.1,3.4c0,0.5,0,1,0,1.4c-0.4-0.8-0.9-1.7-1.4-2.5
	c-0.3-0.6-0.7-1.2-1.1-1.7s-0.8-1.1-1.3-1.6s-1-1.1-1.5-1.6c-0.6-0.5-1.1-1-1.7-1.5c-1.2-0.9-2.5-1.8-4-2.4
	c-0.7-0.4-1.5-0.6-2.3-0.8c-0.4,0-0.8-0.1-1.2-0.2s-0.8-0.1-1.2-0.1c-1.6-0.1-3.3,0.3-4.6,0.9c-1.3,0.6-2.4,1.4-3.2,2.3
	c-1.6,1.7-2.3,3.5-2.6,4.7c-0.2,0.6-0.2,1.2-0.2,1.5c0,0.3,0.1,0.5,0.1,0.5s0.1-0.2,0.3-0.4c0.3-0.2,0.6-0.5,1.1-0.8
	c0.9-0.7,2.3-1.5,3.8-2c0.8-0.2,1.6-0.4,2.4-0.4s1.5,0.1,2.3,0.3c0.7,0.2,1.5,0.6,2.3,1l0.6,0.4l0.6,0.4c0.4,0.2,0.8,0.6,1.2,0.9
	c0.8,0.7,1.7,1.4,2.5,2.2c0.8,0.8,1.6,1.6,2.4,2.4c0.8,0.9,1.6,1.6,2.3,2.4c0.2,0.2,0.4,0.4,0.6,0.6c-0.8-0.4-1.6-0.8-2.6-1.2
	c-1.2-0.4-2.3-0.8-3.6-1.1c-0.7-0.1-1.3-0.3-2-0.4c-0.7-0.1-1.4-0.3-2.1-0.3c-0.8,0-1.5-0.1-2.2-0.1s-1.4,0-2.2,0.1
	c-1.5,0.2-3.1,0.5-4.6,1.1c-0.8,0.3-1.5,0.7-2.2,1.1c-0.3,0.2-0.7,0.5-1,0.7c-0.4,0.3-0.7,0.5-1,0.8c-1.3,1.1-2.2,2.5-2.7,3.9
	c-0.5,1.4-0.7,2.7-0.7,3.9c0.1,2.4,0.8,4.1,1.5,5.2c0.3,0.6,0.7,0.9,0.9,1.2c0.2,0.2,0.4,0.3,0.4,0.3s0-0.2,0-0.5s0.1-0.7,0.2-1.3
	c0.2-1.1,0.7-2.6,1.4-4.1c0.4-0.8,0.9-1.4,1.4-2c0.5-0.6,1.1-1,1.8-1.4c0.7-0.4,1.5-0.6,2.4-0.9l0.7-0.2l0.7-0.1
	c0.4-0.1,1-0.1,1.5-0.2c1-0.1,2.2-0.2,3.3-0.2c1.1,0,2.3,0,3.4,0c1.1,0.1,2.2,0.1,3.3,0.1c0.8,0,1.6,0,2.3,0
	c-0.3,0.1-0.6,0.2-0.9,0.3c-1.1,0.5-2.2,0.9-3.4,1.5c-0.6,0.3-1.2,0.6-1.8,1c-0.5,0.3-1.1,0.7-1.7,1.1c-0.6,0.4-1.1,0.8-1.7,1.3
	c-0.5,0.5-1.1,0.9-1.6,1.5c-1.1,1.1-2,2.4-2.8,3.8c-0.4,0.8-0.8,1.5-1,2.3c-0.1,0.4-0.2,0.8-0.3,1.2c-0.1,0.4-0.1,0.8-0.2,1.2
	c-0.2,1.7,0,3.3,0.5,4.7c0.5,1.4,1.2,2.5,2,3.4c1.6,1.8,3.3,2.6,4.5,3c0.6,0.2,1.2,0.3,1.5,0.3c0.3,0.1,0.5,0,0.5,0
	s-0.1-0.1-0.3-0.4c-0.2-0.2-0.4-0.6-0.7-1.1c-0.5-1-1.2-2.4-1.6-4c-0.2-0.8-0.2-1.6-0.2-2.4c0.1-0.7,0.2-1.5,0.5-2.2
	c0.2-0.7,0.7-1.4,1.2-2.2l0.4-0.6l0.5-0.6c0.3-0.4,0.6-0.8,1-1.2c0.7-0.8,1.6-1.5,2.4-2.3c0.9-0.7,1.7-1.5,2.6-2.2
	c0.9-0.7,1.8-1.4,2.6-2.1c0.2-0.2,0.4-0.3,0.6-0.5c-0.4,1.1-0.8,2.2-1,3.4c-0.1,0.7-0.3,1.3-0.4,2c-0.1,0.7-0.3,1.4-0.3,2.1
	c0,0.8-0.1,1.5-0.1,2.2c0,0.7,0,1.4,0.1,2.2c0.2,1.5,0.5,3.1,1.1,4.6c0.3,0.8,0.7,1.5,1.1,2.2c0.2,0.3,0.5,0.7,0.7,1
	c0.3,0.3,0.5,0.6,0.8,0.9c1.1,1.2,2.5,2.1,3.9,2.6s2.7,0.7,3.9,0.7c2.4-0.1,4.1-0.8,5.2-1.5c0.6-0.3,0.9-0.7,1.2-0.9
	c0.2-0.2,0.3-0.4,0.3-0.4s-0.2,0-0.5,0c-0.3,0-0.7-0.1-1.3-0.2c-1.1-0.2-2.6-0.6-4.1-1.3c-0.8-0.4-1.4-0.9-2-1.4
	c-0.6-0.5-1-1.1-1.4-1.8c-0.4-0.7-0.6-1.5-0.9-2.4l-0.2-0.7l-0.1-0.7c-0.1-0.4-0.1-1-0.2-1.5c-0.1-1-0.2-2.2-0.2-3.3
	c0-1.1,0-2.3,0-3.4c0-0.8,0-1.6,0-2.4c0.3,0.6,0.6,1.2,1,1.8c0.4,0.6,0.7,1.1,1.1,1.7c0.4,0.6,0.7,1.2,1.2,1.7s0.9,1.1,1.4,1.6
	s1,1,1.6,1.5c1.1,0.9,2.4,1.8,3.9,2.5c0.7,0.3,1.5,0.6,2.3,0.8c0.4,0.1,0.8,0.2,1.2,0.3c0.4,0,0.8,0.1,1.2,0.1
	c1.6,0.1,3.2-0.2,4.6-0.8c1.4-0.6,2.5-1.4,3.3-2.2c1.6-1.7,2.4-3.5,2.7-4.7c0.1-0.6,0.2-1.2,0.2-1.5c0.1-0.3,0-0.5,0-0.5
	s-0.1,0.2-0.3,0.4c-0.2,0.2-0.6,0.5-1.1,0.8c-0.9,0.6-2.3,1.4-3.9,1.9c-0.8,0.3-1.6,0.4-2.4,0.4c-0.8,0.1-1.6-0.1-2.3-0.3
	s-1.5-0.6-2.3-1.1l-0.6-0.4l-0.6-0.4c-0.4-0.3-0.8-0.7-1.2-1c-0.9-0.6-1.7-1.4-2.5-2.2c-0.8-0.9-1.6-1.6-2.3-2.4
	c0.5,0.2,0.9,0.3,1.4,0.4C-94.8,403.3-94.2,403.5-93.5,403.6z"/>
</svg>
