<?xml version="1.0" encoding="utf-8"?>
<!-- Generator: Adobe Illustrator 16.0.0, SVG Export Plug-In . SVG Version: 6.00 Build 0)  -->
<!DOCTYPE svg PUBLIC "-//W3C//DTD SVG 1.1//EN" "http://www.w3.org/Graphics/SVG/1.1/DTD/svg11.dtd">
<svg version="1.1" id="Layer_1" xmlns="http://www.w3.org/2000/svg" xmlns:xlink="http://www.w3.org/1999/xlink" x="0px" y="0px"
	 width="900px" height="480px" viewBox="0 0 900 480" enable-background="new 0 0 900 480" xml:space="preserve">
<g>
	<rect x="574.677" y="123.07" fill="#171617" stroke="#000000" stroke-miterlimit="10" width="34" height="22.666"/>
	<g>
		<path fill="#FFFFFF" d="M582.447,136.545v-6.236h4.213v1.178h-2.809v1.225h2.494v1.152h-2.494v1.502h3.016v1.18H582.447z"/>
		<path fill="#FFFFFF" d="M589.558,130.309c0.107,0.197,0.232,0.441,0.373,0.732c0.143,0.291,0.289,0.606,0.443,0.945
			c0.152,0.34,0.305,0.686,0.455,1.039c0.15,0.354,0.291,0.688,0.424,1c0.133-0.313,0.273-0.646,0.424-1
			c0.15-0.354,0.303-0.699,0.457-1.039c0.152-0.339,0.301-0.654,0.441-0.945s0.266-0.535,0.375-0.732h1.277
			c0.061,0.413,0.115,0.877,0.166,1.39c0.053,0.513,0.098,1.048,0.137,1.603s0.074,1.111,0.107,1.669s0.061,1.083,0.086,1.575
			h-1.369c-0.018-0.605-0.041-1.266-0.072-1.98c-0.029-0.713-0.074-1.434-0.135-2.16c-0.107,0.252-0.229,0.531-0.361,0.838
			c-0.131,0.306-0.264,0.611-0.393,0.918c-0.129,0.306-0.254,0.598-0.375,0.877c-0.119,0.279-0.223,0.518-0.307,0.716h-0.98
			c-0.084-0.198-0.188-0.437-0.307-0.716c-0.121-0.279-0.246-0.571-0.375-0.877c-0.129-0.307-0.26-0.612-0.393-0.918
			c-0.133-0.307-0.254-0.586-0.361-0.838c-0.061,0.727-0.105,1.447-0.135,2.16c-0.031,0.715-0.055,1.375-0.072,1.98h-1.367
			c0.023-0.492,0.051-1.018,0.084-1.575s0.07-1.114,0.109-1.669s0.084-1.09,0.135-1.603s0.105-0.977,0.166-1.39H589.558z"/>
		<path fill="#FFFFFF" d="M598.818,136.671c-1.014,0-1.787-0.282-2.316-0.847c-0.531-0.563-0.797-1.364-0.797-2.402
			c0-0.516,0.08-0.977,0.242-1.381c0.162-0.406,0.385-0.748,0.666-1.026c0.283-0.279,0.619-0.491,1.008-0.635
			c0.391-0.144,0.814-0.216,1.27-0.216c0.264,0,0.504,0.02,0.721,0.059c0.215,0.039,0.404,0.084,0.566,0.135
			s0.297,0.104,0.404,0.158c0.109,0.053,0.186,0.096,0.234,0.125l-0.404,1.135c-0.193-0.103-0.416-0.189-0.672-0.262
			c-0.254-0.072-0.543-0.107-0.867-0.107c-0.217,0-0.428,0.035-0.635,0.107s-0.391,0.188-0.549,0.347
			c-0.16,0.159-0.287,0.364-0.383,0.616s-0.145,0.559-0.145,0.918c0,0.289,0.031,0.557,0.096,0.806
			c0.063,0.249,0.164,0.464,0.305,0.644s0.326,0.322,0.555,0.428c0.227,0.105,0.504,0.157,0.828,0.157
			c0.203,0,0.387-0.012,0.549-0.036c0.162-0.023,0.305-0.053,0.432-0.085c0.125-0.033,0.236-0.071,0.332-0.112
			c0.098-0.043,0.184-0.082,0.262-0.117l0.387,1.125c-0.197,0.12-0.477,0.229-0.836,0.324
			C599.708,136.623,599.292,136.671,598.818,136.671z"/>
	</g>
</g>
<line fill="none" stroke="#3499CE" stroke-width="5" stroke-miterlimit="10" x1="414.97" y1="205.484" x2="522.558" y2="205.484"/>
<g>
	<polygon fill="#3499CE" points="514.625,207.984 516.062,209.173 522.558,209.173 522.558,201.796 516.062,201.796 514.625,203 	
		"/>
	<g>
		<polygon fill="#3499CE" stroke="#1E314B" stroke-miterlimit="10" points="547.906,214.357 529.488,214.357 522.558,212.357 
			522.558,198.612 529.466,196.612 547.906,196.612 		"/>
		<g>
			<path fill="#FFFFFF" d="M533.08,201.264v0.78h-3.465v-0.78h1.471v-1.31h-1.471v-0.78h3.465v0.78h-1.324v1.31H533.08z"/>
			<path fill="#FFFFFF" d="M531.351,205.879c-0.301,0-0.563-0.047-0.785-0.141c-0.225-0.093-0.408-0.225-0.557-0.396
				c-0.146-0.172-0.256-0.381-0.328-0.628c-0.074-0.247-0.111-0.523-0.111-0.83c0-0.14,0.006-0.303,0.018-0.49
				c0.012-0.187,0.035-0.37,0.072-0.55h3.375c0.033,0.18,0.057,0.368,0.068,0.563c0.012,0.195,0.018,0.363,0.018,0.502
				c0,0.296-0.033,0.566-0.1,0.808c-0.068,0.241-0.172,0.449-0.316,0.622c-0.143,0.173-0.326,0.307-0.549,0.399
				C531.931,205.832,531.664,205.879,531.351,205.879z M530.25,203.624c-0.002,0.037-0.006,0.079-0.006,0.127
				c-0.002,0.048-0.004,0.105-0.004,0.172c0,0.391,0.1,0.68,0.295,0.867c0.197,0.188,0.469,0.283,0.816,0.283
				c0.363,0,0.637-0.09,0.824-0.271c0.188-0.18,0.279-0.465,0.279-0.855c0-0.053,0-0.108-0.002-0.165s-0.006-0.11-0.012-0.16H530.25
				z"/>
			<path fill="#FFFFFF" d="M533.08,207.449c-0.109,0.061-0.246,0.129-0.406,0.207c-0.162,0.08-0.338,0.162-0.525,0.246
				c-0.189,0.086-0.381,0.17-0.578,0.254s-0.381,0.162-0.555,0.236c0.174,0.072,0.357,0.152,0.555,0.234
				c0.197,0.084,0.389,0.17,0.578,0.254c0.188,0.086,0.363,0.168,0.525,0.246c0.16,0.078,0.297,0.148,0.406,0.209v0.709
				c-0.229,0.033-0.486,0.064-0.771,0.092c-0.285,0.029-0.582,0.055-0.891,0.076s-0.617,0.041-0.928,0.061
				c-0.309,0.018-0.602,0.033-0.875,0.047v-0.76c0.338-0.01,0.703-0.023,1.1-0.041c0.398-0.016,0.797-0.041,1.201-0.074
				c-0.141-0.061-0.295-0.127-0.465-0.201c-0.17-0.072-0.34-0.146-0.51-0.219c-0.17-0.07-0.334-0.141-0.488-0.207
				s-0.287-0.125-0.396-0.172v-0.545c0.109-0.047,0.242-0.104,0.396-0.17c0.154-0.068,0.318-0.137,0.488-0.209
				s0.34-0.145,0.51-0.219c0.17-0.072,0.324-0.14,0.465-0.2c-0.404-0.033-0.803-0.058-1.201-0.075
				c-0.396-0.016-0.762-0.029-1.1-0.039v-0.761c0.273,0.014,0.566,0.029,0.875,0.048c0.311,0.018,0.619,0.038,0.928,0.061
				c0.309,0.021,0.605,0.046,0.891,0.074s0.543,0.059,0.771,0.093V207.449z"/>
			<path fill="#FFFFFF" d="M533.08,211.016v0.779h-3.465v-0.779H533.08z"/>
		</g>
	</g>
	<line fill="none" stroke="#1E314B" stroke-miterlimit="10" x1="521.062" y1="201.796" x2="521.062" y2="209.173"/>
	<line fill="none" stroke="#1E314B" stroke-miterlimit="10" x1="519.562" y1="201.796" x2="519.562" y2="209.173"/>
	<line fill="none" stroke="#1E314B" stroke-miterlimit="10" x1="518.062" y1="201.796" x2="518.062" y2="209.173"/>
	<line fill="none" stroke="#1E314B" stroke-miterlimit="10" x1="516.562" y1="201.796" x2="516.562" y2="209.173"/>
</g>
<g>
	<line fill="none" stroke="#FDCF12" stroke-width="5" stroke-miterlimit="10" x1="569.949" y1="480" x2="569.949" y2="281.447"/>
</g>
<g>
	<polygon fill="#FDCF12" points="566.707,287.891 563.707,279.92 576.191,279.92 573.191,287.891 	"/>
	<polygon fill="#FDCF12" stroke="#F8993D" stroke-width="0.869" stroke-miterlimit="10" points="562.707,266.492 577.191,266.492 
		577.191,277.891 576.191,279.92 563.707,279.92 562.707,277.891 	"/>
	<path fill="#FDCF12" stroke="#F8993D" stroke-width="0.869" stroke-miterlimit="10" d="M562.707,278.004"/>
	
		<line fill="none" stroke="#F8993D" stroke-width="0.8801" stroke-miterlimit="10" x1="576.191" y1="281.379" x2="563.691" y2="281.379"/>
	
		<line fill="none" stroke="#F8993D" stroke-width="0.903" stroke-miterlimit="10" x1="575.441" y1="282.879" x2="564.441" y2="282.879"/>
	
		<line fill="none" stroke="#F8993D" stroke-width="0.9361" stroke-miterlimit="10" x1="574.691" y1="284.379" x2="565.191" y2="284.379"/>
	
		<line fill="none" stroke="#F8993D" stroke-width="0.8854" stroke-miterlimit="10" x1="574.191" y1="285.879" x2="565.691" y2="285.879"/>
	<rect x="566.318" y="287.059" fill="#F8993D" width="7.186" height="3.486"/>
</g>
<polyline fill="none" stroke="#9A6799" stroke-width="3" stroke-miterlimit="10" points="561.949,132.889 561.949,87.819 
	420.941,87.819 "/>
<g>
	<polygon fill="#9A6799" points="560.441,123.517 559.044,131.487 564.851,131.487 563.457,123.517 	"/>
	<polygon fill="#9A6799" stroke="#674566" stroke-width="0.75" stroke-miterlimit="10" points="558.58,144.915 565.316,144.915 
		565.316,133.516 564.851,131.487 559.044,131.487 558.58,133.516 	"/>
	<path fill="#FDCF12" stroke="#F8993D" stroke-width="0.5926" stroke-miterlimit="10" d="M558.58,133.403"/>
	
		<line fill="none" stroke="#674566" stroke-width="0.75" stroke-miterlimit="10" x1="564.851" y1="130.028" x2="559.037" y2="130.028"/>
	
		<line fill="none" stroke="#674566" stroke-width="0.75" stroke-miterlimit="10" x1="564.501" y1="128.528" x2="559.386" y2="128.528"/>
	
		<line fill="none" stroke="#674566" stroke-width="0.75" stroke-miterlimit="10" x1="564.154" y1="127.028" x2="559.736" y2="127.028"/>
	
		<line fill="none" stroke="#674566" stroke-width="0.75" stroke-miterlimit="10" x1="563.921" y1="125.528" x2="559.968" y2="125.528"/>
	<rect x="560.259" y="120.862" fill="#674566" width="3.342" height="3.486"/>
</g>
<g>
	<polygon fill="#72C59B" stroke="#579876" stroke-miterlimit="10" points="608.105,290.109 590.677,290.109 592.677,270.928 
		606.105,270.928 	"/>
	<g>
		<g>
			<g>
				<path fill="none" stroke="#579876" stroke-width="2" stroke-miterlimit="10" d="M608.947,300.532
					c-5.281,5.28-13.83,5.28-19.113,0"/>
				<path fill="none" stroke="#579876" stroke-width="2" stroke-miterlimit="10" d="M606.449,298.032
					c-3.902,3.899-10.215,3.899-14.115,0"/>
				<path fill="none" stroke="#579876" stroke-width="2" stroke-miterlimit="10" d="M603.521,295.34
					c-2.281,2.283-5.979,2.283-8.262,0"/>
			</g>
		</g>
	</g>
</g>
<g>
	
		<rect x="536.934" y="151.727" fill="#FFFFFF" stroke="#EF426A" stroke-width="0.5" stroke-miterlimit="10" width="87.503" height="112.091"/>
	<g>
		<g>
			<g>
				<path fill="#010101" stroke="#FFFFFF" stroke-width="0.2061" stroke-miterlimit="10" d="M580.328,198.525"/>
			</g>
			<g>
				<path fill="#010101" stroke="#FFFFFF" stroke-width="0.2061" stroke-miterlimit="10" d="M580.328,198.525"/>
			</g>
			<g>
				<path fill="#010101" stroke="#FFFFFF" stroke-width="0.2061" stroke-miterlimit="10" d="M580.328,198.525"/>
			</g>
			<g>
				<path fill="#010101" stroke="#FFFFFF" stroke-width="0.2061" stroke-miterlimit="10" d="M580.328,198.525"/>
			</g>
		</g>
		<polyline fill="#3499CE" points="606.085,213.336 593.207,221.062 580.33,228.789 580.33,213.336 580.33,197.882 		"/>
		<polyline fill="#9A6799" points="606.085,213.336 606.085,197.882 606.085,182.428 593.222,190.155 580.33,197.882 		"/>
		<polyline fill="#F8993D" points="580.332,166.974 567.451,174.701 554.572,182.428 567.453,190.155 580.332,197.882 		"/>
		<polyline fill="#EF4069" points="580.33,166.974 593.207,174.701 606.085,182.428 593.207,190.155 580.33,197.882 		"/>
		<polyline fill="#FDCF12" points="554.572,213.336 567.453,221.062 580.332,228.789 580.332,213.336 580.332,197.882 		"/>
		<polyline fill="#72C59B" points="554.574,213.336 554.574,197.882 554.574,182.428 567.451,190.155 580.33,197.882 		"/>
		<g>
			<g>
				<g>
					
						<line fill="none" stroke="#FFFFFF" stroke-width="0.6182" stroke-miterlimit="10" x1="580.333" y1="166.974" x2="580.333" y2="167.695"/>
					
						<line fill="none" stroke="#FFFFFF" stroke-width="0.6182" stroke-miterlimit="10" stroke-dasharray="1.4031,1.4031" x1="580.333" y1="169.098" x2="580.328" y2="196.459"/>
					
						<line fill="none" stroke="#FFFFFF" stroke-width="0.6182" stroke-miterlimit="10" x1="580.328" y1="197.161" x2="580.328" y2="197.882"/>
				</g>
			</g>
			<g>
				<g>
					
						<line fill="none" stroke="#FFFFFF" stroke-width="0.6182" stroke-miterlimit="10" x1="580.328" y1="197.882" x2="580.946" y2="198.253"/>
					
						<line fill="none" stroke="#FFFFFF" stroke-width="0.6182" stroke-miterlimit="10" stroke-dasharray="1.505,1.505" x1="582.237" y1="199.027" x2="604.822" y2="212.578"/>
					
						<line fill="none" stroke="#FFFFFF" stroke-width="0.6182" stroke-miterlimit="10" x1="605.467" y1="212.965" x2="606.085" y2="213.336"/>
				</g>
			</g>
			<g>
				<g>
					
						<line fill="none" stroke="#FFFFFF" stroke-width="0.6182" stroke-miterlimit="10" x1="580.328" y1="197.882" x2="579.709" y2="198.253"/>
					
						<line fill="none" stroke="#FFFFFF" stroke-width="0.6182" stroke-miterlimit="10" stroke-dasharray="1.505,1.505" x1="578.418" y1="199.027" x2="555.835" y2="212.578"/>
					
						<line fill="none" stroke="#FFFFFF" stroke-width="0.6182" stroke-miterlimit="10" x1="555.19" y1="212.965" x2="554.572" y2="213.336"/>
				</g>
			</g>
		</g>
		<g>
			
				<line fill="none" stroke="#FFFFFF" stroke-width="0.6182" stroke-miterlimit="10" x1="580.333" y1="228.789" x2="580.328" y2="197.882"/>
			
				<line fill="none" stroke="#FFFFFF" stroke-width="0.6182" stroke-miterlimit="10" x1="580.328" y1="197.882" x2="606.085" y2="182.428"/>
			
				<line fill="none" stroke="#FFFFFF" stroke-width="0.6182" stroke-miterlimit="10" x1="580.328" y1="197.882" x2="554.572" y2="182.428"/>
		</g>
	</g>
	
		<rect x="541.935" y="266.846" fill="#FFFFFF" stroke="#EF426A" stroke-width="0.5" stroke-miterlimit="10" width="77.145" height="6.287"/>
	
		<rect x="541.935" y="142.556" fill="#FFFFFF" stroke="#EF426A" stroke-width="0.5" stroke-miterlimit="10" width="77.145" height="6.287"/>
	
		<line fill="none" stroke="#EF4069" stroke-width="5.3711" stroke-miterlimit="10" x1="535.232" y1="149.194" x2="625.894" y2="149.194"/>
	
		<line fill="none" stroke="#EF4069" stroke-width="5.3711" stroke-miterlimit="10" x1="535.232" y1="266.353" x2="625.894" y2="266.353"/>
	<g>
		<path fill="#010101" d="M573.147,235.163h2.006v8.91h-2.006v-3.78h-3.368v3.78h-2.005v-8.91h2.005v3.407h3.368V235.163z"/>
		<path fill="#010101" d="M580.696,244.254c-0.627,0-1.166-0.089-1.621-0.264c-0.454-0.176-0.829-0.42-1.125-0.733
			c-0.295-0.313-0.514-0.686-0.655-1.118c-0.142-0.434-0.212-0.911-0.212-1.434v-5.542h2.006v5.374c0,0.36,0.04,0.667,0.121,0.92
			c0.082,0.252,0.193,0.459,0.335,0.617s0.313,0.271,0.515,0.34c0.201,0.069,0.422,0.104,0.662,0.104c0.488,0,0.885-0.15,1.189-0.45
			c0.304-0.3,0.456-0.81,0.456-1.53v-5.374h2.006v5.542c0,0.522-0.073,1.002-0.219,1.439s-0.368,0.813-0.669,1.125
			c-0.3,0.313-0.682,0.555-1.145,0.727S581.33,244.254,580.696,244.254z"/>
		<path fill="#010101" d="M589.271,244.189c-0.488,0-0.976-0.016-1.459-0.045c-0.484-0.031-0.988-0.102-1.511-0.213v-8.641
			c0.411-0.076,0.861-0.135,1.35-0.173s0.943-0.058,1.363-0.058c0.565,0,1.086,0.041,1.563,0.121
			c0.475,0.082,0.885,0.221,1.228,0.418s0.61,0.457,0.804,0.778s0.289,0.718,0.289,1.189c0,0.712-0.343,1.272-1.029,1.685
			c0.566,0.214,0.952,0.506,1.158,0.874c0.205,0.368,0.309,0.784,0.309,1.247c0,0.935-0.341,1.637-1.022,2.109
			C591.63,243.953,590.617,244.189,589.271,244.189z M588.255,238.66h0.978c0.617,0,1.059-0.079,1.324-0.238
			c0.266-0.158,0.398-0.413,0.398-0.765c0-0.36-0.137-0.612-0.412-0.759c-0.273-0.146-0.677-0.219-1.208-0.219
			c-0.171,0-0.356,0.002-0.553,0.007c-0.197,0.005-0.373,0.015-0.527,0.032V238.66z M588.255,240.19v2.302
			c0.146,0.018,0.304,0.029,0.476,0.038s0.36,0.013,0.566,0.013c0.6,0,1.084-0.086,1.453-0.257c0.367-0.171,0.553-0.489,0.553-0.952
			c0-0.41-0.154-0.705-0.463-0.881c-0.309-0.175-0.75-0.263-1.324-0.263H588.255z"/>
	</g>
	<rect x="539.583" y="197.88" fill="#EF4069" width="3.215" height="17.179"/>
	<rect x="618.873" y="197.88" fill="#EF4069" width="3.215" height="17.179"/>
</g>
<g>
	<path fill="#FFFFFF" d="M596.089,283.051c0.039,0.137,0.084,0.291,0.132,0.462c0.048,0.172,0.1,0.35,0.155,0.533
		c0.055,0.183,0.109,0.366,0.166,0.55s0.112,0.354,0.166,0.51c0.043-0.17,0.088-0.354,0.133-0.555s0.088-0.407,0.128-0.62
		c0.04-0.214,0.079-0.426,0.118-0.638c0.038-0.212,0.074-0.416,0.107-0.612h0.811c-0.117,0.58-0.252,1.168-0.404,1.765
		c-0.153,0.597-0.318,1.163-0.496,1.7h-0.713c-0.117-0.32-0.23-0.656-0.34-1.008s-0.218-0.704-0.324-1.058
		c-0.107,0.354-0.214,0.706-0.32,1.058c-0.107,0.352-0.219,0.688-0.336,1.008h-0.713c-0.178-0.537-0.342-1.104-0.494-1.7
		s-0.287-1.185-0.404-1.765h0.845c0.034,0.196,0.07,0.4,0.11,0.612c0.041,0.212,0.082,0.424,0.126,0.638
		c0.044,0.213,0.088,0.42,0.134,0.62c0.045,0.2,0.091,0.385,0.138,0.555c0.06-0.163,0.118-0.337,0.175-0.52
		c0.057-0.184,0.112-0.367,0.166-0.551c0.053-0.183,0.103-0.359,0.147-0.529s0.086-0.322,0.122-0.455H596.089z"/>
	<path fill="#FFFFFF" d="M599.265,282.756c0,0.137-0.045,0.244-0.133,0.322s-0.192,0.117-0.313,0.117
		c-0.119,0-0.225-0.039-0.313-0.117s-0.133-0.186-0.133-0.322s0.045-0.244,0.133-0.323c0.088-0.078,0.193-0.117,0.313-0.117
		c0.12,0,0.225,0.039,0.313,0.117C599.22,282.512,599.265,282.619,599.265,282.756z M599.195,286.146h-0.744v-2.63h0.744V286.146z"
		/>
	<path fill="#FFFFFF" d="M599.669,284.315h1.451v0.675h-1.451V284.315z"/>
	<path fill="#FFFFFF" d="M601.644,286.146v-3.465h2.32v0.655h-1.539v0.725h1.369v0.655h-1.369v1.43H601.644z"/>
	<path fill="#FFFFFF" d="M605.281,282.756c0,0.137-0.045,0.244-0.133,0.322s-0.193,0.117-0.313,0.117
		c-0.121,0-0.225-0.039-0.313-0.117s-0.133-0.186-0.133-0.322s0.045-0.244,0.133-0.323c0.088-0.078,0.191-0.117,0.313-0.117
		c0.119,0,0.225,0.039,0.313,0.117C605.236,282.512,605.281,282.619,605.281,282.756z M605.21,286.146h-0.746v-2.63h0.746V286.146z"
		/>
</g>
<g>
	<g>
		<g>
			<defs>
				<polyline id="SVGID_1_" points="76.71,324.233 76.71,71.091 424.147,71.091 424.147,324.233 				"/>
			</defs>
			<clipPath id="SVGID_2_">
				<use xlink:href="#SVGID_1_"  overflow="visible"/>
			</clipPath>
			<path clip-path="url(#SVGID_2_)" d="M280.579,277.819h137.943c3.354,0,5.918-2.719,5.918-6.055v-8.793
				c0-0.107,0.031-0.186,0.031-0.293V81.38c0-5.668-4.604-10.289-10.273-10.289l0,0H87.002c-5.672,0-10.292,4.62-10.292,10.289
				v181.299v0.014v9.072c0,3.336,2.721,6.055,6.055,6.055h133.929"/>
			<path clip-path="url(#SVGID_2_)" fill="#3499CE" d="M414.198,263.808H87.002V82.183c0-0.803,0.649-1.452,1.453-1.452h324.274
				c0.803,0,1.469,0.649,1.469,1.452V263.808z"/>
			<path clip-path="url(#SVGID_2_)" d="M414.198,263.808"/>
		</g>
	</g>
	<rect x="399.407" y="269.079" fill="#FFFFFF" width="13.906" height="5.348"/>
	
		<line fill="none" stroke="#000000" stroke-width="4.0114" stroke-linecap="round" stroke-miterlimit="10" x1="250.428" y1="75.46" x2="140.805" y2="28.125"/>
	
		<line fill="none" stroke="#000000" stroke-width="4.0114" stroke-linecap="round" stroke-miterlimit="10" x1="250.428" y1="75.46" x2="360.051" y2="28.125"/>
	<circle cx="140.804" cy="28.125" r="4.163"/>
	<circle cx="358.757" cy="28.125" r="4.163"/>
	<g>
		
			<line fill="none" stroke="#000000" stroke-width="16.0457" stroke-miterlimit="10" x1="298.567" y1="271.751" x2="298.567" y2="312.937"/>
		
			<line fill="none" stroke="#000000" stroke-width="16.0457" stroke-miterlimit="10" x1="202.292" y1="271.751" x2="202.292" y2="312.937"/>
		
			<line fill="none" stroke="#000000" stroke-width="8.0228" stroke-miterlimit="10" x1="154.155" y1="312.937" x2="346.704" y2="312.937"/>
	</g>
	<rect x="115.014" y="77.975" fill="none" width="95" height="19.688"/>
</g>
<g>
	<g>
		<g>
			<path fill="#231F20" d="M144.112,368.408c-14.396,2.822-27.983-0.008-27.983-0.008s-4.842-1.438-6.008-2.334
				s-6.166-3.186-6.838-3.521c-0.674-0.338-1.594-1.953-1.594-1.953c-11.522-2.604-21.167,4.838-21.3,5.24
				c-0.135,0.404-0.584,2.691-0.584,2.691c-9.424,16.814-14.098,46.142-14.098,46.142c-2.158,20.27-1.076,35.518,8.063,35.342
				c9.137-0.176,11.123-0.896,23.503-12.014c12.379-11.117,27.268-11.291,33.027-10.93c5.759,0.359,19.175-1.789,33.88,12.029
				c14.705,13.816,22.6,11.127,25.469,9.871c2.869-1.254,11.125-13.449,2.885-46.1c-8.242-32.649-11.648-34.085-11.648-34.085
				c0-0.359-0.627-2.959-0.627-2.959c-10.492-8.256-21.076-5.209-21.076-5.209s-1.615,1.973-1.928,2.375
				c-0.314,0.404-3.725,1.568-6.818,3.182S144.112,368.408,144.112,368.408z"/>
			<path fill="#656766" d="M79.805,368.523c0,0,0.449-2.287,0.584-2.691c0.133-0.402,9.777-7.844,21.3-5.24
				c0,0,0.92,1.615,1.594,1.953C103.283,362.545,91.243,359.916,79.805,368.523z"/>
			<path fill="#656766" d="M180.885,368.779c0.283,0.221-0.627-2.959-0.627-2.959c-10.492-8.256-21.076-5.209-21.076-5.209
				s-1.615,1.973-1.928,2.375C157.254,362.986,169.676,360.064,180.885,368.779z"/>
			<path fill="#414142" d="M119.351,385.352c0,1.449-1.25,2.625-2.791,2.623h-1.01c-1.543,0-2.791-1.174-2.791-2.623l0,0
				c0-1.449,1.252-2.623,2.793-2.623h1.01C118.103,382.729,119.351,383.904,119.351,385.352L119.351,385.352z"/>
			<path fill="#414142" d="M147.846,385.361c0,1.449-1.252,2.623-2.793,2.623h-1.01c-1.543,0-2.791-1.176-2.791-2.625l0,0
				c0-1.449,1.252-2.623,2.793-2.623h1.008C146.596,382.738,147.846,383.912,147.846,385.361L147.846,385.361z"/>
			<g>
				<ellipse fill="#FDCF12" cx="169.177" cy="374.285" rx="4.591" ry="4.623"/>
				<ellipse fill="#EF4069" cx="158.859" cy="384.63" rx="4.591" ry="4.624"/>
				<ellipse fill="#72C59B" cx="169.236" cy="395.078" rx="4.591" ry="4.625"/>
				<ellipse fill="#3499CE" cx="179.49" cy="384.637" rx="4.591" ry="4.623"/>
			</g>
			<g>
				<ellipse fill="#414142" cx="90.684" cy="384.436" rx="13.466" ry="13.555"/>
				<ellipse fill="#656766" stroke="#231F20" stroke-width="1.0733" cx="90.563" cy="384.401" rx="9.283" ry="8.882"/>
				<g>
					<circle fill="#231F20" cx="90.628" cy="378.797" r="0.519"/>
					<circle fill="#231F20" cx="85.291" cy="384.087" r="0.519"/>
					<circle fill="#231F20" cx="90.625" cy="389.334" r="0.519"/>
					<circle fill="#231F20" cx="95.829" cy="384.09" r="0.519"/>
				</g>
			</g>
			<g>
				<ellipse fill="#414142" cx="148.905" cy="408.448" rx="13.467" ry="13.555"/>
				<path fill="#656766" stroke="#231F20" stroke-width="1.0733" d="M158.067,408.417c-0.002,4.904-4.158,8.879-9.287,8.877
					c-5.127-0.002-8.785-3.945-8.785-8.848c0.004-4.906,3.666-8.913,8.791-8.909C153.913,399.537,158.067,403.513,158.067,408.417z"
					/>
				<g>
					<path fill="#231F20" d="M149.893,402.94c0,0.287-0.234,0.518-0.521,0.518c-0.285,0-0.518-0.232-0.518-0.518
						c0.002-0.282,0.232-0.515,0.52-0.515S149.893,402.656,149.893,402.94z"/>
					<circle fill="#231F20" cx="144.035" cy="408.231" r="0.519"/>
					<circle fill="#231F20" cx="149.371" cy="413.48" r="0.519"/>
					<circle fill="#231F20" cx="154.574" cy="408.235" r="0.517"/>
				</g>
			</g>
			<g>
				<ellipse fill="#414142" cx="109.881" cy="407.585" rx="14.483" ry="14.404"/>
				<path fill="#656766" stroke="#231F20" stroke-width="1.0733" d="M120.722,407.651c-0.002,5.984-5.002,10.834-11.164,10.832
					c-6.166,0-10.564-4.813-10.561-10.797c0-5.985,4.402-10.876,10.568-10.874C115.728,396.814,120.724,401.666,120.722,407.651z"/>
				<path fill="none" stroke="#231F20" stroke-width="1.0733" d="M99.435,404.585c0,0,5.201,0.092,5.92-0.939
					c0.717-1.03,1.246-2.362,0.977-6.353c0,0,3.645-1.404,6.918,0.211c0,0-0.449,3.676,0.4,5.156
					c0.854,1.481,0.943,1.708,6.594,1.933c0,0,1.119,3.453-0.229,6.77c0,0-1.926-0.18-4.662,0.313
					c-2.736,0.494-2.154,5.74-2.109,6.234c0,0-2.916,1.389-6.906-0.002c0,0,0.539-4.35-1.074-5.742c0,0-0.404-0.896-5.605-0.854
					C99.658,411.312,98.269,408.8,99.435,404.585z"/>
			</g>
		</g>
		<g>
			<polygon fill="#3499CE" points="130.429,381.432 133.441,383.238 136.452,385.045 133.441,386.852 130.429,388.658 
				130.429,385.045 			"/>
			<polygon fill="#9A6799" points="136.452,377.816 133.443,379.623 130.429,381.432 133.441,383.238 136.452,385.045 
				136.452,381.432 			"/>
			<polygon fill="#F8993D" points="130.429,374.203 127.417,376.01 124.406,377.816 127.417,379.623 130.429,381.432 
				130.429,377.816 			"/>
			<polygon fill="#EF4069" points="130.429,374.203 133.441,376.01 136.452,377.816 133.441,379.623 130.429,381.432 
				130.429,377.816 			"/>
			<polygon fill="#FDCF12" points="130.429,381.432 127.417,383.238 124.406,385.045 127.417,386.852 130.429,388.658 
				130.429,385.045 			"/>
			<polygon fill="#72C59B" points="124.406,377.816 127.417,379.623 130.429,381.432 127.417,383.238 124.406,385.045 
				124.406,381.432 			"/>
		</g>
	</g>
	<g>
		<g>
			<path fill="#231F20" d="M384.113,368.408c-14.396,2.822-27.984-0.008-27.984-0.008s-4.842-1.438-6.008-2.334
				s-6.166-3.186-6.838-3.521c-0.674-0.338-1.594-1.953-1.594-1.953c-11.523-2.604-21.168,4.838-21.301,5.24
				c-0.135,0.404-0.584,2.691-0.584,2.691c-9.424,16.814-14.098,46.142-14.098,46.142c-2.158,20.27-1.076,35.518,8.063,35.342
				c9.137-0.176,11.123-0.896,23.504-12.014c12.379-11.117,27.268-11.291,33.027-10.93c5.76,0.359,19.176-1.789,33.881,12.029
				c14.705,13.816,22.6,11.127,25.469,9.871c2.869-1.254,11.125-13.449,2.885-46.1c-8.242-32.649-11.648-34.085-11.648-34.085
				c0-0.359-0.627-2.959-0.627-2.959c-10.492-8.256-21.076-5.209-21.076-5.209s-1.615,1.973-1.928,2.375
				c-0.314,0.404-3.725,1.568-6.818,3.182S384.113,368.408,384.113,368.408z"/>
			<path fill="#656766" d="M319.804,368.523c0,0,0.449-2.287,0.584-2.691c0.133-0.402,9.777-7.844,21.301-5.24
				c0,0,0.92,1.615,1.594,1.953C343.283,362.545,331.242,359.916,319.804,368.523z"/>
			<path fill="#656766" d="M420.886,368.779c0.283,0.221-0.627-2.959-0.627-2.959c-10.492-8.256-21.076-5.209-21.076-5.209
				s-1.615,1.973-1.928,2.375C397.255,362.986,409.677,360.064,420.886,368.779z"/>
			<path fill="#414142" d="M359.351,385.352c0,1.449-1.25,2.625-2.791,2.623h-1.01c-1.543,0-2.791-1.174-2.791-2.623l0,0
				c0-1.449,1.252-2.623,2.793-2.623h1.01C358.103,382.729,359.351,383.904,359.351,385.352L359.351,385.352z"/>
			<path fill="#414142" d="M387.847,385.361c0,1.449-1.252,2.623-2.793,2.623h-1.01c-1.543,0-2.791-1.176-2.791-2.625l0,0
				c0-1.449,1.252-2.623,2.793-2.623h1.008C386.597,382.738,387.847,383.912,387.847,385.361L387.847,385.361z"/>
			<g>
				<ellipse fill="#FDCF12" cx="409.178" cy="374.285" rx="4.591" ry="4.623"/>
				<ellipse fill="#EF4069" cx="398.86" cy="384.63" rx="4.591" ry="4.624"/>
				<ellipse fill="#72C59B" cx="409.237" cy="395.078" rx="4.591" ry="4.625"/>
				<ellipse fill="#3499CE" cx="419.491" cy="384.637" rx="4.591" ry="4.623"/>
			</g>
			<g>
				<ellipse fill="#414142" cx="330.683" cy="384.436" rx="13.467" ry="13.555"/>
				<ellipse fill="#656766" stroke="#231F20" stroke-width="1.0733" cx="330.562" cy="384.401" rx="9.283" ry="8.882"/>
				<g>
					<circle fill="#231F20" cx="330.627" cy="378.797" r="0.519"/>
					<circle fill="#231F20" cx="325.29" cy="384.087" r="0.519"/>
					<circle fill="#231F20" cx="330.624" cy="389.334" r="0.519"/>
					<circle fill="#231F20" cx="335.829" cy="384.09" r="0.519"/>
				</g>
			</g>
			<g>
				<ellipse fill="#414142" cx="388.906" cy="408.448" rx="13.467" ry="13.555"/>
				<path fill="#656766" stroke="#231F20" stroke-width="1.0733" d="M398.068,408.417c-0.002,4.904-4.158,8.879-9.287,8.877
					c-5.127-0.002-8.785-3.945-8.785-8.848c0.004-4.906,3.666-8.913,8.791-8.909C393.914,399.537,398.068,403.513,398.068,408.417z"
					/>
				<g>
					<path fill="#231F20" d="M389.894,402.94c0,0.287-0.234,0.518-0.521,0.518c-0.285,0-0.518-0.232-0.518-0.518
						c0.002-0.282,0.232-0.515,0.52-0.515S389.894,402.656,389.894,402.94z"/>
					<circle fill="#231F20" cx="384.036" cy="408.231" r="0.519"/>
					<circle fill="#231F20" cx="389.372" cy="413.48" r="0.519"/>
					<circle fill="#231F20" cx="394.575" cy="408.235" r="0.517"/>
				</g>
			</g>
			<g>
				<ellipse fill="#414142" cx="349.881" cy="407.585" rx="14.483" ry="14.404"/>
				<path fill="#656766" stroke="#231F20" stroke-width="1.0733" d="M360.722,407.651c-0.002,5.984-5.002,10.834-11.164,10.832
					c-6.166,0-10.564-4.813-10.561-10.797c0-5.985,4.402-10.876,10.568-10.874C355.728,396.814,360.724,401.666,360.722,407.651z"/>
				<path fill="none" stroke="#231F20" stroke-width="1.0733" d="M339.435,404.585c0,0,5.201,0.092,5.92-0.939
					c0.717-1.03,1.246-2.362,0.977-6.353c0,0,3.645-1.404,6.918,0.211c0,0-0.449,3.676,0.4,5.156
					c0.854,1.481,0.943,1.708,6.594,1.933c0,0,1.119,3.453-0.229,6.77c0,0-1.926-0.18-4.662,0.313
					c-2.736,0.494-2.154,5.74-2.109,6.234c0,0-2.916,1.389-6.906-0.002c0,0,0.539-4.35-1.074-5.742c0,0-0.404-0.896-5.605-0.854
					C339.658,411.312,338.269,408.8,339.435,404.585z"/>
			</g>
		</g>
		<g>
			<polygon fill="#3499CE" points="370.429,381.432 373.441,383.238 376.453,385.045 373.441,386.852 370.429,388.658 
				370.429,385.045 			"/>
			<polygon fill="#9A6799" points="376.453,377.816 373.443,379.623 370.429,381.432 373.441,383.238 376.453,385.045 
				376.453,381.432 			"/>
			<polygon fill="#F8993D" points="370.429,374.203 367.417,376.01 364.406,377.816 367.417,379.623 370.429,381.432 
				370.429,377.816 			"/>
			<polygon fill="#EF4069" points="370.429,374.203 373.441,376.01 376.453,377.816 373.441,379.623 370.429,381.432 
				370.429,377.816 			"/>
			<polygon fill="#FDCF12" points="370.429,381.432 367.417,383.238 364.406,385.045 367.417,386.852 370.429,388.658 
				370.429,385.045 			"/>
			<polygon fill="#72C59B" points="364.406,377.816 367.417,379.623 370.429,381.432 367.417,383.238 364.406,385.045 
				364.406,381.432 			"/>
		</g>
	</g>
</g>
<g>
	<g>
		<path fill="none" stroke="#579876" stroke-width="7" stroke-miterlimit="10" stroke-dasharray="6" d="M774.864,49.476
			c87.818,87.833,87.818,230.009,0,317.874"/>
		<path fill="none" stroke="#579876" stroke-width="7" stroke-miterlimit="10" stroke-dasharray="6" d="M733.288,91.021
			c64.853,64.902,64.852,169.883,0,234.752"/>
		<path fill="none" stroke="#579876" stroke-width="7" stroke-miterlimit="10" stroke-dasharray="6" d="M688.51,139.711
			c37.972,37.941,37.972,99.431,0,137.403"/>
	</g>
</g>
</svg>
