<?xml version="1.0" encoding="utf-8"?>
<!-- Generator: Adobe Illustrator 16.0.0, SVG Export Plug-In . SVG Version: 6.00 Build 0)  -->
<!DOCTYPE svg PUBLIC "-//W3C//DTD SVG 1.1//EN" "http://www.w3.org/Graphics/SVG/1.1/DTD/svg11.dtd">
<svg version="1.1" id="Layer_1" xmlns="http://www.w3.org/2000/svg" xmlns:xlink="http://www.w3.org/1999/xlink" x="0px" y="0px"
	 width="600px" height="400px" viewBox="0 0 600 400" enable-background="new 0 0 600 400" xml:space="preserve">
<g>
	<rect x="510.964" y="82.219" fill="#171617" stroke="#000000" stroke-miterlimit="10" width="34" height="22.667"/>
	<g>
		<path fill="#FFFFFF" d="M518.734,95.694v-6.237h4.213v1.179h-2.809v1.224h2.493v1.152h-2.493v1.503h3.016v1.179H518.734z"/>
		<path fill="#FFFFFF" d="M525.844,89.458c0.108,0.198,0.233,0.442,0.374,0.733c0.142,0.291,0.289,0.606,0.442,0.945
			c0.153,0.339,0.306,0.686,0.456,1.04s0.291,0.687,0.424,0.999c0.133-0.312,0.273-0.645,0.424-0.999s0.303-0.7,0.456-1.04
			c0.153-0.339,0.301-0.654,0.442-0.945c0.141-0.291,0.266-0.536,0.375-0.733h1.277c0.061,0.414,0.115,0.877,0.166,1.39
			c0.052,0.513,0.097,1.047,0.136,1.602c0.039,0.555,0.075,1.112,0.108,1.669c0.032,0.558,0.061,1.083,0.085,1.575h-1.368
			c-0.018-0.606-0.042-1.266-0.072-1.98c-0.029-0.714-0.074-1.434-0.135-2.16c-0.108,0.252-0.229,0.531-0.361,0.837
			c-0.132,0.306-0.264,0.612-0.393,0.918c-0.129,0.306-0.254,0.598-0.375,0.877c-0.119,0.279-0.223,0.517-0.307,0.715h-0.98
			c-0.084-0.198-0.188-0.437-0.307-0.715c-0.121-0.279-0.246-0.572-0.375-0.877c-0.13-0.306-0.261-0.612-0.393-0.918
			c-0.133-0.306-0.254-0.585-0.361-0.837c-0.061,0.726-0.105,1.446-0.135,2.16c-0.031,0.714-0.055,1.374-0.072,1.98h-1.368
			c0.024-0.492,0.052-1.017,0.085-1.575c0.033-0.558,0.069-1.114,0.108-1.669c0.039-0.555,0.084-1.089,0.136-1.602
			c0.051-0.513,0.105-0.977,0.166-1.39H525.844z"/>
		<path fill="#FFFFFF" d="M535.105,95.82c-1.014,0-1.787-0.282-2.317-0.846c-0.531-0.563-0.796-1.365-0.796-2.403
			c0-0.516,0.08-0.977,0.242-1.381c0.162-0.405,0.385-0.747,0.666-1.026c0.282-0.279,0.618-0.491,1.008-0.635
			c0.391-0.144,0.813-0.216,1.27-0.216c0.264,0,0.504,0.02,0.72,0.059s0.405,0.084,0.567,0.135c0.162,0.051,0.297,0.104,0.404,0.158
			c0.108,0.054,0.186,0.096,0.234,0.126l-0.404,1.134c-0.193-0.102-0.416-0.189-0.672-0.261c-0.254-0.072-0.544-0.108-0.867-0.108
			c-0.217,0-0.428,0.036-0.635,0.108c-0.207,0.072-0.391,0.188-0.549,0.346c-0.16,0.159-0.287,0.365-0.383,0.617
			s-0.145,0.558-0.145,0.918c0,0.288,0.031,0.557,0.095,0.805c0.063,0.25,0.165,0.464,0.306,0.644
			c0.141,0.18,0.326,0.323,0.554,0.428s0.505,0.157,0.828,0.157c0.204,0,0.388-0.012,0.549-0.036
			c0.162-0.024,0.306-0.053,0.433-0.085c0.125-0.033,0.236-0.071,0.332-0.113c0.097-0.042,0.184-0.081,0.262-0.117l0.387,1.125
			c-0.197,0.12-0.477,0.228-0.837,0.324C535.996,95.772,535.58,95.82,535.105,95.82z"/>
	</g>
</g>
<g>
	<polyline fill="none" stroke="#996699" stroke-width="3" stroke-miterlimit="10" points="496.941,91.24 496.941,69.721 
		454.027,69.721 454.027,265.805 389.11,265.805 	"/>
	<g>
		<polygon fill="#996699" points="495.433,81.868 494.038,89.839 499.844,89.839 498.449,81.868 		"/>
		<polygon fill="#996699" stroke="#654566" stroke-width="0.75" stroke-miterlimit="10" points="493.573,103.267 500.309,103.267 
			500.309,91.867 499.844,89.839 494.038,89.839 493.573,91.867 		"/>
		<path fill="#FFCE0C" stroke="#F89939" stroke-width="0.5926" stroke-miterlimit="10" d="M493.573,91.755"/>
		<line fill="none" stroke="#654566" stroke-width="0.75" stroke-miterlimit="10" x1="499.844" y1="88.38" x2="494.03" y2="88.38"/>
		
			<line fill="none" stroke="#654566" stroke-width="0.75" stroke-miterlimit="10" x1="499.495" y1="86.88" x2="494.379" y2="86.88"/>
		
			<line fill="none" stroke="#654566" stroke-width="0.75" stroke-miterlimit="10" x1="499.146" y1="85.38" x2="494.728" y2="85.38"/>
		<line fill="none" stroke="#654566" stroke-width="0.75" stroke-miterlimit="10" x1="498.915" y1="83.88" x2="494.96" y2="83.88"/>
		<rect x="495.252" y="79.213" fill="#654566" width="3.342" height="3.486"/>
	</g>
</g>
<g>
	<g>
		<polyline fill="none" stroke="#FFCE0C" stroke-width="5" stroke-miterlimit="10" points="354.486,285.805 504.244,285.805 
			504.244,243.442 		"/>
	</g>
	<g>
		<polygon fill="#FFCE0C" points="501.001,249.885 498.001,241.915 510.486,241.915 507.486,249.885 		"/>
		<polygon fill="#FFCE0C" stroke="#F89939" stroke-width="0.869" stroke-miterlimit="10" points="497.001,228.487 511.486,228.487 
			511.486,239.885 510.486,241.915 498.001,241.915 497.001,239.885 		"/>
		<path fill="#FFCE0C" stroke="#F89939" stroke-width="0.869" stroke-miterlimit="10" d="M497.001,239.999"/>
		
			<line fill="none" stroke="#F89939" stroke-width="0.8801" stroke-miterlimit="10" x1="510.486" y1="243.374" x2="497.986" y2="243.374"/>
		
			<line fill="none" stroke="#F89939" stroke-width="0.903" stroke-miterlimit="10" x1="509.736" y1="244.874" x2="498.736" y2="244.874"/>
		
			<line fill="none" stroke="#F89939" stroke-width="0.9361" stroke-miterlimit="10" x1="508.986" y1="246.374" x2="499.486" y2="246.374"/>
		
			<line fill="none" stroke="#F89939" stroke-width="0.8854" stroke-miterlimit="10" x1="508.486" y1="247.874" x2="499.986" y2="247.874"/>
		<rect x="500.613" y="249.053" fill="#F89939" width="7.186" height="3.486"/>
	</g>
</g>
<g>
	<polygon fill="#6FC498" stroke="#579975" stroke-miterlimit="10" points="542.399,252.104 524.971,252.104 526.971,232.922 
		540.399,232.922 	"/>
	<g>
		<g>
			<g>
				<path fill="none" stroke="#579975" stroke-width="2" stroke-miterlimit="10" d="M543.242,262.527
					c-5.282,5.28-13.831,5.28-19.113,0"/>
				<path fill="none" stroke="#579975" stroke-width="2" stroke-miterlimit="10" d="M540.743,260.027
					c-3.901,3.899-10.214,3.899-14.115,0"/>
				<path fill="none" stroke="#579975" stroke-width="2" stroke-miterlimit="10" d="M537.816,257.334
					c-2.282,2.283-5.979,2.283-8.263,0"/>
			</g>
		</g>
	</g>
</g>
<g>
	<path fill="#FFFFFF" d="M530.383,245.045c0.04,0.137,0.084,0.291,0.132,0.462c0.049,0.172,0.1,0.35,0.155,0.533
		c0.055,0.183,0.11,0.366,0.167,0.55s0.111,0.354,0.165,0.51c0.044-0.17,0.088-0.354,0.133-0.555c0.046-0.2,0.088-0.407,0.128-0.62
		c0.041-0.214,0.08-0.426,0.118-0.638s0.075-0.416,0.108-0.612h0.811c-0.117,0.58-0.253,1.168-0.405,1.765
		c-0.153,0.597-0.317,1.163-0.495,1.7h-0.714c-0.116-0.32-0.229-0.656-0.339-1.008c-0.11-0.352-0.219-0.704-0.324-1.058
		c-0.107,0.354-0.215,0.706-0.321,1.058s-0.218,0.688-0.335,1.008h-0.713c-0.178-0.537-0.343-1.104-0.494-1.7
		c-0.152-0.597-0.287-1.185-0.404-1.765h0.844c0.034,0.196,0.07,0.4,0.111,0.612c0.04,0.212,0.082,0.424,0.125,0.638
		c0.044,0.213,0.088,0.42,0.134,0.62c0.045,0.2,0.091,0.385,0.138,0.555c0.061-0.163,0.119-0.337,0.176-0.52
		c0.057-0.184,0.111-0.367,0.165-0.551c0.054-0.183,0.103-0.359,0.147-0.529s0.086-0.322,0.123-0.455H530.383z"/>
	<path fill="#FFFFFF" d="M533.56,244.75c0,0.137-0.045,0.244-0.133,0.322s-0.193,0.117-0.313,0.117c-0.12,0-0.225-0.039-0.313-0.117
		s-0.133-0.186-0.133-0.322s0.045-0.244,0.133-0.323c0.088-0.078,0.192-0.117,0.313-0.117c0.119,0,0.225,0.039,0.313,0.117
		C533.515,244.506,533.56,244.614,533.56,244.75z M533.49,248.14h-0.745v-2.63h0.745V248.14z"/>
	<path fill="#FFFFFF" d="M533.964,246.31h1.45v0.675h-1.45V246.31z"/>
	<path fill="#FFFFFF" d="M535.939,248.14v-3.465h2.32v0.655h-1.539v0.725h1.369v0.655h-1.369v1.43H535.939z"/>
	<path fill="#FFFFFF" d="M539.575,244.75c0,0.137-0.044,0.244-0.132,0.322c-0.089,0.078-0.193,0.117-0.313,0.117
		c-0.121,0-0.225-0.039-0.313-0.117c-0.089-0.078-0.133-0.186-0.133-0.322s0.044-0.244,0.133-0.323
		c0.088-0.078,0.191-0.117,0.313-0.117c0.119,0,0.224,0.039,0.313,0.117C539.531,244.506,539.575,244.614,539.575,244.75z
		 M539.505,248.14h-0.746v-2.63h0.746V248.14z"/>
</g>
<g>
	<path fill="none" d="M407.585,275.11"/>
</g>
<g>
	
		<rect x="474.583" y="109.749" fill="#FFFFFF" stroke="#EF4069" stroke-width="0.5395" stroke-miterlimit="10" width="91.076" height="116.668"/>
	<g>
		<g>
			<g>
				<path fill="#010101" stroke="#FFFFFF" stroke-width="0.2145" stroke-miterlimit="10" d="M519.75,158.458"/>
			</g>
			<g>
				<path fill="#010101" stroke="#FFFFFF" stroke-width="0.2145" stroke-miterlimit="10" d="M519.75,158.458"/>
			</g>
			<g>
				<path fill="#010101" stroke="#FFFFFF" stroke-width="0.2145" stroke-miterlimit="10" d="M519.75,158.458"/>
			</g>
			<g>
				<path fill="#010101" stroke="#FFFFFF" stroke-width="0.2145" stroke-miterlimit="10" d="M519.75,158.458"/>
			</g>
		</g>
		<polyline fill="#3499CD" points="546.558,173.873 533.154,181.915 519.75,189.958 519.75,173.873 519.75,157.789 		"/>
		<polyline fill="#996699" points="546.558,173.873 546.558,157.789 546.558,141.703 533.169,149.746 519.75,157.789 		"/>
		<polyline fill="#F89939" points="519.753,125.618 506.347,133.661 492.941,141.703 506.347,149.746 519.753,157.789 		"/>
		<polyline fill="#EF3B68" points="519.75,125.618 533.153,133.661 546.558,141.703 533.154,149.746 519.75,157.789 		"/>
		<polyline fill="#FFCE0C" points="492.941,173.873 506.347,181.915 519.753,189.958 519.753,173.873 519.753,157.789 		"/>
		<polyline fill="#6FC498" points="492.943,173.873 492.943,157.789 492.943,141.703 506.347,149.746 519.75,157.789 		"/>
		<g>
			<g>
				<g>
					
						<line fill="none" stroke="#FFFFFF" stroke-width="0.6434" stroke-miterlimit="10" x1="519.755" y1="125.618" x2="519.755" y2="126.369"/>
					
						<line fill="none" stroke="#FFFFFF" stroke-width="0.6434" stroke-miterlimit="10" stroke-dasharray="1.4605,1.4605" x1="519.755" y1="127.829" x2="519.75" y2="156.308"/>
					
						<line fill="none" stroke="#FFFFFF" stroke-width="0.6434" stroke-miterlimit="10" x1="519.75" y1="157.038" x2="519.75" y2="157.789"/>
				</g>
			</g>
			<g>
				<g>
					
						<line fill="none" stroke="#FFFFFF" stroke-width="0.6434" stroke-miterlimit="10" x1="519.75" y1="157.789" x2="520.393" y2="158.174"/>
					
						<line fill="none" stroke="#FFFFFF" stroke-width="0.6434" stroke-miterlimit="10" stroke-dasharray="1.5664,1.5664" x1="521.737" y1="158.981" x2="545.243" y2="173.083"/>
					
						<line fill="none" stroke="#FFFFFF" stroke-width="0.6434" stroke-miterlimit="10" x1="545.915" y1="173.487" x2="546.558" y2="173.873"/>
				</g>
			</g>
			<g>
				<g>
					
						<line fill="none" stroke="#FFFFFF" stroke-width="0.6434" stroke-miterlimit="10" x1="519.75" y1="157.789" x2="519.106" y2="158.174"/>
					
						<line fill="none" stroke="#FFFFFF" stroke-width="0.6434" stroke-miterlimit="10" stroke-dasharray="1.5664,1.5664" x1="517.762" y1="158.981" x2="494.256" y2="173.083"/>
					
						<line fill="none" stroke="#FFFFFF" stroke-width="0.6434" stroke-miterlimit="10" x1="493.584" y1="173.487" x2="492.941" y2="173.873"/>
				</g>
			</g>
		</g>
		<g>
			
				<line fill="none" stroke="#FFFFFF" stroke-width="0.6434" stroke-miterlimit="10" x1="519.755" y1="189.958" x2="519.75" y2="157.789"/>
			
				<line fill="none" stroke="#FFFFFF" stroke-width="0.6434" stroke-miterlimit="10" x1="519.75" y1="157.789" x2="546.558" y2="141.703"/>
			
				<line fill="none" stroke="#FFFFFF" stroke-width="0.6434" stroke-miterlimit="10" x1="519.75" y1="157.789" x2="492.941" y2="141.703"/>
		</g>
	</g>
	
		<rect x="479.788" y="229.569" fill="#FFFFFF" stroke="#EF4069" stroke-width="0.5395" stroke-miterlimit="10" width="80.296" height="6.543"/>
	
		<rect x="479.788" y="100.204" fill="#FFFFFF" stroke="#EF4069" stroke-width="0.5395" stroke-miterlimit="10" width="80.296" height="6.543"/>
	
		<line fill="none" stroke="#EF3B68" stroke-width="5.5904" stroke-miterlimit="10" x1="472.811" y1="107.113" x2="567.175" y2="107.113"/>
	
		<line fill="none" stroke="#EF3B68" stroke-width="5.5904" stroke-miterlimit="10" x1="472.811" y1="229.054" x2="567.175" y2="229.054"/>
	<g>
		<path d="M512.275,196.591h2.088v9.275h-2.088v-3.936h-3.506v3.936h-2.088v-9.275h2.088v3.546h3.506V196.591z"/>
		<path d="M520.13,206.053c-0.651,0-1.214-0.092-1.687-0.275c-0.473-0.182-0.863-0.438-1.171-0.762
			c-0.308-0.326-0.535-0.715-0.683-1.164c-0.146-0.451-0.221-0.949-0.221-1.492v-5.769h2.088v5.593c0,0.375,0.042,0.695,0.127,0.957
			c0.085,0.264,0.201,0.479,0.349,0.643c0.146,0.166,0.325,0.283,0.535,0.355c0.209,0.07,0.439,0.107,0.688,0.107
			c0.509,0,0.922-0.156,1.238-0.469s0.476-0.844,0.476-1.594v-5.593h2.087v5.769c0,0.543-0.075,1.043-0.228,1.498
			c-0.151,0.455-0.384,0.846-0.695,1.172c-0.313,0.324-0.71,0.576-1.191,0.756C521.362,205.963,520.791,206.053,520.13,206.053z"/>
		<path d="M529.056,205.985c-0.509,0-1.015-0.016-1.52-0.047c-0.504-0.031-1.028-0.104-1.572-0.221v-8.993
			c0.429-0.08,0.896-0.141,1.405-0.181s0.981-0.06,1.419-0.06c0.589,0,1.131,0.042,1.626,0.127s0.921,0.229,1.278,0.435
			c0.356,0.205,0.635,0.476,0.836,0.81c0.201,0.335,0.301,0.748,0.301,1.238c0,0.741-0.356,1.325-1.07,1.752
			c0.589,0.225,0.99,0.527,1.204,0.91c0.215,0.385,0.321,0.816,0.321,1.299c0,0.973-0.354,1.703-1.063,2.195
			C531.512,205.741,530.457,205.985,529.056,205.985z M527.999,200.231h1.018c0.643,0,1.102-0.082,1.378-0.248
			c0.276-0.164,0.415-0.429,0.415-0.795c0-0.375-0.143-0.638-0.428-0.79c-0.286-0.151-0.705-0.228-1.259-0.228
			c-0.178,0-0.37,0.003-0.575,0.007c-0.205,0.005-0.388,0.016-0.549,0.033V200.231z M527.999,201.823v2.396
			c0.152,0.018,0.316,0.031,0.495,0.041c0.179,0.008,0.375,0.012,0.589,0.012c0.625,0,1.129-0.088,1.513-0.268
			c0.383-0.178,0.575-0.508,0.575-0.99c0-0.428-0.16-0.732-0.481-0.916s-0.781-0.275-1.379-0.275H527.999z"/>
	</g>
	<rect x="477.341" y="157.787" fill="#EF3B68" width="3.347" height="17.88"/>
	<rect x="559.869" y="157.787" fill="#EF3B68" width="3.345" height="17.88"/>
</g>
<g>
	<g>
		<path fill="none" d="M479.661,237.123"/>
	</g>
	<g>
		<path fill="none" d="M479.661,223.695"/>
	</g>
	<g>
		<path fill="none" d="M502.192,215.409"/>
	</g>
	<g>
		<path fill="none" d="M497.359,230.611"/>
	</g>
	<g>
		<path fill="none" d="M493.53,222.953"/>
	</g>
	<g>
		<path fill="none" d="M460.497,230.611"/>
	</g>
	<g>
		<path fill="none" d="M464.326,222.953"/>
	</g>
</g>
<g>
	<path fill-rule="evenodd" clip-rule="evenodd" d="M393.058,246.8c0,6.354-5.152,11.506-11.506,11.506H105.407
		c-6.354,0-11.506-5.151-11.506-11.506V83.062c0-6.355,5.151-11.506,11.506-11.506h276.145c6.354,0,11.506,5.151,11.506,11.506
		V246.8z"/>
	<polygon fill-rule="evenodd" clip-rule="evenodd" fill="#C2C1C1" points="93.797,248.727 46.993,323.265 438.197,322.59 
		393.161,248.275 	"/>
	<path fill-rule="evenodd" clip-rule="evenodd" fill="#676767" d="M438.631,322.951L438.631,322.951
		c0,4.197-4.438,7.601-9.911,7.601H57.359c-5.474,0-9.913-3.403-9.913-7.601l0,0"/>
	<rect x="110.58" y="86.571" fill-rule="evenodd" clip-rule="evenodd" fill="#3499CD" width="265.953" height="148.096"/>
</g>
<g>
	<g opacity="0.15">
		<polygon fill="#090909" points="117.964,270.567 108.813,270.567 112.957,261.274 121.808,261.274 		"/>
		<polygon fill="#090909" points="125.027,282.294 103.584,282.294 107.729,273 128.495,273 		"/>
		<polygon fill="#090909" points="120.735,295.127 98.359,295.127 102.488,285.834 124.188,285.834 		"/>
		<polygon fill="#090909" points="128.946,270.567 119.794,270.567 123.577,261.274 132.429,261.274 		"/>
		<polygon fill="#090909" points="139.926,270.567 130.775,270.567 134.198,261.274 143.049,261.274 		"/>
		<polygon fill="#090909" points="150.908,270.567 141.757,270.567 144.819,261.274 153.67,261.274 		"/>
		<polygon fill="#090909" points="161.891,270.567 152.739,270.567 155.44,261.274 164.292,261.274 		"/>
		<polygon fill="#090909" points="172.871,270.567 163.72,270.567 166.062,261.274 174.912,261.274 		"/>
		<polygon fill="#090909" points="183.852,270.567 174.701,270.567 176.682,261.274 185.532,261.274 		"/>
		<polygon fill="#090909" points="194.834,270.567 185.682,270.567 187.303,261.274 196.154,261.274 		"/>
		<polygon fill="#090909" points="205.815,270.567 196.665,270.567 197.925,261.274 206.775,261.274 		"/>
		<polygon fill="#090909" points="216.796,270.567 207.645,270.567 208.545,261.274 217.396,261.274 		"/>
		<polygon fill="#090909" points="227.777,270.567 218.626,270.567 219.166,261.274 228.017,261.274 		"/>
		<polygon fill="#090909" points="238.759,270.567 229.608,270.567 229.787,261.274 238.638,261.274 		"/>
		<polygon fill="#090909" points="249.74,270.567 240.589,270.567 240.408,261.274 249.259,261.274 		"/>
		<polygon fill="#090909" points="260.722,270.567 251.57,270.567 251.028,261.274 259.88,261.274 		"/>
		<polygon fill="#090909" points="271.702,270.567 262.551,270.567 261.649,261.274 270.5,261.274 		"/>
		<polygon fill="#090909" points="282.685,270.567 273.533,270.567 272.271,261.274 281.122,261.274 		"/>
		<polygon fill="#090909" points="293.666,270.567 284.515,270.567 282.892,261.274 291.742,261.274 		"/>
		<polygon fill="#090909" points="304.647,270.567 295.496,270.567 293.513,261.274 302.364,261.274 		"/>
		<polygon fill="#090909" points="315.628,270.567 306.477,270.567 304.133,261.274 312.985,261.274 		"/>
		<polygon fill="#090909" points="326.61,270.567 317.459,270.567 314.754,261.274 323.606,261.274 		"/>
		<polygon fill="#090909" points="337.592,270.567 328.44,270.567 325.375,261.274 334.227,261.274 		"/>
		<polygon fill="#090909" points="348.573,270.567 339.421,270.567 335.997,261.274 344.847,261.274 		"/>
		<polygon fill="#090909" points="359.554,270.567 350.403,270.567 346.618,261.274 355.468,261.274 		"/>
		<polygon fill="#090909" points="370.536,270.567 361.384,270.567 357.239,261.274 366.089,261.274 		"/>
		<polygon fill="#090909" points="381.517,270.567 372.366,270.567 367.86,261.274 376.71,261.274 		"/>
		<polygon fill="#090909" points="102.866,307.077 92.535,307.077 96.679,297.783 106.709,297.783 		"/>
		<polygon fill="#090909" points="115.263,307.077 104.931,307.077 108.715,297.783 118.746,297.783 		"/>
		<polygon fill="#090909" points="127.66,307.077 117.329,307.077 120.752,297.783 130.782,297.783 		"/>
		<polygon fill="#090909" points="140.057,307.077 129.726,307.077 132.789,297.783 142.819,297.783 		"/>
		<polygon fill="#090909" points="152.456,307.077 142.124,307.077 144.826,297.783 154.857,297.783 		"/>
		<polygon fill="#090909" points="164.852,307.077 154.521,307.077 156.863,297.783 166.893,297.783 		"/>
		<polygon fill="#090909" points="325.499,307.077 167.434,307.077 169.4,297.783 322.87,297.783 		"/>
		<polygon fill="#090909" points="338.414,307.077 328.083,307.077 325.378,297.783 335.409,297.783 		"/>
		<polygon fill="#090909" points="350.811,307.077 340.479,307.077 337.415,297.783 347.446,297.783 		"/>
		<polygon fill="#090909" points="363.208,307.077 352.876,307.077 349.452,297.783 359.482,297.783 		"/>
		<polygon fill="#090909" points="375.605,307.077 365.274,307.077 361.489,297.783 371.519,297.783 		"/>
		<polygon fill="#090909" points="388.002,307.077 377.671,307.077 373.526,297.783 383.556,297.783 		"/>
		<polygon fill="#090909" points="400.4,307.077 390.069,307.077 385.562,297.783 395.593,297.783 		"/>
		<polygon fill="#090909" points="135.986,282.294 126.456,282.294 129.879,273 139.109,273 		"/>
		<polygon fill="#090909" points="147.422,282.294 137.893,282.294 140.955,273 150.185,273 		"/>
		<polygon fill="#090909" points="158.86,282.294 149.329,282.294 152.031,273 161.262,273 		"/>
		<polygon fill="#090909" points="170.295,282.294 160.765,282.294 163.107,273 172.336,273 		"/>
		<polygon fill="#090909" points="181.73,282.294 172.2,282.294 174.182,273 183.411,273 		"/>
		<polygon fill="#090909" points="193.167,282.294 183.637,282.294 185.258,273 194.488,273 		"/>
		<polygon fill="#090909" points="204.604,282.294 195.074,282.294 196.334,273 205.564,273 		"/>
		<polygon fill="#090909" points="216.039,282.294 206.509,282.294 207.409,273 216.639,273 		"/>
		<polygon fill="#090909" points="227.476,282.294 217.946,282.294 218.485,273 227.715,273 		"/>
		<polygon fill="#090909" points="238.912,282.294 229.382,282.294 229.561,273 238.791,273 		"/>
		<polygon fill="#090909" points="250.348,282.294 240.818,282.294 240.637,273 249.867,273 		"/>
		<polygon fill="#090909" points="261.785,282.294 252.253,282.294 251.712,273 260.942,273 		"/>
		<polygon fill="#090909" points="273.22,282.294 263.69,282.294 262.788,273 272.017,273 		"/>
		<polygon fill="#090909" points="284.657,282.294 275.126,282.294 273.864,273 283.094,273 		"/>
		<polygon fill="#090909" points="296.092,282.294 286.563,282.294 284.939,273 294.169,273 		"/>
		<polygon fill="#090909" points="307.529,282.294 297.999,282.294 296.015,273 305.245,273 		"/>
		<polygon fill="#090909" points="318.965,282.294 309.435,282.294 307.091,273 316.321,273 		"/>
		<polygon fill="#090909" points="330.402,282.294 320.872,282.294 318.167,273 327.397,273 		"/>
		<polygon fill="#090909" points="341.838,282.294 332.307,282.294 329.243,273 338.473,273 		"/>
		<polygon fill="#090909" points="353.273,282.294 343.744,282.294 340.318,273 349.547,273 		"/>
		<polygon fill="#090909" points="364.709,282.294 355.18,282.294 351.394,273 360.624,273 		"/>
		<polygon fill="#090909" points="376.146,282.294 366.616,282.294 362.47,273 371.7,273 		"/>
		<polygon fill="#090909" points="393.876,294.463 383.953,294.463 373.545,273 382.776,273 		"/>
		<polygon fill="#090909" points="131.674,295.127 121.729,295.127 125.152,285.834 134.797,285.834 		"/>
		<polygon fill="#090909" points="143.608,295.127 133.664,295.127 136.726,285.834 146.37,285.834 		"/>
		<polygon fill="#090909" points="155.543,295.127 145.598,295.127 148.3,285.834 157.945,285.834 		"/>
		<polygon fill="#090909" points="167.477,295.127 157.532,295.127 159.873,285.834 169.518,285.834 		"/>
		<polygon fill="#090909" points="179.409,295.127 169.464,295.127 171.446,285.834 181.09,285.834 		"/>
		<polygon fill="#090909" points="191.344,295.127 181.398,295.127 183.02,285.834 192.665,285.834 		"/>
		<polygon fill="#090909" points="203.278,295.127 193.333,295.127 194.594,285.834 204.238,285.834 		"/>
		<polygon fill="#090909" points="215.211,295.127 205.267,295.127 206.167,285.834 215.811,285.834 		"/>
		<polygon fill="#090909" points="227.145,295.127 217.201,295.127 217.74,285.834 227.384,285.834 		"/>
		<polygon fill="#090909" points="239.079,295.127 229.135,295.127 229.313,285.834 238.958,285.834 		"/>
		<polygon fill="#090909" points="251.013,295.127 241.068,295.127 240.887,285.834 250.532,285.834 		"/>
		<polygon fill="#090909" points="262.947,295.127 253.001,295.127 252.46,285.834 262.105,285.834 		"/>
		<polygon fill="#090909" points="274.88,295.127 264.936,295.127 264.033,285.834 273.678,285.834 		"/>
		<polygon fill="#090909" points="286.815,295.127 276.87,295.127 275.607,285.834 285.252,285.834 		"/>
		<polygon fill="#090909" points="298.748,295.127 288.803,295.127 287.181,285.834 296.825,285.834 		"/>
		<polygon fill="#090909" points="310.682,295.127 300.737,295.127 298.754,285.834 308.399,285.834 		"/>
		<polygon fill="#090909" points="322.616,295.127 312.671,295.127 310.328,285.834 319.972,285.834 		"/>
		<polygon fill="#090909" points="334.55,295.127 324.605,295.127 321.902,285.834 331.546,285.834 		"/>
		<polygon fill="#090909" points="346.485,295.127 336.539,295.127 333.474,285.834 343.12,285.834 		"/>
		<polygon fill="#090909" points="358.417,295.127 348.473,295.127 345.048,285.834 354.692,285.834 		"/>
		<polygon fill="#090909" points="370.351,295.127 360.407,295.127 356.622,285.834 366.266,285.834 		"/>
		<polygon fill="#090909" points="382.286,295.127 372.341,295.127 368.195,285.834 377.839,285.834 		"/>
	</g>
	<g>
		<g>
			<polygon points="117.964,269.88 108.813,269.88 112.957,260.587 121.808,260.587 			"/>
			<polygon points="125.027,281.608 103.584,281.608 107.729,272.314 128.495,272.314 			"/>
			<polygon points="120.735,294.441 98.359,294.441 102.488,285.148 124.188,285.148 			"/>
			<polygon points="128.946,269.88 119.794,269.88 123.577,260.587 132.429,260.587 			"/>
			<polygon points="139.926,269.88 130.775,269.88 134.198,260.587 143.049,260.587 			"/>
			<polygon points="150.908,269.88 141.757,269.88 144.819,260.587 153.67,260.587 			"/>
			<polygon points="161.891,269.88 152.739,269.88 155.44,260.587 164.292,260.587 			"/>
			<polygon points="172.871,269.88 163.72,269.88 166.062,260.587 174.912,260.587 			"/>
			<polygon points="183.852,269.88 174.701,269.88 176.682,260.587 185.532,260.587 			"/>
			<polygon points="194.834,269.88 185.682,269.88 187.303,260.587 196.154,260.587 			"/>
			<polygon points="205.815,269.88 196.665,269.88 197.925,260.587 206.775,260.587 			"/>
			<polygon points="216.796,269.88 207.645,269.88 208.545,260.587 217.396,260.587 			"/>
			<polygon points="227.777,269.88 218.626,269.88 219.166,260.587 228.017,260.587 			"/>
			<polygon points="238.759,269.88 229.608,269.88 229.787,260.587 238.638,260.587 			"/>
			<polygon points="249.74,269.88 240.589,269.88 240.408,260.587 249.259,260.587 			"/>
			<polygon points="260.722,269.88 251.57,269.88 251.028,260.587 259.88,260.587 			"/>
			<polygon points="271.702,269.88 262.551,269.88 261.649,260.587 270.5,260.587 			"/>
			<polygon points="282.685,269.88 273.533,269.88 272.271,260.587 281.122,260.587 			"/>
			<polygon points="293.666,269.88 284.515,269.88 282.892,260.587 291.742,260.587 			"/>
			<polygon points="304.647,269.88 295.496,269.88 293.513,260.587 302.364,260.587 			"/>
			<polygon points="315.628,269.88 306.477,269.88 304.133,260.587 312.985,260.587 			"/>
			<polygon points="326.61,269.88 317.459,269.88 314.754,260.587 323.606,260.587 			"/>
			<polygon points="337.592,269.88 328.44,269.88 325.375,260.587 334.227,260.587 			"/>
			<polygon points="348.573,269.88 339.421,269.88 335.997,260.587 344.847,260.587 			"/>
			<polygon points="359.554,269.88 350.403,269.88 346.618,260.587 355.468,260.587 			"/>
			<polygon points="370.536,269.88 361.384,269.88 357.239,260.587 366.089,260.587 			"/>
			<polygon points="381.517,269.88 372.366,269.88 367.86,260.587 376.71,260.587 			"/>
			<polygon points="102.866,306.39 92.535,306.39 96.679,297.096 106.709,297.096 			"/>
			<polygon points="115.263,306.39 104.931,306.39 108.715,297.096 118.746,297.096 			"/>
			<polygon points="127.66,306.39 117.329,306.39 120.752,297.096 130.782,297.096 			"/>
			<polygon points="140.057,306.39 129.726,306.39 132.789,297.096 142.819,297.096 			"/>
			<polygon points="152.456,306.39 142.124,306.39 144.826,297.096 154.857,297.096 			"/>
			<polygon points="164.852,306.39 154.521,306.39 156.863,297.096 166.893,297.096 			"/>
			<polygon points="325.499,306.39 167.434,306.39 169.4,297.096 322.87,297.096 			"/>
			<polygon points="338.414,306.39 328.083,306.39 325.378,297.096 335.409,297.096 			"/>
			<polygon points="350.811,306.39 340.479,306.39 337.415,297.096 347.446,297.096 			"/>
			<polygon points="363.208,306.39 352.876,306.39 349.452,297.096 359.482,297.096 			"/>
			<polygon points="375.605,306.39 365.274,306.39 361.489,297.096 371.519,297.096 			"/>
			<polygon points="388.002,306.39 377.671,306.39 373.526,297.096 383.556,297.096 			"/>
			<polygon points="400.4,306.39 390.069,306.39 385.562,297.096 395.593,297.096 			"/>
			<polygon points="135.986,281.608 126.456,281.608 129.879,272.314 139.109,272.314 			"/>
			<polygon points="147.422,281.608 137.893,281.608 140.955,272.314 150.185,272.314 			"/>
			<polygon points="158.86,281.608 149.329,281.608 152.031,272.314 161.262,272.314 			"/>
			<polygon points="170.295,281.608 160.765,281.608 163.107,272.314 172.336,272.314 			"/>
			<polygon points="181.73,281.608 172.2,281.608 174.182,272.314 183.411,272.314 			"/>
			<polygon points="193.167,281.608 183.637,281.608 185.258,272.314 194.488,272.314 			"/>
			<polygon points="204.604,281.608 195.074,281.608 196.334,272.314 205.564,272.314 			"/>
			<polygon points="216.039,281.608 206.509,281.608 207.409,272.314 216.639,272.314 			"/>
			<polygon points="227.476,281.608 217.946,281.608 218.485,272.314 227.715,272.314 			"/>
			<polygon points="238.912,281.608 229.382,281.608 229.561,272.314 238.791,272.314 			"/>
			<polygon points="250.348,281.608 240.818,281.608 240.637,272.314 249.867,272.314 			"/>
			<polygon points="261.785,281.608 252.253,281.608 251.712,272.314 260.942,272.314 			"/>
			<polygon points="273.22,281.608 263.69,281.608 262.788,272.314 272.017,272.314 			"/>
			<polygon points="284.657,281.608 275.126,281.608 273.864,272.314 283.094,272.314 			"/>
			<polygon points="296.092,281.608 286.563,281.608 284.939,272.314 294.169,272.314 			"/>
			<polygon points="307.529,281.608 297.999,281.608 296.015,272.314 305.245,272.314 			"/>
			<polygon points="318.965,281.608 309.435,281.608 307.091,272.314 316.321,272.314 			"/>
			<polygon points="330.402,281.608 320.872,281.608 318.167,272.314 327.397,272.314 			"/>
			<polygon points="341.838,281.608 332.307,281.608 329.243,272.314 338.473,272.314 			"/>
			<polygon points="353.273,281.608 343.744,281.608 340.318,272.314 349.547,272.314 			"/>
			<polygon points="364.709,281.608 355.18,281.608 351.394,272.314 360.624,272.314 			"/>
			<polygon points="376.146,281.608 366.616,281.608 362.47,272.314 371.7,272.314 			"/>
			<polygon points="393.876,293.777 383.953,293.777 373.545,272.314 382.776,272.314 			"/>
			<polygon points="131.674,294.441 121.729,294.441 125.152,285.148 134.797,285.148 			"/>
			<polygon points="143.608,294.441 133.664,294.441 136.726,285.148 146.37,285.148 			"/>
			<polygon points="155.543,294.441 145.598,294.441 148.3,285.148 157.945,285.148 			"/>
			<polygon points="167.477,294.441 157.532,294.441 159.873,285.148 169.518,285.148 			"/>
			<polygon points="179.409,294.441 169.464,294.441 171.446,285.148 181.09,285.148 			"/>
			<polygon points="191.344,294.441 181.398,294.441 183.02,285.148 192.665,285.148 			"/>
			<polygon points="203.278,294.441 193.333,294.441 194.594,285.148 204.238,285.148 			"/>
			<polygon points="215.211,294.441 205.267,294.441 206.167,285.148 215.811,285.148 			"/>
			<polygon points="227.145,294.441 217.201,294.441 217.74,285.148 227.384,285.148 			"/>
			<polygon points="239.079,294.441 229.135,294.441 229.313,285.148 238.958,285.148 			"/>
			<polygon points="251.013,294.441 241.068,294.441 240.887,285.148 250.532,285.148 			"/>
			<polygon points="262.947,294.441 253.001,294.441 252.46,285.148 262.105,285.148 			"/>
			<polygon points="274.88,294.441 264.936,294.441 264.033,285.148 273.678,285.148 			"/>
			<polygon points="286.815,294.441 276.87,294.441 275.607,285.148 285.252,285.148 			"/>
			<polygon points="298.748,294.441 288.803,294.441 287.181,285.148 296.825,285.148 			"/>
			<polygon points="310.682,294.441 300.737,294.441 298.754,285.148 308.399,285.148 			"/>
			<polygon points="322.616,294.441 312.671,294.441 310.328,285.148 319.972,285.148 			"/>
			<polygon points="334.55,294.441 324.605,294.441 321.902,285.148 331.546,285.148 			"/>
			<polygon points="346.485,294.441 336.539,294.441 333.474,285.148 343.12,285.148 			"/>
			<polygon points="358.417,294.441 348.473,294.441 345.048,285.148 354.692,285.148 			"/>
			<polygon points="370.351,294.441 360.407,294.441 356.622,285.148 366.266,285.148 			"/>
			<polygon points="382.286,294.441 372.341,294.441 368.195,285.148 377.839,285.148 			"/>
		</g>
	</g>
</g>
<g>
	<g>
		<polygon fill="#F89939" points="271.159,179.755 242.813,196.76 214.465,179.755 214.465,145.739 242.813,128.731 
			271.159,145.739 		"/>
	</g>
	<polygon fill="#FFFFFF" points="240.071,177.61 240.079,156.813 228.811,156.809 235.749,149.878 254.811,149.888 254.809,156.82 
		245.276,156.816 245.268,177.612 	"/>
</g>
</svg>
