<?xml version="1.0" encoding="utf-8"?>
<!-- Generator: Adobe Illustrator 19.1.0, SVG Export Plug-In . SVG Version: 6.00 Build 0)  -->
<svg version="1.1" id="Layer_1" xmlns="http://www.w3.org/2000/svg" xmlns:xlink="http://www.w3.org/1999/xlink" x="0px" y="0px"
	 viewBox="-5 197 600 400" style="enable-background:new -5 197 600 400;" xml:space="preserve">
<style type="text/css">
	.st0{fill:#FFFFFF;stroke:#000000;stroke-width:0.5;stroke-miterlimit:10;}
	.st1{fill:#171617;stroke:#000000;stroke-width:0.7524;stroke-miterlimit:10;}
	.st2{fill:#FFCE0C;}
	.st3{fill:#FFCE0C;stroke:#F89939;stroke-width:0.869;stroke-miterlimit:10;}
	.st4{fill:none;stroke:#F89939;stroke-width:0.8801;stroke-miterlimit:10;}
	.st5{fill:none;stroke:#F89939;stroke-width:0.903;stroke-miterlimit:10;}
	.st6{fill:none;stroke:#F89939;stroke-width:0.9361;stroke-miterlimit:10;}
	.st7{fill:none;stroke:#F89939;stroke-width:0.8854;stroke-miterlimit:10;}
	.st8{fill:#F89939;}
	.st9{fill:none;stroke:#000000;stroke-miterlimit:10;}
	.st10{fill:none;}
	.st11{fill:#FFFFFF;stroke:#000000;stroke-width:0.5395;stroke-miterlimit:10;}
	.st12{fill:#010101;stroke:#FFFFFF;stroke-width:0.2145;stroke-miterlimit:10;}
	.st13{fill:#3499CD;}
	.st14{fill:#996699;}
	.st15{fill:#EF3B68;}
	.st16{fill:#6FC498;}
	.st17{fill:none;stroke:#FFFFFF;stroke-width:0.6434;stroke-miterlimit:10;}
	.st18{fill:none;stroke:#FFFFFF;stroke-width:0.6434;stroke-miterlimit:10;stroke-dasharray:1.4605,1.4605;}
	.st19{fill:none;stroke:#FFFFFF;stroke-width:0.6434;stroke-miterlimit:10;stroke-dasharray:1.5664,1.5664;}
	.st20{fill:#C2C1C1;}
	.st21{fill:#676767;}
	.st22{opacity:0.15;}
	.st23{fill:#090909;}
	.st24{fill:#FFFFFF;}
</style>
<rect x="506" y="279.2" class="st0" width="34" height="22.7"/>
<g>
	<path d="M513.7,292.7v-6.2h4.2v1.2h-2.8v1.2h2.5v1.2h-2.5v1.5h3v1.2H513.7z"/>
	<path d="M520.8,286.5c0.1,0.2,0.2,0.4,0.4,0.7c0.1,0.3,0.3,0.6,0.4,0.9c0.2,0.3,0.3,0.7,0.5,1s0.3,0.7,0.4,1c0.1-0.3,0.3-0.6,0.4-1
		s0.3-0.7,0.5-1c0.2-0.3,0.3-0.7,0.4-0.9c0.1-0.3,0.3-0.5,0.4-0.7h1.3c0.1,0.4,0.1,0.9,0.2,1.4c0.1,0.5,0.1,1,0.1,1.6
		c0,0.6,0.1,1.1,0.1,1.7c0,0.6,0.1,1.1,0.1,1.6h-1.4c0-0.6,0-1.3-0.1-2c0-0.7-0.1-1.4-0.1-2.2c-0.1,0.3-0.2,0.5-0.4,0.8
		s-0.3,0.6-0.4,0.9s-0.3,0.6-0.4,0.9c-0.1,0.3-0.2,0.5-0.3,0.7h-1c-0.1-0.2-0.2-0.4-0.3-0.7c-0.1-0.3-0.2-0.6-0.4-0.9
		c-0.1-0.3-0.3-0.6-0.4-0.9c-0.1-0.3-0.3-0.6-0.4-0.8c-0.1,0.7-0.1,1.4-0.1,2.2c0,0.7-0.1,1.4-0.1,2H519c0-0.5,0.1-1,0.1-1.6
		c0-0.6,0.1-1.1,0.1-1.7c0-0.6,0.1-1.1,0.1-1.6c0.1-0.5,0.1-1,0.2-1.4H520.8z"/>
	<path d="M530.1,292.8c-1,0-1.8-0.3-2.3-0.8c-0.5-0.6-0.8-1.4-0.8-2.4c0-0.5,0.1-1,0.2-1.4c0.2-0.4,0.4-0.7,0.7-1
		c0.3-0.3,0.6-0.5,1-0.6c0.4-0.1,0.8-0.2,1.3-0.2c0.3,0,0.5,0,0.7,0.1s0.4,0.1,0.6,0.1s0.3,0.1,0.4,0.2c0.1,0.1,0.2,0.1,0.2,0.1
		l-0.4,1.1c-0.2-0.1-0.4-0.2-0.7-0.3c-0.3-0.1-0.5-0.1-0.9-0.1c-0.2,0-0.4,0-0.6,0.1c-0.2,0.1-0.4,0.2-0.5,0.3
		c-0.2,0.2-0.3,0.4-0.4,0.6c-0.1,0.3-0.1,0.6-0.1,0.9c0,0.3,0,0.6,0.1,0.8c0.1,0.3,0.2,0.5,0.3,0.6c0.1,0.2,0.3,0.3,0.6,0.4
		c0.2,0.1,0.5,0.2,0.8,0.2c0.2,0,0.4,0,0.5,0c0.2,0,0.3-0.1,0.4-0.1c0.1,0,0.2-0.1,0.3-0.1c0.1,0,0.2-0.1,0.3-0.1l0.4,1.1
		c-0.2,0.1-0.5,0.2-0.8,0.3C531,292.8,530.6,292.8,530.1,292.8z"/>
</g>
<g>
	<polygon points="447.5,265.2 447.5,461.3 384.1,461.3 384.1,464.3 450.5,464.3 450.5,268.2 490.4,268.2 490.4,288.2 493.4,288.2 
		493.4,265.2 	"/>
	<g>
		<polygon class="st1" points="490.4,278.9 489,286.8 494.8,286.8 493.4,278.9 		"/>
		<polygon class="st1" points="488.6,300.3 495.3,300.3 495.3,288.9 494.8,286.8 489,286.8 488.6,288.9 		"/>
		<path class="st1" d="M488.6,288.8"/>
		<line class="st1" x1="494.8" y1="285.4" x2="489" y2="285.4"/>
		<line class="st1" x1="494.5" y1="283.9" x2="489.4" y2="283.9"/>
		<line class="st1" x1="494.1" y1="282.4" x2="489.7" y2="282.4"/>
		<line class="st1" x1="493.9" y1="280.9" x2="490" y2="280.9"/>
		<rect x="490.3" y="276.2" class="st1" width="3.3" height="3.5"/>
	</g>
</g>
<g>
	<g>
		<polygon class="st2" points="501.7,485.3 349.5,485.3 349.5,480.3 496.7,480.3 496.7,440.4 501.7,440.4 		"/>
	</g>
	<g>
		<polygon class="st2" points="496,446.9 493,438.9 505.5,438.9 502.5,446.9 		"/>
		<polygon class="st3" points="492,425.5 506.5,425.5 506.5,436.9 505.5,438.9 493,438.9 492,436.9 		"/>
		<path class="st3" d="M492,437"/>
		<line class="st4" x1="505.5" y1="440.4" x2="493" y2="440.4"/>
		<line class="st5" x1="504.7" y1="441.9" x2="493.7" y2="441.9"/>
		<line class="st6" x1="504" y1="443.4" x2="494.5" y2="443.4"/>
		<line class="st7" x1="503.5" y1="444.9" x2="495" y2="444.9"/>
		<rect x="495.6" y="446.1" class="st8" width="7.2" height="3.5"/>
	</g>
</g>
<g>
	<polygon class="st0" points="537.4,449.1 520,449.1 522,429.9 535.4,429.9 	"/>
	<g>
		<g>
			<g>
				<path class="st9" d="M528.7,464.5c-3.7,0-7.4-1.4-10.3-4.2l1.4-1.4c4.9,4.9,12.8,4.9,17.7,0l1.4,1.4
					C536.1,463.1,532.4,464.5,528.7,464.5z"/>
				<path class="st9" d="M528.7,460.9c-2.8,0-5.6-1.1-7.8-3.2l1.4-1.4c3.5,3.5,9.2,3.5,12.7,0l1.4,1.4
					C534.3,459.9,531.5,460.9,528.7,460.9z"/>
				<path class="st9" d="M528.7,457c-1.8,0-3.5-0.7-4.8-2l1.4-1.4c0.9,0.9,2.1,1.4,3.4,1.4s2.5-0.5,3.4-1.4l1.4,1.4
					C532.2,456.3,530.5,457,528.7,457z"/>
			</g>
		</g>
	</g>
</g>
<g>
	<path d="M525.4,442c0,0.1,0.1,0.3,0.1,0.5c0,0.2,0.1,0.3,0.2,0.5c0.1,0.2,0.1,0.4,0.2,0.6c0.1,0.2,0.1,0.4,0.2,0.5
		c0-0.2,0.1-0.4,0.1-0.6c0-0.2,0.1-0.4,0.1-0.6c0-0.2,0.1-0.4,0.1-0.6s0.1-0.4,0.1-0.6h0.8c-0.1,0.6-0.3,1.2-0.4,1.8
		c-0.2,0.6-0.3,1.2-0.5,1.7h-0.7c-0.1-0.3-0.2-0.7-0.3-1s-0.2-0.7-0.3-1.1c-0.1,0.4-0.2,0.7-0.3,1.1s-0.2,0.7-0.3,1h-0.7
		c-0.2-0.5-0.3-1.1-0.5-1.7c-0.2-0.6-0.3-1.2-0.4-1.8h0.8c0,0.2,0.1,0.4,0.1,0.6c0,0.2,0.1,0.4,0.1,0.6c0,0.2,0.1,0.4,0.1,0.6
		c0,0.2,0.1,0.4,0.1,0.6c0.1-0.2,0.1-0.3,0.2-0.5c0.1-0.2,0.1-0.4,0.2-0.6c0.1-0.2,0.1-0.4,0.1-0.5s0.1-0.3,0.1-0.5H525.4z"/>
	<path d="M528.6,441.8c0,0.1,0,0.2-0.1,0.3s-0.2,0.1-0.3,0.1s-0.2,0-0.3-0.1s-0.1-0.2-0.1-0.3s0-0.2,0.1-0.3
		c0.1-0.1,0.2-0.1,0.3-0.1c0.1,0,0.2,0,0.3,0.1C528.5,441.5,528.6,441.6,528.6,441.8z M528.5,445.1h-0.7v-2.6h0.7V445.1z"/>
	<path d="M529,443.3h1.5v0.7H529V443.3z"/>
	<path d="M530.9,445.1v-3.5h2.3v0.7h-1.5v0.7h1.4v0.7h-1.4v1.4H530.9z"/>
	<path d="M534.6,441.8c0,0.1,0,0.2-0.1,0.3c-0.1,0.1-0.2,0.1-0.3,0.1c-0.1,0-0.2,0-0.3-0.1c-0.1-0.1-0.1-0.2-0.1-0.3s0-0.2,0.1-0.3
		c0.1-0.1,0.2-0.1,0.3-0.1c0.1,0,0.2,0,0.3,0.1C534.5,441.5,534.6,441.6,534.6,441.8z M534.5,445.1h-0.7v-2.6h0.7V445.1z"/>
</g>
<g>
	<path class="st10" d="M402.6,472.1"/>
</g>
<g>
	<rect x="469.6" y="306.7" class="st11" width="91.1" height="116.7"/>
	<g>
		<g>
			<g>
				<path class="st12" d="M514.8,355.5"/>
			</g>
			<g>
				<path class="st12" d="M514.8,355.5"/>
			</g>
			<g>
				<path class="st12" d="M514.8,355.5"/>
			</g>
			<g>
				<path class="st12" d="M514.8,355.5"/>
			</g>
		</g>
		<polyline class="st13" points="541.6,370.9 528.2,378.9 514.8,387 514.8,370.9 514.8,354.8 		"/>
		<polyline class="st14" points="541.6,370.9 541.6,354.8 541.6,338.7 528.2,346.7 514.8,354.8 		"/>
		<polyline class="st8" points="514.8,322.6 501.3,330.7 487.9,338.7 501.3,346.7 514.8,354.8 		"/>
		<polyline class="st15" points="514.8,322.6 528.2,330.7 541.6,338.7 528.2,346.7 514.8,354.8 		"/>
		<polyline class="st2" points="487.9,370.9 501.3,378.9 514.8,387 514.8,370.9 514.8,354.8 		"/>
		<polyline class="st16" points="487.9,370.9 487.9,354.8 487.9,338.7 501.3,346.7 514.8,354.8 		"/>
		<g>
			<g>
				<g>
					<line class="st17" x1="514.8" y1="322.6" x2="514.8" y2="323.4"/>
					<line class="st18" x1="514.8" y1="324.8" x2="514.8" y2="353.3"/>
					<line class="st17" x1="514.8" y1="354" x2="514.8" y2="354.8"/>
				</g>
			</g>
			<g>
				<g>
					<line class="st17" x1="514.8" y1="354.8" x2="515.4" y2="355.2"/>
					<line class="st19" x1="516.7" y1="356" x2="540.2" y2="370.1"/>
					<line class="st17" x1="540.9" y1="370.5" x2="541.6" y2="370.9"/>
				</g>
			</g>
			<g>
				<g>
					<line class="st17" x1="514.8" y1="354.8" x2="514.1" y2="355.2"/>
					<line class="st19" x1="512.8" y1="356" x2="489.3" y2="370.1"/>
					<line class="st17" x1="488.6" y1="370.5" x2="487.9" y2="370.9"/>
				</g>
			</g>
		</g>
		<g>
			<line class="st17" x1="514.8" y1="387" x2="514.8" y2="354.8"/>
			<line class="st17" x1="514.8" y1="354.8" x2="541.6" y2="338.7"/>
			<line class="st17" x1="514.8" y1="354.8" x2="487.9" y2="338.7"/>
		</g>
	</g>
	<rect x="474.8" y="426.6" class="st11" width="80.3" height="6.5"/>
	<rect x="474.8" y="297.2" class="st11" width="80.3" height="6.5"/>
	<rect x="467.8" y="301.3" width="94.4" height="5.6"/>
	<rect x="467.8" y="423.3" width="94.4" height="5.6"/>
	<g>
		<path d="M507.3,393.6h2.1v9.3h-2.1v-3.9h-3.5v3.9h-2.1v-9.3h2.1v3.5h3.5V393.6z"/>
		<path d="M515.1,403.1c-0.7,0-1.2-0.1-1.7-0.3c-0.5-0.2-0.9-0.4-1.2-0.8c-0.3-0.3-0.5-0.7-0.7-1.2c-0.1-0.5-0.2-0.9-0.2-1.5v-5.8
			h2.1v5.6c0,0.4,0,0.7,0.1,1c0.1,0.3,0.2,0.5,0.3,0.6c0.1,0.2,0.3,0.3,0.5,0.4c0.2,0.1,0.4,0.1,0.7,0.1c0.5,0,0.9-0.2,1.2-0.5
			s0.5-0.8,0.5-1.6v-5.6h2.1v5.8c0,0.5-0.1,1-0.2,1.5c-0.2,0.5-0.4,0.8-0.7,1.2c-0.3,0.3-0.7,0.6-1.2,0.8
			C516.4,403,515.8,403.1,515.1,403.1z"/>
		<path d="M524.1,403c-0.5,0-1,0-1.5,0c-0.5,0-1-0.1-1.6-0.2v-9c0.4-0.1,0.9-0.1,1.4-0.2c0.5,0,1-0.1,1.4-0.1c0.6,0,1.1,0,1.6,0.1
			s0.9,0.2,1.3,0.4c0.4,0.2,0.6,0.5,0.8,0.8c0.2,0.3,0.3,0.7,0.3,1.2c0,0.7-0.4,1.3-1.1,1.8c0.6,0.2,1,0.5,1.2,0.9
			c0.2,0.4,0.3,0.8,0.3,1.3c0,1-0.4,1.7-1.1,2.2C526.5,402.7,525.5,403,524.1,403z M523,397.2h1c0.6,0,1.1-0.1,1.4-0.2
			c0.3-0.2,0.4-0.4,0.4-0.8c0-0.4-0.1-0.6-0.4-0.8c-0.3-0.2-0.7-0.2-1.3-0.2c-0.2,0-0.4,0-0.6,0c-0.2,0-0.4,0-0.5,0V397.2z
			 M523,398.8v2.4c0.2,0,0.3,0,0.5,0c0.2,0,0.4,0,0.6,0c0.6,0,1.1-0.1,1.5-0.3c0.4-0.2,0.6-0.5,0.6-1c0-0.4-0.2-0.7-0.5-0.9
			c-0.3-0.2-0.8-0.3-1.4-0.3H523L523,398.8z"/>
	</g>
	<rect x="472.3" y="354.8" width="3.3" height="17.9"/>
	<rect x="554.9" y="354.8" width="3.3" height="17.9"/>
</g>
<g>
	<g>
		<path class="st10" d="M474.7,434.1"/>
	</g>
	<g>
		<path class="st10" d="M474.7,420.7"/>
	</g>
	<g>
		<path class="st10" d="M497.2,412.4"/>
	</g>
	<g>
		<path class="st10" d="M492.4,427.6"/>
	</g>
	<g>
		<path class="st10" d="M488.5,420"/>
	</g>
	<g>
		<path class="st10" d="M455.5,427.6"/>
	</g>
	<g>
		<path class="st10" d="M459.3,420"/>
	</g>
</g>
<g>
	<path d="M388.1,443.8c0,6.4-5.2,11.5-11.5,11.5H100.4c-6.4,0-11.5-5.2-11.5-11.5V280.1c0-6.4,5.2-11.5,11.5-11.5h276.1
		c6.4,0,11.5,5.2,11.5,11.5V443.8z"/>
	<polygon class="st20" points="88.8,445.7 42,520.3 433.2,519.6 388.2,445.3 	"/>
	<path class="st21" d="M433.6,520L433.6,520c0,4.2-4.4,7.6-9.9,7.6H52.4c-5.5,0-9.9-3.4-9.9-7.6l0,0"/>
	<rect x="105.6" y="283.6" class="st13" width="266" height="148.1"/>
</g>
<g>
	<g class="st22">
		<polygon class="st23" points="113,467.6 103.8,467.6 108,458.3 116.8,458.3 		"/>
		<polygon class="st23" points="120,479.3 98.6,479.3 102.7,470 123.5,470 		"/>
		<polygon class="st23" points="115.7,492.1 93.4,492.1 97.5,482.8 119.2,482.8 		"/>
		<polygon class="st23" points="123.9,467.6 114.8,467.6 118.6,458.3 127.4,458.3 		"/>
		<polygon class="st23" points="134.9,467.6 125.8,467.6 129.2,458.3 138,458.3 		"/>
		<polygon class="st23" points="145.9,467.6 136.8,467.6 139.8,458.3 148.7,458.3 		"/>
		<polygon class="st23" points="156.9,467.6 147.7,467.6 150.4,458.3 159.3,458.3 		"/>
		<polygon class="st23" points="167.9,467.6 158.7,467.6 161.1,458.3 169.9,458.3 		"/>
		<polygon class="st23" points="178.9,467.6 169.7,467.6 171.7,458.3 180.5,458.3 		"/>
		<polygon class="st23" points="189.8,467.6 180.7,467.6 182.3,458.3 191.2,458.3 		"/>
		<polygon class="st23" points="200.8,467.6 191.7,467.6 192.9,458.3 201.8,458.3 		"/>
		<polygon class="st23" points="211.8,467.6 202.6,467.6 203.5,458.3 212.4,458.3 		"/>
		<polygon class="st23" points="222.8,467.6 213.6,467.6 214.2,458.3 223,458.3 		"/>
		<polygon class="st23" points="233.8,467.6 224.6,467.6 224.8,458.3 233.6,458.3 		"/>
		<polygon class="st23" points="244.7,467.6 235.6,467.6 235.4,458.3 244.3,458.3 		"/>
		<polygon class="st23" points="255.7,467.6 246.6,467.6 246,458.3 254.9,458.3 		"/>
		<polygon class="st23" points="266.7,467.6 257.6,467.6 256.6,458.3 265.5,458.3 		"/>
		<polygon class="st23" points="277.7,467.6 268.5,467.6 267.3,458.3 276.1,458.3 		"/>
		<polygon class="st23" points="288.7,467.6 279.5,467.6 277.9,458.3 286.7,458.3 		"/>
		<polygon class="st23" points="299.6,467.6 290.5,467.6 288.5,458.3 297.4,458.3 		"/>
		<polygon class="st23" points="310.6,467.6 301.5,467.6 299.1,458.3 308,458.3 		"/>
		<polygon class="st23" points="321.6,467.6 312.5,467.6 309.8,458.3 318.6,458.3 		"/>
		<polygon class="st23" points="332.6,467.6 323.4,467.6 320.4,458.3 329.2,458.3 		"/>
		<polygon class="st23" points="343.6,467.6 334.4,467.6 331,458.3 339.8,458.3 		"/>
		<polygon class="st23" points="354.6,467.6 345.4,467.6 341.6,458.3 350.5,458.3 		"/>
		<polygon class="st23" points="365.5,467.6 356.4,467.6 352.2,458.3 361.1,458.3 		"/>
		<polygon class="st23" points="376.5,467.6 367.4,467.6 362.9,458.3 371.7,458.3 		"/>
		<polygon class="st23" points="97.9,504.1 87.5,504.1 91.7,494.8 101.7,494.8 		"/>
		<polygon class="st23" points="110.3,504.1 99.9,504.1 103.7,494.8 113.7,494.8 		"/>
		<polygon class="st23" points="122.7,504.1 112.3,504.1 115.8,494.8 125.8,494.8 		"/>
		<polygon class="st23" points="135.1,504.1 124.7,504.1 127.8,494.8 137.8,494.8 		"/>
		<polygon class="st23" points="147.5,504.1 137.1,504.1 139.8,494.8 149.9,494.8 		"/>
		<polygon class="st23" points="159.9,504.1 149.5,504.1 151.9,494.8 161.9,494.8 		"/>
		<polygon class="st23" points="320.5,504.1 162.4,504.1 164.4,494.8 317.9,494.8 		"/>
		<polygon class="st23" points="333.4,504.1 323.1,504.1 320.4,494.8 330.4,494.8 		"/>
		<polygon class="st23" points="345.8,504.1 335.5,504.1 332.4,494.8 342.4,494.8 		"/>
		<polygon class="st23" points="358.2,504.1 347.9,504.1 344.5,494.8 354.5,494.8 		"/>
		<polygon class="st23" points="370.6,504.1 360.3,504.1 356.5,494.8 366.5,494.8 		"/>
		<polygon class="st23" points="383,504.1 372.7,504.1 368.5,494.8 378.6,494.8 		"/>
		<polygon class="st23" points="395.4,504.1 385.1,504.1 380.6,494.8 390.6,494.8 		"/>
		<polygon class="st23" points="131,479.3 121.5,479.3 124.9,470 134.1,470 		"/>
		<polygon class="st23" points="142.4,479.3 132.9,479.3 136,470 145.2,470 		"/>
		<polygon class="st23" points="153.9,479.3 144.3,479.3 147,470 156.3,470 		"/>
		<polygon class="st23" points="165.3,479.3 155.8,479.3 158.1,470 167.3,470 		"/>
		<polygon class="st23" points="176.7,479.3 167.2,479.3 169.2,470 178.4,470 		"/>
		<polygon class="st23" points="188.2,479.3 178.6,479.3 180.3,470 189.5,470 		"/>
		<polygon class="st23" points="199.6,479.3 190.1,479.3 191.3,470 200.6,470 		"/>
		<polygon class="st23" points="211,479.3 201.5,479.3 202.4,470 211.6,470 		"/>
		<polygon class="st23" points="222.5,479.3 212.9,479.3 213.5,470 222.7,470 		"/>
		<polygon class="st23" points="233.9,479.3 224.4,479.3 224.6,470 233.8,470 		"/>
		<polygon class="st23" points="245.3,479.3 235.8,479.3 235.6,470 244.9,470 		"/>
		<polygon class="st23" points="256.8,479.3 247.3,479.3 246.7,470 255.9,470 		"/>
		<polygon class="st23" points="268.2,479.3 258.7,479.3 257.8,470 267,470 		"/>
		<polygon class="st23" points="279.7,479.3 270.1,479.3 268.9,470 278.1,470 		"/>
		<polygon class="st23" points="291.1,479.3 281.6,479.3 279.9,470 289.2,470 		"/>
		<polygon class="st23" points="302.5,479.3 293,479.3 291,470 300.2,470 		"/>
		<polygon class="st23" points="314,479.3 304.4,479.3 302.1,470 311.3,470 		"/>
		<polygon class="st23" points="325.4,479.3 315.9,479.3 313.2,470 322.4,470 		"/>
		<polygon class="st23" points="336.8,479.3 327.3,479.3 324.2,470 333.5,470 		"/>
		<polygon class="st23" points="348.3,479.3 338.7,479.3 335.3,470 344.5,470 		"/>
		<polygon class="st23" points="359.7,479.3 350.2,479.3 346.4,470 355.6,470 		"/>
		<polygon class="st23" points="371.1,479.3 361.6,479.3 357.5,470 366.7,470 		"/>
		<polygon class="st23" points="388.9,491.5 379,491.5 368.5,470 377.8,470 		"/>
		<polygon class="st23" points="126.7,492.1 116.7,492.1 120.2,482.8 129.8,482.8 		"/>
		<polygon class="st23" points="138.6,492.1 128.7,492.1 131.7,482.8 141.4,482.8 		"/>
		<polygon class="st23" points="150.5,492.1 140.6,492.1 143.3,482.8 152.9,482.8 		"/>
		<polygon class="st23" points="162.5,492.1 152.5,492.1 154.9,482.8 164.5,482.8 		"/>
		<polygon class="st23" points="174.4,492.1 164.5,492.1 166.4,482.8 176.1,482.8 		"/>
		<polygon class="st23" points="186.3,492.1 176.4,492.1 178,482.8 187.7,482.8 		"/>
		<polygon class="st23" points="198.3,492.1 188.3,492.1 189.6,482.8 199.2,482.8 		"/>
		<polygon class="st23" points="210.2,492.1 200.3,492.1 201.2,482.8 210.8,482.8 		"/>
		<polygon class="st23" points="222.1,492.1 212.2,492.1 212.7,482.8 222.4,482.8 		"/>
		<polygon class="st23" points="234.1,492.1 224.1,492.1 224.3,482.8 234,482.8 		"/>
		<polygon class="st23" points="246,492.1 236.1,492.1 235.9,482.8 245.5,482.8 		"/>
		<polygon class="st23" points="257.9,492.1 248,492.1 247.5,482.8 257.1,482.8 		"/>
		<polygon class="st23" points="269.9,492.1 259.9,492.1 259,482.8 268.7,482.8 		"/>
		<polygon class="st23" points="281.8,492.1 271.9,492.1 270.6,482.8 280.3,482.8 		"/>
		<polygon class="st23" points="293.7,492.1 283.8,492.1 282.2,482.8 291.8,482.8 		"/>
		<polygon class="st23" points="305.7,492.1 295.7,492.1 293.8,482.8 303.4,482.8 		"/>
		<polygon class="st23" points="317.6,492.1 307.7,492.1 305.3,482.8 315,482.8 		"/>
		<polygon class="st23" points="329.5,492.1 319.6,492.1 316.9,482.8 326.5,482.8 		"/>
		<polygon class="st23" points="341.5,492.1 331.5,492.1 328.5,482.8 338.1,482.8 		"/>
		<polygon class="st23" points="353.4,492.1 343.5,492.1 340,482.8 349.7,482.8 		"/>
		<polygon class="st23" points="365.4,492.1 355.4,492.1 351.6,482.8 361.3,482.8 		"/>
		<polygon class="st23" points="377.3,492.1 367.3,492.1 363.2,482.8 372.8,482.8 		"/>
	</g>
	<g>
		<g>
			<polygon points="113,466.9 103.8,466.9 108,457.6 116.8,457.6 			"/>
			<polygon points="120,478.6 98.6,478.6 102.7,469.3 123.5,469.3 			"/>
			<polygon points="115.7,491.4 93.4,491.4 97.5,482.1 119.2,482.1 			"/>
			<polygon points="123.9,466.9 114.8,466.9 118.6,457.6 127.4,457.6 			"/>
			<polygon points="134.9,466.9 125.8,466.9 129.2,457.6 138,457.6 			"/>
			<polygon points="145.9,466.9 136.8,466.9 139.8,457.6 148.7,457.6 			"/>
			<polygon points="156.9,466.9 147.7,466.9 150.4,457.6 159.3,457.6 			"/>
			<polygon points="167.9,466.9 158.7,466.9 161.1,457.6 169.9,457.6 			"/>
			<polygon points="178.9,466.9 169.7,466.9 171.7,457.6 180.5,457.6 			"/>
			<polygon points="189.8,466.9 180.7,466.9 182.3,457.6 191.2,457.6 			"/>
			<polygon points="200.8,466.9 191.7,466.9 192.9,457.6 201.8,457.6 			"/>
			<polygon points="211.8,466.9 202.6,466.9 203.5,457.6 212.4,457.6 			"/>
			<polygon points="222.8,466.9 213.6,466.9 214.2,457.6 223,457.6 			"/>
			<polygon points="233.8,466.9 224.6,466.9 224.8,457.6 233.6,457.6 			"/>
			<polygon points="244.7,466.9 235.6,466.9 235.4,457.6 244.3,457.6 			"/>
			<polygon points="255.7,466.9 246.6,466.9 246,457.6 254.9,457.6 			"/>
			<polygon points="266.7,466.9 257.6,466.9 256.6,457.6 265.5,457.6 			"/>
			<polygon points="277.7,466.9 268.5,466.9 267.3,457.6 276.1,457.6 			"/>
			<polygon points="288.7,466.9 279.5,466.9 277.9,457.6 286.7,457.6 			"/>
			<polygon points="299.6,466.9 290.5,466.9 288.5,457.6 297.4,457.6 			"/>
			<polygon points="310.6,466.9 301.5,466.9 299.1,457.6 308,457.6 			"/>
			<polygon points="321.6,466.9 312.5,466.9 309.8,457.6 318.6,457.6 			"/>
			<polygon points="332.6,466.9 323.4,466.9 320.4,457.6 329.2,457.6 			"/>
			<polygon points="343.6,466.9 334.4,466.9 331,457.6 339.8,457.6 			"/>
			<polygon points="354.6,466.9 345.4,466.9 341.6,457.6 350.5,457.6 			"/>
			<polygon points="365.5,466.9 356.4,466.9 352.2,457.6 361.1,457.6 			"/>
			<polygon points="376.5,466.9 367.4,466.9 362.9,457.6 371.7,457.6 			"/>
			<polygon points="97.9,503.4 87.5,503.4 91.7,494.1 101.7,494.1 			"/>
			<polygon points="110.3,503.4 99.9,503.4 103.7,494.1 113.7,494.1 			"/>
			<polygon points="122.7,503.4 112.3,503.4 115.8,494.1 125.8,494.1 			"/>
			<polygon points="135.1,503.4 124.7,503.4 127.8,494.1 137.8,494.1 			"/>
			<polygon points="147.5,503.4 137.1,503.4 139.8,494.1 149.9,494.1 			"/>
			<polygon points="159.9,503.4 149.5,503.4 151.9,494.1 161.9,494.1 			"/>
			<polygon points="320.5,503.4 162.4,503.4 164.4,494.1 317.9,494.1 			"/>
			<polygon points="333.4,503.4 323.1,503.4 320.4,494.1 330.4,494.1 			"/>
			<polygon points="345.8,503.4 335.5,503.4 332.4,494.1 342.4,494.1 			"/>
			<polygon points="358.2,503.4 347.9,503.4 344.5,494.1 354.5,494.1 			"/>
			<polygon points="370.6,503.4 360.3,503.4 356.5,494.1 366.5,494.1 			"/>
			<polygon points="383,503.4 372.7,503.4 368.5,494.1 378.6,494.1 			"/>
			<polygon points="395.4,503.4 385.1,503.4 380.6,494.1 390.6,494.1 			"/>
			<polygon points="131,478.6 121.5,478.6 124.9,469.3 134.1,469.3 			"/>
			<polygon points="142.4,478.6 132.9,478.6 136,469.3 145.2,469.3 			"/>
			<polygon points="153.9,478.6 144.3,478.6 147,469.3 156.3,469.3 			"/>
			<polygon points="165.3,478.6 155.8,478.6 158.1,469.3 167.3,469.3 			"/>
			<polygon points="176.7,478.6 167.2,478.6 169.2,469.3 178.4,469.3 			"/>
			<polygon points="188.2,478.6 178.6,478.6 180.3,469.3 189.5,469.3 			"/>
			<polygon points="199.6,478.6 190.1,478.6 191.3,469.3 200.6,469.3 			"/>
			<polygon points="211,478.6 201.5,478.6 202.4,469.3 211.6,469.3 			"/>
			<polygon points="222.5,478.6 212.9,478.6 213.5,469.3 222.7,469.3 			"/>
			<polygon points="233.9,478.6 224.4,478.6 224.6,469.3 233.8,469.3 			"/>
			<polygon points="245.3,478.6 235.8,478.6 235.6,469.3 244.9,469.3 			"/>
			<polygon points="256.8,478.6 247.3,478.6 246.7,469.3 255.9,469.3 			"/>
			<polygon points="268.2,478.6 258.7,478.6 257.8,469.3 267,469.3 			"/>
			<polygon points="279.7,478.6 270.1,478.6 268.9,469.3 278.1,469.3 			"/>
			<polygon points="291.1,478.6 281.6,478.6 279.9,469.3 289.2,469.3 			"/>
			<polygon points="302.5,478.6 293,478.6 291,469.3 300.2,469.3 			"/>
			<polygon points="314,478.6 304.4,478.6 302.1,469.3 311.3,469.3 			"/>
			<polygon points="325.4,478.6 315.9,478.6 313.2,469.3 322.4,469.3 			"/>
			<polygon points="336.8,478.6 327.3,478.6 324.2,469.3 333.5,469.3 			"/>
			<polygon points="348.3,478.6 338.7,478.6 335.3,469.3 344.5,469.3 			"/>
			<polygon points="359.7,478.6 350.2,478.6 346.4,469.3 355.6,469.3 			"/>
			<polygon points="371.1,478.6 361.6,478.6 357.5,469.3 366.7,469.3 			"/>
			<polygon points="388.9,490.8 379,490.8 368.5,469.3 377.8,469.3 			"/>
			<polygon points="126.7,491.4 116.7,491.4 120.2,482.1 129.8,482.1 			"/>
			<polygon points="138.6,491.4 128.7,491.4 131.7,482.1 141.4,482.1 			"/>
			<polygon points="150.5,491.4 140.6,491.4 143.3,482.1 152.9,482.1 			"/>
			<polygon points="162.5,491.4 152.5,491.4 154.9,482.1 164.5,482.1 			"/>
			<polygon points="174.4,491.4 164.5,491.4 166.4,482.1 176.1,482.1 			"/>
			<polygon points="186.3,491.4 176.4,491.4 178,482.1 187.7,482.1 			"/>
			<polygon points="198.3,491.4 188.3,491.4 189.6,482.1 199.2,482.1 			"/>
			<polygon points="210.2,491.4 200.3,491.4 201.2,482.1 210.8,482.1 			"/>
			<polygon points="222.1,491.4 212.2,491.4 212.7,482.1 222.4,482.1 			"/>
			<polygon points="234.1,491.4 224.1,491.4 224.3,482.1 234,482.1 			"/>
			<polygon points="246,491.4 236.1,491.4 235.9,482.1 245.5,482.1 			"/>
			<polygon points="257.9,491.4 248,491.4 247.5,482.1 257.1,482.1 			"/>
			<polygon points="269.9,491.4 259.9,491.4 259,482.1 268.7,482.1 			"/>
			<polygon points="281.8,491.4 271.9,491.4 270.6,482.1 280.3,482.1 			"/>
			<polygon points="293.7,491.4 283.8,491.4 282.2,482.1 291.8,482.1 			"/>
			<polygon points="305.7,491.4 295.7,491.4 293.8,482.1 303.4,482.1 			"/>
			<polygon points="317.6,491.4 307.7,491.4 305.3,482.1 315,482.1 			"/>
			<polygon points="329.5,491.4 319.6,491.4 316.9,482.1 326.5,482.1 			"/>
			<polygon points="341.5,491.4 331.5,491.4 328.5,482.1 338.1,482.1 			"/>
			<polygon points="353.4,491.4 343.5,491.4 340,482.1 349.7,482.1 			"/>
			<polygon points="365.4,491.4 355.4,491.4 351.6,482.1 361.3,482.1 			"/>
			<polygon points="377.3,491.4 367.3,491.4 363.2,482.1 372.8,482.1 			"/>
		</g>
	</g>
</g>
<g>
	<g>
		<polygon class="st8" points="266.2,376.8 237.8,393.8 209.5,376.8 209.5,342.7 237.8,325.7 266.2,342.7 		"/>
	</g>
	<polygon class="st24" points="235.1,374.6 235.1,353.8 223.8,353.8 230.7,346.9 249.8,346.9 249.8,353.8 240.3,353.8 240.3,374.6 	
		"/>
</g>
</svg>
