<?xml version="1.0" encoding="utf-8"?>
<!-- Generator: Adobe Illustrator 16.0.0, SVG Export Plug-In . SVG Version: 6.00 Build 0)  -->
<!DOCTYPE svg PUBLIC "-//W3C//DTD SVG 1.1//EN" "http://www.w3.org/Graphics/SVG/1.1/DTD/svg11.dtd">
<svg version="1.1" id="Layer_1" xmlns="http://www.w3.org/2000/svg" xmlns:xlink="http://www.w3.org/1999/xlink" x="0px" y="0px"
	 width="599.482px" height="831.614px" viewBox="0 0 599.482 831.614" enable-background="new 0 0 599.482 831.614"
	 xml:space="preserve">
<g>
	
		<line fill="none" stroke="#171617" stroke-width="2.3763" stroke-miterlimit="10" x1="158.858" y1="701.84" x2="317.973" y2="701.84"/>
	
		<line fill="none" stroke="#FFCE09" stroke-width="3.9606" stroke-miterlimit="10" x1="158.858" y1="678.253" x2="306.29" y2="678.253"/>
	<g>
		<g>
			
				<line fill="none" stroke="#EE3968" stroke-width="3.9606" stroke-miterlimit="10" x1="109.271" y1="831.614" x2="109.271" y2="747.268"/>
		</g>
		<g>
			<polygon fill="#EF3B68" points="106.703,752.371 104.327,746.058 114.216,746.058 111.839,752.371 			"/>
			<polygon fill="#EF3B68" stroke="#A61E2E" stroke-width="0.6883" stroke-miterlimit="10" points="103.534,735.422 
				115.007,735.422 115.007,744.451 114.216,746.058 104.327,746.058 103.534,744.451 			"/>
			<path fill="#FFCE09" stroke="#F89839" stroke-width="0.6883" stroke-miterlimit="10" d="M103.534,744.54"/>
			
				<line fill="none" stroke="#A61E2E" stroke-width="0.6971" stroke-miterlimit="10" x1="114.216" y1="747.214" x2="104.314" y2="747.214"/>
			
				<line fill="none" stroke="#A61E2E" stroke-width="0.7153" stroke-miterlimit="10" x1="113.621" y1="748.401" x2="104.908" y2="748.401"/>
			
				<line fill="none" stroke="#A61E2E" stroke-width="0.7415" stroke-miterlimit="10" x1="113.027" y1="749.59" x2="105.502" y2="749.59"/>
			
				<line fill="none" stroke="#A61E2E" stroke-width="0.7014" stroke-miterlimit="10" x1="112.631" y1="750.777" x2="105.898" y2="750.777"/>
			<rect x="106.395" y="751.713" fill="#A61E2E" width="5.692" height="2.762"/>
		</g>
	</g>
	<line fill="none" stroke="#3399CC" stroke-width="3.9606" stroke-miterlimit="10" x1="0" y1="685.979" x2="72.06" y2="685.979"/>
	<g>
		<polygon fill="#3399CC" points="65.479,687.959 66.617,688.9 71.762,688.9 71.762,683.057 66.617,683.057 65.479,684.011 		"/>
		<g>
			<polygon fill="#3399CC" stroke="#1D304B" stroke-width="0.7921" stroke-miterlimit="10" points="91.84,693.007 77.252,693.007 
				71.762,691.422 71.762,680.534 77.234,678.95 91.84,678.95 			"/>
			<g>
				<path fill="#FFFFFF" d="M80.097,682.635v0.619h-2.745v-0.619h1.165v-1.037h-1.165v-0.618h2.745v0.618h-1.05v1.037H80.097z"/>
				<path fill="#FFFFFF" d="M78.727,686.291c-0.238,0-0.445-0.037-0.622-0.111c-0.177-0.073-0.323-0.179-0.44-0.314
					c-0.116-0.137-0.203-0.302-0.26-0.497c-0.058-0.195-0.087-0.415-0.087-0.658c0-0.111,0.004-0.24,0.014-0.388
					c0.009-0.148,0.028-0.293,0.057-0.436h2.674c0.026,0.143,0.044,0.291,0.053,0.446c0.009,0.153,0.014,0.286,0.014,0.396
					c0,0.235-0.026,0.449-0.079,0.641c-0.053,0.191-0.136,0.355-0.25,0.493c-0.114,0.137-0.258,0.243-0.436,0.316
					C79.187,686.254,78.974,686.291,78.727,686.291z M77.855,684.505c-0.002,0.028-0.004,0.063-0.005,0.101
					c-0.001,0.039-0.002,0.083-0.002,0.137c0,0.31,0.078,0.538,0.233,0.688c0.156,0.148,0.372,0.224,0.646,0.224
					c0.288,0,0.505-0.071,0.653-0.214s0.222-0.368,0.222-0.678c0-0.042-0.001-0.086-0.002-0.131
					c-0.001-0.045-0.004-0.086-0.01-0.126H77.855z"/>
				<path fill="#FFFFFF" d="M80.097,687.534c-0.087,0.048-0.195,0.103-0.323,0.165c-0.128,0.063-0.267,0.127-0.417,0.195
					c-0.149,0.067-0.301,0.134-0.457,0.2c-0.156,0.066-0.302,0.129-0.439,0.188c0.137,0.057,0.283,0.12,0.439,0.186
					c0.156,0.066,0.308,0.134,0.457,0.201c0.149,0.068,0.288,0.134,0.417,0.194c0.127,0.063,0.236,0.118,0.323,0.166v0.562
					c-0.182,0.026-0.386,0.051-0.612,0.072c-0.226,0.023-0.461,0.044-0.705,0.061c-0.245,0.018-0.49,0.033-0.735,0.048
					c-0.245,0.015-0.476,0.027-0.693,0.038v-0.603c0.267-0.008,0.557-0.019,0.871-0.032c0.315-0.013,0.631-0.032,0.951-0.059
					c-0.111-0.049-0.234-0.102-0.368-0.16c-0.135-0.057-0.27-0.115-0.404-0.173c-0.135-0.056-0.264-0.111-0.386-0.164
					s-0.228-0.099-0.314-0.136v-0.432c0.087-0.037,0.192-0.082,0.314-0.135c0.123-0.054,0.251-0.109,0.386-0.166
					c0.135-0.058,0.269-0.114,0.404-0.173c0.134-0.058,0.257-0.11,0.368-0.158c-0.32-0.027-0.636-0.047-0.951-0.06
					c-0.314-0.014-0.604-0.024-0.871-0.032v-0.603c0.217,0.012,0.448,0.024,0.693,0.039c0.246,0.014,0.491,0.03,0.735,0.047
					c0.244,0.017,0.479,0.037,0.705,0.06c0.226,0.022,0.43,0.046,0.612,0.074V687.534z"/>
				<path fill="#FFFFFF" d="M80.097,690.359v0.618h-2.745v-0.618H80.097z"/>
			</g>
		</g>
		
			<line fill="none" stroke="#1D304B" stroke-width="0.7921" stroke-miterlimit="10" x1="70.577" y1="683.057" x2="70.577" y2="688.9"/>
		
			<line fill="none" stroke="#1D304B" stroke-width="0.7921" stroke-miterlimit="10" x1="69.389" y1="683.057" x2="69.389" y2="688.9"/>
		
			<line fill="none" stroke="#1D304B" stroke-width="0.7921" stroke-miterlimit="10" x1="68.201" y1="683.057" x2="68.201" y2="688.9"/>
		
			<line fill="none" stroke="#1D304B" stroke-width="0.7921" stroke-miterlimit="10" x1="67.013" y1="683.057" x2="67.013" y2="688.9"/>
	</g>
	
		<rect x="113.551" y="619.989" fill="#171617" stroke="#000000" stroke-width="0.7921" stroke-miterlimit="10" width="26.932" height="17.954"/>
	<g>
		<path fill="#FFFFFF" d="M119.706,630.662v-4.939h3.336v0.934h-2.225v0.969h1.975v0.913h-1.975v1.19h2.389v0.934H119.706z"/>
		<path fill="#FFFFFF" d="M125.338,625.723c0.086,0.156,0.185,0.351,0.297,0.58c0.112,0.231,0.229,0.48,0.35,0.749
			s0.242,0.542,0.361,0.823c0.119,0.28,0.23,0.545,0.335,0.792c0.105-0.247,0.217-0.512,0.336-0.792
			c0.119-0.281,0.239-0.555,0.36-0.823s0.238-0.518,0.351-0.749c0.112-0.229,0.211-0.424,0.297-0.58h1.012
			c0.048,0.327,0.092,0.695,0.132,1.101c0.041,0.407,0.076,0.831,0.107,1.27c0.031,0.438,0.059,0.88,0.085,1.321
			c0.026,0.443,0.049,0.859,0.067,1.248h-1.083c-0.014-0.479-0.033-1.002-0.057-1.567c-0.024-0.565-0.06-1.137-0.107-1.712
			c-0.086,0.2-0.181,0.422-0.286,0.664s-0.209,0.484-0.312,0.727c-0.102,0.242-0.201,0.475-0.296,0.695s-0.176,0.409-0.243,0.566
			h-0.777c-0.066-0.157-0.147-0.346-0.243-0.566c-0.096-0.221-0.195-0.453-0.297-0.695c-0.102-0.242-0.206-0.484-0.311-0.727
			c-0.104-0.242-0.2-0.464-0.286-0.664c-0.047,0.575-0.083,1.146-0.107,1.712c-0.024,0.565-0.043,1.089-0.057,1.567h-1.083
			c0.019-0.389,0.042-0.805,0.068-1.248c0.026-0.441,0.054-0.883,0.085-1.321c0.031-0.438,0.066-0.862,0.107-1.27
			c0.041-0.405,0.084-0.773,0.132-1.101H125.338z"/>
		<path fill="#FFFFFF" d="M132.673,630.762c-0.803,0-1.415-0.223-1.835-0.67c-0.42-0.445-0.631-1.081-0.631-1.903
			c0-0.408,0.064-0.773,0.192-1.094c0.128-0.321,0.304-0.591,0.527-0.813c0.224-0.222,0.49-0.389,0.799-0.503
			c0.309-0.113,0.644-0.172,1.005-0.172c0.208,0,0.399,0.016,0.57,0.047s0.321,0.066,0.449,0.107
			c0.128,0.041,0.235,0.082,0.321,0.125s0.147,0.076,0.186,0.1l-0.321,0.898c-0.152-0.082-0.33-0.15-0.531-0.207
			c-0.202-0.057-0.431-0.086-0.688-0.086c-0.171,0-0.339,0.029-0.503,0.086c-0.164,0.057-0.309,0.148-0.435,0.273
			c-0.126,0.127-0.227,0.289-0.303,0.49c-0.076,0.199-0.114,0.441-0.114,0.727c0,0.229,0.025,0.441,0.075,0.637
			c0.05,0.199,0.131,0.367,0.243,0.51c0.111,0.144,0.257,0.256,0.438,0.34c0.181,0.083,0.4,0.124,0.656,0.124
			c0.162,0,0.307-0.009,0.435-0.028c0.129-0.019,0.243-0.041,0.342-0.068c0.1-0.025,0.188-0.055,0.264-0.088
			c0.076-0.033,0.145-0.064,0.207-0.094l0.306,0.893c-0.156,0.095-0.377,0.18-0.663,0.256S133.049,630.762,132.673,630.762z"/>
	</g>
	<g>
		<polygon fill="#171617" stroke="#000000" stroke-width="0.4878" stroke-miterlimit="10" points="165.721,700.277 165.721,703.406 
			160.638,704.198 151.919,704.198 151.919,699.485 160.638,699.485 		"/>
		
			<line fill="none" stroke="#000000" stroke-width="0.4878" stroke-miterlimit="10" x1="160.638" y1="699.485" x2="160.638" y2="704.198"/>
		
			<line fill="none" stroke="#000000" stroke-width="0.4878" stroke-miterlimit="10" x1="161.682" y1="699.647" x2="161.685" y2="704.035"/>
		
			<line fill="none" stroke="#000000" stroke-width="0.4878" stroke-miterlimit="10" x1="162.665" y1="699.801" x2="162.64" y2="703.886"/>
		
			<line fill="none" stroke="#000000" stroke-width="0.4878" stroke-miterlimit="10" x1="163.563" y1="699.941" x2="163.574" y2="703.739"/>
		
			<line fill="none" stroke="#000000" stroke-width="0.4878" stroke-miterlimit="10" x1="164.359" y1="700.065" x2="164.362" y2="703.618"/>
		
			<line fill="none" stroke="#000000" stroke-width="0.4878" stroke-miterlimit="10" x1="165.073" y1="700.157" x2="165.073" y2="703.521"/>
	</g>
	<g>
		<polygon fill="#FFCE09" stroke="#F89839" stroke-width="0.6644" stroke-miterlimit="10" points="158.245,675.304 158.245,681.202 
			154.872,681.995 150.18,681.995 150.18,674.512 154.939,674.512 		"/>
		<rect x="158.569" y="675.646" fill="#FFCE09" width="7.393" height="5.214"/>
		
			<line fill="none" stroke="#F89839" stroke-width="0.6644" stroke-miterlimit="10" x1="159.229" y1="675.174" x2="159.229" y2="681.247"/>
		
			<line fill="none" stroke="#F89839" stroke-width="0.6644" stroke-miterlimit="10" x1="160.021" y1="675.174" x2="160.021" y2="681.247"/>
		
			<line fill="none" stroke="#F89839" stroke-width="0.6644" stroke-miterlimit="10" x1="160.813" y1="675.174" x2="160.813" y2="681.247"/>
		
			<line fill="none" stroke="#F89839" stroke-width="0.6644" stroke-miterlimit="10" x1="161.605" y1="675.174" x2="161.605" y2="681.247"/>
		
			<line fill="none" stroke="#F89839" stroke-width="0.6644" stroke-miterlimit="10" x1="162.397" y1="675.174" x2="162.397" y2="681.247"/>
		
			<line fill="none" stroke="#F89839" stroke-width="0.6644" stroke-miterlimit="10" x1="163.189" y1="675.174" x2="163.189" y2="681.247"/>
		
			<line fill="none" stroke="#F89839" stroke-width="0.6644" stroke-miterlimit="10" x1="163.981" y1="675.174" x2="163.981" y2="681.247"/>
		
			<line fill="none" stroke="#F89839" stroke-width="0.6644" stroke-miterlimit="10" x1="164.773" y1="675.174" x2="164.773" y2="681.247"/>
	</g>
	<polyline fill="none" stroke="#996699" stroke-width="2.3763" stroke-miterlimit="10" points="102.964,628.475 102.964,576.5 
		-0.125,576.5 	"/>
	<g>
		<polygon fill="#996699" points="101.77,621.051 100.664,627.364 105.264,627.364 104.158,621.051 		"/>
		<polygon fill="#996699" stroke="#654566" stroke-width="0.5941" stroke-miterlimit="10" points="100.296,638 105.632,638 
			105.632,628.971 105.264,627.364 100.664,627.364 100.296,628.971 		"/>
		<path fill="#FFCE09" stroke="#F89839" stroke-width="0.4694" stroke-miterlimit="10" d="M100.296,628.882"/>
		
			<line fill="none" stroke="#654566" stroke-width="0.5941" stroke-miterlimit="10" x1="105.264" y1="626.209" x2="100.658" y2="626.209"/>
		
			<line fill="none" stroke="#654566" stroke-width="0.5941" stroke-miterlimit="10" x1="104.987" y1="625.021" x2="100.935" y2="625.021"/>
		
			<line fill="none" stroke="#654566" stroke-width="0.5941" stroke-miterlimit="10" x1="104.71" y1="623.832" x2="101.211" y2="623.832"/>
		
			<line fill="none" stroke="#654566" stroke-width="0.5941" stroke-miterlimit="10" x1="104.527" y1="622.645" x2="101.395" y2="622.645"/>
		<rect x="101.626" y="618.947" fill="#654566" width="2.647" height="2.762"/>
	</g>
	<g>
		<polygon fill="#6EC498" stroke="#579975" stroke-width="0.7921" stroke-miterlimit="10" points="139.525,753.011 125.72,753.011 
			127.304,737.816 137.941,737.816 		"/>
		<g>
			<g>
				<g>
					<path fill="none" stroke="#579975" stroke-width="1.5842" stroke-miterlimit="10" d="M140.192,761.268
						c-4.184,4.182-10.956,4.182-15.14,0"/>
					<path fill="none" stroke="#579975" stroke-width="1.5842" stroke-miterlimit="10" d="M138.213,759.287
						c-3.091,3.088-8.091,3.088-11.181,0"/>
					<path fill="none" stroke="#579975" stroke-width="1.5842" stroke-miterlimit="10" d="M135.895,757.153
						c-1.808,1.809-4.736,1.809-6.545,0"/>
				</g>
			</g>
		</g>
	</g>
	<g>
		
			<rect x="83.149" y="643.396" fill="#FFFFFF" stroke="#000000" stroke-width="0.3961" stroke-miterlimit="10" width="69.313" height="88.79"/>
		<g>
			<g>
				<g>
					<path fill="#010101" stroke="#FFFFFF" stroke-width="0.1632" stroke-miterlimit="10" d="M117.523,680.466"/>
				</g>
				<g>
					<path fill="#010101" stroke="#FFFFFF" stroke-width="0.1632" stroke-miterlimit="10" d="M117.523,680.466"/>
				</g>
				<g>
					<path fill="#010101" stroke="#FFFFFF" stroke-width="0.1632" stroke-miterlimit="10" d="M117.523,680.466"/>
				</g>
				<g>
					<path fill="#010101" stroke="#FFFFFF" stroke-width="0.1632" stroke-miterlimit="10" d="M117.523,680.466"/>
				</g>
			</g>
			<polyline fill="#3399CC" points="137.926,692.197 127.725,698.317 117.524,704.438 117.524,692.197 117.524,679.957 			"/>
			<polyline fill="#996699" points="137.926,692.197 137.926,679.957 137.926,667.715 127.736,673.836 117.524,679.957 			"/>
			<polyline fill="#F89839" points="117.526,655.473 107.323,661.594 97.121,667.715 107.323,673.836 117.526,679.957 			"/>
			<polyline fill="#EE3968" points="117.524,655.473 127.724,661.594 137.926,667.715 127.725,673.836 117.524,679.957 			"/>
			<polyline fill="#FFCE09" points="97.121,692.197 107.323,698.317 117.526,704.438 117.526,692.197 117.526,679.957 			"/>
			<polyline fill="#6EC498" points="97.122,692.197 97.122,679.957 97.122,667.715 107.323,673.836 117.524,679.957 			"/>
			<g>
				<g>
					<g>
						
							<line fill="none" stroke="#FFFFFF" stroke-width="0.4897" stroke-miterlimit="10" x1="117.527" y1="655.473" x2="117.527" y2="656.044"/>
						
							<line fill="none" stroke="#FFFFFF" stroke-width="0.4897" stroke-miterlimit="10" stroke-dasharray="1.1115,1.1115" x1="117.527" y1="657.155" x2="117.523" y2="678.83"/>
						
							<line fill="none" stroke="#FFFFFF" stroke-width="0.4897" stroke-miterlimit="10" x1="117.523" y1="679.386" x2="117.523" y2="679.957"/>
					</g>
				</g>
				<g>
					<g>
						
							<line fill="none" stroke="#FFFFFF" stroke-width="0.4897" stroke-miterlimit="10" x1="117.523" y1="679.957" x2="118.013" y2="680.251"/>
						
							<line fill="none" stroke="#FFFFFF" stroke-width="0.4897" stroke-miterlimit="10" stroke-dasharray="1.1921,1.1921" x1="119.035" y1="680.864" x2="136.925" y2="691.597"/>
						
							<line fill="none" stroke="#FFFFFF" stroke-width="0.4897" stroke-miterlimit="10" x1="137.436" y1="691.903" x2="137.926" y2="692.197"/>
					</g>
				</g>
				<g>
					<g>
						
							<line fill="none" stroke="#FFFFFF" stroke-width="0.4897" stroke-miterlimit="10" x1="117.523" y1="679.957" x2="117.033" y2="680.251"/>
						
							<line fill="none" stroke="#FFFFFF" stroke-width="0.4897" stroke-miterlimit="10" stroke-dasharray="1.1921,1.1921" x1="116.011" y1="680.864" x2="98.122" y2="691.597"/>
						
							<line fill="none" stroke="#FFFFFF" stroke-width="0.4897" stroke-miterlimit="10" x1="97.611" y1="691.903" x2="97.121" y2="692.197"/>
					</g>
				</g>
			</g>
			<g>
				
					<line fill="none" stroke="#FFFFFF" stroke-width="0.4897" stroke-miterlimit="10" x1="117.527" y1="704.438" x2="117.523" y2="679.957"/>
				
					<line fill="none" stroke="#FFFFFF" stroke-width="0.4897" stroke-miterlimit="10" x1="117.523" y1="679.957" x2="137.926" y2="667.715"/>
				
					<line fill="none" stroke="#FFFFFF" stroke-width="0.4897" stroke-miterlimit="10" x1="117.523" y1="679.957" x2="97.121" y2="667.715"/>
			</g>
		</g>
		
			<rect x="87.111" y="734.583" fill="#FFFFFF" stroke="#000000" stroke-width="0.3961" stroke-miterlimit="10" width="61.108" height="4.979"/>
		
			<rect x="87.111" y="636.132" fill="#FFFFFF" stroke="#000000" stroke-width="0.3961" stroke-miterlimit="10" width="61.108" height="4.979"/>
		
			<line fill="none" stroke="#000000" stroke-width="4.2545" stroke-miterlimit="10" x1="81.801" y1="641.391" x2="153.616" y2="641.391"/>
		
			<line fill="none" stroke="#000000" stroke-width="4.2545" stroke-miterlimit="10" x1="81.801" y1="734.193" x2="153.616" y2="734.193"/>
		<g>
			<path d="M111.836,709.487h1.589v7.058h-1.589v-2.994h-2.668v2.994h-1.589v-7.058h1.589v2.698h2.668V709.487z"/>
			<path d="M117.814,716.688c-0.496,0-0.923-0.069-1.283-0.209c-0.36-0.139-0.657-0.332-0.891-0.58s-0.407-0.543-0.52-0.887
				c-0.112-0.343-0.168-0.721-0.168-1.135v-4.39h1.589v4.257c0,0.285,0.032,0.528,0.097,0.729s0.153,0.363,0.265,0.488
				c0.112,0.126,0.248,0.216,0.408,0.271c0.159,0.054,0.334,0.081,0.524,0.081c0.387,0,0.701-0.118,0.942-0.356
				c0.241-0.237,0.362-0.642,0.362-1.212v-4.257h1.589v4.39c0,0.414-0.058,0.794-0.173,1.141c-0.115,0.346-0.292,0.643-0.529,0.891
				c-0.238,0.248-0.54,0.439-0.907,0.575S118.317,716.688,117.814,716.688z"/>
			<path d="M124.608,716.637c-0.387,0-0.772-0.012-1.156-0.036c-0.384-0.023-0.783-0.079-1.197-0.168v-6.844
				c0.326-0.062,0.682-0.107,1.069-0.138c0.387-0.03,0.747-0.046,1.08-0.046c0.448,0,0.86,0.032,1.237,0.097
				s0.701,0.175,0.973,0.331s0.484,0.361,0.637,0.616s0.229,0.569,0.229,0.942c0,0.563-0.271,1.008-0.815,1.334
				c0.448,0.17,0.754,0.4,0.917,0.692c0.163,0.292,0.244,0.621,0.244,0.988c0,0.74-0.27,1.297-0.81,1.67
				C126.477,716.45,125.674,716.637,124.608,716.637z M123.803,712.257h0.774c0.489,0,0.839-0.063,1.049-0.188
				c0.21-0.125,0.315-0.327,0.315-0.605c0-0.285-0.108-0.485-0.326-0.601c-0.217-0.116-0.537-0.174-0.958-0.174
				c-0.136,0-0.282,0.002-0.438,0.005c-0.156,0.004-0.295,0.013-0.417,0.026V712.257z M123.803,713.469v1.823
				c0.115,0.014,0.241,0.024,0.377,0.031s0.285,0.01,0.448,0.01c0.475,0,0.859-0.067,1.151-0.204
				c0.292-0.136,0.438-0.387,0.438-0.753c0-0.326-0.123-0.559-0.367-0.698c-0.245-0.139-0.594-0.209-1.049-0.209H123.803z"/>
		</g>
		<rect x="85.249" y="679.955" width="2.547" height="13.606"/>
		<rect x="148.055" y="679.955" width="2.546" height="13.606"/>
	</g>
	<g>
		<path fill="#FFFFFF" d="M130.007,747.419c0.032,0.109,0.066,0.23,0.104,0.367c0.039,0.137,0.079,0.277,0.123,0.422
			c0.043,0.145,0.087,0.289,0.132,0.435c0.045,0.146,0.088,0.28,0.13,0.404c0.035-0.135,0.07-0.279,0.105-0.439
			c0.036-0.158,0.069-0.321,0.102-0.49c0.031-0.17,0.063-0.337,0.093-0.506c0.03-0.167,0.059-0.33,0.085-0.484h0.642
			c-0.093,0.46-0.2,0.926-0.321,1.397c-0.121,0.473-0.252,0.921-0.393,1.347h-0.565c-0.092-0.254-0.182-0.52-0.268-0.798
			c-0.087-0.278-0.173-0.559-0.257-0.838c-0.085,0.279-0.17,0.56-0.254,0.838s-0.173,0.544-0.265,0.798h-0.565
			c-0.141-0.426-0.272-0.874-0.392-1.347c-0.121-0.472-0.228-0.938-0.32-1.397h0.669c0.027,0.154,0.056,0.317,0.088,0.484
			c0.031,0.169,0.065,0.336,0.099,0.506c0.035,0.169,0.07,0.332,0.106,0.49c0.036,0.16,0.072,0.305,0.109,0.439
			c0.047-0.128,0.094-0.267,0.139-0.411c0.045-0.146,0.088-0.291,0.131-0.437c0.042-0.145,0.082-0.285,0.117-0.419
			c0.036-0.135,0.068-0.256,0.097-0.361H130.007z"/>
		<path fill="#FFFFFF" d="M132.523,747.187c0,0.107-0.035,0.192-0.104,0.254c-0.07,0.063-0.153,0.094-0.248,0.094
			c-0.095,0-0.178-0.031-0.248-0.094c-0.07-0.062-0.105-0.146-0.105-0.254c0-0.109,0.035-0.194,0.105-0.256
			c0.069-0.063,0.152-0.093,0.248-0.093c0.095,0,0.178,0.03,0.248,0.093C132.488,746.992,132.523,747.077,132.523,747.187z
			 M132.468,749.871h-0.59v-2.083h0.59V749.871z"/>
		<path fill="#FFFFFF" d="M132.844,748.422h1.149v0.534h-1.149V748.422z"/>
		<path fill="#FFFFFF" d="M134.408,749.871v-2.744h1.838v0.519h-1.22v0.573h1.084v0.521h-1.084v1.132H134.408z"/>
		<path fill="#FFFFFF" d="M137.288,747.187c0,0.107-0.035,0.192-0.104,0.254c-0.07,0.063-0.153,0.094-0.248,0.094
			c-0.095,0-0.178-0.031-0.248-0.094c-0.07-0.062-0.105-0.146-0.105-0.254c0-0.109,0.035-0.194,0.105-0.256
			c0.069-0.063,0.152-0.093,0.248-0.093c0.095,0,0.178,0.03,0.248,0.093C137.252,746.992,137.288,747.077,137.288,747.187z
			 M137.232,749.871h-0.59v-2.083h0.59V749.871z"/>
	</g>
</g>
<path d="M457.735,765.378c0,6.628-5.373,12-12,12H224.764c-6.627,0-12-5.372-12-12V602.804c0-6.628,5.373-12,12-12h220.972
	c6.627,0,12,5.372,12,12V765.378z"/>
<g>
	<polygon stroke="#FFFFFF" stroke-width="11.2604" stroke-miterlimit="10" points="377.632,540.567 350.111,597.804 
		320.395,597.804 292.867,540.567 	"/>
</g>
<line stroke="#FFFFFF" stroke-width="9.3835" stroke-miterlimit="10" x1="229.583" y1="731.073" x2="289.202" y2="731.073"/>
<line stroke="#FFFFFF" stroke-width="9.3835" stroke-miterlimit="10" x1="229.583" y1="750.612" x2="289.202" y2="750.612"/>
<line stroke="#FFFFFF" stroke-width="9.3835" stroke-miterlimit="10" x1="229.583" y1="711.534" x2="289.202" y2="711.534"/>
<line fill="none" stroke="#000000" stroke-width="10" stroke-miterlimit="10" x1="301.842" y1="535.332" x2="368.952" y2="535.332"/>
<g>
	<linearGradient id="SVGID_1_" gradientUnits="userSpaceOnUse" x1="335.749" y1="524.373" x2="335.749" y2="429.999">
		<stop  offset="0" style="stop-color:#FFC40C"/>
		<stop  offset="1" style="stop-color:#FFFFFF;stop-opacity:0"/>
	</linearGradient>
	<polygon fill="url(#SVGID_1_)" points="405.632,429.999 360.254,524.373 311.256,524.373 265.867,429.999 	"/>
</g>
<g>
	
		<rect x="108.333" y="49.534" fill="#FFFFFF" stroke="#000000" stroke-width="1.3818" stroke-miterlimit="10" width="385.89" height="302.705"/>
	<rect x="75.049" y="30.052" width="451.24" height="26.391"/>
	<path fill="none" stroke="#000000" stroke-width="4.8457" stroke-miterlimit="10" d="M316.821,352.239
		c0,5.746-16.151,16.354-16.151,16.354s-16.153-10.608-16.153-16.354"/>
	<g>
		<g>
			<polygon fill="#3399CC" points="302.826,199.322 342.332,223.021 381.82,246.72 342.324,270.42 302.826,294.118 302.826,246.72 
							"/>
			<polygon fill="#996699" points="381.82,151.924 342.367,175.624 302.826,199.322 342.322,223.021 381.82,246.72 381.82,199.322 
							"/>
			<polygon fill="#F89839" points="302.833,104.526 263.328,128.225 223.826,151.924 263.329,175.624 302.833,199.322 
				302.833,151.924 			"/>
			<polygon fill="#EE3968" points="302.826,104.526 342.32,128.225 381.82,151.924 342.324,175.624 302.826,199.322 
				302.826,151.924 			"/>
			<polygon fill="#FFCE09" points="302.833,199.322 263.328,223.021 223.826,246.72 263.329,270.42 302.833,294.118 302.833,246.72 
							"/>
			<polygon fill="#6EC498" points="223.833,151.924 263.327,175.624 302.826,199.322 263.33,223.021 223.833,246.72 
				223.833,199.322 			"/>
		</g>
		<g>
			<g>
				<path fill="#FFFFFF" d="M303.391,204.715c0,0-0.048-0.268-0.103-0.759c-0.041-0.488-0.146-1.216-0.192-2.119
					c-0.073-0.903-0.073-2.007-0.137-3.231c-0.057-1.223-0.083-2.578-0.075-4.028c-0.044-1.469-0.024-3.039-0.012-4.673
					c-0.034-1.632,0.035-3.339-0.011-5.059c0-1.733-0.064-3.473-0.119-5.209c-0.07-0.853-0.081-1.731-0.16-2.572
					c-0.118-0.824-0.121-1.699-0.275-2.49c-0.122-0.802-0.216-1.621-0.4-2.359c-0.09-0.371-0.137-0.776-0.243-1.125
					c-0.102-0.352-0.208-0.702-0.297-1.06c-0.438-1.36-0.941-2.588-1.568-3.655c-0.658-1.031-1.429-1.943-2.375-2.718
					c-0.936-0.783-2.036-1.431-3.177-1.938c-1.143-0.513-2.321-0.863-3.41-1.141c-1.093-0.283-2.101-0.445-2.95-0.561
					c-0.851-0.109-1.547-0.178-2.018-0.169c-0.475-0.006-0.739,0.056-0.739,0.056c0.002,0.018,0.118-0.257,0.496-0.614
					c0.375-0.344,0.954-0.865,1.778-1.346c1.635-0.993,4.212-2.118,7.749-2.296c1.759-0.059,3.764,0.151,5.839,0.877
					c2.065,0.723,4.177,1.987,5.934,3.731c1.76,1.74,3.091,3.884,4.063,6.105c0.446,1.114,0.883,2.251,1.139,3.386
					c0.344,1.145,0.493,2.272,0.674,3.406c0.186,1.141,0.197,2.235,0.271,3.351c0.052,1.105-0.023,2.174-0.052,3.249
					c-0.152,2.116-0.396,4.173-0.848,6.086c-0.357,1.942-0.95,3.729-1.477,5.427c-0.584,1.678-1.237,3.221-1.85,4.635
					c-0.682,1.406-1.341,2.669-1.959,3.767c-0.615,1.099-1.24,1.982-1.755,2.736c-0.508,0.748-0.975,1.317-1.263,1.713
					C303.57,204.511,303.391,204.715,303.391,204.715z"/>
			</g>
			<g>
				<g>
					<path fill="#FFFFFF" d="M299.895,200.801c0,0,0.169-0.213,0.502-0.58c0.339-0.354,0.817-0.916,1.464-1.548
						c0.63-0.653,1.458-1.386,2.338-2.243c0.882-0.853,1.883-1.771,2.98-2.725c1.078-1,2.268-2.032,3.512-3.099
						c1.204-1.109,2.541-2.181,3.808-3.354c1.308-1.146,2.578-2.345,3.863-3.529c0.61-0.603,1.227-1.209,1.845-1.819
						c0.55-0.632,1.191-1.22,1.71-1.851c0.513-0.625,1.099-1.231,1.531-1.859l0.703-0.924c0.198-0.31,0.392-0.622,0.603-0.924
						c0.75-1.226,1.389-2.416,1.761-3.583c0.358-1.168,0.55-2.337,0.519-3.55c-0.02-1.209-0.255-2.457-0.629-3.645
						c-0.377-1.189-0.893-2.304-1.412-3.301c-0.517-1.005-1.07-1.863-1.551-2.573c-0.487-0.707-0.902-1.271-1.225-1.615
						c-0.313-0.358-0.536-0.513-0.536-0.513c-0.012,0.013,0.271-0.084,0.789-0.042c0.508,0.049,1.283,0.132,2.192,0.425
						c1.834,0.557,4.398,1.731,6.891,4.273c1.215,1.286,2.388,2.944,3.204,5.004c0.813,2.048,1.229,4.493,1.043,6.966
						c-0.151,2.489-0.945,4.881-1.991,7.06c-0.282,0.53-0.565,1.062-0.85,1.595c-0.302,0.511-0.639,0.985-0.967,1.476
						c-0.638,1.014-1.403,1.841-2.132,2.734c-0.748,0.868-1.557,1.613-2.35,2.398c-0.807,0.748-1.654,1.409-2.482,2.091
						c-1.695,1.271-3.403,2.442-5.14,3.364c-1.695,1.015-3.433,1.741-5.056,2.472c-1.649,0.665-3.236,1.202-4.706,1.673
						c-1.507,0.419-2.892,0.761-4.125,1.024c-1.232,0.264-2.311,0.383-3.217,0.496c-0.898,0.115-1.635,0.142-2.124,0.188
						C300.167,200.8,299.895,200.801,299.895,200.801z"/>
					<path fill="#FFFFFF" d="M301.56,193.745c0,0,0.217,0.164,0.592,0.489c0.363,0.331,0.935,0.795,1.584,1.427
						c0.669,0.614,1.42,1.425,2.3,2.282c0.875,0.86,1.816,1.838,2.797,2.911c1.033,1.049,2.087,2.218,3.19,3.429
						c1.136,1.178,2.248,2.479,3.453,3.715c1.179,1.276,2.412,2.513,3.634,3.757c0.633,0.582,1.239,1.22,1.869,1.789
						c0.648,0.53,1.248,1.17,1.899,1.654c0.637,0.507,1.263,1.055,1.903,1.476c0.319,0.216,0.631,0.476,0.945,0.672
						c0.316,0.192,0.635,0.379,0.944,0.584c1.253,0.715,2.468,1.31,3.66,1.671c1.193,0.331,2.386,0.499,3.61,0.449
						c1.223-0.038,2.474-0.285,3.663-0.668c1.188-0.388,2.302-0.908,3.297-1.433c1.002-0.521,1.855-1.081,2.564-1.564
						c0.704-0.491,1.265-0.91,1.607-1.234c0.354-0.316,0.508-0.541,0.508-0.541c-0.014-0.011,0.087,0.27,0.048,0.79
						c-0.046,0.507-0.123,1.286-0.412,2.196c-0.546,1.838-1.713,4.409-4.236,6.914c-1.276,1.221-2.921,2.401-4.958,3.24
						c-2.027,0.834-4.441,1.291-6.904,1.168c-2.471-0.104-4.879-0.812-7.088-1.793c-0.535-0.268-1.072-0.536-1.611-0.806
						c-0.536-0.274-1.005-0.608-1.508-0.92c-1.026-0.61-1.894-1.341-2.797-2.051c-0.905-0.715-1.659-1.51-2.47-2.281
						c-0.785-0.779-1.458-1.615-2.166-2.423c-1.324-1.66-2.544-3.336-3.514-5.05c-1.059-1.67-1.84-3.387-2.608-4.993
						c-0.715-1.63-1.285-3.209-1.799-4.665c-0.458-1.497-0.834-2.874-1.127-4.102c-0.298-1.227-0.44-2.301-0.577-3.205
						c-0.137-0.896-0.182-1.631-0.24-2.119C301.566,194.017,301.56,193.745,301.56,193.745z"/>
					<path fill="#FFFFFF" d="M306.69,202.944c0,0-0.222-0.158-0.604-0.473c-0.371-0.321-0.955-0.77-1.621-1.385
						c-0.685-0.596-1.457-1.388-2.359-2.222c-0.897-0.837-1.864-1.791-2.873-2.837c-1.06-1.022-2.144-2.163-3.28-3.345
						c-1.166-1.148-2.312-2.421-3.549-3.625c-1.212-1.245-2.478-2.45-3.731-3.662c-0.647-0.565-1.271-1.187-1.916-1.74
						c-0.662-0.513-1.278-1.137-1.941-1.605c-0.65-0.49-1.291-1.023-1.942-1.427c-0.325-0.208-0.644-0.459-0.963-0.648
						c-0.321-0.184-0.645-0.363-0.959-0.559c-1.271-0.683-2.501-1.248-3.704-1.578c-1.202-0.301-2.397-0.438-3.621-0.357
						c-1.221,0.069-2.466,0.349-3.644,0.762c-1.178,0.419-2.278,0.967-3.258,1.518c-0.988,0.548-1.827,1.129-2.522,1.631
						c-0.691,0.51-1.24,0.943-1.574,1.277c-0.347,0.325-0.493,0.555-0.493,0.554c0.014,0.011-0.094-0.267-0.069-0.788
						c0.033-0.508,0.089-1.289,0.354-2.207c0.498-1.853,1.597-4.453,4.055-7.023c1.245-1.254,2.86-2.477,4.875-3.367
						c2.006-0.886,4.408-1.404,6.874-1.343c2.473,0.041,4.898,0.688,7.13,1.611c0.542,0.253,1.087,0.508,1.633,0.763
						c0.542,0.261,1.02,0.582,1.53,0.881c1.042,0.583,1.927,1.292,2.849,1.978c0.923,0.692,1.697,1.467,2.528,2.216
						c0.805,0.758,1.5,1.577,2.229,2.367c1.367,1.625,2.63,3.269,3.644,4.957c1.103,1.642,1.928,3.337,2.739,4.923
						c0.757,1.611,1.369,3.174,1.92,4.616c0.496,1.484,0.909,2.852,1.234,4.071c0.33,1.218,0.501,2.289,0.66,3.189
						c0.161,0.892,0.226,1.626,0.296,2.112C306.676,202.672,306.69,202.944,306.69,202.944z"/>
					<path fill="#FFFFFF" d="M308.205,198.315c0,0-0.179,0.206-0.528,0.556c-0.355,0.339-0.858,0.877-1.534,1.48
						c-0.659,0.624-1.52,1.318-2.438,2.134c-0.92,0.812-1.963,1.683-3.103,2.586c-1.123,0.95-2.359,1.927-3.651,2.937
						c-1.253,1.053-2.639,2.063-3.958,3.177c-1.36,1.085-2.684,2.225-4.022,3.35c-0.638,0.574-1.281,1.152-1.927,1.733
						c-0.579,0.606-1.246,1.165-1.795,1.771c-0.541,0.601-1.155,1.18-1.616,1.788l-0.747,0.891c-0.212,0.301-0.42,0.604-0.645,0.896
						c-0.807,1.191-1.503,2.351-1.928,3.5c-0.414,1.151-0.66,2.31-0.685,3.523c-0.038,1.209,0.138,2.466,0.457,3.669
						c0.322,1.206,0.785,2.343,1.258,3.363c0.47,1.027,0.983,1.91,1.431,2.642c0.455,0.729,0.843,1.311,1.149,1.67
						c0.297,0.372,0.513,0.537,0.513,0.537c0.012-0.013-0.274,0.071-0.791,0.005c-0.504-0.073-1.276-0.19-2.171-0.526
						c-1.807-0.641-4.314-1.932-6.687-4.588c-1.154-1.342-2.249-3.055-2.968-5.151c-0.716-2.085-1.016-4.548-0.713-7.009
						c0.267-2.48,1.173-4.831,2.319-6.958c0.306-0.516,0.613-1.034,0.922-1.554c0.326-0.495,0.684-0.954,1.035-1.429
						c0.683-0.984,1.486-1.774,2.255-2.633c0.788-0.832,1.629-1.54,2.458-2.288c0.84-0.709,1.717-1.332,2.576-1.976
						c1.753-1.191,3.512-2.283,5.29-3.125c1.74-0.936,3.509-1.583,5.163-2.239c1.678-0.588,3.289-1.053,4.779-1.457
						c1.524-0.35,2.923-0.628,4.168-0.835c1.243-0.208,2.326-0.277,3.237-0.349c0.902-0.074,1.64-0.068,2.13-0.092
						C307.933,198.303,308.205,198.315,308.205,198.315z"/>
				</g>
			</g>
			<g>
				<g>
					<path fill="#FFFFFF" d="M300.001,198.504c0,0,0.27-0.038,0.765-0.073c0.491-0.023,1.225-0.1,2.132-0.112
						c0.909-0.039,2.015,0.001,3.246-0.013c1.229-0.01,2.59,0.016,4.046,0.081c1.474,0.018,3.051,0.092,4.691,0.176
						c1.64,0.028,3.352,0.173,5.083,0.197c1.742,0.073,3.494,0.081,5.247,0.11c0.861-0.014,1.729-0.028,2.601-0.042
						c0.839-0.077,1.711-0.062,2.527-0.156c0.807-0.1,1.655-0.129,2.407-0.285l1.157-0.179c0.36-0.087,0.72-0.179,1.084-0.252
						c1.403-0.367,2.718-0.773,3.802-1.365c1.088-0.593,2.053-1.298,2.886-2.185c0.839-0.877,1.553-1.927,2.116-3.038
						c1.107-2.235,1.706-4.59,1.988-6.271c0.144-0.848,0.236-1.542,0.245-2.015c0.022-0.475-0.031-0.742-0.031-0.742
						c-0.018,0.002,0.254,0.127,0.598,0.52c0.33,0.389,0.832,0.99,1.279,1.837c0.928,1.682,1.944,4.325,1.936,7.899
						c-0.033,1.775-0.372,3.788-1.241,5.828c-0.865,2.031-2.287,4.056-4.144,5.686c-1.838,1.68-4.069,2.824-6.327,3.665
						c-0.569,0.186-1.142,0.373-1.715,0.561c-0.569,0.152-1.142,0.266-1.717,0.392c-1.16,0.291-2.284,0.355-3.428,0.499
						c-1.14,0.107-2.24,0.09-3.356,0.11c-1.1-0.017-2.171-0.122-3.241-0.2c-2.106-0.251-4.153-0.58-6.05-1.11
						c-1.931-0.435-3.693-1.105-5.376-1.695c-1.656-0.655-3.181-1.361-4.573-2.033c-1.384-0.735-2.625-1.442-3.703-2.103
						c-1.078-0.658-1.943-1.315-2.679-1.858c-0.732-0.536-1.286-1.024-1.673-1.328C300.199,198.691,300.001,198.504,300.001,198.504
						z"/>
					<path fill="#FFFFFF" d="M306.146,194.566c0,0,0.041,0.269,0.082,0.762c0.028,0.489,0.114,1.22,0.137,2.124
						c0.05,0.904,0.021,2.008,0.053,3.233c0.024,1.224,0.016,2.579-0.031,4.029c0.005,1.469-0.056,3.038-0.111,4.672
						c-0.009,1.632-0.123,3.336-0.122,5.057c-0.047,1.732-0.027,3.473-0.02,5.21c0.048,0.854,0.036,1.733,0.093,2.575
						c0.096,0.828,0.077,1.702,0.209,2.497c0.101,0.804,0.173,1.626,0.339,2.369c0.08,0.374,0.116,0.779,0.213,1.13
						c0.093,0.354,0.19,0.708,0.269,1.067c0.402,1.372,0.873,2.612,1.471,3.694c0.63,1.047,1.377,1.979,2.303,2.778
						c0.915,0.807,1.997,1.482,3.125,2.019c1.13,0.542,2.298,0.922,3.38,1.229c1.085,0.312,2.089,0.499,2.934,0.637
						c0.848,0.131,1.542,0.218,2.013,0.221c0.475,0.019,0.74-0.037,0.74-0.037c-0.002-0.018-0.125,0.254-0.512,0.601
						c-0.384,0.334-0.976,0.841-1.812,1.299c-1.66,0.95-4.266,2.009-7.806,2.097c-1.76,0.014-3.759-0.249-5.814-1.028
						c-2.046-0.776-4.125-2.096-5.836-3.885c-1.713-1.786-2.988-3.965-3.901-6.211c-0.418-1.126-0.823-2.273-1.05-3.415
						c-0.313-1.153-0.432-2.284-0.583-3.422c-0.155-1.146-0.138-2.239-0.183-3.357c-0.022-1.106,0.081-2.173,0.137-3.246
						c0.208-2.111,0.505-4.161,1.008-6.062c0.408-1.933,1.048-3.703,1.619-5.387c0.627-1.662,1.321-3.187,1.97-4.584
						c0.719-1.388,1.411-2.633,2.058-3.714c0.644-1.083,1.292-1.95,1.826-2.689c0.527-0.735,1.009-1.291,1.308-1.68
						C305.961,194.766,306.146,194.566,306.146,194.566z"/>
					<path fill="#FFFFFF" d="M305.524,200.046c0,0-0.27,0.041-0.765,0.082c-0.49,0.029-1.224,0.114-2.13,0.137
						c-0.908,0.049-2.015,0.022-3.245,0.05c-1.229,0.024-2.59,0.014-4.046-0.035c-1.474-0.001-3.051-0.057-4.693-0.123
						c-1.64-0.009-3.354-0.134-5.084-0.138c-1.743-0.053-3.495-0.041-5.248-0.05c-0.861,0.024-1.729,0.048-2.6,0.072
						c-0.838,0.086-1.71,0.081-2.526,0.186c-0.805,0.109-1.654,0.148-2.403,0.313l-1.156,0.192
						c-0.359,0.091-0.717,0.187-1.081,0.265c-1.398,0.382-2.708,0.803-3.786,1.408c-1.081,0.604-2.038,1.321-2.86,2.217
						c-0.829,0.886-1.529,1.945-2.08,3.062c-1.082,2.248-1.653,4.609-1.916,6.293c-0.134,0.849-0.219,1.544-0.222,2.017
						c-0.017,0.475,0.04,0.742,0.04,0.742c0.017-0.002-0.255-0.125-0.604-0.513c-0.334-0.385-0.843-0.98-1.3-1.822
						c-0.947-1.671-1.995-4.302-2.027-7.875c0.013-1.776,0.329-3.792,1.174-5.842c0.842-2.041,2.24-4.082,4.078-5.732
						c1.819-1.701,4.037-2.87,6.285-3.736c0.567-0.193,1.137-0.386,1.708-0.58c0.568-0.159,1.138-0.279,1.712-0.411
						c1.157-0.305,2.28-0.381,3.422-0.538c1.138-0.12,2.238-0.116,3.354-0.148c1.1,0.004,2.172,0.097,3.244,0.163
						c2.108,0.227,4.159,0.532,6.062,1.041c1.935,0.412,3.706,1.063,5.395,1.633c1.664,0.636,3.195,1.324,4.596,1.98
						c1.392,0.719,2.642,1.412,3.727,2.06c1.085,0.646,1.958,1.293,2.7,1.828c0.738,0.527,1.298,1.009,1.688,1.308
						C305.324,199.861,305.524,200.046,305.524,200.046z"/>
					<path fill="#FFFFFF" d="M303.391,204.715c0,0-0.048-0.268-0.103-0.759c-0.041-0.488-0.146-1.216-0.192-2.119
						c-0.073-0.903-0.073-2.007-0.137-3.231c-0.057-1.223-0.083-2.578-0.075-4.028c-0.044-1.469-0.024-3.039-0.012-4.673
						c-0.034-1.632,0.035-3.339-0.011-5.059c0-1.733-0.064-3.473-0.119-5.209c-0.07-0.853-0.081-1.731-0.16-2.572
						c-0.118-0.824-0.121-1.699-0.275-2.49c-0.122-0.802-0.216-1.621-0.401-2.359c-0.09-0.371-0.137-0.776-0.243-1.125
						c-0.102-0.352-0.208-0.702-0.297-1.06c-0.438-1.36-0.941-2.588-1.568-3.655c-0.658-1.031-1.429-1.943-2.375-2.718
						c-0.936-0.783-2.036-1.431-3.177-1.938c-1.143-0.513-2.321-0.863-3.41-1.141c-1.093-0.283-2.101-0.445-2.95-0.561
						c-0.851-0.109-1.547-0.178-2.018-0.169c-0.475-0.006-0.739,0.056-0.739,0.056c0.002,0.018,0.118-0.257,0.496-0.614
						c0.375-0.344,0.954-0.865,1.778-1.346c1.635-0.993,4.212-2.118,7.749-2.296c1.759-0.059,3.764,0.151,5.839,0.877
						c2.065,0.723,4.177,1.987,5.934,3.731c1.76,1.74,3.091,3.884,4.063,6.105c0.446,1.114,0.883,2.251,1.139,3.386
						c0.344,1.145,0.493,2.272,0.674,3.406c0.186,1.141,0.197,2.235,0.271,3.351c0.052,1.105-0.023,2.174-0.052,3.249
						c-0.152,2.116-0.396,4.173-0.848,6.086c-0.357,1.942-0.95,3.729-1.477,5.427c-0.584,1.678-1.237,3.221-1.85,4.635
						c-0.682,1.406-1.341,2.669-1.959,3.767c-0.615,1.099-1.24,1.982-1.755,2.736c-0.508,0.748-0.975,1.317-1.263,1.713
						C303.57,204.511,303.391,204.715,303.391,204.715z"/>
				</g>
			</g>
		</g>
	</g>
</g>
</svg>
