<?xml version="1.0" encoding="utf-8"?>
<!-- Generator: Adobe Illustrator 19.1.0, SVG Export Plug-In . SVG Version: 6.00 Build 0)  -->
<svg version="1.1" id="Camada_1" xmlns="http://www.w3.org/2000/svg" xmlns:xlink="http://www.w3.org/1999/xlink" x="0px" y="0px"
	 viewBox="0 0 200 250" style="enable-background:new 0 0 200 250;" xml:space="preserve">
<style type="text/css">
	.st0{fill:#A06397;}
	.st1{fill:#C486B9;}
	.st2{fill:none;stroke:#442E3F;stroke-width:4.7889;}
	.st3{fill:#442E3F;}
</style>
<rect class="st0" width="200" height="250"/>
<g>
	<polygon class="st1" points="158.8,160 100.5,195 42.2,160 42.2,90 100.5,55 158.8,90 	"/>
	<g>
		<g>
			<g>
				<g>
					<path class="st2" d="M69.6,118.8c16-16,41.9-16,57.9,0"/>
					<path class="st2" d="M77.1,126.4c11.8-11.8,30.9-11.8,42.7,0"/>
					<path class="st2" d="M86,134.6c6.9-6.9,18.1-6.9,25,0"/>
				</g>
				<path class="st3" d="M103.8,142.7c0,2.9-2.4,5.3-5.3,5.3c-2.9,0-5.3-2.4-5.3-5.3c0-2.9,2.4-5.3,5.3-5.3
					C101.4,137.4,103.8,139.8,103.8,142.7z"/>
			</g>
		</g>
	</g>
</g>
<g>
</g>
<g>
</g>
<g>
</g>
<g>
</g>
<g>
</g>
<g>
</g>
</svg>
