<?xml version="1.0" encoding="utf-8"?>
<!-- Generator: Adobe Illustrator 19.1.0, SVG Export Plug-In . SVG Version: 6.00 Build 0)  -->
<svg version="1.1" id="Camada_1" xmlns="http://www.w3.org/2000/svg" xmlns:xlink="http://www.w3.org/1999/xlink" x="0px" y="0px"
	 viewBox="-205 297 200 200" style="enable-background:new -205 297 200 200;" xml:space="preserve">
<style type="text/css">
	.st0{fill:none;stroke:#000000;stroke-miterlimit:10;}
</style>
<polygon class="st0" points="-46.2,432 -104.5,467 -162.8,432 -162.8,362 -104.5,327 -46.2,362 "/>
<g>
	<path class="st0" d="M-79.2,392.5c-15-15-39.5-15-54.5,0l-3.4-3.4c16.9-16.9,44.4-16.9,61.3,0L-79.2,392.5z"/>
	<path class="st0" d="M-86.9,400.1c-5.3-5.3-12.2-8.1-19.7-8.1c-7.4,0-14.4,2.9-19.7,8.1l-3.4-3.4c6.2-6.2,14.3-9.6,23-9.6
		c8.7,0,16.9,3.4,23,9.6L-86.9,400.1z"/>
	<path class="st0" d="M-95.7,408.3c-6-6-15.7-6-21.6,0l-3.4-3.4c7.8-7.8,20.6-7.8,28.4,0L-95.7,408.3z"/>
</g>
<path class="st0" d="M-101.2,414.7c0,2.9-2.4,5.3-5.3,5.3s-5.3-2.4-5.3-5.3c0-2.9,2.4-5.3,5.3-5.3S-101.2,411.8-101.2,414.7z"/>
</svg>
