<?xml version="1.0" encoding="UTF-8" standalone="no"?>
<!-- Created with Inkscape (http://www.inkscape.org/) -->

<svg
   xmlns:dc="http://purl.org/dc/elements/1.1/"
   xmlns:cc="http://creativecommons.org/ns#"
   xmlns:rdf="http://www.w3.org/1999/02/22-rdf-syntax-ns#"
   xmlns:svg="http://www.w3.org/2000/svg"
   xmlns="http://www.w3.org/2000/svg"
   xmlns:sodipodi="http://sodipodi.sourceforge.net/DTD/sodipodi-0.dtd"
   xmlns:inkscape="http://www.inkscape.org/namespaces/inkscape"
   width="900"
   height="900"
   id="svg3038"
   version="1.1"
   inkscape:version="0.48.2 r9819"
   sodipodi:docname="interface.svg">
  <defs
     id="defs3040">
    <linearGradient
       id="linearGradient3865">
      <stop
         style="stop-color:#ff0000;stop-opacity:1;"
         offset="0"
         id="stop3867" />
      <stop
         style="stop-color:#6e0000;stop-opacity:1;"
         offset="1"
         id="stop3869" />
    </linearGradient>
  </defs>
  <sodipodi:namedview
     id="base"
     pagecolor="#ffffff"
     bordercolor="#666666"
     borderopacity="1.0"
     inkscape:pageopacity="0.0"
     inkscape:pageshadow="2"
     inkscape:zoom="1"
     inkscape:cx="214.95069"
     inkscape:cy="203.79417"
     inkscape:document-units="px"
     inkscape:current-layer="layer1"
     showgrid="false"
     inkscape:snap-bbox="false"
     inkscape:object-paths="true"
     inkscape:snap-nodes="false"
     inkscape:snap-page="false"
     fit-margin-top="20"
     fit-margin-left="20"
     fit-margin-right="20"
     fit-margin-bottom="20"
     inkscape:snap-grids="false"
     inkscape:snap-to-guides="false"
     inkscape:window-width="1280"
     inkscape:window-height="704"
     inkscape:window-x="0"
     inkscape:window-y="0"
     inkscape:window-maximized="1" />
  <metadata
     id="metadata3043">
    <rdf:RDF>
      <cc:Work
         rdf:about="">
        <dc:format>image/svg+xml</dc:format>
        <dc:type
           rdf:resource="http://purl.org/dc/dcmitype/StillImage" />
        <dc:title />
      </cc:Work>
    </rdf:RDF>
  </metadata>
  <g
     inkscape:label="Camada 1"
     inkscape:groupmode="layer"
     id="layer1"
     transform="translate(-14.181553,130.02215)">
    <path
       inkscape:connector-curvature="0"
       id="path5246"
       d="m 483.44472,520.01439 c -19.00942,-3.22743 -35.48693,-13.95007 -45.43603,-29.56734 -20.35809,-31.95631 -16.96151,-84.56713 10.08573,-156.22355 2.25928,-5.98546 4.13084,-11.17754 4.15905,-11.538 0.0616,-0.78787 -7.40443,-3.93728 -19.64128,-8.28538 -60.62908,-21.543 -105.54216,-24.45978 -131.086,-8.51302 -9.77158,6.10027 -17.10137,16.55357 -20.40606,29.10183 -1.88867,7.17167 -2.56265,19.92079 -1.43443,27.13401 0.54788,3.50278 0.90534,6.43695 0.79431,6.52037 -0.11091,0.0835 -3.65534,1.55298 -7.87631,3.26557 -8.758,3.55352 -8.68457,3.57695 -10.03327,-3.20074 -3.89374,-19.56794 -0.5053,-41.0547 8.95119,-56.76106 24.8143,-41.2142 85.93312,-45.21999 174.99429,-11.46918 6.08442,2.30575 11.51773,4.27687 12.07395,4.38029 2.51671,0.46777 16.63756,-41.35671 22.32251,-66.1168 2.9729,-12.94795 5.63855,-37.5955 5.16351,-47.74314 -1.30658,-27.91041 -11.41862,-45.40335 -31.06158,-53.73389 -5.14194,-2.1807 -6.34461,-2.40279 -17.89524,-3.30471 -11.8155,-0.92289 -15.49805,-0.73252 -20.738,1.07022 -0.8445,0.2905 -1.91149,-1.61266 -4.50755,-8.03975 l -3.40122,-8.42033 3.79793,-1.08838 c 2.08889,-0.59858 6.54912,-1.44731 9.91163,-1.88608 7.84977,-1.02428 25.08379,0.28483 32.21175,2.44687 16.11927,4.88919 28.60956,14.05456 36.91084,27.08516 20.08372,31.52564 16.57349,83.16354 -10.53546,154.98458 -2.25922,5.9854 -4.12985,11.16615 -4.15699,11.51266 -0.12293,1.57134 33.4954,13.39204 52.65688,18.51492 40.72702,10.88855 70.55707,11.5422 92.6308,2.02986 6.76924,-2.91706 16.03349,-11.11295 19.79219,-17.50966 5.04406,-8.58419 6.15822,-12.56869 7.10901,-25.42264 0.78481,-10.61035 0.54235,-14.74485 -1.15351,-19.67185 -0.29057,-0.84419 1.60842,-1.9092 8.01972,-4.49763 l 8.40042,-3.3915 0.82876,2.6985 c 5.09406,16.58605 2.34243,41.40228 -6.29989,56.81729 -12.77549,22.78723 -35.4755,34.43977 -69.4815,35.66686 -9.39639,0.33909 -33.20916,-2.09781 -44.84749,-4.58948 -21.04884,-4.5064 -47.24891,-12.56342 -68.76402,-21.14619 -3.0051,-1.1988 -5.72601,-1.94852 -6.04648,-1.66605 -1.5931,1.40433 -12.14163,31.64002 -16.78913,48.12345 -5.86517,20.80238 -7.24447,28.31762 -8.79911,47.94328 -1.13128,14.28133 -1.25077,18.9283 -0.62095,24.15069 1.87436,15.54164 5.65661,26.11318 12.38975,34.62997 5.2359,6.62287 11.04739,11.0314 19.31848,14.65471 6.22599,2.72747 6.61703,2.80566 18.74195,3.74675 10.65145,0.8265 12.9551,0.80394 16.47176,-0.16315 l 4.08844,-1.12417 3.36791,8.33794 3.36791,8.33797 -2.3868,0.78435 c -4.34015,1.4262 -11.30055,2.37887 -18.35497,2.51225 -7.74504,0.14645 -7.92079,0.13195 -16.8074,-1.37673 l 0,0 z"
       style="fill:#ffffff;fill-opacity:1;stroke:#ffffff;stroke-width:1.07352591;stroke-miterlimit:4;stroke-opacity:1;stroke-dasharray:none" />
    <path
       style="fill:#ff0000;fill-opacity:1;stroke:#ffffff;stroke-width:1.07352591;stroke-miterlimit:4;stroke-opacity:1;stroke-dasharray:none"
       d="m 539.12639,747.92911 c -41.19684,-3.72322 -78.23277,-23.90062 -102.12505,-55.63834 -48.88875,-64.94224 -50.4281,-178.03281 -4.57103,-335.81327 3.83044,-13.1794 6.96444,-24.59714 6.96444,-25.37274 0,-1.6954 -16.49521,-7.18258 -43.39469,-14.43542 -133.27666,-35.93501 -229.82343,-34.66135 -281.78741,3.71742 -19.878426,14.68151 -33.805933,38.26471 -38.774002,65.6553 -2.839374,15.65443 -2.14744,43.03453 1.472652,58.27336 1.757913,7.39998 3.013378,13.61569 2.78992,13.81272 -0.223464,0.19698 -7.558066,3.93276 -16.299137,8.30166 -18.136772,9.06499 -17.975864,9.10281 -21.994524,-5.1676 -11.602276,-41.20002 -7.95071,-87.72208 9.64624,-122.89596 46.175356,-92.29819 176.224231,-111.08808 372.353421,-53.79884 13.39907,3.91386 25.34946,7.22092 26.55649,7.34902 5.46086,0.57959 28.66335,-91.23522 36.67884,-145.14224 4.19164,-28.18997 5.76841,-81.351294 3.0543,-102.97531 -7.46495,-59.475399 -32.01952,-95.197535 -75.42537,-109.729272 -11.36235,-3.803968 -13.97168,-4.077816 -38.8268,-4.074868 -25.42507,0.0026 -33.26935,1.025422 -44.17467,5.757408 -1.75759,0.76263 -4.35819,-3.1293 -10.9861,-16.441187 l -8.68342,-17.440337 7.94084,-2.962944 c 4.36743,-1.62964 13.76482,-4.19091 20.88307,-5.69173 16.61743,-3.50361 53.69607,-3.58622 69.30293,-0.15452 35.29371,7.760795 63.54119,25.274291 83.47626,51.755384 48.22989,64.0669893 49.36331,175.095726 3.40194,333.238556 -3.83038,13.17937 -6.96431,24.57263 -6.96431,25.31834 0,3.38128 73.87996,23.04014 115.71919,30.79198 88.92784,16.47624 152.83687,12.88506 198.45582,-11.15166 13.98965,-7.37115 32.43227,-26.44978 39.40082,-40.75949 9.35164,-19.20331 11.06789,-27.9116 10.95038,-55.56223 -0.0971,-22.82444 -1.30738,-31.62655 -5.75893,-41.88063 -0.76274,-1.75698 3.12053,-4.35234 16.39969,-10.96079 l 17.39904,-8.65865 2.22417,5.63287 c 13.67046,34.62171 11.93806,88.15813 -3.96637,122.5729 -23.51065,50.87341 -70.1108,79.59229 -142.6366,87.90444 -20.03994,2.29677 -71.37776,1.0676 -96.68644,-2.31494 -45.77285,-6.11758 -103.15702,-18.96756 -150.60909,-33.72568 -6.62782,-2.06134 -12.57268,-3.20971 -13.2108,-2.55196 -3.17235,3.26998 -20.67361,69.70154 -27.85521,105.73318 -9.06327,45.47241 -10.75567,61.7765 -10.79657,104.0114 -0.0299,30.73365 0.49228,40.69245 2.71328,51.75656 6.60954,32.92658 16.46793,54.90405 32.29375,71.99327 12.30666,13.28915 25.47378,21.74591 43.77011,28.11205 25.98077,8.76269 49.78462,10.84632 75.91368,1.77501 l 8.55611,-3.08817 8.59847,17.26969 8.59848,17.26968 -4.97363,2.07671 c -9.0439,3.77622 -21.87317,7.35747 -36.93867,8.82262 -16.54036,1.60862 -18.81658,1.2277 -38.07551,-0.51286 z"
       id="path2983"
       inkscape:connector-curvature="0"
       sodipodi:nodetypes="cssssssscssssssssssscsssssssssssscsssssssssscccccssc" />
  </g>
</svg>
