<?xml version="1.0" encoding="UTF-8" standalone="no"?>
<!-- Created with Inkscape (http://www.inkscape.org/) -->

<svg
   xmlns:dc="http://purl.org/dc/elements/1.1/"
   xmlns:cc="http://creativecommons.org/ns#"
   xmlns:rdf="http://www.w3.org/1999/02/22-rdf-syntax-ns#"
   xmlns:svg="http://www.w3.org/2000/svg"
   xmlns="http://www.w3.org/2000/svg"
   xmlns:sodipodi="http://sodipodi.sourceforge.net/DTD/sodipodi-0.dtd"
   xmlns:inkscape="http://www.inkscape.org/namespaces/inkscape"
   width="900.43579"
   height="900.4082"
   viewBox="0 0 900 900"
   id="svg3038"
   version="1.1"
   inkscape:version="0.48.3.1 r9886"
   sodipodi:docname="interface.svg">
  <defs
     id="defs3040">
    <linearGradient
       id="linearGradient3865">
      <stop
         style="stop-color:#ff0000;stop-opacity:1;"
         offset="0"
         id="stop3867" />
      <stop
         style="stop-color:#6e0000;stop-opacity:1;"
         offset="1"
         id="stop3869" />
    </linearGradient>
  </defs>
  <sodipodi:namedview
     id="base"
     pagecolor="#ffffff"
     bordercolor="#666666"
     borderopacity="1.0"
     inkscape:pageopacity="0.0"
     inkscape:pageshadow="2"
     inkscape:zoom="2.0000001"
     inkscape:cx="571.96978"
     inkscape:cy="517.30624"
     inkscape:document-units="px"
     inkscape:current-layer="layer1"
     showgrid="false"
     inkscape:snap-bbox="false"
     inkscape:object-paths="true"
     inkscape:snap-nodes="false"
     inkscape:snap-page="false"
     fit-margin-top="0"
     fit-margin-left="0"
     fit-margin-right="0"
     fit-margin-bottom="0"
     inkscape:snap-grids="false"
     inkscape:snap-to-guides="false"
     inkscape:window-width="1680"
     inkscape:window-height="1026"
     inkscape:window-x="0"
     inkscape:window-y="24"
     inkscape:window-maximized="1" />
  <metadata
     id="metadata3043">
    <rdf:RDF>
      <cc:Work
         rdf:about="">
        <dc:format>image/svg+xml</dc:format>
        <dc:type
           rdf:resource="http://purl.org/dc/dcmitype/StillImage" />
        <dc:title />
      </cc:Work>
    </rdf:RDF>
  </metadata>
  <g
     inkscape:label="Camada 1"
     inkscape:groupmode="layer"
     id="layer1"
     transform="translate(15.321632,101.10481)">
    <path
       inkscape:connector-curvature="0"
       id="path5246"
       d="m 452.62297,535.73978 c -17.70528,-3.00673 -33.05236,-12.99624 -42.31892,-27.54567 -18.96141,-29.77129 -15.79788,-78.78481 9.39383,-145.54168 2.10427,-5.5762 3.84743,-10.41328 3.87369,-10.74908 0.0574,-0.734 -6.89644,-3.66809 -18.29381,-7.71887 -56.46962,-20.07 -98.30141,-22.78733 -122.09284,-7.93096 -9.10123,5.68318 -15.92816,15.42175 -19.00609,27.11202 -1.75912,6.68131 -2.38685,18.55866 -1.33602,25.27872 0.51029,3.26326 0.8432,5.9968 0.7398,6.07453 -0.10338,0.0778 -3.40456,1.44677 -7.33594,3.04229 -8.15718,3.31054 -8.08881,3.33236 -9.34496,-2.98192 -3.62661,-18.22995 -0.47062,-38.24756 8.33709,-52.87996 23.11191,-38.39622 80.0377,-42.12808 162.98883,-10.68501 5.66701,2.14812 10.72756,3.98447 11.24564,4.0808 2.34402,0.43581 15.49614,-38.52891 20.79107,-61.59602 2.76894,-12.06266 5.25173,-35.02492 4.80928,-44.47869 -1.21695,-26.00202 -10.63525,-42.29888 -28.93062,-50.05983 -4.78918,-2.03158 -5.90933,-2.23849 -16.66755,-3.07871 -11.00489,-0.85981 -14.43479,-0.68246 -19.31525,0.997 -0.78655,0.27066 -1.78037,-1.50236 -4.19834,-7.49 l -3.16786,-7.84461 3.53738,-1.01393 c 1.94557,-0.55767 6.09981,-1.34837 9.23165,-1.75713 7.31122,-0.95425 23.3629,0.26534 30.00184,2.27957 15.01345,4.55488 26.64681,13.09354 34.37859,25.23319 18.70588,29.37006 15.43647,77.47719 -9.81266,144.38742 -2.10423,5.57618 -3.84653,10.40267 -3.87179,10.72551 -0.1145,1.46388 31.19744,12.47633 49.04434,17.24894 37.93295,10.14403 65.71652,10.75301 86.27591,1.89107 6.30481,-2.71763 14.93349,-10.35311 18.43431,-16.31242 4.69803,-7.99727 5.73578,-11.70933 6.6213,-23.68435 0.73098,-9.8849 0.50516,-13.73668 -1.07436,-18.32678 -0.27064,-0.78648 1.49806,-1.77865 7.46952,-4.19011 l 7.82411,-3.15962 0.77193,2.514 c 4.74456,15.45195 2.18172,38.57135 -5.86771,52.93239 -11.89903,21.22913 -33.04168,32.08494 -64.71474,33.22813 -8.75174,0.31588 -30.93083,-1.9544 -41.7707,-4.2757 -19.60484,-4.19828 -44.00745,-11.70438 -64.0465,-19.70032 -2.79894,-1.11683 -5.33318,-1.81528 -5.63165,-1.55212 -1.48383,1.30829 -11.30868,29.47663 -15.63733,44.83301 -5.4628,19.37996 -6.74746,26.38135 -8.19546,44.66513 -1.05366,13.30482 -1.16496,17.63405 -0.57834,22.49935 1.74577,14.47899 5.26853,24.32768 11.53976,32.2621 4.87669,6.17006 10.28948,10.27713 17.99314,13.65273 5.79885,2.54096 6.16307,2.6138 17.45616,3.49054 9.9207,0.76999 12.06631,0.74896 15.3417,-0.15188 l 3.80795,-1.04731 3.13686,7.76785 3.13686,7.76785 -2.22307,0.7307 c -4.04237,1.32869 -10.52526,2.21621 -17.09572,2.34048 -7.21369,0.13643 -7.37736,0.12302 -15.65431,-1.28258 l 0,0 z"
       style="fill:#ffffff;stroke:#ffffff;fill-opacity:1;stroke-opacity:1;stroke-width:1;stroke-miterlimit:4;stroke-dasharray:none" />
    <path
       style="fill:#ff0000;fill-opacity:1;stroke:#ffffff;stroke-width:1;stroke-miterlimit:4;stroke-opacity:1;stroke-dasharray:none"
       d="m 504.48461,748.07074 c -38.37056,-3.46867 -72.86564,-22.26643 -95.11878,-51.83406 -45.53476,-60.50178 -46.96852,-165.85973 -4.25745,-312.85189 3.56766,-12.27824 6.48665,-22.91528 6.48665,-23.63786 0,-1.57947 -15.36356,-6.69146 -40.41761,-13.44838 -124.13324,-33.47794 -214.05646,-32.29136 -262.45545,3.46324 -18.514665,13.67764 -31.486679,35.64833 -36.113911,61.16608 -2.644579,14.58407 -2.000117,40.09202 1.371618,54.28888 1.637312,6.89401 2.806647,12.68473 2.59852,12.86828 -0.208127,0.18354 -7.039549,3.66386 -15.180938,7.73404 -16.892503,8.44516 -16.742634,8.48039 -20.485597,-4.81427 -10.806304,-38.38296 -7.405253,-81.72403 8.984462,-114.49289 43.007507,-85.98728 164.134416,-103.49238 346.808206,-50.12032 12.47982,3.64625 23.61037,6.72718 24.73456,6.84653 5.08623,0.53994 26.69692,-84.99697 34.16251,-135.21807 3.90406,-26.2625 5.37267,-75.78887 2.84478,-95.93432 -6.95283,-55.408757 -29.82284,-88.688356 -70.25083,-102.226487 -10.58283,-3.543872 -13.01318,-3.799003 -36.16312,-3.796236 -23.68078,0.003 -30.9869,0.955284 -41.14409,5.363737 -1.63698,0.7104812 -4.05916,-2.915339 -10.23236,-15.317022 l -8.0877,-16.247847 7.39602,-2.760356 c 4.06783,-1.518204 12.82051,-3.904338 19.45042,-5.302537 15.47738,-3.264052 50.01226,-3.341016 64.54843,-0.14384 32.87236,7.230151 59.18194,23.546157 77.74938,48.21660066 44.92108,59.68637434 45.97676,163.12346734 3.16854,310.45321734 -3.5676,12.27822 -6.48651,22.89246 -6.48651,23.58716 0,3.15008 68.81142,21.46477 107.78029,28.68657 82.82695,15.34967 142.35153,12.00403 184.84079,-10.38916 13.02989,-6.86716 30.20726,-24.64125 36.69773,-37.97252 8.71008,-17.89031 10.30859,-26.00315 10.19913,-51.76314 -0.0904,-21.26383 -1.21768,-29.46411 -5.36383,-39.01702 -0.71041,-1.63684 2.90644,-4.05476 15.27458,-10.21133 l 16.2054,-8.06665 2.07157,5.24773 c 12.7326,32.25442 11.11906,82.1303 -3.69425,114.1919 -21.89772,47.39493 -65.30088,74.15013 -132.85105,81.89395 -18.6651,2.13973 -66.48091,0.99461 -90.05327,-2.15664 -42.63262,-5.69932 -96.07996,-17.67066 -140.27658,-31.41968 -6.17314,-1.92039 -11.71015,-2.99024 -12.30449,-2.37746 -2.95471,3.04638 -19.25532,64.93567 -25.94422,98.50361 -8.44149,42.36322 -10.01777,57.55249 -10.05588,96.89956 -0.0277,28.63223 0.45854,37.9101 2.52714,48.21771 6.1561,30.67518 15.33814,51.14992 30.07825,67.07068 11.46236,12.38048 23.72616,20.25903 40.76727,26.18987 24.19838,8.16352 46.36916,10.1047 70.70566,1.65364 l 7.96912,-2.87702 8.00857,16.08887 8.00857,16.08886 -4.6324,1.93471 c -8.42344,3.51804 -20.37258,6.85438 -34.40451,8.21937 -15.40559,1.49861 -17.52567,1.14375 -35.46334,-0.47779 z"
       id="path2983"
       inkscape:connector-curvature="0"
       sodipodi:nodetypes="cssssssscssssssssssscsssssssssssscsssssssssscccccssc" />
  </g>
</svg>
