<?xml version="1.0" encoding="UTF-8" standalone="no"?>
<!-- Created with Inkscape (http://www.inkscape.org/) -->

<svg
   xmlns:dc="http://purl.org/dc/elements/1.1/"
   xmlns:cc="http://creativecommons.org/ns#"
   xmlns:rdf="http://www.w3.org/1999/02/22-rdf-syntax-ns#"
   xmlns:svg="http://www.w3.org/2000/svg"
   xmlns="http://www.w3.org/2000/svg"
   xmlns:sodipodi="http://sodipodi.sourceforge.net/DTD/sodipodi-0.dtd"
   xmlns:inkscape="http://www.inkscape.org/namespaces/inkscape"
   width="900.43579"
   height="900.4082"
   id="svg3038"
   version="1.1"
   inkscape:version="0.48.1 r9760"
   sodipodi:docname="interface.svg">
  <defs
     id="defs3040" />
  <sodipodi:namedview
     id="base"
     pagecolor="#ffffff"
     bordercolor="#666666"
     borderopacity="1.0"
     inkscape:pageopacity="0.0"
     inkscape:pageshadow="2"
     inkscape:zoom="0.7071068"
     inkscape:cx="209.39874"
     inkscape:cy="523.91835"
     inkscape:document-units="px"
     inkscape:current-layer="layer1"
     showgrid="false"
     inkscape:snap-bbox="false"
     inkscape:object-paths="true"
     inkscape:snap-nodes="false"
     inkscape:snap-page="false"
     fit-margin-top="0"
     fit-margin-left="0"
     fit-margin-right="0"
     fit-margin-bottom="0"
     inkscape:snap-grids="false"
     inkscape:snap-to-guides="false"
     inkscape:window-width="1680"
     inkscape:window-height="1001"
     inkscape:window-x="-2"
     inkscape:window-y="-3"
     inkscape:window-maximized="1" />
  <metadata
     id="metadata3043">
    <rdf:RDF>
      <cc:Work
         rdf:about="">
        <dc:format>image/svg+xml</dc:format>
        <dc:type
           rdf:resource="http://purl.org/dc/dcmitype/StillImage" />
        <dc:title />
      </cc:Work>
    </rdf:RDF>
  </metadata>
  <g
     inkscape:label="Camada 1"
     inkscape:groupmode="layer"
     id="layer1"
     transform="translate(15.321632,101.10481)">
    <path
       style="fill:#ff0000;stroke:none"
       d="m 504.48461,748.07074 c -38.37056,-3.46867 -72.86564,-22.26643 -95.11878,-51.83406 -45.53476,-60.50178 -46.96852,-165.85973 -4.25745,-312.85189 3.56766,-12.27824 6.48665,-22.91528 6.48665,-23.63786 0,-1.57947 -15.36356,-6.69146 -40.41761,-13.44838 -124.13324,-33.47794 -214.05646,-32.29136 -262.45545,3.46324 -18.514665,13.67764 -31.486679,35.64833 -36.113911,61.16608 -2.644579,14.58407 -2.000117,40.09202 1.371618,54.28888 1.637312,6.89401 2.806647,12.68473 2.59852,12.86828 -0.208127,0.18354 -7.039549,3.66386 -15.180938,7.73404 -16.892503,8.44516 -16.742634,8.48039 -20.485597,-4.81427 -10.806304,-38.38296 -7.405253,-81.72403 8.984462,-114.49289 43.007507,-85.98728 164.134416,-103.49238 346.808206,-50.12032 12.47982,3.64625 23.61037,6.72718 24.73456,6.84653 5.08623,0.53994 26.69692,-84.99697 34.16251,-135.21807 3.90406,-26.2625 5.37267,-75.78887 2.84478,-95.93432 -6.95283,-55.408757 -29.82284,-88.688356 -70.25083,-102.226487 -10.58283,-3.543872 -13.01318,-3.799003 -36.16312,-3.796236 -23.68078,0.003 -30.9869,0.955284 -41.14409,5.363737 -1.63698,0.7104812 -4.05916,-2.915339 -10.23236,-15.317022 l -8.0877,-16.247847 7.39602,-2.760356 c 4.06783,-1.518204 12.82051,-3.904338 19.45042,-5.302537 15.47738,-3.264052 50.01226,-3.341016 64.54843,-0.14384 32.87236,7.230151 59.18194,23.546157 77.74938,48.21660066 44.92108,59.68637434 45.97676,163.12346734 3.16854,310.45321734 -3.5676,12.27822 -6.48651,22.89246 -6.48651,23.58716 0,3.15008 68.81142,21.46477 107.78029,28.68657 82.82695,15.34967 142.35153,12.00403 184.84079,-10.38916 13.02989,-6.86716 30.20726,-24.64125 36.69773,-37.97252 8.71008,-17.89031 10.30859,-26.00315 10.19913,-51.76314 -0.0904,-21.26383 -1.21768,-29.46411 -5.36383,-39.01702 -0.71041,-1.63684 2.90644,-4.05476 15.27458,-10.21133 l 16.2054,-8.06665 2.07157,5.24773 c 12.7326,32.25442 11.11906,82.1303 -3.69425,114.1919 -21.89772,47.39493 -65.30088,74.15013 -132.85105,81.89395 -18.6651,2.13973 -66.48091,0.99461 -90.05327,-2.15664 -42.63262,-5.69932 -96.07996,-17.67066 -140.27658,-31.41968 -6.17314,-1.92039 -11.71015,-2.99024 -12.30449,-2.37746 -2.95471,3.04638 -19.25532,64.93567 -25.94422,98.50361 -8.44149,42.36322 -10.01777,57.55249 -10.05588,96.89956 -0.0277,28.63223 0.45854,37.9101 2.52714,48.21771 6.1561,30.67518 15.33814,51.14992 30.07825,67.07068 11.46236,12.38048 23.72616,20.25903 40.76727,26.18987 12.82752,4.4644 13.61869,4.55924 37.9187,4.5451 21.34691,-0.0127 25.93236,-0.4168 32.78696,-2.89146 l 7.96912,-2.87702 8.00857,16.08887 8.00857,16.08886 -4.6324,1.93471 c -8.42344,3.51804 -22.14035,6.50083 -36.17228,7.86582 -15.40559,1.49861 -15.7579,1.4973 -33.69557,-0.12423 l 0,-10e-6 z"
       id="path2983"
       inkscape:connector-curvature="0" />
  </g>
</svg>
