<?xml version="1.0" encoding="utf-8"?>
<!-- Generator: Adobe Illustrator 16.0.0, SVG Export Plug-In . SVG Version: 6.00 Build 0)  -->
<!DOCTYPE svg PUBLIC "-//W3C//DTD SVG 1.1//EN" "http://www.w3.org/Graphics/SVG/1.1/DTD/svg11.dtd">
<svg version="1.1" id="Layer_1" xmlns="http://www.w3.org/2000/svg" xmlns:xlink="http://www.w3.org/1999/xlink" x="0px" y="0px"
	 width="960px" height="560px" viewBox="0 0 960 560" enable-background="new 0 0 960 560" xml:space="preserve">
<g>
	<g>
		<path fill="#231F20" d="M585.643,181.35c-6.451-12.008-16.731-26.203-23.687-35.392c-12.64-10.768-26.618-15.655-43.62-18.794
			c-3.236-0.6-6.562-1.129-10.014-1.631c-4.541,3.768-6.828,8.283-7.684,13.546c-3.486-2.019-6.705-3.708-9.191-4.138
			c-5.041,0.635-8.184,2.628-11.581,3.539c-3.202-1.514-7.188-3.253-11.801-4.289c-2.109,0.477-4.651,1.739-7.277,3.395
			c-1.212-4.579-3.198-8.844-7.76-12.053c-31.387,5.78-61.834,23.331-78.243,53.811c2.982,12.081,6.091,23.413,11.009,32.2
			c2.147-1.408,5.773-4.452,5.773-4.452l0.076,7.55c1.855,4.401,7.272,13.394,12.063,15.954c0.965-1.779,2.77-4.353,2.77-4.353
			l1.093,5.117c11.962,11.187,26.207,19.604,41.777,23.018c-2.126,9.903-4.52,19.688-7.171,22.288
			c-1.122-4.902-2.499-11.411-3.231-18.65c-1.771,6.892-1.894,21.234,0.25,25.67c3.236,2.961,6.417,3.406,9.797,1.572
			c3.376-3.109,9.581-15.086,13.461-28.581c0.538,0.076,1.055,0.144,1.588,0.212c-3.219,10.398-4.143,20.92-1.449,28.759
			c3.973,5.837,25.584,10.513,35.309-0.145c1.915-5.379,1.966-17.995,1.66-30.533c0.898,0.157,0.505-0.258,1.864-0.432
			c2.753,11.32,8.327,25.413,10.742,28.979c1.397,1.352,4.04,1.495,6.167,0.97c0.411-0.102,0.788-0.22,1.16-0.364
			c0.933-0.042,1.809-0.567,2.686-1.986c2.678-5.265,3.287-23.665,1.428-31.917c12.195-3.628,22.225-11.553,31.146-19.279
			l-0.627-7.169l6.739,5.752c0.14-0.044,0.301-0.125,0.428-0.261c0.61-0.597-0.894-4.558-0.305-5.18
			c0.576-0.621,3.291,1.682,3.846,1.029c6.879-7.938,12.479-17.538,16.893-30.338c0.271-0.782-0.61-2.109-0.373-2.908
			c0.466-1.347,2.033-2.19,2.448-3.598c0.322-1.095-2.647-3.799-2.363-4.926C581.762,182.163,585.358,182.565,585.643,181.35z
			 M520.25,266.607c-0.537,1.679-1.143,3.274-1.842,4.812l-0.072,0.18c-1.66,3.99-3.287,6.233-5.235,8.317
			c2.354-3.863,3.52-7.33,4.092-10.485c-1.661-5.672-2.575-11.2-3.304-16.649c1.499-0.343,2.965-0.709,4.447-1.093
			c1.754-0.458,3.524-0.949,5.239-1.453C522.716,256.886,521.732,262.075,520.25,266.607z"/>
		<path fill-rule="evenodd" clip-rule="evenodd" fill="#CBD7D7" d="M425.861,197.439c-4.917,13.586-5.329,26.825-1.288,38.12
			c-0.805-0.498-1.593-1.001-2.381-1.516C420.727,227.603,419.028,213.787,425.861,197.439z"/>
		<path fill-rule="evenodd" clip-rule="evenodd" fill="#CBD7D7" d="M497.313,225.533c-3.396-1.97-5.812-2.542-9.547-2.896
			c-0.5-1.516-1.448-2.874-2.309-4.098C491.685,220.268,493.074,220.899,497.313,225.533z"/>
		<path fill-rule="evenodd" clip-rule="evenodd" fill="#AEB6B9" d="M534.644,191.579c5.202,9.656,7.667,14.607,10.331,26.45
			c0.445,2.73,0.123,9.355,0,12.354C543.365,217.148,539.913,204.215,534.644,191.579z"/>
		<path fill-rule="evenodd" clip-rule="evenodd" fill="#CBD7D7" d="M531.586,188.661c4.591,10.074,6.772,15.231,8.721,27.308
			c0.305,2.776-0.41,9.391-0.699,12.381C538.77,214.965,536.088,201.734,531.586,188.661z"/>
		<path fill-rule="evenodd" clip-rule="evenodd" fill="#CBD7D7" d="M528.85,185.662c3.969,10.481,5.811,15.827,7.022,28.091
			c0.11,2.795-0.983,9.372-1.448,12.343C534.39,212.607,532.534,199.134,528.85,185.662z"/>
		<path fill-rule="evenodd" clip-rule="evenodd" fill="#CBD7D7" d="M526.384,182.208c3.481,11.799,5.074,17.805,5.469,31.273
			c-0.089,3.064-1.771,10.1-2.504,13.296C530.332,212.089,529.349,197.238,526.384,182.208z"/>
		<path fill-rule="evenodd" clip-rule="evenodd" fill="#CBD7D7" d="M524.055,183.392c2.686,11.25,3.879,16.966,3.668,29.591
			c-0.233,2.861-2.109,9.351-2.914,12.292C526.384,211.598,526.113,197.637,524.055,183.392z"/>
		<path fill-rule="evenodd" clip-rule="evenodd" fill="#CBD7D7" d="M522.716,193.655c0.915,6.976,1.254,10.502,0.355,18.065
			c-0.301,1.703-1.804,5.439-2.465,7.137C522.377,210.78,523.055,202.37,522.716,193.655z"/>
		<path fill-rule="evenodd" clip-rule="evenodd" fill="#CBD7D7" d="M523.377,176.703c13.537,8.423,20.221,12.89,31.822,26.211
			c2.432,3.215,6.451,12.144,8.332,16.153C552.408,203.075,539.04,188.958,523.377,176.703z"/>
		<path fill-rule="evenodd" clip-rule="evenodd" fill="#CBD7D7" d="M526.041,172.72c13.605,8.26,20.327,12.648,32.035,25.838
			c2.486,3.181,6.582,12.065,8.476,16.054C555.306,198.744,541.811,184.787,526.041,172.72z"/>
		<path fill-rule="evenodd" clip-rule="evenodd" fill="#CBD7D7" d="M528.578,170.655c13.927,7.487,20.849,11.487,33.072,24
			c2.609,3.046,7.065,11.683,9.12,15.554C558.881,195.008,544.813,181.82,528.578,170.655z"/>
		<path fill-rule="evenodd" clip-rule="evenodd" fill="#CBD7D7" d="M530.742,169.121c14.16,6.866,21.184,10.562,33.822,22.521
			c2.703,2.923,7.438,11.36,9.641,15.139C561.812,192.113,547.334,179.563,530.742,169.121z"/>
		<path fill-rule="evenodd" clip-rule="evenodd" fill="#CBD7D7" d="M531.797,166.561c13.694,5.414,20.488,8.372,33.006,18.682
			c2.715,2.552,7.633,10.132,9.886,13.521C562.244,185.887,547.961,175.151,531.797,166.561z"/>
		<path fill-rule="evenodd" clip-rule="evenodd" fill="#AEB6B9" d="M534.729,165.855c12.283,3.469,18.4,5.426,29.998,13.264
			c2.523,1.985,7.293,8.139,9.496,10.884C562.549,179.92,549.371,171.866,534.729,165.855z"/>
		<path fill-rule="evenodd" clip-rule="evenodd" fill="#CBD7D7" d="M524.113,149.738c10.831-2.215,21.755-2.488,33.234-0.97
			c1.677,1.631,3.465,2.503,5.146,4.134C550.337,149.633,537.554,148.582,524.113,149.738z"/>
		<path fill-rule="evenodd" clip-rule="evenodd" fill="#FFFFFF" d="M508.238,188.511c0.805,2.734,0.16,5.362-0.145,8.349
			c-2.381,0.889-3.486,0.777-5.54,0.116c0,0,2.249-0.22,3.981-0.974C507.2,194.485,508.221,192.234,508.238,188.511z"/>
		<path fill-rule="evenodd" clip-rule="evenodd" fill="#FFFFFF" d="M499.817,192.757c0.39-3.952,3.219-7.97,7.239-8.264
			c0.766,0.697,2.215,2.139,2.325,2.953C505.43,187.276,500.961,189.421,499.817,192.757z"/>
		<path fill-rule="evenodd" clip-rule="evenodd" fill="#CBD7D7" d="M468.837,271.72c-1.059-2.478-1.843-4.971-0.271-7.052
			c-2.821-1.767-1.626-3.295,0.415-4.89c-2.613-2.109-1.147-3.832,0.983-5.496c-2.347-2.048-1.932-3.766,1.304-5.142
			c-2.38-1.849-0.72-3.293,1.534-4.683c-1.627-1.659-0.246-2.915,1.592-4.125c-0.517-1.458-0.229-2.218,1.771-3.438
			c-0.661-1.402,0.533-3.418,2.02-4.787c0-0.013,4.969,0.008,5.202-0.013c-1.127,1.063-2.376,1.677-3.469,2.021l-0.127,0.182
			c0.966,0.31,1.525,1.051,2.025,1.461c-0.576,0.055-2.186,0.652-3.846,1.315c0.949,0.608,1.737,1.188,2.042,1.8
			c-0.805,0.216-2.38,0.877-4.024,1.735c0.983,0.559,1.677,1.184,1.804,1.847c-0.373,0.576-1.465,1.571-3.592,2.404
			c0.729,0.635,1.533,1.34,1.694,1.876c-0.406,0.748-1.466,1.802-3.253,2.641c0.72,0.845,1.343,1.665,1.466,2.624
			c-0.585,0.407-1.627,1.381-2.821,2.442c1.753,1.849,1.982,3.816-1.161,5.89c1.067,1.9,1.211,3.588-0.661,4.738
			C470.586,267.293,470.069,269.49,468.837,271.72z"/>
		<path fill-rule="evenodd" clip-rule="evenodd" fill="#CBD7D7" d="M454.156,187.581c0.415-0.906,1.521-2.02,2.38-2.463
			c3.287,0.72,6.294,3.45,5.219,10.78C460.611,190.057,458.252,187.504,454.156,187.581z"/>
		<path fill-rule="evenodd" clip-rule="evenodd" fill="#CBD7D7" d="M442.965,162.865c-21.577,11.161-35.233,29.635-39.223,52.822
			c-1.05-1.421-2.054-2.882-2.999-4.379C402.776,203.688,412.111,176.265,442.965,162.865z"/>
		<path fill-rule="evenodd" clip-rule="evenodd" fill="#CBD7D7" d="M440.838,166.351c-19.324,13.001-30.98,31.647-33.785,53.551
			c-1.059-1.252-2.058-2.525-3.024-3.833C406.571,205.24,414.933,181.422,440.838,166.351z"/>
		<path fill-rule="evenodd" clip-rule="evenodd" fill="#CBD7D7" d="M454.443,240.905c1.737,0.004,3.287,0.754,4.575,2.296
			c-1.5,8.071-4.304,16.612-7.133,23.195c1.648-4.562,2.931-11.231,5.117-22.333c-2.147,7.133-7.76,27.17-11.817,32.569
			c-0.86,0.709-2.126,0.76-3.008-0.023C442.981,276.011,449.259,267.236,454.443,240.905z"/>
		<path fill-rule="evenodd" clip-rule="evenodd" fill="#CBD7D7" d="M462.991,207.849c0.017-0.938,0.068-1.912,0.068-2.918
			c-3.702,0.152-6.295-0.894-9.709-3.478C456.181,204.806,460.378,206.815,462.991,207.849z"/>
		<path fill-rule="evenodd" clip-rule="evenodd" fill="#CBD7D7" d="M462.631,211.799c0.123-1.015,0.216-2.065,0.305-3.158
			c-3.647-0.161-6.256-0.94-7.921-2.346C456.803,208.658,459.899,210.494,462.631,211.799z"/>
		<path fill-rule="evenodd" clip-rule="evenodd" fill="#CBD7D7" d="M490.697,211.625c-5.29-1.948-12.834-1.555-20.488,1.349
			c-0.678-4.683-1.144-9.287-0.805-10.257c7.654-3.833,16.113-2.501,21.221,0.313C492.074,204.492,491.93,209.463,490.697,211.625z"
			/>
		<path fill-rule="evenodd" clip-rule="evenodd" fill="#CBD7D7" d="M508.704,199.157c-3.059,3.024-5.151,4.134-8.62,4.388
			c-0.482,2.207-1.326,5.434-0.944,7.569c1.466-0.195,6.451-3.499,8.438-7.498c-2.363,2.328-4.601,3.431-7.133,3.821
			C502.676,206.352,506.789,202.999,508.704,199.157z"/>
		<path fill-rule="evenodd" clip-rule="evenodd" fill="#CBD7D7" d="M505.569,209.082c-2.05,2.021-4.143,2.825-6.451,2.995
			c0,0-0.339,1.887-0.178,2.766C500.046,214.692,504.07,212.112,505.569,209.082z"/>
		<path fill-rule="evenodd" clip-rule="evenodd" fill="#CBD7D7" d="M509.449,237.847c-3.858,2.548-6.04,4.968-9.438,9.581
			c-0.355-4.916-0.821-9.367-1.414-14.181c1.863-1.381,3.134-1.949,5.828-2.228c-1.872,1.43-3.499,2.979-4.914,5.523
			c2.322-1.474,5.186-1.565,7.866-2.173c-3.054,1.444-5.273,3.456-7.383,6.963C503.299,239.168,505.892,238.208,509.449,237.847z"/>
		<path fill-rule="evenodd" clip-rule="evenodd" fill="#CBD7D7" d="M503.104,190.897c-0.444,1.019-0.516,2.097-0.305,3.083
			c0.199-1.105,0.433-1.851,0.982-2.62C503.481,191.12,503.409,191.071,503.104,190.897z"/>
		<path fill-rule="evenodd" clip-rule="evenodd" fill="#CBD7D7" d="M509.398,127.996c-3.702,2.423-6.723,6.284-8.954,10.606
			c0.982,2.01,1.948,4.016,2.914,6.027v-0.004l0.017,0.067l1.178,3.016l0.661,1.957c0.482,3.698,1.144,3.912,1.432,7.705
			c7.454-6.252,22.415-11.739,54.616-12.048l-1.721-1.281c-12.707-2.071-31.425-1.091-47.406,3.329
			c5.685-4.206,14.91-9.704,26.245-11.612c-6.473,0.18-14.288,1.69-26.66,7.559c3.735-3.787,9.441-7.832,17.739-9.547
			c-5.473,0.254-11.428,1.512-18.807,5.731c2.914-2.897,7.095-5.803,12.923-7.411c-4.29,0.487-8.925,1.743-14.465,5.193
			c2.593-2.717,6.277-5.458,11.462-7.129c-4.773,0.756-9.941,2.565-16.431,7.849C505.107,134.78,506.916,131.519,509.398,127.996z"
			/>
		<path fill-rule="evenodd" clip-rule="evenodd" fill="#CBD7D7" d="M532.602,161.399c13.072-1.256,24.957-0.635,38.758,2.673
			c-16.16-5.233-31.676-7.317-49.499-6.9c14.012-1.98,28.692-1.32,43.526,1.385c-15.639-4.596-32.031-6.605-49.194-6.029
			c14.872-2.266,30.354-1.466,46.119,1.453c5.223,3.048,11.352,10.467,16.197,16.871
			C571.647,165.694,548.889,161.762,532.602,161.399z"/>
		<path fill-rule="evenodd" clip-rule="evenodd" fill="#AEB6B9" d="M538.558,164.657c10.403,2.15,15.621,3.414,25.669,9.27
			c2.202,1.497,6.472,6.352,8.42,8.514C562.422,174.717,551.053,168.791,538.558,164.657z"/>
		<path fill-rule="evenodd" clip-rule="evenodd" fill="#CBD7D7" d="M475.127,225.863c1.626,1.75,6.15,1.542,8.365,0.672
			c-1.749,2.238-8.183,2.556-10.919,0.661c-0.805-3.02,2.859-8.366,4.863-8.732c-1.737,1.732-2.22,3.28-2.703,5.246
			c1.626,2.105,4.113,2.535,6.811,2.476C479.401,226.552,477.274,226.397,475.127,225.863z"/>
		<path fill-rule="evenodd" clip-rule="evenodd" fill="#CBD7D7" d="M488.694,226.146c2.253,0.824,2.63,1.548,3.773,2.607
			c1.81,1.519,1.732,5.951-1.843,6.425c2.398,0.438,3.22,2.758,3.347,4.139c0.161,1.94-1.843,3.103-4.54,3.253
			c1.588,1.038,4.464,2.12,5.006,4.426c-1.271,3.096-5.562,3.096-7.887,3.688c2.236,0.726,6.4,2.042,7.294,3.981
			c-1.982,1.349-6.294,1.578-8.794,2.226c1.788,0.281,6.862,1.684,8.023,4.706c-2.305,0.781-7.201-0.536-9.421-0.121
			c1.397,0.464,5.989,2.758,8.599,6.231c-2.321-1.095-6.54-2.128-10.132-1.815c4.431,1.22,8.505,3.804,10.149,8.433
			c-1.855-2.656-7.489-5.498-11.226-5.619c5.88,1.485,9.743,7.428,10.441,10.445c-0.732-1.211-5.685-6.046-10.064-6.767
			c5.401,2.567,6.828,6.834,6.973,10.621c-0.966-3.018-3.021-5.464-6.028-6.849c-0.051,0.015-0.067,0.028-0.084,0.041
			c-2.774-3.554-2.093-19.642,3.16-36.442C487.373,235.267,488.999,231.188,488.694,226.146z"/>
		<path fill-rule="evenodd" clip-rule="evenodd" fill="#AEB6B9" d="M539.074,194.968c5.134,8.707,7.599,13.171,10.475,24.019
			c0.504,2.505,0.395,8.651,0.395,11.426C548.012,218.243,544.386,206.423,539.074,194.968z"/>
		<path fill-rule="evenodd" clip-rule="evenodd" fill="#CBD7D7" d="M496.954,221.234c-4.287-2.958-7.883-4.774-12.868-4.634
			c-1.038-0.987-2.932-2.258-3.897-2.652c-1.305,0.402-3.007,1.565-4.312,3.035c-1.894,0.381-3.77,0.885-5.592,1.506
			c-0.182-1.515-0.237-2.957-0.038-4.215C482.814,211.487,488.66,212.254,496.954,221.234z"/>
		<path fill-rule="evenodd" clip-rule="evenodd" fill="#CBD7D7" d="M470.264,219.821c1.343-0.371,2.715-0.669,4.096-0.894
			c-0.949,1.404-1.826,3.003-2.524,4.674c-0.606,0.193-1.229,0.402-1.855,0.64C470.142,222.968,470.209,221.454,470.264,219.821z"/>
		<path fill-rule="evenodd" clip-rule="evenodd" fill="#CBD7D7" d="M383.952,187.975l5.278-7.925l0.017,0.169
			c5.595-8.988,13.91-17.108,28.727-21.106c-12.978,3.141-27.511,18.993-33.268,34.212c9.53-18.656,17.27-24.47,31.891-30.807
			c-6.044,2.734-23.864,16.168-29.926,35.981c4.168-10.367,10.92-20.29,19.04-25.599c-4.219,3.804-15.215,21.34-17.68,29.685
			c2.486-6.28,11.068-19.446,16.125-23.316c-4.151,4.803-8.116,11.754-10.242,18.555c1.911,5.212,3.77,8.641,6.629,13.182
			c5.307-23.11,20.149-40.631,42.582-50.02c-25.169,8.567-38.363,27.217-44.603,46.181c6.544-25.968,23.635-40.966,43.637-48.459
			c-21.882,5.193-36.432,23.091-45.568,40.481c7.243-19.213,24.423-38.689,47.483-42.023c-15.804-3.308-35.377-1.001-51.664,11.426
			c13.406-12.894,30.12-16.738,51.113-13.479c-23.263-5.123-40.104,1.281-49.736,7.915c14.012-10.771,32.052-13.94,51.787-9.757
			c-22.594-6.731-45.552,0.703-54.955,8.067c-1.694,4.829-2.588,9.365-1.711,16.403L383.952,187.975z"/>
		<path fill-rule="evenodd" clip-rule="evenodd" fill="#CBD7D7" d="M430.825,213.015c-2.338,6.584-3.838,14.74-3.592,23.898
			c1.198,0.419,0.982,0.402,2.186,0.817C428.343,229.305,429.147,220.211,430.825,213.015z"/>
		<path fill-rule="evenodd" clip-rule="evenodd" fill="#CBD7D7" d="M432.35,218.154c-1.381,5.579-2.186,12.371-2.008,19.836
			c1.025,0.28,0.826,0.271,1.847,0.553C431.308,231.607,431.651,224.116,432.35,218.154z"/>
		<path fill-rule="evenodd" clip-rule="evenodd" fill="#CBD7D7" d="M434.493,224.184c-0.982,4.162-1.609,9.162-1.465,14.543
			c0.75,0.206,0.61,0.201,1.338,0.407C433.815,234.047,434.027,228.555,434.493,224.184z"/>
		<path fill-rule="evenodd" clip-rule="evenodd" fill="#CBD7D7" d="M502.443,229.06c-1.678,0.362-3.109,1.23-4.108,2.681
			c-0.145-0.839-0.183-1.394-0.288-2.243C499.529,228.898,500.766,228.733,502.443,229.06z"/>
		<path fill-rule="evenodd" clip-rule="evenodd" fill="#CBD7D7" d="M427.36,188.394c-7.599,14.842-9.853,30.387-6.562,44.707
			c-0.876-0.591-1.698-1.188-2.537-1.798C417.347,223.834,416.813,206.578,427.36,188.394z"/>
		<path fill-rule="evenodd" clip-rule="evenodd" fill="#CBD7D7" d="M492.701,198.244c-6.684-2.399-13.267-2.516-19.417-0.667
			c6.705-1.277,14.682-1.224,19.649,2.378c-4.418-1.542-15.981-2.378-23.652,2.334c-0.821-0.989-1.249-5.45-0.767-5.45
			c-1.038-1-2.27-3.655-2.147-4.812c7.455-3.731,19.896-2.995,26.673,2.98c-3.753-1.784-11.996-3.298-20.484-0.072
			C479.884,193.704,487.051,194.892,492.701,198.244z"/>
		<path fill-rule="evenodd" clip-rule="evenodd" fill="#CBD7D7" d="M426.483,185.323c-8.078,11.187-11.975,23.97-11.352,36.889
			c0.089-7.472,1.842-22.426,12.656-36.286c-8.722,12.559-12.313,26.895-10.386,41.072c-1.343-1.023-2.609-2.086-3.859-3.204
			c0.034,0.322,0.068,0.64,0.106,0.966c-1.432-1.159-2.792-2.378-4.096-3.639c0.093-6.296,1.592-23.039,14.283-37.688
			c-8.399,10.886-12.618,23.517-12.352,36.455c0.322-7.463,2.448-22.35,13.623-35.807c-7.972,10.797-11.996,23.11-11.78,35.642
			C413.772,211.866,416.187,197.994,426.483,185.323z"/>
		<path fill-rule="evenodd" clip-rule="evenodd" fill="#FFFFFF" d="M498.902,158.989l0.038,0.157l0.017,0.028l-0.017-0.02
			c0.178,0.869,0.521,2.173,0.682,2.982c-4.151-3.361-14.608-5.181-20.954-4.17c5.824-2.217,14.821-1.404,19.573,0.701
			c-7.972-5.17-25.203-5.062-32.895,0.144c2.592-1.904,13.359-3.55,17.701-3.016c-9.764,0.657-20.255,7.209-24.635,13.836
			c6.451-5.1,14.927-9.444,22.581-10.846c9.438,1.402,16.943,3.302,24.398,10.206c-4.304-2.218-8.684-4.17-13.173-5.52
			c4.523,3.184,9.581,8.288,15.842,16.335c-5.313-4.509-7.854-5.621-14.449-7.495c1.395,1.099,2.359,2.186,3.037,3.183
			c-3.735-1.466-9.115-1.396-14.85-1.47c6.506,1.076,11.974,3.797,15.515,6.35c-9.687-4.3-15.804-4.313-25.673-2.472
			c11.852-1.354,18.036,0.656,24.263,7.129c-8.353-3.656-16.342-3.692-22.458-2.654c7.209-0.333,15.893,1.741,20.738,7.359
			c-4.77-2.328-18.468-5.032-28.354,1.631c-0.678-1.984-1.05-4.683-0.267-6.824c-0.716,0.282-1.321,0.548-1.825,0.786
			c-0.212-0.955-0.284-3.723,0.965-5.379c-1.126,0.375-2.033,0.521-4.341,2.046c1.503-3.937,3.842-6.923,9.009-10.337
			c-4.99,1.184-9.437,4.662-12.445,8.402c3.041-6.807,8.564-11.231,13.805-13.671c-3.774,1.287-18.125,7.857-21.327,21.725
			c-0.055,0.313,1.677-2.597,2.499-2.709c-0.034,1.063-0.034,2.003,0,2.838c-0.944,0.35-1.788,0.926-2.609,1.588
			c-0.017,0.733,0.199,1.826,0.178,2.569c0.826-0.854,1.686-1.654,2.593-2.319c0.288,2.304,0.864,3.556,1.381,4.509
			c0.051-2.289,0.5-4.778,1.876-5.788v-0.013l0,0l0.055-0.027l-0.017,0.036c0.479,0.138,1.034,0.334,1.444,0.661
			c-0.732,0.623-0.732,1.859-0.644,3.124c-0.716-1.175-0.877-2.449-0.839-3.641c-0.987,3.064-0.305,5.979,1.089,7.681
			c1.466,0.464,2.719,0.447,3.969,0.35c-1.91,1.169-6.561,1.948-8.615-2.901c0.75,5.739,7.366,8.734,11.297,10.229
			c0-1.599-0.068-3.271-0.178-5.024c0.695,2.673,2.059,5.244,2.825,13.883l0.123,0.049l-0.123,0.019
			c0.055,0.718,0.123,1.478,0.178,2.287c-0.716,0.523-1.394,1.074-2.021,1.65c0.661-0.394,1.359-0.769,2.042-1.118
			c0.068,0.868,0.102,1.802,0.123,2.789c0.072-0.993,0.14-1.967,0.161-2.927c0.877-0.417,1.788-0.809,2.753-1.167
			c0.216,1.324,0.377,2.673,0.521,4.037c-4.313,1.563-8.192,3.804-10.835,6.623c2.999-2.408,6.861-4.214,10.937-5.39
			c0.11,1.445,0.182,2.891,0.161,4.323c-0.784,0.312-1.589,0.657-2.376,1.023c0.767-0.241,1.572-0.438,2.359-0.595
			c0,0.438,0,0.872-0.017,1.307c0.089-0.398,0.161-0.852,0.233-1.343c0.521-0.106,1.038-0.182,1.572-0.25
			c-0.305,0.769-0.534,1.538-0.729,2.315c1.444,2.238,3.896,4.291,5.845,5.144c-4.168,5.507-7.832,12.229-10.585,19.258
			c0.928-5.68,1.859-12.074,2.432-18.283c-2.876-2.798-6.15-3.033-6.206-3.04c2.525,1.43,4.757,3.827,5.956,6.131
			c-1.915-1.832-7.421-4.348-9.958-4.409c2.753,1.595,7.849,5.604,9.492,9.67c-4.969-4.518-9.831-5.989-12.767-6.188
			c3.507,1.699,9.226,4.014,12.232,11.267c-3.918-4.35-10.585-7.643-14.376-8.444c-0.39,0.398-0.805,1.36-1.033,2.522
			c0.017-0.119-1.004-2.91-0.983-3.026c1-3.816,2.948-7.938,5.625-10.397c3.134-3.668,5.083-8.188,5.99-13.876
			c-2.109-0.3-4.109-1.131-6.15-2.681c0.559,1.232,2.219,3.615,3.863,4.956c-0.123,1.34-1.855,5.096-2.054,6.102
			c-4.13-6.817-6.435-15.71-7.866-22.414c-2.702-4.898-3.325-9.363-2.664-13.292c0.36-8.319,7.527-17.703,12.157-21.865
			c-2.52,0.913-5.706,4.568-7.815,6.923c2.508-9.653,10.801-21.636,25.961-24.495c-3.308,0.214-6.633,0.616-8.205,1.031
			c-6.883,2.813-12.673,5.43-17.252,9.568c-0.021,0.051-0.055,0.1-0.089,0.152c-5.185-7.717-14.16-10.57-22.526-12.338
			c-11.691-0.212-24.885,2.654-34.86,7.097c14.088-9.395,31.463-12.475,38.668-12.756c-5.867-0.483-13.605,0.125-23.348,2.463
			c1.644-1.15,14.177-3.941,21.471-5.016c-4.363-0.434-8.887-0.345-13.444,0.384c2.215-1.013,16.892-3.846,20.95-2.993
			c5.777,1.224,12.927,4.577,15.664,9.693l0.017-0.072c0.588-0.335,1.194-0.644,1.788-0.934
			c-4.236-3.382-12.267-9.516-19.129-10.765c0.771-0.229,1.555-0.434,2.359-0.614c-0.339,0.023-0.682,0.06-1.021,0.112
			c2.846-0.692,5.667-1.377,8.514-2.065c3.965-0.161,7.917,4.198,10.064,8.55c-2.253-1.59-4.939-3.316-7.87-4.613
			c2.647,2.866,5.812,7.063,7.082,9.395c3.787-1.802,7.472-2.722,11.081-3.276c-3.964,1.618-6.396,2.745-11.974,7.084
			c9.009-5.257,16.93-5.132,25.995-3.946c-9.281,0.038-21.222,2.516-26.601,7.593l0.068,0.089c3.308-1.953,8.992-3.929,12.406-4.356
			c3.503-0.619,8.188-1.046,12.39-0.695c2.236-3.31,5.329-5.85,7.794-7.637c1.537,0.322,4.701,0.765,8.726,4.166
			c-5.168-2.105-7.955-1.993-11.063-1.686c8.327,1.055,10.971,2.54,15.782,7.58c-4.989-3.856-11.103-4.674-14.961-4.329
			c3.177,0.093,7.955,1.22,10.632,3.194c3.702,3.018,5.777,6.75,7.832,9.967c-1.843-1.936-6.366-6.32-8.51-8.107
			c-3.431-1.216-6.938-1.676-10.208-1.845c0.055,0.021,0.127,0.048,0.178,0.07c-0.14-0.025-0.284-0.053-0.424-0.085l-0.22-0.008
			c2.651,0.777,5.223,2.486,9.318,5.252c-5.007-2.781-15.308-4.31-22.06-1.267c11.241-3.647,21.306,4.162,25.758,8.457
			C498.707,158.896,498.817,158.94,498.902,158.989z"/>
		<path fill-rule="evenodd" clip-rule="evenodd" fill="#CBD7D7" d="M468.942,213.707c-0.91,0.487-1.931,1.017-2.736,1.573
			c0.145-7.432-0.394-14.175-1.198-18.199C466.083,199.174,468.244,206.199,468.942,213.707z"/>
		<path fill-rule="evenodd" clip-rule="evenodd" fill="#CBD7D7" d="M450.513,270.932c-5.261,9.564-7.633,8.63-8.336,5.68
			c0.271-0.424,0.432-0.79,0.682-1.211C444.252,279.245,447.616,274.646,450.513,270.932z"/>
		<path fill-rule="evenodd" clip-rule="evenodd" fill="#FFFFFF" d="M454.156,187.581c0.415-0.906,1.521-2.02,2.38-2.463
			c3.287,0.72,6.294,3.45,5.219,10.78C460.611,190.057,458.252,187.5,454.156,187.581z"/>
		<path fill-rule="evenodd" clip-rule="evenodd" fill="#CBD7D7" d="M453.283,149.404c-1.627-0.644-3.575-1.313-5.761-1.936
			c2.736,1.19,4.6,2.427,5.545,3.135C453.139,150.191,453.211,149.793,453.283,149.404z"/>
		<path fill-rule="evenodd" clip-rule="evenodd" fill="#CBD7D7" d="M455.231,150.2l-0.11-0.051c-0.105,0.1-0.194,0.201-0.305,0.296
			C454.96,150.365,455.088,150.285,455.231,150.2z"/>
		<path fill-rule="evenodd" clip-rule="evenodd" fill="#CBD7D7" d="M453.872,146.848c-1.411-0.729,0.411,0.862-0.945,0.125
			c1.5,1.156-0.449,0.036,0.623,1.211C453.656,147.733,453.766,147.29,453.872,146.848z"/>
		<path fill-rule="evenodd" clip-rule="evenodd" fill="#CBD7D7" d="M453.283,149.404c-1.627-0.644-7.65-2.779-9.853-3.406
			c2.736,1.195,8.692,3.897,9.637,4.604C453.139,150.191,453.211,149.793,453.283,149.404z"/>
		<path fill-rule="evenodd" clip-rule="evenodd" fill="#CBD7D7" d="M455.231,150.2l-0.11-0.051c-0.105,0.1-0.194,0.201-0.305,0.296
			C454.96,150.365,455.088,150.285,455.231,150.2z"/>
		<path fill-rule="evenodd" clip-rule="evenodd" fill="#CBD7D7" d="M453.872,146.848c-1.411-0.725-6.65-3.276-8.01-4.018
			c1.499,1.165,6.616,4.231,7.688,5.398C453.656,147.786,453.766,147.29,453.872,146.848z"/>
		<path fill-rule="evenodd" clip-rule="evenodd" fill="#CBD7D7" d="M454.655,144.264c-2.355-1.474-4.947-2.802-7.717-3.933
			c3.16,1.896,5.769,4.085,7.095,5.961C454.232,145.617,454.427,144.952,454.655,144.264z"/>
		<path fill-rule="evenodd" clip-rule="evenodd" fill="#CBD7D7" d="M462.991,207.849c0.017-0.938,0.068-1.912,0.068-2.918
			c-3.702,0.152-6.295-0.894-9.709-3.478C456.181,204.806,460.378,206.815,462.991,207.849z"/>
		<path fill-rule="evenodd" clip-rule="evenodd" fill="#CBD7D7" d="M462.631,211.799c0.123-1.015,0.216-2.065,0.305-3.158
			c-3.647-0.161-6.256-0.94-7.921-2.346C456.803,208.658,459.899,210.494,462.631,211.799z"/>
	</g>
	<g>
		<path fill="#231F20" d="M282.218,386.244h-52.151V311.83h44.802c13.745,0,31.069,2.936,31.069,20.938
			c0,3.999-2.253,8.404-4.914,11.471c6.54,3.601,11.475,11.471,11.475,18.803C312.499,379.577,296.085,386.244,282.218,386.244z
			 M244.604,325.169v14.8h32.802c5.346,0,13.355-0.932,13.355-7.069c0-7.464-9.62-7.73-16.016-7.73H244.604z M281.946,372.906
			c6.667,0,15.342-1.598,15.342-9.599c0-8.006-8.137-10.141-14.948-10.141h-37.736v19.739H281.946z"/>
		<path fill="#231F20" d="M346.355,386.244h-14.55V311.83h45.212c13.601,0,29.214,5.206,29.214,21.345
			c0,11.466-7.354,17.328-16.414,19.865l21.327,33.204h-17.324l-20.001-31.603h-27.465V386.244z M346.355,341.299h29.337
			c11.191,0,15.325-2.8,15.325-8.124c0-5.202-4.134-8.006-15.325-8.006h-29.337V341.299z"/>
		<path fill="#231F20" d="M493.15,364.511h-40.011l-13.978,21.733H421.82l51.342-79.738l51.325,79.738h-17.342L493.15,364.511z
			 M461.81,351.168h22.81l-11.458-17.73L461.81,351.168z"/>
		<path fill="#231F20" d="M565.158,364.638l34-52.808H616.5l-51.342,79.747l-51.346-79.747h17.341L565.158,364.638z"/>
		<path fill="#231F20" d="M678.088,309.039c28.942,0,52.29,17.993,52.29,39.998s-23.348,39.871-52.29,39.871
			c-28.782,0-52.257-17.866-52.257-39.871S649.306,309.039,678.088,309.039z M678.088,375.574c20.539,0,37.075-11.732,37.075-26.537
			c0-14.804-16.536-26.668-37.075-26.668c-20.379,0-37.059,11.864-37.059,26.668C641.029,363.842,657.709,375.574,678.088,375.574z"
			/>
	</g>
	<g>
		<path fill="#231F20" d="M241.614,428.487c3.202,0,6.099-0.999,8.014-2.702v1.939c-2.147,1.395-4.939,2.187-8.014,2.187
			c-6.773,0-12.258-4.066-12.258-9.124c0-5.066,5.485-9.158,12.258-9.158c3.113,0,5.867,0.822,8.014,2.211v1.975
			c-1.915-1.703-4.812-2.762-8.014-2.762c-5.702,0-10.331,3.456-10.331,7.734C231.283,425.061,235.912,428.487,241.614,428.487z"/>
		<path fill="#231F20" d="M266.164,411.629c6.79,0,12.258,4.092,12.258,9.158c0,5.058-5.468,9.124-12.258,9.124
			c-6.794,0-12.284-4.066-12.284-9.124C253.88,415.721,259.37,411.629,266.164,411.629z M266.164,428.487
			c5.701,0,10.348-3.427,10.348-7.7c0-4.278-4.647-7.734-10.348-7.734c-5.706,0-10.335,3.456-10.335,7.734
			C255.829,425.061,260.458,428.487,266.164,428.487z"/>
		<path fill="#231F20" d="M281.074,429.241h-1.864l6.205-17.366l9.62,14.698l9.632-14.698l6.206,17.366h-1.876l-4.846-13.521
			l-9.099,14.037l-9.098-14.037L281.074,429.241z"/>
		<path fill="#231F20" d="M330.946,412.328h1.771v9.213c0,5.82-4.664,8.37-9.31,8.37c-4.668,0-9.336-2.55-9.336-8.37v-9.213h1.788
			v8.789c0,5.003,3.795,7.37,7.548,7.37s7.54-2.367,7.54-7.37V412.328z"/>
		<path fill="#231F20" d="M337.867,429.241v-17.464l18.29,14.313v-13.762h1.749v17.366l-18.269-14.066v13.613H337.867z"/>
		<path fill="#231F20" d="M363.612,429.241v-16.913h1.787v16.913H363.612z"/>
		<path fill="#231F20" d="M382.542,428.487c3.181,0,6.095-0.999,8.01-2.702v1.939c-2.165,1.395-4.952,2.187-8.01,2.187
			c-6.811,0-12.279-4.066-12.279-9.124c0-5.066,5.468-9.158,12.279-9.158c3.092,0,5.845,0.822,8.01,2.211v1.975
			c-1.915-1.703-4.829-2.762-8.01-2.762c-5.706,0-10.348,3.456-10.348,7.734C372.194,425.061,376.836,428.487,382.542,428.487z"/>
		<path fill="#231F20" d="M408.249,423.727h-11.157l-3.559,5.515h-2.088l11.229-17.435l11.225,17.435h-2.092L408.249,423.727z
			 M398.006,422.299h9.332l-4.664-7.247L398.006,422.299z"/>
		<path fill="#231F20" d="M426.268,435.854c-0.856,0-1.61-0.178-2.253-0.64l0.305-0.754c0.432,0.212,1.059,0.364,1.593,0.364
			c0.949,0,1.842-0.457,1.842-1.525c0-1.024-0.965-1.236-1.842-1.236c-0.212,0-0.411,0.034-0.589,0.034l1.123-2.22
			c-6.489-0.237-11.636-4.186-11.636-9.09c0-5.066,5.49-9.158,12.263-9.158c3.092,0,5.862,0.822,8.01,2.211v1.975
			c-1.894-1.703-4.824-2.762-8.01-2.762c-5.685,0-10.331,3.456-10.331,7.734c0,4.273,4.646,7.7,10.331,7.7
			c3.186,0,6.116-0.999,8.01-2.702v1.939c-2.088,1.364-4.791,2.118-7.756,2.187l-0.466,0.94c1.5,0.093,2.804,0.813,2.804,2.143
			C429.665,434.705,427.97,435.854,426.268,435.854z"/>
		<path fill="#231F20" d="M453.851,423.727h-11.152l-3.537,5.515h-2.109l11.225-17.435l11.225,17.435h-2.109L453.851,423.727z
			 M443.608,422.299h9.336l-4.668-7.247L443.608,422.299z M452.512,406.199h0.644c-0.212,1.516-1.216,2.947-2.66,2.947
			c-2.22,0-2.99-1.482-4.562-1.482c-0.623,0-1.182,0.712-1.36,1.482h-0.661c0.178-1.482,1.237-2.947,2.825-2.947
			c1.288,0,3.092,1.49,4.274,1.49C451.58,407.689,452.283,406.868,452.512,406.199z"/>
		<path fill="#231F20" d="M473.911,411.629c6.777,0,12.267,4.092,12.267,9.158c0,5.058-5.489,9.124-12.267,9.124
			c-6.811,0-12.284-4.066-12.284-9.124C461.627,415.721,467.1,411.629,473.911,411.629z M473.911,428.487
			c5.685,0,10.335-3.427,10.335-7.7c0-4.278-4.65-7.734-10.335-7.734c-5.701,0-10.352,3.456-10.352,7.734
			C463.559,425.061,468.21,428.487,473.911,428.487z"/>
		<path fill="#231F20" d="M501.8,412.328h16.824v1.453h-15.003v5.85h12.64v1.461h-12.674v6.692h15.037v1.457H501.8V412.328z"/>
		<path fill="#231F20" d="M534.16,429.241h-1.88l6.201-17.366l9.603,14.698l9.653-14.698l6.222,17.366h-1.893l-4.829-13.521
			l-9.115,14.037l-9.082-14.037L534.16,429.241z"/>
		<path fill="#231F20" d="M581.821,423.727h-11.157l-3.541,5.515h-2.092l11.207-17.435l11.208,17.435h-2.088L581.821,423.727z
			 M571.575,422.299h9.331l-4.668-7.247L571.575,422.299z"/>
		<path fill="#231F20" d="M592.098,429.241h-1.754v-16.913h10.479c2.999,0,6.435,1.059,6.435,4.452c0,2.52-2.25,3.854-4.791,4.396
			l5.219,8.064h-2.038l-5.058-8.005h-8.492V429.241z M592.098,419.787h8.403c3.521,0,4.846-1.033,4.846-3.007
			c0-2-1.325-2.999-4.846-2.999h-8.403V419.787z"/>
		<path fill="#231F20" d="M614.174,429.241h-1.787v-16.913h1.787v9.094l10.463-9.094h2.732l-6.346,5.485l9.831,11.428h-2.359
			l-8.798-10.246l-5.523,4.731V429.241z"/>
		<path fill="#231F20" d="M633.896,412.328h16.819v1.453H635.7v5.85h12.657v1.461h-12.674v6.692h15.032v1.457h-16.819V412.328z"/>
		<path fill="#231F20" d="M652.686,413.781v-1.453h19.984v1.453h-9.098v15.46h-1.771v-15.46H652.686z"/>
		<path fill="#231F20" d="M676.012,429.241v-16.913h1.792v16.913H676.012z"/>
		<path fill="#231F20" d="M683.556,429.241v-17.464l18.29,14.313v-13.762h1.754v17.366l-18.273-14.066v13.613H683.556z"/>
		<path fill="#231F20" d="M720.365,428.487c4.273,0,8.958-1.762,8.958-6.37h-6.044v-1.424h7.811
			c-0.018,1.966-0.301,3.372-0.746,4.456c-1.448,3.338-5.616,4.762-9.979,4.762c-6.795,0-12.28-4.066-12.28-9.124
			c0-5.066,5.485-9.158,12.28-9.158c3.092,0,5.845,0.822,8.01,2.211v1.975c-1.949-1.703-4.863-2.762-8.01-2.762
			c-5.702,0-10.369,3.456-10.369,7.734C709.996,425.061,714.663,428.487,720.365,428.487z"/>
	</g>
</g>
</svg>
