<?xml version="1.0" encoding="utf-8"?>
<!-- Generator: Adobe Illustrator 16.0.0, SVG Export Plug-In . SVG Version: 6.00 Build 0)  -->
<!DOCTYPE svg PUBLIC "-//W3C//DTD SVG 1.1//EN" "http://www.w3.org/Graphics/SVG/1.1/DTD/svg11.dtd">
<svg version="1.1" id="Layer_1" xmlns="http://www.w3.org/2000/svg" xmlns:xlink="http://www.w3.org/1999/xlink" x="0px" y="0px"
	 width="317.52px" height="319.915px" viewBox="0 0 317.52 319.915" enable-background="new 0 0 317.52 319.915"
	 xml:space="preserve">
<g>
	<g>
		<polygon fill="#CAFFB6" points="158.76,267.925 147.537,319.274 141.608,318.741 139.733,266.211 119.521,314.732 
			113.783,313.149 121.319,261.129 92.768,305.258 87.404,302.675 104.106,252.841 68.135,291.165 63.319,287.666 88.652,241.612 
			46.415,272.897 42.301,268.594 75.449,227.804 28.305,251.045 25.025,246.078 64.927,211.859 14.389,226.31 12.049,220.835 
			57.418,194.293 5.112,199.487 3.788,193.683 53.167,175.67 0.775,171.439 0.508,165.492 52.31,156.584 1.516,143.069 
			2.315,137.169 54.872,137.655 7.309,115.288 9.149,109.626 60.777,119.486 17.972,88.985 20.793,83.743 69.831,102.663 
			33.159,65.007 36.871,60.353 81.739,87.726 52.381,44.129 56.864,40.212 96.128,75.158 75.024,27.018 80.135,23.965 
			112.527,65.359 100.358,14.227 105.931,12.135 130.412,58.649 127.571,6.162 133.428,5.099 149.208,55.237 155.783,3.086 
			161.736,3.086 168.312,55.237 184.092,5.099 189.949,6.162 187.108,58.649 211.59,12.135 217.163,14.227 204.995,65.359 
			237.386,23.965 242.496,27.018 221.393,75.157 260.655,40.212 265.138,44.129 235.78,87.726 280.65,60.353 284.362,65.007 
			247.689,102.663 296.728,83.743 299.549,88.985 256.744,119.486 308.372,109.626 310.211,115.288 262.647,137.655 
			315.206,137.169 316.005,143.069 265.212,156.584 317.012,165.492 316.744,171.439 264.354,175.67 313.732,193.683 
			312.407,199.487 260.103,194.293 305.472,220.835 303.132,226.31 252.595,211.859 292.495,246.078 289.216,251.045 
			242.071,227.804 275.22,268.594 271.106,272.897 228.868,241.612 254.202,287.666 249.386,291.165 213.414,252.841 
			230.116,302.675 224.753,305.258 196.201,261.129 203.737,313.149 197.999,314.732 177.788,266.211 175.912,318.741 
			169.983,319.274 		"/>
		<path fill="#00D397" d="M158.76,3.461l8.293,65.77L186.953,6l-3.582,66.191l30.873-58.658l-15.346,64.484l40.85-52.203
			l-26.613,60.709l49.515-44.069l-37.023,54.981l56.587-34.521l-46.248,47.487l61.843-23.86l-53.981,38.466l65.108-12.435
			l-59.985,28.208l66.284-0.611l-64.057,17.046l65.326,11.233l-66.071,5.336l62.272,22.717l-65.964-6.55l57.217,33.474
			l-63.734-18.224l50.319,43.153l-59.455-29.311l41.805,51.441l-53.267-39.454l31.948,58.08l-45.365-48.332l21.063,62.849
			l-36.008-55.652l9.505,65.603l-25.489-61.19l-2.365,66.245l-14.154-64.758l-14.154,64.758l-2.365-66.245l-25.489,61.19
			l9.503-65.603l-36.006,55.652l21.063-62.849l-45.365,48.332l31.948-58.08l-53.267,39.454l41.805-51.441l-59.456,29.311
			l50.32-43.153l-63.735,18.224l57.216-33.474l-65.964,6.55l62.273-22.717l-66.072-5.336l65.329-11.233L2.287,140.169l66.283,0.611
			L8.586,112.573l65.11,12.435L19.713,86.542l61.843,23.86L35.308,62.915l56.586,34.521L54.869,42.454l49.517,44.069L77.772,25.814
			l40.851,52.203l-15.347-64.484l30.873,58.658L130.566,6l19.902,63.231L158.76,3.461 M186.953,6h0.005 M214.244,13.533h0.005
			 M239.748,25.814h0.005 M262.649,42.454h0.005 M282.213,62.915h0.005 M297.808,86.542h0.005 M308.935,112.573h0.005
			 M315.233,140.169h0.005 M186.958,0h-0.005v5.237l-5.724-1.039l-11.658,37.044l-4.858-38.532h-11.906l-4.857,38.532L136.29,4.199
			l-11.714,2.125l2.099,38.782l-18.088-34.368l-11.146,4.185L106.43,52.7L82.497,22.117l-10.22,6.106L87.87,63.792l-29.012-25.82
			l-8.965,7.834l21.691,32.211L38.433,57.792l-7.423,9.309l27.096,27.822L21.873,80.944l-5.642,10.484l31.628,22.536l-38.147-7.285
			l-3.679,11.323l35.141,16.525l-38.832-0.358l-1.598,11.798l37.53,9.987L0,162.536l0.534,11.894l38.71,3.126L2.76,190.865
			l2.649,11.607l38.648-3.838l-33.522,19.612l4.679,10.947l37.342-10.677L23.073,243.8l6.559,9.937l34.833-17.172l-24.492,30.137
			l8.228,8.605l31.208-23.115L60.69,286.22l9.632,6.998L96.9,264.902l-12.34,36.82l10.727,5.165l21.095-32.605l-5.568,38.437
			l11.477,3.168l14.934-35.851l1.386,38.812l11.858,1.067l8.292-37.939l8.293,37.939l11.857-1.067l1.386-38.813l14.934,35.852
			l11.478-3.168l-5.569-38.437l21.097,32.606l10.727-5.166l-12.341-36.82l26.578,28.316l9.632-6.998l-18.718-34.028l31.208,23.115
			l8.228-8.605l-24.491-30.137l34.832,17.172l6.56-9.937l-29.482-25.283l37.342,10.677l4.679-10.947l-33.522-19.612l38.647,3.838
			l2.649-11.607l-36.484-13.31l38.71-3.126l0.533-11.894l-38.271-6.581l37.528-9.987l-1.538-11.354v-0.444h-0.005v0.408
			l-0.056-0.408l-38.832,0.358l35.143-16.525l-2.55-7.848l0.001-3.582h-0.005v3.571l-1.126-3.465l-38.146,7.285l31.627-22.536
			l-3.479-6.465l0.002-4.422h-0.005v4.416l-2.16-4.014l-36.232,13.979l27.097-27.822l-4.296-5.387l0.002-4.8h-0.005v4.796
			l-3.125-3.918l-33.152,20.225l21.69-32.212l-4.974-4.346l0.002-5.006h-0.005v5.003l-3.989-3.485l-29.009,25.819l15.592-35.567
			l-5.492-3.282l0.002-5.127h-0.005v5.126l-4.726-2.823L211.091,52.7l8.99-37.778l-5.834-2.189l0.002-5.199h-0.005v5.198
			l-5.31-1.993l-18.089,34.369l2.099-38.783l-5.988-1.086L186.958,0L186.958,0z"/>
	</g>
	<g>
		<g>
			<circle fill="#FFFFFF" stroke="#00D397" stroke-width="35" stroke-miterlimit="10" cx="158.76" cy="161.047" r="107.119"/>
		</g>
	</g>
</g>
</svg>
