<?xml version="1.0" encoding="utf-8"?>
<!-- Generator: Adobe Illustrator 16.0.0, SVG Export Plug-In . SVG Version: 6.00 Build 0)  -->
<!DOCTYPE svg PUBLIC "-//W3C//DTD SVG 1.1//EN" "http://www.w3.org/Graphics/SVG/1.1/DTD/svg11.dtd">
<svg version="1.1" id="Layer_1" xmlns="http://www.w3.org/2000/svg" xmlns:xlink="http://www.w3.org/1999/xlink" x="0px" y="0px"
	 width="190.999px" height="190.998px" viewBox="0 0 190.999 190.998" enable-background="new 0 0 190.999 190.998"
	 xml:space="preserve">
<g>
	<g>
		<g>
			<g id="XMLID_6_">
				<g>
					<path fill="#0086FF" d="M121.225,122.744v0.34h-51.45v-0.34c10.17-8.66,16.91-30.2,13.59-64.29l0.13-0.11
						c2.91,3.41,7.26,5.57,12.12,5.57c4.79,0,9.1-2.11,12.021-5.45C104.314,92.544,111.055,114.084,121.225,122.744z"/>
					<path fill="#0086FF" d="M107.635,58.464c-2.921,3.34-7.23,5.45-12.021,5.45c-4.86,0-9.21-2.16-12.12-5.57
						c-2.43-2.8-3.88-6.449-3.88-10.43c0-8.84,7.16-16,16-16c8.83,0,16,7.16,16,16C111.614,51.954,110.114,55.645,107.635,58.464z"
						/>
				</g>
				<g>
					<path fill="none" stroke="#FFFFFF" stroke-width="2" stroke-miterlimit="10" d="M83.364,58.454
						c3.32,34.09-3.42,55.63-13.59,64.29"/>
					<polyline fill="none" stroke="#FFFFFF" stroke-width="2" stroke-miterlimit="10" points="68.194,123.084 69.774,123.084 
						121.225,123.084 122.734,123.084 					"/>
					<path fill="none" stroke="#FFFFFF" stroke-width="2" stroke-miterlimit="10" d="M83.494,58.344
						c-2.43-2.8-3.88-6.449-3.88-10.43c0-8.84,7.16-16,16-16c8.83,0,16,7.16,16,16c0,4.04-1.5,7.73-3.979,10.55
						c-2.921,3.34-7.23,5.45-12.021,5.45C90.754,63.914,86.404,61.754,83.494,58.344z"/>
					<path fill="none" stroke="#FFFFFF" stroke-width="2" stroke-miterlimit="10" d="M107.635,58.454v0.01
						c-3.32,34.08,3.42,55.62,13.59,64.28"/>
				</g>
			</g>
		</g>
		<g>
			<g id="XMLID_5_">
				<g>
					<path fill="#0086FF" d="M157.541,142.744v0.34h-51.45v-0.34c10.17-8.66,16.91-30.2,13.59-64.29l0.13-0.11
						c2.91,3.41,7.26,5.57,12.12,5.57c4.79,0,9.1-2.11,12.021-5.45C140.631,112.544,147.371,134.084,157.541,142.744z"/>
					<path fill="#0086FF" d="M143.951,78.464c-2.921,3.34-7.23,5.45-12.021,5.45c-4.86,0-9.21-2.16-12.12-5.57
						c-2.43-2.8-3.88-6.449-3.88-10.43c0-8.84,7.16-16,16-16c8.83,0,16,7.16,16,16C147.931,71.954,146.431,75.645,143.951,78.464z"
						/>
				</g>
				<g>
					<path fill="none" stroke="#FFFFFF" stroke-width="2" stroke-miterlimit="10" d="M119.681,78.454
						c3.32,34.09-3.42,55.63-13.59,64.29"/>
					<polyline fill="none" stroke="#FFFFFF" stroke-width="2" stroke-miterlimit="10" points="104.511,143.084 106.091,143.084 
						157.541,143.084 159.051,143.084 					"/>
					<path fill="none" stroke="#FFFFFF" stroke-width="2" stroke-miterlimit="10" d="M119.811,78.344
						c-2.43-2.8-3.88-6.449-3.88-10.43c0-8.84,7.16-16,16-16c8.83,0,16,7.16,16,16c0,4.04-1.5,7.73-3.979,10.55
						c-2.921,3.34-7.23,5.45-12.021,5.45C127.07,83.914,122.721,81.754,119.811,78.344z"/>
					<path fill="none" stroke="#FFFFFF" stroke-width="2" stroke-miterlimit="10" d="M143.951,78.454v0.01
						c-3.32,34.08,3.42,55.62,13.59,64.28"/>
				</g>
			</g>
		</g>
		<g>
			<g id="XMLID_4_">
				<g>
					<path fill="#0086FF" d="M84.979,142.744v0.34h-51.45v-0.34c10.17-8.66,16.91-30.2,13.59-64.29l0.13-0.11
						c2.91,3.41,7.26,5.57,12.12,5.57c4.79,0,9.1-2.11,12.02-5.45C68.069,112.544,74.809,134.084,84.979,142.744z"/>
					<path fill="#0086FF" d="M71.389,78.464c-2.92,3.34-7.23,5.45-12.02,5.45c-4.86,0-9.21-2.16-12.12-5.57
						c-2.43-2.8-3.88-6.449-3.88-10.43c0-8.84,7.16-16,16-16c8.83,0,16,7.16,16,16C75.369,71.954,73.869,75.645,71.389,78.464z"/>
				</g>
				<g>
					<path fill="none" stroke="#FFFFFF" stroke-width="2" stroke-miterlimit="10" d="M47.119,78.454
						c3.32,34.09-3.42,55.63-13.59,64.29"/>
					<polyline fill="none" stroke="#FFFFFF" stroke-width="2" stroke-miterlimit="10" points="31.949,143.084 33.529,143.084 
						84.979,143.084 86.488,143.084 					"/>
					<path fill="none" stroke="#FFFFFF" stroke-width="2" stroke-miterlimit="10" d="M47.249,78.344
						c-2.43-2.8-3.88-6.449-3.88-10.43c0-8.84,7.16-16,16-16c8.83,0,16,7.16,16,16c0,4.04-1.5,7.73-3.98,10.55
						c-2.92,3.34-7.23,5.45-12.02,5.45C54.509,83.914,50.159,81.754,47.249,78.344z"/>
					<path fill="none" stroke="#FFFFFF" stroke-width="2" stroke-miterlimit="10" d="M71.389,78.454v0.01
						c-3.32,34.08,3.42,55.62,13.59,64.28"/>
				</g>
			</g>
		</g>
	</g>
	<g>
		
			<circle fill="none" stroke="#66BAFF" stroke-width="7" stroke-miterlimit="10" stroke-dasharray="12.0432,12.0432" cx="95.5" cy="95.5" r="92"/>
	</g>
</g>
</svg>
