<?xml version="1.0" encoding="utf-8"?>
<!-- Generator: Adobe Illustrator 16.0.0, SVG Export Plug-In . SVG Version: 6.00 Build 0)  -->
<!DOCTYPE svg PUBLIC "-//W3C//DTD SVG 1.1//EN" "http://www.w3.org/Graphics/SVG/1.1/DTD/svg11.dtd">
<svg version="1.1" id="Layer_1" xmlns="http://www.w3.org/2000/svg" xmlns:xlink="http://www.w3.org/1999/xlink" x="0px" y="0px"
	 width="3486.351px" height="1743.175px" viewBox="0 0 3486.351 1743.175" enable-background="new 0 0 3486.351 1743.175"
	 xml:space="preserve">
<g>
	<g>
		<path fill="#86B845" d="M1245.668,1102.951c0.15-0.119,0.268-0.209,0.398-0.336c-0.058-0.02-0.118-0.045-0.176-0.063
			C1245.818,1102.686,1245.728,1102.832,1245.668,1102.951z"/>
		<path fill="#4A5EAA" d="M1245.668,1102.951c0.15-0.119,0.268-0.209,0.398-0.336c-0.058-0.02-0.118-0.045-0.176-0.063
			C1245.818,1102.686,1245.728,1102.832,1245.668,1102.951z"/>
		<path fill="#4A5EAA" d="M765.752,1130.473c84.269-38.221,177.817-59.486,276.356-59.486c71.048,0,139.513,11.092,203.782,31.566
			c4.627-9.197,8.948-18.541,12.889-28.141c19.504-47.303,33.06-99.221,30.254-153.506
			c-6.614-127.204-48.633-231.588-174.712-332.34C977.721,479.38,801.903,418.962,613.563,418.962
			c-144.914,0-281.104,37.443-399.406,103.146c-19.519,9.406-38.496,21.424-55.413,34.654c-0.026,0.439,0.562,0.295,0.541,0.721
			C470.819,584.64,721.48,824.164,765.752,1130.473z"/>
		<path fill="#86B845" d="M771.886,1261.363c-0.769,15.266-2.039,30.428-3.795,45.416c37.208,11.326,76.681,17.434,117.616,17.434
			c157.229,0,293.432-89.975,359.961-221.262c-115.328,99.633-265.593,159.873-429.938,159.873
			C801.01,1262.824,786.37,1262.32,771.886,1261.363z"/>
		<path fill="#1FA454" d="M1042.108,1070.986c-98.539,0-192.087,21.266-276.356,59.486c4.59,31.699,6.976,64.096,6.976,97.078
			c0,11.34-0.296,22.617-0.842,33.813c14.484,0.957,29.125,1.461,43.845,1.461c164.344,0,314.609-60.24,429.938-159.873
			c0.06-0.119,0.15-0.266,0.223-0.398C1181.621,1082.078,1113.157,1070.986,1042.108,1070.986z"/>
		<linearGradient id="SVGID_1_" gradientUnits="userSpaceOnUse" x1="-565.2466" y1="1229.5967" x2="771.7117" y2="1229.5967">
			<stop  offset="0.1823" style="stop-color:#EE4731"/>
			<stop  offset="0.3251" style="stop-color:#EF4F36"/>
		</linearGradient>
		<path fill="url(#SVGID_1_)" d="M607.969,1229.326c0.326,0.17,0.663,0.35,1.033,0.541c0.052-0.045,0.097-0.09,0.153-0.133
			C608.766,1229.619,608.353,1229.439,607.969,1229.326z"/>
		<linearGradient id="SVGID_2_" gradientUnits="userSpaceOnUse" x1="-572.5352" y1="855.2754" x2="772.7306" y2="855.2754">
			<stop  offset="0.1823" style="stop-color:#EE4731"/>
			<stop  offset="0.3251" style="stop-color:#EF4F36"/>
		</linearGradient>
		<path fill="url(#SVGID_2_)" d="M43.16,794.412c0,144.12,100.875,264.704,235.881,294.93c11.915,4.383,25.433,9.238,32.142,11.576
			c16.17,5.623,32.396,11.264,48.579,17.008c18.735,6.625,82.443,32.127,93.024,35.861
			c-177.886-117.82-295.192-319.76-295.192-549.083c0-15.891,0.044-32.35,1.151-47.941c0,0-0.062,0,0,0
			C88.859,612.117,43.16,698.326,43.16,794.412z"/>
		<path fill="#A94C9C" d="M765.752,1130.473C721.48,824.164,470.819,584.64,159.285,557.484c-1.107,15.592-1.691,31.33-1.691,47.221
			c0,229.322,117.306,431.262,295.192,549.083c1.108,0.369,1.638,0.516,1.462,0.369c1.129,0.506,7.196,3.912,9.315,4.781
			c24.325,9.674,48.385,19.963,71.705,31.852c21.897,11.176,43.43,23.033,65.053,34.682c0.265,0.133,3.146,1.607,7.648,3.855
			c0.384,0.113,0.797,0.293,1.186,0.408C656.22,1189.813,708.87,1156.283,765.752,1130.473z"/>
		<path fill="#4A5EAA" d="M609.155,1229.734c-0.056,0.043-0.101,0.088-0.153,0.133c16.817,8.508,53.079,26.979,63.886,33.697
			c13.785,7.512,27.55,14.996,41.343,22.482c13.169,6.217,26.746,11.727,40.661,16.479c4.355,1.508,8.771,2.893,13.2,4.254
			c1.756-14.988,3.026-30.15,3.795-45.416C715.395,1257.656,660.863,1246.818,609.155,1229.734z"/>
		<path fill="#F2AE1C" d="M609.155,1229.734c-0.056,0.043-0.101,0.088-0.153,0.133c16.817,8.508,53.079,26.979,63.886,33.697
			c13.785,7.512,27.55,14.996,41.343,22.482c13.169,6.217,26.746,11.727,40.661,16.479c4.355,1.508,8.771,2.893,13.2,4.254
			c1.756-14.988,3.026-30.15,3.795-45.416C715.395,1257.656,660.863,1246.818,609.155,1229.734z"/>
		<path fill="#FFDC18" d="M771.886,1261.363c0.546-11.195,0.842-22.473,0.842-33.813c0-32.982-2.386-65.379-6.976-97.078
			c-56.882,25.811-109.532,59.34-156.597,99.262C660.863,1246.818,715.395,1257.656,771.886,1261.363z"/>
	</g>
	<g>
		<g>
			<path fill="#5E5E5E" d="M1595.053,824.381c31.663,0,59.884-6.884,85.353-17.208v68.833
				c-29.599,11.701-62.638,19.273-99.119,19.273c-104.625,0-162.444-62.638-162.444-176.9s57.819-177.588,162.444-177.588
				c36.481,0,69.521,7.572,99.119,19.273v68.832c-25.469-10.324-53.689-16.52-85.353-16.52c-57.819,0-93.612,17.208-93.612,106.002
				C1501.44,806.485,1537.233,824.381,1595.053,824.381z"/>
			<path fill="#5E5E5E" d="M1930.941,540.792v71.586c-46.117,0.688-77.092,8.26-88.793,11.701v265.693h-82.6V577.273
				C1759.549,577.273,1832.512,542.857,1930.941,540.792z"/>
			<path fill="#5E5E5E" d="M2306.772,718.379c0,114.262-57.819,176.9-162.445,176.9c-104.625,0-162.444-62.638-162.444-176.9
				s57.819-176.899,162.444-176.899C2248.953,541.48,2306.772,604.118,2306.772,718.379z M2224.173,718.379
				c0-90.858-30.975-108.755-79.846-108.755c-48.87,0-79.845,17.896-79.845,108.755s30.975,108.755,79.845,108.755
				C2193.198,827.134,2224.173,809.238,2224.173,718.379z"/>
			<path fill="#5E5E5E" d="M2695.674,718.379c0,114.262-57.819,176.9-162.445,176.9c-104.625,0-162.444-62.638-162.444-176.9
				s57.819-176.899,162.444-176.899C2637.854,541.48,2695.674,604.118,2695.674,718.379z M2613.074,718.379
				c0-90.858-30.975-108.755-79.846-108.755c-48.87,0-79.845,17.896-79.845,108.755s30.975,108.755,79.845,108.755
				C2582.1,827.134,2613.074,809.238,2613.074,718.379z"/>
			<path fill="#5E5E5E" d="M3088.016,546.298l-131.47,343.473h-86.041l-131.47-343.473h88.105l86.04,259.498l86.041-259.498
				H3088.016z"/>
			<path fill="#5E5E5E" d="M3425.295,797.537v66.768c-31.663,17.208-74.34,30.975-129.405,30.975
				c-68.145,0-159.691-27.534-159.691-173.458c0-102.561,41.3-181.718,153.496-181.718c107.379,0,153.496,80.534,153.496,166.575
				c0,15.143,0,28.909-1.376,42.676h-220.952c4.818,66.079,47.494,75.027,87.416,75.027
				C3357.15,824.381,3396.385,811.303,3425.295,797.537z M3220.862,692.223h138.354c-4.131-43.364-25.469-84.664-69.521-84.664
				C3249.084,607.559,3225.681,630.962,3220.862,692.223z"/>
		</g>
		<g>
			<path fill="#5E5E5E" d="M2495.54,1034.551c13.485,0,26.242,1.822,38.998,5.467v-71.801h33.167v194.992
				c0,13.852-5.467,59.045-75.081,59.045c-30.251,0-80.548-12.391-80.548-96.221
				C2412.076,1050.588,2457.635,1034.551,2495.54,1034.551z M2492.624,1192.732c27.7,0,41.914-9.111,41.914-27.336v-93.67
				c-12.392-5.102-25.513-7.652-38.998-7.652c-25.878,0-50.297,7.652-50.297,61.959
				C2445.243,1185.078,2470.392,1192.732,2492.624,1192.732z"/>
			<path fill="#5E5E5E" d="M2757.962,1180.34v30.252c-17.13,7.289-38.634,12.027-64.512,12.027
				c-38.27,0-83.828-16.037-83.828-91.848c0-23.689,0-96.221,80.548-96.221c48.839,0,80.184,34.625,80.184,87.838
				c0,8.748-0.364,17.131-1.093,25.148h-125.379c5.103,37.906,27.336,46.289,51.391,46.289
				C2722.243,1193.826,2742.654,1188.357,2757.962,1180.34z M2643.518,1117.287h93.305c-1.822-21.141-10.569-52.85-46.652-52.85
				C2659.555,1064.438,2646.434,1078.287,2643.518,1117.287z"/>
			<path fill="#5E5E5E" d="M2919.423,1046.578v28.795c-13.485-6.197-28.793-10.936-44.83-10.936
				c-29.521,0-36.082,10.936-36.082,23.326c0,29.158,92.94,12.393,92.94,80.914c0,25.148-17.859,53.576-67.792,53.576
				c-22.232,0-39.728-5.832-52.484-12.756v-30.252c11.663,6.561,28.43,13.486,51.026,13.486c24.784,0,35.718-10.57,35.718-22.598
				c0-40.82-92.575-18.588-92.575-81.277c0-26.242,17.13-54.307,65.24-54.307
				C2888.079,1034.551,2904.845,1039.289,2919.423,1046.578z"/>
			<path fill="#5E5E5E" d="M3010.901,1009.402h-35.718v-35.354h35.718V1009.402z M2976.276,1037.467h33.532v181.871h-33.532
				V1037.467z"/>
			<path fill="#5E5E5E" d="M3208.446,1091.773v135.219c0,29.158-13.852,63.783-79.819,63.783c-19.683,0-37.541-2.916-53.942-7.654
				v-31.709c15.309,4.738,32.438,8.018,51.026,8.018c49.568,0,49.568-20.41,49.568-32.438v-16.037
				c-12.027,3.281-24.42,5.104-36.812,5.104c-52.12,0-80.913-31.709-80.913-88.932c0-52.848,22.598-92.939,77.997-92.939
				C3178.924,1034.188,3208.446,1054.232,3208.446,1091.773z M3175.279,1089.586c0-6.561,0-25.512-39.728-25.512
				c-20.775,0-44.466,6.924-44.466,63.053c0,51.756,22.598,58.68,47.382,58.68c12.756,0,25.148-2.186,36.812-6.924V1089.586z"/>
			<path fill="#5E5E5E" d="M3257.652,1219.338v-166.199c1.458-0.729,34.989-18.951,77.633-18.951
				c45.923,0,73.259,25.512,73.259,67.791v117.359h-33.532v-119.547c0-17.129-4.737-34.625-41.185-34.625
				c-16.402,0-31.345,2.916-42.644,6.561v147.611H3257.652z"/>
		</g>
	</g>
</g>
</svg>
