<?xml version="1.0" encoding="utf-8"?>
<!-- Generator: Adobe Illustrator 16.0.0, SVG Export Plug-In . SVG Version: 6.00 Build 0)  -->
<!DOCTYPE svg PUBLIC "-//W3C//DTD SVG 1.1//EN" "http://www.w3.org/Graphics/SVG/1.1/DTD/svg11.dtd">
<svg version="1.1" id="Layer_1" xmlns="http://www.w3.org/2000/svg" xmlns:xlink="http://www.w3.org/1999/xlink" x="0px" y="0px"
	 width="1687.953px" height="450px" viewBox="0 0 1687.953 450" enable-background="new 0 0 1687.953 450" xml:space="preserve">
<g>
	<g>
		<g>
			<path fill="#1364F0" d="M219.242,388.84c37.5,0.057,75-15.881,112.5-47.813c63.638-75,63.639-149.999,0.003-224.999
				c-37.501-31.931-75.002-47.868-112.503-47.812C219.13,175.091,219.13,281.966,219.242,388.84z"/>
			<path fill="#DCDC00" d="M107.137,341.027c37.327,31.784,74.654,47.722,111.981,47.813c-0.182-106.876-0.182-213.751,0-320.627
				c-37.327,0.091-74.654,16.028-111.981,47.813C43.499,191.026,43.499,266.026,107.137,341.027z"/>
			<path fill="none" stroke="#DEDEDE" stroke-width="30" d="M291.649,309.001"/>
			<path fill="none" stroke="#DEDEDE" stroke-width="30" d="M220.217,234.096"/>
			<path fill="none" stroke="#DEDEDE" stroke-width="30" d="M220.214,136.501"/>
			<path fill="none" stroke="#DEDEDE" stroke-width="30" d="M220.148,136.501"/>
			<path fill="none" stroke="#DEDEDE" stroke-width="30" d="M220.146,234.096"/>
			<path fill="none" stroke="#DEDEDE" stroke-width="30" d="M148.714,309.001"/>
			<path fill="#00A946" d="M107.137,341.027c5.611-5.628,58.946-59.062,112.283-112.498
				c53.337,53.437,106.675,106.878,112.294,112.522C256.854,404.778,181.996,404.77,107.137,341.027z"/>
			<g>
				<path fill="#F50000" d="M107.137,116.025c5.611,5.628,58.946,59.063,112.283,112.5c-0.087-53.438-0.172-106.875-0.178-160.313
					C181.874,68.269,144.505,84.206,107.137,116.025z"/>
			</g>
			<g>
				<path fill="#6D1943" d="M219.309,228.525c0.087-53.438,0.188-106.875,0.223-160.313c37.368,0.026,74.736,15.934,112.104,47.722"
					/>
			</g>
		</g>
	</g>
	<g>
		<g>
			<polygon fill="#CCCCCC" points="230.055,239.125 93.241,354.923 208.825,217.928 			"/>
		</g>
		<g>
			<polygon fill="#CCCCCC" points="230.056,217.93 345.818,355.133 208.823,239.123 			"/>
		</g>
		<g>
			<polygon fill="#CCCCCC" points="204.439,228.526 219.439,51.5 234.439,228.526 			"/>
		</g>
	</g>
	<circle fill="none" stroke="#000000" stroke-width="26.474" cx="219.439" cy="228.5" r="170"/>
</g>
<g>
	<path d="M474.136,371.671v-277.2h160v23.6h-132.8v96.4h118.399v23.2H501.336v110.4h143.2v23.6H474.136z"/>
	<path d="M770.533,61.271c11.199,0,20.331,0.869,27.399,2.6c7.063,1.737,11.663,3.269,13.8,4.6l-5.199,22.4
		c-2.938-1.332-7.27-2.731-13-4.2c-5.738-1.462-13-2.2-21.801-2.2c-18.399,0-31.537,4.669-39.399,14
		c-7.869,9.338-11.8,24.269-11.8,44.8v21.6h83.199v22h-83.199v184.8h-26v-229.2c0-26.931,6.199-47.2,18.6-60.8
		S744.664,61.271,770.533,61.271z M920.933,61.271c11.2,0,20.331,0.869,27.4,2.6c7.063,1.737,11.662,3.269,13.8,4.6l-5.2,22.4
		c-2.938-1.332-7.269-2.731-13-4.2c-5.737-1.462-13-2.2-21.8-2.2c-18.4,0-31.537,4.669-39.4,14c-7.868,9.338-11.8,24.269-11.8,44.8
		v21.6h83.2v22h-83.2v184.8h-26v-229.2c0-26.931,6.2-47.2,18.601-60.8C875.933,68.071,895.064,61.271,920.933,61.271z"/>
	<path d="M1171.732,268.471c0,16.269-2.337,31.069-7,44.4c-4.669,13.337-11.2,24.669-19.6,34c-8.4,9.337-18.338,16.6-29.8,21.8
		c-11.469,5.2-24.138,7.8-38,7.8c-13.869,0-26.538-2.6-38-7.8c-11.469-5.2-21.4-12.463-29.801-21.8
		c-8.399-9.331-14.938-20.663-19.6-34c-4.669-13.331-7-28.132-7-44.4c0-16.263,2.331-31.063,7-44.399
		c4.662-13.332,11.2-24.731,19.6-34.2c8.4-9.463,18.332-16.801,29.801-22c11.462-5.2,24.131-7.801,38-7.801
		c13.862,0,26.531,2.601,38,7.801c11.462,5.199,21.399,12.537,29.8,22c8.399,9.469,14.931,20.868,19.6,34.2
		C1169.396,237.408,1171.732,252.208,1171.732,268.471z M1144.133,268.471c0-25.862-6-46.462-18-61.8c-12-15.331-28.269-23-48.8-23
		c-20.538,0-36.801,7.669-48.801,23c-12,15.338-18,35.938-18,61.8c0,25.869,6,46.4,18,61.601c12,15.199,28.263,22.8,48.801,22.8
		c20.531,0,36.8-7.601,48.8-22.8C1138.133,314.871,1144.133,294.34,1144.133,268.471z"/>
	<path d="M1298.526,160.871c8.531,0,16.601,0.668,24.2,2c7.6,1.338,12.862,2.668,15.8,4l-5.2,22.4c-2.137-1.063-6.469-2.201-13-3.4
		c-6.537-1.2-15.137-1.801-25.8-1.801c-11.2,0-20.2,0.801-27,2.4s-11.269,2.938-13.399,4v181.2h-26v-197.2
		c6.662-2.932,15.862-5.932,27.6-9C1267.458,162.408,1281.727,160.871,1298.526,160.871z"/>
	<path d="M1409.725,102.471c0,6.138-1.869,11-5.601,14.6c-3.737,3.6-8.269,5.4-13.6,5.4c-5.338,0-9.869-1.8-13.601-5.4
		c-3.737-3.6-5.6-8.462-5.6-14.6c0-6.131,1.862-11,5.6-14.6c3.731-3.6,8.263-5.4,13.601-5.4c5.331,0,9.862,1.8,13.6,5.4
		C1407.855,91.471,1409.725,96.34,1409.725,102.471z M1403.725,371.671h-26v-206.8h26V371.671z"/>
	<path d="M1535.324,160.07c13.6,0,25.131,1.938,34.6,5.801c9.463,3.869,17.132,9.199,23,16c5.862,6.8,10.132,14.868,12.8,24.2
		c2.663,9.337,4,19.469,4,30.399v130.4c-2.668,0.8-6.537,1.669-11.6,2.6c-5.068,0.938-10.938,1.938-17.6,3
		c-6.669,1.063-14.069,1.932-22.2,2.601c-8.138,0.662-16.469,1-25,1c-10.938,0-21-1.2-30.2-3.601c-9.2-2.399-17.2-6.2-24-11.399
		c-6.8-5.2-12.138-11.863-16-20c-3.869-8.132-5.8-18.063-5.8-29.801c0-11.199,2.131-20.8,6.399-28.8c4.263-8,10.263-14.6,18-19.8
		c7.731-5.2,16.932-9,27.601-11.4c10.662-2.399,22.263-3.6,34.8-3.6c3.731,0,7.662,0.2,11.8,0.6c4.132,0.4,8.132,0.938,12,1.601
		c3.862,0.669,7.2,1.337,10,2c2.8,0.669,4.731,1.269,5.8,1.8v-12.8c0-7.2-0.537-14.2-1.6-21c-1.068-6.8-3.4-12.932-7-18.4
		c-3.6-5.462-8.669-9.862-15.2-13.199c-6.537-3.332-15.138-5-25.8-5c-15.2,0-26.537,1.068-34,3.199
		c-7.469,2.138-12.938,3.869-16.4,5.2l-3.6-22.8c4.531-2.131,11.531-4.131,21-6C1510.587,161.008,1521.986,160.07,1535.324,160.07z
		 M1537.724,352.871c10.132,0,19-0.331,26.601-1c7.6-0.663,14.063-1.531,19.399-2.601v-72.8c-2.938-1.331-7.6-2.731-14-4.2
		c-6.399-1.462-15.199-2.199-26.399-2.199c-6.4,0-13.069,0.469-20,1.399c-6.938,0.938-13.338,2.938-19.2,6
		c-5.869,3.069-10.669,7.269-14.4,12.601c-3.737,5.337-5.6,12.399-5.6,21.199c0,7.738,1.263,14.27,3.8,19.601
		c2.531,5.337,6.132,9.6,10.8,12.8c4.663,3.2,10.263,5.537,16.801,7C1522.056,352.14,1529.455,352.871,1537.724,352.871z"/>
</g>
</svg>
