<?xml version="1.0" encoding="utf-8"?>
<!-- Generator: Adobe Illustrator 16.0.0, SVG Export Plug-In . SVG Version: 6.00 Build 0)  -->
<!DOCTYPE svg PUBLIC "-//W3C//DTD SVG 1.1//EN" "http://www.w3.org/Graphics/SVG/1.1/DTD/svg11.dtd">
<svg version="1.1" id="Layer_1" xmlns="http://www.w3.org/2000/svg" xmlns:xlink="http://www.w3.org/1999/xlink" x="0px" y="0px"
	 width="1190.55px" height="1190.55px" viewBox="0 -383.275 1190.55 1190.55" enable-background="new 0 -383.275 1190.55 1190.55"
	 xml:space="preserve">
<g id="Camada_1">
	<polygon points="453.79,251.307 570.326,251.307 570.435,251.307 570.435,251.415 570.435,276.485 570.435,276.593 
		570.326,276.593 425.827,276.593 425.719,276.593 425.719,276.485 425.719,49.116 425.719,49.008 425.827,49.008 564.001,49.008 
		564.109,49.008 564.109,49.116 564.109,74.186 564.109,74.294 564.001,74.294 453.79,74.294 453.79,147.546 551.814,147.546 
		551.922,147.546 551.922,147.654 551.922,172.725 551.922,172.832 551.814,172.832 453.79,172.832 	"/>
	<polygon points="633.216,49.116 633.216,251.307 744.123,251.307 744.23,251.307 744.23,251.415 744.23,276.485 744.23,276.593 
		744.123,276.593 605.252,276.593 605.145,276.593 605.145,276.485 605.145,49.116 605.145,49.008 605.252,49.008 633.107,49.008 
		633.216,49.008 	"/>
	<polygon points="801.905,49.116 801.905,251.307 912.813,251.307 912.921,251.307 912.921,251.415 912.921,276.485 
		912.921,276.593 912.813,276.593 773.941,276.593 773.834,276.593 773.834,276.485 773.834,49.116 773.834,49.008 773.941,49.008 
		801.797,49.008 801.905,49.008 	"/>
	<path d="M1098.047,162.969c0-7.373-0.489-14.299-1.461-20.784c-0.972-6.482-2.425-12.526-4.354-18.138
		c-1.929-5.612-4.221-10.763-6.873-15.45c-2.654-4.688-5.673-8.917-9.053-12.684l0,0c-3.406-3.767-7.107-7.072-11.109-9.918
		c-4.001-2.848-8.305-5.232-12.912-7.157l0,0c-4.591-1.929-9.366-3.383-14.323-4.354c-4.935-0.965-10.051-1.45-15.348-1.45
		c-5.276,0-10.398,0.486-15.348,1.454c-4.958,0.971-9.739,2.424-14.323,4.35h-0.001c-4.607,1.925-8.91,4.311-12.911,7.157
		c-4.002,2.846-7.704,6.151-11.111,9.918h0.001c-3.38,3.767-6.397,7.995-9.052,12.684c-2.653,4.688-4.945,9.838-6.874,15.45
		c-1.929,5.609-3.382,11.654-4.354,18.138c-0.971,6.485-1.46,13.411-1.46,20.784c0,7.371,0.489,14.283,1.468,20.754
		s2.445,12.502,4.401,18.111c1.95,5.564,4.262,10.674,6.928,15.331c2.682,4.685,5.721,8.912,9.11,12.689h-0.001
		c3.407,3.767,7.108,7.059,11.11,9.884c4.002,2.824,8.305,5.184,12.911,7.079l0.001,0.001c4.58,1.926,9.357,3.361,14.331,4.317
		s10.144,1.431,15.509,1.431c5.299,0,10.431-0.479,15.371-1.439c4.903-0.956,9.623-2.391,14.131-4.309l0.001-0.001
		c4.553-1.896,8.813-4.255,12.786-7.079s7.661-6.117,11.067-9.884l0,0c3.38-3.767,6.397-7.98,9.052-12.647
		c2.653-4.667,4.945-9.789,6.874-15.373c1.929-5.61,3.382-11.642,4.354-18.11C1097.558,177.252,1098.047,170.341,1098.047,162.969
		L1098.047,162.969z M1124.786,162.969c0,8.303-0.604,16.26-1.8,23.882s-2.989,14.909-5.369,21.872
		c-2.382,6.942-5.283,13.409-8.704,19.394c-3.415,5.975-7.349,11.468-11.797,16.471c-4.454,5.037-9.356,9.514-14.705,13.437
		c-5.351,3.925-11.148,7.296-17.396,10.121c-6.272,2.825-12.912,4.938-19.922,6.344c-7.01,1.406-14.39,2.105-22.145,2.105
		c-8.036,0-15.642-0.699-22.823-2.104c-7.184-1.405-13.948-3.52-20.308-6.346c-6.345-2.832-12.21-6.212-17.592-10.146
		c-5.355-3.917-10.231-8.387-14.619-13.41c-4.396-5.005-8.271-10.498-11.631-16.471c-3.363-5.983-6.209-12.45-8.534-19.395l0,0
		c-2.325-6.966-4.075-14.252-5.244-21.871c-1.169-7.62-1.757-15.577-1.757-23.882c0-16.723,2.407-32.05,7.225-45.979
		c2.41-6.972,5.326-13.467,8.746-19.479c3.415-6.001,7.333-11.521,11.755-16.553v-0.001c4.427-5.009,9.313-9.473,14.67-13.389
		s11.184-7.287,17.485-10.112c6.264-2.821,12.918-4.933,19.953-6.338c7.063-1.41,14.511-2.112,22.338-2.112
		c7.979,0,15.542,0.699,22.683,2.104c7.142,1.405,13.864,3.519,20.167,6.346c6.331,2.825,12.172,6.196,17.527,10.112
		s10.23,8.381,14.629,13.39c4.394,5.031,8.271,10.553,11.63,16.555c3.363,6.01,6.209,12.505,8.535,19.478
		c2.329,6.979,4.081,14.308,5.25,21.982C1124.2,146.624,1124.786,154.622,1124.786,162.969z"/>
	<path d="M435.231,374.991h-9.404h-0.108v-0.107V298.19v-0.108h0.108h21.275c1.59,0,3.115,0.051,4.582,0.146
		c1.467,0.096,2.875,0.238,4.23,0.425l0,0c1.353,0.195,2.648,0.441,3.891,0.738c1.243,0.298,2.428,0.646,3.556,1.048v0.001
		c2.301,0.825,4.328,1.857,6.075,3.092c1.751,1.238,3.226,2.682,4.417,4.325c1.19,1.642,2.082,3.477,2.676,5.497
		c0.595,2.027,0.891,4.243,0.891,6.644c0,1.962-0.193,3.81-0.581,5.538c-0.386,1.722-0.967,3.325-1.743,4.81l0,0
		c-0.776,1.495-1.732,2.863-2.863,4.108c-1.13,1.243-2.435,2.365-3.911,3.368s-3.108,1.877-4.902,2.628
		c-1.792,0.751-3.747,1.38-5.869,1.891c-2.111,0.511-4.364,0.893-6.758,1.146c-2.396,0.255-4.932,0.383-7.608,0.383
		c-1.272,0-2.58-0.028-3.914-0.089c-1.293-0.057-2.605-0.142-3.932-0.254v31.358v0.107H435.231L435.231,374.991z M435.339,334.757
		c0.588,0.063,1.201,0.124,1.835,0.178c0.665,0.057,1.34,0.104,2.021,0.145c0.688,0.039,1.354,0.068,1.998,0.089
		c0.642,0.02,1.273,0.028,1.895,0.028c2.185,0,4.207-0.088,6.065-0.26c1.874-0.173,3.588-0.433,5.138-0.775
		c1.542-0.341,2.945-0.762,4.203-1.26c1.251-0.495,2.359-1.067,3.321-1.72v0.001c0.971-0.66,1.807-1.388,2.509-2.186h0.001
		c0.7-0.794,1.268-1.656,1.704-2.587c0.438-0.94,0.763-1.946,0.979-3.015s0.324-2.202,0.324-3.4c0-1.475-0.179-2.816-0.535-4.027
		c-0.355-1.214-0.89-2.297-1.599-3.247l0,0c-0.708-0.939-1.565-1.769-2.57-2.484c-1.01-0.72-2.169-1.329-3.475-1.825
		c-0.817-0.301-1.698-0.56-2.64-0.771c-0.943-0.215-1.952-0.386-3.018-0.514c-1.066-0.127-2.22-0.22-3.458-0.28
		c-1.237-0.062-2.564-0.09-3.976-0.09h-10.726v28.001H435.339z"/>
	<path d="M499.144,343.281v31.604v0.107h-0.107h-9.404h-0.107v-0.107V298.19v-0.108h0.107h19.925c1.684,0,3.242,0.03,4.677,0.092
		c1.432,0.062,2.737,0.154,3.916,0.281c1.18,0.128,2.311,0.29,3.39,0.487c1.079,0.195,2.104,0.427,3.073,0.69l0,0
		c2.688,0.726,5.063,1.712,7.119,2.957c2.061,1.248,3.801,2.755,5.22,4.518c1.426,1.749,2.494,3.724,3.206,5.916
		c0.713,2.199,1.069,4.618,1.069,7.247c0,1.563-0.123,3.037-0.371,4.429c-0.249,1.393-0.624,2.701-1.125,3.933
		c-0.505,1.232-1.108,2.39-1.815,3.466c-0.699,1.063-1.5,2.05-2.402,2.951c-0.905,0.904-1.899,1.727-2.982,2.464
		c-1.083,0.738-2.254,1.393-3.515,1.962l0,0c-1.259,0.58-2.587,1.081-3.979,1.503c-1.367,0.413-2.801,0.752-4.302,1.015v0.111
		l22.707,32.721l0.118,0.169h-0.207h-9.404h-0.054l-0.033-0.044l-23.594-31.667L499.144,343.281L499.144,343.281z M499.144,306.755
		v27.854h9.14c1.432,0,2.758-0.023,3.978-0.073c1.225-0.048,2.346-0.122,3.359-0.219v-0.001c0.992-0.087,1.935-0.216,2.825-0.382
		c0.921-0.173,1.79-0.385,2.599-0.631l0,0c1.617-0.497,3.049-1.14,4.294-1.927c1.243-0.785,2.302-1.719,3.177-2.796
		c0.872-1.074,1.527-2.318,1.964-3.729c0.438-1.414,0.656-2.995,0.656-4.738l0,0c-0.019-1.633-0.237-3.104-0.655-4.419
		c-0.417-1.31-1.033-2.463-1.848-3.461l0,0c-0.817-0.991-1.792-1.848-2.925-2.563c-1.127-0.715-2.414-1.29-3.86-1.728
		c-0.696-0.209-1.463-0.393-2.299-0.545c-0.807-0.146-1.68-0.267-2.616-0.352h-0.001c-0.946-0.099-2.027-0.171-3.24-0.221
		c-1.209-0.049-2.557-0.072-4.036-0.072L499.144,306.755L499.144,306.755z"/>
	<path d="M613.296,336.594c0-2.483-0.166-4.816-0.495-7c-0.328-2.184-0.819-4.218-1.473-6.105c-0.653-1.89-1.429-3.623-2.326-5.2
		c-0.898-1.575-1.92-2.999-3.063-4.266h0.001c-1.151-1.266-2.404-2.378-3.758-3.335s-2.809-1.76-4.366-2.406l0,0
		c-1.55-0.646-3.161-1.136-4.833-1.462c-1.673-0.326-3.408-0.491-5.204-0.491c-1.785,0-3.52,0.164-5.192,0.49
		c-1.677,0.326-3.295,0.814-4.846,1.463l0,0c-1.56,0.646-3.015,1.449-4.366,2.406c-1.354,0.957-2.606,2.069-3.757,3.335l0,0
		c-1.144,1.267-2.165,2.689-3.063,4.266c-0.897,1.577-1.673,3.312-2.326,5.2c-0.651,1.889-1.145,3.923-1.474,6.105
		c-0.329,2.184-0.495,4.517-0.495,7c0,2.481,0.166,4.811,0.498,6.99c0.331,2.179,0.828,4.209,1.489,6.097
		c0.66,1.873,1.443,3.592,2.344,5.159c0.907,1.575,1.937,2.999,3.082,4.269l0,0c1.151,1.266,2.404,2.373,3.757,3.323
		c1.354,0.95,2.809,1.743,4.366,2.381h0.001c1.549,0.647,3.166,1.131,4.847,1.452c1.682,0.321,3.432,0.48,5.247,0.48
		c1.793,0,3.53-0.161,5.201-0.483c1.659-0.321,3.254-0.805,4.779-1.449l0,0c1.54-0.638,2.979-1.431,4.324-2.381
		c1.344-0.95,2.592-2.059,3.742-3.323h-0.001c1.145-1.267,2.164-2.685,3.063-4.254c0.897-1.57,1.674-3.295,2.326-5.174l0,0
		c0.651-1.889,1.145-3.918,1.473-6.097v-0.001C613.13,341.405,613.296,339.075,613.296,336.594L613.296,336.594z M622.509,336.594
		c0,2.804-0.205,5.491-0.61,8.066c-0.406,2.575-1.017,5.037-1.824,7.39v0.001c-0.81,2.345-1.795,4.53-2.958,6.554
		c-1.161,2.02-2.498,3.876-4.011,5.567c-1.516,1.702-3.182,3.217-5,4.542c-1.817,1.326-3.789,2.467-5.912,3.422
		c-2.133,0.955-4.391,1.669-6.774,2.145c-2.383,0.476-4.891,0.712-7.525,0.712c-2.73,0-5.314-0.235-7.755-0.711
		s-4.742-1.188-6.903-2.146c-2.157-0.957-4.151-2.102-5.98-3.432c-1.821-1.323-3.479-2.835-4.971-4.533
		c-1.494-1.691-2.813-3.55-3.954-5.567c-1.144-2.021-2.11-4.207-2.901-6.554c-0.79-2.354-1.385-4.816-1.782-7.391
		c-0.396-2.573-0.597-5.261-0.597-8.065c0-2.822,0.205-5.528,0.614-8.118s1.023-5.063,1.841-7.414
		c0.819-2.355,1.811-4.551,2.972-6.582c1.161-2.028,2.493-3.896,3.996-5.595v-0.001c1.505-1.693,3.167-3.202,4.987-4.526
		c1.821-1.323,3.801-2.464,5.944-3.419c2.13-0.953,4.393-1.667,6.784-2.143c2.4-0.478,4.932-0.715,7.592-0.715
		c2.711,0,5.28,0.236,7.708,0.712c2.427,0.476,4.713,1.189,6.855,2.146c2.152,0.955,4.139,2.096,5.959,3.419
		c1.82,1.324,3.479,2.833,4.974,4.527c1.493,1.701,2.813,3.566,3.953,5.596l0,0c1.145,2.031,2.11,4.227,2.901,6.582
		c0.791,2.358,1.387,4.835,1.784,7.427C622.311,331.073,622.509,333.774,622.509,336.594z"/>
	<path d="M646.969,374.991h-9.403h-0.107v-0.107V298.19v-0.108h0.107h21.275c1.589,0,3.114,0.051,4.582,0.146
		c1.466,0.096,2.875,0.238,4.229,0.425h0.001c1.352,0.195,2.647,0.441,3.892,0.738c1.242,0.298,2.427,0.646,3.554,1.048v0.001
		c2.303,0.825,4.329,1.857,6.076,3.092c1.751,1.238,3.227,2.682,4.418,4.325c1.19,1.642,2.082,3.477,2.675,5.497
		c0.596,2.027,0.893,4.243,0.893,6.644c0,1.961-0.193,3.809-0.581,5.538c-0.387,1.722-0.967,3.325-1.743,4.81l0,0
		c-0.777,1.495-1.732,2.863-2.864,4.108c-1.129,1.243-2.434,2.365-3.909,3.368c-1.477,1.003-3.109,1.878-4.902,2.628
		c-1.792,0.751-3.747,1.38-5.869,1.891c-2.111,0.511-4.364,0.893-6.758,1.146c-2.396,0.255-4.932,0.383-7.608,0.383
		c-1.273,0-2.58-0.028-3.914-0.089c-1.293-0.057-2.604-0.142-3.932-0.254v31.358v0.107H646.969L646.969,374.991z M647.077,334.757
		c0.588,0.063,1.201,0.124,1.835,0.178c0.665,0.057,1.341,0.104,2.021,0.145c0.688,0.039,1.354,0.068,1.997,0.089
		c0.644,0.02,1.274,0.028,1.896,0.028c2.193,0,4.224-0.088,6.088-0.262c1.865-0.173,3.57-0.432,5.114-0.773
		c1.544-0.341,2.944-0.762,4.203-1.26c1.251-0.495,2.359-1.067,3.321-1.72v0.001c0.973-0.66,1.808-1.388,2.51-2.186h0.001
		c0.699-0.794,1.268-1.656,1.703-2.587c0.438-0.94,0.765-1.946,0.979-3.015c0.216-1.068,0.323-2.202,0.323-3.4
		c0-1.475-0.18-2.817-0.534-4.028c-0.356-1.213-0.891-2.296-1.6-3.246c-0.707-0.939-1.564-1.769-2.57-2.484
		c-1.009-0.72-2.169-1.329-3.475-1.825c-0.816-0.301-1.697-0.56-2.64-0.771c-0.943-0.215-1.951-0.386-3.018-0.513
		c-1.065-0.128-2.221-0.221-3.457-0.281c-1.237-0.062-2.563-0.09-3.976-0.09h-10.726v28.001H647.077z"/>
	<path d="M685.197,374.844l31.209-76.694l0.026-0.067h0.073h8.11h0.071l0.027,0.067l31.327,76.694l0.061,0.147h-0.159h-10.168
		h-0.074l-0.026-0.068l-8.984-22.951h-32.219l-9.023,22.951l-0.027,0.068h-0.073h-10.051h-0.16L685.197,374.844L685.197,374.844z
		 M720.578,310.159c-1.709,4.735-3.376,9.247-4.997,13.532c-1.651,4.366-3.263,8.52-4.832,12.454v0.001l-2.898,7.152h25.364
		l-2.897-7.173l0,0c-1.577-3.975-3.17-8.131-4.781-12.471c-1.604-4.319-3.229-8.818-4.873-13.497L720.578,310.159L720.578,310.159z"
		/>
	<path d="M811.172,343.771h-16.859h-0.108v-0.107v-8.144v-0.107h0.108h26.079h0.107v0.107v35.727v0.065l-0.059,0.029
		c-0.394,0.199-0.876,0.404-1.449,0.612v0.001c-0.571,0.207-1.233,0.421-1.986,0.639l-0.002,0.001
		c-0.755,0.209-1.56,0.412-2.412,0.608l0,0c-0.859,0.198-1.771,0.393-2.739,0.58h-0.001c-0.988,0.186-2.021,0.355-3.088,0.505
		c-1,0.141-2.037,0.264-3.108,0.363c-1.113,0.114-2.212,0.199-3.302,0.256c-1.092,0.058-2.176,0.085-3.258,0.085
		c-3.186,0-6.192-0.218-9.014-0.652c-2.815-0.436-5.444-1.087-7.878-1.955l0,0c-2.445-0.869-4.692-1.918-6.741-3.148
		c-2.05-1.229-3.902-2.639-5.56-4.228c-1.657-1.59-3.11-3.351-4.362-5.28c-1.252-1.928-2.305-4.028-3.162-6.299
		c-0.854-2.269-1.498-4.669-1.927-7.198c-0.428-2.53-0.644-5.191-0.644-7.978c0-3.03,0.233-5.923,0.699-8.675
		c0.466-2.751,1.166-5.364,2.099-7.842l0,0c0.941-2.466,2.09-4.76,3.445-6.875c1.356-2.116,2.924-4.055,4.703-5.813l0.001-0.001
		c1.78-1.749,3.741-3.301,5.888-4.651c2.146-1.353,4.479-2.506,7-3.461c2.506-0.951,5.146-1.665,7.913-2.14
		c2.778-0.478,5.686-0.715,8.716-0.715c1.635,0,3.271,0.058,4.904,0.189c0.814,0.065,1.614,0.146,2.396,0.238
		c0.781,0.092,1.543,0.195,2.279,0.309l0.003,0.001c0.747,0.124,1.474,0.258,2.173,0.401c0.682,0.141,1.335,0.29,1.955,0.449h0.001
		c0.626,0.169,1.207,0.34,1.739,0.513c0.529,0.172,1.013,0.348,1.443,0.529l0.066,0.026v0.071v7.898v0.146l-0.142-0.044
		c-1.124-0.354-2.336-0.683-3.633-0.982c-1.262-0.291-2.604-0.556-4.021-0.787c-1.445-0.233-2.891-0.412-4.336-0.532
		c-1.441-0.12-2.883-0.183-4.32-0.183c-2.112,0-4.172,0.16-6.18,0.479c-2.007,0.315-3.966,0.792-5.879,1.422
		c-1.92,0.629-3.722,1.423-5.405,2.38c-1.687,0.958-3.256,2.08-4.712,3.367c-1.455,1.286-2.766,2.731-3.928,4.34
		s-2.18,3.379-3.05,5.314c-0.869,1.933-1.521,4.035-1.957,6.306c-0.435,2.271-0.651,4.714-0.651,7.319
		c0,2.552,0.18,4.933,0.539,7.137c0.358,2.201,0.898,4.229,1.616,6.078c0.717,1.847,1.585,3.533,2.603,5.063
		c1.019,1.532,2.188,2.905,3.502,4.116c1.322,1.211,2.781,2.262,4.379,3.155c1.597,0.895,3.332,1.632,5.203,2.214l0,0
		c1.887,0.574,3.879,1.008,5.978,1.297c2.087,0.287,4.279,0.433,6.575,0.433c1.063,0,2.119-0.027,3.169-0.085
		c1.053-0.057,2.101-0.142,3.142-0.254l0,0c1.015-0.101,1.971-0.229,2.871-0.379c0.915-0.151,1.773-0.328,2.573-0.521v-21.734
		H811.172z"/>
	<path d="M829.905,374.844l31.209-76.694l0.026-0.067h0.072h8.111h0.072l0.026,0.067l31.326,76.694l0.061,0.147h-0.158h-10.169
		h-0.073l-0.026-0.068l-8.984-22.951H849.18l-9.023,22.951l-0.026,0.068h-0.073h-10.051h-0.16L829.905,374.844L829.905,374.844z
		 M865.286,310.159c-1.709,4.735-3.376,9.247-4.997,13.532c-1.651,4.366-3.264,8.52-4.833,12.454v0.001l-2.897,7.152h25.364
		l-2.897-7.173l0,0c-1.577-3.975-3.17-8.131-4.781-12.471c-1.605-4.319-3.229-8.818-4.873-13.497L865.286,310.159L865.286,310.159z"
		/>
	<path d="M947.916,340.88c2.349,3.385,4.688,6.814,7.013,10.296c2.313,3.461,4.615,6.97,6.906,10.523h0.159
		c-0.242-3.702-0.427-7.451-0.551-11.242c-0.123-3.784-0.188-7.604-0.188-11.453V298.19v-0.108h0.108h9.462h0.107v0.108v76.693
		v0.107h-0.107h-9.403h-0.056l-0.032-0.046l-30.093-42.751l-0.001-0.001c-2.591-3.722-5.05-7.325-7.374-10.81
		c-2.306-3.454-4.476-6.791-6.506-10.012h-0.179c0.242,3.479,0.428,7.254,0.55,11.318c0.125,4.065,0.188,8.414,0.188,13.042v39.149
		v0.107h-0.107h-9.403h-0.108v-0.107V298.19v-0.108h0.108h9.286h0.056l0.033,0.047L947.916,340.88L947.916,340.88z"/>
	<path d="M1048.602,336.185c0,2.245-0.138,4.423-0.414,6.532c-0.277,2.108-0.695,4.15-1.256,6.123l0,0
		c-0.548,1.965-1.241,3.833-2.076,5.602c-0.843,1.785-1.829,3.473-2.954,5.062c-1.118,1.577-2.38,3.05-3.78,4.412
		c-1.404,1.367-2.949,2.626-4.632,3.775c-1.67,1.149-3.489,2.171-5.449,3.063c-1.958,0.891-4.06,1.649-6.298,2.277
		c-1.284,0.362-2.623,0.672-4.013,0.926c-1.394,0.257-2.839,0.457-4.333,0.604c-1.492,0.146-3.048,0.255-4.663,0.326
		c-1.62,0.069-3.304,0.104-5.045,0.104H986.31h-0.106v-0.107V298.19v-0.108h0.106h17.556c1.742,0,3.424,0.035,5.044,0.105
		c1.616,0.071,3.172,0.179,4.664,0.326c1.492,0.146,2.936,0.344,4.323,0.596c1.39,0.253,2.727,0.563,4.003,0.936
		c2.247,0.628,4.35,1.384,6.308,2.264c1.959,0.881,3.777,1.888,5.458,3.017c1.683,1.13,3.224,2.365,4.618,3.703
		c1.391,1.334,2.637,2.771,3.734,4.312c1.103,1.552,2.065,3.19,2.891,4.924c0.825,1.73,1.514,3.559,2.063,5.482v0.001
		c0.54,1.934,0.948,3.937,1.222,6.008C1048.464,331.824,1048.602,333.97,1048.602,336.185L1048.602,336.185z M1039.099,336.185
		c0-3.67-0.404-6.993-1.216-9.969c-0.81-2.975-2.022-5.602-3.642-7.88c-1.62-2.28-3.592-4.231-5.915-5.848
		c-2.322-1.613-4.995-2.896-8.019-3.841h-0.001c-1.159-0.37-2.386-0.678-3.678-0.927c-1.294-0.249-2.651-0.439-4.076-0.576l0,0
		c-1.442-0.127-2.97-0.225-4.58-0.291c-1.61-0.065-3.313-0.1-5.108-0.1h-7.042v59.563h7.042c1.795,0,3.498-0.034,5.108-0.1
		s3.138-0.164,4.58-0.291l0,0c1.425-0.136,2.782-0.332,4.076-0.583c1.292-0.251,2.52-0.56,3.68-0.92
		c3.021-0.944,5.691-2.249,8.013-3.908c2.323-1.661,4.298-3.681,5.918-6.052c1.619-2.378,2.834-5.088,3.644-8.132
		C1038.693,343.286,1039.099,339.904,1039.099,336.185z"/>
	<path d="M1053.879,374.844l31.209-76.694l0.027-0.067h0.072h8.11h0.072l0.026,0.067l31.327,76.694l0.062,0.147h-0.16h-10.168
		h-0.074l-0.025-0.068l-8.985-22.951h-32.218l-9.024,22.951l-0.026,0.068h-0.073h-10.05h-0.161L1053.879,374.844L1053.879,374.844z
		 M1089.26,310.159c-1.709,4.735-3.376,9.247-4.997,13.532c-1.65,4.366-3.263,8.52-4.833,12.454v0.001l-2.896,7.152h25.364
		l-2.898-7.173l0,0c-1.577-3.975-3.17-8.131-4.781-12.471c-1.604-4.319-3.228-8.818-4.873-13.497L1089.26,310.159L1089.26,310.159z"
		/>
	<polygon fill="#81499C" points="170.358,122.482 65.765,374.99 65.765,79.158 	"/>
	<polygon fill="#62BB46" points="287.156,301.518 391.749,49.008 391.749,344.841 	"/>
	<polygon fill="#F58220" points="318.275,153.601 65.766,49.008 361.599,49.008 	"/>
	<polygon fill="#00AEEF" points="139.24,270.398 391.75,374.99 95.916,374.99 	"/>
	
		<rect x="168.402" y="151.651" transform="matrix(-0.9239 -0.3827 0.3827 -0.9239 358.971 495.4206)" width="120.714" height="120.713"/>
</g>
<g id="Principal_Linhas-guia">
</g>
</svg>
