<?xml version="1.0" encoding="utf-8"?>
<!-- Generator: Adobe Illustrator 16.0.0, SVG Export Plug-In . SVG Version: 6.00 Build 0)  -->
<!DOCTYPE svg PUBLIC "-//W3C//DTD SVG 1.1//EN" "http://www.w3.org/Graphics/SVG/1.1/DTD/svg11.dtd">
<svg version="1.1" id="Layer_1" xmlns="http://www.w3.org/2000/svg" xmlns:xlink="http://www.w3.org/1999/xlink" x="0px" y="0px"
	 width="320px" height="270px" viewBox="0 0 320 270" enable-background="new 0 0 320 270" xml:space="preserve">
<g>
	<g>
		<polyline fill="#68B765" points="40.667,107.146 100.333,13.621 219.667,13.621 279.333,107.146 		"/>
		<path fill="#067F48" d="M40.667,107.146c0.972-2.121,1.989-4.214,3.005-6.308c1.012-2.096,2.022-4.193,3.069-6.266
			c2.068-4.164,4.181-8.298,6.322-12.416c2.13-4.125,4.306-8.219,6.488-12.31c2.179-4.093,4.415-8.149,6.622-12.224l6.753-12.141
			l6.859-12.073L86.744,21.4L93.81,9.459c1.298-2.193,3.569-3.454,5.939-3.556l0.585-0.02c4.972-0.178,9.944-0.254,14.917-0.386
			l7.458-0.165l7.458-0.107c4.972-0.065,9.944-0.167,14.917-0.169L160,4.984l14.917,0.066c2.485,0.02,4.972,0.008,7.458,0.053
			l7.459,0.108c4.973,0.076,9.943,0.125,14.916,0.266c4.973,0.13,9.943,0.217,14.917,0.382l0.517,0.017
			c2.563,0.085,4.797,1.526,6.027,3.57l7.066,11.941l6.957,12.01l3.436,6.032l3.424,6.04c1.149,2.009,2.254,4.045,3.383,6.066
			l3.369,6.075l3.32,6.106l3.301,6.118c2.18,4.093,4.357,8.187,6.484,12.312c2.141,4.117,4.249,8.255,6.316,12.419
			c1.045,2.075,2.056,4.171,3.064,6.269c1.014,2.094,2.029,4.188,3,6.31c-1.516-1.774-2.986-3.578-4.458-5.38
			c-1.478-1.8-2.952-3.6-4.394-5.422c-2.904-3.63-5.769-7.286-8.6-10.962c-2.846-3.667-5.641-7.368-8.434-11.068l-4.157-5.572
			l-4.138-5.584l-4.09-5.616c-1.356-1.876-2.738-3.736-4.076-5.625l-4.033-5.65l-4.021-5.658l-7.959-11.371l-7.852-11.44
			l6.544,3.587c-4.974,0.165-9.944,0.252-14.917,0.382c-4.973,0.141-9.943,0.19-14.916,0.266l-7.459,0.108
			c-2.486,0.045-4.973,0.033-7.458,0.053L160,22.258l-14.917-0.071c-4.972-0.002-9.944-0.104-14.917-0.169l-7.458-0.107
			l-7.458-0.165c-4.972-0.132-9.944-0.208-14.917-0.386l6.524-3.577l-7.852,11.44l-7.957,11.372L82.99,51.903l-8.163,11.241
			c-2.766,3.719-5.502,7.456-8.295,11.157c-2.79,3.703-5.586,7.402-8.429,11.071c-2.832,3.677-5.69,7.336-8.595,10.966
			c-1.439,1.823-2.915,3.623-4.389,5.424C43.65,103.566,42.181,105.37,40.667,107.146z"/>
	</g>
	<g>
		<path fill="#68B765" d="M269.977,254.018c-73.197,7.344-146.394,7.344-219.589,0c10.979-48.957,10.979-97.914,0-146.872
			c73.197-7.343,146.392-7.343,219.589,0C258.997,156.104,258.997,205.061,269.977,254.018z"/>
		
			<path fill="none" stroke="#067F48" stroke-width="17.279" stroke-linecap="round" stroke-linejoin="round" stroke-miterlimit="10" d="
			M269.977,254.018c-73.197,7.344-146.394,7.344-219.589,0c10.979-48.957,10.979-97.914,0-146.872
			c73.197-7.343,146.392-7.343,219.589,0C258.997,156.104,258.997,205.061,269.977,254.018z"/>
	</g>
	<g>
		
			<path fill="none" stroke="#067F48" stroke-width="8.8486" stroke-linecap="round" stroke-linejoin="round" stroke-miterlimit="10" d="
			M203.02,210.818c-30.765,2.882-61.527,2.882-92.292,0c4.307-20.574,4.307-41.15,0-61.727c30.764-2.881,61.527-2.881,92.292,0
			C198.712,169.668,198.712,190.244,203.02,210.818z"/>
	</g>
	<g>
		<path fill="#067F48" d="M157.661,149.805c0,0,0.098,0.237,0.251,0.686c0.142,0.445,0.388,1.102,0.626,1.937
			c0.499,1.668,1.111,4.052,1.656,6.912c0.549,2.859,1.029,6.196,1.351,9.771c0.096,0.895,0.153,1.804,0.214,2.724
			c0.067,0.92,0.128,1.851,0.156,2.789c0.099,1.877,0.112,3.783,0.138,5.69c-0.023,1.906-0.031,3.813-0.131,5.689
			c-0.029,0.938-0.082,1.869-0.152,2.789c-0.064,0.92-0.117,1.829-0.213,2.723c-0.318,3.575-0.8,6.912-1.35,9.771
			c-0.547,2.859-1.162,5.244-1.663,6.912c-0.508,1.669-0.883,2.621-0.883,2.621s-0.375-0.952-0.883-2.621
			c-0.501-1.668-1.116-4.053-1.663-6.912c-0.55-2.859-1.03-6.196-1.35-9.771c-0.096-0.894-0.148-1.803-0.212-2.723
			c-0.071-0.92-0.123-1.852-0.153-2.789c-0.099-1.877-0.106-3.783-0.13-5.689c0.024-1.907,0.038-3.813,0.137-5.69
			c0.029-0.938,0.089-1.869,0.156-2.789c0.061-0.92,0.12-1.829,0.214-2.724c0.322-3.574,0.802-6.911,1.35-9.771
			c0.545-2.86,1.158-5.244,1.656-6.912c0.239-0.835,0.484-1.489,0.626-1.937C157.563,150.042,157.661,149.805,157.661,149.805z"/>
	</g>
	<g>
		<path fill="#067F48" d="M114.463,179.864c0,0,0.334-0.116,0.962-0.298c0.627-0.168,1.548-0.459,2.719-0.742
			c2.343-0.592,5.689-1.316,9.706-1.963c4.016-0.648,8.702-1.219,13.722-1.6c1.255-0.111,2.531-0.183,3.822-0.254
			c1.292-0.08,2.599-0.15,3.917-0.186c2.636-0.116,5.313-0.133,7.99-0.162c2.678,0.027,5.354,0.037,7.99,0.154
			c1.318,0.035,2.625,0.098,3.917,0.182c1.292,0.076,2.567,0.138,3.822,0.251c5.021,0.379,9.706,0.948,13.722,1.601
			c4.016,0.646,7.362,1.377,9.705,1.971c1.172,0.285,2.092,0.576,2.721,0.746c0.627,0.183,0.961,0.3,0.961,0.3
			s-0.334,0.116-0.961,0.299c-0.629,0.17-1.549,0.462-2.721,0.747c-2.343,0.594-5.689,1.322-9.705,1.971
			c-4.016,0.651-8.701,1.221-13.722,1.6c-1.255,0.113-2.53,0.176-3.822,0.252c-1.292,0.084-2.599,0.146-3.917,0.182
			c-2.637,0.117-5.312,0.126-7.99,0.154c-2.677-0.029-5.354-0.047-7.99-0.162c-1.317-0.034-2.625-0.105-3.917-0.187
			c-1.292-0.071-2.567-0.142-3.822-0.254c-5.02-0.381-9.706-0.95-13.722-1.6c-4.016-0.646-7.363-1.371-9.706-1.962
			c-1.171-0.283-2.091-0.574-2.719-0.742C114.798,179.98,114.463,179.864,114.463,179.864z"/>
	</g>
</g>
</svg>
