<?xml version="1.0" encoding="utf-8"?>
<!-- Generator: Adobe Illustrator 16.0.0, SVG Export Plug-In . SVG Version: 6.00 Build 0)  -->
<!DOCTYPE svg PUBLIC "-//W3C//DTD SVG 1.1//EN" "http://www.w3.org/Graphics/SVG/1.1/DTD/svg11.dtd">
<svg version="1.1" id="Layer_1" xmlns="http://www.w3.org/2000/svg" xmlns:xlink="http://www.w3.org/1999/xlink" x="0px" y="0px"
	 width="320px" height="270px" viewBox="0 0 320 270" enable-background="new 0 0 320 270" xml:space="preserve">
<g>
	<path fill="#FCD304" d="M143.03,255.799l7.818,8.563c5.49,1.963,10.798,2.105,17.519,0.314l8.604-9.1
		C165.657,258.283,154.336,257.918,143.03,255.799L143.03,255.799z"/>
	<g>
		<path fill="#B19130" d="M143.03,255.799c0.818,0.563,1.611,1.146,2.396,1.738c0.774,0.602,1.557,1.195,2.325,1.803
			c1.528,1.223,3.025,2.473,4.497,3.745l-0.761-0.507l2.049,0.384l1.022,0.115c0.34,0.028,0.672,0.103,1.011,0.114l1.011,0.045
			c0.336,0.01,0.667,0.053,1.005,0.023c0.672-0.033,1.333,0.006,2-0.074c0.669-0.09,1.326-0.102,1.993-0.225
			c0.665-0.126,1.324-0.188,1.988-0.355l0.994-0.227c0.332-0.079,0.662-0.127,0.994-0.232l1.986-0.564l-1.502,0.895
			c1.398-1.55,2.777-3.117,4.211-4.635c1.411-1.538,2.861-3.04,4.311-4.543l3.181,5.503c-1.466,0.293-2.939,0.541-4.406,0.812
			c-1.479,0.182-2.966,0.31-4.444,0.464c-1.486,0.058-2.972,0.086-4.449,0.116c-1.482-0.069-2.959-0.121-4.428-0.227
			c-1.467-0.16-2.926-0.351-4.377-0.552c-1.444-0.277-2.88-0.558-4.304-0.876c-1.416-0.372-2.821-0.764-4.209-1.201
			C145.742,256.861,144.375,256.359,143.03,255.799z M143.03,255.799c1.466-0.091,2.909-0.122,4.338-0.128
			c1.439-0.079,2.861-0.121,4.273-0.139c1.417-0.091,2.821-0.149,4.218-0.201c1.397-0.118,2.786-0.222,4.167-0.304
			c1.378-0.178,2.751-0.288,4.119-0.438l4.067-0.582l4.019-0.741c1.324-0.306,2.643-0.632,3.967-0.912l10.318-2.193l-7.138,7.695
			c-1.419,1.53-2.837,3.063-4.293,4.558c-1.437,1.516-2.923,2.981-4.392,4.465l-0.735,0.744l-0.769,0.149l-2.346,0.461
			c-0.386,0.086-0.796,0.119-1.193,0.18l-1.199,0.148c-0.797,0.104-1.627,0.098-2.436,0.146c-0.809,0.057-1.642-0.031-2.456-0.057
			c-0.816-0.031-1.636-0.187-2.446-0.279c-0.406-0.045-0.804-0.163-1.204-0.248l-1.192-0.277c-0.396-0.095-0.778-0.234-1.164-0.359
			l-1.147-0.39c-0.744-0.306-1.477-0.622-2.199-0.95l-0.591-0.269l-0.171-0.238c-1.135-1.581-2.244-3.186-3.322-4.817
			c-0.535-0.819-1.056-1.653-1.584-2.479C144.025,257.507,143.516,256.664,143.03,255.799z"/>
	</g>
</g>
<g>
	<path fill="#FCD304" d="M143.03,255.799l7.818,8.563c5.49,1.963,10.798,2.105,17.519,0.314l8.604-9.1
		C165.657,258.283,154.336,257.918,143.03,255.799L143.03,255.799z"/>
	<g>
		<path fill="#B19130" d="M143.03,255.799c0.818,0.563,1.611,1.146,2.396,1.738c0.774,0.602,1.557,1.195,2.325,1.803
			c1.528,1.223,3.025,2.473,4.497,3.745l-0.761-0.507l2.049,0.384l1.022,0.115c0.34,0.028,0.672,0.103,1.011,0.114l1.011,0.045
			c0.336,0.01,0.667,0.053,1.005,0.023c0.672-0.033,1.333,0.006,2-0.074c0.669-0.09,1.326-0.102,1.993-0.225
			c0.665-0.126,1.324-0.188,1.988-0.355l0.994-0.227c0.332-0.079,0.662-0.127,0.994-0.232l1.986-0.564l-1.502,0.895
			c1.398-1.55,2.777-3.117,4.211-4.635c1.411-1.538,2.861-3.04,4.311-4.543l3.181,5.503c-1.466,0.293-2.939,0.541-4.406,0.812
			c-1.479,0.182-2.966,0.31-4.444,0.464c-1.486,0.058-2.972,0.086-4.449,0.116c-1.482-0.069-2.959-0.121-4.428-0.227
			c-1.467-0.16-2.926-0.351-4.377-0.552c-1.444-0.277-2.88-0.558-4.304-0.876c-1.416-0.372-2.821-0.764-4.209-1.201
			C145.742,256.861,144.375,256.359,143.03,255.799z M143.03,255.799c1.466-0.091,2.909-0.122,4.338-0.128
			c1.439-0.079,2.861-0.121,4.273-0.139c1.417-0.091,2.821-0.149,4.218-0.201c1.397-0.118,2.786-0.222,4.167-0.304
			c1.378-0.178,2.751-0.288,4.119-0.438l4.067-0.582l4.019-0.741c1.324-0.306,2.643-0.632,3.967-0.912l0.053-0.012
			c1.796-0.382,3.563,0.766,3.943,2.561c0.231,1.093-0.114,2.188-0.814,2.953c-1.419,1.53-2.837,3.063-4.293,4.558
			c-1.436,1.516-2.923,2.981-4.391,4.465l-0.188,0.188c-0.372,0.377-0.832,0.611-1.315,0.705l-2.346,0.461
			c-0.387,0.086-0.797,0.119-1.193,0.18l-1.2,0.148c-0.796,0.104-1.627,0.098-2.435,0.146c-0.81,0.057-1.643-0.031-2.457-0.057
			c-0.816-0.031-1.636-0.187-2.446-0.279c-0.406-0.045-0.804-0.163-1.204-0.248l-1.192-0.277c-0.396-0.095-0.778-0.234-1.164-0.359
			l-1.147-0.39c-0.744-0.306-1.477-0.622-2.199-0.95L149.885,266c-0.18-0.082-0.33-0.21-0.438-0.359
			c-1.135-1.58-2.244-3.186-3.322-4.818c-0.535-0.818-1.056-1.652-1.584-2.479C144.025,257.507,143.516,256.664,143.03,255.799z"/>
	</g>
</g>
<g>
	<path fill="#E6B24F" d="M130.746,216.077l2.812,6.303c-1.79,1.216-3.805,2.196-4.878,4.054c0.47,2.233,4.264,3.06,4.811,5.387
		c-1.476,1.347-3.725,1.869-5.123,3.752c1.164,1.543,2.915,3.937,4.705,4.863c-1.882,0.969-2.352,1.791-3.491,4.186
		c1.009,0.797,2.762,2.837,4.59,4.234c2.343,2.291,8.058,8.004,8.058,8.004c0.166,1.412,27.936,2.877,35.823-0.131
		c3.752-2.681,4.956-4.654,8.398-8.304c1.211-0.955,2.914-4.498,3.654-5.596c-1.371-2.065-1.347-1.976-2.832-3.151
		c0.951-1.398,3.91-2.117,4.359-4.604l-4.429-3.582c0.55-2.092,3.726-3.256,4.286-5.346c-0.563-1.807-3.106-2.75-4.361-4.096
		l1.563-5.975L130.746,216.077L130.746,216.077z"/>
	<g>
		<path fill="#B19130" d="M130.746,216.077c1.218,1.976,2.366,3.981,3.544,5.976c0.176,0.299,0.104,0.674-0.156,0.889l-0.126,0.104
			c-0.857,0.705-1.731,1.332-2.47,1.998c-0.367,0.333-0.693,0.677-0.979,1.023l-0.371,0.533l-0.277,0.545l0.161-1.004
			c0.066,0.099,0.126,0.192,0.238,0.305c0.072,0.059,0.103,0.113,0.193,0.179c0.086,0.063,0.142,0.125,0.246,0.194
			c0.36,0.272,0.84,0.559,1.371,0.877c0.531,0.322,1.126,0.678,1.75,1.211c0.312,0.271,0.627,0.595,0.923,0.992
			c0.145,0.203,0.278,0.44,0.407,0.668c0.114,0.248,0.21,0.517,0.3,0.781c0.231,0.682,0.022,1.406-0.474,1.865l-0.144,0.132
			c-0.257,0.237-0.525,0.485-0.789,0.706c-0.253,0.19-0.521,0.396-0.768,0.57l-0.71,0.482c-0.209,0.146-0.441,0.295-0.633,0.435
			l-0.277,0.204c-0.087,0.066-0.197,0.136-0.264,0.201c-0.145,0.136-0.312,0.263-0.439,0.393c-0.11,0.134-0.236,0.255-0.337,0.381
			c-0.079,0.133-0.164,0.256-0.253,0.373l-0.011-3.052c0.75,0.87,1.45,1.667,2.163,2.354l0.528,0.479l0.514,0.409
			c0.166,0.117,0.32,0.201,0.474,0.31c0.076,0.05,0.134,0.056,0.197,0.089l0.179,0.092c1.463,0.74,2.048,2.527,1.308,3.99
			c-0.235,0.465-0.575,0.84-0.977,1.113l-0.339,0.229l-0.401,0.271l-0.276,0.233c-0.045,0.078-0.115,0.127-0.156,0.199
			c-0.04,0.081-0.087,0.116-0.14,0.237c-0.051,0.095-0.11,0.19-0.18,0.354c-0.066,0.136-0.137,0.281-0.217,0.478l-0.238,0.562
			l-0.25,0.611l-0.942-4.043l0.78,0.635l0.388,0.322l0.304,0.268c0.386,0.342,0.814,0.74,1.166,1.035l0.547,0.471
			c0.179,0.146,0.37,0.334,0.538,0.447l1.024,0.769l0.117,0.096l0.217,0.193c2.838,2.53,5.63,5.112,8.44,7.679l1.188,2.45
			c-0.061-0.638-0.327-1.335-0.707-1.853c-0.177-0.255-0.353-0.453-0.568-0.646c-0.272-0.231-0.297-0.24-0.393-0.312
			c-0.087-0.062-0.179-0.117-0.272-0.168c-0.106-0.061-0.148-0.082-0.229-0.119c-0.072-0.029-0.053-0.026-0.085-0.041
			c-0.071-0.029,0.026-0.008,0.111,0.004l0.812,0.115c0.622,0.08,1.319,0.142,2.017,0.192c1.405,0.104,2.858,0.166,4.313,0.207
			c2.916,0.065,5.857,0.108,8.782,0.044c2.922-0.07,5.84-0.188,8.678-0.422c1.414-0.123,2.812-0.278,4.129-0.491
			c0.658-0.106,1.295-0.229,1.879-0.364c0.578-0.131,1.113-0.287,1.465-0.422l-1.114,0.598l1.906-1.53
			c0.16-0.126,0.293-0.286,0.44-0.427l0.434-0.436l0.438-0.432c0.147-0.154,0.284-0.266,0.444-0.452l1.897-2.131L182.82,245
			l0.539-0.493c-0.058,0.025-0.108,0.062-0.15,0.107c-0.021,0.021-0.04,0.047-0.057,0.073c-0.02,0.03,0.023-0.035,0.033-0.045
			c0.076-0.119,0.123-0.136,0.244-0.326c0.11-0.172,0.217-0.318,0.338-0.508l0.369-0.604l0.793-1.373l0.447-0.779l0.277-0.464
			l0.337-0.532l-0.021,5.514l-0.527-0.788l-0.133-0.197c-0.053-0.083-0.074-0.104-0.088-0.121c-0.039-0.043-0.072-0.089-0.104-0.138
			c-0.031-0.065-0.061-0.074-0.081-0.088l-0.029-0.028c-0.022-0.021,0.017-0.002-0.056-0.06l-0.743-0.607l-0.179-0.146
			c-1.963-1.604-2.305-4.461-0.84-6.488c0.228-0.313,0.523-0.692,0.744-0.911c0.229-0.234,0.481-0.479,0.666-0.629l0.306-0.253
			l0.262-0.196c0.183-0.138,0.336-0.245,0.476-0.34l0.729-0.487l0.271-0.18l0.207-0.146c0.064-0.043,0.119-0.084,0.148-0.108
			c0.039-0.03,0.081-0.06,0.087-0.068c0.015-0.014,0.044-0.028,0.028-0.021c-0.008,0.007,0.01,0.008-0.022,0.037
			c-0.026,0.027-0.018,0.049-0.059,0.098c-0.034,0.046-0.035,0.093-0.07,0.15c-0.047,0.119-0.091,0.236-0.096,0.358l1.719,4.626
			l-4.369-3.656l-0.2-0.169c-1.416-1.185-1.91-3.064-1.404-4.727c0.117-0.38,0.253-0.773,0.408-1.124
			c0.154-0.316,0.332-0.663,0.506-0.938c0.17-0.254,0.363-0.543,0.535-0.755c0.168-0.202,0.357-0.438,0.52-0.606
			c0.159-0.165,0.336-0.354,0.486-0.495l0.445-0.413l0.762-0.652l0.566-0.476l0.331-0.3c0.044-0.039,0.034-0.038,0.062-0.055
			c0.018-0.014-0.02,0.022-0.015,0.039c-0.012,0.027-0.062,0.103-0.069,0.159c-0.037,0.078-0.08,0.187-0.088,0.285l0.049,2.551
			c0.012,0.084,0.037,0.167,0.078,0.243c0.028,0.068,0.115,0.159,0.131,0.188c0.007,0.024,0.02,0.047,0.037,0.063
			c0.004,0.008,0.08,0.046,0.035,0.014c-0.024-0.021-0.049-0.045-0.07-0.07c-0.033-0.029-0.014-0.043-0.086-0.098l-0.357-0.307
			l-1.195-0.901l-0.813-0.651c-0.146-0.125-0.326-0.301-0.484-0.451l-0.48-0.479c-1.111-1.109-1.461-2.693-1.047-4.102l0.008-0.02
			l1.759-5.925l4.067,5.269l-7.243-0.299l-7.243-0.351c-2.415-0.112-4.829-0.262-7.243-0.403c-2.415-0.136-4.829-0.298-7.244-0.466
			c-4.829-0.321-9.658-0.712-14.487-1.139l-7.243-0.707l-3.622-0.402C133.161,216.381,131.953,216.239,130.746,216.077z
			 M130.746,216.077c1.207-0.162,2.415-0.304,3.622-0.438l3.622-0.402l7.243-0.706c4.829-0.427,9.658-0.816,14.487-1.14
			c2.415-0.168,4.829-0.33,7.244-0.465c2.414-0.143,4.828-0.292,7.243-0.404l7.243-0.35l7.243-0.3
			c2.244-0.093,4.141,1.651,4.232,3.897c0.016,0.359-0.018,0.711-0.093,1.049l-0.074,0.322l-1.366,6.024l-1.041-4.12
			c0.027,0.012,0.053,0.021,0.074,0.037l0.075,0.061l0.394,0.267l1.283,0.845l0.842,0.62c0.133,0.095,0.322,0.272,0.478,0.41
			l0.481,0.45c0.148,0.132,0.353,0.395,0.519,0.595c0.174,0.216,0.342,0.437,0.503,0.661c0.162,0.232,0.326,0.57,0.473,0.863
			c0.146,0.305,0.277,0.616,0.396,0.931c0.304,0.804,0.315,1.646,0.091,2.411l-0.041,0.14c-0.107,0.371-0.236,0.757-0.385,1.103
			c-0.147,0.312-0.314,0.651-0.482,0.924c-0.16,0.253-0.345,0.539-0.511,0.752c-0.161,0.203-0.343,0.438-0.498,0.611
			c-0.153,0.168-0.323,0.357-0.468,0.504l-0.43,0.424l-0.732,0.68l-0.536,0.503l-0.183,0.188c-0.059,0.06-0.072,0.09-0.113,0.133
			c-0.038,0.042-0.02,0.042-0.037,0.06c-0.012,0.015,0.035-0.022,0.038-0.041c0.021-0.028,0.08-0.108,0.099-0.171
			c0.045-0.083,0.098-0.197,0.114-0.306l-1.604-4.896l4.488,3.509c1.441,1.127,2.049,2.924,1.725,4.605l-0.006,0.02
			c-0.127,0.651-0.309,1.293-0.584,1.905c-0.127,0.312-0.291,0.582-0.449,0.867c-0.16,0.293-0.336,0.517-0.514,0.769
			c-0.183,0.258-0.358,0.448-0.543,0.66c-0.189,0.219-0.363,0.383-0.543,0.557c-0.187,0.184-0.354,0.326-0.521,0.469
			c-0.178,0.152-0.336,0.277-0.489,0.395l-0.446,0.334l-0.397,0.284l-0.61,0.431c-0.083,0.061-0.15,0.11-0.182,0.14l-0.063,0.049
			l-0.005,0.011c-0.028,0.021,0.041-0.027,0.077-0.07c0.025-0.03,0.175-0.18,0.229-0.285l-1.018-6.635l0.926,0.723
			c0.068,0.052,0.23,0.201,0.34,0.299l0.36,0.335c0.242,0.228,0.478,0.458,0.649,0.687l0.561,0.701
			c0.096,0.123,0.186,0.24,0.229,0.308l0.168,0.245l0.67,0.979c1.086,1.59,1.095,3.596,0.188,5.156l-0.211,0.357l-0.254,0.438
			l-0.381,0.678l-0.87,1.538l-0.499,0.831c-0.177,0.286-0.387,0.598-0.582,0.895c-0.178,0.283-0.504,0.688-0.758,1.019
			c-0.08,0.097-0.11,0.151-0.231,0.28l-0.354,0.367c-0.241,0.242-0.49,0.476-0.746,0.697l0.539-0.492l-3.954,4.359
			c-0.162,0.188-0.397,0.4-0.595,0.6l-0.619,0.605l-0.62,0.604c-0.212,0.196-0.406,0.41-0.632,0.592l-2.729,2.15
			c-0.299,0.233-0.621,0.413-0.959,0.54l-0.156,0.058c-1.062,0.393-1.986,0.625-2.879,0.82c-0.89,0.188-1.737,0.318-2.572,0.433
			c-1.665,0.22-3.271,0.35-4.863,0.444c-3.18,0.188-6.292,0.205-9.397,0.118c-3.104-0.088-6.191-0.226-9.294-0.521
			c-1.554-0.146-3.107-0.311-4.7-0.53c-0.8-0.111-1.6-0.232-2.466-0.398c-0.437-0.086-0.875-0.175-1.406-0.318
			c-0.28-0.079-0.549-0.152-0.974-0.313l-0.349-0.142c-0.166-0.076-0.294-0.136-0.484-0.239c-0.133-0.074-0.264-0.156-0.392-0.242
			c-0.135-0.097-0.203-0.127-0.506-0.395c-0.249-0.229-0.459-0.458-0.668-0.746c-0.398-0.561-0.683-1.302-0.761-1.98l1.188,2.448
			c-2.562-2.77-5.142-5.522-7.675-8.327l0.334,0.289l-1.36-1.25c-0.24-0.212-0.403-0.41-0.606-0.615l-0.581-0.609
			c-0.406-0.421-0.706-0.768-1.063-1.154l-0.822-0.896l-0.53-0.577c-0.89-0.97-1.015-2.373-0.412-3.466l0.358-0.646l0.393-0.685
			c0.125-0.225,0.287-0.48,0.46-0.744c0.152-0.247,0.36-0.531,0.583-0.814c0.197-0.273,0.488-0.563,0.752-0.834
			c0.271-0.272,0.582-0.5,0.879-0.738c0.291-0.19,0.591-0.383,0.88-0.549l0.818-0.41l-0.008,5.332l-0.547-0.357
			c-0.174-0.12-0.372-0.245-0.519-0.37c-0.288-0.251-0.591-0.505-0.853-0.76c-0.243-0.254-0.491-0.511-0.722-0.765l-0.636-0.766
			c-0.795-1.013-1.463-2.033-2.08-2.979l-0.229-0.354c-0.562-0.861-0.444-1.972,0.219-2.699c0.259-0.283,0.523-0.563,0.793-0.832
			c0.278-0.248,0.567-0.461,0.854-0.684c0.286-0.205,0.569-0.364,0.854-0.543c0.146-0.096,0.273-0.148,0.411-0.225l0.405-0.211
			l1.422-0.682l0.573-0.298l0.462-0.286l-0.618,1.998c-0.01-0.025-0.001-0.055,0.004-0.094c-0.02-0.041-0.016-0.085-0.035-0.143
			c-0.048-0.112-0.131-0.26-0.257-0.422c-0.258-0.328-0.664-0.695-1.129-1.095c-0.464-0.403-0.991-0.834-1.524-1.41
			c-0.132-0.129-0.266-0.312-0.393-0.471c-0.128-0.153-0.249-0.371-0.366-0.556c-0.233-0.4-0.405-0.879-0.494-1.379l-0.039-0.219
			c-0.052-0.289,0.031-0.572,0.199-0.787l0.621-0.777c0.23-0.227,0.459-0.451,0.692-0.664c0.482-0.396,0.974-0.737,1.469-1.036
			c0.99-0.589,1.967-1.032,2.876-1.524l-0.282,0.99C132.129,220.498,131.402,218.305,130.746,216.077z"/>
	</g>
</g>
<g>
	<path fill="#E6B24F" d="M159.685,3.688c-43.725,0-81.588,36.622-79.155,81.678c-1.309,11.73,13.533,39.956,26.67,55.792
		c17.834,32.072,19.548,35.902,20.727,70.894c0.9,4.183,3.031,5.479,5.201,5.962c22.948,4.459,40.692,1.937,54.37,0.25
		c3.277-1.099,5.266-3.179,5.027-6.044c1.311-47.526,8.58-44.649,30.392-81.219c12.08-16.503,16.538-40.824,16.644-52.121
		C240.854,15.926,183.177,4.368,159.685,3.688L159.685,3.688z"/>
	<g>
		<path fill="#B19130" d="M159.679,4.188l-3.95,0.115l-3.92,0.313c-1.305,0.15-2.604,0.364-3.905,0.542
			c-1.294,0.229-2.58,0.5-3.87,0.747c-1.282,0.284-2.547,0.644-3.818,0.965c-1.26,0.365-2.506,0.779-3.758,1.165
			c-1.241,0.421-2.457,0.917-3.683,1.373c-1.21,0.5-2.402,1.043-3.601,1.561c-1.182,0.559-2.334,1.181-3.499,1.766l-3.397,1.938
			l-3.292,2.099l-3.173,2.259l-3.035,2.429l-2.903,2.569l-2.766,2.703l-2.62,2.83c-0.823,0.987-1.663,1.954-2.469,2.947
			c-0.771,1.024-1.563,2.025-2.312,3.058c-0.717,1.058-1.457,2.093-2.157,3.154c-0.667,1.084-1.37,2.141-2.005,3.238
			c-0.608,1.114-1.26,2.199-1.832,3.327c-0.548,1.141-1.147,2.252-1.653,3.407c-0.48,1.167-1.048,2.291-1.497,3.466
			c-0.436,1.18-0.934,2.333-1.319,3.526c-0.373,1.198-0.828,2.366-1.156,3.574c-0.317,1.211-0.704,2.4-0.968,3.622
			c-0.255,1.223-0.594,2.425-0.804,3.655c-0.199,1.231-0.461,2.45-0.612,3.687c-0.129,1.239-0.343,2.467-0.444,3.708
			c-0.081,1.243-0.205,2.481-0.255,3.725l-0.081,3.733l0.099,3.735l-0.021,0.742c0.005,0.461-0.002,0.918-0.023,1.377
			c-0.027,0.216,0.001,0.479,0.035,0.751l0.08,0.798c0.039,1.037,0.354,2.214,0.547,3.337c0.257,1.146,0.612,2.312,0.909,3.477
			c0.384,1.17,0.736,2.344,1.142,3.516L89,102.636l1.425,3.505l1.538,3.483l1.617,3.464c0.532,1.159,1.138,2.286,1.704,3.433
			c0.562,1.149,1.179,2.271,1.785,3.399c0.603,1.13,1.205,2.262,1.844,3.373c0.632,1.115,1.242,2.246,1.912,3.337
			c0.665,1.094,1.299,2.214,1.989,3.292l2.069,3.239l2.155,3.174l2.254,3.089l0.187,0.256c0.036,0.051,0.07,0.106,0.097,0.159
			l4.227,8.41l2.101,4.224c0.684,1.42,1.399,2.814,2.058,4.256c0.662,1.438,1.382,2.834,2.013,4.293
			c0.641,1.453,1.31,2.884,1.902,4.365l0.912,2.206c0.291,0.742,0.552,1.499,0.829,2.248c0.572,1.489,1.029,3.027,1.515,4.552
			c0.463,1.53,0.84,3.092,1.218,4.644c0.298,1.569,0.704,3.122,0.918,4.698l0.378,2.357c0.115,0.786,0.193,1.574,0.291,2.361
			c0.217,1.572,0.378,3.146,0.517,4.718c0.165,1.573,0.275,3.144,0.382,4.714c0.12,1.572,0.216,3.143,0.292,4.709l0.511,9.4
			l-0.037-0.303c0.304,1.106,0.681,2.17,1.259,2.938c0.576,0.769,1.298,1.205,2.268,1.466l0.367,0.094l0.368,0.055l0.977,0.135
			l1.954,0.262l3.908,0.525c1.312,0.215,2.578,0.234,3.862,0.348l3.835,0.275c1.269,0.118,2.575,0.072,3.864,0.1l3.872,0.033
			c1.289,0.02,2.581-0.091,3.87-0.129l3.864-0.176c2.576-0.253,5.145-0.403,7.715-0.737l3.854-0.479
			c1.283-0.156,2.574-0.375,3.858-0.559c2.563-0.369,5.169-0.804,7.759-1.214l-0.716,0.162l0.673-0.308
			c0.229-0.097,0.381-0.231,0.579-0.334c0.216-0.096,0.302-0.235,0.462-0.338c0.073-0.053,0.152-0.104,0.182-0.162
			c0.043-0.057,0.089-0.107,0.138-0.156c0.058-0.047,0.101-0.096,0.104-0.143c0.021-0.047,0.045-0.088,0.073-0.125
			c0.072-0.074,0.019-0.151,0.076-0.205c0.028-0.025-0.011-0.072-0.001-0.104c0-0.033,0.008-0.063,0.023-0.096
			c-0.025-0.092-0.045-0.185-0.024-0.275l-0.013-0.434l0.057-5.61l0.029-2.808l0.121-2.819c0.102-1.883,0.137-3.756,0.293-5.649
			l0.465-5.684l0.734-5.727c0.375-1.918,0.684-3.838,1.123-5.758l0.742-2.878c0.129-0.479,0.239-0.962,0.385-1.438l0.479-1.422
			l0.967-2.844l1.165-2.768l0.593-1.379L196.43,164l1.344-2.648c0.971-1.671,1.901-3.428,2.92-5.014l1.504-2.432l1.525-2.359
			l3.041-4.665c2.012-3.096,4.012-6.149,5.922-9.259c0.963-1.549,1.938-3.09,2.856-4.664l2.81-4.688
			c0.059-0.099,0.121-0.194,0.185-0.287l0.092-0.13c1.944-2.785,3.735-5.722,5.289-8.837c1.538-3.123,2.983-6.323,4.159-9.662
			c1.181-3.329,2.302-6.703,3.172-10.157c0.895-3.443,1.639-6.933,2.232-10.43c0.277-1.749,0.529-3.496,0.717-5.235
			c0.095-0.868,0.152-1.725,0.23-2.589c0.035-0.824,0.098-1.734,0.104-2.483l0.037-5.565c-0.101-1.709-0.145-3.409-0.27-5.135
			c-0.203-1.737-0.308-3.5-0.583-5.227l-0.437-2.586l-0.201-1.299l-0.292-1.274L232.2,54.82c-0.175-0.861-0.485-1.673-0.72-2.514
			c-0.264-0.831-0.48-1.683-0.779-2.501l-0.932-2.444l-0.469-1.226l-0.539-1.192l-1.076-2.396l-1.242-2.315l-0.623-1.163
			l-0.697-1.116l-1.409-2.237l-1.555-2.145l-0.781-1.075l-0.849-1.024c-0.571-0.679-1.118-1.383-1.713-2.047
			c-2.389-2.646-5.004-5.119-7.818-7.389c-2.854-2.212-5.835-4.32-9.018-6.12c-3.188-1.785-6.487-3.411-9.894-4.822
			c-3.419-1.368-6.92-2.567-10.491-3.535c-3.564-0.992-7.201-1.734-10.863-2.305C167.075,4.672,163.377,4.342,159.679,4.188z
			 M159.7,3.188c3.749,0.086,7.479,0.434,11.198,0.885c3.717,0.477,7.42,1.09,11.088,1.893c3.666,0.816,7.309,1.768,10.906,2.91
			c3.603,1.135,7.14,2.505,10.607,4.068c3.461,1.583,6.837,3.393,10.104,5.431c3.232,2.088,6.336,4.418,9.258,7.006
			c0.727,0.649,1.41,1.346,2.119,2.021l1.055,1.022l0.992,1.083L229,31.698l1.822,2.325l0.906,1.171l0.83,1.225l1.658,2.463
			l1.489,2.57l0.744,1.291c0.231,0.438,0.432,0.891,0.647,1.336l1.275,2.69c0.411,0.904,0.738,1.838,1.109,2.759
			c0.344,0.929,0.764,1.839,1.041,2.788l0.889,2.837l0.441,1.422l0.349,1.441l0.666,2.894c0.421,1.934,0.659,3.889,0.993,5.838
			c0.236,1.981,0.373,4.006,0.556,6.012c0.091,1.911,0.122,3.739,0.166,5.613c0.021,1.114-0.022,2.066-0.04,3.104
			c-0.061,0.994-0.104,1.998-0.182,2.985c-0.157,1.972-0.383,3.92-0.637,5.86c-0.526,3.873-1.304,7.687-2.219,11.472
			c-0.904,3.786-2.033,7.528-3.355,11.216c-1.293,3.697-2.898,7.313-4.649,10.872c-1.81,3.54-3.926,6.965-6.29,10.263l0.275-0.417
			c-1.975,3.193-3.952,6.389-6.029,9.512c-2.039,3.146-4.165,6.234-6.257,9.296l-3.128,4.562c-1.047,1.516-2.047,3.017-3.024,4.51
			c-1.026,1.498-1.864,2.994-2.804,4.492l-1.232,2.267l-0.615,1.134l-0.533,1.154l-1.063,2.315l-0.887,2.388l-0.446,1.192
			c-0.138,0.404-0.241,0.822-0.366,1.233l-0.72,2.475c-0.438,1.674-0.763,3.401-1.155,5.102l-0.865,5.257l-0.646,5.358
			c-0.219,1.785-0.322,3.612-0.49,5.418l-0.232,2.719l-0.184,2.738l-0.365,5.479l-0.012-0.434c0.004,0.617-0.007,1.237-0.063,1.854
			c-0.06,0.316-0.128,0.633-0.204,0.945c-0.086,0.312-0.139,0.632-0.273,0.925c-0.265,0.577-0.508,1.206-0.869,1.696
			c-0.178,0.252-0.359,0.5-0.547,0.744c-0.184,0.256-0.383,0.467-0.591,0.657l-0.626,0.589c-0.211,0.205-0.427,0.354-0.645,0.504
			c-0.434,0.289-0.881,0.635-1.316,0.832c-0.438,0.215-0.888,0.465-1.322,0.625l-1.313,0.471l-0.041,0.015
			c-0.219,0.079-0.453,0.127-0.674,0.147c-2.629,0.226-5.235,0.471-7.897,0.662c-1.327,0.094-2.643,0.221-3.978,0.289l-4.002,0.209
			c-2.662,0.152-5.354,0.123-8.021,0.19l-4.018-0.101c-1.338-0.051-2.676-0.031-4.012-0.144l-4.004-0.312
			c-1.335-0.119-2.662-0.166-4.002-0.383l-4.008-0.516c-1.325-0.189-2.691-0.301-3.963-0.582l-3.873-0.74l-1.937-0.371l-0.969-0.182
			l-0.243-0.043l-0.121-0.021l-0.061-0.012l-0.123-0.023l-0.019-0.006l-0.036-0.011l-0.583-0.168
			c-1.556-0.442-3.165-1.517-4.099-2.922c-0.957-1.391-1.385-2.873-1.721-4.306c-0.022-0.098-0.035-0.192-0.037-0.288v-0.015
			l-0.092-4.684c-0.015-1.563-0.103-3.118-0.163-4.676c-0.057-1.559-0.134-3.114-0.234-4.664c-0.087-1.553-0.178-3.105-0.321-4.646
			c-0.12-1.547-0.254-3.09-0.456-4.617c-0.102-0.766-0.184-1.534-0.301-2.295l-0.384-2.273c-0.223-1.523-0.609-3.006-0.93-4.504
			c-0.399-1.477-0.793-2.953-1.271-4.405c-0.5-1.444-0.965-2.899-1.583-4.308c-0.294-0.708-0.571-1.422-0.879-2.124l-0.966-2.097
			c-0.615-1.405-1.366-2.767-2.059-4.145c-0.689-1.378-1.467-2.73-2.206-4.092c-0.741-1.359-1.552-2.697-2.323-4.047l-2.375-4.029
			c-1.58-2.688-3.219-5.357-4.85-8.025l0.283,0.414l-2.638-3.044l-2.526-3.122l-2.43-3.188c-0.811-1.063-1.562-2.164-2.347-3.247
			c-0.791-1.079-1.518-2.196-2.27-3.3c-0.756-1.101-1.49-2.218-2.188-3.356c-0.709-1.132-1.429-2.259-2.098-3.418
			c-0.672-1.157-1.382-2.292-2.022-3.471l-1.943-3.527l-1.83-3.604l-1.711-3.687c-0.55-1.244-1.045-2.522-1.569-3.784
			c-0.493-1.283-0.941-2.601-1.411-3.902c-0.409-1.353-0.814-2.692-1.16-4.089c-0.286-1.446-0.667-2.804-0.794-4.385l-0.128-1.152
			c-0.049-0.378-0.083-0.765-0.062-1.204c0.013-0.848,0.039-1.697,0.077-2.543l-0.021,0.741l-0.112-4.204
			c0.011-1.402,0.069-2.805,0.122-4.206c0.082-1.4,0.243-2.795,0.363-4.192c0.148-1.394,0.383-2.779,0.593-4.165
			c0.224-1.384,0.564-2.747,0.843-4.119c0.294-1.369,0.704-2.711,1.064-4.063c0.81-2.679,1.746-5.315,2.825-7.888
			c0.526-1.292,1.166-2.534,1.744-3.799c0.599-1.256,1.285-2.469,1.945-3.689c0.674-1.214,1.439-2.376,2.154-3.562
			c0.738-1.172,1.556-2.293,2.329-3.437c0.799-1.126,1.666-2.205,2.494-3.305c0.854-1.081,1.779-2.106,2.667-3.154
			c0.921-1.021,1.884-2.003,2.821-3.001c0.972-0.967,1.975-1.902,2.958-2.85l3.087-2.693l3.206-2.533l3.318-2.366l3.422-2.194
			l3.501-2.043l3.585-1.873l3.666-1.692l3.733-1.514c1.264-0.453,2.516-0.93,3.783-1.36l3.837-1.179
			c1.295-0.336,2.581-0.698,3.879-1.01l3.918-0.826c1.316-0.217,2.628-0.458,3.947-0.654l3.972-0.463l3.998-0.294l3.97-0.092
			C159.68,3.188,159.692,3.188,159.7,3.188z"/>
	</g>
</g>
<g>
	<path fill="#FCD304" d="M130.232,227.375c18.059,3.307,42.051,4.027,59.536-0.852"/>
	<path fill="#B19130" d="M130.232,227.375c0,0,0.242-0.029,0.695-0.084c0.451-0.035,1.118-0.127,1.954-0.167
		c0.838-0.05,1.858-0.126,3.02-0.153c1.166-0.014,2.466-0.076,3.865-0.144c1.401-0.052,2.907-0.081,4.488-0.079
		c1.583-0.005,3.275-0.094,5.002-0.082c0.866-0.014,1.744,0.001,2.632,0.016c0.888,0.028,1.788-0.041,2.692-0.029
		c1.811-0.035,3.647-0.006,5.483,0.018c1.833-0.018,3.664-0.07,5.471-0.041c0.901-0.011,1.803,0.036,2.687,0.023
		c0.881-0.024,1.754-0.058,2.613-0.055c1.719-0.037,3.396,0.03,4.979,0.008c1.574-0.057,3.076-0.078,4.475-0.076
		c1.4,0.018,2.695,0.047,3.824-0.03c1.138-0.046,2.148-0.038,2.984-0.043c0.834-0.017,1.508,0.028,1.963,0.034
		c0.461,0.023,0.707,0.035,0.707,0.035s-0.211,0.117-0.605,0.336c-0.401,0.203-0.98,0.537-1.747,0.889
		c-0.763,0.361-1.69,0.816-2.78,1.283c-0.544,0.229-1.124,0.501-1.746,0.708c-0.628,0.196-1.287,0.401-1.976,0.616
		c-1.384,0.414-2.896,0.839-4.507,1.254c-1.613,0.369-3.329,0.625-5.111,0.906c-1.781,0.28-3.631,0.539-5.514,0.601
		c-1.881,0.123-3.797,0.19-5.711,0.243c-1.911-0.06-3.823-0.111-5.701-0.229c-1.88-0.064-3.719-0.312-5.494-0.559
		c-1.776-0.254-3.481-0.485-5.102-0.828c-1.62-0.357-3.141-0.729-4.534-1.094c-0.693-0.188-1.358-0.371-1.99-0.545
		c-0.625-0.193-1.203-0.396-1.751-0.596c-1.095-0.386-2.042-0.772-2.823-1.078c-0.783-0.298-1.389-0.591-1.806-0.765
		C130.453,227.479,130.232,227.375,130.232,227.375z"/>
</g>
<g>
	<path fill="#FCD304" d="M130.332,235.48c17.078,3.308,39.555,4.055,59.336-0.379"/>
	<path fill="#B19130" d="M130.332,235.48c0,0,0.241-0.027,0.693-0.078c0.449-0.031,1.114-0.118,1.947-0.15
		c0.835-0.042,1.852-0.109,3.008-0.128c1.162,0.002,2.45-0.09,3.842-0.131c1.392-0.042,2.888-0.062,4.458-0.052
		c1.591-0.055,3.262-0.092,4.982-0.084c0.859,0.006,1.733,0.011,2.617,0.016c0.885-0.025,1.78-0.048,2.681-0.045
		c0.9,0.002,1.809-0.021,2.719,0.001c0.91,0.015,1.824,0.045,2.737-0.002c1.826-0.019,3.652-0.05,5.455-0.009
		c1.801,0.033,3.565-0.063,5.286-0.038c1.718-0.015,3.394,0.085,4.968,0.016c1.58-0.022,3.084-0.013,4.481,0.021
		c1.403,0.067,2.681,0.039,3.821,0.037c1.142-0.002,2.152,0.045,2.986,0.072c0.83,0.018,1.5,0.09,1.951,0.112
		c0.457,0.041,0.7,0.063,0.7,0.063s-0.215,0.107-0.618,0.312c-0.406,0.187-0.999,0.497-1.771,0.817
		c-0.771,0.332-1.709,0.748-2.801,1.168c-0.55,0.209-1.134,0.431-1.748,0.664c-0.619,0.231-1.281,0.383-1.97,0.592
		c-1.38,0.383-2.885,0.771-4.485,1.15c-1.602,0.416-3.31,0.639-5.08,0.896c-0.885,0.135-1.787,0.238-2.703,0.352
		c-0.913,0.122-1.84,0.231-2.776,0.256c-1.872,0.111-3.776,0.155-5.683,0.211c-1.905,0.027-3.808-0.106-5.679-0.211
		c-1.872-0.095-3.709-0.258-5.476-0.543c-1.769-0.25-3.472-0.535-5.079-0.826c-1.615-0.368-3.131-0.75-4.518-1.125
		c-1.386-0.381-2.653-0.728-3.727-1.152c-1.087-0.396-2.025-0.791-2.801-1.104c-0.777-0.304-1.377-0.603-1.791-0.778
		C130.551,235.585,130.332,235.48,130.332,235.48z"/>
</g>
<g>
	<path fill="#FCD304" d="M130.626,244.45c17.979,3.491,41.825,3.582,58.748-0.784"/>
	<path fill="#B19130" d="M130.626,244.45c0,0,0.239-0.028,0.687-0.081c0.445-0.034,1.104-0.124,1.93-0.16
		c0.828-0.048,1.835-0.12,2.981-0.145c0.572-0.013,1.18-0.024,1.822-0.039c0.632-0.032,1.296-0.066,1.989-0.104
		c1.379-0.056,2.861-0.092,4.415-0.096c1.553,0.001,3.226-0.111,4.925-0.107c1.707-0.027,3.461,0.021,5.248-0.045
		c1.786-0.048,3.597-0.031,5.408-0.021c1.81-0.008,3.617-0.086,5.4-0.062c0.893-0.011,1.778,0.015,2.653,0.021
		c0.871-0.024,1.731-0.058,2.583-0.058c1.697-0.031,3.354,0.014,4.92,0.021c1.559-0.048,3.042-0.062,4.424-0.05
		c1.383,0.019,2.663,0.072,3.781,0.019c1.125-0.026,2.124-0.002,2.949,0.007c0.822-0.002,1.488,0.055,1.938,0.067
		c0.453,0.03,0.695,0.047,0.695,0.047s-0.21,0.112-0.604,0.326c-0.397,0.194-0.976,0.521-1.733,0.858
		c-0.757,0.349-1.679,0.787-2.755,1.233c-1.072,0.489-2.313,0.868-3.678,1.276c-1.363,0.404-2.854,0.816-4.44,1.222
		c-1.591,0.341-3.28,0.618-5.035,0.894c-0.876,0.146-1.771,0.262-2.677,0.387c-0.906,0.104-1.825,0.16-2.752,0.218
		c-1.854,0.129-3.741,0.22-5.628,0.267c-1.886-0.048-3.772-0.087-5.625-0.188c-1.855-0.05-3.672-0.302-5.426-0.529
		c-1.756-0.245-3.438-0.453-5.043-0.803c-1.604-0.353-3.109-0.72-4.486-1.079c-0.685-0.188-1.341-0.368-1.966-0.539
		c-0.613-0.199-1.183-0.402-1.722-0.604c-1.078-0.39-2.009-0.779-2.777-1.088c-0.771-0.3-1.366-0.596-1.776-0.771
		C130.843,244.555,130.626,244.45,130.626,244.45z"/>
</g>
<g>
	<path fill="#E6B24F" d="M142.376,181.01l2.654,37.579c10.46,2.287,21.347,1.815,30.264-0.668l2.33-37.25
		C166.259,182.723,154.627,183.377,142.376,181.01L142.376,181.01z"/>
	<g>
		<path fill="#B19130" d="M142.376,181.01c1.595,6.182,2.793,12.393,3.891,18.608l0.785,4.665l0.732,4.67l0.673,4.673
			c0.23,1.558,0.416,3.118,0.625,4.677l-3.185-3.683c1.188,0.144,2.372,0.272,3.545,0.44c1.186,0.104,2.375,0.172,3.557,0.264
			c0.591,0.046,1.189,0.021,1.782,0.037l1.778,0.046c0.591,0.032,1.186-0.028,1.777-0.037l1.774-0.06
			c0.592,0,1.179-0.097,1.767-0.133l1.764-0.138c0.592-0.026,1.168-0.142,1.752-0.214l1.744-0.24
			c0.586-0.063,1.148-0.22,1.725-0.318l1.723-0.317c0.572-0.108,1.125-0.275,1.688-0.409l1.686-0.421l-3.637,4.489
			c0.152-3.106,0.408-6.207,0.611-9.312c0.099-1.552,0.24-3.101,0.365-4.651l0.387-4.649c0.312-3.097,0.57-6.196,0.924-9.291
			c0.328-3.097,0.686-6.188,1.08-9.281l4.637,4.127c-1.516,0.166-3.033,0.306-4.549,0.437c-1.528,0.08-3.049,0.189-4.572,0.231
			l-2.293,0.011c-0.764-0.004-1.521,0.025-2.287-0.01l-2.289-0.117c-0.762-0.049-1.521-0.062-2.281-0.139l-2.275-0.254
			c-0.756-0.096-1.511-0.146-2.262-0.279l-2.248-0.396c-0.747-0.136-1.492-0.255-2.231-0.429c-1.477-0.359-2.943-0.724-4.392-1.127
			C145.209,181.986,143.779,181.536,142.376,181.01z M142.376,181.01c1.513-0.048,2.998-0.021,4.477-0.035l4.418-0.158
			c0.731-0.03,1.465-0.116,2.192-0.158l2.178-0.158c1.449-0.141,2.892-0.314,4.325-0.471c1.435-0.188,2.864-0.414,4.286-0.617
			l4.251-0.753l4.222-0.878c1.402-0.333,2.799-0.682,4.198-0.99c2.058-0.454,4.093,0.845,4.548,2.9
			c0.059,0.267,0.088,0.531,0.09,0.795v0.432c0.006,3.117-0.023,6.23-0.084,9.344c-0.035,3.114-0.164,6.223-0.242,9.334
			l-0.196,4.662c-0.067,1.555-0.12,3.108-0.218,4.661c-0.184,3.104-0.316,6.212-0.553,9.313l-0.019,0.248
			c-0.16,2.101-1.675,3.775-3.618,4.242l-2.027,0.481c-0.676,0.151-1.35,0.338-2.027,0.459l-2.039,0.353
			c-0.682,0.099-1.359,0.242-2.045,0.295l-2.049,0.199c-0.684,0.057-1.363,0.155-2.049,0.164l-2.049,0.079
			c-0.684,0.019-1.365,0.06-2.049,0.022l-2.045-0.066c-0.681-0.035-1.363-0.02-2.041-0.098l-2.035-0.188
			c-0.676-0.078-1.354-0.121-2.027-0.234c-1.344-0.227-2.688-0.433-4.022-0.682c-1.33-0.296-2.649-0.63-3.965-0.951l-0.337-0.082
			c-1.697-0.414-2.836-1.93-2.848-3.601c-0.011-1.573-0.047-3.144-0.038-4.718l0.01-4.723l0.069-4.726l0.122-4.729
			C141.352,193.671,141.666,187.354,142.376,181.01z"/>
	</g>
</g>
<g>
	<path fill="#E6B24F" d="M146.567,167.948l-19.822-86.726c26.728,11.607,47.538,4.472,66.51-2.343l-24.081,88.742
		C161.645,169.046,154.764,169.713,146.567,167.948L146.567,167.948z"/>
	<g>
		<path fill="#B19130" d="M146.567,167.948c-1.17-3.535-2.31-7.077-3.401-10.63c-1.077-3.557-2.211-7.101-3.241-10.666
			l-3.133-10.691c-1.04-3.565-2.03-7.141-3.043-10.712l-2.95-10.732l-2.878-10.749l-2.813-10.764l-2.74-10.781
			c-0.602-2.37,0.831-4.78,3.201-5.382c0.907-0.23,1.819-0.163,2.634,0.141l0.331,0.123l3.794,1.409l0.946,0.354l0.963,0.29
			l1.925,0.581c0.644,0.184,1.277,0.411,1.927,0.561l1.95,0.446l1.947,0.449c0.652,0.13,1.312,0.212,1.964,0.329
			c1.31,0.215,2.614,0.467,3.937,0.554c1.319,0.114,2.631,0.302,3.958,0.3c1.324,0.024,2.644,0.13,3.971,0.045
			c1.325-0.06,2.649-0.031,3.976-0.183c1.326-0.118,2.651-0.192,3.976-0.411c1.325-0.181,2.65-0.352,3.973-0.631l1.984-0.375
			l1.979-0.458l1.983-0.456l1.98-0.527c1.32-0.333,2.643-0.734,3.964-1.131c1.321-0.378,2.646-0.832,3.97-1.254
			c1.321-0.419,2.652-0.904,3.981-1.343l4.017-1.38l0.116-0.04c2.541-0.873,5.308,0.479,6.181,3.019
			c0.336,0.976,0.342,1.984,0.08,2.907l-3.137,11.059l-3.203,11.041l-3.271,11.021l-3.337,11.004l-3.407,10.985l-3.483,10.964
			l-3.57,10.939l-3.686,10.91l-0.074,0.221c-0.199,0.592-0.723,0.986-1.306,1.055l-2.875,0.334l-2.897,0.215
			c-0.975,0.031-1.941,0.074-2.91,0.095l-1.458-0.019c-0.485-0.012-0.968,0.002-1.453-0.031l-1.452-0.098
			c-0.483-0.041-0.965-0.043-1.445-0.117l-1.438-0.2c-0.477-0.075-0.956-0.114-1.428-0.22l-1.415-0.291
			c-0.469-0.103-0.941-0.178-1.405-0.301L146.567,167.948z M146.567,167.948l2.841,0.245c0.471,0.043,0.947,0.037,1.418,0.058
			l1.413,0.043c0.469,0.022,0.942-0.021,1.411-0.026l1.405-0.047c0.467-0.008,0.935-0.066,1.401-0.098l1.395-0.112
			c0.464-0.036,0.927-0.118,1.389-0.176l1.384-0.188c0.92-0.154,1.838-0.334,2.752-0.498c1.826-0.396,3.646-0.815,5.467-1.268
			l-1.38,1.275l2.336-11.275l2.449-11.245l2.536-11.221l2.612-11.201l2.685-11.181l2.749-11.164l2.816-11.145l2.885-11.127
			l6.376,5.886c-2.691,0.998-5.401,1.995-8.175,2.92c-1.394,0.456-2.769,0.937-4.188,1.356c-1.41,0.434-2.819,0.872-4.265,1.249
			l-2.152,0.587l-2.188,0.514l-2.195,0.489l-2.227,0.407c-1.478,0.297-2.984,0.487-4.49,0.681c-1.498,0.231-3.024,0.316-4.544,0.437
			c-1.516,0.153-3.051,0.134-4.579,0.157c-1.528,0.057-3.06-0.084-4.589-0.149c-1.532-0.039-3.049-0.274-4.57-0.443
			c-1.527-0.141-3.025-0.452-4.527-0.733c-0.75-0.146-1.504-0.272-2.246-0.448l-2.209-0.586l-2.206-0.59
			c-0.734-0.2-1.441-0.474-2.162-0.708l-2.152-0.733l-1.074-0.368l-1.046-0.431l-4.168-1.75l6.166-5.119l2.215,10.901l2.143,10.917
			l2.077,10.932l2.005,10.949c0.64,3.656,1.3,7.307,1.913,10.97l1.823,10.991c0.622,3.66,1.14,7.345,1.715,11.015
			C145.574,160.57,146.086,164.256,146.567,167.948z"/>
	</g>
</g>
<g>
	<g>
		<g>
			<line fill="none" x1="76.571" y1="29.762" x2="56.809" y2="10"/>
			<path fill="#B19130" d="M76.218,30.115c0,0-0.416-0.201-1.124-0.575c-0.358-0.183-0.784-0.413-1.267-0.682
				c-0.482-0.271-1.041-0.562-1.624-0.905c-1.171-0.682-2.541-1.473-3.974-2.356c-1.432-0.883-2.911-1.875-4.368-2.888
				c-0.73-0.505-1.533-0.937-2.332-1.354c-0.796-0.42-1.557-0.855-2.152-1.418c-0.594-0.564-1.057-1.22-1.418-1.92
				c-0.378-0.683-0.676-1.389-0.902-2.089c-0.235-0.691-0.39-1.386-0.497-2.031c-0.117-0.636-0.148-1.261-0.17-1.779
				c-0.019-0.521-0.008-0.957,0.021-1.275c0.028-0.318,0.044-0.488,0.044-0.488c0.035-0.382,0.338-0.674,0.707-0.707
				c0,0,0.17-0.016,0.488-0.044c0.318-0.029,0.754-0.041,1.275-0.021c0.518,0.022,1.143,0.053,1.779,0.17
				c0.645,0.107,1.34,0.261,2.031,0.497c0.7,0.226,1.406,0.523,2.089,0.901c0.7,0.362,1.356,0.825,1.92,1.418
				c0.563,0.595,0.999,1.356,1.418,2.152c0.417,0.798,0.849,1.602,1.354,2.332c1.013,1.458,2.005,2.937,2.889,4.368
				c0.883,1.433,1.674,2.803,2.356,3.974c0.343,0.583,0.634,1.141,0.905,1.624c0.27,0.483,0.5,0.909,0.682,1.267
				c0.374,0.708,0.575,1.124,0.575,1.124c0.127,0.263,0.017,0.58-0.246,0.707C76.528,30.188,76.358,30.182,76.218,30.115z"/>
		</g>
		<g>
			<line fill="none" x1="60.922" y1="54.572" x2="35.031" y2="44.047"/>
			<path fill="#B19130" d="M60.733,55.035c0,0-0.461-0.024-1.258-0.093c-0.401-0.029-0.883-0.075-1.433-0.135
				c-0.55-0.062-1.177-0.113-1.848-0.203c-1.344-0.173-2.914-0.369-4.577-0.625c-1.663-0.257-3.411-0.597-5.147-0.963
				c-0.869-0.182-1.777-0.267-2.675-0.341c-0.896-0.077-1.767-0.183-2.534-0.471c-0.767-0.288-1.449-0.713-2.054-1.217
				c-0.614-0.483-1.163-1.018-1.643-1.575c-0.486-0.545-0.898-1.125-1.248-1.678c-0.355-0.54-0.626-1.104-0.849-1.572
				c-0.22-0.473-0.38-0.878-0.477-1.183c-0.097-0.305-0.149-0.467-0.149-0.467c-0.116-0.365,0.05-0.753,0.377-0.927
				c0,0,0.15-0.08,0.432-0.23c0.282-0.151,0.679-0.33,1.167-0.515c0.486-0.181,1.074-0.395,1.705-0.535
				c0.636-0.152,1.336-0.28,2.064-0.332c0.733-0.064,1.5-0.064,2.276,0.019c0.786,0.061,1.57,0.232,2.321,0.56
				c0.75,0.329,1.447,0.861,2.144,1.431c0.695,0.573,1.405,1.146,2.154,1.622c1.5,0.949,2.988,1.925,4.359,2.901
				c1.371,0.977,2.632,1.932,3.716,2.746c0.543,0.403,1.028,0.804,1.465,1.144c0.436,0.34,0.813,0.644,1.121,0.902
				c0.619,0.507,0.967,0.812,0.967,0.812c0.219,0.193,0.241,0.528,0.048,0.747C61.048,54.981,60.889,55.042,60.733,55.035z"/>
		</g>
		<g>
			<line fill="none" x1="76.571" y1="124.811" x2="56.809" y2="144.572"/>
			<path fill="#B19130" d="M76.925,125.164c0,0-0.201,0.416-0.575,1.124c-0.183,0.358-0.413,0.784-0.682,1.267
				c-0.271,0.482-0.562,1.041-0.905,1.624c-0.682,1.171-1.473,2.541-2.356,3.974c-0.884,1.432-1.875,2.91-2.889,4.367
				c-0.505,0.73-0.937,1.535-1.354,2.332c-0.419,0.797-0.855,1.558-1.418,2.151c-0.564,0.595-1.22,1.058-1.92,1.419
				c-0.683,0.378-1.389,0.676-2.089,0.901c-0.691,0.235-1.386,0.39-2.031,0.497c-0.636,0.117-1.261,0.146-1.779,0.171
				c-0.521,0.019-0.957,0.008-1.275-0.021c-0.318-0.029-0.488-0.045-0.488-0.045c-0.382-0.033-0.674-0.339-0.707-0.707
				c0,0-0.016-0.17-0.044-0.488c-0.029-0.317-0.04-0.754-0.021-1.274c0.022-0.519,0.053-1.144,0.17-1.778
				c0.107-0.646,0.262-1.341,0.497-2.031c0.226-0.699,0.524-1.405,0.902-2.09c0.361-0.699,0.824-1.355,1.418-1.919
				c0.595-0.563,1.355-0.999,2.152-1.418c0.798-0.417,1.602-0.849,2.332-1.354c1.457-1.013,2.936-2.005,4.368-2.888
				c1.433-0.883,2.803-1.674,3.974-2.356c0.583-0.343,1.141-0.635,1.624-0.905s0.909-0.5,1.267-0.682
				c0.708-0.374,1.124-0.575,1.124-0.575c0.263-0.127,0.58-0.017,0.707,0.246C76.998,124.854,76.992,125.024,76.925,125.164z"/>
		</g>
		<g>
			<line fill="none" x1="60.922" y1="100" x2="35.031" y2="110.525"/>
			<path fill="#B19130" d="M61.11,100.463c0,0-0.348,0.305-0.967,0.812c-0.307,0.259-0.685,0.562-1.121,0.902
				c-0.437,0.339-0.922,0.74-1.465,1.144c-1.083,0.814-2.345,1.769-3.716,2.746c-1.371,0.976-2.859,1.952-4.359,2.901
				c-0.75,0.476-1.459,1.049-2.154,1.622c-0.696,0.57-1.394,1.102-2.144,1.431s-1.535,0.5-2.321,0.561
				c-0.776,0.083-1.542,0.083-2.276,0.019c-0.728-0.052-1.428-0.18-2.064-0.332c-0.631-0.14-1.219-0.354-1.705-0.535
				c-0.488-0.185-0.885-0.364-1.167-0.515c-0.282-0.15-0.432-0.229-0.432-0.229c-0.338-0.18-0.49-0.574-0.377-0.927
				c0,0,0.052-0.162,0.149-0.467c0.097-0.305,0.256-0.71,0.477-1.183c0.222-0.468,0.494-1.032,0.849-1.572
				c0.35-0.553,0.762-1.133,1.248-1.678c0.48-0.557,1.029-1.092,1.643-1.575c0.605-0.504,1.287-0.929,2.053-1.218
				c0.767-0.288,1.638-0.393,2.534-0.47c0.898-0.075,1.806-0.16,2.675-0.341c1.736-0.367,3.484-0.706,5.147-0.963
				c1.663-0.257,3.233-0.453,4.577-0.625c0.671-0.09,1.298-0.141,1.848-0.203c0.55-0.061,1.032-0.106,1.433-0.135
				c0.797-0.069,1.258-0.093,1.258-0.093c0.292-0.015,0.541,0.209,0.556,0.501C61.298,100.206,61.226,100.36,61.11,100.463z"/>
		</g>
	</g>
	<g>
		<g>
			<line fill="none" x1="245.029" y1="124.811" x2="264.793" y2="144.572"/>
			<path fill="#B19130" d="M245.384,124.457c0,0,0.416,0.201,1.123,0.575c0.358,0.183,0.784,0.413,1.269,0.682
				c0.481,0.271,1.039,0.562,1.623,0.905c1.17,0.682,2.541,1.473,3.975,2.356c1.434,0.883,2.911,1.875,4.368,2.888
				c0.729,0.505,1.532,0.937,2.332,1.354c0.796,0.419,1.557,0.855,2.151,1.418c0.594,0.564,1.057,1.221,1.418,1.92
				c0.379,0.685,0.676,1.391,0.901,2.09c0.235,0.69,0.39,1.387,0.497,2.031c0.117,0.637,0.146,1.262,0.171,1.778
				c0.019,0.521,0.009,0.957-0.021,1.274c-0.028,0.318-0.045,0.488-0.045,0.488c-0.033,0.383-0.338,0.674-0.707,0.707
				c0,0-0.17,0.016-0.487,0.044c-0.318,0.029-0.754,0.04-1.274,0.021c-0.519-0.023-1.144-0.054-1.779-0.171
				c-0.646-0.107-1.34-0.262-2.03-0.498c-0.7-0.226-1.406-0.522-2.091-0.9c-0.699-0.361-1.355-0.824-1.92-1.419
				c-0.563-0.594-0.998-1.354-1.418-2.151c-0.418-0.798-0.85-1.602-1.354-2.332c-1.013-1.457-2.005-2.935-2.89-4.367
				c-0.883-1.433-1.674-2.803-2.354-3.974c-0.344-0.583-0.635-1.141-0.905-1.624c-0.27-0.483-0.5-0.909-0.682-1.267
				c-0.374-0.708-0.574-1.124-0.574-1.124c-0.127-0.263-0.019-0.58,0.245-0.707C245.073,124.384,245.244,124.39,245.384,124.457z"/>
		</g>
		<g>
			<line fill="none" x1="260.68" y1="100" x2="286.57" y2="110.525"/>
			<path fill="#B19130" d="M260.868,99.537c0,0,0.462,0.024,1.259,0.093c0.4,0.029,0.883,0.075,1.434,0.135
				c0.549,0.062,1.176,0.113,1.847,0.203c1.344,0.173,2.913,0.369,4.577,0.625c1.664,0.257,3.41,0.597,5.146,0.963
				c0.869,0.182,1.777,0.267,2.676,0.341c0.896,0.077,1.768,0.183,2.533,0.471s1.448,0.713,2.055,1.217
				c0.613,0.483,1.162,1.018,1.644,1.575c0.485,0.545,0.897,1.125,1.247,1.678c0.355,0.54,0.627,1.104,0.849,1.572
				c0.222,0.473,0.38,0.878,0.478,1.183c0.098,0.305,0.148,0.467,0.148,0.467c0.116,0.365-0.05,0.753-0.377,0.927
				c0,0-0.15,0.08-0.433,0.23c-0.282,0.151-0.679,0.33-1.166,0.515c-0.486,0.181-1.074,0.395-1.705,0.535
				c-0.638,0.152-1.337,0.28-2.065,0.332c-0.731,0.064-1.498,0.064-2.275-0.019c-0.784-0.061-1.569-0.232-2.319-0.56
				c-0.751-0.329-1.446-0.861-2.144-1.431c-0.695-0.573-1.405-1.146-2.154-1.622c-1.5-0.949-2.989-1.925-4.36-2.901
				c-1.37-0.977-2.632-1.932-3.715-2.746c-0.543-0.403-1.028-0.804-1.465-1.144c-0.437-0.34-0.813-0.644-1.121-0.902
				c-0.619-0.507-0.967-0.812-0.967-0.812c-0.22-0.193-0.241-0.528-0.048-0.747C260.555,99.591,260.713,99.53,260.868,99.537z"/>
		</g>
		<g>
			<line fill="none" x1="245.029" y1="29.762" x2="264.793" y2="10"/>
			<path fill="#B19130" d="M244.677,29.408c0,0,0.201-0.416,0.575-1.124c0.182-0.358,0.412-0.784,0.682-1.267
				c0.271-0.482,0.563-1.041,0.905-1.624c0.683-1.171,1.474-2.541,2.354-3.974c0.885-1.432,1.877-2.911,2.89-4.368
				c0.506-0.729,0.938-1.533,1.354-2.332c0.42-0.796,0.854-1.557,1.418-2.152c0.563-0.594,1.221-1.057,1.92-1.418
				c0.685-0.378,1.391-0.676,2.091-0.902c0.69-0.235,1.386-0.389,2.03-0.497c0.637-0.117,1.262-0.148,1.778-0.17
				c0.521-0.02,0.957-0.008,1.275,0.021c0.317,0.029,0.487,0.044,0.487,0.044c0.383,0.035,0.675,0.338,0.707,0.707
				c0,0,0.017,0.17,0.045,0.488c0.029,0.318,0.039,0.754,0.021,1.275c-0.022,0.518-0.054,1.143-0.171,1.779
				c-0.107,0.646-0.262,1.34-0.497,2.031c-0.228,0.7-0.522,1.406-0.901,2.089c-0.361,0.7-0.824,1.356-1.418,1.92
				c-0.596,0.563-1.355,0.999-2.151,1.418c-0.8,0.417-1.603,0.849-2.332,1.354c-1.457,1.013-2.937,2.005-4.368,2.888
				c-1.432,0.883-2.805,1.674-3.975,2.356c-0.584,0.343-1.142,0.635-1.623,0.905c-0.483,0.269-0.909,0.499-1.269,0.682
				c-0.707,0.374-1.123,0.575-1.123,0.575c-0.263,0.127-0.579,0.017-0.707-0.246C244.604,29.719,244.609,29.548,244.677,29.408z"/>
		</g>
		<g>
			<line fill="none" x1="260.68" y1="54.572" x2="286.57" y2="44.047"/>
			<path fill="#B19130" d="M260.491,54.109c0,0,0.348-0.305,0.967-0.812c0.308-0.259,0.685-0.562,1.121-0.902
				c0.437-0.339,0.922-0.74,1.465-1.144c1.083-0.814,2.345-1.769,3.715-2.746c1.371-0.976,2.86-1.952,4.36-2.901
				c0.749-0.476,1.459-1.049,2.154-1.622c0.694-0.57,1.393-1.102,2.144-1.431c0.75-0.329,1.535-0.5,2.319-0.561
				c0.777-0.083,1.543-0.083,2.275-0.019c0.729,0.052,1.43,0.18,2.064,0.332c0.632,0.14,1.22,0.354,1.705,0.535
				c0.488,0.185,0.885,0.364,1.166,0.515c0.283,0.15,0.434,0.23,0.434,0.23c0.339,0.18,0.489,0.574,0.377,0.927
				c0,0-0.052,0.162-0.148,0.467c-0.098,0.305-0.256,0.71-0.478,1.183c-0.222,0.468-0.493,1.032-0.849,1.572
				c-0.35,0.553-0.762,1.133-1.247,1.678c-0.479,0.557-1.029,1.092-1.644,1.575c-0.605,0.504-1.287,0.929-2.055,1.218
				c-0.768,0.288-1.637,0.393-2.533,0.47c-0.897,0.075-1.807,0.16-2.676,0.341c-1.736,0.367-3.482,0.706-5.146,0.963
				c-1.664,0.257-3.232,0.453-4.577,0.625c-0.671,0.09-1.298,0.141-1.847,0.203c-0.551,0.061-1.033,0.106-1.434,0.135
				c-0.797,0.069-1.259,0.093-1.259,0.093c-0.292,0.015-0.541-0.209-0.556-0.501C260.305,54.367,260.375,54.212,260.491,54.109z"/>
		</g>
	</g>
</g>
</svg>
