<?xml version="1.0" encoding="utf-8"?>
<!-- Generator: Adobe Illustrator 16.0.0, SVG Export Plug-In . SVG Version: 6.00 Build 0)  -->
<!DOCTYPE svg PUBLIC "-//W3C//DTD SVG 1.1//EN" "http://www.w3.org/Graphics/SVG/1.1/DTD/svg11.dtd">
<svg version="1.1" id="Layer_1" xmlns="http://www.w3.org/2000/svg" xmlns:xlink="http://www.w3.org/1999/xlink" x="0px" y="0px"
	 width="251.99px" height="270.591px" viewBox="0 0 251.99 270.591" enable-background="new 0 0 251.99 270.591"
	 xml:space="preserve">
<g>
	<g>
		<path fill="#FCB137" d="M108.225,257.111l7.818,8.563c5.49,1.962,10.798,2.105,17.519,0.314l8.603-9.1
			C130.852,259.595,119.53,259.23,108.225,257.111L108.225,257.111z M108.225,257.111"/>
		<g>
			<path fill="#E87746" d="M108.225,257.111c0.818,0.562,1.611,1.146,2.396,1.738c0.774,0.602,1.557,1.195,2.325,1.803
				c1.528,1.222,3.025,2.472,4.497,3.745l-0.761-0.507l2.049,0.384l1.022,0.115c0.34,0.029,0.672,0.103,1.011,0.114l1.011,0.046
				c0.336,0.009,0.667,0.052,1.005,0.023c0.672-0.033,1.333,0.006,2-0.074c0.669-0.09,1.326-0.102,1.993-0.225
				c0.665-0.126,1.324-0.187,1.988-0.355l0.994-0.227c0.332-0.079,0.662-0.127,0.994-0.233l1.987-0.564l-1.502,0.895
				c1.399-1.55,2.778-3.117,4.211-4.635c1.411-1.538,2.861-3.04,4.31-4.543l3.181,5.503c-1.466,0.293-2.939,0.541-4.406,0.811
				c-1.48,0.182-2.966,0.31-4.444,0.464c-1.486,0.058-2.972,0.086-4.45,0.117c-1.482-0.07-2.958-0.122-4.428-0.227
				c-1.467-0.161-2.926-0.351-4.377-0.552c-1.444-0.277-2.88-0.557-4.304-0.876c-1.416-0.372-2.821-0.764-4.209-1.201
				C110.937,258.174,109.569,257.672,108.225,257.111z M108.225,257.111c1.466-0.091,2.909-0.122,4.338-0.128
				c1.439-0.079,2.861-0.121,4.273-0.139c1.417-0.091,2.821-0.149,4.218-0.201c1.397-0.118,2.786-0.222,4.167-0.304
				c1.378-0.177,2.751-0.288,4.118-0.438l4.068-0.582l4.019-0.741c1.324-0.306,2.642-0.632,3.967-0.913l10.318-2.193l-7.138,7.696
				c-1.419,1.53-2.837,3.062-4.293,4.557c-1.436,1.516-2.923,2.981-4.391,4.465l-0.736,0.744l-0.768,0.15l-2.346,0.461
				c-0.386,0.086-0.796,0.119-1.193,0.179l-1.2,0.149c-0.796,0.103-1.627,0.097-2.435,0.146c-0.809,0.057-1.642-0.031-2.456-0.057
				c-0.816-0.031-1.636-0.186-2.446-0.279c-0.406-0.045-0.804-0.163-1.204-0.248l-1.192-0.277c-0.396-0.095-0.778-0.234-1.164-0.359
				l-1.147-0.39c-0.744-0.306-1.477-0.622-2.199-0.95l-0.591-0.269l-0.171-0.238c-1.135-1.581-2.244-3.186-3.322-4.818
				c-0.535-0.819-1.056-1.653-1.584-2.479C109.22,258.819,108.71,257.976,108.225,257.111z"/>
		</g>
	</g>
	<g>
		<path fill="#FCB137" d="M108.225,257.111l7.818,8.563c5.49,1.962,10.798,2.105,17.519,0.314l8.603-9.1
			C130.852,259.595,119.53,259.23,108.225,257.111L108.225,257.111z M108.225,257.111"/>
		<g>
			<path fill="#E87746" d="M108.225,257.111c0.818,0.562,1.611,1.146,2.396,1.738c0.774,0.602,1.557,1.195,2.325,1.803
				c1.528,1.222,3.025,2.472,4.497,3.745l-0.761-0.507l2.049,0.384l1.022,0.115c0.34,0.029,0.672,0.103,1.011,0.114l1.011,0.046
				c0.336,0.009,0.667,0.052,1.005,0.023c0.672-0.033,1.333,0.006,2-0.074c0.669-0.09,1.326-0.102,1.993-0.225
				c0.665-0.126,1.324-0.187,1.988-0.355l0.994-0.227c0.332-0.079,0.662-0.127,0.994-0.233l1.987-0.564l-1.502,0.895
				c1.399-1.55,2.778-3.117,4.211-4.635c1.411-1.538,2.861-3.04,4.31-4.543l3.181,5.503c-1.466,0.293-2.939,0.541-4.406,0.811
				c-1.48,0.182-2.966,0.31-4.444,0.464c-1.486,0.058-2.972,0.086-4.45,0.117c-1.482-0.07-2.958-0.122-4.428-0.227
				c-1.467-0.161-2.926-0.351-4.377-0.552c-1.444-0.277-2.88-0.557-4.304-0.876c-1.416-0.372-2.821-0.764-4.209-1.201
				C110.937,258.174,109.569,257.672,108.225,257.111z M108.225,257.111c1.466-0.091,2.909-0.122,4.338-0.128
				c1.439-0.079,2.861-0.121,4.273-0.139c1.417-0.091,2.821-0.149,4.218-0.201c1.397-0.118,2.786-0.222,4.167-0.304
				c1.378-0.177,2.751-0.288,4.118-0.438l4.068-0.582l4.019-0.741c1.324-0.306,2.642-0.632,3.967-0.913l0.052-0.011
				c1.796-0.382,3.562,0.765,3.943,2.561c0.232,1.092-0.114,2.188-0.814,2.953c-1.419,1.53-2.837,3.062-4.293,4.557
				c-1.436,1.516-2.923,2.981-4.391,4.465l-0.188,0.189c-0.372,0.376-0.832,0.611-1.316,0.705l-2.346,0.461
				c-0.386,0.086-0.796,0.119-1.193,0.179l-1.2,0.149c-0.796,0.103-1.627,0.097-2.435,0.146c-0.809,0.057-1.642-0.031-2.456-0.057
				c-0.816-0.031-1.636-0.186-2.446-0.279c-0.406-0.045-0.804-0.163-1.204-0.248l-1.192-0.277c-0.396-0.095-0.778-0.234-1.164-0.359
				l-1.147-0.39c-0.744-0.306-1.477-0.622-2.199-0.95l-0.324-0.147c-0.18-0.082-0.33-0.21-0.438-0.359
				c-1.135-1.581-2.244-3.186-3.322-4.818c-0.535-0.819-1.056-1.653-1.584-2.479C109.22,258.819,108.71,257.976,108.225,257.111z"/>
		</g>
	</g>
	<g>
		<path fill="#FCB137" d="M95.94,217.389l2.812,6.303c-1.79,1.216-3.805,2.196-4.878,4.053c0.47,2.234,4.264,3.06,4.811,5.387
			c-1.476,1.347-3.725,1.87-5.123,3.752c1.164,1.543,2.915,3.937,4.705,4.864c-1.882,0.968-2.352,1.791-3.491,4.185
			c1.009,0.797,2.762,2.837,4.59,4.235c2.343,2.29,8.058,8.003,8.058,8.003c0.166,1.412,27.936,2.877,35.823-0.131
			c3.752-2.68,4.956-4.654,8.398-8.303c1.211-0.955,2.914-4.498,3.654-5.596c-1.371-2.066-1.346-1.975-2.831-3.151
			c0.95-1.399,3.909-2.117,4.359-4.604l-4.429-3.582c0.55-2.092,3.725-3.256,4.286-5.346c-0.562-1.806-3.106-2.749-4.361-4.095
			l1.563-5.975H95.94z M95.94,217.389"/>
		<g>
			<path fill="#E87746" d="M95.94,217.389c1.148,2.007,2.243,4.037,3.361,6.058c0.13,0.235,0.066,0.525-0.139,0.686l-0.073,0.058
				c-0.863,0.679-1.75,1.283-2.521,1.939c-0.383,0.328-0.73,0.672-1.041,1.024l-0.411,0.55l-0.32,0.575l0.121-0.754
				c0.069,0.148,0.143,0.291,0.27,0.439c0.078,0.074,0.12,0.149,0.215,0.225c0.091,0.075,0.157,0.152,0.264,0.23
				c0.38,0.313,0.865,0.617,1.386,0.948c0.521,0.333,1.092,0.692,1.667,1.2c0.287,0.258,0.572,0.56,0.835,0.921
				c0.128,0.185,0.243,0.397,0.357,0.601c0.099,0.222,0.182,0.458,0.262,0.691c0.175,0.512,0.015,1.057-0.363,1.396l-0.095,0.086
				c-0.244,0.219-0.495,0.448-0.745,0.653c-0.245,0.18-0.5,0.372-0.742,0.538l-1.351,0.892c-0.19,0.139-0.4,0.273-0.575,0.412
				c-0.162,0.141-0.344,0.272-0.49,0.413c-0.131,0.145-0.277,0.278-0.4,0.42c-0.103,0.15-0.211,0.291-0.323,0.43l-0.008-2.286
				c0.729,0.882,1.423,1.709,2.144,2.44c0.36,0.357,0.721,0.688,1.078,0.975c0.178,0.137,0.351,0.243,0.521,0.37
				c0.166,0.097,0.316,0.158,0.465,0.249c1.092,0.663,1.44,2.086,0.777,3.179c-0.187,0.309-0.435,0.558-0.719,0.741l-0.064,0.04
				l-0.454,0.291l-0.352,0.277c-0.077,0.098-0.177,0.17-0.247,0.27c-0.067,0.106-0.146,0.174-0.216,0.314
				c-0.072,0.119-0.149,0.24-0.229,0.414c-0.079,0.153-0.161,0.313-0.246,0.513c-0.166,0.357-0.343,0.787-0.517,1.195l-0.705-3.026
				l0.731,0.604l0.364,0.306l0.298,0.269c0.382,0.348,0.794,0.74,1.152,1.051l0.551,0.487c0.182,0.154,0.369,0.343,0.547,0.468
				l1.066,0.829c0.06,0.046,0.117,0.095,0.172,0.145l0.079,0.072c2.8,2.565,5.565,5.169,8.344,7.76l0.892,1.837
				c-0.043-0.472-0.241-0.989-0.523-1.371c-0.128-0.188-0.256-0.332-0.414-0.473c-0.201-0.169-0.214-0.174-0.281-0.224
				c-0.061-0.042-0.124-0.081-0.188-0.115c-0.118-0.071-0.188-0.094-0.17-0.093c-0.009-0.007,0.109,0.021,0.219,0.042
				c0.243,0.047,0.564,0.097,0.887,0.142c0.652,0.089,1.362,0.158,2.073,0.218c1.428,0.117,2.894,0.193,4.361,0.247
				c2.939,0.095,5.899,0.15,8.846,0.104c2.947-0.051,5.889-0.156,8.769-0.384c1.436-0.12,2.859-0.271,4.221-0.485
				c1.341-0.213,2.702-0.502,3.606-0.845l-0.836,0.448l2.01-1.608c0.168-0.133,0.308-0.3,0.464-0.447l0.457-0.456l0.459-0.453
				c0.155-0.159,0.304-0.283,0.464-0.471l1.918-2.147l2.064-2.264l0.405-0.37c-0.019-0.006-0.032-0.003-0.039,0.007
				c-0.003,0.004-0.005,0.011-0.005,0.018c-0.001,0.012,0.04-0.052,0.058-0.074c0.1-0.146,0.181-0.209,0.308-0.411
				c0.122-0.188,0.242-0.356,0.369-0.557l0.385-0.632l0.803-1.394l0.44-0.767l0.262-0.438l0.308-0.489l-0.016,4.136l-0.545-0.813
				l-0.137-0.203c-0.052-0.081-0.081-0.115-0.106-0.145l-0.159-0.208c-0.049-0.086-0.103-0.122-0.152-0.162l-0.07-0.067
				c-0.034-0.03-0.02-0.032-0.092-0.089l-0.767-0.623l-0.144-0.117c-1.475-1.198-1.731-3.344-0.619-4.859
				c0.192-0.26,0.433-0.574,0.623-0.762c0.194-0.199,0.408-0.408,0.573-0.541c0.183-0.157,0.355-0.294,0.503-0.401
				c0.164-0.124,0.307-0.224,0.439-0.313l0.715-0.48c0.208-0.14,0.388-0.26,0.523-0.362c0.149-0.106,0.258-0.195,0.332-0.264
				c0.036-0.033,0.083-0.067,0.093-0.087c0.016-0.021,0.054-0.044,0.048-0.05c-0.001-0.007,0.029-0.017,0.014-0.011
				c-0.011,0.004,0.009,0.012-0.006,0.022c-0.006,0.028-0.021,0.052-0.011,0.077l1.289,3.469l-4.384-3.638l-0.153-0.127
				c-1.066-0.885-1.437-2.299-1.05-3.545c0.099-0.318,0.212-0.648,0.342-0.944c0.134-0.27,0.28-0.563,0.432-0.798
				c0.147-0.221,0.311-0.47,0.462-0.655c0.15-0.181,0.313-0.387,0.46-0.539c0.603-0.648,1.141-1.09,1.586-1.469
				c0.441-0.369,0.794-0.676,0.989-0.88l0.115-0.124c0.036-0.037,0.027-0.042,0.052-0.059c0.011-0.01-0.012,0.012-0.002,0.023
				c-0.013,0.025-0.034,0.071-0.028,0.111l0.037,1.913c-0.005,0.035,0.002,0.068,0.019,0.097c0.008,0.024,0.063,0.061,0.056,0.057
				c-0.015-0.006-0.024-0.015-0.029-0.027c-0.019-0.019,0.022-0.019-0.035-0.063l-0.122-0.118c-0.049-0.044-0.055-0.077-0.134-0.137
				l-0.419-0.346l-1.206-0.894l-0.761-0.604c-0.134-0.114-0.292-0.268-0.434-0.402l-0.43-0.424
				c-0.829-0.817-1.096-1.989-0.797-3.035l0.017-0.056l1.711-5.936l3.05,3.951c-4.829-0.148-9.658-0.292-14.486-0.487
				c-4.829-0.176-9.658-0.443-14.487-0.661c-2.415-0.102-4.829-0.256-7.243-0.402l-7.244-0.442
				C105.598,218.201,100.769,217.86,95.94,217.389z M95.94,217.389c4.829-0.471,9.658-0.812,14.486-1.16l7.244-0.442
				c2.414-0.146,4.829-0.301,7.243-0.402c4.829-0.218,9.658-0.485,14.487-0.661c4.828-0.195,9.657-0.339,14.486-0.487
				c1.699-0.052,3.118,1.283,3.171,2.982c0.008,0.271-0.019,0.533-0.077,0.785l-0.044,0.184l-1.416,6.014l-0.78-3.091l0.125,0.093
				l0.127,0.108l0.444,0.315l1.273,0.852l0.781,0.58c0.125,0.09,0.288,0.248,0.428,0.372l0.43,0.402
				c0.137,0.119,0.305,0.345,0.45,0.519l0.435,0.57c0.141,0.201,0.273,0.484,0.396,0.732c0.123,0.257,0.235,0.52,0.338,0.783
				c0.232,0.603,0.242,1.235,0.069,1.809l-0.032,0.105c-0.094,0.312-0.201,0.636-0.326,0.928c-0.128,0.266-0.268,0.555-0.413,0.788
				c-0.142,0.22-0.298,0.467-0.445,0.653c-0.144,0.181-0.302,0.387-0.443,0.541c-0.584,0.656-1.107,1.111-1.538,1.504
				c-0.427,0.383-0.766,0.705-0.939,0.917c-0.054,0.058-0.062,0.087-0.099,0.128c-0.031,0.038-0.015,0.042-0.032,0.058
				c-0.005,0.009,0.026-0.017,0.022-0.031c0.02-0.029,0.049-0.081,0.049-0.128l-1.203-3.671l4.474,3.526l0.014,0.011
				c1.076,0.848,1.523,2.201,1.275,3.459c-0.11,0.554-0.265,1.1-0.5,1.621c-0.107,0.267-0.25,0.496-0.384,0.74
				c-0.136,0.25-0.29,0.443-0.442,0.66c-0.155,0.222-0.312,0.389-0.473,0.573c-0.163,0.189-0.318,0.336-0.479,0.489
				c-0.317,0.306-0.63,0.561-0.914,0.777c-0.293,0.229-0.562,0.414-0.799,0.581l-0.625,0.438c-0.091,0.063-0.168,0.121-0.219,0.163
				c-0.071,0.053-0.107,0.088-0.129,0.108c-0.047,0.036-0.019,0.025-0.016,0.018c-0.006,0,0.088-0.083,0.106-0.137l-0.763-4.976
				l0.903,0.708c0.068,0.052,0.205,0.181,0.304,0.269l0.319,0.297c0.215,0.2,0.424,0.403,0.58,0.612l0.501,0.629
				c0.087,0.109,0.167,0.216,0.211,0.285l0.163,0.238l0.652,0.955c0.819,1.201,0.82,2.719,0.129,3.894l-0.145,0.243l-0.3,0.506
				l-0.389,0.69l-0.861,1.518l-0.482,0.803c-0.169,0.273-0.367,0.565-0.551,0.846c-0.171,0.271-0.462,0.627-0.694,0.932
				c-0.07,0.085-0.104,0.143-0.206,0.251l-0.303,0.313c-0.205,0.206-0.418,0.405-0.634,0.597l0.404-0.37l-3.959,4.367
				c-0.161,0.188-0.386,0.389-0.576,0.582l-0.596,0.584l-0.597,0.582c-0.204,0.189-0.391,0.396-0.608,0.57l-2.625,2.073
				c-0.229,0.18-0.477,0.316-0.734,0.412l-0.102,0.036c-1.93,0.701-3.552,0.96-5.188,1.194c-1.622,0.22-3.201,0.352-4.771,0.45
				c-3.136,0.193-6.226,0.225-9.308,0.157c-3.082-0.069-6.151-0.194-9.23-0.463c-1.542-0.131-3.083-0.284-4.652-0.49
				c-0.788-0.104-1.575-0.218-2.41-0.373c-0.42-0.079-0.842-0.163-1.332-0.293c-0.256-0.071-0.503-0.138-0.866-0.273
				c-0.161-0.059-0.404-0.158-0.69-0.313c-0.105-0.06-0.208-0.123-0.309-0.19c-0.106-0.075-0.162-0.102-0.394-0.307
				c-0.19-0.175-0.353-0.352-0.514-0.572c-0.301-0.426-0.517-0.987-0.578-1.502l0.891,1.837c-2.593-2.744-5.2-5.477-7.771-8.246
				l0.25,0.217l-1.319-1.189c-0.23-0.199-0.397-0.396-0.597-0.595l-0.577-0.593l-1.076-1.139l-0.258-0.28l-0.215-0.217l-0.427-0.444
				l-0.345-0.357c-0.706-0.733-0.821-1.819-0.361-2.669c0.234-0.43,0.451-0.844,0.722-1.309c0.121-0.22,0.271-0.463,0.432-0.709
				c0.143-0.236,0.333-0.497,0.534-0.755c0.18-0.255,0.44-0.512,0.676-0.758c0.242-0.246,0.523-0.45,0.788-0.666
				c0.266-0.177,0.539-0.353,0.804-0.508l0.766-0.391l-0.006,3.96c-0.33-0.213-0.677-0.431-0.977-0.658
				c-0.271-0.231-0.555-0.463-0.805-0.7c-0.487-0.475-0.918-0.958-1.321-1.443c-0.788-0.969-1.463-1.959-2.099-2.893l-0.148-0.218
				c-0.444-0.652-0.366-1.507,0.14-2.068c0.237-0.264,0.478-0.525,0.724-0.776c0.256-0.231,0.526-0.433,0.79-0.644
				c0.267-0.194,0.536-0.349,0.804-0.521c0.266-0.161,0.522-0.286,0.783-0.43l1.415-0.706c0.212-0.111,0.396-0.221,0.599-0.33
				L97.652,232l-0.458,1.482c-0.02-0.058-0.024-0.117-0.034-0.183l-0.084-0.209c-0.081-0.15-0.195-0.318-0.345-0.494
				c-0.306-0.354-0.737-0.719-1.212-1.105c-0.474-0.392-0.996-0.802-1.508-1.338c-0.129-0.122-0.253-0.29-0.375-0.437
				c-0.124-0.142-0.233-0.339-0.345-0.508c-0.218-0.364-0.375-0.795-0.461-1.244l-0.026-0.138c-0.043-0.225,0.018-0.447,0.146-0.616
				l0.578-0.75l0.652-0.647c0.458-0.391,0.929-0.731,1.408-1.034c0.958-0.599,1.923-1.064,2.826-1.585l-0.211,0.743
				C97.446,221.755,96.667,219.584,95.94,217.389z"/>
		</g>
	</g>
	<g>
		<path fill="#FCB137" d="M124.879,5C81.154,5,43.291,41.622,45.724,86.678c-1.309,11.73,13.533,39.956,26.67,55.792
			c17.834,32.073,19.548,35.903,20.727,70.894c0.9,4.183,3.031,5.478,5.201,5.961c22.948,4.459,40.693,1.937,54.37,0.25
			c3.277-1.098,5.266-3.178,5.027-6.043c1.311-47.526,8.58-44.65,30.392-81.219c12.08-16.503,16.538-40.824,16.643-52.121
			C206.049,17.238,148.371,5.68,124.879,5L124.879,5z M124.879,5"/>
		<g>
			<path fill="#E87746" d="M124.874,5.5l-3.95,0.115l-3.92,0.313c-1.305,0.15-2.604,0.364-3.905,0.542
				c-1.294,0.229-2.58,0.5-3.87,0.747c-1.282,0.284-2.547,0.644-3.818,0.965c-1.26,0.365-2.506,0.779-3.758,1.165
				c-1.241,0.421-2.457,0.917-3.683,1.373c-1.21,0.5-2.402,1.043-3.601,1.561c-1.182,0.559-2.334,1.181-3.499,1.766l-3.397,1.938
				l-3.292,2.099l-3.173,2.259l-3.035,2.429l-2.903,2.569l-2.766,2.703l-2.62,2.83c-0.823,0.987-1.663,1.954-2.469,2.947
				c-0.771,1.024-1.563,2.025-2.312,3.058c-0.717,1.058-1.457,2.093-2.157,3.154c-0.667,1.084-1.37,2.141-2.005,3.238
				c-0.608,1.114-1.26,2.199-1.832,3.327c-0.548,1.141-1.147,2.252-1.653,3.407c-0.48,1.167-1.048,2.291-1.497,3.466
				c-0.436,1.18-0.934,2.333-1.319,3.526c-0.373,1.198-0.828,2.366-1.156,3.574c-0.317,1.211-0.704,2.4-0.968,3.622
				c-0.255,1.223-0.594,2.425-0.804,3.655c-0.199,1.231-0.461,2.45-0.612,3.687c-0.129,1.239-0.343,2.467-0.444,3.708
				c-0.081,1.243-0.205,2.481-0.255,3.725L50.119,82.7l0.099,3.735l-0.021,0.742c0.005,0.461-0.002,0.918-0.023,1.377
				c-0.027,0.216,0.001,0.479,0.035,0.751l0.08,0.798c0.039,1.037,0.354,2.214,0.547,3.337c0.257,1.146,0.612,2.313,0.909,3.477
				c0.384,1.17,0.736,2.344,1.142,3.516l1.308,3.514l1.425,3.505l1.538,3.483l1.617,3.464c0.532,1.159,1.138,2.286,1.704,3.433
				c0.563,1.149,1.179,2.271,1.785,3.399c0.603,1.13,1.205,2.262,1.844,3.373c0.632,1.115,1.242,2.246,1.912,3.337
				c0.665,1.094,1.299,2.214,1.989,3.292l2.069,3.239l2.155,3.174l2.254,3.089l0.187,0.256c0.036,0.05,0.07,0.106,0.097,0.159
				l4.227,8.41l2.101,4.223c0.684,1.421,1.399,2.815,2.058,4.256c0.662,1.438,1.382,2.834,2.013,4.294
				c0.641,1.452,1.31,2.883,1.902,4.365l0.912,2.206c0.291,0.742,0.552,1.499,0.829,2.248c0.572,1.489,1.029,3.027,1.515,4.552
				c0.463,1.53,0.84,3.091,1.218,4.643c0.298,1.569,0.704,3.122,0.918,4.699l0.378,2.357c0.115,0.786,0.193,1.574,0.291,2.361
				c0.217,1.573,0.378,3.146,0.517,4.718c0.165,1.573,0.275,3.144,0.382,4.714c0.12,1.572,0.216,3.142,0.292,4.709l0.511,9.4
				l-0.037-0.302c0.304,1.106,0.681,2.17,1.259,2.938c0.576,0.768,1.298,1.205,2.268,1.466l0.367,0.094l0.368,0.054l0.977,0.135
				l1.954,0.262l3.908,0.525c1.313,0.215,2.578,0.235,3.862,0.347l3.835,0.276c1.269,0.118,2.575,0.073,3.864,0.099l3.872,0.034
				c1.289,0.02,2.581-0.091,3.87-0.129l3.864-0.176c2.576-0.253,5.145-0.403,7.715-0.737l3.854-0.479
				c1.282-0.157,2.573-0.375,3.858-0.559c2.564-0.37,5.169-0.804,7.758-1.214l-0.715,0.162l0.673-0.307
				c0.228-0.097,0.381-0.232,0.579-0.334c0.215-0.096,0.302-0.236,0.461-0.338c0.074-0.053,0.153-0.104,0.183-0.163
				c0.043-0.056,0.088-0.107,0.137-0.156c0.058-0.047,0.1-0.095,0.105-0.143c0.02-0.046,0.044-0.087,0.073-0.124
				c0.072-0.075,0.018-0.152,0.076-0.205c0.028-0.026-0.011-0.073-0.001-0.104c0-0.033,0.008-0.063,0.023-0.095
				c-0.025-0.093-0.044-0.185-0.024-0.276l-0.013-0.434l0.057-5.61l0.029-2.807l0.122-2.82c0.101-1.883,0.136-3.756,0.292-5.649
				l0.465-5.684l0.734-5.727c0.375-1.918,0.684-3.838,1.124-5.757l0.742-2.878c0.129-0.479,0.239-0.962,0.385-1.438l0.478-1.422
				l0.967-2.844l1.165-2.768l0.592-1.379l0.665-1.328l1.343-2.648c0.971-1.671,1.902-3.428,2.921-5.014l1.503-2.432l1.525-2.359
				l3.041-4.665c2.012-3.096,4.012-6.15,5.923-9.259c0.962-1.549,1.938-3.09,2.856-4.664l2.809-4.688
				c0.059-0.099,0.121-0.194,0.185-0.287l0.092-0.13c1.944-2.785,3.735-5.722,5.289-8.837c1.538-3.123,2.984-6.323,4.159-9.662
				c1.181-3.329,2.302-6.703,3.172-10.157c0.895-3.443,1.639-6.933,2.233-10.43c0.277-1.749,0.529-3.496,0.717-5.235
				c0.094-0.868,0.151-1.725,0.23-2.589c0.035-0.824,0.098-1.734,0.104-2.483l0.036-5.565c-0.1-1.709-0.144-3.409-0.269-5.135
				c-0.203-1.737-0.308-3.5-0.583-5.227l-0.436-2.586l-0.202-1.299l-0.292-1.274l-0.581-2.556c-0.175-0.861-0.485-1.673-0.72-2.514
				c-0.263-0.831-0.48-1.683-0.779-2.501l-0.932-2.444l-0.468-1.226l-0.539-1.192l-1.076-2.396l-1.242-2.315l-0.623-1.163
				l-0.698-1.116l-1.409-2.237l-1.555-2.145l-0.781-1.075l-0.848-1.024c-0.572-0.679-1.119-1.383-1.713-2.047
				c-2.389-2.646-5.004-5.119-7.819-7.389c-2.854-2.212-5.835-4.32-9.018-6.12c-3.188-1.785-6.487-3.411-9.893-4.822
				c-3.419-1.368-6.92-2.567-10.491-3.535c-3.565-0.992-7.201-1.734-10.863-2.305C132.27,5.984,128.571,5.654,124.874,5.5z
				 M124.894,4.5c3.749,0.086,7.48,0.434,11.199,0.885c3.716,0.477,7.419,1.09,11.088,1.893c3.665,0.816,7.308,1.768,10.906,2.91
				c3.602,1.135,7.139,2.505,10.607,4.068c3.461,1.583,6.837,3.393,10.103,5.431c3.233,2.088,6.337,4.418,9.258,7.006
				c0.727,0.649,1.41,1.346,2.119,2.021l1.055,1.022l0.993,1.083l1.973,2.191l1.822,2.325l0.906,1.171l0.831,1.225l1.658,2.463
				l1.489,2.57l0.744,1.291c0.231,0.438,0.432,0.891,0.648,1.336l1.275,2.69c0.411,0.904,0.738,1.838,1.11,2.759
				c0.343,0.929,0.763,1.839,1.04,2.788l0.889,2.837l0.442,1.422l0.348,1.441l0.666,2.894c0.421,1.934,0.66,3.889,0.993,5.838
				c0.237,1.981,0.374,4.006,0.556,6.012c0.091,1.911,0.122,3.739,0.166,5.613c0.02,1.114-0.022,2.066-0.04,3.104
				c-0.061,0.994-0.103,1.998-0.182,2.985c-0.157,1.972-0.382,3.92-0.636,5.86c-0.527,3.873-1.304,7.687-2.219,11.472
				c-0.905,3.786-2.033,7.528-3.356,11.216c-1.293,3.697-2.898,7.312-4.649,10.872c-1.81,3.54-3.926,6.965-6.29,10.263l0.276-0.417
				c-1.976,3.193-3.953,6.389-6.03,9.512c-2.039,3.147-4.165,6.235-6.257,9.296l-3.128,4.561c-1.046,1.516-2.046,3.017-3.024,4.511
				c-1.027,1.497-1.865,2.994-2.804,4.491l-1.233,2.267l-0.614,1.134l-0.533,1.155l-1.063,2.315l-0.887,2.387l-0.446,1.193
				c-0.138,0.404-0.242,0.822-0.366,1.233l-0.72,2.475c-0.438,1.673-0.763,3.401-1.156,5.102l-0.865,5.256l-0.646,5.358
				c-0.219,1.786-0.322,3.613-0.49,5.419l-0.233,2.718l-0.183,2.738l-0.365,5.479l-0.013-0.433c0.005,0.617-0.006,1.237-0.063,1.853
				c-0.06,0.316-0.128,0.633-0.204,0.946c-0.086,0.311-0.139,0.631-0.273,0.924c-0.265,0.577-0.508,1.206-0.87,1.697
				c-0.177,0.252-0.359,0.5-0.546,0.743c-0.184,0.256-0.383,0.467-0.591,0.658l-0.626,0.588c-0.211,0.206-0.427,0.354-0.645,0.505
				c-0.434,0.288-0.88,0.634-1.316,0.832c-0.438,0.214-0.888,0.465-1.323,0.624l-1.312,0.471l-0.041,0.015
				c-0.218,0.079-0.453,0.127-0.674,0.147c-2.628,0.226-5.235,0.471-7.897,0.663c-1.327,0.094-2.643,0.22-3.978,0.288l-4.001,0.21
				c-2.663,0.152-5.354,0.123-8.022,0.19l-4.018-0.1c-1.338-0.052-2.676-0.032-4.012-0.144l-4.004-0.312
				c-1.335-0.119-2.662-0.166-4.002-0.382l-4.008-0.516c-1.325-0.189-2.691-0.301-3.963-0.582l-3.873-0.741l-1.937-0.37
				l-0.969-0.182l-0.243-0.043l-0.121-0.022l-0.061-0.011l-0.123-0.024l-0.019-0.005l-0.036-0.011l-0.583-0.168
				c-1.556-0.443-3.165-1.517-4.099-2.922c-0.957-1.391-1.385-2.873-1.721-4.306c-0.022-0.097-0.035-0.192-0.037-0.288v-0.014
				l-0.092-4.684c-0.015-1.563-0.103-3.118-0.163-4.676c-0.057-1.559-0.134-3.114-0.234-4.664c-0.087-1.553-0.178-3.105-0.321-4.646
				c-0.12-1.547-0.254-3.09-0.456-4.618c-0.102-0.765-0.184-1.534-0.301-2.295l-0.384-2.273c-0.223-1.524-0.609-3.006-0.93-4.504
				c-0.399-1.477-0.793-2.953-1.271-4.405c-0.5-1.445-0.965-2.9-1.583-4.308c-0.294-0.708-0.571-1.421-0.879-2.124l-0.966-2.096
				c-0.615-1.406-1.366-2.767-2.059-4.145c-0.689-1.378-1.467-2.731-2.206-4.092c-0.741-1.359-1.552-2.697-2.323-4.047l-2.375-4.029
				c-1.58-2.688-3.219-5.358-4.85-8.025l0.283,0.414l-2.638-3.044l-2.526-3.122l-2.43-3.189c-0.811-1.063-1.562-2.164-2.347-3.247
				c-0.791-1.079-1.518-2.196-2.27-3.3c-0.756-1.101-1.49-2.218-2.188-3.356c-0.709-1.132-1.429-2.259-2.098-3.418
				c-0.672-1.157-1.382-2.292-2.022-3.471l-1.943-3.527l-1.83-3.604l-1.711-3.687c-0.55-1.244-1.045-2.522-1.569-3.784
				c-0.493-1.283-0.941-2.601-1.411-3.902c-0.409-1.352-0.814-2.692-1.16-4.089c-0.286-1.446-0.667-2.804-0.794-4.385l-0.128-1.152
				c-0.049-0.378-0.083-0.765-0.062-1.204c0.013-0.848,0.039-1.697,0.077-2.543l-0.021,0.741l-0.112-4.204
				c0.011-1.402,0.069-2.805,0.122-4.206c0.082-1.4,0.243-2.795,0.363-4.192c0.148-1.394,0.383-2.779,0.593-4.165
				c0.224-1.384,0.564-2.747,0.843-4.119c0.294-1.369,0.704-2.711,1.064-4.063c0.81-2.679,1.746-5.315,2.825-7.888
				c0.526-1.292,1.166-2.534,1.744-3.799c0.599-1.256,1.285-2.469,1.945-3.69c0.674-1.214,1.439-2.376,2.154-3.561
				c0.738-1.172,1.556-2.293,2.329-3.437c0.799-1.126,1.666-2.205,2.494-3.305c0.854-1.081,1.779-2.106,2.667-3.154
				c0.921-1.021,1.884-2.003,2.821-3.001c0.972-0.967,1.975-1.902,2.958-2.85l3.087-2.693l3.206-2.533l3.318-2.366l3.422-2.194
				l3.501-2.043l3.585-1.873l3.666-1.692l3.733-1.514c1.264-0.453,2.516-0.93,3.783-1.36l3.837-1.179
				c1.295-0.336,2.581-0.698,3.879-1.01l3.918-0.826c1.316-0.217,2.628-0.458,3.947-0.654l3.972-0.463l3.998-0.294l3.97-0.092
				C124.874,4.5,124.886,4.5,124.894,4.5z"/>
		</g>
	</g>
	<g>
		<path fill="#FCB137" d="M95.427,228.687c18.059,3.307,42.051,4.027,59.535-0.851"/>
		<path fill="#E87746" d="M95.427,228.687c0,0,0.242-0.029,0.695-0.084c0.451-0.035,1.118-0.127,1.954-0.167
			c0.838-0.05,1.858-0.126,3.02-0.153c1.166-0.014,2.466-0.077,3.865-0.144c1.401-0.051,2.907-0.081,4.488-0.079
			c1.583-0.005,3.275-0.094,5.002-0.082c0.866-0.014,1.744,0.001,2.632,0.015c0.888,0.029,1.788-0.041,2.692-0.029
			c1.811-0.035,3.647-0.005,5.483,0.018c1.833-0.018,3.664-0.071,5.471-0.041c0.902-0.011,1.803,0.036,2.686,0.023
			c0.882-0.024,1.754-0.057,2.614-0.055c1.718-0.036,3.397,0.031,4.979,0.009c1.574-0.057,3.076-0.079,4.474-0.077
			c1.401,0.018,2.695,0.047,3.825-0.03c1.137-0.046,2.148-0.038,2.984-0.043c0.833-0.016,1.508,0.029,1.963,0.034
			c0.461,0.023,0.707,0.035,0.707,0.035s-0.211,0.117-0.606,0.337c-0.401,0.202-0.981,0.536-1.747,0.888
			c-0.762,0.362-1.691,0.816-2.78,1.283c-0.544,0.229-1.124,0.501-1.747,0.708c-0.627,0.196-1.286,0.402-1.975,0.617
			c-1.383,0.414-2.895,0.838-4.506,1.254c-1.614,0.369-3.33,0.625-5.112,0.905c-1.782,0.281-3.631,0.539-5.513,0.601
			c-1.882,0.123-3.798,0.19-5.712,0.244c-1.911-0.06-3.823-0.112-5.701-0.229c-1.88-0.064-3.719-0.313-5.494-0.559
			c-1.776-0.254-3.481-0.485-5.102-0.828c-1.62-0.358-3.141-0.728-4.534-1.093c-0.693-0.189-1.358-0.372-1.99-0.545
			c-0.625-0.194-1.203-0.397-1.751-0.596c-1.095-0.386-2.042-0.773-2.823-1.079c-0.783-0.297-1.389-0.59-1.806-0.764
			C95.647,228.79,95.427,228.687,95.427,228.687z"/>
	</g>
	<g>
		<path fill="#FCB137" d="M95.526,236.792c17.078,3.308,39.555,4.055,59.336-0.379"/>
		<path fill="#E87746" d="M95.526,236.792c0,0,0.241-0.027,0.693-0.077c0.449-0.032,1.114-0.119,1.947-0.151
			c0.835-0.042,1.852-0.109,3.008-0.128c1.162,0.002,2.45-0.09,3.842-0.131c1.392-0.042,2.888-0.062,4.458-0.051
			c1.591-0.055,3.262-0.092,4.982-0.084c0.859,0.005,1.733,0.01,2.617,0.015c0.885-0.026,1.78-0.048,2.681-0.045
			c0.9,0.002,1.809-0.022,2.719,0.001c0.91,0.015,1.824,0.045,2.737-0.002c1.826-0.019,3.652-0.049,5.454-0.008
			c1.802,0.033,3.566-0.063,5.287-0.039c1.717-0.015,3.394,0.085,4.968,0.016c1.58-0.022,3.084-0.013,4.481,0.02
			c1.404,0.068,2.681,0.039,3.821,0.037c1.142-0.002,2.152,0.046,2.986,0.073c0.831,0.017,1.5,0.089,1.952,0.112
			c0.457,0.041,0.7,0.063,0.7,0.063s-0.215,0.108-0.618,0.313c-0.407,0.187-0.999,0.497-1.771,0.817
			c-0.771,0.332-1.709,0.748-2.802,1.169c-0.549,0.208-1.133,0.43-1.748,0.663c-0.618,0.232-1.281,0.383-1.969,0.592
			c-1.38,0.383-2.885,0.772-4.486,1.151c-1.601,0.415-3.309,0.638-5.08,0.896c-0.885,0.135-1.787,0.238-2.702,0.352
			c-0.914,0.122-1.841,0.231-2.777,0.255c-1.872,0.112-3.777,0.156-5.683,0.211c-1.905,0.028-3.808-0.106-5.679-0.211
			c-1.872-0.094-3.709-0.257-5.476-0.543c-1.769-0.25-3.472-0.535-5.079-0.826c-1.615-0.368-3.131-0.749-4.518-1.124
			c-1.386-0.382-2.653-0.728-3.727-1.153c-1.087-0.396-2.025-0.791-2.801-1.104c-0.777-0.303-1.377-0.602-1.791-0.778
			C95.745,236.897,95.526,236.792,95.526,236.792z"/>
	</g>
	<g>
		<path fill="#FCB137" d="M95.82,245.762c17.979,3.491,41.825,3.582,58.748-0.784"/>
		<path fill="#E87746" d="M95.82,245.762c0,0,0.239-0.028,0.687-0.081c0.445-0.034,1.104-0.124,1.93-0.16
			c0.828-0.048,1.835-0.12,2.981-0.144c0.572-0.013,1.18-0.025,1.822-0.04c0.632-0.032,1.296-0.066,1.989-0.103
			c1.379-0.056,2.861-0.092,4.415-0.096c1.553,0.001,3.226-0.111,4.925-0.107c1.707-0.027,3.461,0.021,5.248-0.045
			c1.786-0.048,3.597-0.031,5.408-0.021c1.81-0.009,3.617-0.086,5.401-0.062c0.892-0.011,1.778,0.014,2.653,0.021
			c0.871-0.024,1.732-0.058,2.583-0.057c1.697-0.031,3.353,0.014,4.92,0.02c1.559-0.047,3.042-0.061,4.423-0.05
			c1.383,0.019,2.664,0.073,3.782,0.019c1.125-0.027,2.124-0.002,2.949,0.007c0.822-0.002,1.488,0.055,1.937,0.067
			c0.454,0.03,0.696,0.047,0.696,0.047s-0.21,0.113-0.603,0.326c-0.398,0.195-0.976,0.52-1.734,0.858
			c-0.757,0.349-1.678,0.787-2.755,1.234c-1.072,0.489-2.313,0.868-3.678,1.276c-1.363,0.404-2.854,0.817-4.44,1.222
			c-1.591,0.341-3.28,0.618-5.035,0.894c-0.876,0.146-1.771,0.262-2.677,0.387c-0.906,0.103-1.825,0.159-2.752,0.217
			c-1.854,0.129-3.741,0.22-5.628,0.266c-1.886-0.047-3.772-0.086-5.625-0.188c-1.855-0.049-3.672-0.301-5.426-0.529
			c-1.756-0.245-3.438-0.453-5.043-0.803c-1.604-0.353-3.109-0.719-4.486-1.079c-0.685-0.188-1.341-0.368-1.966-0.539
			c-0.613-0.199-1.183-0.402-1.722-0.604c-1.078-0.389-2.009-0.779-2.777-1.088c-0.771-0.299-1.366-0.595-1.776-0.77
			C96.038,245.866,95.82,245.762,95.82,245.762z"/>
	</g>
	<g>
		<path fill="#FCB137" d="M107.57,182.322l2.654,37.579c10.46,2.287,21.347,1.815,30.264-0.668l2.33-37.25
			C131.453,184.035,119.821,184.689,107.57,182.322L107.57,182.322z M107.57,182.322"/>
		<g>
			<path fill="#E87746" d="M107.57,182.322c1.595,6.182,2.793,12.392,3.891,18.608l0.785,4.665l0.732,4.67l0.673,4.673
				c0.23,1.558,0.416,3.118,0.625,4.677l-3.185-3.683c1.188,0.143,2.372,0.273,3.545,0.44c1.186,0.104,2.375,0.172,3.557,0.264
				c0.591,0.046,1.189,0.021,1.782,0.038l1.778,0.045c0.591,0.032,1.186-0.028,1.777-0.037l1.774-0.06
				c0.592,0,1.179-0.096,1.767-0.132l1.764-0.138c0.591-0.027,1.168-0.142,1.752-0.214l1.744-0.24
				c0.586-0.062,1.148-0.22,1.725-0.319l1.722-0.317c0.572-0.108,1.125-0.275,1.688-0.409l1.685-0.421l-3.637,4.489
				c0.153-3.106,0.409-6.207,0.612-9.311c0.098-1.552,0.24-3.101,0.365-4.651l0.386-4.65c0.312-3.097,0.571-6.196,0.924-9.291
				c0.328-3.096,0.686-6.189,1.08-9.281l4.637,4.127c-1.516,0.166-3.033,0.306-4.549,0.437c-1.528,0.08-3.048,0.189-4.572,0.231
				l-2.293,0.011c-0.764-0.005-1.522,0.025-2.287-0.01l-2.289-0.118c-0.762-0.048-1.521-0.061-2.281-0.138l-2.275-0.254
				c-0.756-0.096-1.511-0.146-2.262-0.279l-2.248-0.396c-0.747-0.136-1.492-0.255-2.231-0.429c-1.477-0.359-2.943-0.723-4.392-1.127
				C110.404,183.299,108.973,182.848,107.57,182.322z M107.57,182.322c1.513-0.048,2.998-0.021,4.477-0.036l4.418-0.157
				c0.731-0.031,1.465-0.117,2.192-0.159l2.178-0.158c1.449-0.141,2.892-0.315,4.325-0.471c1.435-0.188,2.864-0.414,4.286-0.617
				l4.251-0.753l4.222-0.878c1.402-0.333,2.799-0.682,4.198-0.99c2.057-0.454,4.093,0.845,4.547,2.901
				c0.059,0.266,0.088,0.531,0.09,0.794l0.001,0.432c0.006,3.117-0.024,6.231-0.085,9.344c-0.035,3.114-0.164,6.223-0.241,9.334
				l-0.197,4.662c-0.068,1.554-0.12,3.108-0.217,4.661c-0.185,3.104-0.317,6.212-0.553,9.313l-0.019,0.249
				c-0.16,2.1-1.675,3.775-3.618,4.241l-2.027,0.482c-0.676,0.152-1.35,0.338-2.028,0.459l-2.039,0.352
				c-0.682,0.099-1.36,0.243-2.045,0.295l-2.049,0.2c-0.683,0.057-1.363,0.155-2.048,0.164l-2.05,0.079
				c-0.683,0.018-1.365,0.06-2.048,0.022l-2.045-0.066c-0.681-0.035-1.363-0.019-2.041-0.098l-2.035-0.187
				c-0.676-0.078-1.354-0.121-2.027-0.234c-1.344-0.227-2.688-0.433-4.022-0.682c-1.33-0.296-2.649-0.63-3.965-0.951l-0.337-0.082
				c-1.697-0.414-2.836-1.93-2.848-3.601c-0.011-1.573-0.047-3.144-0.038-4.718l0.01-4.722l0.069-4.726l0.122-4.729
				C106.546,194.983,106.86,188.667,107.57,182.322z"/>
		</g>
	</g>
	<g>
		<path fill="#FCB137" d="M111.762,169.26L91.939,82.535c26.728,11.607,47.538,4.472,66.51-2.343l-24.081,88.742
			C126.838,170.358,119.958,171.025,111.762,169.26L111.762,169.26z M111.762,169.26"/>
		<g>
			<path fill="#E87746" d="M111.762,169.26c-1.17-3.535-2.31-7.077-3.401-10.63c-1.077-3.556-2.211-7.1-3.241-10.666l-3.133-10.691
				c-1.04-3.565-2.03-7.141-3.043-10.712l-2.95-10.732l-2.878-10.749l-2.813-10.764l-2.74-10.781
				c-0.602-2.37,0.831-4.78,3.201-5.382c0.907-0.23,1.819-0.163,2.634,0.141l0.331,0.123l3.794,1.409l0.946,0.354l0.963,0.29
				l1.925,0.581c0.644,0.184,1.277,0.411,1.927,0.561l1.95,0.446l1.947,0.449c0.652,0.13,1.312,0.212,1.964,0.329
				c1.31,0.215,2.614,0.467,3.937,0.554c1.319,0.114,2.631,0.302,3.958,0.3c1.324,0.024,2.644,0.13,3.971,0.045
				c1.325-0.06,2.649-0.031,3.976-0.183c1.326-0.118,2.652-0.192,3.976-0.411c1.325-0.181,2.65-0.352,3.972-0.631l1.984-0.375
				l1.98-0.458l1.983-0.456l1.981-0.527c1.321-0.333,2.643-0.734,3.964-1.131c1.321-0.378,2.646-0.832,3.969-1.254
				c1.322-0.419,2.653-0.904,3.982-1.343l4.017-1.38l0.116-0.04c2.541-0.873,5.308,0.479,6.18,3.019
				c0.336,0.976,0.343,1.984,0.08,2.907l-3.136,11.059l-3.203,11.041l-3.271,11.021l-3.337,11.004l-3.407,10.985l-3.483,10.964
				l-3.571,10.94l-3.685,10.91l-0.074,0.22c-0.2,0.593-0.723,0.987-1.306,1.056l-2.875,0.334l-2.898,0.214
				c-0.974,0.031-1.941,0.075-2.91,0.095l-1.458-0.018c-0.485-0.012-0.968,0.001-1.453-0.032l-1.452-0.097
				c-0.483-0.041-0.965-0.043-1.445-0.118l-1.438-0.2c-0.477-0.075-0.956-0.114-1.428-0.22l-1.415-0.29
				c-0.469-0.103-0.941-0.179-1.405-0.302L111.762,169.26z M111.762,169.26l2.841,0.245c0.471,0.043,0.947,0.037,1.418,0.058
				l1.413,0.043c0.469,0.023,0.942-0.021,1.411-0.027l1.405-0.046c0.467-0.008,0.935-0.067,1.401-0.098l1.395-0.112
				c0.464-0.037,0.927-0.119,1.389-0.176l1.384-0.188c0.92-0.155,1.838-0.334,2.752-0.499c1.826-0.395,3.646-0.815,5.467-1.267
				l-1.38,1.275l2.336-11.275l2.449-11.245l2.536-11.221l2.613-11.201l2.684-11.181l2.749-11.164l2.816-11.145l2.885-11.127
				l6.376,5.886c-2.691,0.998-5.401,1.995-8.175,2.92c-1.393,0.456-2.768,0.937-4.188,1.356c-1.41,0.434-2.819,0.872-4.264,1.249
				l-2.153,0.587l-2.188,0.514l-2.195,0.489l-2.227,0.407c-1.477,0.297-2.984,0.487-4.49,0.681
				c-1.498,0.231-3.024,0.316-4.544,0.437c-1.516,0.153-3.051,0.134-4.579,0.157c-1.528,0.057-3.06-0.084-4.589-0.149
				c-1.532-0.039-3.049-0.274-4.57-0.443c-1.527-0.141-3.025-0.452-4.527-0.733c-0.75-0.146-1.504-0.272-2.246-0.448l-2.209-0.586
				l-2.206-0.59c-0.734-0.2-1.441-0.474-2.162-0.708l-2.152-0.733l-1.074-0.368l-1.046-0.431l-4.168-1.75l6.166-5.119l2.215,10.901
				l2.143,10.917l2.077,10.932l2.005,10.949c0.64,3.656,1.3,7.307,1.913,10.97l1.823,10.991c0.622,3.66,1.14,7.344,1.715,11.015
				C110.768,161.882,111.28,165.568,111.762,169.26z"/>
		</g>
	</g>
	<g>
		<g>
			<g>
				<line fill="#FCB137" x1="41.766" y1="31.074" x2="22.003" y2="11.312"/>
				<path fill="#E87746" d="M41.412,31.427c0,0-0.416-0.201-1.124-0.575c-0.358-0.183-0.784-0.413-1.267-0.682
					c-0.482-0.271-1.041-0.562-1.624-0.905c-1.171-0.682-2.541-1.473-3.974-2.356c-1.432-0.883-2.911-1.875-4.368-2.888
					c-0.73-0.505-1.533-0.937-2.332-1.354c-0.796-0.42-1.557-0.855-2.152-1.418c-0.594-0.564-1.057-1.22-1.418-1.92
					c-0.378-0.683-0.676-1.389-0.902-2.089c-0.235-0.691-0.39-1.386-0.497-2.031c-0.117-0.636-0.148-1.261-0.17-1.779
					c-0.019-0.521-0.008-0.957,0.021-1.275c0.028-0.318,0.044-0.488,0.044-0.488c0.035-0.382,0.338-0.674,0.707-0.707
					c0,0,0.17-0.016,0.488-0.044c0.318-0.029,0.754-0.041,1.275-0.021c0.518,0.022,1.143,0.053,1.779,0.17
					c0.645,0.107,1.34,0.261,2.031,0.497c0.7,0.226,1.406,0.523,2.089,0.901c0.7,0.362,1.356,0.825,1.92,1.418
					c0.563,0.595,0.999,1.356,1.418,2.152c0.417,0.798,0.849,1.602,1.354,2.332c1.013,1.458,2.005,2.936,2.889,4.368
					c0.883,1.433,1.674,2.803,2.356,3.974c0.343,0.583,0.634,1.141,0.905,1.624c0.27,0.483,0.5,0.909,0.682,1.267
					c0.374,0.708,0.575,1.124,0.575,1.124c0.127,0.263,0.017,0.58-0.246,0.707C41.723,31.5,41.552,31.494,41.412,31.427z"/>
			</g>
			<g>
				<line fill="#FCB137" x1="26.116" y1="55.884" x2="0.226" y2="45.359"/>
				<path fill="#E87746" d="M25.928,56.347c0,0-0.461-0.024-1.258-0.093c-0.401-0.029-0.883-0.075-1.433-0.135
					c-0.55-0.062-1.177-0.113-1.848-0.203c-1.344-0.173-2.914-0.369-4.577-0.625c-1.663-0.257-3.411-0.597-5.147-0.963
					c-0.869-0.182-1.777-0.267-2.675-0.341c-0.896-0.077-1.767-0.183-2.534-0.471c-0.767-0.288-1.449-0.713-2.054-1.217
					c-0.614-0.483-1.163-1.018-1.643-1.575c-0.486-0.545-0.898-1.125-1.248-1.678c-0.355-0.54-0.626-1.104-0.849-1.572
					C0.443,47,0.283,46.594,0.187,46.29c-0.097-0.305-0.149-0.467-0.149-0.467c-0.116-0.365,0.05-0.753,0.377-0.927
					c0,0,0.15-0.08,0.432-0.23c0.282-0.151,0.679-0.33,1.167-0.515c0.486-0.181,1.074-0.395,1.705-0.535
					c0.636-0.152,1.336-0.28,2.064-0.332c0.733-0.064,1.5-0.064,2.276,0.019c0.786,0.061,1.57,0.232,2.321,0.56
					c0.75,0.329,1.447,0.861,2.144,1.431c0.695,0.573,1.405,1.146,2.154,1.622c1.5,0.949,2.988,1.925,4.359,2.901
					c1.371,0.977,2.632,1.932,3.716,2.746c0.543,0.403,1.028,0.804,1.465,1.144c0.436,0.34,0.813,0.644,1.121,0.902
					c0.619,0.507,0.967,0.812,0.967,0.812c0.219,0.193,0.241,0.528,0.048,0.747C26.243,56.293,26.083,56.354,25.928,56.347z"/>
			</g>
			<g>
				<line fill="#FCB137" x1="41.766" y1="126.123" x2="22.003" y2="145.884"/>
				<path fill="#E87746" d="M42.119,126.476c0,0-0.201,0.416-0.575,1.124c-0.183,0.358-0.413,0.784-0.682,1.267
					c-0.271,0.482-0.562,1.041-0.905,1.624c-0.682,1.171-1.473,2.541-2.356,3.974c-0.884,1.432-1.875,2.91-2.889,4.367
					c-0.505,0.73-0.937,1.534-1.354,2.332c-0.419,0.796-0.855,1.557-1.418,2.151c-0.564,0.595-1.22,1.058-1.92,1.419
					c-0.683,0.378-1.389,0.676-2.089,0.901c-0.691,0.235-1.386,0.39-2.031,0.497c-0.636,0.117-1.261,0.147-1.779,0.171
					c-0.521,0.019-0.957,0.008-1.275-0.021c-0.318-0.028-0.488-0.044-0.488-0.044c-0.382-0.034-0.674-0.339-0.707-0.707
					c0,0-0.016-0.17-0.044-0.488c-0.029-0.318-0.04-0.754-0.021-1.275c0.022-0.518,0.053-1.143,0.17-1.778
					c0.107-0.646,0.262-1.341,0.497-2.031c0.226-0.7,0.524-1.406,0.902-2.09c0.361-0.7,0.824-1.356,1.418-1.92
					c0.595-0.563,1.355-0.999,2.152-1.418c0.798-0.417,1.602-0.849,2.332-1.354c1.457-1.013,2.936-2.005,4.368-2.888
					c1.433-0.883,2.803-1.674,3.974-2.356c0.583-0.343,1.141-0.635,1.624-0.905c0.483-0.27,0.909-0.5,1.267-0.682
					c0.708-0.374,1.124-0.575,1.124-0.575c0.263-0.127,0.58-0.017,0.707,0.246C42.192,126.166,42.186,126.336,42.119,126.476z"/>
			</g>
			<g>
				<line fill="#FCB137" x1="26.116" y1="101.312" x2="0.226" y2="111.837"/>
				<path fill="#E87746" d="M26.305,101.775c0,0-0.348,0.305-0.967,0.812c-0.307,0.259-0.685,0.562-1.121,0.902
					c-0.437,0.339-0.922,0.74-1.465,1.144c-1.083,0.814-2.345,1.769-3.716,2.746c-1.371,0.976-2.859,1.952-4.359,2.901
					c-0.75,0.476-1.459,1.049-2.154,1.622c-0.696,0.57-1.394,1.102-2.144,1.431c-0.75,0.329-1.535,0.5-2.321,0.561
					c-0.776,0.083-1.542,0.083-2.276,0.019c-0.728-0.052-1.428-0.18-2.064-0.332c-0.631-0.14-1.219-0.354-1.705-0.535
					c-0.488-0.185-0.885-0.364-1.167-0.515c-0.282-0.15-0.432-0.23-0.432-0.23c-0.338-0.18-0.49-0.574-0.377-0.927
					c0,0,0.052-0.162,0.149-0.467c0.097-0.305,0.256-0.71,0.477-1.183c0.222-0.468,0.494-1.032,0.849-1.572
					c0.35-0.553,0.762-1.133,1.248-1.678c0.48-0.557,1.029-1.092,1.643-1.575c0.605-0.504,1.287-0.929,2.053-1.218
					c0.767-0.288,1.638-0.393,2.534-0.47c0.898-0.075,1.806-0.16,2.675-0.341c1.736-0.367,3.484-0.706,5.147-0.963
					c1.663-0.257,3.233-0.453,4.577-0.625c0.671-0.09,1.298-0.141,1.848-0.203c0.55-0.061,1.032-0.106,1.433-0.135
					c0.797-0.069,1.258-0.093,1.258-0.093c0.292-0.015,0.541,0.209,0.556,0.501C26.492,101.518,26.42,101.672,26.305,101.775z"/>
			</g>
		</g>
		<g>
			<g>
				<line fill="#FCB137" x1="210.225" y1="126.123" x2="229.987" y2="145.884"/>
				<path fill="#E87746" d="M210.578,125.769c0,0,0.416,0.201,1.123,0.575c0.358,0.183,0.784,0.413,1.268,0.682
					c0.482,0.271,1.04,0.562,1.623,0.905c1.171,0.682,2.542,1.473,3.975,2.356s2.911,1.875,4.368,2.888
					c0.729,0.505,1.533,0.937,2.332,1.354c0.796,0.419,1.557,0.855,2.151,1.418c0.594,0.564,1.057,1.22,1.418,1.92
					c0.379,0.684,0.676,1.39,0.902,2.09c0.235,0.69,0.39,1.386,0.497,2.031c0.117,0.636,0.147,1.261,0.171,1.778
					c0.019,0.521,0.008,0.957-0.021,1.275c-0.028,0.318-0.044,0.488-0.044,0.488c-0.034,0.382-0.339,0.674-0.707,0.707
					c0,0-0.17,0.016-0.488,0.044c-0.318,0.029-0.754,0.04-1.275,0.021c-0.518-0.023-1.143-0.054-1.778-0.171
					c-0.646-0.107-1.341-0.262-2.031-0.497c-0.7-0.226-1.406-0.523-2.09-0.901c-0.7-0.361-1.356-0.824-1.92-1.419
					c-0.563-0.594-0.999-1.355-1.419-2.151c-0.417-0.798-0.849-1.602-1.354-2.332c-1.013-1.457-2.005-2.935-2.889-4.367
					c-0.883-1.433-1.674-2.803-2.355-3.974c-0.344-0.583-0.635-1.141-0.905-1.624c-0.27-0.483-0.5-0.909-0.682-1.267
					c-0.374-0.708-0.575-1.124-0.575-1.124c-0.127-0.263-0.018-0.58,0.246-0.707C210.268,125.696,210.438,125.702,210.578,125.769z"
					/>
			</g>
			<g>
				<line fill="#FCB137" x1="225.874" y1="101.313" x2="251.765" y2="111.837"/>
				<path fill="#E87746" d="M226.063,100.849c0,0,0.462,0.024,1.259,0.093c0.4,0.029,0.883,0.075,1.433,0.135
					c0.549,0.062,1.177,0.113,1.847,0.203c1.344,0.173,2.914,0.369,4.578,0.625c1.663,0.257,3.41,0.597,5.146,0.963
					c0.869,0.182,1.777,0.267,2.676,0.341c0.896,0.077,1.767,0.183,2.533,0.471s1.448,0.713,2.054,1.217
					c0.614,0.483,1.163,1.018,1.644,1.575c0.485,0.545,0.897,1.125,1.247,1.678c0.355,0.54,0.627,1.104,0.849,1.572
					c0.221,0.473,0.38,0.878,0.477,1.183c0.098,0.305,0.149,0.467,0.149,0.467c0.116,0.365-0.05,0.753-0.377,0.927
					c0,0-0.15,0.08-0.433,0.23c-0.282,0.151-0.679,0.33-1.166,0.515c-0.486,0.181-1.074,0.395-1.705,0.535
					c-0.637,0.152-1.337,0.28-2.065,0.332c-0.732,0.064-1.499,0.064-2.275-0.019c-0.785-0.061-1.57-0.232-2.32-0.56
					c-0.751-0.329-1.447-0.861-2.144-1.431c-0.695-0.573-1.405-1.146-2.154-1.622c-1.5-0.949-2.989-1.925-4.36-2.901
					c-1.37-0.977-2.632-1.932-3.715-2.746c-0.543-0.403-1.028-0.804-1.465-1.144c-0.437-0.34-0.814-0.644-1.121-0.902
					c-0.619-0.507-0.967-0.812-0.967-0.812c-0.22-0.193-0.241-0.528-0.048-0.747C225.748,100.903,225.907,100.842,226.063,100.849z"
					/>
			</g>
			<g>
				<line fill="#FCB137" x1="210.225" y1="31.074" x2="229.987" y2="11.312"/>
				<path fill="#E87746" d="M209.871,30.72c0,0,0.201-0.416,0.575-1.124c0.182-0.358,0.412-0.784,0.682-1.267
					c0.271-0.482,0.562-1.041,0.905-1.624c0.682-1.171,1.473-2.541,2.355-3.974c0.884-1.432,1.876-2.911,2.889-4.368
					c0.506-0.729,0.938-1.533,1.354-2.332c0.42-0.796,0.855-1.557,1.419-2.152c0.563-0.594,1.22-1.057,1.92-1.418
					c0.684-0.378,1.39-0.676,2.09-0.902c0.69-0.235,1.386-0.389,2.031-0.497c0.636-0.117,1.261-0.148,1.778-0.17
					c0.521-0.02,0.957-0.008,1.275,0.021s0.488,0.044,0.488,0.044c0.382,0.035,0.674,0.338,0.707,0.707c0,0,0.016,0.17,0.044,0.488
					c0.029,0.318,0.04,0.754,0.021,1.275c-0.023,0.518-0.054,1.143-0.171,1.779c-0.107,0.646-0.262,1.34-0.497,2.031
					c-0.227,0.7-0.523,1.406-0.902,2.089c-0.361,0.7-0.824,1.356-1.418,1.92c-0.595,0.563-1.355,0.999-2.151,1.418
					c-0.799,0.417-1.603,0.849-2.332,1.354c-1.457,1.013-2.936,2.005-4.368,2.888s-2.804,1.674-3.975,2.356
					c-0.583,0.343-1.141,0.635-1.623,0.905c-0.483,0.269-0.909,0.499-1.268,0.682c-0.707,0.374-1.123,0.575-1.123,0.575
					c-0.263,0.127-0.58,0.017-0.707-0.246C209.798,31.031,209.805,30.86,209.871,30.72z"/>
			</g>
			<g>
				<line fill="#FCB137" x1="225.874" y1="55.884" x2="251.765" y2="45.359"/>
				<path fill="#E87746" d="M225.686,55.421c0,0,0.348-0.305,0.967-0.812c0.307-0.259,0.685-0.562,1.121-0.902
					c0.437-0.339,0.922-0.74,1.465-1.144c1.083-0.814,2.345-1.769,3.715-2.746c1.371-0.976,2.86-1.952,4.36-2.901
					c0.749-0.476,1.459-1.049,2.154-1.622c0.695-0.57,1.393-1.102,2.144-1.431c0.75-0.329,1.535-0.5,2.32-0.561
					c0.776-0.083,1.543-0.083,2.275-0.019c0.729,0.052,1.429,0.18,2.064,0.332c0.632,0.14,1.22,0.354,1.705,0.535
					c0.488,0.185,0.885,0.364,1.167,0.515c0.282,0.15,0.433,0.23,0.433,0.23c0.339,0.18,0.489,0.574,0.377,0.927
					c0,0-0.052,0.162-0.149,0.467c-0.097,0.305-0.256,0.71-0.477,1.183c-0.222,0.468-0.493,1.032-0.849,1.572
					c-0.35,0.553-0.762,1.133-1.247,1.678c-0.48,0.557-1.029,1.092-1.644,1.575c-0.605,0.504-1.287,0.929-2.054,1.218
					c-0.767,0.288-1.637,0.393-2.533,0.47c-0.898,0.075-1.807,0.16-2.676,0.341c-1.736,0.367-3.483,0.706-5.146,0.963
					c-1.664,0.257-3.233,0.453-4.578,0.625c-0.67,0.09-1.298,0.141-1.847,0.203c-0.55,0.061-1.032,0.106-1.433,0.135
					c-0.797,0.069-1.259,0.093-1.259,0.093c-0.292,0.015-0.541-0.209-0.556-0.501C225.498,55.679,225.569,55.524,225.686,55.421z"/>
			</g>
		</g>
	</g>
</g>
</svg>
