<?xml version="1.0" encoding="utf-8"?>
<!-- Generator: Adobe Illustrator 16.0.0, SVG Export Plug-In . SVG Version: 6.00 Build 0)  -->
<!DOCTYPE svg PUBLIC "-//W3C//DTD SVG 1.1//EN" "http://www.w3.org/Graphics/SVG/1.1/DTD/svg11.dtd">
<svg version="1.1" id="Layer_1" xmlns="http://www.w3.org/2000/svg" xmlns:xlink="http://www.w3.org/1999/xlink" x="0px" y="0px"
	 width="320px" height="270px" viewBox="0 0 320 270" enable-background="new 0 0 320 270" xml:space="preserve">
<g>
	<g>
		<ellipse fill="#EB4737" cx="164.666" cy="117.89" rx="131.5" ry="108.213"/>
		<path fill="#993636" d="M296.667,117.905c0,0-0.021,0.736-0.062,2.164c-0.041,1.429-0.051,3.543-0.357,6.324
			c-0.49,5.541-1.684,13.666-5.049,23.541c-0.415,1.234-0.928,2.471-1.406,3.758c-0.247,0.64-0.498,1.287-0.752,1.944
			c-0.287,0.642-0.578,1.291-0.873,1.948c-1.102,2.67-2.489,5.352-3.939,8.154c-0.787,1.367-1.592,2.763-2.41,4.185
			c-0.852,1.405-1.799,2.785-2.711,4.229c-1.898,2.834-3.967,5.719-6.289,8.556c-4.612,5.694-10.08,11.339-16.416,16.656
			c-6.367,5.267-13.558,10.271-21.588,14.567c-16.047,8.586-35.363,14.436-56.154,15.976c-2.602,0.123-5.219,0.28-7.854,0.34
			c-1.318,0.007-2.64,0.014-3.966,0.021l-1.991,0.01l-0.334-0.004l-0.244-0.008l-0.485-0.019l-0.974-0.036
			c-2.603-0.105-5.184-0.204-7.942-0.484c-1.357-0.123-2.72-0.246-4.085-0.367c-1.344-0.178-2.691-0.354-4.043-0.53
			c-10.801-1.452-21.639-4.188-32.205-8.082l-1.985-0.722l-1.96-0.805c-1.308-0.531-2.618-1.063-3.931-1.598
			c-2.569-1.201-5.201-2.28-7.721-3.624c-5.113-2.524-10.082-5.417-14.928-8.538c-1.196-0.805-2.394-1.611-3.593-2.419
			c-1.185-0.827-2.33-1.718-3.503-2.565l-1.754-1.285l-1.701-1.361c-1.124-0.921-2.294-1.787-3.383-2.756
			c-4.472-3.74-8.628-7.881-12.608-12.21c-3.978-4.341-7.51-9.108-10.762-14.07c-3.29-4.944-6.104-10.237-8.429-15.757
			c-2.349-5.503-4.334-11.223-5.574-17.137l-0.267-1.104l-0.205-1.114l-0.407-2.23l-0.404-2.235l-0.271-2.256
			c-0.152-1.506-0.424-3.007-0.468-4.524l-0.26-4.633l0.009-4.425l0.002-1.106l0.069-1.154l0.147-2.315l0.152-2.319l0.283-2.269
			l0.287-2.271l0.145-1.136l0.211-1.125c0.96-6.036,2.674-11.936,4.802-17.655C40.821,70.573,47.414,60.1,55.3,50.98
			c3.973-4.538,8.236-8.794,12.787-12.662c4.575-3.831,9.309-7.44,14.29-10.604c4.98-3.153,10.064-6.102,15.341-8.551
			c2.595-1.321,5.297-2.371,7.936-3.543c1.347-0.518,2.691-1.033,4.032-1.549l2.012-0.77l2.036-0.686
			c1.357-0.453,2.712-0.906,4.063-1.358c1.368-0.396,2.733-0.792,4.095-1.188c2.712-0.843,5.481-1.41,8.21-2.079
			c1.369-0.316,2.751-0.549,4.122-0.825c1.375-0.249,2.735-0.57,4.115-0.751c2.751-0.399,5.479-0.888,8.223-1.115
			c1.368-0.141,2.733-0.281,4.094-0.422c1.365-0.086,2.726-0.172,4.083-0.257c2.714-0.211,5.417-0.232,8.103-0.277l1.008-0.014
			l0.502-0.008l0.252-0.003l0.355,0.005l1.939,0.053c1.293,0.035,2.58,0.069,3.863,0.104c2.613,0.115,5.346,0.335,7.975,0.519
			c20.849,1.995,40.172,7.885,56.178,16.651c8.035,4.32,15.214,9.365,21.57,14.659c6.334,5.332,11.791,10.996,16.408,16.695
			c2.321,2.841,4.39,5.729,6.289,8.566c0.91,1.448,1.858,2.829,2.709,4.235c0.819,1.425,1.623,2.821,2.41,4.19
			c1.45,2.806,2.84,5.49,3.939,8.163c0.294,0.657,0.585,1.308,0.871,1.951c0.254,0.656,0.505,1.306,0.752,1.947
			c0.478,1.288,0.988,2.525,1.402,3.761c3.356,9.884,4.532,18.026,5.006,23.556c0.3,2.767,0.305,4.901,0.342,6.337
			c0.035,1.436,0.056,2.177,0.056,2.177L296.667,117.905z M295.664,117.89c0,0-0.025-0.732-0.077-2.152
			c-0.053-1.419-0.079-3.528-0.403-6.259c-0.537-5.451-1.904-13.484-5.643-23.016c-3.818-9.457-10.167-20.359-20.021-30.489
			c-9.756-10.181-22.819-19.561-38.396-26.768c-15.618-7.089-33.712-12.19-53.277-13.7c-19.534-1.402-40.49,0.43-60.817,7.004
			l-1.911,0.602l-1.886,0.683c-1.259,0.456-2.521,0.912-3.785,1.37c-2.472,1.049-5.015,1.974-7.448,3.161
			c-4.952,2.195-9.743,4.813-14.443,7.632c-4.702,2.826-9.167,6.073-13.498,9.521c-4.312,3.477-8.321,7.342-12.138,11.407
			c-3.82,4.07-7.209,8.542-10.335,13.196c-3.157,4.642-5.856,9.607-8.096,14.784c-2.254,5.166-4.171,10.531-5.378,16.086
			l-0.258,1.034l-0.194,1.048l-0.388,2.098l-0.388,2.101l-0.255,2.084l-0.259,2.089l-0.129,1.048l-0.066,1.104l-0.263,4.417
			l0.011,4.208c-0.042,1.436,0.142,2.859,0.205,4.292l0.136,2.147l0.267,2.135l0.268,2.138l0.134,1.069l0.202,1.058
			c0.928,5.676,2.574,11.222,4.606,16.604c4.114,10.772,10.432,20.631,18.009,29.203c0.907,1.108,1.946,2.099,2.911,3.151
			l1.481,1.549l1.552,1.477c1.046,0.971,2.054,1.979,3.128,2.913l3.244,2.771c4.425,3.561,9.01,6.888,13.853,9.735
			c4.833,2.851,9.74,5.525,14.856,7.646c2.508,1.162,5.122,2.061,7.663,3.08c1.298,0.44,2.593,0.881,3.886,1.319l1.938,0.647
			l1.961,0.564c1.305,0.375,2.606,0.75,3.905,1.121c1.313,0.32,2.623,0.639,3.93,0.957c2.599,0.684,5.249,1.109,7.849,1.654
			c1.305,0.251,2.625,0.42,3.929,0.633c1.31,0.186,2.603,0.445,3.915,0.564c2.618,0.275,5.206,0.639,7.804,0.793
			c1.295,0.101,2.586,0.199,3.875,0.3c1.275,0.046,2.546,0.091,3.815,0.137c2.488,0.14,5.143,0.068,7.74,0.078l0.975,0.005
			l0.486,0.002l0.242,0.001c0.103,0.002-0.006-0.006,0.151-0.007l1.892-0.072c1.258-0.047,2.512-0.094,3.761-0.141
			c2.495-0.139,4.97-0.371,7.426-0.564c19.624-1.966,37.726-7.106,53.302-14.375c7.771-3.664,14.963-7.783,21.363-12.36
			c6.438-4.525,12.126-9.447,17.009-14.539c9.854-10.146,16.207-21.058,20.017-30.526c3.728-9.541,5.08-17.592,5.601-23.03
			c0.315-2.717,0.338-4.846,0.386-6.273c0.049-1.427,0.072-2.164,0.072-2.164L295.664,117.89z"/>
	</g>
	<g>
		<polyline fill="#EB4737" points="140.865,224.793 129.473,259.676 106.785,231.682 69.451,239.814 80.844,204.932 		"/>
		<path fill="#993636" d="M140.865,224.793c-0.438,3.074-0.952,6.123-1.533,9.15c-0.567,3.031-1.196,6.043-1.842,9.049
			c-0.66,3.002-1.339,5.997-2.061,8.978c-0.349,1.495-0.722,2.981-1.097,4.468c-0.379,1.484-0.733,2.978-1.134,4.455l-1.813,6.691
			l-4.957-5.441c-2.026-2.223-4.055-4.442-6.039-6.701l-2.984-3.379l-2.948-3.408c-1.98-2.26-3.886-4.58-5.831-6.869
			c-1.937-2.295-3.82-4.635-5.732-6.949l4.957,1.74c-3.108,0.689-6.229,1.324-9.343,1.988l-4.685,0.934l-4.689,0.914
			c-3.135,0.568-6.261,1.179-9.407,1.697c-3.139,0.553-6.287,1.06-9.439,1.549l-6.939,1.078l2.364-6.142
			c0.55-1.429,1.141-2.845,1.713-4.267c0.576-1.42,1.149-2.842,1.751-4.254l1.794-4.239l1.843-4.224
			c1.254-2.809,2.525-5.609,3.858-8.393c1.319-2.785,2.708-5.55,4.171-8.289c-0.436,3.075-0.946,6.125-1.525,9.153
			c-0.565,3.032-1.194,6.044-1.838,9.051l-1.005,4.498l-1.054,4.479c-0.347,1.496-0.725,2.981-1.098,4.469
			c-0.376,1.484-0.735,2.977-1.134,4.455l-4.575-5.063c3.07-0.865,6.144-1.715,9.228-2.519c3.077-0.837,6.173-1.582,9.26-2.369
			l4.645-1.119l4.648-1.103c3.108-0.689,6.21-1.411,9.324-2.076l3.055-0.651l1.901,2.392c1.869,2.352,3.767,4.679,5.611,7.049
			c1.836,2.377,3.712,4.722,5.513,7.127l2.724,3.591l2.688,3.619c1.798,2.407,3.549,4.854,5.305,7.295l-6.77,1.251
			c0.549-1.429,1.145-2.843,1.714-4.266c0.574-1.422,1.15-2.842,1.751-4.254c1.176-2.832,2.396-5.65,3.635-8.463
			c1.252-2.81,2.522-5.61,3.854-8.394C138.019,230.298,139.404,227.533,140.865,224.793z"/>
	</g>
	<g>
		<polyline fill="#EB4737" points="189.451,224.793 200.843,259.676 223.529,231.682 260.865,239.814 249.473,204.932 		"/>
		<path fill="#993636" d="M189.451,224.793c1.46,2.74,2.846,5.505,4.162,8.291c1.332,2.782,2.603,5.584,3.854,8.393
			c1.238,2.813,2.458,5.631,3.636,8.465c0.601,1.412,1.176,2.832,1.75,4.252c0.569,1.424,1.166,2.838,1.715,4.267l-6.771-1.251
			c1.757-2.441,3.509-4.888,5.306-7.295l2.688-3.619l2.724-3.591c1.801-2.405,3.678-4.75,5.514-7.127
			c1.845-2.37,3.742-4.697,5.611-7.048l1.9-2.393l3.057,0.651c3.113,0.665,6.215,1.387,9.323,2.077l4.647,1.102l4.646,1.119
			c3.087,0.787,6.185,1.532,9.261,2.369c3.084,0.804,6.157,1.652,9.229,2.52l-4.575,5.062c-0.399-1.479-0.758-2.97-1.135-4.455
			c-0.373-1.485-0.75-2.974-1.097-4.468l-1.056-4.48l-1.005-4.498c-0.645-3.007-1.271-6.019-1.838-9.051
			c-0.58-3.027-1.09-6.078-1.525-9.152c1.465,2.738,2.853,5.502,4.172,8.289c1.332,2.781,2.604,5.584,3.857,8.391l1.844,4.225
			l1.793,4.239c0.604,1.411,1.176,2.834,1.752,4.254c0.572,1.422,1.162,2.838,1.713,4.267l2.364,6.143l-6.938-1.079
			c-3.152-0.489-6.301-0.996-9.439-1.55c-3.146-0.519-6.271-1.129-9.406-1.696l-4.688-0.914l-4.687-0.933
			c-3.113-0.666-6.234-1.299-9.344-1.989l4.957-1.74c-1.912,2.313-3.795,4.654-5.732,6.949c-1.943,2.289-3.85,4.608-5.83,6.87
			l-2.947,3.408l-2.982,3.379c-1.984,2.258-4.014,4.479-6.039,6.701l-4.957,5.44l-1.813-6.69c-0.4-1.479-0.754-2.972-1.133-4.455
			c-0.377-1.486-0.749-2.974-1.098-4.469c-0.724-2.979-1.401-5.976-2.063-8.978c-0.646-3.006-1.275-6.019-1.842-9.05
			C190.402,230.916,189.889,227.867,189.451,224.793z"/>
	</g>
	<g>
		<polyline fill="#EB4737" points="40.166,145.572 5.165,145.572 5.165,86.181 40.166,86.181 		"/>
		<path fill="#993636" d="M40.166,145.572c-5.833,1.173-11.667,1.938-17.5,2.602c-1.458,0.151-2.917,0.326-4.375,0.458l-4.375,0.403
			c-2.917,0.238-5.833,0.466-8.75,0.642l-3.791,0.229l-0.313-4.332c-0.179-2.476-0.27-4.949-0.407-7.425
			c-0.114-2.475-0.188-4.948-0.284-7.423l-0.165-7.424l-0.055-7.424l0.052-7.425l0.159-7.424c0.163-4.949,0.366-9.898,0.686-14.848
			l0.282-4.352l3.837,0.232c2.917,0.177,5.833,0.399,8.75,0.643c2.917,0.258,5.833,0.534,8.75,0.863
			c5.833,0.664,11.667,1.433,17.5,2.613c-5.833,1.181-11.667,1.949-17.5,2.613c-2.917,0.329-5.833,0.605-8.75,0.863
			c-2.917,0.243-5.833,0.466-8.75,0.643l4.119-4.119c0.32,4.949,0.522,9.898,0.686,14.848l0.159,7.424l0.052,7.425l-0.055,7.424
			l-0.165,7.424c-0.096,2.475-0.169,4.949-0.284,7.424c-0.137,2.475-0.229,4.949-0.407,7.424l-4.104-4.104
			c2.917,0.177,5.833,0.402,8.75,0.642l4.375,0.404c1.458,0.131,2.917,0.307,4.375,0.457
			C28.499,143.633,34.332,144.398,40.166,145.572z"/>
	</g>
	<g>
		<polyline fill="#EB4737" points="53.939,57.053 48.281,11.003 90.728,29.095 		"/>
		<path fill="#993636" d="M53.939,57.053c-1.554-3.704-2.744-7.453-3.854-11.213c-0.539-1.881-1.057-3.766-1.532-5.654
			c-0.251-0.943-0.47-1.891-0.694-2.837c-0.222-0.946-0.459-1.891-0.656-2.841c-0.418-1.896-0.824-3.794-1.183-5.697
			c-0.39-1.9-0.703-3.81-1.041-5.716c-0.333-1.906-0.601-3.821-0.904-5.73l-0.773-5.748l-1.183-8.801l8.129,3.574l5.28,2.321
			c1.742,0.816,3.498,1.6,5.229,2.443c1.728,0.85,3.466,1.673,5.174,2.57c1.72,0.868,3.422,1.778,5.118,2.702
			c0.853,0.45,1.69,0.937,2.534,1.41c0.842,0.477,1.687,0.946,2.518,1.447c1.674,0.976,3.331,1.99,4.98,3.025
			c3.285,2.1,6.538,4.274,9.647,6.786c-3.965-0.503-7.787-1.345-11.576-2.26c-1.888-0.473-3.769-0.965-5.631-1.497
			c-0.938-0.253-1.861-0.537-2.788-0.814c-0.926-0.281-1.857-0.548-2.772-0.852c-1.841-0.584-3.676-1.181-5.493-1.82
			c-1.83-0.611-3.628-1.295-5.438-1.953c-1.807-0.664-3.588-1.388-5.383-2.079l-5.332-2.202l6.946-5.226l0.642,5.764
			c0.168,1.928,0.373,3.85,0.51,5.78c0.133,1.932,0.292,3.86,0.374,5.798c0.113,1.934,0.179,3.873,0.232,5.814
			c0.039,0.969,0.038,1.943,0.052,2.915c0.011,0.973,0.028,1.944,0.013,2.92c-0.003,1.948-0.05,3.901-0.117,5.857
			C54.798,49.156,54.551,53.082,53.939,57.053z"/>
	</g>
	<g>
		<path fill="#993636" d="M271.188,54.471c0,0,0.565,0.294,1.627,0.844c0.263,0.141,0.556,0.298,0.879,0.472
			c0.332,0.137,0.695,0.287,1.089,0.448c0.78,0.317,1.642,0.695,2.684,0.99c2.015,0.705,4.581,1.146,7.438,1.272
			c2.861,0.108,6.076-0.235,9.302-1.307c3.224-1.057,6.443-2.84,9.222-5.349c0.37-0.285,0.678-0.65,1.006-0.989
			c0.329-0.338,0.66-0.677,0.993-1.019c0.309-0.366,0.597-0.754,0.897-1.128l0.45-0.566l0.112-0.141l0.058-0.071l0.027-0.035
			c-0.047,0.062,0.146-0.187-0.098,0.128l0.232-0.356c0.311-0.477,0.622-0.956,0.936-1.438c0.236-0.43,0.371-0.765,0.573-1.143
			c0.199-0.335,0.361-0.798,0.535-1.234c0.174-0.438,0.367-0.867,0.474-1.332c1.17-3.605,1.07-7.651-0.103-11.348
			c-0.6-1.854-1.572-3.564-2.721-5.126c-0.283-0.396-0.57-0.788-0.92-1.131c-0.345-0.345-0.623-0.752-1.011-1.057l-0.549-0.487
			l-0.271-0.246l-0.136-0.124l-0.067-0.062c0.078,0.059-0.223-0.177,0.166,0.125l-0.048-0.035c-0.491-0.352-1.054-0.784-1.488-1.069
			c-0.344-0.159-0.592-0.355-0.973-0.547c-0.415-0.172-0.801-0.415-1.229-0.553c-0.842-0.313-1.708-0.574-2.6-0.697
			c-1.775-0.266-3.611-0.219-5.354,0.227c-1.737,0.449-3.384,1.23-4.804,2.312l-1.021,0.867l-0.464,0.485l-0.235,0.24l-0.118,0.119
			l-0.06,0.06c0.053-0.071-0.161,0.202,0.11-0.152l-0.034,0.044l-0.55,0.71l-0.277,0.352c-0.076,0.103-0.088,0.145-0.139,0.218
			c-0.08,0.133-0.168,0.261-0.262,0.389c-0.096,0.126-0.186,0.346-0.281,0.513c-0.406,0.708-0.649,1.487-0.877,2.267
			c-0.15,0.795-0.309,1.602-0.295,2.414c-0.037,0.816,0.092,1.618,0.23,2.414c0.207,0.775,0.438,1.549,0.788,2.264l0.256,0.541
			c0.097,0.174,0.207,0.338,0.308,0.509c0.189,0.352,0.433,0.663,0.674,0.976c0.221,0.333,0.515,0.597,0.775,0.893l0.2,0.219
			c0.036,0.032-0.241-0.184-0.104-0.077l0.035,0.031l0.074,0.062l0.146,0.125l0.582,0.502c0.279,0.173,0.402,0.347,0.744,0.53
			l0.459,0.278l0.482,0.227c0.314,0.175,0.662,0.249,0.993,0.385c0.343,0.073,0.683,0.195,1.03,0.243
			c2.807,0.523,5.65-0.471,7.557-2.175c1.946-1.638,2.75-3.929,2.766-5.926c0.012-1.992-0.63-3.603-1.222-4.583
			c-0.313-0.481-0.56-0.866-0.763-1.094c-0.192-0.242-0.291-0.367-0.291-0.367s0.134,0.087,0.394,0.254
			c0.271,0.16,0.643,0.435,1.106,0.842c0.439,0.425,0.981,0.979,1.479,1.753c0.525,0.759,0.99,1.746,1.275,2.94
			c0.291,1.189,0.406,2.595,0.164,4.126c-0.197,1.508-0.967,3.227-2.009,4.627c-1.058,1.454-2.543,2.794-4.388,3.798
			c-1.839,1.017-4.068,1.578-6.445,1.607c-1.189,0.01-2.416-0.146-3.629-0.481c-0.303-0.087-0.608-0.169-0.912-0.267l-0.896-0.351
			c-0.58-0.207-1.285-0.627-1.889-0.957l-0.651-0.408l-0.163-0.104l-0.08-0.052l-0.041-0.026c0.108,0.087-0.195-0.147-0.182-0.138
			l-0.374-0.302c-0.494-0.409-1.019-0.801-1.468-1.282c-0.471-0.461-0.938-0.937-1.348-1.47c-0.211-0.263-0.431-0.521-0.631-0.794
			l-0.567-0.851c-1.505-2.297-2.462-5.051-2.739-7.961c-0.314-2.908,0.135-5.988,1.341-8.845c0.161-0.363,0.279-0.701,0.483-1.086
			l0.636-1.149l0.321-0.547l0.25-0.372l0.507-0.74l0.032-0.047l0.185-0.237l0.091-0.107l0.182-0.216l0.365-0.432l0.742-0.861
			c0.531-0.542,1.094-1.063,1.65-1.591c2.311-2.034,5.123-3.575,8.156-4.457c3.027-0.888,6.281-1.17,9.464-0.694
			c1.593,0.213,3.159,0.641,4.675,1.195c0.766,0.258,1.483,0.64,2.222,0.968c0.744,0.367,1.548,0.872,2.297,1.336
			c0.606,0.419,1.037,0.765,1.563,1.151l0.048,0.035c0.418,0.327,0.146,0.118,0.254,0.204l0.106,0.097l0.214,0.193l0.427,0.388
			l0.849,0.78c0.582,0.502,1.053,1.121,1.576,1.682c0.528,0.561,0.986,1.177,1.432,1.804c1.812,2.476,3.154,5.27,3.999,8.162
			c0.839,2.897,1.154,5.898,0.998,8.825c-0.142,2.927-0.751,5.799-1.852,8.412c-0.232,0.669-0.559,1.295-0.872,1.922
			s-0.602,1.24-1.03,1.884c-0.394,0.616-0.808,1.298-1.195,1.83c-0.362,0.446-0.724,0.89-1.081,1.331l-0.27,0.331
			c-0.264,0.343-0.097,0.12-0.167,0.208l-0.042,0.043l-0.085,0.088l-0.17,0.175l-0.677,0.692c-0.453,0.456-0.892,0.919-1.352,1.354
			c-0.986,0.8-1.897,1.661-2.933,2.334c-4.039,2.833-8.464,4.455-12.59,5.082c-4.141,0.632-7.971,0.292-11.16-0.519
			c-3.195-0.814-5.787-2.03-7.712-3.29c-0.483-0.313-0.957-0.561-1.366-0.879c-0.402-0.319-0.779-0.619-1.131-0.898
			c-0.341-0.276-0.656-0.533-0.945-0.768c-0.261-0.258-0.498-0.492-0.709-0.701C271.635,54.925,271.188,54.471,271.188,54.471z"/>
	</g>
	<path fill="#993636" d="M158.818,186.912c0-2.354,0-4.661,0-6.971c0-1.239-0.027-2.479,0.008-3.719
		c0.02-0.688-0.191-0.959-0.93-1.048c-14.486-1.755-27.074-7.718-38.042-17.243c-0.18-0.156-0.339-0.336-0.594-0.59
		c4.055-4.867,8.107-9.732,12.217-14.665c7.955,6.923,16.653,12.22,27.34,14.13c0-0.594,0-1.055,0-1.517
		c0-9.119-0.027-18.239,0.031-27.358c0.006-1.205-0.387-1.622-1.512-1.899c-7.157-1.764-14.075-4.143-20.488-7.885
		c-8.326-4.858-12.283-12.218-12.852-21.667c-0.392-6.52,0.446-12.786,3.756-18.505c4.834-8.354,12.263-13.308,21.459-15.697
		c2.806-0.729,5.728-1.035,8.611-1.437c0.773-0.107,1.018-0.326,1.006-1.085c-0.037-2.312-0.014-4.627-0.014-7.022
		c3.672,0,7.249,0,11.04,0c0,1.37-0.002,2.75,0,4.13c0,1.04,0.024,2.081-0.008,3.12c-0.021,0.696,0.231,0.99,0.95,1.053
		c7.435,0.647,14.558,2.531,21.261,5.788c3.866,1.878,7.567,4.095,11.491,6.242c-3.815,5.438-7.428,10.583-10.889,15.516
		c-3.697-1.968-7.222-4.001-10.884-5.745c-3.684-1.754-7.629-2.773-11.834-3.395c-0.032,0.541-0.086,0.996-0.086,1.452
		c-0.006,8.799,0.017,17.599-0.028,26.398c-0.007,1.085,0.33,1.506,1.381,1.76c7.438,1.795,14.642,4.205,21.299,8.095
		c8.957,5.233,13.127,13.174,13.525,23.341c0.272,7.002-0.97,13.619-5.003,19.496c-4.928,7.184-11.856,11.543-20.161,13.724
		c-3.533,0.929-7.193,1.369-10.97,2.063c0,3.537,0,7.281,0,11.139C166.162,186.912,162.559,186.912,158.818,186.912z
		 M169.947,129.405c0,9.448,0,18.608,0,27.923c5.668-0.848,10.832-2.42,14.082-7.463c2.754-4.278,2.098-10.647-1.393-14.107
		C179.171,132.322,174.598,131.048,169.947,129.405z M158.74,105.663c0-9.054,0-17.823,0-26.742
		c-5.227,0.629-9.836,2.217-12.777,6.816c-2.68,4.189-2.194,10.379,1.124,13.829C150.233,102.838,154.492,104.099,158.74,105.663z"
		/>
</g>
</svg>
